<?xml version="1.0" encoding="utf-8"?>
<!-- Generator: Adobe Illustrator 23.0.3, SVG Export Plug-In . SVG Version: 6.00 Build 0)  -->
<svg version="1.1" id="Ebene_1" xmlns="http://www.w3.org/2000/svg" xmlns:xlink="http://www.w3.org/1999/xlink" x="0px" y="0px"
	 viewBox="0 0 353.9 899.6" style="enable-background:new 0 0 353.9 899.6;" xml:space="preserve">
<style type="text/css">
	.st0{fill:#FBE0E0;}
	.st1{fill:#2D2B3E;}
	.st2{fill:#B54B4A;}
	.st3{fill:#3E3745;}
	.st4{fill:#A66365;}
	.st5{fill:#F7AF7C;}
	.st6{fill:#F5A56B;}
	.st7{fill:#F8B382;}
	.st8{fill:#525764;}
	.st9{fill:#BAA2B0;}
	.st10{fill:#BFA7B4;}
	.st11{fill:#FCFAFA;}
	.st12{fill:#BE9AA6;}
	.st13{fill:#AA8E9A;}
	.st14{fill:#C7B3BF;}
	.st15{fill:#8A687F;}
	.st16{fill:#F4B7B9;}
	.st17{fill:#B698A6;}
	.st18{fill:#EBE5E9;}
	.st19{fill:#BFABB9;}
	.st20{fill:#D6C9D1;}
	.st21{fill:#F9C39E;}
	.st22{fill:#F9F6F7;}
	.st23{fill:#F5F0F3;}
	.st24{fill:#E8CCCF;}
	.st25{fill:#FAC6A1;}
	.st26{fill:#E7843C;}
	.st27{fill:#89726F;}
	.st28{fill:#E0D6DC;}
	.st29{fill:#C6967F;}
</style>
<g>
	<path class="st0" d="M175.4,452.8c0.5-2.2,1.1-4.4,1.6-6.7c0.3-1.3,0.2-2.7,0.3-4.1c1.1-1,2-2.2,3.3-2.9
		c10.2-5.5,20.4-11,30.6-16.4c1.8,0.5,4,1.7,5.5,1.2c17.8-5.8,35.5-12,53.3-17.8c3.4-1.1,4-2.9,3-6c-2.2-6.4-4.5-12.8-6.5-19.3
		c-1.5-5-2.7-10.2-4-15.3c2.3,2,4.5,4.2,7.1,6c1.2,0.8,3,1.3,4.5,1.1c1-0.1,2.1-1.4,2.7-2.4c0.2-0.3-0.7-1.8-1.5-2.2
		c-5.7-3.3-11.3-7-17.4-9.5c-9.6-4-19.6-7.3-29.4-10.9c2.9-1.9,5.6-3.9,8.6-5.7c4.2-2.6,4.3-3.7,0.4-7.1c-4-6.8-7.9-13.7-12.1-20.3
		c-3.4-5.4-7.3-10.5-10.9-15.8c2.8-6.9,5.2-13.9,8.3-20.7c6.7-14.5,16.6-25.5,32.4-30.5c10.5-3.3,21.2-5.3,31.9-3.3
		c5.4,1,11,4.1,15.2,7.7c13.9,12.2,20.9,29.1,24.9,46.2c3.8,16.3,4.3,33.5,5,50.4c1.1,24.1,1.2,48.2,1.5,72.3
		c0.3,17.3,0.2,34.6,0.3,51.9c-4.5-3.1-8.9-6.3-13.4-9.2c-2.9-1.8-6-3.3-9.1-4.9c-3.4-2.2-6.7-4.7-10.4-6.5c-1.4-0.7-3.5,0-5.3,0.1
		c0.6,1.7,0.7,3.9,1.9,5.1c10.7,10.4,22.5,19.3,35.5,26.7c0.1,5.4,0.3,10.7,0.4,16.1c-7.2-1.2-12.3,1.7-14,9.5
		c-1.6,7.2,0.6,10.7,10.8,10.2c0.6,0,1.3,0,1.9,0c2.2,7.3,3.6,14.7,0.4,22.1c-5,2.7-4.2,7.4-4.3,11.8c-3.6,0.3-7.3,0.9-10.9,1
		c-14.6,0.5-29.3,0.6-43.9,1.3c-11.8,0.6-23.5,1.9-35.2,2.8c0.1-4.1-0.6-8.3,0.4-12.1c0.8-3,0.3-4.6-2-6.2c-0.4-0.4-0.8-0.7-1.1-1.1
		c-0.4-0.2-0.8-0.5-1.2-0.7c-6.9-0.6-13.8-1.6-20.7-1.7c-2,0-5.5,2.1-5.7,3.6c-0.8,5.6-0.5,11.4-0.6,17.1c-0.3,0.6-0.7,1.2-1,1.7
		c-11.2,1.5-22.5,3-33.9,4.6c0-8.2,0-16.3,0-24.3c4,0.8,8,1.9,12.1,2.4c1.4,0.2,3-0.9,4.5-1.4c-0.9-1.6-1.4-4.1-2.7-4.5
		c-4.5-1.6-9.2-2.4-13.9-3.6c0-0.7-0.1-1.3-0.1-2c3.9-0.3,7.9-0.6,11.8-0.8c2.2-0.1,4.3,0.1,4.3-3.2c-0.1-3.3-2.3-3.7-4.6-3.8
		c-3.8-0.1-7.6-0.1-11.4-0.2c0-1.2-0.2-2.5-0.1-3.7c0.9-13.4,1.9-26.7,2.8-40.1c1.7,0.3,3.3,0.5,5,0.8c1.4,0.6,3.2,2,4.3,1.6
		c4.1-1.4,5.9-0.1,6.4,4c0.1,0.8,1,1.5,1.8,2.5c0.8-1.2,1.4-1.9,1.8-2.8c2.4-5,4.7-10,7.1-15c4.4-9.1-0.3-17.3-10.4-17.1
		c-4.9,0.1-9.9,1.8-14.8,2.8C176.1,454.8,175.7,453.8,175.4,452.8z M216.4,504.8c-0.5,4.2-1,8.3-1.4,12.5c-0.1,1,0.5,2,0.8,3
		c0.9-0.8,1.8-1.5,2.6-2.4c0.5-0.6,0.7-1.5,1-2.2c0.6-0.6,1.3-1.3,1.9-1.9c4.9-2.6,5.4-7.6,6.6-12.2c0.9-2.5,1.8-5,2.8-7.5
		c0.5-1.1,0.9-2.2,1.4-3.4c0.5-1.6,1.1-3.1,1.6-4.7c2.6-7,5.3-14,7.9-20.9c0.6-1.4,1.3-2.7,1.9-4c0.9-3.7,2.1-7.4,2.7-11.2
		c0.2-1.1-0.7-3.5-1.4-3.6c-1.6-0.3-4.1-0.1-4.8,1c-2.3,3.3-3.9,7-5.7,10.6c-0.5,1.3-0.9,2.6-1.4,4c-2.8,6.7-5.6,13.4-8.4,20.1
		c-0.7-1.1-1.1-2.8-2.1-3.1c-1.1-0.4-3.7,0.5-3.7,0.8c0.1,5.1,0.5,10.3,0.9,15.4C218.4,498.2,217.4,501.5,216.4,504.8z M287.5,287.9
		c2.6-3,5.3-6,7.9-9c-1.3-1.8-2.3-3.9-3.8-5.3c-7.3-6.8-14.7-13.4-22-20c-2.4-1.6-2.4-1.6-3.6,3.3c-5.6,2.4-9.4,6-11.1,11.7
		c-2.9,2-5.8,4.1-8.7,6.1c0.2,1,0.1,2.4,0.8,3c8,7.8,16.1,15.6,24.3,23.2c0.8,0.8,2.6,0.5,4,0.7
		C279.3,297.1,283.4,292.5,287.5,287.9z M322.3,301.9c-1.5,1.5-3.2,2.9-4.3,4.7c-4.1,6.2-1.4,14.3,5.5,16.5c0.6,0.2,1.9-1.4,2.8-2.1
		c-0.4-4.3-0.4-8.5-1.2-12.7C324.8,306,323.3,304,322.3,301.9z M290.3,417c-1.8,0.2-3.5,0.4-5.3,0.6c-0.6,0.1-1.3,0.1-2,0.3
		c-5.5,1.2-7.1,3.2-6.6,7.9c0.7,5.5,4.5,5.3,8.4,4.9c1.8-0.2,3.5-0.7,5.3-1c6.2-0.9,12.4-1.9,18.6-2.6c7.3-0.8,13.2-3.9,18.9-9.5
		c-12.2-6-23.8-3.3-35.3-0.5C291.7,417,291,417,290.3,417z M261.4,341.9L261.4,341.9c1.3,3.9,8.7,6.9,12,4.9
		c3.6-2.3,6.9-13.2,5.1-17.2c-2.5-5.6-7.9-6.5-12.9-7.1c-4.5-0.6-4.8,4.2-6.2,7.2c-0.6,1.4-1.5,2.7-1.8,4.1
		C257.2,337.1,256.1,341,261.4,341.9z M257.1,509.8c-0.8,0.7-1.6,1.3-2.7,2.2c10.9,5.8,21.4,11.4,31.8,16.9c2.9,2,4.8,1.2,6.3-1.8
		c2.8-5.5,5.1-11.3,8.6-16.3c6-8.6,8.7-17.3,3.5-27c-1.3-2.5-3-5.1-5.2-6.6c-4.5-3-9.6-5.2-14.4-7.9c-6.2-3.5-6.9-3.4-10.3,2.8
		c-5.6,10.2-11.1,20.4-16.3,30.7C257.5,504.9,257.5,507.5,257.1,509.8z M296.3,385.9c3.4,0.2,6.7,0.4,10.1,0.6
		c2.3,0.1,4.7-0.1,6.9,0.5c7.1,1.9,7.1,2,9.9-4c1.6,0,3.3,0,4.9,0c0.1-0.3,0.2-0.7,0.3-1c-2-1-4.1-1.9-6.1-2.9
		c0.1-0.3,0.3-0.6,0.4-0.9c1.8,0,3.5,0,5.3,0c0.1-0.4,0.1-0.7,0.2-1c-1.9-0.8-3.9-1.5-7.2-2.9c3.5-1,5.6-1.6,9.1-2.6
		c-3.2-0.8-4.9-1.2-8-1.9c3-1,4.6-1.5,6.1-2c0-0.3,0-0.7,0.1-1c-1.9-0.6-3.8-1.2-6.2-1.9c2.5-1.1,4.3-2,6-2.8
		c-0.1-0.3-0.2-0.6-0.3-0.9c-1.7-0.2-3.3-0.4-6.5-0.7c3.2-1.3,5.1-2.1,7-2.8c-0.1-0.4-0.2-0.7-0.3-1.1c-1.8,0-3.5,0-5.6,0
		c0-3.5-0.2-6.3-4.8-5.8c-7.1,0.7-14.2,1.1-21.3,1c-4.7,0-6.1,1.5-5.8,6.1c0.2,2.7,1,6.3-3.4,7.7c-0.7,0.2-0.8,6.7,0.2,7.2
		c3.6,1.7,3.1,4.5,2.8,7.1C289.9,384.5,291.3,386.8,296.3,385.9z M187.3,509.8c0.1,5.7,3.9,10.2,8.3,10c3.6-0.2,7.5-4.4,7.5-8.2
		c0-3-6.1-8.6-9.6-8.8C190.8,502.7,187.2,506.7,187.3,509.8z"/>
	<path class="st1" d="M141.4,114c2.7-4.7,5.5-9.4,8.2-14.1c0.1-0.3,0.2-0.7,0.3-1c0-0.6-0.1-1.3-0.1-1.9c1.8-7.2,6.3-14.8-4.3-20.2
		c5.2-3.2,10.7-5.4,8.6-12.3c0.3-0.5,0.6-1,0.8-1.5c1.4-2.1,2.5-4.5,4.2-6.4c3.9-4.2,5.9-8.9,5.2-14.7c5.5-5.4,10.9-10.9,16.2-16
		c-3.8-0.9-8.8-1.9-13.8-3.2c-1-0.3-1.7-1.6-2.6-2.5c1-0.8,2-2.3,3.1-2.3c16.1-0.9,31-5.7,46-11.2c17.3-6.4,35.2-9.9,53.3-2.8
		c4.3,1.7,8.2,4.1,12.3,6.2c1.4,0.7,2.9,1.3,4.4,1.9c1.9,5.2,5.5,8.2,10.7,10.5c5.8,2.5,11.3,6,16.2,10c6,5,5.7,5.4-1.2,8.9
		c-0.2,0.1-0.2,0.6-0.3,1.3c1.3,0.7,2.7,1.5,4.4,2.5c1.6-2.7,3.8-5.7,6-1.3c5.4,10.8,11.9,21.1,14.1,33.4c0.8,4.2,0.7,7.3-2.7,11.2
		c-1.8-2.3-3.6-4.2-4.9-6.5c-1.8-3-2.9-6.3-4.8-9.3c-4.9-7.6-5.9-7.6-11.2-0.4c-0.1,0.2-0.6,0.2-0.9,0.3c-1.8-1.6-3.6-3.2-5.5-4.7
		c-0.4,0.3-0.7,0.7-1,1.1c1.3,1.7,2.4,3.4,3.8,4.9c2.9,3.4,6.2,6.5,8.8,10.1c1,1.4,0.5,3.8,0.7,5.8c-1.7-0.4-3.9-0.3-4.9-1.4
		c-5.6-6.1-10.9-12.5-16.4-18.7c-4.1-4.7-8.3-9.3-13.6-15.2c-1,3.5-1.7,5.6-2.5,8c-6.2,1.8-7.4-3.7-9.7-7.4
		c-2.5-3.9-3.3-3.9-6.4-0.5c-1.3,1.3-3.4,1.9-5.3,2.5c-2.8,0.8-5.6,1.2-8.3,1.8c-7.9-0.5-15.1-5.8-24.6-4.1c3.1-2.4,6.2-4.8,9.3-7.2
		c-0.2-0.7-0.4-1.3-0.5-2c-1.9,0.1-3.9,0.1-5.8,0.4c-2.9,0.5-5.7,2.2-7.6-1.9c-0.6-1.3-2.4-2.2-3.7-3.2c-1.1,1.3-2.2,2.6-3.2,3.9
		c-1.3,1.7-2.2,3.9-3.8,5.2c-7.1,5.7-14.6,10.8-21.5,16.7c-5.1,4.4-11.7,7.6-13.6,14.9c-0.4,1.4-1.2,3.8-0.7,4.1
		c3.7,2.4,1.6,5.6,1.7,8.5c0.1,1.4,0.4,2.9,0.6,4.3c0.5,0,1.1,0.1,1.6,0.1c0.6-2.1,1-4.3,1.8-6.3c0.6-1.3,1.8-2.4,2.7-3.6
		c0.7,1.3,1.5,2.6,2.2,3.9c-0.3,5.6-0.5,11.1-1,16.7c-0.1,1.4-0.8,3.8-1.6,4c-1.4,0.3-3.7-0.2-4.7-1.3c-1.8-1.9-2.9-4.5-4.7-7.6
		c-4.5,8.9-6.1,17.9-7,27c-0.4,0.7-0.7,1.3-1.1,2c-0.5,1.7-1,3.5-1.5,5.2l-0.1,0.1c-1.1-2-2.4-4-3.2-6.1c-2.1-5.6-4-11.2-6.2-17.2
		c-4.8,4.9-8.7,5.4-12.6,2.2C140.2,116.7,140.8,115.3,141.4,114z M182.3,49.2c6.8-2.3,8.5-8.6,10.7-14.7c-3.2-2.2-6.2-0.5-12,6.6
		C181.4,44.1,181.9,46.7,182.3,49.2z M227.1,12.5c7.1-1.1,13.3-1.9,20.5-3C237.5,5.3,230.1,6.1,227.1,12.5z M204,27.2
		c-0.2-0.5-0.3-0.9-0.5-1.4c-1.4,0.3-2.7,0.6-4.1,0.9c-1.6,0.3-3.2,0.6-4.8,0.9c0.6,2,1.1,4,1.8,5.9c0.2,0.6,1.4,1.3,1.7,1.2
		c0.8-0.4,1.6-1.2,1.8-1.9c0.2-1-0.2-2.1-0.3-3C201.3,28.7,202.7,27.9,204,27.2z M317,46.6c-0.3-0.1-0.6-0.4-0.8-0.3
		s-0.3,0.5-0.4,0.8c0.3,0.1,0.6,0.4,0.8,0.3C316.8,47.3,316.8,46.9,317,46.6z"/>
	<path class="st2" d="M333.5,500.1c-0.1-5.4-0.3-10.7-0.4-16.1c0.1-1.1,0.1-2.2,0.2-3.3c-0.1-1.9-0.2-3.9-0.3-5.8
		c0.3-0.7,0.6-1.5,0.9-2.2c-0.1-17.3-0.1-34.6-0.3-51.9c-0.4-24.1-0.4-48.3-1.5-72.3c-0.8-16.9-1.3-34-5-50.4
		c-4-17.2-10.9-34-24.9-46.2c-4.2-3.6-9.8-6.7-15.2-7.7c-10.7-2-21.4,0.1-31.9,3.3c-15.8,5-25.7,16-32.4,30.5
		c-3.1,6.7-5.6,13.8-8.3,20.7c-0.3,0.7-0.7,1.4-1,2.1c-2.1,6.3-4.2,12.7-6.3,19c-0.5,1.1-1,2.1-1.5,3.2c-1.8,4.5-3.7,9.1-5.8,14.4
		c7,2.6,13.9,5.2,20.8,7.7c0.9,0.3,1.8,0.6,2.8,0.9c1.7,0.6,3.5,1.1,5.2,1.7c9.8,3.6,19.8,6.8,29.4,10.9c6.1,2.5,11.6,6.2,17.4,9.5
		c0.7,0.4,1.7,1.9,1.5,2.2c-0.6,1-1.7,2.3-2.7,2.4c-1.5,0.2-3.3-0.3-4.5-1.1c-2.5-1.8-4.7-4-7.1-6c-0.6-0.3-1.2-0.5-1.9-0.8
		c-1.4-0.7-2.8-1.4-4.2-2.1c-1.9-1-3.7-2.2-5.7-2.9c-14.7-5.1-29.5-10.1-44.3-15.2c-1.3-0.7-2.6-1.3-4-2c-2.6-1.6-5.2-3.2-7.8-4.8
		c2.9-7,5.9-14,8.8-20.9c0.3-0.9,0.6-1.9,0.9-2.8c1.2-4.4,2.5-8.8,3.7-13.2c0-0.7,0.1-1.4,0.1-2.1v0c0.4-0.3,0.8-0.6,1.3-0.9
		c0.2-0.7,0.4-1.3,0.7-2c0.3-0.7,0.7-1.4,1-2.2c4.1-8.6,8.2-17.3,12.3-25.9c1-1.5,2-3.1,3-4.6c0.6-0.8,1.3-1.5,1.9-2.3
		c0.6-0.8,1.3-1.5,1.9-2.3c5.2-4.1,5.2-4.1,1-8.9c-1-0.6-2-1.3-3-1.9c-3.4,1.3-6.8,2.6-10.2,3.9c-3.6,1.8-7.3,3.5-10.9,5.3
		c-1.8,0.8-3.7,1.7-5.5,2.5c-0.8,0.3-1.5,0.6-2.3,0.9c-8.2,4.3-16.8,7.1-26.2,6.5c-1.8-0.1-3.5-2-5.2-3c4.7-0.5,9.6-0.2,14.1-1.5
		c7.2-2.2,14.2-5.3,21.1-8.3c7.4-3.1,14.8-6.5,22.2-9.9c2-0.9,3.9-2.2,5.8-3.3l0,0.1c2.1,3.4,4.3,6.7,6.6,10.5
		c3-2.1,5.4-3.8,7.8-5.4c4.9-1.7,9.8-3.3,14.7-5c7.7-0.4,15.4-0.9,23.1-1.4c15.5,0.9,25.8,10.2,33.3,22.4c11,17.8,18.8,37,19.3,58.4
		c0.8,30.3,1.7,60.5,2.1,90.8c0.4,30.6,0.3,61.3,0.5,91.9c0.1,13.8,0.7,27.6,0.7,41.4c0,4.8-1,9.5-1.5,14.2c-3.6,0-6.8,0-10.3,0
		c-0.5,7.1-1.2,13.7-1.2,20.3c-0.1,44.1,0,88.3,0,132.4c0,22,0.1,44-0.2,66c-0.3,16.8-1.2,33.6-1.8,50.4c-0.1,3,0,6.1,0,9.1
		c-2.9,0-5.9-0.1-8.8-0.1c-8.5,0-16.9-0.4-25.3,0c-5.3,0.3-10.6,1.8-15.9,2.8c-2.8,1-5.6,1.8-8.3,3c-4.3,1.9-5.9,1.4-6.6-3.2
		c-1.9-12.3-3.7-24.6-5-37c-1.1-11.3-1.7-22.6-2.2-33.9c-1.7-37.4-3.3-74.8-4.9-112.2c-0.1-3.1-0.8-6.2-1.4-10.6
		c-0.8,2.2-1.4,3.1-1.4,4.1c-1.3,30.4-2.5,60.8-3.7,91.3c-0.7,19.6-1.4,39.3-1.8,58.9c-0.2,11.8,0.3,23.6,0.3,35.3
		c0,1.1-1.4,2.2-2.2,3.2c-5.2-0.6-10.5-2.2-15.5-1.6c-7.7,1-15.3,3.5-22.9,5.4c-9.6,0.2-9.8,0.3-11.3-9.8
		c-1.7-11.3-2.8-22.8-4.1-34.1c-0.2-1.6-0.6-3.2-0.8-4.9c-0.3-3.3-0.6-6.6-0.9-9.9c-0.8-5.6-1.9-11.2-2.3-16.8
		c-0.2-3,0.9-6.2,0.9-9.3c-0.1-2.7-1.1-5.3-1.5-8c-0.3-2-0.3-4-0.1-6c0.3-2.6,1.6-5.2,1.6-7.8c-0.2-46.8-0.5-93.6-0.8-140.5
		c-0.1-9.1,0-18.2,0-27.7c-1.4,0.2-3.1,0.4-4.9,0.8c-5.3,1.2-6.9,0.4-6.8-5.1c0.3-22,0.6-44,1.5-65.9c0.6-13.8,2.1-27.5,3.2-41.3
		c0.1-1.8-0.6-4.5,2.9-3.4c0.4,1,0.7,2,1.1,3c0,1.1,0.1,2.1,0.1,3.2c-0.5,6.6-0.9,13.3-1.4,19.9c-0.9,13.4-1.9,26.7-2.8,40.1
		c-0.1,1.2,0.1,2.5,0.1,3.7c0,0.7,0.1,1.4,0.1,2.2c0,0.9-0.1,1.9-0.1,2.8c0,1,0,2-0.1,3c0,0.7,0.1,1.3,0.1,2c0,0.7,0,1.4-0.1,2.2
		c0,0.9,0.1,1.9,0.1,2.8c0,0.7-0.1,1.4-0.1,2.1c0,8.1,0,16.2,0,24.3c11.4-1.5,22.6-3.1,33.9-4.6c1.4-0.1,2.8-0.2,4.2-0.2
		c0.8-0.1,1.7-0.2,2.5-0.3c6.2,0.1,12.4,0.2,18.6,0.4c1.3-0.2,2.5-0.3,3.8-0.5c0.9,0,1.9,0,2.8,0c11.7-1,23.5-2.3,35.2-2.8
		c14.6-0.7,29.3-0.8,43.9-1.3c3.6-0.1,7.3-0.7,10.9-1c6.6-1.1,7.5-3.5,4.3-11.8c3.2-7.4,1.8-14.8-0.4-22.1c0.3-5,0.7-9.9,1-14.9
		C333.3,503.3,333.4,501.7,333.5,500.1z M252.6,690.9c0,0.6,0,1.2,0,1.8c0.1,1.5,0.2,2.9,0.3,4.3c0.1,0.9,0.3,1.8,0.4,2.7
		c0,0.7-0.1,1.5-0.1,2.2c0.1,0.7,0.2,1.3,0.3,2c0,0.9-0.1,1.9-0.1,2.8c0,0.7,0,1.4,0.1,2.1c0,0.7-0.1,1.3-0.1,2c0,1,0.1,2,0.1,3
		c0,1.3,0,2.7,0,4c0,1,0.1,2,0.1,3.1c0.6,8.4,1.3,16.9,1.8,25.3c1.4,22,2.6,44.1,4.2,66.1c0.7,8.8,2.3,17.6,3.4,25.6
		c8.4-1.9,16-3.6,23.5-5.3c1.7-0.3,3.3-0.6,5-0.9c2.3,0,4.6-0.1,6.9-0.1c1,0,2,0.1,3,0.1c6.2,0.3,12.4,0.6,18.8,0.9
		c0-8.7-0.2-16.7,0-24.6c0.3-10.1,0.9-20.2,1.3-30.3c0.2-1,0.4-2,0.7-3c-0.6-2.7-1.1-5.3-1.7-8c0.6-1.1,1.8-2.1,1.8-3.2
		c0.1-10.2,0-20.5,0-30.7c0-4.4,0-8.7,0-13.1c0-8.6-0.1-17.2-0.1-25.8c-0.1-11.8-0.1-23.6-0.2-35.4c0.2-32.9,0.3-65.8,0.5-98.6
		c-14.1,0-29,0-43.9,0c-1.3,0.2-2.6,0.5-4,0.7c-12.3,1.1-24.7,2.1-37,3.2c-0.7,0-1.4,0-2.2,0c-8.9,0.1-17.8,0.1-26.6,0.2
		c-0.8,0-1.5,0-2.3-0.1c-7.3,1-14.6,1.9-22.8,3c0,21.9,0,43.3,0,64.7c0,1-0.1,2-0.1,3c0,1.7,0,3.4,0.1,5.1c0,1,0,2,0,3
		c0,5,0,10,0,15c0,1.7,0.1,3.4,0.1,5.1c0,4.3,0,8.5,0,12.8c0,0.8,0,1.6,0,2.4c-1.9,11.5,1,23,0.2,34.7c-1,16,0.4,32.1,0.8,48.1
		c0.1,1.1,0.2,2.2,0.3,3.3c0,0.9,0,1.8-0.1,2.7c0.1,0.7,0.1,1.4,0.2,2.1c0.4,5.3,0.9,10.7,1.3,16c0.1,1,0.1,2,0.2,3
		c1,9.6,2,19.3,3,28.9c0.8,5.2,1.6,10.3,2.4,15.4c0.1,3.6,1.5,5.6,5.4,4.5c4.1-0.4,8.3-0.3,12.3-1.2c7.4-1.7,14.5-4.8,22.4-2.7
		c0.8,0.2,1.8-0.3,2.6-0.5c0-6.8,0-13.3,0-19.7c0.2-10.6,0.4-21.2,0.6-31.8c0.4-18,0.8-36,1.2-54.1c-0.1-0.7-0.2-1.4-0.2-2.2
		c0.1-0.2,0.2-0.4,0.3-0.6c0.1-3.8,0.3-7.5,0.4-11.3c0.1-0.6,0.2-1.2,0.2-1.9c0-1,0-2,0-3.1c0-0.6,0-1.3,0.1-1.9
		c0-0.7-0.1-1.4-0.1-2.2c0.1-0.9,0.1-1.9,0.1-2.8c0-0.3,0-0.7,0-1c0.1-3,0.3-6,0.4-9c0.5-4.4,1-8.8,1.5-13.2
		c0.4-8.6,0.8-17.2,1.1-25.8c0-1,0-2.1,0-3.1c0.1-1,0.2-2,0.3-3.1c-0.1-1-0.3-2-0.4-3.1c0.3-1.2,0.6-2.4,0.8-3.6
		c0.5-0.7,1-1.4,1.5-2.1c5.5-2.7,5.9-2.6,7.1,3.2c0.4,1.9,0.7,3.9,0.8,5.9c0.7,8.9,1.4,17.8,2,26.7c0,0.8,0.1,1.5,0.1,2.2
		c0,1.3,0,2.6-0.1,3.8c0.1,0.8,0.2,1.5,0.3,2.3c0,2.5-0.1,5-0.1,7.5C252.6,689.3,252.6,690.1,252.6,690.9z"/>
	<path class="st3" d="M183.4,93c-0.7-1.3-1.5-2.6-2.2-3.9c-0.9,1.2-2.2,2.2-2.7,3.6c-0.9,2-1.3,4.2-1.8,6.3c-0.5,0-1.1-0.1-1.6-0.1
		c-0.2-1.4-0.6-2.9-0.6-4.3c-0.1-2.9,2-6.1-1.7-8.5c-0.5-0.3,0.4-2.7,0.7-4.1c1.9-7.4,8.5-10.6,13.6-14.9c6.9-5.9,14.4-11,21.5-16.7
		c1.6-1.3,2.5-3.5,3.8-5.2c1-1.3,2.1-2.6,3.2-3.9c1.3,1,3.1,1.8,3.7,3.2c1.8,4.2,4.7,2.4,7.6,1.9c1.9-0.3,3.9-0.3,5.8-0.4
		c0.2,0.7,0.4,1.3,0.5,2c-3.1,2.4-6.2,4.8-9.3,7.2c9.5-1.8,16.8,3.6,24.6,4.1c2.7-0.6,5.6-1,8.3-1.8c1.9-0.5,4.1-1.2,5.3-2.5
		c3.2-3.3,3.9-3.3,6.4,0.5c2.4,3.7,3.6,9.2,9.7,7.4c0.7-2.4,1.4-4.6,2.5-8c5.3,5.9,9.5,10.5,13.6,15.2c5.5,6.2,10.8,12.6,16.4,18.7
		c1,1.1,3.2,1,4.9,1.4c-0.2-2,0.3-4.4-0.7-5.8c-2.6-3.6-5.9-6.7-8.8-10.1c-1.4-1.6-2.5-3.3-3.8-4.9c0.4-0.3,0.7-0.7,1-1.1
		c1.8,1.6,3.6,3.2,5.5,4.7c0.3-0.1,0.8-0.1,0.9-0.3c5.2-7.2,6.3-7.3,11.2,0.4c1.9,2.9,3,6.3,4.8,9.3c1.3,2.2,3.2,4.2,4.9,6.5
		c3.5-4,3.5-7.1,2.7-11.2c-2.3-12.3-8.8-22.6-14.1-33.4c-2.2-4.4-4.4-1.4-6,1.3c-1.8-1-3.1-1.8-4.4-2.5c0.2-0.7,0.1-1.2,0.3-1.3
		c6.9-3.5,7.3-3.9,1.2-8.9c-4.9-4-10.4-7.5-16.2-10c-5.2-2.3-8.8-5.3-10.7-10.5c11.3-1.3,21.1,2.8,29.5,9.6
		c9.2,7.5,19.1,12.9,30.7,15.4c1.1,0.2,2.9,1.5,2.8,1.9c-0.2,1.3-1.1,3-2.1,3.4c-4.7,1.9-9.5,3.4-14.8,5.2
		c8.5,12.5,10.7,29,23.3,39.7c0.9,0.8,0.8,2.9,1.2,4.3c-1.5-0.1-3.1-0.1-4.5-0.4c-0.8-0.2-1.6-0.9-2.8-1.6
		c1.7,6.8,3.4,12.9,4.8,19.1c0.3,1.2-0.4,2.6-0.6,3.9c-1.3-0.5-2.8-0.6-3.9-1.4c-1.8-1.4-3.3-3.2-4.9-4.9c-0.5-0.4-1-0.8-1.4-1.2
		c0.2,0.7,0.3,1.4,0.5,2.1c0.5,6.9,1.1,13.8,1.3,20.7c0,1.4-1.4,2.9-2.2,4.3c-1.3-1.2-2.8-2.3-3.8-3.7c-0.9-1.3-1.3-3-2.8-4.4
		c-0.1,0.6-0.2,1.2-0.3,1.8c-0.6-3-1.8-6.1-1.8-9.1c0-6.6-5.8-10-7.9-15.4c-0.2-0.6-3.8-0.7-4.9,0.2c-3.2,2.4-5.5,1.9-7.4-1.3
		c-2-3.4-3.6-7.1-5.6-10.6c-0.8-1.4-2.3-2.4-3.4-3.6c-0.7,1.4-1.3,2.9-2.3,4.9c-5-4.3-10-8.9-15.3-13.1c-1.2-1-3.3-0.8-5-1.1
		c0.6,1.9,0.9,4.1,2,5.6c3.7,4.5,7.7,8.7,11.6,12.9c0.4,0.9,0.7,1.7,1,2.6l-0.1-0.1c-0.7,1.7-1.5,3.3-2.2,4.9c-1.5-1-3.5-1.7-4.6-3
		c-3.2-4.2-5.1-9.9-9.1-12.8c-6.7-4.9-14.6-8-22.5-12.1c0.8,3,1.8,5.8,2.2,8.7c0.1,1.3-1.1,2.9-1.7,4.3c-1.3-0.7-2.8-1.2-3.9-2.2
		c-1.3-1.2-2.3-2.8-3.5-4.2c-4.7-5.7-9.5-11.3-13.9-16.7c-10.5,6.3-21.5,13-32.7,19.5c-4.5,2.6-4.8,2.3-8-4.3
		C190.4,84.6,186.9,88.8,183.4,93z M203.5,70.7c-0.3-0.5-0.6-1.1-0.9-1.6c-5.7-1-10.7,0.4-14.2,5.3c-0.7,1-0.6,2.7-0.4,4.1
		c0,0.3,1.9,0.9,2.4,0.6C194.8,76.5,199.1,73.6,203.5,70.7z"/>
	<path class="st4" d="M198.8,842.5c7.6-1.9,15.1-4.4,22.9-5.4c5-0.6,10.3,1,15.5,1.6c0.3,14.3,0.9,28.6,0.9,42.9
		c0,11.8-3.9,16-16,16.8c-5.9,0.4-12-0.6-17.9-0.6c-11.1,0.1-22.3,0.8-33.4,0.8c-3.7,0-7.6-1-11-2.4c-5.2-2.3-7-7.3-3.8-11.9
		c3.4-5,7.6-9.7,12.4-13.4c5.6-4.3,11.9-8,18.4-10.9C194.5,856.5,198.8,851.1,198.8,842.5z"/>
	<path class="st4" d="M274.3,839.7c5.3-1,10.5-2.5,15.9-2.8c8.4-0.5,16.9,0,25.3,0c0.3,4.8,0.8,9.6,0.7,14.4
		c-0.1,10.3-1.2,20.6-0.7,30.9c0.4,7.7-3.4,11.3-9.7,13.5c-3,1-6.1,1.7-9.2,2c-9.3,0.8-18.6,1.5-27.9,1.8c-7.6,0.2-15.3,0-22.9-0.4
		c-4.3-0.2-7.4-6-5.4-10.5c5.3-12.2,11.3-23.9,24-30.1c6.2-3,9.7-7.2,9.1-14.3C273.5,842.7,274.1,841.2,274.3,839.7z"/>
	<path class="st5" d="M256.4,362.7c1.4,0.7,2.8,1.4,4.2,2.1c-0.4,1-0.8,2-1.3,3c-2.4,4-4.8,8-7.1,12c-1.6,1.7-3.2,3.4-4.8,5l0,0
		c-0.3,0.3-0.7,0.7-1,1c-0.3,0.7-0.7,1.4-1,2l0,0c-0.4,0.3-0.8,0.6-1.1,0.9c-3,4.5-6.1,9.1-9.1,13.6c-3,2.9-5.9,5.7-8.9,8.5
		c-0.7,1-1.4,2-2.1,2.9c-3.6,2.4-7.3,4.8-10.9,7.2c-0.7,0.6-1.4,1.2-2.1,1.8c-10.2,5.5-20.4,10.9-30.6,16.4
		c-1.3,0.7-2.2,1.9-3.3,2.9c-3.3,0.9-6.6,1.6-9.9,2.7c-16,4.9-32.1,10.4-49.2,8.9c-7.8-0.7-15.3-4.1-23.1-5.2
		c-16.7-2.4-29.7-11.9-43-20.9c-10.3-7-20.3-14.5-29.9-22.4c-5.2-4.3-10-9.5-13.6-15.1c-2.1-3.4-2.1-8.5-1.7-12.8
		c0.1-1.3,4.3-2.3,7.1-3.7c-1-4.2-3.9-10.1,2.1-13.8c5-3.1,9.1,0.4,12.7,3.9c4.4-7,8.1-7.5,13.6-1.1c3,3.5,5.3,7.6,8,11.4
		c1,1.5,2,2.9,3,4.5c6.7-5.8,8.9-6.5,12.8-3.1c2,1.8,3.7,4.6,4.1,7.1c0.9,5.8,4.3,9,9.3,11.3c16.3,7.4,33.1,8.2,50.2,4
		c18.5-4.6,36.1-11.5,50.2-25c4.4,1.4,3.1-3,4.6-4.6c4.3-5.8,8.6-11.6,12.9-17.4c0.5-0.9,0.9-1.8,1.4-2.7c0.7-0.8,1.3-1.5,2-2.3
		c0.6-1,1.3-2,1.9-3.1c1.3,0.7,2.6,1.3,4,2c-1,2.4-2.1,4.8-3.1,7.2c-1.3,1.2-2.7,2.3-3.8,3.6c-4.2,5.3-7.8,11.1-12.4,15.9
		c-15.2,15.5-34,25-54.9,30.4c-13.7,3.6-27.5,5.8-41.4,0.9c-10.9-3.9-22.5-6.8-24.8-21c-0.3-2-3.1-3.6-4.7-5.4
		c-0.2,0.5-0.4,1-0.6,1.5c-1.8,1-3.5,2-5.3,3c0-0.1-0.1-0.3-0.2-0.3c0-0.1-0.2,0-0.3-0.1c0.1,0.1,0.3,0.3,0.4,0.4
		c-0.4,0.9-0.9,1.9-1.3,2.8c-1.1-0.7-2.5-1.1-3.1-2.1c-3.5-5.2-6.7-10.7-10.4-15.8c-1.2-1.7-3.7-2.4-5.6-3.6
		c-0.4,2.1-0.7,4.3-1.2,6.4c-0.4,1.8-1,3.5-1.6,5.3c-0.6-0.1-1.2-0.2-1.7-0.3c-1-1.9-2-3.8-3-5.6c-2.2-3.8-7.6-6.9-9.7-5.7
		c-2.4,1.4-1.7,7.4,1,11.4c1,1.6,1.3,3.6,2.2,6.1c-4.5-0.8-7.8-1.4-11-1.9c-0.2,0.4-0.3,0.8-0.5,1.2c2.4,2.6,4.7,5.2,7.3,8
		c-1.7,1.1-2.8,1.9-4.6,3.2c3.8,3.8,6.8,7.6,10.5,10.6c7.6,6,15.7,11.5,23.5,17.2c10,7.3,19.8,14.7,31.4,19.8
		c13.1,5.8,26.7,8.8,40.8,9.9c12.6,1,25-0.4,37.1-3.9c2.2-0.6,4.6-1,6.6-1.9c6.7-2.9,13.4-5.8,19.9-9.1c6.3-3.1,12.3-6.6,18.4-10
		c6.5-4.7,13.9-8.6,19.4-14.3c9.2-9.6,17.1-20.4,25.6-30.8C249,372.8,252.7,367.8,256.4,362.7z"/>
	<path class="st5" d="M165.7,327.6c-20.2-0.2-40.6,0.1-59-9.5c-21.2-11.1-40.1-25.3-56.4-43.2c-15.7-17.2-26.7-37-36.6-57.9
		c-6.4-13.6-12-27.3-13.7-42.4c-0.9-8,3.6-12.8,11.8-11.9c0.2-1.2,0.4-2.4,0.6-3.7c0.6-3.7,2.3-6.2,6.2-7.6
		c4.3-1.5,8.1-4.5,12.8-1.6c2.2,1.4,5,2.2,6.6,4.1c1.9,2.4,2.9,5.6,4.2,8.4c2.1,4.9,3.9,9.9,8.9,12.7c4.8,2.7,4.7,8.1,6.2,12.4
		c9.4,26.6,26.8,47.1,50.2,61.9c14.3,9,30.4,14.9,47.7,16.3c2.9,0.4,5.8,0.8,8.7,1.2c0.1,1.7,0.1,3.3,0.1,5c-4.3-0.7-8.6-1.3-12.9-2
		c-9.4-2.4-19-4.3-28.2-7.4c-25.5-8.6-42.5-27.2-57.8-48.3c-7.1-9.8-8.6-21.4-13.7-31.8c-2.1-4.2-5.8-8.1-10.7-8.4
		c-1-0.1-2.6,0.4-2.9,1.2c-0.5,1-0.5,2.8,0.1,3.6c1.5,1.9,3.6,3.4,5.3,5.2c1.2,1.2,2.1,2.6,3.1,3.9c-7-0.4-12.6-5.5-13.2-10.1
		c-0.7-5.2,2.3-7.5,7-8.6c-1.3-2.8-2.5-5.2-4-8.4c-2.1,5.7-1.1,13.4-9.8,11.8c-2.6,3.4-4.6,7.2-7.6,9.6c-1.9,1.5-5.5,1-8.4,0.9
		c-0.3,0-0.6-2.9-0.8-4.6c3.1,0.5,4.9,0.9,8.3,1.5c-2.4-4.3-3.8-7.3-5.8-9.9c-1-1.4-3.2-3.1-4.5-2.8c-1.5,0.3-3.1,2.3-3.8,4
		c-0.7,1.5-0.6,3.6-0.1,5.3c2.3,8.8,4.9,17.5,7.4,26.2c0.9,3,1.3,6.1,2.7,8.8c2.9,5.3,7,10.1,9.5,15.6c7.5,16.9,18.3,31.4,30.9,44.7
		c10.1,9.2,20,18.5,30.3,27.4c2.1,1.8,5.7,1.8,8.6,2.6c1,1.5,1.7,3.5,3.1,4.5c15.2,11.2,32.5,15.5,51,15.5c1.7,0.3,3.4,0.8,5.2,1
		c4.4,0.4,8.9,0.6,13.3,0.9C165.8,325,165.7,326.3,165.7,327.6z M26.2,152.9c-1.7,4.6-1.6,4.4-6.4,3.4c-0.9-0.2-2.6,0.6-3.1,1.4
		c-1.6,2.7,1.4,14.3,4.9,17.6c0.3-2.8,0.4-5,0.8-7.1c0.3-1.1,1-2.4,2-2.9c0.5-0.3,1.9,0.8,2.7,1.4c0.7,0.5,1.3,1.3,3,3.2
		c1.4-5.9,2.4-10.5,3.6-15.4C30.6,153.8,28.6,153.4,26.2,152.9z"/>
	<path class="st0" d="M164,266.8c1.4-1,2.7-2,4.1-3.1c0.5,0.4,1.1,0.9,2,1.5c0,0,1.5,0.9,3.2,1.6c2.1,0.8,12.7-0.8,26.1-6.5
		c-0.6,3.8,1.6,6.7,4.7,7c6.4,0.8,12.9,0.4,19.4,0.5c-4.1,8.6-8.2,17.3-12.3,25.9c-6.3,1-8.7-4.1-11.7-8.2c-3.8,2.9-7,5.3-3,9.9
		c0.5,0.5,0.4,1.9,0.1,2.7c-2.9,6.4,0.9,10.5,4.6,14.8c0.8,1.3,1.5,2.6,2.3,3.9c-2.9,7-5.9,14-8.8,20.9c-1.8-0.7-3.5-1.4-5.3-2.2
		c-2.7-2.4-5.3-4.7-8-7.1c-3.9-3-7.9-6-11.8-8.9c-0.4-8.9-0.9-17.8-1.1-26.7c-0.2-7.5,0-14.9-0.2-22.4
		C168.3,266.6,167.4,266,164,266.8z"/>
	<path class="st6" d="M260.4,241c-4.9,1.7-9.8,3.3-14.7,5c-4.8-1.7-9.6-3.4-14.4-5l0-0.1c-0.3-5.2-3.3-8.4-7.7-10.6
		c-13.4-6.6-25.8-14.6-34.3-27.2c-9.9-14.5-17.5-30.1-21.8-47.2c1.6,0,3.2,0.1,4.8,0.1c1.5,5.8,2.4,11.7,4.6,17.2
		c1.8,4.7,5.1,8.8,7.6,13.3c5.7,10.1,10.9,20.5,21.6,26.7c3.4,2,6.4,4.8,9.4,7.3c8,6.6,17.2,10.6,27.5,11.4
		c11.3,0.9,22.4-1.9,31.3-8.2c15.5-10.9,31.5-22,38.1-41.4c0.8-2.4,2.8-4.4,0.6-7.3c-0.5-0.7,1.2-3.4,2.4-4.9
		c1.2-1.5,3.5-2.2,4.2-3.7c3.9-8.2,6-17,4.6-26c-0.5-3-2.7-6.7-5.3-8.2c-3.6-2.1-7.7-0.8-10.6,2.7c-0.3,0.3-0.8,0.4-1.6,0.8
		c-2.4-3.8-0.9-6.2,2.4-8.1c1.4-0.8,3-1.3,4.5-1.9c2.3,0.3,4.5,0.8,6.8,0.9c5.6,0.4,8.5,3.2,9,8.8c0.3,3.1,0.4,6.3,0.9,9.3
		c0.2,1.1,1.4,2.1,2.2,3.1c-1.1,5.4-1.6,10.9-3.5,16c-1.2,3.3-4.5,5.8-6.7,8.6c-0.8,1-1.8,2-2,3.2c-1.3,10.2-7,18.2-13.5,25.5
		c-5.6,6.3-12.5,11.4-18.6,17.3c-1.4,1.3-1.8,3.6-2.6,5.4c-1.6,0.3-3.4,0.1-4.7,0.9c-3.9,2.4-7.8,5-11.4,7.9
		C266.3,235.3,263.4,238.2,260.4,241z"/>
	<path class="st1" d="M332.5,148c-0.8-1-2-2-2.2-3.1c-0.5-3.1-0.6-6.2-0.9-9.3c-0.5-5.7-3.4-8.4-9-8.8c-2.3-0.2-4.6-0.6-6.8-0.9
		c-0.6-1.5-0.9-3.2-1.8-4.5c-4.7-7.1-9.5-14.1-14.3-21.1c-0.7-1-2-1.6-3-2.4l0.1,0.1c-0.4-0.9-0.7-1.7-1-2.6
		c-3.9-4.3-8-8.5-11.6-12.9c-1.2-1.4-1.4-3.7-2-5.6c1.7,0.3,3.8,0.1,5,1.1c5.3,4.2,10.3,8.7,15.3,13.1c0.9-2,1.6-3.4,2.3-4.9
		c1.2,1.2,2.6,2.2,3.4,3.6c2,3.4,3.6,7.1,5.6,10.6c1.9,3.2,4.2,3.7,7.4,1.3c1.1-0.8,4.6-0.7,4.9-0.2c2.1,5.4,7.9,8.8,7.9,15.4
		c0,3,1.1,6.1,1.8,9.1C335.1,133.3,334.2,140.6,332.5,148z"/>
	<path class="st2" d="M164,266.8c1.4-1.6,3.1-3.5,4.1-3.1c1.1,0.5,0.6,3.3,0.3,6.8c-0.3,3.2-0.2,9.6,0.2,22.4
		c0.2,8.9,0.8,17.8,1.1,26.7c0.5,3.1,1.1,6.1,1.6,9.2c0,0.3,0.1,0.6,0.4,0.9c0.7,4,1.4,8.1,2.3,13.2c3-2.3,4.7-3.7,6.5-5.1
		c3-0.4,6-0.8,9-1.2c0,2.5-0.1,5-0.1,7.6c-1.7,7.9-3.3,15.9-5,23.8c-1.5,1.6-0.1,6-4.6,4.6c1.4-7.6,2.7-15.1,4.1-22.7
		c0.5-2.9,1.1-5.8,1.9-9.9c-3.5,2.2-5.9,3.8-8.3,5.2c-3.4,2-6,1.4-7.3-2.6c-1.6-5-3-10.1-4.5-15.1c0-1.3,0.1-2.6,0.1-3.9
		c-0.5-7.6-1.2-15.2-1.4-22.9c-0.3-9.6-0.2-19.3-0.2-29C164.1,270.2,164.1,268.5,164,266.8z"/>
	<path class="st7" d="M260.4,241c3-2.7,6-5.6,9.2-8.2c3.6-2.8,7.5-5.4,11.4-7.9c1.3-0.8,3.1-0.6,4.7-0.9c0.1,1.4,0.3,3.6,0.8,6.2
		c1.2,5.8,3.1,8.8,1.9,10c-0.5,0.5-1.6,0.8-4.9-0.6C275.8,240.1,268.1,240.5,260.4,241z"/>
	<path class="st8" d="M141.4,114c-0.6,1.3-1.2,2.7-1.8,4c3.9,3.2,7.8,2.7,12.6-2.2c2.1,6,4,11.7,6.2,17.2c0.8,2.1,2.1,4.1,3.2,6.1
		c-1.7,1.5-3.2,1.8-3.9-0.9c-0.6-2.4-1.2-4.8-1.8-7.3c-6.9-1.4-6.9-1.4-5.9-8.3c-1.6,0.5-2.9,0.8-4.3,1.3c-4.4,1.7-9.6,0.6-10.2-2.8
		C134.7,117.1,138.1,115.3,141.4,114z"/>
	<path class="st8" d="M154.1,64.4c2.1,6.9-3.4,9.2-8.6,12.3c10.5,5.4,6.1,13,4.3,20.2c-0.4-4.1-0.8-8.2-1.2-12.4
		c-1.2-0.2-2.3-0.3-3.4-0.6c-5.1-1.5-5.9-5-2.2-8.7C146.7,71.6,150.4,68,154.1,64.4z"/>
	<path class="st7" d="M172.2,155.9c-1.6,0-3.2-0.1-4.8-0.1c-0.7-4.1-1.4-8.3-2.3-12.4c-0.4-2.1-1.2-4-1.8-6.1
		c-0.1-1.2-0.1-2.4-0.2-3.6c0.4-0.7,0.7-1.3,1.1-2c1,1.1,2.5,2.1,2.9,3.5C169,142.1,170.6,149,172.2,155.9z"/>
	<path class="st8" d="M164.4,41.9c0.7,5.8-1.4,10.5-5.2,14.7c-1.7,1.9-2.8,4.2-4.2,6.4C155.7,54.9,157.9,47.5,164.4,41.9z"/>
	<path class="st8" d="M163.2,133.8c0.1,1.2,0.1,2.4,0.2,3.6c-0.6,0.6-1.1,1.1-1.7,1.7C162.2,137.3,162.7,135.6,163.2,133.8z"/>
	<path class="st8" d="M149.9,98.8c-0.1,0.3-0.2,0.7-0.3,1C149.7,99.5,149.8,99.2,149.9,98.8z"/>
	<path class="st9" d="M296.3,385.9c-5,1-6.5-1.4-6-6.1c0.3-2.6,0.8-5.3-2.8-7.1c-1.1-0.5-0.9-7-0.2-7.2c4.4-1.4,3.6-5,3.4-7.7
		c-0.3-4.6,1.1-6.2,5.8-6.1c7.1,0.1,14.2-0.4,21.3-1c4.5-0.4,4.7,2.4,4.8,5.8c2,0,3.8,0,5.6,0c0.1,0.4,0.2,0.7,0.3,1.1
		c-1.9,0.8-3.7,1.5-7,2.8c3.1,0.3,4.8,0.5,6.5,0.7c0.1,0.3,0.2,0.6,0.3,0.9c-1.8,0.8-3.6,1.6-6,2.8c2.4,0.8,4.3,1.4,6.2,1.9
		c0,0.3,0,0.7-0.1,1c-1.6,0.5-3.1,1-6.1,2c3.1,0.7,4.8,1.1,8,1.9c-3.4,1-5.5,1.6-9.1,2.6c3.4,1.3,5.3,2.1,7.2,2.9
		c-0.1,0.4-0.1,0.7-0.2,1c-1.8,0-3.5,0-5.3,0c-0.1,0.3-0.3,0.6-0.4,0.9c2,1,4.1,1.9,6.1,2.9c-0.1,0.3-0.2,0.7-0.3,1
		c-1.6,0-3.3,0-4.9,0c-2.8,6-2.8,5.9-9.9,4c-2.2-0.6-4.6-0.4-6.9-0.5c0-0.8,0-1.7,0-2.5c3.4-0.5,8.1,1.8,8.8-4.2
		c0.6,0,1.2,0.1,1.8,0.1c0.3,1.9,0.5,3.8,0.8,5.6c0.5-0.1,1.1-0.1,1.6-0.2c0-10.7,0-21.4,0-33.3c-1.1,1.9-1.7,2.8-2.2,3.6
		c-7-0.3-13.9-0.8-20.9-0.8c-1,0-2.8,2.3-2.9,3.5c-0.3,7.5-0.4,15-0.1,22.5c0,1.1,1.9,2.1,2.9,3.1
		C296.3,384.6,296.3,385.2,296.3,385.9z"/>
	<path class="st10" d="M257.1,509.8c0.4-2.3,0.3-4.9,1.3-6.9c5.3-10.3,10.8-20.5,16.3-30.7c3.4-6.2,4.2-6.3,10.3-2.8
		c4.8,2.7,9.8,4.9,14.4,7.9c2.2,1.5,3.9,4.1,5.2,6.6c5.1,9.8,2.4,18.5-3.5,27c-3.5,5-5.8,10.8-8.6,16.3c-1.5,3-3.5,3.8-6.3,1.8
		c0.7-0.6,1.4-1.3,2-1.9c0.8-0.8,2-1.4,2.5-2.3c4.7-8.4,9.4-16.8,13.9-25.3c0.5-0.9-0.3-2.3-0.4-3.5c0.3-0.8,0.6-1.5,1-2.3
		c-0.3-0.3-0.6-0.5-0.9-0.8l0,0c-1-2.4-2-4.8-3-7.3c-0.4-1-0.7-2-1.1-2.9c-0.3-0.8-0.4-2.1-1-2.4c-2.8-1.7-5.8-3.1-8.7-4.8
		c-2.3-1.3-3.3-0.8-4.5,1.6c-2.4,4.8-5.5,9.3-8.2,14c-0.6-0.1-1.1-0.2-1.7-0.4c2.1-4.1,4.3-8.1,6.5-12.3c-2.2-1-4.3-1.9-6.4-2.8
		c-2.1,3.6-4,6.9-5.9,10.1c-0.7,1.6-1.3,3.3-2,5c-2.4,4.4-4.8,8.7-7.2,13.1c-0.9,2-1.9,4-2.8,6C258,509.8,257.5,509.8,257.1,509.8z
		 M283.4,475.7c2.4-2.2,2-3.6-0.7-4.8c-2.6-1.2-4.7-1.7-5,2.3C279.5,474,281.3,474.8,283.4,475.7z"/>
	<path class="st10" d="M259.3,367.8c0.4-1,0.8-2,1.3-3c0.6,0.3,1.2,0.5,1.9,0.8c1.3,5.1,2.5,10.2,4,15.3c2,6.5,4.3,12.9,6.5,19.3
		c1,3,0.4,4.9-3,6c-17.8,5.9-35.5,12-53.3,17.8c-1.5,0.5-3.6-0.8-5.5-1.2c0.7-0.6,1.4-1.2,2.1-1.8c0.4,0.3,0.9,0.9,1.2,0.8
		c8.7-2.7,17.4-5.5,25.6-8.1c-1.4-3.8-2.6-6.8-3.7-9.8c2.3-0.3,4.6-0.6,7-0.9c0.4,2.3,0.8,4.6,1.2,7c-0.3,0.5-0.5,0.9-0.8,1.4
		c0.9-0.1,1.9-0.2,2.8-0.3c6.6-2.1,13.1-4.3,19.7-6.2c3.7-1,4.7-2.5,3.3-6.3C265.9,388.3,262.7,378,259.3,367.8z"/>
	<path class="st10" d="M292.3,417c11.6-2.8,23.1-5.5,35.3,0.5c-5.6,5.6-11.5,8.8-18.9,9.5c-6.2,0.6-12.4,1.7-18.6,2.6
		c1-1.9,2-3.8,3.1-5.6c6.9-1.1,13.8-2.1,20.6-3.2c-0.1-0.7-0.2-1.4-0.4-2c-6.4,0.9-12.9,1.8-19.3,2.9c-0.5,0.1-0.7,1.5-1,2.3
		c-0.6,0-1.2,0-1.7,0c-0.4-0.5-0.8-0.9-1.3-1.4C287.9,419.5,292.2,419,292.3,417z M309.3,416.8c-1.3,0.1-2.6,0.2-4,0.2
		c0.1,0.3,0.1,0.6,0.2,1C306.8,417.6,308.1,417.2,309.3,416.8c1.1,0,2-0.1,3-0.2c-0.1-0.3-0.1-0.5-0.2-0.8
		C311.2,416.1,310.3,416.4,309.3,416.8z M294.8,418.2c0.1,0.4,0.1,0.7,0.2,1.1c2.3-0.3,4.5-0.6,6.8-1c-0.1-0.3-0.1-0.6-0.2-0.9
		C299.3,417.7,297,418,294.8,418.2z"/>
	<path class="st11" d="M175.1,479c0.5-6.6,0.9-13.3,1.4-19.9c4.9-1.1,9.8-2.1,14.7-3.2c-0.5,0.4-1,0.8-1.5,1.1
		c-4.3,2.8-6.1,7-4.7,10.9c1.5,4.3,4.7,6,10.4,5.5c-0.7,2.3-1.4,4.6-1.8,5.9c-2.5-0.5-4.4-1.2-6.2-1c-2.4,0.2-4.9,1-7.3,1.5
		C178.5,479.5,176.8,479.2,175.1,479z"/>
	<path class="st12" d="M261.4,341.9c-5.2-0.9-4.1-4.7-3.6-8.1c0.2-1.4,1.1-2.7,1.8-4.1c1.4-3,1.7-7.8,6.2-7.2
		c4.9,0.6,10.4,1.5,12.9,7.1c1.7,4-1.5,14.9-5.1,17.2C270.1,348.8,262.7,345.8,261.4,341.9c1.8-0.1,3.8,0,5.6-0.3
		c1.8-0.3,4.2-0.5,5-1.7c1.5-2.3,2.5-5.1,3.1-7.8c1-4.6-3.2-5.1-6-6.4c-2.5-1.2-4.4-1.2-6,2C260.7,332.3,259.7,336.8,261.4,341.9z"
		/>
	<path class="st9" d="M191.2,455.9c-4.9,1.1-9.8,2.1-14.7,3.2c0-1.1-0.1-2.1-0.1-3.2c4.9-1,9.9-2.8,14.8-2.8
		c10.1-0.2,14.7,8,10.4,17.1c-2.4,5-4.7,10-7.1,15c-0.4,0.9-1,1.6-1.8,2.8c-0.8-1.1-1.7-1.7-1.8-2.5c-0.5-4.1-2.3-5.4-6.4-4
		c-1.1,0.4-2.9-1-4.3-1.6c2.4-0.5,4.8-1.3,7.3-1.5c1.8-0.1,3.7,0.6,6.2,1c0.4-1.3,1.1-3.6,1.8-5.9c4.5-2.2,6.1-6,5.3-10.6
		C199.8,457.8,195.4,456.7,191.2,455.9z"/>
	<path class="st12" d="M241.6,465c-2.6,7-5.3,14-7.9,20.9c-0.5-0.6-0.9-1.3-1.4-1.9c0.5-3.7,6.7-7.9-1.6-11
		c-1.1,3.2-2.1,6.3-3.2,9.5c-0.9,0.1-1.8,0.2-2.7,0.3c-0.1-0.4-0.3-0.8-0.4-1.1c2.8-6.7,5.6-13.4,8.4-20.1c2-0.5,3.9-0.9,5.3-1.2
		C239.4,462.1,240.5,463.6,241.6,465z"/>
	<path class="st10" d="M333.3,480.7c-0.1,1.1-0.1,2.2-0.2,3.3c-12.9-7.4-24.8-16.3-35.5-26.7c-1.2-1.1-1.3-3.4-1.9-5.1
		c1.8-0.1,3.9-0.9,5.3-0.1c3.6,1.8,6.9,4.3,10.4,6.5c0,0.7,0,1.4-0.1,2.1c-3.1-1.7-6.2-3.4-9.3-5.1c-0.4,0.5-0.7,1.1-1.1,1.6
		c4.3,3.5,8.4,7.2,12.9,10.4C320.1,472.2,326.8,476.4,333.3,480.7z"/>
	<path class="st13" d="M293.3,423.9c-1,1.9-2,3.8-3.1,5.6c-1.8,0.4-3.5,0.9-5.3,1c-3.9,0.4-7.7,0.6-8.4-4.9c-0.6-4.6,1-6.7,6.6-7.9
		c0.6-0.1,1.3-0.2,2-0.3c1.8-0.2,3.5-0.4,5.3-0.6c0.7,0,1.3,0,2,0c-0.1,2.1-4.5,2.5-2.1,5.6c0.4,0.5,0.8,0.9,1.3,1.4
		C292.1,423.9,292.7,423.9,293.3,423.9L293.3,423.9z"/>
	<path class="st14" d="M257.1,509.8c0.4,0,0.8,0,1.2,0.1c1.8,1.4,3.6,2.8,5.5,4.4c1.1-2.7,2.3-5.5,3.5-8.4c2.8-2.8,2.6-8.3,7.8-9
		c-2.9,5.9-5.9,11.8-8.9,18c7.8,4.2,14.9,8.2,22.1,12.1c-0.7,0.6-1.4,1.3-2,1.9c-10.5-5.6-20.9-11.1-31.8-16.9
		C255.5,511.1,256.3,510.4,257.1,509.8z"/>
	<path class="st15" d="M232.3,484.1c0.5,0.6,0.9,1.3,1.4,1.9c-0.5,1.6-1.1,3.1-1.6,4.7c-0.5,1.1-0.9,2.2-1.4,3.4
		c-0.9,2.5-1.8,5-2.8,7.5c-1.1,0.4-2.3,0.7-3.5,1.1c-0.6-0.4-1.2-0.8-1.9-1.2c-0.3-2.7-0.6-5.4-0.9-8.1c1-3.5,2-7,3.1-10.5
		c0.9-0.1,1.8-0.2,2.7-0.3C229.1,483.1,230.7,483.6,232.3,484.1z"/>
	<path class="st16" d="M333.2,505c-0.3,5-0.7,9.9-1,14.9c-0.6,0-1.3,0-1.9,0c-0.9-0.4-1.8-0.9-2.7-1.3c-6.8-3.2-6.8-3.7-5.3-10.4
		c1.4-5.9,5.2-4,8.9-3.3C331.9,505,332.5,504.9,333.2,505z"/>
	<path class="st2" d="M187.3,509.8c-0.1-3,3.6-7.1,6.3-7c3.5,0.1,9.6,5.8,9.6,8.8c0,3.8-3.9,7.9-7.5,8.2
		C191.2,520,187.4,515.4,187.3,509.8z M192.9,505.5c-2.4,4.7-2.6,7.9,1,9.9c0.9,0.5,3.8-0.5,4.4-1.6
		C201.4,507.8,193.8,509.7,192.9,505.5z"/>
	<path class="st12" d="M213.3,300.8c0.3-0.7,0.7-1.4,1-2.1c3.6,5.3,7.5,10.4,10.9,15.8c4.2,6.7,8.1,13.5,12.1,20.3c-1,0-2,0-3,0
		C227.3,323.5,220.3,312.1,213.3,300.8z"/>
	<path class="st10" d="M207.3,557.8c0.1-5.7-0.2-11.5,0.6-17.1c0.2-1.5,3.8-3.7,5.7-3.6c6.9,0.1,13.8,1.1,20.7,1.7
		c0,0.6,0,1.3,0,1.9c-6.8-0.3-13.5-0.9-20.3-0.8c-1.3,0-3.5,2.4-3.7,3.9c-0.7,4.9-0.6,9.9-0.8,14.8
		C208.8,558.4,208,558.1,207.3,557.8z"/>
	<path class="st17" d="M275.2,301.6c-1.4-0.2-3.1,0.1-4-0.7c-8.2-7.6-16.3-15.4-24.3-23.2c-0.6-0.6-0.5-2-0.8-3
		c0.9,0,1.8,0.1,2.7,0.1c0.1,0.5,0.2,1.1,0.5,1.4c7.5,7.3,15.1,14.7,22.8,21.9c0.6,0.6,2.1,0.4,3.2,0.5
		C275.3,299.6,275.2,300.6,275.2,301.6z"/>
	<path class="st17" d="M333.2,505c-0.7,0-1.3,0-2-0.1c-3.6-0.7-7.5-2.6-8.9,3.3c-1.6,6.7-1.5,7.2,5.3,10.4c0.9,0.4,1.8,0.8,2.7,1.3
		c-10.2,0.5-12.3-3.1-10.8-10.3c1.7-7.8,6.8-10.7,14-9.5C333.4,501.7,333.3,503.3,333.2,505z"/>
	<path class="st11" d="M322.3,301.9c1,2.1,2.5,4.1,2.8,6.3c0.7,4.2,0.8,8.5,1.2,12.7c-7.4-1.9-9.5-6.6-6-13.2
		C321.2,305.9,321.6,303.8,322.3,301.9z"/>
	<path class="st10" d="M172.4,539.8c0-0.7,0.1-1.4,0.1-2.1c4.3,0.7,8.5,1.4,12.8,2.1c0.1-0.3,0.1-0.7,0.2-1c-4.4-1.3-8.8-2.6-13.1-4
		c0-0.7,0-1.4,0.1-2.2c4.6,1.1,9.4,2,13.9,3.6c1.3,0.5,1.8,3,2.7,4.5c-1.5,0.5-3.1,1.6-4.5,1.4C180.5,541.7,176.5,540.6,172.4,539.8
		z"/>
	<path class="st17" d="M234.2,457.8c1.9-3.6,3.4-7.3,5.7-10.6c0.7-1,3.3-1.2,4.8-1c0.7,0.1,1.6,2.4,1.4,3.6
		c-0.6,3.8-1.8,7.5-2.7,11.2c-0.5-0.5-1-1-1.5-1.5c0.4-1.3,1.3-2.6,1.1-3.8c-0.2-1.3-1.4-2.5-2.1-3.8c-1.1,0.8-2.5,1.4-3.2,2.4
		c-0.5,0.8-0.2,2.2-0.3,3.3C236.4,457.7,235.3,457.7,234.2,457.8z"/>
	<path class="st10" d="M172.4,530.7c0-1,0-2,0.1-3c4.4,0,8.9,0,13.3,0c0-0.5,0-1,0-1.6c-4.4-0.4-8.9-0.8-13.3-1.2
		c0-0.7-0.1-1.4-0.1-2.2c3.8,0,7.6,0,11.4,0.2c2.4,0.1,4.6,0.4,4.6,3.8c0.1,3.3-2,3.1-4.3,3.2C180.2,530.1,176.3,530.5,172.4,530.7z
		"/>
	<path class="st18" d="M224.8,482.9c-1,3.5-2,7-3.1,10.5c-0.8,0.5-1.5,0.9-2.3,1.4c-0.3-5.1-0.8-10.2-0.9-15.4
		c0-0.3,2.6-1.2,3.7-0.8c0.9,0.3,1.4,2,2.1,3.1C224.5,482.2,224.6,482.6,224.8,482.9z"/>
	<path class="st14" d="M311.3,460.8c0-0.7,0-1.4,0.1-2.1c3,1.6,6.2,3,9.1,4.9c4.6,2.9,9,6.1,13.4,9.2c-0.3,0.7-0.6,1.5-0.9,2.2
		c-2.7-1.5-5.5-2.8-8.1-4.5C320.3,467.4,315.8,464,311.3,460.8z"/>
	<path class="st14" d="M269.6,253.6c7.4,6.7,14.8,13.2,22,20c1.6,1.5,2.6,3.5,3.8,5.3c-0.6,0-1.3-0.1-2-0.1
		c-8-7.7-16.1-15.4-24.1-23C269.4,255.1,269.5,254.3,269.6,253.6z"/>
	<path class="st19" d="M322.3,301.9c-0.7,2-1,4.1-2,5.9c-3.5,6.6-1.4,11.3,6,13.2c-1,0.8-2.2,2.3-2.8,2.1
		c-6.9-2.2-9.6-10.3-5.5-16.5C319.1,304.8,320.8,303.4,322.3,301.9z"/>
	<path class="st16" d="M222.6,501.5c0.6,0.4,1.2,0.8,1.9,1.2c-1.1,3.7-2.1,7.4-3.2,11.1c-0.6,0.6-1.3,1.3-1.9,1.9
		c-4.2-3.3-1.7-7.2-1.1-10.9C219.7,503.7,221.2,502.6,222.6,501.5z"/>
	<path class="st9" d="M269.6,253.6c-0.1,0.7-0.2,1.5-0.2,2.2c-1,1.7-1.6,3.7-3,5c-3.1,2.9-6.5,5.4-9.8,8.1c-0.5-0.1-1.1-0.2-1.6-0.2
		c1.7-5.7,5.5-9.2,11.1-11.7C267.1,252,267.1,252,269.6,253.6z"/>
	<path class="st19" d="M234.4,334.8c1,0,2,0,3,0c3.9,3.5,3.8,4.6-0.4,7.1c-2.9,1.8-5.7,3.8-8.6,5.7c-1.7-0.6-3.5-1.1-5.2-1.7
		c0.3-0.1,0.6-0.1,1-0.1c3.8-1.9,7.7-3.6,11.2-5.9c1.9-1.2,1.5-2.9-1.1-3.2C234.3,336.1,234.3,335.5,234.4,334.8z"/>
	<path class="st14" d="M275.2,301.6c0-1,0-2,0.1-3c4-3.7,7.9-7.5,11.8-11.2c0.1,0.2,0.2,0.4,0.4,0.5
		C283.4,292.5,279.3,297.1,275.2,301.6z"/>
	<path class="st9" d="M332.5,541.9c3.2,8.3,2.3,10.8-4.3,11.8C328.4,549.3,327.6,544.6,332.5,541.9z"/>
	<path class="st12" d="M238.2,558.9c-0.9,0-1.9,0-2.8,0c0.3-4.7,0.5-9.5,0.8-14.2c0.5-0.2,0.9-0.3,1.4-0.5c-0.4-0.2-0.7-0.3-1.1-0.5
		c-0.4-0.9-0.9-1.8-1.3-2.7l0.2-0.2c0.4-0.1,0.9-0.1,1.4-0.2c2.2,1.6,2.8,3.2,2,6.2C237.6,550.6,238.3,554.8,238.2,558.9z"/>
	<path class="st17" d="M218.3,504.8c-0.6,3.7-3.1,7.7,1.1,10.9c-0.3,0.8-0.5,1.6-1,2.2c-0.7,0.9-1.7,1.6-2.6,2.4c-0.3-1-0.9-2-0.8-3
		c0.4-4.2,0.9-8.4,1.4-12.5C217,504.8,217.7,504.8,218.3,504.8z"/>
	<path class="st13" d="M234.2,457.8c1.1,0,2.2-0.1,3.3-0.1c1.5,0.6,3,1.2,4.4,1.8c0.5,0.5,1,1,1.5,1.5c-0.6,1.4-1.3,2.7-1.9,4
		c-1.1-1.4-2.2-2.9-3.5-4.5c-1.4,0.3-3.3,0.8-5.3,1.2C233.3,460.4,233.8,459.1,234.2,457.8z"/>
	<path class="st9" d="M218.3,504.8c-0.6,0-1.3,0-1.9,0c1-3.3,2.1-6.6,3.1-10c0.8-0.5,1.5-0.9,2.3-1.4c0.3,2.7,0.6,5.4,0.9,8.1
		C221.2,502.6,219.7,503.7,218.3,504.8z"/>
	<path class="st20" d="M293.5,278.8c0.6,0,1.3,0.1,2,0.1c-2.6,3-5.3,6-7.9,9c-0.1-0.2-0.3-0.3-0.4-0.5
		C289.3,284.5,291.4,281.7,293.5,278.8z"/>
	<path class="st12" d="M221.3,513.8c1.1-3.7,2.1-7.4,3.2-11.1c1.1-0.4,2.3-0.7,3.5-1.1C226.6,506.2,226.1,511.2,221.3,513.8z"/>
	<path class="st14" d="M306.4,384c0,0.8,0,1.7,0,2.5c-3.4-0.2-6.7-0.4-10.1-0.6c0-0.6,0-1.3,0-2C299.7,383.9,303,384,306.4,384z"/>
	<path class="st10" d="M254.9,268.6c0.5,0.1,1.1,0.2,1.6,0.2c-1.3,1.3-2.5,2.8-3.9,4c-1.1,0.9-2.5,1.4-3.7,2c-0.9,0-1.8-0.1-2.7-0.1
		C249.1,272.7,252,270.6,254.9,268.6z"/>
	<path class="st10" d="M290.3,417c-1.8,0.2-3.5,0.4-5.3,0.6C286.8,417.4,288.6,417.1,290.3,417z"/>
	<path class="st12" d="M230.7,494c0.5-1.1,0.9-2.2,1.4-3.4C231.6,491.8,231.1,492.9,230.7,494z"/>
	<path class="st12" d="M207.3,557.8c0.7,0.3,1.4,0.6,2.2,0.9c0.3,0.2,0.7,0.4,1,0.6c-1.4,0.1-2.8,0.2-4.2,0.2
		C206.6,559,207,558.4,207.3,557.8z"/>
	<path class="st12" d="M234.4,540.7c0-0.6,0-1.3,0-1.9c0.4,0.2,0.8,0.5,1.2,0.7c-0.1,0.4-0.1,0.9-0.2,1.3l-0.2,0.2
		C234.9,541,234.6,540.9,234.4,540.7z"/>
	<path class="st10" d="M235.3,540.8c0.1-0.4,0.1-0.9,0.2-1.3c0.4,0.4,0.8,0.7,1.1,1.1C236.2,540.7,235.8,540.7,235.3,540.8z"/>
	<path class="st21" d="M172.2,155.9c-1.6-6.9-3.2-13.8-5-20.6c-0.4-1.3-1.9-2.3-2.9-3.5c0.9-9.2,2.5-18.2,7-27.1
		c1.8,3.1,2.9,5.6,4.7,7.6c1,1.1,3.3,1.6,4.7,1.3c0.8-0.2,1.5-2.6,1.6-4c0.5-5.6,0.7-11.1,1-16.7c3.5-4.2,7-8.3,11-13
		c3.3,6.7,3.6,6.9,8,4.3c11.1-6.5,22.2-13.2,32.7-19.5c4.5,5.3,9.2,11,13.9,16.7c1.2,1.4,2.2,3,3.5,4.2c1.1,1,2.6,1.5,3.9,2.2
		c0.6-1.4,1.8-2.9,1.7-4.3c-0.3-2.9-1.4-5.7-2.2-8.7c7.9,4.1,15.8,7.3,22.5,12.1c4,2.9,6,8.6,9.1,12.8c1,1.4,3,2,4.6,3
		c0.7-1.7,1.5-3.3,2.2-4.9c1,0.8,2.3,1.4,3,2.4c4.9,7,9.6,14,14.3,21.1c0.9,1.3,1.2,3,1.8,4.5c-1.5,0.6-3.1,1.1-4.5,1.9
		c-3.3,1.8-4.8,4.3-2.4,8.1c0.8-0.4,1.3-0.5,1.6-0.8c2.9-3.5,7-4.8,10.6-2.7c2.5,1.5,4.8,5.2,5.3,8.2c1.4,9-0.7,17.8-4.6,26
		c-0.8,1.6-3.1,2.3-4.2,3.7c-1.1,1.4-2.9,4.2-2.4,4.9c2.2,2.9,0.2,4.9-0.6,7.3c-6.7,19.3-22.7,30.4-38.1,41.4
		c-8.9,6.3-20,9-31.3,8.2c-10.3-0.8-19.5-4.8-27.5-11.4c-3.1-2.5-6-5.3-9.4-7.3c-10.7-6.2-15.9-16.6-21.6-26.7
		c-2.5-4.4-5.7-8.6-7.6-13.3C174.6,167.6,173.7,161.7,172.2,155.9z M284.3,141.9c-0.5-3.7-3-4.2-6-4c-3.2,0.1-6.5-3.5-9.7-0.1
		c-2,0.2-3.9,0.3-5.9,0.5c-1.8,0.9-4.1,1.2-5.1,2.6c-2.1,2.9-4.6,6.2-4.7,9.4c-0.1,4.4,4.5,4.9,8.2,5.4c1.5,0.2,3,0,4.4-0.1
		c1.6,0,3.3-0.1,4.9-0.1c5.8-0.6,11.4-1.4,15.3-6.5C288,146.2,287.6,144.3,284.3,141.9L284.3,141.9z M190.1,150.6
		c-6.3,2.4-9.8,6.7-8.7,11c1.5,5.8,6.6,5,10.9,5.4c0.3,0,0.6-0.1,1-0.1c2.6-0.3,5.1-0.5,7.7-0.8c0.7-0.4,1.4-0.8,2-1.1
		c1.6-0.4,3.2-0.6,4.7-1.2c3.9-1.4,7.2-6,6.6-9.1c-1.4-5.7-9.9-8.9-17.3-6.4C194.8,149,192.5,149.8,190.1,150.6z M255.2,190.1
		c-0.2-0.6-0.4-1.1-0.6-1.7c-4.2,1.4-8.4,3.6-12.7,4c-4.4,0.4-9-0.9-14.5-1.6C233.6,198.8,249.9,197.7,255.2,190.1z M309.1,149.7
		c0.2,2.6-0.1,4.2,0.5,5.2c1.1,1.6,2.8,2.6,4.3,3.9c1.1-1.5,3.4-4.1,3.1-4.4c-3.2-3.6-1.5-7.2-0.8-10.9c0.2-1-1-2.2-1.6-3.3
		c-1,0.7-2.5,1.2-3,2.1C310.5,145.1,309.7,148,309.1,149.7z M206.7,137.9c-3.7-4.2-16.7-1.1-21.7,5.9
		C192.9,141.6,199.5,139.9,206.7,137.9z M280.7,124.8c-3.5-3.3-14.5-3.7-17.1-1c-0.5,0.5-0.7,1.4-0.6,2.2c0,0.4,1,0.9,1.5,0.9
		C269.7,126.2,274.8,125.5,280.7,124.8z"/>
	<path class="st3" d="M182.3,49.2c-0.4-2.6-0.8-5.2-1.3-8.1c5.8-7.1,8.8-8.8,12-6.6C190.8,40.6,189.1,47,182.3,49.2z"/>
	<path class="st3" d="M227.1,12.5c2.9-6.3,10.3-7.1,20.5-3C240.4,10.5,234.3,11.4,227.1,12.5z"/>
	<path class="st3" d="M204,27.2c-1.4,0.8-2.7,1.5-4.4,2.5c0.1,0.8,0.5,2,0.3,3c-0.2,0.8-1,1.6-1.8,1.9c-0.3,0.2-1.5-0.6-1.7-1.2
		c-0.7-1.9-1.2-3.9-1.8-5.9c1.6-0.3,3.2-0.5,4.8-0.9c1.4-0.3,2.8-0.6,4.1-0.9C203.7,26.3,203.9,26.7,204,27.2z"/>
	<path class="st3" d="M317,46.6c-0.1,0.3-0.2,0.7-0.4,0.8c-0.2,0.1-0.5-0.2-0.8-0.3c0.1-0.3,0.2-0.7,0.4-0.8
		C316.3,46.2,316.7,46.5,317,46.6z"/>
	<path class="st0" d="M234.6,812.6c0,6.5,0,12.9,0,19.7c-0.8,0.2-1.8,0.7-2.6,0.5c-7.9-2.1-15,1.1-22.4,2.7c-4,0.9-8.2,0.8-12.3,1.2
		c0-9.5,0.1-19.1,0-28.6c0-1.4-1.3-2.8-1.9-4.2c-2,0.3-2.4,1.2-3.1,3.8c-0.7,3.1-1.8,6.1-2.8,9.1c-1-9.6-2-19.3-3-28.9
		c2.9-0.2,5.9-0.5,8.8-0.7c1,2.3,1.9,4.4,3.2,7.3c3.9-6.8,7.5-12.5,10.5-18.5c2.3-4.6-1.2-12.9-5.6-15.4c-6.3-3.6-12.5-1.7-18.7,0.2
		c-0.4-16-1.9-32.2-0.8-48.1c0.8-11.7-2.1-23.1-0.2-34.7c6.3-2.2,10.2-8.3,8.6-14.6c-0.4-1.7-2.4-3.3-4-4.4
		c-1.3-0.9-3.1-0.9-4.7-1.3c0-5,0-10,0-15c2.8,1,5.7,2,8.5,3l0,0c2.2,2.4,4.7,4.5,6.5,7.2c3.4,5.2,8.1,5.3,13.7,4.4
		c-0.2-1.2-0.4-2.1-0.6-3c-1.9-7.7-8.8-9-14.6-11.8c-4.5-3.6-8.9-7.3-13.4-10.9c0-21.4,0-42.7,0-64.7c8.2-1.1,15.5-2,22.8-3
		c0.1,0.7,0.1,1.3,0.2,2c0.1,7,0.8,7.7,8.2,7.9c5,0.2,10.1-0.2,15.1,0.3c5.2,0.5,7.4-0.8,7.6-5.3c0.1-1.7,0.1-3.3,0.1-5
		c12.3-1.1,24.7-2.1,37-3.2c-0.7,1.4-1.1,3.6-2.2,4c-4.3,1.8-6.4,5.4-8.6,9.1c-2.2,1.6-4.3,3.3-6.7,4.7c-4,2.3-4.4,3.9-1.2,7.1
		c7.7,7.5,15.5,14.9,23.4,22.2c0.8,0.8,2.6,0.5,4,0.7c4.1-4.6,8.2-9.2,12.3-13.8c2.6-3,5.3-5.9,7.9-8.9c-0.4-1-0.5-2.3-1.2-3
		c-7.9-7.5-15.9-14.8-23.8-22.2c0-0.2,0-0.4,0-0.7c14.9,0,29.8,0,43.9,0c-0.2,32.8-0.3,65.7-0.5,98.6c-4,0.1-8,0.2-12,0.2
		c-12.4,0-12.4,0-12.4,12.5c-3.9,0.9-6.4,6.5-3.4,8.1c4.3,2.3,3.4,5.6,3.2,8.8c-0.2,4,1.5,5.4,5.2,5.4c6.5,0,13,0.2,19.5,0.3
		c0,8.6,0.1,17.2,0.1,25.8c-7.3,1.3-14.5,2.7-21.8,4c-1.7,0.2-3.5,0.5-5.2,0.7c-2.8,0.5-5.6,0.7-8.3,1.5c-3.3,1-3.9,3.6-3.3,6.7
		c0.7,3,1.8,5.4,5.5,4.9c4.4-0.6,8.8-1.3,13.1-2c2-0.5,4-1,6-1.4c4.6-0.4,9.2-0.9,13.9-1.3c0,10.2,0.1,20.5,0,30.7
		c0,1.1-1.2,2.1-1.8,3.2c-1,0-2,0-3,0c-0.6-0.3-1.2-0.5-1.8-0.8c0-0.4-0.1-0.8-0.2-1.2c-2.8-2-5.5-4.1-8.5-5.8c-1-0.6-2.6,0-3.9,0
		c0.3,1.5,0,3.6,0.9,4.4c5.7,5,11.7,9.7,17.6,14.4c-0.5,10.1-1,20.2-1.3,30.3c-0.2,7.9,0,15.9,0,24.6c-6.4-0.3-12.6-0.6-18.8-0.9
		c1.6-3.4,3-7,4.9-10.2c6.1-10.1,12.1-20.2,5.3-32.3c-0.1-0.1,0-0.4-0.1-0.5c-1.3-0.7-2.6-1.4-3.9-2l-0.2-0.1
		c-0.2-0.3-0.4-0.5-0.6-0.7c-0.7-0.4-1.3-0.7-2-1.1c-5.1-3.2-10.3-6.2-15.2-9.7c-2.9-2.1-4.6-1.2-6,1.4
		c-6.6,12.4-13.1,24.8-19.7,37.1c-0.2,0.7-0.5,1.3-0.7,2c-0.2,0.7-0.5,1.4-0.7,2.1c0.3,0.7,0.4,1.8,1,2.1
		c7.6,4.3,15.3,8.6,22.9,12.8c-7.5,1.7-15.1,3.4-23.5,5.3c-1.1-8-2.7-16.8-3.4-25.6c-1.6-22-2.8-44.1-4.2-66.1
		c-0.5-8.4-1.2-16.9-1.8-25.3c7.4-2.5,14.7-5.1,22.2-7.3c4.4-1.3,5.5-3.2,3.9-7.6c-4-11.2-7.7-22.6-11.3-33.9c-1-3.1-2.8-4-5.6-3.1
		c-3.5,1.1-6.9,2.5-10.3,3.7c-0.7-8.9-1.3-17.8-2-26.7c-0.2-2-0.4-3.9-0.8-5.9c-1.2-5.8-1.6-6-7.1-3.2c-0.5-0.6-1.1-1.2-1.5-1.9
		c-7.1-11.1-14.3-22.2-21.4-33.3c-3.3-1.4-6.6-2.8-9.9-4.2c-0.7-1.5-1.3-3-2.2-4.3c-0.5-0.6-2.1-1-2.7-0.7c-3,1.8-3.1,6.5-0.4,9.3
		c-0.3,3-0.7,5.9-1,8.9c0.4,1.4,0.6,3,1.3,4.2c3.8,6.7,7.6,13.5,11.8,20c4,6.2,8.6,12,12.9,18c0.3,3.8,2.1,4,5,2.2
		c1.9-1.2,4-2.3,6-3.4c-0.4,8.6-0.8,17.2-1.1,25.8c-11.6,3.7-23.1,7.3-35.8,11.3c3.2,6.2,5.6,11.1,8.1,15.9l0,0
		c2.2,8.3,4.2,16.5,6.7,24.7c0.3,1,3.6,2,5.2,1.6c4.5-1.1,8.8-2.8,13.2-4.3c-0.4,18-0.8,36-1.2,54.1c-0.9,2-1.9,4-2.8,6.1
		c-1-0.5-2.1-1.4-3.1-1.3c-1.4,0.2-3.7,1.1-3.8,1.8c-0.3,5.8-0.1,11.7-0.1,17.6c0,0.3,0,0.5-0.1,0.8c-0.6,1.1-1.2,2.2-1.8,3.3
		c-1.2,6.1-3.9,12.2-0.3,18.6c0.8-0.6,1.4-0.9,1.8-1.4c0.6-0.8,1-1.7,1.4-2.6c1.3-1.9,2.6-3.8,3.8-5.8
		C231.8,816.2,233.2,814.4,234.6,812.6z M268.4,648.8L268.4,648.8c1.3,3.9,8.7,6.9,12,4.9c3.8-2.4,7-13.5,4.9-17.6
		c-1.5-3.1-9.9-8.1-13-6.6c-2.5,1.2-4.1,4.6-5.8,7.2c-1,1.5-1.6,3.3-1.9,5.1C264.1,644.9,263.7,648.2,268.4,648.8z"/>
	<path class="st11" d="M304.7,784.8c0.7,0.4,1.3,0.7,2,1.1c0.2,0.2,0.4,0.5,0.6,0.7l0.2,0.1c-0.1,0.9-0.1,1.9-0.2,2.8
		c-1.3,2.2-2.9,4.4-3.9,6.7c-0.4,1-0.2,3.3,0.5,3.7c3.1,1.7,6.4,2.9,9.7,4.3c-5.1,9.1-10.1,18.2-15.2,27.3c-2.3,0-4.6,0.1-6.9,0.1
		c-4.1-2-8.2-3.8-12.2-6c-2.9-1.7-6.5-3.3-4.7-7.9c6.1-11.6,12.2-23.3,18.3-34.9c1.7-0.1,3.5-0.4,5.2-0.1
		C300.2,783.2,302.4,784.1,304.7,784.8z"/>
	<path class="st7" d="M203.3,351.9c1-2.4,2.1-4.8,3.1-7.2c14.8,5,29.5,10.1,44.3,15.2c2,0.7,3.8,1.9,5.7,2.9
		c-3.7,5-7.4,10.1-11,15.1c-7.4-3-14.8-5.9-22-9.1c-4.8-2.1-9.6-4.4-14.2-7.1C205.6,359.5,202.9,356.5,203.3,351.9z"/>
	<path class="st16" d="M240.9,638.9c-0.3,1.2-0.6,2.4-0.8,3.6c-2.4,1.4-5,2.6-7.3,4.1c-2.7,1.7-4.6,1.1-6.2-1.5
		c-5.7-9.1-11.6-18-17-27.3c-1.1-2-0.7-4.8-1-7.3c0.3-0.1,0.5-0.3,0.6-0.6c1-0.1,2-0.1,2.9-0.5c8.1-2.9,8.1-2.9,12.5,4.7
		c0.2,0.3,0.3,0.6,0.5,0.9C230.4,623.1,235.6,631,240.9,638.9z"/>
	<path class="st16" d="M234.4,334.8c0,0.6-0.1,1.3-0.1,1.9l0,0c-0.4,0-0.8,0-1.2,0l-0.4,0c-1.8,0.6-4,0.8-5.4,1.9
		c-3.8,2.9-6.1,2.4-8.6-1.9c-3.5-5.9-7.7-11.4-11.6-17.1c2.1-6.3,4.2-12.7,6.3-19C220.3,312.1,227.3,323.5,234.4,334.8z"/>
	<path class="st11" d="M234.4,540.7c0.2,0.2,0.5,0.3,0.8,0.3c0.4,0.9,0.9,1.8,1.3,2.7c-0.2,0.3-0.3,0.6-0.3,1
		c-0.3,4.7-0.5,9.5-0.8,14.2c-1.3,0.2-2.5,0.3-3.8,0.5c-6.2-0.1-12.4-0.2-18.6-0.4c-0.8,0.1-1.7,0.2-2.5,0.3c-0.3-0.2-0.7-0.4-1-0.6
		c0.2-5,0.2-10,0.8-14.8c0.2-1.5,2.4-3.9,3.7-3.9C220.8,539.8,227.6,540.4,234.4,540.7z"/>
	<path class="st11" d="M184.8,766.8c0-0.9,0-1.8,0.1-2.7c4.3-0.8,8.8-2.6,12.9-2.1c3.2,0.4,7.3,3.1,8.7,5.9c1.2,2.3-0.3,6.6-1.6,9.5
		c-1.4,3.1-4.2,5.5-5.8,7.6c-2.2-0.2-4.3-0.6-6.4-0.7c-2.1,0-4.2,0.4-6.4,0.6c-0.4-5.3-0.9-10.7-1.3-16
		C184.9,768.2,184.9,767.5,184.8,766.8z"/>
	<path class="st22" d="M236.5,723.9c-0.1,0.2-0.2,0.4-0.3,0.6c-3.9,1.2-8,2.1-11.8,3.5c-3,1.1-4.3,0.6-5.3-2.7
		c-2.3-7-5.1-13.8-7.7-20.6l0,0c-0.2-1.3-0.2-2.6-0.6-3.9c-3.2-10.7-3.3-10.7,7.3-14.2c5.2-1.7,10.4-3.4,16.1-5.3
		c-0.4,2.1-0.6,3.2-0.8,4.3c-0.4,0.3-0.8,0.7-1.2,1c-6.1,1.8-12.2,3.5-18.2,5.4c-0.5,0.2-0.6,1.8-0.8,2.8c0,0.7,0.1,1.3,0.1,2
		c0.6,0.7,1.3,1.4,1.9,2.1c0,0.6,0.1,1.3,0.1,1.9c1,0.6,2,1.3,2.9,1.9c0,0.6,0,1.2-0.1,1.8c-0.6,2.4-0.6,2.4,4,1.8
		c0,0.5,0,0.9,0,1.3c-1.3,0.7-2.5,1.4-3.8,2.1c0.6,0.4,1.1,0.8,1.7,1.2c0,0.6,0.1,1.2,0.1,1.8c-0.3,1-3.8,1.9-0.1,2.9
		c0,0.7,0,1.3,0,2c0.6,1.9,1.2,3.9,2,6.7c3.8-1.5,7.5-3,11.2-4.4C237.1,719.4,236.2,722.1,236.5,723.9z"/>
	<path class="st22" d="M252.4,678.8c0-1.3,0-2.6,0.1-3.9c2.9-0.9,5.8-1.5,8.6-2.6c2.8-1,4.3-0.5,5.3,2.4
		c3.5,10.7,7.2,21.3,10.6,32.1c0.3,1.1-0.5,3.5-1.3,3.8c-7.3,2.6-14.8,4.8-22.2,7.1c0-1.3,0-2.7,0-4c5.4-1.8,10.9-3.4,16.3-5.3
		c0.8-0.3,1.2-1.9,1.7-3c-0.3-0.5-0.6-1.1-1-1.6c0.3-0.8,0.7-1.5,1-2.3c-0.4-1-0.7-1.9-1.1-2.8c-1.3-0.5-2.6-1-3.9-1.5
		c0-0.5,0-1,0-1.5c0.7-0.7,1.3-1.4,2.7-2.9c-2.3,0.3-3.5,0.5-4.7,0.7c0-0.6,0-1.1,0-1.7c0.7-1,1.3-2.1,2-3.1c-0.3-0.7-0.7-1.3-1-2
		c0-0.7,0-1.4,0-2.1c-0.2-1.4-0.4-2.8-0.8-5.1c-1.7,0.7-3.3,1.4-5,1.8c-0.7,0.2-1.6-0.5-2.4-0.8c2-1,4.1-2.1,6.2-3.1
		c-0.2-0.4-0.4-0.8-0.5-1.3C259.4,677,255.9,677.9,252.4,678.8z"/>
	<path class="st10" d="M322,694c-6.5-0.1-13-0.3-19.5-0.3c-3.8,0-5.4-1.4-5.2-5.4c0.2-3.2,1.1-6.5-3.2-8.8c-3-1.6-0.5-7.2,3.4-8.1
		c0-12.6,0-12.6,12.4-12.5c4,0,8-0.1,12-0.2C321.9,670.4,322,682.2,322,694z M321.9,676.3c-0.1,0-0.3,0-0.4,0c0-3.5-0.1-7,0-10.4
		c0.1-2.9-0.8-4.2-3.9-4.1c-4.3,0.2-8.6,0.1-12.9-0.1c-3.3-0.2-4.4,1.3-4.3,4.4c0.1,6.1,0,12.3-0.1,18.4c0,6.4,0,6.4,6.5,6.4
		c4.6,0,11.1,1.5,13.3-0.8C322.7,687.2,321.5,681,321.9,676.3z"/>
	<path class="st10" d="M253.4,717.8c7.4-2.3,14.8-4.6,22.2-7.1c0.8-0.3,1.6-2.7,1.3-3.8c-3.4-10.7-7.1-21.4-10.6-32.1
		c-1-2.9-2.5-3.5-5.3-2.4c-2.8,1-5.7,1.8-8.6,2.6c0-0.8-0.1-1.5-0.1-2.2c3.4-1.3,6.8-2.6,10.3-3.7c2.8-0.9,4.6,0,5.6,3.1
		c3.6,11.4,7.3,22.7,11.3,33.9c1.6,4.4,0.5,6.3-3.9,7.6c-7.5,2.2-14.8,4.8-22.2,7.3C253.4,719.8,253.4,718.8,253.4,717.8z"/>
	<path class="st10" d="M186.3,784.8c2.1-0.2,4.2-0.6,6.4-0.6c2.1,0,4.2,0.4,6.4,0.7c1.6-2,4.4-4.5,5.8-7.6c1.4-2.9,2.8-7.2,1.6-9.5
		c-1.4-2.8-5.5-5.5-8.7-5.9c-4.2-0.5-8.6,1.3-12.9,2.1c-0.1-1.1-0.2-2.2-0.3-3.3c6.2-1.8,12.4-3.7,18.7-0.2
		c4.4,2.5,7.9,10.8,5.6,15.4c-3,6-6.6,11.6-10.5,18.5c-1.3-3-2.2-5.1-3.2-7.3c-2.9,0.2-5.8,0.5-8.8,0.7
		C186.5,786.9,186.4,785.8,186.3,784.8z"/>
	<path class="st0" d="M220.5,345c-6.9-2.6-13.8-5.1-20.8-7.7c2.1-5.3,4-9.8,5.8-14.4C210.5,330.3,215.5,337.6,220.5,345z"/>
	<path class="st17" d="M237.4,563.9c0,1.7,0,3.3-0.1,5c-0.2,4.6-2.4,5.8-7.6,5.3c-5-0.5-10.1-0.1-15.1-0.3c-7.4-0.2-8-0.9-8.2-7.9
		c0-0.7-0.1-1.3-0.2-2c0.8,0,1.5,0,2.3,0.1c0.6,1.3,1,3.5,1.8,3.7c3.4,0.7,6.9,1,10.4,1.1c4.4,0.2,8.9,0,14,0c0.1-1.2,0.3-3.1,0.4-5
		C236,563.9,236.7,563.9,237.4,563.9z"/>
	<path class="st18" d="M213.4,696.9c0-0.7-0.1-1.3-0.1-2c5.2-1.8,10.4-3.5,15.6-5.5c1.3-0.5,2.3-1.8,3.4-2.7c0.4-0.3,0.8-0.7,1.2-1
		c0.9,0,1.8,0,1.6,0c1,2.1,1.8,3.5,2.5,5c-0.1,3-0.3,6-0.4,9c-6.3,1.6-12.6,3.2-18.9,4.8c0-0.6,0-1.2,0.1-1.8
		c5.6-2.1,11.1-4.3,16.7-6.4c-0.2-0.4-0.3-0.9-0.5-1.3c-6.4,2-12.7,3.9-19.1,5.8c0-0.6-0.1-1.3-0.1-1.9c5.9-2.2,11.9-4.4,17.8-6.6
		c-0.2-0.4-0.3-0.9-0.5-1.3C226.2,693,219.8,694.9,213.4,696.9z"/>
	<path class="st12" d="M208.5,610.7c0.3,2.5-0.1,5.3,1,7.3c5.4,9.2,11.3,18.2,17,27.3c1.6,2.6,3.6,3.2,6.2,1.5
		c2.4-1.5,4.9-2.8,7.3-4.1c0.1,1,0.3,2,0.4,3.1c-3.4,2-6.7,4.1-10,6.2c-0.4,0.4-0.8,0.8-1.2,1.3c-4.3-6-8.9-11.8-12.9-18
		c-4.2-6.5-7.9-13.3-11.8-20c-0.7-1.3-0.9-2.8-1.3-4.2c0.8,0,1.6-0.1,2.4-0.2C206.6,610.6,207.6,610.6,208.5,610.7z"/>
	<path class="st9" d="M237.6,690.8c-0.7-1.5-1.5-3-2.5-5c0.2,0-0.7,0-1.6,0c0.2-1.1,0.4-2.2,0.8-4.3c-5.7,1.9-10.9,3.5-16.1,5.3
		c-10.6,3.5-10.6,3.5-7.3,14.2c0.4,1.2,0.4,2.6,0.6,3.9c-2.5-4.9-5-9.7-8.1-15.9c12.7-4,24.3-7.7,35.8-11.3
		C238.6,682,238.1,686.4,237.6,690.8z"/>
	<path class="st23" d="M228.4,261c-0.6,0.8-1.3,1.5-1.9,2.3c-2.1-1.4-4.4,0.1-6.9-0.8c-3.5-1.3-7.9,0.4-11.8,0c-2.1-0.2-4-1.9-6-3
		c1.8-0.8,3.7-1.7,5.5-2.5c4.9,0.5,9.7,1.2,14.6,1.4c0.8,0,2.4-1.9,2.4-2.9c0-1.2-1-2.9-2.1-3.6c-0.9-0.6-2.6-0.1-3.9-0.2
		c3.4-1.3,6.8-2.6,10.2-3.9C228.4,252.2,228.4,256.6,228.4,261z"/>
	<path class="st22" d="M311.3,460.8c4.5,3.2,9,6.6,13.6,9.7c2.6,1.7,5.4,3,8.1,4.5c0.1,1.9,0.2,3.9,0.3,5.8
		c-6.5-4.3-13.1-8.5-19.5-13.1c-4.5-3.2-8.6-6.9-12.9-10.4c0.4-0.5,0.7-1.1,1.1-1.6C305.1,457.4,308.2,459.1,311.3,460.8z"/>
	<path class="st13" d="M232.4,786.8c0.9-2,1.9-4,2.8-6.1c-0.2,10.6-0.4,21.2-0.6,31.8c-1.4,1.8-2.9,3.6-4.4,5.4
		c0.4-1.9,1.2-3.8,1.1-5.6c-0.1-1.3-1.3-2.5-2.1-3.7c-1-1.3-2-2.5-3-3.8c0.4-0.4,0.7-0.7,1-1.1c0.5-1.2,1.1-2.3,1.6-3.4
		C230.1,795.8,231.3,791.3,232.4,786.8z"/>
	<path class="st12" d="M240.9,638.9c-5.3-7.9-10.5-15.8-15.8-23.8c-0.2-0.3-0.3-0.6-0.5-0.9c-4.4-7.6-4.4-7.6-12.5-4.7
		c-0.9,0.3-2,0.3-2.9,0.5c2.6-2.7,5.1-5.4,7.7-8c0.9-0.1,1.8-0.2,2.7-0.3c7.1,11.1,14.2,22.2,21.4,33.3c0.4,0.7,1,1.3,1.5,1.9
		C241.9,637.6,241.4,638.3,240.9,638.9z"/>
	<path class="st13" d="M201.8,259.5c2,1,3.9,2.8,6,3c3.9,0.4,8.4-1.3,11.8,0c2.5,0.9,4.8-0.6,6.9,0.8c-1,1.5-2,3.1-3,4.6
		c-6.5-0.1-13,0.3-19.4-0.5c-3.1-0.4-5.3-3.3-4.7-7C200.2,260.1,201,259.8,201.8,259.5z"/>
	<path class="st14" d="M274.5,817.8c-1.8,4.6,1.8,6.3,4.7,7.9c3.9,2.2,8.1,4,12.2,6c-1.7,0.3-3.3,0.6-5,0.9
		c-7.6-4.3-15.3-8.5-22.9-12.8c-0.5-0.3-0.7-1.4-1-2.1c0.2-0.7,0.5-1.4,0.7-2.1c0.2-0.7,0.5-1.3,0.7-2c1.5-0.3,3-0.6,4.5-0.9
		c0.6,0.6,1.3,1.2,1.9,1.8C271.7,815.7,273.1,816.8,274.5,817.8z"/>
	<path class="st18" d="M235.3,563.9c-0.1,1.9-0.3,3.8-0.4,5c-5.1,0-9.5,0.1-14,0c-3.5-0.1-7-0.4-10.4-1.1c-0.8-0.2-1.2-2.4-1.8-3.7
		C217.5,564,226.4,564,235.3,563.9z"/>
	<path class="st10" d="M298.2,831.7c5.1-9.1,10.1-18.2,15.2-27.3c-0.4-1.2-0.9-2.5-1.3-3.7c-0.3-0.3-0.5-0.6-0.8-0.9l0,0
		c-1-2.6-2-5.2-3-7.8c-0.4-0.8-0.8-1.6-1.2-2.3c0.1-0.9,0.1-1.9,0.2-2.8c1.3,0.7,2.6,1.3,3.9,2c0.1,0,0,0.3,0.1,0.5
		c6.8,12.2,0.8,22.2-5.3,32.3c-1.9,3.2-3.3,6.8-4.9,10.2C300.2,831.8,299.2,831.7,298.2,831.7z"/>
	<path class="st17" d="M201.3,313c-3.7-4.3-7.6-8.4-4.6-14.8c0.3-0.8,0.4-2.1-0.1-2.7c-4-4.6-0.8-7,3-9.9c3.1,4.1,5.4,9.2,11.7,8.2
		c-0.3,0.7-0.7,1.4-1,2.2c-3.2-0.9-6.5-1.7-10.1-2.7c-0.6,2.6-1.1,5.1-1.6,7.5c-0.6,2.8,1.2,3,3.2,2.8c-2.9,3,0.2,5.5,0.6,8.2
		C201.9,312.2,201.6,312.6,201.3,313z"/>
	<path class="st23" d="M189.5,816.8c0.9-3,2-6,2.8-9.1c0.6-2.6,1.1-3.5,3.1-3.8c-0.1,7.8-0.2,15.5-0.1,23.3c0,2.6-0.4,4.6-3.4,5.1
		C191.1,827,190.3,821.9,189.5,816.8z"/>
	<path class="st9" d="M211.3,704.7c2.6,6.9,5.5,13.7,7.7,20.6c1.1,3.3,2.3,3.8,5.3,2.7c3.9-1.4,7.9-2.4,11.8-3.5
		c0.1,0.7,0.2,1.4,0.2,2.2c-4.4,1.5-8.7,3.3-13.2,4.3c-1.6,0.4-4.9-0.6-5.2-1.6C215.5,721.3,213.5,713,211.3,704.7z"/>
	<path class="st12" d="M220.5,345c-5-7.4-10-14.7-14.9-22.1c0.5-1.1,1-2.1,1.6-3.2c3.9,5.7,8.1,11.1,11.6,17.1
		c2.5,4.3,4.7,4.8,8.6,1.9c1.4-1.1,3.6-1.3,5.4-1.9c-0.8,0.7-1.7,1.3-2.4,2.1c-2.1,2.2-4.1,4.5-6.1,6.8c-0.3,0-0.6,0.1-1,0.1
		C222.3,345.6,221.4,345.3,220.5,345z"/>
	<path class="st17" d="M183.4,657.8c1.6,0.4,3.4,0.5,4.7,1.3c1.6,1.1,3.6,2.7,4,4.4c1.6,6.2-2.3,12.4-8.6,14.6c0-0.8,0-1.6,0-2.4
		c5.1-5.7,5.1-10.3,0-12.8C183.5,661.1,183.5,659.5,183.4,657.8z"/>
	<path class="st9" d="M321.4,777.8c-5.9-4.8-11.9-9.5-17.6-14.4c-0.9-0.8-0.6-2.9-0.9-4.4c1.3,0,2.9-0.6,3.9,0
		c3,1.7,5.7,3.8,8.5,5.8c-2.8-1-5.5-2-8.3-2.9c-0.3,0.5-0.6,1.1-0.9,1.6c5.3,3.8,10.6,7.5,15.9,11.3
		C321.8,775.8,321.6,776.8,321.4,777.8z"/>
	<path class="st17" d="M322.1,732.9c-4.6,0.4-9.2,0.9-13.9,1.3c3-0.8,6-2,9.1-2.3c2.9-0.3,4.2-1.4,3.8-4.3c-1.6-0.5-3.2-1.6-4.7-1.5
		c-4.1,0.3-8.1,1.1-12.1,1.7c1.3-0.7,2.5-1.6,3.9-1.9c3.7-0.8,7.5-1.4,11.3-2.1c-0.1-0.3-0.1-0.7-0.2-1c-6.3,0.7-12.7,1.3-19,2
		c0-0.3,0-0.7,0-1c7.3-1.3,14.5-2.7,21.8-4C322.1,724.2,322.1,728.5,322.1,732.9z"/>
	<path class="st10" d="M218.2,251.7c1.3,0,2.9-0.4,3.9,0.2c1.1,0.7,2.1,2.4,2.1,3.6c0,1-1.6,2.9-2.4,2.9c-4.9-0.2-9.7-0.9-14.6-1.4
		C210.9,255.2,214.6,253.5,218.2,251.7z"/>
	<path class="st10" d="M189.3,344.3c0-2.5,0.1-5,0.1-7.6c0-0.3,0-0.7,0.1-1c1.8,0.7,3.5,1.4,5.3,2.2c2.6,1.6,5.2,3.2,7.8,4.8
		c-0.6,1-1.3,2-1.9,3.1c-0.4-0.7-0.6-1.8-1.2-2.1c-1.5-0.8-3.1-1.3-4.8-1.6c-0.3-0.1-1.5,1.8-1.3,2.1c0.9,1.4,2.1,2.5,3.4,3.6
		c0.4,0.4,1.3,0.2,1.9,0.3c-0.5,0.9-0.9,1.8-1.4,2.7C194.6,348.5,191.9,346.4,189.3,344.3z"/>
	<path class="st9" d="M191.9,832.2c3-0.4,3.4-2.5,3.4-5.1c0-7.8,0.1-15.5,0.1-23.3c0.7,1.4,1.9,2.8,1.9,4.2c0.1,9.5,0,19.1,0,28.6
		C193.4,837.8,192,835.8,191.9,832.2z"/>
	<path class="st18" d="M201.6,303.6c-2,0.2-3.8,0-3.2-2.8c0.5-2.5,1.1-5,1.6-7.5c3.6,1,6.9,1.8,10.1,2.7c-0.2,0.7-0.4,1.3-0.7,2
		c-0.4,0.3-0.8,0.6-1.3,0.9v0c-0.7,0.7-1.3,1.4-2,2l0,0c-0.4,0.3-0.7,0.7-1.1,1C204,302.4,202.9,303,201.6,303.6z"/>
	<path class="st18" d="M257.2,680.6c0.8,0.3,1.7,1,2.4,0.8c1.7-0.4,3.3-1.2,5-1.8c0.4,2.3,0.6,3.7,0.8,5.1c-4.3,1.3-8.5,2.6-12.8,4
		c0-2.5,0.1-5,0.1-7.5C254.2,680.9,255.7,680.7,257.2,680.6z"/>
	<path class="st17" d="M192,645.8c-2.8-1-5.7-2-8.5-3c0-1,0-2,0-3c1.9,0.4,3.7,0.8,5.6,1.2c-1-1.8-1.8-3.7-3-5.3
		c-0.5-0.6-1.8-0.7-2.7-1c0-1,0.1-2,0.1-3c4.5,3.6,8.9,7.3,13.4,10.9c-0.6,0.1-1.1,0.2-1.6,0.3C191.8,641.2,191.3,642.8,192,645.8z"
		/>
	<path class="st18" d="M322,774.7c-5.3-3.8-10.6-7.5-15.9-11.3c0.3-0.5,0.6-1.1,0.9-1.6c2.8,1,5.5,2,8.3,2.9c0,0.4,0.1,0.8,0.2,1.2
		c0.6,0.3,1.2,0.5,1.8,0.8c1,0,2,0,3,0C320.9,769.4,321.5,772.1,322,774.7z"/>
	<path class="st7" d="M231.3,240.9c4.8,1.7,9.6,3.4,14.4,5c-2.4,1.7-4.7,3.3-7.7,5.4C235.5,247.6,233.4,244.3,231.3,240.9z"/>
	<path class="st9" d="M263.7,573.8c2.1-3.7,4.3-7.2,8.6-9.1c1.1-0.5,1.5-2.7,2.2-4c1.3-0.2,2.6-0.5,4-0.7c0,0.2,0,0.4,0,0.7
		c0,0.7-0.1,1.3-0.1,2c-1,1.6-2,4.6-3,4.6c-4.9,0-6.1,5-9.8,6.5C265,573.8,264.3,573.8,263.7,573.8z"/>
	<path class="st16" d="M201.6,303.6c1.2-0.6,2.4-1.2,3.6-1.8c0.4-0.3,0.7-0.7,1.1-1l0,0c0.6,0,1.2,0,1.9,0
		c-1.2,4.4-2.5,8.8-3.7,13.2c-0.7-0.7-1.5-1.5-2.2-2.2C201.9,309.1,198.7,306.6,201.6,303.6z"/>
	<path class="st14" d="M271.3,705.5c-0.6,1-0.9,2.7-1.7,3c-5.4,1.9-10.8,3.6-16.3,5.3c0-1-0.1-2-0.1-3
		C259.3,709,265.3,707.3,271.3,705.5z"/>
	<path class="st18" d="M270.3,698.7c0.4,1,0.7,1.9,1.1,2.8c-6,1.7-12,3.5-18,5.2c0-0.9,0.1-1.9,0.1-2.8
		C259.1,702.2,264.7,700.5,270.3,698.7z"/>
	<path class="st19" d="M220.3,711.1c-0.6-0.4-1.1-0.8-1.7-1.2c1.3-0.7,2.5-1.4,3.8-2.1c4.9-1.4,9.8-2.7,14.8-4.1
		c0,0.7,0.1,1.4,0.1,2.2C231.6,707.5,225.9,709.3,220.3,711.1z"/>
	<path class="st18" d="M220.3,717.7c0-0.7,0-1.3,0-2c5.6-1.7,11.2-3.3,16.8-5c-0.1,0.6-0.2,1.2-0.2,1.9c-2.2,1-4.5,2-6.7,3l0.1,0.1
		c-2,0.3-4,0.7-6,1.1C223,717.1,221.7,717.4,220.3,717.7z"/>
	<path class="st19" d="M237.2,710.8c-5.6,1.7-11.2,3.3-16.8,5c-3.8-1-0.3-1.9,0.1-2.9c5.6-1.7,11.2-3.5,16.7-5.2
		C237.1,708.7,237.1,709.7,237.2,710.8z"/>
	<path class="st19" d="M218.3,704.6c6.3-1.6,12.6-3.2,18.9-4.8c0,0.3,0,0.7,0,1c-5,1.9-9.9,3.7-14.9,5.6
		C217.7,707,217.7,707,218.3,704.6z"/>
	<path class="st18" d="M271.3,705.5c-6,1.8-12,3.6-18.1,5.3c0-0.7,0.1-1.3,0.1-2c5.7-1.7,11.3-3.3,16.9-5
		C270.7,704.4,271,705,271.3,705.5z"/>
	<path class="st19" d="M270.4,703.9c-5.6,1.7-11.3,3.3-16.9,5c0-0.7,0-1.4-0.1-2.1c6-1.7,12-3.5,18-5.2
		C271,702.3,270.7,703.1,270.4,703.9z"/>
	<path class="st18" d="M237.1,707.7c-5.6,1.7-11.2,3.5-16.7,5.2c0-0.6-0.1-1.2-0.1-1.8c5.6-1.8,11.3-3.5,16.9-5.3
		C237.2,706.4,237.1,707.1,237.1,707.7z"/>
	<path class="st16" d="M183.5,662.8c5.1,2.5,5.1,7.1,0,12.8C183.6,671.4,183.6,667.1,183.5,662.8z"/>
	<path class="st10" d="M229.2,653c0.4-0.4,0.8-0.8,1.2-1.3c1.6-0.1,3.3,0.1,4.8-0.4c1.8-0.6,3.4-1.8,5-2.7c0,1,0,2.1,0,3.1
		c-2,1.1-4.1,2.2-6,3.4C231.3,657,229.5,656.8,229.2,653z"/>
	<path class="st19" d="M264.4,693.6c1.2-0.2,2.4-0.3,4.7-0.7c-1.4,1.5-2,2.2-2.7,2.9c-4.4,1.3-8.7,2.7-13.1,4
		c-0.1-0.9-0.3-1.8-0.4-2.7c0.2-0.1,0.3-0.2,0.5-0.3C257,695.7,260.7,694.6,264.4,693.6z"/>
	<path class="st10" d="M266.3,688.7c-0.7,1-1.3,2.1-2,3.1c-3.7,1.6-7.4,3.3-11,4.9c-0.1,0.1-0.3,0.2-0.5,0.3
		c-0.1-1.5-0.2-2.9-0.3-4.3C257.2,691.4,261.8,690.1,266.3,688.7z"/>
	<path class="st12" d="M213,559c6.2,0.1,12.4,0.2,18.6,0.4C225.4,559.3,219.2,559.2,213,559z"/>
	<path class="st18" d="M222.3,706.4c5-1.9,9.9-3.7,14.9-5.6c-0.1,0.9-0.1,1.9-0.1,2.8c-4.9,1.4-9.8,2.7-14.8,4.1
		C222.3,707.3,222.3,706.8,222.3,706.4z"/>
	<path class="st10" d="M270.3,698.7c-5.6,1.7-11.2,3.5-16.9,5.2c-0.1-0.7-0.2-1.3-0.3-2c4.4-1.6,8.8-3.1,13.2-4.7
		C267.7,697.7,269,698.2,270.3,698.7z"/>
	<path class="st23" d="M240.2,648.7c-1.7,0.9-3.3,2.1-5,2.7c-1.5,0.5-3.2,0.3-4.8,0.4c3.4-2,6.7-4.1,10-6.2
		C240.4,646.6,240.3,647.7,240.2,648.7z"/>
	<path class="st18" d="M266.3,688.7c-4.6,1.3-9.2,2.7-13.8,4c0-0.6,0-1.2,0-1.8c4.3-1.4,8.5-2.7,12.8-4.1
		C265.7,687.4,266,688.1,266.3,688.7z"/>
	<path class="st18" d="M183.4,634.7c0.9,0.3,2.2,0.3,2.7,1c1.2,1.6,2,3.5,3,5.3c-1.9-0.4-3.7-0.8-5.6-1.2
		C183.4,638.1,183.4,636.4,183.4,634.7z"/>
	<path class="st9" d="M230.2,715.6c2.2-1,4.5-2,6.7-3c-0.1,3.8-0.3,7.5-0.4,11.3c-0.3-1.8,0.6-4.5-2.9-3.9
		C231.7,719.1,234.4,714.8,230.2,715.6z M235.4,715c-0.3,0.1-0.7,0.2-0.8,0.4c-0.1,0.2,0.1,0.5,0.2,0.8c0.3-0.1,0.6-0.2,0.8-0.4
		C235.7,715.6,235.5,715.3,235.4,715z"/>
	<path class="st18" d="M172.5,524.9c4.4,0.4,8.9,0.8,13.3,1.2c0,0.5,0,1,0,1.6c-4.4,0-8.9,0-13.3,0
		C172.5,526.8,172.5,525.9,172.5,524.9z"/>
	<path class="st18" d="M266.4,697.2c-4.4,1.6-8.8,3.1-13.2,4.7c0-0.7,0.1-1.5,0.1-2.2c4.4-1.3,8.7-2.7,13.1-4
		C266.4,696.3,266.4,696.8,266.4,697.2z"/>
	<path class="st19" d="M257.2,680.6c-1.5,0.2-3,0.3-4.6,0.5c-0.1-0.8-0.2-1.5-0.3-2.3c3.5-0.9,7-1.7,10.5-2.6
		c0.2,0.4,0.4,0.8,0.5,1.3C261.3,678.5,259.3,679.5,257.2,680.6z"/>
	<path class="st18" d="M172.4,534.8c4.4,1.3,8.8,2.6,13.1,4c-0.1,0.3-0.1,0.7-0.2,1c-4.3-0.7-8.5-1.4-12.8-2.1
		C172.5,536.7,172.5,535.8,172.4,534.8z"/>
	<path class="st10" d="M265.3,686.8c-4.3,1.4-8.5,2.7-12.8,4.1c0-0.8,0-1.5,0.1-2.3c4.3-1.3,8.5-2.6,12.8-4
		C265.4,685.3,265.3,686,265.3,686.8z"/>
	<path class="st9" d="M228.4,261c0-4.4,0-8.8-0.1-13.2c1,0.6,2,1.3,3,1.9c-0.3,3-0.6,5.9-1,8.9C229.7,259.4,229.1,260.2,228.4,261z"
		/>
	<path class="st24" d="M230.4,258.6c0.3-3,0.6-5.9,1-8.9C235.6,254.5,235.6,254.5,230.4,258.6z"/>
	<path class="st12" d="M202.2,311.9c0.7,0.7,1.5,1.5,2.2,2.2c-0.3,0.9-0.6,1.9-0.9,2.8c-0.8-1.3-1.5-2.6-2.3-3.9
		C201.6,312.6,201.9,312.2,202.2,311.9z"/>
	<path class="st17" d="M208.2,300.9c-0.6,0-1.2,0-1.9,0c0.7-0.7,1.3-1.4,2-2C208.2,299.5,208.2,300.2,208.2,300.9z"/>
	<path class="st10" d="M184.8,766.8c0.1,0.7,0.1,1.4,0.2,2.1C184.9,768.2,184.9,767.5,184.8,766.8z"/>
	<path class="st17" d="M208.3,298.8c0.4-0.3,0.8-0.6,1.3-0.9C209.1,298.2,208.7,298.5,208.3,298.8z"/>
	<path class="st1" d="M203.5,70.7c-4.4,2.8-8.7,5.8-13.1,8.5c-0.5,0.3-2.4-0.3-2.4-0.6c-0.1-1.4-0.3-3.1,0.4-4.1
		c3.5-4.9,8.5-6.3,14.2-5.3C202.9,69.7,203.2,70.2,203.5,70.7z"/>
	<path class="st21" d="M293.3,95.3c0.4,0.9,0.7,1.7,1,2.6C294,97,293.7,96.2,293.3,95.3z"/>
	<path class="st25" d="M203.3,351.9c-0.4,4.6,2.3,7.6,5.8,9.7c4.5,2.7,9.3,5,14.2,7.1c7.3,3.2,14.7,6.1,22,9.1
		c-8.5,10.3-16.4,21.1-25.6,30.8c-5.5,5.7-12.9,9.6-19.4,14.3c0-12-8.9-19.2-20.4-16c-6.2,1.7-12.4,4-17.9,7.3
		c-11.8,7-13.9,16.9-6.9,28.7c0.2,0.3,0.1,0.6,0.2,1c-12.1,3.5-24.6,5-37.1,3.9c-14.1-1.1-27.6-4.2-40.8-9.9
		C65.9,432.8,56.1,425.3,46,418c-7.8-5.7-15.9-11.2-23.5-17.2c-3.7-2.9-6.7-6.7-10.5-10.6c1.9-1.3,2.9-2,4.6-3.2
		c-2.6-2.8-4.9-5.4-7.3-8c0.2-0.4,0.3-0.8,0.5-1.2c3.2,0.6,6.4,1.1,11,1.9c-0.9-2.5-1.2-4.5-2.2-6.1c-2.6-4-3.3-10.1-1-11.4
		c2.1-1.2,7.5,1.9,9.7,5.7c1.1,1.8,2,3.7,3,5.6c0.6,0.1,1.2,0.2,1.7,0.3c0.5-1.8,1.2-3.5,1.6-5.3c0.5-2.1,0.8-4.2,1.2-6.4
		c1.9,1.2,4.4,1.9,5.6,3.6c3.7,5.1,6.8,10.6,10.4,15.8c0.7,1,2.1,1.4,3.1,2.1c0.4-0.9,0.9-1.9,1.3-2.8l0,0c1.8-1,3.5-2,5.3-3
		c0.2-0.5,0.4-1,0.6-1.5c1.6,1.8,4.4,3.4,4.7,5.4c2.3,14.3,13.9,17.2,24.8,21c13.9,4.9,27.7,2.7,41.4-0.9
		c20.9-5.4,39.7-14.9,54.9-30.4c4.7-4.8,8.3-10.6,12.4-15.9C200.6,354.1,202.1,353.1,203.3,351.9z"/>
	<path class="st7" d="M155.3,443.8c-0.1-0.3,0-0.7-0.2-1c-7-11.8-4.9-21.7,6.9-28.7c5.5-3.2,11.7-5.6,17.9-7.3
		c11.5-3.2,20.4,4,20.4,16c-6.1,3.3-12.2,6.9-18.4,10c-6.5,3.3-13.2,6.2-19.9,9.1C159.9,442.8,157.6,443.2,155.3,443.8z"/>
	<path class="st23" d="M259.3,367.8c3.4,10.2,6.6,20.5,10.3,30.7c1.4,3.9,0.4,5.3-3.3,6.3c-6.6,1.9-13.2,4.1-19.8,6.2
		c-0.7-0.4-1.4-0.7-2.1-1.1c-0.4-2.3-0.8-4.6-1.2-7c0.6-0.3,1.2-0.6,1.8-1c0.4,0,0.8,0,1.2,0c0.2,1.5,0.3,3.1,0.6,5.1
		c6-2.1,11.6-4,17-6c0.4-0.1,0.4-1.5,0.5-2.4c-0.3-0.6-0.7-1.2-1-1.8c0.4-0.7,0.7-1.4,1.1-2.2c-0.4-1-0.7-2-1.1-2.9
		c-1.1-0.6-2.3-1.3-3.4-1.9c-0.5-1.3,3.3-3.1-0.5-4c-0.7-0.3-1.4-0.6-2.1-1c3-1.9,3-1.9,1-3.2c0.3-1.5,0.5-3,0.9-5.1
		c-2.9,1.3-5,2.2-7.1,3.1C254.5,375.8,256.9,371.8,259.3,367.8z"/>
	<path class="st18" d="M245,401.9c-0.6,0.3-1.2,0.6-1.8,1c-2.3,0.3-4.6,0.6-7,0.9c-0.4-0.5-0.8-1-1.1-1.5c3-4.5,6.1-9.1,9.1-13.6
		c0.4-0.3,0.8-0.6,1.1-0.9l0,0c4-1,8-2,12-2.9c0.7,0.3,1.4,0.6,2.1,1c-5.6,2.1-11.3,4.3-16.9,6.5c0.2,0.5,0.4,1,0.6,1.5
		c3.4-1,6.8-2,10.3-3c0,0.5,0.1,1,0.1,1.5c-3.2,1.5-6.5,3-9.7,4.6c0.1,0.4,0.3,0.8,0.5,1.1c6.4-2.1,12.7-4.2,19.1-6.3
		c0.4,1,0.7,2,1.1,2.9C257.9,397,251.5,399.5,245,401.9z"/>
	<path class="st23" d="M235.1,402.3c0.4,0.5,0.8,1,1.1,1.5c1.1,3,2.3,6,3.7,9.8c-8.2,2.6-16.9,5.4-25.6,8.1
		c-0.3,0.1-0.8-0.5-1.2-0.8c3.6-2.4,7.3-4.8,10.9-7.2c3.7-1,7.4-2.1,11-3.1c-0.7-1.4-1.1-1.7-1.3-1.6c-2.6,0.6-5.1,1.2-7.6,1.9
		C229.2,408,232.1,405.1,235.1,402.3z"/>
	<path class="st0" d="M189.3,344.3c2.6,2.1,5.3,4.3,7.9,6.4c-4.3,5.8-8.6,11.6-12.9,17.4C186,360.1,187.6,352.2,189.3,344.3z"/>
	<path class="st18" d="M252.1,379.8c2.1-0.9,4.3-1.8,7.1-3.1c-0.4,2.1-0.6,3.6-0.9,5.1c-0.7,0.3-1.4,0.6-2.1,0.9
		c-0.6-0.4-1.2-0.9-1.8-1.3c-0.3,0.6-0.7,1.1-1,1.7c-2.1,0.6-4.1,1.2-6.2,1.8C248.9,383.1,250.5,381.4,252.1,379.8z"/>
	<path class="st23" d="M198.6,348c-0.6-0.1-1.5,0-1.9-0.3c-1.2-1.1-2.4-2.2-3.4-3.6c-0.2-0.3,1-2.2,1.3-2.1c1.6,0.3,3.3,0.9,4.8,1.6
		c0.6,0.3,0.8,1.4,1.2,2.1C199.9,346.5,199.2,347.2,198.6,348z"/>
	<path class="st19" d="M247.3,384.8c2.1-0.6,4.1-1.2,6.2-1.8c0.9-0.1,1.8-0.3,2.8-0.4c0.7-0.3,1.4-0.6,2.1-0.9c2,1.3,2,1.3-1,3.2
		c-4,1-8,2-12,2.9c0.3-0.7,0.7-1.4,1-2C246.7,385.5,247,385.1,247.3,384.8L247.3,384.8z"/>
	<path class="st14" d="M226.2,410.8c2.5-0.6,5.1-1.3,7.6-1.9c0.2-0.1,0.6,0.3,1.3,1.6c-3.7,1-7.4,2.1-11,3.1
		C224.8,412.8,225.5,411.8,226.2,410.8z"/>
	<path class="st19" d="M245.3,387.8c-0.4,0.3-0.8,0.6-1.1,0.9C244.6,388.4,245,388.1,245.3,387.8z"/>
	<path class="st25" d="M55.3,380.8c-0.1-0.1-0.3-0.3-0.4-0.4c0.1,0,0.2,0,0.3,0.1C55.3,380.6,55.3,380.7,55.3,380.8
		C55.4,380.8,55.3,380.8,55.3,380.8z"/>
	<path class="st18" d="M247.3,384.8c-0.3,0.3-0.7,0.7-1,1C246.7,385.5,247,385.1,247.3,384.8z"/>
	<path class="st25" d="M54.3,271.8c-12.6-13.3-23.4-27.8-30.9-44.7c-2.5-5.5-6.6-10.3-9.5-15.6c-1.4-2.6-1.9-5.8-2.7-8.8
		c-2.5-8.7-5.1-17.5-7.4-26.2c-0.5-1.7-0.5-3.8,0.1-5.3c0.7-1.6,2.3-3.7,3.8-4c1.3-0.2,3.5,1.4,4.5,2.8c1.9,2.6,3.3,5.6,5.8,9.9
		c-3.4-0.6-5.3-0.9-8.3-1.5c0.3,1.7,0.5,4.6,0.8,4.6c2.8,0.1,6.4,0.6,8.4-0.9c3.1-2.4,5-6.2,7.6-9.6c8.7,1.6,7.7-6.1,9.8-11.8
		c1.5,3.1,2.6,5.5,4,8.4c-4.8,1.1-7.7,3.4-7,8.6c0.6,4.6,6.2,9.7,13.2,10.1c-1-1.3-1.9-2.7-3.1-3.9c-1.7-1.8-3.8-3.2-5.3-5.2
		c-0.6-0.8-0.6-2.6-0.1-3.6c0.3-0.7,1.9-1.2,2.9-1.2c4.8,0.3,8.5,4.2,10.7,8.4c5.1,10.4,6.6,22,13.7,31.8
		c15.3,21.1,32.3,39.8,57.8,48.3c9.2,3.1,18.8,5,28.2,7.4c-0.4,2.2-0.6,4.5-1.2,6.6c-1.1,4-2.8,7.9-3.6,12c-0.6,2.9-0.3,5.9-0.2,8.9
		c0.3,8.1,0.7,16.3,1.1,24.5c-18.6,0-35.9-4.3-51-15.5c-1.4-1-2.1-3-3.1-4.5c11.3-5.5,11.4-15.4,4.5-24.1c-0.9-1.2-1.8-2.3-2.8-3.5
		C85.3,261.6,63.5,258,54.3,271.8z"/>
	<path class="st7" d="M54.3,271.8c9.2-13.9,30.9-10.2,40.7,2.4c0.9,1.2,1.8,2.3,2.8,3.5c6.9,8.6,6.8,18.6-4.5,24.1
		c-2.9-0.8-6.5-0.8-8.6-2.6C74.3,290.3,64.4,281,54.3,271.8z"/>
	<path class="st7" d="M147.4,321.8c-0.4-8.1-0.8-16.3-1.1-24.5c-0.1-3-0.4-6,0.2-8.9c0.8-4.1,2.5-8,3.6-12c0.6-2.1,0.8-4.4,1.2-6.6
		c4.3,0.7,8.6,1.3,12.9,2c0.1,9.7-0.1,19.3,0.2,29c0.2,7.6,0.9,15.3,1.4,22.9c-4.4-0.3-8.9-0.5-13.3-0.9
		C150.8,322.6,149.1,322.2,147.4,321.8z"/>
	<path class="st21" d="M26.2,152.9c2.4,0.5,4.5,0.9,7.5,1.5c-1.1,4.9-2.2,9.5-3.6,15.4c-1.7-1.9-2.3-2.7-3-3.2
		c-0.9-0.6-2.3-1.7-2.7-1.4c-0.9,0.6-1.7,1.8-2,2.9c-0.5,2.1-0.5,4.3-0.8,7.1c-3.5-3.3-6.5-14.8-4.9-17.6c0.5-0.8,2.2-1.6,3.1-1.4
		C24.6,157.4,24.5,157.5,26.2,152.9z"/>
	<path class="st13" d="M189.4,335.7c0,0.3,0,0.7-0.1,1c-3,0.4-6,0.8-9,1.2c-0.7-1.1-1.4-2.2-2.1-3.3c5,0.3,3.1-2.3,1.9-4.6
		c0.4-0.5,0.8-0.9,1.3-1.3C184.1,331,186.8,333.3,189.4,335.7z"/>
	<path class="st14" d="M181.4,328.6c-0.4,0.5-0.8,0.9-1.2,1.3c-2.7-1.7-5.4-3.4-8.5-5.3c-0.2,1.8-0.3,3-0.5,4.2
		c-0.5-3.1-1.1-6.1-1.6-9.2C173.6,322.7,177.5,325.6,181.4,328.6z"/>
	<path class="st24" d="M178.3,334.6c0.7,1.1,1.4,2.2,2.1,3.3c-1.8,1.4-3.5,2.8-6.5,5.1c-0.9-5.1-1.6-9.2-2.3-13.2
		C173.8,331.4,176.1,333,178.3,334.6z"/>
	<path class="st23" d="M178.3,334.6c-2.2-1.6-4.4-3.2-6.7-4.8c-0.2-0.3-0.3-0.5-0.4-0.9c0.1-1.2,0.3-2.5,0.5-4.2
		c3.1,1.9,5.8,3.6,8.5,5.3C181.3,332.3,183.2,334.9,178.3,334.6z"/>
	<path class="st22" d="M306.4,384c-3.4,0-6.7,0-10.1-0.1c-1-1-2.9-2-2.9-3.1c-0.2-7.5-0.2-15,0.1-22.5c0.1-1.3,1.9-3.5,2.9-3.5
		c7,0,13.9,0.5,20.9,0.8c0,0.6,0,1.1,0,1.7c-0.5,0.5-1,0.9-1.5,1.4c-0.2,7-0.4,14-0.6,21C314.5,385.8,309.7,383.5,306.4,384z
		 M310.5,381.9c0.3-0.6,0.6-1.1,1-1.7c-1-0.7-1.8-1.7-2.9-2.1c-4.6-1.8-5.7-4-1.7-7.8c0.8-0.8,0.4-3.9-0.5-5.4
		c-1.5-2.3-3.7-4.2-5.7-6.1c-1.1-1-2.4-1.7-3.6-2.6c-0.6,0.9-1.9,2.1-1.7,2.6c0.5,1.2,1.6,2.5,2.7,3c5.6,2.6,6.7,5.8,3.6,11
		c-0.7,1.1-1,3.8-0.5,4.1C304.2,378.9,307.5,380.3,310.5,381.9z"/>
	<path class="st18" d="M317.3,357.3c0-0.6,0-1.1,0-1.7c0.5-0.9,1-1.7,2.2-3.6c0,12,0,22.7,0,33.3c-0.5,0.1-1.1,0.1-1.6,0.2
		c-0.3-1.9-0.5-3.8-0.8-5.6c0.1-7,0.1-14,0.2-21.1C317.3,358.3,317.3,357.8,317.3,357.3z"/>
	<path class="st19" d="M317.3,358.8c-0.1,7-0.1,14-0.2,21.1c-0.6,0-1.2-0.1-1.8-0.1c0.2-7,0.4-14,0.6-21
		C316.3,358.7,316.8,358.8,317.3,358.8z"/>
	<path class="st11" d="M288.3,527c-7.2-3.9-14.3-7.8-22.1-12.1c3.1-6.2,6-12.1,8.9-18c0.4-0.7,0.8-1.4,1.1-2.2
		c0.5-1.2,1-2.5,1.4-3.7c2.8-4.6,5.8-9.2,8.2-14c1.2-2.4,2.3-2.9,4.5-1.6c2.9,1.6,5.9,3,8.7,4.8c0.6,0.4,0.7,1.6,1,2.4
		c-1.7,3.2-3.4,6.4-5.4,10.1c3.9,1.3,6.6,2.2,9.4,3.1c0.2,1.2,0.9,2.6,0.4,3.5c-4.5,8.5-9.2,16.9-13.9,25.3
		C290.3,525.6,289.2,526.2,288.3,527z"/>
	<path class="st23" d="M270.4,485.8c1.9-3.3,3.8-6.5,5.9-10.1c2.1,0.9,4.2,1.8,6.4,2.8c-2.2,4.1-4.4,8.2-6.5,12.3
		C274.2,489.1,272.3,487.4,270.4,485.8z"/>
	<path class="st22" d="M276.3,494.7c-0.4,0.7-0.8,1.4-1.1,2.2c-5.2,0.7-5,6.1-7.8,9c-2.1-0.7-4.1-1.4-6.2-2
		c2.4-4.4,4.8-8.7,7.2-13.1C269.6,495,273.7,493.4,276.3,494.7z"/>
	<path class="st20" d="M261.1,503.8c2.1,0.7,4.1,1.4,6.2,2c-1.2,2.8-2.3,5.6-3.5,8.3c-2-1.6-3.8-3-5.5-4.4
		C259.3,507.8,260.2,505.8,261.1,503.8z M260.6,506.9c-0.2,0.4-0.4,0.9-0.6,1.3c1.3,0.5,2.6,1,4,1.5c0.2-0.4,0.3-0.8,0.5-1.1
		C263.2,508.1,261.9,507.5,260.6,506.9z"/>
	<path class="st19" d="M304.3,495.9c-2.8-0.9-5.5-1.8-9.4-3.1c2-3.7,3.7-6.9,5.4-10.1c0.4,1,0.7,2,1.1,2.9c-3.4,5.6-2.8,6.9,3,7.3
		l0,0c0.3,0.3,0.6,0.5,0.9,0.8C304.9,494.3,304.6,495.1,304.3,495.9z"/>
	<path class="st14" d="M276.3,494.7c-2.7-1.3-6.8,0.2-8-4c0.7-1.6,1.3-3.3,2-5c1.9,1.6,3.8,3.3,5.7,4.9c0.5,0.1,1.1,0.2,1.7,0.4
		C277.3,492.3,276.8,493.5,276.3,494.7z"/>
	<path class="st18" d="M283.4,475.7c-2.1-0.9-3.9-1.7-5.7-2.5c0.3-4,2.4-3.5,5-2.3C285.4,472.1,285.8,473.5,283.4,475.7z"/>
	<path class="st23" d="M304.4,492.8c-5.8-0.4-6.4-1.7-3-7.3C302.3,488,303.3,490.4,304.4,492.8z"/>
	<path class="st23" d="M305.2,493.6c-0.3-0.3-0.6-0.5-0.9-0.8C304.6,493,304.9,493.3,305.2,493.6z"/>
	<path class="st18" d="M244.4,409.8c0.7,0.4,1.4,0.7,2.1,1.1c-0.9,0.1-1.9,0.2-2.8,0.3C243.9,410.8,244.2,410.3,244.4,409.8z"/>
	<path class="st18" d="M293.3,423.9c0.3-0.8,0.6-2.3,1-2.3c6.4-1.1,12.9-2,19.3-2.9c0.1,0.7,0.2,1.4,0.4,2
		C307,421.8,300.2,422.8,293.3,423.9L293.3,423.9z"/>
	<path class="st14" d="M294.8,418.2c2.3-0.3,4.5-0.5,6.8-0.7c0.1,0.3,0.1,0.6,0.2,0.9c-2.3,0.3-4.5,0.6-6.8,1
		C294.9,419,294.8,418.6,294.8,418.2z"/>
	<path class="st14" d="M309.4,416.9c-1.3,0.4-2.5,0.8-3.8,1.1c-0.1-0.3-0.1-0.6-0.2-1C306.6,416.9,308,416.9,309.4,416.9
		C309.3,416.8,309.4,416.9,309.4,416.9z"/>
	<path class="st14" d="M309.3,416.8c0.9-0.4,1.9-0.7,2.8-1c0.1,0.3,0.1,0.5,0.2,0.8C311.4,416.6,310.4,416.8,309.3,416.8
		C309.4,416.9,309.3,416.8,309.3,416.8z"/>
	<path class="st18" d="M291.5,423.9c-0.4-0.5-0.8-0.9-1.3-1.4C290.7,423,291.1,423.4,291.5,423.9z"/>
	<path class="st2" d="M191.2,455.9c4.2,0.9,8.6,1.9,9.5,6.9c0.8,4.6-0.8,8.4-5.3,10.6c-5.6,0.5-8.8-1.1-10.4-5.5
		c-1.4-4,0.4-8.2,4.7-10.9C190.3,456.6,190.7,456.2,191.2,455.9z M197.6,465.7c-2-1.6-3.5-2.2-3.6-3c-0.6-3.6-2.7-2.8-4-1
		c-1,1.3-1.6,3.8-1.1,5.3c0.4,1.3,3,2.9,4.1,2.6C194.8,469,196.2,467,197.6,465.7z"/>
	<path class="st16" d="M261.4,341.9c-1.7-5-0.6-9.6,1.7-14.3c1.6-3.2,3.4-3.1,6-2c2.9,1.3,7,1.8,6,6.4c-0.6,2.7-1.5,5.6-3.1,7.8
		c-0.8,1.2-3.3,1.4-5,1.7C265.1,341.8,263.2,341.7,261.4,341.9C261.3,341.8,261.4,341.9,261.4,341.9z"/>
	<path class="st16" d="M232.3,484.1c-1.6-0.5-3.2-1-4.8-1.5c1.1-3.2,2.1-6.3,3.2-9.5C239,476.1,232.8,480.4,232.3,484.1z"/>
	<path class="st0" d="M192.9,505.5c0.9,4.2,8.4,2.3,5.4,8.2c-0.6,1.1-3.4,2.1-4.4,1.6C190.3,513.3,190.6,510.1,192.9,505.5z"/>
	<path class="st22" d="M248.9,274.9c1.3-0.7,2.7-1.1,3.7-2c1.4-1.2,2.6-2.6,3.9-4c3.3-2.7,6.7-5.2,9.8-8.1c1.4-1.3,2-3.3,3-5
		c8,7.7,16.1,15.4,24.1,23c-2.1,2.9-4.2,5.7-6.3,8.6c-4,3.7-7.9,7.5-11.9,11.2c-1.1-0.2-2.5,0.1-3.2-0.5
		c-7.7-7.2-15.2-14.5-22.8-21.9C249,275.9,249,275.3,248.9,274.9z M274.4,266.5c-0.4-0.2-0.7-0.4-1.1-0.6c-0.8-0.5-2-1.5-2.2-1.3
		c-5.4,4-10.3,8.4-14.1,14.8c1.7,0.2,2.6,0.3,3.5,0.5c-0.1,0.3-0.1,0.7-0.2,1c1.2,1,2.4,2.1,3.7,3.1c0.5,0,0.9,0,1.3,0
		c0.3,0.3,0.6,0.6,0.9,0.9c0.4,0.5,0.7,1,1.1,1.4c0.8,1.1,1.5,2.3,2.3,3.4c0.6-0.6,1.1-1.3,1.7-1.9c3.6-3.4,7.2-6.7,10.6-10.3
		c0.7-0.7,0.3-2.4,0.4-3.6c-0.6-0.4-1.3-0.7-1.9-1.1c-0.7-0.3-1.4-0.6-2.1-1c0.3-2.6-0.8-4.1-3.5-4.1
		C274.6,267.3,274.5,266.9,274.4,266.5z"/>
	<path class="st16" d="M242,459.4c-1.5-0.6-3-1.2-4.4-1.8c0.1-1.1-0.3-2.5,0.3-3.3c0.7-1,2.1-1.6,3.2-2.4c0.8,1.3,1.9,2.4,2.1,3.8
		C243.3,456.9,242.4,458.2,242,459.4z"/>
	<path class="st18" d="M224.2,345.8c2-2.3,4-4.6,6.1-6.8c0.7-0.8,1.6-1.4,2.4-2.1c0,0,0.4,0,0.4,0c0.4,0,0.8,0,1.2,0l0,0
		c2.6,0.3,3,2,1.1,3.2C231.9,342.2,227.9,343.9,224.2,345.8z"/>
	<path class="st10" d="M236.2,544.7c0-0.3,0.1-0.7,0.3-1c0.4,0.2,0.8,0.3,1.1,0.5C237.1,544.4,236.6,544.6,236.2,544.7z"/>
	<path class="st23" d="M268.5,137.8c3.3-3.4,6.5,0.1,9.7,0.1c2,1.3,4,2.7,6,4l0,0c1.2,6.2-4.3,11.5-11.9,10.9
		c-0.5-1.2-1.8-3.4-1.6-3.5c3.8-2.8,0.2-4.9-0.5-7.2C269.8,140.6,269.1,139.2,268.5,137.8z"/>
	<path class="st3" d="M268.5,137.8c0.6,1.4,1.3,2.8,1.8,4.3c0.7,2.3,4.3,4.4,0.5,7.2c-0.2,0.2,1,2.3,1.6,3.5c-0.7,1-1.4,1.9-2.1,2.9
		c-1.6,0-3.3,0.1-4.9,0.1c-1.6-1.4,0.8-5.9-3.8-4.9c-0.4-2.8-0.8-5.7-1.1-8.5c0.7-1.3,1.5-2.7,2.2-4
		C264.6,138.2,266.5,138,268.5,137.8z"/>
	<path class="st22" d="M214.4,154.7c0.5,3.1-2.7,7.7-6.6,9.1c-1.5,0.5-3.1,0.8-4.7,1.2c-0.6-2.7-1.3-5.4-1.9-8.1
		c-0.2-0.6-0.4-1.3-0.5-1.9c-0.7-1.1-1.4-2.1-2.2-3.2c-0.1-0.3-0.1-0.6-0.1-0.9C204.8,147.5,209.6,151.2,214.4,154.7z"/>
	<path class="st3" d="M200.7,155c0.2,0.6,0.4,1.3,0.5,1.9c-5.1,0.8-1.4,5.7-3.3,6.9c1.1,0.8,2.1,1.6,3.1,2.3
		c-2.6,0.3-5.1,0.5-7.7,0.8c0.4-1.1,0.8-2.1,1.2-3.3c-1.1-0.6-1.9-1.1-2.7-1.5c-0.4-0.2-0.9-0.2-1.4-0.2c-0.4-3-0.8-5.9-1.3-8.9
		c0.3-0.8,0.6-1.6,1-2.4c2.4-0.8,4.7-1.6,7.1-2.4c0.4,0.9,0.8,1.7,1.2,2.6c0,0.3,0,0.6,0.1,0.9C199.2,152.8,199.9,153.9,200.7,155z"
		/>
	<path class="st26" d="M255.2,190.1c-5.4,7.6-21.6,8.8-27.7,0.7c5.5,0.7,10.1,2,14.5,1.6c4.3-0.4,8.5-2.6,12.7-4
		C254.9,188.9,255,189.5,255.2,190.1z"/>
	<path class="st6" d="M309.1,149.7c0.6-1.7,1.4-4.6,2.6-7.3c0.4-1,2-1.4,3-2.1c0.6,1.1,1.8,2.3,1.6,3.3c-0.7,3.7-2.4,7.3,0.8,10.9
		c0.3,0.3-2,2.9-3.1,4.4c-1.5-1.3-3.2-2.4-4.3-3.9C309,153.9,309.3,152.3,309.1,149.7z"/>
	<path class="st27" d="M206.7,137.9c-7.2,1.9-13.8,3.7-21.7,5.9C189.9,136.9,203,133.8,206.7,137.9z"/>
	<path class="st27" d="M261.5,150.8c4.6-1,2.3,3.5,3.8,4.9c-1.5,0-3,0.2-4.4,0.1c-3.6-0.5-8.3-1-8.2-5.4c0.1-3.2,2.7-6.6,4.7-9.4
		c1-1.4,3.4-1.8,5.1-2.6c-0.7,1.3-1.5,2.7-2.2,4c-3.5,1-6.1,3.2-5.6,6.9c0.5,3.9,4,4,7.3,4.3C261.8,152.4,261.7,151.6,261.5,150.8z"
		/>
	<path class="st27" d="M190.1,150.6c-0.3,0.8-0.6,1.6-1,2.4c-1.7,1.5-4.3,2.8-4.9,4.6c-0.5,1.6,0.6,4.4,2,5.9c1,1.1,4.1,2.4,4.2-1.6
		c0.5,0.1,1,0.1,1.4,0.2c0.9,0.4,1.7,0.9,2.7,1.5c-0.4,1.1-0.8,2.2-1.2,3.3c-0.3,0.1-0.7,0.2-1,0.1c-4.4-0.4-9.4,0.4-10.9-5.4
		C180.3,157.3,183.8,153.1,190.1,150.6z"/>
	<path class="st27" d="M280.7,124.8c-5.8,0.7-11,1.4-16.1,2c-0.5,0.1-1.5-0.5-1.5-0.9c-0.1-0.7,0.1-1.7,0.6-2.2
		C266.1,121,277.1,121.4,280.7,124.8z"/>
	<path class="st27" d="M270.3,155.7c0.7-1,1.4-1.9,2.1-2.9c7.6,0.6,13.1-4.8,11.9-10.9c3.3,2.4,3.7,4.3,1.4,7.3
		C281.7,154.3,276.1,155.1,270.3,155.7z"/>
	<path class="st27" d="M198.4,150.9c-0.4-0.9-0.8-1.7-1.2-2.6c7.4-2.5,15.9,0.6,17.3,6.4C209.6,151.2,204.8,147.5,198.4,150.9z"/>
	<path class="st27" d="M201,166.1c-1-0.7-2-1.5-3.1-2.3c1.9-1.2-1.8-6.2,3.3-6.9c0.6,2.7,1.3,5.4,1.9,8.1
		C202.4,165.3,201.7,165.7,201,166.1z"/>
	<path class="st27" d="M284.3,141.9c-2-1.3-4-2.7-6-4C281.3,137.7,283.8,138.2,284.3,141.9z"/>
	<path class="st12" d="M268.4,648.8c-4.6-0.6-4.3-3.9-3.8-7.1c0.3-1.8,1-3.6,1.9-5.1c1.7-2.6,3.3-6,5.8-7.2c3.1-1.5,11.4,3.6,13,6.6
		c2,4.1-1.1,15.2-4.9,17.6C277.1,655.8,269.7,652.7,268.4,648.8c1.8-0.1,3.8,0,5.6-0.3c1.8-0.3,4.2-0.5,5-1.7
		c1.5-2.3,2.5-5.1,3.1-7.8c0.9-4.6-3.2-5.1-6-6.4c-2.5-1.2-4.4-1.2-6,2C267.7,639.3,266.7,643.8,268.4,648.8z"/>
	<path class="st10" d="M268.4,812.8c-1.5,0.3-3,0.6-4.5,0.9c6.5-12.4,13.1-24.8,19.7-37.1c1.4-2.6,3-3.5,6-1.4
		c4.9,3.5,10.1,6.5,15.2,9.7c-2.2-0.7-4.4-1.6-6.7-2c-1.7-0.3-3.4,0.1-5.2,0.1c-0.5-0.1-0.9-0.1-1.4-0.2c2.3-5.6-2.4-4.8-5.3-6.1
		c-1.3,2.2-2.4,4.2-3.5,6.1c-2.4,5-4.9,10-7.3,15C273,802.8,270.7,807.8,268.4,812.8z"/>
	<path class="st13" d="M302.3,735.6c-4.4,0.7-8.7,1.4-13.1,2c-3.7,0.5-4.8-1.9-5.5-4.9c-0.7-3.1,0-5.8,3.3-6.7
		c2.7-0.8,5.5-1,8.3-1.5c1.1,0.2,2.2,0.3,3.5,0.5c-3.4,3.4-3.2,5.5,0.6,7.5c-0.7,0.3-1.4,0.6-2.8,1.2
		C299.4,734.7,300.8,735.2,302.3,735.6z"/>
	<path class="st17" d="M263.7,573.8c0.6,0,1.3,0,1.9,0c-1.5,2.1-1,5.5-4.9,6.1c-4.3,0.6-4.6,2.3-1.5,5.5c6.9,6.7,13.9,13.4,20.9,20
		c0.7,0.6,2,0.6,3,0.8c0,0.8,0,1.6,0.1,2.5c-1.4-0.2-3.2,0-4-0.7c-7.9-7.3-15.7-14.7-23.4-22.2c-3.3-3.1-2.8-4.7,1.2-7.1
		C259.3,577.2,261.5,575.4,263.7,573.8z"/>
	<path class="st10" d="M195.2,642.9c0.6-0.1,1.1-0.2,1.6-0.3c5.8,2.8,12.8,4.2,14.6,11.8c0.2,0.9,0.4,1.8,0.6,3
		c-5.6,0.9-10.3,0.8-13.7-4.4c-1.8-2.7-4.3-4.8-6.5-7.2c2.2,0.7,4.5,1.4,6.7,2.1c0.4-0.6,0.8-1.2,1.2-1.8
		C198.3,645,196.8,644,195.2,642.9z M207,655.5c0.6-0.9,1.1-1.7,1.7-2.6c-2-1.4-4.1-2.8-6.1-4.1c-0.5,1.1-1.5,3-1.3,3.2
		C203.1,653.4,205.1,654.4,207,655.5z"/>
	<path class="st19" d="M302.3,735.6c-1.4-0.5-2.9-1-5.8-2c1.4-0.6,2-0.9,2.8-1.2c-3.8-2-4-4-0.6-7.5c-1.3-0.2-2.4-0.4-3.5-0.5
		c1.7-0.2,3.5-0.5,5.2-0.7c0,0.3,0,0.7,0,1c0,0.7,0,1.3,0,2c0,0.3,0,0.6,0,1c-0.2,3,1.5,3.1,3.8,2.6c5.7-1,11.4-1.9,17-2.8
		c0.5,2.9-0.8,4-3.8,4.3c-3.1,0.3-6.1,1.5-9.1,2.3C306.3,734.7,304.3,735.2,302.3,735.6z"/>
	<path class="st28" d="M232.4,786.8c-1.1,4.5-2.3,9-3.4,13.5c-0.5,1.2-1.1,2.3-1.6,3.4c-0.4,0.4-0.7,0.7-1,1.1c-0.3,0-0.6,0-0.9,0.1
		c0-5.9-0.2-11.7,0.1-17.6c0-0.7,2.4-1.7,3.8-1.8C230.3,785.4,231.4,786.4,232.4,786.8z"/>
	<path class="st16" d="M229.4,808.6c0.7,1.2,2,2.5,2.1,3.7c0.1,1.8-0.7,3.7-1.1,5.6c-1.3,1.9-2.6,3.8-3.8,5.8
		C222.2,819,223.9,810.3,229.4,808.6z"/>
	<path class="st14" d="M278.3,562.7c0-0.7,0.1-1.3,0.1-2c8,7.4,15.9,14.8,23.8,22.2c0.7,0.7,0.8,2,1.2,3c-0.6,0-1.3-0.1-2-0.1
		c-1.4-1.6-2.8-3.3-4.3-4.8C290.9,574.9,284.6,568.8,278.3,562.7z"/>
	<path class="st17" d="M229.4,808.6c-5.5,1.7-7.2,10.4-2.9,15.1c-0.5,0.9-0.9,1.8-1.4,2.6c-0.4,0.5-1,0.8-1.8,1.4
		c-3.6-6.5-1-12.5,0.3-18.6c0.6-1.1,1.2-2.2,1.8-3.3c0.1-0.3,0.1-0.5,0.1-0.8c0.3-0.1,0.6-0.1,0.9-0.1
		C227.4,806.1,228.4,807.4,229.4,808.6z"/>
	<path class="st17" d="M204.2,601.8c-2.7-2.8-2.6-7.4,0.4-9.3c0.6-0.4,2.2,0,2.7,0.7c1,1.2,1.5,2.8,2.2,4.3
		c-0.1,0.8-0.2,1.7-0.2,2.5c-1.1,0.6-2.1,1.2-3.1,1.8C205.5,601.8,204.9,601.8,204.2,601.8z"/>
	<path class="st14" d="M283.2,608.6c0-0.8,0-1.6-0.1-2.5c3.4-3.8,6.7-7.6,10.1-11.5c0.8,0,1.6,0.1,2.3,0.2
		C291.4,599.4,287.3,604,283.2,608.6z"/>
	<path class="st20" d="M295.5,594.8c-0.8,0-1.6-0.1-2.3-0.2c2.8-3,5.5-5.9,8.3-8.9c0.6,0,1.3,0.1,2,0.1
		C300.8,588.9,298.2,591.8,295.5,594.8z"/>
	<path class="st18" d="M195.2,642.9c1.6,1.1,3.1,2.2,4.6,3.3c-0.4,0.6-0.8,1.2-1.2,1.8c-2.2-0.7-4.5-1.4-6.7-2.1l0,0
		C191.3,642.8,191.8,641.2,195.2,642.9z"/>
	<path class="st10" d="M209.3,600c0.1-0.8,0.1-1.7,0.2-2.5c3.3,1.4,6.6,2.8,9.9,4.2c-0.9,0.1-1.8,0.2-2.6,0.3
		C214.3,601.3,211.8,600.7,209.3,600z"/>
	<path class="st10" d="M204.2,601.8c0.6,0,1.3-0.1,1.9-0.1c-0.2,3-0.4,5.9-0.5,8.8c-0.8,0-1.6,0.1-2.4,0.2
		C203.6,607.8,203.9,604.8,204.2,601.8z"/>
	<path class="st28" d="M225.4,805.8c-0.6,1.1-1.2,2.2-1.8,3.3C224.2,808,224.8,806.9,225.4,805.8z"/>
	<path class="st10" d="M263.2,815.6c-0.2,0.7-0.5,1.4-0.7,2.1C262.7,817,262.9,816.3,263.2,815.6z"/>
	<path class="st9" d="M317.3,766.7c-0.6-0.3-1.2-0.5-1.8-0.8C316.1,766.2,316.7,766.5,317.3,766.7z"/>
	<path class="st10" d="M307.3,786.7c-0.2-0.3-0.4-0.5-0.6-0.7C306.9,786.2,307.1,786.4,307.3,786.7z"/>
	<path class="st19" d="M291.4,782.8c0.5,0.1,0.9,0.1,1.4,0.2c-6.1,11.6-12.2,23.3-18.3,34.9c-1.4-1.1-2.8-2.2-4.2-3.3
		c6-2,7.3-7.8,10.1-12.4c1.7-2.6,0.9-3.6-2-3.4c0-1,0-1.9,0-3.5c2,3.1,3.9,3.5,5.4,0.7c2-3.7,3.8-7.6,5.6-11.4c0-0.6,0-1.2-0.1-1.7
		C290,782.8,290.7,782.8,291.4,782.8z"/>
	<path class="st19" d="M307.2,789.6c0.4,0.8,0.8,1.6,1.2,2.3c-3.3,6.5-2.9,7.4,3,7.8l0,0c0.3,0.3,0.5,0.6,0.8,0.9
		c0.4,1.2,0.9,2.5,1.3,3.7c-3.2-1.4-6.6-2.6-9.7-4.3c-0.7-0.4-0.9-2.7-0.5-3.7C304.3,794,305.9,791.8,307.2,789.6z"/>
	<path class="st23" d="M205.6,610.6c0.2-3,0.4-5.9,0.5-8.8c1.1-0.6,2.1-1.2,3.1-1.8c2.5,0.7,5,1.4,7.5,2c-2.6,2.7-5.1,5.4-7.7,8.1
		c-0.1,0.3-0.4,0.5-0.6,0.6C207.6,610.6,206.6,610.6,205.6,610.6z"/>
	<path class="st19" d="M234.3,336.8c-0.4,0-0.8,0-1.2,0C233.5,336.8,233.9,336.8,234.3,336.8z"/>
	<path class="st14" d="M230.2,715.6c4.1-0.8,1.5,3.5,3.3,4.4c-3.7,1.5-7.4,3-11.2,4.4c-0.9-2.9-1.5-4.8-2-6.7c1.3-0.3,2.7-0.6,4-1
		C226.3,716.4,228.3,716.1,230.2,715.6L230.2,715.6z"/>
	<path class="st19" d="M232.4,686.7c-1.1,0.9-2.1,2.2-3.4,2.7c-5.1,2-10.4,3.7-15.6,5.5c0.3-1,0.3-2.6,0.8-2.8
		C220.1,690.2,226.3,688.5,232.4,686.7z"/>
	<path class="st19" d="M215.4,700.9c6.4-2,12.7-3.9,19.1-5.8c0.2,0.4,0.3,0.9,0.5,1.3c-5.6,2.1-11.1,4.3-16.7,6.4
		C217.4,702.1,216.4,701.5,215.4,700.9z"/>
	<path class="st19" d="M213.4,696.9c6.4-2,12.8-3.9,19.2-5.9c0.2,0.4,0.3,0.9,0.5,1.3c-5.9,2.2-11.9,4.4-17.8,6.6
		C214.7,698.3,214.1,697.6,213.4,696.9z"/>
	<path class="st18" d="M253.3,696.8c3.7-1.6,7.3-3.3,11-4.9c0,0.6,0,1.1,0,1.7C260.7,694.6,257,695.7,253.3,696.8z"/>
	<path class="st22" d="M321.9,676.3c-0.4,4.7,0.8,11-1.8,13.7c-2.3,2.4-8.7,0.8-13.3,0.8c-6.5,0.1-6.5,0-6.5-6.4
		c0-6.1,0.1-12.3,0.1-18.4c0-3.1,1-4.6,4.3-4.4c4.3,0.2,8.6,0.3,12.9,0.1c3.1-0.1,4.1,1.2,3.9,4.1c-0.2,3.5,0,7,0,10.4
		C321.6,676.2,321.8,676.2,321.9,676.3z M317.6,688.8c0.3-0.7,0.7-1.3,1-2c-1.7-1-3.8-1.8-5.1-3.2c-0.9-1-1.7-3.7-1.3-4.1
		c5-4.2,2.7-7.3-1.1-10.4c-1.1-0.9-2-2.3-3.1-3.2c-1.1-0.9-2.5-1.7-3.9-2c-0.4-0.1-1.8,1.9-1.6,2.3c0.6,1,1.7,2,2.9,2.5
		c5.4,2.5,6.5,5.9,3.5,11.1c-0.7,1.1-1,3.8-0.4,4.1C311.3,685.9,314.5,687.3,317.6,688.8z"/>
	<path class="st17" d="M227.4,803.8c0.5-1.2,1.1-2.3,1.6-3.4C228.5,801.5,227.9,802.6,227.4,803.8z"/>
	<path class="st22" d="M278.4,798.8c3-0.2,3.7,0.8,2,3.4c-2.9,4.6-4.2,10.4-10.1,12.4c-0.6-0.6-1.3-1.2-1.9-1.8c2.3-5,4.7-10,7-15
		C276.4,798.1,277.4,798.4,278.4,798.8z"/>
	<path class="st22" d="M311.4,799.8c-5.9-0.4-6.2-1.3-3-7.8C309.4,794.6,310.4,797.2,311.4,799.8z"/>
	<path class="st22" d="M312.1,800.7c-0.3-0.3-0.5-0.6-0.8-0.9C311.6,800,311.8,800.3,312.1,800.7z"/>
	<path class="st18" d="M321.2,727.6c-5.7,0.9-11.4,1.8-17,2.8c-2.3,0.4-4,0.4-3.8-2.6c0.7,0,1.4,0.1,2.2,0.1c0.6,0,1.2-0.1,1.8-0.1
		c4-0.6,8.1-1.4,12.1-1.7C318,725.9,319.6,727,321.2,727.6z"/>
	<path class="st14" d="M304.3,727.8c-0.6,0-1.2,0.1-1.8,0.1c-0.7-0.4-1.4-0.7-2.1-1.1c0-0.7,0-1.3,0-2c6.3-0.7,12.7-1.3,19-2
		c0.1,0.3,0.1,0.7,0.2,1c-3.8,0.7-7.6,1.2-11.3,2.1C306.8,726.2,305.6,727.1,304.3,727.8z"/>
	<path class="st17" d="M206.3,300.8c-0.4,0.3-0.7,0.7-1.1,1C205.6,301.5,206,301.1,206.3,300.8z"/>
	<path class="st22" d="M301.5,585.8c-2.8,3-5.5,5.9-8.3,8.9c-3.4,3.8-6.7,7.6-10.1,11.5c-1-0.3-2.4-0.2-3-0.8
		c-7-6.6-14-13.2-20.9-20c-3.2-3.1-2.8-4.8,1.5-5.5c4-0.6,3.4-4,4.9-6.1c3.7-1.5,4.9-6.5,9.8-6.5c1,0,2-3,3-4.6
		c6.3,6.1,12.6,12.2,18.8,18.3C298.7,582.5,300,584.2,301.5,585.8z M282.4,573.4c-0.4-0.2-0.7-0.4-1.1-0.6c-0.8-0.5-2-1.5-2.2-1.3
		c-5.4,4-10.3,8.4-14.1,14.8c1.7,0.2,2.6,0.3,3.5,0.5c0.2,0.5,0.5,0.9,0.7,1.4c0.9,0.9,1.9,1.8,2.8,2.7c0.4,0,0.9,0,1.3,0
		c0.3,0.3,0.6,0.6,0.9,0.9c0.4,0.5,0.7,1,1.1,1.4c0.6,0.6,1.2,1.1,1.8,1.7c0.7,0.1,1.7,0.7,2,0.4c3.9-3.8,7.7-7.6,11.4-11.5
		c0.4-0.5-0.1-1.8-0.2-2.8c-0.6-0.4-1.3-0.8-1.9-1.1c-0.7-0.3-1.4-0.6-2.1-1c0.3-2.7-0.8-4.1-3.5-4.1
		C282.6,574.3,282.5,573.9,282.4,573.4z"/>
	<path class="st9" d="M230.3,715.7c-2,0.3-4,0.7-6,1.1C226.3,716.4,228.3,716.1,230.3,715.7z"/>
	<path class="st14" d="M235.4,715c0.1,0.3,0.3,0.6,0.2,0.8c-0.1,0.2-0.5,0.3-0.8,0.4c-0.1-0.3-0.3-0.6-0.2-0.8
		C234.8,715.2,235.2,715.1,235.4,715z"/>
	<path class="st14" d="M264.3,398.6c-0.2,0.8-0.1,2.2-0.5,2.4c-5.5,2.1-11,4-17,6c-0.2-2-0.4-3.6-0.6-5.1c0.4,0,0.7,0,1-0.1
		c0.9,0.3,1.7,0.7,2.6,1h0.1C254.7,401.4,259.5,400,264.3,398.6z"/>
	<path class="st19" d="M253.3,390.8c-3.4,1-6.8,2-10.3,3c-0.2-0.5-0.4-1-0.6-1.5c5.6-2.1,11.3-4.3,16.9-6.5c3.8,0.9,0,2.7,0.5,4l0,0
		c-0.7,0-1.4,0-2,0c-0.3,0-0.6,0-1,0c-0.5,0.3-1,0.7-1.5,1l0,0C254.7,390.8,254,390.8,253.3,390.8z"/>
	<path class="st10" d="M259.9,389.8L259.9,389.8c1.2,0.6,2.3,1.3,3.4,1.9c-6.4,2.1-12.7,4.2-19.1,6.3c-0.1-0.4-0.3-0.8-0.5-1.1
		c3.2-1.5,6.5-3,9.7-4.6c0.6-0.5,1.3-1,1.9-1.5l0,0c0.5-0.3,1-0.7,1.5-1c0.3,0,0.6,0,1,0C258.5,389.8,259.2,389.8,259.9,389.8z"/>
	<path class="st19" d="M247.3,401.8c-0.3,0-0.7,0-1,0.1c-0.4,0-0.8,0-1.2,0c6.5-2.4,12.9-4.8,19.4-7.2c-0.4,0.7-0.7,1.4-1.1,2.2
		c-4.6,1.6-10.3,1-13.4,6h-0.1C249,402.5,248.1,402.1,247.3,401.8z"/>
	<path class="st18" d="M249.9,402.8c3.1-5.1,8.8-4.4,13.4-6c0.3,0.6,0.7,1.2,1,1.8C259.5,400,254.7,401.4,249.9,402.8z"/>
	<path class="st23" d="M255.4,390.8c-0.6,0.5-1.3,1-1.9,1.5c0-0.5-0.1-1-0.1-1.5C254,390.8,254.7,390.8,255.4,390.8z"/>
	<path class="st23" d="M256.3,382.6c-0.9,0.1-1.8,0.3-2.8,0.4c0.3-0.6,0.7-1.1,1-1.7C255.1,381.7,255.7,382.1,256.3,382.6z"/>
	<path class="st14" d="M310.5,381.9c-3.1-1.6-6.3-3-9.2-4.9c-0.5-0.4-0.2-3,0.5-4.1c3-5.2,2-8.4-3.6-11c-1.2-0.5-2.3-1.8-2.7-3
		c-0.2-0.6,1.1-1.8,1.7-2.6c1.2,0.9,2.5,1.6,3.6,2.6c2,1.9,4.3,3.8,5.7,6.1c0.9,1.4,1.3,4.5,0.5,5.4c-4,3.9-2.9,6,1.7,7.8
		c1.1,0.4,1.9,1.4,2.9,2.1C311.2,380.8,310.9,381.3,310.5,381.9z"/>
	<path class="st9" d="M317.3,358.8c-0.5,0-0.9-0.1-1.4-0.1c0.5-0.5,1-0.9,1.5-1.4C317.3,357.8,317.3,358.3,317.3,358.8z"/>
	<path class="st14" d="M260.6,506.9c1.3,0.6,2.6,1.1,3.9,1.7c-0.2,0.4-0.3,0.8-0.5,1.1c-1.3-0.5-2.6-1-4-1.5
		C260.2,507.8,260.4,507.4,260.6,506.9z"/>
	<path class="st23" d="M197.6,465.7c-1.5,1.3-2.8,3.3-4.6,3.8c-1.1,0.3-3.7-1.3-4.1-2.6c-0.5-1.5,0.1-4,1.1-5.3c1.3-1.7,3.4-2.5,4,1
		C194.2,463.5,195.7,464.1,197.6,465.7z"/>
	<path class="st20" d="M260.5,279.8c-0.9-0.1-1.9-0.2-3.5-0.5c3.8-6.3,8.7-10.8,14.1-14.8c0.3-0.2,1.5,0.8,2.2,1.3
		c0,0.3,0,0.6,0,0.9c-1,1.4-2,2.7-3,4.1l0,0c-0.3,0.3-0.7,0.7-1,1l0,0c-0.3,0.3-0.7,0.7-1,1l0,0c-0.3,0.3-0.7,0.7-1,1l0,0
		c-0.3,0.3-0.7,0.7-1,1l0,0C264.4,276.5,262.5,278.1,260.5,279.8z"/>
	<path class="st28" d="M274.8,267.8c2.7,0,3.8,1.5,3.5,4.1c-0.4,0-0.9,0-1.3,0c-0.4-0.5-0.9-1.1-1.3-1.6c-1.8,2.5-3.6,5-5.5,7.5l0,0
		c-0.3,0.3-0.7,0.7-1,1l0,0c-0.3,0.4-0.6,0.7-1,1.1l0,0c-0.3,0.3-0.7,0.7-1,1l0,0c-0.3,0.3-0.7,0.7-1,1l0,0c-0.3,0.3-0.7,0.7-1,1
		l0,0c-0.5,0.4-0.9,0.7-1.4,1.1c-1.2-1-2.4-2.1-3.6-3.1c3.8-0.2,5.8-2.2,6-6l0,0c0.3-0.3,0.7-0.7,1-1l0,0c0.3-0.3,0.7-0.7,1-1l0,0
		c0.3-0.3,0.7-0.7,1-1l0,0c0.3-0.3,0.7-0.7,1-1l0,0C271.8,269.8,273.3,268.8,274.8,267.8z"/>
	<path class="st28" d="M271.3,287.8c-0.6,0.6-1.1,1.3-1.7,1.9c-0.8-1.1-1.5-2.3-2.3-3.4c0-0.5,0-1,0-1.4l0,0c0.3-0.3,0.7-0.7,1-1
		l0,0c0.3-0.3,0.7-0.7,1-1l0,0c1.5-1,3.1-1.8,4.3-3c2.4-2.2,4.5-4.7,6.8-7c0.6,0.4,1.3,0.7,1.9,1.1c-3.8,3.9-7.5,7.8-11.2,11.8
		C270.8,286.1,271.2,287.1,271.3,287.8z"/>
	<path class="st14" d="M271.3,287.8c-0.1-0.7-0.5-1.7-0.2-2.1c3.7-4,7.5-7.9,11.2-11.8c-0.1,1.2,0.2,2.9-0.4,3.6
		C278.5,281.1,274.9,284.4,271.3,287.8z"/>
	<path class="st19" d="M280.4,272.8c-2.3,2.4-4.4,4.8-6.8,7c-1.3,1.2-2.9,2-4.3,3c0-1.1,0-2.2,0-3.3c0-0.3,0-0.5-0.1-0.8l0,0
		c0.3-0.3,0.7-0.7,1-1l0,0c0.3,0,0.5,0,0.7,0.1c0.4-0.3,0.9-0.7,1.3-1l0,0c0.3-0.3,0.7-0.7,1-1l0,0c0.3-0.3,0.7-0.7,1-1l0,0
		c0.3-0.3,0.7-0.7,1-1h0c0.3-0.4,0.7-0.9,1-1.3c0.1-0.3,0.4-0.5,0.6-0.6c0.4,0,0.9,0,1.3,0C279,272.2,279.7,272.5,280.4,272.8z"/>
	<path class="st9" d="M266.4,274.8c-0.3,3.8-2.3,5.7-6,6c0.1-0.3,0.1-0.7,0.2-1C262.5,278.1,264.4,276.5,266.4,274.8z"/>
	<path class="st28" d="M269.3,279.5c0,1.1,0,2.2,0,3.3l0,0c-0.3,0.3-0.7,0.7-1,1l0,0c-0.3,0.3-0.7,0.7-1,1l0,0c-0.4,0-0.8,0-1.1,0
		c-0.3-0.3-0.6-0.6-0.9-0.9c0-0.4,0-0.7,0-1.1l0,0c0.3-0.3,0.7-0.7,1-1l0,0c0.3-0.3,0.7-0.7,1-1l0,0c0.3-0.3,0.7-0.7,1-1l0,0
		C268.7,279.7,269,279.6,269.3,279.5z"/>
	<path class="st9" d="M274.8,267.8c-1.5,1-3,2.1-4.4,3.1c1-1.4,2-2.7,3-4.1c0.3-0.1,0.7-0.2,1-0.3
		C274.5,266.9,274.6,267.3,274.8,267.8z"/>
	<path class="st28" d="M274.4,266.5c-0.3,0.1-0.7,0.2-1,0.3c0-0.3,0-0.6,0-0.9C273.7,266,274,266.3,274.4,266.5z"/>
	<path class="st9" d="M265.3,282.8c0,0.4,0,0.7,0,1.1c-0.5,0-0.9,0-1.4,0C264.4,283.6,264.9,283.2,265.3,282.8z"/>
	<path class="st19" d="M266.2,284.8c0.4,0,0.8,0,1.1,0c0,0.5,0,1,0,1.4C267,285.8,266.6,285.3,266.2,284.8z"/>
	<path class="st23" d="M261.5,150.8c0.1,0.8,0.3,1.6,0.5,2.7c-3.3-0.3-6.8-0.4-7.3-4.3c-0.4-3.7,2.1-5.9,5.7-6.9
		C260.8,145.2,261.2,148,261.5,150.8z"/>
	<path class="st27" d="M200.7,155c-0.7-1.1-1.4-2.1-2.2-3.2C199.2,152.8,199.9,153.9,200.7,155z"/>
	<path class="st18" d="M190.4,161.9c-0.1,4-3.2,2.6-4.2,1.6c-1.3-1.4-2.5-4.2-2-5.9c0.6-1.9,3.1-3.1,4.9-4.6
		C189.6,156,190,158.9,190.4,161.9z"/>
	<path class="st16" d="M268.4,648.8c-1.7-5-0.6-9.6,1.7-14.3c1.6-3.2,3.4-3.1,6-2c2.9,1.3,7,1.7,6,6.4c-0.5,2.7-1.5,5.6-3.1,7.8
		c-0.8,1.2-3.3,1.4-5,1.7C272.1,648.8,270.2,648.7,268.4,648.8L268.4,648.8z"/>
	<path class="st23" d="M278.4,798.8c-1-0.3-2-0.7-3-1c2.4-5,4.9-10,7.3-15c1.1,0,2.3,0,3.5,0c1.1,0.6,2.2,1.2,3.3,1.8
		c-1.9,3.8-3.6,7.7-5.6,11.4c-1.5,2.8-3.4,2.4-5.4-0.7C278.4,796.8,278.4,797.8,278.4,798.8z"/>
	<path class="st18" d="M286.1,782.8c-1.2,0-2.3,0-3.5,0c1.1-2,2.2-3.9,3.5-6.1c2.9,1.2,7.6,0.4,5.3,6.1c-0.7,0-1.4,0-2,0
		C288.2,782.8,287.1,782.8,286.1,782.8z"/>
	<path class="st23" d="M207,655.5c-1.9-1.2-3.9-2.2-5.7-3.6c-0.3-0.2,0.8-2.1,1.3-3.2c2,1.4,4.1,2.8,6.1,4.1
		C208.1,653.8,207.6,654.7,207,655.5z"/>
	<path class="st17" d="M300.3,726.8c0.7,0.4,1.4,0.7,2.1,1.1c-0.7,0-1.4-0.1-2.1-0.1C300.3,727.5,300.3,727.1,300.3,726.8z"/>
	<path class="st10" d="M286.1,782.8c1.1,0,2.2,0,3.2,0c0,0.6,0,1.2,0.1,1.7C288.3,784,287.2,783.4,286.1,782.8z"/>
	<path class="st14" d="M317.6,688.8c-3.1-1.6-6.3-3-9.2-4.8c-0.6-0.4-0.3-3,0.4-4.1c3-5.1,2-8.6-3.5-11.1c-1.1-0.5-2.2-1.5-2.9-2.5
		c-0.2-0.3,1.3-2.4,1.6-2.3c1.4,0.4,2.7,1.1,3.9,2c1.2,0.9,2,2.2,3.1,3.2c3.8,3.1,6.2,6.2,1.1,10.4c-0.5,0.4,0.3,3.2,1.3,4.1
		c1.4,1.4,3.4,2.1,5.1,3.2C318.3,687.5,318,688.2,317.6,688.8z"/>
	<path class="st20" d="M268.5,586.8c-0.9-0.1-1.9-0.2-3.5-0.5c3.8-6.3,8.7-10.8,14.1-14.8c0.3-0.2,1.5,0.8,2.2,1.3
		c0,0.3,0,0.6,0,0.9c-1,1.3-2,2.7-3,4.1l0,0c-0.3,0.3-0.7,0.7-1,1l0,0c-0.3,0.3-0.7,0.7-1,1l0,0c-0.3,0.3-0.7,0.7-1,1l0,0
		c-0.3,0.3-0.7,0.7-1,1l0,0c-0.3,0.3-0.7,0.7-1,1h0C271.8,584.1,270.1,585.4,268.5,586.8z"/>
	<path class="st28" d="M282.8,574.7c2.7,0,3.9,1.5,3.5,4.1c-0.5,0-0.9,0-1.3,0c-0.4-0.5-0.9-1.1-1.3-1.6c-1.5,2.2-2.9,4.3-4.4,6.5
		c-0.3,0.3-0.7,0.7-1,1v0c-0.3,0.3-0.7,0.7-1,1c0,0,0,0,0,0c-0.3,0.4-0.6,0.7-1,1.1l0,0c-0.3,0.3-0.7,0.7-1,1l0,0
		c-0.3,0.3-0.7,0.7-1,1l0,0c-0.3,0.3-0.7,0.7-1,1l0,0c-0.5,0.4-0.9,0.7-1.3,1.1c-0.9-0.9-1.9-1.8-2.8-2.7c1.4-1.8,2.8-3.6,4.1-5.3h0
		c0.3-0.3,0.7-0.7,1-1l0,0c0.3-0.3,0.7-0.7,1-1l0,0c0.3-0.3,0.7-0.7,1-1l0,0c0.3-0.3,0.7-0.7,1-1l0,0c0.3-0.3,0.7-0.7,1-1l0,0
		C279.8,576.8,281.3,575.8,282.8,574.7z"/>
	<path class="st28" d="M277.1,594.9c-0.6-0.6-1.2-1.1-1.8-1.7c0-0.5,0-1,0-1.4l0,0c0.3-0.3,0.7-0.7,1-1l0,0c0.3-0.3,0.7-0.7,1-1l0,0
		c1.5-1,3-1.8,4.3-3c2.4-2.2,4.5-4.7,6.8-7c0.6,0.4,1.3,0.8,1.9,1.1C285.9,585.6,281.5,590.2,277.1,594.9z"/>
	<path class="st14" d="M277.1,594.9c4.4-4.7,8.8-9.3,13.2-14c0.1,1,0.7,2.3,0.2,2.8c-3.7,4-7.5,7.8-11.4,11.5
		C278.9,595.5,277.8,595,277.1,594.9z"/>
	<path class="st19" d="M288.4,579.8c-2.3,2.4-4.4,4.8-6.8,7c-1.3,1.2-2.9,2-4.3,3c0-1.1,0-2.2,0-3.3c0-0.3,0-0.5-0.1-0.8l0,0
		c0.3-0.3,0.7-0.7,1-1v0c0.2,0,0.5,0,0.7,0c0.4-0.3,0.9-0.7,1.3-1l0,0c0.3-0.3,0.7-0.7,1-1l0,0c1-1.1,2-2.2,3-3.3
		c0.1-0.3,0.4-0.5,0.6-0.6c0.5,0,0.9,0,1.3,0C287,579.2,287.7,579.5,288.4,579.8z"/>
	<path class="st9" d="M273.4,582.8c-1.4,1.8-2.8,3.6-4.1,5.3c-0.2-0.5-0.5-0.9-0.7-1.4C270.1,585.4,271.8,584.1,273.4,582.8z"/>
	<path class="st28" d="M277.3,586.5c0,1.1,0,2.2,0,3.3l0,0c-0.3,0.3-0.7,0.7-1,1l0,0c-0.3,0.3-0.7,0.7-1,1l0,0c-0.4,0-0.8,0-1.1,0
		c-0.3-0.3-0.6-0.6-0.9-0.9c0-0.4,0-0.7,0-1.1l0,0c0.3-0.3,0.7-0.7,1-1l0,0c0.3-0.3,0.7-0.7,1-1l0,0c0.3-0.3,0.7-0.7,1-1l0,0
		C276.7,586.7,277,586.6,277.3,586.5z"/>
	<path class="st9" d="M282.8,574.7c-1.5,1-3,2.1-4.4,3.1c1-1.3,2-2.7,3-4c0.3-0.1,0.7-0.2,1-0.3
		C282.5,573.9,282.6,574.3,282.8,574.7z"/>
	<path class="st9" d="M273.3,589.8c0,0.4,0,0.7,0,1.1c-0.4,0-0.9,0-1.3,0C272.5,590.5,272.9,590.2,273.3,589.8z"/>
	<path class="st19" d="M274.2,591.8c0.4,0,0.8,0,1.1,0c0,0.5,0,1,0,1.4C275,592.7,274.6,592.3,274.2,591.8z"/>
	<path class="st28" d="M282.4,573.4c-0.4,0.1-0.7,0.2-1,0.3c0-0.3,0-0.6,0-0.9C281.7,573,282,573.2,282.4,573.4z"/>
	<path class="st23" d="M247.3,401.8c0.9,0.3,1.7,0.7,2.6,1C249,402.5,248.1,402.1,247.3,401.8z"/>
	<path class="st23" d="M259.9,389.8c-0.7,0-1.4,0-2,0C258.5,389.8,259.2,389.8,259.9,389.8z"/>
	<path class="st23" d="M256.9,389.8c-0.5,0.3-1,0.7-1.5,1C255.8,390.5,256.4,390.1,256.9,389.8z"/>
	<path class="st9" d="M267.4,273.9c-0.3,0.3-0.7,0.7-1,1C266.7,274.5,267,274.2,267.4,273.9z"/>
	<path class="st9" d="M270.4,270.9c-0.3,0.3-0.7,0.7-1,1C269.7,271.5,270,271.2,270.4,270.9z"/>
	<path class="st9" d="M268.4,272.8c-0.3,0.3-0.7,0.7-1,1C267.7,273.5,268,273.2,268.4,272.8z"/>
	<path class="st9" d="M269.4,271.8c-0.3,0.3-0.7,0.7-1,1C268.7,272.5,269,272.2,269.4,271.8z"/>
	<path class="st9" d="M277,271.9c-0.3,0.1-0.5,0.3-0.6,0.6c-0.3,0.4-0.7,0.9-1,1.3h0c-0.3,0.3-0.7,0.7-1,1l0,0c-0.3,0.3-0.7,0.7-1,1
		l0,0c-0.3,0.3-0.7,0.7-1,1l0,0c-0.4,0.3-0.9,0.7-1.3,1c-0.3,0-0.5,0-0.7-0.1c1.8-2.5,3.6-5,5.5-7.5
		C276.1,270.8,276.6,271.4,277,271.9z"/>
	<path class="st9" d="M270.3,277.8c-0.3,0.3-0.7,0.7-1,1C269.6,278.5,270,278.1,270.3,277.8z"/>
	<path class="st9" d="M269.3,279.5c-0.3,0.1-0.7,0.2-1,0.3c0.3-0.4,0.6-0.7,1-1.1C269.3,279,269.3,279.3,269.3,279.5z"/>
	<path class="st9" d="M268.4,279.8c-0.3,0.3-0.7,0.7-1,1C267.7,280.5,268,280.2,268.4,279.8z"/>
	<path class="st9" d="M267.3,280.8c-0.3,0.3-0.7,0.7-1,1C266.7,281.5,267,281.2,267.3,280.8z"/>
	<path class="st9" d="M266.3,281.8c-0.3,0.3-0.7,0.7-1,1C265.7,282.5,266,282.2,266.3,281.8z"/>
	<path class="st19" d="M268.3,283.8c0.3-0.3,0.7-0.7,1-1C269,283.2,268.7,283.5,268.3,283.8z"/>
	<path class="st19" d="M267.3,284.8c0.3-0.3,0.7-0.7,1-1C268,284.2,267.7,284.5,267.3,284.8z"/>
	<path class="st28" d="M275.3,273.8c0.3-0.4,0.7-0.9,1-1.3C276,272.9,275.7,273.4,275.3,273.8z"/>
	<path class="st28" d="M274.3,274.8c0.3-0.3,0.7-0.7,1-1C275,274.1,274.6,274.5,274.3,274.8z"/>
	<path class="st28" d="M273.3,275.8c0.3-0.3,0.7-0.7,1-1C274,275.1,273.6,275.5,273.3,275.8z"/>
	<path class="st28" d="M272.3,276.8c0.3-0.3,0.7-0.7,1-1C273,276.1,272.6,276.5,272.3,276.8z"/>
	<path class="st28" d="M271,277.8c0.4-0.3,0.9-0.7,1.3-1C271.9,277.2,271.5,277.5,271,277.8z"/>
	<path class="st9" d="M276.4,579.8c-0.3,0.3-0.7,0.7-1,1C275.7,580.5,276,580.1,276.4,579.8z"/>
	<path class="st9" d="M275.4,580.8c-0.3,0.3-0.7,0.7-1,1C274.7,581.5,275,581.1,275.4,580.8z"/>
	<path class="st9" d="M278.4,577.8c-0.3,0.3-0.7,0.7-1,1C277.7,578.5,278,578.1,278.4,577.8z"/>
	<path class="st9" d="M274.4,581.8c-0.3,0.3-0.7,0.7-1,1C273.7,582.5,274,582.1,274.4,581.8z"/>
	<path class="st9" d="M277.4,578.8c-0.3,0.3-0.7,0.7-1,1C276.7,579.5,277,579.1,277.4,578.8z"/>
	<path class="st9" d="M285,578.9c-0.3,0.1-0.5,0.3-0.6,0.6c-1,1.1-2,2.2-3,3.3l0,0c-0.3,0.3-0.7,0.7-1,1l0,0c-0.3,0-0.6,0-1,0.1
		l-0.1-0.1c1.5-2.2,2.9-4.3,4.4-6.5C284.1,577.8,284.5,578.3,285,578.9z"/>
	<path class="st9" d="M279,584.8c-0.2,0-0.5,0-0.7,0c0.3-0.3,0.7-0.7,1-1l0.1,0.1C279.3,584.2,279.1,584.5,279,584.8z"/>
	<path class="st9" d="M275.3,587.8c-0.3,0.3-0.7,0.7-1,1C274.7,588.5,275,588.1,275.3,587.8z"/>
	<path class="st9" d="M278.3,584.7c-0.3,0.3-0.7,0.7-1,1C277.6,585.4,278,585.1,278.3,584.7z"/>
	<path class="st9" d="M277.3,586.5c-0.3,0.1-0.7,0.2-1,0.3c0.3-0.4,0.6-0.7,1-1.1C277.3,586,277.3,586.2,277.3,586.5z"/>
	<path class="st9" d="M276.3,586.8c-0.3,0.3-0.7,0.7-1,1C275.7,587.5,276,587.1,276.3,586.8z"/>
	<path class="st9" d="M274.3,588.8c-0.3,0.3-0.7,0.7-1,1C273.7,589.5,274,589.1,274.3,588.8z"/>
	<path class="st19" d="M276.3,590.8c0.3-0.3,0.7-0.7,1-1C277,590.1,276.7,590.5,276.3,590.8z"/>
	<path class="st19" d="M275.3,591.8c0.3-0.3,0.7-0.7,1-1C276,591.1,275.7,591.5,275.3,591.8z"/>
	<path class="st28" d="M281.3,582.8c1-1.1,2-2.2,3-3.3C283.3,580.6,282.3,581.7,281.3,582.8z"/>
	<path class="st28" d="M280.3,583.8c0.3-0.3,0.7-0.7,1-1C281,583.1,280.6,583.5,280.3,583.8z"/>
	<path class="st28" d="M279,584.8c0.1-0.3,0.3-0.7,0.4-1c0.3,0,0.6-0.1,1-0.1C279.9,584.1,279.5,584.5,279,584.8z"/>
	<path class="st7" d="M441.5,199.4"/>
</g>
<path class="st29" d="M214.8,157.2c0.4,1.7,1.5,3.6,1,5c-3.9,10.3-15.5,13.9-25.1,11.5c-0.8-0.2-2.5-0.7-3.5-2.3
	c-1.1-1.7-0.7-3.8-0.5-4.5c1.1,0.2,2.1,0.3,2.9,0.4c1.5,0.1,2.7,0.1,3,0.1c1.1-0.1,2-0.2,2.7-0.3c3.4-0.5,5.2-0.7,5.7-0.8
	c2.6-0.5,5.1-1,7.5-2.4C210,163.1,212.7,161.2,214.8,157.2z"/>
<path class="st29" d="M284.5,152.3c1.4,5.5,0.7,7.9-5,9.2c-5.5,1.3-11.4,1.4-17.1,1.1c-5.2-0.3-8.7-3.6-8.9-9.4
	c0.4,0.2,0.9,0.4,1.3,0.6c0.9,0.4,1.7,0.9,2.5,1.4c0.8,0.3,1.7,0.6,2.9,0.8c1.2,0.2,2.3,0.2,3.1,0.1c2.7,0,5.3-0.1,8-0.1
	c2.5-0.4,5.3-1,8.3-2C281.4,153.5,283,152.9,284.5,152.3z"/>
</svg>
