<?xml version="1.0" encoding="utf-8"?>
<!-- Generator: Adobe Illustrator 23.0.3, SVG Export Plug-In . SVG Version: 6.00 Build 0)  -->
<svg version="1.1" id="Ebene_1" xmlns="http://www.w3.org/2000/svg" xmlns:xlink="http://www.w3.org/1999/xlink" x="0px" y="0px"
	 viewBox="0 0 465.3 702.3" style="enable-background:new 0 0 465.3 702.3;" xml:space="preserve">
<style type="text/css">
	.st0{fill:#2D2A3D;}
	.st1{fill:#B54B49;}
	.st2{fill:#A66365;}
	.st3{fill:#373244;}
	.st4{fill:#F4A065;}
	.st5{fill:#483E4A;}
	.st6{fill:#333245;}
	.st7{fill:#F7B382;}
	.st8{fill:#444152;}
	.st9{fill:#545261;}
	.st10{fill:#AD4443;}
	.st11{fill:#F9C39E;}
	.st12{fill:#C6B5C1;}
	.st13{fill:#FBE0E0;}
	.st14{fill:#FAC6A1;}
	.st15{fill:#FBF8F9;}
	.st16{fill:#F4B7B9;}
	.st17{fill:#B89EAC;}
	.st18{fill:#ECE6E9;}
	.st19{fill:#BCA4B1;}
	.st20{fill:#BF99A5;}
	.st21{fill:#AD92A2;}
	.st22{fill:#C1AAB7;}
	.st23{fill:#EDDDDD;}
	.st24{fill:#F4F0F2;}
	.st25{fill:#B994A1;}
	.st26{fill:#FFFFFF;}
	.st27{fill:#8997B6;}
	.st28{fill:#927973;}
	.st29{fill:#8B6980;}
	.st30{fill:#C6967F;}
	.st31{fill:#F9C49E;}
	.st32{fill:#89726F;}
	.st33{fill:#3C3A4C;}
	.st34{fill:#E88138;}
</style>
<g>
	<path class="st0" d="M138.4,30.2c1.8,3,3.6,6,5.4,8.9c-2.4,0.8-4.9,1.6-6.8,2.3c-2.5-1.8-4.9-3.5-8.4-6c0.3,3.2,0.1,5,0.8,6.3
		c1,1.9,2.3,4.2,4,4.9c1.3,0.6,4.4-0.5,5.2-1.8c1.6-2.7,3.2-3,5.6-1.5c-1,1-1.9,1.9-2.9,2.9c0.2,0.3,0.3,0.6,0.5,0.9
		c14.6-2.5,27.9,0.5,40.6,8.1c20.5,12.2,33.5,30.4,40.6,52.7c2.6,8,4,16.6,4.2,24.9c0.2,9.4-1.1,18.9-2.6,28.2
		c-1.8,11.3-4.3,22.4-6.9,33.6c-0.9,4-2.9,7.7-4.4,11.5c-1.2,0.7-2.4,1.4-3.6,2.1c-0.1-1.1-0.6-2.3-0.4-3.3c1-4.1,2.2-8.1,3.1-11.2
		c-2.4-1.6-3.9-2.6-5.4-3.7c-1-9.1-2-18.3-3-27.4c-0.4,0.3-0.8,0.6-1.3,0.9c-1.6-1.8-3.9-3.3-4.8-5.4c-2.1-4.9-3.5-10.1-5.5-15
		c-0.5-1.3-1.8-2.2-2.7-3.3c-1.2-2.5-2.5-5-3.2-6.5c-2.7,0.6-4.5,1.2-6.3,1.4c-1.4,0.2-3-0.3-4.2,0.2c-3.9,1.6-5.9,0.3-6.8-3.6
		c0.4-2.5,0.1-4.5-3.2-4.3c-0.7,1.4-1.3,2.8-2,4.2c-1.6-1.6-3.1-3.1-5.4-5.3c0.1,0-1.3,0.3-2.6,0.6c-0.4-0.3-0.7-0.7-1.1-1
		c5.4-1.9,6.3-5.8,5.7-10.3c-0.1-1-0.8-2-1.2-2.9c-1.1,0.5-2.1,1.1-3.2,1.6c-1.8,1-3.6,2.2-5.5,3.1c-0.8,0.4-2.2,0.2-2.7,0.8
		c-7,9-16.6,8.7-26.2,8.1c-2.2,1.3-4.5,2.2-6.8,3.1c-1.2,0.4-2.5,0.8-3.8,1.2c-3.3,2.2-4.1-0.2-4.6-2.6c-0.7-3.8-1.2-7.7-1.8-11.6
		c-0.3,0-0.6,0-0.9,0c-1.4,4.7-2.9,9.3-4.3,14c-5.8,2.1-7.1,7-8.2,12.3c-1.6,7.8-3.6,15.5-5.6,23.9c-3.4-4.2,1.4-10.4-4.4-13.3
		c-1.2,2.8-2.1,5.1-2.9,7.3c-0.7,1.8-1.3,3.5-2,5.3c-3.8-4.2-12.9-6.4-18.7-4c-5.7,2.4-5.6,7.6-5.4,12.7c0,0.7-0.1,1.3-0.1,2
		c-4.4-4.8-5.8-12.2-4-16.6c2.8-6.8,2.9-13.3,3.2-20.1c0.1-1.8-0.2-3.8,0.3-5.5c4-13.8,8-27.7,12.1-41.5c0.5-1.6,1.3-3.1,2.3-4.4
		c5.6-7,11.3-14,17-21.2c-2.7-1.9-4.8-3.8-7.5-0.7c-0.3,0.3-1.6-0.2-2.4-0.3c3.4-2.5,6.9-4.9,10.6-7.5c-1.6,0-3,0-4.4,0
		c0-1.1-0.1-2.2-0.1-3.2c4.3-1.8,9.5-2.9,11.1-8.1c1.2-3.7,3.3-5.5,6.9-5.9c0.1,1.1,0.2,2.3,0.2,3.3c2.4-0.8,4.9-1.4,7-2.6
		c1.2-0.6,1.8-2.2,2.7-3.4c1.1-4.8,5.6-4.2,8.7-5c2.7-0.7,4.2-1.6,4.4-4.3c1.3-0.7,2.5-1.5,3-1.8c-0.2-2.7-1.2-5.7-0.4-6.4
		c1.5-1.3,4.2-1.3,6.4-1.8c0.8-0.2,1.7,0,2.5,0c1.2,2.3,2.5,4.5,3.7,6.8c0.3,0.4,0.6,0.8,0.8,1.2c-0.1,0.1-0.3,0.2-0.4,0.3
		c0.2,0.1,0.4,0.3,0.6,0.4C137.4,28.7,137.9,29.5,138.4,30.2z"/>
	<path class="st1" d="M157.4,429.2c-1.6,12.3-3.2,24.7-4.8,37c0,0.9-0.1,1.9-0.1,2.8c-2.8,12.7-2.7,25.3,2.2,37.7
		c4.9-1.1,9.4-2,13.8-3c17.5-2,34.9-3.1,52.1,2.5c4.6,1.7,9.1,3.3,13.7,5c9.5,4.3,14,12.6,17.3,21.8c1,2.8,2.6,5.4,3.9,8.1
		c0.4,3,0.7,6.1,1.1,9.1c0,1.3,0.1,2.6,0.1,3.9c0.1,2.7,0.2,5.3,0.2,8c-0.2,2.1-0.4,4.2-0.6,6.3c0.6,0.2,1.2,0.4,1.8,0.6
		c1.4-3.2,2.9-6.4,4.3-9.6c0.3-3.5,0.5-6.9,0.8-10.4c1.2-17.5-3.5-32.9-16.6-45.1c-1.2-1.2-3.3-1.4-5-2.1c0-0.9-0.1-1.9-0.1-2.8
		c2.3,0.6,5.3,0.4,6.9,1.8c14.1,11.7,18.3,27.9,19.7,45.2c0.9,10.8-1.9,20.1-10,28c-7.3,7.2-13.6,15.4-20.5,23
		c-11.6,12.9-26,22.1-40.8,31c-19.2,11.5-38.5,23-55.2,38.2c-1.4,1.3-2.1,3.2-3.1,4.8c-1.8,3-3.8,2.4-6.2,0.7
		c-6.9-5.1-13.8-10.3-21-15.1c-7.1-4.8-14.6-9-21.9-13.5c-1.4-0.7-2.8-1.5-4.3-2.1c-3.2-1.2-4.6-4.9-2.9-7.8c1-1.7,2.1-3.2,3.5-5.4
		c-14.5,1.4-27.5-0.9-39.4-8c-19.6-11.6-31.6-28.5-34.8-51.3c-0.3-1.7-2-3.2-2.7-4.9c-1.3-3.3-2.5-6.6-3.3-10
		c-6.6-25.8-6.3-51.9-4.7-78.3c1.8-30,8.8-59,14.7-88.3c3.3-16.5,6.3-33.1,14.2-48C40.5,319,52,299.4,67.1,282.5
		c5.8-6.5,13-11.8,20-17.1c2.5-1.9,6.1-2.2,9.2-3.2c2.2-0.1,4.3,0,6.5-0.4c13.8-2.3,26.3,0.5,37.3,9.3
		c10.1,10.4,15.7,23.3,20.1,36.8c4.4,13.5,8.8,27,13.2,40.5c0.8,2.4,0.6,4.5-2.3,3.8c-5.5-1.3-9.5,1.8-13.8,4
		c-1.3,0.6-2.6,1.2-3.9,1.9c-2.1,0.4-4.3,0.5-6.2,1.4c-15,6.2-29.9,12.5-44.8,18.8c-1.3,0.6-2.6,1.3-3.9,1.9
		c-4.3,0.7-8.6,1.5-12.8,2.2l0,0c2.3-5.7-1-10.3-3.3-15c-1-2.1-2.2-4.1-2.9-6.3c-0.5-1.5-0.4-3.1-0.6-4.7c0.6-0.2,1.3-0.5,1.9-0.7
		c3.8,7.3,7.7,14.5,11.7,22.1c2.6-1.1,5-2.2,7.4-3.3c2.7-1.5,5.4-2.9,8.1-4.4c0.7,0,1.4,0.1,1.9-0.2c13.9-5.7,27.9-11.3,41.8-17.1
		c1.7-0.7,3.1-2.5,4.9-2.9c3.5-0.8,7.2-1.1,10.9-1.5c-2.1-6.3-4.1-12.1-6-17.9c-1.3-5.1-2.6-10.2-4-15.3c-0.1-0.6-0.3-1.2-0.4-1.8
		c0.1-0.1,0.2-0.3,0.1-0.4c-0.1-0.3-0.3-0.5-0.4-0.8c-0.8-2.5-1.4-5.1-2.3-7.6c-4.2-11.2-8.3-22.5-17.7-30.6c-1.7-1.3-3.3-2.6-5-3.8
		c-4.1-1.2-8.3-2.4-12.4-3.7c-0.9,0-1.8,0-2.7,0c-1-0.3-2-1-2.9-1c-3.8,0.1-7.7,0.4-11.5,0.8c-3.6,0.4-7.2,1-10.8,1.5
		c-0.4,0-0.7,0.1-0.9,0.3c-10.4,6.2-18.8,14.4-25.9,24.1c-0.4,0.7-0.8,1.3-1.2,2c-3.7,5.3-7.3,10.6-11,15.9l0.1,0
		c-0.3,0.3-0.5,0.7-0.8,1c-0.4,0.7-0.8,1.4-1.2,2.1c-0.7,1-1.5,2-2.2,3c-0.6,1-1.1,2.1-1.7,3.1c-1.1,1.6-2.2,3.2-3.3,4.8
		c-0.7,1.3-1.4,2.7-2.1,4c-0.7,0.9-1.6,1.7-2.2,2.7c-10.6,17.9-17.2,37-18.8,57.9c-1.4,5.5-2.7,10.9-4.1,16.4
		c-3,15.8-6.1,31.5-9.1,47.3c-0.2,7.6-0.4,15.3-0.6,22.9c-0.4,3.3-0.7,6.6-1.1,9.9c-0.3,6.7-0.7,13.4-1,20.1
		c0.3,6,0.6,12.1,0.9,18.1c0.1,0.3,0.2,0.5,0.3,0.8c0.2,3.4,0.3,6.8,0.5,10.2c1.8,8.6,3.7,17.2,5.6,26.4c2.7-1.7,5.4-3.5,8.2-5.2
		c0.6-0.5,1.2-1,1.8-1.5c4.3-2.6,8.7-5.2,13-7.7c1.3-0.6,2.6-1.1,3.9-1.7c11.2-6.5,22.4-13.1,35.6-14.9c5.8-0.8,10.5-3.5,14.7-7.6
		c6.8-6.5,14.4-9.3,23.5-4.3c1.5,0.8,4.1,0.6,5.9,0c7.9-2.4,15.6-5.4,23.6-7.7c6.9-2,7.5-3.4,6.3-10.9c-1.1-6.7-1.4-13.5-1.2-20.3
		c0.3-8.4,1.4-16.9,2.6-25.3c1.3-8.8,3.2-17.6,4.9-26.3c0.7,0.3,1.4,0.6,2.1,1C156.9,428.5,157.2,428.9,157.4,429.2L157.4,429.2z
		 M139.6,582.1c1.4-1,2.7-1.9,4.1-2.8c1-0.7,1.9-1.3,2.9-2c4.8-3.2,9.6-6.3,14.4-9.5c0.4,0.5,0.8,0.9,1.2,1.4
		c-1.9,2.2-3.6,4.7-5.8,6.4c-4.9,3.7-10,7-15.1,10.5c-3.2,2.3-6.4,4.7-9.6,7.1c-1,0.9-2,1.8-3.1,2.8c-4.7,3.6-9.4,7.3-14.1,10.9
		c-11.2,9.1-22.3,18.3-30.7,31c2.3,0.1,4.1,0.2,5.8,0.3c3.3,1.7,6.6,3.4,9.9,5c0.6,0.3,1.3,0.7,1.9,1c2.4,1.6,4.8,3.2,7.1,4.8
		c8.8,6.4,17.6,12.9,26.7,19.5c2.6-3.5,4.6-7.2,7.5-10c3.3-3.2,7.2-5.6,10.9-8.3c1.6-1.1,3.3-2.2,4.9-3.2c4.7-3,9.4-6.1,14.1-9.1
		c2.7-1.9,5.3-3.9,8-5.8c2.6-1.7,5.3-3.3,7.9-5l0,0c1.3-0.7,2.7-1.3,4-2c0.9-0.5,1.9-0.9,2.8-1.4c14.7-8.4,28.6-17.8,39.8-30.5
		c1.6-1.9,2.2-4.7,3.3-7.1c3.2-3.1,7.3-5.6,9.4-9.3c7.5-12.9,6-26.3,0.4-39.5c-0.4-1.4-0.9-2.8-1.3-4.2c-2.4-9.3-7.7-16.3-17-19.3
		c-9.1-2.9-18.4-5-27.7-7.4c-0.6-0.1-1.2-0.1-1.7-0.2c-26.7-1.5-52,4.7-76.8,13.7c-7.2,2.6-14.2,5.6-21.4,8.1
		c-1.8,0.6-3.9,0.1-5.9,0.1c-0.1-0.5-0.1-1-0.2-1.5c4.1-1.8,8.2-3.5,12.6-5.4c-5-4.7-11.5-1.1-17.7,3.5c-4.3,3.2-9,7-13.9,7.9
		c-13.6,2.4-25.5,8.3-36.9,15.4c-0.9,0.6-1.8,1.2-2.7,1.8c-4.1,2.3-8.2,4.7-12.4,7.1c-0.6,0.4-1.2,0.8-1.8,1.2
		c-3.1,1.7-6.2,3.4-9.1,5c0.5,2,0.8,3.7,1.3,5.4c2.8,7.9,5.5,15.7,8.5,23.5c0.5,1.3,2.2,2.1,3.3,3.1c2.4,3,4.8,6,7.2,9
		c3,2.9,5.9,5.8,8.9,8.8c2,1.1,3.9,2.2,5.9,3.3c1.9,0.7,3.9,1.3,5.8,1.9c1.1,0.7,2.2,1.3,3.3,2c3.3,1,6.7,1.9,10,2.8
		c0.9,0.2,1.9,0.4,2.8,0.5c0.4,0,0.8,0.1,1.2,0.1c0.6,0,1.3,0,1.9,0c1.7-0.1,3.4-0.2,5.1-0.4c5.6-0.6,11.3,0.3,15.7-4.9
		c3.3-3.9,7.6-7,11.4-10.4c1.3-1.3,2.6-2.5,4-3.7c1-0.7,1.9-1.5,2.9-2.2c1-0.9,2.1-1.9,3.1-2.8c1.6-1.3,3.2-2.7,4.8-4
		c0.7-0.4,1.3-0.9,2-1.3c0.8-0.9,1.5-1.8,2.3-2.7c2.2-1.7,4.4-3.4,6.7-5.1C134.8,584.8,137.2,583.5,139.6,582.1z M256.4,569.6
		c-0.1-0.1-0.2-0.2-0.3-0.3c-0.1,0.1-0.2,0.2-0.3,0.3c0.1,0.1,0.3,0.2,0.4,0.3C256.3,569.8,256.3,569.7,256.4,569.6z"/>
	<path class="st2" d="M89.6,643.1c7.3,4.5,14.7,8.8,21.9,13.5c7.2,4.8,14,10,21,15.1c2.4,1.7,4.4,2.4,6.2-0.7c2.9,0.4,5.9,0.9,8.8,1
		c7.9,0.4,13.6,4.1,17.1,11c3.1,6.1,0.6,12.3-6,13.5c-12.1,2.2-24.3,3.7-36.4,5.4c-8.8,1.2-15.7-2.3-21.7-8.6
		c-7-7.3-14.4-14.3-21.6-21.3c-7-6.9-7-10.3,0-17.4C82.5,650.9,86,647,89.6,643.1z"/>
	<path class="st3" d="M412.3,592.3c1.5-0.1,3.4-0.7,4.4-0.1c7.8,4.8,17.1,4.1,25.4,7.2c2.3,0.9,4.7,2.8,6,4.9
		c4,6.4,7.4,13.3,11.3,19.8c1.6,2.6,3.7,4.9,5.9,7.7c-1.5,4.8-6,6.8-10.6,8.5c-9.6,3.5-19.3,6.9-29.1,10.1
		c-11.7,3.8-23.7,5.6-35.9,4.4c-13.9-1.3-28.1-0.8-41.3-6c-7.4-2.9-14.4-6.8-21.1-11c-1.4-0.9-1.9-5.4-0.9-7.4
		c4.6-9.7,9.8-19.1,14.9-28.6c0.3-0.6,0.7-1.3,1.3-1.4c5.4-1.5,10.8-4.1,16.2-4.1c4.1,0,7-0.8,10.3-3c2.2-1.5,5.7-2.5,8-1.8
		c5,1.5,9.5,0.6,14.1-0.6c5.5-1.4,10.5-0.9,15.4,1.9c0.3,1.1,0.7,2.1,1,3.2c-4.9-1-9.8-3.6-14.9-0.9c-4.5,2.4-9,2.6-13.9,0.6
		c-3.9-1.6-7.3-0.2-9.9,2.9c2.3,2.6,3.9,5.8,6.5,7c2.8,1.4,6.5,0.8,9.8,1.4c2.1,0.4,4.1,1.2,5.8,1.8c2.9-1.4,5.7-2.7,8.4-4
		c0-0.5,0-1-0.1-1.5c-2.8-0.1-5.5-0.5-8.3-0.2c-2.6,0.3-5.2,1.3-7.7,2c6.1-7.4,12.6-7.7,20.5-2c0.4,4.5,3.4,4.7,6.3,3.2
		c6.5-3.5,13-3.2,19.6-0.9c4.2,6.7,7.3-0.7,11-0.8c-3.3-3.6-7.4-4.5-11.9-4.3c-2.2-1-4.5-1.9-6.7-2.9c-4.8-2.3-8.9-2.8-12.1,2.7
		c-1.2,2-2.9,4.7-6.3,3c1.4-2.3,2.8-4.6,4.2-6.8C409.2,595,410.8,593.6,412.3,592.3z M358.3,605.9c0.6-2,1.1-4.1,1.9-6.8
		c-4.6,1.3-8.9,2.6-13.2,3.9c0,0.4,0,0.8,0.1,1.3c3.7,1.3,7.5,2.5,11.2,3.7c0.8,0.7,1.5,1.9,2.4,2c3.5,0.6,7,0.9,12.3,1.6
		c-2-3.5-2.8-6.7-4.9-7.9c-1.5-0.9-4.6,0.9-7,1.5C360.1,605.5,359.2,605.7,358.3,605.9z M444.8,608.8
		c-34.9,11.8-68.7,11.2-102.4-1.8c-3.9,7.7-7.9,15.5-11.8,23.3c-0.9,1.9-2.4,4,0.7,5.4c6,2.8,11.7,6.6,18,8.2
		c9.8,2.4,19.9,3.9,29.9,4.8c14.9,1.3,29.9,1.7,44.5-3.3c10.2-3.5,20.3-7.2,30.4-10.9c1.3-0.5,2.5-1.3,4.1-2.1
		C453.5,624.2,449.1,616.4,444.8,608.8z M376.4,609c-0.5,0.7-0.9,1.4-1.4,2.1c1.2,1,2.3,2.3,3.7,2.9c1.7,0.6,3.6,0.6,5.4,0.7
		c15.4,1.1,30.8,1.1,45.4-3.9c-1.4-0.8-2.9-1.6-4.5-2.5c-4.1-2.2-13.3-0.9-15,2.7c-1.5,3.2-3,2.3-4.9,1.1c-6.8-4.2-8.2-4-12.8,1
		C386.7,611.7,381.5,610.4,376.4,609z"/>
	<path class="st4" d="M98.4,379.9c1.3-0.6,2.6-1.3,3.9-1.9c2.7,4,5.4,8.1,8.1,12.2c12.7,15.3,28.9,25.6,47.1,33
		c15.6,5,31.6,7.9,48.1,5.9c6.8-2.3,13.9-4,20.4-7.1c7.6-3.6,14.7-8.2,21.9-12.7c4.2-2.6,7.8-6.3,12.1-8.7
		c11.6-6.6,23.6-12.7,35.2-19.4c3.9-2.2,7-5.6,11.6-9.3c-5.7-0.9-6.3-2.5-3.3-5.6c1.1-1.1,0.8-3.5,1.3-6c-2.6,0-4.4,0-6.2,0
		c-1.5,0-3-0.2-4.5-0.3c0.5-1.8,0.6-3.8,1.5-5.2c2.3-3.4,5.1-6.4,7.3-9.8c0.6-0.9-0.2-2.7-0.4-4.1c-1.5,0.2-3.5-0.1-4.5,0.7
		c-2.2,1.7-3.6,4.3-5.8,6c-1.6,1.4-3.9,2-5.9,2.9c-0.4-0.4-0.8-0.9-1.2-1.3c0.6-2.7,1.7-5.4,1.6-8c0-2.4-1.3-4.8-2-7.2
		c-1.8,0.9-4.1,1.4-5.3,2.8c-5.6,7.2-10.9,14.6-16.4,21.9c-1.6,2.1-3.2,4.3-5.3,5.8c-13.8,9.6-29,15.6-45.6,18.9
		c-16.4,3.3-30.8-0.1-44.1-9.5c-3.9-2.8-7.1-6.5-10.6-9.8c-1.4-2-2.8-4.1-4.2-6.1c1.3-0.6,2.6-1.2,3.9-1.9c1.4,1.8,2.9,3.6,4.4,5.4
		c11,13.2,25.4,19.7,42.2,18.3c16.4-1.4,32.1-6.7,46.3-15.6c4.2-2.6,9.1-4.3,10.8-9.6c3,0,3-2.1,2.9-4.2c5.1-6.1,10-12.4,15.3-18.2
		c1.4-1.5,4.8-2.7,6.3-2c2.2,1.1,3.8,3.8,4.9,6.2c0.8,1.8,0.4,4.1,0.5,6.3c8.5-6,11.5-7.2,14-4.5c5.9,6.3,0,11.2-2.6,16.7
		c5.9,1.3,6.7,5.4,6.2,10.3c-0.1,1-0.6,2.2-0.1,2.8c3.1,4.4,0.1,7.2-2.6,9.8c-2.8,2.6-5.9,4.9-9,7.1c-5.4,3.8-10.8,7.5-16.3,11.2
		l0,0c-0.7,0.3-1.4,0.5-2.1,0.8c-2.3,1.1-4.7,2.2-7,3.3c-4.4,2.5-9.2,4.4-13,7.6c-12.2,10.4-26,17.9-41.1,23.1
		c-9.3,3.2-18.9,3.8-28.6,2.6c-10.5-1.3-21-2.9-31.4-4.4l0.1,0c-0.3-0.3-0.6-0.7-0.9-1c-0.7-0.3-1.4-0.6-2.1-1c-4-2-8-4-11.9-6
		c-4.9-3-9.8-5.9-14.8-8.9C116.1,403.3,105.2,393.5,98.4,379.9z"/>
	<path class="st5" d="M73.4,66c0.8,0.1,2.1,0.6,2.4,0.3c2.7-3.1,4.9-1.2,7.5,0.7c-5.8,7.2-11.5,14.1-17,21.2c-1,1.3-1.8,2.8-2.3,4.4
		c-4.1,13.8-8.2,27.6-12.1,41.5c-0.5,1.7-0.2,3.6-0.3,5.5c-0.3,6.8-0.4,13.3-3.2,20.1c-1.8,4.4-0.5,11.8,4,16.6
		c0.6,3.4,1.2,6.7,1.8,10.1c0.8,4.6,1.6,9.3,2.4,13.9c-1.1-0.5-3-0.7-3.3-1.4c-4.5-12.9-9.8-25.6-12.8-38.9
		c-4.9-21.6-1.1-42.9,6.4-63.2c3-8,8.7-15.2,14.1-22C64.1,70.9,69.2,68.8,73.4,66z"/>
	<path class="st6" d="M263.9,350.4c0.1,2.1,0.1,4.2-2.9,4.2c-0.9-1.3-2.3-2.5-2.5-3.9c-2-16.6-3.8-33.2-5.5-49.8
		c-0.6-5.8-1.3-11.6-1.4-17.4c-0.1-4.9,2.6-6.9,7.3-6.3c2.1,0.3,4.2,0.3,6.3,0c16.1-2.1,32.2-4.5,48.3-6.6
		c6.4-0.8,12.9-1.1,19.3-1.7c3.8-0.4,5.4,1.8,5.9,5.1c3.4,27,6.6,54,10,81c0.9,7.2,1.9,14.5,3.6,21.6c1.2,4.9-0.4,6.6-4.8,7.6
		c-12.1,2.7-24.3,5.3-36.4,8.5c-12.1,3.2-24.1,7-36.1,10.8c-3.6,1.1-4.5,0.2-3.5-3.2c2.3-1.1,4.7-2.2,7-3.3c0.7-0.3,1.4-0.5,2.1-0.8
		l0,0c1.5-0.2,2.9-0.4,4.3-0.7c10.1-2.7,20.1-5.6,30.3-8.2c9.5-2.4,19-4.6,28.5-6.8c2.6-0.6,4.2-1.4,3.8-4.6
		c-1.5-11.9-2.8-23.7-4.3-35.6c-2.6-20.4-5.4-40.8-7.8-61.2c-0.6-4.9-2.9-6.2-7.1-5.8c-4.6,0.5-9.2,1.1-13.8,1.7
		c-10.5,1.4-21,3-31.6,4.4c-9,1.2-18,2.2-27.5,3.4c0.2,2.6,0.2,5.1,0.5,7.5c0.8,7.6,1.6,15.2,2.6,22.8
		C260.3,325.4,262.1,337.9,263.9,350.4z"/>
	<path class="st7" d="M140.2,271.1c-11-8.8-23.5-11.6-37.3-9.3c-2.1,0.4-4.3,0.3-6.5,0.4c0.5-4,0.9-8,1.4-12
		c1.7,0.6,3.4,1.2,5.1,1.7c6.3,1.8,12.6,3.7,19,5.2c2.4,0.6,6.1,0.9,3.7-3.9c2.1-0.3,4.1-0.9,6.2-1c10.4-0.4,20.5-2.4,29.3-8
		c6.8-4.3,13.3-9.3,19.3-14.6c3.8-3.3,6.6-7.7,9.6-11.2c-6.1-1.6-11.8-2.4-16.7-4.8c-2.4-1.2-4.2-5.5-4.3-8.5
		c-0.1-4,3.8-5.7,7.5-5.8c4.6-0.1,9.2,0.6,13.8,0.8c4.4,0.1,6.7,6,11.8,4.3c0.1,0,0.5,0.8,0.8,1.2l0.1,0.1
		c-5.9,11.2-12.9,21.4-22.4,29.9c-8.5,7.6-17.6,14-28.6,17.5c-1.3,0.4-2.3,2.3-3.5,4.3c-4.7,7.7-3.2,16.7-2.1,21.2
		C144.4,276.1,142.3,273.6,140.2,271.1z"/>
	<path class="st4" d="M125.6,253.2c2.4,4.7-1.2,4.4-3.7,3.9c-6.4-1.5-12.7-3.4-19-5.2c-1.7-0.5-3.4-1.1-5.1-1.7
		c-2.8-2.4-5.3-5-8.3-7c-14.3-9.5-24.3-22.4-31.3-37.8c-0.8-1.6-1.1-3.4-1.7-5.2c-0.8-4.6-1.6-9.3-2.4-13.9
		c-0.6-3.4-1.2-6.7-1.8-10.1c0-0.7,0.2-1.3,0.1-2c-0.2-5.1-0.3-10.3,5.4-12.7c5.8-2.4,14.9-0.2,18.7,4c-0.4,4.1-2.2,2.4-4.3,1.2
		c-7.6-4.5-15.2-0.5-14.6,8.3c0.4,6.4,2.7,12.8,4.4,19.1c0.3,1.2,1.9,2.1,3,3c1.3,1.1,4.1,2.5,3.9,3.2c-0.6,2.8-2.9,3.2-5.5,2.1
		c-0.4-0.2-1.1,0.2-2,0.4c0.8,1.7,1.3,3.1,2,4.3c8.4,14.7,20.7,25.9,33.6,36.4C105.4,250.2,116.1,250,125.6,253.2z"/>
	<path class="st4" d="M234.3,511.1c-4.6-1.7-9.1-3.3-13.7-5c1.8-4.2,5.3-1.1,7.9-1.9c0.7,0.3,1.4,0.6,2.1,0.9
		c0.4,0.2,0.7,0.5,1.1,0.7c0.1-0.1,0.2-0.3,0.3-0.4c-0.4-0.1-0.9-0.2-1.3-0.4c-0.6-0.4-1.3-0.7-1.9-1.1c-2.7-1.6-5.5-3.1-8.1-4.8
		c-1-0.6-1.7-1.6-2.5-2.5c1.1-0.3,2.5-1,3.4-0.7c5.5,2.4,10.9,5,16.1,7.4c1-7.2-7.7-7-11.2-11.1c0.2-0.4,0.5-0.7,0.7-1.1
		c3.2,0.6,6.4,1.2,9.5,1.8c-5.2-3.9-10.4-6.9-17.1-7.2c-10-0.5-20.1-1.9-29.9-3.8c-8.4-1.6-16.6-4.5-24.9-6.9
		c-1.8-0.9-3.7-1.8-5.5-2.8c-2.2-1.1-4.4-2.3-6.6-3.4c0-0.9,0.1-1.9,0.1-2.8c11.4,4,22.6,8.9,34.2,11.6c11.4,2.6,23.4,2.5,35,4.5
		c5.7,1,11.2,3.8,16.5,6.4c2.9,1.5,5.4,4.2,2.4,8.1c-0.2,0.3,0.6,1.4,0.9,2c0,0.9,0.1,1.9,0.1,2.8
		C242.9,509,242.4,509.7,234.3,511.1z"/>
	<path class="st6" d="M97.5,41.2c-3.6,0.4-5.7,2.2-6.9,5.9c-1.6,5.2-6.7,6.3-11.1,8.1c0-1,0-2.1,0-3.2c0.7-2.9,1.3-5.9,1.9-8.8
		c1.3-1.3,2.6-3.4,4.1-3.7c3.8-0.7,4-3.2,4.1-6c1.8-2.7,3.6-5.5,5.4-8.2c4.8-2.4,2.3-6.3,2-9.7c6.5-1.1,12.9-2.3,19.4-3.5
		c5,5.8,10.4,2.5,15.7,0.7c0.3,1.5,0.6,3,0.9,4.5c-0.3,0.6-0.7,1.3-1,1.9c-0.8,0-1.7-0.2-2.5,0c-2.2,0.5-4.9,0.5-6.4,1.8
		c-0.9,0.7,0.1,3.7,0.4,6.4c-0.6,0.3-1.8,1.1-3,1.8c-2.4,0.4-4.8,0.7-7.2,1.1c-0.1-0.5-0.1-0.9-0.2-1.4c2.6-1.2,5.2-2.4,7.9-3.7
		c-3.5-5.5-8.4-4.9-12.9-3.1c-2.1,0.9-3.3,3.9-5.6,6.7c3.5,0,5.1,0,6.7,0c0.2,0.4,0.3,0.8,0.5,1.2c-1.9,1-3.7,2.6-5.6,2.8
		c-5.2,0.3-6.7,3.2-6.4,7.8C97.8,40.8,97.7,41,97.5,41.2z"/>
	<path class="st8" d="M132.3,12.8c-5.3,1.8-10.8,5.1-15.7-0.7c-0.4-0.6-0.6-1.5-1.1-1.8C103.9,4.7,95.7,7,88.2,16.2
		c-1.6,2.3-3.1,4.7-4.6,7c-1,0-2,0-3,0c-0.6-1-1.3-2-1.9-3c0.4-1.7,0.7-3.3,1.1-5c0.6-0.9,1.2-1.9,1.8-2.8c2.9-2.8,5.8-5.6,8.7-8.4
		c4.3-0.9,8.7-1.8,13-2.7c0.2,0,0.3-0.9,0.4-1.4c1,0,1.9,0.1,2.9,0.1c1.3,0.8,2.6,3.6,4,0.1c1,0.1,2.1,0.1,3.1,0.2
		c0.8,0.2,1.6,0.4,2.3,0.6c1.2,0.6,2.4,1.1,3.6,1.7c1.1,0.5,2.2,0.9,3.2,1.4C125.9,7,129.1,9.9,132.3,12.8z"/>
	<path class="st9" d="M89.6,33.4c-0.1,2.8-0.4,5.3-4.1,6c-1.6,0.3-2.7,2.4-4.1,3.7c-1.5-1.9-2.9-3.8-4.9-6.3
		c-2.4,3.8-5.9,7.3-4.3,11.8c0.6,1.7,4.8,2.2,7.3,3.2c0,1,0,2.1,0,3.2c0,1.1,0.1,2.2,0.1,3.2c-4.4,1.9-8.1,0.3-11.2-2.7
		c-3.5-3.4-4.5-8.2-2.7-12.3c2.1-4.8,5.8-8.9,8.8-13.3c0.4,6.5,5.1,4.4,8.8,4.4c0.6,0.9,1.2,1.8,1.8,2.8
		C86.7,35.9,88.2,34.7,89.6,33.4z"/>
	<path class="st8" d="M206.8,190.2c1.5,1,3.1,2.1,5.4,3.7c-0.9,3.1-2.1,7.1-3.1,11.2c-0.2,1,0.2,2.2,0.4,3.2c-1.5,1.3-3,2.6-4.5,3.8
		c-0.3-0.7-0.6-1.5-0.9-2.2c-0.2-1.4-0.4-2.8-0.5-4.2c0.2-0.5,0.4-1,0.6-1.4c0.1-1.3,0.3-2.6,0.5-4
		C205.3,196.9,206.1,193.6,206.8,190.2z"/>
	<path class="st8" d="M144,43.4c-2.4-1.5-3.9-1.2-5.6,1.5c-0.8,1.3-3.9,2.4-5.2,1.8c-1.8-0.8-3.1-3-4-4.9c-0.7-1.3-0.4-3.1-0.8-6.3
		c3.5,2.5,5.9,4.2,8.4,6c2-0.7,4.4-1.5,6.8-2.3C144.3,40.5,147.2,41.8,144,43.4z"/>
	<path class="st3" d="M83.3,34.4c-3.7,0-8.4,2.1-8.8-4.4c0.6-0.9,1.2-1.9,1.8-2.8c0.3-0.9,0.5-1.8,0.8-2.7c-0.1-0.2,0-0.4,0.2-0.4
		c1.1-0.3,2.2-0.6,3.3-0.9c1,0,2,0,3,0c0.8,1.7,1.6,3.4,2.4,5.1C85,30.4,84.2,32.4,83.3,34.4z"/>
	<path class="st9" d="M205,212.1c1.5-1.3,3-2.6,4.5-3.8c1.2-0.7,2.4-1.4,3.6-2.1c-0.9,2.4-1.5,5-2.9,7
		C208.3,215.7,206.1,215.7,205,212.1z"/>
	<path class="st9" d="M103.6,0c-0.1,0.5-0.2,1.3-0.4,1.4c-4.3,1-8.7,1.8-13,2.7C94.7,2.7,99.2,1.4,103.6,0z"/>
	<path class="st9" d="M132.1,19.2c0.3-0.6,0.7-1.3,1-1.9c0.9,2.9,1.8,5.8,2.7,8.7C134.6,23.8,133.4,21.5,132.1,19.2z"/>
	<path class="st10" d="M412.3,592.3c-1.5,1.3-3.1,2.7-4.6,4l-0.3-0.3c-0.3-1.1-0.7-2.1-1-3.2C408.4,592.7,410.4,592.5,412.3,592.3z"
		/>
	<path class="st9" d="M110.5,0.3c-1.5,3.5-2.7,0.6-4-0.1C107.8,0.2,109.2,0.2,110.5,0.3z"/>
	<path class="st9" d="M80.6,23.2c-1.1,0.3-2.2,0.6-3.3,0.9c0.5-1.3,0.9-2.6,1.4-3.9C79.3,21.2,80,22.2,80.6,23.2z"/>
	<path class="st9" d="M203.6,205.7c0.2,1.4,0.4,2.8,0.5,4.2c-0.4-1.4-0.7-2.8-1.1-4.2c0,0-0.1-0.1-0.1-0.1s0.3,0.2,0.3,0.2
		L203.6,205.7z"/>
	<path class="st9" d="M122.7,4.1c-1.1-0.5-2.2-0.9-3.2-1.4C120.6,3.2,121.7,3.6,122.7,4.1z"/>
	<path class="st9" d="M81.6,12.4c-0.6,0.9-1.2,1.9-1.8,2.8C80.4,14.3,81,13.4,81.6,12.4z"/>
	<path class="st9" d="M115.9,1c-0.8-0.2-1.6-0.4-2.3-0.6C114.4,0.6,115.2,0.8,115.9,1z"/>
	<path class="st9" d="M77.1,24.6c-0.3,0.9-0.5,1.8-0.8,2.7C76.6,26.4,76.8,25.5,77.1,24.6z"/>
	<path class="st8" d="M138.4,30.2c-0.5-0.8-1-1.5-1.5-2.3C137.4,28.7,137.9,29.5,138.4,30.2z"/>
	<path class="st8" d="M136.9,27.9c-0.2-0.1-0.4-0.3-0.6-0.5c0.1-0.1,0.3-0.2,0.4-0.3C137,27.4,137,27.6,136.9,27.9z"/>
	<path class="st8" d="M141.6,47.2c-0.2-0.3-0.3-0.6-0.5-0.9C141.2,46.6,141.4,46.9,141.6,47.2z"/>
	<path class="st11" d="M203.6,205.7l-0.4,0.1c0,0-0.3-0.3-0.3-0.2c-0.3-0.4-0.7-1.2-0.8-1.2c-5.1,1.7-7.4-4.2-11.8-4.3
		c-4.6-0.1-9.2-0.9-13.8-0.8c-3.7,0.1-7.6,1.9-7.5,5.8c0.1,3,1.9,7.3,4.3,8.5c4.9,2.4,10.6,3.2,16.7,4.8c-2.9,3.5-5.8,7.9-9.6,11.2
		c-6.1,5.3-12.5,10.4-19.3,14.6c-8.8,5.5-18.9,7.5-29.3,8c-2.1,0.1-4.1,0.6-6.2,1c-9.5-3.2-20.2-3-28.4-9.6
		C84.2,233,72,221.8,63.6,207.1c-0.7-1.3-1.2-2.7-2-4.3c0.9-0.2,1.6-0.6,2-0.4c2.6,1.1,4.9,0.8,5.5-2.1c0.2-0.7-2.6-2.1-3.9-3.2
		c-1.1-0.9-2.7-1.8-3-3c-1.7-6.3-4-12.7-4.4-19.1c-0.6-8.8,7-12.8,14.6-8.3c2.1,1.2,3.8,2.9,4.3-1.2c0.7-1.8,1.3-3.5,2-5.3
		c0.3,2.5,0.8,5,0.8,7.4c0,9.9-0.7,19.9,3,29.4c0.5,1.2,1.6,2.1,2.5,3.2c0.8-1.1,2.2-2.2,2.3-3.4c0.8-6.7,0.6-13.3,2.8-20.1
		c3.3-9.9,4.2-20.7,6.2-31c1-5.3,2.3-10.5,3.4-15.7c1.4-4.7,2.9-9.3,4.3-14c0.3,0,0.6,0,0.9,0c0.6,3.9,1,7.8,1.8,11.6
		c0.5,2.4,1.3,4.8,4.6,2.6c0.4,3.5,3.1,2.8,5.3,2.8c6.3,0.1,12.5-0.1,18.8,0.3c7,0.4,14.1,1.6,21.1,1.6c2.5,0,4.9-2.4,7.4-3.6
		c0.7-1.4,1.3-2.8,2-4.2c3.4-0.1,3.7,1.8,3.3,4.3c-2.6,4.7,1.4,6.2,4.2,6.8c5.3,1.1,10.9,1.2,16.3,1.6c0.9,1.1,2.3,2.1,2.7,3.3
		c1.9,5,3.3,10.1,5.5,15c0.9,2.1,3.1,3.6,4.8,5.4c0.4-0.3,0.8-0.6,1.3-0.9c1,9.1,2,18.3,3,27.4c-0.7,3.4-1.5,6.7-2.2,10.1
		c-0.1,1.3-0.3,2.6-0.5,4C203.9,204.7,203.8,205.2,203.6,205.7z M169.6,194.1c3.2,0.8,6.5,1.6,9.7,2.5c2,0.2,4.1,0.5,6.1,0.7
		c2.4-0.2,5-0.1,7.3-0.7c6.3-1.5,7.8-6.9,3-11.4c-2.1-2-4.8-3.3-7.2-5c-1.9-0.6-3.9-1.1-5.9-1.6c-5.8-1.9-10.9-0.8-15.5,3.2
		C161.8,185.6,162.7,190.1,169.6,194.1z M94.6,173.2c-2.8,2.5-2.3,5.2,0.4,6.9c3.8,2.4,8,4,12,5.9c-1.3,0.1-2.7,0.4-4,0.1
		c-5-1-7.6,2.2-9.1,5.9c-1.7,4.3,0.2,7.8,3.8,10.8c6.5,5.4,13.9,2.8,20.9,3.1c0.5,0,1.1-0.6,1.7-1c5.4-4.2,3.8-12.3-3.3-16.4
		c-1.3-0.8-2.3-1.9-3.4-2.9l0-0.3c2.8,0.1,5.8,0.8,8.5,0.2c5.9-1.4,7.5-6.3,3.5-10.7c-2.1-2.3-5.2-3.8-7.9-5.6
		c-2-0.6-4.1-1.1-6.1-1.7c-5.8-2.1-12.8-0.3-16.5,4.4C94.9,172.2,94.8,172.7,94.6,173.2z M140.6,224c3.7-1,7.2-1.8,10.7-2.9
		c0.9-0.3,1.5-1.8,2.3-2.7c-1.1-0.4-2.2-1-3.4-1.2c-0.9-0.1-2,0.2-2.9,0.6c-4.1,1.9-8,1.1-11.9-0.7c-2.1-0.9-4.4-1.5-6.6-2
		c-0.6-0.1-1.7,0.5-1.9,1.1c-0.2,0.6,0.2,1.9,0.7,2.1C131.8,220.3,136.3,222.1,140.6,224z M66.9,181.1c0.1-0.1-0.5,0.4-0.7,1
		c-0.4,1.3-1.1,2.9-0.6,3.8c0.5,1.1,2.3,2.2,3.3,2.1c1.1-0.1,2.6-1.6,2.9-2.8c0.6-1.8,0.9-4,0.4-5.8c-0.7-2.2-2.3-4.2-3.8-6.1
		c-0.2-0.3-2.5,0.4-2.5,0.6C66.2,176.1,66.5,178.3,66.9,181.1z M193.6,173.8c0.1-0.6,0.2-1.2,0.3-1.8c-7.1-5.6-16.6-7.6-20.6-3.8
		C180.3,170.1,187,172,193.6,173.8z M99.3,155.2c5.7,0.7,10.7,1.3,15.7,2c0.2,0,0.5,0.1,0.5,0c0.4-0.9,1.3-2.3,1-2.8
		C114.4,151.3,102.6,151.6,99.3,155.2z"/>
	<path class="st6" d="M99.7,130.1c-1.1,5.2-2.4,10.4-3.4,15.7c-2,10.4-3,21.1-6.2,31c-2.2,6.8-2,13.4-2.8,20.1
		c-0.2,1.2-1.5,2.2-2.3,3.4c-0.8-1.1-2-2-2.5-3.2c-3.7-9.5-3-19.5-3-29.4c0-2.5-0.5-5-0.8-7.4c0.9-2.2,1.8-4.4,2.9-7.3
		c5.8,2.9,1,9.1,4.4,13.3c2-8.4,3.9-16.1,5.6-23.9C92.6,137.2,93.9,132.2,99.7,130.1z"/>
	<path class="st5" d="M163.9,131.3c-2.5,1.3-4.9,3.6-7.4,3.6c-7,0-14.1-1.2-21.1-1.6c-6.3-0.3-12.5-0.2-18.8-0.3
		c-2.3,0-4.9,0.7-5.3-2.8c1.3-0.4,2.5-0.7,3.8-1.2c2.3-0.8,4.6-1.7,6.8-3.1c9.6,0.6,19.2,0.9,26.2-8.1c0.5-0.6,1.8-0.4,2.7-0.8
		c1.9-1,3.6-2.1,5.5-3.1c1-0.6,2.1-1.1,3.2-1.6c0.4,1,1.1,1.9,1.2,2.9c0.6,4.5-0.3,8.4-5.7,10.3c0.4,0.3,0.7,0.7,1.1,1
		c1.4-0.3,2.7-0.7,2.6-0.6C160.7,128.2,162.3,129.8,163.9,131.3z"/>
	<path class="st8" d="M97.8,40.5c-0.3-4.6,1.2-7.5,6.4-7.8c1.9-0.1,3.8-1.8,5.6-2.8c-0.2-0.4-0.3-0.8-0.5-1.2c-1.6,0-3.3,0-6.7,0
		c2.3-2.9,3.5-5.9,5.6-6.7c4.5-1.8,9.4-2.4,12.9,3.1c-2.6,1.2-5.3,2.5-7.9,3.7c0.1,0.5,0.1,0.9,0.2,1.4c2.4-0.4,4.8-0.7,7.2-1.1
		c-0.3,2.7-1.7,3.6-4.4,4.3c-3.2,0.8-7.7,0.2-8.7,5c-1.6,0.1-3.3-0.1-4.8,0.2C100.9,39.1,99.3,39.9,97.8,40.5z"/>
	<path class="st5" d="M189.6,139.9c-5.4-0.5-11-0.6-16.3-1.6c-2.9-0.6-6.8-2.1-4.2-6.8c0.9,3.9,3,5.1,6.8,3.6c1.2-0.5,2.8,0,4.2-0.2
		c1.8-0.3,3.6-0.8,6.3-1.4C187.1,134.9,188.4,137.4,189.6,139.9z"/>
	<path class="st12" d="M97.8,40.5c1.6-0.6,3.1-1.5,4.8-1.8c1.6-0.3,3.2-0.2,4.8-0.2c-0.9,1.2-1.5,2.8-2.7,3.4
		c-2.2,1.2-4.6,1.7-7,2.6c-0.1-1-0.1-2.1-0.2-3.3C97.7,41,97.8,40.8,97.8,40.5z"/>
	<path class="st13" d="M98.4,379.9c6.7,13.6,17.7,23.4,29.4,32.5c-0.6,0.4-1.1,0.9-1.7,1c-7.2,2.1-7,8.6-7.9,14
		c-0.2,1.3,1.9,3.7,3.5,4.5c2.6,1.3,5.7,1.8,8.6,2.4c4.7,1,9.8-2.1,11-6.7c0.6-2.1,0.8-4.2,1.2-6.3c4,2,8,4,11.9,6
		c-1.6,8.8-3.6,17.5-4.9,26.3c-1.2,8.4-2.3,16.8-2.6,25.3c-0.3,6.8,0.1,13.6,1.2,20.3c1.2,7.5,0.6,8.9-6.3,10.9
		c-7.9,2.3-15.7,5.3-23.6,7.7c-1.8,0.6-4.4,0.8-5.9,0c-9.1-5-16.8-2.2-23.5,4.3c-4.3,4.1-8.9,6.8-14.7,7.6
		c-13.2,1.8-24.3,8.4-35.5,14.9c-0.7-0.7-1.6-1.3-2.1-2c-5.4-8.3-10.6-16.8-16.1-25.1c-1-1.6-2.7-3.6-4.2-3.8
		c-4.9-0.7-7.9-3.3-10.1-7.5c-0.2-0.4-1.1-0.5-1.7-0.8c0.3-6.7,0.7-13.4,1-20.1c3.7,2.6,7.9,2.9,12.3,2.5c3.7-0.4,7.8-0.9,11.2,0.2
		c5.2,1.8,5.9-1.3,7-4.7c0.5-7.9,1-15.9,1.5-23.8c2.3-3,0.6-5.6-1.9-6.3c-9.4-2.3-18.9-4.9-28.5-0.7c3-15.8,6.1-31.5,9.1-47.3
		c0.8,1.1,1.6,2.1,2.4,3.2c-1,3-2,6-3.1,9l-0.1,0c-0.3,0.3-0.5,0.6-0.8,0.9c-0.5,5.2-1.1,10.3-1.6,15.5c4.5,1.1,4.1-2.7,5.4-4.6
		c0.6-0.6,1.2-1.2,1.9-1.9c4.9-2.1,5-6.8,6.1-11c2.1-5.6,4.2-11.2,6.3-16.9c2.7-7,5.3-14,8-20.9c0.6-1.3,1.2-2.7,1.9-4
		c0.9-3.8,2-7.5,2.7-11.3c0.2-1.1-0.7-3.5-1.4-3.6c-1.6-0.3-4.1,0-4.8,1c-2.3,3.3-3.9,7-5.7,10.6c-0.5,1.3-0.9,2.6-1.4,3.9
		c-1.8,4.7-3.6,9.4-5.4,14.1c-0.7,2-1.4,4-2,5.9c-0.2,0.2-0.4,0.3-0.6,0.3c-1.2-2.2-2.4-4.5-3.5-6.7c1.6-20.8,8.2-40,18.8-57.9
		c0.6-1,1.4-1.8,2.2-2.7c9.9-3.1,19.9-6.2,29.8-9.5c0.8-0.3,1.6-3,1.2-4.2c-2.4-7.4-5.1-14.8-7.7-22.1c7.1-9.8,15.5-18,25.9-24.1
		c-0.8,3.3-0.5,7.9-2.6,9.6c-2.3,1.9-2.4,3.3-2.4,5.5c0.5,1.1,0.7,3.1,1.4,3.3c3.3,0.8,2.7,3.3,2.7,5.5c0,7.2,0.7,7.9,7.9,8
		c5.1,0.1,10.5-0.6,15.4,0.6c6.9,1.6,6.9,2.2,9.4-4.6c2,0.3,4.1,0.7,6.2,1c2.1,0.5,4.1,1.4,6.2,1.5c1.5,0.1,3-0.9,4.5-1.4
		c-0.9-1.6-1.4-4.1-2.7-4.5c-4.3-1.6-8.9-2.4-13.4-3.5c-0.3,0-0.6,0.1-0.9,0c-1-3,1.2-2.8,3-2.9c3.5-0.1,7,0.1,10.5-0.2
		c1-0.1,2.7-1.6,2.7-2.4c0-1.3-0.9-3.2-2-3.8c-1.3-0.8-3.2-0.5-4.9-0.6c-3.1-0.1-6.3,0-9.5,0c0-0.4,0.1-0.7,0.1-1.1
		c2.3-1.3,4.6-2.6,6.9-3.9c0.4-0.3,0.8-0.7,1.1-1c1.2,0.3,2.3,0.6,3.5,1c1.1-0.1,2.1-0.3,3.2-0.4c9.4,8.2,13.5,19.5,17.7,30.6
		c0.9,2.5,1.5,5.1,2.3,7.6c0.1,0.4,0.2,0.8,0.3,1.2c0.1,0.6,0.3,1.2,0.4,1.8c-2.4,8.9-1.5,12.6,4,15.3c1.9,5.8,3.9,11.6,6,17.9
		c-3.7,0.5-7.3,0.7-10.9,1.5c-1.8,0.4-3.1,2.2-4.9,2.9c-13.9,5.8-27.8,11.4-41.8,17.1c-0.6,0.2-1.3,0.1-1.9,0.2
		c-3.1-1.7-6.2-3.5-9.5-5c-0.9-0.4-2.8-0.1-3.3,0.6c-0.5,0.8-0.4,2.6,0.2,3.5c1.2,1.9,2.9,3.5,4.4,5.2c-2.4,1-4.8,2.1-7.4,3.3
		c-4-7.6-7.8-14.8-11.7-22.1c-0.6,0.2-1.3,0.5-1.9,0.7c0.2,1.6,0.1,3.2,0.6,4.7c0.8,2.2,1.9,4.2,2.9,6.3c2.3,4.7,5.6,9.3,3.3,15
		c-0.8,0-1.9,0.4-2.4,0c-5.5-4-7.4,0.3-9.5,4c-3.6,6.5-7.2,13-10.7,19.5c-3.4,6.4-6.5,12.8-9.8,19.2c2.9,1.7,5.1,3.2,7.5,4.2
		c2.3,1,4.9,1.3,7.3,2c1.5,1.1,3,2.3,4.5,3.4c3.5,3,6.9,6.1,11.9,5.8l-0.1,0c1.2,1,2.3,2.6,3.8,2.9c0.8,0.2,2.5-1.2,3.1-2.3
		c2.6-4.4,4.9-9,7.4-13.4c5.5-9.8,11.6-19.5,4.8-31.1c-0.8-1.3-2.6-2-4-3l-0.1-0.1c-0.2-0.3-0.4-0.5-0.7-0.8c-0.7-0.4-1.3-0.7-2-1.1
		c-1.7-1.4-3.4-2.9-5.1-4.3c-2-1.6-4.1-3.2-6.2-4.8C89.9,381.4,94.2,380.6,98.4,379.9z M88.6,330.3c-1.4,0.3-2.8,0.5-4.1,0.8
		c-2.4,1-4.9,2.1-7.3,3.1c-2.8,4.1-1.7,8.1,2.6,9.5c3.3-0.3,6.6-0.5,9.8-0.8c7.8-1.2,15.8-1.8,23.4-3.8c4.9-1.3,9.2-4.6,13.8-7.1
		c-0.2-0.7-0.3-1.3-0.5-2c-3.6-0.9-7.2-1.8-10.8-2.7c-0.7-0.1-1.3-0.1-2-0.2c-3,0.4-6,0.7-9,1c-0.3,0-0.7,0-1,0
		C98.6,328.9,93.6,329.6,88.6,330.3z M135.3,505.1c0.1-1.7,0.2-3.3,0.4-5c0.3-0.8,0.8-1.5,0.8-2.3c0.1-11.8,0.4-23.6,0-35.3
		c-0.1-3.7-1.9-7.4-3.2-11.9c-1.4,1.6-2.6,2.2-2.8,3.1c-1.3,5.9-3.1,11.8-3.4,17.7c-0.5,8.8,0.2,17.7,0.3,26.6
		c-0.2,9.3-0.2,9.3,6.9,8.8C134.7,506.4,135,505.8,135.3,505.1z M53.5,495.1c0.5,1.3,0.7,2.9,1.5,3.8c7.8,7.6,15.7,15.1,23.7,22.5
		c0.7,0.6,2.6-0.2,3.9-0.3c6.7-7,13.5-13.8,20-21c0.6-0.6-0.4-3.5-1.4-4.5c-5.1-5.2-10.4-10.2-15.8-15c-2.5-2.2-5.6-3.9-8.4-5.8
		c-0.5-0.9-0.9-1.8-2-3.8c-0.9,3-1.4,4.9-1.8,6.4c-1.9,0.8-3.9,1-5,2.1c-4.3,4.5-6.3,11.1-13.1,13C54.3,492.9,54,494.3,53.5,495.1z
		 M145.6,341.4c2.1,1,5.2,2,5.7-1.9c0.9-7,1-14.1,1.1-21.2c0-1-1.8-1.9-2.7-2.9c-0.9,1.1-2.5,2.2-2.6,3.5
		C146.4,326.2,146.1,333.4,145.6,341.4z"/>
	<path class="st13" d="M202.3,506.5c9.2,2.4,18.6,4.5,27.7,7.4c9.2,3,14.6,10,17,19.3c-2.7-1.1-5.4-2.3-8.1-3.1
		c-1.3-0.3-3.6-0.2-4.1,0.6c-4.7,8.6-9.1,17.4-13.6,26.1c-3.4,5.6-6.9,11.3-10.9,17.7c6.2,2.2,11.1,3.9,15.9,5.6
		c4.1,2.1,8.2,4.1,12.4,6.2c-1.1,2.4-1.6,5.2-3.3,7.1c-11.3,12.8-25.2,22.2-39.8,30.5c0.3-5.5,0.8-11,1-16.5
		c0.1-2.5-0.6-4.7-3.9-4.1l0,0c-0.5-0.7-1-1.4-1.5-2l0.1,0c-6.8-0.6-13.6-1.2-20.5-1.6c-0.6,0-1.4,2-2.1,3.1
		c-0.1,0.2-0.3,0.4-0.5,0.5c-0.9,0.8-2.6,1.6-2.7,2.5c-0.7,8.9-1.2,17.9-1.6,26.8c0,0.9,1,1.9,1.6,2.9c2.4,0.9,4.9,1.8,7.4,2.7
		c-4.7,3-9.4,6.1-14.1,9.1c0.3-6.8,0.7-13.5,0.9-20.3c0-1.3-0.7-2.7-1.5-3.8c-0.4-0.5-2.4-0.7-2.6-0.4c-0.6,1.2-1,2.6-1.1,3.9
		c-0.6,6-1.1,12-1.4,18c-0.1,1.9,0.5,3.8,0.8,5.7c-3.7,2.7-7.6,5.2-10.9,8.3c-2.9,2.8-4.9,6.4-7.5,10c-9.1-6.7-17.9-13.1-26.7-19.5
		c2.8-0.7,5.6-1.6,8.5-2.1c6.5-1.1,11.8-4.2,17.5-10c-6.1-1.2-11-3-15.9-2.8c-6.7,0.2-13.4,1.8-20.1,2.8c-3,0.4-5.9,0.8-8.9,1.2
		c-1.8-0.1-3.5-0.2-5.8-0.3c8.4-12.7,19.5-21.9,30.7-31c2,0.2,4.1,0,5.9,0.7c6.6,2.4,7,2.3,9-4.4c1.2,0.1,2.5,0.1,3.8,0.3
		c3.3,0.6,6.5,1.4,9.8,1.7c0.9,0.1,2.6-1.5,2.6-2.4c0-2-1-3.7-3.4-1.7v0c-2.5-1-5-2-7.5-3l0,0c-0.3-0.3-0.7-0.7-1-1
		c-0.5,0-1,0-1.5,0l0,0c-1.2-0.4-2.3-0.8-3.5-1.2c1-0.9,2-1.8,3.1-2.8c3.6,0,7.3,0.2,10.9-0.1c1.1-0.1,2.8-1.5,2.9-2.3
		c0.1-1.3-1-2.7-1.9-3.8c-0.4-0.5-1.5-0.6-2.3-0.9c5.1-3.5,10.2-6.8,15.1-10.5c2.3-1.7,3.9-4.3,5.8-6.4c-0.4-0.5-0.8-0.9-1.2-1.4
		c-4.8,3.2-9.6,6.3-14.4,9.5c-0.2-2.6-1.5-3.3-4.1-2.7c-4.3,1-8.7,1.6-13.3,2.4c-0.7-3-0.3-6.6-5.2-6.1c-6.7,0.7-13.5,1-20.3,1.1
		c-6.9,0.2-7.6,0.9-6.2,8c0,1.2,0,2.4,0,3.5c0.1,0.3,0.2,0.6,0,1c-1.7,0.8-4.1,1.1-4.8,2.4c-0.7,1.5-0.2,5.2,0.4,5.4
		c5.2,1.4,3.4,5.4,3.3,8.5c-0.1,3.5,0.6,5.7,4.7,5.7c1.8,0,3.7,1,5.5,1.5c-3.8,3.4-8.1,6.5-11.4,10.4c-4.4,5.2-10.2,4.3-15.7,4.9
		c-4.3-12.8-8.6-25.5-13-38.3c0-3-1.2-4.3-4.3-3c-3.6,1.5-7.2,2.8-10.8,4.2c-2,1-4,1.9-6,2.9l0,0c-4.7,1.7-9.5,3.3-14.2,5
		c-1.3,0.3-2.6,0.7-3.9,1c-1.1-1-2.8-1.8-3.3-3.1c-3-7.8-5.7-15.7-8.5-23.5c-0.6-1.6-0.8-3.4-1.3-5.4c2.9-1.6,6-3.3,9.1-5
		c1.6,2.7,3.2,5.3,4.9,8c0.5,3.3,1.9,4.4,5,2.3c3.6-2.4,7.3-4.5,10.8-6.9c2.9-2,3.4-4-0.2-5.9c-1.2-2.5-2.4-5.1-3.6-7.7
		c11.5-7.1,23.3-13,36.9-15.4c5-0.9,9.7-4.7,13.9-7.9c6.1-4.6,12.7-8.2,17.7-3.5c-4.3,1.9-8.4,3.6-12.6,5.4c0.1,0.5,0.1,1,0.2,1.5
		c2,0,4.1,0.5,5.9-0.1c7.2-2.5,14.2-5.5,21.4-8.1c24.8-9,50.1-15.2,76.8-13.7c-6.8,3.9-8.3,11-10.6,17.6c-2.8,6.7-5.6,13.5-8.4,20.2
		c-0.7-1.1-1.1-2.8-2.1-3.1c-1.1-0.4-3.7,0.5-3.7,0.8c0.1,5.1,0.6,10.3,0.9,15.4c-1.1,3.3-2.1,6.6-3.2,10c-0.4,4.3-0.9,8.7-1.3,13
		c-0.3,0.7-0.5,1.5-0.8,2.2c1.3-0.7,2.7-1.4,4-2.1c0.4-0.4,0.8-0.8,1.1-1.2c0.6-1,1.2-2,1.8-3c4.9-2.1,5-6.8,6.1-11
		c2.1-5.6,4.2-11.2,6.3-16.8c2-5.1,3.9-10.1,5.9-15.2c0.7-1.9,1.4-3.9,2.1-5.8c1.1-2.2,2.5-4.2,3.3-6.5
		C203.8,516.2,205.2,511.4,202.3,506.5z M134.8,518.2c-0.4,0.4-0.9,0.8-1.3,1.1c0,0.3,0,0.5,0,0.8c-0.7,0.3-1.3,0.7-2,1
		c-1,0.2-2.1,0.1-2.9,0.6c-4.6,2.8-7.3,9.6-5.9,14.8c1.4,5,5.3,7.4,11.9,7.7c5.2,0.2,12.4-4.3,14.4,5.7c2.2-5.6,4.3-11.1,6.5-16.7
		c0.4-0.4,0.7-0.7,1.1-1.1c1-0.7,2.6-1.3,3-2.3c3.6-8-1.1-13.7-11.1-13.6c-1.3,0.6-2.7,1.3-4,1.9c-0.7,0-1.3,0-2,0
		C140,518.1,137.4,518.2,134.8,518.2z M85.4,553.1c-0.2-6.4-4.9-8.8-12.6-10.3c-5.8-1.1-5.7,4.3-7.3,7.6c-0.6,1.2-1.4,2.3-1.6,3.6
		c-0.6,3.4-1.5,7.2,3.6,8.2c1.2,5.1,6,4.8,9.5,5.3c1.6,0.3,4.4-2.6,5.4-4.7C84,560,84.5,556.4,85.4,553.1z"/>
	<path class="st14" d="M164.6,475.2c8.3,2.4,16.4,5.3,24.9,6.9c9.9,1.9,19.9,3.3,29.9,3.8c6.8,0.3,11.9,3.3,17.1,7.2
		c-3.2-0.6-6.4-1.2-9.5-1.8c-0.2,0.4-0.5,0.7-0.7,1.1c3.5,4.1,12.2,3.9,11.2,11.1c-5.3-2.5-10.6-5.1-16.1-7.4
		c-0.9-0.4-2.2,0.4-3.4,0.7c0.8,0.8,1.5,1.9,2.5,2.5c2.7,1.7,5.4,3.2,8.1,4.9l-0.1,0.2c-2.6,0.9-6.1-2.3-7.9,1.9
		c-17.1-5.6-34.6-4.4-52.1-2.5c-0.6-4-1.1-8-1.7-12C166.1,486.1,165.3,480.7,164.6,475.2z"/>
	<path class="st15" d="M238.5,586.2c-4.1-2.1-8.2-4.1-12.4-6.2c-3-2.1-2.4-4.7-1-7.3c0.9-1.7,1.9-3.4,2.8-5.1
		c4.2-8.1,8.4-16.3,12.6-24.4c0.9-1.2,2.1-2.2,2.4-3.5c0.8-3.3,2.9-2.9,5.2-2.2c5.7,13.2,7.1,26.6-0.4,39.5
		C245.8,580.6,241.7,583.1,238.5,586.2z"/>
	<path class="st7" d="M153.4,357.9c1.4,2,2.8,4.1,4.2,6.1c-5.8,4.7-10.4,10.9-17.8,13.5c-6.7,2.4-13.3,5-19.8,7.7
		c-3.3,1.4-6.3,3.3-9.5,5c-2.7-4-5.4-8.1-8.1-12.2c14.9-6.3,29.9-12.6,44.8-18.8C149.1,358.5,151.3,358.4,153.4,357.9z"/>
	<path class="st15" d="M168.1,603.1c0.2-0.1,0.4-0.3,0.5-0.5c4.1-0.2,8.3-0.3,12.4-0.5c3.4-0.2,6.8-0.6,10.1-1l-0.1,0
		c0.5,0.7,1,1.4,1.5,2l0,0c0,7.4,0.1,14.7,0.1,22.1c-1.3,0.7-2.7,1.3-4,2c0-6.9,0-6.9-6.8-7.1c-2.5,0-5,0-7.4-0.2
		c-2.7-0.3-4.6,0.8-4.1,3.3c0.3,1.4,2.5,3.3,4,3.5c4.7,0.5,9.6,0.3,14.3,0.4c-2.6,1.7-5.3,3.3-7.9,5c-1.8-0.5-3.7-1.4-5.5-1.4
		c-2.6,0-5.2,0.7-7.7,1.2C167.7,622.3,167.9,612.7,168.1,603.1z"/>
	<path class="st7" d="M164.6,475.2c0.8,5.5,1.5,10.9,2.3,16.4c0.6,4,1.1,8,1.7,12c-4.5,1-8.9,1.9-13.8,3c-4.9-12.4-5-24.9-2.2-37.7
		c2.2,1.1,4.4,2.3,6.6,3.4C160.9,473.4,162.7,474.3,164.6,475.2z"/>
	<path class="st15" d="M97.6,584.6c0.1-0.3,0.1-0.7,0-1c0.7-1.2,1.3-2.3,1.9-3.5c-0.3-4.1,1.5-5.6,5.6-5.3c3.8,0.3,7.6,0.4,11.4,0.1
		c3.8-0.3,5.4,0.9,5.1,4.9c-0.3,5.1,0,10.3,0,15.4c-1.6,1.3-3.2,2.7-4.9,4c-1.6-0.9-3.5-1.5-4.7-2.7c-0.7-0.7-1.1-3.2-0.6-3.6
		c5.4-4.4,2.4-7.5-1.3-10.7c-1.1-1-1.9-2.3-3.1-3.2c-1-0.8-2.3-1.5-3.5-1.7c-0.5-0.1-1.9,1.9-1.8,2.2c0.6,1,1.8,1.8,2.7,2.6
		c2.5,2.1,7.7,4.3,5.5,7.4c-4.1,5.7-2.8,8.3,2.6,10.9c0.5,0.2,0.8,1,1.1,1.6c-1,0.7-1.9,1.5-2.9,2.2c-0.5,0-1-0.1-1.5-0.1
		c-9.8-0.3-9.7-0.3-9.8-10.5C99.4,590.7,98.2,587.7,97.6,584.6z"/>
	<path class="st16" d="M34.7,546.2c-4.3,2.6-8.7,5.2-13,7.7c-4.1-7.1-8.3-14.1-12.1-21.3c-1.3-2.5-1.4-5.6-2-8.5l-0.1,0.1
		c0.3-0.3,0.7-0.7,1.1-1l-0.1,0c1.9-0.7,3.8-1.7,5.8-2c1.8-0.3,4.9-0.8,5.4,0.1C25,529.4,29.8,537.8,34.7,546.2z"/>
	<path class="st13" d="M234.3,511.1c8.1-1.4,8.7-2.1,7.5-9.4c1.7,0.7,3.7,1,5,2.1c13.1,12.2,17.8,27.6,16.6,45.1
		c-0.6-1.6-1.3-3.2-1.8-4.8c-0.6-1.8-4.6-4-6-3.1c-1.3-2.7-2.9-5.3-3.9-8.1C248.3,523.7,243.8,515.4,234.3,511.1z"/>
	<path class="st17" d="M129,274.3c-2.3,1.3-4.6,2.6-6.9,3.9c0,0.4-0.1,0.7-0.1,1.1c3.2,0,6.3,0,9.5,0c1.6,0,3.6-0.2,4.9,0.6
		c1.1,0.6,2,2.5,2,3.8c0,0.8-1.7,2.3-2.7,2.4c-3.5,0.3-7,0.1-10.5,0.2c-1.8,0-4-0.2-3,2.9c-1.3,3.1-0.5,4.9,3.1,5.1
		c1.1,0.1,2.1,0.6,3.2,0.9c0,0.6,0,1.2,0,1.8c-2.1-0.3-4.2-0.7-6.2-1c-2.5,6.7-2.5,6.2-9.4,4.6c-4.9-1.2-10.2-0.5-15.4-0.6
		c-7.2-0.1-7.9-0.8-7.9-8c0-2.2,0.6-4.7-2.7-5.5c-0.7-0.2-1-2.1-1.4-3.3c2.3,0.3,4.5,0.7,6.8,1c0,3.2,0.2,6.3,0.1,9.5
		c-0.1,2.5,0.8,3.6,3.4,3.6c5-0.1,10,0.2,15-0.1c1.3-0.1,2.4-1.9,3.7-3c0.6-0.3,1.2-0.6,1.7-0.9c0.3,1.9,0.6,3.7,0.9,5.6
		c0.8-0.1,1.5-0.1,2.3-0.2c0-10.8,0-21.6,0-32.3c4.1,1.2,8.3,2.4,12.4,3.7c-2.4,1-4.8,2.1-7.3,3.1c-1.2,0.2-2.3,0.4-3.5,0.5
		c0.3,0.5,0.5,1.1,0.8,1.6c0.9-0.7,1.9-1.4,2.8-2.1C126.1,273.6,127.5,273.9,129,274.3z M136,283.5c0-0.4,0-0.9,0.1-1.3
		c-4.8-0.2-9.6-0.5-14.3-0.7c0,0.7,0,1.4-0.1,2C126.4,283.5,131.2,283.5,136,283.5z"/>
	<path class="st17" d="M89.5,638.2c3-0.4,5.9-0.8,8.9-1.2c6.7-1,13.4-2.6,20.1-2.8c4.9-0.1,9.8,1.7,15.9,2.8
		c-5.7,5.8-11,8.9-17.5,10c-2.9,0.5-5.7,1.4-8.5,2.1c-2.4-1.6-4.8-3.2-7.1-4.8c6.3-1.1,12.6-2.2,18.8-3.3c-0.1-0.7-0.3-1.5-0.4-2.2
		c-6.7,2-13.9,0.5-20.3,4.5C96.1,641.5,92.8,639.9,89.5,638.2z M98.4,639.1c0.1,0.4,0.1,0.9,0.2,1.3c6.7-1.1,13.4-2.1,20.1-3.2
		c-0.1-0.5-0.2-1-0.2-1.4C111.8,636.9,105.1,638,98.4,639.1z"/>
	<path class="st18" d="M48.4,316.2c0.7-1,1.5-2,2.2-3c4.2-1.2,8.4-2.5,12.6-3.7c-0.2-0.5-0.3-1-0.5-1.5c-1.7,0.4-3.4,0.8-5,1.1
		c-1.7,0.4-3.5,0.7-5.2,1c3.7-5.3,7.3-10.6,11-15.9c1.9,6,3.6,12,5.6,17.9c0.9,2.8,0.8,4.8-2.4,5.8c-6.1,2-12.2,4.1-18.3,6
		c-1.5,0.5-3.3,0.1-5,0.2c1.1-1.6,2.2-3.2,3.3-4.8c5.9-1.9,11.8-3.7,17.8-5.5c-0.2-0.5-0.3-1-0.5-1.5
		C58.8,313.6,53.5,314.9,48.4,316.2z"/>
	<path class="st15" d="M71.4,623.6c-0.9-0.2-1.9-0.4-2.8-0.5c1.5-1.8,6.7-2.4,1.8-6.1c-0.6-1.6-1.2-3.2-1.8-4.9c-1-0.7-2-1.3-3-2
		c0.6-1,1.3-2.1,2.2-3.6c-1.7,0-2.9,0-4.1,0c0-0.4,0-0.9,0-1.3c0.7-1.1,1.3-2.1,2-3.2c-0.3-0.7-0.7-1.3-1-1.9c-0.7-0.7-1.3-1.3-2-2
		c0-0.6,0-1.3,0-1.9c-0.6-0.8-1.2-1.6-1.8-2.4c0-0.5-0.1-1-0.2-1.5c0.6-0.7,1.3-1.5,1.9-2.2c-0.2-0.3-0.5-0.7-0.7-1
		c-6.4,2.4-12.9,4.7-19.3,7.1c-0.8,0-1.7,0-2.6,0c-1.1-0.6-2.1-1.2-3.4-2c3.3-1.8,6.2-3.4,9.1-5l0,0c2-0.3,4-0.7,6-1
		c4.5-0.9,9-1.9,13.5-2.8c0.5,2.1,0.9,4.2,1.6,6.3c3,9.1,6,18.3,9.1,27.3c0.7,2,1.5,3.8-1.2,4.8c-0.6,0-1.3,0-1.9,0
		C72.2,623.7,71.8,623.6,71.4,623.6z"/>
	<path class="st18" d="M62.6,596.2c0,0.6,0,1.3,0,1.9c-5.6,2.2-11.2,4.3-16.8,6.5c0.2,0.4,0.3,0.8,0.5,1.1
		c6.1-1.9,12.2-3.7,18.3-5.6c0.3,0.7,0.7,1.3,1,1.9c-6.3,2.1-12.5,4.1-18.8,6.2c0.2,0.6,0.4,1.2,0.6,1.8c5.4-1.6,10.8-3.2,16.2-4.9
		c0,0.4,0,0.9,0,1.3c-5,2.1-9.9,4.2-14.9,6.2c0.1,0.4,0.2,0.7,0.3,1.1c1.5-0.2,3-0.5,4.5-0.7c0,0.5,0,1,0.1,1.5
		c-1.4,0.5-2.8,1.1-4.1,1.7c-2-1.1-3.9-2.2-5.9-3.3c-0.8-2.8-1.6-5.6-2.3-8.4c-0.7-2.8-3.5-5.2-1.4-8.5c0.8,0,1.7,0,2.6,0
		c1.5,0.1,3.1,0.7,4.4,0.3c4.6-1.2,9.1-2.8,13.7-4.2c0,0.5,0.1,1,0.2,1.5c-5.3,2.2-10.5,4.3-15.8,6.5c0.1,0.4,0.3,0.8,0.4,1.2
		C51.1,599.7,56.8,597.9,62.6,596.2z"/>
	<path class="st19" d="M121.6,595.3c0-5.1-0.3-10.3,0-15.4c0.3-4.1-1.3-5.2-5.1-4.9c-3.8,0.3-7.6,0.2-11.4-0.1
		c-4.1-0.4-5.9,1.2-5.6,5.3c-0.7,0-1.3,0-2,0c-1.4-7.1-0.7-7.9,6.2-8c6.8-0.2,13.5-0.4,20.3-1.1c4.9-0.5,4.5,3,5.2,6.1
		c4.6-0.8,9-1.4,13.3-2.4c2.6-0.6,3.9,0.1,4.1,2.7c-1,0.7-1.9,1.3-2.9,2c-0.2-0.2-0.3-0.3-0.5-0.5c-1-0.5-2.1-1.4-3.1-1.3
		c-3.5,0.4-7,1.1-10.5,1.7c-1-0.3-2-0.7-3-1c-0.1-1.5-0.3-3.1-0.5-5.3c-1.1,0.9-2,1.2-2,1.6c-0.2,6.5-0.4,13-0.5,19.6
		C122.9,594.5,122.2,594.9,121.6,595.3z"/>
	<path class="st20" d="M34.7,546.2c-4.9-8.3-9.8-16.8-15-24.9c-0.6-0.9-3.6-0.5-5.4-0.1c-2,0.4-3.9,1.3-5.8,2
		c2.5-2.1,5.1-4.2,8.3-6.9c-4.7-1.3-7.6-2.1-10.7-3c-0.2,3.5-0.5,6.8-0.7,10c-0.3-6-0.6-12.1-0.9-18.1c0.6,0.3,1.5,0.4,1.7,0.8
		c2.1,4.2,5.1,6.9,10.1,7.5c1.6,0.2,3.2,2.2,4.2,3.8c5.5,8.3,10.7,16.7,16.1,25.1c0.5,0.8,1.4,1.4,2.1,2
		C37.3,545,36,545.6,34.7,546.2z"/>
	<path class="st21" d="M36.1,483c-1.1,3.4-1.8,6.4-7,4.7c-3.4-1.1-7.5-0.6-11.2-0.2c-4.4,0.4-8.6,0.2-12.3-2.5
		c0.4-3.3,0.7-6.6,1.1-9.9c0.5,0,1,0,1.5,0c-0.2,1.9-0.3,3.8-0.5,5.7c0.3,1,0.5,1.9,0.7,2.9c0.2-0.6,0.4-1.2,0.5-1.7
		c0.4-0.2,0.9-0.7,1.3-0.7c7.4,0.3,14.8,0.6,22.2,0.9C33.7,482.5,34.9,482.8,36.1,483z"/>
	<path class="st17" d="M142.1,601.1c2.4-2,3.4-0.3,3.4,1.7c0,0.8-1.8,2.4-2.6,2.4c-3.3-0.3-6.5-1.1-9.8-1.7
		c-1.3-0.2-2.6-0.2-3.8-0.3c-2,6.7-2.4,6.8-9,4.4c-1.8-0.7-3.9-0.5-5.9-0.7c4.7-3.6,9.4-7.3,14.1-10.9c1.2,0.4,2.3,0.8,3.5,1.2
		c-1.2,0.6-2.3,1.3-3.5,1.9c0,0.4-0.1,0.8-0.1,1.2c4.5,1,8.9,1.9,13.4,2.9C141.9,602.5,142,601.8,142.1,601.1z"/>
	<path class="st22" d="M43.4,324.1c1.7,0,3.4,0.3,5-0.2c6.1-1.9,12.2-4,18.3-6c3.2-1,3.3-3,2.4-5.8c-2-5.9-3.8-11.9-5.6-17.9
		c0.4-0.7,0.8-1.3,1.1-2c2.6,7.4,5.3,14.7,7.7,22.1c0.4,1.2-0.4,3.9-1.2,4.2c-9.8,3.4-19.8,6.4-29.8,9.5
		C42,326.8,42.7,325.5,43.4,324.1z"/>
	<path class="st21" d="M190,524c2.3-6.6,3.8-13.7,10.6-17.6c0.6,0.1,1.2,0.1,1.7,0.2c2.9,4.8,1.5,9.7-0.1,14.4
		c-0.8,2.3-2.2,4.3-3.3,6.5c-1.4-1.3-2.8-2.6-4.4-4.2c-0.6,1.2-1,2.1-1.2,2.5C192,525.1,191,524.5,190,524z M193.9,516.8
		c0.3,0.6,0.6,1.2,0.9,1.8c2,0.9,4.3,3.4,5.9-0.3c0.5-1.1-1.1-3.1-1.7-4.7C197.3,514.6,195.6,515.7,193.9,516.8z"/>
	<path class="st23" d="M153.6,650.3c-0.3-1.9-0.9-3.8-0.8-5.7c0.3-6,0.9-12,1.4-18c0.1-1.3,0.5-2.8,1.1-3.9c0.1-0.3,2.2-0.2,2.6,0.4
		c0.8,1,1.6,2.5,1.5,3.8c-0.2,6.8-0.6,13.5-0.9,20.3C156.9,648.2,155.3,649.2,153.6,650.3z"/>
	<path class="st13" d="M19.9,555.4c-2.7,1.8-5.5,3.5-8.2,5.2c-2-9.2-3.8-17.8-5.6-26.4c0.6,0.2,1.6,0.3,1.8,0.8
		C12,541.7,16,548.6,19.9,555.4z"/>
	<path class="st19" d="M248.3,537.5c-2.3-0.7-4.4-1-5.2,2.2c-0.3,1.3-1.6,2.3-2.4,3.5c-0.4-0.4-0.8-0.9-1.3-1.3
		c-1-1.3-2.1-2.5-3.1-3.7c1.5,0,3.1,0,4.8,0c2-4.4,2-4.4-4.9-5.8c-1.1,1.9-2.2,3.9-3.4,5.9c-0.7,1.5-1.4,3-2.1,4.4
		c-2,3.9-4.1,7.7-6.1,11.6c-0.8,1.2-1.7,2.4-2.5,3.6c-0.3-0.3-0.6-0.6-0.9-0.9c4.5-8.7,8.9-17.5,13.6-26.1c0.4-0.8,2.8-0.9,4.1-0.6
		c2.8,0.8,5.4,2,8.1,3.1C247.4,534.6,247.8,536,248.3,537.5z"/>
	<path class="st19" d="M8.2,475.2c-0.5,0-1,0-1.6,0c0.2-7.6,0.4-15.3,0.6-22.9c9.6-4.2,19.1-1.6,28.5,0.7c2.5,0.6,4.2,3.3,1.9,6.3
		c-0.7-1-1.3-2-2-3.1c-2.4-1-4.6-2.5-7.1-2.8c-4.1-0.5-8.3-0.2-12.5-0.3C10,453,9,454,8.7,460.3C8.5,465.2,8.4,470.2,8.2,475.2z"/>
	<path class="st17" d="M97.6,584.6c0.6,3,1.8,6.1,1.8,9.1c0.1,10.2,0,10.2,9.8,10.5c0.5,0,1,0.1,1.5,0.1c-1.3,1.3-2.6,2.5-4,3.7
		c-1.8-0.5-3.7-1.5-5.5-1.5c-4.1,0-4.7-2.2-4.7-5.7c0.1-3,1.9-7-3.3-8.5c-0.7-0.2-1.2-4-0.4-5.4C93.5,585.7,95.9,585.4,97.6,584.6z
		 M95.9,591.6c0.3-0.5,0.6-0.8,0.5-1c-0.1-0.2-0.4-0.3-0.7-0.5C95.8,590.6,95.8,591,95.9,591.6z"/>
	<path class="st12" d="M113.6,602.1c-0.4-0.5-0.6-1.4-1.1-1.6c-5.4-2.6-6.7-5.3-2.6-10.9c2.3-3.2-2.9-5.3-5.5-7.4
		c-1-0.8-2.1-1.6-2.7-2.6c-0.2-0.3,1.2-2.3,1.8-2.2c1.2,0.1,2.5,0.9,3.5,1.7c1.2,0.9,1.9,2.3,3.1,3.2c3.7,3.2,6.7,6.3,1.3,10.7
		c-0.5,0.4-0.1,2.8,0.6,3.6c1.3,1.2,3.1,1.8,4.7,2.7C115.7,600.2,114.7,601.2,113.6,602.1z"/>
	<path class="st19" d="M74.5,623.7c2.8-1,1.9-2.8,1.2-4.8c-3.1-9.1-6.2-18.2-9.1-27.3c-0.7-2-1.1-4.2-1.6-6.3
		c0.5-0.1,1.1-0.2,1.6-0.3c4.3,12.8,8.6,25.5,13,38.3C77.9,623.5,76.2,623.6,74.5,623.7z"/>
	<path class="st21" d="M39.9,596.1c-2.1,3.2,0.7,5.7,1.4,8.5c0.7,2.8,1.5,5.6,2.3,8.4c-3-2.9-5.9-5.8-8.9-8.8c1.5-4.2,1-7.8-3.3-10
		c4.7-1.7,9.5-3.3,14.2-5c-2.9,1.6-5.8,3.2-9.1,5C37.8,594.8,38.9,595.5,39.9,596.1z"/>
	<path class="st17" d="M255.5,541.1c1.3-0.9,5.4,1.3,6,3.1c0.5,1.6,1.2,3.2,1.8,4.8c-0.3,3.5-0.5,6.9-0.8,10.4
		c-1.4-0.5-2.9-1-4.4-1.5c-0.5,1.8-0.9,3-1.2,4.3c-0.1-2.7-0.2-5.3-0.2-8c1.6,0.4,3.2,0.7,4.8,1.1c0.2,0.2,0.3,0.3,0.5,0.5
		c-0.1-0.2-0.3-0.4-0.4-0.5c-0.5-2.3-1-4.6-1.7-7.4c-1.5,1.2-2.4,1.8-3.2,2.5C256.3,547.2,255.9,544.1,255.5,541.1z"/>
	<path class="st16" d="M25.3,557c4.1-2.3,8.2-4.7,12.4-7.1c1.7,1.7,4.3,3,1.7,5.9c-0.6,0.4-1.2,0.8-1.8,1.3
		c-0.8,0.6-1.5,1.2-2.3,1.8C31.8,559.2,27.4,564.4,25.3,557z"/>
	<path class="st20" d="M19.9,555.4c-4-6.8-7.9-13.7-12-20.4c-0.3-0.5-1.2-0.5-1.8-0.8c-0.2-3.4-0.3-6.8-0.5-10.2
		c0.7,0,1.3,0,1.9,0.1c0.7,2.8,0.7,6,2,8.5c3.8,7.2,8,14.2,12.1,21.3C21.1,554.4,20.5,554.9,19.9,555.4z"/>
	<path class="st18" d="M119.4,266.4c0,10.8,0,21.6,0,32.3c-0.8,0.1-1.5,0.1-2.3,0.2c-0.3-1.9-0.6-3.7-0.9-5.6
		c0.1-7,0.2-14.1,0.2-21.1c0-0.5,0.1-1,0.1-1.5c0-0.6,0-1.1,0-1.7c0.1-0.9,0.1-1.7,0.2-2.5C117.6,266.4,118.5,266.4,119.4,266.4z"/>
	<path class="st23" d="M20.4,388.6c1.2,2.2,2.4,4.5,3.5,6.7c-1,3.8-2,7.7-3,11.5c-0.7,0.5-1.5,0.9-2.2,1.4c-0.8-1.1-1.6-2.1-2.4-3.2
		C17.7,399.5,19,394.1,20.4,388.6z"/>
	<path class="st19" d="M99.8,374.3c-1.5-1.7-3.2-3.3-4.4-5.2c-0.6-0.9-0.7-2.7-0.2-3.5c0.4-0.7,2.4-1,3.3-0.6c3.3,1.5,6.3,3.3,9.5,5
		C105.3,371.4,102.6,372.9,99.8,374.3z"/>
	<path class="st21" d="M167.5,631.9c2.6-0.4,5.2-1.1,7.7-1.2c1.8,0,3.6,0.9,5.5,1.4c-2.7,1.9-5.3,3.9-8,5.8
		c-2.4-0.9-4.9-1.8-7.3-2.7C166.1,634.2,166.8,633.1,167.5,631.9z"/>
	<path class="st17" d="M192.6,625.2c0-7.4-0.1-14.7-0.1-22.1c3.3-0.5,4,1.6,3.9,4.1c-0.2,5.5-0.6,11-1,16.5
		C194.5,624.3,193.6,624.8,192.6,625.2z"/>
	<path class="st19" d="M92.3,284.2c-2.3-0.3-4.5-0.7-6.8-1c0-2.2,0.1-3.6,2.4-5.5c2.1-1.7,1.8-6.3,2.6-9.6c0.3-0.3,0.6-0.4,0.9-0.3
		c0.3,0.5,0.7,0.9,1,1.4c0.4,1,0.8,2.1,1.1,3.1c0,0.6,0,1.1,0,1.7C93.1,277.4,92.7,280.8,92.3,284.2z"/>
	<path class="st17" d="M141.2,586.1c0.8,0.3,1.9,0.3,2.3,0.9c0.9,1.1,1.9,2.5,1.9,3.8c0,0.8-1.8,2.2-2.9,2.3
		c-3.6,0.3-7.3,0.1-10.9,0.1C134.8,590.8,138,588.5,141.2,586.1z"/>
	<path class="st24" d="M7.6,524.1c-0.7,0-1.3,0-1.9-0.1c-0.1-0.3-0.2-0.5-0.3-0.8c0.2-3.2,0.4-6.5,0.7-10c3.2,0.9,6.1,1.7,10.7,3
		c-3.2,2.7-5.8,4.8-8.3,6.9l0.1,0C8.2,523.4,7.8,523.8,7.6,524.1C7.5,524.2,7.6,524.1,7.6,524.1z"/>
	<path class="st22" d="M68.5,612.1c0.6,1.6,1.2,3.2,1.8,4.9c-3.9,1.1-7.8,2.1-11.8,3.2c-1.1-0.7-2.2-1.3-3.3-2
		c1.2-0.6,2.5-1.2,3.7-1.8C62.2,615,65.4,613.6,68.5,612.1z"/>
	<path class="st18" d="M31.4,594.2c4.3,2.3,4.8,5.8,3.3,10c-2.4-3-4.8-6-7.2-9C28.8,594.8,30.1,594.5,31.4,594.2z"/>
	<path class="st17" d="M92.4,269.2c-0.3-0.5-0.7-0.9-1-1.4c3.6-0.5,7.2-1.2,10.8-1.5c3.8-0.4,7.7-0.6,11.5-0.8c1,0,2,0.6,2.9,1
		c-0.1,0.9-0.1,1.7-0.2,2.5c-6.1-0.3-12.1-0.8-18.2-0.9C96.4,268,94.4,268.8,92.4,269.2z"/>
	<path class="st19" d="M68.5,612.1c-3.2,1.4-6.3,2.9-9.5,4.3c-1.3,0.6-2.5,1.2-3.7,1.8c-1.9-0.7-3.9-1.3-5.8-1.9
		c1.4-0.5,2.8-1.1,4.1-1.7c2-0.8,4-1.7,5.9-2.5l0,0c2-0.7,4-1.3,6-2l0,0C66.6,610.8,67.6,611.5,68.5,612.1z"/>
	<path class="st18" d="M123.6,594c0.2-6.5,0.3-13,0.5-19.6c0-0.4,0.9-0.7,2-1.6c0.2,2.2,0.3,3.8,0.5,5.3c-0.3,4.4-0.5,8.8-0.8,13.2
		C125.1,592.2,124.3,593.1,123.6,594z"/>
	<path class="st23" d="M58.6,620.2c3.9-1.1,7.8-2.1,11.8-3.2c4.9,3.7-0.3,4.3-1.8,6.1C65.3,622.1,61.9,621.1,58.6,620.2z"/>
	<path class="st18" d="M99.4,643.2c6.4-4,13.6-2.5,20.3-4.5c0.1,0.7,0.3,1.5,0.4,2.2c-6.3,1.1-12.6,2.2-18.8,3.3
		C100.7,643.9,100.1,643.6,99.4,643.2z"/>
	<path class="st20" d="M161.5,330.4c-5.5-2.6-6.4-6.3-4-15.3C158.8,320.2,160.1,325.3,161.5,330.4z"/>
	<path class="st21" d="M125.8,591.3c0.3-4.4,0.5-8.8,0.8-13.2c1,0.3,2,0.7,3,1c-1.9,2.5-0.6,3,1.8,2.8c0.4,0.4,0.8,0.8,1.2,1.1
		c-1.6,0.7-3.1,1.4-4.7,2.1c0.2,0.5,0.3,1.1,0.5,1.6c1.4-0.2,2.8-0.4,4.2-0.6C130.2,587.9,128,589.6,125.8,591.3z"/>
	<path class="st24" d="M257,562.1c0.3-1.2,0.7-2.4,1.2-4.3c1.5,0.5,2.9,1,4.4,1.5c-1.4,3.2-2.9,6.4-4.3,9.7
		c-0.6-0.2-1.2-0.4-1.8-0.6C256.6,566.3,256.8,564.2,257,562.1z"/>
	<path class="st25" d="M25.3,557c2.1,7.4,6.5,2.2,10,1.8c0.2,0.2,0.4,0.4,0.5,0.6c-2,2.2-4,4.4-6,6.6c-0.5,0.1-1,0.2-1.5,0.2
		c-1.6-2.7-3.2-5.3-4.9-8C24.1,557.8,24.7,557.4,25.3,557z"/>
	<path class="st22" d="M48.4,316.2c5.2-1.3,10.4-2.6,15.6-3.9c0.2,0.5,0.3,1,0.5,1.5c-5.9,1.9-11.8,3.7-17.8,5.5
		C47.2,318.3,47.8,317.2,48.4,316.2z"/>
	<path class="st22" d="M124.5,273.1c2.4-1,4.8-2.1,7.3-3.1c1.7,1.3,3.3,2.6,5,3.8c-1.1,0.1-2.1,0.3-3.2,0.4c-1.2-0.3-2.3-0.6-3.5-1
		c-0.4,0.3-0.8,0.7-1.1,1C127.5,273.9,126.1,273.6,124.5,273.1L124.5,273.1z"/>
	<path class="st23" d="M132.5,586.2c-1.4,0.2-2.8,0.4-4.2,0.6c-0.2-0.5-0.3-1.1-0.5-1.6c1.6-0.7,3.1-1.4,4.7-2.1
		c2.4-0.3,4.7-0.7,7.1-1C137.2,583.5,134.8,584.8,132.5,586.2z"/>
	<path class="st22" d="M52.4,310.1c1.8-0.3,3.5-0.6,5.2-1c1.7-0.4,3.4-0.8,5-1.1c0.2,0.5,0.3,1,0.5,1.5c-4.2,1.2-8.4,2.5-12.6,3.7
		c0.4-0.7,0.8-1.4,1.2-2.1c0.3-0.3,0.5-0.7,0.8-1C52.6,310.1,52.4,310.1,52.4,310.1z"/>
	<path class="st24" d="M256.6,550.2c0.9-0.7,1.7-1.3,3.2-2.5c0.7,2.8,1.2,5.1,1.7,7.4l-0.1,0.1c-1.6-0.4-3.2-0.7-4.8-1.1
		C256.7,552.8,256.6,551.5,256.6,550.2z"/>
	<path class="st19" d="M139.6,582.1c-2.4,0.3-4.7,0.7-7.1,1c-0.4-0.4-0.8-0.8-1.2-1.1c4-1,7.9-2.1,11.9-3.2c0.2,0.2,0.3,0.3,0.5,0.5
		C142.3,580.2,140.9,581.2,139.6,582.1z"/>
	<path class="st21" d="M39.3,555.8c2.7-2.8,0-4.2-1.6-5.9c0.9-0.6,1.8-1.2,2.7-1.8c1.2,2.5,2.4,5.1,3.6,7.7c-0.3,0.3-0.5,0.7-0.8,1
		c-1,0-1.9,0-2.9,0C39.9,556.5,39.6,556.2,39.3,555.8z"/>
	<path class="st24" d="M256.4,569.6c0,0.1-0.1,0.2-0.2,0.3c-0.1-0.1-0.3-0.2-0.4-0.3c0.1-0.1,0.2-0.2,0.3-0.3
		C256.2,569.3,256.3,569.5,256.4,569.6z"/>
	<path class="st20" d="M157.1,313.3c-0.1-0.4-0.2-0.8-0.3-1.2c0.2,0.3,0.3,0.5,0.4,0.8C157.2,313,157.1,313.1,157.1,313.3z"/>
	<path class="st18" d="M52.6,310.1c-0.3,0.3-0.5,0.7-0.8,1C52,310.8,52.3,310.4,52.6,310.1z"/>
	<path class="st26" d="M156.7,428.2c0.3,0.3,0.6,0.7,0.9,1C157.2,428.9,156.9,428.5,156.7,428.2z"/>
	<path class="st19" d="M71.4,623.6c0.4,0,0.8,0.1,1.2,0.1C72.2,623.7,71.8,623.6,71.4,623.6z"/>
	<path class="st27" d="M444.8,608.8c4.3,7.6,8.7,15.3,13.4,23.6c-1.6,0.8-2.8,1.7-4.1,2.1c-10.1,3.7-20.3,7.3-30.4,10.9
		c-14.5,5-29.5,4.6-44.5,3.3c-10-0.9-20.1-2.3-29.9-4.8c-6.3-1.6-12-5.4-18-8.2c-3.1-1.4-1.6-3.5-0.7-5.4
		c3.9-7.8,7.9-15.7,11.8-23.3C376.1,620.1,409.9,620.7,444.8,608.8z"/>
	<path class="st10" d="M407.7,596.3c-1.4,2.3-2.8,4.6-4.2,6.8l0,0c-7.8-5.7-14.4-5.4-20.5,2c2.6-0.7,5.1-1.7,7.7-2
		c2.7-0.3,5.5,0.1,8.3,0.2c0,0.5,0,1,0.1,1.5c-2.7,1.3-5.5,2.6-8.4,4c-1.7-0.5-3.7-1.4-5.8-1.8c-3.3-0.6-7,0-9.8-1.4
		c-2.6-1.3-4.2-4.4-6.5-7c2.6-3.1,6-4.5,9.9-2.9c4.9,2,9.4,1.8,13.9-0.6c5.1-2.7,10-0.1,14.9,0.9C407.4,596,407.7,596.3,407.7,596.3
		z"/>
	<path class="st10" d="M376.4,609c5.1,1.3,10.3,2.7,15.9,4.1c4.6-5.1,6.1-5.3,12.8-1c2,1.2,3.4,2.1,4.9-1.1c1.7-3.6,10.9-4.9,15-2.7
		c1.6,0.8,3.1,1.7,4.5,2.5c-14.6,5-29.9,5.1-45.4,3.9c-1.8-0.1-3.7-0.1-5.4-0.7c-1.4-0.5-2.5-1.9-3.7-2.9
		C375.4,610.4,375.9,609.7,376.4,609z"/>
	<path class="st10" d="M403.5,603.2c3.4,1.7,5.1-1,6.3-3c3.2-5.5,7.3-5,12.1-2.7c2.2,1.1,4.5,2,6.7,2.9c0.3,1.7,0.6,3.4,0.9,5
		c-6.6-2.3-13.1-2.6-19.6,0.9C407,607.8,403.9,607.6,403.5,603.2C403.5,603.1,403.5,603.2,403.5,603.2z"/>
	<path class="st10" d="M358.3,605.9c0.9-0.2,1.8-0.5,2.7-0.7c2.4-0.6,5.5-2.4,7-1.5c2,1.2,2.9,4.5,4.9,7.9
		c-5.3-0.6-8.8-0.9-12.3-1.6c-0.9-0.2-1.6-1.3-2.4-2C358.2,607.3,358.3,606.6,358.3,605.9z"/>
	<path class="st27" d="M429.4,605.4c-0.3-1.7-0.6-3.4-0.9-5c4.5-0.3,8.6,0.7,11.9,4.3C436.7,604.8,433.6,612.1,429.4,605.4z"/>
	<path class="st27" d="M358.3,605.9c0,0.7-0.1,1.4-0.1,2.1c-3.7-1.3-7.5-2.5-11.2-3.7c0-0.4,0-0.8-0.1-1.3c4.3-1.3,8.7-2.6,13.2-3.9
		C359.4,601.8,358.9,603.9,358.3,605.9z"/>
	<path class="st14" d="M110.4,390.2c3.2-1.7,6.2-3.6,9.5-5c6.5-2.7,13.2-5.3,19.8-7.7c7.4-2.6,12-8.9,17.8-13.5
		c3.5,3.3,6.7,7,10.6,9.8c13.3,9.4,27.7,12.8,44.1,9.5c16.6-3.3,31.8-9.2,45.6-18.9c2.1-1.5,3.7-3.7,5.3-5.8
		c5.5-7.3,10.8-14.7,16.4-21.9c1.1-1.4,3.5-1.9,5.3-2.8c0.7,2.4,2,4.8,2,7.2c0,2.7-1,5.4-1.6,8c0.4,0.4,0.8,0.9,1.2,1.3
		c2-0.9,4.2-1.6,5.9-2.9c2.1-1.8,3.6-4.3,5.8-6c1-0.8,3-0.5,4.5-0.7c0.2,1.4,1,3.2,0.4,4.1c-2.2,3.4-5.1,6.4-7.3,9.8
		c-1,1.4-1.1,3.5-1.5,5.2c1.5,0.1,3,0.2,4.5,0.3c1.8,0,3.6,0,6.2,0c-0.5,2.4-0.2,4.8-1.3,6c-3.1,3.2-2.4,4.7,3.3,5.6
		c-4.5,3.7-7.7,7.1-11.6,9.3c-11.6,6.7-23.6,12.8-35.2,19.4c-4.3,2.4-7.9,6.1-12.1,8.7c-7.1,4.5-14.3,9.1-21.9,12.7
		c-6.5,3.1-13.6,4.8-20.4,7.1c0.6-2.4,1.5-4.7,1.9-7.1c1.7-9.4-8.9-21.4-17.6-21.9c-5.1-0.3-10.1-1.3-15.2-1.9
		c-13.4-1.6-25,8.9-16.8,22c0.4,0.7-0.3,2-0.4,3C139.3,415.8,123.2,405.5,110.4,390.2z"/>
	<path class="st27" d="M263.9,350.4c-1.8-12.5-3.6-25-5.2-37.5c-1-7.6-1.8-15.2-2.6-22.8c-0.3-2.4-0.3-4.9-0.5-7.5
		c9.4-1.1,18.5-2.2,27.5-3.4c10.5-1.4,21-3,31.6-4.4c4.6-0.6,9.2-1.2,13.8-1.7c4.2-0.4,6.5,0.9,7.1,5.8c2.4,20.4,5.2,40.8,7.8,61.2
		c1.5,11.9,2.8,23.7,4.3,35.6c0.4,3.2-1.2,4-3.8,4.6c-9.5,2.2-19.1,4.4-28.5,6.8c-10.1,2.6-20.2,5.5-30.3,8.2
		c-1.4,0.4-2.9,0.5-4.3,0.7c5.4-3.7,10.9-7.4,16.3-11.2c3.1-2.2,6.2-4.5,9-7.1c2.7-2.6,5.8-5.4,2.6-9.8c-0.4-0.6,0-1.9,0.1-2.8
		c0.5-4.9-0.3-9-6.2-10.3c2.6-5.5,8.5-10.4,2.6-16.7c-2.5-2.6-5.6-1.5-14,4.5c-0.1-2.2,0.3-4.6-0.5-6.3c-1.1-2.4-2.7-5.1-4.9-6.2
		c-1.5-0.7-5,0.5-6.3,2C273.8,338,268.9,344.3,263.9,350.4z M311.6,362.9c0,6,2.8,9.4,7.8,9.4c5.8,0.1,10.2-3.3,10.3-7.9
		c0.1-4.9-5.7-11.2-10.2-11.3C315.2,353.1,311.6,357.6,311.6,362.9z M309.9,290.5c0.9,5.3,1.8,9.8,2.6,13.3c0.7,3.4,1.1,5,2.4,5.5
		c2.3,1,6.5-1.6,8-5.1c1.6-3.9-0.5-8.3-2.9-10.7C316,289.6,310.6,290.4,309.9,290.5z M295.5,307.1c0.1-5.7-3.5-11.8-6.4-11.9
		c-4-0.1-7.6,3.4-7.6,7.5c-0.1,5,4,9.5,8.7,9.7C294.5,312.6,295.3,309.6,295.5,307.1z M309.7,302.8c-2.5-3.3-4.5-6.7-7.3-9.2
		c-2-1.8-6.4,0.7-5.9,3.5c0.5,3.3,2.2,6.6,4.1,9.5c0.8,1.2,3.8,2.3,5,1.8C307.2,307.7,308,305.3,309.7,302.8z M274.2,309.4
		c0.5-0.1,1.1-0.2,1.5-0.4c1.3-0.7,2.6-1.5,3.9-2.2c-1.3-0.5-2.6-1.2-4-1.6c-1-0.3-2-0.4-3-0.6c2.1-1.8,4.4-2.5,6.5-3.4
		c0.7-0.3,1.3-1.4,1.5-2.2c0.1-0.5-1.1-1.6-1.5-1.5c-4.3,0.9-8.5,2-14,3.4c5.5,4.8,3.2,12.1,9.7,16.6
		C274.5,313.9,274.4,311.8,274.2,309.4z"/>
	<path class="st7" d="M157.5,423.2c0.2-1,0.9-2.4,0.4-3c-8.1-13.1,3.4-23.7,16.8-22c5.1,0.6,10.1,1.6,15.2,1.9
		c8.7,0.5,19.3,12.5,17.6,21.9c-0.4,2.4-1.3,4.7-1.9,7.1C189.1,431.2,173.2,428.2,157.5,423.2z"/>
	<path class="st25" d="M142.6,421.3c-0.4,2.1-0.6,4.3-1.2,6.3c-1.3,4.6-6.4,7.7-11,6.7c-2.9-0.6-5.9-1.1-8.6-2.4
		c-1.6-0.8-3.7-3.1-3.5-4.5c0.9-5.5,0.7-12,7.9-14c0.6-0.2,1.1-0.7,1.7-1C132.7,415.4,137.6,418.3,142.6,421.3z M131.1,432.1
		c3.5,0.4,5.9-2.6,6.3-7.9c0.4-4-2.3-5.9-10.8-6.9c-6.1-0.7-5,4.9-5.8,8C119.7,429.8,123.7,430.1,131.1,432.1z"/>
	<path class="st27" d="M280.6,396.2c-0.7,0.3-1.4,0.5-2.1,0.8C279.2,396.7,279.9,396.5,280.6,396.2z"/>
	<path class="st14" d="M230.5,505.1c-0.7-0.3-1.4-0.6-2.1-0.9l0.1-0.2C229.3,504.4,229.9,504.8,230.5,505.1L230.5,505.1z"/>
	<path class="st14" d="M230.5,505.1c0.4,0.1,0.9,0.2,1.3,0.4c-0.1,0.1-0.2,0.3-0.3,0.4C231.3,505.6,230.9,505.4,230.5,505.1
		C230.5,505.1,230.5,505.1,230.5,505.1z"/>
	<path class="st9" d="M88.2,16.2c3-0.2,5.9-0.4,8.9-0.6c0.3,3.4,2.7,7.3-2,9.7c-0.6-0.3-1.4-1-1.8-0.9c-2.5,1.2-4.9,2.6-7.3,3.9
		c-0.8-1.7-1.6-3.4-2.4-5.1C85.1,20.8,86.7,18.5,88.2,16.2z"/>
	<path class="st9" d="M204.1,204.2c0.1-1.3,0.3-2.6,0.5-4C204.4,201.6,204.3,202.9,204.1,204.2z"/>
	<path class="st7" d="M113.6,185.5c1.1,1,2.2,2.2,3.4,2.9c7,4.1,8.7,12.2,3.3,16.4c-0.5,0.4-1.1,1.1-1.7,1
		c-7.1-0.2-14.4,2.4-20.9-3.1c-3.6-3-5.5-6.6-3.8-10.8c1.4-3.7,4.1-6.9,9.1-5.9c1.3,0.3,2.7-0.1,4-0.1c0.9-0.5,1.8-1,2.6-1.6
		C110.9,184.8,112.3,185.2,113.6,185.5z"/>
	<path class="st8" d="M185.5,197.2c-2-0.2-4.1-0.5-6.1-0.7c0.1-0.8,0.1-1.6,0.2-2.4c0.6,0.1,1.2,0.1,1.8,0.2c0.5,0.1,1,0.2,1.5,0.3
		c-0.4-0.3-0.7-0.5-1.1-0.8c-0.4-1-0.7-2-1.1-3.2c-1,0.5-1.8,1-2.6,1.4c0.9-3.6,1.7-7.3,2.6-10.9c0.7-0.9,1.4-1.8,2.1-2.6
		c1.9,0.6,3.9,1.1,5.9,1.6c0.5,1.3,1,2.6,1.5,4c-0.3,3-0.6,6-0.9,9.1C185.9,192.7,184.6,193.9,185.5,197.2z"/>
	<path class="st8" d="M113.6,185.5c-1.3-0.4-2.7-0.7-4-1.1c-0.7-0.8-1.4-1.5-2.1-2.3c0.2-3,0.4-6,0.6-8.9c3.1-0.8,3.9-2.9,3.5-5.8
		c2,0.6,4.1,1.1,6.1,1.7c0.6,1.2,1.2,2.4,1.8,3.6c-0.4,2.8-0.8,5.7-1.1,8.5c-2.5,0.3-5.1,0.5-4.8,4L113.6,185.5z"/>
	<path class="st4" d="M140.6,224c-4.3-1.9-8.8-3.7-13.1-5.7c-0.5-0.2-0.9-1.5-0.7-2.1s1.3-1.2,1.9-1.1c2.2,0.5,4.5,1,6.6,2
		c3.9,1.8,7.8,2.6,11.9,0.7c0.9-0.4,1.9-0.7,2.9-0.6c1.2,0.1,2.3,0.8,3.4,1.2c-0.7,0.9-1.3,2.4-2.3,2.7
		C147.8,222.2,144.3,223,140.6,224z"/>
	<path class="st4" d="M66.9,181.1c-0.4-2.8-0.8-4.9-0.9-7.1c0-0.2,2.3-0.9,2.5-0.6c1.5,1.9,3.1,3.9,3.8,6.1c0.6,1.7,0.2,3.9-0.4,5.8
		c-0.4,1.2-1.8,2.6-2.9,2.8c-1,0.1-2.8-1-3.3-2.1c-0.5-1,0.2-2.6,0.6-3.8C66.4,181.5,66.9,181,66.9,181.1z"/>
	<path class="st9" d="M190.1,184.1c-0.5-1.3-1-2.6-1.5-4c2.4,1.6,5.1,3,7.2,5c4.7,4.5,3.3,9.9-3,11.4c-2.4,0.6-4.9,0.5-7.3,0.7
		c-0.9-3.3,0.4-4.6,3.7-4c3.2,1.6,5.9,1.5,6.6-2.5C196.6,186.4,193.6,185,190.1,184.1z"/>
	<path class="st28" d="M193.6,173.8c-6.7-1.8-13.4-3.7-20.3-5.6c4-3.8,13.5-1.9,20.6,3.8C193.9,172.6,193.8,173.2,193.6,173.8z"/>
	<path class="st9" d="M119.5,172.7c-0.6-1.2-1.2-2.4-1.8-3.6c2.7,1.8,5.8,3.2,7.9,5.6c4,4.4,2.3,9.4-3.5,10.7
		c-2.7,0.6-5.6-0.1-8.5-0.2c-0.3-3.6,2.3-3.7,4.8-4c-0.1,0.9-0.2,1.8-0.3,2.6c0.4,0.4,0.8,0.7,1.3,1.1c2-1.8,5.2-3.3,5.8-5.4
		C125.9,175.9,123.1,173.5,119.5,172.7z"/>
	<path class="st28" d="M99.3,155.2c3.3-3.5,15.1-3.9,17.2-0.8c0.3,0.5-0.6,1.9-1,2.8c0,0.1-0.3,0-0.5,0
		C110,156.5,105,155.9,99.3,155.2z"/>
	<path class="st28" d="M111.6,167.4c0.4,2.9-0.4,5.1-3.5,5.8c0.1-1.4,0.2-2.8,0.3-5.8c-4.9,2-8.7,3.5-12.6,5.1
		c-0.2-0.3-0.4-0.5-0.7-0.7C98.8,167.1,105.7,165.2,111.6,167.4z"/>
	<path class="st28" d="M107.5,182.2c0.7,0.8,1.4,1.5,2.1,2.3c-0.9,0.5-1.8,1.1-2.6,1.6c-4-1.9-8.3-3.5-12-5.9
		c-2.7-1.7-3.2-4.4-0.4-6.9l0,0C97.3,181.5,101.3,184.3,107.5,182.2z"/>
	<path class="st28" d="M182.7,178.5c-0.7,0.9-1.4,1.8-2.1,2.6c-4.6-2.9-8.7,0.3-13,1.1c-0.2-0.2-0.3-0.4-0.4-0.6
		C171.8,177.7,176.9,176.6,182.7,178.5z"/>
	<path class="st28" d="M169.6,194.1c-6.9-3.9-7.8-8.5-2.4-12.3c0.1,0.2,0.3,0.4,0.4,0.5c-2.4,2.7-2.8,5.4,0.1,8.1
		c1,0.9,1.9,1.8,2.8,2.8C170.3,193.4,169.9,193.8,169.6,194.1z"/>
	<path class="st9" d="M169.6,194.1c0.3-0.3,0.6-0.6,1-0.9c2.4,0.4,4.8,0.8,7.1,1.2c0.6,0,1.2-0.1,1.9-0.1c-0.1,0.8-0.1,1.6-0.2,2.4
		C176.1,195.7,172.9,194.9,169.6,194.1z"/>
	<path class="st28" d="M94.6,173.2c0.2-0.5,0.3-1,0.5-1.5c0.2,0.2,0.5,0.5,0.7,0.7C95.4,172.7,95,172.9,94.6,173.2
		C94.6,173.2,94.6,173.2,94.6,173.2z"/>
	<path class="st15" d="M96.9,391.2c0.7,0.4,1.3,0.7,2,1.1c0.2,0.3,0.4,0.5,0.7,0.8l0.1,0.1c-1.1,2.6-1.9,5.2-3.2,7.6
		c-1.6,3-2.9,5.3,1.8,6.7c2.1,0.6,3.8,2.4,5.9,3.8c-4.8,9.1-9.2,17.9-14.1,26.5c-0.8,1.4-3.6,1.6-5.4,2.3l0.1,0
		c-4-1.9-8-3.8-11.9-5.8c-1.5-1.1-3-2.3-4.5-3.4c-1.8-1.9-2.8-3.8-1.4-6.5c6.4-11.8,12.7-23.7,19.2-35.4c0.3-0.6,2.6-0.6,3.8-0.3
		C92.1,389.4,94.5,390.4,96.9,391.2z"/>
	<path class="st19" d="M96.9,391.2c-2.4-0.8-4.8-1.8-7.2-2.4c-1.2-0.3-3.4-0.4-3.8,0.3c-6.5,11.7-12.7,23.6-19.2,35.4
		c-1.5,2.7-0.4,4.6,1.4,6.5c-2.4-0.6-5-1-7.3-2c-2.4-1-4.6-2.5-7.5-4.2c3.2-6.4,6.4-12.9,9.8-19.2c3.4-6.5,7.1-13,10.7-19.5
		c2.1-3.8,4-8.1,9.5-4c0.5,0.4,1.6,0,2.4,0l0,0c2.1,1.6,4.2,3.1,6.2,4.8C93.5,388.3,95.2,389.8,96.9,391.2z M63.5,420.1
		c6.3-2.2,6.9-8.7,9.8-13.4c0.1-0.1-1.1-1-1.7-1.6c-0.3-0.9-0.6-1.9-1.1-3.6c3.7,4.8,5.4,1.7,6.6-0.6c2-3.8,3.7-7.8,5.4-11.7
		c0.7-1,1.4-2.1,2.3-3.5c-2.3-1-4.2-1.9-6.3-2.8c-1.4,2.4-2.5,4.4-3.6,6.4c-2.8,5.6-5.6,11.3-8.5,16.9c-2,4.7-3.9,9.4-5.9,14
		c-1,0.6-2.7,1.1-2.8,1.9c-0.1,1,0.6,2.7,1.5,3.2c1.1,0.6,2.7,0.3,4,0.4C63.3,423.7,63.4,421.9,63.5,420.1z"/>
	<path class="st19" d="M127.5,498.1c-0.2-8.9-0.8-17.8-0.3-26.6c0.3-6,2.1-11.9,3.4-17.7c0.2-0.9,1.3-1.6,2.8-3.1
		c1.3,4.5,3.1,8.2,3.2,11.9c0.4,11.8,0.1,23.6,0,35.3c0,0.8-0.5,1.5-0.8,2.3C132.9,499.5,130.2,498.8,127.5,498.1z M129.6,478.9
		c0,0-0.1,0-0.1,0c0,4-0.2,8,0.1,12c0.1,1.5,1.3,2.9,1.9,4.3c1-1.5,2.7-2.9,2.8-4.4c0.3-8.3,0.3-16.6,0.1-25c0-1.1-1.3-2.2-2.1-3.3
		c-0.9,1.1-2.5,2.2-2.6,3.4C129.4,470.3,129.6,474.6,129.6,478.9z"/>
	<path class="st17" d="M104.5,328.1c3-0.4,6-0.7,9-1c0.7,0.1,1.3,0.1,2,0.2c3.6,0.9,7.2,1.8,10.8,2.7c0.2,0.7,0.3,1.3,0.5,2
		c-4.6,2.4-8.9,5.8-13.8,7.1c-7.6,2-15.6,2.6-23.4,3.8c0.1-0.6,0.2-1.2,0.2-1.8c4.3-0.6,8.6-1.3,12.9-1.9c-0.1-0.4-0.1-0.8-0.2-1.1
		c-3.3,0.4-6.6,0.8-9.9,1.1c-1.8-0.5-3.6-1.1-5.9-1.8c0.7-1.2,1.4-2.2,2.1-3.2c0.3,0,0.6,0,0.9,0c0.7,0.7,1.3,1.4,2,2
		c7.6,2.4,14.4-1.5,21.6-2.3c-0.1-0.6-0.2-1.3-0.2-1.9c-6.8,1.1-13.5,2.1-20.3,3.2c0-0.6,0-1.3,0-2c6.3-1,12.7-1.9,19.1-2.9
		c-0.1-0.2-0.1-0.4-0.2-0.6C109.1,329.2,106.8,328.7,104.5,328.1z M112.7,337.1c-0.1-0.4-0.2-0.8-0.2-1.1c-2.6,0.5-5.1,1-7.7,1.5
		c0.1,0.4,0.2,0.8,0.2,1.2C107.7,338.1,110.2,337.6,112.7,337.1z"/>
	<path class="st22" d="M84.5,440.1c1.9-0.8,4.7-1,5.4-2.3c4.9-8.6,9.4-17.4,14.1-26.5c-2.1-1.4-3.9-3.1-5.9-3.8
		c-4.7-1.4-3.4-3.7-1.8-6.7c1.3-2.4,2.2-5.1,3.2-7.6c1.4,1,3.2,1.7,4,3c6.8,11.6,0.7,21.3-4.8,31.1c-2.5,4.5-4.8,9-7.4,13.4
		c-0.6,1.1-2.3,2.5-3.1,2.3C86.9,442.7,85.8,441.1,84.5,440.1z M103.6,406.1c0.1,0.2,0.2,0.3,0.4,0.5c0-0.1,0-0.2,0-0.3
		C103.8,406.3,103.7,406.2,103.6,406.1c-0.6-2.3-1.1-4.5-1.7-6.8c-0.5,0-1.1-0.1-1.6-0.1c-0.6,1.6-2,3.8-1.4,4.8
		C99.5,405.2,101.9,405.5,103.6,406.1z"/>
	<path class="st12" d="M77,474.9c2.8,1.9,5.9,3.5,8.4,5.8c5.4,4.8,10.7,9.9,15.8,15c1,1,1.9,3.9,1.4,4.5c-6.5,7.1-13.3,14-20,21
		c-0.4-0.6-0.8-1.2-1.2-1.8c6.3-6.8,12.6-13.7,19.3-21.1c-8.2-7.5-16.3-14.9-24.3-22.3C76.7,475.6,76.8,475.3,77,474.9z"/>
	<path class="st20" d="M26.6,389.1c1.8-4.7,3.6-9.4,5.4-14.1c3.8-1.2,6.6,0.4,8.8,3.3c-2.7,7-5.3,14-8,20.9
		c-0.5-0.6-0.9-1.3-1.4-1.9c2.7-6.7,2.7-6.7-0.6-11.6C29.5,386.9,28.1,388,26.6,389.1z"/>
	<path class="st29" d="M31.5,397.4c0.5,0.6,0.9,1.3,1.4,1.9c-2.1,5.6-4.2,11.2-6.3,16.9c-1,0-1.9-0.1-2.9-0.1
		c-0.6-0.4-1.2-0.8-1.9-1.1c-0.3-2.7-0.6-5.4-0.9-8c1-3.8,2-7.7,3-11.5c0.2,0,0.5-0.1,0.6-0.3C26.9,395.8,29.2,396.6,31.5,397.4z"/>
	<path class="st23" d="M145.6,341.4c0.5-8,0.8-15.3,1.5-22.5c0.1-1.2,1.7-2.3,2.6-3.5c0.9,1,2.7,1.9,2.7,2.9
		c-0.1,7.1-0.2,14.2-1.1,21.2C150.8,343.4,147.7,342.4,145.6,341.4z"/>
	<path class="st21" d="M81.5,519.4c0.4,0.6,0.8,1.2,1.2,1.8c-1.3,0.1-3.2,0.9-3.9,0.3c-8-7.4-15.9-14.9-23.7-22.5
		c-0.9-0.9-1-2.5-1.5-3.8c0.7,0,1.5,0,2.2,0c5.9,6,11.6,12,17.6,17.9C75.8,515.4,78.8,517.3,81.5,519.4z"/>
	<path class="st17" d="M55.8,495.2c-0.7,0-1.5,0-2.2,0c0.5-0.8,0.8-2.2,1.5-2.4c6.8-2,8.9-8.6,13.1-13c1.1-1.1,3.2-1.4,5-2.1
		c0.4-1.5,0.9-3.3,1.8-6.4c1.1,2,1.5,2.9,2,3.8c-0.2,0.4-0.3,0.7-0.5,1c-0.5,1.6-1.1,3.3-1.5,4.7C65.6,481.9,64.7,493.9,55.8,495.2z
		"/>
	<path class="st25" d="M33.4,371.1c1.9-3.6,3.5-7.3,5.7-10.6c0.7-1,3.3-1.2,4.8-1c0.7,0.1,1.6,2.4,1.4,3.6
		c-0.6,3.8-1.7,7.5-2.7,11.3c-0.5-0.5-1-1-1.6-1.6c0.4-1.3,1.3-2.6,1.2-3.7c-0.2-1.3-1.4-2.5-2.1-3.8c-1.1,0.8-2.5,1.4-3.2,2.4
		c-0.5,0.8-0.2,2.2-0.3,3.3C35.7,371,34.5,371.1,33.4,371.1z"/>
	<path class="st22" d="M35.6,456.1c0.7,1,1.3,2,2,3.1c-0.5,7.9-1,15.9-1.5,23.8c-1.2-0.3-2.4-0.5-3.5-0.8c0.6-1.4,1.7-2.8,1.8-4.3
		C34.9,470.7,35.2,463.4,35.6,456.1z"/>
	<path class="st21" d="M89.7,341c-0.1,0.6-0.2,1.2-0.2,1.8c-3.3,0.3-6.6,0.5-9.8,0.8c0.4-1.3,0.8-2.6,1.2-3.9
		c1.2-3.8,2.3-7.6,7.7-6.7c0.1,0.4,0.1,0.7,0.2,1.1c-0.7,1-1.3,2-2.1,3.2c2.3,0.7,4.1,1.2,5.9,1.8C91.6,339.7,90.7,340.4,89.7,341z"
		/>
	<path class="st16" d="M31.5,397.4c-2.3-0.8-4.6-1.6-7-2.3c0.7-2,1.4-4,2-5.9c1.5-1.1,2.9-2.2,4.3-3.3
		C34.2,390.7,34.2,390.7,31.5,397.4z"/>
	<path class="st19" d="M128.5,297c0-0.6,0-1.2,0-1.8c2.4,0.3,4.7,0.5,7.1,0.8c-2.5-1.9-5.3-2.3-7.8-3.4c-1.8-0.7-3.2-2.3-4.7-3.5
		c4.5,1.1,9.1,2,13.4,3.5c1.3,0.5,1.8,3,2.7,4.5c-1.5,0.5-3,1.5-4.5,1.4C132.6,298.5,130.6,297.6,128.5,297z"/>
	<path class="st16" d="M21.8,414.9c0.6,0.4,1.2,0.8,1.9,1.1c-1.1,3.7-2.1,7.4-3.2,11.1c-0.6,0.6-1.2,1.2-1.9,1.9
		c-0.7-0.9-2-1.8-2-2.6c0.1-3.1,0.6-6.1,0.9-9.2C19,416.4,20.4,415.7,21.8,414.9z"/>
	<path class="st29" d="M127.5,498.1c2.7,0.7,5.5,1.3,8.2,2c-0.1,1.7-0.2,3.3-0.4,5c-0.3,0.6-0.6,1.2-0.9,1.8
		C127.3,507.4,127.3,507.4,127.5,498.1z"/>
	<path class="st25" d="M17.5,417.2c-0.3,3.1-0.8,6.1-0.9,9.2c0,0.9,1.3,1.8,2,2.6c-1.3,1.9-0.9,5.7-5.4,4.6
		c0.5-5.2,1.1-10.3,1.6-15.5c0.3-0.3,0.5-0.6,0.8-0.9l0.1,0C16.3,417.2,16.9,417.2,17.5,417.2z"/>
	<path class="st21" d="M33.4,371.1c1.1,0,2.3-0.1,3.4-0.1c1.5,0.6,2.9,1.2,4.3,1.8c0.5,0.5,1,1,1.6,1.6c-0.6,1.3-1.3,2.7-1.9,4
		c-2.2-3-5-4.5-8.8-3.3C32.5,373.8,33,372.4,33.4,371.1z"/>
	<path class="st20" d="M80.8,339.7c-0.4,1.3-0.8,2.6-1.2,3.9c-4.3-1.4-5.3-5.4-2.6-9.5C78.3,336,79.6,337.9,80.8,339.7z"/>
	<path class="st12" d="M88.6,334.1c-0.1-0.4-0.1-0.7-0.2-1.1c0.9-0.4,1.8-0.7,2.8-1.1c4-1.6,9.3,0.8,12.3-3.8c0.3,0,0.7-0.1,1,0
		c2.3,0.5,4.6,1,6.9,1.6c0.1,0.2,0.1,0.4,0.2,0.6c-6.3,1-12.7,1.9-19.1,2.9c-1,0.3-2,0.6-3.1,0.9C89.2,334.1,88.9,334.1,88.6,334.1z
		"/>
	<path class="st19" d="M17.5,417.2c-0.6,0-1.2,0-1.9,0c1-3,2-6,3.1-9c0.8-0.5,1.5-0.9,2.2-1.4c0.3,2.7,0.6,5.4,0.9,8
		C20.4,415.7,19,416.4,17.5,417.2z"/>
	<path class="st29" d="M91.2,332c-0.9,0.4-1.8,0.7-2.8,1.1c-5.3-0.9-6.5,2.8-7.7,6.7c-1.2-1.9-2.5-3.7-3.7-5.6
		c2.4-1,4.9-2.1,7.3-3.1c1.4,0,2.8,0.1,4.1,0.2C89.4,331.4,90.3,331.7,91.2,332z"/>
	<path class="st18" d="M123.1,289.1c1.6,1.2,2.9,2.8,4.7,3.5c2.5,1.1,5.3,1.5,7.8,3.4c-2.4-0.3-4.7-0.5-7.1-0.8
		c-1.1-0.3-2.1-0.9-3.2-0.9c-3.6-0.2-4.4-2-3.1-5.1C122.5,289.2,122.8,289.2,123.1,289.1z"/>
	<path class="st22" d="M72.7,434.4c4,1.9,8,3.8,11.9,5.8C79.5,440.5,76.1,437.4,72.7,434.4z"/>
	<path class="st20" d="M20.5,427.2c1.1-3.7,2.1-7.4,3.2-11.1c1,0,1.9,0.1,2.9,0.1C25.5,420.4,25.3,425.1,20.5,427.2z"/>
	<path class="st17" d="M91.2,332c-0.9-0.3-1.8-0.5-2.7-0.8c0-0.3,0-0.6,0-0.9c5-0.7,10-1.4,15-2.1C100.5,332.8,95.2,330.4,91.2,332z
		"/>
	<path class="st19" d="M88.6,330.3c0,0.3,0,0.6,0,0.9c-1.4,0-2.8-0.1-4.1-0.2C85.8,330.8,87.2,330.5,88.6,330.3z"/>
	<path class="st19" d="M115.5,327.3c-0.7-0.1-1.3-0.1-2-0.2C114.2,327.1,114.8,327.2,115.5,327.3z"/>
	<path class="st19" d="M134.4,507c0.3-0.6,0.6-1.2,0.9-1.8C135,505.8,134.7,506.4,134.4,507z"/>
	<path class="st17" d="M130.1,273.3c1.2,0.3,2.3,0.6,3.5,1C132.4,273.9,131.3,273.6,130.1,273.3z"/>
	<path class="st19" d="M15.6,417.3c-0.3,0.3-0.5,0.6-0.8,0.9C15.1,417.9,15.3,417.5,15.6,417.3z"/>
	<path class="st22" d="M99.5,393.1c-0.2-0.3-0.4-0.5-0.7-0.8C99.1,392.6,99.3,392.8,99.5,393.1z"/>
	<path class="st15" d="M142.6,518.1c0.7,0,1.3,0,2,0c1.7,0,3.3,0,5,0c9.4,3,9.8,3.8,7.2,13c-0.1,0.3-0.1,0.7-0.1,1
		c-0.4,0.4-0.7,0.7-1.1,1.1c-2.5,2.7-4.9,5.4-6.9,7.5c-2.1,0-4.1-0.1-6.2,0c-3.8,0.1-7.6,0.9-11.3,0.4c-4.8-0.6-7.7-6.1-5.7-10.5
		c1.5-3.3,3.9-6.2,6-9.3c0.7-0.3,1.3-0.7,2-1C136.5,519.5,139.6,518.8,142.6,518.1z"/>
	<path class="st22" d="M239.4,541.9c0.4,0.4,0.8,0.9,1.3,1.3c-4.2,8.1-8.4,16.3-12.6,24.4c-0.9,1.7-1.9,3.4-2.8,5.1
		c-1.4,2.7-2.1,5.3,1,7.3c-4.8-1.7-9.6-3.4-15.9-5.6c4-6.4,7.4-12.1,10.9-17.7c0.3,0.3,0.6,0.6,0.9,0.9c-1.1,3.3-2.3,6.7-3.4,10
		c0.7,0.9,1.3,1.9,2,2.8c0.6-0.7,1.2-1.5,1.9-2.2c3-1.4,9.1-10.8,8.7-13.5c0-0.3-1.1-0.5-1.7-0.7c-1,0-2,0-3,0
		c-0.3,0-0.5-0.1-0.8-0.1c1.2-0.9,2.4-1.8,3.4-2.6c2,2.8,3.7,1.9,5.1-0.5C236.1,548,237.7,544.9,239.4,541.9z"/>
	<path class="st19" d="M131.5,521.2c-2,3.1-4.5,6-6,9.3c-2,4.5,0.9,9.9,5.6,10.5c3.7,0.5,7.5-0.3,11.3-0.4c2.1-0.1,4.1,0,6.2,0
		c1.9-2.1,4.4-4.8,6.9-7.5c-2.2,5.6-4.3,11.1-6.5,16.7c-2-9.9-9.2-5.5-14.4-5.7c-6.6-0.3-10.5-2.7-11.9-7.7
		c-1.4-5.1,1.2-11.9,5.9-14.8C129.4,521.3,130.6,521.4,131.5,521.2z"/>
	<path class="st29" d="M190.9,548.4c-2.1,5.6-4.2,11.2-6.3,16.8c-1,0-1.9-0.1-2.9-0.1c-0.6-0.4-1.2-0.8-1.9-1.2
		c-0.3-2.7-0.5-5.4-0.8-8c1-3.5,2-7,3-10.5c0.9-0.1,1.8-0.2,2.7-0.3c1.6,0.5,3.2,1,4.8,1.5C189.9,547.1,190.4,547.7,190.9,548.4z"/>
	<path class="st20" d="M184.7,544.9c-0.9,0.1-1.8,0.2-2.7,0.3c-0.1-0.4-0.3-0.7-0.4-1.1c2.8-6.7,5.6-13.5,8.4-20.2
		c1,0.5,2.1,1.1,3.3,1.8c0.2-0.4,0.6-1.3,1.2-2.5c1.7,1.6,3.1,2.9,4.4,4.2c-0.7,1.9-1.4,3.9-2.1,5.8c-1.4,2-2.8,4-4.2,6
		c-1.3-1.7-2.6-3.3-4.2-5.4C187.1,537.8,185.9,541.3,184.7,544.9z"/>
	<path class="st25" d="M85.4,553.1c-0.9,3.3-1.5,6.8-3,9.8c-1.1,2.1-3.9,4.9-5.4,4.7c-3.5-0.6-8.3-0.2-9.5-5.3
		c0-0.4,0.1-0.8,0.1-1.2c3.3,0.1,7.4,1.5,9.7,0c2.4-1.6,3-5.8,4.4-9C82.9,552.5,84.2,552.8,85.4,553.1z"/>
	<path class="st20" d="M85.4,553.1c-1.3-0.3-2.5-0.7-3.8-1c-0.5-5.5-5.2-5.7-8.9-6.8c-0.8-0.2-2.5,0.6-2.8,1.4
		c-1.8,4.6-5.1,9.1-2.4,14.5c0,0.4-0.1,0.8-0.1,1.2c-5-1.1-4.1-4.8-3.6-8.2c0.2-1.3,1-2.4,1.6-3.6c1.6-3.3,1.6-8.7,7.3-7.6
		C80.6,544.3,85.3,546.8,85.4,553.1z"/>
	<path class="st23" d="M181.6,544.2c0.1,0.4,0.3,0.7,0.4,1.1c-1,3.5-2,7-3,10.5c-0.8,0.5-1.5,0.9-2.2,1.4
		c-0.4-5.1-0.8-10.3-0.9-15.4c0-0.3,2.6-1.2,3.7-0.8C180.4,541.4,180.9,543.1,181.6,544.2z"/>
	<path class="st16" d="M179.8,563.9c0.6,0.4,1.2,0.8,1.9,1.2c-1.1,3.7-2.1,7.4-3.2,11.1c-0.6,1-1.2,2-1.8,3c-3.8-3.7-2.2-7.8-1.2-12
		C176.9,566,178.4,565,179.8,563.9z"/>
	<path class="st17" d="M167.5,631.9c-0.7,1.1-1.4,2.3-2.1,3.4c-0.6-1-1.6-2-1.6-2.9c0.4-8.9,0.9-17.9,1.6-26.8
		c0.1-0.9,1.8-1.7,2.7-2.5C167.9,612.7,167.7,622.3,167.5,631.9z"/>
	<path class="st19" d="M28.3,566.3c0.5-0.1,1-0.2,1.5-0.2c4.5-2.4,8.9-4.8,13.3-7.3c0.3-0.2,0-1.2,0-1.9c0.3-0.3,0.5-0.7,0.8-1
		c3.6,1.9,3.1,4,0.2,5.9c-3.6,2.4-7.3,4.5-10.8,6.9C30.2,570.7,28.8,569.6,28.3,566.3z"/>
	<path class="st22" d="M156.6,532c0-0.3,0-0.7,0.1-1c2.6-9.2,2.2-10-7.2-13c-0.3-0.6-0.7-1.3-1-1.9c10.1,0,14.7,5.6,11.1,13.6
		C159.2,530.8,157.7,531.3,156.6,532z"/>
	<path class="st22" d="M66.7,585.1c-0.5,0.1-1.1,0.2-1.6,0.3c-4.5,0.9-9,1.9-13.5,2.8c0-0.6,0-1.3,0-1.9c3.6-1.4,7.2-2.7,10.8-4.2
		C65.5,580.8,66.7,582.1,66.7,585.1z"/>
	<path class="st17" d="M191.1,601.1c-3.4,0.3-6.8,0.8-10.1,1c-4.1,0.3-8.3,0.4-12.4,0.5c0.7-1.1,1.4-3.1,2.1-3.1
		C177.4,599.9,184.3,600.5,191.1,601.1z"/>
	<path class="st17" d="M179.8,563.9c-1.4,1.1-2.9,2.2-4.3,3.3c-0.6,0-1.3,0-1.9,0c1.1-3.3,2.1-6.6,3.2-10c0.8-0.5,1.5-0.9,2.2-1.4
		C179.3,558.5,179.5,561.2,179.8,563.9z"/>
	<path class="st18" d="M142.1,601.1c-0.1,0.7-0.1,1.3-0.2,2c-4.5-1-8.9-1.9-13.4-2.9c0-0.4,0.1-0.8,0.1-1.2c1.1-0.6,2.3-1.3,3.5-1.9
		l0,0c0.5,0.4,1,0.8,1.5,1.2c0.3-0.1,0.7-0.2,1-0.2l0,0C137.1,599.2,139.6,600.2,142.1,601.1L142.1,601.1z"/>
	<path class="st25" d="M192.6,539.1c1.4-2,2.8-4,4.2-6c-2,5.1-3.9,10.1-5.9,15.2c-0.4-0.6-0.9-1.3-1.3-1.9
		C190.5,544,191.6,541.6,192.6,539.1z"/>
	<path class="st25" d="M173.6,567.2c0.6,0,1.3,0,1.9,0c-1,4.1-2.6,8.3,1.2,12c-0.4,0.4-0.8,0.8-1.1,1.2c-1.1,0-2.2-0.1-3.3-0.2
		C172.7,575.8,173.1,571.5,173.6,567.2z"/>
	<path class="st20" d="M178.4,576.2c1.1-3.7,2.1-7.4,3.2-11.1c1,0,1.9,0.1,2.9,0.1C183.5,569.3,183.3,574.1,178.4,576.2z"/>
	<path class="st12" d="M142.6,518.1c-3,0.7-6,1.3-9.1,2c0-0.3,0.1-0.5,0-0.8c0.4-0.4,0.9-0.8,1.3-1.1
		C137.4,518.2,140,518.1,142.6,518.1z"/>
	<path class="st17" d="M142.1,601.2c-2.5-1-5-2-7.5-3C137.1,599.2,139.6,600.2,142.1,601.2z"/>
	<path class="st16" d="M172.3,580.2c1.1,0,2.2,0.1,3.3,0.2c-1.4,0.7-2.7,1.4-4,2.1C171.8,581.7,172,580.9,172.3,580.2z"/>
	<path class="st21" d="M51.6,586.3c0,0.6,0,1.3,0,1.9c-2,0.3-4,0.7-6,1C47.6,588.2,49.6,587.3,51.6,586.3z"/>
	<path class="st12" d="M148.6,516.2c0.3,0.6,0.7,1.3,1,1.9c-1.7,0-3.3,0-5,0C145.9,517.5,147.2,516.8,148.6,516.2z"/>
	<path class="st17" d="M97.5,580.1c0.7,0,1.3,0,2,0c-0.7,1.2-1.3,2.3-1.9,3.5C97.5,582.5,97.5,581.3,97.5,580.1z"/>
	<path class="st17" d="M192.5,603.2c-0.5-0.7-1-1.4-1.5-2C191.5,601.8,192,602.5,192.5,603.2z"/>
	<path class="st19" d="M133.5,598.4c-0.5-0.4-1-0.8-1.5-1.2c0.5,0,1,0,1.5,0C133.5,597.5,133.5,598,133.5,598.4z"/>
	<path class="st17" d="M133.5,598.4c0-0.4,0-0.8,0-1.3c0.3,0.3,0.7,0.7,1,1C134.2,598.2,133.8,598.3,133.5,598.4z"/>
	<path class="st15" d="M134.8,518.2c-0.4,0.4-0.9,0.8-1.3,1.1C134,518.9,134.4,518.6,134.8,518.2z"/>
	<path class="st19" d="M188.6,627.2c-4.8-0.1-9.6,0.1-14.3-0.4c-1.5-0.2-3.7-2-4-3.5c-0.5-2.5,1.4-3.6,4.1-3.3
		c2.5,0.2,4.9,0.1,7.4,0.2C188.6,620.3,188.6,620.3,188.6,627.2C188.6,627.2,188.6,627.2,188.6,627.2z M173.1,622.7
		c4.1,1.8,8.2,3.3,12.3,1.5c0-0.5,0-1,0-1.5C181.3,622.7,177.2,622.7,173.1,622.7z"/>
	<path class="st20" d="M7.5,524.2c0.3-0.3,0.7-0.7,1.1-1C8.2,523.5,7.9,523.8,7.5,524.2z"/>
	<path class="st15" d="M92.4,269.2c2-0.4,4-1.2,6-1.1c6.1,0.1,12.1,0.6,18.2,0.9c0,0.6,0,1.1,0,1.7c-0.5,0.5-1,0.9-1.5,1.4
		c-0.2,7.4-0.4,14.8-0.6,22.1c-1.2,1-2.4,2.9-3.7,3c-5,0.3-10,0-15,0.1c-2.6,0-3.5-1-3.4-3.6c0.1-3.1-0.1-6.3-0.1-9.5
		c0.4-3.4,0.8-6.8,1.2-10.2c1.1,0.4,2.2,0.8,3.3,1.1c5.8,1.7,7.4,5.9,4.3,10.9c-0.7,1.1-1.4,3.5-1,3.8c3.1,2,6.4,3.7,9.7,5.5
		c0.3-0.6,0.7-1.2,1-1.8c-1.7-1.1-3.3-2.2-5-3.2c-2-1.1-3.6-2.7-1.3-4.6c4.8-4,2.6-6.9-1-10c-1.1-1-2.4-2-3.1-3.2
		c-2.2-4-4.5-2.9-6.9-0.3C93.2,271.3,92.8,270.2,92.4,269.2z"/>
	<path class="st19" d="M114.5,294.2c0.2-7.4,0.4-14.8,0.6-22.1c0.5,0,0.9,0.1,1.4,0.1c-0.1,7-0.2,14.1-0.2,21.1
		C115.6,293.6,115.1,293.9,114.5,294.2z"/>
	<path class="st18" d="M136,283.5c-4.8,0-9.5,0-14.3,0c0-0.7,0-1.4,0.1-2c4.8,0.2,9.6,0.5,14.3,0.7C136,282.6,136,283.1,136,283.5z"
		/>
	<path class="st22" d="M124.6,273.2c-0.9,0.7-1.9,1.4-2.8,2.1c-0.3-0.5-0.5-1.1-0.8-1.6C122.2,273.5,123.3,273.3,124.6,273.2
		C124.5,273.1,124.6,273.2,124.6,273.2z"/>
	<path class="st12" d="M98.4,639.1c6.7-1.1,13.4-2.2,20.1-3.3c0.1,0.5,0.2,1,0.2,1.4c-6.7,1.1-13.4,2.1-20.1,3.2
		C98.6,640,98.5,639.5,98.4,639.1z"/>
	<path class="st22" d="M53.6,613.2c-1.5,0.2-3,0.5-4.5,0.7c-0.1-0.4-0.2-0.7-0.3-1.1c5-2.1,9.9-4.2,14.9-6.2c1.2,0,2.4,0,4.1,0
		c-0.9,1.5-1.6,2.6-2.2,3.6l0,0c-2,0.7-4,1.3-6,2c0,0,0,0,0,0C57.6,612.5,55.6,612.8,53.6,613.2z"/>
	<path class="st22" d="M63.6,605.2c-5.4,1.6-10.8,3.2-16.2,4.9c-0.2-0.6-0.4-1.2-0.6-1.8c6.3-2.1,12.5-4.1,18.8-6.2
		C64.9,603.1,64.3,604.2,63.6,605.2z"/>
	<path class="st22" d="M60.6,592.2c-4.5,1.4-9.1,3-13.7,4.2c-1.3,0.4-3-0.2-4.4-0.3c6.4-2.4,12.9-4.7,19.3-7.1
		c0.2,0.3,0.5,0.7,0.7,1C61.8,590.8,61.2,591.5,60.6,592.2z"/>
	<path class="st19" d="M64.5,600.1c-6.1,1.9-12.2,3.7-18.3,5.6c-0.2-0.4-0.3-0.8-0.5-1.1c5.6-2.2,11.2-4.3,16.8-6.5
		C63.2,598.8,63.9,599.4,64.5,600.1z"/>
	<path class="st19" d="M62.6,596.2c-5.7,1.8-11.5,3.5-17.2,5.3c-0.1-0.4-0.3-0.8-0.4-1.2c5.3-2.2,10.5-4.3,15.8-6.5
		C61.3,594.6,62,595.4,62.6,596.2z"/>
	<path class="st15" d="M53.6,613.2c2-0.3,4-0.7,6-1c-2,0.8-4,1.7-5.9,2.5C53.6,614.2,53.6,613.7,53.6,613.2z"/>
	<path class="st18" d="M143.2,578.8c-3.9,1-7.9,2.1-11.9,3.2c-2.3,0.2-3.7-0.2-1.8-2.8c3.5-0.6,7-1.3,10.5-1.7
		C141.1,577.4,142.2,578.3,143.2,578.8z"/>
	<path class="st15" d="M35.6,456.1c-0.4,7.3-0.7,14.5-1.3,21.8c-0.1,1.5-1.2,2.9-1.8,4.3c-7.4-0.3-14.8-0.6-22.2-0.9
		c-0.4,0-0.9,0.5-1.3,0.7c-0.4-0.4-0.9-0.7-1.3-1.1c0.2-1.9,0.3-3.8,0.5-5.7c0.2-5,0.3-10,0.5-14.9c0.3-6.3,1.2-7.2,7.4-7.2
		c4.2,0,8.4-0.2,12.5,0.3C31,453.6,33.3,455.2,35.6,456.1z M21.7,471.2c0-0.1,0-0.1,0-0.2c-1.8,0-3.7,0.2-5.5,0
		c-2.8-0.4-4.4,1.1-4,3.5c0.2,1.3,2.3,3.1,3.8,3.3c3.6,0.5,7.3,0.2,10.9,0.3c2.5,0.1,3.7-0.8,3.7-3.4c0-2.5-0.8-3.8-3.5-3.6
		C25.4,471.3,23.5,471.2,21.7,471.2z"/>
	<path class="st19" d="M7.7,480.9c0.4,0.4,0.8,0.7,1.3,1.1c-0.2,0.6-0.4,1.2-0.5,1.8C8.2,482.8,8,481.8,7.7,480.9z"/>
	<path class="st16" d="M193.9,516.8c1.7-1.1,3.3-2.2,5-3.2c0.6,1.6,2.2,3.6,1.7,4.7c-1.5,3.7-3.8,1.2-5.9,0.3
		C194.5,518,194.2,517.4,193.9,516.8z"/>
	<path class="st24" d="M239.4,541.9c-1.7,3-3.3,6.1-5.1,9.1c-1.4,2.4-3.2,3.3-5.1,0.5c-1,0.8-2.2,1.7-3.4,2.6
		c-0.4,0-0.8,0.1-1.1,0.1c2-3.9,4.1-7.7,6.1-11.6c0.8-1.4,1.4-2.9,2.1-4.4c1.2,0,2.3,0,3.5,0C237.3,539.4,238.4,540.7,239.4,541.9z"
		/>
	<path class="st15" d="M224.6,554.2c0.4,0,0.8-0.1,1.1-0.1c0.3,0,0.6,0,0.8,0.1c0.6,0.9,1.1,1.8,1.7,2.7c0.4-0.9,0.9-1.8,1.3-2.7
		c0.6,0.2,1.6,0.4,1.7,0.7c0.4,2.7-5.8,12.1-8.7,13.5c-1.3-0.2-2.6-0.4-3.9-0.6c1.1-3.3,2.3-6.7,3.4-10
		C222.9,556.5,223.7,555.3,224.6,554.2z"/>
	<path class="st18" d="M236.3,538.2c-1.2,0-2.3,0-3.5,0c1.1-2,2.3-3.9,3.4-5.9c6.9,1.5,6.9,1.5,4.9,5.8
		C239.3,538.2,237.8,538.2,236.3,538.2z"/>
	<path class="st19" d="M95.9,591.6c-0.1-0.7-0.1-1.1-0.2-1.5c0.3,0.2,0.6,0.3,0.7,0.5C96.5,590.8,96.2,591.2,95.9,591.6z"/>
	<path class="st24" d="M261.6,555.1c0.1,0.2,0.3,0.4,0.4,0.5C261.8,555.5,261.6,555.3,261.6,555.1L261.6,555.1z"/>
	<path class="st21" d="M37.5,557.1c0.6-0.4,1.2-0.8,1.8-1.3c0.3,0.3,0.6,0.7,1,1c-0.9,0.6-1.7,1.1-2.6,1.7
		C37.6,558,37.6,557.6,37.5,557.1z"/>
	<path class="st25" d="M37.5,557.1c0,0.5,0.1,1,0.1,1.4c-0.6,0.3-1.2,0.6-1.8,0.9c-0.2-0.2-0.3-0.4-0.5-0.6
		C36,558.3,36.8,557.7,37.5,557.1z"/>
	<path class="st17" d="M116.4,272.2c-0.5,0-0.9-0.1-1.4-0.1c0.5-0.5,1-0.9,1.5-1.4C116.5,271.1,116.5,271.6,116.4,272.2z"/>
	<path class="st12" d="M93.5,272.3c2.4-2.5,4.7-3.7,6.9,0.3c0.7,1.3,1.9,2.3,3.1,3.2c3.6,3,5.8,5.9,1,10c-2.2,1.9-0.7,3.4,1.3,4.6
		c1.7,1,3.3,2.1,5,3.2c-0.3,0.6-0.7,1.2-1,1.8c-3.3-1.8-6.6-3.5-9.7-5.5c-0.4-0.2,0.3-2.7,1-3.8c3-5,1.4-9.1-4.3-10.9
		c-1.1-0.3-2.2-0.7-3.3-1.1C93.5,273.5,93.5,272.9,93.5,272.3z"/>
	<path class="st15" d="M59.5,612.2c2-0.7,4-1.3,6-2C63.6,610.8,61.6,611.5,59.5,612.2z"/>
	<path class="st18" d="M35.8,559.4c0.6-0.3,1.2-0.6,1.8-0.9c0.9-0.6,1.7-1.1,2.6-1.7c1,0,2,0,2.9,0c0,0.7,0.3,1.7,0,1.9
		c-4.4,2.5-8.9,4.9-13.4,7.3C31.8,563.8,33.8,561.6,35.8,559.4z"/>
	<path class="st0" d="M311.6,362.9c0-5.3,3.6-9.8,7.9-9.7c4.5,0.1,10.3,6.4,10.2,11.3c-0.1,4.6-4.5,7.9-10.3,7.9
		C314.4,372.3,311.6,368.9,311.6,362.9z"/>
	<path class="st6" d="M309.9,290.5c0.7-0.1,6-0.9,10,3c2.4,2.4,4.5,6.6,2.9,10.6c-1.4,3.6-5.6,6.3-8,5.2c-1.3-0.6-1.7-2.2-2.4-5.7
		C311.7,300.1,310.9,295.6,309.9,290.5z M316.8,304.7c4.6-3.9,3.9-7.1-2.9-9.8C315,298.5,315.9,301.6,316.8,304.7z"/>
	<path class="st6" d="M295.5,307.1c-0.2,2.5-1,5.5-5.4,5.3c-4.7-0.2-8.8-4.7-8.7-9.7c0.1-4.1,3.7-7.6,7.6-7.5
		C292.1,295.3,295.6,301.4,295.5,307.1z M289.3,299.2c-0.9,0-1.8-0.1-2.6-0.1c-0.3,2.1-1.3,4.4-0.6,6.1c0.6,1.5,3,2.3,4.6,3.4
		c0.5-0.5,0.9-0.9,1.4-1.4C291.1,304.6,290.2,301.9,289.3,299.2z"/>
	<path class="st6" d="M309.7,302.8c-1.7,2.5-2.5,4.9-4.1,5.6c-2,0.9-4.1-1-5-1.8c-3.2-2.6-6.1-8.5-3.4-11.9c1.7-2.1,5-2.8,7.5-1.9
		C308.4,294,310.7,298.3,309.7,302.8z"/>
	<path class="st6" d="M274.2,309.4c0.2,2.4,0.4,4.5,0.6,8c-6.5-4.5-4.1-11.8-9.7-16.6c5.4-1.4,9.7-2.5,14-3.4
		c0.4-0.1,1.5,1.1,1.5,1.5c-0.1,0.8-0.8,1.9-1.5,2.2c-2.1,1-4.4,1.6-6.5,3.4c1,0.2,2,0.2,3,0.6c1.4,0.4,2.7,1.1,4,1.6
		c-1.3,0.8-2.6,1.5-3.9,2.2C275.3,309.2,274.7,309.3,274.2,309.4z"/>
	<path class="st6" d="M315.4,340.3c-3.4-0.3-5.9-3.1-5.9-6.3c0-2.9,2-5.5,5-6.2c0.2,0,3.6-0.1,5.5,2.6c1.5,2.1,1,4.4,0.8,5
		C320.2,337.7,318.1,339.6,315.4,340.3z"/>
	<path class="st6" d="M312.6,346.7c1.5,2,2.7,3.3,3.4,4.8c0.1,0.3-2.1,2.4-2.9,2.1c-1.3-0.3-2.8-1.7-3.1-3
		C309.8,349.9,311.3,348.5,312.6,346.7z"/>
	<path class="st6" d="M322,344.7c1.5,2,2.7,3.3,3.4,4.8c0.1,0.3-2.1,2.4-2.9,2.1c-1.3-0.3-2.8-1.7-3.1-3
		C319.2,347.9,320.8,346.6,322,344.7z"/>
	<path class="st6" d="M331.2,349.7c1.5,2,2.7,3.3,3.4,4.8c0.1,0.3-2.1,2.4-2.9,2.1c-1.3-0.3-2.8-1.7-3.1-3
		C328.3,352.9,329.9,351.5,331.2,349.7z"/>
	<path class="st6" d="M323,323.1c1.2,0.6,1.9,2,1.8,3.3c-0.1,1.3-0.9,2.4-2.1,2.9c-1.3-0.3-2.3-1.3-2.5-2.5
		C319.9,325.2,321.1,323.5,323,323.1z"/>
	<path class="st16" d="M131.1,432.1c-7.4-2-11.5-2.3-10.3-6.8c0.8-3.1-0.3-8.7,5.8-8c8.5,1,11.2,2.8,10.8,6.9
		C137,429.5,134.6,432.5,131.1,432.1z"/>
	<path class="st15" d="M177.7,194.3c-2.4-0.4-4.8-0.8-7.1-1.2c-0.9-0.9-1.9-1.9-2.8-2.8c-2.9-2.7-2.5-5.4-0.1-8.1
		c4.3-0.8,8.4-4.1,13-1.1c-0.9,3.6-1.7,7.3-2.6,10.9C177.9,192.8,177.8,193.6,177.7,194.3z"/>
	<path class="st24" d="M190.1,184.1c3.5,0.8,6.5,2.3,5.7,6.5c-0.7,4-3.4,4.2-6.6,2.5C189.5,190.2,189.8,187.2,190.1,184.1z"/>
	<path class="st28" d="M177.7,194.3c0.1-0.7,0.2-1.5,0.4-2.2c0.8-0.4,1.6-0.8,2.6-1.4c0.4,1.1,0.7,2.1,1.1,3.2
		c-0.1,0.2-0.3,0.4-0.4,0.5c-0.6-0.1-1.2-0.1-1.8-0.2C178.9,194.2,178.3,194.3,177.7,194.3z"/>
	<path class="st28" d="M181.8,193.9c0.4,0.3,0.7,0.5,1.1,0.8c-0.5-0.1-1-0.2-1.5-0.3C181.5,194.2,181.7,194,181.8,193.9z"/>
	<path class="st24" d="M94.6,173.2c0.4-0.2,0.8-0.5,1.2-0.7c3.9-1.6,7.7-3.1,12.6-5.1c-0.2,3-0.3,4.4-0.3,5.8c-0.2,3-0.4,6-0.6,8.9
		C101.3,184.3,97.3,181.5,94.6,173.2z"/>
	<path class="st18" d="M119.5,172.7c3.7,0.8,6.4,3.3,5.5,6.8c-0.5,2.1-3.7,3.6-5.8,5.4c-0.4-0.4-0.8-0.7-1.3-1.1
		c0.1-0.9,0.2-1.8,0.3-2.6C118.7,178.3,119.1,175.5,119.5,172.7z"/>
	<path class="st24" d="M82.5,389.2c-1.8,3.9-3.4,8-5.4,11.7c-1.2,2.3-2.9,5.4-6.6,0.6c0.6,1.8,0.8,2.7,1.1,3.6
		c-0.2,0.9-0.3,1.8-0.5,2.8c-1.8-0.7-3.2-1.3-4.7-1.8c2.8-5.6,5.6-11.3,8.5-16.9C77.4,389.2,79.9,389.2,82.5,389.2z"/>
	<path class="st15" d="M66.4,406.1c1.5,0.6,2.9,1.1,4.7,1.8c0.2-1,0.3-1.9,0.5-2.8c0.6,0.5,1.8,1.5,1.7,1.6
		c-2.9,4.8-3.5,11.2-9.8,13.4c-1,0-2,0-3,0C62.4,415.5,64.4,410.8,66.4,406.1z"/>
	<path class="st18" d="M82.5,389.2c-2.6,0-5.1,0-7.6,0c1.1-2,2.3-4,3.6-6.4c2.1,0.9,4,1.8,6.3,2.8C83.8,387.1,83.2,388.1,82.5,389.2
		z"/>
	<path class="st24" d="M60.5,420.1c1,0,2,0,3,0c-0.1,1.8-0.1,3.6-0.2,5.4c-1.4-0.1-3,0.2-4-0.4c-0.9-0.5-1.7-2.2-1.5-3.2
		C57.8,421.3,59.5,420.7,60.5,420.1z"/>
	<path class="st24" d="M129.6,478.9c0-4.3-0.2-8.7,0.1-13c0.1-1.2,1.7-2.3,2.6-3.4c0.7,1.1,2,2.2,2.1,3.3c0.1,8.3,0.2,16.6-0.1,25
		c-0.1,1.5-1.8,2.9-2.8,4.4c-0.7-1.4-1.8-2.8-1.9-4.3c-0.3-4-0.1-8-0.1-12C129.5,478.9,129.6,478.9,129.6,478.9z"/>
	<path class="st18" d="M92.6,335.1c6.8-1.1,13.5-2.1,20.3-3.2c0.1,0.6,0.2,1.3,0.2,1.9c-7.2,0.8-13.9,4.7-21.6,2.3
		C91.9,335.8,92.2,335.5,92.6,335.1z"/>
	<path class="st12" d="M89.7,341c0.9-0.6,1.9-1.3,2.8-1.9c3.3-0.4,6.6-0.8,9.9-1.1c0.1,0.4,0.1,0.8,0.2,1.1
		C98.3,339.7,94,340.4,89.7,341z"/>
	<path class="st12" d="M112.7,337.1c-2.6,0.5-5.1,1-7.6,1.5c-0.1-0.4-0.2-0.8-0.2-1.2c2.6-0.5,5.1-1,7.7-1.5
		C112.6,336.3,112.7,336.7,112.7,337.1z"/>
	<path class="st21" d="M92.6,335.1c-0.3,0.3-0.7,0.7-1,1c-0.7-0.7-1.3-1.4-2-2c1-0.3,2-0.6,3.1-0.9
		C92.6,333.8,92.6,334.5,92.6,335.1z"/>
	<path class="st24" d="M103.6,406.1c-1.7-0.7-4.1-0.9-4.7-2.1c-0.6-1,0.9-3.1,1.4-4.8c0.5,0,1.1,0.1,1.6,0.1
		C102.5,401.6,103,403.9,103.6,406.1L103.6,406.1z"/>
	<path class="st24" d="M103.5,406.2c0.1,0.1,0.3,0.1,0.3,0.2c0.1,0,0,0.2,0,0.3C103.8,406.5,103.7,406.3,103.5,406.2
		C103.6,406.1,103.5,406.2,103.5,406.2z"/>
	<path class="st15" d="M55.8,495.2c9-1.3,9.8-13.3,19.2-14.5c0.5-1.4,1-3.1,1.5-4.7c8.1,7.4,16.1,14.8,24.3,22.3
		c-6.8,7.4-13.1,14.2-19.3,21.1c-2.7-2.1-5.6-3.9-8.1-6.3C67.4,507.2,61.6,501.1,55.8,495.2z M71.5,493.1L71.5,493.1
		c-0.3,0.3-0.7,0.7-1,1l0,0c-0.3,0.3-0.7,0.7-1,1l0,0c-0.3,0.3-0.7,0.7-1,1l0,0c-0.7,0.7-1.3,1.3-2,2l0,0c-0.3,0.1-0.5,0.3-0.8,0.4
		c0.3,0.3,0.5,0.6,0.8,1c0.3,0.2,0.7,0.4,1,0.6c0,0.4-0.1,0.7-0.1,1.1c2,1.3,3.9,2.6,5.9,3.9c0.4,0.5,0.8,1,1.1,1.5
		c0.6,0.5,1.2,1.1,1.7,1.6c0.7,0.2,1.8,0.7,2,0.5c4-3.9,8-7.9,11.8-12.1c0.3-0.4-0.3-1.6-0.6-2.5c-0.6-0.3-1.2-0.7-1.9-1
		c-0.7-0.5-1.3-1-2-1.5c-1.3-1.5-2.6-3-3.9-4.5c-0.3-0.3-0.7-0.5-1.1-0.8c-0.3,0-0.7-0.1-1.1-0.1c-0.2-0.5-0.4-1.1-0.6-1.7
		c-0.5,0.5-1,1.1-1.5,1.6l0,0c-0.8,0.7-1.7,1.4-2.5,2c-0.3,0.1-0.4,0.2-0.5,0.5c-0.3,0.8-0.7,1.7-1,2.5l0,0c-0.3,0.3-0.7,0.7-1,1
		l0,0C72.2,492.4,71.9,492.8,71.5,493.1z"/>
	<path class="st16" d="M41.1,372.8c-1.5-0.6-2.9-1.2-4.3-1.8c0-1.1-0.3-2.5,0.3-3.3c0.7-1,2.1-1.6,3.2-2.4c0.8,1.3,1.9,2.5,2.1,3.8
		C42.5,370.2,41.6,371.5,41.1,372.8z"/>
	<path class="st21" d="M218.6,567.7c1.3,0.2,2.6,0.4,3.9,0.6c-0.6,0.7-1.2,1.5-1.9,2.2C219.9,569.6,219.3,568.7,218.6,567.7z"/>
	<path class="st24" d="M229.5,554.1c-0.4,0.9-0.9,1.8-1.3,2.7c-0.6-0.9-1.1-1.8-1.7-2.7C227.5,554.1,228.5,554.1,229.5,554.1z"/>
	<path class="st16" d="M192.6,539.1c-1,2.4-2.1,4.9-3.1,7.3c-1.6-0.5-3.2-1-4.8-1.5c1.2-3.6,2.4-7.1,3.7-11.2
		C190,535.8,191.3,537.5,192.6,539.1z"/>
	<path class="st16" d="M67.6,561.1c-2.7-5.4,0.6-9.8,2.4-14.5c0.3-0.7,2-1.6,2.8-1.4c3.7,1.2,8.4,1.4,8.9,6.8c-1.4,3.1-2,7.4-4.4,9
		C75,562.6,70.9,561.2,67.6,561.1z"/>
	<path class="st18" d="M173.1,622.7c4.1,0,8.2,0,12.3,0c0,0.5,0,1,0,1.5C181.3,626,177.2,624.5,173.1,622.7z"/>
	<path class="st19" d="M21.7,471.2c1.8,0,3.7,0.1,5.5,0c2.6-0.2,3.5,1.1,3.5,3.6c0,2.6-1.2,3.5-3.7,3.4c-3.6-0.2-7.4,0.2-11-0.3
		c-1.4-0.2-3.5-2-3.8-3.3c-0.4-2.4,1.1-3.9,4-3.5c1.8,0.2,3.6,0,5.5,0C21.7,471.1,21.7,471.1,21.7,471.2z M15.2,473.9
		c-0.1,0.4-0.1,0.8-0.2,1.3c4.1,0.3,8.3,0.5,12.4,0.8c0-0.7,0.1-1.4,0.1-2.1C23.4,473.9,19.3,473.9,15.2,473.9z"/>
	<path class="st27" d="M316.8,304.9c-0.9-3.2-1.8-6.3-2.9-9.9C320.7,297.7,321.4,300.9,316.8,304.9z"/>
	<path class="st27" d="M289.3,299.2c0.9,2.7,1.8,5.4,2.7,8c-0.5,0.5-0.9,0.9-1.4,1.4c-1.6-1.1-4-1.9-4.6-3.4
		c-0.6-1.7,0.3-4.1,0.6-6.1C287.6,299.1,288.4,299.2,289.3,299.2z"/>
	<path class="st23" d="M81.8,487.1c1.3,1.5,2.6,3,3.9,4.5c-0.4,1.2-0.7,2.4-1.1,3.5l0,0c-1.3,0.3-2.7,0.7-4,1
		c1.3-1.8,2.6-3.5,3.9-5.3c-0.6-0.3-1.1-0.6-1.6-1c-1.1,2.1-2.2,4.2-3.2,6.3c-0.3,0.3-0.7,0.7-1,1c-0.3,0.3-0.7,0.7-1,1
		c-0.4,0.3-0.8,0.5-1.2,0.8c-0.3,0.3-0.7,0.7-1,1c-0.3,0.3-0.7,0.7-1,1c-0.3,0.3-0.7,0.7-1,1c-0.3,0.4-0.7,0.7-1,1
		c-0.1,0.3-0.2,0.5-0.3,0.8c0.3-0.1,0.5-0.2,0.7-0.4c0.3-0.3,0.7-0.6,1-1c0.3-0.3,0.7-0.7,1-1c0.3-0.3,0.7-0.7,1-1s0.7-0.7,1-1
		c0.3-0.4,0.6-0.7,0.9-1.1c0.3,0,0.7,0,1,0c0,1,0,2,0,3l0,0c-0.3,0.3-0.7,0.7-1,1l0,0c-0.3,0.3-0.7,0.7-1,1l0,0
		c-0.3,0.3-0.7,0.7-1,1l0,0c-0.3,0.3-0.7,0.7-1,1l0,0c-0.4,0-0.8,0-1.2,0c-2-1.3-3.9-2.6-5.9-3.9c3.3-0.1,5.1-1.6,5-5l0,0
		c0.3-0.3,0.7-0.6,1-1l0,0c0.3-0.3,0.7-0.6,1-1l0,0c0.3-0.3,0.7-0.6,1-1l0,0c0.3-0.3,0.7-0.6,1-1l0,0
		C78.3,490.5,80,488.8,81.8,487.1z"/>
	<path class="st23" d="M87.7,493.1c0.6,0.3,1.2,0.7,1.9,1c-4.4,4.7-8.8,9.4-13.3,14.1c-0.6-0.5-1.2-1.1-1.7-1.6c0-0.5,0-1,0-1.5l0,0
		c0.3-0.3,0.7-0.7,1-1l0,0c0.3-0.3,0.7-0.7,1-1l0,0c0.3-0.3,0.7-0.7,1-1l0,0c0.3-0.3,0.7-0.7,1-1l0,0c2-2,4-4,6-6l0,0
		C85.6,494.5,86.6,493.8,87.7,493.1z"/>
	<path class="st12" d="M76.3,508.2c4.4-4.7,8.8-9.4,13.3-14.1c0.2,0.8,0.9,2.1,0.6,2.5c-3.8,4.1-7.8,8.1-11.8,12.1
		C78,508.9,77,508.4,76.3,508.2z"/>
	<path class="st23" d="M79.6,486.2c0.3,0,0.7,0.1,1.1,0.1c-1.4,1.9-2.8,3.9-4.1,5.8l0,0c-0.3,0.3-0.7,0.6-1,1l0,0
		c-0.3,0.3-0.7,0.6-1,1l0,0c-0.3,0.3-0.7,0.6-1,1l0,0c-0.3,0.3-0.7,0.6-1,1l0,0c-1.6,1.3-3.3,2.7-4.9,4c-0.3-0.2-0.7-0.4-1-0.6
		c0-0.5,0-0.9-0.1-1.4l0,0c0.7-0.7,1.3-1.3,2-2l0,0c0.3-0.3,0.7-0.7,1-1l0,0c0.3-0.3,0.7-0.7,1-1l0,0c0.3-0.3,0.7-0.7,1-1l0,0
		c0.3-0.3,0.7-0.7,1-1l0,0c0.3-0.3,0.7-0.7,1-1l0,0c0.3-0.8,0.7-1.7,1-2.5c0.1-0.3,0.2-0.4,0.5-0.5c0.8-0.7,1.7-1.4,2.5-2l0,0
		C78.2,486.1,78.9,486.1,79.6,486.2z"/>
	<path class="st19" d="M76.6,492.1c1.4-1.9,2.8-3.9,4.1-5.8c0.3,0.3,0.7,0.5,1.1,0.8C80,488.8,78.3,490.5,76.6,492.1z"/>
	<path class="st19" d="M67.6,500.1c1.6-1.3,3.3-2.7,4.9-4c0.1,3.5-1.7,5-5,5C67.6,500.9,67.6,500.5,67.6,500.1z"/>
	<path class="st19" d="M87.7,493.1c-1.1,0.7-2.1,1.3-3.1,2c0.4-1.2,0.7-2.4,1.1-3.5C86.3,492.1,87,492.6,87.7,493.1z"/>
	<path class="st21" d="M68.5,496.1c-0.7,0.7-1.3,1.3-2,2C67.2,497.4,67.8,496.8,68.5,496.1z"/>
	<path class="st21" d="M77.5,486.1c-0.8,0.7-1.7,1.4-2.5,2C75.8,487.5,76.7,486.8,77.5,486.1z"/>
	<path class="st21" d="M79.6,486.2c-0.7,0-1.4,0-2.1,0c0.5-0.5,1-1.1,1.5-1.6C79.2,485,79.4,485.6,79.6,486.2z"/>
	<path class="st21" d="M74.6,488.6c-0.3,0.8-0.7,1.7-1,2.5C73.9,490.3,74.2,489.4,74.6,488.6z"/>
	<path class="st21" d="M73.5,491.1c-0.3,0.3-0.7,0.7-1,1C72.8,491.8,73.2,491.4,73.5,491.1z"/>
	<path class="st21" d="M66.5,498.1c0,0.5,0,0.9,0.1,1.4c-0.3-0.3-0.5-0.6-0.8-1C66,498.4,66.3,498.3,66.5,498.1z"/>
	<path class="st21" d="M69.5,495.1c-0.3,0.3-0.7,0.7-1,1C68.9,495.8,69.2,495.4,69.5,495.1z"/>
	<path class="st21" d="M70.5,494.1c-0.3,0.3-0.7,0.7-1,1C69.9,494.8,70.2,494.4,70.5,494.1z"/>
	<path class="st21" d="M71.5,493.1c-0.3,0.3-0.7,0.7-1,1C70.9,493.8,71.2,493.4,71.5,493.1z"/>
	<path class="st21" d="M72.5,492.1c-0.3,0.3-0.7,0.7-1,1C71.9,492.8,72.2,492.4,72.5,492.1z"/>
	<path class="st19" d="M74.6,505.1c0,0.5,0,1,0,1.5c-0.4-0.5-0.8-1-1.1-1.5C73.8,505.1,74.2,505.1,74.6,505.1z"/>
	<path class="st18" d="M15.2,473.9c4.1,0,8.2,0,12.3,0c0,0.7-0.1,1.4-0.1,2.1c-4.1-0.3-8.3-0.5-12.4-0.8
		C15.1,474.8,15.2,474.3,15.2,473.9z"/>
	<path class="st19" d="M84.6,495.1c-2,2-4,4-6,6c0-1,0-2,0-3l0,0c0.3-0.3,0.7-0.7,1-1l0,0c0.3-0.3,0.7-0.7,1-1l0,0
		C81.9,495.8,83.2,495.5,84.6,495.1z"/>
	<path class="st17" d="M79.5,496.1c1.1-2.1,2.2-4.2,3.2-6.3c0.6,0.3,1.1,0.6,1.6,1c-1.3,1.8-2.6,3.5-3.9,5.3l0,0
		C80.2,496.1,79.9,496.1,79.5,496.1L79.5,496.1z"/>
	<path class="st17" d="M78.5,497.1c0.3-0.3,0.7-0.7,1-1c0,0,0,0,0,0c0,0.3,0,0.7,0,1l0,0C79.2,497.1,78.9,497.1,78.5,497.1
		C78.6,497.2,78.5,497.1,78.5,497.1z"/>
	<path class="st19" d="M73.6,495.1c0.3-0.3,0.7-0.6,1-1C74.2,494.5,73.9,494.8,73.6,495.1z"/>
	<path class="st17" d="M76.3,498.9c0.4-0.3,0.8-0.5,1.2-0.8l0.1,0.1c-0.3,0.4-0.6,0.7-0.9,1.1C76.5,499.1,76.4,499,76.3,498.9z"/>
	<path class="st17" d="M76.7,499.3c-0.3,0.3-0.7,0.7-1,1c-0.1-0.1-0.3-0.3-0.4-0.4c0.3-0.3,0.7-0.6,1-1
		C76.4,499,76.5,499.1,76.7,499.3z"/>
	<path class="st17" d="M74.3,500.9c0.3-0.3,0.7-0.7,1-1c0.1,0.1,0.3,0.3,0.4,0.4c-0.3,0.3-0.7,0.7-1,1
		C74.6,501.2,74.4,501,74.3,500.9z"/>
	<path class="st17" d="M74.7,501.3c-0.3,0.3-0.7,0.7-1,1c-0.2-0.2-0.3-0.3-0.5-0.5c0.3-0.3,0.7-0.7,1-1
		C74.4,501,74.6,501.2,74.7,501.3z"/>
	<path class="st19" d="M78.6,501.1c-0.3,0.3-0.7,0.7-1,1C77.9,501.8,78.2,501.5,78.6,501.1z"/>
	<path class="st17" d="M73.7,502.3c-0.3,0.3-0.7,0.6-1,1c-0.1-0.1-0.3-0.3-0.4-0.4c0.3-0.4,0.7-0.7,1-1
		C73.4,502,73.6,502.2,73.7,502.3z"/>
	<path class="st19" d="M77.6,502.1c-0.3,0.3-0.7,0.7-1,1C76.9,502.8,77.2,502.5,77.6,502.1z"/>
	<path class="st17" d="M72.7,503.3c-0.3,0.1-0.5,0.2-0.7,0.4c0.1-0.3,0.2-0.5,0.3-0.8C72.4,503,72.6,503.2,72.7,503.3z"/>
	<path class="st19" d="M76.6,503.1c-0.3,0.3-0.7,0.7-1,1C75.9,503.8,76.2,503.5,76.6,503.1z"/>
	<path class="st19" d="M75.6,504.1c-0.3,0.3-0.7,0.7-1,1C74.9,504.8,75.2,504.5,75.6,504.1z"/>
	<path class="st19" d="M74.6,494.1c0.3-0.3,0.7-0.6,1-1C75.2,493.5,74.9,493.8,74.6,494.1z"/>
	<path class="st19" d="M72.6,496.1c0.3-0.3,0.7-0.6,1-1C73.2,495.5,72.9,495.8,72.6,496.1z"/>
	<path class="st19" d="M75.6,493.1c0.3-0.3,0.7-0.6,1-1C76.2,492.5,75.9,492.8,75.6,493.1z"/>
	<path class="st17" d="M77.5,498.1c0.3-0.3,0.7-0.7,1-1l0.1,0c0,0.3,0,0.6-0.1,1l0,0C78.2,498.1,77.9,498.2,77.5,498.1
		C77.6,498.2,77.5,498.1,77.5,498.1z"/>
	<path class="st23" d="M79.5,497.1c0-0.3,0-0.7,0-1c0.3,0,0.7,0,1,0C80.2,496.5,79.9,496.8,79.5,497.1z"/>
	<path class="st23" d="M78.5,498.1c0-0.3,0-0.6,0.1-1c0.3,0,0.7,0,1,0C79.2,497.5,78.9,497.8,78.5,498.1z"/>
	<path class="st27" d="M304.3,296.1c0.9,2.7,1.8,5.4,2.7,8c-0.5,0.5-0.9,0.9-1.4,1.4c-1.6-1.1-4-1.9-4.6-3.4
		c-0.6-1.7,0.3-4.1,0.6-6.1C302.6,296,303.4,296,304.3,296.1z"/>
	<path class="st6" d="M316.5,319.7c1.2,0.6,1.9,2,1.8,3.3c-0.1,1.3-0.9,2.4-2.1,2.9c-1.3-0.3-2.3-1.3-2.5-2.5
		C313.4,321.7,314.6,320,316.5,319.7z"/>
	<path class="st6" d="M307.6,322.1c1.2,0.6,1.9,2,1.8,3.3c-0.1,1.3-0.9,2.4-2.1,2.9c-1.3-0.3-2.3-1.3-2.5-2.5
		C304.5,324.1,305.7,322.4,307.6,322.1z"/>
</g>
<path class="st6" d="M315.8,320c1.2,0.6,1.9,2,1.8,3.3c-0.1,1.3-0.9,2.4-2.1,2.9c-1.3-0.3-2.3-1.3-2.5-2.5
	C312.7,322.1,313.9,320.4,315.8,320z"/>
<path class="st6" d="M307.6,322.1c1.2,0.6,1.9,2,1.8,3.3c-0.1,1.3-0.9,2.4-2.1,2.9c-1.3-0.3-2.3-1.3-2.5-2.5
	C304.5,324.1,305.7,322.4,307.6,322.1z"/>
<path class="st30" d="M163.6,187.3c-0.3,1.9-1.4,4-0.9,5.5c3.1,8.4,16.1,14.9,25.4,12.1c1.6-0.5,5-1.5,7.3-5
	c1.1-1.6,1.5-3.3,1.7-4.4c-2.1,1.3-3.9,1.8-5.2,2.1c0,0-2.1,0.4-5.9,0.3c-0.5,0-0.9,0-0.9,0c-0.7,0-1.3-0.1-1.8-0.2
	c-3.5-0.4-5.2-0.7-5.8-0.8c-2.6-0.5-5.1-1-7.5-2.4C168.5,193.6,165.8,191.7,163.6,187.3z"/>
<path class="st30" d="M93.9,180.6c-1.8,6.2-1.2,9,4.7,10.9c5.7,1.8,12,2.3,18.1,2.1c5.6-0.1,9.4-3.7,10-10.3
	c-0.5,0.2-0.9,0.4-1.4,0.7c-0.9,0.5-1.8,0.9-2.7,1.4c-0.8,0.3-1.9,0.6-3.1,0.7c-1.3,0.1-2.5,0.1-3.3-0.1c-2.8-0.2-5.6-0.4-8.5-0.5
	c-2.6-0.6-5.6-1.4-8.7-2.7C97.1,182.2,95.4,181.4,93.9,180.6z"/>
<path class="st31" d="M132.5,140.4c-12,2.2-28.6,5.3-36.2,18c-3.5,5.9-5.1,13.9-5.3,14.8c-0.3,1.7-1.7,9.5-0.2,18.4
	c3.5,19.7,19.6,31.4,20.8,32.2c19,13.3,41,7.9,55.5,4.4c9.7-2.3,20.7-5.1,27.9-14.8c5.5-7.5,6.4-15.6,7.1-23
	c0.7-6.5,1.8-17.7-4.3-29.2c-0.8-1.5-4.4-8-11.7-13.6C168.1,133.8,144.5,138.2,132.5,140.4z"/>
<path class="st32" d="M105.2,148.9c7.4-1.1,14.3-2.1,22.5-3.3C121.6,152.6,108.1,154.1,105.2,148.9z"/>
<path class="st32" d="M178.5,158.9c-0.3-0.7-0.2-1.6,0.1-2.2c0.2-0.3,1.3-0.2,1.8,0.1c4.8,3.1,9.5,6.3,14.9,10
	C190.8,167.9,180.1,162.5,178.5,158.9z"/>
<path class="st33" d="M97.5,164.8c1.9-1.2,3.6-2.9,5.6-3.5c1.7-0.5,3.7,0.3,5.6,0.6c-0.1,0.5-0.1,1-0.2,1.5c-2,0.9-4.4,1.3-6,2.7
	c-4,3.3-5,9-2.7,13c3.1,5.5,7.5,7.6,12.7,6.1c5.9-1.7,10.2-6.6,9.7-11.6c-0.2-2.8-0.8-5.9-4.6-5.8c-3.7,0-6.5,3.3-6.2,7.2
	c1.5-0.9,2.9-1.7,4.6-2.7c1.8,3.6-0.1,5.8-2.6,6.4c-1.6,0.4-4.8-0.8-5.5-2.1c-0.9-1.9-1.1-5.9,0.1-6.8c3.1-2.6,7.2-4,11-5.8
	c0.6-0.3,1.5,0.1,2.3,0.2c0.9,0.5,1.7,1,2.6,1.6c5.6,12.4-2,24.2-14.9,24.1c-7.8,0-18-11.7-13.3-20.1c0.3-0.6,0.2-1.5,0.3-2.2
	C96.4,166.5,96.9,165.7,97.5,164.8z"/>
<path class="st33" d="M178.1,200.9c-1-0.4-2-0.9-3-1.3c-9.1-3-13.1-10.7-10-19.6c2.9-8.4,12.3-12.8,20.7-9.2
	c1.7,0.7,2.8,2.7,4.9,4.8c-5.4-0.7-9.2-1.7-12.9-1.7c-5.1,0.1-9.1,4.7-9.7,10.3c-0.5,5.4,2.4,9.7,7.7,11.3c5.5,1.7,10,0.3,12.3-3.6
	c2.5-4.4,1.9-7.4-1.7-9.3c-3.8-2-6.6-0.9-9.2,4c1.1-0.1,2-0.3,2.9-0.3c1.3,0.1,2.5,0.3,3.7,0.5c-0.9,1.1-1.7,3-2.6,3.1
	c-2.4,0.1-5.3,0-7.1-1.3c-0.9-0.6-0.5-4.4,0.5-6.2c2.6-4.7,8.6-6,13.5-3.6c5.1,2.6,6.5,6.8,4.6,12.6c-1.8,5.2-5.7,7.7-10.6,9.3
	C180.7,200.9,179.4,200.9,178.1,200.9z"/>
<path class="st30" d="M163.9,195.4c1.2,1.5,2.6,2.1,4,2.8c2,0.9,3.9,1.3,7.8,1.9c2.2,0.4,3.1,0.5,5.7,0.8c0.7,0.1,1.5,0.2,2.7,0.3
	c0.3,0,1.5,0.1,3-0.1c0.8-0.1,1.8-0.2,2.9-0.4c0.2,0.8,0.6,2.8-0.5,4.5c-1,1.6-2.7,2.1-3.5,2.3c-9.6,2.4-21.2-1.3-25.1-11.5
	c-0.5-1.3,0.6-3.3,1-5C162.2,192.1,162.6,193.8,163.9,195.4z"/>
<path class="st30" d="M98.2,187.9c3,0.9,5.8,1.6,8.3,2c2.7,0,5.3,0.1,8,0.1c0.8,0.1,1.9,0.1,3.1-0.1c1.2-0.2,2.1-0.5,2.9-0.8
	c0.8-0.5,1.6-0.9,2.5-1.4c0.5-0.2,0.9-0.4,1.3-0.6c-0.2,5.8-3.7,9-8.9,9.4c-5.7,0.4-11.6,0.3-17.1-1.1c-5.7-1.4-6.4-3.8-5-9.2
	C94.9,186.8,96.5,187.4,98.2,187.9z"/>
<path class="st34" d="M147.6,226.1c-0.6,1.4-3.6,2.4-5.6,2.5c-1.8,0.1-3.7-1.1-5.5-1.8c-2.6-1-5-2.4-7.6-3.2c-4.6-1.2-8.2-4.6-7.8-8
	c0.4-4.1,3.8-6.9,8.9-7.2c7.7-0.4,13.4,2.9,18,9.7C147.9,220.9,148.5,223.9,147.6,226.1z M129.2,211.6c-2.7,0.6-5.8,1.8-4.9,4.8
	c0.6,2,4,4.5,6,4.3c2.9-0.3,4.4,0.8,6.1,2.3c0.6,0.5,1.2,1.2,1.9,1.3c2,0.4,4.1,0.6,6.2,0.9c0.1-2,0.2-4,0.3-6
	C140.8,213.6,134.7,210.5,129.2,211.6z"/>
</svg>
