<?xml version="1.0" encoding="utf-8"?>
<!-- Generator: Adobe Illustrator 23.0.3, SVG Export Plug-In . SVG Version: 6.00 Build 0)  -->
<svg version="1.1" id="Ebene_1" xmlns="http://www.w3.org/2000/svg" xmlns:xlink="http://www.w3.org/1999/xlink" x="0px" y="0px"
	 viewBox="0 0 463.3 685.1" style="enable-background:new 0 0 463.3 685.1;" xml:space="preserve">
<style type="text/css">
	.st0{fill:#545865;}
	.st1{fill:#2F2C3F;}
	.st2{fill:#B54B49;}
	.st3{fill:#3F3845;}
	.st4{fill:#A66365;}
	.st5{fill:#333245;}
	.st6{fill:#F4A065;}
	.st7{fill:#F7B382;}
	.st8{fill:#F6AB74;}
	.st9{fill:#FFFEFE;}
	.st10{fill:#8B6980;}
	.st11{fill:#AD4443;}
	.st12{fill:#F9C49E;}
	.st13{fill:#FBE0E0;}
	.st14{fill:#FAC6A1;}
	.st15{fill:#FBF8F9;}
	.st16{fill:#F4B7B9;}
	.st17{fill:#B9A0AF;}
	.st18{fill:#EBE5E9;}
	.st19{fill:#BDA5B3;}
	.st20{fill:#BF99A5;}
	.st21{fill:#AD92A2;}
	.st22{fill:#EDDDDD;}
	.st23{fill:#C7B5C1;}
	.st24{fill:#F4F0F2;}
	.st25{fill:#C0ABB8;}
	.st26{fill:#B994A1;}
	.st27{fill:#FFFFFF;}
	.st28{fill:#8997B6;}
	.st29{fill:#927973;}
	.st30{fill:#89726F;}
	.st31{fill:#3C3A4C;}
	.st32{fill:#C6967F;}
	.st33{fill:#E88138;}
	.st34{fill:#8A98B7;}
	.st35{fill:#2E2B3E;}
</style>
<g>
	<path class="st0" d="M112.4,5.1c-1.5-2.3-0.8-3.5,1.8-4.1c1.2-0.3,2.2-1.3,3.3-1.9c0.7,0,1.3,0,2,0c-0.2,1.7-0.4,3.4-0.6,5.1
		C116.8,4.4,114.6,4.8,112.4,5.1z"/>
	<path class="st1" d="M232.3,109.1c2.7,4.7,5.5,9.4,8.2,14.2c-0.2,2,4.1,3.8,0.2,5.9c-1-0.4-2.1-0.7-3.1-1.1
		c-2.4-0.9-4.8-1.9-7.2-2.9c-0.6,0.3-1.5,0.5-1.6,0.9c-1.9,5.8-3.6,11.7-5.4,17.5c-0.4,1.4-0.9,2.9-1.7,5c-1.4-2.5-2.3-4-3.1-5.5
		c-0.4-0.7-0.7-1.3-1.1-2c-1.1-9-2.1-18-7.4-26.8c-1.1,2.4-1.4,4.1-2.5,5c-1.8,1.6-4.1,2.7-6.1,4.1c-0.7-2-1.7-3.9-2-5.9
		c-0.6-5.1-0.8-10.1-1.1-15.2c0.6-1.4,1.2-2.8,1.8-4.2c0.5,0,1,0,1.5-0.1c1.2,3.4,2.4,6.8,3.7,10.2c0.5-0.1,1-0.1,1.5-0.2
		c0.2-1.5,0.4-3,0.5-4.5c0.1-2.1,0.2-4.3,0.3-6.4c0.1-2.1,1.1-4.4,0.4-6.1c-2-5.3-5.6-9.1-10.7-12.3c-7.1-4.4-13.3-10.3-19.6-15.9
		c-3.4-3-9.3-3.8-9.1-10.2c0-0.7-2.3-2.1-3.4-2.1c-1.1,0.1-2.2,1.6-3,2.7c-0.5,0.7-0.5,1.8-0.9,3.1c-2.5-0.2-4.8-0.5-7-0.7
		c-1.9-0.1-3.8,0-5.6,0c-0.1,0.5-0.2,1.1-0.2,1.6c1.7,1.3,3.1,3.2,5,3.7c2.6,0.8,4.3,1.4,3,5c-2.9-3.3-5.6-3.5-8.8-0.9
		c-1.7,1.3-5,3.2-6,2.5c-3.9-2.6-6.2-0.4-7.9,1.4c-3.5-0.9-6.4-1.6-9.2-2.3c-1.3-0.3-2.9-0.5-3.8-1.4c-4.8-4.4-5.8-4.3-8.8,1.5
		c-2,3.8-4.3,6.8-8.4,5.3c-1.1-2.6-1.9-4.5-2.7-6.4c-1.7,1.2-3.6,2.2-4.9,3.6c-3.2,3.4-6,7.1-9,10.6C81.9,85.8,76.6,92,71,97.9
		c-0.9,1-3.1,0.8-4.7,1.2c0.1-1.8-0.2-3.8,0.4-5.5c0.6-1.4,2.3-2.3,3.4-3.6c3.3-3.9,6.4-7.8,9.7-11.8c-0.7-0.6-1.3-1.2-2-1.7
		c-1.5,2.3-3,4.5-4.8,7.3c-1.1-1.7-1.7-2.5-2.1-3.3c-2.4-5.4-4.4-5.8-7.9-1.1c-2.5,3.4-4.2,7.5-6.4,11.2c-1.6,2.7-3.3,5.3-5,7.9
		c-0.7-0.2-1.4-0.4-2.2-0.5c-0.4-5.3-0.9-10.7-1.3-15.2c1.4-2.6,2.5-4.5,3.6-6.5c5.6-10.6,10.7-21.4,17.1-31.5
		c5.9-9.3,16.3-12.7,26-16.4c5.5-2,11.9-1.3,16.6-5.6c0.4-0.4,1.6,0.1,2.3-0.1c3-1.1,6.2-1.9,8.9-3.6c2.2-1.5,0.6-4-2.8-5
		c-1.4-0.4-2.7-1.3-4.1-2c1.1-1.1,2.1-2.2,3.2-3.3c0.2-0.2,0.4-0.5,0.6-0.8c0.3,0.1,0.6,0.1,0.9,0.2c0.7,1,1.3,1.9,2,2.9
		c0.7,1,1.4,2,2.1,3c1.4,1.3,2.8,3.5,4.4,3.7c10.4,1.6,20.8,2.8,31.3,4c0.4,0,0.9-1.1,1.3-1.8c0.7,0,1.3,0,2,0
		c3.4,2.4,4.9,7.6,10.5,6.7c-0.2-2.1-0.3-3.9-0.5-5.6c0.6,0.2,1.3,0.4,1.9,0.6c0.3,0.1,0.6,0.2,1,0.3c2.3,1.7,4.6,3.2,6.8,5
		c4.6,3.7,8.4,7.7,15.3,8.8c8.4,1.3,13.9,8.6,19,15.3c0.3,2.7-0.1,5.8,1.1,8c2.3,4.5,5.5,8.7,8.3,13c0.3,0.5,0.6,1,0.8,1.5
		c-1.6,6.6,2.8,9.5,8.2,11.9c-1.1,1.3-1.5,2.5-2.3,2.7c-4.7,1.3-4.6,4.3-3.4,8.1c0.5,1.7,0,3.7,0.3,5.4c0.2,1.5,1,2.8,1.5,4.3
		c0,0.6-0.1,1.3-0.1,1.9C232.1,108.4,232.2,108.7,232.3,109.1z M188.7,43.6c3.6,5.7,18.1,12.9,22.4,11.4
		C204.1,41.8,197.8,38.5,188.7,43.6z M174.4,30.4c-0.4,0.3-0.7,0.6-1.1,0.9c3.9,4,7.7,8.1,11.5,12.1c2-2.8,4.1-6.1,0.1-8.7
		C181.9,32.7,178,31.8,174.4,30.4z M230.7,115.5c-0.4,0.2-0.9,0.3-1.3,0.5c0.6,1.5,1.3,3,1.9,4.5c0.4-0.2,0.7-0.3,1.1-0.4
		C231.8,118.6,231.2,117.1,230.7,115.5z M70.2,52.8c-0.3-0.1-0.6-0.4-0.8-0.3c-0.2,0.1-0.3,0.5-0.4,0.8c0.3,0.1,0.6,0.4,0.8,0.3
		C70,53.5,70.1,53.1,70.2,52.8z M200.2,58.3c-0.1-0.3-0.2-0.7-0.4-0.8c-0.2-0.1-0.6,0.2-0.8,0.3c0.1,0.3,0.2,0.7,0.4,0.8
		C199.5,58.7,199.9,58.4,200.2,58.3z M229.3,113.1c-0.1-0.1-0.1-0.3-0.2-0.4c-0.1,0.1-0.3,0.2-0.3,0.3c0,0.1,0.1,0.3,0.2,0.4
		C229.1,113.3,229.2,113.2,229.3,113.1z"/>
	<path class="st2" d="M241.7,481.8c2.3,0.6,5.3,0.4,6.9,1.8c14.1,11.7,18.3,28,19.7,45.2c0.9,10.8-1.9,20.1-10,28
		c-7.3,7.2-13.6,15.4-20.5,23c-11.6,12.9-26,22.1-40.8,31c-19.2,11.5-38.5,23-55.2,38.2c-1.4,1.3-2.1,3.2-3.1,4.8
		c-1.8,3-3.8,2.4-6.2,0.7c-6.9-5.1-13.8-10.3-21-15.1c-7.1-4.8-14.6-9-21.9-13.5c-1.4-0.7-2.8-1.5-4.3-2.1c-3.2-1.2-4.6-4.9-2.9-7.8
		c0.5-0.9,1.2-1.6,1.7-2.5c0.5-0.8,0.9-1.6,1.7-2.9c-14.4,1.4-27.4-0.9-39.3-8C27,591,15,574.4,11.8,551.8c-0.3-2.2-0.8-3.8-2.7-5.6
		c-2.2-2.2-2.6-6.4-3.5-9.8c-6.6-25.8-6.3-52-4.7-78.4c1.8-30.1,8.3-59.2,15-88.3c2.2-9.4,3.8-18.9,5.7-28.3
		c0.2-0.4,0.4-0.9,0.6-1.3c2.5-6.3,4.9-12.6,7.4-18.9c0.2-0.4,0.4-0.8,0.6-1.1c0.1-0.3,0.2-0.6,0.3-1c0.2-0.3,0.4-0.7,0.6-1
		c0.1-0.3,0.3-0.6,0.4-0.9c0.2-0.4,0.5-0.7,0.7-1.1c8.3-12.8,16.4-25.7,24.8-38.4c7-10.6,15.7-19.6,26.2-26.9
		c3.7-1.6,7.3-3.5,11.1-4.7c3.2-1.1,6.7-1.4,10.1-2.1c9.3-0.6,18.3,0.5,27,4.1c3.3,2.3,6.5,4.6,9.8,6.9
		c9.1,10.2,14.7,22.4,18.8,35.3c3.5,11.2,6.6,22.5,9.8,33.8c0.4,1.4,1.1,2.8,1.7,4.1c2.8,5.6,2.7,5-3.2,5.9
		c-3.9,0.6-7.4,3.2-11.1,4.9c-1.3,0.6-2.6,1.2-3.9,1.9c-2.1,0.4-4.3,0.5-6.2,1.4c-15,6.2-29.9,12.5-44.8,18.8
		c-1.3,0.6-2.6,1.3-3.9,1.9c-4.3,0.7-8.6,1.5-12.8,2.2l0,0c2.3-5.7-1-10.3-3.3-15c-1-2.1-2.2-4.1-2.9-6.3c-0.5-1.5-0.4-3.1-0.6-4.7
		c0.6-0.2,1.3-0.5,1.9-0.7c3.8,7.3,7.7,14.5,11.7,22.1c2.6-1.1,5-2.2,7.4-3.3c2.9-1.4,5.8-2.8,8.7-4.2c1.7-0.6,3.4-1.2,5.1-1.9
		c17.6-7.6,35-15.4,53.5-20.8c-1.8-5.5-3.8-11.3-5.7-17.1c-1.3-5.1-2.6-10.2-4-15.3c-0.1-0.6-0.3-1.2-0.4-1.8
		c0.1-0.1,0.2-0.3,0.1-0.4c-0.1-0.3-0.3-0.5-0.4-0.8c-4.1-9.8-8-19.8-12.6-29.4c-1.7-3.5-5.3-6.1-8-9.1c-1.4-1.2-2.9-2.4-4.3-3.5
		c-4.1-1.2-8.3-2.4-12.4-3.7c-0.9,0-1.8,0-2.7,0c-1-0.3-2-1-3-1c-3.9,0.1-7.8,0.4-11.6,0.8c-2.8,0.2-5.7,0.6-8.5,0.9
		c-1,0.4-2,0.7-3.1,1.1c-10.4,6.1-18.8,14.4-25.9,24.1c-0.4,0.7-0.8,1.3-1.1,2c-3.7,5.3-7.3,10.6-11,15.9l0.1,0
		c-0.3,0.4-0.5,0.7-0.8,1c-0.4,0.7-0.8,1.4-1.2,2.1c-0.7,1-1.5,2-2.2,3c-0.6,1-1.1,2.1-1.7,3.1c-1.1,1.6-2.2,3.2-3.3,4.8
		c-0.7,1.3-1.4,2.7-2.1,4c-0.7,0.9-1.6,1.7-2.2,2.7c-10.6,17.9-17.2,37.1-18.8,57.9c-1.4,5.5-2.7,10.9-4.1,16.4
		c-3,15.8-6.1,31.5-9.1,47.3C7,442.8,6.9,450.4,6.7,458c-0.4,3.3-0.7,6.6-1.1,9.9c-0.3,6.7-0.7,13.4-1,20.1c0.3,6,0.6,12.1,0.9,18.1
		c0.1,0.3,0.2,0.5,0.2,0.7c0.2,3.4,0.3,6.8,0.5,10.2c1.8,8.6,3.7,17.2,5.7,26.4c2.7-1.7,5.4-3.5,8.2-5.2c0.6-0.5,1.2-1,1.8-1.5
		c4.3-2.6,8.7-5.2,13-7.7c1.3-0.6,2.6-1.1,3.9-1.7c11.2-6.5,22.4-13.1,35.5-14.9c5.8-0.8,10.5-3.5,14.7-7.6
		c6.8-6.5,14.4-9.3,23.5-4.3c1.5,0.8,4.1,0.6,5.9,0c7.9-2.4,15.6-5.4,23.6-7.7c6.9-2,7.5-3.4,6.3-10.9c-1.1-6.7-1.4-13.5-1.2-20.3
		c0.3-8.4,1.4-16.9,2.6-25.3c1.3-8.8,3.2-17.6,4.9-26.3c0.7,0.3,1.4,0.6,2.1,1c0.3,0.3,0.6,0.7,0.9,1l-0.1,0
		c-1.6,12.3-3.2,24.7-4.8,37c-0.1,1.2-0.2,2.4-0.3,3.6c-2.6,12.5-2.5,24.7,2.4,36.8c4.9-1,9.3-2,13.8-3c17.5-2,34.9-3.1,52.1,2.5
		c4.6,1.7,9.1,3.3,13.7,5c9.5,4.3,14,12.5,17.3,21.8c1,2.8,2.6,5.4,3.9,8.1c0.4,3,0.7,6.1,1.1,9.1c0,1.3,0.1,2.6,0.1,3.9
		c0.1,2.7,0.2,5.3,0.3,8c-0.2,2.1-0.4,4.2-0.6,6.3c0.6,0.2,1.2,0.4,1.9,0.5c1.4-3.2,2.9-6.4,4.3-9.6c0.3-3.5,0.5-6.9,0.8-10.4
		c1.2-17.5-3.5-32.9-16.6-45.1c-1.2-1.2-3.3-1.4-5-2.1C241.7,483.6,241.7,482.7,241.7,481.8z M139.6,565c1.4-1,2.7-1.9,4.1-2.8
		c1-0.7,1.9-1.3,2.9-2c4.8-3.2,9.6-6.3,14.4-9.5c0.4,0.5,0.8,0.9,1.2,1.3c-1.9,2.2-3.6,4.7-5.8,6.4c-4.9,3.7-10,7-15.1,10.5
		c-3.2,2.4-6.4,4.7-9.6,7.1c-1,0.9-2,1.8-3.1,2.8c-4.7,3.6-9.4,7.3-14.1,10.9c-11.2,9.1-22.3,18.3-30.7,31c2.3,0.1,4.1,0.2,5.8,0.3
		c3.3,1.7,6.6,3.4,9.9,5c0.6,0.3,1.3,0.7,1.9,1c2.4,1.6,4.8,3.2,7.1,4.8c8.8,6.4,17.6,12.9,26.7,19.5c2.6-3.5,4.6-7.2,7.5-10
		c3.3-3.2,7.2-5.6,10.9-8.3c1.6-1.1,3.3-2.2,4.9-3.2c4.7-3,9.4-6.1,14.1-9.1c2.7-1.9,5.3-3.9,8-5.8c2.6-1.7,5.3-3.3,7.9-5l0,0
		c1.3-0.7,2.7-1.3,4-2c0.9-0.5,1.9-0.9,2.9-1.4c14.7-8.4,28.6-17.8,39.8-30.5c1.6-1.9,2.2-4.7,3.3-7.1c3.2-3.1,7.3-5.6,9.4-9.3
		c7.5-12.9,6.1-26.3,0.4-39.5c-0.4-1.4-0.9-2.8-1.4-4.2c-2.2-8.2-6.3-15.3-14.8-18.1c-9.8-3.3-19.9-5.7-29.9-8.5
		c-0.6-0.1-1.2-0.1-1.7-0.2c-26.7-1.5-52,4.7-76.8,13.7c-7.2,2.6-14.2,5.6-21.4,8.1c-1.8,0.6-3.9,0.1-5.9,0.1
		c-0.1-0.5-0.1-1-0.2-1.5c4.1-1.8,8.2-3.5,12.6-5.4c-5-4.7-11.5-1.1-17.7,3.5c-4.3,3.2-9,7-13.9,7.9c-13.6,2.4-25.5,8.3-36.9,15.4
		c-0.9,0.6-1.8,1.2-2.7,1.8c-4.1,2.3-8.2,4.7-12.4,7.1c-0.6,0.4-1.2,0.8-1.8,1.2c-3.1,1.7-6.2,3.4-9.1,5c0.5,2,0.8,3.7,1.3,5.4
		c2.8,7.9,5.5,15.7,8.5,23.5c0.5,1.3,2.2,2.1,3.3,3.1c2.4,3,4.8,6,7.2,9c3,2.9,5.9,5.8,8.9,8.8c2,1.1,3.9,2.2,5.9,3.3
		c1.9,0.7,3.9,1.3,5.8,1.9c1.1,0.7,2.2,1.3,3.3,2c3.3,1,6.6,1.9,10,2.8c0.9,0.2,1.9,0.4,2.8,0.5c0.4,0,0.8,0.1,1.2,0.1
		c0.6,0,1.3,0,1.9,0c1.7-0.1,3.4-0.3,5.1-0.4c5.6-0.5,11.3,0.3,15.7-4.9c3.3-3.9,7.6-7,11.4-10.4c1.3-1.3,2.7-2.5,4-3.7
		c1-0.7,1.9-1.5,2.9-2.2c1-0.9,2.1-1.9,3.1-2.8c1.6-1.3,3.2-2.7,4.8-4c0.7-0.4,1.3-0.9,2-1.3c0.8-0.9,1.5-1.8,2.3-2.7
		c2.2-1.7,4.4-3.4,6.6-5.1C134.8,567.7,137.2,566.3,139.6,565z M255.9,552.2c-0.1,0.1-0.1,0.2-0.1,0.3c0.2,0,0.4,0,0.6,0
		c0-0.1-0.1-0.2-0.1-0.3C256.2,552.2,256,552.2,255.9,552.2z"/>
	<path class="st3" d="M119.6,7.9c-0.2,0.3-0.4,0.5-0.6,0.8c-1.1,1.1-2.1,2.2-3.2,3.3c1.3,0.7,2.6,1.6,4.1,2c3.4,1,5.1,3.5,2.8,5
		c-2.6,1.7-5.9,2.5-8.9,3.6c-0.7,0.3-1.9-0.3-2.3,0.1c-4.8,4.3-11.2,3.5-16.6,5.6c-9.8,3.6-20.2,7.1-26,16.3
		c-6.4,10.1-11.5,21-17.1,31.5c-1.1,2-2.2,4-3.6,6.5c0.4,4.5,0.8,9.9,1.3,15.2c0.7,0.2,1.4,0.4,2.2,0.5c1.7-2.6,3.5-5.2,5-7.9
		c2.2-3.7,3.8-7.8,6.4-11.2c3.5-4.7,5.4-4.3,7.9,1.1c0.4,0.8,1,1.6,2.1,3.3c1.8-2.8,3.3-5,4.8-7.3c0.7,0.6,1.3,1.2,2,1.7
		c-3.2,3.9-6.4,7.9-9.7,11.8c-1.1,1.3-2.8,2.2-3.4,3.6c-0.6,1.6-0.3,3.6-0.4,5.5c1.6-0.4,3.8-0.2,4.7-1.2
		c5.6-5.9,10.8-12.1,16.2-18.2c3-3.5,5.9-7.2,9-10.6c1.4-1.5,3.3-2.4,4.9-3.6c0.8,1.9,1.6,3.8,2.7,6.4c4.1,1.5,6.5-1.4,8.4-5.3
		c3-5.8,4-5.9,8.8-1.5c0.9,0.8,2.5,1,3.8,1.4c2.9,0.8,5.7,1.5,9.2,2.3c1.7-1.8,3.9-4,7.9-1.4c1.1,0.7,4.3-1.1,6-2.5
		c3.2-2.5,5.9-2.4,8.8,0.9c1.2-3.6-0.5-4.2-3-5c-1.9-0.6-3.4-2.4-5-3.7c0.1-0.5,0.2-1.1,0.2-1.6c1.9,0,3.8-0.1,5.6,0
		c2.3,0.1,4.6,0.4,7,0.7c0.3-1.3,0.4-2.4,0.9-3.1c0.8-1.1,1.9-2.6,3-2.7c1.1-0.1,3.4,1.3,3.4,2.1c-0.3,6.4,5.7,7.2,9.1,10.2
		c6.3,5.6,12.5,11.5,19.6,15.9c5.1,3.2,8.6,7,10.7,12.3c0.7,1.7-0.3,4.1-0.4,6.1c-0.1,2.1-0.2,4.3-0.3,6.4c-0.1,1.5-0.3,3-0.5,4.5
		c-0.5,0.1-1,0.1-1.5,0.2c-1.2-3.4-2.4-6.8-3.7-10.2c-0.5,0-1,0-1.5,0.1c-0.6,1.4-1.2,2.8-1.8,4.2c-4-3.9-7.9-7.7-12.6-12.3
		c-0.4,6.3-3.1,5.7-6.1,3.9c-11.2-6.7-22.4-13.4-33.4-20c-2,2.8-4,6.1-6.4,9c-3.3,4-6.8,7.8-10.4,11.4c-1.2,1.2-3,1.8-4.5,2.7
		c-0.4-1.8-1.4-3.7-1.2-5.5c0.3-2.5,1.3-5,2.3-8.4c-4.8,3.1-8.4,6.4-12.7,7.8c-9,3.1-14.6,9.3-18.7,17.3c-0.2,0.3-0.3,0.7-0.5,0.8
		c-1.5,1-3.1,2-4.6,3c-0.7-1.7-1.5-3.3-2.2-4.9l-0.1,0.1c0.3-0.7,0.7-1.3,1-2c3.8-4.4,7.7-8.7,11.3-13.3c1.3-1.6,1.6-3.9,2.3-5.9
		c-1.8,0.5-4,0.4-5.4,1.5c-5.2,4.1-10,8.5-14.9,12.7c-1-2-1.7-3.5-2.3-4.9c-1.2,1.2-2.6,2.3-3.4,3.7c-2.1,3.6-3.9,7.3-5.9,11
		c-1.6,2.8-4,2.9-6.3,1.4c-4.4-2.7-5.6-2.4-7.3,2.3c-0.3,0.9-0.6,2-1.3,2.5c-3.7,2.3-4.2,6.1-4.8,9.9c-0.5,3.1-1.2,6.1-1.8,9.1
		c-0.1-0.6-0.3-1.2-0.5-2.2c-2,3.2-3.7,6-5.5,8.8c-1.1-1.7-3.1-3.3-3.1-5c-0.1-5.8,0.5-11.7,0.8-17.6c0.1-1.1,0.3-2.3,0.5-4.5
		c-1.4,1.3-2,1.9-2.7,2.5c-0.1,0.1-0.3,0.2-0.4,0.3c-2.2,1.5-4.4,3-6.6,4.5c0-2.9-0.5-5.9,0-8.7c0.9-4.5,2.6-8.8,4.3-14.4
		c-2.1,1.2-3,2-3.9,2.2c-1.2,0.2-2.5-0.1-3.7-0.2c0.3-1.3,0-3.3,0.9-4c8-7,12.3-16.3,16.2-25.8c2.1-5,4.9-9.8,7.3-14.4
		c-4.7-1.5-9.3-2.8-13.9-4.6c-1.3-0.5-2.1-2.2-3.1-3.4c1.2-0.8,2.3-1.9,3.7-2.4c5.8-2.1,11.7-4.1,17.6-6.1c0.4-0.3,0.8-0.7,1.2-1
		c12.5-10.2,25.5-19.3,41.9-22.2c0.3-0.2,0.7-0.5,1.1-0.7c4.4-0.9,8.8-1.9,13.6-2.9c-0.6-1.3-1.3-2.6-1.9-3.8c0-0.6,0-1.1,0-1.7
		c0-0.9,0.1-1.8,0.1-2.6c2.2-0.3,4.3-0.6,6.5-1c0.3,0.5,0.5,1,0.8,1.6C119.7,6.4,119.6,7.2,119.6,7.9z M177.7,79.1
		c4.7,3.3,8.5,6.2,12.5,8.7c0.9,0.6,2.6,0,3.9,0c-0.2-1.4,0.1-3.1-0.6-4.1C191,80,186.3,76.8,177.7,79.1z M41.3,114.7
		c-0.1-0.2-0.2-0.4-0.3-0.6c-0.1,0.1-0.3,0.2-0.3,0.3c0,0.2,0.2,0.4,0.3,0.6C41.1,114.9,41.2,114.8,41.3,114.7z"/>
	<path class="st4" d="M89.6,625.9c7.3,4.5,14.7,8.8,21.9,13.5c7.2,4.8,14,10,21,15.1c2.4,1.7,4.4,2.4,6.2-0.7c2.9,0.4,5.9,0.9,8.8,1
		c7.9,0.4,13.6,4.1,17.1,11c3.1,6.1,0.6,12.3-6,13.5c-12.1,2.2-24.3,3.7-36.4,5.4c-8.8,1.2-15.7-2.3-21.7-8.6
		c-7-7.3-14.4-14.3-21.6-21.3c-7-6.9-7-10.3,0-17.4C82.5,633.8,86,629.8,89.6,625.9z"/>
	<path class="st5" d="M412.3,575.2c1.5-0.1,3.4-0.7,4.4-0.1c7.8,4.8,17.1,4.1,25.3,7.2c2.3,0.9,4.7,2.8,6,4.9
		c4,6.4,7.4,13.3,11.3,19.8c1.6,2.6,3.7,4.9,5.9,7.7c-1.5,4.8-6,6.8-10.6,8.5c-9.5,3.5-19,6.8-28.6,10c-11.8,3.9-24,5.7-36.4,4.5
		c-13.9-1.3-28.1-0.8-41.3-6c-7.4-2.9-14.4-6.8-21.1-11c-1.4-0.9-1.9-5.4-0.9-7.4c4.6-9.7,9.8-19.1,14.9-28.6
		c0.3-0.6,0.7-1.3,1.3-1.4c5.4-1.5,10.8-4.1,16.2-4.1c4.1,0,7-0.8,10.3-3c2.1-1.5,5.7-2.5,8-1.8c5,1.5,9.5,0.6,14.1-0.6
		c5.5-1.4,10.5-0.9,15.4,1.9c0.3,1.1,0.7,2.1,1,3.2c-4.8-0.3-9.9-1.8-14.4-0.8c-5,1.1-9.4,2.6-14.4,0.5c-3.8-1.6-7.3-0.3-9.9,2.9
		c2.3,2.6,3.9,5.8,6.5,7c2.8,1.4,6.5,0.8,9.8,1.4c2.1,0.4,4.1,1.2,5.8,1.8c2.9-1.4,5.7-2.7,8.4-4c0-0.5,0-1,0-1.5
		c-2.8-0.1-5.5-0.5-8.3-0.2c-2.6,0.3-5.2,1.3-7.8,2c6-7.4,12.6-7.7,20.4-2c0.4,4.5,3.4,4.7,6.3,3.2c6.5-3.4,13-3.2,19.6-0.8
		c4.2,6.6,7.3-0.7,11-0.8c-3.3-3.6-7.4-4.5-11.9-4.3c-2.2-1-4.5-1.9-6.7-2.9c-4.8-2.3-8.9-2.8-12.1,2.7c-1.2,2-3,4.7-6.3,3
		c1.4-2.3,2.8-4.5,4.2-6.8C409.3,577.8,410.8,576.5,412.3,575.2z M358.3,588.8c0.6-2,1.1-4.1,1.9-6.8c-4.6,1.4-8.9,2.6-13.3,3.9
		c0,0.4,0,0.8,0.1,1.3c3.7,1.3,7.5,2.5,11.2,3.8c0.8,0.7,1.5,1.9,2.4,2c3.5,0.6,7.1,0.9,12.3,1.6c-2-3.5-2.8-6.8-4.9-8
		c-1.5-0.9-4.6,0.9-7,1.5C360.1,588.3,359.2,588.5,358.3,588.8z M342.4,589.9c-3.9,7.7-8,15.4-11.6,23.4c-0.6,1.4-0.3,4.7,0.6,5.2
		c5.8,3.2,11.6,6.8,18,8.4c9.8,2.4,19.9,3.9,29.9,4.8c14.9,1.3,30,1.7,44.5-3.3c10.2-3.5,20.3-7.2,30.4-10.9
		c1.3-0.5,2.5-1.3,4.1-2.1c-4.8-8.4-9.3-16.3-13.5-23.5C410,603.4,376.4,603,342.4,589.9z M429.5,593.7c-1.6-0.9-3-1.7-4.4-2.5
		c-4.6-2.6-12.3-0.8-15.6,3.3c-0.7,0.8-3.3,1-4.3,0.4c-7.2-4.1-8.8-4-13,1.1c-5.6-1.4-10.9-2.8-16.1-4.1c-0.4,0.7-0.8,1.3-1.1,2
		c1.2,1,2.2,2.5,3.5,3c1.5,0.6,3.3,0.4,4.9,0.6C399.1,598.9,414.6,598.6,429.5,593.7z"/>
	<path class="st6" d="M98.4,362.8c1.3-0.6,2.6-1.3,3.9-1.9c2.7,4,5.4,8.1,8.1,12.2c12.7,15.3,28.9,25.6,47.1,33
		c15.7,5,31.6,7.9,48.1,5.9c6.8-2.3,13.9-4,20.4-7.1c7.6-3.6,14.7-8.2,21.9-12.7c4.2-2.6,7.8-6.3,12.1-8.7
		c11.6-6.6,23.6-12.7,35.2-19.4c3.9-2.2,7-5.6,11.6-9.3c-5.6-0.9-6.3-2.5-3.3-5.6c1.1-1.1,0.8-3.5,1.3-6c-2.6,0-4.4,0-6.2,0
		c-1.5,0-3-0.2-4.5-0.3c0.5-1.8,0.6-3.8,1.5-5.2c2.3-3.4,5.1-6.4,7.3-9.8c0.6-0.9-0.2-2.7-0.4-4.1c-1.5,0.2-3.5-0.1-4.5,0.7
		c-2.2,1.7-3.7,4.3-5.8,6c-1.6,1.4-3.9,2-5.9,2.9c-0.4-0.4-0.8-0.9-1.2-1.3c0.6-2.7,1.7-5.4,1.6-8c0-2.4-1.3-4.8-2-7.2
		c-1.8,0.9-4.1,1.4-5.3,2.8c-5.6,7.2-10.9,14.6-16.4,21.9c-1.6,2.1-3.2,4.3-5.3,5.8c-13.8,9.6-29,15.6-45.6,18.9
		c-16.4,3.3-30.8-0.1-44.1-9.5c-3.9-2.8-7.1-6.5-10.6-9.8c-1.4-2-2.8-4.1-4.2-6.1c1.3-0.6,2.6-1.2,3.9-1.9c1.4,1.8,2.9,3.6,4.4,5.4
		c11,13.2,25.4,19.7,42.2,18.3c16.5-1.3,32.1-6.8,46.3-15.6c4.2-2.6,9.1-4.3,10.8-9.6c3,0,3-2.1,2.9-4.2c5.1-6.1,10-12.4,15.3-18.2
		c1.4-1.5,4.8-2.7,6.3-2c2.2,1,3.8,3.8,4.9,6.2c0.8,1.8,0.4,4.1,0.5,6.6c4.5-3.1,8.5-9.4,13.9-4.7c6.5,5.6,0.2,11-2.5,16.5
		c5.8,1.3,6.7,5.4,6.2,10.3c-0.1,1-0.6,2.2-0.1,2.8c3.1,4.4,0.1,7.2-2.6,9.9c-2.8,2.6-5.9,4.9-9,7.1c-5.4,3.8-10.8,7.5-16.3,11.3
		l0,0c-0.7,0.3-1.4,0.5-2.1,0.8c-2.3,1.1-4.7,2.2-7,3.3c-4.4,2.5-9.2,4.4-13,7.6c-12.2,10.4-26,17.9-41.1,23.1
		c-9.7,3.4-19.6,3.8-29.6,2.5c-10.2-1.3-20.3-2.8-30.4-4.3l0.1,0c-0.3-0.3-0.6-0.7-0.9-1c-0.7-0.3-1.4-0.6-2.1-1c-4-2-8-4-11.9-6
		c-4.9-3-9.8-5.9-14.8-8.9C116.1,386.1,105.2,376.4,98.4,362.8z"/>
	<path class="st6" d="M131.5,248c-8.7-3.6-17.7-4.7-27-4.1c-2.2-3.9-8-5.2-7.8-11c0-0.6-2-1.3-3.1-2c-0.3-0.4-0.7-0.9-1-1.3
		c-5.4-5.3-11.2-10.3-16.2-16c-7.7-8.6-15.3-17.4-18.8-28.8c1.7,0.7,3.3,1.4,4.9,2c3.4,5,6.1,10.7,10.2,15
		c9.7,10.2,19,21.2,30.4,29.1c12.2,8.5,27,10.7,41.9,5.9c7.3-2.4,13.6-6.3,20.1-10.4c13.7-8.5,24.6-19.4,33.4-32.7
		c0.3-0.9,0.7-1.8,1-2.8c1.3-2,3.1-3.8,3.9-6c2.5-6.7,4.7-13.4,7-20.2c1.2,0.3,2.3,0.6,3.5,0.8c-4.5,20.8-15.1,38.4-30.4,52.6
		c-8.4,7.7-19.3,12.6-29.1,18.8c-2.9,1.8-5.6,3.8-8.4,5.8C141.3,244.6,136.4,246.3,131.5,248z"/>
	<path class="st1" d="M48.7,135.1c0.6-3,1.4-6.1,1.8-9.1c0.6-3.8,1-7.6,4.8-9.9c0.7-0.4,1-1.6,1.3-2.5c1.8-4.7,2.9-5,7.3-2.3
		c2.4,1.5,4.8,1.4,6.4-1.4c2-3.6,3.8-7.4,5.9-11c0.8-1.4,2.3-2.5,3.4-3.7c0.7,1.4,1.4,2.9,2.3,4.9c4.9-4.2,9.7-8.6,14.9-12.7
		c1.3-1.1,3.6-1,5.4-1.5c-0.8,2-1.1,4.3-2.3,5.9c-3.6,4.6-7.5,8.9-11.3,13.3c-0.3,0.7-0.7,1.3-1,2l0.1-0.1c-0.7,0.3-1.6,0.3-1.9,0.8
		c-5.8,9-11.5,18.1-17.2,27.1c-2.1,0.3-4.2,0.7-6.3,0.9c-6.5,0.6-9,3.1-9.6,9.8c-0.3,2.8-0.3,5.6-0.8,8.3c-0.2,1.2-1.4,2.1-2.2,3.2
		c-0.4-3.1-0.9-6.1-1.3-9.2c-0.2-0.6-0.4-1.2-0.6-1.9c-0.1-1-0.1-2.1-0.2-3.1C47.8,140.4,48.2,137.7,48.7,135.1z"/>
	<path class="st6" d="M241.7,481.8c0,0.9,0.1,1.9,0.1,2.8c1.2,7.3,0.7,8-7.5,9.4c-4.6-1.7-9.1-3.3-13.7-5c1.8-4.2,5.3-1.1,7.9-1.9
		c0.7,0.3,1.4,0.6,2,0.9c0.4,0.2,0.7,0.5,1.1,0.7c0.1-0.1,0.2-0.3,0.3-0.4c-0.4-0.1-0.9-0.2-1.3-0.4c-0.6-0.4-1.3-0.7-1.9-1.1
		c-2.7-1.6-5.5-3.1-8.1-4.9c-1-0.6-1.7-1.6-2.5-2.5c1.1-0.3,2.5-1,3.4-0.7c5.5,2.4,10.9,5,16.1,7.4c1-7.2-7.7-7-11.2-11.1
		c0.2-0.4,0.5-0.7,0.7-1.1c3.2,0.6,6.4,1.2,9.5,1.8c-5.2-3.9-10.4-6.9-17.1-7.2c-10-0.5-20.1-1.9-29.9-3.8
		c-8.4-1.6-16.6-4.5-24.9-6.9c-4.1-1.8-8.2-3.6-12.2-5.4c0.1-1.2,0.2-2.4,0.3-3.6c11.4,4,22.6,8.9,34.2,11.6
		c11.4,2.6,23.4,2.5,35,4.5c5.7,1,11.2,3.8,16.5,6.4c2.9,1.5,5.4,4.2,2.4,8.1C240.5,480,241.3,481.1,241.7,481.8z"/>
	<path class="st6" d="M49.4,157.1c0.8-1.1,2-2,2.2-3.2c0.5-2.7,0.6-5.5,0.8-8.3c0.6-6.8,3.1-9.2,9.6-9.8c2.1-0.2,4.2-0.6,6.3-0.9
		c1.5,0.6,3.1,1.1,4.5,1.9c2.8,1.6,4.5,3.7,2.7,7.5c-1.1-0.6-2-0.9-2.7-1.5c-6.7-5-12.5-3.2-14.6,4.9c-2.3,8.9,0.1,17.5,3.3,25.7
		c1,2.6,4.1,4.3,6.2,6.6c0.8,0.8,1.8,2.4,1.5,3c-0.6,1.1-1.9,2.3-3.1,2.5c-1.1,0.2-2.3-0.9-3.5-1.5c-4.1-4.2-7.2-9-8.6-14.9
		c-0.4-1.5-2-2.8-3-4.2C50.4,162.4,49.9,159.8,49.4,157.1z"/>
	<path class="st0" d="M218.7,143c0.9,1.5,1.7,3.1,3.1,5.5c0.7-2.1,1.2-3.5,1.7-5c1.8-5.9,3.5-11.7,5.4-17.6c0.1-0.4,1.1-0.6,1.6-0.9
		c0.6,1,0.9,2.5,1.8,2.8c2.7,1.1,5.1,5.3,8.5,1.2c3.9-2.1-0.4-3.9-0.2-5.9c3.4,1.2,6.6,3,6,7.2c-0.6,3.4-5.8,4.6-10.1,2.8
		c-1.2-0.5-2.4-0.9-4.2-1.6c0.8,4.8,1.1,9.3-5.8,8c-0.9,3.4-1.7,6.6-2.8,10.8c-2.1-1.5-3.5-2.6-5-3.6
		C218.6,145.5,218.6,144.2,218.7,143z"/>
	<path class="st0" d="M232.1,106.1c-0.5-1.4-1.3-2.8-1.5-4.3c-0.3-1.8,0.3-3.8-0.3-5.4c-1.2-3.8-1.3-6.8,3.4-8.1
		c0.8-0.2,1.2-1.4,2.3-2.7c-5.4-2.4-9.9-5.3-8.2-11.9c2.9,2.8,5.9,5.5,8.6,8.6c1.9,2.2,4.5,5.1,4.3,7.5c-0.1,1.8-4.2,3.2-7.4,5.4
		C232.9,97.9,232.5,102,232.1,106.1z"/>
	<path class="st3" d="M161.5,20c-0.4,0.6-0.9,1.8-1.3,1.8c-10.4-1.2-20.9-2.4-31.3-4c-1.6-0.3-2.9-2.4-4.4-3.7c1-1.1,2-2.2,3.1-3.2
		c1.9,0.3,3.8,0.6,5.8,0.9c-0.1,0.2-0.1,0.4,0,0.6c0.7,0.9,1.4,2.4,2.2,2.6c2.9,0.6,5.9,0.6,8.8,1.2C150.2,17.2,155.8,18.7,161.5,20
		z"/>
	<path class="st7" d="M93.7,231c1.1,0.6,3.1,1.3,3.1,2c-0.2,5.8,5.6,7.1,7.8,11c-3.4,0.7-6.8,1-10.1,2.1c-3.8,1.3-7.4,3.1-11.1,4.7
		c1-1.8,2.1-3.6,3-5.5c2.2-4.6,4.2-9.2,6.3-13.8C93,231.3,93.3,231.2,93.7,231z"/>
	<path class="st7" d="M218.7,143c-0.1,1.2-0.1,2.5-0.1,3.7c-0.6,2.8-1.2,5.6-1.9,8.4c-0.8,3.6-1.7,7.2-2.6,10.7
		c-1.2-0.3-2.3-0.6-3.5-0.9c1.4-7.2,2.8-14.4,4.4-21.5c0.2-1,1.7-1.7,2.6-2.5C217.9,141.7,218.3,142.3,218.7,143z"/>
	<path class="st0" d="M161.5,20c-5.7-1.3-11.4-2.8-17.1-4c-2.9-0.6-5.9-0.5-8.8-1.2c-0.9-0.2-1.5-1.7-2.2-2.6c2,0,4-0.1,6-0.1
		c1.7,0.2,3.4,0.4,5.1,0.6c1.3,0.1,2.6,0.2,3.9,0.4c3,0.5,6,0.9,9.1,1.4c2,0.8,3.9,1.6,5.9,2.5l0.1,0.1c0,0.5,0,1.1,0.1,1.6
		c0,0.4-0.1,0.8-0.1,1.2C162.9,20,162.2,20,161.5,20z"/>
	<path class="st7" d="M131.5,248c4.9-1.7,9.8-3.4,14.7-5.1c-1.6,4-3.2,8.1-4.9,12.1C138.1,252.7,134.8,250.4,131.5,248z"/>
	<path class="st0" d="M226.9,72.2c-2.8-4.3-6-8.4-8.3-13c-1.2-2.3-0.8-5.3-1.1-8C224,56.6,226.2,64.1,226.9,72.2z"/>
	<path class="st8" d="M50.9,165c1,1.4,2.7,2.6,3,4.2c1.4,5.9,4.5,10.6,8.6,14.9c0,1,0,2,0,3c-1.7-0.7-3.3-1.4-4.9-2
		C55.4,178.3,53.2,171.7,50.9,165z"/>
	<path class="st3" d="M163.5,20c0-0.4,0.1-0.8,0.1-1.2c0.6-0.2,1.3-0.3,1.9-0.5c0.7,0.1,1.3,0.1,2,0.2c2.1,0.8,4.2,1.5,6.3,2.3
		l-0.1,0.3c0.1,1.8,0.3,3.6,0.5,5.6C168.5,27.6,166.9,22.3,163.5,20z"/>
	<path class="st9" d="M48.7,135.1c-0.5,2.7-0.9,5.3-1.3,8c-1.5-0.5-3.1-0.9-4.6-1.4c1.7-2.8,3.5-5.6,5.5-8.8
		C48.4,133.9,48.5,134.5,48.7,135.1z"/>
	<path class="st0" d="M127.6,10.8c-1,1.1-2,2.2-3.1,3.2c-0.7-1-1.4-2-2.1-3c0.1-0.8,0.1-1.6,0.2-2.4C124.3,9.3,126,10.1,127.6,10.8z
		"/>
	<path class="st10" d="M173.7,20.8c-2.1-0.8-4.2-1.5-6.3-2.3C169.5,19.3,171.6,20,173.7,20.8z"/>
	<path class="st11" d="M407.4,578.9c-0.3-1.1-0.7-2.1-1-3.2c2-0.2,3.9-0.3,5.9-0.5c-1.5,1.3-3.1,2.7-4.6,4
		C407.7,579.2,407.4,578.9,407.4,578.9z"/>
	<path class="st10" d="M163.4,17.1c-2-0.8-3.9-1.6-5.9-2.5C159.5,15.4,161.4,16.2,163.4,17.1z"/>
	<path class="st10" d="M139.4,12.2c-2,0-4,0.1-6,0.1c-0.2-0.2-0.2-0.4,0-0.6C135.4,11.9,137.4,12,139.4,12.2z"/>
	<path class="st10" d="M148.4,13.2c-1.3-0.1-2.6-0.2-3.9-0.4C145.9,13,147.1,13.1,148.4,13.2z"/>
	<path class="st9" d="M38.2,117c0.6-0.6,1.2-1.2,2.7-2.5c-0.3,2.2-0.4,3.4-0.5,4.5C39.7,118.4,39,117.7,38.2,117z"/>
	<path class="st3" d="M122.7,8.6c-0.1,0.8-0.1,1.6-0.2,2.4c-0.7-1-1.3-1.9-2-2.9c0.6,0,1.2-0.1,1.8-0.1
		C122.4,8.2,122.6,8.4,122.7,8.6z"/>
	<path class="st0" d="M122.3,8c-0.6,0-1.2,0.1-1.8,0.1c-0.3-0.1-0.6-0.2-0.9-0.2c0.1-0.8,0.1-1.5,0.2-2.3
		C120.6,6.5,121.4,7.3,122.3,8z"/>
	<path class="st10" d="M165.5,18.3c-0.6,0.2-1.3,0.3-1.9,0.5c0-0.5,0-1.1-0.1-1.6C164.2,17.5,164.8,17.9,165.5,18.3z"/>
	<path class="st9" d="M47.5,146.1c0.2,0.6,0.4,1.2,0.6,1.9C47.9,147.3,47.7,146.7,47.5,146.1z"/>
	<path class="st9" d="M31.2,318.1c-0.2,0.3-0.4,0.7-0.6,1C30.8,318.8,31,318.4,31.2,318.1z"/>
	<path class="st9" d="M32.3,316c-0.2,0.4-0.5,0.7-0.7,1.1C31.9,316.8,32.1,316.4,32.3,316z"/>
	<path class="st0" d="M112.4,7.7c0,0.6,0,1.1,0,1.7C112.4,8.8,112.4,8.3,112.4,7.7z"/>
	<path class="st9" d="M100.6,16.1c-0.3,0.2-0.7,0.5-1.1,0.7C99.9,16.5,100.3,16.3,100.6,16.1z"/>
	<path class="st10" d="M176.4,22c-0.3-0.1-0.6-0.2-1-0.3C175.8,21.8,176.1,21.9,176.4,22z"/>
	<path class="st9" d="M22.3,340.1c-0.2,0.4-0.4,0.9-0.6,1.3C21.9,340.9,22.1,340.5,22.3,340.1z"/>
	<path class="st9" d="M57.8,39c-0.4,0.3-0.8,0.7-1.2,1C57,39.7,57.3,39.4,57.8,39z"/>
	<path class="st9" d="M93.7,231c-0.3,0.1-0.7,0.3-1,0.4c0-0.6,0-1.1,0-1.7C93,230.2,93.3,230.6,93.7,231z"/>
	<path class="st0" d="M232.3,109.1c-0.1-0.3-0.2-0.7-0.3-1C232.1,108.4,232.2,108.7,232.3,109.1z"/>
	<path class="st9" d="M30.3,320.1c-0.2,0.4-0.4,0.8-0.6,1.1C29.8,320.8,30,320.4,30.3,320.1z"/>
	<path class="st12" d="M62.5,187c0-1,0-2,0-3c1.2,0.5,2.5,1.6,3.5,1.5c1.2-0.2,2.6-1.4,3.1-2.5c0.3-0.6-0.8-2.1-1.5-3
		c-2-2.2-5.2-4-6.2-6.6c-3.2-8.2-5.6-16.8-3.3-25.7c2.1-8.1,8-9.9,14.6-4.9c0.7,0.6,1.6,0.9,2.7,1.5c1.8-3.8,0.1-5.9-2.7-7.5
		c-1.4-0.8-3-1.3-4.5-1.9c5.7-9.1,11.4-18.1,17.2-27.1c0.3-0.5,1.3-0.6,1.9-0.8c0.7,1.7,1.5,3.3,2.2,4.9c1.6-1,3.1-2,4.6-3
		c0.3-0.2,0.4-0.5,0.5-0.8c4.1-8.1,9.7-14.3,18.7-17.3c4.2-1.4,7.8-4.7,12.7-7.8c-1,3.4-2,5.9-2.3,8.4c-0.2,1.8,0.8,3.6,1.2,5.5
		c1.5-0.9,3.3-1.5,4.5-2.7c3.6-3.7,7.1-7.5,10.4-11.4c2.4-2.9,4.4-6.1,6.4-9c11,6.6,22.2,13.3,33.4,20c3.1,1.8,5.8,2.4,6.1-3.9
		c4.7,4.6,8.6,8.4,12.6,12.3c0.4,5.1,0.5,10.2,1.1,15.2c0.2,2,1.3,3.9,2,5.9c2.1-1.3,4.3-2.5,6.1-4.1c1-0.9,1.3-2.6,2.5-5
		c5.3,8.9,6.3,17.9,7.4,26.9c-0.9,0.8-2.4,1.5-2.6,2.5c-1.6,7.1-3,14.3-4.4,21.5c-2.3,6.7-4.5,13.5-7,20.2c-0.8,2.2-2.6,4-3.9,6
		c0.1-4.5,0.9-10.3-4.4-11.4c-6.6-1.4-13.7-1.2-20.4-0.4c-3.4,0.4-4.9,4-3.6,7.9c1.6,4.9,5.5,6.5,10,7.8c6,1.7,11.7,0.6,17.5-1.1
		c-8.8,13.3-19.7,24.1-33.4,32.7c-6.5,4.1-12.8,8-20.1,10.4c-14.9,4.9-29.7,2.6-41.9-5.9c-11.4-7.9-20.7-19-30.4-29.1
		C68.6,197.7,65.9,192.1,62.5,187z M120.4,149c-0.3-0.4-0.5-0.7-0.8-1.1c-2-0.6-4-1.1-6-1.7c-5.9-2.3-12.7-0.5-16.5,4.3
		c-0.2,0.5-0.3,1-0.5,1.5c-2.5,2.2-2.5,4.8,0.1,6.6c3.6,2.4,7.6,4.1,11.4,6.2c-1,0.1-2,0.4-3,0.2c-5.2-1-7.9,2.4-9.3,6.3
		c-1.5,4.3,0.5,7.8,4.3,10.6c6.5,4.9,13.6,2.8,20.6,2.8c0.6,0,1.1-0.6,1.7-1c5.4-4.2,3.7-12.3-3.3-16.4c-1.3-0.8-2.3-2-3.4-2.9
		l0-0.3c0.3,0.2,0.5,0.4,0.8,0.5c4.9,1.5,11.3-0.2,12.6-3.7c1.6-4.2,0-7.3-4-9.2c-1.5-0.8-3-1.7-4.4-2.5L120.4,149z M171.6,172.9
		c3.2,0.8,6.5,1.6,9.7,2.4c2,0.2,4.1,0.5,6.1,0.7c2.4-0.2,5-0.1,7.3-0.6c6.3-1.5,7.8-6.9,3.1-11.4c-2.1-2-4.8-3.3-7.3-5
		c-1.9-0.5-3.9-1.1-5.8-1.6c-5.8-2-11-0.8-15.5,3.1C163.7,164.2,164.7,169.3,171.6,172.9z M140.6,206.8c4-1.1,7.6-1.9,11-3.1
		c0.8-0.3,1.3-1.6,1.9-2.5c-0.9-0.5-1.8-1.1-2.8-1.3c-0.9-0.1-2.1,0-2.9,0.4c-4.6,2.3-8.9,1.3-13.3-0.8c-1.7-0.9-3.8-1.3-5.7-1.6
		c-0.6-0.1-1.7,0.4-2,1c-0.3,0.5,0.1,1.9,0.6,2.1C131.9,203.2,136.4,205.1,140.6,206.8z M72.9,160c-0.6-2.1-1.1-4.9-2.3-7.4
		c-0.6-1.3-2.5-2-3.8-3c-0.4,1.7-1.6,3.7-1.1,4.9c1.3,2.8,1.4,4.9-0.4,7.7c-0.7,1,1.3,3.7,2.1,5.7c1.5-0.9,3.3-1.6,4.4-2.9
		C72.7,164,72.5,162.2,72.9,160z M175.4,147.2c6.7,1.8,13.2,3.6,19.8,5.3c0.2,0.1,0.7-0.9,1.1-1.4
		C189.1,145.3,178.4,143.1,175.4,147.2z M101.1,134c5.9,0.7,11.1,1.4,16.3,1.9c0.5,0.1,1.5-0.5,1.5-0.9c0.1-0.7-0.1-1.7-0.6-2.1
		C115.7,130.2,104.7,130.6,101.1,134z"/>
	<path class="st3" d="M188.7,43.6c9.1-5.1,15.4-1.8,22.4,11.4C206.8,56.6,192.3,49.4,188.7,43.6z"/>
	<path class="st3" d="M174.4,30.4c3.6,1.4,7.4,2.3,10.6,4.4c4,2.6,1.9,5.9-0.1,8.7c-3.9-4-7.7-8.1-11.5-12.1
		C173.7,31,174.1,30.7,174.4,30.4z"/>
	<path class="st5" d="M240.7,129.1c-3.4,4.1-5.8-0.1-8.5-1.2c-0.8-0.3-1.2-1.9-1.8-2.8c2.4,1,4.8,1.9,7.2,2.9
		C238.6,128.4,239.6,128.7,240.7,129.1z"/>
	<path class="st5" d="M230.7,115.5c0.6,1.5,1.1,3,1.7,4.6c-0.4,0.2-0.7,0.3-1.1,0.4c-0.6-1.5-1.3-3-1.9-4.5
		C229.8,115.9,230.2,115.7,230.7,115.5z"/>
	<path class="st3" d="M70.2,52.8C70,53,70,53.5,69.8,53.6c-0.2,0.1-0.5-0.2-0.8-0.3c0.1-0.3,0.2-0.7,0.4-0.8
		C69.5,52.4,69.9,52.6,70.2,52.8z"/>
	<path class="st3" d="M200.2,58.3c-0.3,0.1-0.6,0.4-0.8,0.3c-0.2-0.1-0.2-0.5-0.4-0.8c0.3-0.1,0.6-0.4,0.8-0.3
		C200,57.6,200.1,58,200.2,58.3z"/>
	<path class="st5" d="M229.3,113.1c-0.1,0.1-0.2,0.2-0.3,0.3c-0.1-0.1-0.2-0.3-0.2-0.4c0-0.1,0.2-0.2,0.3-0.3
		C229.1,112.8,229.2,112.9,229.3,113.1z"/>
	<path class="st13" d="M98.4,362.8c6.7,13.6,17.7,23.4,29.4,32.5c-0.6,0.4-1.1,0.9-1.7,1c-7.2,2.1-7,8.6-7.9,14
		c-0.2,1.3,1.9,3.7,3.5,4.5c2.6,1.3,5.7,1.8,8.6,2.4c4.7,1,9.8-2.1,11-6.7c0.6-2.1,0.8-4.2,1.2-6.3c4,2,8,4,11.9,6
		c-1.6,8.8-3.6,17.5-4.9,26.3c-1.2,8.4-2.3,16.8-2.6,25.3c-0.3,6.8,0.1,13.6,1.2,20.3c1.2,7.5,0.6,8.9-6.3,10.9
		c-7.9,2.3-15.7,5.3-23.6,7.7c-1.8,0.6-4.4,0.8-5.9,0c-9.1-5-16.8-2.2-23.5,4.3c-4.3,4.1-8.9,6.8-14.7,7.6
		c-13.2,1.8-24.3,8.4-35.5,14.9c-0.7-0.7-1.6-1.3-2.1-2c-5.4-8.3-10.6-16.8-16.1-25.1c-1-1.6-2.7-3.6-4.2-3.8
		c-4.9-0.7-7.9-3.3-10.1-7.5c-0.2-0.4-1.1-0.5-1.7-0.8c0.3-6.7,0.7-13.4,1-20.1c3.7,2.6,7.9,2.9,12.3,2.5c3.7-0.4,7.8-0.9,11.2,0.2
		c5.2,1.7,5.9-1.3,7-4.7c0.5-7.9,1-15.9,1.5-23.8c2.4-3,0.6-5.6-1.9-6.2c-9.4-2.3-18.9-4.9-28.5-0.7c3-15.8,6.1-31.5,9.1-47.3
		c0.8,1.1,1.6,2.1,2.4,3.2c-1,3-2,6-3.1,9l-0.1,0.1c-0.2,0.3-0.5,0.6-0.7,0.8c-0.5,5.2-1.1,10.3-1.6,15.5c4.5,1.1,4.1-2.6,5.4-4.6
		c0.6-0.6,1.2-1.2,1.9-1.9c4.9-2.1,5-6.8,6.1-11c2.1-5.6,4.2-11.2,6.3-16.9c2.7-7,5.3-14,8-20.9c0.6-1.3,1.2-2.7,1.9-4
		c0.9-3.8,2-7.5,2.7-11.3c0.2-1.1-0.7-3.5-1.4-3.6c-1.6-0.3-4.1,0-4.8,1c-2.3,3.3-3.9,7-5.7,10.6c-0.5,1.3-0.9,2.6-1.4,3.9
		c-1.8,4.7-3.6,9.4-5.4,14.1c-0.7,2-1.4,4-2,5.9c-0.2,0.2-0.4,0.3-0.6,0.3c-1.2-2.2-2.4-4.5-3.5-6.7c1.6-20.8,8.2-40,18.8-57.9
		c0.6-1,1.4-1.8,2.2-2.7c9.9-3.1,19.9-6.2,29.8-9.5c0.8-0.3,1.6-3,1.2-4.2c-2.4-7.4-5.1-14.8-7.7-22.1c7.1-9.7,15.4-18,25.9-24.1
		c-0.8,3.7,1.5,8.6-4.2,10.8c-0.8,0.3-1,3.7-0.6,5.4c0.2,0.9,2.4,1.3,3.7,2c0.7,4,1.4,7.9,2.2,11.9c1.5,0.6,2.9,1.7,4.5,1.8
		c5.6,0.3,11.4-0.5,16.8,0.6c7.2,1.5,7.1,2.2,9.6-4.5c2,0.3,4.1,0.7,6.1,1c2.1,0.5,4.1,1.4,6.2,1.5c1.5,0.1,3-0.9,4.5-1.4
		c-0.9-1.6-1.4-4.1-2.7-4.5c-4.3-1.6-8.9-2.4-13.4-3.5c-0.3,0-0.6,0.1-0.9,0c-1-3,1.3-2.8,3-2.9c3.5-0.1,7,0.1,10.5-0.2
		c1-0.1,2.7-1.6,2.7-2.4c0-1.3-0.9-3.2-2-3.8c-1.3-0.8-3.2-0.5-4.9-0.6c-3.2-0.1-6.3,0-9.5,0c0-0.5-0.1-1-0.1-1.5
		c2.2-0.8,4.5-1.7,6.7-2.5c2.5-0.6,5-1.2,7.4-1.7c2.7,3,6.4,5.6,8,9.1c4.6,9.6,8.4,19.6,12.6,29.4c0.1,0.4,0.2,0.8,0.3,1.2
		c0.1,0.6,0.3,1.2,0.4,1.8c-2.4,8.9-1.5,12.6,4,15.3c1.9,5.8,3.9,11.6,5.7,17.1c-18.5,5.3-35.9,13.1-53.5,20.8
		c-1.7,0.7-3.4,1.3-5.1,1.9c-3.3-1.7-6.6-3.6-10-5.1c-0.9-0.4-2.9-0.1-3.3,0.5c-0.6,0.8-0.4,2.6,0.1,3.5c1.2,1.9,2.9,3.5,4.4,5.2
		c-2.4,1.1-4.8,2.1-7.4,3.3c-4-7.6-7.8-14.8-11.7-22.1c-0.6,0.2-1.3,0.5-1.9,0.7c0.2,1.6,0.1,3.2,0.6,4.7c0.8,2.2,1.9,4.2,2.9,6.3
		c2.3,4.7,5.6,9.3,3.3,15c-0.8,0-1.9,0.4-2.4,0c-5.5-4.1-7.4,0.3-9.5,4.1c-3.6,6.5-7.2,13-10.7,19.5c-3.4,6.4-6.5,12.9-9.7,19.2
		c2.9,1.7,5.1,3.2,7.5,4.2c2.3,1,4.9,1.3,7.3,2c1.5,1.1,3,2.3,4.5,3.4c4,1.9,7.9,3.8,11.9,5.7l-0.1,0c1.2,1,2.3,2.5,3.8,2.9
		c0.8,0.2,2.5-1.2,3.1-2.3c5.1-9,10-18.2,14.9-27.3c0.6-1.1,1.1-2.6,0.8-3.7c-1-4.5-2.2-9-3.5-13.4c-0.2-0.8-1.4-1.3-2.2-2
		c-0.6-0.4-1.3-0.8-1.9-1.2l-0.1-0.1c-0.2-0.3-0.5-0.5-0.7-0.8c-0.7-0.4-1.3-0.7-1.9-1.1c-1.7-1.4-3.4-2.9-5.1-4.3
		c-2-1.6-4.1-3.2-6.2-4.8C89.9,364.2,94.2,363.5,98.4,362.8z M88.6,313.1c-1.4,0.3-2.8,0.5-4.1,0.8c-2.4,1-4.9,2.1-7.3,3.1
		c-2.8,4.1-1.7,8.1,2.6,9.5c3.3-0.3,6.6-0.5,9.8-0.8c7.8-1.2,15.8-1.8,23.4-3.8c4.9-1.3,9.2-4.6,13.8-7.1c-0.2-0.7-0.3-1.3-0.5-2
		c-3.6-0.9-7.2-1.8-10.8-2.8c-0.7-0.1-1.3-0.1-2-0.2c-3,0.4-6,0.7-9,1.1c-0.3,0-0.7,0-1,0C98.6,311.7,93.6,312.4,88.6,313.1z
		 M135.2,488c0.1-1.7,0.3-3.3,0.4-5c0.3-0.8,0.8-1.5,0.8-2.3c0.1-11.8,0.4-23.6,0-35.3c-0.1-3.7-1.9-7.4-3.2-11.9
		c-1.4,1.6-2.5,2.3-2.7,3.1c-1.3,5.9-3.1,11.8-3.4,17.7c-0.5,8.8,0.2,17.7,0.3,26.6c-0.2,9.3-0.2,9.3,6.9,8.8
		c0.5-0.2,1.1-0.3,1.6-0.5C135.8,488.9,135.5,488.4,135.2,488z M53.5,478c0.6,1.4,0.9,3.2,1.9,4.2c7.7,7.5,15.4,14.9,23.3,22.1
		c0.7,0.7,2.4,0.3,3.7,0.4c4.2-4.2,8.4-8.4,12.4-12.6c2.4-2.5,4.6-5.2,7-7.7c2.2-2.3,1.4-4.1-0.5-5.9c-5.3-5-10.4-10.1-15.9-15
		c-2.5-2.2-5.6-3.9-8.4-5.8c-0.5-0.9-0.9-1.8-2-3.8c-0.9,3-1.4,4.9-1.8,6.4c-1.9,0.8-3.9,1-5,2.1c-4.3,4.5-6.3,11.1-13.1,13
		C54.3,475.8,54,477.1,53.5,478z M151.5,302.3c0.6-0.2,1.1-0.5,1.7-0.7c-1.1-1.1-2.3-2.2-3.4-3.3c-0.9,1.4-2.3,2.8-2.4,4.3
		c-0.7,6-1.1,12-1.6,18c-0.1,1.3-0.5,3,0.2,3.8c0.6,0.7,2.8,0.8,3.6,0.3c1-0.6,1.8-2.3,1.9-3.5C151.6,314.9,151.5,308.6,151.5,302.3
		z"/>
	<path class="st13" d="M40.4,531c11.5-7.1,23.3-13,36.9-15.4c5-0.9,9.7-4.7,13.9-7.9c6.1-4.6,12.7-8.2,17.7-3.5
		c-4.3,1.9-8.4,3.6-12.6,5.4c0.1,0.5,0.1,1,0.2,1.5c2,0,4.1,0.5,5.9-0.1c7.2-2.5,14.2-5.5,21.4-8.1c24.8-9,50.1-15.2,76.8-13.7
		c-6.8,3.9-8.3,11-10.6,17.6c-2.8,6.7-5.6,13.5-8.4,20.2c-0.7-1.1-1.1-2.8-2.1-3.1c-1.1-0.4-3.7,0.5-3.7,0.8
		c0.1,5.1,0.6,10.3,0.9,15.4c-1.1,3.3-2.1,6.6-3.1,10c-0.4,4.3-0.9,8.7-1.3,13c-0.3,0.7-0.5,1.5-0.8,2.2c1.4-0.7,2.7-1.4,4-2.1
		c0.4-0.4,0.8-0.8,1.1-1.2c0.6-1,1.2-2,1.8-3c4.9-2.1,5-6.8,6.1-11c2.1-5.6,4.2-11.2,6.3-16.8c2-5.1,3.9-10.1,5.9-15.2
		c0.7-1.9,1.4-3.9,2.1-5.8c1.1-2.1,2.5-4.2,3.3-6.5c1.6-4.7,3-9.6,0.1-14.4c10,2.8,20.1,5.2,29.9,8.5c8.4,2.8,12.5,9.9,14.7,18.2
		c-2.7-1.1-5.4-2.3-8.1-3.1c-1.3-0.3-3.6-0.1-4.1,0.6c-4.7,8.6-9.1,17.3-13.6,26.1c-3.5,5.6-6.9,11.3-10.9,17.7
		c6.3,2.2,11.1,3.9,15.9,5.6c4.1,2.1,8.2,4.1,12.3,6.2c-1.1,2.4-1.6,5.2-3.3,7.1c-11.3,12.8-25.1,22.2-39.8,30.5
		c0.3-5.5,0.8-11,1-16.5c0.1-2.5-0.6-4.7-3.9-4.1l0,0c-0.5-0.7-1-1.4-1.5-2l0.1,0c-6.8-0.6-13.6-1.3-20.5-1.6c-0.6,0-1.4,2-2.1,3.1
		c-0.1,0.2-0.3,0.3-0.5,0.5c-0.9,1-2.6,2-2.7,3.1c-0.8,7.9-1.3,15.8-1.6,23.8c-0.1,1.8,1,3.6,1.6,5.4c2.4,0.9,4.9,1.8,7.4,2.7
		c-4.7,3-9.4,6.1-14.1,9.1c0.3-6.8,0.7-13.5,0.9-20.3c0-1.3-0.7-2.7-1.5-3.8c-0.4-0.5-2.4-0.7-2.6-0.4c-0.6,1.2-1,2.6-1.1,3.9
		c-0.6,6-1.1,12-1.4,18c-0.1,1.9,0.5,3.8,0.8,5.7c-3.7,2.7-7.6,5.2-10.9,8.3c-2.9,2.8-4.9,6.4-7.5,10c-9.1-6.7-17.9-13.1-26.7-19.5
		c2.8-0.7,5.6-1.6,8.5-2.1c6.5-1.1,11.8-4.2,17.5-10c-6.1-1.2-11-3-15.9-2.8c-6.7,0.2-13.4,1.8-20.1,2.8c-3,0.4-5.9,0.8-8.9,1.2
		c-1.8-0.1-3.5-0.2-5.8-0.3c8.4-12.7,19.5-21.9,30.7-31c1.8,0.1,3.7,0,5.4,0.5c7.2,2.2,7.2,2.3,9.8-4.3c1.4,0.2,2.8,0.5,4.2,0.8
		c3,0.5,6.1,1.3,9.1,1.4c0.9,0,2.6-1.6,2.5-2.4c-0.1-2-1.1-3.6-3.4-1.6v0c-2.5-1-5-2-7.5-3l0,0c-0.3-0.3-0.7-0.7-1-1
		c-0.5,0-1,0-1.5,0l0,0c-1.2-0.4-2.3-0.8-3.5-1.2c1-0.9,2-1.8,3.1-2.8c3.6,0,7.3,0.2,10.9-0.1c1.1-0.1,2.8-1.5,2.9-2.3
		c0.1-1.3-1-2.7-1.9-3.8c-0.4-0.5-1.5-0.6-2.3-0.9c5.1-3.5,10.2-6.8,15.1-10.5c2.3-1.7,3.9-4.3,5.8-6.4c-0.4-0.5-0.8-0.9-1.2-1.3
		c-4.8,3.2-9.6,6.3-14.4,9.5c-0.2-2.6-1.5-3.3-4.1-2.7c-4.3,1-8.7,1.6-13.1,2.4c-1.6-5.9-1.9-6.2-5.4-5.9c-6.8,0.4-13.5,0.9-20.3,1
		c-6.9,0.2-7.6,0.9-6.2,8c0,1.2,0,2.4,0,3.5c0.1,0.3,0.2,0.6,0,1c-1.7,0.8-4.1,1.1-4.8,2.4c-0.7,1.5-0.3,5.2,0.4,5.4
		c5.2,1.4,3.4,5.4,3.3,8.5c-0.1,3.5,0.6,5.7,4.7,5.7c1.8,0,3.7,1,5.5,1.5c-3.8,3.4-8.1,6.5-11.4,10.4c-4.4,5.2-10.2,4.3-15.7,4.9
		c-4.3-12.8-8.6-25.5-13-38.3c0-3-1.2-4.3-4.3-3c-3.6,1.5-7.2,2.8-10.8,4.2c-2,1-4,1.9-6,2.9l0,0c-4.7,1.7-9.5,3.3-14.2,5
		c-1.3,0.3-2.6,0.7-3.9,1c-1.1-1-2.8-1.8-3.3-3.1c-3-7.8-5.7-15.7-8.5-23.5c-0.6-1.6-0.8-3.4-1.3-5.4c2.9-1.6,6-3.3,9.1-5
		c1.6,2.7,3.2,5.3,4.9,8c0.5,3.3,1.9,4.4,5,2.3c3.6-2.4,7.3-4.5,10.8-6.9c2.9-2,3.4-4-0.2-5.9C42.8,536.1,41.6,533.5,40.4,531z
		 M133.6,502.2c0,0.3,0,0.5-0.1,0.8c-0.7,0.4-1.3,0.7-2,1.1c-5.4,0.8-7.9,4.8-8.8,9.4c-1.7,8.3,3.1,13.3,12,13.6
		c5.2,0.2,12.4-4.3,14.3,5.7c2.2-5.6,4.3-11.1,6.5-16.7c0.4-0.4,0.8-0.8,1.1-1.2c1-0.6,2.4-0.9,2.9-1.8c4.1-8.1-0.6-14.1-11-14
		c-1.4,0.6-2.7,1.3-4,1.9c-0.6,0-1.3,0-2,0c-2.6,0-5.2,0-7.7,0.1C134.4,501.4,134,501.8,133.6,502.2z M67.5,545.1
		c1.2,5.1,6,4.8,9.5,5.3c1.6,0.3,4.4-2.6,5.4-4.7c1.6-3,2.1-6.5,3-9.8c-0.2-6.4-4.9-8.8-12.6-10.3c-5.8-1.1-5.7,4.3-7.3,7.6
		c-0.6,1.2-1.4,2.3-1.6,3.6C63.3,540.3,62.5,544,67.5,545.1z"/>
	<path class="st14" d="M164.6,458.1c8.3,2.4,16.4,5.3,24.9,6.9c9.9,1.9,19.9,3.3,29.9,3.8c6.8,0.3,11.9,3.3,17.1,7.2
		c-3.2-0.6-6.4-1.2-9.5-1.8c-0.2,0.4-0.5,0.7-0.7,1.1c3.5,4.1,12.2,3.9,11.2,11.1c-5.3-2.5-10.6-5.1-16.1-7.4
		c-0.9-0.4-2.2,0.4-3.4,0.7c0.8,0.8,1.5,1.9,2.5,2.5c2.7,1.7,5.4,3.2,8.1,4.9l-0.1,0.2c-2.6,0.9-6.1-2.3-7.9,1.9
		c-17.1-5.6-34.6-4.4-52.1-2.5c-0.6-4-1.1-8-1.7-12C166.1,469,165.3,463.5,164.6,458.1z"/>
	<path class="st15" d="M238.5,569c-4.1-2.1-8.2-4.1-12.3-6.2c-3.1-2.1-2.4-4.7-1-7.3c0.9-1.7,1.9-3.4,2.8-5.1
		c4.2-8.1,8.4-16.3,12.6-24.4c0.8-1.2,2.1-2.2,2.4-3.5c0.8-3.3,2.9-2.9,5.2-2.2c5.7,13.2,7.1,26.6-0.4,39.5
		C245.8,563.5,241.7,566,238.5,569z"/>
	<path class="st7" d="M153.4,340.8c1.4,2,2.8,4.1,4.2,6.1c-5.8,4.7-10.4,10.9-17.8,13.5c-6.7,2.4-13.3,5-19.8,7.7
		c-3.3,1.4-6.3,3.3-9.5,5c-2.7-4-5.4-8.1-8.1-12.2c14.9-6.3,29.9-12.6,44.8-18.8C149.1,341.3,151.3,341.2,153.4,340.8z"/>
	<path class="st15" d="M191.1,584L191.1,584c0.4,0.7,0.9,1.3,1.4,2l0,0c0,7.4,0.1,14.7,0.1,22.1c-1.3,0.7-2.7,1.3-4,2
		c0.1-6.9,0.1-6.9-6.8-7.1c-2.5,0-5,0.1-7.4-0.2c-2.7-0.3-4.6,0.8-4.1,3.4c0.3,1.4,2.5,3.3,4,3.5c4.7,0.5,9.6,0.3,14.4,0.4
		c-2.6,1.7-5.3,3.3-7.9,5c-1.8-0.5-3.7-1.4-5.5-1.4c-2.6,0-5.2,0.7-7.8,1.1c0.2-9.6,0.4-19.2,0.6-28.8c0.2-0.1,0.4-0.3,0.5-0.5
		c4.1-0.2,8.3-0.3,12.4-0.5C184.3,584.7,187.7,584.3,191.1,584z"/>
	<path class="st7" d="M164.6,458.1c0.8,5.5,1.5,10.9,2.3,16.4c0.6,4,1.1,8,1.7,12c-4.5,1-9,1.9-13.8,3c-4.9-12.1-5-24.4-2.4-36.8
		C156.4,454.5,160.5,456.3,164.6,458.1z"/>
	<path class="st15" d="M97.6,567.5c0.1-0.3,0.1-0.7,0-1c0.7-1.2,1.3-2.3,2-3.5c-0.4-4.1,1.5-5.6,5.6-5.3c3.8,0.3,7.6,0.4,11.4,0.1
		c3.8-0.3,5.3,0.9,5.1,4.9c-0.3,5.1,0,10.3,0,15.4c-1.6,1.3-3.2,2.7-4.8,4c-6.1-3.2-6-3.1-2.9-9.4c0.6-1.2-0.1-3.5-1-4.7
		c-1.6-2.3-3.7-4.2-5.8-6.1c-0.9-0.9-2.3-1.5-3.5-1.7c-0.5-0.1-1.9,1.9-1.8,2.2c0.6,1,1.8,1.8,2.7,2.6c2.5,2.1,7.7,4.3,5.5,7.4
		c-4.1,5.7-2.8,8.3,2.6,10.9c0.5,0.2,0.8,1,1.1,1.6c-1,0.7-1.9,1.5-2.9,2.2c-2.3-0.1-4.7-0.3-7-0.1c-3.2,0.2-4.6-0.8-4.3-4.2
		c0.3-3.8,0.3-7.7,0.1-11.5C99.4,570,98.2,568.8,97.6,567.5z"/>
	<path class="st16" d="M34.7,529c-4.3,2.6-8.7,5.2-13,7.7c-4.1-7.1-8.3-14.1-12.1-21.3c-1.3-2.5-1.4-5.6-2-8.5L7.5,507
		c0.3-0.4,0.7-0.7,1.1-1l-0.1,0c1.9-0.7,3.8-1.7,5.8-2c1.8-0.3,4.9-0.8,5.4,0.1C25,512.2,29.8,520.7,34.7,529z"/>
	<path class="st13" d="M234.3,494c8.1-1.4,8.7-2.1,7.5-9.4c1.7,0.7,3.7,1,5,2.1c13.1,12.2,17.8,27.6,16.6,45.1
		c-0.6-1.6-1.3-3.2-1.8-4.8c-0.6-1.8-4.6-4-6-3.1c-1.3-2.7-2.9-5.3-3.9-8.1C248.3,506.5,243.8,498.3,234.3,494z"/>
	<path class="st17" d="M128.7,258.2c-2.2,0.8-4.5,1.7-6.7,2.5c0,0.5,0.1,1,0.1,1.5c3.2,0,6.3,0,9.5,0c1.6,0,3.6-0.2,4.9,0.6
		c1.1,0.6,2,2.5,2,3.8c0,0.8-1.7,2.3-2.7,2.4c-3.5,0.3-7,0.1-10.4,0.2c-1.8,0-4-0.2-3,2.9c-1.3,3.1-0.5,4.9,3.1,5.1
		c1.1,0.1,2.1,0.6,3.2,0.9c0,0.6,0,1.2,0,1.9c-2.1-0.3-4.1-0.7-6.1-1c-2.5,6.7-2.3,6.1-9.6,4.5c-5.4-1.2-11.2-0.3-16.8-0.6
		c-1.5-0.1-3-1.1-4.5-1.8c0.3-0.4,0.7-0.8,1-1.2c5.9,0.1,11.9,0.4,17.8,0.2c1.4-0.1,2.7-1.9,4.1-3c0.6-0.3,1.2-0.6,1.8-0.9
		c0.3,1.9,0.6,3.7,0.8,5.6c0.8-0.1,1.6-0.1,2.3-0.2c0-10.8,0-21.5,0-32.3c4.1,1.2,8.3,2.4,12.4,3.7c-2.4,1-4.8,2.1-7.3,3.1
		c-1.2,0.2-2.3,0.4-3.5,0.6c0.3,0.5,0.5,1.1,0.8,1.6c0.9-0.7,1.9-1.4,2.8-2.1C125.9,256.8,127.3,257.5,128.7,258.2z M136,266.4
		c0-0.4,0-0.9,0.1-1.3c-4.8-0.2-9.5-0.5-14.3-0.7c0,0.7,0,1.4-0.1,2C126.4,266.4,131.2,266.4,136,266.4z"/>
	<path class="st17" d="M89.5,621c3-0.4,5.9-0.8,8.9-1.2c6.7-1,13.4-2.6,20.1-2.8c4.9-0.1,9.8,1.7,15.9,2.8c-5.7,5.8-11,8.9-17.5,10
		c-2.9,0.5-5.7,1.4-8.5,2.1c-2.4-1.6-4.8-3.2-7.1-4.8c6.3-1.1,12.6-2.3,18.8-3.4c-0.2-0.8-0.3-1.7-0.5-2.5
		c-6.7,1.6-13.5,3.3-20.2,4.9C96.1,624.4,92.8,622.7,89.5,621z M98.4,622c0.1,0.4,0.1,0.9,0.2,1.3c6.7-1.1,13.4-2.1,20-3.2
		c-0.1-0.5-0.2-1-0.2-1.4C111.8,619.7,105.1,620.8,98.4,622z"/>
	<path class="st18" d="M48.4,299c0.7-1,1.5-2,2.2-3c4.2-1.2,8.4-2.5,12.6-3.7c-0.1-0.5-0.3-0.9-0.4-1.4c-3.4,0.7-6.9,1.3-10.3,2
		c3.7-5.3,7.3-10.6,11-15.9c1.9,6,3.6,12,5.6,17.9c0.9,2.8,0.8,4.8-2.4,5.8c-6.1,2-12.2,4.1-18.3,6c-1.5,0.5-3.3,0.1-5,0.2
		c1.1-1.6,2.2-3.2,3.3-4.8c5.9-1.9,11.8-3.7,17.7-5.5c-0.2-0.5-0.3-1-0.5-1.5C58.7,296.4,53.5,297.7,48.4,299z"/>
	<path class="st15" d="M71.4,606.4c-0.9-0.2-1.9-0.4-2.8-0.5c1.5-1.8,6.7-2.4,1.8-6c-0.6-1.6-1.2-3.2-1.8-4.9c-1-0.7-2-1.3-3-2
		c0.6-1,1.3-2.1,2.2-3.6c-1.7,0-2.9,0-4.2,0c0-0.4,0-0.9,0-1.3c0.7-1.1,1.3-2.1,2-3.2c-0.3-0.6-0.7-1.3-1-1.9c-0.7-0.7-1.3-1.4-2-2
		c0-0.6,0-1.3,0-1.9c-0.6-0.8-1.2-1.6-1.8-2.4c0-0.5-0.1-1-0.1-1.5c0.6-0.7,1.3-1.5,1.9-2.2c-0.2-0.3-0.5-0.7-0.7-1
		c-6.4,2.4-12.9,4.7-19.3,7.1c-0.8,0-1.7,0-2.6,0c-1.1-0.6-2.1-1.2-3.4-2c3.3-1.8,6.2-3.4,9-5l0,0c2-0.3,4-0.7,6-1
		c4.5-0.9,9-1.9,13.5-2.8c0.5,1.9,0.8,3.9,1.4,5.8c3,9.3,6.1,18.6,9.3,27.8c0.7,2,1.5,3.8-1.2,4.8c-0.6,0-1.3,0-1.9,0
		C72.2,606.5,71.8,606.5,71.4,606.4z"/>
	<path class="st18" d="M62.6,579c0,0.6,0,1.3,0,1.9c-5.6,2.2-11.2,4.3-16.8,6.5c0.2,0.4,0.3,0.8,0.5,1.1c6.1-1.9,12.2-3.7,18.3-5.6
		c0.3,0.6,0.7,1.3,1,1.9c-6.3,2.1-12.6,4.2-18.8,6.2c0.2,0.6,0.4,1.2,0.6,1.8c5.4-1.6,10.8-3.2,16.2-4.9c0,0.4,0,0.9,0,1.3
		c-5,2.1-9.9,4.2-14.9,6.3c0.1,0.4,0.2,0.7,0.3,1.1c1.5-0.2,3-0.5,4.5-0.7c0,0.5,0,1,0.1,1.5c-1.4,0.6-2.8,1.1-4.1,1.7
		c-2-1.1-3.9-2.2-5.9-3.3c-0.8-2.8-1.6-5.6-2.3-8.4c-0.7-2.8-3.5-5.2-1.4-8.5c0.8,0,1.7,0,2.6,0c1.5,0.1,3.1,0.7,4.4,0.3
		c4.6-1.2,9.1-2.8,13.7-4.2c0,0.5,0.1,1,0.1,1.5c-5.3,2.2-10.5,4.3-15.7,6.5c0.1,0.4,0.3,0.8,0.4,1.1
		C51.1,582.5,56.8,580.8,62.6,579z"/>
	<path class="st19" d="M121.6,578.2c0-5.1-0.3-10.3,0-15.4c0.3-4.1-1.2-5.2-5.1-4.9c-3.8,0.3-7.6,0.2-11.4-0.1
		c-4.1-0.3-5.9,1.2-5.6,5.3c-0.7,0-1.3,0-2,0c-1.4-7.1-0.7-7.9,6.2-8c6.8-0.2,13.5-0.6,20.3-1c3.6-0.2,3.8,0,5.4,5.9
		c4.4-0.8,8.8-1.4,13.1-2.4c2.6-0.6,3.9,0,4.1,2.7c-1,0.7-1.9,1.3-2.9,2c-0.2-0.2-0.3-0.3-0.5-0.5c-1-0.5-2.1-1.4-3.1-1.3
		c-3.5,0.4-7,1.1-10.5,1.7c-1-0.3-2-0.7-3-1c-0.1-1.5-0.3-3.1-0.4-4.6c-0.6,0-1.2,0-1.7-0.1c-1.8,6.7-0.5,13.7-0.9,20.5
		C122.9,577.3,122.2,577.7,121.6,578.2z"/>
	<path class="st20" d="M34.7,529c-4.9-8.3-9.8-16.8-15-24.9c-0.6-0.9-3.6-0.5-5.4-0.1c-2,0.4-3.9,1.3-5.8,2c2.5-2.1,5.1-4.2,8.3-6.9
		c-4.7-1.3-7.6-2.1-10.7-3c-0.2,3.5-0.5,6.8-0.7,10c-0.3-6-0.6-12.1-0.9-18.1c0.6,0.3,1.5,0.4,1.7,0.8c2.1,4.2,5.1,6.9,10.1,7.5
		c1.6,0.2,3.2,2.2,4.2,3.8c5.5,8.3,10.7,16.7,16.1,25.1c0.5,0.8,1.4,1.4,2.1,2C37.3,527.9,36,528.4,34.7,529z"/>
	<path class="st21" d="M36.1,465.9c-1.1,3.4-1.8,6.4-7,4.7c-3.4-1.1-7.5-0.6-11.2-0.2c-4.4,0.4-8.6,0.2-12.3-2.5
		c0.4-3.3,0.7-6.6,1.1-9.9c0.5,0,1,0,1.5,0c0,2.2,0,4.5,0,6.7c0.2,0.6,0.3,1.3,0.5,1.9c0.4-0.7,0.7-1.3,1-2
		c7.6,0.1,15.2,0.3,22.9,0.5C33.7,465.3,34.9,465.6,36.1,465.9z"/>
	<path class="st17" d="M128.5,578.8c1.2,0.4,2.3,0.8,3.5,1.2c-1.1,0.6-2.3,1.3-3.5,1.9c0,0.4-0.1,0.8-0.1,1.2
		c4.4,1,8.9,1.9,13.4,2.9c0.1-0.7,0.1-1.3,0.2-2c2.3-2,3.3-0.3,3.4,1.6c0,0.8-1.7,2.5-2.5,2.4c-3.1-0.2-6.1-0.9-9.1-1.4
		c-1.4-0.3-2.9-0.5-4.2-0.8c-2.6,6.6-2.6,6.5-9.8,4.3c-1.7-0.5-3.6-0.3-5.4-0.5C119.1,586.1,123.8,582.4,128.5,578.8z"/>
	<path class="st19" d="M43.4,307c1.7,0,3.5,0.3,5-0.2c6.1-1.9,12.2-4,18.3-6c3.2-1,3.3-3,2.4-5.8c-2-6-3.8-12-5.6-17.9
		c0.4-0.7,0.8-1.3,1.1-2c2.6,7.4,5.3,14.7,7.7,22.1c0.4,1.2-0.4,3.9-1.2,4.2c-9.8,3.4-19.8,6.4-29.8,9.5
		C42,309.6,42.7,308.3,43.4,307z"/>
	<path class="st21" d="M190,506.8c2.3-6.6,3.8-13.7,10.6-17.6c0.6,0.1,1.2,0.1,1.7,0.2c2.9,4.8,1.5,9.7-0.1,14.4
		c-0.8,2.3-2.2,4.3-3.3,6.5c-1.4-1.3-2.8-2.6-4.4-4.2c-0.6,1.2-1,2.1-1.2,2.5C192,507.9,191,507.4,190,506.8z M193.1,501.7
		c3.4,0.4,5.3,1,6.9,0.6c0.7-0.2,1.5-2.7,1.1-3.8s-2.8-2.5-3.2-2.2C196.3,497.3,195.3,499,193.1,501.7z"/>
	<path class="st13" d="M19.9,538.2c-2.7,1.8-5.5,3.5-8.2,5.2c-2-9.2-3.8-17.8-5.6-26.4c0.6,0.2,1.6,0.3,1.8,0.8
		C12,524.6,15.9,531.4,19.9,538.2z"/>
	<path class="st22" d="M153.6,633.2c-0.3-1.9-0.9-3.8-0.8-5.7c0.3-6,0.9-12,1.4-18c0.1-1.3,0.5-2.8,1.1-3.9c0.1-0.3,2.2-0.2,2.6,0.4
		c0.8,1,1.6,2.5,1.5,3.8c-0.2,6.8-0.6,13.5-0.9,20.3C156.9,631,155.3,632.1,153.6,633.2z"/>
	<path class="st19" d="M248.3,520.3c-2.3-0.7-4.4-1-5.2,2.2c-0.3,1.3-1.6,2.3-2.4,3.5c-0.4-0.4-0.9-0.9-1.3-1.3
		c-1-1.2-2.1-2.5-3.1-3.7c1.5,0,3.1,0,4.8,0c2-4.4,2-4.4-4.9-5.8c-1.1,1.9-2.2,3.9-3.4,5.8c-0.7,1.5-1.4,3-2.1,4.4
		c-2,3.9-4.1,7.7-6.1,11.6c-0.8,1.2-1.7,2.4-2.5,3.6c-0.3-0.3-0.6-0.6-0.9-0.9c4.5-8.7,8.9-17.5,13.6-26.1c0.4-0.8,2.8-1,4.1-0.6
		c2.8,0.8,5.4,2,8.1,3.1C247.4,517.5,247.8,518.9,248.3,520.3z"/>
	<path class="st17" d="M8.2,458c-0.5,0-1,0-1.5,0c0.2-7.6,0.4-15.2,0.6-22.9c9.6-4.2,19.1-1.6,28.5,0.7c2.5,0.6,4.3,3.2,1.9,6.2
		c-0.6-1-1.3-2-1.9-3.1c-2.4-1-4.6-2.5-7.1-2.8c-4.1-0.5-8.3-0.2-12.5-0.3c-6.1-0.1-7.1,0.9-7.4,7.2C8.5,448.1,8.3,453,8.2,458z"/>
	<path class="st17" d="M97.6,567.5c0.7,1.3,1.8,2.6,1.9,3.9c0.2,3.8,0.2,7.7-0.1,11.5c-0.2,3.4,1.1,4.4,4.3,4.2
		c2.3-0.2,4.7,0.1,7,0.1c-1.3,1.3-2.7,2.5-4,3.7c-1.8-0.5-3.7-1.5-5.5-1.5c-4.1,0-4.7-2.2-4.7-5.7c0.1-3,1.9-7-3.3-8.5
		c-0.7-0.2-1.2-4-0.4-5.4C93.4,568.6,95.9,568.2,97.6,567.5z M95.8,574.2c0.1,0,0.3,0,0.4,0c0-0.5,0-1,0-1.5c-0.1,0-0.3,0-0.4,0
		C95.8,573.2,95.8,573.7,95.8,574.2z"/>
	<path class="st23" d="M113.6,585c-0.4-0.5-0.6-1.4-1.1-1.6c-5.5-2.6-6.7-5.3-2.6-10.9c2.3-3.2-2.9-5.3-5.5-7.4
		c-1-0.8-2.1-1.6-2.7-2.6c-0.2-0.3,1.2-2.3,1.8-2.2c1.2,0.1,2.6,0.8,3.5,1.7c2.1,1.9,4.2,3.9,5.8,6.1c0.9,1.2,1.6,3.5,1,4.7
		c-3.1,6.3-3.2,6.2,2.9,9.4C115.7,583.1,114.7,584,113.6,585z"/>
	<path class="st21" d="M39.9,578.9c-2.1,3.2,0.7,5.7,1.4,8.5c0.7,2.8,1.5,5.6,2.3,8.4c-3-2.9-5.9-5.8-8.9-8.8c1.5-4.2,1-7.8-3.3-10
		c4.7-1.7,9.5-3.3,14.2-5c-2.9,1.6-5.8,3.2-9,5C37.8,577.7,38.8,578.3,39.9,578.9z"/>
	<path class="st19" d="M74.5,606.6c2.8-1,1.9-2.8,1.2-4.8c-3.2-9.2-6.2-18.5-9.3-27.8c-0.6-1.9-1-3.8-1.4-5.8
		c0.5-0.1,1.1-0.2,1.6-0.3c4.3,12.8,8.6,25.5,13,38.3C77.9,606.3,76.2,606.5,74.5,606.6z"/>
	<path class="st17" d="M255.5,523.9c1.3-0.9,5.4,1.3,6,3.1c0.5,1.6,1.2,3.2,1.8,4.8c-0.3,3.5-0.5,6.9-0.8,10.4
		c-1.4-0.5-2.9-1-4.4-1.5c-0.5,1.8-0.9,3-1.2,4.3c-0.1-2.7-0.2-5.3-0.3-8c1.6,0.4,3.2,0.7,4.8,1.1c0.1,0.2,0.3,0.3,0.4,0.5
		c-0.1-0.2-0.3-0.3-0.4-0.5c-0.5-2.3-1-4.6-1.7-7.4c-1.5,1.2-2.4,1.8-3.2,2.5C256.3,530,255.9,527,255.5,523.9z"/>
	<path class="st16" d="M25.3,539.9c4.1-2.3,8.2-4.7,12.3-7.1c1.7,1.7,4.3,3,1.7,5.9c-0.6,0.4-1.2,0.8-1.8,1.3
		c-0.8,0.6-1.5,1.2-2.3,1.8C31.8,542.1,27.4,547.3,25.3,539.9z"/>
	<path class="st20" d="M19.9,538.2c-4-6.8-7.9-13.7-12-20.4c-0.3-0.5-1.2-0.5-1.8-0.8c-0.2-3.4-0.3-6.8-0.5-10.2
		c0.7,0,1.3,0,1.9,0.1c0.7,2.8,0.7,6,2,8.5c3.8,7.2,8,14.2,12.1,21.3C21.1,537.2,20.5,537.7,19.9,538.2z"/>
	<path class="st18" d="M119.4,249.2c0,10.8,0,21.5,0,32.3c-0.8,0.1-1.6,0.1-2.3,0.2c-0.3-1.9-0.6-3.7-0.8-5.6
		c0.1-8,0.2-16.1,0.3-24.1c0.1-0.9,0.1-1.8,0.2-2.8C117.6,249.2,118.5,249.2,119.4,249.2z"/>
	<path class="st19" d="M89.4,269.1c-1.3-0.6-3.5-1.1-3.7-2c-0.4-1.7-0.2-5.1,0.6-5.4c5.6-2.2,3.3-7,4.2-10.8c1-0.4,2-0.7,3.1-1.1
		c0,0.2,0,0.4,0,0.6c0,1.5,0,3.1,0,4.6c0,0.6,0,1.2,0,1.7c-0.3,3.7-0.7,7.4-1.1,11.1C91.4,268.4,90.4,268.8,89.4,269.1z"/>
	<path class="st22" d="M18.8,391.1c-0.8-1.1-1.6-2.1-2.4-3.2c1.4-5.5,2.7-10.9,4.1-16.4c1.2,2.2,2.4,4.5,3.5,6.7
		c-1,3.8-2,7.7-2.9,11.5C20.3,390.1,19.5,390.6,18.8,391.1z"/>
	<path class="st19" d="M99.8,357.2c-1.5-1.7-3.2-3.3-4.4-5.2c-0.6-0.9-0.7-2.7-0.1-3.5c0.4-0.7,2.4-0.9,3.3-0.5
		c3.4,1.5,6.7,3.4,10,5.1C105.7,354.4,102.8,355.8,99.8,357.2z"/>
	<path class="st21" d="M167.5,614.8c2.6-0.4,5.2-1.1,7.8-1.1c1.8,0,3.6,0.9,5.5,1.4c-2.7,2-5.3,3.9-8,5.8c-2.4-0.9-4.9-1.8-7.4-2.7
		C166,617,166.8,615.9,167.5,614.8z"/>
	<path class="st17" d="M192.6,608.1c0-7.4-0.1-14.7-0.1-22.1c3.3-0.5,4,1.6,3.9,4.1c-0.2,5.5-0.6,11-1,16.5
		C194.5,607.2,193.5,607.6,192.6,608.1z"/>
	<path class="st17" d="M141.2,569c0.8,0.3,1.9,0.3,2.3,0.9c0.9,1.1,1.9,2.5,1.9,3.8c0,0.8-1.8,2.2-2.9,2.3
		c-3.6,0.3-7.3,0.1-10.9,0.1C134.8,573.7,138,571.3,141.2,569z"/>
	<path class="st24" d="M7.6,506.9c-0.7,0-1.3,0-1.9-0.1c-0.1-0.3-0.2-0.5-0.2-0.8c0.2-3.2,0.4-6.5,0.7-10c3.2,0.9,6.1,1.7,10.7,3
		c-3.2,2.7-5.8,4.8-8.3,6.9l0.1,0C8.2,506.3,7.9,506.7,7.6,506.9C7.5,507,7.6,506.9,7.6,506.9z"/>
	<path class="st25" d="M68.6,595c0.6,1.6,1.2,3.2,1.8,4.9c-3.9,1.1-7.8,2.1-11.8,3.2c-1.1-0.7-2.2-1.3-3.3-2
		c1.2-0.6,2.5-1.2,3.7-1.8C62.2,597.9,65.4,596.4,68.6,595z"/>
	<path class="st19" d="M68.6,595c-3.2,1.4-6.3,2.9-9.5,4.3c-1.3,0.6-2.5,1.2-3.7,1.8c-1.9-0.7-3.9-1.3-5.8-1.9
		c1.4-0.5,2.8-1.1,4.1-1.7c0.7-0.5,1.3-1,1.9-1.5l0,0c1.3-0.3,2.7-0.7,4-1l0,0c2-0.7,4-1.3,6-2l0,0C66.6,593.7,67.6,594.3,68.6,595z
		"/>
	<path class="st18" d="M31.4,577c4.3,2.3,4.8,5.8,3.3,10c-2.4-3-4.8-6-7.2-9C28.8,577.7,30.1,577.3,31.4,577z"/>
	<path class="st17" d="M93.6,250.6c0-0.2,0-0.4,0-0.6c2.8-0.3,5.7-0.7,8.5-0.9c3.9-0.3,7.8-0.6,11.6-0.8c1,0,2,0.6,3,1
		c-0.1,0.9-0.1,1.8-0.2,2.8c-0.7-0.3-1.5-0.6-2.2-0.9C107.4,250.9,100.5,250.7,93.6,250.6z"/>
	<path class="st18" d="M123.6,576.9c0.4-6.8-0.9-13.8,0.9-20.5c0.6,0,1.2,0,1.7,0.1c0.1,1.5,0.3,3.1,0.4,4.6
		c-0.3,4.4-0.5,8.8-0.8,13.2C125.1,575.1,124.3,576,123.6,576.9z"/>
	<path class="st22" d="M58.6,603c3.9-1.1,7.8-2.1,11.8-3.2c4.9,3.7-0.3,4.3-1.8,6C65.3,604.9,62,604,58.6,603z"/>
	<path class="st18" d="M99.4,626.1c6.7-1.6,13.5-3.3,20.2-4.9c0.2,0.8,0.3,1.7,0.5,2.5c-6.3,1.1-12.6,2.3-18.8,3.4
		C100.7,626.8,100.1,626.4,99.4,626.1z"/>
	<path class="st20" d="M161.5,313.2c-5.5-2.6-6.4-6.3-4-15.3C158.8,303,160.1,308.1,161.5,313.2z"/>
	<path class="st21" d="M125.8,574.2c0.3-4.4,0.5-8.8,0.8-13.2c1,0.3,2,0.7,3,1c-2,2.6-0.6,3,1.8,2.8c0.4,0.4,0.8,0.8,1.2,1.2
		c-1.6,0.7-3.2,1.4-4.7,2.1c0.2,0.5,0.3,1.1,0.5,1.6c1.4-0.2,2.8-0.4,4.2-0.6C130.2,570.8,128,572.5,125.8,574.2z"/>
	<path class="st24" d="M257,545c0.3-1.2,0.7-2.4,1.2-4.3c1.5,0.5,2.9,1,4.4,1.5c-1.4,3.2-2.9,6.4-4.3,9.6c-0.6-0.2-1.2-0.4-1.9-0.5
		C256.6,549.2,256.8,547,257,545z"/>
	<path class="st26" d="M25.3,539.9c2.1,7.4,6.5,2.2,10,1.8c0.2,0.2,0.4,0.4,0.5,0.6c-2,2.2-4,4.4-6,6.6c-0.5,0.1-1,0.2-1.5,0.2
		c-1.6-2.7-3.2-5.3-4.9-8C24.1,540.7,24.7,540.3,25.3,539.9z"/>
	<path class="st25" d="M128.7,258.2c-1.4-0.7-2.7-1.4-4.1-2.1l0,0c2.4-1,4.8-2.1,7.3-3.1c1.4,1.2,2.9,2.4,4.3,3.5
		C133.6,257,131.1,257.6,128.7,258.2z"/>
	<path class="st25" d="M48.4,299c5.2-1.3,10.4-2.6,15.6-3.9c0.2,0.5,0.3,1,0.5,1.5c-5.9,1.9-11.8,3.7-17.7,5.5
		C47.2,301.1,47.8,300.1,48.4,299z"/>
	<path class="st22" d="M132.4,569c-1.4,0.2-2.8,0.4-4.2,0.6c-0.2-0.5-0.3-1.1-0.5-1.6c1.6-0.7,3.2-1.4,4.7-2.1
		c2.4-0.3,4.7-0.7,7.1-1C137.2,566.3,134.8,567.7,132.4,569z"/>
	<path class="st25" d="M52.4,293c3.4-0.7,6.9-1.3,10.3-2c0.1,0.5,0.3,0.9,0.4,1.4c-4.2,1.2-8.4,2.5-12.6,3.7
		c0.4-0.7,0.8-1.4,1.2-2.1c0.3-0.4,0.5-0.7,0.8-1L52.4,293z"/>
	<path class="st24" d="M261.5,538c-1.6-0.4-3.2-0.7-4.8-1.1c0-1.3-0.1-2.6-0.1-3.9c0.9-0.7,1.7-1.3,3.2-2.5
		C260.5,533.4,261,535.7,261.5,538C261.5,538,261.5,538,261.5,538z"/>
	<path class="st19" d="M139.6,565c-2.4,0.3-4.7,0.7-7.1,1c-0.4-0.4-0.8-0.8-1.2-1.2c3.9-1,7.9-2.1,11.9-3.2c0.2,0.2,0.3,0.3,0.5,0.5
		C142.3,563.1,140.9,564,139.6,565z"/>
	<path class="st21" d="M39.3,538.7c2.7-2.8,0-4.2-1.6-5.9c0.9-0.6,1.8-1.2,2.7-1.8c1.2,2.5,2.4,5.1,3.6,7.7c-0.3,0.3-0.5,0.7-0.8,1
		c-1,0-2,0-2.9,0C39.9,539.3,39.6,539,39.3,538.7z"/>
	<path class="st27" d="M156.6,411c0.3,0.3,0.6,0.7,0.9,1C157.2,411.7,156.9,411.4,156.6,411z"/>
	<path class="st20" d="M157.1,296.1c-0.1-0.4-0.2-0.8-0.3-1.2c0.2,0.3,0.3,0.5,0.4,0.8C157.2,295.8,157.1,296,157.1,296.1z"/>
	<path class="st18" d="M52.5,293c-0.3,0.4-0.5,0.7-0.8,1C52,293.6,52.3,293.3,52.5,293z"/>
	<path class="st24" d="M255.9,552.2c0.1,0,0.2,0,0.3,0c0.1,0.1,0.1,0.2,0.1,0.3c-0.2,0-0.4,0-0.6,0
		C255.8,552.4,255.9,552.3,255.9,552.2z"/>
	<path class="st19" d="M71.4,606.4c0.4,0,0.8,0.1,1.2,0.1C72.2,606.5,71.8,606.5,71.4,606.4z"/>
	<path class="st1" d="M177.7,79.1c8.6-2.3,13.3,0.9,15.7,4.5c0.7,1,0.4,2.7,0.6,4.1c-1.3,0-3,0.6-3.9,0
		C186.2,85.2,182.4,82.4,177.7,79.1z"/>
	<path class="st12" d="M87.5,107.1c0.3-0.7,0.7-1.3,1-2C88.2,105.7,87.8,106.4,87.5,107.1z"/>
	<path class="st9" d="M41.3,114.7c-0.1,0.1-0.2,0.2-0.3,0.3c-0.1-0.2-0.2-0.4-0.3-0.6c0-0.1,0.2-0.2,0.3-0.3
		C41.1,114.3,41.2,114.5,41.3,114.7z"/>
	<path class="st28" d="M342.4,589.9c34,13.1,67.6,13.6,102.4,1.9c4.2,7.3,8.7,15.2,13.5,23.5c-1.6,0.8-2.8,1.7-4.1,2.1
		c-10.1,3.7-20.3,7.3-30.4,10.9c-14.5,5-29.5,4.6-44.5,3.3c-10-0.9-20.1-2.3-29.9-4.8c-6.3-1.6-12.1-5.2-18-8.4
		c-0.9-0.5-1.3-3.8-0.6-5.2C334.5,605.3,338.5,597.5,342.4,589.9z"/>
	<path class="st11" d="M407.7,579.2c-1.4,2.3-2.8,4.5-4.2,6.8l0,0c-7.8-5.7-14.4-5.4-20.4,2c2.6-0.7,5.1-1.7,7.8-2
		c2.7-0.3,5.5,0.1,8.3,0.2c0,0.5,0,1,0,1.5c-2.7,1.3-5.5,2.6-8.4,4c-1.7-0.5-3.7-1.4-5.8-1.8c-3.3-0.6-7,0-9.8-1.4
		c-2.6-1.3-4.2-4.4-6.5-7c2.5-3.2,6-4.5,9.9-2.9c5.1,2.1,9.5,0.6,14.4-0.5c4.5-1,9.6,0.4,14.4,0.8
		C407.4,578.9,407.7,579.2,407.7,579.2z"/>
	<path class="st11" d="M429.5,593.7c-14.9,4.9-30.4,5.2-46,3.7c-1.6-0.2-3.5,0-4.9-0.6c-1.4-0.6-2.4-2-3.5-3c0.4-0.7,0.8-1.3,1.1-2
		c5.3,1.3,10.5,2.7,16.1,4.1c4.1-5.1,5.7-5.2,13-1.1c1.1,0.6,3.7,0.4,4.3-0.4c3.3-4,10.9-5.9,15.6-3.3
		C426.5,592,427.9,592.8,429.5,593.7z"/>
	<path class="st11" d="M403.5,586c3.4,1.7,5.1-1,6.3-3c3.2-5.5,7.3-5,12.1-2.7c2.2,1.1,4.5,2,6.7,2.9c0.3,1.7,0.6,3.4,0.9,5.1
		c-6.6-2.3-13.1-2.6-19.6,0.8C406.9,590.7,403.9,590.4,403.5,586C403.5,586,403.5,586,403.5,586z"/>
	<path class="st11" d="M358.3,588.8c0.9-0.2,1.8-0.5,2.7-0.7c2.4-0.6,5.5-2.4,7-1.5c2.1,1.2,2.9,4.5,4.9,8
		c-5.3-0.6-8.8-0.9-12.3-1.6c-0.9-0.2-1.6-1.3-2.4-2C358.2,590.2,358.2,589.5,358.3,588.8z"/>
	<path class="st28" d="M429.5,588.3c-0.3-1.7-0.6-3.4-0.9-5.1c4.5-0.2,8.6,0.7,11.9,4.3C436.7,587.6,433.6,595,429.5,588.3z"/>
	<path class="st28" d="M358.3,588.8c0,0.7-0.1,1.4-0.1,2.2c-3.7-1.3-7.5-2.5-11.2-3.8c0-0.4,0-0.8-0.1-1.3c4.3-1.3,8.7-2.6,13.3-3.9
		C359.4,584.7,358.8,586.7,358.3,588.8z"/>
	<path class="st14" d="M110.4,373.1c3.2-1.7,6.2-3.6,9.5-5c6.5-2.7,13.2-5.3,19.8-7.7c7.4-2.6,12-8.9,17.8-13.5
		c3.5,3.3,6.7,7,10.6,9.8c13.3,9.4,27.7,12.8,44.1,9.5c16.6-3.3,31.8-9.2,45.6-18.9c2.1-1.5,3.7-3.7,5.3-5.8
		c5.5-7.3,10.8-14.7,16.4-21.9c1.1-1.4,3.5-1.9,5.3-2.8c0.7,2.4,2,4.8,2,7.2c0,2.7-1,5.4-1.6,8c0.4,0.4,0.8,0.9,1.2,1.3
		c2-1,4.2-1.6,5.9-2.9c2.1-1.8,3.6-4.3,5.8-6c1-0.8,3-0.5,4.5-0.7c0.2,1.4,1,3.2,0.4,4.1c-2.2,3.4-5.1,6.4-7.3,9.8
		c-1,1.4-1,3.5-1.5,5.2c1.5,0.1,3,0.2,4.5,0.3c1.8,0,3.6,0,6.2,0c-0.5,2.4-0.2,4.8-1.3,6c-3.1,3.2-2.4,4.7,3.3,5.6
		c-4.5,3.7-7.7,7.1-11.6,9.3c-11.6,6.7-23.6,12.8-35.2,19.4c-4.3,2.4-7.9,6.1-12.1,8.7c-7.1,4.5-14.3,9.1-21.9,12.7
		c-6.5,3.1-13.6,4.8-20.4,7.1c0.6-2.4,1.5-4.7,1.9-7.1c1.7-9.4-8.9-21.4-17.6-21.9c-5.1-0.3-10.1-1.3-15.2-1.9
		c-13.4-1.6-25,8.9-16.8,22c0.4,0.7-0.3,2-0.4,3C139.3,398.6,123.2,388.3,110.4,373.1z"/>
	<path class="st7" d="M157.5,406.1c0.2-1,0.9-2.4,0.4-3c-8.1-13.1,3.4-23.7,16.8-22c5.1,0.6,10.1,1.6,15.2,1.9
		c8.7,0.5,19.3,12.5,17.6,21.9c-0.4,2.4-1.3,4.7-1.9,7.1C189.1,414,173.2,411,157.5,406.1z"/>
	<path class="st26" d="M142.5,404.1c-0.4,2.1-0.6,4.3-1.2,6.3c-1.3,4.6-6.4,7.7-11,6.7c-2.9-0.6-5.9-1.1-8.6-2.4
		c-1.6-0.8-3.7-3.1-3.5-4.5c0.9-5.5,0.7-12,7.9-14c0.6-0.2,1.1-0.7,1.7-1C132.7,398.2,137.6,401.2,142.5,404.1z M137.5,406.6
		c0.1-3.4-5.9-7-11.8-6.5c-5.1,0.5-4.1,5.4-4.9,8.6c-0.8,3.1,4.6,6.1,10.9,6.3C134.8,415.1,137.4,411.3,137.5,406.6z"/>
	<path class="st28" d="M280.6,379c-0.7,0.3-1.4,0.5-2.1,0.8C279.2,379.6,279.9,379.3,280.6,379z"/>
	<path class="st14" d="M230.5,488c0.4,0.1,0.9,0.2,1.3,0.4c-0.1,0.1-0.2,0.3-0.3,0.4C231.2,488.5,230.9,488.2,230.5,488L230.5,488z"
		/>
	<path class="st14" d="M230.5,488c-0.7-0.3-1.4-0.6-2-0.9l0.1-0.2C229.3,487.3,229.9,487.6,230.5,488L230.5,488z"/>
	<path class="st6" d="M72.9,160c-0.4,2.2-0.2,4-1.1,5c-1.1,1.3-2.9,2-4.4,2.9c-0.8-1.9-2.7-4.6-2.1-5.7c1.8-2.8,1.7-4.8,0.4-7.7
		c-0.6-1.2,0.7-3.3,1.1-4.9c1.3,1,3.2,1.7,3.8,3C71.8,155.1,72.3,157.9,72.9,160z"/>
	<path class="st29" d="M120.4,149c-0.3-0.4-0.5-0.7-0.8-1.1C119.9,148.3,120.2,148.7,120.4,149z"/>
	<path class="st15" d="M96.9,374.1c0.7,0.4,1.3,0.7,1.9,1.1c0.2,0.3,0.5,0.5,0.7,0.8l0.1,0.1c0,0.7,0.1,1.3,0.1,2
		c-0.2,0.3-0.2,0.5-0.3,0.8c-1.4,2.3-2.9,4.4-4,6.8c-0.4,1-0.3,3.1,0.2,3.4c2.7,1.4,5.6,2.4,8.5,3.5c-0.2,0.8-0.2,1.7-0.5,2.4
		c-4.5,8.6-8.9,17.3-13.7,25.7c-0.8,1.4-3.6,1.5-5.4,2.3l0.1,0c-4-1.9-7.9-3.8-11.9-5.7c-1.5-1.1-3-2.3-4.5-3.4c-2-2-2.8-4.1-1.2-7
		c6.4-11.6,12.5-23.4,19-35c0.3-0.6,2.6-0.6,3.8-0.3C92.1,372.3,94.5,373.3,96.9,374.1z"/>
	<path class="st19" d="M96.9,374.1c-2.4-0.8-4.8-1.8-7.2-2.4c-1.2-0.3-3.4-0.4-3.8,0.3c-6.4,11.6-12.6,23.3-19,35
		c-1.6,2.9-0.8,4.9,1.2,7c-2.4-0.6-5-1-7.3-2c-2.4-1-4.6-2.5-7.5-4.2c3.2-6.4,6.4-12.8,9.7-19.2c3.5-6.6,7.1-13,10.7-19.5
		c2.1-3.8,4-8.1,9.5-4.1c0.5,0.4,1.6,0,2.4,0l0,0c2.1,1.6,4.2,3.1,6.2,4.8C93.5,371.1,95.2,372.6,96.9,374.1z M63.5,403
		c6.3-2.2,6.9-8.7,9.8-13.4c0.1-0.1-1.1-1-1.7-1.6c-0.3-0.9-0.6-1.9-1.2-3.8c3.8,5,5.4,1.9,6.7-0.4c2-3.8,3.7-7.8,5.5-11.8
		c0.7-1,1.4-2.1,2.3-3.5c-2.3-1-4.2-1.9-6.3-2.8c-1.4,2.4-2.5,4.4-3.6,6.4c-2.8,5.6-5.6,11.3-8.4,16.9c-2,4.7-3.9,9.4-5.9,14
		c-1,0.6-2.7,1.1-2.8,1.9c-0.1,1,0.6,2.7,1.5,3.2c1.1,0.6,2.7,0.3,4,0.4C63.3,406.6,63.4,404.8,63.5,403z"/>
	<path class="st17" d="M127.5,481c-0.2-8.9-0.8-17.8-0.3-26.6c0.3-6,2.1-11.9,3.4-17.7c0.2-0.9,1.3-1.6,2.7-3.1
		c1.3,4.5,3.1,8.2,3.2,11.9c0.4,11.8,0.1,23.5,0,35.3c0,0.8-0.5,1.5-0.8,2.3C132.9,482.3,130.2,481.7,127.5,481z M129.6,461.5
		c0,0-0.1,0-0.1,0c0,4-0.2,8,0.1,11.9c0.1,1.6,1.3,3.1,2,4.7c0.9-1.5,2.6-2.9,2.7-4.5c0.3-8.3,0.3-16.5,0.1-24.8
		c0-1.1-1.6-2.3-2.4-3.4c-0.8,1.2-2.2,2.4-2.3,3.7C129.4,453.2,129.6,457.4,129.6,461.5z"/>
	<path class="st17" d="M104.5,311c3-0.4,6-0.7,9-1.1c0.7,0.1,1.3,0.1,2,0.2c3.6,0.9,7.2,1.8,10.8,2.8c0.2,0.7,0.3,1.3,0.5,2
		c-4.6,2.4-8.9,5.8-13.8,7.1c-7.6,2-15.6,2.6-23.4,3.8c0.1-0.6,0.2-1.2,0.2-1.8c4.3-0.6,8.6-1.3,12.8-1.9c-0.1-0.4-0.1-0.8-0.2-1.1
		c-3.3,0.4-6.6,0.8-9.9,1.2c-1.8-0.5-3.6-1.1-5.7-1.7c0.2-0.6,0.3-1.3,0.6-1.8c0.3-0.6,0.8-1,1.2-1.5c0.3,0,0.6,0,0.8,0
		c0.7,0.7,1.4,1.4,2,2c7.6,2.4,14.4-1.5,21.6-2.3c-0.1-0.6-0.2-1.3-0.3-1.9c-6.8,1.1-13.5,2.1-20.3,3.2c0-0.7,0-1.3,0-2
		c6.3-1,12.7-1.9,19-2.9c-0.1-0.2-0.1-0.4-0.2-0.6C109.1,312,106.8,311.5,104.5,311z M104.9,320.3c0.1,0.4,0.2,0.8,0.2,1.2
		c2.5-0.5,5.1-1,7.6-1.5c-0.1-0.4-0.2-0.8-0.2-1.2C109.9,319.3,107.4,319.8,104.9,320.3z"/>
	<path class="st23" d="M77,457.8c2.8,1.9,5.9,3.5,8.4,5.8c5.4,4.8,10.6,10,15.9,15c1.9,1.8,2.7,3.6,0.5,5.9c-2.4,2.5-4.6,5.2-7,7.7
		c-4.1,4.3-8.3,8.4-12.4,12.6c0-0.8,0-1.7,0-2.5c1.1-1.6,2-3.4,3.3-4.8c4.9-5.3,9.9-10.5,14.7-15.7c-5-5.2-9.7-10.1-14.5-14.8
		c-2.9-2.9-6.2-5.4-9.3-8.1C76.7,458.5,76.8,458.1,77,457.8z"/>
	<path class="st20" d="M26.6,372c1.8-4.7,3.6-9.4,5.4-14.1c3.8-1.2,6.6,0.4,8.8,3.3c-2.7,7-5.3,14-8,20.9c-0.5-0.6-0.9-1.3-1.4-1.9
		c2.7-6.7,2.7-6.7-0.6-11.6C29.5,369.8,28,370.9,26.6,372z"/>
	<path class="st10" d="M31.5,380.2c0.5,0.6,0.9,1.3,1.4,1.9c-2.1,5.6-4.2,11.2-6.3,16.9c-1,0-1.9-0.1-2.9-0.1
		c-0.6-0.4-1.2-0.8-1.9-1.2c-0.3-2.7-0.5-5.4-0.8-8c1-3.8,2-7.7,2.9-11.5c0.2,0,0.5-0.1,0.6-0.3C26.9,378.7,29.2,379.5,31.5,380.2z"
		/>
	<path class="st19" d="M99.4,378.9c0-0.3,0.1-0.6,0.3-0.8c0.6-0.3,1.2-0.5,1.8-0.8c0.7,0.7,1.9,1.2,2.2,2c1.3,4.4,2.5,8.9,3.5,13.4
		c0.2,1.1-0.3,2.6-0.8,3.7c-4.9,9.1-9.8,18.3-14.9,27.3c-0.6,1.1-2.3,2.5-3.1,2.3c-1.4-0.4-2.5-1.9-3.8-2.9c1.9-0.7,4.6-0.9,5.4-2.3
		c4.8-8.4,9.2-17.1,13.7-25.7c0.4-0.7,0.3-1.6,0.5-2.4c0.1-0.9,0.2-1.9,0.3-2.8c-1.3-2.7-2.6-5.4-3.9-8
		C100.2,380.8,99.8,379.8,99.4,378.9z"/>
	<path class="st22" d="M151.5,302.3c0,6.3,0.1,12.5-0.1,18.8c0,1.3-0.9,2.9-1.9,3.5c-0.9,0.6-3,0.4-3.6-0.3
		c-0.7-0.8-0.3-2.5-0.2-3.8c0.5-6,0.9-12,1.6-18c0.2-1.5,1.6-2.9,2.4-4.3c1.1,1.1,2.3,2.2,3.4,3.3
		C152.6,301.9,152.1,302.1,151.5,302.3z"/>
	<path class="st21" d="M82.4,502.2c0,0.8,0,1.7,0,2.5c-1.3-0.1-3,0.3-3.7-0.4c-7.9-7.3-15.6-14.7-23.3-22.1c-1-1-1.3-2.8-1.9-4.2
		c0.8,0,1.5,0,2.3,0c0.1,0.5,0,1.1,0.3,1.4c7.8,7.5,15.7,15.1,23.6,22.5C80.2,502.4,81.5,502.1,82.4,502.2z"/>
	<path class="st17" d="M55.8,478c-0.8,0-1.5,0-2.3,0c0.5-0.8,0.8-2.2,1.5-2.4c6.8-2,8.9-8.6,13.1-13c1.1-1.1,3.2-1.4,5-2.1
		c0.4-1.5,1-3.3,1.8-6.4c1.1,2,1.5,2.9,2,3.8c-0.2,0.4-0.3,0.7-0.5,1.1c-0.5,1.6-1.1,3.3-1.6,5c-0.4-0.4-0.8-0.8-1.2-1.1
		c-2.8,2.6-6.8,4.7-8.2,8C63.4,475.3,59.1,475.7,55.8,478z"/>
	<path class="st26" d="M33.4,354c1.9-3.6,3.5-7.3,5.7-10.6c0.7-1,3.3-1.2,4.8-1c0.7,0.1,1.6,2.4,1.4,3.6c-0.6,3.8-1.7,7.5-2.7,11.3
		c-0.5-0.5-1-1-1.6-1.6c0.4-1.3,1.3-2.6,1.2-3.7c-0.2-1.3-1.4-2.5-2.1-3.8c-1.1,0.8-2.5,1.4-3.2,2.4c-0.5,0.8-0.2,2.2-0.3,3.3
		C35.7,353.9,34.5,353.9,33.4,354z"/>
	<path class="st25" d="M35.6,439c0.6,1,1.3,2,1.9,3.1c-0.5,7.9-1,15.9-1.5,23.8c-1.2-0.3-2.4-0.5-3.5-0.8c0.6-1.4,1.7-2.8,1.8-4.3
		C34.9,453.5,35.2,446.3,35.6,439z"/>
	<path class="st21" d="M88.6,317c-0.4,0.5-0.9,0.9-1.2,1.5c-0.3,0.5-0.4,1.2-0.6,1.8c2.1,0.6,3.9,1.1,5.7,1.7
		c-0.9,0.6-1.8,1.3-2.8,1.9c-0.1,0.6-0.2,1.2-0.2,1.8c-3.3,0.3-6.6,0.5-9.8,0.8c0.4-1.3,0.8-2.6,1.2-3.9c1.2-3.8,2.3-7.6,7.7-6.7
		C88.5,316.3,88.6,316.6,88.6,317z"/>
	<path class="st16" d="M31.5,380.2c-2.3-0.8-4.6-1.6-7-2.3c0.7-2,1.4-4,2-5.9c1.4-1.1,2.9-2.2,4.3-3.3
		C34.2,373.6,34.2,373.6,31.5,380.2z"/>
	<path class="st19" d="M128.5,279.9c0-0.6,0-1.2,0-1.9c2.4,0.3,4.7,0.5,7.1,0.8c-2.5-1.9-5.3-2.3-7.8-3.4c-1.8-0.7-3.1-2.3-4.7-3.5
		c4.5,1.1,9.1,1.9,13.4,3.5c1.3,0.5,1.8,3,2.7,4.5c-1.5,0.5-3,1.5-4.5,1.4C132.6,281.3,130.6,280.5,128.5,279.9z"/>
	<path class="st16" d="M21.8,397.7c0.6,0.4,1.2,0.8,1.9,1.2c-1.1,3.7-2.1,7.4-3.2,11.1c-0.6,0.6-1.2,1.2-1.9,1.9
		c-0.7-0.9-2-1.8-2-2.6c0-3.1,0.5-6.1,0.9-9.2C18.9,399.3,20.4,398.5,21.8,397.7z"/>
	<path class="st10" d="M127.5,481c2.7,0.7,5.4,1.3,8.1,2c-0.1,1.7-0.3,3.3-0.4,5c-0.3,0.6-0.6,1.2-0.8,1.8
		C127.3,490.3,127.3,490.3,127.5,481z"/>
	<path class="st26" d="M17.5,400.1c-0.3,3.1-0.8,6.1-0.9,9.2c0,0.9,1.3,1.8,2,2.6c-1.3,2-0.8,5.7-5.4,4.6c0.5-5.1,1.1-10.3,1.6-15.5
		c0.2-0.3,0.5-0.6,0.7-0.9c0,0,0.1-0.1,0.1-0.1C16.3,400.1,16.9,400.1,17.5,400.1z"/>
	<path class="st21" d="M33.4,354c1.1,0,2.3-0.1,3.4-0.1c1.5,0.6,2.9,1.2,4.3,1.8c0.5,0.5,1,1,1.6,1.6c-0.6,1.3-1.3,2.7-1.9,4
		c-2.2-3-5-4.5-8.8-3.3C32.5,356.6,32.9,355.3,33.4,354z"/>
	<path class="st20" d="M80.8,322.6c-0.4,1.3-0.8,2.6-1.2,3.9c-4.3-1.4-5.3-5.4-2.6-9.5C78.3,318.9,79.6,320.7,80.8,322.6z"/>
	<path class="st17" d="M17.5,400.1c-0.6,0-1.2,0-1.8,0c1-3,2-6,3.1-9c0.8-0.5,1.5-0.9,2.2-1.4c0.3,2.7,0.5,5.4,0.8,8
		C20.4,398.5,18.9,399.3,17.5,400.1z"/>
	<path class="st23" d="M88.6,317c-0.1-0.4-0.1-0.7-0.2-1c0.9-0.4,1.8-0.7,2.8-1.1c4-1.6,9.3,0.8,12.3-3.8c0.3,0,0.7-0.1,1,0
		c2.3,0.5,4.6,1,6.9,1.6c0.1,0.2,0.1,0.4,0.2,0.6c-6.3,1-12.7,1.9-19,2.9c-1,0.3-2.1,0.6-3.1,0.9C89.2,317,88.9,317,88.6,317z"/>
	<path class="st10" d="M91.2,314.9c-0.9,0.4-1.8,0.7-2.8,1.1c-5.3-0.9-6.5,2.8-7.7,6.7c-1.2-1.9-2.5-3.7-3.7-5.6
		c2.4-1,4.9-2.1,7.3-3.1c1.4,0,2.8,0.1,4.1,0.1C89.4,314.3,90.3,314.6,91.2,314.9z"/>
	<path class="st18" d="M123.1,272c1.6,1.2,2.9,2.8,4.7,3.5c2.5,1.1,5.3,1.5,7.8,3.4c-2.4-0.3-4.7-0.5-7.1-0.8
		c-1.1-0.3-2.1-0.9-3.2-0.9c-3.6-0.2-4.4-2-3.1-5.1C122.5,272,122.8,272,123.1,272z"/>
	<path class="st19" d="M72.7,417.3c4,1.9,7.9,3.8,11.9,5.7C80.6,421.1,76.7,419.2,72.7,417.3z"/>
	<path class="st23" d="M89.4,269.1c1-0.4,2-0.8,3-1.1c0.1,3.9,0.1,7.9,0.1,11.8c-0.3,0.4-0.7,0.8-1,1.2
		C90.9,277.1,90.1,273.1,89.4,269.1z"/>
	<path class="st20" d="M20.5,410c1.1-3.7,2.1-7.4,3.2-11.1c1,0,1.9,0.1,2.9,0.1C25.5,403.2,25.3,407.9,20.5,410z"/>
	<path class="st17" d="M91.2,314.9c-0.9-0.3-1.8-0.6-2.7-0.9c0-0.3,0-0.6,0-0.9c5-0.7,10-1.4,15-2.1
		C100.5,315.6,95.2,313.2,91.2,314.9z"/>
	<path class="st19" d="M88.6,313.1c0,0.3,0,0.6,0,0.9c-1.4,0-2.8-0.1-4.1-0.1C85.8,313.6,87.2,313.3,88.6,313.1z"/>
	<path class="st25" d="M101.5,377.2c-0.6,0.3-1.2,0.5-1.8,0.8c0-0.7-0.1-1.3-0.1-2C100.2,376.4,100.8,376.8,101.5,377.2z"/>
	<path class="st17" d="M134.4,489.8c0.3-0.6,0.6-1.2,0.8-1.8c0.3,0.4,0.5,0.9,0.8,1.3C135.5,489.5,134.9,489.6,134.4,489.8z"/>
	<path class="st19" d="M115.5,310.1c-0.7-0.1-1.3-0.1-2-0.2C114.2,310,114.8,310,115.5,310.1z"/>
	<path class="st25" d="M99.5,376c-0.2-0.3-0.5-0.5-0.7-0.8C99.1,375.4,99.3,375.7,99.5,376z"/>
	<path class="st17" d="M15.6,400.1c-0.3,0.3-0.5,0.6-0.7,0.9C15.1,400.7,15.3,400.4,15.6,400.1z"/>
	<path class="st15" d="M131.5,504c0.7-0.4,1.3-0.7,2-1.1c3-0.7,6-1.4,9.1-2c0.6,0,1.3,0,2,0c1.7,0,3.4,0,5,0c9.4,3,9.9,3.9,7.2,13
		c-0.1,0.3-0.1,0.7-0.1,1c-0.4,0.4-0.8,0.8-1.1,1.2c-2.4,2.7-4.9,5.4-7,7.7c-2.1,0-4.3,0-6.5,0c-3.5,0.1-7,0.7-10.4,0.3
		c-5.1-0.6-8.2-5.9-6.2-10.7C127,510,129.5,507.1,131.5,504z"/>
	<path class="st25" d="M239.4,524.8c0.4,0.4,0.9,0.9,1.3,1.3c-4.2,8.1-8.4,16.3-12.6,24.4c-0.9,1.7-1.9,3.4-2.8,5.1
		c-1.4,2.7-2.1,5.3,1,7.3c-4.8-1.7-9.7-3.4-15.9-5.6c4-6.4,7.4-12.1,10.9-17.7c0.3,0.3,0.6,0.6,0.9,0.9c-1.1,3.3-2.3,6.7-3.5,10
		c0.7,1,1.3,1.9,2,2.8c0.6-0.7,1.2-1.5,1.9-2.2c3-1.4,9.1-10.8,8.7-13.5c0-0.3-1.1-0.5-1.7-0.7c-1,0-2,0-3,0c-0.3,0-0.6-0.1-0.8-0.1
		c1.2-0.9,2.4-1.8,3.4-2.6c1.9,2.9,3.7,1.9,5.1-0.5C236.1,530.8,237.7,527.8,239.4,524.8z"/>
	<path class="st17" d="M131.5,504c-2,3.1-4.5,6-6,9.3c-2.1,4.7,1.1,10.1,6.2,10.7c3.4,0.4,6.9-0.2,10.4-0.3c2.2-0.1,4.4,0,6.5,0
		c2.1-2.3,4.5-5,7-7.7c-2.2,5.6-4.3,11.1-6.5,16.7c-2-10-9.1-5.5-14.3-5.7c-8.9-0.3-13.6-5.2-12-13.6
		C123.6,508.9,126.1,504.9,131.5,504z"/>
	<path class="st10" d="M190.8,531.2c-2.1,5.6-4.2,11.2-6.3,16.8c-1,0-1.9-0.1-2.9-0.1c-0.6-0.4-1.2-0.8-1.9-1.2
		c-0.3-2.7-0.6-5.4-0.8-8c1-3.5,2-7,3-10.5c0.9-0.1,1.8-0.2,2.7-0.3c1.6,0.5,3.2,1,4.8,1.5C189.9,529.9,190.4,530.6,190.8,531.2z"/>
	<path class="st20" d="M184.7,527.8c-0.9,0.1-1.8,0.2-2.7,0.3c-0.1-0.4-0.3-0.7-0.4-1.1c2.8-6.7,5.6-13.5,8.4-20.2
		c1,0.6,2.1,1.1,3.3,1.8c0.2-0.4,0.6-1.3,1.2-2.5c1.7,1.6,3.1,2.9,4.4,4.2c-0.7,1.9-1.4,3.9-2.1,5.8c-1.4,2-2.8,4-4.2,6
		c-1.3-1.7-2.6-3.3-4.2-5.4C187,520.6,185.9,524.2,184.7,527.8z"/>
	<path class="st26" d="M85.4,536c-0.9,3.3-1.5,6.8-3,9.8c-1.1,2.1-3.9,4.9-5.4,4.7c-3.5-0.6-8.3-0.2-9.5-5.3c0-0.4,0.1-0.8,0.1-1.2
		c3.3,0.1,7.4,1.5,9.7,0c2.4-1.6,3-5.8,4.4-9C82.9,535.3,84.2,535.7,85.4,536z"/>
	<path class="st20" d="M85.4,536c-1.3-0.3-2.5-0.7-3.8-1c-0.5-5.5-5.2-5.7-8.9-6.8c-0.8-0.2-2.5,0.6-2.8,1.4
		c-1.8,4.6-5.1,9.1-2.4,14.5c0,0.4-0.1,0.8-0.1,1.2c-5-1.1-4.1-4.8-3.6-8.2c0.2-1.3,1-2.4,1.6-3.6c1.6-3.3,1.6-8.7,7.3-7.6
		C80.6,527.2,85.3,529.6,85.4,536z"/>
	<path class="st22" d="M181.6,527c0.1,0.4,0.3,0.7,0.4,1.1c-1,3.5-2,7-3,10.5c-0.8,0.5-1.5,0.9-2.2,1.4c-0.4-5.1-0.8-10.3-0.9-15.4
		c0-0.3,2.6-1.1,3.7-0.8C180.4,524.2,180.9,525.9,181.6,527z"/>
	<path class="st16" d="M179.8,546.7c0.6,0.4,1.2,0.8,1.9,1.2c-1.1,3.7-2.1,7.4-3.2,11.1c-0.6,1-1.2,2-1.8,3c-3.9-3.7-2.1-7.9-1.1-12
		C176.9,548.9,178.4,547.8,179.8,546.7z"/>
	<path class="st17" d="M167.5,614.8c-0.7,1.1-1.4,2.3-2.1,3.4c-0.6-1.8-1.7-3.6-1.6-5.4c0.3-7.9,0.9-15.9,1.6-23.8
		c0.1-1.1,1.7-2.1,2.7-3.1C167.9,595.6,167.6,605.2,167.5,614.8z"/>
	<path class="st19" d="M28.3,549.1c0.5-0.1,1-0.2,1.5-0.2c4.5-2.4,8.9-4.8,13.3-7.3c0.3-0.2,0-1.2,0-1.9c0.3-0.3,0.5-0.7,0.8-1
		c3.6,1.9,3.1,4,0.2,5.9c-3.6,2.4-7.3,4.5-10.8,6.9C30.2,553.5,28.8,552.4,28.3,549.1z"/>
	<path class="st19" d="M156.6,514.9c0-0.3,0-0.7,0.1-1c2.6-9.1,2.1-10-7.2-13c-0.3-0.6-0.7-1.3-1-1.9c10.4,0,15.1,6,11,14.1
		C159.1,513.9,157.6,514.3,156.6,514.9z"/>
	<path class="st25" d="M66.7,567.9c-0.5,0.1-1.1,0.2-1.6,0.3c-4.5,0.9-9,1.9-13.5,2.8c0-0.6,0-1.3,0-1.9c3.6-1.4,7.2-2.7,10.8-4.2
		C65.5,563.7,66.6,564.9,66.7,567.9z"/>
	<path class="st17" d="M191.1,584c-3.4,0.3-6.8,0.8-10.1,1c-4.1,0.3-8.3,0.4-12.4,0.5c0.7-1.1,1.4-3.1,2.1-3.1
		C177.4,582.7,184.2,583.4,191.1,584z"/>
	<path class="st17" d="M179.8,546.7c-1.4,1.1-2.9,2.2-4.3,3.3c-0.6,0-1.3,0-1.9,0c1.1-3.3,2.1-6.6,3.1-10c0.8-0.5,1.5-0.9,2.2-1.4
		C179.2,541.3,179.5,544,179.8,546.7z"/>
	<path class="st18" d="M142.1,584c-0.1,0.7-0.1,1.3-0.2,2c-4.4-1-8.9-1.9-13.4-2.9c0-0.4,0.1-0.8,0.1-1.2c1.1-0.6,2.3-1.3,3.5-1.9
		l0,0c0.5,0.4,1,0.8,1.5,1.2c0.3-0.1,0.7-0.2,1-0.2l0,0C137.1,582,139.6,583,142.1,584L142.1,584z"/>
	<path class="st26" d="M192.6,522c1.4-2,2.8-4,4.2-6c-2,5.1-3.9,10.1-5.9,15.2c-0.4-0.6-0.9-1.3-1.3-1.9
		C190.5,526.8,191.6,524.4,192.6,522z"/>
	<path class="st26" d="M173.6,550c0.6,0,1.3,0,1.9,0c-0.9,4.1-2.8,8.3,1.1,12c-0.4,0.4-0.8,0.8-1.1,1.2c-1.1,0-2.2-0.1-3.3-0.2
		C172.7,558.7,173.1,554.3,173.6,550z"/>
	<path class="st20" d="M178.4,559c1.1-3.7,2.1-7.4,3.2-11.1c1,0,1.9,0.1,2.9,0.1C183.4,552.2,183.3,556.9,178.4,559z"/>
	<path class="st23" d="M142.6,501c-3,0.7-6,1.4-9.1,2c0-0.3,0.1-0.5,0.1-0.8c0.4-0.4,0.9-0.8,1.3-1.1C137.4,501,140,501,142.6,501z"
		/>
	<path class="st17" d="M142.1,584c-2.5-1-5-2-7.5-3C137.1,582,139.6,583,142.1,584z"/>
	<path class="st16" d="M172.3,563c1.1,0,2.2,0.1,3.3,0.2c-1.4,0.7-2.7,1.4-4,2.1C171.8,564.5,172,563.8,172.3,563z"/>
	<path class="st21" d="M51.6,569.1c0,0.6,0,1.3,0,1.9c-2,0.3-4,0.7-6,1C47.5,571.1,49.6,570.1,51.6,569.1z"/>
	<path class="st23" d="M148.6,499c0.3,0.6,0.7,1.3,1,1.9c-1.7,0-3.4,0-5,0C145.9,500.3,147.2,499.7,148.6,499z"/>
	<path class="st17" d="M97.5,563c0.7,0,1.3,0,2,0c-0.7,1.2-1.3,2.3-2,3.5C97.5,565.3,97.5,564.2,97.5,563z"/>
	<path class="st17" d="M192.5,586c-0.5-0.7-1-1.4-1.5-2C191.5,584.6,192,585.3,192.5,586z"/>
	<path class="st15" d="M134.8,501c-0.4,0.4-0.9,0.8-1.3,1.1C134,501.8,134.4,501.4,134.8,501z"/>
	<path class="st19" d="M133.5,581.2c-0.5-0.4-1-0.8-1.5-1.2c0.5,0,1,0,1.5,0C133.5,580.4,133.5,580.8,133.5,581.2z"/>
	<path class="st17" d="M133.5,581.2c0-0.4,0-0.8,0-1.3c0.3,0.3,0.7,0.7,1,1C134.2,581,133.8,581.1,133.5,581.2z"/>
	<path class="st19" d="M188.6,610c-4.8-0.1-9.6,0.1-14.4-0.4c-1.5-0.2-3.7-2-4-3.5c-0.5-2.5,1.4-3.6,4.1-3.4
		c2.5,0.2,4.9,0.1,7.4,0.2C188.6,603.1,188.6,603.1,188.6,610C188.6,610,188.6,610,188.6,610z M185.4,607.8c0-0.8,0-1.5,0-2.3
		c-4.1,0-8.2,0-12.3,0c0,0.5,0,0.9,0,1.4C177.1,607.3,181.2,607.5,185.4,607.8z"/>
	<path class="st20" d="M7.5,507c0.3-0.4,0.7-0.7,1.1-1C8.2,506.3,7.9,506.6,7.5,507z"/>
	<path class="st15" d="M92.6,279.8c-0.1-3.9-0.1-7.9-0.1-11.8c0.3-3.7,0.7-7.4,1.1-11.1c1.1,0.4,2.2,0.8,3.2,1.1
		c5.8,1.7,7.4,5.9,4.3,10.9c-0.7,1.1-1.4,3.5-1,3.8c3.1,2,6.4,3.7,9.7,5.5c0.3-0.6,0.7-1.2,1.1-1.8c-1.7-1.1-3.3-2.2-5-3.2
		c-2-1.1-3.6-2.7-1.3-4.6c4.8-4,2.7-6.9-1-9.9c-1.1-0.9-2.4-2-3.1-3.2c-2.2-4-4.5-2.9-6.9-0.3c0-1.5,0-3,0-4.6
		c6.9,0.2,13.8,0.4,20.8,0.5c0.1,8.6,0.1,17.3,0.2,25.9c-1.4,1-2.7,2.9-4.1,3C104.4,280.2,98.5,279.9,92.6,279.8z"/>
	<path class="st19" d="M114.4,277c-0.1-8.6-0.1-17.3-0.2-25.9c0.7,0.3,1.5,0.6,2.2,0.9c-0.1,8-0.2,16.1-0.3,24.1
		C115.6,276.4,115,276.7,114.4,277z"/>
	<path class="st18" d="M136,266.4c-4.8,0-9.5,0-14.3,0c0-0.7,0-1.4,0.1-2c4.8,0.2,9.5,0.5,14.3,0.7C136,265.5,136,265.9,136,266.4z"
		/>
	<path class="st25" d="M124.6,256c-0.9,0.7-1.9,1.4-2.8,2.1c-0.3-0.5-0.5-1.1-0.8-1.6C122.2,256.4,123.3,256.2,124.6,256
		C124.5,256,124.6,256,124.6,256z"/>
	<path class="st23" d="M98.4,622c6.7-1.1,13.3-2.2,20-3.3c0.1,0.5,0.2,1,0.2,1.4c-6.7,1.1-13.4,2.1-20,3.2
		C98.6,622.8,98.5,622.4,98.4,622z"/>
	<path class="st25" d="M53.6,596c-1.5,0.2-3,0.5-4.5,0.7c-0.1-0.4-0.2-0.7-0.3-1.1c5-2.1,9.9-4.2,14.9-6.3c1.2,0,2.4,0,4.2,0
		c-0.9,1.5-1.6,2.6-2.2,3.6l0,0c-2,0.7-4,1.3-6,2l0,0c-1.3,0.3-2.7,0.7-4,1l0,0C54.9,596,54.2,596,53.6,596z"/>
	<path class="st25" d="M60.6,575.1c-4.5,1.4-9.1,3-13.7,4.2c-1.3,0.4-3-0.2-4.4-0.3c6.4-2.4,12.9-4.7,19.3-7.1
		c0.2,0.3,0.5,0.7,0.7,1C61.8,573.6,61.2,574.4,60.6,575.1z"/>
	<path class="st25" d="M63.6,588.1c-5.4,1.6-10.8,3.2-16.2,4.9c-0.2-0.6-0.4-1.2-0.6-1.8c6.3-2.1,12.6-4.2,18.8-6.2
		C64.9,586,64.3,587,63.6,588.1z"/>
	<path class="st19" d="M64.5,583c-6.1,1.9-12.2,3.7-18.3,5.6c-0.2-0.4-0.3-0.8-0.5-1.1c5.6-2.2,11.2-4.3,16.8-6.5
		C63.2,581.6,63.9,582.3,64.5,583z"/>
	<path class="st19" d="M62.6,579c-5.7,1.8-11.4,3.5-17.2,5.3c-0.1-0.4-0.3-0.8-0.4-1.1c5.3-2.2,10.5-4.3,15.7-6.5
		C61.3,577.4,62,578.2,62.6,579z"/>
	<path class="st15" d="M53.6,596c0.7,0,1.3,0,2,0c-0.7,0.5-1.3,1-1.9,1.5C53.6,597,53.6,596.5,53.6,596z"/>
	<path class="st18" d="M143.2,561.6c-3.9,1-7.9,2.1-11.9,3.2c-2.3,0.2-3.7-0.2-1.8-2.8c3.5-0.6,7-1.3,10.5-1.7
		C141.1,560.3,142.2,561.2,143.2,561.6z"/>
	<path class="st15" d="M35.6,439c-0.4,7.3-0.7,14.5-1.3,21.8c-0.1,1.5-1.2,2.9-1.8,4.3c-7.6-0.1-15.2-0.3-22.9-0.5
		c-0.5,0-1,0.1-1.5,0.1c0-2.2,0-4.5,0-6.7c0.2-5,0.3-10,0.6-14.9c0.3-6.3,1.2-7.2,7.4-7.2c4.2,0,8.4-0.2,12.5,0.3
		C31,436.5,33.3,438,35.6,439z M21.9,454c0-0.1,0-0.1,0-0.2c-1.8,0-3.7,0.2-5.5,0c-2.7-0.3-4.5,0.8-4.1,3.4c0.2,1.4,2.2,3.2,3.6,3.4
		c3.8,0.5,7.7,0.5,11.4,0.2c1.2-0.1,2.8-1.8,3.2-3.1c0.6-2.2-0.4-3.9-3.2-3.7C25.5,454.1,23.7,454,21.9,454z"/>
	<path class="st17" d="M8.1,464.7c0.5,0,1-0.1,1.5-0.1c-0.4,0.7-0.7,1.3-1,2C8.5,466,8.3,465.4,8.1,464.7z"/>
	<path class="st16" d="M193.1,501.7c2.2-2.7,3.2-4.4,4.7-5.4c0.4-0.3,2.8,1.2,3.2,2.2c0.4,1.1-0.4,3.6-1.1,3.8
		C198.3,502.7,196.4,502.1,193.1,501.7z"/>
	<path class="st24" d="M239.4,524.8c-1.7,3-3.3,6.1-5.1,9.1c-1.4,2.4-3.2,3.3-5.1,0.5c-1,0.8-2.2,1.7-3.4,2.6
		c-0.4,0-0.8,0.1-1.1,0.1c2-3.8,4.1-7.7,6.1-11.6c0.8-1.4,1.4-2.9,2.1-4.4c1.2,0,2.3,0,3.5,0C237.3,522.3,238.3,523.5,239.4,524.8z"
		/>
	<path class="st15" d="M224.6,537c0.4,0,0.8-0.1,1.1-0.1c0.3,0,0.6,0,0.8,0.1c0.6,0.9,1.1,1.8,1.7,2.7c0.4-0.9,0.9-1.8,1.3-2.7
		c0.6,0.2,1.6,0.4,1.7,0.7c0.4,2.7-5.8,12.1-8.7,13.5c-1.3-0.2-2.6-0.4-3.9-0.7c1.1-3.3,2.3-6.7,3.5-10
		C222.9,539.4,223.7,538.2,224.6,537z"/>
	<path class="st18" d="M236.3,521c-1.2,0-2.3,0-3.5,0c1.1-2,2.3-3.9,3.4-5.8c6.9,1.5,6.9,1.5,4.9,5.8C239.3,521,237.8,521,236.3,521
		z"/>
	<path class="st19" d="M95.8,574.2c0-0.5,0-1,0-1.5c0.1,0,0.3,0,0.4,0c0,0.5,0,1,0,1.5C96.1,574.2,96,574.2,95.8,574.2z"/>
	<path class="st24" d="M261.5,538c0.1,0.2,0.3,0.3,0.4,0.5C261.8,538.3,261.6,538.2,261.5,538C261.5,538,261.5,538,261.5,538z"/>
	<path class="st26" d="M35.3,541.7c0.8-0.6,1.5-1.2,2.3-1.8c0,0.5,0.1,1,0.1,1.4c-0.6,0.3-1.2,0.6-1.9,0.9
		C35.6,542.1,35.5,541.9,35.3,541.7z"/>
	<path class="st21" d="M37.7,541.4c0-0.5-0.1-1-0.1-1.4c0.6-0.4,1.2-0.8,1.8-1.3c0.3,0.3,0.6,0.7,1,1
		C39.4,540.3,38.5,540.8,37.7,541.4z"/>
	<path class="st23" d="M93.5,255.1c2.4-2.6,4.7-3.7,6.9,0.3c0.7,1.3,1.9,2.3,3.1,3.2c3.7,3,5.8,5.9,1,9.9c-2.2,1.9-0.7,3.4,1.3,4.6
		c1.7,1,3.3,2.1,5,3.2c-0.3,0.6-0.7,1.2-1.1,1.8c-3.3-1.8-6.6-3.5-9.7-5.5c-0.4-0.2,0.3-2.7,1-3.8c3.1-5,1.4-9.1-4.3-10.9
		c-1.1-0.3-2.2-0.8-3.2-1.1C93.5,256.3,93.5,255.7,93.5,255.1z"/>
	<path class="st15" d="M59.5,595c2-0.7,4-1.3,6-2C63.6,593.7,61.5,594.3,59.5,595z"/>
	<path class="st15" d="M55.5,596c1.3-0.3,2.7-0.7,4-1C58.2,595.3,56.9,595.7,55.5,596z"/>
	<path class="st18" d="M37.7,541.4c0.9-0.6,1.7-1.1,2.6-1.7c1,0,2,0,2.9,0c0,0.7,0.3,1.7,0,1.9c-4.4,2.5-8.9,4.9-13.3,7.3
		c2-2.2,4-4.4,6-6.6C36.4,542,37,541.7,37.7,541.4z"/>
	<path class="st16" d="M137.5,406.6c-0.1,4.7-2.7,8.5-5.9,8.4c-6.2-0.2-11.7-3.1-10.9-6.3c0.8-3.2-0.2-8.1,4.9-8.6
		C131.6,399.6,137.6,403.2,137.5,406.6z"/>
	<path class="st25" d="M99.4,378.9c0.4,1,0.7,1.9,1.1,2.9c-3.4,5.8-3.2,6.3,3.9,8c-0.1,1-0.2,1.9-0.3,2.8c-2.8-1.1-5.8-2.1-8.5-3.5
		c-0.6-0.3-0.7-2.5-0.2-3.4C96.6,383.3,98.1,381.1,99.4,378.9z"/>
	<path class="st24" d="M66.4,388.9c2.8-5.6,5.6-11.3,8.4-16.9c2.5,0,5.1,0,7.6,0c-1.8,3.9-3.4,8-5.5,11.8c-1.2,2.3-2.9,5.5-6.7,0.4
		c0.6,1.9,0.9,2.8,1.2,3.8c-0.2,0.9-0.3,1.8-0.5,2.8C69.3,390.1,67.8,389.5,66.4,388.9z"/>
	<path class="st15" d="M66.4,388.9c1.4,0.6,2.9,1.1,4.7,1.8c0.2-1,0.3-1.9,0.5-2.8c0.6,0.5,1.8,1.5,1.7,1.6
		c-2.9,4.8-3.5,11.2-9.8,13.4c-1,0-2,0-3,0C62.5,398.3,64.4,393.6,66.4,388.9z"/>
	<path class="st18" d="M82.5,372c-2.5,0-5.1,0-7.6,0c1.1-2,2.3-4,3.6-6.4c2.1,0.9,3.9,1.8,6.3,2.8C83.8,369.9,83.1,371,82.5,372z"/>
	<path class="st24" d="M60.5,403c1,0,2,0,3,0c-0.1,1.8-0.1,3.6-0.2,5.4c-1.4-0.1-3,0.2-4-0.4c-0.9-0.5-1.7-2.2-1.5-3.2
		C57.8,404.1,59.5,403.6,60.5,403z"/>
	<path class="st24" d="M129.6,461.5c0-4.1-0.2-8.3,0.1-12.4c0.1-1.3,1.5-2.5,2.3-3.7c0.8,1.1,2.4,2.2,2.4,3.4
		c0.2,8.3,0.2,16.5-0.1,24.8c-0.1,1.5-1.7,3-2.7,4.5c-0.7-1.6-1.9-3.1-2-4.7c-0.3-4-0.1-7.9-0.1-11.9
		C129.5,461.5,129.5,461.5,129.6,461.5z"/>
	<path class="st18" d="M92.5,318c6.8-1.1,13.5-2.1,20.3-3.2c0.1,0.6,0.2,1.3,0.3,1.9c-7.2,0.8-13.9,4.7-21.5,2.3
		C91.9,318.7,92.2,318.3,92.5,318z"/>
	<path class="st23" d="M89.7,323.9c0.9-0.6,1.8-1.3,2.8-1.9c3.3-0.4,6.6-0.8,9.9-1.2c0.1,0.4,0.1,0.8,0.2,1.1
		C98.3,322.6,94,323.2,89.7,323.9z"/>
	<path class="st23" d="M104.9,320.3c2.5-0.5,5.1-1,7.6-1.5c0.1,0.4,0.2,0.8,0.2,1.2c-2.5,0.5-5.1,1-7.6,1.5
		C105,321.1,104.9,320.7,104.9,320.3z"/>
	<path class="st21" d="M92.5,318c-0.3,0.3-0.7,0.7-1,1c-0.7-0.7-1.4-1.4-2-2c1-0.3,2.1-0.6,3.1-0.9C92.6,316.7,92.5,317.3,92.5,318z
		"/>
	<path class="st15" d="M55.8,478c3.3-2.3,7.6-2.7,9.7-7.4c1.4-3.2,5.4-5.4,8.2-8c0.4,0.4,0.8,0.8,1.2,1.1c0.5-1.6,1.1-3.3,1.6-5
		c3.1,2.7,6.4,5.3,9.3,8.1c4.8,4.7,9.5,9.7,14.5,14.8c-4.8,5.1-9.8,10.3-14.7,15.7c-1.3,1.4-2.2,3.2-3.3,4.8
		c-0.9-0.1-2.1,0.2-2.7-0.3c-7.9-7.4-15.8-15-23.7-22.5C55.8,479.2,55.9,478.5,55.8,478z M71.5,476C71.5,476,71.5,476,71.5,476
		c-0.3,0.3-0.7,0.7-1,1l0,0c-0.3,0.3-0.7,0.7-1,1l0,0c-0.3,0.3-0.7,0.7-1,1l0,0c-0.7,0.7-1.3,1.3-2,2l0,0c-0.3,0.1-0.5,0.3-0.8,0.4
		c0.3,0.3,0.5,0.6,0.8,1c0.3,0.2,0.7,0.4,1.1,0.6c0,0.4-0.1,0.7-0.1,1c1.9,1.3,3.9,2.6,5.9,3.9c0.4,0.5,0.8,1,1.2,1.5
		c0.6,0.5,1.1,1.1,1.7,1.6c0.6,0.3,1.4,0.9,1.6,0.7c4.1-4,8.3-8.1,12.2-12.3c0.3-0.3-0.3-1.6-0.6-2.5c-0.6-0.3-1.2-0.7-1.8-1
		c-0.7-0.5-1.4-1-2-1.5c-1.3-1.5-2.6-3-3.9-4.5c-0.3-0.3-0.7-0.5-1-0.8c-0.4,0-0.7-0.1-1.1-0.1c-0.5-0.4-1.4-1.3-1.5-1.2
		c-1.1,1-2.1,2.1-3.1,3.2c-0.3,0.1-0.4,0.2-0.5,0.5c-0.3,0.8-0.7,1.7-1,2.5l0,0c-0.3,0.3-0.7,0.7-1,1l0,0
		C72.2,475.3,71.8,475.6,71.5,476z"/>
	<path class="st24" d="M104.4,389.8c-7.1-1.8-7.4-2.3-3.9-8C101.8,384.4,103.1,387.1,104.4,389.8z"/>
	<path class="st16" d="M41.1,355.6c-1.5-0.6-2.9-1.2-4.3-1.8c0-1.1-0.3-2.5,0.3-3.3c0.7-1,2.1-1.6,3.2-2.4c0.8,1.3,1.9,2.5,2.1,3.8
		C42.5,353.1,41.6,354.4,41.1,355.6z"/>
	<path class="st21" d="M218.6,550.6c1.3,0.2,2.6,0.4,3.9,0.7c-0.6,0.7-1.2,1.5-1.9,2.2C219.9,552.5,219.3,551.5,218.6,550.6z"/>
	<path class="st24" d="M229.5,537c-0.4,0.9-0.9,1.8-1.3,2.7c-0.6-0.9-1.1-1.8-1.7-2.7C227.5,537,228.5,537,229.5,537z"/>
	<path class="st16" d="M192.6,522c-1,2.4-2.1,4.9-3.1,7.3c-1.6-0.5-3.2-1-4.8-1.5c1.2-3.6,2.4-7.1,3.7-11.2
		C190,518.7,191.3,520.3,192.6,522z"/>
	<path class="st16" d="M67.6,544c-2.7-5.4,0.6-9.8,2.4-14.5c0.3-0.7,2-1.6,2.8-1.4c3.7,1.2,8.4,1.4,8.9,6.8c-1.4,3.1-2,7.4-4.4,9
		C75,545.4,70.9,544.1,67.6,544z"/>
	<path class="st18" d="M185.4,607.8c-4.1-0.3-8.2-0.6-12.3-0.9c0-0.5,0-0.9,0-1.4c4.1,0,8.2,0,12.3,0
		C185.4,606.3,185.4,607.1,185.4,607.8z"/>
	<path class="st19" d="M21.9,454c1.8,0,3.7,0.1,5.5,0c2.8-0.2,3.8,1.5,3.2,3.7c-0.4,1.3-2,3-3.2,3.1c-3.8,0.4-7.7,0.4-11.4-0.2
		c-1.4-0.2-3.4-2-3.6-3.4c-0.4-2.6,1.4-3.7,4.1-3.4c1.8,0.2,3.7,0,5.5,0C21.9,453.9,21.9,454,21.9,454z M15.1,456.6
		c0,0.4,0,0.8,0,1.2c4.1,0.1,8.2,2.3,12.3,0.2c0-0.5,0-1,0-1.5C23.3,456.6,19.2,456.6,15.1,456.6z"/>
	<path class="st22" d="M73.4,488c-1.9-1.3-3.9-2.6-5.9-3.9c3.3,0,5.1-1.6,5-5l0,0c0.3-0.3,0.7-0.7,1-1l0,0c0.3-0.3,0.7-0.7,1-1l0,0
		c0.3-0.3,0.7-0.7,1-1l0,0c0.3-0.3,0.7-0.7,1-1l0,0c1.7-1.7,3.5-3.4,5.2-5c1.3,1.5,2.6,3,3.9,4.5c-0.4,1.2-0.7,2.4-1.1,3.5l0,0
		c-1.3,0.3-2.7,0.7-4,1c1.3-1.7,2.6-3.5,3.9-5.2c-0.5-0.3-1-0.7-1.5-1c-1.2,2-2.4,4-3.6,6c-0.4,0.3-0.7,0.6-1.1,0.9
		c-0.3,0.3-0.7,0.6-1,1c-0.3,0.3-0.7,0.7-1,1c-0.3,0.3-0.7,0.7-1,1s-0.7,0.7-1,1c-0.3,0.3-0.7,0.7-1,1s-0.7,0.7-1,1
		c-0.1,0.3-0.1,0.6-0.2,1c0.2-0.2,0.4-0.3,0.6-0.5c0.3-0.3,0.7-0.7,1-1c0.3-0.3,0.7-0.7,1-1s0.7-0.7,1-1s0.7-0.7,1-1
		c0.3-0.3,0.7-0.7,1-1c0.3-0.1,0.6-0.1,0.9-0.1c0,1,0,2,0,3l0,0c-0.3,0.3-0.7,0.7-1,1l0,0c-0.3,0.3-0.7,0.7-1,1l0,0
		c-0.3,0.3-0.7,0.7-1,1l0,0c-0.3,0.3-0.7,0.7-1,1l0,0C74.2,488,73.8,488,73.4,488z"/>
	<path class="st22" d="M87.7,476c0.6,0.3,1.2,0.7,1.8,1c-4.4,4.7-8.8,9.4-13.3,14.1c-0.6-0.5-1.1-1.1-1.7-1.6c0-0.5,0-1,0-1.5l0,0
		c0.3-0.3,0.7-0.7,1-1l0,0c0.3-0.3,0.7-0.7,1-1l0,0c0.3-0.3,0.7-0.7,1-1l0,0c0.3-0.3,0.7-0.7,1-1l0,0c2-2,4-4,6-6l0,0
		C85.6,477.3,86.6,476.7,87.7,476z"/>
	<path class="st23" d="M76.3,491.1c4.4-4.7,8.8-9.4,13.3-14.1c0.2,0.8,0.9,2.1,0.6,2.5c-4,4.2-8.1,8.3-12.2,12.3
		C77.7,491.9,76.8,491.3,76.3,491.1z"/>
	<path class="st22" d="M74.5,471.5c0.1-0.3,0.2-0.4,0.5-0.5c1.2,0,2.3,0,3.5,0c-0.7,1.3-1.3,2.7-2,4l0,0c-0.3,0.3-0.7,0.7-1,1l0,0
		c-0.3,0.3-0.7,0.7-1,1l0,0c-0.3,0.3-0.7,0.7-1,1l0,0c-0.3,0.3-0.7,0.7-1,1l0,0c-1.6,1.3-3.3,2.7-4.9,4c-0.3-0.2-0.7-0.4-1.1-0.6
		c0-0.5,0-0.9-0.1-1.4l0,0c0.7-0.7,1.3-1.3,2-2l0,0c0.3-0.3,0.7-0.7,1-1l0,0c0.3-0.3,0.7-0.7,1-1l0,0c0.3-0.3,0.7-0.7,1-1l0,0
		c0.3-0.3,0.7-0.7,1-1l0,0c0.3-0.3,0.7-0.7,1-1l0,0C73.8,473.1,74.2,472.3,74.5,471.5z"/>
	<path class="st17" d="M76.6,475c0.7-1.3,1.3-2.7,2-4l0,0c0.7-0.6,1.5-1.2,2.2-1.8c0.3,0.3,0.7,0.5,1,0.8
		C80,471.6,78.3,473.3,76.6,475z"/>
	<path class="st17" d="M67.6,483c1.6-1.3,3.3-2.7,4.9-4c0.1,3.4-1.7,5-5,5C67.6,483.7,67.6,483.3,67.6,483z"/>
	<path class="st21" d="M78.5,471c-1.2,0-2.3,0-3.5,0c1-1.1,2-2.2,3.1-3.2c0.1-0.1,1,0.8,1.5,1.2C79.2,469.7,78.9,470.3,78.5,471
		L78.5,471z"/>
	<path class="st19" d="M87.7,476c-1.1,0.7-2.1,1.3-3.1,2c0.4-1.2,0.7-2.4,1.1-3.5C86.3,475,87,475.5,87.7,476z"/>
	<path class="st21" d="M68.5,479c-0.7,0.7-1.3,1.3-2,2C67.2,480.3,67.8,479.6,68.5,479z"/>
	<path class="st22" d="M78.5,471c0.4-0.7,0.7-1.3,1.1-2c0.4,0,0.7,0.1,1.1,0.1C80,469.8,79.3,470.4,78.5,471z"/>
	<path class="st21" d="M74.5,471.5c-0.3,0.8-0.7,1.7-1,2.5C73.8,473.1,74.2,472.3,74.5,471.5z"/>
	<path class="st21" d="M73.5,474c-0.3,0.3-0.7,0.7-1,1C72.8,474.6,73.2,474.3,73.5,474z"/>
	<path class="st21" d="M66.5,481c0,0.5,0,0.9,0.1,1.4c-0.3-0.3-0.5-0.6-0.8-1C66,481.2,66.3,481.1,66.5,481z"/>
	<path class="st21" d="M70.5,477c-0.3,0.3-0.7,0.7-1,1C69.8,477.6,70.2,477.3,70.5,477z"/>
	<path class="st21" d="M69.5,478c-0.3,0.3-0.7,0.7-1,1C68.8,478.6,69.2,478.3,69.5,478z"/>
	<path class="st21" d="M71.5,476c-0.3,0.3-0.7,0.7-1,1C70.8,476.6,71.2,476.3,71.5,476z"/>
	<path class="st21" d="M72.5,475c-0.3,0.3-0.7,0.7-1,1C71.8,475.6,72.2,475.3,72.5,475z"/>
	<path class="st19" d="M74.6,488c0,0.5,0,1,0,1.5c-0.4-0.5-0.8-1-1.2-1.5C73.8,488,74.2,488,74.6,488z"/>
	<path class="st18" d="M15.1,456.6c4.1,0,8.2,0,12.3,0c0,0.5,0,1,0,1.5c-4.1,2.1-8.2-0.1-12.3-0.2C15.1,457.4,15.1,457,15.1,456.6z"
		/>
	<path class="st19" d="M84.6,478c-2,2-4,4-6,6c0-1,0-2,0-3l0,0c0.3-0.3,0.7-0.7,1-1l0,0c0.3-0.3,0.7-0.7,1-1l0,0
		C81.9,478.7,83.2,478.3,84.6,478z"/>
	<path class="st17" d="M79.4,478.8c1.2-2,2.4-4,3.6-6c0.5,0.3,1,0.7,1.5,1c-1.3,1.7-2.6,3.5-3.9,5.2l0,0c-0.3,0-0.7,0-1,0
		C79.6,479,79.4,478.8,79.4,478.8z"/>
	<path class="st19" d="M76.6,486c-0.3,0.3-0.7,0.7-1,1C75.9,486.7,76.2,486.3,76.6,486z"/>
	<path class="st17" d="M72.7,486.2c-0.2,0.2-0.4,0.3-0.6,0.5c0.1-0.3,0.1-0.6,0.2-1C72.4,485.9,72.6,486,72.7,486.2z"/>
	<path class="st19" d="M77.6,485c-0.3,0.3-0.7,0.7-1,1C76.9,485.7,77.2,485.3,77.6,485z"/>
	<path class="st17" d="M73.7,485.2c-0.3,0.3-0.7,0.6-1,1c-0.2-0.1-0.3-0.3-0.4-0.4c0.3-0.3,0.7-0.7,1-1
		C73.4,484.9,73.6,485,73.7,485.2z"/>
	<path class="st19" d="M78.6,484c-0.3,0.3-0.7,0.7-1,1C77.9,484.7,78.2,484.3,78.6,484z"/>
	<path class="st17" d="M74.7,484.2c-0.3,0.3-0.7,0.7-1,1c-0.2-0.1-0.3-0.3-0.5-0.5c0.3-0.3,0.7-0.7,1-1
		C74.4,483.9,74.6,484,74.7,484.2z"/>
	<path class="st17" d="M75.7,483.1c-0.3,0.3-0.7,0.7-1,1c-0.2-0.1-0.3-0.3-0.5-0.4c0.3-0.3,0.7-0.7,1-1
		C75.4,482.9,75.6,483,75.7,483.1z"/>
	<path class="st17" d="M76.7,482.1c-0.3,0.3-0.7,0.7-1,1c-0.1-0.1-0.3-0.3-0.4-0.4c0.3-0.3,0.7-0.7,1-1
		C76.4,481.9,76.6,482,76.7,482.1z"/>
	<path class="st17" d="M76.3,481.7c0.3-0.3,0.7-0.7,1-1c0.1,0.1,0.3,0.3,0.4,0.4c-0.3,0.3-0.7,0.7-1,1
		C76.6,482,76.4,481.9,76.3,481.7z"/>
	<path class="st19" d="M75.6,487c-0.3,0.3-0.7,0.7-1,1C74.9,487.7,75.2,487.3,75.6,487z"/>
	<path class="st17" d="M77.3,480.7c0.3-0.3,0.7-0.6,1-1l0.3,0.3c0,0.3-0.1,0.6-0.1,1l0,0c-0.3,0-0.6,0.1-0.9,0.1
		C77.5,481,77.4,480.9,77.3,480.7z"/>
	<path class="st17" d="M78.3,479.8c0.4-0.3,0.7-0.6,1.1-0.9c0,0,0.2,0.2,0.2,0.2c0,0.3,0,0.7,0,1l0,0c-0.3,0-0.6,0-1,0.1
		C78.6,480,78.3,479.8,78.3,479.8z"/>
	<path class="st17" d="M72.6,479c0.3-0.3,0.7-0.7,1-1C73.2,478.3,72.9,478.7,72.6,479z"/>
	<path class="st17" d="M73.6,478c0.3-0.3,0.7-0.7,1-1C74.2,477.3,73.9,477.7,73.6,478z"/>
	<path class="st17" d="M74.6,477c0.3-0.3,0.7-0.7,1-1C75.2,476.3,74.9,476.7,74.6,477z"/>
	<path class="st17" d="M75.6,476c0.3-0.3,0.7-0.7,1-1C76.2,475.3,75.9,475.7,75.6,476z"/>
	<path class="st22" d="M78.6,480c0.3,0,0.6-0.1,1-0.1c-0.3,0.3-0.7,0.7-1,1C78.5,480.7,78.6,480.4,78.6,480z"/>
	<path class="st22" d="M79.5,480c0-0.3,0-0.7,0-1c0.3,0,0.7,0,1,0C80.2,479.3,79.9,479.7,79.5,480z"/>
	<path class="st12" d="M134.3,124c-17.6,0.7-37.7,1.5-45.6,15c-4.6,7.7-3.1,16.3-1.7,24.9c0.9,5.6,5,29.9,26.6,43.6
		c20.1,12.8,41.2,7.8,55.5,4.4c9.7-2.3,20.7-5.1,27.9-14.8c5.2-7,6.1-14.5,7.1-23c1.4-10.9,2.7-22.4-2-31.7
		C191.5,121.7,153.1,123.2,134.3,124z"/>
	<path class="st30" d="M107,132.5c7.4-1.1,14.3-2.1,22.5-3.3C123.4,136.2,109.9,137.7,107,132.5z"/>
	<path class="st30" d="M180.3,142.5c-0.3-0.7-0.2-1.6,0.1-2.2c0.2-0.3,1.3-0.2,1.8,0.1c4.8,3.1,9.5,6.3,14.9,10
		C192.6,151.5,181.9,146.1,180.3,142.5z"/>
	<path class="st31" d="M99.3,148.4c1.9-1.2,3.6-2.9,5.6-3.5c1.7-0.5,3.7,0.3,5.6,0.6c-0.1,0.5-0.1,1-0.2,1.5c-2,0.9-4.4,1.3-6,2.7
		c-4,3.3-5,9-2.7,13c3.1,5.5,7.5,7.6,12.7,6.1c5.9-1.7,10.2-6.6,9.7-11.6c-0.2-2.8-0.8-5.9-4.6-5.8c-3.7,0-6.5,3.3-6.2,7.2
		c1.5-0.9,2.9-1.7,4.6-2.7c1.8,3.6-0.1,5.8-2.6,6.4c-1.6,0.4-4.8-0.8-5.5-2.1c-0.9-1.9-1.1-5.9,0.1-6.8c3.1-2.6,7.2-4,11-5.8
		c0.6-0.3,1.5,0.1,2.3,0.2c0.9,0.5,1.7,1,2.6,1.6c5.6,12.4-2,24.2-14.9,24.1c-7.8,0-18-11.7-13.3-20.1c0.3-0.6,0.2-1.5,0.3-2.2
		C98.2,150.1,98.8,149.3,99.3,148.4z"/>
	<path class="st31" d="M179.9,184.5c-1-0.4-2-0.9-3-1.3c-9.1-3-13.1-10.7-10-19.6c2.9-8.4,12.3-12.8,20.7-9.2
		c1.7,0.7,2.8,2.7,4.9,4.8c-5.4-0.7-9.2-1.7-12.9-1.7c-5.1,0.1-9.1,4.7-9.7,10.3c-0.5,5.4,2.4,9.7,7.7,11.3c5.5,1.7,10,0.3,12.3-3.6
		c2.5-4.4,1.9-7.4-1.7-9.3c-3.8-2-6.6-0.9-9.2,4c1.1-0.1,2-0.3,2.9-0.3c1.3,0.1,2.5,0.3,3.7,0.5c-0.9,1.1-1.7,3-2.6,3.1
		c-2.4,0.1-5.3,0-7.1-1.3c-0.9-0.6-0.5-4.4,0.5-6.2c2.6-4.7,8.6-6,13.5-3.6c5.1,2.6,6.5,6.8,4.6,12.6c-1.8,5.2-5.7,7.7-10.6,9.3
		C182.6,184.5,181.2,184.5,179.9,184.5z"/>
	<path class="st32" d="M165.7,179c1.2,1.5,2.6,2.1,4,2.8c2,0.9,3.9,1.3,7.8,1.9c2.2,0.4,3.1,0.5,5.7,0.8c0.7,0.1,1.5,0.2,2.7,0.3
		c0.3,0,1.5,0.1,3-0.1c0.8-0.1,1.8-0.2,2.9-0.4c0.2,0.8,0.6,2.8-0.5,4.5c-1,1.6-2.7,2.1-3.5,2.3c-9.6,2.4-21.2-1.3-25.1-11.5
		c-0.5-1.3,0.6-3.3,1-5C164,175.7,164.4,177.4,165.7,179z"/>
	<path class="st32" d="M100.1,171.5c3,0.9,5.8,1.6,8.3,2c2.7,0,5.3,0.1,8,0.1c0.8,0.1,1.9,0.1,3.1-0.1c1.2-0.2,2.1-0.5,2.9-0.8
		c0.8-0.5,1.6-0.9,2.5-1.4c0.5-0.2,0.9-0.4,1.3-0.6c-0.2,5.8-3.7,9-8.9,9.4c-5.7,0.4-11.6,0.3-17.1-1.1c-5.7-1.4-6.4-3.8-5-9.2
		C96.7,170.4,98.3,171,100.1,171.5z"/>
	<path class="st33" d="M149.4,209.7c-0.6,1.4-3.6,2.4-5.6,2.5c-1.8,0.1-3.7-1.1-5.5-1.8c-2.6-1-5-2.4-7.6-3.2
		c-4.6-1.2-8.1-4.6-7.8-8c0.4-4.1,3.8-6.9,8.9-7.2c7.7-0.4,13.4,2.9,18,9.7C149.7,204.5,150.3,207.4,149.4,209.7z M131,195.1
		c-2.7,0.6-5.8,1.8-4.9,4.8c0.6,2,4,4.5,6,4.3c2.9-0.3,4.4,0.8,6.1,2.3c0.6,0.5,1.2,1.2,1.9,1.3c2,0.4,4.1,0.6,6.2,0.9
		c0.1-2,0.2-4,0.3-6C142.6,197.2,136.5,194,131,195.1z"/>
</g>
<path class="st5" d="M263.2,334c0.1,2.1,0.1,4.2-2.9,4.2c-0.9-1.3-2.3-2.5-2.5-3.9c-2-16.6-3.8-33.2-5.5-49.8
	c-0.6-5.8-1.3-11.6-1.4-17.4c-0.1-4.9,2.6-6.9,7.3-6.3c2.1,0.3,4.2,0.3,6.3,0c16.1-2.1,32.2-4.5,48.3-6.6c6.4-0.8,12.9-1.1,19.3-1.7
	c3.8-0.4,5.4,1.8,5.9,5.1c3.4,27,6.6,54,10,81c0.9,7.2,1.9,14.5,3.6,21.6c1.2,4.9-0.4,6.6-4.8,7.6c-12.1,2.7-24.3,5.3-36.4,8.5
	c-12.1,3.2-24.1,7-36.1,10.8c-3.6,1.1-4.5,0.2-3.5-3.2c2.3-1.1,4.7-2.2,7-3.3c0.7-0.3,1.4-0.5,2.1-0.8l0,0c1.5-0.2,2.9-0.4,4.3-0.7
	c10.1-2.7,20.1-5.6,30.3-8.2c9.5-2.4,19-4.6,28.5-6.8c2.6-0.6,4.2-1.4,3.8-4.6c-1.5-11.9-2.8-23.7-4.3-35.6
	c-2.6-20.4-5.4-40.8-7.8-61.2c-0.6-4.9-2.9-6.2-7.1-5.8c-4.6,0.5-9.2,1.1-13.8,1.7c-10.5,1.4-21,3-31.6,4.4c-9,1.2-18,2.2-27.5,3.4
	c0.2,2.6,0.2,5.1,0.5,7.5c0.8,7.6,1.6,15.2,2.6,22.8C259.6,309,261.5,321.5,263.2,334z"/>
<path class="st34" d="M263.2,334c-1.8-12.5-3.6-25-5.2-37.5c-1-7.6-1.8-15.2-2.6-22.8c-0.3-2.4-0.3-4.9-0.5-7.5
	c9.4-1.1,18.5-2.2,27.5-3.4c10.5-1.4,21-3,31.6-4.4c4.6-0.6,9.2-1.2,13.8-1.7c4.2-0.4,6.5,0.9,7.1,5.8c2.4,20.4,5.2,40.8,7.8,61.2
	c1.5,11.9,2.8,23.7,4.3,35.6c0.4,3.2-1.2,4-3.8,4.6c-9.5,2.2-19.1,4.4-28.5,6.8c-10.1,2.6-20.2,5.5-30.3,8.2
	c-1.4,0.4-2.9,0.5-4.3,0.7c5.4-3.7,10.9-7.4,16.3-11.2c3.1-2.2,6.2-4.5,9-7.1c2.7-2.6,5.8-5.4,2.6-9.8c-0.4-0.6,0-1.9,0.1-2.8
	c0.5-4.9-0.3-9-6.2-10.3c2.6-5.5,8.5-10.4,2.6-16.7c-2.5-2.6-5.6-1.5-14,4.5c-0.1-2.2,0.3-4.6-0.5-6.3c-1.1-2.4-2.7-5.1-4.9-6.2
	c-1.5-0.7-5,0.5-6.3,2C273.2,321.6,268.3,327.9,263.2,334z M310.9,346.5c0,6,2.8,9.4,7.8,9.4c5.8,0.1,10.2-3.3,10.3-7.9
	c0.1-4.9-5.7-11.2-10.2-11.3C314.5,336.8,310.9,341.2,310.9,346.5z M309.3,274.1c0.9,5.3,1.8,9.8,2.6,13.3c0.7,3.4,1.1,5,2.4,5.5
	c2.3,1,6.5-1.6,8-5.1c1.6-3.9-0.5-8.3-2.9-10.7C315.3,273.3,310,274,309.3,274.1z M294.9,290.7c0.1-5.7-3.5-11.8-6.4-11.9
	c-4-0.1-7.6,3.4-7.6,7.5c-0.1,5,4,9.5,8.7,9.7C293.9,296.2,294.6,293.3,294.9,290.7z M309,286.4c-2.5-3.3-4.5-6.7-7.3-9.2
	c-2-1.8-6.4,0.7-5.9,3.5c0.5,3.3,2.2,6.6,4.1,9.5c0.8,1.2,3.8,2.3,5,1.8C306.5,291.3,307.3,288.9,309,286.4z M273.5,293
	c0.5-0.1,1.1-0.2,1.5-0.4c1.3-0.7,2.6-1.5,3.9-2.2c-1.3-0.5-2.6-1.2-4-1.6c-1-0.3-2-0.4-3-0.6c2.1-1.8,4.4-2.5,6.5-3.4
	c0.7-0.3,1.3-1.4,1.5-2.2c0.1-0.5-1.1-1.6-1.5-1.5c-4.3,0.9-8.5,2-14,3.4c5.5,4.8,3.2,12.1,9.7,16.6
	C273.9,297.5,273.7,295.5,273.5,293z"/>
<path class="st35" d="M311.1,346.5c0-5.3,3.6-9.8,7.9-9.7c4.5,0.1,10.3,6.4,10.2,11.3c-0.1,4.6-4.5,7.9-10.3,7.9
	C313.9,355.9,311.1,352.5,311.1,346.5z"/>
<path class="st5" d="M309.3,274.1c0.7-0.1,6-0.9,10,3c2.4,2.4,4.5,6.6,2.9,10.6c-1.4,3.6-5.6,6.3-8,5.2c-1.3-0.6-1.7-2.2-2.4-5.7
	C311.1,283.7,310.2,279.3,309.3,274.1z M316.2,288.4c4.6-3.9,3.9-7.1-2.9-9.8C314.3,282.2,315.2,285.2,316.2,288.4z"/>
<path class="st5" d="M294.9,290.7c-0.2,2.5-1,5.5-5.4,5.3c-4.7-0.2-8.8-4.7-8.7-9.7c0.1-4.1,3.7-7.6,7.6-7.5
	C291.4,278.9,295,285,294.9,290.7z M288.7,282.9c-0.9,0-1.8-0.1-2.6-0.1c-0.3,2.1-1.3,4.4-0.6,6.1c0.6,1.5,3,2.3,4.6,3.4
	c0.5-0.5,0.9-0.9,1.4-1.4C290.5,288.2,289.6,285.5,288.7,282.9z"/>
<path class="st5" d="M309,286.4c-1.7,2.5-2.5,4.9-4.1,5.6c-2,0.9-4.1-1-5-1.8c-3.2-2.6-6.1-8.5-3.4-11.9c1.7-2.1,5-2.8,7.5-1.9
	C307.7,277.7,310,281.9,309,286.4z"/>
<path class="st5" d="M273.5,293c0.2,2.4,0.4,4.5,0.6,8c-6.5-4.5-4.1-11.8-9.7-16.6c5.4-1.4,9.7-2.5,14-3.4c0.4-0.1,1.5,1.1,1.5,1.5
	c-0.1,0.8-0.8,1.9-1.5,2.2c-2.1,1-4.4,1.6-6.5,3.4c1,0.2,2,0.2,3,0.6c1.4,0.4,2.7,1.1,4,1.6c-1.3,0.8-2.6,1.5-3.9,2.2
	C274.6,292.9,274.1,292.9,273.5,293z"/>
<path class="st5" d="M316,322.9c-3.4-0.3-5.9-3.1-5.9-6.3c0-2.9,2-5.5,5-6.2c0.2,0,3.6-0.1,5.5,2.6c1.5,2.1,1,4.4,0.8,5
	C320.8,320.4,318.7,322.3,316,322.9z"/>
<path class="st5" d="M313.2,329.3c1.5,2,2.7,3.3,3.4,4.8c0.1,0.3-2.1,2.4-2.9,2.1c-1.3-0.3-2.8-1.7-3.1-3
	C310.4,332.5,312,331.2,313.2,329.3z"/>
<path class="st5" d="M322.7,327.4c1.5,2,2.7,3.3,3.4,4.8c0.1,0.3-2.1,2.4-2.9,2.1c-1.3-0.3-2.8-1.7-3.1-3
	C319.8,330.5,321.4,329.2,322.7,327.4z"/>
<path class="st5" d="M331.8,332.3c1.5,2,2.7,3.3,3.4,4.8c0.1,0.3-2.1,2.4-2.9,2.1c-1.3-0.3-2.8-1.7-3.1-3
	C329,335.5,330.5,334.2,331.8,332.3z"/>
<path class="st5" d="M322.4,306.7c1.2,0.6,1.9,2,1.8,3.3c-0.1,1.3-0.9,2.4-2.1,2.9c-1.3-0.3-2.3-1.3-2.5-2.5
	C319.3,308.8,320.5,307.1,322.4,306.7z"/>
<path class="st34" d="M288.7,282.9c0.9,2.7,1.8,5.4,2.7,8c-0.5,0.5-0.9,0.9-1.4,1.4c-1.6-1.1-4-1.9-4.6-3.4
	c-0.6-1.7,0.3-4.1,0.6-6.1C286.9,282.8,287.8,282.8,288.7,282.9z"/>
<path class="st34" d="M303.7,279.7c0.9,2.7,1.8,5.4,2.7,8c-0.5,0.5-0.9,0.9-1.4,1.4c-1.6-1.1-4-1.9-4.6-3.4
	c-0.6-1.7,0.3-4.1,0.6-6.1C301.9,279.6,302.8,279.7,303.7,279.7z"/>
<path class="st5" d="M315.9,303.3c1.2,0.6,1.9,2,1.8,3.3c-0.1,1.3-0.9,2.4-2.1,2.9c-1.3-0.3-2.3-1.3-2.5-2.5
	C312.8,305.4,314,303.6,315.9,303.3z"/>
<path class="st5" d="M307,305.7c1.2,0.6,1.9,2,1.8,3.3c-0.1,1.3-0.9,2.4-2.1,2.9c-1.3-0.3-2.3-1.3-2.5-2.5
	C303.8,307.8,305,306.1,307,305.7z"/>
<path class="st34" d="M313.3,278.5l2.9,9.8c0,0,4.9-2.5,3.8-2.9c-1.1-0.5-1.2-5.8-1.2-5.8l-4.2-1.9L313.3,278.5z"/>
<path class="st32" d="M-179.9,163.8"/>
</svg>
