<?xml version="1.0" encoding="utf-8"?>
<!-- Generator: Adobe Illustrator 23.0.3, SVG Export Plug-In . SVG Version: 6.00 Build 0)  -->
<svg version="1.1" id="Ebene_1" xmlns="http://www.w3.org/2000/svg" xmlns:xlink="http://www.w3.org/1999/xlink" x="0px" y="0px"
	 viewBox="0 0 407.9 703.2" style="enable-background:new 0 0 407.9 703.2;" xml:space="preserve">
<style type="text/css">
	.st0{fill:#2D2A3D;}
	.st1{fill:#B44845;}
	.st2{fill:#A56364;}
	.st3{fill:#F5A064;}
	.st4{fill:#473D49;}
	.st5{fill:#333244;}
	.st6{fill:#F7B281;}
	.st7{fill:#403E4F;}
	.st8{fill:#504F5E;}
	.st9{fill:#F7F4F5;}
	.st10{fill:#F9C39E;}
	.st11{fill:#C9B8C3;}
	.st12{fill:#FBE0E0;}
	.st13{fill:#FAC59F;}
	.st14{fill:#FBF8F9;}
	.st15{fill:#ECD8D8;}
	.st16{fill:#F4B7B9;}
	.st17{fill:#B8A0AE;}
	.st18{fill:#EFEAED;}
	.st19{fill:#B39AA9;}
	.st20{fill:#BA95A1;}
	.st21{fill:#A88EA0;}
	.st22{fill:#BCA5B2;}
	.st23{fill:#E9E2E6;}
	.st24{fill:#BFAAB7;}
	.st25{fill:#E88843;}
	.st26{fill:#8D726A;}
	.st27{fill:#8A677E;}
	.st28{fill:#B79BA8;}
	.st29{fill:#C6967F;}
	.st30{fill:#F9C49E;}
	.st31{fill:#89726F;}
	.st32{fill:#3C3A4C;}
	.st33{fill:#E88138;}
</style>
<g>
	<path class="st0" d="M146.5,47.2c14.5-2.6,27.9,0.5,40.5,8c20.5,12.2,33.4,30.3,40.7,52.5c2.6,8.1,4.1,16.8,4.3,25.4
		c0.3,9.2-1.1,18.6-2.5,27.7c-1.9,11.6-4.3,23.1-7.1,34.5c-1.1,4.5-3.8,8.6-5.7,12.9c-3.6-1-2.2-3.5-1.4-5.5c1.8-4.9,1.6-9-3.8-11.5
		c-0.8-9.5-1.6-18.9-2.4-28.4c-0.5,0.3-1,0.6-1.5,0.9c-1.6-1.8-3.9-3.3-4.8-5.4c-2.1-4.9-3.5-10.1-5.5-15c-0.5-1.3-1.8-2.2-2.8-3.3
		c-1.2-2.4-2.4-4.9-3.5-7.2c-1.8,0.9-3.3,2-4.9,2.4c-1.7,0.4-3.7-0.5-5.2,0c-3.9,1.5-6,0.3-6.9-3.6c-0.6-1.6-1.2-3.2-1.7-4.8
		c-0.5,0.2-1,0.3-1.5,0.5c-0.6,1.4-1.3,2.8-2,4.2c-1.6-1.6-3.1-3.1-5.4-5.3c0.1,0-1.3,0.3-2.6,0.6c0.3-1.5,0.9-2.1,1.6-2.6
		c3.1-2.3,4.3-5.4,3.1-9.1c-0.3-1-1.2-2.2-2-2.4c-0.7-0.2-1.6,1.1-2.6,1.7c-1.7,1-3.4,2.1-5.1,2.9c-0.9,0.4-2.3,0.1-2.8,0.7
		c-6.9,9.2-16.6,8.7-26.3,8.3c-2.2,1.3-4.5,2.2-6.8,3c-1.2,0.4-2.5,0.8-3.8,1.2c-3.3,2.2-4.1-0.2-4.6-2.6c-0.7-3.8-1.2-7.8-1.8-11.7
		c-0.3,0-0.6,0-0.9,0c-1.4,4.7-2.9,9.4-4.3,14.1c-5.4,2.4-7.2,6.9-8.2,12.3c-1.5,7.8-3.5,15.5-5.5,24c-3.2-4.5,1.2-10.4-4.7-13.9
		c-0.7,2.5-1.2,4.3-1.7,6.1c-2.6,7.3-2.6,7.3-8,5.3c-3.2-1.1-6.4-3.2-9.6-3.1c-7,0-9.1,5.5-10.5,11.3c-0.6-0.5-1.7-0.9-1.7-1.4
		c-0.1-4.6-3.9-9.1,0.4-14.1c1.8-2.1,1.2-6.5,1.4-9.9c0.2-4.1-0.7-8.5,0.3-12.4c3.7-14.1,8-27.9,12.2-41.9c0.5-1.6,1.3-3.1,2.3-4.4
		c5.6-7,11.2-14,16.9-21.1c-2.6-1.9-4.8-3.8-7.5-0.7c-0.3,0.3-1.5-0.2-2.3-0.3c3.5-2.5,7-5,10.8-7.7c-1.8,0-3.2,0-4.7,0
		c0-1,0-2,0-3.1c3.7-2.3,8.5-3.8,10.7-7.1c2.1-3.2,3.5-6.4,7.3-7.9l0.4,0.2c-0.1,1.4-0.2,2.9-0.3,4.2c2.4-0.9,4.7-1.5,6.6-2.6
		c1.3-0.8,2.2-2.3,3.3-3.5c1.1-4.7,5.6-4.2,8.7-5c2.7-0.7,4.1-1.6,4.4-4.3c1.2-0.7,2.5-1.5,3-1.8c-0.2-2.7-1.2-5.7-0.4-6.4
		c1.5-1.3,4.2-1.3,6.4-1.8c0.8-0.2,1.6,0,2.5,0c1.2,2.3,2.4,4.5,3.6,6.8l-0.1,0c0.4,0.7,0.9,1.5,1.4,2.2c0.6,0.8,1.1,1.7,1.7,2.5
		c0.5,1.1,1,2.3,1.5,3.5c0.3,0.2,0.7,0.5,1,0.7c-1.7,2.2-3.4,4.3-4.7,6c-2.4-1.5-5.2-3.3-9-5.7c2.9,12.7,2.9,12.7,12.9,10
		c0.5-0.1,1,0,1.5,0c-0.3,0.3-0.6,0.7-0.9,1C146.1,46.6,146.3,46.9,146.5,47.2z"/>
	<path class="st1" d="M147.4,270.2c28.4,14,51.4,35,73.8,57.2c-2.1,3.1-4.3,6.4-6.5,9.6c-0.5,0.9-0.9,1.8-1.4,2.7
		c-5.3,8.8-10.8,17.5-15.9,26.5c-3.6,6.4-6.7,13.2-10.1,19.8c-1,1.3-1.9,2.5-2.9,3.8c-1.9,3.3-3.8,6.6-5.9,9.7
		c-1.5,2.3-3.3,3.3-6.2,1.1c-3.5-2.6-7.6-4.6-11.8-7.1c-0.7,3.6-1.6,7.2-2,10.9c-2.1,19.1-4,38.2-6,57.3c-0.2,1.8,0,3.6,0,5.5
		c0,0.9-0.1,1.8-0.1,2.8c-2.7,11.6-2.7,23.2,1.1,34.5c0.4,1.2,3.2,2.4,4.8,2.3c3.4-0.3,6.7-1.4,10.1-2.1c17.5-2,34.9-3.2,52.1,2.4
		c4.6,1.7,9.1,3.3,13.7,5c8.4,3.9,13.3,10.7,16.2,19.2c2.2,6.6,4.2,13.2,6.3,19.8c0,1.3,0.1,2.7,0.1,4c0.2,1.3,0.4,2.6,0.5,4
		c-0.5,3.9-1.1,7.8-1.7,12.1c3.8-3,6.3-6.3,6.5-11c3.8-6.8,2.3-13.9,1.3-20.9c-1.9-13.4-6.4-25.7-17.1-34.8c-1.2-1-3.1-1.2-4.6-1.8
		c0-0.9-0.1-1.8-0.1-2.7c2.3,0.6,5.2,0.5,6.9,1.8c10.3,8.1,15.3,19.5,17.8,31.9c1.2,6,1.8,12.2,1.9,18.3c0.1,8.2-2.7,15.4-8.7,21.5
		c-6.1,6.3-11.5,13.3-17.3,19.9C229.4,608,213.7,619.1,197,629c-19.3,11.4-38.5,23-55.2,38.2c-1.4,1.3-2.1,3.2-3.1,4.8
		c-2,3.4-4.3,2.1-6.6,0.4c-8.2-6-16.2-12.1-24.6-17.7c-5.7-3.9-11.9-7.1-17.9-10.6c-1.4-0.7-2.8-1.5-4.3-2.1
		c-3.2-1.2-4.7-4.8-2.9-7.8c0.9-1.5,2-2.9,2.9-4.3c-7.6-0.9-15.1-0.9-22.2-2.7c-27.7-6.7-47.7-29.6-51.5-57.8
		c-0.2-1.7-2.1-3.2-2.7-4.9c-1.3-3.3-2.4-6.6-3.3-10c-6.6-25.8-6.3-52-4.7-78.4c1.8-30.1,8.8-59,14.8-88.4
		c3.3-16.4,6.2-32.8,14-47.5c10.6-20,22.1-39.5,37.2-56.5c5.8-6.5,13-11.9,20-17.2c2.6-2,6.4-2.2,9.7-3.3
		c15.5-2.2,30.7-1.9,45.2,4.9C143.6,269,145.5,269.5,147.4,270.2z M161.5,387.2L161.5,387.2c0,0.3,0,0.7,0.1,1.1
		c2.2,1.7,4.5,3.4,6.7,5.1c1.7,1,3.2,2.4,5,2.9c1.1,0.3,3.3-0.1,3.8-1c1.8-3.2,3.2-6.7,4.7-10.1c0.9-1.3,1.8-2.6,2.7-4
		c6.4-11.2,12.9-22.4,19.1-33.6c1.1-1.9,1.3-4.3,1.9-6.5c3.4-4.2,6.8-8.3,10.1-12.5c-1-0.5-2-1.1-3-1.6c-0.4-1-0.5-2.4-1.2-3.1
		c-8.6-7.9-17.3-15.6-25.9-23.4c-0.9-0.9-1.9-1.7-2.8-2.6c-1.7-1.3-3.4-2.6-5.1-3.9c-1.3-1-2.6-2-3.9-3c-7.6-5-15.1-10.2-22.9-14.8
		c-4.1-2.4-8.8-3.4-13.3-5.1c-1-0.1-1.9-0.2-2.9-0.3c-1-0.6-1.9-1.3-2.9-1.9c-3.4-0.9-6.8-1.8-10.2-2.6c-0.2-0.1-0.5-0.1-0.7,0
		c-0.8-0.1-1.5-0.2-2.3-0.4c-4.9,0.4-9.9,0.6-14.8,1.1c-4.4,0.5-8.9,1.2-13.3,1.8c-10.3,6.2-18.8,14.4-25.9,24.2
		c-0.4,0.7-0.8,1.4-1.2,2c-3.7,5.3-7.3,10.6-11,15.9l0.1,0c-0.3,0.3-0.5,0.7-0.8,1c-0.4,0.7-0.8,1.4-1.2,2.1c-0.7,1-1.5,2-2.2,3
		c-0.6,1-1.1,2.1-1.7,3.1c-1.1,1.6-2.2,3.2-3.3,4.8c-0.7,1.3-1.4,2.7-2.1,4c-12.5,18-18.8,38.2-20.8,59.8
		c-1.2,5.1-2.5,10.2-3.7,15.3c-3.2,16.4-6.4,32.7-9.6,49.1c-0.5,6.3-1,12.5-1.4,18.8c-0.1,4.6-0.2,9.3-0.2,13.9
		c-0.3,6.7-0.7,13.5-1.1,20.2c0.3,6,0.6,12.1,0.8,18.1c0.1,0.3,0.2,0.5,0.3,0.8c0.1,0.8,0.1,1.5,0.2,2.2c0,0.5,0,1.1,0.1,1.6
		c0.1,2.1,0.2,4.2,0.2,6.2c1.9,8.6,3.7,17.2,5.7,26.4c2.7-1.7,5.5-3.5,8.2-5.2c0.6-0.5,1.2-1,1.7-1.5c4.3-2.3,8.6-4.7,13-7
		c1.3-0.8,2.6-1.6,4-2.4c11.2-6.5,22.4-13.1,35.5-14.9c5.8-0.8,10.5-3.5,14.7-7.6c6.7-6.5,14.4-9.3,23.5-4.3c1.5,0.8,4.1,0.6,5.9,0
		c8.5-2.6,16.8-6.1,25.5-8.2c5.1-1.2,4.9-4.3,4.8-7.8c-0.1-2-0.7-3.9-1.1-5.9c-2.4-15.4,1.4-30.4,2.6-45.6c1-12.4,2.2-24.7,3.4-37.1
		c0.4-3.7,0.7-7.4,1.1-11c1.5-7,5.9-14.5-5-19.1c0.6-0.4,1.1-0.8,1.7-1.3c2.8,0.8,5.5,1.7,8.3,2.5v-0.1c0.3,0.3,0.7,0.7,1,1l0,0
		C160.8,386.5,161.1,386.9,161.5,387.2z M64.6,622.3c0.3,0,0.5,0,0.8-0.1c1.1,0.6,2.1,1.2,3.2,1.8c0.3,0,0.7,0.1,1,0.1
		c0.6,0.1,1.2,0.2,1.8,0.2l0.1,0.3c0.4,0,0.7,0.1,1.1,0.1c0.7,0,1.3,0,2,0c1.8,0,3.5-0.1,5.3-0.1c4-0.6,8.8,0,11.7-2.1
		c5.9-4.1,10.8-9.6,16.1-14.5c1-0.9,2-1.8,3-2.7c1.3-1.8,2.5-3.5,3.8-5.3c2.3-1.2,4.7-2.5,7.1-3.7c0.7-0.4,1.3-0.9,2-1.3
		c1-0.9,2-1.8,3-2.7c0.6-0.3,1.2-0.5,1.7-0.9c3-2.4,5.8-5,8.8-7.3c2-1.5,4.3-2.7,6.4-4.1l0,0c1-0.6,2-1.2,3-1.8
		c4.8-3.2,9.6-6.3,14.4-9.5c0.4,0.5,0.8,0.9,1.2,1.3c-1.9,2.2-3.6,4.7-5.8,6.4c-4.9,3.7-10.1,7-15.1,10.5c-3.2,2.3-6.4,4.7-9.6,7
		c-1,0.9-2,1.9-3,2.8c-4.7,3.6-9.4,7.3-14.2,10.9c-11.2,9.1-22.3,18.3-30.7,31c2.3,0.2,4.1,0.3,5.8,0.4c3.1,1.6,6.2,3.1,9.2,4.7
		c0.9,0.5,1.7,0.9,2.6,1.3c0.8,0.5,1.6,1.1,2.3,1.6c0.9,0.5,1.8,0.9,2.6,1.4c0.4,0.3,0.7,0.6,1.1,0.9c9.2,6.8,18.3,13.5,27.8,20.5
		c2.6-3.5,4.4-7.1,7.2-9.8c3.4-3.3,7.5-5.8,11.3-8.7c1.6-1,3.2-2.1,4.8-3.1c4.7-3,9.4-6.1,14.1-9.1c2.7-2,5.4-3.9,8-5.8
		c2.6-1.7,5.3-3.3,7.9-5l0,0c1.3-0.7,2.7-1.3,4-2c0.7-0.4,1.4-0.8,2-1.2c16.2-8.3,30.5-19.3,42.8-32.8c0.6-0.7,0.6-2,0.8-3
		c0.5-1,1.1-1.9,1.6-2.8c14.2-13.2,17.4-30.9,8.5-47.9c-0.4-1.4-0.9-2.8-1.3-4.2c-2.6-4.7-4.2-10.8-8.1-13.8
		c-10.6-8-22.9-12.1-36.4-12.2c-0.6-0.3-1.3-0.6-1.9-0.9c-26.7-1.5-52,4.7-76.8,13.7c-7.2,2.6-14.2,5.6-21.4,8.1
		c-1.8,0.6-3.9,0.3-5.8,0.3c-0.1-0.6-0.1-1.2-0.2-1.7c4.1-1.8,8.2-3.5,13.3-5.7c-1.5-0.7-2-1-2.6-1.2c-6.8-2.7-11.1,2-16,5.3
		c-4.3,2.9-8.8,6.8-13.6,7.6c-13.6,2.3-25.5,8.2-37,15.4c-1,0.6-1.9,1.3-2.9,1.9c-4.1,2.3-8.2,4.7-12.3,7c-0.6,0.4-1.2,0.8-1.8,1.3
		c-3.1,1.7-6.2,3.4-9.1,5c0.5,2,0.8,3.7,1.3,5.3c2.9,8,5.7,16,8.8,24c0.4,1.1,2,1.8,3,2.7c2.4,3,4.8,6,7.2,9c3,2.9,5.9,5.8,8.9,8.8
		c2,1.1,4,2.2,5.9,3.3c1.2,0.7,2.5,1.3,3.7,2c0.8,0.3,1.5,0.6,2.3,0.9c1.4,0.6,2.7,1.2,4.1,1.8C61.2,622.1,62.9,622.2,64.6,622.3z"
		/>
	<path class="st2" d="M89.6,644.1c6,3.5,12.2,6.7,17.9,10.6c8.4,5.7,16.4,11.8,24.6,17.7c2.4,1.7,4.6,3,6.6-0.4
		c2.9,0.4,5.9,0.9,8.9,1c7.9,0.4,13.6,4.2,17.1,11c3.1,6.1,0.7,12.3-6,13.6c-12.1,2.2-24.3,3.7-36.4,5.4c-8.8,1.2-15.7-2.3-21.7-8.6
		c-7-7.3-14.4-14.3-21.6-21.4c-7-6.9-7-10.3,0-17.4C82.5,651.9,86,647.9,89.6,644.1z"/>
	<path class="st3" d="M213.3,339.7c0.5-0.9,0.9-1.8,1.4-2.7c19.7,17.1,40.4,32.9,61.2,48.7c25.5,19.4,52,37.6,77.6,56.9
		c1,0.8,3,0.7,4.5,0.5c9.3-1.2,18.6-3.2,28-3.5c8.1-0.3,15.1,4.1,20.3,10.1c3.4,4,1,13.3-4.1,16.3c-4.1,2.5-8.6,4.2-13.1,6.1
		c-12.5,5.2-25.1,9.8-38.8,11.3c-8.7,0.9-16.7-1.5-23.8-5.3c-14.8-7.8-29-16.8-43.4-25.5c-9.9-6-19.6-12.4-29.4-18.7
		c-7.4-4.7-14.8-9.3-22.2-14c-15.7-10.1-31.4-20.2-47.1-30.3c1-1.3,1.9-2.5,2.9-3.8c3.1,2.4,6.1,4.7,9.2,7.1
		c9.3,5.7,18.6,11.4,27.9,17c10,6.5,20.1,13.1,30.1,19.6c7.2,4.6,14.5,9,21.8,13.5c0.4,0.3,0.7,0.7,1.1,1c18,10.9,35.9,22,54.2,32.3
		c4.5,2.5,10.6,3.7,15.8,3.3c17.8-1.2,33.6-9.6,50.2-15.4c4.6-1.6,6.3-5.7,5.9-10.5c-0.3-3.1-1.3-5-5-4.5c-5.5,0.9-11,1.6-16.5,2.3
		c-1.7,0.2-3.5,0-5.3,0c-0.1-0.6-0.1-1.2-0.2-1.9c5.1-1.4,10.2-2.9,15.3-4.3c0-0.5,0.1-1,0.1-1.5c-2.6-0.2-5.2-0.8-7.7-0.5
		c-10.1,1.2-20.2,2.8-30.3,3.9c-1.7,0.2-3.7-1.5-5.4-2.7c-1.3-0.9-2.2-2.5-3.5-3.5c-6.1-4.5-12.3-9-18.6-13.4
		c-9.4-6.6-19-12.8-28.1-19.7c-9.4-7.1-18.3-14.9-27.6-22.1c-16.7-12.9-33.5-25.5-50.3-38.2C218.1,345.3,215.7,342.5,213.3,339.7z"
		/>
	<path class="st4" d="M78.4,65.9c0.8,0.1,2.1,0.6,2.3,0.3c2.7-3.1,4.9-1.2,7.5,0.7C82.5,74,76.9,81,71.3,88c-1,1.3-1.9,2.8-2.3,4.4
		c-4.2,13.9-8.5,27.8-12.2,41.9c-1,3.9-0.1,8.3-0.3,12.4c-0.2,3.4,0.5,7.8-1.4,9.9c-4.3,5-0.5,9.5-0.4,14.1c0,0.5,1.1,1,1.7,1.4
		c-0.2,4.1-1.1,8.4-0.2,12.3c1.1,5.1,3.7,9.8,5.7,14.7c-0.5,0.7-1.1,1.3-1.6,2c-2.9-6.6-6-13.1-8.7-19.8
		c-11.5-28.1-10-56.4,0.3-84.2c3.2-8.7,9.8-16.4,15.6-23.9C70,69.9,74.7,68.3,78.4,65.9z"/>
	<path class="st3" d="M152.4,470c0-0.9,0.1-1.8,0.1-2.8c7.9,2.9,15.8,5.5,23.5,8.7c10.3,4.4,21.4,3.6,32.1,5.3
		c9.4,1.4,19.3,1.4,27.6,6.9c3.7,2.4,8.3,4.5,4.8,10.3c-0.1,0.2,0.6,1,1,1.6c0,0.9,0.1,1.8,0.1,2.7c1.3,4.5,1.1,8.1-4.6,9
		c-1,0.1-1.9,0.3-2.9,0.5c-4.6-1.7-9.1-3.3-13.7-5c1.8-4.3,5.3-1.1,7.9-1.9c0.7,0.3,1.4,0.6,2.1,0.9c0.4,0.2,0.7,0.5,1.1,0.7
		c0.1-0.1,0.2-0.3,0.3-0.4c-0.4-0.1-0.9-0.3-1.3-0.4c-0.6-0.4-1.3-0.7-1.9-1.1c-2.7-1.6-5.5-3.1-8.2-4.8c-1-0.6-1.6-1.6-2.5-2.5
		c1.1-0.2,2.5-1,3.4-0.6c5.5,2.4,10.9,5,16.1,7.4c1.1-7.3-7.7-7-11.2-11.1c0.2-0.4,0.5-0.7,0.7-1.1c3.2,0.6,6.4,1.2,9.5,1.8
		c-3.6-2.8-7.2-5.6-11.3-6.4c-8.7-1.7-17.7-2.4-26.5-3.6c-6.5-0.9-13.1-1.8-19.5-3.3c-5-1.1-9.8-3.1-14.7-4.6
		c-1.6-0.7-3.2-1.3-4.7-2.1C157.3,472.7,154.9,471.3,152.4,470z"/>
	<path class="st5" d="M102.4,40.2c-3.8,1.5-5.2,4.7-7.3,7.9c-2.2,3.3-7,4.8-10.7,7.1c0-1,0-2.1-0.1-3.2c0.6-2.9,1.3-5.9,1.9-8.8
		c2.1-1.7,4.1-3.4,6.3-5.2c-0.4-0.3-0.9-0.6-1.4-0.9c3.1-4,6.3-7.9,9.4-11.9c3.3-2.8,3.3-6.1,1.4-9.7c5.8-1.1,11.6-2.3,17.4-3.4
		c5.8,4.2,11.7,4,17.8,0.7c0.3,1.5,0.6,3,0.9,4.5c-0.4,0.6-0.7,1.3-1,1.9c-0.8,0-1.7-0.2-2.5,0c-2.2,0.5-4.9,0.5-6.4,1.8
		c-0.9,0.7,0.1,3.7,0.4,6.4c-0.5,0.3-1.8,1.1-3,1.8c-2.6,0.4-5.3,0.8-7.9,1.3c-0.1-0.5-0.2-0.9-0.3-1.4c2.9-1.2,5.8-2.4,8.8-3.6
		c-3.6-6.5-9-4.3-13.7-3c-1.8,0.5-2.8,3.7-4.4,6.1c3.2,0.2,5.1,0.3,6.9,0.4c-1.9,2.1-3.8,3.7-5.7,3.8
		C103.9,32.8,102.4,35.6,102.4,40.2z"/>
	<path class="st6" d="M147.4,270.2c-1.9-0.7-3.8-1.2-5.6-2c-14.5-6.8-29.7-7.1-45.2-4.9c0.3-2.4,0.5-4.7,0.8-7
		c0.1-0.3,0.2-0.6,0.2-1c0.4-1.4,0.9-2.8,1.3-4.1c1.6,0.4,3.2,0.8,4.8,1.3c6.4,1.8,12.8,3.8,19.3,5.5c3,0.8,5.2,0.3,3.5-3.7
		c4.2-0.4,8.4-0.6,12.6-1.4c10.1-1.9,19.9-4.6,28.4-10.5c0,1.5,0,2.9,0,4.4c-4.5,2.3-8.9,4.8-13.6,6.6c-2.9,1.1-4.8,2.4-5,5.7
		C148.6,262.7,147.9,266.4,147.4,270.2z"/>
	<path class="st3" d="M126.5,254.1c1.7,4-0.6,4.5-3.5,3.7c-6.5-1.7-12.9-3.6-19.3-5.5c-1.6-0.4-3.2-0.8-4.8-1.3
		c-2.8-2.4-5.4-5-8.3-7.3c-14.6-11.1-25-25.2-30.5-42.7c0.5-0.7,1.1-1.3,1.6-2c1.2,1.7,2.5,3.3,3.7,5c4.4,9.4,10,17.9,17.5,25.2
		c4.6,4.5,8.5,9.6,13.4,13.8c7.4,6.4,17.3,6.9,26.2,10c0.7,0.3,1.4,0.6,2.1,0.9C125.2,254.1,125.9,254.1,126.5,254.1z"/>
	<path class="st7" d="M137.2,12.8c-6.1,3.3-12,3.5-17.8-0.7c-0.8-1.1-1.4-2.6-2.4-3.1c-5.8-2.8-11.6-2.5-16.9,1.1
		c-3.5,2.3-6.4,5.5-9.6,8.3c-1.3-2-2.7-3.9-4-5.9c2.9-2.8,5.8-5.6,8.7-8.4c4.4-1.3,8.9-2.7,13.3-4.1c1,0,1.9,0.1,2.9,0.1
		c1.3,0.7,2.6,3.7,4,0.1c1,0.1,2.1,0.1,3.1,0.2c0.8,0.2,1.5,0.4,2.3,0.6c0.5,0.1,1.1,0.3,1.6,0.4c0.4,0.2,0.8,0.4,1.2,0.7
		c0.3,0.2,0.5,0.4,0.8,0.6c1.1,0.5,2.2,0.9,3.2,1.4C130.9,7,134.1,9.9,137.2,12.8z"/>
	<path class="st8" d="M91.3,37.1c0.5,0.3,1,0.7,1.4,0.9c-2.2,1.8-4.3,3.5-6.3,5.2c-1.5-1.9-2.9-3.8-4.8-6.2
		c-2.6,3.6-5.9,7.2-4.4,11.7c0.6,1.7,4.8,2.2,7.3,3.2c0,1,0,2.1,0.1,3.2c0,1,0,2,0,3.1c-4.4,2.2-8.1,0.5-11.1-2.6
		C69.7,51.9,69,47,71,42.3c1.6-3.7,4.3-7,6.4-10.4c3.8,1.6,7.5,3.3,11.3,4.9c0,0,0.2-0.3,0.3-0.4C89.7,36.7,90.5,36.9,91.3,37.1z"/>
	<path class="st3" d="M167.6,246.6c0-1.5,0-2.9,0-4.4c17.6-11.3,30.1-27,39.8-45.9c0.4,1.3,0.8,2.6,1.2,3.9l0,0c0,0.5,0,1,0,1.5
		c-0.4,0.8-0.7,1.6-1.1,2.4c-6.4,8.8-12.1,18.2-19.4,26.1C182.2,236.6,174.5,241.2,167.6,246.6z"/>
	<path class="st8" d="M86.6,12.4c1.3,2,2.7,3.9,4,5.9c0.1,0.7,0.2,1.4,0.2,1.7c3.9-1.6,7.6-3.1,11.4-4.5c1.9,3.6,1.8,6.9-1.4,9.7
		c-0.7-0.4-1.6-1.3-2-1.1c-2.1,0.9-4.1,2.1-6.1,3.1c-1.8-1-3.6-2.1-6.3-3.7c-0.5,0.1-2.3,0.3-4,0.6C83.7,20.2,85.1,16.3,86.6,12.4z"
		/>
	<path class="st7" d="M207.5,204.1c0.4-0.8,0.7-1.6,1.1-2.4c0-0.5,0-1,0-1.5l0,0c0.6-0.7,1.3-1.4,1.9-2.1c0.9-0.2,1.8-0.4,2.7-0.7
		c0-0.3-0.1-0.6-0.1-0.9c-0.8-0.1-1.5-0.2-2.3-0.3c0.3-1.7,0.5-3.4,0.7-5.1c5.4,2.5,5.6,6.6,3.8,11.5c-0.7,2-2.2,4.5,1.4,5.5
		c-0.4,1.4-0.5,2.9-1.3,4c-1.9,2.8-4.4,2.6-5.7-0.5C208.6,209.3,208.2,206.6,207.5,204.1z"/>
	<path class="st7" d="M146.8,45.3c-0.5,0-1-0.2-1.5,0c-9.9,2.8-9.9,2.8-12.9-10c3.8,2.4,6.6,4.1,9,5.7c1.3-1.7,3-3.8,4.7-6
		c1.5,2.3,3,4.6,4.7,7.3C149.4,43.4,148.1,44.3,146.8,45.3z"/>
	<path class="st7" d="M82.2,24.1c1.7-0.2,3.4-0.5,4-0.6c2.7,1.6,4.5,2.6,6.3,3.7c-3.7,2.1-5.4,5-3.6,9.3c-0.1,0.1-0.2,0.4-0.3,0.4
		c-3.8-1.6-7.5-3.3-11.3-4.9c1.3-1.6,2.6-3.1,3.9-4.7c0.3-0.9,0.5-1.8,0.8-2.8C82.1,24.5,82.2,24.1,82.2,24.1z"/>
	<path class="st9" d="M231.6,420c7.4,4.7,14.8,9.3,22.2,14C246.2,434.3,233.4,426.2,231.6,420z"/>
	<path class="st8" d="M108.6,0c-4.4,1.4-8.9,2.7-13.3,4.1C99.7,2.7,104.1,1.3,108.6,0z"/>
	<path class="st8" d="M137.1,19.2c0.4-0.6,0.7-1.3,1-1.9c0.9,2.9,1.7,5.8,2.6,8.7C139.5,23.7,138.3,21.5,137.1,19.2z"/>
	<path class="st8" d="M115.5,0.3c-1.5,3.5-2.7,0.6-4-0.1C112.8,0.2,114.2,0.2,115.5,0.3z"/>
	<path class="st7" d="M145.2,34.2c-0.5-1.2-1-2.3-1.5-3.5C144.2,31.9,144.7,33.1,145.2,34.2z"/>
	<path class="st8" d="M127.7,4.1c-1.1-0.5-2.2-0.9-3.2-1.4C125.5,3.2,126.6,3.6,127.7,4.1z"/>
	<path class="st8" d="M82.1,24.5c-0.3,0.9-0.5,1.8-0.8,2.8C81.6,26.3,81.8,25.4,82.1,24.5z"/>
	<path class="st7" d="M142,28.2c-0.4-0.7-0.9-1.5-1.4-2.2C141.1,26.7,141.6,27.5,142,28.2z"/>
	<path class="st8" d="M120.9,1c-0.8-0.2-1.5-0.4-2.3-0.6C119.4,0.6,120.1,0.8,120.9,1z"/>
	<path class="st7" d="M146.5,47.2c-0.2-0.3-0.4-0.6-0.6-0.9C146.1,46.6,146.3,46.9,146.5,47.2z"/>
	<path class="st8" d="M123.7,2.1c-0.4-0.2-0.8-0.4-1.2-0.7C122.9,1.7,123.3,1.9,123.7,2.1z"/>
	<path class="st10" d="M210.5,198.1c-0.6,0.7-1.3,1.4-1.9,2.1c-0.4-1.3-0.8-2.6-1.2-3.9c-9.7,18.9-22.2,34.6-39.8,45.9
		c-8.6,5.9-18.4,8.7-28.4,10.5c-4.1,0.8-8.4,0.9-12.6,1.4c-0.6,0-1.3,0-1.9-0.1c-0.7-0.3-1.4-0.6-2.1-0.9c-8.8-3.1-18.7-3.6-26.2-10
		c-4.8-4.2-8.8-9.4-13.4-13.8c-7.5-7.3-13.1-15.8-17.5-25.2c3.1-0.1,6.1,0.1,9.1-0.3c0.6-0.1,1.1-2,1.6-3.1c-1.1-0.2-2.5-1-3.2-0.5
		c-3.4,2.2-5.5,0.1-7-2.4c-4.9-8.1-8.3-16.7-5.3-26.3c0.8-2.5,2.9-5.3,5.2-6.3c1.7-0.8,4.7,0.9,6.9,2c1.6,0.8,2.9,2.3,4.3,3.5
		c-0.2-2.1-0.4-4.1-0.6-6.2c0-0.2,0-0.3,0-0.5c5.4,2,5.4,2,8-5.3c1,10.8,2,21.7,3.1,32.5c2.2-0.7,4.5-1.5,6.7-2.2
		c2-12.9,3.8-25.9,5.9-38.7c1.1-6.8,2.9-13.4,4.4-20.1c1.4-4.7,2.9-9.4,4.3-14.1c0.3,0,0.6,0,0.9,0c0.6,3.9,1,7.8,1.8,11.7
		c0.5,2.4,1.3,4.8,4.6,2.6c1.6,0.9,3.2,2.6,4.8,2.7c4.9,0.3,9.9-0.3,14.8,0c8.4,0.5,16.7,1.8,25.1,2c2.6,0.1,5.3-2.3,7.9-3.6
		c0.6-1.4,1.3-2.8,2-4.2c0.5-0.2,1-0.3,1.5-0.5c0.6,1.6,1.2,3.2,1.7,4.8c-2.5,4.7,1.4,6.2,4.2,6.8c5.3,1.1,10.8,1.2,16.3,1.6
		c0.9,1.1,2.3,2,2.8,3.3c1.9,5,3.3,10.2,5.5,15c0.9,2.1,3.1,3.6,4.8,5.4c0.5-0.3,1-0.6,1.5-0.9c0.8,9.5,1.6,19,2.4,28.4
		c-0.3,1.7-0.5,3.4-0.7,5.1C210.6,196.9,210.6,197.5,210.5,198.1z M177.2,200.2c-1.2,0-2.4-0.2-3.5,0c-4.5,0.8-8.5,2.9-10,7.2
		c-1.4,4.1,0.6,7.7,4,10.5c4.9,4,17.7,4,22.5,0c2.9-2.4,3.9-4.9,2.5-8.7C190.5,203.3,185.5,200.2,177.2,200.2z M123.7,212.7
		c0.2,1.5,0.1,2.1,0.4,2.5c6.6,8.4,19.7,10.2,28.2,3.8c0.6-0.4,1.1-1.9,0.8-2.4c-0.4-0.6-1.6-1.3-2.4-1.1c-1.4,0.3-2.8,0.9-4.2,1.6
		c-5.7,2.8-11.1,2.8-16.3-1.4C128.5,214.3,126.3,213.8,123.7,212.7z M161.8,190.6c0.1,0.6,0.3,1.1,0.4,1.7c2-0.4,4.3-0.4,6.1-1.3
		c5.4-2.8,9.5-1.3,13.1,3c0.9,1,1.5,2.3,2.6,3c0.8,0.6,2,0.5,3,0.7c0.1-0.9,0.6-2.3,0.2-2.7c-3.8-3.3-7.3-7.8-11.8-9.2
		C170.7,184.5,165.7,187.5,161.8,190.6z M96.7,184.5c7.9-4.1,15.2-8.4,21.5,0.7c0.2,0.2,0.6,0.4,0.9,0.4c0.6-0.1,1.5-0.1,1.7-0.5
		c0.4-0.6,0.6-1.9,0.3-2.1c-3.5-2.7-7-7.2-10.6-7.3c-4.6-0.1-9.2,3.4-13.8,5.4C96.4,181.4,96.7,182.7,96.7,184.5z M66.3,177
		c0.5,2.9,1,5,1.2,7.2c0.2,2-0.1,4.8,2.8,3.8c1.8-0.6,3.7-3.1,4-4.9c0.3-2.1-0.8-4.6-1.9-6.5c-0.8-1.3-2.7-2-4.1-2.9
		C67.5,174.8,66.7,176.1,66.3,177z M171.9,163.4c5.5,4.7,9.7,8.3,13.9,11.8c-0.3-5.3-2.5-9.3-7-11.3
		C177,163.1,174.6,163.5,171.9,163.4z M101.2,161.1c0.1,0.5,0.2,1,0.3,1.5c5.2-0.5,10.4-0.9,17.2-1.6c-2.1-1.6-3.4-3.3-5-3.5
		C108.9,156.7,104.8,158.4,101.2,161.1z"/>
	<path class="st4" d="M168.8,131.3c-2.6,1.3-5.3,3.7-7.9,3.6c-8.4-0.2-16.7-1.4-25.1-2c-4.9-0.3-9.9,0.3-14.8,0
		c-1.7-0.1-3.2-1.7-4.8-2.7c1.3-0.4,2.5-0.7,3.8-1.2c2.3-0.8,4.6-1.7,6.8-3c9.7,0.4,19.4,0.9,26.3-8.3c0.4-0.6,1.9-0.3,2.8-0.7
		c1.8-0.9,3.4-1.9,5.1-2.9c0.9-0.6,1.9-1.8,2.6-1.7c0.8,0.2,1.7,1.5,2,2.4c1.2,3.7,0.1,6.8-3.1,9.1c-0.7,0.5-1.3,1.1-1.6,2.6
		c1.4-0.3,2.7-0.6,2.6-0.6C165.7,128.2,167.3,129.8,168.8,131.3z"/>
	<path class="st5" d="M104.7,130.1c-1.5,6.7-3.3,13.3-4.4,20.1c-2.2,12.9-4,25.8-5.9,38.7c-1.3,3.5-4.2,2.2-6.7,2.2
		c-1-10.8-2-21.6-3.1-32.5c0.5-1.8,1-3.6,1.7-6.1c5.9,3.6,1.4,9.4,4.7,13.9c2-8.6,4.1-16.2,5.5-24C97.5,137,99.3,132.5,104.7,130.1z
		"/>
	<path class="st6" d="M76.5,164c0,0.2,0,0.3,0,0.5c0.2,2.1,0.4,4.1,0.6,6.2c-1.4-1.2-2.7-2.8-4.3-3.5c-2.2-1.1-5.2-2.7-6.9-1.9
		c-2.3,1-4.4,3.8-5.2,6.3c-3,9.6,0.3,18.2,5.3,26.3c1.5,2.4,3.6,4.5,7,2.4c0.7-0.4,2.1,0.3,3.2,0.5c-0.5,1.1-0.9,3-1.6,3.1
		c-3,0.4-6.1,0.3-9.1,0.3c-1.2-1.7-2.5-3.3-3.7-5c-2-4.9-4.5-9.7-5.7-14.7c-0.9-3.9,0.1-8.2,0.2-12.3c1.4-5.8,3.5-11.3,10.5-11.3
		C70.1,160.8,73.3,162.9,76.5,164z"/>
	<path class="st7" d="M102.4,40.2c0-4.5,1.6-7.4,6.8-7.5c1.9,0,3.8-1.6,5.7-3.8c-1.9-0.1-3.8-0.2-6.9-0.4c1.7-2.5,2.7-5.6,4.4-6.1
		c4.7-1.4,10.1-3.5,13.7,3c-2.9,1.2-5.9,2.4-8.8,3.6c0.1,0.5,0.2,0.9,0.3,1.4c2.6-0.4,5.3-0.8,7.9-1.3c-0.3,2.7-1.7,3.6-4.4,4.3
		c-3.2,0.8-7.6,0.2-8.7,5c-1.6,0.1-3.3,0-4.8,0.3c-1.6,0.3-3.2,1.1-4.7,1.7C102.8,40.4,102.4,40.2,102.4,40.2z"/>
	<path class="st4" d="M194.5,139.9c-5.4-0.5-11-0.6-16.3-1.6c-2.9-0.6-6.8-2.1-4.2-6.8c0.9,3.9,3,5.1,6.9,3.6c1.5-0.6,3.5,0.3,5.2,0
		c1.6-0.4,3.1-1.4,4.9-2.4C192.2,135,193.4,137.4,194.5,139.9z"/>
	<path class="st11" d="M102.8,40.4c1.6-0.6,3.1-1.3,4.7-1.7c1.6-0.3,3.2-0.2,4.8-0.3c-1.1,1.2-1.9,2.8-3.3,3.5
		c-2,1.1-4.2,1.7-6.6,2.6C102.6,43.3,102.7,41.8,102.8,40.4z"/>
	<path class="st12" d="M20.4,388.9c2-21.6,8.3-41.8,20.8-59.8c10-3.1,19.9-6.2,29.8-9.6c0.8-0.3,1.6-3,1.2-4.2
		c-2.4-7.4-5.1-14.8-7.7-22.1c7.1-9.8,15.6-18,25.9-24.2c-0.7,3.9,1.3,8.6-4.1,11c-0.9,0.4-0.6,6.3,0,6.5c4.8,1.3,3.4,4.9,3.2,7.6
		c-0.4,4.7,1,6.9,6,6.1c1-0.2,2,0,3-0.1c2.3,0,4.7-0.1,7-0.1c4.9,0.8,9.7,1.6,14.7,2.4c0.6-3.3-0.1-6.8,4.3-5.3
		c3.3,0.8,6.6,1.9,10,2.4c1.4,0.2,3.1-0.8,4.6-1.2c-0.9-1.5-1.4-4-2.7-4.4c-4.8-1.7-9.8-2.7-14.8-3.9c1.1-0.9,2-2.4,3.2-2.6
		c2.6-0.4,5.3,0,7.9-0.2c2.3-0.2,5.8,1.5,5.8-3c0-4.5-3.4-3.6-6.1-3.7c-3.5-0.2-7,0-10.5,0c0-0.5-0.1-0.9-0.1-1.4
		c1.2-0.6,2.4-1.2,3.7-1.8c4-1.3,8-2.7,12-4c0-0.6,0-1.3,0-1.9c4.4,1.6,9.2,2.7,13.3,5.1c7.9,4.5,15.3,9.8,22.9,14.8
		c-1.2,0.1-2.5,0.3-3.7,0.2c-13.8-1.3-15.5,0.2-15.6,13.9c0,0.8,0,1.7,0,2.5c-0.3,5.1-1.1,10.3-0.6,15.3c0.2,2.1,3.1,3.9,4.8,5.8
		c0.6-0.6,1.2-1.2,1.8-1.8c6.4,0.8,12.9,1.6,20.1,2.5c1.1-1.5,2.4-3.4,3.7-5.4c0.4-7.9,0.8-15.7,1.2-23.6
		c8.6,7.8,17.3,15.5,25.9,23.4c0.7,0.7,0.8,2,1.2,3.1c-0.4,0.7-0.7,1.4-1.1,2.1c-2.4,1.3-4.9,2.5-7.4,3.8c-1.8,1-3.8,2-1.6,4.5
		c1,1.3,2,2.5,3,3.8c-0.6,2.2-0.9,4.5-1.9,6.5c-6.3,11.3-12.7,22.4-19.1,33.6c-1.1-1-2.6-1.8-3.4-3c-4.9-7.3-9.6-14.8-14.4-22.1
		c-3.3-1.1-6.5-2.3-9.8-3.4c-1-2.2-2.1-4.5-3.1-6.7c-2.4,3.5-8.3,6-2.3,10.2c-0.3,3-0.7,6-1,8.9c0.8,1.9,1.5,3.9,2.4,5.8
		c2.2,4.8,4.4,9.6,6.7,14.4c-2.8-0.8-5.5-1.7-8.3-2.5c-0.6,0.4-1.1,0.8-1.7,1.3c10.9,4.7,6.5,12.1,5,19.1c-2.6-1.4-5.3-2.8-7.9-4.1
		c-2.3-2-4.6-4-6.9-6c-8.7-6.4-17.4-12.8-26.2-19c-1.1-0.8-3.1-0.4-4.7-0.6c-0.5-0.5-1-0.9-1.4-1.4c-2.5-1.8-4.9-3.8-7.6-5.2
		c-1.3-0.7-3.1-0.2-4.7-0.3c0.6,1.7,0.6,3.9,1.8,5.1c3.3,3.4,7.1,6.5,10.6,9.6c3.9,3,7.7,6.2,11.8,8.9c5.6,3.6,11.5,6.8,17.2,10.2
		c1,1,2,1.9,3.1,2.9c4.6,3.7,9.3,7.4,13.9,11c-1.1,12.4-2.4,24.7-3.4,37.1c-1.2,15.2-5,30.2-2.6,45.6c0.3,2,1,3.9,1.1,5.9
		c0.1,3.5,0.3,6.6-4.8,7.8c-8.6,2.1-16.9,5.6-25.5,8.2c-1.8,0.6-4.3,0.8-5.9,0c-9.1-5-16.8-2.1-23.5,4.3c-4.3,4.1-8.9,6.8-14.7,7.6
		c-13.2,1.8-24.3,8.4-35.5,14.9c-0.7-0.7-1.6-1.3-2.1-2.1c-5.4-8.4-10.6-16.8-16.1-25.1c-1-1.6-2.7-3.6-4.2-3.8
		c-5-0.7-7.9-3.4-10.1-7.5c-0.2-0.4-1.1-0.5-1.7-0.8c0.3-6.7,0.7-13.5,1.1-20.2c3.5,2.6,7.3,2.5,11.4,2.1c4-0.4,8.4-0.5,12.2,0.6
		c4.9,1.5,5.9-1.3,7.2-4.5c0.4-7.7,0.2-15.5,1.5-22.9c0.9-4.7-0.2-6.8-4.3-8.1c-8.8-1.3-17.6-4-26.4,0.1c3.2-16.4,6.4-32.7,9.6-49.1
		c0.3,2.4,0.7,4.8,1,7.3c-1.8,7.6-3.6,15.3-5.4,22.9c0.7,0.4,1.5,0.8,2.2,1.2c1.6-1.5,3.2-3.1,4.8-4.6c2.4-4.6,4.8-9.1,7.1-13.7
		c2.1-5.6,4.3-11.3,6.4-16.9c2.7-7,5.3-14,8-21c1.5-5.1,3.2-10.1,4.5-15.2c0.3-1-0.8-3.4-1.6-3.5c-1.5-0.3-4.1,0.1-4.7,1.1
		c-2.6,4.6-4.7,9.5-7,14.4c-2.8,6.7-5.6,13.4-8.4,20.1C22.6,393.8,21.5,391.4,20.4,388.9z M97.5,330.1c-0.3,0-0.7,0-1,0.1
		c-1.7,0.5-3.3,1-5,1.5c-0.9,0.1-1.9,0.2-2.8,0.3c-0.6-0.1-1.3-0.1-1.9-0.2c-0.8,0.1-1.6,0.2-2.4,0.2c-1.8,0.6-3.5,1.3-5.3,1.9
		c-3.2,0.1-3.9,2.2-3.5,4.7c0.4,2.5-0.3,6,4,5.9c3.3-0.2,6.5-0.5,9.8-0.7c8.4-1.6,16.8-3.2,25.1-4.8c4-2,8.1-4,12.1-6
		c-0.2-0.8-0.3-1.7-0.4-2.5c-5.2-0.8-10.5-1.6-15.7-2.4c-3.7,0.6-7.3,1.3-11,1.9C98.8,330.1,98.2,330.1,97.5,330.1z M53.3,496
		c0.1,0.9-0.1,2.2,0.4,2.7c8.2,8,16.5,15.9,24.9,23.7c0.7,0.7,2.4,0.3,3.7,0.4c4.1-4.5,8.2-9.1,12.3-13.6c2.6-2.5,5.4-4.7,7.5-7.5
		c0.7-0.9,0.3-3.8-0.7-4.8c-5.4-5.5-11-10.9-16.8-16c-2.3-2-5.1-3.4-7.7-5c-0.5-0.9-0.9-1.8-2-3.9c-0.9,3.2-1.5,5.1-2,6.6
		c-1.9,0.7-4,0.7-4.8,1.8c-4.1,5.3-7.3,11.2-14,13.9C53.8,494.5,53.6,495.4,53.3,496z M59.7,428.1c8.6,5,17.2,10.1,25.8,15.1
		c2.8,1.8,4.6,1.4,6.2-1.8c3-6.2,6.7-12,9.8-18.2c2.1-4.2,3.5-8.7,5.2-13c-1.1-4.9-2-9.9-3.3-14.7c-0.2-0.9-1.8-1.5-2.8-2.2
		c-5.6-3.3-11.2-6.7-16.9-9.8c-5.7-3.1-6.3-2.9-9.4,2.8c-6.6,12.2-12.9,24.5-19.5,36.7c-1.9,3.4-1.1,4.6,2.7,4.1
		C58.1,427.4,58.9,427.8,59.7,428.1z M134.4,508.1c0.6-1.5,1.8-2.9,1.9-4.4c0.2-12.8,0.4-25.6,0.1-38.5c-0.1-4.3-1.8-8.5-2.7-12.7
		c-0.7-0.1-1.4-0.2-2.1-0.3c-1.4,3.9-3.7,7.8-4,11.8c-0.8,10.6-0.8,21.3-1,31.9c0,1.4,0.6,2.8,0.9,4.2
		C126.8,508.3,127.2,508.6,134.4,508.1z M128,413.6c-2.1,1.3-6.1,2.3-7.1,4.7c-1.7,3.8-1.6,8.5-1.9,12.8c0,0.5,1.6,1.4,2.6,1.8
		c1.8,0.7,3.8,1.3,5.7,1.8c9.2,2.4,16.4-3.9,15.2-13.4c-0.2-1.7-1.7-3.8-3.2-4.5C136.1,415.4,132.6,414.9,128,413.6z"/>
	<path class="st12" d="M202.5,508.2c13.5,0.1,25.9,4.2,36.4,12.2c3.9,3,5.5,9.1,8.1,13.8c-2.1-0.7-4.6-1-6.4-2.3
		c-4.1-3.1-6.1-1-8,2.5c-6.7,12.6-13.4,25.3-20.2,37.9c-2,3.7-0.2,4,2.8,3.7c0.8,0.4,1.6,0.7,2.4,1.1c6.9,4.1,13.7,8.1,20.5,12.2
		c-0.3,1-0.2,2.3-0.8,3c-12.3,13.5-26.5,24.4-42.8,32.8c0.3-5.3,0.6-10.6,0.9-15.9c2.4-4.3-0.3-6.4-3.8-6.9
		c-6.8-1-13.8-1.7-20.7-1.8c-3.9-0.1-6.3,2.8-6.5,6.8c-0.2,3.7-0.1,7.3-0.1,11c0.4,0.4,0.8,0.8,1.2,1.2c0.3,0.1,0.6,0.2,0.9,0.2
		c0,0.8,0,1.6,0,2.5c-0.9,1-2.5,1.8-2.7,3c-0.4,2.2-0.2,4.6-0.2,6.9c0,4.9,1.5,6.1,6.7,5.8c0.7,0,1.5,0.9,2.3,1.3
		c-4.7,3-9.4,6.1-14.1,9.1c0.3-6.8,0.8-13.5,0.8-20.3c0-1.2-1.7-2.4-2.6-3.6c-1,0.8-2.7,1.6-2.8,2.6c-0.6,4.8-1.5,9.9-0.8,14.6
		c0.5,3.4-3.9,7,0.6,9.9c-3.8,2.8-7.9,5.4-11.3,8.7c-2.8,2.7-4.7,6.3-7.2,9.8c-9.5-7-18.7-13.8-27.8-20.5c2.4-0.4,4.9-0.9,7.3-1
		c7.4-0.4,13.3-3.9,19.1-9.4c-7.4-3.2-14.2-4.7-21.7-3.2c-5.5,1.1-11.1,1.7-16.7,2.6c-2,0.3-4,0.7-5.9,1.1c-1.8-0.1-3.5-0.2-5.8-0.4
		c8.3-12.7,19.5-21.8,30.7-31c2,0.2,4.1,0,5.9,0.7c6.8,2.4,7.2,2.3,9-4.5c4.1,0.9,8.2,1.9,12.4,2.5c1.4,0.2,3-0.8,4.6-1.3
		c-0.9-1.5-1.5-3.9-2.8-4.4c-4.8-1.6-9.9-2.6-14.8-3.8c1-0.9,2-1.9,3-2.8c3.6,0,7.3,0.2,10.9-0.1c1.1-0.1,2.8-1.5,2.9-2.3
		c0-1.3-1-2.7-1.9-3.8c-0.4-0.5-1.5-0.6-2.3-0.9c5.1-3.5,10.3-6.8,15.1-10.5c2.3-1.7,3.9-4.3,5.8-6.4c-0.4-0.5-0.8-0.9-1.2-1.3
		c-4.8,3.2-9.6,6.3-14.4,9.5c-0.2-2.6-1.4-3.3-4-2.7c-4.4,1-8.9,1.6-13.4,2.4c-1-5.8-1.6-6.3-5.6-5.9c-5.7,0.5-11.5,1-17.3,1.1
		c-8.3,0.1-8.3,0-9.2,8.1c-0.2,1.7-0.4,3.3-0.6,4.9c-1.1,1-2.2,2.1-3.2,3.1l0,0.5c0.2,1.4,0.2,4.1,0.5,4.1c3.5,0.5,3,3,3,5.3
		c0,8.4,0,8.4,8.5,8.9c0.8,0,1.7,0.1,2.5,0.2c-5.3,4.9-10.2,10.4-16.1,14.5c-3,2-7.8,1.5-11.7,2.1c-4.4-13.4-8.8-26.7-13.4-40
		c-0.3-0.8-2.4-1.9-3.2-1.6c-5.3,1.8-10.5,3.9-15.8,5.8c-0.7,0.4-1.3,0.9-2,1.3l0,0c-4.7,1.7-9.5,3.3-14.2,5c-1.3,0.3-2.6,0.7-3.9,1
		c-1-0.9-2.6-1.6-3-2.7c-3.1-7.9-5.9-15.9-8.8-24c-0.6-1.6-0.9-3.3-1.3-5.3c2.9-1.6,6-3.3,9.1-5c1.3,2.3,2.7,4.6,4,6.9
		c0.8,1.6,1.5,3.2,2.5,5.3c5.3-3.3,10.3-6.2,15-9.4c2.7-1.9,1.6-3.9-1-5.3c-1.2-2.5-2.4-5.1-3.5-7.7c11.5-7.2,23.3-13.1,37-15.4
		c4.8-0.8,9.3-4.7,13.6-7.6c4.9-3.3,9.2-8,16-5.3c0.5,0.2,1.1,0.5,2.6,1.2c-5,2.2-9.2,3.9-13.3,5.7c0.1,0.6,0.1,1.2,0.2,1.7
		c2-0.1,4.1,0.3,5.8-0.3c7.2-2.5,14.2-5.5,21.4-8.1c24.8-9,50.2-15.2,76.8-13.6c-7.1,3.8-8,11.2-10.7,17.6
		c-2.8,6.7-5.6,13.5-8.3,20.2c-0.5-1-0.7-2.2-1.4-3c-0.6-0.6-1.7-1-2.5-0.9c-0.8,0.1-2,1.1-2,1.6c0.2,5.1,0.7,10.2,1,15.4
		c-3.5,6.7-5.4,13.7-5.1,21.3c0.1,1.5,0.7,2.9,1,4.3c1.3-1.6,2.6-3.2,3.9-4.8c2.6-4.3,5.2-8.5,7.8-12.8c2-6.4,4-12.8,6.1-19.1
		c0.7-1.3,1.3-2.6,2-3.9c2.1-4.9,4.2-9.9,6.4-14.8c1.5-3.1,3.6-6.1,4.2-9.4C203.6,515.5,202.7,511.8,202.5,508.2z M148.5,517.1
		c-3.7,0.3-7.5,0.3-11.1,1.2c-2.5,0.6-4.7,2.4-7.1,3.6c-5.4,2.9-8.3,7.3-7.9,13.6c0.3,4.8,3.1,7.8,7.4,8.8c3.6,0.8,7.5,0.7,11.2,0.2
		c2.6-0.3,4.5-0.7,5.4,2.4c0.3,0.8,1.4,1.6,2.3,1.9c0.4,0.1,1.4-1.1,1.7-1.9c1.8-4.2,3.4-8.5,5-12.8c0.4-0.4,0.7-0.8,1.1-1.1
		c1-0.7,2.6-1.3,3-2.3C163.2,522.7,158.6,517.2,148.5,517.1z M85.7,556c-1-7.2-4.1-10.2-12.2-12.1c-5.5-1.3-6.2,3-7.6,6.4
		c-0.6,1.4-1.6,2.7-1.7,4.1c-0.2,2.5-0.7,6,0.6,7.4c2.8,2.8,6.7,4.9,10.4,6.5c1.4,0.6,4.7-0.3,5.5-1.6C83,563.1,84.4,559,85.7,556z"
		/>
	<path class="st13" d="M228.4,505.2c-2.6,0.8-6.1-2.4-7.9,1.9c-17.1-5.6-34.6-4.5-52.1-2.4c-0.4-3.6-0.7-7.1-1.2-10.7
		c-0.9-6-1.9-11.9-2.8-17.8c4.9,1.6,9.7,3.5,14.7,4.6c6.4,1.5,12.9,2.4,19.5,3.3c8.8,1.3,17.8,1.9,26.5,3.6
		c4.1,0.8,7.7,3.5,11.3,6.4c-3.2-0.6-6.4-1.2-9.5-1.8c-0.2,0.4-0.5,0.7-0.7,1.1c3.5,4.1,12.3,3.8,11.2,11.1
		c-5.3-2.5-10.6-5.1-16.1-7.4c-0.9-0.4-2.2,0.4-3.4,0.6c0.8,0.8,1.5,1.9,2.5,2.5c2.7,1.7,5.4,3.2,8.2,4.8L228.4,505.2z"/>
	<path class="st14" d="M248.3,538.5c8.8,17,5.7,34.8-8.5,47.9c-5.4-2.5-10.9-5-16.2-7.5c1.5-4.4,2.6-7.7,3.8-10.9
		c2.4-4.7,4.8-9.3,7.3-14c2.8-0.5,5.6-0.8,8.3-1.4c1-0.2,2.2-0.8,2.8-1.6c0.4-0.5,0.1-2.2-0.3-2.5c-0.9-0.5-2.2-0.4-3.3-0.6
		c-0.9-0.2-1.7-0.7-2.6-1c1.2-2.1,2.8-4.1,3.5-6.3C244,537.5,245.9,537.7,248.3,538.5z"/>
	<path class="st6" d="M196.6,393.1c-3.1-2.4-6.1-4.7-9.2-7.1c3.3-6.6,6.4-13.4,10.1-19.8c5.1-8.9,10.6-17.6,15.9-26.5
		c2.4,2.8,4.8,5.6,7.2,8.4c-4.8,11.2-9.5,22.4-14.4,33.6C204.1,386.4,201.7,390.9,196.6,393.1z"/>
	<path class="st14" d="M177.6,294.1c1.7,1.3,3.4,2.6,5.1,3.9c-0.1,7.1-0.1,14.3-0.4,21.4c-0.1,1.3-1.2,2.6-1.9,3.8
		c-1.6,0.1-3.1,0.2-4.7,0.2c-5.1,0.1-10.1,0.2-15.2,0.4c-1.3-1-2.5-1.9-3.9-2.9c0-6.7,0-13.6,0-20.6c0-4.7,2.1-6.9,7.1-6.4
		C168.4,294.4,173,294.1,177.6,294.1z M169.6,312.2c0-0.1,0-0.1,0-0.2c-2,0-4.1-0.5-5.9,0.1c-1.4,0.5-2.5,2.3-3.7,3.4
		c1.2,1.1,2.2,3,3.5,3.2c3.8,0.5,7.6,0.2,11.5,0.4c2.6,0.1,3.6-0.9,3.7-3.4c0-2.5-0.9-3.7-3.5-3.5
		C173.3,312.3,171.5,312.2,169.6,312.2z"/>
	<path class="st14" d="M166.5,622c0-0.8,0-1.6,0-2.5c0.3-4.3,0.3-8.6,0.9-12.8c0.2-1.3,2.1-3.4,3.3-3.4c6.1-0.2,12.3-0.1,18.4,0.3
		c2.4,0.2,4.5,1.4,3.5,4.6c0,6,0,12-0.1,18.1c-1.3,0.7-2.7,1.3-4,2c0.1-6.9,0.1-6.9-6.8-7.1c-2.5,0-5,0-7.4-0.2
		c-2.7-0.3-4.6,0.8-4.1,3.4c0.3,1.4,2.5,3.3,4,3.5c4.7,0.5,9.6,0.3,14.4,0.4c-2.6,1.7-5.3,3.3-7.9,5c-1.8-0.5-3.7-1.4-5.5-1.4
		c-2.6,0-5.2,0.8-7.8,1.2c-0.4,0.1-0.8,0.2-1.1,0.4C166.4,629.5,166.4,625.7,166.5,622z"/>
	<path class="st15" d="M234.2,512.1c1-0.2,1.9-0.4,2.9-0.5c5.7-0.9,5.9-4.5,4.6-9c1.6,0.6,3.4,0.8,4.6,1.8
		c10.8,9.1,15.2,21.4,17.1,34.8c1,7,2.5,14.2-1.3,20.9c-1.6-0.4-3.2-0.7-4.8-1.1c-0.2-1.3-0.4-2.6-0.5-4c1.5,0.3,3.1,0.7,4.7,1
		c0.1,0.1,0.3,0.2,0.4,0.2c-0.1-0.1-0.2-0.2-0.4-0.2c-0.5-2.2-1-4.4-1.6-7.1c-1.3,0.9-2.3,1.5-3.2,2.1c-2.1-6.6-4.1-13.2-6.3-19.8
		C247.6,522.8,242.6,516,234.2,512.1z"/>
	<path class="st16" d="M181.8,385.2c-1.5,3.4-2.9,6.9-4.7,10.1c-0.5,0.8-2.7,1.3-3.8,1c-1.8-0.5-3.4-1.9-5-2.9
		c-3.5-6.5-7-13-10.6-19.4c-1.6-2.8-4.1-5.4-1.9-9c0.2-0.1,0.4-0.2,0.5-0.4c3.1-1.4,6.1-2.7,10.2-4.6
		C171.3,367.9,176.5,376.5,181.8,385.2z"/>
	<path class="st6" d="M164.5,476.2c0.9,5.9,1.9,11.9,2.8,17.8c0.5,3.5,0.8,7.1,1.2,10.7c-3.4,0.8-6.7,1.9-10.1,2.1
		c-1.6,0.1-4.4-1.1-4.8-2.3c-3.8-11.3-3.8-22.9-1.1-34.5c2.5,1.4,4.9,2.8,7.4,4.1C161.4,474.8,162.9,475.5,164.5,476.2z"/>
	<path class="st16" d="M34.6,547.8c-4.3,2.3-8.6,4.7-13,7c-3.6-6.5-7-13.1-10.8-19.5c-1.4-2.3-3.4-4.3-5.1-6.5c0-0.5,0-1.1-0.1-1.6
		c0.6-0.7,1.2-1.5,1.8-2.2l-0.1,0.1c0.3-0.3,0.7-0.7,1.1-1.1l-0.1,0c1.8-0.6,3.8-0.9,5.4-1.9c3.2-2,5.3-1.7,7.2,1.8
		c2.6,4.6,5.7,8.9,8.3,13.4C31.3,540.8,32.9,544.4,34.6,547.8z"/>
	<path class="st9" d="M74.5,624.7c-0.7,0-1.3,0-2,0c-0.4,0-0.7-0.1-1.1-0.1l-0.1-0.3c0.8-2.5,2-5-1.8-6.2c1.9-1,2.1-2,0-3
		c0-0.7,0-1.4,0-2.1c-1.3-0.4-2.7-1.3-3.8-1c-4.8,1.3-9.5,2.9-14.2,4.4c0-0.5,0-0.9-0.1-1.4c5.3-2.1,10.7-4.2,16-6.2
		c-0.1-0.4-0.2-0.9-0.4-1.3c-1.2,0-2.4,0-3.6,0c0-0.5,0-0.9-0.1-1.3c0.7-1.1,1.3-2.1,2-3.2c-0.3-0.6-0.7-1.3-1-1.9
		c-0.2-0.7-0.5-1.3-0.7-2c-6.2,2.3-12.5,4.7-18.7,7c-0.5,0-1,0-1.5,0c-1.3-0.4-2.7-0.7-4-1.1c-0.1-1.6-0.2-3.1-0.3-4.7
		c1-0.7,2.1-1.3,3.1-2c1,0,2,0,3.1-0.1c0,0.6,0,1.2,0,1.8c-0.6,0.7-1.1,1.5-1.7,2.2c0.3,0.3,0.5,0.7,0.8,1
		c6.1-2.2,12.2-4.3,18.3-6.5c-0.2-0.6-0.4-1.3-0.6-1.9c-4.2,1.3-8.5,2.7-12.7,4c-0.3-0.5-0.6-1.1-1-1.7c4.7-1.7,9.3-3.4,14-5.1
		c-0.3-0.7-0.5-1.4-0.8-2c-6.4,2.3-12.8,4.7-19.3,7c-0.9,0-1.8,0-2.7,0c-1-0.8-2-1.5-3-2.2c3.1-1.7,5.9-3.2,8.8-4.7l0,0
		c0.7,0,1.4,0.1,2.1,0.1c4.3-1.2,8.6-2.3,12.8-3.7c2.6-0.9,4.1-0.4,4.9,2.3c3.5,10.7,7.2,21.3,10.6,32.1
		C76.3,621.9,75,623.5,74.5,624.7z"/>
	<path class="st17" d="M96.5,586.1c0.2-1.6,0.4-3.3,0.6-4.9c0.9-8.1,0.9-7.9,9.2-8.1c5.8-0.1,11.5-0.6,17.3-1.1
		c4-0.3,4.6,0.1,5.6,5.9c4.5-0.8,9-1.4,13.4-2.4c2.6-0.6,3.8,0.1,4,2.7c-1,0.6-2,1.2-3,1.8c-2.3-2.9-11.1-1.7-15.4,2.8
		c5.6-1,10.5-1.9,15.4-2.8c-2.1,1.3-4.4,2.5-6.4,4.1c-3,2.3-5.9,4.8-8.8,7.3c-0.5,0.4-1.1,0.6-1.7,0.9c0-5.9,0-11.9,0-17.8
		c-0.9,0-1.8-0.1-2.7-0.1c-0.1,6.9-0.2,13.7-0.3,20.6c-0.7,0.4-1.3,0.9-2,1.3c0-5.4-0.2-10.9,0-16.3c0.1-2.9-0.8-4.1-3.9-4
		c-4.8,0.1-9.5-0.5-14.3-0.4c-1.2,0-2.3,1.7-3.5,2.7c-0.6,2.6-1.1,5.1-1.7,7.7C97.6,585.9,97,586,96.5,586.1z"/>
	<path class="st18" d="M43.3,325.1c1.1-1.6,2.2-3.2,3.3-4.8c5.9-1.9,11.9-3.7,17.8-5.5c-0.2-0.6-0.4-1.2-0.6-1.7
		c-5.2,1.4-10.3,2.8-15.5,4.2c0.7-1,1.5-2,2.2-3c4.3-1.3,9.4-1,12.4-5.5c-3.5,0.8-7,1.6-10.5,2.4c3.7-5.3,7.3-10.6,11-15.9
		c1.9,6,3.7,12,5.6,17.9c0.9,2.8,0.8,4.8-2.4,5.8c-6.1,1.9-12.2,4.1-18.3,6C46.8,325.4,45,325,43.3,325.1z"/>
	<path class="st14" d="M99.8,578.2c1.2-0.9,2.3-2.6,3.5-2.7c4.8-0.1,9.5,0.5,14.3,0.4c3.1,0,4,1.1,3.9,4c-0.2,5.4,0,10.9,0,16.3
		c-2.3,1.2-4.7,2.5-7.1,3.7c-1.3-0.6-2.5-1.3-3.7-1.9c0.4-1.7,0.2-3.9,1.2-5c3.3-3.4,2.8-5.9-0.7-8.6c-1.8-1.4-3.4-3.1-4.6-5
		c-2.3-3.7-3.8-2.9-5.3,0.5C100.9,579.5,100.3,578.8,99.8,578.2z"/>
	<path class="st9" d="M99.8,578.2c0.5,0.6,1.1,1.3,1.6,1.9c1,1,1.8,2.4,3,2.9c6.4,2.5,7.6,5.7,3.7,11c-0.7,1-1.1,2.1-1.9,3.7
		c2,0.2,3.3,0.3,4.6,0.4c1.3,0.6,2.5,1.3,3.7,1.9c-1.3,1.8-2.5,3.5-3.8,5.3c-1.8-0.1-3.6-0.3-5.4-0.1c-4.7,0.6-6.3-1.1-6-6
		c0.2-4.4-0.7-8.9-1.2-13.4C98.7,583.3,99.2,580.7,99.8,578.2z"/>
	<path class="st19" d="M89.5,639.2c2-0.4,3.9-0.8,5.9-1.1c5.6-0.9,11.2-1.5,16.7-2.6c7.4-1.4,14.3,0,21.7,3.2
		c-5.8,5.5-11.6,9-19.1,9.4c-2.5,0.1-4.9,0.7-7.3,1c-0.4-0.3-0.7-0.6-1.1-0.9c1.1-0.4,2.2-0.8,3.3-1.2c0.7,0,1.3,0,2,0
		c2.5-0.6,4.9-1.3,7.4-1.9c0.2-0.1,0.3-0.5,0.5-0.8c-0.3-0.1-0.6-0.2-0.9-0.2c0-0.3,0-0.7,0-1c0.6-0.8,1.2-1.6,1.7-2.4
		c-0.2-0.4-0.4-0.8-0.6-1.3c-7,1.5-14,3-20.9,4.5C95.6,642.3,92.6,640.8,89.5,639.2z M118.6,638.2c-0.2-0.5-0.3-1-0.4-1.5
		c-6.5,1.1-13,2.2-19.5,3.3c0.1,0.4,0.2,0.8,0.2,1.3C105.5,640.3,112,639.3,118.6,638.2z"/>
	<path class="st17" d="M98.5,300.2c-1,0-2-0.1-3,0.1c-5,0.8-6.4-1.4-6-6.1c0.2-2.8,1.6-6.4-3.2-7.6c-0.6-0.2-0.9-6.1,0-6.5
		c5.5-2.4,3.4-7.1,4.1-11c4.4-0.6,8.9-1.3,13.3-1.8c4.9-0.5,9.8-0.8,14.8-1.1c0,0.3,0,0.6,0,1c-0.7,1.7-1.8,3.4-1.9,5.2
		c-0.4,7.6-0.4,15.3-0.6,22.9c-0.5,0-1.1,0-1.6,0c0-7.4-0.1-14.9,0.1-22.3c0-2.7-0.8-3.9-3.7-3.8c-4.8,0.1-9.6-0.2-14.4,0
		c-1.3,0.1-3.6,1.4-3.6,2.2c-0.3,8.9-0.2,17.8-0.2,27c2.2,0,4,0,5.8,0C98.5,299,98.5,299.6,98.5,300.2z"/>
	<path class="st17" d="M128.5,596.9c5,1.2,10,2.2,14.8,3.8c1.3,0.4,1.9,2.9,2.8,4.4c-1.5,0.5-3.1,1.5-4.6,1.3
		c-4.2-0.6-8.3-1.6-12.4-2.5c-1.8,6.9-2.2,7-9,4.5c-1.8-0.7-3.9-0.5-5.9-0.7C119.1,604.2,123.8,600.6,128.5,596.9z"/>
	<path class="st20" d="M34.6,547.8c-1.7-3.5-3.3-7.1-5.3-10.4c-2.6-4.5-5.7-8.8-8.3-13.4c-1.9-3.4-4-3.7-7.2-1.8
		c-1.6,1-3.6,1.3-5.4,1.9c2.4-2.2,4.8-4.5,7.5-7.1c-3.9-1.1-6.8-1.9-10.1-2.8c-0.2,3.6-0.5,6.8-0.7,10.1c-0.3-6-0.6-12.1-0.8-18.1
		c0.6,0.3,1.5,0.4,1.7,0.8c2.1,4.2,5.1,6.9,10.1,7.5c1.6,0.2,3.2,2.3,4.2,3.8c5.5,8.3,10.7,16.7,16.1,25.1c0.5,0.8,1.4,1.4,2.1,2.1
		C37.3,546.3,36,547,34.6,547.8z"/>
	<path class="st17" d="M248.3,538.5c-2.4-0.8-4.3-1-5.3,2.2c-0.7,2.3-2.3,4.2-3.5,6.3c-0.3-0.1-0.5,0-0.8,0c0-1.3-0.1-2.5-0.1-3.8
		c1.2-2.4,3-4.7,3.4-7.3c0.1-0.8-3.4-2.2-5.5-3.4c-1.5,2.6-2.6,4.6-3.7,6.6c-0.2,0.3-0.4,0.6-0.3,0.9c-1.4,2.9-2.8,5.8-4.1,8.6
		c-3.3,6.1-6.6,12.2-9.9,18.4c-2.1,2.6-5.1,4.9-3.2,8.9c-3,0.3-4.8,0-2.8-3.7c6.8-12.6,13.5-25.3,20.2-37.9c1.8-3.5,3.9-5.6,8-2.5
		c1.7,1.3,4.2,1.5,6.4,2.3C247.4,535.7,247.9,537,248.3,538.5z"/>
	<path class="st21" d="M36.3,484.2c-1.3,3.2-2.3,6-7.2,4.5c-3.8-1.2-8.2-1-12.2-0.6c-4.1,0.4-7.9,0.5-11.4-2.1
		c0.1-4.6,0.2-9.3,0.2-13.9c0.9,0,1.7,0.1,2.6,0.1c-0.2,3.2-0.4,6.5-0.6,9.7c0.2,0.9,0.3,1.8,0.5,2.7c0.4-0.5,0.9-1,1.4-1.5
		c6,0,12,0,18,0.1c2.3,0.1,4.6,0.6,7,0.9C35.1,484.1,35.7,484.1,36.3,484.2z"/>
	<path class="st22" d="M74.5,624.7c0.5-1.3,1.8-2.8,1.4-3.8c-3.4-10.7-7-21.4-10.6-32.1c-0.9-2.7-2.3-3.2-4.9-2.3
		c-4.2,1.4-8.6,2.5-12.8,3.7c0-0.5-0.1-0.9-0.1-1.4c5.2-2,10.4-4.1,15.8-5.8c0.8-0.3,2.9,0.8,3.2,1.6c4.6,13.3,8.9,26.7,13.4,40
		C78,624.7,76.3,624.7,74.5,624.7z"/>
	<path class="st22" d="M177.6,294.1c-4.6,0-9.3,0.3-13.9-0.1c-5-0.5-7.1,1.7-7.1,6.4c-0.1,6.9,0,13.9,0,20.6c1.3,1,2.6,1.9,3.9,2.9
		c0,1.1,0,2.2-0.1,3.2c-0.6,0.6-1.2,1.2-1.8,1.8c-1.7-1.9-4.6-3.8-4.8-5.8c-0.5-5,0.3-10.2,0.6-15.3c0-0.8,0-1.7,0-2.5
		c0.1-13.7,1.8-15.2,15.6-13.9c1.2,0.1,2.4-0.1,3.7-0.2C175,292.1,176.3,293.1,177.6,294.1z"/>
	<path class="st22" d="M43.3,325.1c1.7,0,3.4,0.3,5-0.2c6.1-1.9,12.2-4,18.3-6c3.2-1,3.3-3,2.4-5.8c-2-5.9-3.8-12-5.6-17.9
		c0.4-0.7,0.8-1.4,1.2-2c2.6,7.4,5.3,14.7,7.7,22.1c0.4,1.2-0.4,3.9-1.2,4.2c-9.9,3.4-19.8,6.4-29.8,9.6
		C42,327.8,42.7,326.4,43.3,325.1z"/>
	<path class="st12" d="M19.9,556.4c-2.8,1.8-5.5,3.5-8.2,5.2c-2-9.2-3.8-17.8-5.7-26.4c0.7,0.3,1.8,0.5,2.1,1.1
		C12.1,542.9,16,549.7,19.9,556.4z"/>
	<path class="st15" d="M153.8,651.2c-4.5-2.9-0.1-6.5-0.6-9.9c-0.7-4.7,0.2-9.7,0.8-14.6c0.1-1,1.8-1.7,2.8-2.6
		c0.9,1.2,2.6,2.4,2.6,3.6c-0.1,6.8-0.5,13.5-0.8,20.3C156.9,649.1,155.3,650.2,153.8,651.2z"/>
	<path class="st21" d="M189.9,525c2.7-6.4,3.6-13.9,10.7-17.6c0.6,0.3,1.3,0.6,1.9,0.9c0.3,3.6,1.2,7.3,0.6,10.7
		c-0.6,3.3-2.7,6.3-4.2,9.4C196.6,525.3,193.7,524.1,189.9,525z M193,519.7c3.3,0.5,5.2,1.1,6.8,0.8c0.7-0.2,1.5-2.7,1.2-3.8
		c-0.4-1.1-2.7-2.6-3.2-2.3C196.3,515.4,195.3,517.1,193,519.7z"/>
	<path class="st18" d="M51.5,615.1c0,0.5,0,0.9,0.1,1.4c-0.7,0.3-1.4,0.6-2.1,0.8c-2-1.1-4-2.2-5.9-3.3c2.3-2.7-0.5-4-1.5-5.9
		c0.5-0.7,1-1.3,1.5-2c0.5,0,1,0,1.5,0c1.5-0.1,3.1,0.2,4.5-0.2c5-1.5,9.9-3.2,14.9-4.8c0.3,0.6,0.7,1.3,1,1.9
		c-6.3,2.1-12.6,4.2-18.9,6.2c0.2,0.6,0.4,1.2,0.7,1.9c5.4-1.6,10.8-3.3,16.2-4.9c0,0.5,0,0.9,0.1,1.3c-5,2-10,4.1-15,6.2
		c0.1,0.3,0.1,0.6,0.2,0.9C49.7,614.8,50.6,614.9,51.5,615.1z"/>
	<path class="st20" d="M181.8,385.2c-5.2-8.6-10.5-17.3-15.3-25.2c-4.1,1.8-7.1,3.2-10.2,4.5c1-1,2.1-1.8,2.9-2.9
		c1.4-1.7,2.7-3.6,4.1-5.4c1.1,0,2.2-0.1,3.3-0.1c4.8,7.4,9.5,14.8,14.4,22.1c0.8,1.2,2.2,2,3.4,3
		C183.5,382.6,182.6,383.9,181.8,385.2z"/>
	<path class="st19" d="M167.4,632.9c2.6-0.4,5.2-1.2,7.8-1.2c1.8,0,3.6,0.9,5.5,1.4c-2.7,2-5.4,3.9-8,5.8c-0.8-0.5-1.6-1.4-2.3-1.3
		c-5.2,0.3-6.7-0.8-6.7-5.8c0-2.3-0.2-4.7,0.2-6.9c0.2-1.1,1.8-2,2.7-3c-0.1,3.8-0.2,7.5-0.3,11.3c0.1,0.5,0.1,1,0.1,1.5
		C166.7,634.1,167.1,633.5,167.4,632.9z"/>
	<path class="st22" d="M8.3,472.2c-0.9,0-1.7-0.1-2.6-0.1c0.5-6.3,1-12.5,1.4-18.8c8.8-4.1,17.6-1.4,26.4-0.1
		c-0.1,0.5-0.2,1-0.3,1.5c-5.9-0.2-11.9-0.1-17.8-0.7c-4.9-0.4-6.5,2-6.7,6.3C8.6,464.3,8.4,468.2,8.3,472.2z"/>
	<path class="st21" d="M42.1,608.1c1,1.8,3.8,3.2,1.5,5.9c-3-2.9-5.9-5.8-8.9-8.8c0.5-1.7,0.9-3.4,1.4-5.2c-1.5-1.6-3.1-3.2-4.7-4.8
		c4.7-1.7,9.4-3.3,14.2-5c-2.8,1.5-5.7,3-8.8,4.7c1,0.7,2,1.5,3,2.2c-0.2,1.1-0.3,2.2-0.5,3.3c0.1,1.6,0.2,3.1,0.3,4.7
		C40.4,606,41.3,607.1,42.1,608.1z"/>
	<path class="st19" d="M98.1,585.9c0.4,4.5,1.4,9,1.2,13.4c-0.3,4.8,1.3,6.6,6,6c1.8-0.2,3.6,0.1,5.4,0.1c-1,0.9-2,1.8-3,2.7
		c-0.8,0-1.7-0.1-2.5-0.2c-8.5-0.4-8.5-0.4-8.5-8.9c0-2.3,0.6-4.8-3-5.3c-0.3,0-0.3-2.7-0.5-4.1c0.9,0.9,1.9,1.7,2.8,2.6
		c0.3-0.6,0.6-1.2,0.8-1.8c-1.2-0.4-2.4-0.8-3.6-1.3c1.1-1,2.2-2.1,3.2-3.1C97,586,97.6,585.9,98.1,585.9z"/>
	<path class="st20" d="M155.8,365c-2.2,3.6,0.3,6.1,1.9,9c3.6,6.4,7.1,13,10.6,19.4c-2.2-1.7-4.5-3.4-6.7-5.1c0-0.4-0.1-0.7-0.1-1.1
		l0,0c-0.3-0.3-0.7-0.7-1-1l0,0c-0.3-0.3-0.7-0.7-1-1v0.1c-2.2-4.8-4.5-9.6-6.7-14.4c-0.9-1.9-1.6-3.9-2.4-5.8
		c0.8,0,1.6-0.1,2.3-0.1C153.8,365,154.8,365,155.8,365z"/>
	<path class="st18" d="M116.1,295.2c0.2-7.6,0.2-15.3,0.6-22.9c0.1-1.8,1.2-3.5,1.9-5.2c0.8-0.2,1.5-0.4,2.3-0.6
		c0.2-0.1,0.5-0.1,0.7,0c0,0.8,0.1,1.6,0.1,2.4c-0.7,1.4-1.9,2.8-2,4.2c-0.3,5.1,0,10.2-0.3,15.3c-0.2,3.9-0.7,7.8-1.1,11.6
		c-0.4,0-0.9-0.1-1.3-0.1C116.6,298.3,116.3,296.7,116.1,295.2z"/>
	<path class="st11" d="M227.3,568.1c-1.1,3.2-2.2,6.5-3.8,10.9c5.3,2.5,10.8,5,16.2,7.5c-0.5,1-1.1,1.9-1.6,2.9
		c-6.9-4.1-13.7-8.1-20.5-12.2c1.8-1.4,3.6-2.8,5.2-4.4c0.1-0.1-1.3-1.7-1.8-2.4c0.5-0.2,1.5-0.6,2.6-1c1.1-0.4,2.1-0.8,3.2-1.1
		C226.9,568.1,227.1,568.1,227.3,568.1z"/>
	<path class="st16" d="M25.3,558c4.1-2.3,8.2-4.7,12.3-7c1,1.1,2.1,2.2,3.7,3.9c-2.3,1.9-4.1,3.4-6,5
		C31.7,560.2,27.3,565.4,25.3,558z"/>
	<path class="st20" d="M19.9,556.4c-3.9-6.7-7.8-13.5-11.8-20.1c-0.3-0.6-1.4-0.7-2.1-1.1c-0.1-2.1-0.2-4.2-0.2-6.2
		c1.7,2.1,3.8,4.1,5.1,6.5c3.7,6.4,7.2,13,10.8,19.5C21.1,555.4,20.5,555.9,19.9,556.4z"/>
	<path class="st15" d="M20.4,388.9c1.1,2.4,2.1,4.8,3.2,7.2c0.1,0.4,0.3,0.8,0.4,1.2c-1,3.5-2,7-3,10.5c-1.1,1.2-2.2,2.4-3.3,3.6
		c-0.3-2.4-0.7-4.8-1-7.3C18,399.1,19.2,394,20.4,388.9z"/>
	<path class="st17" d="M153.4,414.2c-4.6-3.7-9.3-7.4-13.9-11c0.8,0,1.6-0.1,2.5-0.2c2.4,1,4.7,1.9,7.1,2.9c0.3-0.4,0.5-0.8,0.8-1.2
		c-1.1-1.3-2.3-2.7-3.5-4c0.1-0.6,0.1-1.2,0.2-1.7c2.6,1.4,5.3,2.8,7.9,4.1C154.1,406.8,153.8,410.5,153.4,414.2z"/>
	<path class="st22" d="M180.5,323.3c0.6-1.3,1.8-2.5,1.9-3.8c0.3-7.1,0.3-14.3,0.4-21.4c0.9,0.9,1.9,1.7,2.8,2.6
		c-0.4,7.9-0.8,15.7-1.2,23.6C183.1,323.9,181.8,323.6,180.5,323.3z"/>
	<path class="st19" d="M141.1,587.1c0.8,0.3,1.8,0.3,2.3,0.9c0.9,1.1,2,2.5,1.9,3.8c0,0.8-1.8,2.2-2.9,2.3
		c-3.6,0.3-7.3,0.1-10.9,0.1C134.7,591.8,137.9,589.4,141.1,587.1z"/>
	<path class="st18" d="M205.5,341.2c-1-1.3-2-2.5-3-3.8c1.9-1.1,4-2,5.6-3.4c1.4-1.3,2.3-3.2,3.4-4.9c0.4-0.7,0.7-1.4,1.1-2.1
		c1,0.5,2,1.1,3,1.6C212.3,332.9,208.9,337,205.5,341.2z"/>
	<path class="st18" d="M5.3,524.3c0.2-3.2,0.4-6.4,0.7-10.1c3.2,0.9,6.2,1.7,10.1,2.8c-2.8,2.6-5.2,4.9-7.5,7.1l0.1,0
		c-0.4,0.3-0.7,0.7-1.1,1.1l0.1-0.1c-0.7,0-1.3,0-2,0C5.5,524.8,5.4,524.5,5.3,524.3z"/>
	<path class="st18" d="M123.5,595c0.1-6.9,0.2-13.7,0.3-20.6c0.9,0,1.8,0.1,2.7,0.1c0,5.9,0,11.9,0,17.8
		C125.5,593.2,124.5,594.1,123.5,595z"/>
	<path class="st23" d="M31.4,595.1c1.6,1.6,3.2,3.3,4.7,4.8c-0.5,1.8-1,3.5-1.4,5.2c-2.4-3-4.8-6-7.2-9
		C28.8,595.8,30.1,595.5,31.4,595.1z"/>
	<path class="st23" d="M98.7,643.9c7-1.5,14-3,20.9-4.5c0.2,0.4,0.4,0.8,0.6,1.3c-0.6,0.8-1.2,1.6-1.7,2.4
		c-5.7,0.7-11.5,1.4-17.2,2.1C100.4,644.8,99.6,644.3,98.7,643.9z"/>
	<path class="st19" d="M192.6,626.2c0-6,0-12,0.1-18.1c1,0.3,1.9,0.7,2.9,1c-0.3,5.3-0.6,10.6-0.9,15.9
		C193.9,625.4,193.3,625.8,192.6,626.2z"/>
	<path class="st22" d="M49.5,617.3c0.7-0.3,1.4-0.6,2.1-0.8c4.7-1.5,9.4-3.1,14.2-4.4c1.1-0.3,2.5,0.6,3.8,1
		c-5.4,2.1-10.9,4.2-16.3,6.2C52,618.6,50.7,618,49.5,617.3z"/>
	<path class="st9" d="M257.4,559.1c1.6,0.4,3.2,0.7,4.8,1.1c-0.2,4.7-2.6,8-6.5,11C256.3,566.9,256.8,563,257.4,559.1z"/>
	<path class="st24" d="M48.3,317.2c5.2-1.4,10.3-2.8,15.5-4.2c0.2,0.6,0.4,1.2,0.6,1.7c-5.9,1.9-11.8,3.7-17.8,5.5
		C47.2,319.3,47.8,318.2,48.3,317.2z"/>
	<path class="st23" d="M137.5,271.2c0,0.6,0,1.3,0,1.9c-4.4,1-8.8,1.9-13.2,2.8c-1.2-0.1-2.3-0.2-3.4-0.3c0.8-1.8,1.3-3.1,1.9-4.5
		c0.4,0,0.9,0,1.3,0c1.1,0.5,2.3,1.5,3.4,1.4c2.4-0.2,4.8-1,7.1-1.5C135.6,271.1,136.5,271.1,137.5,271.2z"/>
	<path class="st20" d="M25.3,558c2.1,7.4,6.4,2.3,9.9,1.8c0.2,0.2,0.4,0.4,0.6,0.6c-2.1,1.9-4.2,3.8-6.3,5.7c-0.7,0-1.4,0-2.1,0
		c-1.3-2.3-2.7-4.6-4-6.9C24,558.8,24.6,558.4,25.3,558z"/>
	<path class="st22" d="M69.5,615.2c2.1,1,2,2,0,3c-0.7,0.2-1.4,0.4-2.1,0.6c-0.3,0.4-0.7,0.8-1,1.3l0-0.1c-0.7,0-1.3,0-1.9-0.1
		c-1.6,0.7-3.3,1.3-4.9,2c-1.4-0.6-2.7-1.2-4.1-1.8C60.1,618.5,64.8,616.8,69.5,615.2z"/>
	<path class="st15" d="M124.1,271.1c-0.4,0-0.9,0-1.3,0c-0.4-0.8-0.8-1.5-1.2-2.3c0-0.8-0.1-1.6-0.1-2.4c3.4,0.9,6.8,1.8,10.2,2.6
		C129.1,269.8,126.6,270.5,124.1,271.1z"/>
	<path class="st18" d="M69.5,615.2c-4.7,1.7-9.4,3.4-14.1,5c-0.8-0.3-1.5-0.6-2.3-0.9c5.4-2.1,10.9-4.2,16.3-6.2
		C69.5,613.8,69.5,614.5,69.5,615.2z"/>
	<path class="st20" d="M35.2,559.8c1.8-1.5,3.7-3,6-5c-1.6-1.7-2.6-2.8-3.7-3.9c1-0.6,1.9-1.3,2.9-1.9c1.2,2.5,2.4,5.1,3.5,7.7
		c-0.3,0.4-0.6,0.7-0.9,1.1c-2.4,0.9-4.8,1.8-7.2,2.6C35.6,560.2,35.4,560,35.2,559.8z"/>
	<path class="st24" d="M52.4,311.1c3.5-0.8,7-1.6,10.5-2.4c-3,4.4-8,4.2-12.3,5.5c0.4-0.7,0.8-1.4,1.2-2.1c0.3-0.3,0.5-0.7,0.8-1
		C52.5,311.1,52.4,311.1,52.4,311.1z"/>
	<path class="st17" d="M101.3,645.2c5.7-0.7,11.5-1.4,17.2-2.1c0,0.3,0,0.7,0,1c-2.3,1-4.7,2-7,3c-0.7,0-1.3,0-2,0
		c-2-0.1-3.9-0.2-5.9-0.3C102.9,646.3,102.1,645.8,101.3,645.2z"/>
	<path class="st18" d="M67.4,618.8c0.7-0.2,1.4-0.4,2.1-0.6c3.8,1.1,2.6,3.7,1.8,6.2c-0.6-0.1-1.2-0.2-1.8-0.2
		c-0.1-0.4-0.3-0.9-0.4-1.3c-0.2,0.4-0.4,0.8-0.6,1.2c-1.1-0.6-2.1-1.2-3.2-1.8c0.3-0.7,0.7-1.5,1.1-2.2l0,0.1
		C66.8,619.6,67.1,619.2,67.4,618.8z"/>
	<path class="st9" d="M261.5,556.1c-1.5-0.3-3.1-0.7-4.7-1c0-1.3-0.1-2.7-0.1-4c0.9-0.6,1.8-1.2,3.2-2.1
		C260.5,551.7,261,553.9,261.5,556.1L261.5,556.1z"/>
	<path class="st17" d="M124.1,271.1c2.5-0.7,5.1-1.4,7.6-2c1,0.6,1.9,1.3,2.9,1.9c-2.4,0.5-4.7,1.3-7.1,1.5
		C126.4,272.6,125.2,271.6,124.1,271.1z"/>
	<path class="st18" d="M59.5,622c1.6-0.7,3.3-1.3,4.9-2c0,0.8,0.1,1.6,0.1,2.4C62.9,622.2,61.2,622.1,59.5,622z"/>
	<path class="st11" d="M103.7,646.9c2,0.1,3.9,0.2,5.9,0.3c-1.1,0.4-2.2,0.8-3.3,1.2C105.4,647.8,104.5,647.3,103.7,646.9z"/>
	<path class="st9" d="M64.6,622.3c0-0.8-0.1-1.6-0.1-2.4c0.7,0,1.3,0,1.9,0.1c-0.3,0.7-0.7,1.5-1.1,2.2
		C65.1,622.2,64.8,622.3,64.6,622.3z"/>
	<path class="st20" d="M5.6,525c0.7,0,1.3,0,2,0c-0.6,0.7-1.2,1.5-1.8,2.2C5.7,526.5,5.6,525.8,5.6,525z"/>
	<path class="st19" d="M120.8,266.5c-0.8,0.2-1.5,0.4-2.3,0.6c0-0.3,0-0.6,0-1C119.3,266.3,120,266.4,120.8,266.5z"/>
	<path class="st9" d="M68.5,624c0.2-0.4,0.4-0.8,0.6-1.2c0.1,0.4,0.3,0.9,0.4,1.3C69.2,624.1,68.9,624,68.5,624z"/>
	<path class="st12" d="M159.4,385.2c0.3,0.3,0.7,0.7,1,1C160.1,385.9,159.8,385.5,159.4,385.2z"/>
	<path class="st12" d="M161.4,387.2c0,0.4,0.1,0.7,0.1,1.1C161.5,387.9,161.5,387.5,161.4,387.2z"/>
	<path class="st12" d="M160.4,386.2c0.3,0.3,0.7,0.7,1,1C161.1,386.9,160.8,386.5,160.4,386.2z"/>
	<path class="st22" d="M71.4,624.6c0.4,0,0.7,0.1,1.1,0.1C72.2,624.7,71.8,624.6,71.4,624.6z"/>
	<path class="st18" d="M52.5,311.1c-0.3,0.3-0.5,0.7-0.8,1C52,311.8,52.3,311.4,52.5,311.1z"/>
	<path class="st13" d="M196.6,393.1c5.1-2.2,7.5-6.7,9.6-11.4c4.9-11.2,9.6-22.4,14.4-33.6c16.8,12.7,33.6,25.4,50.3,38.2
		c9.3,7.2,18.2,15,27.6,22.1c9.1,6.9,18.7,13.1,28.1,19.7c6.2,4.4,12.4,8.9,18.6,13.4c1.3,1,2.2,2.5,3.5,3.5
		c1.7,1.1,3.7,2.9,5.4,2.7c10.1-1,20.2-2.7,30.3-3.9c2.5-0.3,5.1,0.3,7.7,0.5c0,0.5-0.1,1-0.1,1.5c-5.1,1.4-10.2,2.9-15.3,4.3
		c0.1,0.6,0.1,1.2,0.2,1.9c1.8,0,3.5,0.2,5.3,0c5.5-0.7,11-1.4,16.5-2.3c3.7-0.6,4.8,1.4,5,4.5c0.4,4.8-1.2,8.9-5.9,10.5
		c-16.5,5.8-32.4,14.2-50.2,15.4c-5.2,0.4-11.3-0.8-15.8-3.3c-18.3-10.3-36.2-21.5-54.2-32.3c-0.4-0.3-0.7-0.6-1.1-1
		c1-3.4,2.8-6.8,2.9-10.2c0.1-4.7-0.6-9.6-1.9-14.2c-0.9-3.2-2.7-6.4-4.8-9c-6.4-7.7-14.9-10.9-24.8-12
		c-12.9-1.5-19.2,1.3-23.3,12.3C215.2,404.5,205.9,398.8,196.6,393.1z M381.9,456.3c0,0.6-0.1,1.2-0.1,1.8c1.3,0.3,2.6,1,3.7,0.8
		c4.5-0.8,9.1-1.7,13.5-2.8c0.9-0.2,1.5-1.2,2.3-1.9c-1-0.5-2.1-1.5-3.1-1.4C392.8,453.8,387.4,455.1,381.9,456.3z"/>
	<path class="st6" d="M224.5,410.1c4.1-11,10.4-13.8,23.3-12.3c9.9,1.1,18.4,4.3,24.8,12c2.1,2.6,4,5.8,4.8,9
		c1.2,4.6,2,9.5,1.9,14.2c-0.1,3.4-1.9,6.8-2.9,10.2c-7.3-4.5-14.6-8.9-21.8-13.5C244.6,423.3,234.6,416.7,224.5,410.1z"/>
	<path class="st13" d="M230.5,506.1c0.4,0.1,0.9,0.3,1.3,0.4c-0.1,0.1-0.2,0.3-0.3,0.4C231.2,506.6,230.9,506.4,230.5,506.1
		C230.5,506.1,230.5,506.1,230.5,506.1z"/>
	<path class="st13" d="M228.6,505c0.6,0.4,1.3,0.7,1.9,1.1l0,0c-0.7-0.3-1.4-0.6-2.1-0.9C228.4,505.2,228.6,505,228.6,505z"/>
	<path class="st6" d="M122.5,253.1c0.7,0.3,1.4,0.6,2.1,0.9C123.9,253.7,123.2,253.4,122.5,253.1z"/>
	<path class="st10" d="M208.6,200.2c0,0.5,0,1,0,1.5C208.6,201.2,208.6,200.7,208.6,200.2z"/>
	<path class="st0" d="M210.5,198.1c0.1-0.6,0.1-1.3,0.2-1.9c0.8,0.1,1.5,0.2,2.3,0.3c0,0.3,0.1,0.6,0.1,0.9
		C212.3,197.7,211.4,197.9,210.5,198.1z"/>
	<path class="st6" d="M16.9,138.6"/>
	<path class="st6" d="M177.2,200.2c8.2,0,13.3,3.2,15.5,9c1.4,3.8,0.4,6.3-2.5,8.7c-4.8,4-17.6,4-22.5,0c-3.4-2.8-5.5-6.4-4-10.5
		c1.5-4.4,5.5-6.4,10-7.2C174.9,200,176.1,200.2,177.2,200.2z"/>
	<path class="st25" d="M123.7,212.7c2.6,1.1,4.8,1.6,6.5,3c5.2,4.2,10.6,4.2,16.3,1.4c1.3-0.6,2.7-1.4,4.2-1.6
		c0.8-0.1,2,0.5,2.4,1.1c0.3,0.5-0.2,1.9-0.8,2.4c-8.5,6.4-21.6,4.6-28.2-3.8C123.8,214.8,123.9,214.2,123.7,212.7z"/>
	<path class="st5" d="M161.8,190.6c3.9-3.2,8.9-6.2,13.5-4.7c4.5,1.4,8,5.9,11.8,9.2c0.4,0.4-0.1,1.8-0.2,2.7c-1-0.2-2.2-0.2-3-0.7
		c-1-0.8-1.7-2-2.6-3c-3.6-4.3-7.7-5.8-13.1-3c-1.8,0.9-4,0.9-6.1,1.3C162.1,191.8,161.9,191.2,161.8,190.6z"/>
	<path class="st5" d="M96.7,184.5c0-1.8-0.3-3.1,0-3.3c4.6-2.1,9.2-5.6,13.8-5.4c3.6,0.1,7.2,4.6,10.6,7.3c0.3,0.2,0,1.5-0.3,2.1
		c-0.2,0.4-1.1,0.4-1.7,0.5c-0.3,0-0.7-0.2-0.9-0.4C111.9,176.2,104.6,180.4,96.7,184.5z"/>
	<path class="st6" d="M66.3,177c0.5-0.8,1.2-2.1,2-3.4c1.4,1,3.3,1.6,4.1,2.9c1.1,1.9,2.3,4.5,1.9,6.5c-0.3,1.9-2.2,4.3-4,4.9
		c-2.9,1-2.6-1.8-2.8-3.8C67.3,182,66.8,179.9,66.3,177z"/>
	<path class="st26" d="M171.9,163.4c2.6,0.2,5.1-0.3,6.9,0.5c4.4,2.1,6.7,6,7,11.3C181.6,171.6,177.4,168.1,171.9,163.4z"/>
	<path class="st26" d="M101.2,161.1c3.6-2.7,7.7-4.4,12.4-3.6c1.6,0.3,2.9,2,5,3.5c-6.8,0.6-12,1.1-17.2,1.6
		C101.3,162.1,101.3,161.6,101.2,161.1z"/>
	<path class="st22" d="M127.5,500.1c-0.3-1.4-0.9-2.8-0.9-4.2c0.2-10.6,0.2-21.3,1-31.9c0.3-4,2.6-7.9,4-11.8
		c0.7,0.1,1.4,0.2,2.1,0.3c0.9,4.2,2.6,8.5,2.7,12.7c0.3,12.8,0.1,25.6-0.1,38.5c0,1.5-1.2,2.9-1.9,4.4c0-2.5,0-5,0-7.9
		C131.7,500.1,129.6,500.1,127.5,500.1z M129.6,479.9c0,0-0.1,0-0.1,0c0,4.5-0.1,9,0.1,13.4c0,1,1.2,1.9,1.9,2.8
		c0.8-0.9,2.1-1.7,2.1-2.6c0.4-8.9,0.7-17.9,0.7-26.8c0-1.1-1.3-2.1-2.1-3.2c-0.9,1.1-2.4,2.2-2.5,3.4
		C129.4,471.3,129.6,475.6,129.6,479.9z"/>
	<path class="st22" d="M57.3,427c-3.8,0.5-4.5-0.7-2.7-4.1c6.6-12.2,12.9-24.5,19.5-36.7c3.1-5.8,3.7-5.9,9.4-2.8
		c5.7,3.1,11.3,6.5,16.9,9.8c-0.3,0.3-0.7,0.6-1,0.9c-0.8-0.1-1.7-0.1-2.4-0.5c-3.2-1.5-6.9-5-9.4-4.2c-2.7,0.8-4.1,5.5-6.1,8.6
		c-0.3-0.1-0.6,0-0.9,0c0-1.3,0-2.6-0.1-3.9c1.2-2.4,3-4.7,3.4-7.3c0.1-0.8-3.4-2.1-5.4-3.4c-1.5,2.6-2.6,4.6-3.7,6.6
		c-0.2,0.3-0.3,0.6-0.3,0.9c-1.7,3.3-3.4,6.6-5.1,10c-1,2-2,4-3.1,6c-1.9,3.7-3.9,7.3-5.9,11C58.3,420.7,55.4,423,57.3,427z"/>
	<path class="st20" d="M128,413.6c4.6,1.2,8.1,1.8,11.2,3.2c1.5,0.7,3,2.8,3.2,4.5c1.2,9.5-6,15.8-15.2,13.4c-1.9-0.5-3.8-1-5.7-1.8
		c-1-0.4-2.6-1.3-2.6-1.8c0.3-4.3,0.2-9,1.9-12.8C121.9,416,126,414.9,128,413.6z M137.5,424.6c0-3.5-4.7-6.1-11.5-6.4
		c-2.9-0.1-5.4,4-5.4,8.7c0,3.2,5.3,6.1,11.1,6.2C134.8,433.2,137.5,429.2,137.5,424.6z"/>
	<path class="st19" d="M121.5,268.8c0.4,0.8,0.8,1.5,1.2,2.3c-0.6,1.4-1.1,2.7-1.9,4.5c1.1,0.1,2.3,0.2,3.4,0.3
		c0.4,0.4,0.8,0.8,1.2,1.2c-1.2,0.6-2.4,1.2-3.7,1.8c0,0.5,0.1,0.9,0.1,1.4c3.5,0,7-0.1,10.5,0c2.6,0.1,6.1-0.7,6.1,3.7
		c0,4.6-3.5,2.9-5.8,3c-2.6,0.2-5.3-0.2-7.9,0.2c-1.2,0.2-2.1,1.7-3.2,2.6c-0.3,1.4-0.6,2.7-0.8,4.1c0.5-0.1,1.1-0.3,1.6-0.5
		c0.7,1.2,1.4,2.4,2.1,3.6c-4.4-1.5-3.7,2.1-4.3,5.3c-4.9-0.8-9.8-1.6-14.7-2.4c0-0.6,0-1.2,0-1.8c2.9-1.2,7.6,2.5,8.9-3.2
		c0.5,0,1.1,0,1.6,0c0.3,1.6,0.5,3.1,0.8,4.7c0.4,0,0.9,0.1,1.3,0.1c0.4-3.9,0.9-7.7,1.1-11.6c0.2-5.1,0-10.2,0.3-15.3
		C119.6,271.6,120.8,270.2,121.5,268.8z M121.5,284.6c4.8,0,9.7,0,14.5,0c0-0.5,0-0.9-0.1-1.4C131.1,283.8,126.2,280.7,121.5,284.6z
		"/>
	<path class="st9" d="M107.3,372c0.5,0.5,1,0.9,1.4,1.4c5.9,4.4,11.8,8.8,17.8,13.1c3.9,2.7,7.9,5.2,11.9,7.8
		c1.5,2.5,2.7,4.8-1.9,4.8c-5-3.7-9.9-7.6-15-11.1c-4.1-2.9-8.5-5.4-12.8-8c-3.6-3.1-7.1-6.2-10.7-9.3c0.4-0.5,0.8-0.9,1.2-1.4
		C101.9,370.1,104.6,371,107.3,372z"/>
	<path class="st20" d="M24,397.4c-0.1-0.4-0.3-0.8-0.4-1.2c2.8-6.7,5.6-13.4,8.4-20.1c1.5,0.7,3,1.4,4.5,2.1c-0.8,1-1.7,2.1-2.5,3.1
		c1-1,6.1,1,2.5-3.1c1.4,0.4,2.9,0.8,4.3,1.2c-2.7,7-5.3,14-8,21c-0.5-0.6-0.9-1.3-1.4-1.9c1.8-4.2,5.6-8.5-1.3-12.1
		c-1.1,3.3-2.3,7-3.5,10.7C25.8,397.1,24.9,397.2,24,397.4z"/>
	<path class="st27" d="M24,397.4c0.9-0.1,1.7-0.3,2.6-0.4c1.6,0.5,3.2,1,4.8,1.5c0.5,0.6,0.9,1.3,1.4,1.9
		c-2.1,5.6-4.3,11.3-6.4,16.9c-1.6-0.5-3.1-0.9-4.7-1.4c-0.2-2.7-0.5-5.3-0.7-8C22,404.4,23,400.9,24,397.4z"/>
	<path class="st21" d="M36.5,378.1c-1.5-0.7-3-1.4-4.5-2.1c2.3-4.8,4.4-9.8,7-14.4c0.6-1,3.2-1.3,4.7-1.1c0.8,0.1,1.8,2.5,1.6,3.5
		c-1.3,5.1-3,10.2-4.5,15.2C39.4,379,38,378.5,36.5,378.1C36.5,378.1,36.5,378.1,36.5,378.1z M39.4,373.5c1-0.4,2.1-0.8,3.1-1.3
		c-0.6-1.9-1.1-3.9-1.7-5.8c-1.3,0.8-3.8,1.7-3.8,2.4C37.2,370.4,38.5,371.9,39.4,373.5z"/>
	<path class="st24" d="M114.6,339c-8.4,1.6-16.8,3.2-25.1,4.8c0-2.1,0-4.2,0-6.5c0.9-0.1,2-0.1,3.1-0.2c1.8,0.2,3.8,0.9,5.5,0.6
		c5.2-0.7,10.3-1.8,15.4-2.8C113.8,336.3,114.2,337.7,114.6,339z"/>
	<path class="st21" d="M180.5,323.3c1.3,0.3,2.6,0.6,3.9,0.9c-1.4,1.9-2.7,3.9-3.7,5.4c-7.3-0.9-13.7-1.7-20.1-2.5
		c0-1.1,0-2.2,0.1-3.2c5.1-0.1,10.1-0.2,15.2-0.4C177.3,323.5,178.9,323.4,180.5,323.3z"/>
	<path class="st11" d="M77,476c2.6,1.6,5.4,3,7.7,5c5.8,5.1,11.4,10.5,16.8,16c0.9,1,1.4,3.8,0.7,4.8c-2.1,2.8-4.9,5-7.5,7.5
		c-0.8,0-1.5-0.1-2.3-0.1c2.6-3.2,5.2-6.3,8.2-10c-8.1-7.4-16.1-14.7-24.1-22.1C76.7,476.6,76.8,476.3,77,476z"/>
	<path class="st22" d="M124.5,297.1c-0.7-1.2-1.4-2.4-2.1-3.6c-0.5,0.1-1.1,0.3-1.6,0.5c0.3-1.4,0.6-2.7,0.8-4.1
		c5,1.3,10,2.3,14.8,3.9c1.3,0.4,1.8,2.9,2.7,4.4c-1.5,0.4-3.2,1.4-4.6,1.2C131.1,299,127.8,298,124.5,297.1z"/>
	<path class="st17" d="M106.6,410.1c-1.7,4.4-3.2,8.9-5.2,13c-3.1,6.2-6.7,12-9.8,18.2c-1.6,3.2-3.4,3.6-6.2,1.8
		c0-0.7,0.1-1.3,0.1-2c1.7-1.2,4.1-2,5-3.6c4.9-8.4,9.4-17,14-25.6C105.2,411.4,105.9,410.8,106.6,410.1z"/>
	<path class="st11" d="M85.5,441.2c0,0.7-0.1,1.3-0.1,2c-8.6-5-17.2-10.1-25.8-15.1c1.8-1.4,3.6-2.8,5.2-4.4
		c0.1-0.1-1.3-1.7-1.8-2.4c0.5-0.2,1.5-0.6,2.5-1c0.7-0.4,1.3-0.7,1.9-1.1c0.4,1,0.9,2,1.3,3c-1.1,2.2-2.1,4.4-3.2,6.6
		c0.9,0.6,1.4,1.1,1.9,1.4C73.5,433.9,79.5,437.5,85.5,441.2z"/>
	<path class="st21" d="M82.4,522.8c-1.3-0.1-3,0.3-3.7-0.4c-8.4-7.8-16.7-15.7-24.9-23.7c-0.5-0.5-0.3-1.8-0.4-2.7
		c0.8,0,1.6,0.1,2.4,0.1c0.1,0.5,0,1.1,0.3,1.4c7.8,7.5,15.7,15,23.6,22.5c0.5,0.5,1.8,0.3,2.7,0.4C82.3,521.2,82.3,522,82.4,522.8z
		"/>
	<path class="st24" d="M106.6,410.1c-0.7,0.7-1.4,1.3-2.1,2c-3.2-1.9-6.4-3.8-9.7-5.6c1.6-4.1,3.1-8.2,4.6-12.3
		c0.3-0.3,0.7-0.6,1-0.9c1,0.7,2.6,1.3,2.8,2.2C104.6,400.3,105.5,405.2,106.6,410.1z M103.5,407.1c0.1,0.2,0.2,0.3,0.3,0.5
		c0-0.1,0-0.2,0-0.3C103.8,407.2,103.6,407.2,103.5,407.1c-0.6-2.3-1.1-4.5-1.7-6.8c-0.5,0-1.1-0.1-1.6-0.1c-0.6,1.6-2,3.8-1.4,4.8
		C99.5,406.2,101.9,406.5,103.5,407.1z"/>
	<path class="st21" d="M92.5,337.1c-1.1,0.1-2.2,0.1-3.1,0.2c0,2.4,0,4.5,0,6.5c-3.3,0.2-6.5,0.5-9.8,0.7c0.6-1.8,1.3-3.5,1.9-5.3
		c-0.4-3.4,0.6-5.4,4.5-5.2c0.9,0,1.8-1.4,2.7-2.1c0.9-0.1,1.9-0.2,2.8-0.3c0,0.5,0,1,0,1.5c0.7,0.4,1.3,0.7,2,1.1
		c0.1,0.4,0.1,0.8,0.2,1.2C93.3,336,92.9,336.6,92.5,337.1z"/>
	<path class="st19" d="M114.6,339c-0.4-1.4-0.8-2.7-1.2-4.1c-0.6-0.7-1.2-1.3-1.9-2c0-0.6,0-1.2,0-1.8c0.3,0,0.6-0.1,0.9-0.1
		c0.5-0.4,1.1-0.8,1.6-1.2c-0.5-0.3-1-0.5-1.5-0.8c-0.7,0-1.4,0.1-2,0.1c0-0.4,0-0.7,0-1.1c5.2,0.8,10.5,1.6,15.7,2.4
		c0.2,0.8,0.3,1.7,0.4,2.5C122.6,335.1,118.6,337.1,114.6,339z"/>
	<path class="st24" d="M138.4,394.2c-3.9-2.6-8-5-11.8-7.8c-6-4.3-11.9-8.7-17.8-13.1c1.6,0.2,3.6-0.2,4.7,0.6
		c8.8,6.2,17.5,12.6,26.2,19C139.3,393.4,138.8,393.8,138.4,394.2z"/>
	<path class="st17" d="M55.7,496.1c-0.8,0-1.6-0.1-2.4-0.1c0.3-0.6,0.5-1.5,0.9-1.7c6.7-2.6,9.9-8.6,14-13.9c0.8-1,2.9-1.1,4.8-1.8
		c0.4-1.5,1-3.4,2-6.6c1.1,2.1,1.5,3,2,3.9c-0.2,0.3-0.3,0.7-0.5,1c-0.5,1.5-1,3-1.4,4.3c-1.9,0.8-3.9,1.3-5.3,2.4
		C65.1,487.9,62.7,494.5,55.7,496.1z"/>
	<path class="st28" d="M21,407.9c0.2,2.7,0.5,5.3,0.7,8c-4,0.2-4.7,3.4-5,6.2c-0.3,3.1-2,7,2.5,8.9c-1.6,1.5-3.2,3.1-4.8,4.6
		c-0.7-0.4-1.5-0.8-2.2-1.2c1.8-7.6,3.6-15.3,5.4-22.9C18.8,410.3,19.9,409,21,407.9z"/>
	<path class="st16" d="M19.3,431c-4.6-1.9-2.8-5.8-2.5-8.9c0.2-2.8,1-6.1,5-6.2c1.6,0.5,3.1,0.9,4.7,1.4
		C24.1,421.8,21.7,426.4,19.3,431z"/>
	<path class="st24" d="M108.7,379.9c4.3,2.7,8.7,5.2,12.8,8c5.1,3.5,10,7.4,15,11.1c0,0.4-0.1,0.8-0.1,1.2
		c-5.8-3.4-11.6-6.6-17.2-10.2c-4.1-2.7-7.9-5.9-11.8-8.9C107.8,380.8,108.3,380.3,108.7,379.9z"/>
	<path class="st19" d="M33.2,454.7c0.1-0.5,0.2-1,0.3-1.5c4.1,1.3,5.2,3.4,4.3,8.1c-1.4,7.5-1.1,15.3-1.5,22.9c-0.6,0-1.2,0-1.8,0
		c0.1-8.5,0.3-17.1,0.3-25.6C34.8,457.2,33.8,455.9,33.2,454.7z"/>
	<path class="st17" d="M108.7,379.9c-0.4,0.4-0.8,0.9-1.3,1.3c-3.6-3.2-7.3-6.2-10.6-9.6c-1.1-1.2-1.2-3.3-1.8-5.1
		c1.6,0.1,3.4-0.4,4.7,0.3c2.7,1.4,5.1,3.4,7.6,5.2c-2.7-0.9-5.4-1.9-8.1-2.8c-0.4,0.5-0.8,0.9-1.2,1.4
		C101.6,373.7,105.1,376.8,108.7,379.9z"/>
	<path class="st18" d="M65.6,420.3c-1,0.4-2,0.8-2.5,1c0.5,0.7,1.9,2.3,1.8,2.4c-1.6,1.6-3.4,3-5.2,4.4c-0.8-0.4-1.6-0.7-2.3-1.1
		c-1.9-4,1-6.3,3.2-8.9C62.2,418.9,63.9,419.6,65.6,420.3z"/>
	<path class="st20" d="M151.4,356.2c-5.9-4.2-0.1-6.7,2.3-10.2c1,2.2,2.1,4.5,3.1,6.7c-0.1,0.5-0.2,1-0.4,1.6
		c-1.1,0.6-2.1,1.2-3.2,1.9C152.7,356.1,152,356.2,151.4,356.2z"/>
	<path class="st27" d="M127.5,500.1c2.1,0,4.2,0,6.9,0c0,2.9,0,5.4,0,7.9C127.2,508.6,126.8,508.3,127.5,500.1z"/>
	<path class="st17" d="M111.5,331.2c0,0.6,0,1.2,0,1.8c-6,0.8-11.9,1.6-17.9,2.5c-0.1-0.4-0.1-0.8-0.2-1.2c2.6-0.5,5.2-1.1,9.2-1.9
		c-2-0.7-2.6-0.9-3.1-1.1c0-0.4,0-0.8,0-1.1c3.7-0.6,7.3-1.3,11-1.9c0,0.4,0,0.7,0,1.1c-2.1,0.7-4.2,1.4-6.3,2.1
		c0.1,0.3,0.1,0.6,0.2,0.9C106.8,331.9,109.2,331.5,111.5,331.2z"/>
	<path class="st24" d="M82.4,522.8c0-0.8,0-1.6,0-2.3c3.4-3.8,6.7-7.6,10.1-11.4c0.8,0,1.5,0.1,2.3,0.1
		C90.6,513.7,86.5,518.3,82.4,522.8z"/>
	<path class="st20" d="M81.5,339.3c-0.6,1.8-1.3,3.5-1.9,5.3c-4.3,0-3.6-3.5-4-5.9c-0.4-2.5,0.3-4.7,3.5-4.7
		C79.9,335.7,80.7,337.5,81.5,339.3z"/>
	<path class="st21" d="M136.4,400.3c0-0.4,0.1-0.8,0.1-1.2c4.6,0,3.4-2.4,1.9-4.8c0.4-0.4,0.8-0.9,1.2-1.3c2.3,2,4.6,4,6.9,6
		c-0.1,0.6-0.1,1.1-0.2,1.7c-2.6-1.5-5.1-2.7-4.4,2.3c-0.8,0-1.6,0.1-2.5,0.2C138.4,402.2,137.4,401.2,136.4,400.3z"/>
	<path class="st22" d="M211.5,329.1c-1.1,1.6-2,3.6-3.4,4.9c-1.6,1.4-3.7,2.3-5.6,3.4c-2.1-2.5-0.2-3.5,1.6-4.5
		C206.6,331.6,209.1,330.4,211.5,329.1z"/>
	<path class="st22" d="M125.5,277.2c-0.4-0.4-0.8-0.8-1.2-1.2c4.4-1,8.8-1.9,13.2-2.8C133.5,274.5,129.5,275.8,125.5,277.2z"/>
	<path class="st27" d="M81.5,339.3c-0.8-1.8-1.6-3.6-2.4-5.4c1.8-0.6,3.5-1.3,5.3-1.9c0.8-0.1,1.6-0.2,2.4-0.3
		c0.6,0.1,1.3,0.1,1.9,0.2c-0.9,0.7-1.8,2.1-2.7,2.1C82.1,333.9,81.1,335.9,81.5,339.3z"/>
	<path class="st22" d="M156.5,354.2c0.1-0.5,0.2-1,0.4-1.6c3.3,1.1,6.5,2.3,9.8,3.4c-1.1,0-2.2,0.1-3.3,0.1
		C161,355.5,158.8,354.9,156.5,354.2z"/>
	<path class="st22" d="M151.4,356.2c0.6,0,1.3-0.1,1.9-0.1c-0.2,3-0.4,5.9-0.6,8.9c-0.8,0-1.6,0.1-2.3,0.1
		C150.7,362.1,151.1,359.2,151.4,356.2z"/>
	<path class="st24" d="M105.6,298.4c0,0.6,0,1.2,0,1.8c-2.3,0-4.7,0.1-7,0.1c0-0.6,0-1.3,0-1.9C100.8,298.3,103.2,298.4,105.6,298.4
		z"/>
	<path class="st17" d="M91.5,333.1c0-0.5,0-1,0-1.5c1.7-0.5,3.3-1,5-1.5c0,0.3,0,0.6,0.1,0.9c0,0.3,0,0.7,0,1
		C94.8,332.5,93.2,332.8,91.5,333.1z"/>
	<path class="st22" d="M96.5,332.1c0-0.3,0-0.7,0-1c0.3-0.3,0.6-0.6,1-1c0.7,0,1.3,0,2-0.1c0,0.4,0,0.8,0,1.1
		C98.5,331.5,97.5,331.8,96.5,332.1z"/>
	<path class="st22" d="M86.8,331.7c-0.8,0.1-1.6,0.2-2.4,0.3C85.2,331.9,86,331.8,86.8,331.7z"/>
	<path class="st11" d="M97.5,330.1c-0.3,0.3-0.7,0.6-1,1c0-0.3,0-0.6-0.1-0.9C96.8,330.2,97.2,330.2,97.5,330.1z"/>
	<path class="st14" d="M156.6,533c-0.4,0.4-0.7,0.8-1.1,1.1c-2.4,2.7-4.9,5.4-7,7.7c-2.1,0-4.3,0-6.5,0c-3.5,0.1-7,0.7-10.4,0.3
		c-5.1-0.6-8.3-6-6.2-10.7c1.5-3.3,4-6.2,6-9.3c6-1,12-2,18-3.1c9.3,2.9,9.7,3.7,7.2,12.5C156.6,532,156.6,532.5,156.6,533z"/>
	<path class="st20" d="M85.7,556c-1.3,3-2.7,7.1-4.9,10.7c-0.8,1.3-4.1,2.2-5.5,1.6c-3.8-1.6-7.6-3.7-10.4-6.5
		c-1.3-1.3-0.8-4.9-0.6-7.4c0.1-1.4,1.1-2.7,1.7-4.1c1.5-3.4,2.1-7.7,7.6-6.4C81.6,545.9,84.7,548.8,85.7,556z M74.3,563.1
		c3,0.3,6.7-5.1,7.2-10.4c0.3-3-3.3-5.9-8.1-6.5c-2.7-0.3-6.3,4.9-6.9,10C66,560.1,68.9,562.6,74.3,563.1z"/>
	<path class="st17" d="M131.5,522.1c-2.1,3.1-4.6,6-6,9.3c-2.1,4.7,1,10.1,6.2,10.7c3.4,0.4,6.9-0.2,10.4-0.3c2.2-0.1,4.4,0,6.5,0
		c2.1-2.3,4.5-5,7-7.7c-1.7,4.3-3.3,8.5-5,12.8c-0.3,0.8-1.4,2-1.7,1.9c-0.9-0.3-2-1-2.3-1.9c-0.9-3.1-2.8-2.7-5.4-2.4
		c-3.7,0.5-7.6,0.6-11.2-0.2c-4.3-0.9-7.1-4-7.4-8.8c-0.4-6.3,2.5-10.7,7.9-13.6C130.7,522,131.1,522.1,131.5,522.1z"/>
	<path class="st20" d="M189.9,525c3.7-0.8,6.6,0.4,8.9,3.4c-2.1,4.9-4.2,9.9-6.4,14.8c-1-2.8-2.1-5.5-3.1-8.3c-0.4,0-0.7,0-1.1,0
		c-1.2,3.7-2.4,7.4-3.7,11.1c-0.9,0.1-1.8,0.2-2.7,0.3c-0.1-0.3-0.3-0.7-0.4-1C184.4,538.4,187.1,531.7,189.9,525z"/>
	<path class="st27" d="M182,546.2c0.9-0.1,1.8-0.2,2.6-0.3c1.9,0.4,3.9,0.8,5.9,1.2c-2,6.4-4,12.8-6.1,19.1
		c-1.6-0.5-3.1-0.9-4.7-1.4c-0.3-2.7-0.5-5.3-0.8-8C180,553.3,181,549.8,182,546.2z"/>
	<path class="st22" d="M195.5,609.1c-1-0.3-1.9-0.7-2.9-1c1.1-3.2-1.1-4.5-3.5-4.6c-6.1-0.4-12.3-0.5-18.4-0.3
		c-1.2,0-3.1,2.1-3.3,3.4c-0.6,4.2-0.7,8.6-0.9,12.8c-0.3-0.1-0.6-0.1-0.9-0.2c-0.4-0.4-0.8-0.8-1.2-1.2c0-3.7-0.1-7.3,0.1-11
		c0.2-4,2.6-6.9,6.5-6.8c6.9,0.1,13.9,0.8,20.7,1.8C195.3,602.7,197.9,604.8,195.5,609.1z"/>
	<path class="st28" d="M179,556.8c0.3,2.7,0.5,5.3,0.8,8c-4,0.2-4.9,3.5-4.9,6.2c0,2.6-2.6,6.3,1.8,8c-1.3,1.6-2.6,3.2-3.9,4.8
		c-0.4-1.4-1-2.9-1-4.3c-0.3-7.5,1.5-14.6,5.1-21.3C177.5,557.8,178.2,557.3,179,556.8z"/>
	<path class="st16" d="M176.6,579c-4.4-1.8-1.8-5.4-1.8-8c0-2.8,0.9-6,4.9-6.2c1.6,0.5,3.1,0.9,4.7,1.4
		C181.8,570.5,179.2,574.8,176.6,579z"/>
	<path class="st15" d="M179,556.8c-0.7,0.5-1.5,0.9-2.2,1.4c-0.4-5.1-0.8-10.2-1-15.4c0-0.5,1.2-1.5,2-1.6c0.8-0.1,1.9,0.3,2.5,0.9
		c0.7,0.8,1,2,1.4,3c0.1,0.3,0.3,0.7,0.4,1C181,549.8,180,553.3,179,556.8z"/>
	<path class="st22" d="M27.5,566.2c0.7,0,1.4,0,2.1,0c1.1,0.3,2.5,1.1,3.1,0.7c3.5-2,6.8-4.3,10.1-6.7c0.4-0.3,0.2-1.5,0.2-2.3
		c0.3-0.4,0.6-0.7,0.9-1.1c2.6,1.3,3.7,3.3,1,5.3c-4.7,3.3-9.6,6.1-15,9.4C29,569.3,28.2,567.7,27.5,566.2z"/>
	<path class="st16" d="M190.5,547.1c-1.9-0.4-3.9-0.8-5.9-1.2c1.2-3.7,2.4-7.4,3.7-11.1c0.4,0,0.7,0,1.1,0c1,2.8,2.1,5.5,3.1,8.3
		C191.8,544.5,191.1,545.8,190.5,547.1z"/>
	<path class="st22" d="M156.6,533c0-0.5-0.1-1,0.1-1.5c2.5-8.8,2.1-9.6-7.2-12.5c-0.3-0.6-0.7-1.3-1-1.9c10.1,0,14.7,5.6,11.1,13.6
		C159.2,531.8,157.7,532.3,156.6,533z"/>
	<path class="st18" d="M223.6,569.3c-1,0.4-2.1,0.8-2.6,1c0.5,0.7,1.9,2.3,1.8,2.4c-1.6,1.6-3.4,3-5.2,4.4c-0.8-0.4-1.6-0.7-2.4-1.1
		c-1.9-4,1.1-6.3,3.2-8.9C220.1,567.8,221.9,568.5,223.6,569.3z"/>
	<path class="st11" d="M148.5,517.1c0.3,0.6,0.7,1.3,1,1.9c-6,1-12,2-18,3.1c-0.4-0.1-0.8-0.1-1.2-0.2c2.4-1.3,4.6-3,7.1-3.6
		C141,517.5,144.8,517.5,148.5,517.1z"/>
	<path class="st17" d="M93.2,589.2c1.2,0.4,2.4,0.8,3.6,1.3c-0.3,0.6-0.6,1.2-0.8,1.8c-0.9-0.9-1.9-1.7-2.8-2.6
		C93.2,589.7,93.2,589.2,93.2,589.2z"/>
	<path class="st21" d="M47.5,588.8c0,0.5,0.1,0.9,0.1,1.4c-0.7,0-1.4-0.1-2.1-0.1C46.2,589.7,46.8,589.3,47.5,588.8z"/>
	<path class="st19" d="M164.5,618.1c0.4,0.4,0.8,0.8,1.2,1.2C165.3,618.9,164.9,618.5,164.5,618.1z"/>
	<path class="st9" d="M238.7,547c0.3-0.1,0.5-0.1,0.8,0c0.9,0.4,1.7,0.8,2.6,1c1.1,0.3,2.4,0.1,3.3,0.6c0.5,0.3,0.7,2,0.3,2.5
		c-0.6,0.8-1.8,1.3-2.8,1.6c-2.7,0.6-5.5,0.9-8.3,1.4c-0.4,0-0.7-0.1-1.1-0.1C235.2,551.7,237,549.3,238.7,547z"/>
	<path class="st22" d="M233.5,554c0.4,0,0.7,0.1,1.1,0.1c-2.4,4.7-4.8,9.3-7.3,14c-0.2,0-0.4,0-0.6,0.1c1.2-3.1,2.7-6.2,3.6-9.5
		c0.4-1.3-0.5-3-0.8-4.4l0,0c1,0,2-0.1,2.9-0.1C232.8,554,233.2,554,233.5,554z"/>
	<path class="st22" d="M169.6,312.2c1.8,0,3.7,0.1,5.5,0c2.6-0.2,3.5,1,3.5,3.5c0,2.6-1.1,3.5-3.7,3.4c-3.8-0.2-7.7,0.1-11.5-0.4
		c-1.3-0.2-2.4-2.1-3.5-3.2c1.2-1.2,2.2-3,3.7-3.4c1.8-0.6,3.9-0.1,5.9-0.1C169.6,312.1,169.6,312.1,169.6,312.2z M175,315.9
		c0-0.4,0-0.7,0-1c-4,0-8,0-11.9,0c0,0.4,0,0.7,0,1C167.1,315.9,171.1,315.9,175,315.9z"/>
	<path class="st22" d="M188.6,628.2c-4.8-0.1-9.6,0.1-14.4-0.4c-1.5-0.2-3.7-2-4-3.5c-0.5-2.6,1.4-3.6,4.1-3.4
		c2.5,0.2,4.9,0.1,7.4,0.2C188.6,621.2,188.6,621.2,188.6,628.2C188.6,628.2,188.6,628.2,188.6,628.2z M185.3,626
		c0-0.8,0.1-1.5,0.1-2.3c-4.1,0-8.2,0-12.3,0c0,0.4,0,0.9-0.1,1.3C177.1,625.4,181.2,625.7,185.3,626z"/>
	<path class="st22" d="M167.4,632.9c-0.3,0.6-0.7,1.2-1,1.8c-0.1-0.5-0.1-1-0.1-1.5C166.6,633.1,167,633,167.4,632.9z"/>
	<path class="st9" d="M261.5,556.1c0.1,0.1,0.2,0.2,0.4,0.2C261.7,556.3,261.6,556.2,261.5,556.1L261.5,556.1z"/>
	<path class="st18" d="M152.7,365c0.2-3,0.4-5.9,0.6-8.9c1.1-0.6,2.1-1.2,3.2-1.9c2.3,0.7,4.6,1.3,6.8,2c-1.4,1.8-2.7,3.7-4.1,5.4
		c-0.9,1-1.9,1.9-2.9,2.9c-0.1,0.2-0.3,0.4-0.5,0.4C154.8,365,153.8,365,152.7,365z"/>
	<path class="st20" d="M7.5,525.1c0.3-0.3,0.7-0.7,1.1-1.1C8.2,524.4,7.8,524.8,7.5,525.1z"/>
	<path class="st24" d="M64.5,601.1c-5,1.6-9.9,3.3-14.9,4.8c-1.4,0.4-3,0.2-4.5,0.2c6.2-2.3,12.5-4.7,18.7-7
		C64,599.8,64.3,600.4,64.5,601.1z"/>
	<path class="st22" d="M42.5,597.1c6.4-2.3,12.8-4.7,19.3-7c0.3,0.7,0.5,1.4,0.8,2c-4.7,1.7-9.3,3.4-14,5.1c-1,0.3-2.1,0.7-3.1,1
		c-1,0-2,0-3.1,0.1C42.5,597.9,42.5,597.5,42.5,597.1z"/>
	<path class="st24" d="M49.5,598.9c4.2-1.3,8.5-2.7,12.7-4c0.2,0.6,0.4,1.3,0.6,1.9c-6.1,2.2-12.2,4.3-18.3,6.5
		c-0.3-0.3-0.5-0.7-0.8-1c0.6-0.7,1.1-1.5,1.7-2.2C46.8,599.7,48.2,599.3,49.5,598.9z"/>
	<path class="st24" d="M51.5,615.1c-0.9-0.2-1.8-0.3-2.7-0.5c-0.1-0.3-0.1-0.6-0.2-0.9c5-2,10-4.1,15-6.2c1.2,0,2.4,0,3.6,0
		c0.1,0.4,0.2,0.9,0.4,1.3C62.2,610.9,56.9,613,51.5,615.1z"/>
	<path class="st24" d="M63.5,606.2c-5.4,1.6-10.8,3.3-16.2,4.9c-0.2-0.6-0.4-1.2-0.7-1.9c6.3-2.1,12.6-4.2,18.9-6.2
		C64.9,604.1,64.2,605.1,63.5,606.2z"/>
	<path class="st11" d="M42.1,608.1c-0.8-1-1.7-2-2.5-3.1c1.3,0.4,2.7,0.7,4,1.1C43.1,606.8,42.6,607.4,42.1,608.1z"/>
	<path class="st23" d="M49.5,598.9c-1.3,0.4-2.7,0.8-4,1.2c0-0.6,0-1.2,0-1.8c1-0.3,2.1-0.7,3.1-1C48.9,597.8,49.2,598.3,49.5,598.9
		z"/>
	<path class="st23" d="M42.5,597.1c0,0.4,0,0.8-0.1,1.2c-1,0.7-2.1,1.3-3.1,2c0.2-1.1,0.3-2.2,0.5-3.3
		C40.7,597.1,41.6,597.1,42.5,597.1z"/>
	<path class="st23" d="M143.5,580.1c-4.9,0.9-9.7,1.8-15.4,2.8C132.4,578.5,141.1,577.2,143.5,580.1L143.5,580.1z"/>
	<path class="st24" d="M110.7,598.2c-1.3-0.1-2.6-0.3-4.6-0.4c0.8-1.5,1.3-2.7,1.9-3.7c3.9-5.4,2.8-8.6-3.7-11c-1.2-0.5-2-1.9-3-2.9
		c1.4-3.4,2.9-4.3,5.3-0.5c1.2,1.9,2.9,3.6,4.6,5c3.4,2.7,3.9,5.3,0.7,8.6C110.9,594.2,111.1,596.5,110.7,598.2z"/>
	<path class="st11" d="M118.6,638.2c-6.6,1-13.2,2.1-19.7,3.1c-0.1-0.4-0.2-0.8-0.2-1.3c6.5-1.1,13-2.2,19.5-3.3
		C118.3,637.2,118.5,637.7,118.6,638.2z"/>
	<path class="st11" d="M111.6,647.1c2.3-1,4.7-2,7-3c0.3,0.1,0.6,0.2,0.9,0.2c-0.2,0.3-0.3,0.8-0.5,0.8
		C116.5,645.8,114,646.5,111.6,647.1z"/>
	<path class="st14" d="M105.6,298.4c-2.4,0-4.7,0-7.1-0.1c-1.8,0-3.6,0-5.8,0c0-9.3-0.1-18.2,0.2-27c0-0.8,2.3-2.2,3.6-2.2
		c4.8-0.2,9.6,0.1,14.4,0c2.9-0.1,3.7,1.1,3.7,3.8c-0.1,7.4-0.1,14.9-0.1,22.3C113.2,300.9,108.5,297.1,105.6,298.4z M109.8,296.3
		c0.3-0.6,0.7-1.2,1.1-1.8c-1.7-1.1-3.3-2.2-5-3.2c-2-1.1-3.6-2.7-1.3-4.6c4.9-4,2.6-6.9-1-10c-1.4-1.2-2.3-2.9-3.7-4
		c-1-0.8-2.4-1.3-3.7-1.4c-0.4,0-1.7,1.6-1.5,2c0.6,1.1,1.5,2.3,2.6,2.7c5.8,2.6,6.8,5.8,3.6,11.3c-0.6,1-1.1,3.2-0.7,3.4
		C103.2,292.8,106.5,294.5,109.8,296.3z"/>
	<path class="st9" d="M229.6,554.3c0.3,1.5,1.1,3.1,0.8,4.4c-0.9,3.2-2.3,6.3-3.6,9.5c-1.1,0.4-2.1,0.8-3.2,1.1
		c-1.7-0.7-3.4-1.5-5.1-2.2c3.3-6.1,6.6-12.2,9.9-18.4C228.7,550.6,229.2,552.4,229.6,554.3z"/>
	<path class="st14" d="M229.6,554.3c-0.4-1.8-0.9-3.7-1.3-5.5c1.4-2.9,2.8-5.8,4.1-8.6c1,0.3,2,0.7,3.1,1c0.7,0.3,1.3,0.7,2,1
		c0.4,0.4,0.8,0.8,1.1,1.1c0,1.3,0.1,2.5,0.1,3.8c-1.7,2.3-3.5,4.6-5.2,6.9c-0.3,0-0.7,0.1-1,0.1c-0.6-0.9-1.2-1.7-1.8-2.6
		C230.4,552.4,230,553.3,229.6,554.3C229.6,554.2,229.6,554.3,229.6,554.3z"/>
	<path class="st23" d="M238.6,543.2c-0.4-0.4-0.8-0.8-1.1-1.1c-0.4-1-0.8-2-1.1-3c-1.2,0-2.4,0.1-3.5,0.1c1.1-2,2.2-4,3.7-6.6
		c2.1,1.2,5.6,2.6,5.5,3.4C241.6,538.5,239.8,540.8,238.6,543.2z"/>
	<path class="st9" d="M232.8,539.2c1.2,0,2.4-0.1,3.5-0.1c-0.3,0.7-0.6,1.3-0.8,2c-1-0.3-2-0.7-3.1-1
		C232.4,539.8,232.6,539.4,232.8,539.2z"/>
	<path class="st14" d="M33.2,454.7c0.5,1.3,1.6,2.5,1.6,3.8c0,8.5-0.2,17.1-0.3,25.6c-2.3-0.3-4.6-0.8-7-0.9c-6-0.1-12-0.1-18-0.1
		c-0.6-0.4-1.2-0.8-1.8-1.2c0.2-3.2,0.4-6.5,0.6-9.7c0.1-4,0.3-7.9,0.4-11.9c0.1-4.3,1.8-6.7,6.7-6.3
		C21.3,454.5,27.3,454.5,33.2,454.7z M21.7,472.2c0-0.1,0-0.1,0-0.2c-1.8,0-3.7,0.2-5.5,0c-2.9-0.4-4.4,1.1-4,3.5
		c0.2,1.3,2.3,3.1,3.8,3.3c3.6,0.5,7.3,0.2,11,0.3c2.5,0.1,3.7-0.8,3.7-3.4c0-2.5-0.8-3.8-3.5-3.6C25.4,472.3,23.5,472.2,21.7,472.2
		z"/>
	<path class="st22" d="M7.7,481.9c0.6,0.4,1.2,0.8,1.8,1.2c-0.4,0.5-0.9,1-1.4,1.5C8,483.7,7.9,482.8,7.7,481.9z"/>
	<path class="st16" d="M193,519.7c2.2-2.6,3.3-4.3,4.8-5.3c0.4-0.3,2.8,1.3,3.2,2.3c0.4,1.1-0.5,3.6-1.2,3.8
		C198.2,520.9,196.3,520.2,193,519.7z"/>
	<path class="st23" d="M141.9,403c-0.7-5,1.8-3.7,4.4-2.3c1.1,1.3,2.3,2.7,3.5,4c-0.3,0.4-0.5,0.8-0.8,1.2
		C146.7,404.9,144.3,404,141.9,403z"/>
	<path class="st18" d="M43,557.8c0,0.8,0.2,2-0.2,2.3c-3.3,2.4-6.7,4.7-10.1,6.7c-0.7,0.4-2.1-0.4-3.1-0.7c2.1-1.9,4.2-3.8,6.3-5.7
		C38.2,559.6,40.6,558.7,43,557.8z"/>
	<path class="st9" d="M67.4,618.8c-0.3,0.4-0.7,0.8-1,1.3C66.8,619.6,67.1,619.2,67.4,618.8z"/>
	<path class="st3" d="M381.9,456.3c5.5-1.2,10.9-2.4,16.4-3.4c0.9-0.2,2,0.9,3.1,1.4c-0.8,0.6-1.4,1.7-2.3,1.9
		c-4.5,1.1-9,2-13.5,2.8c-1.2,0.2-2.5-0.5-3.7-0.8C381.8,457.5,381.9,456.9,381.9,456.3z"/>
	<path class="st9" d="M129.6,479.9c0-4.3-0.2-8.6,0.1-12.9c0.1-1.2,1.6-2.3,2.5-3.4c0.7,1.1,2.1,2.2,2.1,3.2
		c-0.1,8.9-0.3,17.9-0.7,26.8c0,0.9-1.4,1.7-2.1,2.6c-0.7-0.9-1.8-1.9-1.9-2.8c-0.2-4.5-0.1-9-0.1-13.4
		C129.5,479.9,129.5,479.9,129.6,479.9z"/>
	<path class="st14" d="M99.4,394.2c-1.5,4.1-3,8.1-4.6,12.3c3.3,1.9,6.5,3.8,9.7,5.6c-4.6,8.5-9.2,17.2-14,25.6
		c-0.9,1.6-3.3,2.4-5,3.6c-6-3.7-12-7.3-18-11c-0.6-0.3-1-0.8-1.9-1.4c1.1-2.3,2.2-4.5,3.2-6.6c2.7-4.7,6.1-9.2,8-14.3
		c1.6-4.2,3.6-5.2,7.6-4.4c1,0.2,2.4-0.6,3.3-1.3c0.4-0.3,0.2-2.2-0.3-2.4c-0.9-0.5-2.2-0.4-3.3-0.7c-0.9-0.2-1.7-0.7-2.6-1
		c2-3,3.4-7.8,6.1-8.6c2.5-0.8,6.2,2.7,9.4,4.2C97.8,394,98.6,394,99.4,394.2z"/>
	<path class="st9" d="M81.5,398.1c0.9,0.3,1.7,0.8,2.6,1c1.1,0.3,2.4,0.1,3.3,0.7c0.5,0.3,0.7,2.1,0.3,2.4c-0.9,0.7-2.3,1.5-3.3,1.3
		c-4-0.8-6,0.1-7.6,4.4c-1.9,5-5.3,9.6-8,14.3c-0.4-1-0.9-2-1.3-3c1.3-3.1,2.6-6.2,4.1-9.6c-2.1-1-3.7-1.7-5.2-2.5c1-2,2-4,3.1-6
		c1.9,0.8,3.8,1.6,5,2.1c2.3-1.9,4.3-3.5,6.2-5.1C80.9,398,81.2,398,81.5,398.1z"/>
	<path class="st14" d="M80.7,398.1c-1.9,1.6-3.9,3.2-6.2,5.1c-1.2-0.5-3.1-1.3-5-2.1c1.7-3.3,3.4-6.6,5.1-10c1,0.3,2,0.7,3,1
		c0.7,0.3,1.3,0.7,2,1c0.4,0.4,0.7,0.7,1.1,1.1C80.6,395.5,80.6,396.8,80.7,398.1z"/>
	<path class="st14" d="M66.4,407.1c1.6,0.8,3.2,1.5,5.2,2.5c-1.4,3.4-2.8,6.5-4.1,9.6c-0.7,0.4-1.3,0.7-1.9,1.1
		c-1.7-0.7-3.4-1.4-5.1-2.1C62.5,414.5,64.4,410.8,66.4,407.1z"/>
	<path class="st23" d="M80.6,394.2c-0.4-0.4-0.7-0.7-1.1-1.1c-0.4-1-0.8-2-1.2-3c-1.2,0-2.3,0.1-3.5,0.1c1.1-2,2.2-4,3.7-6.6
		c2,1.2,5.6,2.6,5.4,3.4C83.6,389.5,81.8,391.8,80.6,394.2z"/>
	<path class="st9" d="M74.8,390.2c1.2,0,2.3-0.1,3.5-0.1c-0.3,0.7-0.6,1.4-0.8,2c-1-0.3-2-0.7-3-1C74.5,390.8,74.6,390.5,74.8,390.2
		z"/>
	<path class="st16" d="M137.5,424.6c0,4.6-2.7,8.6-5.8,8.5c-5.9-0.1-11.1-3-11.1-6.2c0-4.8,2.6-8.9,5.4-8.7
		C132.8,418.5,137.5,421.1,137.5,424.6z"/>
	<path class="st18" d="M121.5,284.6c4.7-3.9,9.6-0.8,14.5-1.4c0,0.5,0,0.9,0.1,1.4C131.2,284.6,126.3,284.6,121.5,284.6z"/>
	<path class="st16" d="M31.5,398.4c-1.6-0.5-3.2-1-4.8-1.5c1.2-3.7,2.5-7.4,3.5-10.7C37.1,389.9,33.3,394.2,31.5,398.4z"/>
	<path class="st21" d="M36.5,378.1c3.6,4.1-1.5,2.2-2.5,3.1C34.8,380.2,35.7,379.2,36.5,378.1C36.5,378.1,36.5,378.1,36.5,378.1z"/>
	<path class="st16" d="M39.4,373.5c-0.9-1.6-2.2-3.1-2.4-4.7c-0.1-0.6,2.4-1.6,3.8-2.4c0.6,1.9,1.1,3.9,1.7,5.8
		C41.5,372.6,40.4,373,39.4,373.5z"/>
	<path class="st18" d="M93.6,335.4c6-0.8,11.9-1.6,17.9-2.5c0.6,0.7,1.2,1.3,1.9,2c-5.1,1-10.2,2.1-15.4,2.8
		c-1.8,0.3-3.7-0.4-5.5-0.6C92.9,336.6,93.3,336,93.6,335.4z"/>
	<path class="st14" d="M92.4,509.1c-3.4,3.8-6.7,7.6-10.1,11.4c-0.9-0.1-2.1,0.1-2.7-0.4c-7.9-7.4-15.8-14.9-23.6-22.5
		c-0.3-0.3-0.2-0.9-0.3-1.4c7-1.6,9.4-8.3,14.2-12.4c1.3-1.2,3.4-1.6,5.3-2.4c0.4-1.3,0.9-2.8,1.4-4.3c8,7.4,16,14.7,24.1,22.1
		C97.6,502.7,95,505.9,92.4,509.1z M69.5,496.1c-0.3,0.3-0.7,0.7-1,1l0,0c-0.7,1.1-1.3,2.3-1.9,3.4c0.4,0.2,0.7,0.5,1.1,0.7
		c0,0.3-0.1,0.7-0.1,1c1.2,0.7,2.3,1.3,3.5,2c0.5,0.4,1,0.8,1.6,1.1c0.3,0.3,0.6,0.5,0.8,0.8c0.4,0.5,0.8,1,1.2,1.5
		c0.6,0.5,1.1,1,1.7,1.6c0.7,0.2,1.8,0.8,2.1,0.5c4-3.9,8-8,11.8-12.1c0.3-0.4-0.3-1.7-0.5-2.5c-0.6-0.3-1.2-0.6-1.8-1
		c-0.7-0.3-1.4-0.6-2.1-1c-0.1-0.4-0.2-0.8-0.3-1.2c-0.6-0.6-1.2-1.1-1.8-1.7l0-0.1c-1.3-1-2.7-2-4-3c-0.2-0.6-0.4-1.1-0.5-1.7
		c-0.8,0.9-1.7,1.8-2.5,2.6h0c-0.5,0.3-1,0.7-1.5,1c-0.3,0-0.4,0.2-0.5,0.5c-0.3,0.8-0.7,1.7-1,2.5l0,0c-0.3,0.3-0.7,0.7-1,1l0,0
		c-0.3,0.3-0.7,0.7-1,1l0,0c-0.3,0.3-0.7,0.7-1,1l0,0C70.2,495.4,69.8,495.8,69.5,496.1L69.5,496.1z"/>
	<path class="st9" d="M103.5,407.1c-1.7-0.7-4.1-0.9-4.7-2.1c-0.6-1,0.9-3.1,1.4-4.8c0.5,0,1.1,0.1,1.6,0.1
		C102.4,402.6,103,404.9,103.5,407.1C103.5,407.1,103.5,407.1,103.5,407.1z"/>
	<path class="st9" d="M103.5,407.1c0.1,0.1,0.3,0.1,0.3,0.2c0.1,0,0,0.2,0,0.3C103.8,407.4,103.6,407.3,103.5,407.1
		C103.5,407.1,103.5,407.1,103.5,407.1z"/>
	<path class="st11" d="M96.5,332.1c1-0.3,2-0.6,3-0.9c0.6,0.2,1.1,0.4,3.1,1.1c-4,0.8-6.6,1.4-9.2,1.9c-0.7-0.4-1.3-0.7-2-1.1
		C93.2,332.8,94.8,332.5,96.5,332.1z"/>
	<path class="st11" d="M111.5,331.2c-2.4,0.3-4.7,0.7-7.1,1c-0.1-0.3-0.1-0.6-0.2-0.9c2.1-0.7,4.2-1.4,6.3-2.1c0.7,0,1.4-0.1,2-0.1
		c0,0.7-0.1,1.3-0.1,2C112.2,331.1,111.8,331.1,111.5,331.2z"/>
	<path class="st17" d="M112.5,331.1c0-0.7,0.1-1.3,0.1-2c0.5,0.3,1,0.5,1.5,0.8C113.6,330.3,113,330.7,112.5,331.1z"/>
	<path class="st16" d="M74.3,563.1c-5.4-0.5-8.3-3-7.8-6.9c0.6-5.1,4.2-10.3,6.9-10c4.8,0.6,8.4,3.5,8.1,6.5
		C81,558.1,77.3,563.4,74.3,563.1z"/>
	<path class="st9" d="M229.6,554.2c0.4-0.9,0.8-1.8,1.2-2.7c0.6,0.9,1.2,1.7,1.8,2.6C231.5,554.1,230.6,554.2,229.6,554.2z"/>
	<ellipse class="st18" cx="169.1" cy="315.3" rx="8.4" ry="0.7"/>
	<path class="st18" d="M185.3,626c-4.1-0.3-8.2-0.6-12.3-0.9c0-0.4,0-0.9,0.1-1.3c4.1,0,8.2,0,12.3,0
		C185.4,624.5,185.3,625.2,185.3,626z"/>
	<path class="st11" d="M109.8,296.3c-3.3-1.8-6.6-3.5-9.7-5.5c-0.4-0.2,0.1-2.4,0.7-3.4c3.2-5.5,2.2-8.7-3.6-11.3
		c-1.1-0.5-2-1.7-2.6-2.7c-0.2-0.3,1-2,1.5-2c1.3,0.1,2.7,0.6,3.7,1.4c1.4,1.1,2.4,2.8,3.7,4c3.6,3,5.9,5.9,1,10
		c-2.3,1.9-0.7,3.4,1.3,4.6c1.7,1,3.3,2.1,5,3.2C110.5,295.1,110.1,295.7,109.8,296.3z"/>
	<path class="st11" d="M235.5,541.1c0.3-0.7,0.6-1.3,0.8-2c0.4,1,0.8,2,1.1,3C236.8,541.8,236.2,541.5,235.5,541.1z"/>
	<path class="st22" d="M21.7,472.2c1.8,0,3.7,0.1,5.5,0c2.7-0.2,3.5,1.1,3.5,3.6c0,2.6-1.2,3.5-3.7,3.4c-3.7-0.2-7.4,0.2-11-0.3
		c-1.4-0.2-3.5-2-3.8-3.3c-0.4-2.4,1.1-3.9,4-3.5c1.8,0.2,3.7,0,5.5,0C21.7,472,21.7,472.1,21.7,472.2z M15.1,474.6
		c0,0.4,0,0.7,0,1.1c4,0,8,0,12,0c0-0.4,0-0.7,0-1.1C23.1,474.6,19.1,474.6,15.1,474.6z"/>
	<path class="st11" d="M77.5,392.1c0.3-0.7,0.6-1.4,0.8-2c0.4,1,0.8,2,1.2,3C78.8,392.8,78.2,392.5,77.5,392.1z"/>
	<path class="st23" d="M71,504.1c-1.2-0.7-2.3-1.3-3.5-2c1-1,2-2,3-3l0,0c0.3-0.3,0.7-0.7,1-1l0,0c0.3-0.3,0.7-0.7,1-1l0,0
		c0.3-0.3,0.7-0.7,1-1l0,0c0.3-0.3,0.7-0.7,1-1l0,0c0.3-0.3,0.7-0.7,1-1l0,0c0.3-0.3,0.7-0.7,1-1l0,0c0.3-0.3,0.7-0.7,1-1l0,0
		c0.3-0.3,0.7-0.7,1-1l0,0c1-0.4,2-0.7,3-1c0.7,0,1.3,0,2,0l0,0.1c-2.3,3.3-4.7,6.6-7,9.9l0,0c-0.3,0.3-0.7,0.7-1,1l0,0
		c-0.3,0.3-0.7,0.7-1,1l0,0c-0.3,0.3-0.7,0.7-1,1l0,0c-0.3,0.3-0.7,0.7-1,1l0,0C72,504.1,71.5,504.1,71,504.1z"/>
	<path class="st23" d="M87.7,494.1c0.6,0.3,1.2,0.6,1.8,1c-4.4,4.7-8.9,9.4-13.3,14.1c-0.6-0.5-1.1-1-1.7-1.6c0-0.5,0-1,0-1.5l0,0
		c0.3-0.3,0.7-0.7,1-1l0,0c0.3-0.3,0.7-0.7,1-1l0,0c0.3-0.3,0.7-0.7,1-1l0,0C80.9,500.1,84.3,497.1,87.7,494.1z"/>
	<path class="st17" d="M87.7,494.1c-3.4,3-6.8,6-10.2,9c-0.3-1-0.7-2-1-3c2.3-3.3,4.7-6.6,7-9.9c0.6,0.6,1.2,1.1,1.8,1.7
		c-0.3,0.4-0.7,0.7-1,1c-0.6,0.7-1.3,1.3-1.9,2c-0.8,0.9-1.7,1.7-2.5,2.6c0.3,0.2,0.6,0.5,0.9,0.7c0.7-0.9,1.4-1.9,2-2.8
		c0.9-0.8,1.8-1.5,2.8-2.3h0C86.3,493.5,87,493.8,87.7,494.1z"/>
	<path class="st15" d="M83.6,490.1c-0.7,0-1.3,0-2,0c-0.2-0.6-0.5-1.1-0.7-1.7c-0.8,0.9-1.5,1.8-2.3,2.7l0,0c-0.3,0.3-0.7,0.7-1,1
		l0,0c-0.3,0.3-0.7,0.7-1,1l0,0c-0.3,0.3-0.7,0.7-1,1l0,0c-0.3,0.3-0.7,0.7-1,1l0,0c-0.3,0.3-0.7,0.7-1,1l0,0c-0.3,0.3-0.7,0.7-1,1
		l0,0c-0.3,0.3-0.7,0.7-1,1l0,0c-0.3,0.3-0.7,0.7-1,1l0,0c-0.7,0.3-1.3,0.7-2,1c-0.4,0-0.8-0.1-1.3-0.1c0.4-1,0.8-1.9,1.2-2.9l0,0
		c0.3-0.3,0.7-0.7,1-1l0,0c0.3-0.3,0.7-0.7,1-1l0,0c0.3-0.3,0.7-0.7,1-1l0,0c0.3-0.3,0.7-0.7,1-1l0,0c0.3-0.3,0.7-0.7,1-1l0,0
		c0.3-0.8,0.7-1.7,1-2.5c0-0.3,0.2-0.4,0.5-0.5c0.5-0.3,1-0.7,1.5-1h0c1-0.3,2-0.6,3-1C80.9,488.1,82.2,489.1,83.6,490.1z"/>
	<path class="st11" d="M76.2,509.2c4.4-4.7,8.9-9.4,13.3-14.1c0.2,0.9,0.9,2.2,0.5,2.5c-3.8,4.1-7.8,8.1-11.8,12.1
		C78,510,76.9,509.4,76.2,509.2z"/>
	<path class="st23" d="M76.5,500.1c0.3,1,0.7,2,1,3l0,0c-0.3,0.3-0.7,0.7-1,1l0,0c-0.3,0.3-0.7,0.7-1,1l0,0c-0.3,0.3-0.7,0.7-1,1
		l0,0c-0.4,0-0.8,0-1.2,0c-0.3-0.3-0.6-0.5-0.8-0.8c0-0.4,0-0.8,0-1.2l0,0c0.3-0.3,0.7-0.7,1-1l0,0c0.3-0.3,0.7-0.7,1-1l0,0
		c0.3-0.3,0.7-0.7,1-1l0,0C75.9,500.8,76.2,500.5,76.5,500.1C76.5,500.1,76.5,500.1,76.5,500.1z"/>
	<path class="st21" d="M68.5,497.1c-0.4,1-0.8,1.9-1.2,2.9c-0.3,0.1-0.6,0.2-0.8,0.5C67.2,499.3,67.8,498.2,68.5,497.1z"/>
	<path class="st19" d="M68.6,500.1c0.7-0.3,1.3-0.7,2-1c-1,1-2,2-3,3c0-0.3,0.1-0.7,0.1-1C67.9,500.8,68.3,500.5,68.6,500.1z"/>
	<path class="st21" d="M79.5,487.1c-1,0.3-2,0.6-3,1c0.8-0.9,1.7-1.8,2.5-2.6C79.2,486,79.3,486.6,79.5,487.1z"/>
	<path class="st21" d="M74.5,489.6c-0.3,0.8-0.7,1.7-1,2.5C73.8,491.3,74.2,490.4,74.5,489.6z"/>
	<path class="st23" d="M68.6,500.1c-0.3,0.3-0.6,0.7-0.9,1c-0.4-0.2-0.7-0.5-1.1-0.7c0.2-0.2,0.5-0.4,0.8-0.5
		C67.7,500,68.2,500.1,68.6,500.1z"/>
	<path class="st17" d="M72.5,504.1c0,0.4,0,0.8,0,1.2c-0.5-0.4-1-0.8-1.6-1.1C71.5,504.1,72,504.1,72.5,504.1z"/>
	<path class="st21" d="M73.5,492.1c-0.3,0.3-0.7,0.7-1,1C72.8,492.8,73.2,492.4,73.5,492.1z"/>
	<path class="st15" d="M84.3,493c0.3-0.4,0.7-0.7,1-1c0.1,0.4,0.2,0.8,0.3,1.2c0,0,0,0,0,0C85.2,493.1,84.7,493,84.3,493z"/>
	<path class="st17" d="M73.4,506.1c0.4,0,0.8,0,1.2,0c0,0.5,0,1,0,1.5C74.1,507.1,73.8,506.6,73.4,506.1z"/>
	<path class="st21" d="M72.5,493.1c-0.3,0.3-0.7,0.7-1,1C71.8,493.8,72.2,493.4,72.5,493.1z"/>
	<path class="st21" d="M70.5,495.1c-0.3,0.3-0.7,0.7-1,1C69.8,495.8,70.2,495.4,70.5,495.1z"/>
	<path class="st21" d="M71.5,494.1c-0.3,0.3-0.7,0.7-1,1C70.8,494.8,71.2,494.4,71.5,494.1z"/>
	<path class="st21" d="M69.5,496.1c-0.3,0.3-0.7,0.7-1,1C68.8,496.8,69.2,496.4,69.5,496.1z"/>
	<path class="st21" d="M76.5,488.1c-0.5,0.3-1,0.7-1.5,1C75.5,488.8,76,488.4,76.5,488.1z"/>
	<path class="st18" d="M15.1,474.6c4,0,8,0,11.9,0c0,0.4,0,0.7,0,1.1c-4,0-8,0-12,0C15.1,475.4,15.1,475,15.1,474.6z"/>
	<path class="st19" d="M78.5,491.1c0.8-0.9,1.5-1.8,2.3-2.7c0.2,0.6,0.5,1.1,0.7,1.7C80.5,490.5,79.5,490.8,78.5,491.1z"/>
	<path class="st19" d="M70.5,499.1c0.3-0.3,0.7-0.7,1-1C71.2,498.5,70.9,498.8,70.5,499.1z"/>
	<path class="st17" d="M75.5,501.1c-0.3,0.3-0.7,0.7-1,1C74.8,501.8,75.2,501.5,75.5,501.1z"/>
	<path class="st17" d="M74.5,502.1c-0.3,0.3-0.7,0.7-1,1C73.8,502.8,74.2,502.5,74.5,502.1z"/>
	<path class="st17" d="M73.5,503.1c-0.3,0.3-0.7,0.7-1,1C72.8,503.8,73.2,503.5,73.5,503.1z"/>
	<path class="st17" d="M76.5,500.1c-0.3,0.3-0.7,0.7-1,1C75.8,500.8,76.2,500.5,76.5,500.1z"/>
	<path class="st19" d="M77.5,492.1c0.3-0.3,0.7-0.7,1-1C78.2,491.5,77.9,491.8,77.5,492.1z"/>
	<path class="st19" d="M76.5,493.1c0.3-0.3,0.7-0.7,1-1C77.2,492.5,76.9,492.8,76.5,493.1z"/>
	<path class="st19" d="M75.5,494.1c0.3-0.3,0.7-0.7,1-1C76.2,493.5,75.9,493.8,75.5,494.1z"/>
	<path class="st19" d="M73.5,496.1c0.3-0.3,0.7-0.7,1-1C74.2,495.5,73.9,495.8,73.5,496.1z"/>
	<path class="st19" d="M74.5,495.1c0.3-0.3,0.7-0.7,1-1C75.2,494.5,74.9,494.8,74.5,495.1z"/>
	<path class="st19" d="M72.5,497.1c0.3-0.3,0.7-0.7,1-1C73.2,496.5,72.9,496.8,72.5,497.1z"/>
	<path class="st19" d="M71.5,498.1c0.3-0.3,0.7-0.7,1-1C72.2,497.5,71.9,497.8,71.5,498.1z"/>
	<path class="st17" d="M76.5,504.1c0.3-0.3,0.7-0.7,1-1C77.2,503.5,76.8,503.8,76.5,504.1z"/>
	<path class="st17" d="M75.5,505.1c0.3-0.3,0.7-0.7,1-1C76.2,504.5,75.8,504.8,75.5,505.1z"/>
	<path class="st17" d="M74.5,506.1c0.3-0.3,0.7-0.7,1-1C75.2,505.5,74.8,505.8,74.5,506.1z"/>
	<path class="st23" d="M82.8,495.5c-0.7,0.9-1.4,1.9-2.1,2.8c-0.3-0.2-0.6-0.5-0.9-0.7c0.8-0.9,1.7-1.7,2.5-2.6
		C82.5,495.1,82.7,495.3,82.8,495.5z"/>
	<path class="st23" d="M84.3,493c0.4,0.1,0.9,0.1,1.3,0.2c-0.9,0.8-1.8,1.5-2.8,2.3c-0.1-0.2-0.3-0.3-0.4-0.5
		C83,494.3,83.7,493.6,84.3,493z"/>
</g>
<path class="st29" d="M99.8,185.8c2.6,0.2,3.9-0.2,5.5-0.4c5.4-0.4,7.4,3.1,11.6,1.7c0.5-0.2,2-0.6,2.1-1.6c0.2-1-1.3-2-3-3.3
	c-0.7-0.5-1.6-1.1-2.8-1.7c-1.6-0.7-3.1-1-4.1-1.1c-3.5,0.5-6.2,1.4-8.1,2.2c-1.2,0.5-4.9,2.1-4.7,3.1
	C96.4,185.6,98.5,185.7,99.8,185.8z"/>
<path class="st29" d="M268.5,219.3"/>
<path class="st29" d="M182.2,198.6c-2.6-0.5-3.7-1.3-5.2-1.8c-5.2-1.9-7.6,0.9-11.6-1.4c-1.7-1-3.1-2.5-2.8-3c0.2-0.3,0.8,0,2.1-0.3
	c1.1-0.2,1.1-0.6,2.8-1.2c0.7-0.3,1.3-0.4,2.1-0.7c1-0.3,1.7-0.5,2.4-0.6c0.8-0.1,2.1-0.2,3.8,0.2c0.9,0.5,2.3,1.4,3.8,2.5
	c0.6,0.5,6.9,5.1,6.2,6.3C185.6,199.3,183.8,198.9,182.2,198.6z"/>
<path class="st30" d="M135.4,146.6c-16.3-1.8-27.4-2.2-32.5,4.4c-2.2,2.9-1.9,5.3-3.9,17.4c-2.8,16.3-4.2,17.1-4.6,22.5
	c-1,14.4,8.2,30.1,20.2,39.1c23,17.2,51.1,6.2,55.5,4.4c13.8-5.4,21.9-14.6,23.7-16.7c2.7-3.1,8.5-10.2,11.4-21.1
	c0.9-3.6,5-19.4-2-31.7C196.4,153.4,176.1,151.1,135.4,146.6z"/>
<path class="st31" d="M108.1,155.1c7.4-1.1,14.3-2.1,22.5-3.3C124.4,158.8,111,160.3,108.1,155.1z"/>
<path class="st31" d="M181.4,165.1c-0.3-0.7-0.2-1.6,0.1-2.2c0.2-0.3,1.3-0.2,1.8,0.1c4.8,3.1,9.5,6.3,14.9,10
	C193.7,174.1,183,168.8,181.4,165.1z"/>
<path class="st32" d="M100.4,171c1.9-1.2,3.6-2.9,5.6-3.5c1.7-0.5,3.7,0.3,5.6,0.6c-0.1,0.5-0.1,1-0.2,1.5c-2,0.9-4.4,1.3-6,2.7
	c-4,3.3-5,9-2.7,13c3.1,5.5,7.5,7.6,12.7,6.1c5.9-1.7,10.2-6.6,9.7-11.6c-0.2-2.8-0.8-5.9-4.6-5.8c-3.7,0-6.5,3.3-6.2,7.2
	c1.5-0.9,2.9-1.7,4.6-2.7c1.8,3.6-0.1,5.8-2.6,6.4c-1.6,0.4-4.8-0.8-5.5-2.1c-0.9-1.9-1.1-5.9,0.1-6.8c3.1-2.6,7.2-4,11-5.8
	c0.6-0.3,1.5,0.1,2.3,0.2c0.9,0.5,1.7,1,2.6,1.6c5.6,12.4-2,24.2-14.9,24.1c-7.8,0-18-11.7-13.3-20.1c0.3-0.6,0.2-1.5,0.3-2.2
	C99.3,172.7,99.8,171.9,100.4,171z"/>
<path class="st32" d="M181,207.1c-1-0.4-2-0.9-3-1.3c-9.1-3-13.1-10.7-10-19.6c2.9-8.4,12.3-12.8,20.7-9.2c1.7,0.7,2.8,2.7,4.9,4.8
	c-5.4-0.7-9.2-1.7-12.9-1.7c-5.1,0.1-9.1,4.7-9.7,10.3c-0.5,5.4,2.4,9.7,7.7,11.3c5.5,1.7,10,0.3,12.3-3.6c2.5-4.4,1.9-7.4-1.7-9.3
	c-3.8-2-6.6-0.9-9.2,4c1.1-0.1,2-0.3,2.9-0.3c1.3,0.1,2.5,0.3,3.7,0.5c-0.9,1.1-1.7,3-2.6,3.1c-2.4,0.1-5.3,0-7.1-1.3
	c-0.9-0.6-0.5-4.4,0.5-6.2c2.6-4.7,8.6-6,13.5-3.6c5.1,2.6,6.5,6.8,4.6,12.6c-1.8,5.2-5.7,7.7-10.6,9.3
	C183.6,207.1,182.3,207.1,181,207.1z"/>
<path class="st29" d="M166.8,201.6c1.2,1.5,2.6,2.1,4,2.8c2,0.9,3.9,1.3,7.8,1.9c2.2,0.4,3.1,0.5,5.7,0.8c0.7,0.1,1.5,0.2,2.7,0.3
	c0.3,0,1.5,0.1,3-0.1c0.8-0.1,1.8-0.2,2.9-0.4c0.2,0.8,0.6,2.8-0.5,4.5c-1,1.6-2.7,2.1-3.5,2.3c-9.6,2.4-21.2-1.3-25.1-11.5
	c-0.5-1.3,0.6-3.3,1-5C165.1,198.3,165.5,200,166.8,201.6z"/>
<path class="st29" d="M101.1,194.1c3,0.9,5.8,1.6,8.3,2c2.7,0,5.3,0.1,8,0.1c0.8,0.1,1.9,0.1,3.1-0.1c1.2-0.2,2.1-0.5,2.9-0.8
	c0.8-0.5,1.6-0.9,2.5-1.4c0.5-0.2,0.9-0.4,1.3-0.6c-0.2,5.8-3.7,9-8.9,9.4c-5.7,0.4-11.6,0.3-17.1-1.1c-5.7-1.4-6.4-3.8-5-9.2
	C97.8,193,99.4,193.6,101.1,194.1z"/>
<path class="st33" d="M150.5,232.3c-0.6,1.4-3.6,2.4-5.6,2.5c-1.8,0.1-3.7-1.1-5.5-1.8c-2.6-1-5-2.4-7.6-3.2c-4.6-1.2-8.1-4.6-7.8-8
	c0.4-4.1,3.8-6.9,8.9-7.2c7.7-0.4,13.4,2.9,18,9.7C150.8,227.1,151.4,230.1,150.5,232.3z M132.1,217.8c-2.7,0.6-5.8,1.8-4.9,4.8
	c0.6,2,4,4.5,6,4.3c2.9-0.3,4.4,0.8,6.1,2.3c0.6,0.5,1.2,1.2,1.9,1.3c2,0.4,4.1,0.6,6.2,0.9c0.1-2,0.2-4,0.3-6
	C143.7,219.8,137.6,216.7,132.1,217.8z"/>
</svg>
