<?xml version="1.0" encoding="utf-8"?>
<!-- Generator: Adobe Illustrator 23.0.3, SVG Export Plug-In . SVG Version: 6.00 Build 0)  -->
<svg version="1.1" id="Ebene_1" xmlns="http://www.w3.org/2000/svg" xmlns:xlink="http://www.w3.org/1999/xlink" x="0px" y="0px"
	 viewBox="0 0 407.93 703.24" style="enable-background:new 0 0 407.93 703.24;" xml:space="preserve">
<style type="text/css">
	.st0{fill:#2D2A3D;}
	.st1{fill:#B44845;}
	.st2{fill:#A56364;}
	.st3{fill:#F5A064;}
	.st4{fill:#473D49;}
	.st5{fill:#333244;}
	.st6{fill:#F7B281;}
	.st7{fill:#403E4F;}
	.st8{fill:#504F5E;}
	.st9{fill:#F7F4F5;}
	.st10{fill:#F9C39E;}
	.st11{fill:#C9B8C3;}
	.st12{fill:#FBE0E0;}
	.st13{fill:#FAC59F;}
	.st14{fill:#FBF8F9;}
	.st15{fill:#ECD8D8;}
	.st16{fill:#F4B7B9;}
	.st17{fill:#B8A0AE;}
	.st18{fill:#EFEAED;}
	.st19{fill:#B39AA9;}
	.st20{fill:#BA95A1;}
	.st21{fill:#A88EA0;}
	.st22{fill:#BCA5B2;}
	.st23{fill:#E9E2E6;}
	.st24{fill:#BFAAB7;}
	.st25{fill:#E88843;}
	.st26{fill:#8D726A;}
	.st27{fill:#8A677E;}
	.st28{fill:#B79BA8;}
	.st29{fill:#C6967F;}
</style>
<g>
	<path class="st0" d="M146.5,47.19c14.54-2.56,27.9,0.52,40.52,8c20.52,12.17,33.43,30.33,40.65,52.55
		c2.63,8.09,4.06,16.85,4.3,25.36c0.25,9.21-1.07,18.55-2.54,27.7c-1.86,11.58-4.28,23.09-7.05,34.49
		c-1.09,4.51-3.77,8.64-5.72,12.94c-3.61-1.02-2.17-3.54-1.43-5.54c1.83-4.93,1.63-9.04-3.77-11.54
		c-0.82-9.48-1.63-18.95-2.45-28.43c-0.49,0.3-0.99,0.6-1.48,0.91c-1.63-1.78-3.86-3.3-4.77-5.39c-2.13-4.87-3.54-10.05-5.46-15.02
		c-0.49-1.27-1.81-2.22-2.75-3.32c-1.19-2.45-2.38-4.89-3.51-7.22c-1.81,0.91-3.28,2-4.9,2.35c-1.66,0.36-3.68-0.54-5.19,0.03
		c-3.9,1.48-6.01,0.31-6.9-3.6c-0.58-1.61-1.16-3.22-1.74-4.83c-0.5,0.16-1.01,0.32-1.51,0.48c-0.65,1.41-1.31,2.82-1.96,4.23
		c-1.57-1.56-3.14-3.12-5.35-5.32c0.07-0.02-1.29,0.3-2.64,0.62c0.28-1.49,0.93-2.05,1.61-2.56c3.12-2.32,4.26-5.37,3.07-9.08
		c-0.31-0.98-1.17-2.24-2-2.45c-0.66-0.17-1.65,1.12-2.55,1.67c-1.68,1.03-3.35,2.07-5.12,2.93c-0.85,0.41-2.34,0.09-2.78,0.68
		c-6.94,9.19-16.59,8.73-26.31,8.31c-2.2,1.33-4.48,2.22-6.78,3.04c-1.24,0.44-2.51,0.78-3.77,1.16c-3.27,2.23-4.11-0.19-4.57-2.6
		c-0.74-3.85-1.19-7.76-1.76-11.65c-0.32-0.01-0.63-0.02-0.95-0.02c-1.43,4.69-2.87,9.38-4.3,14.07c-5.36,2.37-7.18,6.9-8.2,12.34
		c-1.46,7.79-3.54,15.47-5.54,24.03c-3.24-4.53,1.21-10.38-4.67-13.93c-0.7,2.46-1.21,4.29-1.73,6.11
		c-2.61,7.29-2.61,7.29-7.98,5.33c-3.21-1.11-6.43-3.16-9.64-3.15c-6.98,0.03-9.11,5.54-10.51,11.29c-0.59-0.48-1.68-0.95-1.69-1.45
		c-0.11-4.64-3.86-9.08,0.44-14.09c1.83-2.14,1.19-6.53,1.37-9.92c0.23-4.14-0.69-8.52,0.34-12.42c3.71-14.05,8-27.94,12.16-41.86
		c0.47-1.56,1.32-3.1,2.33-4.38c5.55-7.03,11.21-13.98,16.92-21.07c-2.61-1.92-4.78-3.82-7.49-0.7c-0.28,0.33-1.54-0.19-2.35-0.32
		c3.5-2.48,6.99-4.97,10.82-7.69c-1.8,0-3.23,0-4.67,0c-0.01-1.03-0.02-2.05-0.03-3.08c3.66-2.28,8.49-3.8,10.65-7.07
		c2.1-3.17,3.5-6.42,7.25-7.89l0.39,0.19c-0.1,1.43-0.2,2.86-0.29,4.17c2.37-0.89,4.65-1.47,6.61-2.6c1.32-0.77,2.18-2.33,3.25-3.54
		c1.1-4.74,5.58-4.17,8.74-4.98c2.71-0.69,4.12-1.59,4.41-4.26c1.24-0.74,2.49-1.48,3.03-1.79c-0.22-2.71-1.23-5.66-0.35-6.4
		c1.54-1.31,4.21-1.34,6.44-1.79c0.79-0.16,1.65,0.01,2.48,0.02c1.2,2.26,2.4,4.51,3.59,6.77l-0.06,0.02
		c0.45,0.74,0.91,1.49,1.36,2.23c0.56,0.84,1.12,1.68,1.68,2.53c0.5,1.15,0.99,2.3,1.48,3.46c0.33,0.24,0.66,0.49,0.99,0.73
		c-1.68,2.15-3.36,4.29-4.68,5.97c-2.44-1.54-5.21-3.28-8.99-5.65c2.94,12.71,2.94,12.71,12.85,9.96c0.46-0.13,0.99,0.02,1.49,0.04
		c-0.29,0.33-0.59,0.66-0.88,0.99C146.13,46.57,146.31,46.88,146.5,47.19z"/>
	<path class="st1" d="M147.39,270.16c28.36,14.05,51.37,35.02,73.81,57.21c-2.1,3.14-4.28,6.4-6.46,9.65
		c-0.47,0.9-0.93,1.79-1.4,2.69c-5.32,8.81-10.82,17.51-15.9,26.45c-3.65,6.43-6.73,13.19-10.07,19.81
		c-0.97,1.26-1.94,2.53-2.91,3.79c-1.95,3.25-3.76,6.6-5.89,9.73c-1.52,2.25-3.29,3.28-6.16,1.14c-3.54-2.65-7.6-4.61-11.81-7.09
		c-0.68,3.61-1.62,7.23-2.02,10.9c-2.07,19.08-4.02,38.18-5.96,57.28c-0.18,1.81-0.03,3.65-0.04,5.47
		c-0.04,0.92-0.09,1.84-0.13,2.76c-2.69,11.62-2.69,23.19,1.14,34.53c0.41,1.23,3.2,2.43,4.79,2.32c3.4-0.25,6.74-1.37,10.11-2.13
		c17.49-2.03,34.94-3.16,52.07,2.43c4.55,1.67,9.1,3.34,13.66,5.01c8.38,3.89,13.33,10.72,16.21,19.22
		c2.22,6.56,4.21,13.19,6.31,19.79c0.03,1.34,0.07,2.68,0.1,4.02c0.18,1.32,0.36,2.64,0.55,3.95c-0.54,3.9-1.07,7.8-1.67,12.13
		c3.8-2.99,6.25-6.33,6.46-11.04c3.82-6.76,2.32-13.94,1.31-20.93c-1.93-13.4-6.35-25.74-17.12-34.83c-1.2-1.01-3.08-1.21-4.65-1.79
		c-0.03-0.91-0.06-1.82-0.09-2.73c2.34,0.57,5.2,0.46,6.92,1.82c10.31,8.11,15.29,19.46,17.78,31.93c1.2,5.99,1.81,12.18,1.86,18.29
		c0.08,8.22-2.69,15.42-8.67,21.54c-6.13,6.27-11.52,13.25-17.3,19.86c-12.86,14.7-28.56,25.76-45.26,35.64
		c-19.31,11.41-38.54,23-55.24,38.18c-1.37,1.25-2.09,3.21-3.11,4.84c-2.02,3.41-4.25,2.1-6.61,0.37
		c-8.15-5.96-16.2-12.08-24.56-17.73c-5.73-3.87-11.9-7.08-17.88-10.58c-1.41-0.7-2.78-1.55-4.25-2.08
		c-3.18-1.16-4.66-4.85-2.92-7.79c0.9-1.52,1.99-2.94,2.95-4.33c-7.59-0.86-15.11-0.92-22.21-2.65
		c-27.68-6.74-47.69-29.61-51.46-57.77c-0.23-1.73-2.05-3.18-2.73-4.92c-1.27-3.27-2.45-6.6-3.31-9.99
		c-6.55-25.82-6.25-51.96-4.7-78.35c1.77-30.06,8.84-59.05,14.75-88.36c3.3-16.37,6.23-32.77,14.03-47.55
		c10.56-20.01,22.14-39.54,37.22-56.55c5.79-6.53,12.99-11.89,19.99-17.2c2.59-1.96,6.45-2.24,9.73-3.29
		c15.48-2.23,30.67-1.92,45.17,4.91C143.6,268.98,145.53,269.49,147.39,270.16z M161.47,387.21l-0.04-0.04
		c0.03,0.37,0.07,0.73,0.1,1.1c2.23,1.7,4.47,3.4,6.7,5.11c1.66,1.01,3.23,2.35,5.03,2.9c1.12,0.34,3.32-0.14,3.79-0.96
		c1.83-3.22,3.17-6.72,4.69-10.12c0.89-1.32,1.78-2.63,2.67-3.95c6.4-11.2,12.87-22.35,19.14-33.62c1.07-1.91,1.31-4.29,1.93-6.45
		c3.38-4.16,6.77-8.32,10.15-12.48c-1.01-0.54-2.02-1.09-3.02-1.63c-0.39-1.04-0.47-2.41-1.2-3.08
		c-8.58-7.86-17.25-15.61-25.89-23.39c-0.93-0.86-1.86-1.73-2.78-2.59c-1.7-1.31-3.39-2.62-5.09-3.93c-1.31-1-2.62-1.99-3.92-2.99
		c-7.62-4.97-15.07-10.24-22.93-14.79c-4.05-2.35-8.84-3.42-13.29-5.07c-0.97-0.08-1.95-0.16-2.92-0.25
		c-0.96-0.63-1.93-1.26-2.89-1.89c-3.4-0.88-6.81-1.76-10.21-2.64c-0.24-0.08-0.47-0.07-0.69,0.04c-0.75-0.12-1.51-0.24-2.26-0.36
		c-4.92,0.36-9.86,0.61-14.77,1.1c-4.45,0.45-8.87,1.18-13.31,1.78c-10.34,6.22-18.84,14.42-25.89,24.18
		c-0.39,0.67-0.77,1.35-1.16,2.02c-3.67,5.3-7.33,10.61-11,15.91l0.13-0.04c-0.27,0.34-0.55,0.68-0.82,1.03
		c-0.4,0.7-0.8,1.4-1.2,2.11c-0.73,0.99-1.46,1.97-2.19,2.96c-0.56,1.04-1.11,2.07-1.67,3.11c-1.1,1.61-2.2,3.21-3.3,4.82
		c-0.7,1.33-1.4,2.67-2.1,4c-12.49,18.01-18.77,38.19-20.82,59.84c-1.24,5.09-2.47,10.17-3.71,15.26
		c-3.19,16.36-6.37,32.72-9.56,49.07c-0.48,6.27-0.96,12.54-1.44,18.82c-0.07,4.63-0.15,9.27-0.22,13.9
		c-0.35,6.73-0.71,13.46-1.06,20.19c0.28,6.03,0.56,12.06,0.84,18.08c0.09,0.26,0.18,0.52,0.26,0.79c0.06,0.75,0.12,1.49,0.19,2.24
		c0.02,0.54,0.04,1.09,0.07,1.63c0.08,2.08,0.15,4.16,0.23,6.24c1.86,8.61,3.72,17.22,5.71,26.42c2.69-1.71,5.45-3.46,8.2-5.2
		c0.58-0.49,1.16-0.99,1.74-1.48c4.32-2.35,8.64-4.7,12.96-7.05c1.32-0.79,2.64-1.58,3.95-2.37c11.19-6.51,22.35-13.12,35.52-14.89
		c5.82-0.78,10.47-3.49,14.74-7.57c6.73-6.45,14.39-9.33,23.52-4.31c1.53,0.84,4.06,0.61,5.87,0.05c8.52-2.64,16.83-6.09,25.48-8.21
		c5.05-1.24,4.94-4.26,4.81-7.81c-0.07-1.96-0.74-3.89-1.06-5.85c-2.45-15.38,1.37-30.42,2.56-45.6
		c0.97-12.37,2.24-24.73,3.38-37.09c0.37-3.68,0.73-7.37,1.1-11.05c1.53-6.96,5.93-14.46-4.98-19.12c0.55-0.42,1.11-0.84,1.66-1.26
		c2.75,0.84,5.5,1.68,8.25,2.52v-0.11c0.34,0.34,0.68,0.69,1.02,1.03l-0.02-0.02C160.78,386.53,161.13,386.87,161.47,387.21z
		 M64.59,622.29c0.26-0.02,0.51-0.05,0.76-0.09c1.06,0.6,2.11,1.2,3.17,1.8c0.33,0.04,0.66,0.08,1,0.12
		c0.61,0.07,1.22,0.15,1.83,0.22l0.08,0.25c0.36,0.04,0.73,0.09,1.09,0.13c0.66,0,1.31,0,1.97,0c1.76-0.03,3.53-0.06,5.29-0.08
		c3.97-0.61,8.75-0.03,11.73-2.08c5.91-4.07,10.82-9.59,16.14-14.5c1.01-0.91,2.01-1.82,3.02-2.73c1.27-1.77,2.53-3.54,3.8-5.3
		c2.35-1.24,4.71-2.48,7.06-3.72c0.66-0.44,1.33-0.87,1.99-1.31c1.01-0.89,2.01-1.77,3.02-2.66c0.58-0.3,1.22-0.5,1.72-0.9
		c2.96-2.4,5.8-4.95,8.83-7.25c2.01-1.53,4.27-2.73,6.42-4.08l-0.02,0.01c1.01-0.6,2.01-1.2,3.02-1.8c4.8-3.18,9.61-6.35,14.41-9.53
		c0.4,0.45,0.8,0.9,1.2,1.35c-1.93,2.17-3.58,4.7-5.84,6.43c-4.88,3.73-10.07,7.04-15.14,10.52c-3.21,2.35-6.41,4.7-9.62,7.05
		c-1.01,0.93-2.03,1.86-3.04,2.79c-4.72,3.63-9.43,7.26-14.15,10.89c-11.19,9.13-22.32,18.33-30.67,30.98
		c2.29,0.15,4.05,0.27,5.81,0.38c3.08,1.57,6.15,3.14,9.23,4.71c0.87,0.45,1.74,0.9,2.62,1.34c0.78,0.54,1.55,1.08,2.33,1.63
		c0.88,0.47,1.75,0.93,2.63,1.4c0.37,0.3,0.74,0.61,1.1,0.91c9.16,6.75,18.33,13.51,27.82,20.5c2.55-3.55,4.45-7.13,7.22-9.81
		c3.4-3.28,7.52-5.8,11.34-8.66c1.58-1.04,3.16-2.07,4.75-3.11c4.71-3.04,9.42-6.08,14.13-9.12c2.68-1.95,5.36-3.9,8.04-5.85
		c2.64-1.65,5.27-3.31,7.91-4.96l-0.02,0.02c1.34-0.66,2.67-1.31,4.01-1.97c0.68-0.41,1.35-0.82,2.03-1.23
		c16.23-8.35,30.5-19.27,42.77-32.79c0.61-0.67,0.56-1.95,0.81-2.95c0.53-0.95,1.05-1.9,1.58-2.85
		c14.2-13.15,17.36-30.93,8.52-47.94c-0.42-1.4-0.85-2.81-1.27-4.21c-2.64-4.7-4.18-10.84-8.12-13.81
		c-10.56-7.96-22.94-12.09-36.4-12.19c-0.63-0.31-1.26-0.62-1.89-0.93c-26.69-1.53-52.03,4.66-76.84,13.65
		c-7.17,2.6-14.21,5.58-21.4,8.14c-1.77,0.63-3.89,0.26-5.85,0.35c-0.07-0.58-0.13-1.16-0.2-1.73c4.11-1.76,8.23-3.53,13.26-5.68
		c-1.53-0.73-2.04-1.02-2.58-1.23c-6.83-2.66-11.12,1.97-16.03,5.32c-4.31,2.94-8.77,6.76-13.6,7.59
		c-13.64,2.32-25.48,8.24-36.95,15.39c-0.96,0.63-1.92,1.25-2.88,1.88c-4.09,2.33-8.18,4.67-12.27,7c-0.61,0.42-1.23,0.83-1.84,1.25
		c-3.11,1.71-6.21,3.42-9.1,5c0.49,1.98,0.76,3.71,1.34,5.33c2.85,8.01,5.71,16.02,8.77,23.95c0.43,1.12,1.99,1.8,3.03,2.69
		c2.41,2.99,4.81,5.99,7.22,8.98c2.95,2.92,5.91,5.85,8.86,8.77c1.97,1.11,3.95,2.22,5.92,3.34c1.24,0.66,2.48,1.33,3.72,2
		c0.75,0.31,1.51,0.62,2.26,0.92c1.37,0.58,2.73,1.17,4.1,1.75C61.23,622.06,62.91,622.18,64.59,622.29z"/>
	<path class="st2" d="M89.55,644.06c5.98,3.5,12.15,6.71,17.88,10.58c8.36,5.65,16.41,11.77,24.56,17.73
		c2.36,1.73,4.59,3.04,6.61-0.37c2.95,0.36,5.89,0.9,8.85,1.04c7.89,0.37,13.55,4.15,17.11,11.04c3.14,6.08,0.66,12.35-5.98,13.56
		c-12.06,2.19-24.25,3.71-36.41,5.37c-8.79,1.2-15.7-2.3-21.72-8.59c-7-7.32-14.39-14.27-21.64-21.36c-7.03-6.87-7-10.27-0.04-17.39
		C82.46,651.9,85.96,647.94,89.55,644.06z"/>
	<path class="st3" d="M213.34,339.71c0.47-0.9,0.93-1.79,1.4-2.69c19.72,17.11,40.45,32.88,61.23,48.69
		c25.54,19.43,51.96,37.61,77.58,56.89c1.05,0.79,2.99,0.73,4.46,0.55c9.34-1.16,18.64-3.22,28-3.51
		c8.07-0.25,15.08,4.06,20.33,10.12c3.43,3.96,0.96,13.33-4.07,16.33c-4.11,2.45-8.64,4.22-13.07,6.07
		c-12.5,5.23-25.12,9.82-38.8,11.28c-8.72,0.93-16.7-1.5-23.83-5.26c-14.82-7.82-29.04-16.78-43.38-25.5
		c-9.93-6.04-19.64-12.44-29.45-18.67c-7.4-4.67-14.8-9.34-22.19-14c-15.7-10.08-31.39-20.17-47.09-30.25
		c0.97-1.26,1.94-2.53,2.91-3.79c3.07,2.37,6.14,4.74,9.2,7.11c9.31,5.68,18.62,11.36,27.93,17.04
		c10.04,6.53,20.05,13.12,30.14,19.57c7.2,4.59,14.52,8.99,21.78,13.48c0.36,0.33,0.68,0.74,1.1,0.99
		c18.02,10.86,35.89,22,54.21,32.33c4.51,2.54,10.59,3.7,15.79,3.34c17.81-1.24,33.63-9.65,50.18-15.4
		c4.64-1.61,6.25-5.69,5.86-10.5c-0.25-3.06-1.3-5.05-5-4.45c-5.48,0.9-11,1.6-16.51,2.27c-1.73,0.21-3.51,0.03-5.26,0.03
		c-0.08-0.62-0.15-1.23-0.23-1.85c5.09-1.43,10.17-2.87,15.26-4.3c0.03-0.48,0.06-0.97,0.09-1.45c-2.56-0.18-5.17-0.75-7.68-0.46
		c-10.11,1.2-20.17,2.83-30.3,3.88c-1.7,0.18-3.73-1.53-5.4-2.68c-1.34-0.92-2.22-2.48-3.53-3.45c-6.14-4.52-12.33-8.99-18.57-13.38
		c-9.35-6.59-18.95-12.84-28.09-19.71c-9.4-7.07-18.25-14.87-27.57-22.06c-16.66-12.86-33.49-25.49-50.25-38.22
		C218.13,345.3,215.74,342.51,213.34,339.71z"/>
	<path class="st4" d="M78.39,65.94c0.81,0.13,2.07,0.64,2.35,0.32c2.71-3.13,4.88-1.22,7.49,0.7C82.52,74.05,76.86,81,71.31,88.03
		c-1.01,1.28-1.86,2.82-2.33,4.38c-4.16,13.92-8.45,27.82-12.16,41.86c-1.03,3.89-0.11,8.27-0.34,12.42
		c-0.18,3.39,0.46,7.78-1.37,9.92c-4.3,5.01-0.55,9.46-0.44,14.09c0.01,0.5,1.1,0.97,1.69,1.45c-0.15,4.11-1.1,8.4-0.24,12.28
		c1.13,5.08,3.7,9.84,5.66,14.74c-0.54,0.66-1.08,1.31-1.62,1.97c-2.91-6.58-5.99-13.1-8.71-19.76
		c-11.49-28.09-9.95-56.42,0.32-84.22c3.23-8.74,9.75-16.44,15.61-23.95C69.96,69.92,74.66,68.31,78.39,65.94z"/>
	<path class="st3" d="M152.45,469.95c0.04-0.92,0.09-1.84,0.13-2.75c7.86,2.88,15.84,5.45,23.54,8.71
		c10.34,4.39,21.39,3.65,32.11,5.27c9.41,1.42,19.25,1.38,27.65,6.88c3.66,2.4,8.25,4.45,4.75,10.26c-0.14,0.24,0.64,1.04,0.99,1.58
		c0.03,0.91,0.06,1.82,0.09,2.73c1.32,4.45,1.06,8.09-4.6,8.97c-0.97,0.15-1.93,0.34-2.9,0.51c-4.55-1.67-9.1-3.34-13.66-5.01
		c1.75-4.25,5.3-1.06,7.88-1.89c0.69,0.31,1.37,0.62,2.05,0.93c0.36,0.24,0.72,0.49,1.09,0.73c0.08-0.13,0.17-0.26,0.25-0.39
		c-0.44-0.12-0.88-0.25-1.32-0.37c-0.63-0.37-1.26-0.74-1.89-1.11c-2.74-1.6-5.52-3.13-8.19-4.83c-0.96-0.61-1.65-1.65-2.46-2.49
		c1.13-0.24,2.49-1.01,3.36-0.64c5.48,2.36,10.85,4.97,16.11,7.43c1.06-7.28-7.7-6.99-11.19-11.11c0.23-0.35,0.46-0.71,0.69-1.06
		c3.17,0.59,6.35,1.18,9.52,1.78c-3.56-2.82-7.22-5.58-11.27-6.37c-8.73-1.72-17.68-2.35-26.51-3.6
		c-6.52-0.92-13.06-1.84-19.47-3.29c-4.99-1.13-9.8-3.07-14.69-4.65c-1.57-0.71-3.17-1.34-4.69-2.14
		C157.34,472.72,154.9,471.31,152.45,469.95z"/>
	<path class="st5" d="M102.41,40.21c-3.75,1.48-5.15,4.72-7.25,7.89c-2.17,3.27-6.99,4.79-10.65,7.07c-0.02-1.05-0.04-2.1-0.06-3.15
		c0.64-2.94,1.29-5.87,1.93-8.81c2.07-1.7,4.13-3.41,6.32-5.21c-0.4-0.25-0.91-0.58-1.43-0.91c3.14-3.96,6.28-7.92,9.42-11.88
		c3.26-2.83,3.29-6.13,1.43-9.71c5.79-1.14,11.58-2.29,17.37-3.43c5.76,4.18,11.7,3.99,17.76,0.71c0.31,1.5,0.61,3,0.92,4.51
		c-0.35,0.64-0.69,1.29-1.04,1.93c-0.83-0.02-1.69-0.18-2.48-0.02c-2.22,0.45-4.9,0.48-6.44,1.79c-0.87,0.74,0.13,3.69,0.35,6.4
		c-0.54,0.32-1.78,1.06-3.03,1.79c-2.64,0.42-5.28,0.83-7.92,1.25c-0.09-0.45-0.17-0.9-0.26-1.35c2.92-1.21,5.84-2.43,8.78-3.65
		c-3.62-6.49-9.04-4.31-13.71-2.96c-1.77,0.51-2.77,3.69-4.45,6.14c3.15,0.18,5.05,0.29,6.95,0.4c-1.9,2.14-3.79,3.74-5.7,3.76
		C103.95,32.82,102.4,35.65,102.41,40.21z"/>
	<path class="st6" d="M147.39,270.16c-1.86-0.66-3.79-1.18-5.57-2.02c-14.5-6.83-29.69-7.14-45.17-4.91
		c0.26-2.35,0.53-4.69,0.79-7.04c0.12-0.32,0.17-0.64,0.15-0.98c0.45-1.38,0.9-2.75,1.35-4.13c1.58,0.42,3.17,0.81,4.75,1.26
		c6.43,1.83,12.82,3.77,19.28,5.46c2.96,0.77,5.23,0.27,3.54-3.7c4.2-0.44,8.44-0.6,12.58-1.37c10.07-1.86,19.85-4.64,28.45-10.53
		c0.01,1.47,0.02,2.94,0.03,4.4c-4.52,2.25-8.92,4.81-13.61,6.63c-2.93,1.14-4.75,2.39-5.03,5.69
		C148.63,262.69,147.93,266.42,147.39,270.16z"/>
	<path class="st3" d="M126.53,254.1c1.69,3.97-0.58,4.47-3.54,3.7c-6.46-1.69-12.86-3.63-19.28-5.46c-1.57-0.45-3.17-0.84-4.75-1.26
		c-2.75-2.43-5.37-5.04-8.28-7.25c-14.59-11.09-24.95-25.16-30.51-42.69c0.54-0.66,1.08-1.31,1.62-1.97
		c1.24,1.66,2.48,3.33,3.73,4.99c4.37,9.39,10.01,17.88,17.48,25.16c4.59,4.47,8.54,9.65,13.37,13.83
		c7.4,6.41,17.35,6.86,26.15,10.01c0.69,0.3,1.39,0.59,2.08,0.89C125.24,254.06,125.88,254.08,126.53,254.1z"/>
	<path class="st7" d="M137.24,12.78c-6.06,3.28-12,3.47-17.76-0.71c-0.8-1.07-1.37-2.61-2.43-3.13c-5.77-2.82-11.63-2.46-16.88,1.09
		c-3.48,2.35-6.41,5.5-9.59,8.3c-1.34-1.97-2.68-3.94-4.02-5.91c2.89-2.78,5.78-5.57,8.68-8.35c4.45-1.35,8.89-2.71,13.34-4.06
		c0.97,0.04,1.94,0.08,2.91,0.13c1.32,0.73,2.57,3.65,4.04,0.13c1.03,0.06,2.06,0.12,3.09,0.18c0.77,0.19,1.54,0.39,2.31,0.58
		c0.54,0.15,1.08,0.29,1.62,0.44c0.39,0.22,0.78,0.44,1.17,0.66c0.26,0.2,0.51,0.41,0.77,0.61c1.08,0.46,2.16,0.92,3.24,1.38
		C130.88,6.99,134.06,9.89,137.24,12.78z"/>
	<path class="st8" d="M91.26,37.1c0.52,0.33,1.03,0.66,1.43,0.91c-2.18,1.8-4.25,3.5-6.32,5.21c-1.48-1.9-2.95-3.8-4.8-6.18
		c-2.6,3.64-5.95,7.19-4.41,11.74c0.58,1.71,4.75,2.2,7.29,3.24c0.02,1.05,0.04,2.1,0.06,3.15c0.01,1.03,0.02,2.05,0.03,3.08
		c-4.4,2.15-8.12,0.52-11.13-2.57c-3.67-3.77-4.39-8.65-2.41-13.33c1.57-3.71,4.25-6.95,6.43-10.4c3.76,1.65,7.52,3.3,11.28,4.93
		c0.03,0.01,0.18-0.25,0.27-0.39C89.74,36.7,90.5,36.9,91.26,37.1z"/>
	<path class="st3" d="M167.59,246.61c-0.01-1.47-0.02-2.94-0.03-4.41c17.64-11.29,30.14-26.99,39.84-45.89
		c0.39,1.3,0.78,2.6,1.17,3.9l0.01-0.02c-0.01,0.49-0.01,0.99-0.02,1.48c-0.37,0.8-0.73,1.59-1.1,2.39
		c-6.41,8.78-12.14,18.17-19.43,26.14C182.2,236.57,174.47,241.21,167.59,246.61z"/>
	<path class="st8" d="M86.55,12.41c1.34,1.97,2.68,3.94,4.02,5.91c0.07,0.72,0.15,1.44,0.18,1.73c3.92-1.57,7.64-3.06,11.36-4.54
		c1.86,3.58,1.84,6.88-1.43,9.71c-0.68-0.39-1.56-1.27-2-1.09c-2.11,0.88-4.11,2.06-6.14,3.13c-1.82-1.05-3.64-2.11-6.35-3.68
		c-0.52,0.07-2.25,0.31-3.97,0.56C83.67,20.22,85.11,16.32,86.55,12.41z"/>
	<path class="st7" d="M207.47,204.06c0.37-0.8,0.73-1.59,1.1-2.39c0.01-0.49,0.01-0.99,0.02-1.48l-0.01,0.02
		c0.64-0.71,1.28-1.41,1.92-2.12c0.89-0.22,1.78-0.44,2.67-0.66c-0.04-0.32-0.09-0.63-0.13-0.95c-0.77-0.09-1.54-0.18-2.3-0.26
		c0.25-1.69,0.49-3.38,0.74-5.08c5.4,2.5,5.59,6.61,3.77,11.54c-0.74,2-2.18,4.51,1.43,5.54c-0.41,1.35-0.53,2.91-1.29,4.02
		c-1.92,2.81-4.36,2.64-5.68-0.47C208.65,209.34,208.18,206.64,207.47,204.06z"/>
	<path class="st7" d="M146.83,45.28c-0.5-0.02-1.03-0.17-1.49-0.04c-9.91,2.75-9.91,2.75-12.85-9.96c3.78,2.38,6.55,4.12,8.99,5.65
		c1.32-1.68,3-3.83,4.68-5.97c1.5,2.3,2.99,4.59,4.73,7.25C149.35,43.37,148.09,44.32,146.83,45.28z"/>
	<path class="st7" d="M82.22,24.13c1.72-0.24,3.45-0.48,3.97-0.56c2.71,1.57,4.53,2.62,6.35,3.68c-3.71,2.11-5.43,4.99-3.57,9.25
		c-0.09,0.14-0.24,0.4-0.27,0.39c-3.77-1.63-7.53-3.28-11.28-4.93c1.29-1.57,2.58-3.15,3.87-4.72c0.27-0.92,0.54-1.84,0.82-2.76
		C82.11,24.47,82.22,24.13,82.22,24.13z"/>
	<path class="st9" d="M231.55,420.02c7.4,4.67,14.8,9.34,22.19,14C246.17,434.27,233.4,426.21,231.55,420.02z"/>
	<path class="st8" d="M108.56,0c-4.45,1.35-8.89,2.71-13.34,4.06C99.67,2.71,104.12,1.35,108.56,0z"/>
	<path class="st8" d="M137.11,19.22c0.35-0.64,0.69-1.29,1.04-1.93c0.85,2.9,1.7,5.8,2.56,8.7
		C139.51,23.73,138.31,21.47,137.11,19.22z"/>
	<path class="st8" d="M115.5,0.26c-1.46,3.52-2.71,0.6-4.04-0.13C112.81,0.17,114.16,0.21,115.5,0.26z"/>
	<path class="st7" d="M145.18,34.22c-0.49-1.15-0.99-2.3-1.48-3.46C144.19,31.91,144.68,33.06,145.18,34.22z"/>
	<path class="st8" d="M127.7,4.1c-1.08-0.46-2.16-0.92-3.24-1.38C125.54,3.18,126.62,3.64,127.7,4.1z"/>
	<path class="st8" d="M82.11,24.47c-0.27,0.92-0.54,1.84-0.82,2.76C81.56,26.31,81.84,25.39,82.11,24.47z"/>
	<path class="st7" d="M142.01,28.23c-0.45-0.74-0.91-1.49-1.36-2.23C141.1,26.75,141.56,27.49,142.01,28.23z"/>
	<path class="st8" d="M120.9,1.02c-0.77-0.19-1.54-0.39-2.31-0.58C119.36,0.63,120.13,0.82,120.9,1.02z"/>
	<path class="st7" d="M146.5,47.19c-0.18-0.31-0.37-0.61-0.55-0.92C146.13,46.57,146.31,46.88,146.5,47.19z"/>
	<path class="st8" d="M123.69,2.11c-0.39-0.22-0.78-0.44-1.17-0.66C122.91,1.67,123.3,1.89,123.69,2.11z"/>
	<path class="st10" d="M210.49,198.1c-0.64,0.71-1.28,1.41-1.92,2.12c-0.39-1.3-0.78-2.6-1.17-3.9c-9.7,18.9-22.21,34.6-39.84,45.89
		c-8.6,5.89-18.38,8.67-28.45,10.53c-4.14,0.77-8.38,0.93-12.58,1.37c-0.64-0.02-1.28-0.05-1.93-0.07c-0.7-0.3-1.39-0.59-2.08-0.89
		c-8.8-3.15-18.74-3.61-26.15-10.01c-4.83-4.18-8.78-9.35-13.37-13.83c-7.47-7.28-13.1-15.76-17.48-25.16
		c3.05-0.06,6.12,0.07,9.13-0.31c0.64-0.08,1.06-1.98,1.58-3.05c-1.07-0.21-2.48-0.96-3.15-0.54c-3.45,2.19-5.53,0.07-7.01-2.35
		c-4.94-8.09-8.32-16.73-5.3-26.32c0.79-2.5,2.94-5.33,5.21-6.34c1.72-0.76,4.74,0.89,6.95,1.95c1.61,0.77,2.86,2.32,4.26,3.53
		c-0.21-2.08-0.42-4.15-0.63-6.23c-0.02-0.17-0.02-0.33-0.04-0.5c5.37,1.97,5.37,1.97,7.98-5.33c1.02,10.83,2.04,21.65,3.06,32.48
		c-1.35,2.36-3.37,4.58-3.93,7.11c-1.3,5.9,3.7,7.49,7.48,10.18c6.84,4.88,13.97,4.74,21.28,2.14c4.12-1.46,5.65-4.8,4.32-9.2
		c-2.43-8.02-10.42-13.16-18.88-12.18c-1.15,0.13-2.36-0.18-3.54-0.29c1.96-12.91,3.76-25.85,5.93-38.72
		c1.14-6.75,2.93-13.38,4.42-20.07c1.43-4.69,2.87-9.38,4.3-14.07c0.32,0.01,0.63,0.02,0.95,0.02c0.57,3.88,1.03,7.79,1.76,11.65
		c0.46,2.41,1.29,4.83,4.57,2.6c1.61,0.93,3.17,2.56,4.83,2.66c4.92,0.3,9.89-0.29,14.81,0c8.36,0.5,16.69,1.77,25.05,1.96
		c2.61,0.06,5.27-2.35,7.91-3.63c0.65-1.41,1.31-2.82,1.96-4.23c0.5-0.16,1.01-0.32,1.51-0.48c0.58,1.61,1.16,3.22,1.74,4.83
		c-2.53,4.68,1.37,6.2,4.22,6.79c5.31,1.1,10.84,1.16,16.28,1.65c0.94,1.1,2.25,2.05,2.75,3.32c1.92,4.97,3.33,10.15,5.46,15.02
		c0.92,2.09,3.14,3.61,4.77,5.39c0.49-0.3,0.99-0.6,1.48-0.91c0.82,9.48,1.63,18.95,2.45,28.43c-0.25,1.69-0.49,3.38-0.74,5.08
		C210.64,196.85,210.57,197.47,210.49,198.1z M177.24,200.18c-1.16,0-2.36-0.18-3.49,0.03c-4.47,0.82-8.48,2.89-9.99,7.24
		c-1.44,4.14,0.65,7.72,4.02,10.48c4.87,4,17.68,3.97,22.5-0.03c2.88-2.38,3.9-4.94,2.46-8.72
		C190.51,203.35,185.46,200.18,177.24,200.18z M123.68,212.71c0.22,1.54,0.12,2.14,0.37,2.46c6.6,8.39,19.72,10.17,28.19,3.78
		c0.58-0.44,1.08-1.88,0.79-2.35c-0.4-0.65-1.65-1.25-2.41-1.12c-1.44,0.25-2.83,0.94-4.17,1.6c-5.73,2.8-11.09,2.78-16.3-1.41
		C128.54,214.35,126.26,213.84,123.68,212.71z M161.77,190.65c0.14,0.57,0.29,1.15,0.43,1.72c2.03-0.41,4.29-0.39,6.05-1.32
		c5.37-2.84,9.48-1.26,13.09,3c0.86,1.01,1.53,2.25,2.57,3.01c0.76,0.56,1.98,0.51,2.99,0.73c0.09-0.92,0.62-2.34,0.22-2.69
		c-3.81-3.29-7.34-7.76-11.81-9.17C170.67,184.46,165.7,187.48,161.77,190.65z M96.69,184.52c7.95-4.13,15.19-8.35,21.48,0.71
		c0.16,0.24,0.59,0.44,0.87,0.42c0.61-0.05,1.49-0.08,1.74-0.46c0.37-0.58,0.64-1.9,0.35-2.12c-3.47-2.67-7.01-7.16-10.63-7.25
		c-4.56-0.11-9.22,3.37-13.78,5.43C96.44,181.38,96.69,182.7,96.69,184.52z M66.26,176.96c0.52,2.94,1.02,5.03,1.23,7.16
		c0.19,1.97-0.13,4.79,2.8,3.81c1.75-0.59,3.67-3.06,3.97-4.93c0.33-2.05-0.79-4.59-1.93-6.53c-0.78-1.32-2.69-1.98-4.09-2.94
		C67.48,174.84,66.72,176.15,66.26,176.96z M171.9,163.38c5.49,4.69,9.68,8.27,13.86,11.84c-0.29-5.31-2.51-9.25-6.96-11.3
		C176.99,163.08,174.56,163.55,171.9,163.38z M101.16,161.12c0.08,0.51,0.17,1.02,0.25,1.53c5.19-0.47,10.38-0.94,17.21-1.55
		c-2.13-1.56-3.44-3.26-5.01-3.54C108.89,156.68,104.81,158.44,101.16,161.12z"/>
	<path class="st4" d="M168.83,131.33c-2.64,1.28-5.3,3.68-7.91,3.63c-8.36-0.18-16.69-1.45-25.05-1.96c-4.92-0.3-9.89,0.3-14.81,0
		c-1.66-0.1-3.23-1.73-4.83-2.66c1.26-0.38,2.53-0.71,3.77-1.16c2.3-0.82,4.57-1.71,6.78-3.04c9.72,0.42,19.37,0.88,26.31-8.31
		c0.44-0.58,1.93-0.26,2.78-0.68c1.76-0.86,3.44-1.91,5.12-2.93c0.9-0.55,1.89-1.84,2.55-1.67c0.84,0.21,1.69,1.47,2,2.45
		c1.19,3.71,0.05,6.75-3.07,9.08c-0.69,0.51-1.34,1.08-1.61,2.56c1.35-0.32,2.71-0.64,2.64-0.62
		C165.7,128.21,167.26,129.77,168.83,131.33z"/>
	<path class="st5" d="M104.65,130.13c-1.49,6.69-3.28,13.32-4.42,20.07c-2.17,12.87-3.98,25.81-5.93,38.72
		c-1.34,3.48-4.24,2.24-6.73,2.23c-1.02-10.83-2.04-21.65-3.06-32.48c0.51-1.82,1.03-3.64,1.73-6.11c5.87,3.55,1.43,9.4,4.67,13.93
		c2.01-8.55,4.08-16.23,5.54-24.03C97.46,137.03,99.29,132.51,104.65,130.13z"/>
	<path class="st6" d="M76.52,164c0.01,0.17,0.02,0.33,0.04,0.5c0.21,2.08,0.42,4.15,0.63,6.23c-1.41-1.2-2.65-2.75-4.26-3.53
		c-2.21-1.06-5.23-2.71-6.95-1.95c-2.27,1-4.43,3.84-5.21,6.34c-3.02,9.6,0.35,18.23,5.3,26.32c1.48,2.42,3.56,4.53,7.01,2.35
		c0.67-0.42,2.08,0.33,3.15,0.54c-0.52,1.06-0.93,2.97-1.58,3.05c-3.01,0.38-6.08,0.26-9.13,0.31c-1.24-1.66-2.48-3.33-3.73-4.99
		c-1.95-4.9-4.53-9.66-5.66-14.74c-0.87-3.88,0.09-8.17,0.24-12.28c1.4-5.75,3.53-11.27,10.51-11.29
		C70.09,160.84,73.31,162.89,76.52,164z"/>
	<path class="st7" d="M102.41,40.21c-0.01-4.55,1.55-7.39,6.8-7.45c1.91-0.02,3.8-1.62,5.7-3.76c-1.9-0.11-3.8-0.22-6.95-0.4
		c1.68-2.45,2.68-5.62,4.45-6.14c4.67-1.35,10.09-3.53,13.71,2.96c-2.94,1.22-5.86,2.44-8.78,3.65c0.09,0.45,0.17,0.9,0.26,1.35
		c2.64-0.42,5.28-0.83,7.92-1.25c-0.29,2.67-1.7,3.57-4.41,4.26c-3.16,0.81-7.64,0.24-8.74,4.98c-1.61,0.08-3.27-0.03-4.83,0.3
		c-1.63,0.34-3.16,1.1-4.74,1.67C102.8,40.4,102.41,40.21,102.41,40.21z"/>
	<path class="st4" d="M194.54,139.89c-5.44-0.49-10.96-0.56-16.28-1.65c-2.86-0.59-6.76-2.11-4.22-6.79c0.89,3.9,3,5.07,6.9,3.6
		c1.51-0.57,3.53,0.33,5.19-0.03c1.62-0.35,3.09-1.44,4.9-2.35C192.16,135,193.35,137.44,194.54,139.89z"/>
	<path class="st11" d="M102.8,40.4c1.58-0.57,3.11-1.33,4.74-1.67c1.56-0.33,3.22-0.22,4.83-0.3c-1.07,1.21-1.93,2.77-3.25,3.54
		c-1.96,1.14-4.24,1.71-6.61,2.6C102.6,43.26,102.7,41.83,102.8,40.4z"/>
	<path class="st12" d="M20.43,388.94c2.05-21.65,8.33-41.82,20.82-59.84c9.95-3.14,19.92-6.19,29.78-9.57
		c0.82-0.28,1.57-2.99,1.18-4.2c-2.37-7.44-5.07-14.77-7.66-22.14c7.05-9.75,15.55-17.95,25.89-24.17
		c-0.72,3.85,1.33,8.58-4.13,10.99c-0.86,0.38-0.59,6.33,0.02,6.49c4.75,1.26,3.45,4.87,3.2,7.65c-0.41,4.71,1.04,6.94,6,6.14
		c0.97-0.16,1.99-0.05,2.98-0.06c2.33-0.03,4.67-0.06,7-0.09c4.87,0.78,9.74,1.56,14.66,2.35c0.64-3.27-0.1-6.83,4.34-5.34
		c3.33,0.82,6.64,1.87,10.02,2.36c1.45,0.21,3.07-0.76,4.62-1.19c-0.88-1.53-1.44-4-2.71-4.44c-4.81-1.67-9.85-2.68-14.81-3.93
		c1.06-0.9,2.03-2.39,3.2-2.57c2.58-0.4,5.27,0.02,7.9-0.2c2.28-0.19,5.78,1.52,5.8-3.05c0.02-4.48-3.44-3.62-6.05-3.74
		c-3.49-0.16-7-0.04-10.49-0.04c-0.04-0.45-0.08-0.9-0.11-1.35c1.22-0.61,2.43-1.22,3.65-1.82c4-1.34,7.99-2.69,11.99-4.03
		c0-0.63-0.01-1.27-0.01-1.9c4.45,1.65,9.24,2.73,13.29,5.07c7.86,4.55,15.31,9.82,22.93,14.79c-1.22,0.08-2.46,0.33-3.66,0.22
		c-13.81-1.3-15.54,0.23-15.63,13.89c-0.01,0.83,0.03,1.66-0.01,2.49c-0.27,5.12-1.08,10.28-0.59,15.32c0.2,2.08,3.14,3.9,4.84,5.84
		c0.61-0.59,1.22-1.17,1.83-1.76c6.43,0.79,12.86,1.58,20.11,2.47c1.05-1.51,2.4-3.44,3.74-5.36c0.39-7.87,0.78-15.74,1.17-23.61
		c8.65,7.78,17.32,15.53,25.89,23.39c0.73,0.67,0.82,2.04,1.2,3.08c-0.37,0.69-0.74,1.37-1.12,2.06c-2.45,1.26-4.93,2.48-7.35,3.8
		c-1.81,0.99-3.77,2.03-1.64,4.5c0.99,1.25,1.99,2.5,2.98,3.76c-0.62,2.16-0.86,4.54-1.93,6.45c-6.27,11.27-12.74,22.43-19.14,33.62
		c-1.14-1-2.56-1.81-3.37-3.03c-4.88-7.33-9.62-14.75-14.41-22.14c-3.27-1.13-6.54-2.27-9.81-3.4c-1.04-2.23-2.07-4.47-3.11-6.7
		c-2.45,3.53-8.26,5.99-2.33,10.23c-0.33,2.97-0.66,5.95-0.99,8.92c0.79,1.93,1.52,3.89,2.38,5.78c2.19,4.81,4.44,9.6,6.66,14.39
		c-2.75-0.84-5.5-1.68-8.25-2.52c-0.55,0.42-1.11,0.84-1.66,1.26c10.9,4.66,6.5,12.15,4.98,19.12c-2.64-1.38-5.29-2.76-7.93-4.14
		c-2.3-2.02-4.61-4.03-6.91-6.05c-8.72-6.37-17.39-12.8-26.22-19.01c-1.14-0.8-3.11-0.41-4.7-0.58c-0.48-0.46-0.96-0.92-1.44-1.38
		c-2.5-1.76-4.87-3.76-7.55-5.18c-1.27-0.67-3.12-0.23-4.71-0.3c0.55,1.71,0.63,3.89,1.75,5.06c3.32,3.43,7.05,6.45,10.63,9.64
		c3.91,2.98,7.65,6.21,11.76,8.88c5.59,3.62,11.46,6.81,17.22,10.19c1.02,0.96,2.04,1.93,3.06,2.89c4.65,3.68,9.29,7.36,13.94,11.04
		c-1.14,12.36-2.41,24.71-3.38,37.09c-1.19,15.18-5.01,30.22-2.56,45.6c0.31,1.96,0.99,3.89,1.06,5.85
		c0.13,3.55,0.25,6.57-4.81,7.81c-8.64,2.12-16.95,5.56-25.48,8.21c-1.81,0.56-4.34,0.79-5.87-0.05
		c-9.13-5.02-16.79-2.14-23.52,4.31c-4.26,4.08-8.92,6.79-14.74,7.57c-13.18,1.77-24.33,8.38-35.52,14.89
		c-0.7-0.68-1.56-1.26-2.07-2.06c-5.37-8.36-10.62-16.79-16.07-25.09c-1.03-1.57-2.66-3.61-4.22-3.82
		c-4.96-0.65-7.94-3.35-10.07-7.53c-0.23-0.44-1.13-0.54-1.73-0.8c0.35-6.73,0.71-13.46,1.06-20.19c3.48,2.56,7.3,2.46,11.43,2.08
		c4.04-0.37,8.42-0.55,12.21,0.62c4.92,1.52,5.89-1.3,7.18-4.52c0.42-7.66,0.15-15.45,1.51-22.94c0.86-4.72-0.24-6.76-4.3-8.07
		c-8.79-1.3-17.6-3.98-26.37,0.12c3.19-16.36,6.37-32.72,9.56-49.07c0.33,2.42,0.66,4.84,0.98,7.25
		c-1.81,7.64-3.61,15.29-5.41,22.93c0.74,0.39,1.48,0.79,2.21,1.18c1.61-1.53,3.21-3.07,4.82-4.6c2.37-4.58,4.75-9.15,7.12-13.73
		c2.13-5.64,4.27-11.27,6.4-16.91c2.66-6.99,5.31-13.98,7.97-20.97c1.53-5.07,3.21-10.1,4.48-15.23c0.26-1.05-0.83-3.4-1.58-3.53
		c-1.51-0.27-4.13,0.06-4.69,1.06c-2.64,4.62-4.74,9.55-7.03,14.37c-2.78,6.71-5.57,13.42-8.35,20.13
		C22.56,393.75,21.5,391.35,20.43,388.94z M97.51,330.14c-0.34,0.02-0.68,0.04-1.02,0.07c-1.66,0.48-3.32,0.97-4.98,1.45
		c-0.94,0.1-1.88,0.2-2.83,0.3c-0.64-0.07-1.29-0.14-1.93-0.22c-0.79,0.08-1.57,0.16-2.36,0.24c-1.76,0.64-3.52,1.28-5.28,1.91
		c-3.19,0.08-3.88,2.23-3.5,4.73c0.37,2.5-0.29,5.97,4,5.94c3.27-0.23,6.53-0.46,9.8-0.69c8.38-1.61,16.75-3.22,25.13-4.83
		c4.04-1.99,8.08-3.98,12.12-5.97c-0.15-0.83-0.3-1.66-0.45-2.49c-5.23-0.8-10.46-1.6-15.7-2.41c-3.67,0.63-7.34,1.25-11.01,1.88
		C98.84,330.09,98.17,330.11,97.51,330.14z M53.34,496.01c0.12,0.91-0.1,2.18,0.42,2.68c8.23,7.99,16.51,15.92,24.92,23.71
		c0.73,0.67,2.44,0.29,3.69,0.4c4.1-4.55,8.2-9.09,12.29-13.64c2.55-2.45,5.37-4.69,7.5-7.47c0.71-0.92,0.27-3.79-0.67-4.75
		c-5.42-5.52-11.04-10.86-16.82-16c-2.25-2-5.09-3.35-7.66-5c-0.46-0.9-0.91-1.81-1.97-3.9c-0.94,3.17-1.51,5.08-1.96,6.61
		c-1.91,0.66-4,0.72-4.81,1.77c-4.08,5.25-7.34,11.24-14.02,13.89C53.79,494.49,53.64,495.43,53.34,496.01z M59.66,428.1
		c8.6,5.04,17.19,10.08,25.79,15.12c2.76,1.75,4.57,1.4,6.16-1.84c3.04-6.18,6.72-12.05,9.77-18.22c2.07-4.19,3.51-8.69,5.23-13.05
		c-1.08-4.91-2.03-9.85-3.33-14.69c-0.24-0.91-1.84-1.46-2.82-2.18c-5.63-3.29-11.17-6.73-16.9-9.82c-5.7-3.08-6.27-2.92-9.39,2.84
		c-6.6,12.17-12.93,24.49-19.52,36.67c-1.86,3.44-1.09,4.59,2.67,4.11C58.09,427.39,58.88,427.75,59.66,428.1z M134.45,508.06
		c0.65-1.47,1.84-2.92,1.87-4.4c0.2-12.82,0.43-25.65,0.12-38.47c-0.1-4.26-1.76-8.49-2.71-12.73c-0.69-0.09-1.38-0.18-2.07-0.26
		c-1.4,3.94-3.73,7.81-4.04,11.83c-0.81,10.6-0.78,21.26-0.98,31.9c-0.03,1.39,0.58,2.8,0.9,4.2
		C126.85,508.25,127.16,508.6,134.45,508.06z M128.02,413.63c-2.06,1.27-6.06,2.34-7.14,4.73c-1.71,3.79-1.57,8.46-1.92,12.78
		c-0.04,0.55,1.58,1.44,2.57,1.83c1.84,0.73,3.77,1.27,5.69,1.78c9.16,2.4,16.43-3.89,15.19-13.4c-0.22-1.66-1.71-3.84-3.19-4.5
		C136.1,415.44,132.6,414.87,128.02,413.63z"/>
	<path class="st12" d="M202.48,508.24c13.47,0.1,25.85,4.23,36.41,12.19c3.94,2.97,5.49,9.11,8.12,13.81
		c-2.15-0.73-4.65-0.99-6.36-2.28c-4.12-3.12-6.15-0.99-7.99,2.47c-6.72,12.64-13.4,25.3-20.21,37.89
		c-1.99,3.68-0.17,3.99,2.79,3.68c0.8,0.36,1.6,0.73,2.4,1.09c6.85,4.06,13.69,8.11,20.54,12.17c-0.26,1-0.2,2.27-0.81,2.95
		c-12.26,13.51-26.54,24.43-42.77,32.79c0.31-5.29,0.63-10.58,0.94-15.87c2.35-4.28-0.28-6.41-3.79-6.94
		c-6.84-1.03-13.78-1.71-20.7-1.85c-3.92-0.08-6.26,2.82-6.48,6.81c-0.2,3.65-0.05,7.31-0.06,10.96c0.4,0.39,0.8,0.77,1.19,1.16
		c0.28,0.09,0.57,0.16,0.86,0.22c-0.01,0.82-0.02,1.64-0.03,2.45c-0.94,0.99-2.47,1.85-2.7,2.98c-0.45,2.23-0.22,4.6-0.21,6.92
		c0.03,4.93,1.52,6.12,6.7,5.77c0.73-0.05,1.54,0.88,2.31,1.35c-4.71,3.04-9.42,6.08-14.13,9.13c0.32-6.77,0.79-13.54,0.84-20.31
		c0.01-1.21-1.67-2.43-2.57-3.64c-0.96,0.85-2.66,1.61-2.77,2.56c-0.58,4.85-1.53,9.87-0.82,14.6c0.51,3.36-3.94,6.98,0.57,9.91
		c-3.81,2.85-7.94,5.37-11.34,8.66c-2.77,2.68-4.67,6.26-7.22,9.81c-9.49-6.99-18.65-13.75-27.82-20.5
		c2.44-0.36,4.88-0.92,7.33-1.05c7.44-0.41,13.3-3.86,19.08-9.37c-7.38-3.19-14.23-4.67-21.68-3.23c-5.52,1.07-11.13,1.7-16.69,2.57
		c-1.99,0.31-3.96,0.73-5.95,1.1c-1.76-0.12-3.51-0.23-5.81-0.38c8.35-12.65,19.47-21.85,30.66-30.98c1.97,0.2,4.06,0.03,5.87,0.68
		c6.77,2.42,7.18,2.32,9-4.54c4.1,0.86,8.21,1.93,12.39,2.5c1.43,0.2,3.03-0.83,4.55-1.3c-0.92-1.51-1.54-3.94-2.82-4.37
		c-4.82-1.64-9.87-2.62-14.83-3.85c1.01-0.93,2.03-1.86,3.04-2.79c3.65,0.01,7.32,0.21,10.95-0.07c1.07-0.08,2.84-1.47,2.86-2.31
		c0.04-1.25-1.03-2.66-1.92-3.78c-0.44-0.55-1.5-0.62-2.28-0.9c5.07-3.48,10.26-6.79,15.14-10.52c2.26-1.73,3.91-4.26,5.84-6.43
		c-0.4-0.45-0.8-0.9-1.2-1.35c-4.8,3.18-9.61,6.35-14.41,9.52c-0.2-2.62-1.45-3.29-4.04-2.72c-4.43,0.98-8.93,1.6-13.39,2.37
		c-0.99-5.8-1.64-6.29-5.61-5.94c-5.74,0.51-11.5,0.99-17.25,1.08c-8.29,0.12-8.29-0.04-9.17,8.06c-0.18,1.65-0.39,3.29-0.59,4.93
		c-1.08,1.03-2.16,2.07-3.23,3.1l-0.04,0.46c0.16,1.44,0.16,4.09,0.5,4.14c3.54,0.47,2.97,2.98,2.98,5.26
		c0.02,8.42,0.02,8.42,8.49,8.86c0.83,0.04,1.66,0.1,2.49,0.15c-5.32,4.92-10.23,10.44-16.14,14.5c-2.98,2.05-7.76,1.47-11.73,2.08
		c-4.42-13.36-8.8-26.74-13.37-40.05c-0.29-0.85-2.36-1.89-3.19-1.62c-5.31,1.76-10.52,3.86-15.75,5.85
		c-0.65,0.44-1.3,0.88-1.95,1.32l0.05-0.03c-4.72,1.67-9.45,3.35-14.17,5.02c-1.31,0.35-2.61,0.7-3.92,1.05
		c-1.04-0.89-2.6-1.57-3.03-2.69c-3.06-7.93-5.92-15.94-8.77-23.95c-0.58-1.62-0.85-3.35-1.34-5.33c2.88-1.59,5.99-3.29,9.1-5
		c1.34,2.31,2.68,4.62,4.02,6.93c0.75,1.58,1.51,3.16,2.53,5.31c5.33-3.32,10.3-6.16,14.96-9.44c2.73-1.93,1.6-3.92-0.97-5.28
		c-1.18-2.55-2.37-5.1-3.55-7.65c11.47-7.16,23.31-13.07,36.95-15.39c4.84-0.82,9.3-4.65,13.6-7.59c4.91-3.35,9.2-7.99,16.03-5.32
		c0.54,0.21,1.05,0.5,2.58,1.23c-5.03,2.16-9.15,3.92-13.26,5.68c0.07,0.58,0.13,1.16,0.2,1.73c1.96-0.09,4.08,0.28,5.85-0.35
		c7.19-2.55,14.22-5.54,21.4-8.14c24.82-8.99,50.15-15.17,76.84-13.65c-7.06,3.76-7.99,11.22-10.66,17.64
		c-2.78,6.74-5.56,13.49-8.34,20.23c-0.46-1.01-0.74-2.19-1.45-2.97c-0.55-0.6-1.7-1.04-2.49-0.93c-0.75,0.11-1.98,1.06-1.96,1.6
		c0.22,5.13,0.66,10.24,1.04,15.36c-3.54,6.65-5.41,13.71-5.07,21.26c0.06,1.46,0.67,2.89,1.03,4.33c1.29-1.6,2.58-3.2,3.88-4.81
		c2.61-4.27,5.23-8.54,7.84-12.81c2.02-6.38,4.04-12.75,6.06-19.13c0.66-1.31,1.33-2.61,1.99-3.92c2.12-4.94,4.23-9.88,6.35-14.81
		c1.47-3.12,3.63-6.11,4.21-9.39C203.65,515.54,202.73,511.83,202.48,508.24z M148.52,517.14c-3.71,0.35-7.51,0.32-11.11,1.16
		c-2.51,0.59-4.74,2.37-7.1,3.62c-5.41,2.94-8.31,7.29-7.89,13.64c0.32,4.78,3.11,7.81,7.38,8.75c3.6,0.79,7.54,0.67,11.24,0.21
		c2.61-0.32,4.46-0.7,5.41,2.38c0.26,0.82,1.4,1.61,2.3,1.88c0.37,0.11,1.39-1.11,1.72-1.89c1.75-4.22,3.37-8.49,5.04-12.75
		c0.37-0.38,0.74-0.76,1.11-1.14c1.03-0.74,2.58-1.25,3.02-2.25C163.19,522.73,158.57,517.16,148.52,517.14z M85.7,556.04
		c-0.96-7.2-4.12-10.16-12.16-12.11c-5.53-1.34-6.16,2.97-7.62,6.38c-0.58,1.36-1.58,2.69-1.66,4.08c-0.15,2.52-0.73,6.05,0.63,7.4
		c2.84,2.83,6.66,4.89,10.41,6.49c1.42,0.61,4.71-0.31,5.49-1.57C83.01,563.13,84.39,559.02,85.7,556.04z"/>
	<path class="st13" d="M228.44,505.21c-2.58,0.83-6.12-2.35-7.87,1.89c-17.13-5.59-34.58-4.46-52.07-2.44
		c-0.38-3.56-0.66-7.14-1.17-10.68c-0.86-5.95-1.86-11.88-2.8-17.82c4.89,1.58,9.7,3.52,14.69,4.65c6.41,1.45,12.95,2.37,19.47,3.29
		c8.83,1.25,17.78,1.88,26.51,3.6c4.05,0.8,7.71,3.55,11.27,6.37c-3.17-0.59-6.35-1.18-9.52-1.78c-0.23,0.35-0.46,0.71-0.69,1.06
		c3.49,4.12,12.26,3.82,11.19,11.11c-5.27-2.46-10.64-5.07-16.11-7.43c-0.87-0.37-2.23,0.4-3.36,0.64c0.81,0.84,1.5,1.88,2.46,2.49
		c2.67,1.7,5.45,3.23,8.19,4.83L228.44,505.21z"/>
	<path class="st14" d="M248.28,538.46c8.84,17.01,5.67,34.8-8.52,47.94c-5.44-2.51-10.88-5.02-16.19-7.47
		c1.53-4.42,2.64-7.65,3.76-10.87c2.42-4.65,4.84-9.31,7.26-13.96c2.77-0.45,5.56-0.8,8.31-1.38c1.02-0.22,2.18-0.78,2.79-1.57
		c0.38-0.49,0.15-2.18-0.32-2.46c-0.91-0.53-2.21-0.36-3.3-0.64c-0.89-0.23-1.71-0.69-2.57-1.05c1.21-2.1,2.83-4.07,3.52-6.33
		C243.99,537.47,245.87,537.65,248.28,538.46z"/>
	<path class="st6" d="M196.58,393.09c-3.07-2.37-6.13-4.74-9.2-7.11c3.34-6.61,6.42-13.37,10.07-19.81
		c5.08-8.94,10.58-17.65,15.9-26.45c2.39,2.79,4.79,5.59,7.19,8.38c-4.79,11.2-9.52,22.42-14.38,33.59
		C204.1,386.39,201.68,390.89,196.58,393.09z"/>
	<path class="st14" d="M177.65,294.08c1.7,1.31,3.39,2.62,5.08,3.93c-0.12,7.15-0.14,14.29-0.43,21.43
		c-0.05,1.3-1.21,2.56-1.85,3.84c-1.57,0.07-3.14,0.17-4.7,0.21c-5.06,0.13-10.12,0.24-15.18,0.36c-1.27-0.95-2.54-1.9-3.88-2.89
		c0-6.71-0.03-13.64,0.01-20.56c0.03-4.66,2.08-6.85,7.09-6.39C168.38,294.42,173.03,294.09,177.65,294.08z M169.63,312.19
		c0-0.06,0-0.13,0-0.19c-2,0-4.15-0.46-5.94,0.14c-1.45,0.48-2.47,2.25-3.68,3.44c1.17,1.11,2.23,3.03,3.51,3.19
		c3.77,0.48,7.64,0.18,11.47,0.36c2.55,0.12,3.64-0.86,3.66-3.43c0.01-2.49-0.89-3.72-3.52-3.54
		C173.3,312.29,171.46,312.19,169.63,312.19z"/>
	<path class="st14" d="M166.54,621.95c0.01-0.82,0.02-1.64,0.03-2.46c0.26-4.3,0.27-8.62,0.92-12.85c0.21-1.33,2.09-3.38,3.26-3.42
		c6.12-0.22,12.26-0.06,18.38,0.33c2.41,0.15,4.54,1.39,3.48,4.6c-0.02,6.03-0.03,12.05-0.05,18.08c-1.34,0.66-2.67,1.31-4.01,1.97
		c0.05-6.94,0.05-6.94-6.81-7.08c-2.48-0.05-4.97,0.05-7.43-0.19c-2.67-0.26-4.58,0.8-4.06,3.36c0.29,1.42,2.47,3.3,3.97,3.47
		c4.74,0.52,9.56,0.33,14.35,0.42c-2.64,1.65-5.27,3.31-7.91,4.96c-1.83-0.51-3.66-1.43-5.48-1.41c-2.6,0.03-5.2,0.75-7.8,1.17
		c-0.38,0.12-0.76,0.24-1.14,0.37C166.35,629.48,166.45,625.71,166.54,621.95z"/>
	<path class="st15" d="M234.22,512.11c0.97-0.17,1.93-0.36,2.9-0.51c5.66-0.88,5.92-4.52,4.6-8.97c1.57,0.58,3.45,0.78,4.65,1.79
		c10.77,9.08,15.19,21.43,17.12,34.83c1.01,6.99,2.51,14.17-1.31,20.93c-1.6-0.36-3.19-0.73-4.79-1.09
		c-0.18-1.32-0.36-2.64-0.55-3.95c1.55,0.33,3.11,0.66,4.66,0.99c0.12,0.08,0.25,0.15,0.37,0.23c-0.12-0.08-0.24-0.16-0.37-0.24
		c-0.5-2.2-1-4.41-1.6-7.07c-1.34,0.88-2.26,1.48-3.17,2.08c-2.09-6.6-4.09-13.23-6.31-19.79
		C247.55,522.83,242.6,516.01,234.22,512.11z"/>
	<path class="st16" d="M181.75,385.2c-1.52,3.4-2.86,6.9-4.69,10.12c-0.47,0.82-2.68,1.3-3.79,0.96c-1.8-0.54-3.37-1.89-5.03-2.9
		c-3.52-6.49-6.97-13.01-10.59-19.44c-1.6-2.84-4.08-5.39-1.86-8.97c0.2-0.1,0.36-0.24,0.47-0.44c3.06-1.37,6.11-2.73,10.2-4.56
		C171.28,367.91,176.51,376.55,181.75,385.2z"/>
	<path class="st6" d="M164.52,476.17c0.94,5.94,1.95,11.87,2.8,17.82c0.51,3.54,0.79,7.12,1.17,10.68
		c-3.37,0.77-6.71,1.89-10.11,2.13c-1.59,0.12-4.37-1.09-4.79-2.32c-3.83-11.34-3.84-22.92-1.14-34.53
		c2.46,1.36,4.89,2.77,7.38,4.08C161.35,474.83,162.95,475.46,164.52,476.17z"/>
	<path class="st16" d="M34.64,547.84c-4.32,2.35-8.64,4.7-12.96,7.05c-3.56-6.52-7.02-13.1-10.75-19.52
		c-1.37-2.35-3.4-4.31-5.13-6.45c-0.02-0.54-0.04-1.09-0.07-1.63c0.6-0.74,1.21-1.47,1.81-2.21l-0.06,0.07
		c0.35-0.35,0.71-0.7,1.06-1.06l-0.05,0.04c1.8-0.6,3.79-0.89,5.36-1.87c3.18-1.99,5.3-1.68,7.23,1.75
		c2.57,4.58,5.66,8.87,8.29,13.42C31.32,540.79,32.89,544.36,34.64,547.84z"/>
	<path class="st9" d="M74.5,624.73c-0.66,0-1.31,0-1.97,0c-0.36-0.04-0.73-0.09-1.09-0.13l-0.08-0.25c0.84-2.48,1.96-5.04-1.8-6.18
		c1.93-1.03,2.08-2.03-0.04-3c-0.01-0.7-0.01-1.41-0.02-2.11c-1.26-0.36-2.67-1.28-3.76-0.99c-4.77,1.27-9.45,2.89-14.16,4.38
		c-0.02-0.46-0.04-0.91-0.06-1.37c5.34-2.08,10.69-4.16,16.03-6.23c-0.12-0.43-0.24-0.86-0.36-1.29c-1.19,0-2.38,0-3.58,0
		c-0.03-0.45-0.05-0.89-0.08-1.34c0.67-1.07,1.33-2.13,2-3.2c-0.34-0.64-0.68-1.27-1.02-1.91c-0.24-0.67-0.48-1.35-0.71-2.02
		c-6.24,2.34-12.48,4.68-18.73,7.02c-0.49,0-0.98,0-1.47,0c-1.33-0.36-2.66-0.72-4-1.08c-0.09-1.57-0.18-3.13-0.27-4.7
		c1.03-0.66,2.06-1.32,3.09-1.98c1.02-0.03,2.04-0.05,3.06-0.08c0.01,0.61,0.02,1.22,0.02,1.83c-0.57,0.73-1.14,1.45-1.71,2.18
		c0.26,0.33,0.51,0.67,0.77,1c6.09-2.16,12.17-4.32,18.26-6.48c-0.21-0.64-0.42-1.28-0.64-1.93c-4.22,1.33-8.45,2.67-12.67,4
		c-0.32-0.55-0.63-1.1-0.95-1.65c4.66-1.7,9.32-3.4,13.99-5.1c-0.27-0.68-0.54-1.36-0.81-2.04c-6.42,2.35-12.84,4.69-19.25,7.04
		c-0.89-0.01-1.77-0.03-2.66-0.04c-1.02-0.75-2.04-1.5-3.04-2.24c3.1-1.67,5.93-3.19,8.76-4.71l-0.05,0.03
		c0.69,0.03,1.38,0.06,2.08,0.1c4.29-1.22,8.62-2.31,12.85-3.71c2.58-0.86,4.06-0.36,4.93,2.29c3.51,10.7,7.17,21.35,10.56,32.09
		C76.25,621.93,75.01,623.45,74.5,624.73z"/>
	<path class="st17" d="M96.48,586.1c0.2-1.64,0.41-3.29,0.59-4.93c0.88-8.09,0.88-7.94,9.17-8.06c5.76-0.08,11.51-0.57,17.25-1.08
		c3.97-0.35,4.62,0.14,5.61,5.94c4.46-0.77,8.96-1.39,13.39-2.37c2.58-0.57,3.84,0.11,4.04,2.72c-1.01,0.6-2.01,1.2-3.02,1.8
		c-2.34-2.88-11.1-1.67-15.36,2.75c5.65-1.01,10.51-1.89,15.38-2.76c-2.15,1.35-4.41,2.55-6.42,4.08c-3.03,2.3-5.88,4.85-8.83,7.25
		c-0.49,0.4-1.14,0.61-1.72,0.9c0-5.94,0-11.89,0-17.83c-0.89-0.03-1.79-0.06-2.68-0.08c-0.11,6.86-0.22,13.72-0.34,20.57
		c-0.66,0.44-1.33,0.87-1.99,1.31c-0.02-5.44-0.17-10.88-0.02-16.31c0.08-2.94-0.8-4.1-3.92-4.05c-4.76,0.07-9.54-0.54-14.3-0.42
		c-1.2,0.03-2.35,1.73-3.53,2.66c-0.56,2.56-1.11,5.12-1.67,7.68C97.56,585.94,97.02,586.02,96.48,586.1z"/>
	<path class="st18" d="M43.35,325.1c1.1-1.61,2.2-3.21,3.3-4.82c5.93-1.85,11.85-3.7,17.78-5.55c-0.19-0.58-0.39-1.16-0.58-1.73
		c-5.18,1.39-10.35,2.78-15.53,4.18c0.73-0.99,1.46-1.97,2.19-2.96c4.35-1.29,9.38-1.05,12.35-5.47c-3.49,0.79-6.98,1.58-10.46,2.38
		c3.67-5.3,7.33-10.61,11-15.91c1.87,5.98,3.65,11.99,5.64,17.93c0.94,2.79,0.82,4.75-2.4,5.77c-6.12,1.94-12.17,4.11-18.31,5.98
		C46.79,325.37,45.01,325.05,43.35,325.1z"/>
	<path class="st14" d="M99.78,578.18c1.18-0.93,2.33-2.63,3.53-2.66c4.76-0.12,9.53,0.5,14.3,0.42c3.11-0.05,4,1.11,3.92,4.05
		c-0.15,5.43,0,10.87,0.02,16.31c-2.35,1.24-4.71,2.48-7.06,3.72c-1.25-0.62-2.49-1.25-3.74-1.87c0.38-1.7,0.2-3.92,1.23-4.99
		c3.25-3.36,2.77-5.88-0.68-8.61c-1.76-1.39-3.44-3.08-4.62-4.97c-2.33-3.74-3.83-2.92-5.26,0.52
		C100.87,579.47,100.32,578.83,99.78,578.18z"/>
	<path class="st9" d="M99.78,578.18c0.54,0.64,1.09,1.28,1.63,1.92c0.99,0.99,1.8,2.44,2.99,2.9c6.44,2.48,7.57,5.69,3.68,11.05
		c-0.7,0.96-1.13,2.11-1.95,3.66c2.04,0.2,3.32,0.32,4.6,0.44c1.25,0.62,2.49,1.25,3.74,1.87c-1.27,1.77-2.53,3.54-3.8,5.3
		c-1.8-0.06-3.63-0.35-5.4-0.12c-4.7,0.61-6.26-1.14-6-5.96c0.23-4.43-0.73-8.93-1.17-13.39C98.67,583.3,99.22,580.74,99.78,578.18z
		"/>
	<path class="st19" d="M89.48,639.18c1.98-0.37,3.95-0.79,5.95-1.1c5.56-0.86,11.17-1.5,16.69-2.57c7.45-1.44,14.31,0.05,21.68,3.23
		c-5.77,5.51-11.63,8.96-19.08,9.37c-2.46,0.13-4.89,0.69-7.33,1.05c-0.37-0.3-0.74-0.61-1.1-0.91c1.09-0.38,2.17-0.76,3.26-1.15
		c0.67-0.01,1.33-0.02,2-0.03c2.47-0.63,4.95-1.25,7.41-1.93c0.23-0.06,0.33-0.55,0.5-0.84c-0.31-0.08-0.62-0.16-0.93-0.24
		c-0.01-0.33-0.01-0.65-0.01-0.98c0.58-0.81,1.16-1.61,1.74-2.42c-0.2-0.42-0.4-0.84-0.6-1.27c-6.98,1.49-13.96,2.99-20.93,4.48
		C95.63,642.33,92.56,640.76,89.48,639.18z M118.62,638.23c-0.15-0.5-0.29-1-0.44-1.5c-6.51,1.12-13.02,2.23-19.53,3.35
		c0.08,0.42,0.15,0.85,0.23,1.27C105.46,640.31,112.04,639.27,118.62,638.23z"/>
	<path class="st17" d="M98.51,300.22c-1,0.01-2.01-0.09-2.98,0.06c-4.96,0.8-6.41-1.42-6-6.14c0.24-2.78,1.55-6.38-3.2-7.65
		c-0.6-0.16-0.87-6.11-0.02-6.49c5.46-2.42,3.41-7.14,4.13-10.99c4.43-0.6,8.86-1.33,13.31-1.78c4.91-0.5,9.84-0.75,14.77-1.1
		c-0.01,0.32-0.01,0.64,0,0.96c-0.65,1.72-1.79,3.42-1.87,5.17c-0.36,7.63-0.41,15.27-0.57,22.91c-0.54-0.01-1.08-0.02-1.63-0.03
		c0.01-7.44-0.05-14.87,0.07-22.31c0.04-2.69-0.75-3.92-3.66-3.83c-4.8,0.15-9.62-0.19-14.41,0.04c-1.28,0.06-3.57,1.42-3.59,2.23
		c-0.26,8.88-0.16,17.76-0.16,27.04c2.24,0,4.02,0,5.8,0C98.5,298.95,98.51,299.59,98.51,300.22z"/>
	<path class="st17" d="M128.49,596.93c4.96,1.23,10.01,2.21,14.83,3.85c1.29,0.44,1.9,2.86,2.82,4.37c-1.52,0.47-3.12,1.5-4.55,1.3
		c-4.18-0.57-8.29-1.64-12.39-2.5c-1.82,6.86-2.23,6.96-9,4.54c-1.81-0.65-3.91-0.47-5.87-0.68
		C119.05,604.19,123.77,600.56,128.49,596.93z"/>
	<path class="st20" d="M34.64,547.84c-1.74-3.48-3.32-7.06-5.27-10.42c-2.63-4.55-5.72-8.84-8.29-13.42
		c-1.93-3.43-4.04-3.74-7.23-1.75c-1.56,0.98-3.56,1.27-5.36,1.87c2.37-2.24,4.75-4.48,7.54-7.11c-3.86-1.08-6.83-1.91-10.07-2.82
		c-0.24,3.62-0.46,6.84-0.68,10.06C5,518.23,4.72,512.2,4.44,506.18c0.59,0.26,1.5,0.36,1.73,0.8c2.13,4.18,5.1,6.88,10.07,7.53
		c1.56,0.2,3.19,2.25,4.22,3.82c5.45,8.3,10.7,16.74,16.07,25.09c0.51,0.8,1.37,1.37,2.07,2.06
		C37.27,546.26,35.96,547.05,34.64,547.84z"/>
	<path class="st17" d="M248.28,538.46c-2.4-0.81-4.28-0.99-5.27,2.22c-0.69,2.26-2.31,4.23-3.52,6.33
		c-0.27-0.07-0.53-0.05-0.79,0.04c-0.03-1.27-0.07-2.55-0.1-3.82c1.22-2.41,2.97-4.74,3.36-7.28c0.12-0.79-3.41-2.15-5.46-3.36
		c-1.47,2.62-2.59,4.61-3.71,6.6c-0.23,0.26-0.35,0.57-0.34,0.92c-1.38,2.88-2.76,5.76-4.14,8.64c-3.29,6.12-6.58,12.24-9.87,18.36
		c-2.1,2.59-5.06,4.88-3.19,8.9c-2.96,0.32-4.78,0.01-2.79-3.67c6.81-12.59,13.48-25.25,20.21-37.89c1.84-3.46,3.87-5.59,7.99-2.47
		c1.71,1.3,4.21,1.55,6.36,2.28C247.43,535.65,247.85,537.05,248.28,538.46z"/>
	<path class="st21" d="M36.31,484.16c-1.29,3.22-2.26,6.04-7.18,4.52c-3.79-1.17-8.16-0.99-12.21-0.62
		c-4.13,0.38-7.95,0.49-11.43-2.08c0.07-4.64,0.15-9.27,0.22-13.9c0.86,0.03,1.72,0.07,2.58,0.1c-0.2,3.23-0.4,6.47-0.6,9.7
		c0.16,0.9,0.31,1.8,0.47,2.7c0.45-0.49,0.9-0.97,1.35-1.46c6,0.03,12-0.02,18,0.13c2.32,0.06,4.63,0.56,6.95,0.86
		C35.08,484.13,35.7,484.15,36.31,484.16z"/>
	<path class="st22" d="M74.5,624.73c0.52-1.28,1.76-2.8,1.43-3.82c-3.38-10.74-7.04-21.39-10.56-32.09
		c-0.87-2.65-2.35-3.15-4.93-2.29c-4.23,1.4-8.56,2.49-12.85,3.71c-0.04-0.47-0.08-0.94-0.12-1.41c5.24-1.99,10.44-4.09,15.75-5.85
		c0.83-0.28,2.9,0.77,3.19,1.62c4.57,13.31,8.95,26.68,13.37,40.05C78.02,624.67,76.26,624.7,74.5,624.73z"/>
	<path class="st22" d="M177.65,294.08c-4.62,0.01-9.27,0.34-13.85-0.07c-5.02-0.45-7.06,1.73-7.09,6.39
		c-0.05,6.93-0.01,13.85-0.01,20.56c1.33,1,2.61,1.94,3.88,2.89c-0.02,1.08-0.04,2.16-0.07,3.24c-0.61,0.59-1.22,1.17-1.83,1.76
		c-1.7-1.94-4.64-3.76-4.84-5.84c-0.48-5.04,0.32-10.2,0.59-15.32c0.04-0.83,0-1.66,0.01-2.49c0.09-13.66,1.83-15.19,15.63-13.89
		c1.2,0.11,2.44-0.14,3.66-0.22C175.04,292.09,176.34,293.09,177.65,294.08z"/>
	<path class="st22" d="M43.35,325.1c1.67-0.05,3.44,0.27,4.98-0.2c6.14-1.87,12.19-4.04,18.31-5.98c3.22-1.02,3.34-2.98,2.4-5.77
		c-1.99-5.94-3.77-11.95-5.64-17.93c0.38-0.67,0.77-1.35,1.16-2.02c2.59,7.37,5.29,14.7,7.66,22.14c0.39,1.21-0.36,3.92-1.18,4.2
		c-9.86,3.38-19.83,6.43-29.78,9.57C41.95,327.77,42.65,326.43,43.35,325.1z"/>
	<path class="st12" d="M19.94,556.37c-2.75,1.75-5.51,3.49-8.2,5.2c-1.99-9.19-3.85-17.8-5.71-26.42c0.72,0.35,1.75,0.51,2.1,1.09
		C12.12,542.92,16.02,549.65,19.94,556.37z"/>
	<path class="st15" d="M153.76,651.21c-4.52-2.93-0.07-6.55-0.57-9.91c-0.71-4.73,0.24-9.74,0.82-14.6
		c0.11-0.95,1.81-1.71,2.77-2.56c0.9,1.21,2.58,2.43,2.57,3.64c-0.06,6.77-0.52,13.54-0.84,20.31
		C156.93,649.13,155.34,650.17,153.76,651.21z"/>
	<path class="st21" d="M189.93,524.95c2.67-6.41,3.6-13.87,10.66-17.64c0.63,0.31,1.26,0.62,1.89,0.93
		c0.25,3.59,1.17,7.29,0.56,10.73c-0.58,3.27-2.74,6.27-4.21,9.39C196.58,525.34,193.66,524.09,189.93,524.95z M193.01,519.74
		c3.32,0.47,5.18,1.14,6.8,0.77c0.71-0.16,1.53-2.68,1.17-3.76c-0.36-1.07-2.74-2.6-3.16-2.32
		C196.3,515.43,195.25,517.13,193.01,519.74z"/>
	<path class="st18" d="M51.52,615.08c0.02,0.46,0.04,0.91,0.06,1.36c-0.7,0.28-1.4,0.56-2.1,0.84c-1.97-1.11-3.95-2.22-5.92-3.34
		c2.33-2.65-0.48-4.03-1.46-5.86c0.5-0.66,1.01-1.33,1.51-1.99c0.49,0,0.98,0,1.48,0c1.52-0.06,3.12,0.17,4.53-0.24
		c5-1.47,9.94-3.15,14.91-4.76c0.34,0.64,0.68,1.27,1.02,1.91c-6.29,2.08-12.57,4.15-18.86,6.23c0.22,0.62,0.43,1.24,0.65,1.86
		c5.4-1.63,10.81-3.26,16.21-4.89c0.03,0.45,0.05,0.89,0.08,1.34c-5,2.05-9.99,4.11-14.99,6.16c0.07,0.31,0.14,0.61,0.21,0.92
		C49.72,614.77,50.62,614.93,51.52,615.08z"/>
	<path class="st20" d="M181.75,385.2c-5.24-8.64-10.47-17.28-15.29-25.23c-4.08,1.83-7.14,3.19-10.19,4.55
		c0.99-0.96,2.07-1.84,2.95-2.9c1.44-1.74,2.74-3.6,4.11-5.41c1.11-0.05,2.22-0.09,3.33-0.14c4.79,7.39,9.53,14.81,14.41,22.14
		c0.81,1.22,2.23,2.03,3.37,3.03C183.53,382.56,182.64,383.88,181.75,385.2z"/>
	<path class="st19" d="M167.39,632.88c2.6-0.42,5.2-1.15,7.8-1.17c1.82-0.02,3.65,0.91,5.48,1.41c-2.68,1.95-5.36,3.9-8.03,5.85
		c-0.77-0.48-1.57-1.4-2.3-1.35c-5.18,0.35-6.67-0.84-6.7-5.77c-0.01-2.31-0.24-4.69,0.21-6.92c0.23-1.13,1.76-1.99,2.7-2.98
		c-0.1,3.76-0.19,7.53-0.29,11.29c0.05,0.48,0.1,0.97,0.15,1.46C166.73,634.09,167.06,633.49,167.39,632.88z"/>
	<path class="st22" d="M8.3,472.18c-0.86-0.03-1.72-0.07-2.58-0.1c0.48-6.27,0.96-12.54,1.44-18.81c8.77-4.1,17.57-1.42,26.36-0.12
		c-0.1,0.5-0.21,1.01-0.31,1.51c-5.94-0.2-11.9-0.14-17.8-0.66c-4.94-0.43-6.54,2-6.7,6.3C8.57,464.26,8.44,468.22,8.3,472.18z"/>
	<path class="st21" d="M42.1,608.08c0.98,1.83,3.78,3.21,1.46,5.86c-2.96-2.92-5.91-5.85-8.87-8.77c0.47-1.68,0.93-3.37,1.44-5.19
		c-1.53-1.57-3.13-3.21-4.74-4.84c4.72-1.67,9.45-3.35,14.17-5.02c-2.83,1.52-5.65,3.04-8.76,4.71c1,0.74,2.02,1.49,3.03,2.24
		c-0.17,1.08-0.33,2.17-0.49,3.25c0.09,1.57,0.18,3.13,0.27,4.7C40.44,606.04,41.27,607.06,42.1,608.08z"/>
	<path class="st19" d="M98.11,585.86c0.44,4.47,1.4,8.96,1.17,13.39c-0.25,4.81,1.3,6.56,6,5.96c1.77-0.23,3.6,0.06,5.4,0.12
		c-1.01,0.91-2.01,1.82-3.02,2.73c-0.83-0.05-1.66-0.11-2.49-0.15c-8.47-0.44-8.47-0.44-8.49-8.86c-0.01-2.28,0.56-4.79-2.98-5.26
		c-0.34-0.05-0.34-2.7-0.5-4.14c0.94,0.87,1.88,1.73,2.82,2.6c0.28-0.6,0.55-1.2,0.83-1.8c-1.2-0.42-2.41-0.84-3.61-1.26
		c1.08-1.03,2.16-2.07,3.23-3.1C97.02,586.02,97.56,585.94,98.11,585.86z"/>
	<path class="st20" d="M155.8,364.96c-2.22,3.59,0.26,6.13,1.86,8.98c3.61,6.43,7.07,12.95,10.59,19.44c-2.23-1.7-4.47-3.4-6.7-5.11
		c-0.03-0.37-0.07-0.73-0.1-1.09l0.04,0.04c-0.34-0.34-0.69-0.68-1.03-1.02l0.02,0.02c-0.34-0.34-0.68-0.69-1.02-1.03v0.11
		c-2.22-4.8-4.47-9.58-6.66-14.39c-0.86-1.9-1.59-3.85-2.38-5.78c0.78-0.04,1.56-0.08,2.34-0.11
		C153.76,364.98,154.78,364.97,155.8,364.96z"/>
	<path class="st18" d="M116.07,295.17c0.16-7.64,0.21-15.28,0.57-22.91c0.08-1.75,1.22-3.45,1.87-5.17c0.75-0.2,1.51-0.4,2.26-0.6
		c0.23-0.11,0.46-0.12,0.69-0.04c0.02,0.79,0.05,1.57,0.07,2.36c-0.71,1.41-1.94,2.78-2.02,4.22c-0.29,5.09-0.04,10.22-0.26,15.32
		c-0.17,3.88-0.73,7.75-1.11,11.62c-0.43-0.03-0.87-0.06-1.3-0.1C116.59,298.3,116.33,296.74,116.07,295.17z"/>
	<path class="st11" d="M227.32,568.06c-1.11,3.22-2.23,6.45-3.76,10.87c5.31,2.45,10.75,4.96,16.19,7.47
		c-0.53,0.95-1.05,1.9-1.58,2.86c-6.85-4.06-13.69-8.11-20.54-12.17c1.76-1.44,3.56-2.84,5.17-4.42c0.1-0.1-1.28-1.7-1.8-2.39
		c0.51-0.2,1.53-0.6,2.56-1c1.07-0.38,2.13-0.76,3.2-1.14C226.95,568.09,227.13,568.07,227.32,568.06z"/>
	<path class="st16" d="M25.26,557.97c4.09-2.33,8.18-4.67,12.27-7c1.04,1.1,2.07,2.21,3.66,3.89c-2.3,1.91-4.14,3.43-5.97,4.96
		C31.71,560.24,27.32,565.36,25.26,557.97z"/>
	<path class="st20" d="M19.94,556.37c-3.92-6.72-7.82-13.45-11.82-20.12c-0.34-0.57-1.38-0.73-2.1-1.09
		c-0.08-2.08-0.15-4.16-0.23-6.24c1.73,2.14,3.76,4.1,5.13,6.45c3.73,6.42,7.18,13,10.75,19.52
		C21.1,555.38,20.52,555.88,19.94,556.37z"/>
	<path class="st15" d="M20.43,388.94c1.07,2.4,2.14,4.81,3.2,7.21c0.14,0.41,0.28,0.81,0.42,1.22c-1,3.49-2.01,6.98-3.01,10.48
		c-1.11,1.2-2.22,2.41-3.33,3.61c-0.33-2.42-0.66-4.84-0.98-7.26C17.96,399.11,19.19,394.03,20.43,388.94z"/>
	<path class="st17" d="M153.41,414.19c-4.65-3.68-9.29-7.36-13.94-11.04c0.83-0.05,1.65-0.11,2.48-0.16
		c2.35,0.97,4.71,1.93,7.06,2.9c0.26-0.39,0.53-0.77,0.79-1.16c-1.15-1.33-2.31-2.67-3.46-4c0.08-0.58,0.15-1.16,0.23-1.73
		c2.64,1.38,5.29,2.76,7.93,4.14C154.14,406.83,153.78,410.51,153.41,414.19z"/>
	<path class="st22" d="M180.46,323.29c0.64-1.28,1.8-2.54,1.85-3.84c0.29-7.14,0.31-14.29,0.43-21.43c0.93,0.86,1.86,1.73,2.78,2.59
		c-0.39,7.87-0.78,15.74-1.16,23.61C183.06,323.9,181.76,323.59,180.46,323.29z"/>
	<path class="st19" d="M141.14,587.09c0.78,0.28,1.84,0.34,2.28,0.9c0.88,1.12,1.96,2.52,1.92,3.78c-0.03,0.83-1.79,2.22-2.86,2.31
		c-3.63,0.28-7.3,0.08-10.95,0.07C134.73,591.79,137.94,589.44,141.14,587.09z"/>
	<path class="st18" d="M205.49,341.18c-0.99-1.25-1.99-2.5-2.98-3.76c1.89-1.12,4-1.99,5.59-3.43c1.43-1.3,2.29-3.22,3.4-4.87
		c0.37-0.69,0.74-1.37,1.12-2.06c1.01,0.54,2.02,1.09,3.02,1.63C212.26,332.85,208.87,337.01,205.49,341.18z"/>
	<path class="st18" d="M5.28,524.26c0.22-3.22,0.43-6.44,0.68-10.06c3.24,0.91,6.21,1.74,10.07,2.82c-2.79,2.63-5.16,4.87-7.54,7.11
		l0.05-0.04c-0.35,0.35-0.71,0.7-1.06,1.06l0.06-0.07c-0.67-0.01-1.33-0.02-1.99-0.03C5.46,524.78,5.37,524.52,5.28,524.26z"/>
	<path class="st18" d="M123.53,595c0.11-6.86,0.22-13.72,0.34-20.57c0.89,0.03,1.79,0.06,2.68,0.08c0,5.94,0,11.89,0,17.83
		C125.54,593.23,124.53,594.11,123.53,595z"/>
	<path class="st23" d="M31.39,595.14c1.6,1.64,3.21,3.28,4.74,4.84c-0.5,1.82-0.97,3.51-1.44,5.19c-2.4-2.99-4.81-5.99-7.22-8.98
		C28.78,595.84,30.08,595.49,31.39,595.14z"/>
	<path class="st23" d="M98.71,643.9c6.98-1.49,13.96-2.99,20.93-4.48c0.2,0.42,0.4,0.84,0.6,1.27c-0.58,0.81-1.16,1.61-1.74,2.42
		c-5.73,0.71-11.46,1.43-17.18,2.14C100.45,644.79,99.58,644.34,98.71,643.9z"/>
	<path class="st19" d="M192.57,626.22c0.02-6.03,0.03-12.05,0.05-18.08c0.97,0.33,1.94,0.66,2.92,0.99
		c-0.31,5.29-0.63,10.58-0.94,15.87C193.92,625.4,193.25,625.81,192.57,626.22z"/>
	<path class="st22" d="M49.47,617.28c0.7-0.28,1.4-0.56,2.1-0.84c4.71-1.49,9.39-3.11,14.16-4.38c1.09-0.29,2.5,0.63,3.76,0.99
		c-5.43,2.07-10.87,4.15-16.3,6.22C51.95,618.61,50.71,617.95,49.47,617.28z"/>
	<path class="st9" d="M257.38,559.09c1.6,0.36,3.19,0.73,4.79,1.09c-0.21,4.7-2.65,8.05-6.46,11.04
		C256.3,566.89,256.84,562.99,257.38,559.09z"/>
	<path class="st24" d="M48.32,317.17c5.18-1.39,10.35-2.78,15.53-4.18c0.19,0.58,0.39,1.16,0.58,1.73
		c-5.93,1.85-11.85,3.7-17.78,5.55C47.2,319.25,47.76,318.21,48.32,317.17z"/>
	<path class="st23" d="M137.5,271.23c0,0.63,0.01,1.27,0.01,1.9c-4.4,0.95-8.8,1.89-13.21,2.84c-1.15-0.11-2.3-0.23-3.42-0.34
		c0.75-1.8,1.32-3.15,1.88-4.5c0.44,0,0.87,0.01,1.31,0.01c1.13,0.49,2.3,1.46,3.37,1.36c2.4-0.22,4.76-0.98,7.13-1.52
		C135.55,271.06,136.53,271.15,137.5,271.23z"/>
	<path class="st20" d="M25.26,557.97c2.06,7.39,6.44,2.26,9.95,1.85c0.2,0.2,0.4,0.41,0.58,0.63c-2.09,1.88-4.17,3.77-6.26,5.65
		c-0.7,0.02-1.4,0.03-2.1,0.05c-1.34-2.31-2.68-4.62-4.02-6.93C24.04,558.8,24.65,558.39,25.26,557.97z"/>
	<path class="st22" d="M69.51,615.16c2.12,0.97,1.97,1.98,0.04,3c-0.7,0.21-1.4,0.42-2.1,0.63c-0.33,0.42-0.67,0.84-1,1.27
		l-0.04-0.08c-0.65-0.02-1.29-0.04-1.94-0.06c-1.64,0.68-3.28,1.35-4.92,2.03c-1.37-0.58-2.73-1.17-4.1-1.75
		C60.14,618.52,64.83,616.84,69.51,615.16z"/>
	<path class="st15" d="M124.08,271.14c-0.44,0-0.87-0.01-1.31-0.01c-0.41-0.77-0.82-1.55-1.23-2.32c-0.02-0.79-0.05-1.57-0.07-2.36
		c3.4,0.88,6.81,1.76,10.21,2.64C129.15,269.77,126.61,270.46,124.08,271.14z"/>
	<path class="st18" d="M69.51,615.16c-4.69,1.68-9.37,3.36-14.06,5.04c-0.75-0.31-1.51-0.62-2.26-0.92
		c5.43-2.07,10.87-4.15,16.3-6.22C69.5,613.76,69.51,614.46,69.51,615.16z"/>
	<path class="st20" d="M35.22,559.82c1.84-1.52,3.67-3.05,5.97-4.96c-1.59-1.69-2.62-2.79-3.66-3.89c0.96-0.63,1.92-1.25,2.88-1.88
		c1.18,2.55,2.37,5.1,3.55,7.65c-0.31,0.36-0.61,0.72-0.92,1.08c-2.41,0.87-4.83,1.75-7.24,2.62
		C35.61,560.23,35.42,560.03,35.22,559.82z"/>
	<path class="st24" d="M52.4,311.12c3.49-0.79,6.98-1.58,10.46-2.38c-2.98,4.41-8,4.17-12.35,5.47c0.4-0.7,0.8-1.4,1.2-2.1
		c0.27-0.34,0.55-0.68,0.82-1.03C52.52,311.08,52.4,311.12,52.4,311.12z"/>
	<path class="st17" d="M101.33,645.24c5.73-0.71,11.46-1.43,17.18-2.14c0,0.33,0.01,0.65,0.01,0.98c-2.33,1-4.65,2-6.98,3.01
		c-0.67,0.01-1.33,0.02-2,0.03c-1.96-0.08-3.93-0.17-5.89-0.25C102.88,646.32,102.1,645.78,101.33,645.24z"/>
	<path class="st18" d="M67.45,618.8c0.7-0.21,1.4-0.42,2.1-0.63c3.76,1.14,2.64,3.7,1.8,6.18c-0.61-0.07-1.22-0.15-1.83-0.22
		c-0.14-0.44-0.28-0.89-0.43-1.33c-0.19,0.4-0.38,0.81-0.57,1.21c-1.06-0.6-2.11-1.2-3.17-1.8c0.35-0.74,0.7-1.48,1.06-2.22
		l0.04,0.08C66.79,619.64,67.12,619.22,67.45,618.8z"/>
	<path class="st9" d="M261.49,556.12c-1.55-0.33-3.11-0.66-4.66-0.99c-0.03-1.34-0.07-2.68-0.1-4.02c0.91-0.6,1.83-1.2,3.17-2.08
		C260.5,551.71,261,553.91,261.49,556.12L261.49,556.12z"/>
	<path class="st17" d="M124.08,271.14c2.54-0.68,5.07-1.37,7.61-2.05c0.96,0.63,1.93,1.26,2.89,1.89c-2.37,0.54-4.73,1.3-7.13,1.52
		C126.37,272.6,125.2,271.63,124.08,271.14z"/>
	<path class="st18" d="M59.55,621.95c1.64-0.68,3.28-1.35,4.92-2.02c0.04,0.79,0.08,1.58,0.12,2.36
		C62.91,622.18,61.23,622.06,59.55,621.95z"/>
	<path class="st11" d="M103.66,646.87c1.96,0.08,3.93,0.17,5.89,0.25c-1.09,0.38-2.17,0.76-3.26,1.15
		C105.41,647.8,104.53,647.33,103.66,646.87z"/>
	<path class="st9" d="M64.59,622.29c-0.04-0.79-0.08-1.58-0.12-2.36c0.65,0.02,1.29,0.04,1.94,0.06c-0.35,0.74-0.7,1.48-1.06,2.22
		C65.1,622.24,64.85,622.27,64.59,622.29z"/>
	<path class="st20" d="M5.55,525.05c0.66,0.01,1.33,0.02,1.99,0.03c-0.6,0.74-1.21,1.47-1.81,2.21
		C5.67,526.54,5.61,525.79,5.55,525.05z"/>
	<path class="st19" d="M120.78,266.49c-0.75,0.2-1.51,0.4-2.26,0.6c0-0.32,0-0.64,0-0.96C119.27,266.25,120.03,266.37,120.78,266.49
		z"/>
	<path class="st9" d="M68.53,624c0.19-0.4,0.38-0.81,0.57-1.21c0.14,0.44,0.28,0.89,0.43,1.33C69.19,624.08,68.86,624.04,68.53,624z
		"/>
	<path class="st12" d="M159.44,385.18c0.34,0.34,0.68,0.69,1.02,1.03C160.12,385.87,159.78,385.52,159.44,385.18z"/>
	<path class="st12" d="M161.43,387.17c0.03,0.36,0.07,0.73,0.1,1.09C161.5,387.9,161.47,387.54,161.43,387.17z"/>
	<path class="st12" d="M160.44,386.19c0.34,0.34,0.69,0.68,1.03,1.02C161.13,386.87,160.78,386.53,160.44,386.19z"/>
	<path class="st22" d="M71.43,624.6c0.37,0.04,0.73,0.09,1.09,0.13C72.16,624.69,71.8,624.64,71.43,624.6z"/>
	<path class="st18" d="M52.52,311.08c-0.27,0.34-0.55,0.68-0.82,1.03C51.98,311.76,52.25,311.42,52.52,311.08z"/>
	<path class="st13" d="M196.58,393.09c5.1-2.19,7.52-6.7,9.57-11.4c4.86-11.17,9.6-22.39,14.38-33.59
		c16.76,12.73,33.59,25.37,50.25,38.22c9.32,7.19,18.16,14.99,27.57,22.06c9.14,6.87,18.74,13.13,28.09,19.71
		c6.24,4.39,12.43,8.86,18.57,13.38c1.31,0.97,2.19,2.53,3.53,3.45c1.67,1.15,3.7,2.86,5.4,2.68c10.12-1.05,20.19-2.68,30.3-3.88
		c2.51-0.3,5.11,0.28,7.68,0.46c-0.03,0.48-0.06,0.97-0.09,1.45c-5.09,1.43-10.17,2.87-15.26,4.3c0.08,0.62,0.15,1.23,0.23,1.85
		c1.76,0,3.53,0.18,5.26-0.03c5.52-0.67,11.03-1.37,16.51-2.27c3.7-0.61,4.76,1.39,5,4.45c0.39,4.8-1.23,8.88-5.86,10.5
		c-16.54,5.75-32.37,14.17-50.18,15.4c-5.21,0.36-11.29-0.8-15.79-3.34c-18.32-10.33-36.18-21.47-54.21-32.33
		c-0.41-0.25-0.73-0.65-1.1-0.99c1.02-3.39,2.8-6.77,2.87-10.18c0.1-4.72-0.65-9.59-1.87-14.17c-0.86-3.21-2.71-6.38-4.84-8.97
		c-6.35-7.72-14.85-10.87-24.76-12.01c-12.92-1.48-19.21,1.31-23.33,12.27C215.2,404.45,205.89,398.77,196.58,393.09z
		 M381.91,456.25c-0.05,0.6-0.09,1.2-0.14,1.8c1.25,0.29,2.57,1,3.74,0.8c4.55-0.75,9.06-1.72,13.55-2.79
		c0.86-0.2,1.52-1.22,2.28-1.87c-1.02-0.49-2.15-1.55-3.06-1.38C392.8,453.81,387.36,455.08,381.91,456.25z"/>
	<path class="st6" d="M224.5,410.13c4.12-10.96,10.41-13.75,23.33-12.27c9.9,1.13,18.4,4.28,24.76,12.01
		c2.13,2.59,3.98,5.76,4.84,8.97c1.22,4.58,1.97,9.45,1.87,14.17c-0.07,3.41-1.85,6.79-2.87,10.18
		c-7.27-4.48-14.59-8.88-21.78-13.48C244.55,423.25,234.55,416.66,224.5,410.13z"/>
	<path class="st13" d="M230.51,506.11c0.44,0.12,0.88,0.25,1.32,0.37c-0.08,0.13-0.17,0.26-0.25,0.39
		c-0.36-0.24-0.72-0.49-1.09-0.73C230.49,506.13,230.51,506.11,230.51,506.11z"/>
	<path class="st13" d="M228.62,505c0.63,0.37,1.26,0.74,1.89,1.11l-0.02,0.02c-0.68-0.31-1.37-0.62-2.05-0.93
		C228.44,505.21,228.62,505,228.62,505z"/>
	<path class="st6" d="M122.51,253.15c0.69,0.3,1.39,0.59,2.08,0.89C123.9,253.74,123.21,253.45,122.51,253.15z"/>
	<path class="st10" d="M208.58,200.19c-0.01,0.49-0.01,0.99-0.02,1.48C208.57,201.18,208.58,200.69,208.58,200.19z"/>
	<path class="st0" d="M210.49,198.1c0.08-0.63,0.15-1.25,0.23-1.88c0.77,0.09,1.54,0.18,2.3,0.26c0.04,0.32,0.09,0.63,0.13,0.95
		C212.27,197.66,211.38,197.88,210.49,198.1z"/>
	<path class="st6" d="M87.56,191.16c2.49,0,5.39,1.24,6.73-2.23c1.18,0.11,2.39,0.43,3.54,0.29c8.46-0.99,16.45,4.15,18.88,12.18
		c1.33,4.41-0.19,7.74-4.32,9.2c-7.31,2.59-14.44,2.73-21.28-2.14c-3.78-2.7-8.78-4.28-7.48-10.18
		C84.2,195.73,86.21,193.52,87.56,191.16z"/>
	<path class="st6" d="M177.24,200.18c8.22,0,13.27,3.17,15.5,9.01c1.44,3.78,0.42,6.34-2.46,8.72c-4.82,3.99-17.62,4.03-22.5,0.03
		c-3.37-2.76-5.46-6.35-4.02-10.48c1.51-4.35,5.52-6.42,9.99-7.24C174.88,200,176.07,200.18,177.24,200.18z"/>
	<path class="st25" d="M123.68,212.71c2.57,1.14,4.85,1.65,6.49,2.96c5.21,4.19,10.57,4.21,16.3,1.41c1.34-0.65,2.73-1.35,4.17-1.6
		c0.76-0.13,2.01,0.47,2.41,1.12c0.29,0.47-0.21,1.91-0.79,2.35c-8.46,6.39-21.59,4.61-28.19-3.78
		C123.81,214.84,123.9,214.25,123.68,212.71z"/>
	<path class="st5" d="M161.77,190.65c3.93-3.16,8.89-6.19,13.53-4.72c4.47,1.42,8,5.89,11.81,9.17c0.4,0.35-0.12,1.76-0.22,2.69
		c-1.01-0.22-2.23-0.17-2.99-0.73c-1.04-0.76-1.71-2-2.57-3.01c-3.61-4.25-7.72-5.84-13.09-3c-1.76,0.93-4.02,0.9-6.05,1.32
		C162.06,191.8,161.92,191.22,161.77,190.65z"/>
	<path class="st5" d="M96.69,184.52c0-1.82-0.25-3.14,0.04-3.27c4.56-2.07,9.22-5.55,13.78-5.43c3.62,0.09,7.15,4.58,10.63,7.25
		c0.29,0.22,0.02,1.54-0.35,2.12c-0.24,0.38-1.13,0.41-1.74,0.46c-0.28,0.03-0.71-0.18-0.87-0.42
		C111.88,176.17,104.64,180.39,96.69,184.52z"/>
	<path class="st6" d="M66.26,176.96c0.47-0.81,1.22-2.12,1.97-3.43c1.4,0.96,3.31,1.61,4.09,2.94c1.14,1.94,2.25,4.48,1.93,6.53
		c-0.3,1.87-2.22,4.34-3.97,4.93c-2.93,0.98-2.6-1.84-2.8-3.81C67.28,181.99,66.78,179.89,66.26,176.96z"/>
	<path class="st26" d="M171.9,163.38c2.65,0.16,5.08-0.3,6.91,0.54c4.44,2.05,6.66,5.99,6.96,11.3
		C181.58,171.65,177.39,168.07,171.9,163.38z"/>
	<path class="st26" d="M101.16,161.12c3.64-2.68,7.73-4.44,12.45-3.57c1.57,0.29,2.89,1.98,5.01,3.54
		c-6.84,0.62-12.02,1.09-17.21,1.55C101.33,162.14,101.25,161.63,101.16,161.12z"/>
	<path class="st22" d="M127.54,500.13c-0.31-1.4-0.92-2.8-0.9-4.2c0.2-10.64,0.17-21.3,0.98-31.9c0.31-4.02,2.63-7.89,4.04-11.83
		c0.69,0.09,1.38,0.18,2.07,0.26c0.95,4.24,2.61,8.47,2.71,12.73c0.31,12.82,0.08,25.65-0.12,38.47c-0.02,1.48-1.22,2.93-1.87,4.4
		c0-2.52,0-5.04,0-7.93C131.69,500.13,129.62,500.13,127.54,500.13z M129.58,479.93c-0.04,0-0.09,0-0.13,0
		c0,4.48-0.11,8.97,0.09,13.44c0.04,0.97,1.22,1.88,1.88,2.82c0.75-0.86,2.11-1.68,2.15-2.57c0.4-8.94,0.66-17.88,0.73-26.82
		c0.01-1.07-1.34-2.15-2.07-3.23c-0.88,1.14-2.44,2.24-2.53,3.44C129.39,471.29,129.58,475.62,129.58,479.93z"/>
	<path class="st22" d="M57.3,427.03c-3.75,0.49-4.52-0.67-2.66-4.11c6.59-12.18,12.92-24.5,19.52-36.67
		c3.12-5.76,3.7-5.92,9.39-2.84c5.73,3.09,11.28,6.53,16.9,9.82c-0.34,0.31-0.69,0.63-1.03,0.94c-0.8-0.15-1.67-0.13-2.38-0.47
		c-3.22-1.52-6.95-4.97-9.43-4.22c-2.66,0.81-4.12,5.54-6.11,8.56c-0.29-0.06-0.57-0.05-0.86,0.03c-0.02-1.29-0.04-2.58-0.06-3.87
		c1.22-2.4,2.97-4.72,3.36-7.25c0.12-0.79-3.4-2.15-5.43-3.35c-1.47,2.61-2.58,4.6-3.7,6.59c-0.23,0.26-0.34,0.57-0.34,0.92
		c-1.68,3.32-3.37,6.64-5.05,9.97c-1.02,2.01-2.04,4.02-3.06,6.02c-1.95,3.67-3.91,7.34-5.86,11.01
		C58.33,420.7,55.42,423,57.3,427.03z"/>
	<path class="st20" d="M128.02,413.63c4.58,1.24,8.08,1.81,11.2,3.21c1.48,0.66,2.97,2.84,3.19,4.5c1.24,9.51-6.03,15.8-15.19,13.4
		c-1.92-0.5-3.85-1.05-5.69-1.78c-0.99-0.39-2.62-1.28-2.57-1.83c0.35-4.32,0.21-8.98,1.92-12.78
		C121.95,415.97,125.96,414.9,128.02,413.63z M137.47,424.61c-0.01-3.5-4.67-6.11-11.46-6.41c-2.87-0.13-5.41,3.96-5.42,8.73
		c-0.01,3.17,5.27,6.11,11.13,6.2C134.8,433.18,137.49,429.2,137.47,424.61z"/>
	<path class="st19" d="M121.54,268.81c0.41,0.77,0.81,1.55,1.23,2.32c-0.56,1.35-1.13,2.71-1.88,4.5c1.12,0.11,2.27,0.22,3.42,0.34
		c0.41,0.4,0.81,0.8,1.22,1.19c-1.22,0.61-2.43,1.22-3.65,1.82c0.04,0.45,0.08,0.9,0.11,1.35c3.5,0,7-0.12,10.49,0.04
		c2.62,0.12,6.07-0.73,6.05,3.74c-0.02,4.57-3.51,2.86-5.8,3.05c-2.62,0.21-5.32-0.2-7.9,0.2c-1.17,0.18-2.14,1.67-3.2,2.57
		c-0.28,1.36-0.56,2.73-0.84,4.09c0.54-0.15,1.09-0.31,1.63-0.46c0.7,1.19,1.39,2.39,2.09,3.58c-4.43-1.49-3.7,2.08-4.34,5.34
		c-4.93-0.79-9.8-1.57-14.66-2.35c0.01-0.58,0.03-1.17,0.04-1.75c2.91-1.23,7.62,2.51,8.89-3.23c0.54,0.01,1.09,0.02,1.63,0.03
		c0.25,1.56,0.51,3.13,0.77,4.69c0.43,0.03,0.87,0.06,1.3,0.1c0.39-3.87,0.95-7.74,1.11-11.62c0.22-5.1-0.03-10.22,0.26-15.32
		C119.6,271.59,120.84,270.21,121.54,268.81z M121.49,284.59c4.85,0,9.7,0,14.55,0c-0.02-0.47-0.04-0.94-0.06-1.41
		C131.12,283.82,126.17,280.73,121.49,284.59z"/>
	<path class="st9" d="M107.31,371.98c0.48,0.46,0.96,0.92,1.44,1.38c5.94,4.37,11.82,8.82,17.83,13.09
		c3.85,2.73,7.89,5.2,11.85,7.78c1.53,2.46,2.66,4.75-1.9,4.81c-5-3.72-9.91-7.58-15.03-11.12c-4.14-2.87-8.54-5.36-12.82-8.03
		c-3.55-3.1-7.1-6.21-10.66-9.31c0.4-0.46,0.79-0.92,1.19-1.39C101.91,370.13,104.61,371.05,107.31,371.98z"/>
	<path class="st20" d="M24.05,397.37c-0.14-0.41-0.28-0.81-0.42-1.22c2.79-6.71,5.57-13.42,8.36-20.13
		c1.51,0.71,3.03,1.41,4.54,2.12c-0.84,1.05-1.68,2.1-2.51,3.15c0.98-0.96,6.13,0.97,2.51-3.15c1.43,0.41,2.86,0.81,4.29,1.22
		c-2.66,6.99-5.31,13.98-7.97,20.96c-0.45-0.63-0.9-1.26-1.36-1.89c1.82-4.21,5.57-8.52-1.29-12.14c-1.09,3.29-2.32,6.98-3.54,10.66
		C25.79,397.1,24.92,397.23,24.05,397.37z"/>
	<path class="st27" d="M24.05,397.37c0.87-0.14,1.74-0.27,2.61-0.41c1.61,0.49,3.22,0.98,4.83,1.47c0.45,0.63,0.9,1.26,1.36,1.89
		c-2.13,5.64-4.27,11.28-6.4,16.91c-1.57-0.47-3.13-0.94-4.7-1.42c-0.24-2.66-0.47-5.32-0.71-7.98
		C22.04,404.35,23.04,400.86,24.05,397.37z"/>
	<path class="st21" d="M36.53,378.14c-1.51-0.71-3.02-1.41-4.54-2.12c2.29-4.82,4.39-9.75,7.03-14.37c0.57-0.99,3.18-1.32,4.69-1.06
		c0.75,0.13,1.84,2.48,1.58,3.53c-1.27,5.13-2.95,10.16-4.48,15.23C39.39,378.95,37.95,378.55,36.53,378.14
		C36.52,378.14,36.53,378.14,36.53,378.14z M39.41,373.46c1.03-0.42,2.06-0.83,3.08-1.25c-0.57-1.94-1.13-3.89-1.7-5.83
		c-1.33,0.79-3.84,1.73-3.77,2.35C37.23,370.37,38.54,371.89,39.41,373.46z"/>
	<path class="st24" d="M114.55,339.05c-8.38,1.61-16.75,3.22-25.13,4.83c0-2.1,0-4.19,0-6.54c0.87-0.06,1.96-0.13,3.05-0.21
		c1.85,0.24,3.75,0.89,5.53,0.63c5.16-0.74,10.26-1.84,15.39-2.8C113.78,336.33,114.16,337.69,114.55,339.05z"/>
	<path class="st21" d="M180.46,323.29c1.3,0.31,2.6,0.61,3.9,0.92c-1.35,1.93-2.69,3.86-3.74,5.37c-7.25-0.89-13.68-1.68-20.11-2.47
		c0.02-1.08,0.04-2.16,0.07-3.24c5.06-0.12,10.12-0.23,15.18-0.36C177.32,323.46,178.89,323.36,180.46,323.29z"/>
	<path class="st11" d="M77.01,475.95c2.57,1.65,5.4,2.99,7.65,5c5.78,5.15,11.4,10.48,16.82,16c0.95,0.96,1.38,3.83,0.67,4.75
		c-2.13,2.77-4.95,5.02-7.5,7.47c-0.75-0.03-1.51-0.07-2.26-0.1c2.59-3.16,5.18-6.33,8.17-9.99c-8.06-7.39-16.08-14.74-24.09-22.09
		C76.65,476.63,76.83,476.29,77.01,475.95z"/>
	<path class="st22" d="M124.52,297.14c-0.7-1.19-1.39-2.39-2.09-3.58c-0.54,0.15-1.09,0.31-1.63,0.46c0.28-1.36,0.56-2.73,0.84-4.09
		c4.96,1.25,9.99,2.27,14.81,3.93c1.26,0.44,1.82,2.9,2.71,4.44c-1.54,0.43-3.17,1.4-4.62,1.19
		C131.15,299.01,127.85,297.96,124.52,297.14z"/>
	<path class="st17" d="M106.61,410.11c-1.72,4.36-3.17,8.86-5.23,13.05c-3.05,6.18-6.73,12.04-9.77,18.22
		c-1.59,3.24-3.4,3.59-6.16,1.84c0.02-0.67,0.05-1.34,0.07-2.01c1.7-1.17,4.06-1.96,5-3.57c4.88-8.4,9.39-17.02,14.03-25.56
		C105.23,411.42,105.92,410.76,106.61,410.11z"/>
	<path class="st11" d="M85.52,441.21c-0.02,0.67-0.05,1.34-0.07,2.01c-8.6-5.04-17.19-10.08-25.79-15.11
		c1.76-1.44,3.56-2.83,5.17-4.42c0.1-0.1-1.28-1.7-1.8-2.38c0.51-0.2,1.53-0.61,2.54-1.02c0.65-0.36,1.3-0.73,1.95-1.09
		c0.43,0.98,0.86,1.96,1.29,2.95c-1.06,2.19-2.12,4.38-3.21,6.65c0.87,0.64,1.36,1.06,1.91,1.4
		C73.52,433.87,79.52,437.54,85.52,441.21z"/>
	<path class="st21" d="M82.36,522.8c-1.25-0.11-2.96,0.28-3.69-0.4c-8.41-7.79-16.69-15.72-24.92-23.71
		c-0.52-0.5-0.3-1.77-0.42-2.68c0.79,0.05,1.58,0.09,2.37,0.14c0.09,0.48,0.01,1.13,0.29,1.4c7.84,7.53,15.7,15.05,23.64,22.48
		c0.54,0.51,1.77,0.29,2.68,0.41C82.33,521.23,82.35,522.01,82.36,522.8z"/>
	<path class="st24" d="M106.61,410.11c-0.69,0.66-1.37,1.31-2.06,1.97c-3.22-1.87-6.43-3.75-9.7-5.64
		c1.55-4.14,3.06-8.19,4.58-12.25c0.35-0.32,0.69-0.63,1.03-0.94c0.97,0.72,2.57,1.27,2.81,2.18
		C104.57,400.26,105.53,405.2,106.61,410.11z M103.53,407.12c0.12,0.16,0.23,0.32,0.35,0.48c-0.01-0.09,0.02-0.22-0.03-0.27
		c-0.09-0.09-0.22-0.13-0.34-0.19c-0.55-2.28-1.1-4.55-1.65-6.83c-0.53-0.04-1.06-0.08-1.6-0.12c-0.56,1.64-2.01,3.77-1.45,4.8
		C99.48,406.2,101.88,406.45,103.53,407.12z"/>
	<path class="st21" d="M92.47,337.13c-1.09,0.07-2.19,0.15-3.05,0.21c0,2.35,0,4.45,0,6.54c-3.27,0.23-6.53,0.46-9.8,0.69
		c0.63-1.77,1.27-3.55,1.9-5.33c-0.44-3.38,0.55-5.35,4.46-5.19c0.87,0.04,1.81-1.36,2.71-2.1c0.94-0.1,1.88-0.2,2.83-0.29
		c-0.01,0.49-0.01,0.97-0.02,1.45c0.66,0.37,1.32,0.73,1.97,1.1c0.05,0.4,0.11,0.79,0.16,1.19
		C93.25,335.98,92.86,336.56,92.47,337.13z"/>
	<path class="st19" d="M114.55,339.05c-0.39-1.36-0.77-2.72-1.16-4.08c-0.62-0.67-1.24-1.34-1.86-2.02c0-0.58,0-1.17,0-1.75
		c0.31-0.05,0.62-0.07,0.94-0.08c0.54-0.39,1.08-0.78,1.62-1.17c-0.51-0.27-1.01-0.55-1.52-0.82c-0.68,0.05-1.36,0.1-2.04,0.15
		c0-0.36-0.01-0.73-0.01-1.09c5.23,0.8,10.46,1.6,15.7,2.41c0.15,0.83,0.3,1.66,0.45,2.49
		C122.63,335.07,118.59,337.06,114.55,339.05z"/>
	<path class="st24" d="M138.43,394.24c-3.95-2.59-7.99-5.05-11.85-7.78c-6.01-4.27-11.9-8.72-17.83-13.09
		c1.59,0.16,3.56-0.22,4.7,0.58c8.83,6.21,17.5,12.64,26.22,19.01C139.25,393.38,138.84,393.81,138.43,394.24z"/>
	<path class="st17" d="M55.71,496.15c-0.79-0.05-1.58-0.09-2.37-0.14c0.29-0.58,0.45-1.52,0.91-1.7c6.68-2.65,9.94-8.64,14.02-13.89
		c0.82-1.05,2.91-1.11,4.81-1.77c0.45-1.52,1.02-3.44,1.96-6.61c1.05,2.09,1.51,2.99,1.97,3.9c-0.18,0.34-0.35,0.69-0.53,1.03
		c-0.48,1.52-0.96,3.03-1.37,4.31c-1.87,0.83-3.9,1.25-5.25,2.43C65.14,487.87,62.66,494.53,55.71,496.15z"/>
	<path class="st28" d="M21.04,407.85c0.24,2.66,0.47,5.32,0.71,7.98c-4.02,0.18-4.73,3.44-4.98,6.24c-0.27,3.09-2,7.03,2.55,8.9
		c-1.61,1.53-3.21,3.07-4.82,4.6c-0.74-0.39-1.48-0.79-2.21-1.18c1.8-7.64,3.61-15.29,5.41-22.93
		C18.82,410.25,19.93,409.05,21.04,407.85z"/>
	<path class="st16" d="M19.32,430.97c-4.55-1.87-2.82-5.81-2.55-8.9c0.24-2.81,0.95-6.07,4.98-6.24c1.57,0.47,3.14,0.94,4.7,1.41
		C24.07,421.81,21.7,426.39,19.32,430.97z"/>
	<path class="st24" d="M108.68,379.9c4.28,2.66,8.68,5.16,12.82,8.03c5.12,3.55,10.03,7.4,15.03,11.12
		c-0.04,0.41-0.08,0.82-0.12,1.23c-5.75-3.38-11.62-6.57-17.22-10.19c-4.11-2.67-7.86-5.9-11.76-8.88
		C107.85,380.77,108.26,380.33,108.68,379.9z"/>
	<path class="st19" d="M33.22,454.66c0.1-0.5,0.21-1.01,0.31-1.51c4.06,1.31,5.16,3.36,4.3,8.07c-1.36,7.49-1.09,15.28-1.51,22.94
		c-0.62-0.02-1.23-0.03-1.84-0.05c0.13-8.55,0.32-17.09,0.31-25.64C34.77,457.2,33.76,455.93,33.22,454.66z"/>
	<path class="st17" d="M108.68,379.9c-0.42,0.43-0.83,0.87-1.25,1.3c-3.57-3.18-7.31-6.21-10.63-9.64c-1.13-1.16-1.2-3.34-1.75-5.06
		c1.59,0.06,3.44-0.37,4.71,0.3c2.68,1.42,5.05,3.42,7.55,5.18c-2.7-0.93-5.4-1.86-8.1-2.79c-0.4,0.46-0.79,0.92-1.19,1.39
		C101.57,373.69,105.12,376.79,108.68,379.9z"/>
	<path class="st18" d="M65.58,420.28c-1.02,0.41-2.04,0.81-2.55,1.02c0.52,0.69,1.9,2.29,1.8,2.38c-1.61,1.59-3.42,2.98-5.17,4.42
		c-0.78-0.36-1.57-0.72-2.35-1.07c-1.89-4.03,1.03-6.33,3.2-8.9C62.2,418.85,63.89,419.56,65.58,420.28z"/>
	<path class="st20" d="M151.4,356.19c-5.93-4.23-0.12-6.69,2.33-10.23c1.04,2.23,2.07,4.47,3.11,6.7c-0.12,0.53-0.23,1.05-0.35,1.58
		c-1.06,0.62-2.12,1.24-3.18,1.85C152.67,356.13,152.03,356.16,151.4,356.19z"/>
	<path class="st27" d="M127.54,500.13c2.08,0,4.15,0,6.92,0c0,2.89,0,5.41,0,7.93C127.16,508.6,126.85,508.25,127.54,500.13z"/>
	<path class="st17" d="M111.53,331.19c0,0.58,0,1.17,0,1.75c-5.97,0.82-11.93,1.64-17.9,2.46c-0.05-0.4-0.11-0.79-0.16-1.19
		c2.58-0.53,5.17-1.07,9.16-1.89c-2.01-0.72-2.57-0.92-3.13-1.12c0-0.38,0-0.76,0.01-1.14c3.67-0.63,7.34-1.25,11.01-1.88
		c0,0.37,0.01,0.73,0.01,1.09c-2.1,0.69-4.19,1.37-6.29,2.06c0.07,0.3,0.13,0.59,0.2,0.89C106.8,331.88,109.17,331.54,111.53,331.19
		z"/>
	<path class="st24" d="M82.36,522.8c-0.01-0.78-0.03-1.57-0.04-2.35c3.36-3.79,6.72-7.59,10.08-11.39c0.75,0.03,1.5,0.07,2.26,0.1
		C90.56,513.71,86.46,518.25,82.36,522.8z"/>
	<path class="st20" d="M81.52,339.25c-0.63,1.78-1.27,3.55-1.9,5.33c-4.29,0.03-3.63-3.45-4-5.94c-0.37-2.5,0.32-4.66,3.51-4.73
		C79.92,335.68,80.72,337.46,81.52,339.25z"/>
	<path class="st21" d="M136.41,400.27c0.04-0.41,0.08-0.82,0.12-1.23c4.55-0.05,3.43-2.35,1.9-4.81c0.41-0.43,0.83-0.86,1.24-1.28
		c2.3,2.02,4.61,4.03,6.91,6.05c-0.08,0.58-0.15,1.15-0.23,1.73c-2.61-1.46-5.1-2.68-4.4,2.27c-0.83,0.05-1.65,0.11-2.48,0.16
		C138.45,402.2,137.43,401.23,136.41,400.27z"/>
	<path class="st22" d="M211.5,329.12c-1.11,1.65-1.97,3.57-3.4,4.87c-1.59,1.44-3.7,2.31-5.59,3.43c-2.13-2.47-0.17-3.51,1.64-4.5
		C206.57,331.6,209.05,330.38,211.5,329.12z"/>
	<path class="st22" d="M125.52,277.16c-0.4-0.4-0.81-0.79-1.22-1.19c4.4-0.95,8.8-1.89,13.21-2.84
		C133.52,274.48,129.52,275.82,125.52,277.16z"/>
	<path class="st27" d="M81.52,339.25c-0.8-1.78-1.6-3.56-2.4-5.35c1.76-0.64,3.52-1.28,5.28-1.91c0.79-0.08,1.57-0.16,2.36-0.25
		c0.64,0.07,1.29,0.14,1.93,0.21c-0.9,0.74-1.84,2.13-2.71,2.09C82.07,333.89,81.08,335.87,81.52,339.25z"/>
	<path class="st22" d="M156.49,354.24c0.12-0.52,0.23-1.05,0.35-1.58c3.27,1.13,6.54,2.27,9.81,3.4c-1.11,0.05-2.22,0.09-3.33,0.14
		C161.04,355.55,158.76,354.9,156.49,354.24z"/>
	<path class="st22" d="M151.4,356.19c0.64-0.03,1.27-0.06,1.91-0.1c-0.19,2.97-0.38,5.93-0.56,8.9c-0.78,0.04-1.56,0.08-2.34,0.11
		C150.73,362.14,151.06,359.17,151.4,356.19z"/>
	<path class="st24" d="M105.56,298.38c-0.01,0.58-0.03,1.17-0.04,1.75c-2.33,0.03-4.67,0.06-7,0.09c-0.01-0.63-0.01-1.26-0.02-1.9
		C100.85,298.34,103.2,298.36,105.56,298.38z"/>
	<path class="st17" d="M91.5,333.12c0.01-0.48,0.01-0.96,0.02-1.45c1.66-0.49,3.32-0.97,4.98-1.46c0.01,0.3,0.03,0.6,0.05,0.89
		c-0.01,0.34-0.02,0.69-0.03,1.03C94.84,332.46,93.17,332.79,91.5,333.12z"/>
	<path class="st22" d="M96.51,332.13c0.01-0.34,0.02-0.69,0.03-1.03c0.32-0.32,0.64-0.64,0.97-0.96c0.67-0.03,1.33-0.05,2-0.08
		c0,0.38,0,0.76-0.01,1.14C98.5,331.51,97.51,331.82,96.51,332.13z"/>
	<path class="st22" d="M86.76,331.74c-0.78,0.08-1.57,0.16-2.36,0.25C85.19,331.91,85.97,331.82,86.76,331.74z"/>
	<path class="st11" d="M97.51,330.14c-0.32,0.32-0.65,0.64-0.97,0.96c-0.02-0.3-0.03-0.6-0.05-0.89
		C96.83,330.19,97.17,330.16,97.51,330.14z"/>
	<path class="st14" d="M156.62,533.01c-0.37,0.38-0.74,0.76-1.11,1.14c-2.45,2.7-4.91,5.39-6.99,7.68c-2.11,0-4.3-0.05-6.49,0.01
		c-3.47,0.09-6.99,0.67-10.39,0.28c-5.11-0.6-8.25-5.96-6.15-10.69c1.48-3.34,3.99-6.22,6.04-9.3c6-1.02,12-2.04,18-3.06
		c9.26,2.89,9.7,3.65,7.19,12.46C156.57,531.99,156.65,532.52,156.62,533.01z"/>
	<path class="st20" d="M85.7,556.04c-1.31,2.98-2.69,7.09-4.92,10.68c-0.78,1.25-4.07,2.17-5.49,1.57
		c-3.75-1.6-7.57-3.66-10.41-6.49c-1.35-1.35-0.77-4.88-0.63-7.4c0.08-1.39,1.08-2.72,1.66-4.08c1.46-3.41,2.09-7.72,7.62-6.38
		C81.58,545.87,84.74,548.84,85.7,556.04z M74.31,563.14c2.98,0.27,6.67-5.07,7.18-10.38c0.29-3-3.33-5.9-8.11-6.51
		c-2.69-0.34-6.32,4.92-6.89,9.98C66.04,560.13,68.88,562.64,74.31,563.14z"/>
	<path class="st17" d="M131.52,522.12c-2.05,3.08-4.56,5.97-6.04,9.3c-2.09,4.73,1.04,10.09,6.15,10.69
		c3.41,0.4,6.92-0.19,10.39-0.28c2.19-0.06,4.38-0.01,6.49-0.01c2.08-2.29,4.54-4.98,6.99-7.68c-1.67,4.26-3.29,8.53-5.03,12.75
		c-0.32,0.78-1.35,2-1.72,1.89c-0.9-0.27-2.04-1.05-2.3-1.88c-0.95-3.08-2.8-2.7-5.41-2.38c-3.7,0.46-7.64,0.58-11.24-0.21
		c-4.27-0.94-7.06-3.97-7.38-8.75c-0.42-6.35,2.49-10.7,7.9-13.64C130.72,522,131.12,522.06,131.52,522.12z"/>
	<path class="st20" d="M189.93,524.95c3.73-0.85,6.65,0.39,8.9,3.41c-2.12,4.94-4.23,9.88-6.35,14.82c-1.03-2.77-2.05-5.53-3.08-8.3
		c-0.36-0.01-0.72-0.02-1.08-0.03c-1.23,3.7-2.45,7.4-3.68,11.1c-0.88,0.09-1.77,0.19-2.66,0.28c-0.13-0.35-0.26-0.7-0.39-1.05
		C184.38,538.43,187.15,531.69,189.93,524.95z"/>
	<path class="st27" d="M181.99,546.22c0.88-0.09,1.77-0.19,2.65-0.28c1.95,0.38,3.9,0.76,5.85,1.15
		c-2.02,6.38-4.04,12.75-6.06,19.13c-1.57-0.47-3.13-0.94-4.7-1.42c-0.25-2.66-0.5-5.32-0.75-7.98
		C179.98,553.29,180.99,549.76,181.99,546.22z"/>
	<path class="st22" d="M195.54,609.12c-0.97-0.33-1.95-0.66-2.92-0.99c1.06-3.21-1.07-4.45-3.48-4.6
		c-6.11-0.38-12.26-0.54-18.38-0.33c-1.18,0.04-3.06,2.09-3.26,3.42c-0.65,4.23-0.66,8.56-0.92,12.85
		c-0.29-0.06-0.58-0.13-0.86-0.22c-0.4-0.39-0.79-0.77-1.19-1.16c0.01-3.66-0.14-7.32,0.06-10.96c0.22-4,2.56-6.89,6.48-6.81
		c6.91,0.14,13.85,0.82,20.7,1.85C195.26,602.71,197.89,604.84,195.54,609.12z"/>
	<path class="st28" d="M178.98,556.82c0.25,2.66,0.5,5.32,0.75,7.98c-4,0.17-4.88,3.45-4.92,6.2c-0.04,2.62-2.59,6.26,1.77,8.03
		c-1.29,1.6-2.58,3.2-3.88,4.81c-0.36-1.44-0.97-2.87-1.03-4.33c-0.33-7.55,1.53-14.62,5.07-21.27
		C177.49,557.77,178.23,557.29,178.98,556.82z"/>
	<path class="st16" d="M176.58,579.03c-4.37-1.77-1.81-5.41-1.77-8.03c0.04-2.75,0.91-6.03,4.92-6.2c1.57,0.47,3.14,0.94,4.7,1.42
		C181.81,570.49,179.2,574.76,176.58,579.03z"/>
	<path class="st15" d="M178.98,556.82c-0.74,0.47-1.49,0.94-2.23,1.42c-0.38-5.12-0.82-10.23-1.04-15.36
		c-0.02-0.54,1.21-1.49,1.96-1.6c0.79-0.12,1.94,0.33,2.49,0.93c0.71,0.78,0.98,1.96,1.45,2.97c0.13,0.35,0.26,0.7,0.39,1.05
		C180.99,549.76,179.98,553.29,178.98,556.82z"/>
	<path class="st22" d="M27.45,566.15c0.7-0.02,1.4-0.03,2.1-0.05c1.07,0.26,2.47,1.09,3.15,0.69c3.5-2.04,6.85-4.35,10.15-6.72
		c0.4-0.29,0.15-1.48,0.19-2.25c0.31-0.36,0.61-0.72,0.92-1.08c2.57,1.35,3.71,3.35,0.98,5.28c-4.66,3.28-9.63,6.11-14.96,9.44
		C28.95,569.31,28.2,567.73,27.45,566.15z"/>
	<path class="st16" d="M190.49,547.09c-1.95-0.38-3.9-0.76-5.85-1.15c1.23-3.7,2.45-7.4,3.68-11.1c0.36,0.01,0.72,0.02,1.08,0.03
		c1.03,2.77,2.05,5.53,3.08,8.3C191.81,544.48,191.15,545.79,190.49,547.09z"/>
	<path class="st22" d="M156.62,533.01c0.02-0.5-0.05-1.02,0.09-1.49c2.51-8.81,2.08-9.58-7.19-12.46c-0.33-0.64-0.66-1.28-1-1.92
		c10.05,0.01,14.67,5.59,11.12,13.62C159.2,531.77,157.66,532.28,156.62,533.01z"/>
	<path class="st18" d="M223.57,569.27c-1.02,0.4-2.05,0.8-2.56,1c0.52,0.69,1.9,2.29,1.8,2.39c-1.61,1.59-3.42,2.98-5.17,4.42
		c-0.8-0.36-1.59-0.73-2.4-1.09c-1.88-4.02,1.08-6.3,3.19-8.9C220.15,567.82,221.86,568.55,223.57,569.27z"/>
	<path class="st11" d="M148.52,517.14c0.33,0.64,0.66,1.28,1,1.92c-6,1.02-12,2.04-18,3.06c-0.4-0.06-0.8-0.12-1.2-0.19
		c2.35-1.25,4.58-3.03,7.09-3.62C141.01,517.46,144.81,517.49,148.52,517.14z"/>
	<path class="st17" d="M93.24,589.2c1.2,0.42,2.41,0.84,3.61,1.26c-0.28,0.6-0.55,1.2-0.83,1.8c-0.94-0.86-1.88-1.73-2.82-2.6
		C93.2,589.66,93.24,589.2,93.24,589.2z"/>
	<path class="st21" d="M47.47,588.83c0.04,0.47,0.08,0.94,0.12,1.41c-0.69-0.03-1.38-0.06-2.08-0.1
		C46.16,589.71,46.82,589.27,47.47,588.83z"/>
	<path class="st19" d="M164.52,618.12c0.4,0.39,0.79,0.77,1.19,1.16C165.31,618.89,164.92,618.5,164.52,618.12z"/>
	<path class="st9" d="M238.7,547.05c0.26-0.09,0.52-0.1,0.79-0.04c0.85,0.36,1.68,0.82,2.57,1.05c1.1,0.28,2.39,0.11,3.3,0.64
		c0.47,0.27,0.71,1.97,0.32,2.46c-0.61,0.78-1.77,1.35-2.79,1.57c-2.74,0.59-5.53,0.94-8.31,1.38c-0.36-0.05-0.73-0.09-1.09-0.14
		C235.23,551.66,236.96,549.35,238.7,547.05z"/>
	<path class="st22" d="M233.49,553.96c0.36,0.05,0.73,0.09,1.09,0.14c-2.42,4.65-4.84,9.31-7.26,13.96
		c-0.19,0.01-0.37,0.04-0.55,0.08c1.22-3.14,2.67-6.22,3.56-9.45c0.36-1.31-0.46-2.95-0.75-4.44l-0.02-0.03
		c0.98-0.04,1.96-0.08,2.93-0.13C232.83,554.05,233.16,554,233.49,553.96z"/>
	<path class="st22" d="M169.63,312.19c1.83,0,3.67,0.1,5.49-0.02c2.63-0.19,3.53,1.04,3.52,3.54c-0.01,2.57-1.11,3.55-3.66,3.43
		c-3.82-0.18-7.69,0.12-11.47-0.36c-1.29-0.16-2.35-2.08-3.51-3.19c1.21-1.19,2.23-2.96,3.68-3.44c1.8-0.6,3.95-0.14,5.94-0.14
		C169.63,312.06,169.63,312.13,169.63,312.19z M175.04,315.85c0-0.35-0.01-0.7-0.01-1.05c-3.98,0-7.96,0-11.94,0
		c0,0.35,0.01,0.7,0.01,1.05C167.08,315.85,171.06,315.85,175.04,315.85z"/>
	<path class="st22" d="M188.58,628.16c-4.79-0.09-9.61,0.1-14.35-0.42c-1.5-0.16-3.68-2.05-3.97-3.47
		c-0.53-2.56,1.39-3.62,4.06-3.36c2.46,0.24,4.95,0.14,7.43,0.19c6.86,0.14,6.86,0.14,6.81,7.08
		C188.56,628.18,188.58,628.16,188.58,628.16z M185.28,625.99c0.04-0.75,0.09-1.5,0.13-2.25c-4.11,0-8.22,0-12.32,0
		c-0.02,0.44-0.04,0.88-0.06,1.32C177.11,625.38,181.19,625.68,185.28,625.99z"/>
	<path class="st22" d="M167.39,632.88c-0.33,0.61-0.66,1.21-0.99,1.82c-0.05-0.49-0.1-0.97-0.15-1.46
		C166.63,633.12,167.01,633,167.39,632.88z"/>
	<path class="st9" d="M261.5,556.11c0.12,0.08,0.24,0.16,0.37,0.24C261.74,556.28,261.62,556.2,261.5,556.11L261.5,556.11z"/>
	<path class="st18" d="M152.74,365c0.19-2.97,0.38-5.93,0.56-8.9c1.06-0.62,2.12-1.24,3.18-1.85c2.28,0.66,4.56,1.31,6.83,1.97
		c-1.36,1.81-2.67,3.67-4.11,5.41c-0.87,1.05-1.95,1.93-2.95,2.9c-0.12,0.2-0.27,0.35-0.47,0.44
		C154.78,364.97,153.76,364.98,152.74,365z"/>
	<path class="st20" d="M7.48,525.14c0.35-0.35,0.71-0.7,1.06-1.06C8.19,524.44,7.83,524.79,7.48,525.14z"/>
	<path class="st24" d="M64.52,601.1c-4.96,1.6-9.9,3.29-14.91,4.76c-1.41,0.41-3.01,0.18-4.53,0.24c6.24-2.34,12.48-4.68,18.72-7.02
		C64.04,599.75,64.28,600.43,64.52,601.1z"/>
	<path class="st22" d="M42.5,597.1c6.42-2.35,12.84-4.69,19.25-7.04c0.27,0.68,0.54,1.36,0.81,2.04c-4.66,1.7-9.32,3.4-13.99,5.1
		c-1.03,0.35-2.06,0.7-3.09,1.05c-1.02,0.03-2.04,0.05-3.06,0.07C42.45,597.92,42.48,597.51,42.5,597.1z"/>
	<path class="st24" d="M49.52,598.86c4.22-1.33,8.45-2.67,12.67-4c0.21,0.64,0.42,1.28,0.64,1.93c-6.09,2.16-12.17,4.32-18.26,6.48
		c-0.26-0.33-0.51-0.67-0.77-1c0.57-0.73,1.14-1.45,1.71-2.18C46.85,599.68,48.19,599.27,49.52,598.86z"/>
	<path class="st24" d="M51.52,615.08c-0.9-0.15-1.79-0.3-2.69-0.45c-0.07-0.31-0.14-0.61-0.21-0.92c5-2.05,9.99-4.11,14.99-6.16
		c1.19,0,2.39,0,3.58,0c0.12,0.43,0.24,0.86,0.36,1.29C62.2,610.92,56.86,613,51.52,615.08z"/>
	<path class="st24" d="M63.54,606.21c-5.4,1.63-10.81,3.26-16.21,4.89c-0.22-0.62-0.43-1.24-0.65-1.86
		c6.29-2.08,12.57-4.15,18.86-6.23C64.87,604.08,64.2,605.14,63.54,606.21z"/>
	<path class="st11" d="M42.1,608.08c-0.83-1.02-1.66-2.04-2.49-3.07c1.33,0.36,2.66,0.72,4,1.07
		C43.1,606.76,42.6,607.42,42.1,608.08z"/>
	<path class="st23" d="M49.52,598.86c-1.34,0.41-2.67,0.82-4.01,1.23c-0.01-0.61-0.02-1.22-0.02-1.83c1.03-0.35,2.06-0.7,3.08-1.05
		C48.89,597.76,49.21,598.31,49.52,598.86z"/>
	<path class="st23" d="M42.5,597.1c-0.02,0.41-0.05,0.82-0.07,1.23c-1.03,0.66-2.06,1.32-3.09,1.98c0.16-1.08,0.33-2.17,0.49-3.25
		C40.73,597.08,41.61,597.09,42.5,597.1z"/>
	<path class="st23" d="M143.52,580.11c-4.86,0.87-9.73,1.75-15.38,2.76c4.25-4.42,13.01-5.63,15.36-2.75L143.52,580.11z"/>
	<path class="st24" d="M110.74,598.15c-1.28-0.12-2.56-0.25-4.6-0.44c0.81-1.55,1.25-2.7,1.95-3.66c3.88-5.36,2.75-8.57-3.68-11.05
		c-1.19-0.46-2.01-1.91-2.99-2.9c1.43-3.44,2.93-4.26,5.26-0.52c1.18,1.89,2.86,3.57,4.62,4.97c3.45,2.73,3.93,5.25,0.68,8.61
		C110.95,594.23,111.12,596.46,110.74,598.15z"/>
	<path class="st11" d="M118.62,638.23c-6.58,1.04-13.16,2.08-19.74,3.12c-0.08-0.42-0.15-0.85-0.23-1.27
		c6.51-1.12,13.02-2.23,19.53-3.35C118.33,637.23,118.48,637.73,118.62,638.23z"/>
	<path class="st11" d="M111.55,647.09c2.33-1,4.65-2,6.98-3.01c0.31,0.08,0.62,0.16,0.93,0.24c-0.16,0.29-0.27,0.78-0.5,0.84
		C116.5,645.84,114.02,646.45,111.55,647.09z"/>
	<path class="st14" d="M105.56,298.38c-2.36-0.02-4.71-0.04-7.07-0.06c-1.78,0-3.56,0-5.8,0c0-9.28-0.1-18.17,0.16-27.04
		c0.02-0.81,2.31-2.17,3.59-2.23c4.79-0.23,9.61,0.11,14.41-0.04c2.91-0.09,3.71,1.14,3.66,3.83c-0.12,7.43-0.06,14.87-0.07,22.31
		C113.18,300.89,108.47,297.14,105.56,298.38z M109.79,296.3c0.35-0.6,0.7-1.2,1.05-1.8c-1.65-1.07-3.27-2.21-4.97-3.19
		c-2-1.15-3.59-2.71-1.34-4.58c4.87-4.05,2.57-6.93-1.01-9.98c-1.37-1.17-2.33-2.85-3.73-3.97c-1-0.79-2.41-1.26-3.69-1.39
		c-0.45-0.05-1.65,1.65-1.46,1.99c0.58,1.08,1.48,2.26,2.56,2.73c5.75,2.57,6.79,5.79,3.59,11.27c-0.58,1-1.09,3.19-0.72,3.42
		C103.18,292.82,106.51,294.52,109.79,296.3z"/>
	<path class="st9" d="M229.59,554.25c0.28,1.49,1.11,3.13,0.75,4.44c-0.9,3.23-2.34,6.31-3.56,9.45c-1.06,0.38-2.13,0.76-3.2,1.14
		c-1.71-0.72-3.43-1.45-5.14-2.18c3.29-6.12,6.58-12.24,9.87-18.36C228.73,550.58,229.16,552.41,229.59,554.25z"/>
	<path class="st14" d="M229.59,554.25c-0.43-1.84-0.85-3.67-1.28-5.51c1.38-2.88,2.76-5.76,4.14-8.64c1.02,0.34,2.04,0.68,3.05,1.02
		c0.66,0.33,1.32,0.65,1.97,0.98c0.38,0.37,0.75,0.75,1.13,1.12c0.03,1.27,0.07,2.55,0.1,3.82c-1.73,2.31-3.47,4.61-5.21,6.92
		c-0.33,0.04-0.66,0.08-0.99,0.12c-0.59-0.87-1.17-1.74-1.76-2.61c-0.39,0.91-0.78,1.83-1.17,2.74
		C229.57,554.21,229.59,554.25,229.59,554.25z"/>
	<path class="st23" d="M238.6,543.22c-0.38-0.37-0.75-0.75-1.13-1.12c-0.38-1-0.77-2-1.15-3.01c-1.18,0.03-2.35,0.06-3.53,0.09
		c1.12-1.99,2.24-3.98,3.71-6.6c2.05,1.21,5.58,2.57,5.46,3.36C241.57,538.48,239.82,540.81,238.6,543.22z"/>
	<path class="st9" d="M232.79,539.18c1.18-0.03,2.35-0.06,3.53-0.09c-0.27,0.68-0.55,1.35-0.82,2.03c-1.02-0.34-2.04-0.68-3.05-1.02
		C232.44,539.75,232.56,539.44,232.79,539.18z"/>
	<path class="st14" d="M33.22,454.66c0.55,1.27,1.56,2.54,1.56,3.81c0.02,8.55-0.18,17.09-0.31,25.64c-2.32-0.3-4.63-0.8-6.95-0.86
		c-6-0.15-12-0.1-18-0.13c-0.61-0.41-1.21-0.83-1.82-1.24c0.2-3.23,0.4-6.47,0.6-9.7c0.14-3.96,0.27-7.92,0.41-11.88
		c0.15-4.3,1.76-6.74,6.7-6.3C21.32,454.52,27.28,454.47,33.22,454.66z M21.7,472.17c0-0.06,0-0.13,0-0.19
		c-1.83,0-3.69,0.19-5.49-0.04c-2.85-0.36-4.42,1.12-3.98,3.54c0.24,1.33,2.31,3.08,3.76,3.29c3.6,0.52,7.31,0.17,10.97,0.34
		c2.49,0.11,3.7-0.75,3.71-3.38c0.01-2.46-0.8-3.77-3.47-3.59C25.37,472.27,23.53,472.17,21.7,472.17z"/>
	<path class="st22" d="M7.7,481.88c0.61,0.41,1.21,0.83,1.82,1.24c-0.45,0.49-0.9,0.97-1.35,1.46
		C8.02,483.69,7.86,482.79,7.7,481.88z"/>
	<path class="st16" d="M193.01,519.74c2.24-2.61,3.29-4.3,4.8-5.31c0.42-0.28,2.81,1.25,3.16,2.32c0.36,1.07-0.47,3.59-1.17,3.76
		C198.19,520.88,196.33,520.2,193.01,519.74z"/>
	<path class="st23" d="M141.95,403c-0.7-4.95,1.78-3.73,4.4-2.27c1.15,1.34,2.31,2.67,3.46,4.01c-0.26,0.39-0.53,0.77-0.79,1.16
		C146.66,404.93,144.3,403.97,141.95,403z"/>
	<path class="st18" d="M43.04,557.83c-0.05,0.77,0.2,1.96-0.19,2.25c-3.3,2.37-6.65,4.67-10.15,6.72c-0.68,0.4-2.08-0.43-3.15-0.69
		c2.08-1.88,4.17-3.77,6.26-5.65C38.21,559.58,40.62,558.7,43.04,557.83z"/>
	<path class="st9" d="M67.45,618.8c-0.33,0.42-0.67,0.84-1,1.27C66.79,619.64,67.12,619.22,67.45,618.8z"/>
	<path class="st3" d="M381.91,456.25c5.45-1.18,10.88-2.44,16.37-3.43c0.91-0.16,2.03,0.89,3.06,1.38
		c-0.75,0.64-1.42,1.66-2.28,1.87c-4.48,1.07-9,2.03-13.55,2.79c-1.17,0.19-2.49-0.51-3.74-0.8
		C381.82,457.45,381.87,456.85,381.91,456.25z"/>
	<path class="st9" d="M129.58,479.93c0-4.31-0.19-8.64,0.12-12.93c0.09-1.2,1.64-2.29,2.53-3.44c0.72,1.08,2.07,2.16,2.07,3.23
		c-0.07,8.94-0.33,17.89-0.73,26.82c-0.04,0.89-1.4,1.72-2.15,2.57c-0.66-0.94-1.83-1.85-1.88-2.82c-0.2-4.47-0.09-8.96-0.09-13.44
		C129.49,479.93,129.54,479.93,129.58,479.93z"/>
	<path class="st14" d="M99.43,394.18c-1.52,4.06-3.03,8.11-4.58,12.25c3.26,1.9,6.48,3.77,9.7,5.64
		c-4.64,8.54-9.15,17.16-14.03,25.56c-0.94,1.61-3.3,2.4-5,3.57c-6-3.67-12-7.34-18-11.02c-0.55-0.34-1.04-0.76-1.91-1.4
		c1.09-2.27,2.15-4.46,3.21-6.65c2.74-4.74,6.1-9.24,8.02-14.3c1.59-4.2,3.62-5.19,7.61-4.35c0.98,0.21,2.38-0.58,3.25-1.32
		c0.37-0.32,0.17-2.16-0.29-2.44c-0.91-0.54-2.2-0.4-3.3-0.67c-0.89-0.23-1.73-0.66-2.59-1c1.98-3.02,3.45-7.75,6.11-8.56
		c2.48-0.75,6.21,2.7,9.43,4.22C97.75,394.05,98.63,394.03,99.43,394.18z"/>
	<path class="st9" d="M81.51,398.06c0.86,0.34,1.7,0.77,2.59,1c1.1,0.28,2.39,0.13,3.3,0.67c0.46,0.27,0.67,2.12,0.29,2.44
		c-0.86,0.74-2.27,1.53-3.25,1.32c-3.98-0.84-6.02,0.15-7.61,4.35c-1.91,5.05-5.28,9.56-8.02,14.3c-0.43-0.98-0.86-1.96-1.29-2.95
		c1.32-3.1,2.64-6.19,4.08-9.58c-2.09-0.99-3.66-1.74-5.24-2.49c1.02-2.01,2.04-4.02,3.07-6.02c1.9,0.79,3.79,1.59,5.01,2.1
		c2.33-1.92,4.27-3.51,6.21-5.1C80.94,398.01,81.22,398,81.51,398.06z"/>
	<path class="st14" d="M80.65,398.09c-1.94,1.59-3.87,3.18-6.21,5.1c-1.22-0.51-3.11-1.3-5.01-2.1c1.68-3.32,3.37-6.64,5.05-9.97
		c1.01,0.34,2.02,0.67,3.02,1.01c0.66,0.33,1.32,0.66,1.99,0.99c0.37,0.37,0.73,0.73,1.1,1.1C80.62,395.51,80.63,396.8,80.65,398.09
		z"/>
	<path class="st14" d="M66.37,407.12c1.57,0.75,3.15,1.5,5.24,2.49c-1.44,3.39-2.76,6.48-4.08,9.58c-0.65,0.36-1.3,0.73-1.95,1.09
		c-1.69-0.71-3.38-1.43-5.07-2.15C62.46,414.46,64.41,410.79,66.37,407.12z"/>
	<path class="st23" d="M80.6,394.22c-0.37-0.37-0.73-0.73-1.1-1.1c-0.39-1-0.77-2.01-1.16-3.01c-1.17,0.03-2.34,0.06-3.51,0.1
		c1.12-1.99,2.23-3.97,3.7-6.59c2.04,1.2,5.56,2.56,5.43,3.35C83.56,389.5,81.82,391.82,80.6,394.22z"/>
	<path class="st9" d="M74.82,390.21c1.17-0.03,2.34-0.06,3.52-0.1c-0.28,0.68-0.55,1.35-0.83,2.03c-1.01-0.34-2.02-0.67-3.02-1.01
		C74.49,390.78,74.6,390.47,74.82,390.21z"/>
	<path class="st16" d="M137.47,424.61c0.01,4.59-2.68,8.57-5.75,8.53c-5.86-0.09-11.14-3.03-11.13-6.2
		c0.02-4.78,2.55-8.86,5.42-8.73C132.8,418.5,137.47,421.11,137.47,424.61z"/>
	<path class="st18" d="M121.49,284.59c4.68-3.86,9.62-0.76,14.49-1.41c0.02,0.47,0.04,0.94,0.06,1.41
		C131.19,284.59,126.34,284.59,121.49,284.59z"/>
	<path class="st16" d="M31.49,398.44c-1.61-0.49-3.22-0.98-4.83-1.47c1.23-3.69,2.45-7.38,3.54-10.67
		C37.06,389.91,33.31,394.22,31.49,398.44z"/>
	<path class="st21" d="M36.52,378.14c3.62,4.12-1.54,2.19-2.51,3.15C34.85,380.24,35.69,379.19,36.52,378.14
		C36.53,378.14,36.52,378.14,36.52,378.14z"/>
	<path class="st16" d="M39.41,373.46c-0.87-1.57-2.19-3.09-2.38-4.74c-0.07-0.63,2.43-1.56,3.77-2.35c0.57,1.94,1.13,3.89,1.7,5.83
		C41.47,372.62,40.44,373.04,39.41,373.46z"/>
	<path class="st18" d="M93.63,335.4c5.97-0.82,11.93-1.64,17.9-2.46c0.62,0.67,1.24,1.34,1.86,2.02c-5.13,0.96-10.23,2.06-15.39,2.8
		c-1.78,0.25-3.68-0.39-5.53-0.63C92.86,336.56,93.25,335.98,93.63,335.4z"/>
	<path class="st14" d="M92.4,509.06c-3.36,3.8-6.72,7.6-10.08,11.39c-0.91-0.13-2.13,0.09-2.68-0.42
		c-7.94-7.43-15.8-14.94-23.64-22.48c-0.28-0.27-0.2-0.93-0.29-1.4c6.95-1.62,9.43-8.28,14.15-12.43c1.35-1.19,3.38-1.6,5.25-2.43
		c0.41-1.28,0.89-2.8,1.37-4.31c8.02,7.35,16.04,14.7,24.09,22.09C97.57,502.73,94.98,505.89,92.4,509.06z M69.48,496.09
		c-0.33,0.33-0.66,0.66-0.99,0.99l-0.01,0.01c-0.65,1.12-1.29,2.25-1.94,3.37c0.36,0.23,0.73,0.46,1.09,0.69
		c-0.04,0.33-0.08,0.67-0.12,1c1.16,0.66,2.32,1.31,3.48,1.97c0.52,0.38,1.03,0.77,1.55,1.15c0.28,0.28,0.56,0.55,0.84,0.83
		c0.38,0.5,0.77,1.01,1.15,1.51c0.55,0.53,1.11,1.05,1.66,1.58c0.7,0.19,1.78,0.76,2.05,0.5c4.03-3.94,7.98-7.96,11.82-12.09
		c0.34-0.36-0.33-1.66-0.53-2.53c-0.62-0.32-1.23-0.64-1.85-0.96c-0.71-0.32-1.42-0.64-2.13-0.96c-0.08-0.41-0.17-0.82-0.25-1.23
		c-0.59-0.58-1.17-1.15-1.76-1.73l0.01-0.13c-1.34-0.98-2.68-1.97-4.02-2.95c-0.18-0.57-0.36-1.14-0.53-1.7
		c-0.83,0.88-1.67,1.77-2.5,2.65h0.01c-0.51,0.34-1.01,0.69-1.52,1.03c-0.27,0.04-0.43,0.19-0.47,0.46
		c-0.34,0.84-0.69,1.68-1.03,2.52l0.01-0.02c-0.33,0.33-0.67,0.67-1,1l0,0c-0.33,0.33-0.67,0.67-1,1l0,0c-0.33,0.33-0.66,0.66-1,1
		l-0.01,0.01C70.15,495.42,69.82,495.75,69.48,496.09L69.48,496.09z"/>
	<path class="st9" d="M103.53,407.12c-1.65-0.67-4.05-0.92-4.72-2.13c-0.56-1.02,0.89-3.15,1.45-4.8c0.53,0.04,1.06,0.08,1.6,0.12
		c0.55,2.28,1.1,4.55,1.65,6.83C103.51,407.15,103.53,407.12,103.53,407.12z"/>
	<path class="st9" d="M103.51,407.15c0.12,0.06,0.25,0.1,0.34,0.19c0.05,0.05,0.03,0.18,0.03,0.27c-0.12-0.16-0.23-0.32-0.35-0.48
		C103.53,407.12,103.51,407.15,103.51,407.15z"/>
	<path class="st11" d="M96.51,332.13c1-0.31,1.99-0.62,2.99-0.93c0.56,0.2,1.12,0.4,3.13,1.12c-3.99,0.82-6.57,1.36-9.16,1.89
		c-0.66-0.37-1.32-0.73-1.97-1.1C93.17,332.79,94.84,332.46,96.51,332.13z"/>
	<path class="st11" d="M111.53,331.19c-2.36,0.34-4.73,0.69-7.09,1.03c-0.07-0.3-0.13-0.59-0.2-0.89c2.1-0.69,4.19-1.38,6.29-2.06
		c0.68-0.05,1.36-0.1,2.04-0.15c-0.03,0.66-0.07,1.32-0.1,1.99C112.15,331.12,111.84,331.15,111.53,331.19z"/>
	<path class="st17" d="M112.47,331.12c0.03-0.66,0.07-1.32,0.1-1.99c0.51,0.27,1.01,0.55,1.52,0.82
		C113.55,330.34,113.01,330.73,112.47,331.12z"/>
	<path class="st16" d="M74.31,563.14c-5.43-0.5-8.27-3.01-7.83-6.92c0.57-5.06,4.21-10.32,6.89-9.98c4.78,0.61,8.39,3.51,8.11,6.51
		C80.98,558.06,77.28,563.41,74.31,563.14z"/>
	<path class="st9" d="M229.57,554.21c0.39-0.91,0.78-1.83,1.17-2.74c0.59,0.87,1.17,1.74,1.76,2.61
		C231.52,554.13,230.55,554.17,229.57,554.21z"/>
	<ellipse class="st18" cx="169.06" cy="315.32" rx="8.45" ry="0.74"/>
	<path class="st18" d="M185.28,625.99c-4.08-0.31-8.17-0.62-12.25-0.93c0.02-0.44,0.04-0.88,0.06-1.32c4.11,0,8.22,0,12.32,0
		C185.36,624.5,185.32,625.24,185.28,625.99z"/>
	<path class="st11" d="M109.79,296.3c-3.27-1.79-6.61-3.48-9.74-5.5c-0.36-0.23,0.14-2.42,0.72-3.42c3.2-5.48,2.16-8.7-3.59-11.27
		c-1.07-0.48-1.98-1.66-2.56-2.73c-0.18-0.34,1.02-2.04,1.46-1.99c1.28,0.13,2.69,0.6,3.69,1.39c1.41,1.12,2.36,2.8,3.73,3.97
		c3.58,3.05,5.87,5.93,1.01,9.98c-2.25,1.87-0.67,3.44,1.34,4.58c1.71,0.98,3.32,2.12,4.97,3.19
		C110.48,295.1,110.13,295.7,109.79,296.3z"/>
	<path class="st11" d="M235.5,541.12c0.27-0.68,0.55-1.35,0.82-2.03c0.38,1,0.77,2,1.15,3.01
		C236.81,541.77,236.16,541.45,235.5,541.12z"/>
	<path class="st22" d="M21.7,472.17c1.83,0,3.67,0.1,5.49-0.02c2.67-0.18,3.48,1.13,3.47,3.59c-0.01,2.63-1.21,3.49-3.71,3.38
		c-3.66-0.17-7.37,0.17-10.97-0.34c-1.44-0.21-3.51-1.96-3.76-3.29c-0.44-2.42,1.13-3.9,3.98-3.54c1.8,0.23,3.66,0.04,5.49,0.04
		C21.7,472.04,21.7,472.1,21.7,472.17z M15.1,474.64c-0.01,0.37-0.01,0.73-0.02,1.1c4,0,8,0,11.99,0c-0.01-0.37-0.02-0.73-0.03-1.1
		C23.06,474.64,19.08,474.64,15.1,474.64z"/>
	<path class="st11" d="M77.51,392.14c0.28-0.68,0.55-1.35,0.83-2.03c0.39,1,0.77,2.01,1.16,3.01
		C78.84,392.79,78.17,392.47,77.51,392.14z"/>
	<path class="st23" d="M70.99,504.12c-1.16-0.66-2.32-1.31-3.48-1.97c1.01-1.01,2.02-2.02,3.04-3.03l-0.03,0.03
		c0.34-0.34,0.68-0.68,1.03-1.02l-0.02,0.02c0.34-0.34,0.68-0.68,1.02-1.02l-0.02,0.02c0.34-0.34,0.68-0.68,1.02-1.02l-0.02,0.02
		c0.34-0.34,0.68-0.68,1.02-1.02l-0.02,0.02c0.34-0.34,0.68-0.68,1.02-1.02l-0.02,0.02c0.34-0.34,0.68-0.68,1.02-1.02l-0.02,0.02
		c0.34-0.34,0.68-0.68,1.02-1.02l-0.02,0.02c0.34-0.34,0.68-0.68,1.02-1.01l-0.01,0.02c1-0.35,1.99-0.69,2.99-1.04
		c0.68-0.01,1.35-0.02,2.03-0.02l-0.01,0.13c-2.34,3.31-4.68,6.61-7.02,9.92l0.02-0.01c-0.34,0.34-0.68,0.68-1.02,1.02l0.02-0.02
		c-0.34,0.34-0.68,0.68-1.02,1.01l0.01-0.01c-0.34,0.34-0.67,0.67-1.01,1.01l0,0c-0.34,0.34-0.67,0.67-1.01,1.01l0.02-0.02
		C72.01,504.12,71.5,504.12,70.99,504.12z"/>
	<path class="st23" d="M87.67,494.13c0.62,0.32,1.23,0.64,1.85,0.96c-4.44,4.7-8.89,9.41-13.33,14.11
		c-0.55-0.53-1.11-1.05-1.66-1.58c0-0.5,0-1.01,0.01-1.51l-0.03,0.03c0.34-0.34,0.69-0.69,1.03-1.03l-0.03,0.03
		c0.34-0.34,0.68-0.68,1.03-1.03l-0.02,0.02c0.34-0.34,0.68-0.68,1.02-1.02l-0.02,0.02C80.9,500.13,84.28,497.13,87.67,494.13z"/>
	<path class="st17" d="M87.67,494.13c-3.39,3-6.77,6-10.16,9c-0.33-1-0.67-2-1-3c2.34-3.31,4.68-6.61,7.02-9.92
		c0.59,0.58,1.17,1.15,1.76,1.73c-0.33,0.35-0.67,0.69-1,1.04c-0.64,0.66-1.28,1.32-1.92,1.98c-0.83,0.87-1.65,1.74-2.48,2.61
		c0.29,0.23,0.57,0.47,0.86,0.7c0.68-0.93,1.36-1.86,2.04-2.8c0.92-0.77,1.85-1.54,2.77-2.3h-0.03
		C86.25,493.49,86.96,493.81,87.67,494.13z"/>
	<path class="st15" d="M83.55,490.09c-0.68,0.01-1.35,0.02-2.03,0.02c-0.24-0.57-0.47-1.14-0.71-1.71
		c-0.76,0.91-1.52,1.83-2.28,2.74l0.01-0.02c-0.34,0.34-0.68,0.68-1.02,1.01l0.02-0.02c-0.34,0.34-0.68,0.68-1.02,1.02l0.02-0.02
		c-0.34,0.34-0.68,0.68-1.02,1.02l0.02-0.02c-0.34,0.34-0.68,0.68-1.02,1.02l0.02-0.02c-0.34,0.34-0.68,0.68-1.02,1.02l0.02-0.02
		c-0.34,0.34-0.68,0.68-1.02,1.02l0.02-0.02c-0.34,0.34-0.68,0.68-1.02,1.02l0.02-0.02c-0.34,0.34-0.68,0.68-1.03,1.02l0.03-0.03
		c-0.66,0.34-1.31,0.68-1.97,1.01c-0.42-0.05-0.85-0.1-1.27-0.14c0.39-0.97,0.78-1.93,1.17-2.9l0.01-0.01
		c0.33-0.33,0.66-0.66,0.99-0.99l0.01-0.01c0.33-0.33,0.66-0.66,0.99-0.99l0.01-0.01c0.33-0.33,0.66-0.66,1-1l0,0
		c0.33-0.33,0.67-0.67,1-1l0,0c0.33-0.33,0.67-0.67,1-1l-0.01,0.02c0.34-0.84,0.69-1.68,1.03-2.52c0.04-0.27,0.2-0.42,0.47-0.46
		c0.51-0.34,1.01-0.69,1.52-1.03h-0.01c1.01-0.32,2.02-0.63,3.04-0.95C80.87,488.12,82.21,489.1,83.55,490.09z"/>
	<path class="st11" d="M76.19,509.2c4.44-4.7,8.89-9.41,13.33-14.11c0.2,0.86,0.87,2.16,0.53,2.53c-3.83,4.13-7.79,8.14-11.82,12.09
		C77.97,509.96,76.89,509.39,76.19,509.2z"/>
	<path class="st23" d="M76.51,500.13c0.33,1,0.67,2,1,3l0.02-0.02c-0.34,0.34-0.68,0.68-1.02,1.02l0.02-0.02
		c-0.34,0.34-0.68,0.68-1.03,1.03l0.03-0.03c-0.34,0.34-0.69,0.69-1.03,1.03l0.03-0.03c-0.38,0-0.77,0-1.15,0
		c-0.28-0.28-0.56-0.55-0.84-0.83c0-0.39-0.01-0.77-0.01-1.16l-0.02,0.02c0.34-0.34,0.67-0.67,1.01-1.01l0,0
		c0.34-0.34,0.67-0.67,1.01-1.01l-0.01,0.01c0.34-0.34,0.68-0.68,1.02-1.01l-0.02,0.02c0.34-0.34,0.68-0.68,1.02-1.02
		C76.53,500.12,76.51,500.13,76.51,500.13z"/>
	<path class="st21" d="M68.48,497.09c-0.39,0.97-0.78,1.93-1.17,2.9c-0.31,0.07-0.56,0.23-0.76,0.47
		C67.18,499.34,67.83,498.21,68.48,497.09z"/>
	<path class="st19" d="M68.57,500.13c0.66-0.34,1.31-0.68,1.97-1.01c-1.01,1.01-2.02,2.02-3.04,3.03c0.04-0.33,0.08-0.67,0.12-1
		C67.94,500.81,68.26,500.47,68.57,500.13z"/>
	<path class="st21" d="M79.53,487.14c-1.01,0.32-2.02,0.63-3.04,0.95c0.83-0.88,1.67-1.77,2.5-2.65
		C79.17,486,79.35,486.57,79.53,487.14z"/>
	<path class="st21" d="M74.51,489.59c-0.34,0.84-0.69,1.68-1.03,2.52C73.82,491.26,74.17,490.42,74.51,489.59z"/>
	<path class="st23" d="M68.57,500.13c-0.32,0.34-0.63,0.68-0.95,1.01c-0.36-0.23-0.73-0.46-1.09-0.69c0.2-0.24,0.46-0.4,0.76-0.47
		C67.73,500.04,68.15,500.09,68.57,500.13z"/>
	<path class="st17" d="M72.53,504.12c0,0.39,0.01,0.77,0.01,1.16c-0.52-0.38-1.03-0.77-1.55-1.15
		C71.5,504.12,72.01,504.12,72.53,504.12z"/>
	<path class="st21" d="M73.49,492.09c-0.33,0.33-0.67,0.67-1,1C72.82,492.76,73.15,492.42,73.49,492.09z"/>
	<path class="st15" d="M84.29,492.98c0.33-0.35,0.67-0.69,1-1.04c0.08,0.41,0.16,0.82,0.25,1.22c0,0,0.04,0,0.03,0
		C85.15,493.11,84.72,493.04,84.29,492.98z"/>
	<path class="st17" d="M73.38,506.11c0.38,0,0.77,0,1.15,0c0,0.5,0,1.01-0.01,1.51C74.14,507.12,73.76,506.61,73.38,506.11z"/>
	<path class="st21" d="M72.48,493.09c-0.33,0.33-0.67,0.67-1,1C71.82,493.75,72.15,493.42,72.48,493.09z"/>
	<path class="st21" d="M70.48,495.09c-0.33,0.33-0.66,0.66-0.99,0.99C69.82,495.75,70.15,495.42,70.48,495.09z"/>
	<path class="st21" d="M71.48,494.09c-0.33,0.33-0.66,0.66-1,1C70.82,494.75,71.15,494.42,71.48,494.09z"/>
	<path class="st21" d="M69.48,496.09c-0.33,0.33-0.66,0.66-0.99,0.99C68.82,496.75,69.15,496.42,69.48,496.09z"/>
	<path class="st21" d="M76.5,488.09c-0.51,0.34-1.01,0.69-1.52,1.03C75.48,488.78,75.99,488.43,76.5,488.09z"/>
	<path class="st18" d="M15.1,474.64c3.98,0,7.96,0,11.94,0c0.01,0.37,0.02,0.73,0.03,1.1c-4,0-8,0-11.99,0
		C15.09,475.38,15.09,475.01,15.1,474.64z"/>
	<path class="st19" d="M78.53,491.15c0.76-0.91,1.52-1.83,2.28-2.74c0.24,0.57,0.47,1.14,0.71,1.71
		C80.52,490.46,79.52,490.8,78.53,491.15z"/>
	<path class="st19" d="M70.52,499.15c0.34-0.34,0.68-0.68,1.03-1.02C71.2,498.47,70.86,498.81,70.52,499.15z"/>
	<path class="st17" d="M75.53,501.12c-0.34,0.34-0.68,0.68-1.02,1.01C74.85,501.79,75.19,501.45,75.53,501.12z"/>
	<path class="st17" d="M74.53,502.12c-0.34,0.34-0.67,0.67-1.01,1.01C73.85,502.79,74.19,502.46,74.53,502.12z"/>
	<path class="st17" d="M73.52,503.12c-0.34,0.34-0.67,0.67-1.01,1.01C72.85,503.8,73.19,503.46,73.52,503.12z"/>
	<path class="st17" d="M76.53,500.12c-0.34,0.34-0.68,0.68-1.02,1.02C75.85,500.8,76.19,500.46,76.53,500.12z"/>
	<path class="st19" d="M77.52,492.15c0.34-0.34,0.68-0.68,1.02-1.01C78.2,491.47,77.86,491.81,77.52,492.15z"/>
	<path class="st19" d="M76.52,493.15c0.34-0.34,0.68-0.68,1.02-1.02C77.2,492.47,76.86,492.81,76.52,493.15z"/>
	<path class="st19" d="M75.52,494.15c0.34-0.34,0.68-0.68,1.02-1.02C76.2,493.47,75.86,493.81,75.52,494.15z"/>
	<path class="st19" d="M73.52,496.15c0.34-0.34,0.68-0.68,1.02-1.02C74.2,495.47,73.86,495.81,73.52,496.15z"/>
	<path class="st19" d="M74.52,495.15c0.34-0.34,0.68-0.68,1.02-1.02C75.2,494.47,74.86,494.81,74.52,495.15z"/>
	<path class="st19" d="M72.52,497.15c0.34-0.34,0.68-0.68,1.02-1.02C73.2,496.47,72.86,496.81,72.52,497.15z"/>
	<path class="st19" d="M71.52,498.15c0.34-0.34,0.68-0.68,1.02-1.02C72.2,497.47,71.86,497.81,71.52,498.15z"/>
	<path class="st17" d="M76.51,504.14c0.34-0.34,0.68-0.68,1.02-1.02C77.19,503.45,76.85,503.8,76.51,504.14z"/>
	<path class="st17" d="M75.51,505.14c0.34-0.34,0.68-0.68,1.03-1.03C76.19,504.45,75.85,504.8,75.51,505.14z"/>
	<path class="st17" d="M74.5,506.14c0.34-0.34,0.69-0.69,1.03-1.03C75.19,505.45,74.85,505.8,74.5,506.14z"/>
	<path class="st23" d="M82.81,495.48c-0.68,0.93-1.36,1.86-2.05,2.8c-0.29-0.23-0.57-0.47-0.86-0.7c0.83-0.87,1.65-1.74,2.48-2.61
		C82.53,495.13,82.67,495.3,82.81,495.48z"/>
	<path class="st23" d="M84.29,492.98c0.43,0.06,0.86,0.12,1.28,0.19c-0.93,0.77-1.85,1.53-2.77,2.3c-0.13-0.17-0.28-0.34-0.43-0.51
		C83.02,494.3,83.65,493.64,84.29,492.98z"/>
</g>
<path class="st29" d="M99.85,185.83c2.61,0.16,3.91-0.24,5.49-0.35c5.45-0.39,7.36,3.1,11.58,1.74c0.49-0.16,1.97-0.64,2.12-1.56
	c0.16-0.98-1.26-2.02-2.98-3.27c-0.71-0.52-1.55-1.13-2.83-1.68c-1.63-0.71-3.11-0.97-4.13-1.06c-3.46,0.5-6.17,1.42-8.11,2.23
	c-1.16,0.49-4.94,2.08-4.72,3.06C96.43,185.62,98.47,185.74,99.85,185.83z"/>
<path class="st29" d="M268.49,219.27"/>
<path class="st29" d="M182.22,198.62c-2.56-0.54-3.71-1.27-5.2-1.8c-5.22-1.85-7.55,0.95-11.63-1.4c-1.67-0.96-3.05-2.47-2.8-2.96
	c0.16-0.31,0.84,0.02,2.14-0.27c1.06-0.24,1.09-0.56,2.77-1.21c0.73-0.28,1.3-0.44,2.13-0.68c0.97-0.27,1.68-0.48,2.41-0.59
	c0.84-0.13,2.15-0.21,3.82,0.19c0.92,0.53,2.28,1.36,3.83,2.49c0.65,0.47,6.88,5.05,6.2,6.3
	C185.58,199.31,183.77,198.95,182.22,198.62z"/>
</svg>
