<?xml version="1.0" encoding="utf-8"?>
<!-- Generator: Adobe Illustrator 23.0.3, SVG Export Plug-In . SVG Version: 6.00 Build 0)  -->
<svg version="1.1" id="Ebene_1" xmlns="http://www.w3.org/2000/svg" xmlns:xlink="http://www.w3.org/1999/xlink" x="0px" y="0px"
	 viewBox="0 0 491.7 644" style="enable-background:new 0 0 491.7 644;" xml:space="preserve">
<style type="text/css">
	.st0{fill:#F7B381;}
	.st1{fill:#534751;}
	.st2{fill:#FBE0E0;}
	.st3{fill:#2E2B3E;}
	.st4{fill:#3E3745;}
	.st5{fill:#B34644;}
	.st6{fill:#F9DEDE;}
	.st7{fill:#A66365;}
	.st8{fill:#F5A267;}
	.st9{fill:#B1403E;}
	.st10{fill:#595866;}
	.st11{fill:#F9C39E;}
	.st12{fill:#F5F0F3;}
	.st13{fill:#BCA5B3;}
	.st14{fill:#B994A1;}
	.st15{fill:#AE94A4;}
	.st16{fill:#B8A0AF;}
	.st17{fill:#8F6C82;}
	.st18{fill:#C8B8C3;}
	.st19{fill:#C3AEBA;}
	.st20{fill:#BCA3B0;}
	.st21{fill:#EAE3E7;}
	.st22{fill:#EED4D3;}
	.st23{fill:#F4B7B9;}
	.st24{fill:#FFFFFF;}
	.st25{fill:#FAC59F;}
	.st26{fill:#FAF7F8;}
	.st27{fill:#E1D8DD;}
	.st28{fill:#E98740;}
	.st29{fill:#896D65;}
	.st30{fill:#C6967F;}
	.st31{fill:#F9C49E;}
	.st32{fill:#89726F;}
	.st33{fill:#3C3A4C;}
	.st34{fill:#E88138;}
</style>
<g>
	<path class="st0" d="M153.1,248.9c1.9-0.3,3.8-0.6,5.6-1c4.3-0.9,8.6-1.9,12.8-2.9c-0.4,3.5-0.9,6.9-1.4,10.4
		c0.2,2.1,0.2,4,0.1,5.6c-0.1,1.6-0.8,2.3-0.7,3.9c0.1,1.5,0.5,2.4,0,2.8c-0.6,0.5-1.9,0-2.3-0.2c-3.3-1.4-4.4-6.4-4.8-8.3
		C159.4,255.8,156.2,252.4,153.1,248.9z"/>
	<path class="st1" d="M148.1,0c-0.2,2-0.4,3.9-0.6,5.9c-4.3-3.3-4.9,1.5-7,3.1c0-3.4,0-6.8,4.9-6.8c0.2,0,0.5-1.5,0.7-2.2
		C146.8,0,147.4,0,148.1,0z"/>
	<path class="st2" d="M48.1,535.9c-0.3-0.6-0.7-1.3-1-1.9c3.3-0.7,6.6-1.4,10-2.2c1,1.4,1.9,2.8,2.9,4.2c0.4,3.4,2,4.3,5,2.3
		c1.5-1,3.3-1.7,4.6-2.9c2.4-2.1,4.5-4.4,6.7-6.6c2.1-3.1-1.8-1.8-2.2-3c0.1-0.5,0.1-1.3,0.3-1.4c8.2-3.2,16.4-6.3,24.6-9.5
		c-0.8,2.2-1.4,4.4-2.3,6.6C94,527.9,95,532,101,535.1c2.8,1.4,7.8,3.1,9.1,1.8c3.2-3.2,5.6-7.7,6.7-12.1c0.6-2.4-2-5.9-3.9-8.3
		c-1.2-1.5-3.8-1.8-5.7-2.7c3.5-2.9,6.6-6.7,10.5-8.5c9-4,18.4-7,27.6-10.4c-0.1,0.4-0.1,0.9-0.2,1.3c3,1,6.1,1.9,9.1,2.9
		c0.1,2.3-0.2,4.7,0.2,7c0.9,5.5,6.6,9.1,15.1,7.7c5.5-0.9,8.8-0.3,10,5.4c0,0.2,0.6,0.2,1.4,0.4c1.5-4.5,2.9-9,4.4-13.5
		c7.3,1.4,14.5,2.7,21.8,4.1c0,1.8-0.1,3.6,0.1,5.4c0.3,3.8,0.8,7.6,1.2,11.3c-1.1,3.3-2.1,6.7-3.2,10c-0.4,4.3-0.9,8.7-1.3,13
		c-0.3,0.7-0.5,1.5-0.8,2.2c1.4-0.7,2.7-1.4,4-2.1c0.4-0.4,0.8-0.8,1.1-1.2c0.6-1,1.2-2,1.8-3c4.8-2.1,5-6.8,6.1-11
		c2.4-6.6,4.8-13.2,7.2-19.8c1.6,0.1,3.4-0.2,4.9,0.4c8.1,3,16,6.2,24.1,9.3c-3.1,6.3-6.3,12.6-9.6,19.1c7.2,3.5,13.8,6.8,20.4,10.1
		c3.7,1.6,7.4,3.3,11,4.9c1.2,1,2.3,2.5,3.7,2.9c0.8,0.2,2.5-1.2,3.1-2.3c2.9-5,5.5-10,8.2-15.1c4.7,4,9.5,7.7,14,11.9
		c21.1,20,10.7,49.3-13.9,57.7c-4.4-4.8-8.8-9.8-13.4-14.5c-3.2-3.2-6.8-6-10.8-9.4c-1,3-1.7,5.2-2.5,7.6c-3.5-1.4-5.5-0.2-8,2.8
		c-2.7,3.3-4,8.6-9.4,9.4c-4.9,2.8-5.2,4-1.5,7.6c1.4,1.3,3.2,2.3,4.8,3.5c1.3,2,2.5,4,3.8,5.9c-4.8,0.8-9.5,1.7-14.3,2.5
		c-10.2,1.6-20.4,3.2-30.6,4.7c-2.8-0.8-5.7-1.6-8.5-2.4c-1.1-2.3-2.3-4.6-3.6-7.3c-6,7.2-6,8.1-1,10.7c-1.3,0.5-2.6,1.4-4,1.5
		c-11.9,1.2-23.8,3-35.6,3.1c-16.7,0.1-33.5-0.7-50.2-2c-13.2-1-26.3-3.1-39.4-4.7c0.2-1.3,0.4-2.5,0.5-3.8c0.3-6.4,0.7-12.8,1-19.2
		c13.3-4.4,26.6-9,40-13.2c3.9-1.2,5.6-3,4.8-7c1.9,0.1,3.9,0.2,5.8,0.3c0.4,0.1,0.8,0.2,1.1,0.4c2.2,0.2,4.4,0.5,6.7,0.7
		c0.5,0.2,0.9,0.3,1.4,0.5c2,0.1,4,0.3,5.9,0.4c0.7,0.2,1.3,0.3,2,0.5c5.6,0.4,11.2,1.1,16.8,1c11.5-0.2,23-0.8,34.5-1.2
		c0.2,0.2,0.4,0.3,0.7,0.4c-0.2,1-0.4,1.9-0.5,2.9c-0.5,6.5-0.9,12.9-1.4,19.4c-0.1,1.1-0.4,2.8,0,3c1.3,0.6,2.9,1,4.2,0.7
		c0.8-0.2,1.7-1.8,1.8-2.9c0.5-7.9,0.8-15.8,1.1-23.8c0.4-0.2,0.7-0.4,1.1-0.5c0.6-0.2,1.3-0.4,1.9-0.5c0.4,0,0.7,0.1,1.1,0.2
		c0,3.1,0,6.3,0.1,9.4c0,5,1.6,6.2,6.5,6c6.5-0.3,13.1-0.1,19.6-0.1c0.2,0.5,0.3,1,0.5,1.4c1.4-1.9,2.8-3.9,4.1-5.8
		c0.4-8,0.7-16,1.1-23.9c2.5-4.3-0.2-6.5-3.7-7c-6.8-1.1-13.7-1.7-20.6-1.9c-4-0.1-6.3,2.8-6.6,6.7c-0.3,3.6-0.1,7.3-0.2,10.9
		c-0.7,0.3-1.4,0.5-2,0.8c-0.4,0.1-0.7,0.2-1.1,0.3c-2.3,0.3-4.7,0.5-7,0.8c-0.3,0.1-0.6,0.2-0.9,0.2c-5.3,0.2-10.6,0.3-15.9,0.5
		c-0.3-0.2-0.6-0.2-0.8,0.1c-11.9-0.2-23.8-0.5-35.7-0.7c-0.4-0.1-0.9-0.3-1.3-0.4c-4.6-0.5-9.2-1-13.8-1.6
		c-0.4-0.1-0.8-0.3-1.2-0.4c-1.7-0.2-3.4-0.4-5.1-0.5c-0.7-0.2-1.3-0.5-2-0.7c-0.3-0.2-0.6-0.3-0.9-0.5c-3.4-10.5-6.6-21-10.3-31.5
		c-0.3-0.8-3.3-1.5-4.8-1c-10.1,3.1-20.1,6.5-30.2,9.9c-5.8-6.5-8.6-14.5-11.2-22.6C51.4,537.8,51.6,534.6,48.1,535.9z M136.1,605.9
		c-0.3,0-0.7,0-1,0.1c-1.3,0.3-2.7,0.6-4,0.9c-1.3,0.2-2.6,0.4-3.9,0.7c-0.6,0-1.2,0-1.8,0c-0.8,0.1-1.6,0.2-2.4,0.2
		c-2.7,1.4-5.3,2.8-8,4.2c-1.7,5.2-0.6,7.7,3.5,8.3c3.1-0.3,6.2-0.5,9.4-0.8c4.4-0.8,8.8-1.7,13.3-2.5c4-0.7,8-1.4,12.1-2.1
		c4-2,8-4,12.1-6c-0.1-0.8-0.3-1.6-0.4-2.4c-5.2-0.8-10.4-1.6-15.7-2.4c-0.4,0.1-0.8,0.1-1.1,0.2c-0.3-0.1-0.5,0-0.7,0.1
		c-3.1,0.5-6.1,1-9.2,1.6C137.4,605.9,136.8,605.9,136.1,605.9z M165.1,563c2,0,4-0.1,6-0.1c2.2-0.4,5.6,1.8,6-2.8
		c0.3-4.5-2.9-3.9-5.7-3.9c-3.6,0-7.3,0-10.9,0c0-0.5-0.1-0.9-0.1-1.4c1.2-0.6,2.4-1.2,3.7-1.8c3.9-0.7,7.8-1.2,11.5-2.4
		c1.1-0.3,2-2.6,2.2-4c0.1-0.6-2.2-2.1-3.3-2c-2.9,0.2-5.9,0.7-8.7,1.6c-1.2,0.4-2,1.9-2.9,2.9c-0.4,0-0.8,0-1.2,0
		c-1.2-1.2-2.4-2.3-3.6-3.5c0-0.6,0-1.3,0.1-1.9c0.1-0.4,0.3-0.9,0.4-1.3c-0.3,0.3-0.6,0.5-1,0.8l0,0c-0.9-0.7-1.9-1.9-2.8-1.9
		c-6.9,0.2-13.8,0.9-20.7,0.8c-4.5,0-5.7,1.8-5.5,5.9c0.1,2.8,1.1,6.1-3.2,7.8c-1,0.4-1.2,6.7-0.3,7.1c4.7,2.1,2.5,5.8,3.2,8.9
		c0.4,1.7,1.4,4.6,2.3,4.6c4.5,0.3,9-0.2,13.5-0.4c4.8,0.8,9.6,1.6,14.4,2.4c-0.2-0.6-0.4-1.3-0.5-1.9c1.7-1.1,3.5-2.3,5.2-3.4
		c3.3,0.8,6.6,1.9,10,2.4c1.4,0.2,3.1-0.8,4.6-1.2c-0.9-1.5-1.4-4-2.7-4.4c-4.8-1.7-9.9-2.7-14.8-3.9c0.8-1.3,1.6-2.5,2.4-3.8l0,0
		C163.4,562.3,164.3,562.6,165.1,563z"/>
	<path class="st3" d="M205,23.1c2.3,1.6,4.6,3.2,6.8,4.9c4.6,3.7,8.4,7.8,15.3,8.8c8.4,1.3,13.9,8.6,19,15.3
		c0.5,3.2,0.3,6.7,1.7,9.4c2,4.1,5.1,7.7,7.8,11.6c0.3,0.5,0.6,1,0.8,1.5c0.8,2.8,0.9,6.2,2.6,8.4c2.3,3,7.7,4.9,0.2,7.8
		c-0.4,0.1-0.8,0.8-0.8,1.2c0.7,5,1.5,10,2.3,15.1c0,0.6-0.1,1.3-0.1,1.9c0.1,0.3,0.2,0.7,0.3,1.1c2.4,4.4,4.8,8.9,7.2,13.3
		c0.3,0.2,0.6,0.5,0.9,0.7l0.1,0.1c0.1,1.8,0.2,3.7,0.3,5.5c-3.5-0.3-7-0.6-11.9-1c-2,5.6-4.6,12.9-7.3,20.5c-1.1-2.1-2-3.6-2.9-5.2
		c-0.4-0.7-0.7-1.3-1.1-2c-0.3-10.9-3.8-22.7-7.9-26.1c-0.9,1.8-1.3,4.1-2.6,5.3c-1.5,1.4-3.9,1.9-5.9,2.8c-0.6-1.7-1.5-3.4-1.7-5.2
		c-0.5-5.2-0.7-10.5-1.1-15.7c0.6-1.4,1.2-2.8,1.8-4.2c0.6,0,1.1-0.1,1.7-0.1c1.2,3.6,2.3,7.3,3.5,10.9c0.5,0,0.9,0,1.4-0.1
		c0.2-2.1,0.4-4.3,0.6-6.4c0.1-1.8,0.2-3.6,0.4-5.4c0.2-1.9,1.1-4.1,0.5-5.7c-2.1-5.4-5.6-9.4-10.9-12.7c-6.9-4.3-13-10.1-19.1-15.6
		c-3.5-3.1-9.6-3.9-9.4-10.5c0-0.7-1.9-2-3-2.1c-1.1,0-2.9,1-3.1,1.8c-1.3,5.9-5,3.7-8.5,2.9c-1.7-0.4-3.6,0.1-4.6,0.2
		c-0.8,6.8,8.3,3.8,7.6,11.1c-3.1-3.8-5.8-5.1-9.4-1.6c-1.4,1.4-4.2,1.6-6.4,2c-2.8,0.6-5.6,0.8-9.3,1.4c-0.3-0.1-1.8-0.8-3.3-1.2
		c-2.6-0.7-5.8-0.5-7.6-2c-5.2-4.1-5.4-4.3-9,1.4c-2.1,3.3-4,7.3-8.7,5.3c-0.8-2.5-1.5-4.6-2.7-8.1c-2.4,2.8-3.7,4.3-5,5.8
		c-8,9.3-15.9,18.6-24.1,27.7c-1.1,1.3-3.5,1.5-5.3,2.2c0.3-2.2-0.1-4.9,1.1-6.5c2.8-3.9,6.4-7.2,9.5-10.8c1-1.2,1.6-2.8,2.3-4.2
		c-1.8,0.1-2.8,0.8-3.6,1.5c-0.9,0.9-1.7,1.9-3.4,3.7c-0.4-1-0.6-1.7-0.9-2.3c-3.9-6-5.7-6.2-9.7,0.1c-2.4,3.7-3.9,8.1-6.2,11.9
		c-0.9,1.4-2.9,2.2-4.5,3.2c-1.2-1.8-3.1-3.6-3.3-5.6c-0.2-3,0.1-6.3,1.3-9c4.3-9.6,9.1-19.1,13.8-28.5c0.4-0.8,3.2-1.3,3.6-0.9
		c3.3,4.1,5.2,0.5,8.2-1c-1.1-0.8-1.6-1.5-2.3-1.8c-6.1-1.8-5.9-2-1.8-6.9c5.8-7,14.2-9.5,22-13c6.1-2.7,12.6-4.9,19.1-6
		c5.5-0.9,9.8-2.9,12.6-6.3c7.1,1.1,13.7,2,20.3,3c2,0.3,3.9,0.6,5.9,1c1.8,0.3,3.6,1,5.3,0.8c2-0.2,3.9-1.1,5.8-1.7
		c0.7,0,1.3,0,2,0c7,5.3,9.2,15.4,17.6,18.2c0.9,2.3,1.6,4.1,2.7,7c3.8-6.8,3.3-11.8-0.4-11.9c-7.9-0.2-8.2-6.2-9.9-11.3
		C203.1,23.1,204,23.1,205,23.1z M240.2,57.7c-6.1-14.2-15.8-19.1-23-12.4c3.3,5,6.6,10,10,15c0.4-0.3,0.9-0.5,1.4-0.8
		c0-0.5,0.1-0.9,0.1-1.3c-0.1-1.5-0.3-3-0.5-4.5c1.6,0.4,3.2,0.7,4.8,1.3C235,55.6,237.1,56.5,240.2,57.7z M94.7,56.7
		c-0.3-0.1-0.6-0.2-0.8-0.4c-0.1,0.3-0.4,0.6-0.3,0.8s0.5,0.3,0.8,0.4C94.5,57.3,94.6,57,94.7,56.7z"/>
	<path class="st4" d="M173.1,21c-6.6-1-13.1-2-20.3-3c-2.8,3.4-7.1,5.4-12.6,6.3c-6.5,1.1-13,3.3-19.1,6c-7.8,3.5-16.2,5.9-22,13
		c-4.1,4.9-4.3,5.1,1.8,6.9c0.7,0.2,1.2,0.9,2.3,1.8c-2.9,1.5-4.8,5.2-8.2,1c-0.3-0.4-3.2,0.1-3.6,0.9c-4.8,9.4-9.5,18.9-13.8,28.5
		c-1.2,2.7-1.6,6-1.3,9c0.2,1.9,2.1,3.7,3.3,5.6c1.5-1.1,3.6-1.8,4.5-3.2c2.3-3.8,3.8-8.1,6.2-11.9c4-6.2,5.8-6.1,9.7-0.1
		c0.4,0.6,0.5,1.3,0.9,2.3c1.7-1.8,2.5-2.8,3.4-3.7c0.8-0.8,1.7-1.4,3.6-1.5c-0.8,1.4-1.3,3-2.3,4.2c-3.1,3.7-6.7,6.9-9.5,10.8
		c-1.2,1.6-0.8,4.3-1.1,6.5c1.8-0.7,4.1-0.9,5.3-2.2c8.2-9.1,16.1-18.5,24.1-27.7c1.3-1.5,2.6-3,5-5.8c1.2,3.5,1.9,5.6,2.7,8.1
		c4.7,2,6.6-1.9,8.7-5.3c3.6-5.7,3.8-5.5,9-1.4c1.9,1.5,5.1,1.3,7.6,2c1.5,0.4,3,1.1,3.3,1.2c3.7-0.5,6.6-0.8,9.3-1.4
		c2.2-0.4,5-0.6,6.4-2c3.5-3.6,6.3-2.3,9.4,1.6c0.7-7.3-8.4-4.4-7.6-11.1c1.1-0.1,2.9-0.6,4.6-0.2c3.6,0.8,7.2,3,8.5-2.9
		c0.2-0.9,2.1-1.9,3.1-1.8s3,1.4,3,2.1c-0.2,6.6,5.9,7.4,9.4,10.5c6.2,5.5,12.2,11.3,19.1,15.6c5.2,3.3,8.8,7.2,10.9,12.7
		c0.6,1.6-0.4,3.8-0.5,5.7c-0.2,1.8-0.2,3.6-0.4,5.4c-0.2,2.2-0.4,4.3-0.6,6.4c-0.5,0-0.9,0-1.4,0.1c-1.2-3.6-2.3-7.3-3.5-10.9
		c-0.6,0-1.1,0.1-1.7,0.1c-0.6,1.4-1.2,2.8-1.8,4.2c-4-3.9-7.9-7.7-12.6-12.3c-0.4,6.3-3.1,5.7-6.1,3.9c-11.2-6.7-22.4-13.4-33.4-20
		c-2.2,3.1-4.4,6.6-7,9.7c-3.1,3.7-6.4,7.2-9.7,10.7c-1.1,1.2-2.7,1.9-4,2.9c-0.6-1.9-1.7-3.8-1.6-5.7c0.1-2.4,1.2-4.8,2.2-8.2
		c-5.1,3.1-8.7,6.3-13,7.8c-8.6,3-14.1,8.9-17.9,16.8c-0.2,0.4-0.4,1-0.8,1.2c-1.5,1.1-3.1,2-4.6,3c-0.7-1.7-1.5-3.3-2.2-4.9
		l-0.1,0.1c0.3-0.9,0.7-1.7,1.1-2.6c3.9-4.3,8-8.5,11.7-12.9c1.2-1.4,1.4-3.7,2-5.6c-1.7,0.3-3.8,0.1-5,1.1
		c-5.3,4.2-10.3,8.7-15.3,13.1c-0.9-2-1.6-3.4-2.3-4.9c-1.2,1.2-2.6,2.2-3.4,3.6c-2.1,3.6-3.9,7.3-5.9,11c-1.5,2.8-4,2.9-6.4,1.5
		c-4.5-2.7-5.6-2.4-7.4,2.2c-0.3,0.9-0.6,2.1-1.3,2.5c-3.9,2.5-4.3,6.4-4.8,10.4c-0.4,2.9-1.2,5.7-1.8,8.6c-0.1-0.5-0.2-1-0.5-2.8
		c-1.2,2.3-1.7,3.9-2.6,5.1c-1.2,1.5-2.7,2.7-4.1,4c-0.7-1.7-2.1-3.4-2-5c0.1-6.8,0.7-13.6,1.1-21.5c-2.3,2.3-3.9,4.2-5.9,5.7
		c-1,0.8-2.6,0.8-3.9,1.1c-0.2-1.2-0.8-2.4-0.5-3.5c1.4-6.1,3-12.1,4.8-19c-1.3,0.7-1.9,1.2-2.5,1.2c-1.6,0.1-3.2,0.1-4.8,0.1
		c0.5-1.4,0.8-3.1,1.6-4.3c4.6-7.2,9.7-14.1,14-21.5c3.4-5.8,5.9-12.2,8.8-18.2c-4.6-1.5-9.4-2.9-14-4.8c-1.2-0.5-1.8-2.3-2.8-3.6
		c1.2-0.7,2.2-1.6,3.5-2c5.1-1.7,10.6-2.7,15.4-5.1c4.9-2.5,9.4-5.9,13.5-9.5c8.6-7.7,19.1-11.1,29.7-14.4c5.3-1.6,10.9-2.6,16.5-4
		c-0.6-1.4-1.3-3.3-2.1-5.1c2.1-1.7,2.8-6.4,7-3.1c0.3,0.3,0.5,0.5,0.8,0.8c1.6,6.6,4.4,9,10.8,9.3c3.4,0.2,7,0.3,10.3,1.2
		C170.8,17.6,171.9,19.7,173.1,21z M206.3,80.1c4.6,3.2,8.5,6.1,12.6,8.7c0.9,0.6,2.3,0.2,3.5,0.2c0-1.4,0.4-3-0.2-4.1
		C219.6,80.1,213.7,78.2,206.3,80.1z M69.6,115.2c-0.2,0.1-0.3,0.2-0.5,0.3c0.1,0.1,0.2,0.3,0.3,0.3c0.2-0.1,0.4-0.2,0.6-0.3
		C69.9,115.4,69.8,115.3,69.6,115.2z"/>
	<path class="st5" d="M154.1,499.1c-3-1-6.1-1.9-9.1-2.9c0.1-0.4,0.1-0.9,0.2-1.3c-9.2,3.4-18.6,6.4-27.6,10.4
		c-4,1.8-7.1,5.6-10.5,8.5c-2,0.4-3.9,0.8-5.9,1.2h0c-0.7,0-1.5,0-2.2,0c-8.2,3.1-16.4,6.3-24.6,9.5c-0.3,0.1-0.2,0.9-0.3,1.4
		c-0.6,0.1-1.2,0.1-1.8,0.2c-5.1,1.9-10.1,3.9-15.2,5.8c-3.3,0.7-6.6,1.4-10,2.2c-1.2,0-2.4,0-2.5,0c-1.2-3.5-2.1-6.6-3.3-9.4
		c-16-37.4-19.2-76.5-17.8-116.7C25,367.7,35.8,330.5,55,295.5c7.5-13.6,16.5-26.2,28.4-36.2c10.6-9,22.2-16.9,36.1-20.1
		c1.4,0.2,2.7,0.4,4.1,0.6c-0.8,0.9-1.6,1.7-2.3,2.6c-9.7,2.7-18.5,7.2-26.5,13.4c-0.9,0.7-1.8,1.5-2.7,2.2
		c-2.9,2.7-5.9,5.4-8.8,8.1c-1.4,1.4-2.8,2.7-4.1,4.1c-1.4,1.3-2.8,2.6-4.2,3.9c-0.9,1-1.8,2-2.7,3c-0.8,1.6-1.5,3.3-2.3,4.9
		c-1.3,1.7-2.6,3.4-3.9,5.1c-3.2,4.7-6.3,9.3-9.5,14c-0.5,1.1-0.9,2.1-1.3,3.2c-0.6,0.8-1.2,1.6-1.7,2.5
		c-22.2,42.5-28.3,88.1-26,135.3c0.9,9,1.8,18,2.7,27c0.6,3.7,1.2,7.4,1.9,11c0.3,1.4,0.5,2.8,0.8,4.2c1,3.6,2.1,7.2,3.1,10.8
		c2,5.6,4,11.2,6,16.9c2,6.4,4.1,12.7,6.2,19.3c2-0.9,3.5-1.5,5-2.2c1.3-0.6,2.6-1.2,3.9-1.7c4.3-1.8,8.7-3.6,13.1-5.4
		c1-0.3,2-0.7,3-1.1c13.3-6.6,28.9-7.7,40.6-17.9c0.7-0.6,1.7-1,2.6-1.4c11.2-3.9,22.5-7.8,33.7-11.7c2.3,1.4,4.6,2.8,6.8,4.2
		c5.7,1.6,11.3,3.3,17,4.9c3.6,0.8,7.1,1.6,10.7,2.4c19.5,4.9,38.9,9.8,58.4,14.7c1.8,0.7,3.7,1.4,5.5,2.1c2.1,1,4.2,2,6.4,2.9
		c2.7,1.3,5.4,2.5,8.2,3.8c0.2,0.2,0.5,0.3,0.8,0.2c0.6,0.3,1.3,0.7,2,1c7.7,4.3,15.4,8.6,23.1,12.9c0.6,0.4,1.2,0.8,1.8,1.2
		c1.4,1.2,2.7,2.5,4.1,3.6c10.5,8.4,20,17.5,23.1,31.3c0,4.9,0,9.9,0,14.8c1.5-1.8,2.3-3.7,2.4-5.6c0.3-4.4,0.4-8.9,0.5-13.4
		c-0.6-6-1.2-12-1.8-17.9c-0.4-1-0.7-2-1-3c-2.4-2.9-4.7-5.9-7.1-8.8c-0.6-0.7-1.3-1.5-2-2.2c-4-3.3-8-6.7-12.1-10
		c-4-2.3-8-4.7-11.9-7c-4.3-2.5-8.7-4.9-13-7.4c-0.6-0.3-1.3-0.5-1.9-0.8c-2.4-1.2-4.7-2.4-7.1-3.6c-0.7-0.4-1.3-0.8-2-1.2
		c-2.3-1.3-4.7-2.7-7-4c0.3-0.9,0.6-1.9,0.9-2.8c21.4,10.6,43.7,19.9,60.2,38.1c3.5,3.9,6.9,8.9,7.9,13.9c3,14.8,3.6,29.8-4,43.7
		c-0.9,1.7-2.3,3.2-3.8,4.4c-21.5,17.9-46.3,27.8-74.1,30.9c-14,1.5-27.9,4.2-41.8,6.2c-29.7,4.4-59.5,6.4-89.5,2.8
		c-9.3-1.1-18.8-0.7-28.1-1.8c-7-0.8-13.8-2.9-21.1-4.5c0.5-0.9,1-2,1.6-3c0.8,0,1.7,0.1,2.5,0.1c13.1,1.6,26.3,3.8,39.4,4.7
		c16.7,1.2,33.4,2.1,50.2,2c11.9-0.1,23.8-1.9,35.6-3.1c1.4-0.1,2.7-1,4-1.5c0.7-0.4,1.4-0.7,2.1-1.1c3.6,3.4,7.3,0.4,11,0.1
		c10.2-1.6,20.4-3.1,30.6-4.7c4.8-0.8,9.5-1.6,14.3-2.5c3.1-0.6,6.2-1.3,9.2-1.9c0.9-0.1,1.9-0.1,2.8-0.2c2.1-0.7,4.1-1.4,6.2-2.1
		c5.6-2.3,11.2-4.7,16.9-7c0.7-0.6,1.4-1.2,2.1-1.7c24.6-8.4,35-37.7,13.9-57.7c-4.4-4.2-9.3-8-14-11.9c-0.9-0.5-1.9-1-2.8-1.5
		c-7.7-4.3-15.4-8.6-23-12.9c-0.7-0.3-1.5-0.6-2.2-0.9c-2.3-0.9-4.6-1.8-6.9-2.8c-0.6-0.5-1.3-1-1.9-1.5c-8-3.1-16-6.3-24.1-9.3
		c-1.5-0.5-3.3-0.3-4.9-0.4c-3-0.7-6-1.5-9-2.2c-2.4-0.9-4.9-1.8-7.3-2.7c-7.3-1.4-14.5-2.7-21.8-4.1c-0.6-0.1-1.2-0.2-1.9-0.4
		c-9.1-1.9-18.1-3.9-27.2-5.8C155.5,499.7,154.8,499.4,154.1,499.1z"/>
	<path class="st6" d="M232.8,241.1c1.8-0.3,3.5-0.7,5.8-1.1c0.2,1.4,0.4,2.6,0.5,3.8c-0.2,0.3-0.2,0.6-0.1,0.9l0,0.1
		c-0.3,0.7-0.6,1.5-0.9,2.2c0.3,6.1,0.4,12.2,0.8,18.3c0.7,12.5,1.4,25,2.1,37.6c-2.3,1.6-4.5,3.2-6.8,4.8c2.1,2.4,4.3,4.8,6.4,7.1
		c0.1,0.1,0.3,0.1,0.5,0.1c-0.5,2.4,2.1,6.1-2.4,6.8c-9.8,1.6-19.6,2.9-29.4,4.3c-4.4,0.6-8.7,1.3-13.1,1.9l-0.3,0.1l-0.3-0.1
		c-0.2-5.6-0.3-11.2-0.7-16.8c-0.3-3.3-1.2-6.6-1.8-9.9c7.2-2.4,14.3-0.6,22.5-0.1c0.9-1.2,2.2-3.2,3.5-5.1
		c0.4-8.1,0.7-16.3,1.1-24.4c0.2-3.6-1.2-7.1-4.6-7.2c-9-0.3-18.4-4.1-27.1,1.7c-0.6-4.1-1.3-8.2-1.9-12.3
		c-3.2,3.2-2.5,6.8-1.9,10.1c1.5,8.1,3.3,16.2,4.9,24.4c0.6,2.8-0.3,4.6-3.5,5.5c-2.8,0.7-5.4,2.3-8.2,3.6c2,2.3,4.2,4.4,5.9,6.9
		c1.1,1.6,2.5,4.6,1.9,5.3c-3.3,3.5-7.1,6.5-11.5,10.3c0.1-16.8,0.3-32.5-4.8-45.6c1.7-3.1,3.4-5.1,3.8-7.3
		c0.9-4.9,1.5-9.9,1.4-14.9c-0.1-4.3,1.9-4.9,5.4-5.1c16.4-0.6,32.8-1.4,49.3-1.9C232.1,245,233.4,244.3,232.8,241.1z"/>
	<path class="st7" d="M61.1,632c-6.6-3.3-13.7-1.1-20.5-2.2c-7.4-1.2-14.7-3.7-22-5.6c-2.1-0.6-4.1-1.7-6.1-1.9
		c-7.3-0.6-10.2-5.9-12-11.6c-1.8-5.6,1.7-10.1,5.7-13.4c3-2.5,6.6-4.6,10.3-5.9c11.9-4,24.1-7.3,36-11.5c4.9-1.8,9.5-3.3,14.7-2
		C64.2,595.8,60.2,613.6,61.1,632z"/>
	<path class="st5" d="M232.8,241.1c0.6,3.1-0.7,3.9-3.8,4c-16.4,0.5-32.9,1.3-49.3,1.9c-3.4,0.1-5.5,0.8-5.4,5.1
		c0.1,5-0.5,10-1.4,14.9c-0.4,2.2-2.1,4.1-3.8,7.3c5.1,13.1,4.9,28.8,4.8,45.6c4.4-3.8,8.2-6.8,11.5-10.3c0.6-0.6-0.8-3.7-1.9-5.3
		c-1.7-2.5-3.9-4.6-5.9-6.9c2.7-1.2,5.3-2.8,8.2-3.6c3.2-0.8,4-2.6,3.5-5.5c-1.6-8.1-3.4-16.2-4.9-24.4c-0.6-3.4-1.3-6.9,1.9-10.1
		c0.6,4.1,1.3,8.2,1.9,12.3c0.9,3,1.8,6.1,2.6,9.1c0.8,4.3,1.5,8.5,2.3,12.8c0.1,0.3,0.3,0.6,0.4,1c0.2,1.7,0.3,3.3,0.5,5
		c-1.7,1-3.5,2.1-5.2,3.1c-2.1,0.3-4.1,0.5-6.8,0.9c2.2,2,3.9,3.3,5.4,4.9c3.7,3.9,3.6,6.9-0.4,10.6c-1.1,1-2.2,2-3.4,2.9
		c-6.8,5.3-12.8,11-11.9,20.8c0.1,1.4-0.3,3-0.8,4.4c-0.4,0.9-1.3,1.8-2.2,2.2c-4.8,2.1-9.8,1.5-14.7,0.5c-1.4,0-2.7,0-4.1,0
		c-11.4,0.8-22.7,1.4-34,2.3c-7,0.5-14,1.5-21.1,2.3c-1.3,0.1-2.6,0.3-3.9,0.4c-9.9-0.7-10.2-0.7-9.7-10c0.7-13.4,1.9-26.8,2.9-40.2
		c0-0.5,0.7-1,1.9-2.9c0.8,3,1.9,4.8,1.8,6.7c-0.3,6.3-0.9,12.6-1.4,18.9c-0.6,8-1.2,16-1.7,24c10.2-1.1,19.4-2.1,28.7-3.1
		c4.9-0.5,9.9-1,14.8-1.5c3.7-0.4,7.3-0.9,11-1.3c8.7,0.4,17.5,0.8,26.6,1.3c0.6-1.6,1.9-3.5,2-5.5c0.9-10.6,2-21.2,1.9-31.8
		c-0.1-12.6-1.8-25.1-7.9-36.6c-3-4.3-6-8.7-9.1-13c-0.5-0.7-1.7-0.9-2.5-1.3c-0.7-0.8-1.5-1.6-2.2-2.4c-0.7-0.4-1.4-0.9-2.2-1.4
		c-4.3-2-8.6-4.1-12.9-6.1c-2.6-0.5-5.2-1.1-7.8-1.6c-0.1-0.4-0.2-0.9-0.3-1.3c0.4-0.3,0.8-0.6,1.2-0.9c2.6,0.2,5.5-0.2,7.8,0.7
		c6.5,2.7,12.8,6,19.1,9.1c3.1,3.4,6.3,6.8,9.4,10.2c1.6,2.8,3.2,5.6,4.8,8.3c0.7-0.2,1.3-0.4,2-0.6c0.3-3.8,0.6-7.6,0.9-11.4
		c0.5-3.5,0.9-6.9,1.4-10.4c1.1-0.3,2.2-0.6,3.3-1C194.2,243.1,213.5,242.1,232.8,241.1z"/>
	<path class="st1" d="M437.2,44.4c1,4.6,2.1,9.3,3,13.9c5.2,29.8,10.4,59.7,15.5,89.5c2.5,14.4,5.1,28.8,7.6,43.2
		c0.5,2.9,1.3,5.8,1.8,7.9c5.6,0,10.8-0.4,15.9,0.1c5.4,0.6,9.7,3.8,10.2,9.4c1,11.9,1,23.8-9,32.7c-3.6,3.2-7.5,5.4-12.7,3.4
		c-1.1-0.4-2.5,0.2-3.8,0.4c-5.7,0.8-10.6-0.3-14-5.4c-3.2-4.9-2.3-9.8,0.4-14.6c0.5-0.9,1-1.7,1.6-2.5c-4.1-8.7-3.7-9.7,7.7-19.3
		c-8.8-50.7-17.5-101.2-26.2-152c-0.5,0-1.5,0-2.6,0C433.7,48.6,433.3,45,437.2,44.4z M488,216.7c0.1-6.4-0.2-11.1-5.2-13.1
		c-5-2-10.6-2.4-15.5,0.2c-3.7,1.9-6.9,4.9-10,7.8c-2.2,2.1-3,4.8-0.6,7.5c2,2.3,1.4,4.3-0.5,6.6c-2.9,3.5-3.5,7.6-1.3,11.6
		c2.5,4.3,6.8,4.1,11.1,3.5c1.4-0.2,2.9-0.4,4.3-0.6c2.6-0.4,5.5,0,7.6-1.2C487.6,233.8,486.5,223.7,488,216.7z"/>
	<path class="st8" d="M174.9,244.1c-1.1,0.3-2.2,0.6-3.3,1c-4.3,1-8.6,2-12.8,2.9c-1.9,0.4-3.8,0.7-5.6,1
		c-6.4-3.1-12.6-6.4-19.1-9.1c-2.3-1-5.2-0.5-7.8-0.7c-0.2-3,0.4-6.4-4-7.2c-5.3-5.4-10.6-10.9-16.1-16.2
		c-12.1-11.8-20-25.9-24.7-42c1.2,1.1,2.6,2.1,3.7,3.4c1.4,1.5,2.6,3.2,3.9,4.8c0.4,0.3,0.7,0.7,1.1,1c0,0,0,0,0,0
		c0.5,1.7,0.7,3.6,1.6,5.1c3.4,5.5,6.6,11.2,10.7,16.2c10.1,12.6,21.1,24.4,36.1,31.4c16.6,7.6,32.8,5.4,48.3-3.2
		c6-3.4,11.2-8.2,17-12.2c10.6-7.3,18.2-17.2,24.4-28.3l0,0c0.3-0.7,0.7-1.3,1-2l0,0c0.3-0.3,0.7-0.7,1-1c0-0.3,0-0.6,0-0.9
		c1.1-2.2,2.4-4.3,3.3-6.5c2-5.1,3.9-10.4,5.8-15.6c1.3,0,2.6,0,3.9,0c-4.5,21.2-15.1,39.2-30.8,53.5c-8.8,7.9-20.3,12.9-30.4,19.4
		C179.3,240.3,177.2,242.3,174.9,244.1z"/>
	<path class="st8" d="M391.6,114.8c0.4,3.3,0.1,6.7,3.5,9.2c1,0.8,0.5,4.4-0.1,6.4c-1,3-1.9,5.6-0.6,9c0.9,2.4,0.7,5.7-0.2,8.2
		c-3.3,9.2-7.1,18.3-14.4,25.3c-1,1-1.6,2.5-2.2,3.8c-10.7,23.6-23.2,46.4-41.5,64.8c-24.2,24.4-50.5,46.3-83.6,58.2
		c-1.6,0.6-3.5,0.7-5.2,1c0.3-1.2,0.6-2.4,1-3.6c4-1.7,7.9-3.4,11.9-5.1c19.2-7.1,35.1-19.3,50-33c5.8-4.6,12-8.8,17.2-14
		c5.4-5.4,9.9-11.8,14.8-17.8c0.9-0.8,2-1.4,2.6-2.3c8-12.6,16.2-25,23.7-37.9c3.5-6,5.5-12.8,7.7-18.1c2.8-2.5,5.7-4.1,7.2-6.6
		c2.9-4.6,5.4-9.6,7.2-14.7c0.9-2.6,0.1-5.8,0-8.8c0-2.2-0.8-4.8,0.1-6.5c2.5-5.2,0.9-8.4-3.8-10.8
		C388.4,119.3,390,117.1,391.6,114.8z"/>
	<path class="st3" d="M77.2,136c0.6-2.9,1.4-5.7,1.8-8.6c0.5-4,0.9-7.9,4.8-10.4c0.7-0.4,1-1.6,1.3-2.5c1.7-4.7,2.9-4.9,7.4-2.2
		c2.4,1.4,4.8,1.3,6.4-1.5c2-3.6,3.8-7.4,5.9-11c0.8-1.4,2.3-2.4,3.4-3.6c0.7,1.4,1.3,2.9,2.3,4.9c5-4.3,10-8.9,15.3-13.1
		c1.2-1,3.3-0.8,5-1.1c-0.6,1.9-0.9,4.1-2,5.6c-3.7,4.5-7.7,8.7-11.7,12.9c-0.3,0.9-0.7,1.7-1.1,2.6l0.1-0.1
		c-0.7,0.3-1.6,0.3-1.9,0.8c-5.8,9-11.5,18.1-17.2,27.2c-11.1-0.8-15.9,2.6-17.8,12.8c-0.6,3.1-0.9,6.2-1.4,9.2
		C77.7,150.6,77.4,143.3,77.2,136z"/>
	<path class="st9" d="M61.1,632c-0.9-18.4,3.1-36.2,5.9-54.2c0.5-1,1-2,1.6-3.1c0.2-0.3,0.4-0.5,0.6-0.8c-2.4-2.8-4.8-5.6-7.2-8.5
		c-0.8-0.8-1.5-1.6-2.3-2.4c-2.9-5.1-5.7-10.2-8.6-15.2c-0.3-0.6-0.5-1.2-0.8-1.8c-0.1-0.4-0.1-0.8-0.2-1.2
		c-0.2-0.6-0.4-1.2-0.6-1.7c-0.1-0.7-0.3-1.4-0.4-2.2c-0.2-0.6-0.4-1.3-0.6-1.9c-0.2-1-0.3-2.1-0.4-3.1c3.5-1.3,3.3,1.9,3.8,3.6
		c2.6,8.1,5.3,16.1,11.2,22.6c2.3,2,4.6,4,6.9,6c2.1,2,4.2,3.9,6.2,5.9c0.9,0.3,1.8,0.7,2.7,1c1.4,0.6,2.8,1.2,4.2,1.9
		c0.8,0.5,1.5,1.1,2.3,1.6c0.9,0.2,1.7,0.3,2.6,0.5c1,0,2,0.1,3,0.2c4.4,1.6,8.8,3.3,13.2,4.9c1.4,0.2,2.8,0.4,4.2,0.7
		c0.3,0.2,0.6,0.3,0.9,0.5c0.7,0.2,1.3,0.5,2,0.7c1.7,0.2,3.4,0.4,5.1,0.5c0.4,0.1,0.8,0.3,1.2,0.4c4.6,0.5,9.2,1,13.8,1.6
		c0.4,0.1,0.9,0.3,1.3,0.4c11.9,0.2,23.8,0.5,35.7,0.7c0.3,0,0.6,0,0.8-0.1c5.3-0.2,10.6-0.3,15.9-0.5c0.3,0,0.6,0,0.9-0.2
		c2.3-0.3,4.7-0.5,7-0.8c0.4-0.1,0.7-0.2,1.1-0.3c0.7-0.3,1.4-0.5,2-0.8c0.8,0,1.5,0,2.3-0.1c1.1,0,2.3,0.1,3.4,0.1
		c1.5-0.2,2.9-0.4,4.4-0.6c2.3-0.1,4.6-0.5,6.7-0.2c0.9,0.1,1.5,1.9,2.2,2.9c-4.6,0.3-9.3,0.7-13.9,1c-0.6,0.2-1.3,0.4-1.9,0.6
		c-0.3,0.2-0.7,0.3-1,0.4c-1,0-2,0-2.9,0.1c-0.4,0-0.7-0.1-1.1-0.2c-0.6,0.2-1.3,0.4-1.9,0.5c-0.4,0.2-0.7,0.4-1.1,0.5
		c-1.6,0-3.2,0-4.9,0c-0.3,0-0.6,0-0.9,0.2c-11.5,0.4-23,1-34.5,1.2c-5.6,0.1-11.2-0.6-16.8-1c-0.7-0.2-1.3-0.3-2-0.5
		c-2-0.1-4-0.3-5.9-0.4c-0.5-0.2-0.9-0.3-1.4-0.5c-2.2-0.2-4.4-0.5-6.7-0.7c-0.4-0.1-0.8-0.2-1.1-0.4c-1.9-0.1-3.9-0.2-5.8-0.3
		c-1.1-0.2-2.1-0.4-3.2-0.6c-1.3-0.1-2.5-0.1-3.8-0.2c-2-0.6-4-1.3-5.9-1.9c-1.3-0.4-2.6-0.8-3.9-1.2c-1.1-0.4-2.1-0.8-3.2-1.2
		c-0.9-0.2-1.8-0.5-2.8-0.7c-4.1-1.8-8.1-3.5-12.2-5.2c-1.4-0.9-2.8-1.8-5.1-3.2c-0.3,3.1-0.6,5.3-0.8,7.5c-1.3,8-2.6,16-3.9,23.9
		c0,1,0,2,0,3.1c-0.3,6.4-0.6,12.8-1,19.2c-0.1,1.3-0.3,2.5-0.5,3.8c-0.8,0-1.7-0.1-2.5-0.1C61.9,632.6,61.5,632.3,61.1,632z"/>
	<path class="st9" d="M391.6,114.8c-1.6,2.2-3.1,4.5-4.7,6.7c-0.9,1.2-1.8,2.3-2.8,3.5c-2.9,2.3-3.7,8.8-9.6,4.7
		c0-0.5-0.1-1.1-0.1-1.6c0.6-1.3,1.2-2.7,1.8-4c3.4-6,6.7-12,10.1-17.9c7.3-12.1,14.3-24.3,22-36.1c5.5-8.5,11.6-16.5,17.7-24.6
		c2.2-2.9,7.9-3.2,11.4-1.1c-3.8,0.7-3.5,4.2-4.6,6.8C418.9,72.4,405.3,93.6,391.6,114.8z"/>
	<path class="st6" d="M182.9,445.6c0.4,3.7,0.9,7.4,1.3,11.1c-5.4-6.5-10.7-13.1-16-19.6c0.3-1.9,0.7-3.8,1-5.7
		c5.4-0.8,6.1-5.3,5.1-8.9c-0.8-2.6-4.2-5.8-6.9-6.3c-4.1-0.8-4.9,3.4-5.4,6.7c-0.3,1.1-0.7,2.2-1,3.3c-0.6-0.5-1.1-1-1.7-1.5
		c0.4-6.8,0.8-13.7,1.3-20.5c8.1,0.9,11.5-2,13-10.7c0.5,0,1.1,0,1.6,0c0.3-0.1,0.7-0.1,1-0.2c3.8-1.2,3.8-4.4,3.4-7.3
		c-0.3-1.8-1.8-4.4-3.2-4.8c-3.2-0.8-7-1.1-9.1,2.8c-1.3-0.3-2.6-0.7-4-1c1-4.7,2-9.4,3-14.1c1.7,1,3.3,2.1,5,3.1
		c4.8,4.3,9.5,8.6,14.3,13c-1.9,13.3-3.9,26.5-5.6,39.8c-0.8,6-1.4,12.1-1.8,18.2c-0.1,1.6,1.1,3.2,1.7,4.9
		C180.7,447.1,181.8,446.4,182.9,445.6z"/>
	<path class="st8" d="M376.1,124.1c-0.6,1.3-1.2,2.7-1.8,4c-4-3.3-8.2-3.1-11.7,0.3c-2.9,2.8-5.5,6.2-7.5,9.7
		c-2.5,4.3-3.7,9.3-6.4,13.3c-8,12-16,24.1-24.7,35.5c-9.6,12.5-20.2,24.1-32.8,33.8C278,230.8,263.9,238.9,249,246
		c-2.3,0.4-4.6,0.7-6.9,1c-1.1-0.8-2.1-1.5-3.2-2.3c-0.1-0.3,0-0.6,0.1-0.9c9.8-4.3,20.1-7.8,29.4-13c29.1-16.3,50-41,67.9-68.4
		c5.5-8.3,9.6-17.5,15.1-25.8c6.9-10.3,14.6-20,22.1-29.9c0.8-1.1,2.9-1.2,4.4-1.8c-3.6,5-7.3,10-11,15.2
		C370.4,121.7,373.3,122.9,376.1,124.1z"/>
	<path class="st8" d="M159.2,424.7c0.6,0.5,1.1,1,1.7,1.5c2.4,3.6,4.8,7.3,7.2,10.9c5.3,6.5,10.7,13.1,16,19.6
		c5.4,4.4,10.6,9.1,16.3,12.9c3.4,2.3,7.6,3.6,11.7,4.5c12.4,2.8,24.2,7.1,34.4,14.6c4,2.9,5.8,8.8,8.6,13.3
		c-0.3,0.9-0.6,1.9-0.9,2.8c-0.7,1.3-1.5,2.6-2,4c-1.2,3-2.3,6.2-3.4,9.2c-1.8-0.7-3.7-1.4-5.5-2.1c-1.3-1.5-2.4-3.1-3.8-4.4
		c-1.8-1.7-4-3-5.7-4.8c-0.6-0.6-0.3-2.2-0.5-3.3c1,0.2,2.2,0.2,2.9,0.7c3.6,2.8,7.1,5.8,10.6,8.7c3.6-8.5-5-10.1-9.5-15.4
		c6.3-1.4,9.1,3.7,14.3,5.8c-1-2.9-1.1-5.4-2.4-6.5c-5.9-5.2-11.4-11.2-19.7-13c-7.1-1.5-14.6-2.2-21.1-5.1
		c-13.5-5.9-24.8-15.2-34.3-26.4c-6.4-7.5-11.4-16.2-17.1-24.3C157.7,427,158.5,425.8,159.2,424.7z"/>
	<path class="st5" d="M182.9,445.6c-1.1,0.7-2.2,1.4-3.3,2.1c-0.6-1.6-1.8-3.3-1.7-4.9c0.4-6.1,0.9-12.1,1.8-18.2
		c1.8-13.3,3.8-26.5,5.6-39.8c-0.1-2.7-0.3-5.4-0.4-7.2c1-2.4,1.7-4,2.3-5.6c0.6-6.4,1.6-12.8,1.8-19.2c0.2-3.6-0.7-7.3-1.1-10.9
		c0.9-2.4,1.8-4.8,2.7-7.2c0.1-2.9,0.1-5.8,0.2-8.6c0-1.7,0-3.4,0.1-5.1c0-3.1-0.1-6.3,0.1-9.4c0.3-3.5,1-7,1.5-10.5l0.3,0.2
		c0.6,3.3,1.5,6.6,1.8,9.9c0.4,5.6,0.5,11.2,0.7,16.8c-1.1,12.4-1.8,24.8-3.2,37.2c-1.5,12.8-3.9,25.5-5.4,38.4
		C185.2,417.5,184.2,431.6,182.9,445.6z"/>
	<path class="st9" d="M238.9,244.7c1.1,0.8,2.1,1.5,3.2,2.3c0.6,10.6,1.2,21.3,1.8,31.9c0.5,7.4,0.9,14.8,1.4,22.1
		c0,6.1,0.3,12.3-0.1,18.4c-0.1,2-1.9,5.3-3.3,5.5c-14,2-28.1,3.6-42.1,5.1c-1.2,0.1-2.5-1.3-3.7-2c4.4-0.6,8.7-1.2,13.1-1.9
		c9.8-1.4,19.7-2.7,29.4-4.3c4.5-0.7,1.9-4.4,2.4-6.8c0.1-4-2.7-8-0.1-12.1c-0.7-12.5-1.5-25-2.1-37.6c-0.3-6.1-0.5-12.2-0.8-18.3
		C238.3,246.3,238.6,245.5,238.9,244.7L238.9,244.7z"/>
	<path class="st0" d="M77.9,157.9c0.4-3.1,0.8-6.2,1.4-9.2c1.9-10.2,6.7-13.6,17.8-12.8c2.4,1.9,5,3.7,7.2,5.9
		c0.9,0.9,1.7,2.8,1.3,3.7c-0.4,1.1-2.2,1.8-3.7,2.9c-1.2-5.8-4.4-8.1-9.2-8.4c-4.5-0.3-6.9,2.8-8,6.3c-3.6,11.3-0.9,21.6,6.3,30.6
		c2,2.5,5,4.5,8.8,2.1c0.8-0.5,2.4,0.5,3.7,0.8c-0.5,1.2-0.7,3-1.6,3.5c-3.9,2.2-7.9,2.1-11.7-0.4c0,0,0,0,0,0
		c-0.4-0.3-0.7-0.7-1.1-1c-1.3-1.6-2.5-3.3-3.9-4.8c-1.1-1.2-2.5-2.3-3.7-3.4C80.3,168.5,79.1,163.2,77.9,157.9z"/>
	<path class="st10" d="M247.2,143.9c0.9,1.6,1.7,3.1,2.9,5.2c2.7-7.7,5.3-14.9,7.3-20.5c5,0.4,8.5,0.7,11.9,1
		c-0.1-1.8-0.2-3.7-0.3-5.5c0.9,0.4,2.1,0.6,2.6,1.3c1.3,2,3.7,4.9,3.1,6.2c-1.4,3.1-4.6,4.8-8.4,3.3c-1.8-0.7-3.7-1.4-6.3-2.4
		c1.2,5.1,1.8,9.6-5.2,8.1c-0.9,3.4-1.7,6.6-2.8,10.8c-2.1-1.6-3.5-2.7-5-3.8C247.1,146.4,247.2,145.2,247.2,143.9z"/>
	<path class="st1" d="M173.1,21c-1.3-1.3-2.3-3.4-3.9-3.8c-3.3-0.9-6.8-1-10.3-1.2c-6.4-0.3-9.2-2.7-10.8-9.3
		c4.3,4.5,10.2,5.1,15.8,6.3c1,0.1,2,0.1,3,0.2c2,0.2,4,0.5,6,0.7c1.3,0.1,2.7,0.2,4,0.4c3,0.5,6,0.9,9,1.4c1.9,0.8,3.9,1.6,5.8,2.4
		l0.1,0.1c0,0.6,0.1,1.2,0.1,1.8c0,0.3,0,0.6,0,0.9c-0.7,0-1.3,0-2,0c-2.7-0.7-5.4-1.6-8.1-1.9c-0.9-0.1-2,1.8-2.9,2.8
		C177.1,21.6,175.1,21.3,173.1,21z"/>
	<path class="st11" d="M376.1,124.1c-2.9-1.2-5.8-2.4-9.1-3.8c3.8-5.2,7.4-10.2,11-15.2c2.7,0.4,5.5,0.7,8.2,1.1
		C382.9,112.1,379.5,118.1,376.1,124.1z"/>
	<path class="st10" d="M260.7,107.1c-0.8-5-1.6-10-2.3-15.1c0-0.4,0.4-1.1,0.8-1.2c7.5-2.9,2.1-4.9-0.2-7.8
		c-1.7-2.2-1.8-5.6-2.6-8.4c2.9,2.8,6,5.5,8.6,8.6c1.9,2.2,4.4,5.1,4.3,7.5c-0.1,1.8-4.2,3.2-7.4,5.4
		C261.5,98.9,261.1,103,260.7,107.1z"/>
	<path class="st0" d="M247.2,143.9c-0.1,1.2-0.1,2.5-0.1,3.7c-0.7,3.8-1.2,7.6-2,11.4c-0.5,2.4-1.4,4.6-2.1,6.9c-1.3,0-2.6,0-3.9,0
		c1.4-7.2,2.8-14.4,4.4-21.5c0.2-1,1.7-1.7,2.6-2.5C246.5,142.6,246.9,143.3,247.2,143.9z"/>
	<path class="st10" d="M255.5,73.1c-2.6-3.8-5.8-7.4-7.8-11.6c-1.4-2.8-1.2-6.3-1.7-9.4C252.6,57.6,254.7,65,255.5,73.1z"/>
	<path class="st11" d="M245.3,301c-0.5-7.4-0.9-14.8-1.4-22.1c1.4,6,2.8,12.1,4.3,18.2c-0.3,1.2-0.6,2.4-1,3.6
		C246.6,300.8,246,300.9,245.3,301z"/>
	<path class="st0" d="M122.2,232c4.3,0.7,3.8,4.1,4,7.2c-0.4,0.3-0.8,0.6-1.2,0.9c-0.5-0.1-1-0.3-1.4-0.4c-1.4-0.2-2.7-0.4-4.1-0.6
		C120.4,236.7,121.3,234.3,122.2,232z"/>
	<path class="st10" d="M192.1,20.1c0-0.6-0.1-1.2-0.1-1.8c4.3,1.6,8.7,3.2,13,4.8c-1,0-1.9,0-2.9,0
		C198.8,22.1,195.4,21.1,192.1,20.1z"/>
	<path class="st10" d="M191.9,18.1c-1.9-0.8-3.9-1.6-5.8-2.4C188,16.5,189.9,17.3,191.9,18.1z"/>
	<path class="st10" d="M177,14.3c-1.3-0.1-2.7-0.2-4-0.4C174.4,14.1,175.7,14.2,177,14.3z"/>
	<path class="st10" d="M167.1,13.2c-1-0.1-2-0.1-3-0.2C165.1,13.1,166.1,13.2,167.1,13.2z"/>
	<path class="st5" d="M59.8,563.1c0.8,0.8,1.5,1.6,2.3,2.4C61.3,564.7,60.5,563.9,59.8,563.1z"/>
	<path class="st5" d="M50.4,546c0.3,0.6,0.5,1.2,0.8,1.8C50.9,547.2,50.6,546.6,50.4,546z"/>
	<path class="st5" d="M49.6,543c0.2,0.6,0.4,1.2,0.6,1.7C50,544.2,49.8,543.6,49.6,543z"/>
	<path class="st5" d="M48.5,539c0.2,0.6,0.4,1.3,0.6,1.9C48.9,540.3,48.7,539.6,48.5,539z"/>
	<path class="st10" d="M260.9,110c-0.1-0.3-0.2-0.7-0.3-1.1C260.7,109.3,260.8,109.7,260.9,110z"/>
	<path class="st5" d="M69.2,573.9c-0.2,0.3-0.4,0.5-0.6,0.8C68.8,574.5,69,574.2,69.2,573.9z"/>
	<path class="st10" d="M268.9,124.1c-0.3-0.2-0.6-0.5-0.9-0.7C268.3,123.6,268.6,123.8,268.9,124.1z"/>
	<path class="st12" d="M287.1,615.7c-5.6,2.3-11.2,4.7-16.9,7c3.1-2.7,6.3-5.3,10-8.5c-2-0.8-3.6-1.4-5.2-2.1
		c-0.7-4.9-6.9-9.3-10.6-7.1c-4,2.5-8,5.4-8.7,10.8c-2,0.2-3.7,0.9-1.5,2.9c1.2,1.1,3.2,1.5,4.8,2.2c0.7,0.4,1.4,0.7,2.1,1.1
		c0.4,0.3,0.8,0.6,1.3,0.9c-0.3,0.7-0.7,1.4-1,2c-3.1,0.6-6.1,1.3-9.2,1.9c-1.3-2-2.5-4-3.8-5.9c-0.8-1.5-1.6-3-2.2-4.6
		c-0.5-1.4-0.7-3-1-4.5c3.6-0.7,6.5-1.7,8.2-5.8c1.1-2.6,4.7-4.4,7.4-6.1c2-1.3,4.5-1.8,7.8-3c4.1,3.8,9.3,8.5,14.4,13.4
		C284.6,611.9,285.7,613.9,287.1,615.7z"/>
	<path class="st13" d="M144.1,575.8c-4.5,0.2-9.1,0.7-13.5,0.4c-0.9-0.1-1.9-2.9-2.3-4.6c-0.7-3.1,1.5-6.8-3.2-8.9
		c-0.9-0.4-0.7-6.7,0.3-7.1c4.3-1.7,3.3-5,3.2-7.8c-0.2-4.2,1-6,5.5-5.9c6.9,0.1,13.8-0.6,20.7-0.8c0.9,0,1.9,1.2,2.8,1.9
		c-0.8,1.6-2.1,3-2.3,4.7c-0.6,4.5-0.7,9-1,13.5c-0.4-0.7-0.8-1.5-1.1-2.2c0-4.6,0-9.1,0-14.2c-6.7,0-12.5,0.1-18.3,0
		c-2.9,0-3.7,1.5-3.7,4c0,4.7,0,9.3-0.1,13.9c-0.1,11-0.1,10.9,10.6,11.3c0.8,0,1.6,0.2,2.5,0.3
		C144.1,574.8,144.1,575.3,144.1,575.8z"/>
	<path class="st14" d="M99,515c0.7,0,1.5,0,2.2,0c-1,3.1-2.5,6.2-2.8,9.4c-0.2,2,0.9,5.6,2.3,6.1c2.6,1,7.5,1.5,8.5,0.1
		c2.2-3.1,4.1-7.9,3.3-11.3c-0.5-2.1-6.3-2.9-9.7-4.3c-0.4-0.2-1,0-1.5,0c2-0.4,3.9-0.8,5.9-1.2c1.9,0.9,4.5,1.2,5.7,2.7
		c1.9,2.4,4.5,5.9,3.9,8.3c-1,4.4-3.5,9-6.7,12.1c-1.2,1.2-6.3-0.4-9.1-1.8c-6-3.1-6.9-7.1-4.3-13.5C97.6,519.5,98.2,517.2,99,515z"
		/>
	<path class="st15" d="M195.2,591.1c1,0,2,0,2.9-0.1c0,3.3,0,6.6,0,10c8,0,15.9,0,23.9,0c1.3,0.3,2.6,0.7,3.9,1
		c-1.4,1.9-2.8,3.9-4.1,5.8c-0.2-0.5-0.3-1-0.5-1.4c-6.5,0-13.1-0.2-19.6,0.1c-4.9,0.2-6.5-0.9-6.5-6
		C195.2,597.3,195.2,594.2,195.2,591.1z"/>
	<path class="st15" d="M144.1,575.8c0-0.5,0-1.1,0.1-1.6c8.9-0.4,8.9-0.4,8.8-9.3c0-0.5,0-1,0-1.5c0.7,1.6,1.7,3.2,1.9,4.9
		c0.3,2.4,0.1,4.9,0.1,7.3c0.8,0,1.6,0,2.4,0c0.2-10.1,0.5-20.1,0.7-30.2c1.2,1.2,2.4,2.3,3.6,3.5c-0.4,0.7-0.9,1.5-1.3,2.2
		c0.9,0.2,1.7,0.4,2.6,0.6c0.4,0.4,0.8,0.8,1.2,1.2c-1.2,0.6-2.4,1.2-3.7,1.8c0,0.5,0.1,0.9,0.1,1.4c3.6,0,7.3,0,10.9,0
		c2.7,0,6-0.6,5.7,3.9c-0.3,4.6-3.8,2.3-6,2.8c0.3-0.6,0.6-1.2,1-1.7c0.9-0.3,1.8-0.7,2.8-1c-0.1-0.4-0.1-0.8-0.2-1.2
		c-4.9,0.8-10-2.7-15.8,1c1.8,1,2.8,1.5,3.8,2c-0.8,1.3-1.6,2.5-2.4,3.8c0,0.7-0.1,1.5-0.1,2.2c1,1,2,2.1,3,3.1c0,0.6,0,1.2,0,1.8
		c-1.7,1.1-3.5,2.3-5.2,3.4c0.2,0.6,0.4,1.3,0.5,1.9C153.7,577.4,148.9,576.6,144.1,575.8z"/>
	<path class="st13" d="M108.3,584.7c-1.4-0.2-2.8-0.4-4.2-0.7c0.3-0.5,1-1.2,0.9-1.6c-2.8-8.6-5.6-17.3-8.6-25.8
		c-0.3-0.8-2.2-1.8-3-1.6c-8.1,2.5-16.2,5.3-25.5,8.5c1.8,1.3,2.6,1.8,3.3,2.4c-0.4,0.7-0.9,1.5-1.3,2.2c-2.3-2-4.6-4-6.9-6
		c10-3.3,20.1-6.7,30.2-9.9c1.4-0.4,4.5,0.2,4.8,1C101.6,563.7,104.9,574.2,108.3,584.7z"/>
	<path class="st16" d="M66.3,610c0-1,0-2,0-3.1c4.1-1.1,8.2-2.2,11.4-3c-1.1-4.8-1.8-8.3-2.6-11.8c0.7-0.4,1.3-0.8,2-1.1
		c1.3,0.7,2.6,1.4,3.9,2.1c-1.1,6.8,1.5,9.1,8,6.9c5.3-1.8,10.6-3.7,16-5.3c3.2-0.9,3.8-2.6,3-5.5c1.1,0.2,2.1,0.4,3.2,0.6
		c0.9,4-0.9,5.8-4.8,7C92.9,601,79.6,605.6,66.3,610z"/>
	<path class="st17" d="M214.4,512.9c3,0.7,6,1.5,9,2.2c-2.4,6.6-4.8,13.2-7.2,19.8c-1,0-1.9-0.1-2.9-0.1c-0.6-0.4-1.3-0.8-1.9-1.2
		c-0.3-2.7-0.5-5.4-0.8-8C211.8,521.4,213.1,517.2,214.4,512.9z"/>
	<path class="st18" d="M287.1,615.7c-1.4-1.8-2.5-3.8-4.1-5.4c-5.1-4.9-10.4-9.6-14.4-13.4c-3.3,1.3-5.8,1.8-7.8,3
		c-2.8,1.7-6.3,3.5-7.4,6.1c-1.7,4.1-4.5,5.2-8.2,5.8c0-0.7,0-1.3,0-2c5.4-0.8,6.7-6.1,9.4-9.4c2.5-3.1,4.5-4.2,8-2.8
		c0.8-2.4,1.5-4.5,2.5-7.6c4,3.5,7.7,6.2,10.8,9.4c4.6,4.7,8.9,9.7,13.4,14.5C288.5,614.6,287.8,615.2,287.1,615.7z"/>
	<path class="st19" d="M252.3,524.8c0.6,0.5,1.3,1,1.9,1.5c-1.3,3.7-2.7,7.5-4,11.2c1,1.1,2,2.3,3,3.4c1,0.7,2,1.3,3,2
		c-0.4,2.4-1,4.6,2,6c1.9,0.9,3.4,2.8,5,4.3c0,0.3,0,0.5,0,0.8c-6.6-3.3-13.2-6.5-20.4-10.1C246,537.4,249.1,531.1,252.3,524.8z"/>
	<path class="st6" d="M186.2,592c1.6,0,3.2,0,4.9,0c-0.3,7.9-0.6,15.9-1.1,23.8c-0.1,1-1,2.7-1.8,2.9c-1.3,0.3-2.9-0.1-4.2-0.7
		c-0.4-0.2,0-2,0-3c0.4-6.5,0.9-12.9,1.4-19.4c0.1-1,0.3-1.9,0.5-2.9C186,592.4,186.1,592.2,186.2,592z"/>
	<path class="st16" d="M183.4,505.8c0.6,0.1,1.2,0.2,1.9,0.4c-1.5,4.5-2.9,9-4.4,13.5c-0.9-0.3-1.4-0.3-1.4-0.4
		c-1.3-5.8-4.6-6.3-10-5.4c-8.5,1.4-14.2-2.3-15.1-7.7c-0.4-2.3-0.1-4.6-0.2-7c0.7,0.3,1.4,0.6,2.1,0.9c-0.1,6.7,2.3,10.4,7.9,11
		c3,0.4,6.2-0.3,9.3-0.3c2.3,0,4.6,0.2,7.6,0.4C181.5,510.2,182.4,508,183.4,505.8z"/>
	<path class="st20" d="M198.3,586.7c-0.8,0-1.5,0-2.3,0.1c0.1-3.7-0.1-7.3,0.2-10.9c0.3-3.9,2.6-6.8,6.6-6.7
		c6.9,0.2,13.8,0.8,20.6,1.9c3.5,0.5,6.2,2.7,3.7,7c-0.6-1-1.3-2.1-2-3.1c-3.3-4.5-8.1-2.8-12.4-2.9
		C198,571.7,198,571.8,198.3,586.7z"/>
	<path class="st15" d="M149.1,604c5.2,0.8,10.4,1.6,15.7,2.4c0.1,0.8,0.3,1.6,0.4,2.4c-4,2-8,4-12.1,6c0-0.6-0.1-1.3-0.1-1.9
		c-0.4-0.7-0.7-1.4-1.1-2.1c-0.6-0.7-1.3-1.5-1.9-2.2c0-0.6,0-1.1,0-1.7c0.3,0,0.6-0.1,0.9-0.1c0.5-0.4,1.1-0.8,1.6-1.2
		c-0.5-0.3-1-0.6-1.5-0.8c-0.7,0.1-1.4,0.1-2.1,0.2C149.1,604.7,149.1,604.3,149.1,604z"/>
	<path class="st21" d="M158.1,545.4c-0.2,10.1-0.5,20.1-0.7,30.2c-0.8,0-1.6,0-2.4,0c0-2.4,0.3-4.9-0.1-7.3
		c-0.2-1.7-1.2-3.3-1.9-4.9c0-0.7,0.1-1.3,0.1-2c0.4-0.1,0.8-0.2,1.2-0.2c0.3-4.5,0.4-9,1-13.5c0.2-1.6,1.5-3.1,2.3-4.7l0,0
		c0.2,0.1,0.4,0.3,0.5,0.5C158.1,544.1,158.1,544.8,158.1,545.4z"/>
	<path class="st20" d="M163.1,572.9c0-0.6,0-1.2,0-1.8c3.7,0.7,7.4,1.3,11.1,2c0.1-0.5,0.2-0.9,0.3-1.4c-4.8-1.2-9.6-2.5-14.4-3.7
		c0-0.7,0.1-1.5,0.1-2.2c5,1.3,10,2.3,14.8,3.9c1.3,0.4,1.8,2.9,2.7,4.4c-1.6,0.4-3.2,1.4-4.6,1.2
		C169.7,574.8,166.4,573.7,163.1,572.9z"/>
	<path class="st22" d="M214.4,512.9c-1.3,4.2-2.5,8.5-3.8,12.7c-0.8,0.5-1.5,0.9-2.3,1.3c-0.4-3.8-0.9-7.6-1.2-11.3
		c-0.1-1.8-0.1-3.6-0.1-5.4C209.5,511.1,211.9,512,214.4,512.9z"/>
	<path class="st19" d="M225.2,574.9c0.6,1,1.3,2.1,2,3.1c-0.4,8-0.7,16-1.1,23.9c-1.3-0.3-2.6-0.7-3.9-1c0.6-1.5,1.7-2.9,1.8-4.4
		C224.5,589.4,224.8,582.2,225.2,574.9z"/>
	<path class="st13" d="M164.1,552.9c-0.4-0.4-0.8-0.8-1.2-1.2c3.9-1.3,7.8-2.5,11.7-3.8c-0.1-0.4-0.2-0.8-0.3-1.2
		c-3.8,0.7-7.7,1.5-11.5,2.2c1-1,1.8-2.5,2.9-2.9c2.8-0.9,5.8-1.5,8.7-1.6c1.1-0.1,3.4,1.4,3.3,2c-0.1,1.5-1.1,3.7-2.2,4
		C171.9,551.7,167.9,552.2,164.1,552.9z"/>
	<path class="st23" d="M211.3,533.7c0.6,0.4,1.3,0.8,1.9,1.2c-1.1,3.7-2.1,7.4-3.2,11.1c-0.6,1-1.2,2-1.8,3c-3.9-3.7-2.1-7.9-1.1-12
		C208.5,535.8,209.9,534.8,211.3,533.7z"/>
	<path class="st13" d="M286.3,542.9c0.9,0.5,1.9,1,2.8,1.5c-2.7,5-5.3,10.1-8.2,15.1c-0.6,1.1-2.3,2.5-3.1,2.3
		c-1.4-0.4-2.5-1.9-3.7-2.9l0,0c1.8-0.6,4.4-0.7,5.2-2C281.9,552.5,284,547.6,286.3,542.9z"/>
	<path class="st16" d="M149.1,604c0,0.4,0,0.7,0,1.1c-2.1,0.7-4.2,1.4-6.3,2c0.1,0.3,0.1,0.6,0.2,0.9c2.4-0.3,4.8-0.7,7.1-1
		c0,0.6,0,1.1,0,1.7c-6.3,1.1-12.7,2.2-19,3.2c0-0.3,0-0.7,0-1c0.3-0.3,0.6-0.7,1-1c2.6-0.5,5.1-1,9.1-1.8c-2-0.7-2.6-0.9-3.1-1.1
		c0-0.4,0-0.8,0-1.1c3.1-0.5,6.1-1,9.2-1.6l0.4,0.2l0.3-0.3C148.4,604.1,148.7,604,149.1,604z"/>
	<path class="st12" d="M72.2,526c0.6-0.1,1.2-0.1,1.8-0.2c0.4,1.3,4.3,0,2.2,3c-3.3,1.8-6.5,3.8-9.9,5.3c-1.5,0.7-3.5,0.5-5.2,0.7
		c0.8-0.8,1.5-1.6,2.4-2.3C66.4,530.4,69.3,528.2,72.2,526z"/>
	<path class="st13" d="M61.2,534.9c1.8-0.2,3.7,0,5.2-0.7c3.4-1.5,6.6-3.5,9.9-5.3c-2.2,2.2-4.3,4.5-6.7,6.6
		c-1.3,1.2-3.1,1.9-4.6,2.9c-3,2-4.6,1.1-5-2.3C60.3,535.7,60.7,535.3,61.2,534.9z"/>
	<path class="st14" d="M196.1,634c-0.7,0.4-1.4,0.7-2.1,1.1c-5-2.6-5-3.5,1-10.7c1.3,2.7,2.5,5,3.6,7.3
		C197.8,632.4,197,633.2,196.1,634z"/>
	<path class="st14" d="M61.2,534.9c-0.4,0.4-0.8,0.8-1.2,1.2c-1-1.4-1.9-2.8-2.9-4.2c5.1-1.9,10.1-3.9,15.2-5.8
		c-2.9,2.2-5.8,4.4-8.7,6.6C62.7,533.3,61.9,534.1,61.2,534.9z"/>
	<path class="st18" d="M153.1,613c0,0.6,0.1,1.3,0.1,1.9c-4,0.7-8,1.4-12.1,2.1c-1.6-0.7-3.3-1.3-4.9-2
		C141.8,614.3,147.4,613.6,153.1,613z"/>
	<path class="st21" d="M162.6,561.9c-1-0.5-2-1.1-3.8-2c5.8-3.7,10.9-0.2,15.8-1c0.1,0.4,0.1,0.8,0.2,1.2c-0.9,0.3-1.8,0.7-2.8,1
		c-2.7,0-5.3,0-8,0C163.6,561.4,163.1,561.7,162.6,561.9L162.6,561.9z"/>
	<path class="st17" d="M127.8,619.5c-3.1,0.3-6.2,0.5-9.4,0.8c0.3-0.7,0.5-1.5,0.8-2.2c0.6,0,1.2-0.1,1.8-0.1
		c0.1,0.1,0.1,0.3,0.2,0.3c0.1,0.1,0.2,0,0.3,0.1c-0.1-0.1-0.3-0.3-0.4-0.4c1-5.4,4.5-1.9,7.1-2c0,0.6,0.1,1.3,0.1,1.9
		C128.1,618.4,128,618.9,127.8,619.5z"/>
	<path class="st20" d="M119.3,618.1c-0.3,0.7-0.5,1.5-0.8,2.2c-4.1-0.6-5.2-3.2-3.5-8.3c1.4,0.7,2.7,1.4,4.1,2.1
		C119.1,615.4,119.2,616.7,119.3,618.1z"/>
	<path class="st16" d="M211.3,533.7c-1.4,1.1-2.8,2.2-4.3,3.3c-0.6,0-1.3,0-1.9,0c1.1-3.3,2.1-6.7,3.2-10c0.8-0.5,1.5-0.9,2.3-1.3
		C210.8,528.3,211.1,531,211.3,533.7z"/>
	<path class="st15" d="M245.1,610c0,0.7,0,1.3,0,2c0.3,1.5,0.5,3,1,4.5c0.6,1.6,1.5,3,2.2,4.6c-1.6-1.1-3.4-2.1-4.8-3.5
		C239.9,614,240.2,612.7,245.1,610z"/>
	<path class="st17" d="M119.1,614c-1.4-0.7-2.7-1.4-4.1-2.1c2.7-1.4,5.3-2.8,8-4.2c0.8-0.1,1.6-0.2,2.4-0.2c0.6,0,1.2,0,1.8,0
		c0.3,0.5,0.5,1,0.8,1.5c-0.3,0.3-0.6,0.7-0.8,1C123.6,609.7,120.3,609.6,119.1,614z"/>
	<path class="st16" d="M196.1,634c0.8-0.8,1.7-1.5,2.5-2.3c2.8,0.8,5.7,1.6,8.5,2.4C203.5,634.3,199.8,637.4,196.1,634z"/>
	<path class="st21" d="M162.9,549c3.8-0.7,7.7-1.5,11.5-2.2c0.1,0.4,0.2,0.8,0.3,1.2c-3.9,1.3-7.8,2.5-11.7,3.8
		c-0.9-0.2-1.7-0.4-2.6-0.6c0.4-0.7,0.9-1.5,1.3-2.2C162.1,548.9,162.5,548.9,162.9,549z"/>
	<path class="st14" d="M205.1,537c0.6,0,1.3,0,1.9,0c-0.9,4.1-2.8,8.3,1.1,12c-0.4,0.4-0.8,0.8-1.1,1.2c-1.1,0-2.2-0.1-3.3-0.1
		C204.3,545.6,204.7,541.3,205.1,537z"/>
	<path class="st14" d="M210,546c1.1-3.7,2.1-7.4,3.2-11.1c1,0,1.9,0.1,2.9,0.1C215,539.1,214.8,543.8,210,546z"/>
	<path class="st13" d="M263.1,554c0-0.3,0-0.5,0-0.8c3.6,1.9,7.3,3.8,11,5.8l0,0C270.4,557.3,266.7,555.6,263.1,554z"/>
	<path class="st20" d="M127.8,619.5c0.1-0.5,0.3-1.1,0.4-1.6c1.9-0.7,3.9-1.4,5.8-2c0.7-0.3,1.4-0.6,2-0.9c1.6,0.7,3.3,1.3,4.9,2
		C136.7,617.8,132.3,618.6,127.8,619.5z"/>
	<path class="st16" d="M164.1,561.1c2.7,0,5.3,0,8,0c-0.3,0.6-0.6,1.2-1,1.7c-2,0-4,0.1-6,0.1C164.8,562.3,164.4,561.7,164.1,561.1z
		"/>
	<path class="st23" d="M203.8,550c1.1,0,2.2,0.1,3.3,0.1c-1.4,0.7-2.7,1.4-4,2.1C203.3,551.5,203.6,550.7,203.8,550z"/>
	<path class="st20" d="M127.9,609c-0.3-0.5-0.5-1-0.8-1.5c1.3-0.2,2.6-0.4,3.9-0.7c0,0.4,0,0.7,0,1.1
		C130.1,608.3,129,608.6,127.9,609z"/>
	<path class="st16" d="M131.1,607.9c0-0.4,0-0.7,0-1.1c1.3-0.3,2.7-0.6,4-0.9c0,0.3,0,0.6,0,0.9c0,0.3,0,0.7,0,1c-1,0-2,0-2.9,0
		C131.8,608,131.5,607.9,131.1,607.9z"/>
	<path class="st20" d="M135.1,607.9c0-0.3,0-0.7,0-1c0.3-0.3,0.6-0.6,1-1c0.7,0,1.3,0,2-0.1c0,0.4,0,0.8,0,1.1
		C137.1,607.3,136.1,607.6,135.1,607.9z"/>
	<path class="st20" d="M125.4,607.5c-0.8,0.1-1.6,0.2-2.4,0.2C123.8,607.7,124.6,607.6,125.4,607.5z"/>
	<path class="st15" d="M164.1,561.1c0.3,0.6,0.7,1.2,1,1.8c-0.9-0.3-1.7-0.7-2.6-1C163.1,561.7,163.6,561.4,164.1,561.1z"/>
	<path class="st5" d="M132,592c0.7,0.2,1.3,0.3,2,0.5C133.3,592.3,132.6,592.1,132,592z"/>
	<path class="st5" d="M111.1,585.9c-0.7-0.2-1.3-0.5-2-0.7C109.8,585.5,110.5,585.7,111.1,585.9z"/>
	<path class="st5" d="M192.2,591.5c0.6-0.2,1.3-0.4,1.9-0.5C193.5,591.1,192.8,591.3,192.2,591.5z"/>
	<path class="st15" d="M157.6,542.9c0.3-0.3,0.6-0.5,1-0.8c-0.1,0.4-0.3,0.9-0.4,1.3C158,543.2,157.8,543.1,157.6,542.9z"/>
	<path class="st5" d="M117.4,586.8c-0.4-0.1-0.8-0.3-1.2-0.4C116.6,586.6,117,586.7,117.4,586.8z"/>
	<path class="st5" d="M186.2,592c-0.1,0.2-0.2,0.4-0.3,0.7c-0.3-0.1-0.5-0.2-0.7-0.4C185.6,592,185.9,592,186.2,592z"/>
	<path class="st5" d="M124.7,591.1c0.5,0.2,0.9,0.3,1.4,0.5C125.6,591.4,125.1,591.2,124.7,591.1z"/>
	<path class="st5" d="M116.9,590c0.4,0.1,0.8,0.2,1.1,0.4C117.6,590.3,117.2,590.1,116.9,590z"/>
	<path class="st5" d="M169,589.4c-0.3,0-0.6,0-0.8,0.1C168.5,589.2,168.7,589.2,169,589.4z"/>
	<path class="st18" d="M136.1,605.9c-0.3,0.3-0.6,0.6-1,1c0-0.3,0-0.6,0-0.9C135.4,606,135.8,605.9,136.1,605.9z"/>
	<path class="st5" d="M185.9,588.7c-0.3,0.2-0.6,0.2-0.9,0.2C185.3,588.8,185.6,588.7,185.9,588.7z"/>
	<path class="st5" d="M132.5,588.8c-0.4-0.1-0.9-0.3-1.3-0.4C131.6,588.5,132.1,588.7,132.5,588.8z"/>
	<path class="st5" d="M194,587.5c-0.4,0.1-0.7,0.2-1.1,0.3C193.3,587.7,193.6,587.6,194,587.5z"/>
	<path class="st15" d="M148,604.2l-0.3,0.3c0,0-0.4-0.3-0.4-0.2C147.5,604.1,147.7,604.1,148,604.2z"/>
	<path class="st11" d="M246.1,142c-0.9,0.8-2.4,1.5-2.6,2.5c-1.6,7.1-3,14.3-4.4,21.5c-1.9,5.2-3.7,10.4-5.8,15.6
		c-0.9,2.3-2.1,4.3-3.3,6.5c-0.2-6.1-2.3-11.4-8.5-13.2c-4.5-1.3-9.4-1.9-14.1-1.7c-5,0.3-10.2,6-10.3,10.1
		c-0.1,5.1,3.7,9.3,9.8,10.8c7.3,1.8,14.4,1.1,21.2-2.1c-6.2,11.1-13.8,21-24.4,28.3c-5.7,3.9-10.9,8.8-17,12.2
		c-15.4,8.6-31.7,10.8-48.3,3.2c-15-6.9-26.1-18.7-36.1-31.4c-4-5-7.3-10.7-10.7-16.2c-0.9-1.5-1.1-3.4-1.6-5.1
		c3.8,2.5,7.8,2.6,11.7,0.4c0.9-0.5,1.1-2.3,1.6-3.5c-1.2-0.3-2.9-1.3-3.7-0.8c-3.8,2.4-6.8,0.3-8.8-2.1c-7.2-9-9.9-19.4-6.3-30.6
		c1.1-3.5,3.5-6.6,8-6.3c4.8,0.3,8,2.6,9.2,8.4c1.6-1.2,3.3-1.8,3.7-2.9c0.4-1-0.4-2.9-1.3-3.7c-2.2-2.1-4.8-3.9-7.2-5.9
		c5.7-9.1,11.4-18.1,17.2-27.2c0.3-0.5,1.3-0.5,1.9-0.8c0.7,1.7,1.5,3.3,2.2,4.9c1.6-1,3.1-2,4.6-3c0.4-0.3,0.6-0.8,0.8-1.2
		c3.8-7.9,9.3-13.7,17.9-16.8c4.3-1.5,7.9-4.7,13-7.8c-0.9,3.4-2,5.8-2.2,8.2c-0.1,1.8,1,3.8,1.6,5.7c1.4-0.9,2.9-1.7,4-2.9
		c3.3-3.5,6.7-7,9.7-10.7c2.6-3.2,4.8-6.7,7-9.7c10.9,6.6,22.1,13.3,33.4,20c3.1,1.8,5.8,2.4,6.1-3.9c4.7,4.6,8.6,8.4,12.6,12.3
		c0.3,5.3,0.6,10.5,1.1,15.7c0.2,1.8,1.1,3.4,1.7,5.2c2-0.9,4.3-1.4,5.9-2.8c1.4-1.3,1.8-3.5,2.6-5.3
		C242.4,119.3,245.9,131.1,246.1,142z M132.8,186c1.2,0,2.5,0.4,3.5-0.1c3.6-1.7,8.5-2.9,10.2-5.8c2.3-4,0.8-8.8-3.1-12.6
		c-7.8-7.4-19.3-8.8-28.3-2.8c-4.6,3-5.8,9.5-1.7,12.7C118.9,182,124.8,186.5,132.8,186z M156.4,190c-1.8,1.2-6.8-2-5.7,3.7
		c1.5,7.2,6,12.1,12.9,14.6c7.4,2.6,14.4,1.5,20.6-3.3c4.4-3.4,3.8-8-1.5-9c-7.8-1.5-15.4-3.6-23-5.7
		C158.7,189.9,157.7,190,156.4,190z M195.9,164.5c2-0.3,4.1-0.2,5.9-0.9c7.9-3.1,9.9-2.7,15.5,3.6c0.8,0.9,1.3,2,2.2,2.6
		c0.8,0.6,2,0.5,3,0.8c0.1-1.1,0.7-2.3,0.4-3.2C219.1,156.7,203.3,154.3,195.9,164.5z M125,155.4c1.7,0,1.9,0.1,2,0
		c7.4-3.4,14.8-8.1,21.5,1.3c0.4,0.6,2,0.2,3.1,0.3c-0.1-1.1,0.2-2.6-0.4-3.4c-5.9-8.3-16.5-9.3-24.3-2.4
		C126,152,125.8,153.6,125,155.4z M93,162.6c-0.3,0.4-0.7,0.7-1,1.1c1.2,0.8,2.3,2,3.5,2.2c3,0.5,5.8-0.7,5.4-4
		c-0.4-3.4-1.9-6.8-3.6-9.9c-0.6-1.1-3.2-1.7-4.6-1.4c-0.8,0.2-1.7,2.7-1.6,4.1C91.5,157.3,92.4,159.9,93,162.6z M221.3,146.8
		c1.2-7.1-5.8-14.8-11.8-13.8c-0.9,0.1-1.6,0.9-2.4,1.3c0.5,0.7,1,2,1.6,2c4.8,0.4,6.9,4.1,9.4,7.4
		C218.9,144.7,220,145.6,221.3,146.8z M130.1,130.9c0.1,0.6,0.1,1.1,0.2,1.7c5.8-0.5,11.6-0.9,18.9-1.5c-2-1.6-3.1-3.2-4.6-3.6
		C139.2,126.1,134.5,128,130.1,130.9z"/>
	<path class="st4" d="M240.2,57.7c-3.1-1.2-5.1-2-7.3-2.7c-1.6-0.5-3.2-0.8-4.8-1.3c0.2,1.5,0.4,3,0.5,4.5c0,0.4-0.1,0.9-0.1,1.3
		c-0.4,0.3-0.9,0.5-1.4,0.8c-3.3-5-6.7-10.1-10-15C224.4,38.5,234.1,43.5,240.2,57.7z"/>
	<path class="st4" d="M192.1,20.1c3.3,1,6.7,2,10,3c1.7,5.1,1.9,11.1,9.9,11.3c3.7,0.1,4.1,5.2,0.4,11.9c-1.1-2.9-1.8-4.7-2.7-7
		c-8.4-2.9-10.6-12.9-17.6-18.2C192.1,20.7,192.1,20.4,192.1,20.1z"/>
	<path class="st4" d="M179.1,21.9c1-1,2.1-2.8,2.9-2.8c2.7,0.2,5.4,1.2,8.1,1.9c-1.9,0.6-3.8,1.5-5.8,1.7
		C182.6,22.9,180.8,22.2,179.1,21.9z"/>
	<path class="st4" d="M94.7,56.7c-0.1,0.3-0.2,0.6-0.4,0.8c-0.3-0.1-0.7-0.2-0.8-0.4s0.2-0.5,0.3-0.8C94.1,56.5,94.4,56.6,94.7,56.7
		z"/>
	<path class="st3" d="M206.3,80.1c7.4-1.9,13.2,0,15.9,4.8c0.6,1.1,0.1,2.7,0.2,4.1c-1.2,0-2.7,0.4-3.5-0.2
		C214.8,86.2,210.9,83.3,206.3,80.1z"/>
	<path class="st11" d="M116.1,108c0.3-0.9,0.7-1.7,1.1-2.6C116.8,106.3,116.4,107.2,116.1,108z"/>
	<path class="st24" d="M69.6,115.2c0.1,0.1,0.3,0.2,0.3,0.3c-0.2,0.1-0.4,0.3-0.6,0.3c-0.1,0-0.2-0.2-0.3-0.3
		C69.3,115.4,69.5,115.3,69.6,115.2z"/>
	<path class="st2" d="M161.9,267.1c6.1,11.4,7.9,23.9,7.9,36.6c0,10.6-1.1,21.2-1.9,31.8c-0.2,2-1.4,4-2,5.5
		c-9.2-0.4-17.9-0.9-26.6-1.3c-3.2-1.7-6.3-3.7-9.6-5.1c-2.6-1.1-3.8,0.5-3.4,3c0.2,1.2,1.3,2.3,1.9,3.4c-4.9,0.5-9.9,1-14.8,1.5
		c-9.2,1-18.4,2-28.7,3.1c0.6-8,1.1-16,1.7-24c0.5-6.3,1.1-12.6,1.4-18.9c0.1-1.8-1-3.7-1.8-6.7c-1.3,1.9-1.9,2.4-1.9,2.9
		c-1,13.4-2.2,26.8-2.9,40.2c-0.5,9.3-0.2,9.3,9.7,10c-0.6,12.6-1.3,25.2-1.9,37.8c-1.4,2.5-2.8,5.1-4.4,7.8
		c2.4,1.2,4.3,2.2,6.2,3.1c3.2,15.3,8.4,30,15.4,44c-0.6,2-1.3,4-1.8,5.6c-1.8,0.6-3.9,0.7-4.8,1.7c-4.1,5-6.9,11.3-13.7,13.6
		c-0.5,0.2-0.7,1.4-1.1,2.1c0.5,1.3,0.7,2.9,1.6,3.8c7.6,7.4,15.2,14.7,23,21.8c0.9,0.8,3,0.3,4.6,0.5c4.3-4.7,8.6-9.3,12.9-14
		c0.4-1.1,0.7-2.1,1.1-3.2c7.3,5.3,14.7,10.7,22,16c-11.2,3.9-22.5,7.8-33.7,11.7c-0.9,0.3-1.9,0.7-2.6,1.4
		c-11.7,10.2-27.4,11.3-40.6,17.9c-7.7-12-15.3-23.9-23-35.9c-3.3-1.1-6.5-2.3-9.8-3.4c-1-2.2-2-4.5-3.3-7.2c-2.1,2.4-3.6,4.1-5,5.7
		c-0.6-3.7-1.2-7.4-1.9-11c0.6-1.5,1.7-2.9,1.8-4.4c0.3-5.1-0.4-10.3,0.7-15.2c1-5-0.2-7.2-5.1-7.4c-2.3-47.2,3.8-92.8,26-135.3
		c0.5-0.9,1.1-1.6,1.7-2.5c2.1-0.5,4.2-0.9,6.3-1.5c12.9-4.3,25.6-8.9,38.6-13c4.1-1.3,4.7-3.2,3.4-7c-3.1-8.9-5.8-17.9-8.8-26.9
		c7.9-6.2,16.8-10.7,26.5-13.4c-0.1,1.9-0.1,3.8-0.2,5.7c-2.5,0.1-4.9,0.3-3.1,3.9l-0.1,0c-0.1,1.2-0.3,3.4-0.2,3.4
		c4.7,0.9,3.8,4.5,3.3,7.4c-0.8,5.1,1.5,6.9,6.1,7c1.8,0,3.6,0.1,5.5,0.1c3.8,0.1,8.2-1,11.3,0.5c5.6,2.6,8.7,1.9,9.9-4.5
		C156.8,266.3,159.4,266.7,161.9,267.1z M45.9,401.1c0.3,0.9,0.6,1.7,0.9,2.5c0.8-0.8,1.6-1.7,2.3-2.5c0.4-0.4,0.8-0.8,1.1-1.2
		c0.6-1,1.2-2,1.8-3c4.8-2.1,5-6.8,6.1-11c2.1-5.6,4.2-11.2,6.3-16.8c2.6-7,5.2-14,7.8-21c0.7-1.4,1.3-2.7,1.9-4.1
		c1-3.7,2.1-7.4,2.8-11.2c0.2-1.1-0.8-3.4-1.5-3.5c-1.6-0.2-4.1,0-4.8,1c-2.2,3.3-3.7,7-5.5,10.6c-0.5,1.3-1,2.6-1.5,4
		c-1.6,4.7-3.2,9.4-4.7,14.1c-0.6,1.6-1.3,3.3-1.9,4.9c-1-0.6-2-1.5-3.1-1.7c-1.5-0.2-4.5,0.3-4.5,0.4c0.1,5.1,0.5,10.3,0.9,15.4
		c-1.1,3.3-2.1,6.6-3.2,10C46.7,392.4,46.3,396.7,45.9,401.1z M69.2,429c2.5-4.3-0.2-6.5-3.7-7c-7-1.1-14.1-1.8-21.1-1.8
		c-2,0-5.6,2.8-5.8,4.6c-0.9,7-0.7,14.1-0.9,21.2c-1.1,9.4,0.9,11.7,10.3,11.6c4.1-0.1,8.6-1.5,12.2-0.3c5.3,1.8,6.4-0.8,7.5-4.6
		C68.1,444.9,68.6,437,69.2,429z M114,302.9c-1.6-0.1-4.4-0.7-4.7-0.1c-1.1,1.9-1.9,4.5-1.5,6.6c0.4,1.7,2.5,4,4.1,4.2
		c3,0.4,6.1-0.6,9.2-1c7.8-1.2,15.8-1.8,23.4-3.8c4.9-1.3,9.2-4.6,13.8-7.1c-0.2-0.7-0.3-1.3-0.5-2c-3.6-0.9-7.2-1.8-10.8-2.8
		c-0.7-0.1-1.3-0.1-2-0.2c-3,0.4-6,0.7-9,1.1c-0.3,0-0.6,0-0.9,0c-5,0.7-10,1.4-15,2.1C116.8,298.3,114.7,299.1,114,302.9z"/>
	<path class="st25" d="M157,428.1c5.6,8.1,10.7,16.8,17.1,24.3c9.4,11.2,20.8,20.5,34.3,26.4c6.5,2.9,14,3.6,21.1,5.1
		c8.3,1.7,13.8,7.8,19.7,13c1.3,1.1,1.4,3.6,2.4,6.5c-5.2-2.1-8-7.1-14.3-5.8c4.5,5.3,13.1,6.9,9.5,15.4c-3.5-2.9-7-5.9-10.6-8.7
		c-0.7-0.6-1.9-0.5-2.9-0.7c0.1,1.1-0.2,2.6,0.5,3.3c1.7,1.8,3.9,3.1,5.7,4.8c1.4,1.3,2.6,2.9,3.8,4.4c-19.5-4.9-38.9-9.8-58.4-14.7
		c-1-1.2-1.8-2.9-3.1-3.5c-7.4-3.1-15.3-5.3-22.4-8.9c-15.1-7.7-27.9-18.4-38.2-31.9c15.7-2.4,17.6-4.1,21.4-19.7
		c0.1-0.3,0.3-0.6,0.3-0.9c3.4-15.9-8.3-29.4-24.3-27.2c-6.3,0.9-12.3,3.9-18.5,5.9c-6.4-16.8-7.6-34.3-6.9-52c5.8,0,11.5,0,17.1,0
		c1-0.9,2.1-2.6,3.4-2.9c11.5-2.2,23-4.2,34.5-6.2c-0.7,13.7-2.1,27.3-1.8,41c0.2,11,3.1,21.8,9.8,31.1
		C156.4,426.7,156.7,427.4,157,428.1z"/>
	<path class="st8" d="M121.1,456.9c10.3,13.6,23.1,24.2,38.2,31.9c7.1,3.6,15,5.8,22.4,8.9c1.3,0.5,2.1,2.3,3.1,3.5
		c-3.6-0.8-7.1-1.6-10.7-2.4c-5.7-1.6-11.3-3.3-17-4.9c-2.3-1.4-4.6-2.8-6.8-4.2c-7.3-5.3-14.7-10.7-22-16c-2-2.6-4-5.3-6-8
		c-0.3-0.3-0.6-0.7-0.9-1c-0.7-1-1.4-1.9-2.1-2.9c-0.9-0.8-1.8-1.6-2.7-2.5c-0.7-1.2-1.3-2.4-1.9-3.6c-2.1-3.4-4.1-6.8-6.2-10.2
		c-0.6-1.3-1.3-2.6-1.9-3.9c-7-14-12.2-28.6-15.4-44c-0.6-3.6-1.2-7.3-1.8-11c0.6-12.6,1.3-25.2,1.9-37.8c1.3-0.1,2.6-0.3,3.9-0.4
		c-0.6,4.8-1.2,9.6-1.8,14.3c-0.7,17.7,0.5,35.2,6.9,52c5.4,11.9,10.8,23.8,16.3,35.6C117.5,453,119.5,454.9,121.1,456.9z"/>
	<path class="st23" d="M70.2,521.8c-4.3,1.8-8.7,3.6-13,5.4c-5.7-8.8-11.6-17.6-17.1-26.6c-1.1-1.8-0.6-4.5-0.8-6.8
		c0.3-0.1,0.5-0.3,0.6-0.6c1.8-0.7,3.8-1,5.4-2.1c3.1-2,5.3-2,7.3,1.5c2.6,4.6,5.6,9,8.3,13.5C64.1,511.3,67.1,516.6,70.2,521.8z"/>
	<path class="st26" d="M274.1,559c-3.6-1.9-7.3-3.8-11-5.8c-1.6-1.5-3.1-3.3-5-4.2c-3-1.5-2.4-3.7-2-6c2.4-4.3,4.8-8.6,7.2-12.9
		c7.7,4.3,15.4,8.6,23,12.9c-2.3,4.7-4.4,9.6-7.1,14.1C278.5,558.2,275.8,558.3,274.1,559z"/>
	<path class="st6" d="M318.1,575c-3.1-13.8-12.6-23-23.1-31.3c-1.4-1.1-2.7-2.4-4.1-3.6c2.1-3.7,4.1-7.4,6.2-11.1
		c4,3.3,8,6.7,12.1,10c-2,10.7-2,10.7,8.7,13.5c0.5,0.1,0.9,0.3,1.4,0.5c0.6,6,1.2,12,1.8,17.9C320,572.3,319,573.6,318.1,575z"/>
	<path class="st26" d="M289,538.9c-7.7-4.3-15.4-8.6-23.1-12.9c2-3.8,4.1-7.7,6.1-11.5c4.3,2.5,8.7,4.9,13,7.4
		c0.4,1.1,0.5,2.6,1.2,3.2c2.4,1.8,5.1,3.2,7.7,4.8C292.2,533.2,290.6,536.1,289,538.9z"/>
	<path class="st13" d="M94.7,255.7c2.9,9,5.7,18,8.8,26.9c1.3,3.8,0.7,5.7-3.4,7c-12.9,4.1-25.7,8.7-38.6,13c-2,0.7-4.2,1-6.3,1.5
		c0.5-1.1,0.9-2.1,1.3-3.2c4.9-1.4,9.9-2.8,14.6-4.1c-0.9-3-1.6-5.1-2.2-7.3c-0.3,0.1-0.5,0.2-0.8,0.3c-0.7-1-1.4-2-2.1-3
		c1.3-1.7,2.6-3.4,3.9-5.1c0.2,1.3,0.5,2.5,0.7,4c0.7,0,2,0.1,3.3,0.1c0.6,2.5,0.8,5.2,2,7.4c0.2,0.5,3.7-0.7,5.7-1.1
		c0.8-0.2,1.7-0.1,2.4-0.4c5.8-1.9,11.5-3.7,17.8-5.8c-3.5-9.9-6.7-19.1-9.8-28.3C92.9,257.1,93.8,256.4,94.7,255.7z"/>
	<path class="st26" d="M92,257.9c3.2,9.2,6.4,18.4,9.8,28.3c-6.3,2-12,4-17.8,5.8c-0.8,0.3-1.6,0.2-2.4,0.4c-2,0.4-5.4,1.6-5.7,1.1
		c-1.1-2.2-1.4-4.9-2-7.5c0.4-0.1,0.9-0.1,1.3-0.2c1.9-0.5,3.8-1.1,5.7-1.6c0,0.6,0,1.1,0,1.7c-1.7,0.9-3.3,1.8-4.9,2.6
		c0.2,0.5,0.4,1.1,0.7,1.6c6.1-2.1,12.3-4.1,18.3-6.3c0.2-0.1,0-1.4,0-2.2c-0.3-0.5-0.6-1.1-0.9-1.6c0.3-0.8,0.7-1.6,1-2.3
		c-0.4-0.9-0.8-1.9-1.2-2.8c-1.3-0.5-2.6-1-3.8-1.5c0-0.5,0-1-0.1-1.5c0.6-0.7,1.3-1.5,2.4-2.9c-2.2,0.1-3.3,0.2-4.4,0.2
		c0-0.4,0-0.8,0-1.2c0.9-0.7,1.8-1.5,2.7-2.2c-0.1-0.3-0.3-0.5-0.4-0.8c-2.4,0.3-4.8,0.5-7.3,0.8C86.2,263.2,89.1,260.6,92,257.9z"
		/>
	<path class="st26" d="M183.4,505.8c-1,2.2-2,4.5-2.4,5.4c-3-0.2-5.3-0.4-7.6-0.4c-3.1,0-6.3,0.7-9.3,0.3c-5.6-0.7-7.9-4.3-7.9-11
		C165.3,501.9,174.4,503.8,183.4,505.8z"/>
	<path class="st14" d="M70.2,521.8c-3.1-5.2-6.1-10.5-9.3-15.7c-2.7-4.5-5.7-8.9-8.3-13.5c-2-3.5-4.2-3.5-7.3-1.5
		c-1.6,1-3.6,1.4-5.4,2.1c2.6-2.7,5.1-5.4,7.7-8.1c0.9-0.1,1.8-0.2,2.6-0.3c7.7,12,15.3,23.9,23,35.9
		C72.2,521.1,71.2,521.5,70.2,521.8z"/>
	<path class="st21" d="M94,275c0.4,0.9,0.8,1.9,1.2,2.8c-6.1,1.8-12.2,3.5-18.2,5.5c-0.8,0.3-1.1,1.7-1.7,2.6
		c-0.4,0.1-0.9,0.1-1.3,0.2c-1.3-0.1-2.6-0.1-3.3-0.1c-0.3-1.5-0.5-2.7-0.7-4c0.8-1.6,1.5-3.3,2.3-4.9c6-1.7,11.9-3.3,17.9-5
		c0,0.5,0,1,0.1,1.5c-5.2,2.1-10.4,4.3-15.6,6.4c0.2,0.4,0.3,0.8,0.5,1.2C81.4,279,87.7,277,94,275z"/>
	<path class="st14" d="M39.3,493.8c0.2,2.3-0.3,5,0.8,6.8c5.5,9,11.3,17.8,17.1,26.6c-1.3,0.6-2.6,1.2-3.9,1.7
		c-3.7-5.7-7.5-11.5-11.2-17.2c-2-5.6-4-11.2-6-16.9c0.1-0.4,0.1-0.9,0.2-1.3C37.3,493.7,38.3,493.8,39.3,493.8z"/>
	<path class="st6" d="M248.7,518.1c1.1-3.1,2.2-6.2,3.4-9.2c0.5-1.4,1.3-2.7,2-4c2.3,1.3,4.7,2.7,7,4c-2,4-4,8.1-6.1,12.1
		C252.9,520.1,250.8,519.1,248.7,518.1z"/>
	<path class="st22" d="M27.6,441.9c4.9,0.3,6.1,2.5,5.1,7.4c-1,4.9-0.3,10.1-0.7,15.2c-0.1,1.5-1.2,3-1.8,4.4
		C29.4,459.9,28.5,450.9,27.6,441.9z"/>
	<path class="st21" d="M66.1,287c0.7,1,1.4,2,2.1,3c0.3-0.1,0.5-0.2,0.8-0.3c0.6,2.1,1.3,4.2,2.2,7.3c-4.8,1.3-9.7,2.7-14.6,4.1
		C59.7,296.3,62.9,291.6,66.1,287z"/>
	<path class="st12" d="M264,525c-0.3,0-0.6-0.1-0.8-0.2c-1.3-1.6-2.6-3.2-4.6-5.7c1-2.1,2.8-5.6,4.6-9.1c2.4,1.2,4.7,2.4,7.1,3.6
		C268.2,517.5,266.1,521.3,264,525z"/>
	<path class="st6" d="M42,511.8c3.7,5.7,7.5,11.4,11.2,17.2c-1.5,0.6-3,1.3-5,2.2C46.1,524.5,44.1,518.2,42,511.8z"/>
	<path class="st26" d="M250.2,537.5c1.3-3.7,2.7-7.5,4-11.2c2.3,0.9,4.6,1.8,6.8,2.8c-2.2,3.3-2,8.8-7.9,8.8
		C252.1,537.8,251.1,537.6,250.2,537.5z"/>
	<path class="st16" d="M289,538.9c1.6-2.9,3.2-5.7,5-9c-2.6-1.6-5.3-3-7.7-4.8c-0.8-0.6-0.8-2.1-1.2-3.2c4,2.3,8,4.7,11.9,7
		c-2.1,3.7-4.1,7.4-6.2,11.1C290.3,539.7,289.6,539.3,289,538.9z"/>
	<path class="st19" d="M275,612.2c1.6,0.6,3.2,1.3,5.2,2.1c-3.8,3.2-6.9,5.8-10,8.5c-2.1,0.7-4.1,1.4-6.2,2.1c0.7-1.3,1.3-2.6,2-3.9
		l0,0c0.4,0,0.8,0,1.2,0c3.5-1,5.7-3.1,5.8-7l0,0c0.4-0.3,0.9-0.7,1.3-1C274.7,612.8,274.9,612.5,275,612.2z"/>
	<path class="st14" d="M32.1,480c1.4-1.6,2.9-3.3,5-5.7c1.3,2.8,2.3,5,3.3,7.2c-0.1,0.5-0.2,1.1-0.4,1.6c-1,0.3-2,0.5-3.1,0.8
		c-1.4,0.1-2.7,0.2-4.1,0.3C32.7,482.8,32.4,481.4,32.1,480z"/>
	<path class="st16" d="M263.2,510.1c-1.8,3.5-3.5,7-4.6,9.1c2,2.5,3.3,4.1,4.6,5.7c-2.7-1.3-5.4-2.5-8.2-3.8c2-4,4-8.1,6.1-12.1
		C261.8,509.3,262.5,509.7,263.2,510.1z"/>
	<path class="st19" d="M90.1,272c-6,1.7-11.9,3.3-17.9,5c0.9-1,1.8-2,2.7-3c4.4-1.5,8.8-3.1,13.2-4.6c1.1-0.1,2.3-0.1,4.4-0.2
		C91.4,270.5,90.7,271.2,90.1,272z"/>
	<path class="st19" d="M318.1,575c1-1.4,1.9-2.8,2.9-4.2c-0.1,4.5-0.2,8.9-0.5,13.4c-0.1,1.9-0.9,3.8-2.4,5.6
		C318.1,584.9,318.1,580,318.1,575z"/>
	<path class="st14" d="M319.2,552.9c-0.5-0.2-0.9-0.4-1.4-0.5c-10.7-2.8-10.7-2.8-8.7-13.5c0.6,0.7,1.3,1.5,2,2.2
		c-1.8,6.4-0.8,7.5,7.1,8.8C318.5,550.9,318.8,551.9,319.2,552.9z"/>
	<path class="st13" d="M253.1,537.9c5.9,0,5.7-5.5,7.9-8.8c0.7,0.3,1.5,0.6,2.2,0.9c-2.4,4.3-4.8,8.6-7.2,12.9c-1-0.7-2-1.3-3-2
		C253.1,539.9,253.1,538.9,253.1,537.9z"/>
	<path class="st23" d="M318.1,550c-7.9-1.3-8.8-2.4-7.1-8.8C313.4,544.1,315.8,547,318.1,550z"/>
	<path class="st20" d="M264,525c2.1-3.8,4.1-7.5,6.2-11.3c0.6,0.3,1.3,0.5,1.9,0.8c-2,3.8-4.1,7.7-6.1,11.5
		C265.3,525.7,264.7,525.4,264,525z"/>
	<path class="st21" d="M88.1,269.3c-4.4,1.5-8.8,3.1-13.2,4.6c1.4-1.3,2.8-2.6,4.2-3.9c3-0.6,6-1.3,9.1-1.9
		C88.2,268.5,88.1,268.9,88.1,269.3z"/>
	<path class="st21" d="M157,494c5.7,1.6,11.3,3.3,17,4.9C168.4,497.2,162.7,495.6,157,494z"/>
	<path class="st20" d="M32.9,484.2c1.4-0.1,2.7-0.2,4.1-0.3c-0.3,3.2-0.5,6.5-0.8,9.7c0,0.4-0.1,0.9-0.2,1.3
		C35,491.3,34,487.8,32.9,484.2z"/>
	<path class="st19" d="M88.2,268.1c-3,0.6-6,1.3-9.1,1.9c1.4-1.4,2.8-2.7,4.1-4.1c2.4-0.3,4.8-0.5,7.3-0.8c0.1,0.3,0.3,0.5,0.4,0.8
		C90,266.6,89.1,267.4,88.2,268.1z"/>
	<path class="st13" d="M121.1,247.9c0.1-1.9,0.1-3.8,0.2-5.7c0.8-0.9,1.6-1.7,2.3-2.6c0.5,0.1,1,0.3,1.4,0.4
		c0.1,0.4,0.2,0.9,0.3,1.3c-0.1,0.8-0.1,1.6-0.2,2.4c-0.8,1.3-1.6,2.6-2.4,4C122.1,247.8,121.6,247.9,121.1,247.9z"/>
	<path class="st16" d="M266.1,620.9c-0.7,1.3-1.3,2.6-2,3.9c-0.9,0.1-1.9,0.1-2.8,0.2c0.3-0.7,0.7-1.4,1-2c0.3-0.3,0.5-0.7,0.8-1
		l0,0c0.5-0.3,0.9-0.7,1.4-1C265,620.9,265.5,620.9,266.1,620.9z"/>
	<path class="st20" d="M191,275.2c-0.9-3-1.8-6.1-2.6-9.1c8.7-5.8,18.1-2,27.1-1.7c3.4,0.1,4.8,3.6,4.6,7.2
		c-0.4,8.1-0.7,16.3-1.1,24.4c-1.3-0.3-2.6-0.6-3.9-0.9c0.6-1,1.8-1.9,1.8-2.8c0.3-7.1,0.3-14.3,0.4-21.4c0.1-3.3-1.7-4.8-4.9-4.8
		c-5.3,0-10.6-0.4-15.9,0c-1.7,0.1-3.6,2.1-4.7,3.8C190.9,271.3,191.2,273.4,191,275.2z"/>
	<path class="st15" d="M215.1,295.1c1.3,0.3,2.6,0.6,3.9,0.9c-1.3,2-2.7,3.9-3.5,5.1c-8.2-0.5-15.3-2.3-22.5,0.1
		c0,0-0.3-0.2-0.3-0.2c-1.2-1.3-2.5-2.7-3.7-4c1.7-1,3.5-2.1,5.2-3.1c0.9,0.4,1.8,1.1,2.6,1.1C202.9,295.1,209,295.1,215.1,295.1z"
		/>
	<path class="st20" d="M240.9,302.9c-2.7,4,0.1,8,0.1,12.1c-0.2,0-0.4,0-0.5-0.1c-2.1-2.4-4.3-4.7-6.4-7.1
		C236.4,306.1,238.6,304.5,240.9,302.9z"/>
	<path class="st8" d="M239,244.8c-0.3,0.7-0.6,1.5-0.9,2.2C238.3,246.3,238.6,245.5,239,244.8z"/>
	<path class="st6" d="M188.9,297c1.2,1.3,2.5,2.7,3.7,4c-0.5,3.5-1.2,7-1.5,10.5c-0.3,3.1-0.1,6.3-0.1,9.4c-1.2-1-2.4-2-3.9-3.1
		c-2.1,3.6-6,6.5-1.5,10.8c0.6,0.5,0.1,2.5-0.3,3.6c-1.5,4-0.7,7.1,2.6,9.7c0.4,3.6,1.2,7.3,1.1,10.9c-0.3,6.4-1.2,12.8-1.8,19.2
		c-2.8-1.3-5.6-2.6-8.5-3.8c-0.4-0.4-0.9-0.8-1.3-1.2c-2.1-1.8-4.2-3.6-6.3-5.3c-6-4.3-11.9-8.7-17.9-13c0.3-1.5,0.6-3.1,0.8-4.6
		c4.9,0.9,9.9,1.6,14.7-0.6c0.9-0.4,1.8-1.3,2.2-2.2c0.6-1.4,1-2.9,0.8-4.4c-0.9-9.8,5.1-15.5,11.9-20.8c1.2-0.9,2.3-1.9,3.4-2.9
		c4-3.7,4.1-6.7,0.4-10.6c-1.5-1.5-3.2-2.9-5.4-4.9C184.8,297.6,186.9,297.3,188.9,297z"/>
	<path class="st0" d="M93.2,363c0.6-4.8,1.2-9.6,1.8-14.3c7-0.8,14-1.7,21.1-2.3c11.3-0.9,22.7-1.5,34-2.3c-0.6,3.3-1.3,6.5-1.9,9.8
		c-11.5,2-23,4-34.5,6.2c-1.3,0.3-2.3,2-3.4,2.9C104.7,363,98.9,363,93.2,363z"/>
	<path class="st26" d="M215.1,295.1c-6.1,0-12.2,0-18.3-0.1c-0.9,0-1.8-0.7-2.6-1.1c-0.2-1.7-0.3-3.3-0.5-5
		c5.8,0.7,11.6,1.4,17.4,1.8c0.6,0,1.9-1.7,2-2.7c0.1-1.3-0.7-3.6-1.3-3.7c-4.9-0.4-9.9-0.7-14.8-0.3c-1.3,0.1-2.5,2.5-3.7,3.9
		c-0.8-4.3-1.5-8.5-2.3-12.8c0.2-1.8-0.1-3.9,0.8-5.3c1-1.7,3-3.7,4.7-3.8c5.3-0.4,10.6,0,15.9,0c3.2,0,5,1.5,4.9,4.8
		c-0.1,7.1-0.1,14.3-0.4,21.4C216.9,293.2,215.7,294.1,215.1,295.1z"/>
	<path class="st26" d="M122.7,247.7c0.8-1.3,1.6-2.6,2.4-4c0.6,0.3,1.2,0.7,1.8,0.9c7.6,2.2,9,5.2,5.3,11.9c-0.5,1-0.7,3.1-0.3,3.4
		c3,1.9,6.3,3.5,9.5,5.1c0.3-0.5,0.7-1.1,1-1.7c-1.6-1.1-3.2-2.2-4.9-3.2c-2.3-1.3-3.5-2.9-1.1-5c4.3-3.6,2.7-6.4-0.8-9.2
		c-1-0.8-1.6-2-2.4-3c4.3,2,8.6,4.1,12.9,6.1c0,4.9,0,9.9,0.1,14.9c-1.2,3.5-4.2,3.8-7.1,4c-3.3,0.1-6.7-0.3-9.9,0.1
		c-4.2,0.5-5-1.4-5-5.1C123.9,257.8,123.1,252.8,122.7,247.7z"/>
	<path class="st8" d="M148.1,354c0.6-3.3,1.3-6.5,1.9-9.8c1.4,0,2.7,0,4.1,0c-0.3,1.5-0.6,3.1-0.8,4.6c-0.1,1-0.2,1.9-0.3,2.8
		c-0.3,1.7-0.5,3.4-0.8,5.1c-0.1,1.3-0.1,2.6-0.1,3.9c-0.6,10.7-1.3,21.4-1.9,32.1c0.3,2.8,0.7,5.5,1,8.3c1.4,5.2,2.7,10.5,4.1,15.7
		c0.3,3.1,0.5,6.2,0.8,9.3c-6.7-9.3-9.5-20.1-9.8-31.1C146,381.3,147.4,367.6,148.1,354z"/>
	<path class="st16" d="M122.7,247.7c0.4,5,1.2,10.1,1.2,15.1c0,3.7,0.8,5.6,5,5.1c3.3-0.4,6.6,0.1,9.9-0.1c3-0.1,6-0.5,7.1-4
		c0.6,0,1.1,0,1.7,0c0.3,1.6,0.6,3.1,0.9,4.7c0.6-0.1,1.2-0.1,1.7-0.2c0-5.2,0-10.4,0-15.6c0.9,0.4,2,0.6,2.5,1.3
		c3.1,4.3,6.1,8.6,9.1,13c-2.6-0.4-5.2-0.9-8.1-1.3c-1.2,6.3-4.3,7.1-9.9,4.5c-3.2-1.5-7.5-0.4-11.3-0.5c-1.8,0-3.6-0.1-5.5-0.1
		c-4.6-0.1-6.9-1.9-6.1-7c0.4-2.8,1.4-6.5-3.3-7.4c-0.1,0,0.1-2.3,0.2-3.4c0.9,0.8,1.8,1.6,3.1,2.7c0.3-1.7,0.5-3,0.9-5.2
		c-1.9,1.3-2.9,1.9-3.9,2.6c-1.8-3.6,0.6-3.8,3.1-3.9C121.6,247.9,122.1,247.8,122.7,247.7z"/>
	<path class="st19" d="M133.1,243c0.8,1,1.5,2.2,2.4,3c3.5,2.8,5.1,5.6,0.8,9.2c-2.4,2-1.2,3.7,1.1,5c1.7,1,3.3,2.1,4.9,3.2
		c-0.3,0.5-0.7,1.1-1,1.7c-3.2-1.7-6.4-3.2-9.5-5.1c-0.5-0.3-0.2-2.4,0.3-3.4c3.6-6.6,2.3-9.7-5.3-11.9c-0.6-0.2-1.2-0.6-1.8-0.9
		c0.1-0.8,0.1-1.6,0.2-2.4C127.8,241.9,130.4,242.5,133.1,243z"/>
	<path class="st13" d="M193.3,287.9c1.2-1.4,2.4-3.8,3.7-3.9c4.9-0.4,9.9-0.1,14.8,0.3c0.6,0,1.3,2.4,1.3,3.7c-0.1,1-1.3,2.7-2,2.7
		c-5.8-0.4-11.6-1.2-17.4-1.8C193.5,288.6,193.4,288.3,193.3,287.9z M197.9,286.4c0,0.4,0,0.7-0.1,1.1c3.9,0,7.9,0,11.8,0
		c0-0.4,0-0.7-0.1-1.1C205.7,286.4,201.8,286.4,197.9,286.4z"/>
	<path class="st16" d="M128.3,341c-0.7-1.1-1.7-2.2-1.9-3.4c-0.4-2.5,0.8-4.2,3.4-3c3.3,1.4,6.4,3.4,9.6,5.1
		C135.6,340.1,132,340.6,128.3,341z"/>
	<path class="st12" d="M150.3,252.9c0,5.2,0,10.4,0,15.6c-0.6,0.1-1.2,0.1-1.7,0.2c-0.3-1.6-0.6-3.1-0.9-4.7c0.1-4.5,0.3-9,0.4-13.5
		C148.9,251.3,149.6,252.1,150.3,252.9z"/>
	<path class="st13" d="M148.1,250.4c-0.1,4.5-0.3,9-0.4,13.5c-0.6,0-1.1,0-1.7,0c0-5,0-9.9-0.1-14.9
		C146.7,249.6,147.4,250,148.1,250.4z"/>
	<path class="st0" d="M488,216.7c-1.5,7-0.4,17-10,22.3c-2.1,1.2-5.1,0.8-7.6,1.2c-1.4,0.2-2.9,0.4-4.3,0.6
		c-4.3,0.6-8.6,0.9-11.1-3.5c-2.3-4-1.6-8.1,1.3-11.6c1.9-2.3,2.5-4.3,0.5-6.6c-2.4-2.7-1.6-5.5,0.6-7.5c3.1-2.9,6.3-5.9,10-7.8
		c4.9-2.6,10.4-2.2,15.5-0.2C487.8,205.6,488.1,210.3,488,216.7z"/>
	<path class="st0" d="M228.1,192c-6.8,3.2-13.9,3.9-21.2,2.1c-6.1-1.5-10-5.7-9.8-10.8c0.1-4.1,5.3-9.8,10.3-10.1
		c4.7-0.2,9.6,0.4,14.1,1.7c6.3,1.8,8.4,7,8.5,13.2c0,0.3,0,0.6,0,0.9c-0.3,0.3-0.7,0.7-1,1l0,0C228.8,190.7,228.4,191.3,228.1,192
		C228.1,192,228.1,192,228.1,192z"/>
	<path class="st11" d="M228.1,192c0.3-0.7,0.7-1.3,1-2C228.8,190.7,228.4,191.3,228.1,192z"/>
	<path class="st11" d="M229.1,190c0.3-0.3,0.7-0.7,1-1C229.8,189.3,229.4,189.7,229.1,190z"/>
	<path class="st11" d="M89,182c0.4,0.3,0.7,0.7,1.1,1C89.7,182.7,89.4,182.3,89,182z"/>
	<path class="st25" d="M249.1,246c14.9-7.1,29-15.2,42.1-25.3c12.6-9.7,23.2-21.3,32.8-33.8c8.8-11.4,16.8-23.4,24.7-35.5
		c2.7-4.1,3.9-9.1,6.4-13.3c2-3.5,4.6-6.9,7.5-9.7c3.5-3.3,7.7-3.6,11.7-0.3c0,0.5,0.1,1.1,0.1,1.6c-1.6,2.2-3.3,4.3-4.9,6.5
		c2.9,2.3,3.7,2,9.5-4c-0.3,6.2-1,11.9-0.5,17.5c0.2,2.2,2.5,5.6,4.4,6c3.2,0.7,4-2.3,3.7-5.7c-1.6,0.6-2.8,1.1-5.5,2.2
		c2-4.4,3.3-7.5,4.7-10.6c-4.5-2.9-4.3-3-2.9-8.2c0.7-2.6,0.8-5.5,1.1-8.3c0.9-1.2,1.8-2.3,2.8-3.5c4.7,2.4,6.3,5.6,3.8,10.8
		c-0.9,1.8-0.1,4.3-0.1,6.5c0,2.9,0.9,6.2,0,8.8c-1.8,5.1-4.3,10.1-7.2,14.7c-1.5,2.4-4.4,4.1-7.2,6.6c-2.2,5.3-4.3,12.1-7.7,18.1
		c-7.5,12.9-15.7,25.3-23.7,37.9c-0.6,0.9-1.7,1.6-2.6,2.3c-3-4.7-7.1-8.6-12.9-7.9c-9.5,1.1-17.6,5.5-23.9,13
		c-7.5,9-5.2,21.7,4.8,26.7c-14.9,13.7-30.8,25.8-50,33c-0.4-2.3-0.5-4.6-1.1-6.8C255.8,272.1,255.5,258.2,249.1,246z"/>
	<path class="st0" d="M310.1,259c-10-5-12.3-17.7-4.8-26.7c6.3-7.5,14.4-11.8,23.9-13c5.8-0.7,9.9,3.1,12.9,7.9
		c-4.9,6-9.3,12.4-14.8,17.8C322.1,250.1,315.9,254.3,310.1,259z"/>
	<path class="st0" d="M249.1,246c6.5,12.3,6.7,26.1,10,39.2c0.5,2.2,0.7,4.5,1.1,6.8c-4,1.7-7.9,3.4-11.9,5.1
		c-1.4-6-2.8-12.1-4.3-18.2c-0.6-10.6-1.2-21.3-1.8-31.9C244.4,246.7,246.7,246.3,249.1,246z"/>
	<path class="st26" d="M225.2,574.9c-0.4,7.2-0.7,14.5-1.3,21.7c-0.1,1.5-1.2,2.9-1.8,4.4c-8,0-15.9,0-23.9,0c0-3.4,0-6.7,0-10
		c0.3-0.2,0.7-0.3,1-0.4c0.6,0,1.2,0,1.8,0c0.6,6,4.5,6.7,9.4,6.2c1.5-0.2,3,0,4.5,0c5.7,0,6.1-0.4,4.7-6.3c-1.5-0.6-3-1.1-4.5-1.7
		c-0.7-1-1.3-2.8-2.2-2.9c-2.2-0.3-4.5,0.1-6.7,0.2c-1.5,0.2-2.9,0.4-4.4,0.6c-1.1,0-2.3-0.1-3.4-0.1c-0.3-14.9-0.3-15,14.5-14.7
		C217,572.1,221.9,570.5,225.2,574.9z"/>
	<path class="st12" d="M71.3,565.9c-0.8-0.5-1.5-1.1-3.3-2.4c9.3-3.1,17.4-5.9,25.5-8.5c0.8-0.3,2.7,0.8,3,1.6
		c3,8.6,5.8,17.2,8.6,25.8c0.1,0.4-0.6,1-0.9,1.6c-4.4-1.6-8.8-3.3-13.2-4.9c2.1-1.8,4.2-3.6,6.2-5.5c0,0-0.9-1.1-1.4-1.7
		c-0.4-1.4,3.1-4.3-1.6-4c0-0.7,0-1.3,0-2c-0.3-0.7-0.6-1.4-0.9-2c0.2-1.5,0.3-3,0.5-5.2c-6.9,2.5-13.3,4.9-19.7,7.2
		C73.1,565.9,72.2,565.9,71.3,565.9z"/>
	<path class="st21" d="M75,592c0.8,3.5,1.6,7,2.6,11.8c-3.2,0.8-7.3,1.9-11.4,3c1.3-8,2.6-16,3.9-23.9c0.6,0,1.3,0,1.9-0.1
		c-0.3,1-0.6,2-0.9,3C73.2,587.5,70.8,591.9,75,592z"/>
	<path class="st26" d="M107.9,589.2c0.8,2.8,0.1,4.6-3,5.5c-5.4,1.5-10.6,3.5-16,5.3c-6.5,2.2-9.1-0.1-8-6.9c0.5-0.1,1-0.2,1.5-0.4
		c1.9-0.4,3.8-0.8,5.7-1.2c0,0.4,0,0.9,0,1.3c-1.7,0.9-3.3,1.8-5,2.7c0.2,0.5,0.4,0.9,0.6,1.4c3.5-1.1,7.1-1.9,10.5-3.3
		c3.4-1.3,6.6-3.1,9.9-4.7l0,0C105.4,589,106.6,589.1,107.9,589.2z"/>
	<path class="st27" d="M82.4,592.6c-0.5,0.1-1,0.2-1.5,0.4c-1.3-0.7-2.6-1.4-3.9-2.1c0.6-0.4,1.1-0.8,1.7-1.3
		c-0.6-0.2-1.1-0.5-1.7-0.7c-0.2-1.5-0.4-3.1-0.6-5.1c-0.3-0.1-1.3-0.5-2.3-1c0.7-1.4,1.3-2.8,2-4.2c4.1,1.8,8.1,3.5,12.2,5.2
		c0.9,0.2,1.8,0.5,2.8,0.7c1.1,0.4,2.1,0.8,3.2,1.2c-2.9,1.3-5.9,2.4-8.7,3.9C84.3,590.4,83.4,591.6,82.4,592.6z"/>
	<path class="st21" d="M94.1,565.9c0,0.7,0,1.3,0,2c-6,2-11.9,4.1-17.9,6.1c-2.1-2-4.2-3.9-6.2-5.9c0.4-0.7,0.9-1.5,1.3-2.2
		c0.9,0,1.9,0,2.8,0c1.5,0.1,3.1,0.6,4.5,0.3c2.6-0.5,5.1-1.5,7.6-2.2c1,0.3,2,0.6,3,1c-4.2,1.7-8.4,3.3-12.6,5
		c0.2,0.4,0.3,0.9,0.5,1.3C82.7,569.5,88.4,567.7,94.1,565.9z"/>
	<path class="st13" d="M215,589c1.5,0.5,3,1.1,4.5,1.7c1.3,5.8,1,6.3-4.7,6.3c-1.5,0-3-0.2-4.5,0c-4.9,0.5-8.8-0.3-9.4-6.2
		c0-0.2,0.1-0.5,0.2-0.7C205.7,589.6,210.4,589.3,215,589z M216.9,594.8c0-0.8,0-1.5,0.1-2.3c-4.1,0-8.2,0-12.3,0
		c0,0.5,0,0.9-0.1,1.4C208.7,594.2,212.8,594.5,216.9,594.8z"/>
	<path class="st13" d="M95.7,572c0.5,0.6,1.4,1.7,1.4,1.7c-2,1.9-4.1,3.7-6.2,5.5c-1,0-2-0.1-3-0.2c-0.9-0.2-1.7-0.3-2.6-0.5
		c-0.8-0.5-1.5-1.1-2.3-1.6c2.4-1.2,4.8-2.3,7.2-3.5c1.5-0.5,2.9-1,4.4-1.5C95,571.9,95.4,572,95.7,572z"/>
	<path class="st16" d="M95.7,572c-0.4,0-0.7,0-1.1-0.1c-1.5,0-3,0-4.5,0.1c-3.8,1-7.5,2-11.3,3c-0.9-0.3-1.8-0.7-2.7-1
		c6-2,11.9-4.1,17.9-6.1C98.8,567.6,95.3,570.6,95.7,572z"/>
	<path class="st13" d="M82.4,592.6c1-1,1.9-2.3,3.2-2.9c2.8-1.5,5.8-2.6,8.7-3.9c1.3,0.4,2.6,0.8,3.9,1.2c-3.4,1.5-6.7,2.9-10.1,4.4
		C86.2,591.8,84.3,592.2,82.4,592.6z"/>
	<path class="st21" d="M88.1,591.5c3.4-1.5,6.7-2.9,10.1-4.4c2,0.6,4,1.3,5.9,1.9l0,0c-1.8,0.3-3.5,0.5-5.3,0.9
		c-3.6,0.9-7.2,1.9-10.8,2.9C88.1,592.3,88.1,591.9,88.1,591.5z"/>
	<path class="st13" d="M76.1,578.7c-0.7,1.4-1.3,2.8-2,4.2c-0.7,0-1.3,0-1.9,0c-0.6,0-1.3,0-1.9,0.1c0.2-2.2,0.5-4.3,0.8-7.5
		C73.3,576.9,74.7,577.8,76.1,578.7z"/>
	<path class="st21" d="M78.8,575c3.8-1,7.5-2,11.3-3c0,0.5,0.1,1,0.1,1.4c-2.4,1.2-4.8,2.3-7.2,3.5C81.7,576.3,80.2,575.7,78.8,575z
		"/>
	<path class="st5" d="M201.6,586.8c1.5-0.2,2.9-0.4,4.4-0.6C204.6,586.4,203.1,586.6,201.6,586.8z"/>
	<path class="st5" d="M85.3,578.5c0.9,0.2,1.7,0.3,2.6,0.5C87.1,578.8,86.2,578.7,85.3,578.5z"/>
	<path class="st5" d="M91.1,584.7c-0.9-0.2-1.8-0.5-2.8-0.7C89.2,584.2,90.1,584.4,91.1,584.7z"/>
	<path class="st5" d="M201.1,589.9c-0.1,0.2-0.2,0.4-0.2,0.7c-0.6,0-1.2,0-1.8,0C199.8,590.4,200.4,590.2,201.1,589.9z"/>
	<path class="st8" d="M384.1,125c-0.3,2.8-0.4,5.6-1.1,8.3c-1.4,5.2-1.5,5.3,2.9,8.2c-1.4,3.1-2.8,6.2-4.7,10.6
		c2.6-1.1,3.8-1.5,5.5-2.2c0.3,3.4-0.5,6.4-3.7,5.7c-1.9-0.4-4.2-3.8-4.4-6c-0.4-5.6,0.3-11.3,0.5-17.5c-5.9,6-6.7,6.3-9.5,4
		c1.6-2.2,3.3-4.3,4.9-6.5C380.4,133.8,381.2,127.3,384.1,125z"/>
	<path class="st5" d="M156.1,426c-0.3-3.1-0.5-6.2-0.8-9.3c0.6-4.6,1.1-9.2,1.7-13.8c0-1,0-2,0-2.9c0.5-4.3,1-8.6,1.5-13
		c0.2-1.4,0.4-2.8,0.6-4.1c1.3-5.6,2.7-11.3,4-16.9c0.9,0.4,1.9,0.8,2.8,1.2c0.1,0.6,0.1,1.1,0.1,1.7c-1,4.7-2,9.4-3,14.1
		c-0.6,6.3-1.3,12.6-1.9,18.9c-0.2,0.8-0.4,1.5-0.7,2.3c-0.4,6.8-0.8,13.7-1.3,20.5c-0.8,1.1-1.5,2.3-2.2,3.4
		C156.7,427.4,156.4,426.7,156.1,426z"/>
	<path class="st5" d="M167.1,384c2.1-3.9,5.9-3.5,9.1-2.8c1.4,0.3,2.9,3,3.2,4.8c0.5,2.8,0.4,6.1-3.4,7.3c-0.3,0.1-0.7,0.1-1,0.2
		c-0.5,0-1.1,0-1.6,0c-1.3-0.4-2.6-0.7-3.8-1.1l-0.1,0c-0.2-0.5-0.3-1-0.5-1.4C168.4,388.6,167.7,386.3,167.1,384z"/>
	<path class="st23" d="M169.6,392.3C169.6,392.3,169.7,392.4,169.6,392.3c-1.8,4.1-0.4,11-8.4,9.5c0.6-6.3,1.3-12.6,1.9-18.9
		c1.3,0.3,2.6,0.7,4,1c0.7,2.3,1.4,4.6,2,6.9C169.2,391.4,169.4,391.9,169.6,392.3z"/>
	<path class="st5" d="M162,422.9c0.5-3.3,1.3-7.5,5.4-6.7c2.7,0.5,6.1,3.6,6.9,6.3c1,3.6,0.3,8.1-5.1,8.9
		C164.5,430.5,163.1,426.8,162,422.9z M165,419.4c1.3,3.5,2.3,6.1,3.6,9.6C172.7,423.3,170.8,421.1,165,419.4z"/>
	<path class="st20" d="M178.8,368.3c2.8,1.3,5.6,2.6,8.5,3.8c-0.7,1.6-1.3,3.2-2.3,5.6c0.1,1.8,0.2,4.5,0.4,7.2
		c-4.8-4.3-9.5-8.6-14.3-13c0.8-0.1,1.7-0.1,2.5-0.2c2.3,0.8,4.6,1.6,7.6,2.6C180.1,371.7,179.5,370,178.8,368.3z"/>
	<path class="st14" d="M161.1,401.9c8,1.4,6.6-5.5,8.5-9.5c1.3,0.4,2.6,0.7,3.8,1.1c-1.5,8.7-5,11.6-13,10.7
		C160.7,403.4,160.9,402.6,161.1,401.9z"/>
	<path class="st15" d="M173.6,371.8c-0.8,0.1-1.7,0.1-2.5,0.2c-1.7-1-3.3-2.1-5-3.1c-0.1-0.6-0.1-1.1-0.1-1.7
		c1.5,0.1,3.1,0.3,5.5,0.5c-0.6-1.9-1-3.2-1.4-4.6c0.4-0.4,0.8-0.9,1.2-1.3c2.1,1.8,4.2,3.6,6.3,5.3
		C175.7,368.3,172.4,368.1,173.6,371.8z"/>
	<path class="st19" d="M162,422.9c1.1,3.9,2.5,7.5,7.2,8.4c-0.3,1.9-0.7,3.8-1,5.7c-2.4-3.6-4.8-7.3-7.2-10.9
		C161.3,425.1,161.6,424,162,422.9z"/>
	<path class="st14" d="M175.1,393.4c0.3-0.1,0.7-0.1,1-0.2C175.7,393.3,175.4,393.4,175.1,393.4z"/>
	<path class="st14" d="M188.1,341.9c-3.3-2.6-4.1-5.8-2.6-9.7c0.4-1.1,0.9-3.1,0.3-3.6c-4.6-4.3-0.7-7.1,1.5-10.8
		c1.5,1.2,2.6,2.2,3.9,3.1c0,1.7,0,3.4-0.1,5.1c-0.9,0.4-2.5,0.6-2.7,1.2c-0.6,2.6-0.8,5.4-1.1,8.3c1.4-0.3,2.5-0.6,3.6-0.8
		C189.9,337.1,189,339.5,188.1,341.9z"/>
	<path class="st12" d="M190.8,334.7c-1.1,0.3-2.2,0.5-3.6,0.8c0.3-2.9,0.5-5.6,1.1-8.3c0.1-0.6,1.7-0.8,2.7-1.2
		C190.9,329,190.9,331.8,190.8,334.7z"/>
	<path class="st18" d="M266.1,620.9c-0.5,0-1.1,0-1.6,0c-0.5,0.3-0.9,0.7-1.4,1l0,0c-0.7,0-1.4,0.1-2.1,0.1
		c-0.7-0.4-1.4-0.7-2.1-1.1c3-3.3,6-6.5,9-9.7c-1-1.4-1.7-2.6-2.4-3.7c-3.4,2.8-6.6,5.5-9.8,8.3c0.7-5.4,4.7-8.3,8.7-10.8
		c3.7-2.3,9.9,2.2,10.6,7.1c-0.1,0.3-0.3,0.6-0.6,0.7c-0.4,0.3-0.9,0.7-1.3,1l0,0c-0.4,0-0.8,0-1.2,0c-0.2,0-0.5,0-0.7,0.1
		c-3.5-0.4-5.6,1.7-5,5.2C266.1,619.8,266.1,620.3,266.1,620.9C266.1,620.9,266.1,620.9,266.1,620.9z"/>
	<path class="st27" d="M255.6,615.9c3.2-2.7,6.5-5.4,9.8-8.3c0.7,1.1,1.5,2.2,2.4,3.7c-3,3.2-6,6.5-9,9.7c-1.6-0.7-3.5-1.1-4.8-2.2
		C252,616.7,253.6,616.1,255.6,615.9z"/>
	<path class="st27" d="M261,622c0.7,0,1.4-0.1,2.1-0.1c-0.3,0.3-0.5,0.7-0.8,1C261.9,622.7,261.5,622.3,261,622z"/>
	<path class="st26" d="M153,561.4c0,0.7-0.1,1.4-0.1,2c0,0.5,0,1,0,1.5c0.1,9,0.1,9-8.8,9.3c-0.8-0.1-1.6-0.2-2.5-0.3
		c-10.7-0.3-10.7-0.3-10.6-11.3c0-4.7,0.1-9.3,0.1-13.9c0-2.6,0.8-4.1,3.7-4c5.8,0.1,11.6,0,18.3,0c0,5.1,0,9.6,0,14.2
		C153.1,559.8,153.1,560.6,153,561.4z M148.4,572c0.3-0.7,0.7-1.3,1-2c-1.7-1-3.8-1.8-5.1-3.2c-0.9-1-1.7-3.7-1.3-4.1
		c5.1-4.2,2.6-7.3-1.1-10.4c-1.3-1-2.1-2.6-3.4-3.6c-1-0.8-2.3-1.5-3.6-1.6c-0.5,0-1.9,1.9-1.7,2.3c0.6,1,1.7,2,2.8,2.5
		c5.4,2.5,6.4,6,3.5,11.1c-0.7,1.1-0.9,3.8-0.4,4.1C142.1,569,145.3,570.4,148.4,572z"/>
	<path class="st15" d="M153,561.4c0-0.8,0.1-1.6,0.1-2.4c0.4,0.7,0.8,1.5,1.1,2.2C153.9,561.2,153.4,561.3,153,561.4z"/>
	<path class="st23" d="M101.2,515c0.5,0,1.1-0.2,1.5,0c3.4,1.3,9.2,2.2,9.7,4.3c0.8,3.4-1,8.2-3.3,11.3c-1,1.4-5.9,0.9-8.5-0.1
		c-1.4-0.5-2.5-4.1-2.3-6.1C98.7,521.2,100.2,518.1,101.2,515L101.2,515z"/>
	<path class="st21" d="M160.1,567.9c4.8,1.2,9.6,2.5,14.4,3.7c-0.1,0.5-0.2,0.9-0.3,1.4c-3.7-0.7-7.4-1.3-11.1-2
		C162.1,570,161.1,569,160.1,567.9z"/>
	<path class="st13" d="M77,589c0.6,0.2,1.1,0.5,1.7,0.7c-0.6,0.4-1.1,0.8-1.7,1.3c-0.7,0.4-1.3,0.8-2,1.1c-4.3-0.2-1.8-4.6-3.9-6.1
		C73.1,586.9,75,587.9,77,589z"/>
	<path class="st15" d="M253.1,537.9c0,1,0,2,0,3.1c-1-1.1-2-2.3-3-3.4C251.1,537.6,252.1,537.8,253.1,537.9z"/>
	<path class="st21" d="M131.1,611.9c6.3-1.1,12.7-2.2,19-3.2c0.6,0.7,1.3,1.5,1.9,2.2c-6.9,1-13.9,2-20.8,3
		C131.2,613.2,131.1,612.6,131.1,611.9z"/>
	<path class="st16" d="M131.2,613.8c6.9-1,13.9-2,20.8-3c0.4,0.7,0.7,1.4,1.1,2.1c-5.6,0.7-11.3,1.3-16.9,2c-0.7,0.3-1.4,0.6-2,0.9
		c-1.7,0-3.4,0-5.1,0c-0.3-0.2-0.6-0.5-0.8-0.7c0-0.3-0.1-0.6-0.1-0.9c0.4-0.1,0.7-0.2,1.1-0.3C129.8,613.9,130.5,613.9,131.2,613.8
		z"/>
	<path class="st18" d="M150.1,607c-2.4,0.3-4.8,0.7-7.1,1c-0.1-0.3-0.1-0.6-0.2-0.9c2.1-0.7,4.2-1.4,6.3-2c0.7-0.1,1.4-0.1,2.1-0.2
		c0,0.7-0.1,1.3-0.1,2C150.8,606.9,150.4,606.9,150.1,607z"/>
	<path class="st16" d="M151.1,606.9c0-0.7,0.1-1.3,0.1-2c0.5,0.3,1,0.6,1.5,0.8C152.1,606.1,151.6,606.5,151.1,606.9z"/>
	<path class="st18" d="M135.1,607.9c1-0.3,2-0.6,3-0.9c0.6,0.2,1.1,0.4,3.1,1.1c-4,0.8-6.6,1.3-9.1,1.8c0-0.7,0-1.3,0.1-2
		C133.1,607.9,134.1,607.9,135.1,607.9z"/>
	<path class="st13" d="M132.2,608c0,0.7,0,1.3-0.1,2c-0.3,0.3-0.6,0.7-1,1c-1.1,0.7-2.2,1.4-3.3,2c-0.2-1-0.5-2-0.7-3
		c0.3-0.3,0.6-0.7,0.8-1c1-0.3,2.1-0.7,3.2-1.1C131.5,607.9,131.8,608,132.2,608z"/>
	<path class="st18" d="M127.8,613c1.1-0.7,2.2-1.4,3.3-2c0,0.3,0,0.7,0,1c0,0.6,0.1,1.3,0.1,1.9c-0.7,0-1.4,0-2.1,0.1
		c-0.4-0.3-0.7-0.7-1.1-1L127.8,613z"/>
	<path class="st15" d="M127.1,610c0.2,1,0.5,2,0.7,3l0.2,0c0,0.4,0,0.9,0,1.3c0,0.3,0.1,0.6,0.1,0.9c0,0.3,0,0.6-0.1,0.9l0.1,0
		c-2.5,0.1-6-3.4-7.1,2l0,0c-0.6,0-1.2,0.1-1.8,0.1c-0.1-1.3-0.1-2.7-0.2-4.1C120.3,609.6,123.6,609.7,127.1,610z"/>
	<path class="st18" d="M129,615.9c1.7,0,3.4,0,5.1,0c-1.9,0.7-3.9,1.4-5.8,2c0-0.6-0.1-1.3-0.1-1.9l-0.1,0
		C128.4,616,128.7,615.9,129,615.9z"/>
	<path class="st15" d="M121.1,617.9c0.1,0.1,0.3,0.3,0.4,0.4c-0.1,0-0.2,0-0.3-0.1C121.2,618.2,121.2,618,121.1,617.9
		C121.1,617.9,121.1,617.9,121.1,617.9z"/>
	<path class="st0" d="M132.8,186c-8,0.6-13.9-4-19.5-8.5c-4.1-3.3-2.9-9.7,1.7-12.7c9-6,20.5-4.6,28.3,2.8c3.9,3.8,5.4,8.6,3.1,12.6
		c-1.7,2.9-6.6,4.1-10.2,5.8C135.3,186.4,133.9,186,132.8,186z"/>
	<path class="st28" d="M156.4,190c1.3,0.1,2.4-0.1,3.3,0.2c7.6,2.2,15.2,4.3,23,5.7c5.3,1,5.9,5.6,1.5,9c-6.2,4.8-13.2,5.9-20.6,3.3
		c-6.9-2.4-11.5-7.4-12.9-14.6C149.6,188,154.6,191.2,156.4,190z M156.4,194c0.2,4.9,4.7,9.6,9.8,10.8c7.2,1.7,13.2-0.1,15.6-4.6
		C173.4,198.1,165,196.1,156.4,194z"/>
	<path class="st4" d="M195.9,164.5c7.4-10.2,23.2-7.8,27,2.9c0.3,0.9-0.2,2.1-0.4,3.2c-1-0.2-2.2-0.2-3-0.8
		c-0.9-0.6-1.5-1.8-2.2-2.6c-5.6-6.3-7.6-6.7-15.5-3.6C200.1,164.3,197.9,164.2,195.9,164.5z"/>
	<path class="st4" d="M125,155.4c0.8-1.8,0.9-3.4,1.9-4.2c7.8-6.9,18.4-5.8,24.3,2.4c0.6,0.8,0.3,2.2,0.4,3.4
		c-1.1-0.1-2.7,0.3-3.1-0.3c-6.7-9.4-14.1-4.8-21.4-1.3C126.9,155.5,126.7,155.4,125,155.4z"/>
	<path class="st0" d="M93,162.6c-0.6-2.6-1.6-5.3-1.8-8c-0.1-1.4,0.8-3.9,1.6-4.1c1.4-0.3,4,0.4,4.6,1.4c1.7,3.1,3.1,6.5,3.6,9.9
		c0.4,3.3-2.5,4.5-5.4,4c-1.3-0.2-2.3-1.5-3.5-2.2C92.3,163.3,92.7,162.9,93,162.6z"/>
	<path class="st29" d="M221.3,146.8c-1.3-1.3-2.4-2.1-3.2-3.2c-2.5-3.3-4.6-7-9.4-7.4c-0.6-0.1-1.1-1.3-1.6-2
		c0.8-0.4,1.6-1.2,2.4-1.3C215.4,132.1,222.5,139.7,221.3,146.8z"/>
	<path class="st29" d="M130.1,130.9c4.4-2.8,9.1-4.8,14.5-3.4c1.4,0.4,2.6,2,4.6,3.6c-7.3,0.6-13.1,1.1-18.9,1.5
		C130.3,132,130.2,131.4,130.1,130.9z"/>
	<path class="st26" d="M108.3,445.7c2.1,3.4,4.1,6.8,6.2,10.2c-0.5,0.1-1,0.1-1.5,0.2c-0.2,0-0.4,0-0.7,0c-0.4-0.1-0.7-0.1-1.1-0.2
		c-0.2-0.5-0.4-1.1-0.6-1.6c-0.5,0.5-1,1.1-1.5,1.6l0,0c-0.3,0.3-0.7,0.7-1,1l0,0c-0.3,0.5-0.7,1-1,1.5c-0.3,0.4-0.7,0.7-1,1
		c-0.3,0.5-0.7,1-1,1.5l0,0c-0.3,0.3-0.7,0.7-1,1l0,0c-0.3,0.3-0.7,0.7-1,1l0,0c-0.3,0.3-0.7,0.7-1,1l0,0c-0.3,0.3-0.7,0.7-1,1l0,0
		c-0.3,0.3-0.7,0.7-1,1l0,0c-0.8,0.5-1.6,1.1-2.4,1.6c-0.1,0.4-0.2,0.8-0.3,1.1c0.4-0.1,0.8-0.2,1.1-0.3c0.2,0,0.4,0.1,0.6,0.1
		c0,0.5,0.1,1,0.1,1.6c0,0.3-0.1,0.6-0.1,0.9c2,1.3,3.9,2.7,5.9,4c0.7,0.4,1.4,0.7,2.1,1.1c0.3,0.3,0.6,0.6,0.9,0.9
		c1,0.3,2.4,1,2.8,0.7c3.9-3.8,7.6-7.9,11.4-11.8c2,2.6,4,5.3,6,8c-0.4,1.1-0.7,2.1-1.1,3.2c-1.3,0.5-3,0.6-3.9,1.5
		c-3.5,3.4-6.8,7.1-10.1,10.7c-2.3-1.8-4.9-3.3-7-5.3c-6.3-6.2-12.5-12.6-18.8-18.9c4.6-1.9,8.5-4.2,10.7-9.1c0.9-2,3.4-4.4,5.3-4.6
		C107.4,451,107.7,448.6,108.3,445.7z"/>
	<path class="st16" d="M147.1,297.1c3.6,0.9,7.2,1.8,10.8,2.8c0.2,0.7,0.3,1.3,0.5,2c-4.6,2.4-8.9,5.8-13.8,7.1
		c-7.6,2-15.6,2.6-23.4,3.8c0.1-0.6,0.2-1.3,0.3-1.9c2.2-0.4,4.3-0.9,6.5-1.3c0-0.2-0.1-0.4-0.1-0.6c-1.2,0-2.4,0-3.6,0
		c0-0.6,0-1.3,0-1.9c6.9-1.1,13.8-2.1,20.6-3.2c-0.1-0.6-0.2-1.3-0.3-1.9c-7.6,0.9-15.1,1.8-22.7,2.7c0.1,0.8,0.3,1.7,0.4,2.5
		c-1.2,0.2-2.3,0.4-4,0.7c0.8-2.6,1.4-4.3,1.9-5.9c0-0.6,0-1.3,0-1.9c5-0.7,10-1.4,15-2.1c-2.1,1-4.2,2.2-6.4,2.9
		c-1.8,0.6-3.7,0.8-5.6,1.2c0.1,0.4,0.2,0.8,0.2,1.1c6.5-1.1,13.1-2.1,20.9-3.4c-3.7-0.9-6-1.4-8.3-1.9c3-0.4,6-0.7,9-1.1
		C145.7,296.9,146.4,297,147.1,297.1z M136.6,307.1c0.1,0.4,0.1,0.9,0.2,1.3c2.4-0.5,4.9-1.1,7.4-1.6c-0.1-0.4-0.2-0.7-0.2-1.1
		C141.4,306.2,139,306.7,136.6,307.1z M134.1,309c-0.1-0.5-0.1-0.9-0.2-0.9c-1.3,0-2.6,0-3.9,0c0,0.4,0.1,0.8,0.1,1.1
		C131.4,309.1,132.7,309.1,134.1,309z"/>
	<path class="st15" d="M67.6,452.8c-1.1,3.7-2.2,6.4-7.5,4.6c-3.6-1.2-8.1,0.2-12.2,0.3c-9.4,0.1-11.4-2.1-10.3-11.6
		c0.7,0,1.4,0,2.1-0.1c0.2,1.6,0.4,3.2,0.7,6c8,0,15.8,0,23.6,0C65.3,452.3,66.4,452.5,67.6,452.8z M40.8,453
		c-0.1-0.3-0.2-0.7-0.4-0.7c-0.2-0.1-0.5,0.1-0.8,0.2c0.2,0.3,0.3,0.6,0.5,1C40.3,453.4,40.6,453.2,40.8,453z"/>
	<path class="st14" d="M72.2,348.1c-2.6,7-5.2,14-7.8,21c-0.5-0.6-0.9-1.3-1.3-2c1-2.2,2.7-4.5,2.7-6.7c-0.1-2-2.1-3.9-3.2-5.7
		c-1.3,1.5-2.5,2.9-3.6,4.2c1.6-4.7,3.2-9.4,4.7-14.1C67.4,343.6,70.2,345,72.2,348.1z"/>
	<path class="st17" d="M63.1,367.2c0.5,0.6,0.9,1.3,1.3,2c-2.1,5.6-4.2,11.2-6.3,16.8c-1,0-1.9-0.1-2.9-0.1
		c-0.6-0.4-1.3-0.8-1.9-1.1c-0.3-2.7-0.5-5.4-0.8-8c1.5-3.7,3-7.4,4.5-11.1C59.1,366.1,61.1,366.6,63.1,367.2z"/>
	<path class="st15" d="M120.1,302c-0.5,1.6-1.1,3.3-1.9,5.9c1.6-0.3,2.8-0.5,4-0.7c0.7,0,1.3-0.1,2-0.1c0,0.6,0,1.3,0,1.9
		c-0.9,0.6-1.8,1.3-2.8,1.9c-0.1,0.6-0.2,1.3-0.3,1.9c-3.1,0.4-6.2,1.4-9.2,1c-1.6-0.2-3.8-2.5-4.1-4.2c-0.4-2,0.4-4.6,1.5-6.6
		c0.4-0.7,3.1,0,4.7,0.1C116,302.6,118.1,302.3,120.1,302z"/>
	<path class="st13" d="M39.8,446c-0.7,0-1.4,0-2.1,0.1c0.2-7.1,0-14.2,0.9-21.2c0.2-1.8,3.8-4.6,5.8-4.6c7,0,14.1,0.7,21.1,1.8
		c3.5,0.5,6.2,2.7,3.7,7c-0.7-1-1.3-2.1-2-3.1c-2.3-1-4.6-2.5-7.1-2.8c-4.1-0.5-8.3-0.2-12.5-0.3c-6,0-6.8,0.6-7.3,6.7
		C40,435,39.9,440.5,39.8,446z"/>
	<path class="st15" d="M87.3,465c6.2,6.3,12.4,12.7,18.8,18.9c2.1,2,4.7,3.5,7,5.3c0.4,0.6,0.7,1.2,1.1,1.8
		c-1.6-0.1-3.7,0.4-4.6-0.5c-7.8-7.1-15.4-14.4-23-21.8c-0.9-0.9-1.1-2.5-1.6-3.8C85.8,465,86.6,465,87.3,465z"/>
	<path class="st16" d="M87.3,465c-0.8,0-1.5,0-2.3,0c0.3-0.7,0.6-1.9,1.1-2.1c6.8-2.3,9.6-8.6,13.7-13.6c0.9-1,2.9-1.1,4.8-1.7
		c0.5-1.6,1.2-3.6,1.8-5.6c0.6,1.3,1.3,2.6,1.9,3.9c-0.5,2.8-0.9,5.3-5,5.5c-1.9,0.1-4.4,2.6-5.3,4.6
		C95.8,460.8,91.9,463.1,87.3,465z"/>
	<path class="st14" d="M65.1,341c1.8-3.6,3.3-7.3,5.5-10.6c0.7-1,3.2-1.3,4.8-1c0.7,0.1,1.7,2.4,1.5,3.5c-0.7,3.8-1.8,7.5-2.8,11.2
		c-0.4-0.5-0.9-0.9-1.3-1.4c0.4-1.3,1.1-2.6,1-3.8c-0.1-1.3-1.1-2.4-1.7-3.7c-1.2,0.8-2.8,1.3-3.6,2.4c-0.6,0.7-0.3,2.2-0.4,3.4
		C67.2,340.9,66.2,340.9,65.1,341z"/>
	<path class="st22" d="M57.1,365.5c-1.5,3.7-3,7.4-4.5,11.1c-0.8,0.5-1.5,0.9-2.3,1.4c-0.4-5.1-0.8-10.3-0.9-15.4
		c0-0.1,3-0.6,4.5-0.4c1.1,0.1,2.1,1.1,3.1,1.7C57,364.4,57.1,365,57.1,365.5z"/>
	<path class="st19" d="M67.2,426c0.7,1,1.3,2.1,2,3.1c-0.5,7.9-1,15.9-1.5,23.8c-1.2-0.3-2.4-0.5-3.6-0.8c0.6-1.5,1.7-2.9,1.8-4.4
		C66.5,440.4,66.8,433.2,67.2,426z"/>
	<path class="st23" d="M53.3,384.7c0.6,0.4,1.3,0.8,1.9,1.1c-1.1,3.7-2.1,7.4-3.2,11.1c-0.6,1-1.2,2-1.8,3c-3.9-3.6-2.1-7.9-1.2-12
		C50.5,386.9,51.9,385.8,53.3,384.7z"/>
	<path class="st23" d="M57.1,365.5c0-0.5-0.1-1.1-0.1-1.6c0.6-1.6,1.3-3.3,1.9-4.9c1.2-1.3,2.3-2.7,3.6-4.2c1.1,1.8,3.2,3.7,3.2,5.7
		c0.1,2.2-1.7,4.5-2.7,6.7C61.1,366.6,59.1,366.1,57.1,365.5z"/>
	<path class="st19" d="M114.2,491c-0.4-0.6-0.7-1.2-1.1-1.8c3.3-3.6,6.6-7.3,10.1-10.7c0.9-0.9,2.6-1,3.9-1.5
		C122.8,481.7,118.5,486.3,114.2,491z"/>
	<path class="st17" d="M72.9,342.6c0.4,0.5,0.9,0.9,1.3,1.4c-0.7,1.4-1.3,2.7-1.9,4.1c-2.1-3.1-4.8-4.5-8.6-3.2c0.5-1.3,1-2.6,1.5-4
		c1,0,2-0.1,3.1-0.1C69.8,341.5,71.3,342,72.9,342.6z"/>
	<path class="st13" d="M89.1,386.9c0.6,3.6,1.2,7.3,1.8,11c-1.9-1-3.8-1.9-6.2-3.1C86.3,392,87.7,389.5,89.1,386.9z"/>
	<path class="st16" d="M53.3,384.7c-1.4,1.1-2.8,2.2-4.3,3.3c-0.7,0-1.3,0-2,0c1.1-3.3,2.1-6.6,3.2-10c0.8-0.5,1.5-0.9,2.3-1.4
		C52.8,379.3,53.1,382,53.3,384.7z"/>
	<path class="st18" d="M136.1,297.9c2.3,0.5,4.5,1.1,8.3,1.9c-7.8,1.3-14.3,2.3-20.9,3.4c-0.1-0.4-0.2-0.8-0.2-1.1
		c1.9-0.4,3.8-0.6,5.6-1.2c2.2-0.8,4.3-2,6.4-2.9C135.4,297.9,135.8,297.9,136.1,297.9z"/>
	<path class="st14" d="M47.2,388c0.7,0,1.3,0,2,0c-0.9,4.1-2.8,8.3,1.2,12c-0.4,0.4-0.8,0.8-1.1,1.2c-1.1,0-2.2,0-3.3-0.1
		C46.3,396.7,46.7,392.4,47.2,388z"/>
	<path class="st14" d="M52,397c1.1-3.7,2.1-7.4,3.2-11.1c1,0,1.9,0.1,2.9,0.1C57,390.1,56.8,394.8,52,397z"/>
	<path class="st13" d="M40.1,483.1c0.1-0.5,0.2-1.1,0.4-1.6c3.3,1.1,6.5,2.3,9.8,3.4c-0.9,0.1-1.8,0.2-2.6,0.3
		C45.1,484.5,42.6,483.8,40.1,483.1z"/>
	<path class="st13" d="M120.1,302c-2,0.3-4.1,0.6-6.1,0.9c0.7-3.8,2.8-4.6,6.1-2.9C120.1,300.7,120.1,301.3,120.1,302z"/>
	<path class="st23" d="M45.9,401.1c1.1,0,2.2,0,3.3,0.1c-0.8,0.8-1.6,1.7-2.3,2.5C46.5,402.8,46.2,401.9,45.9,401.1z"/>
	<path class="st13" d="M147.1,297.1c-0.7-0.1-1.3-0.1-2-0.2C145.7,296.9,146.4,297,147.1,297.1z"/>
	<path class="st0" d="M121.1,456.9c-1.6-2.1-3.6-4-4.7-6.3c-5.6-11.8-10.9-23.7-16.3-35.6c6.2-2,12.2-5,18.5-5.9
		c16-2.2,27.7,11.3,24.3,27.2c-0.1,0.3-0.3,0.6-0.3,0.9C138.7,452.8,136.8,454.5,121.1,456.9z"/>
	<path class="st27" d="M105,475c-2-1.3-3.9-2.7-5.9-4c3.3,0,5-1.6,5-5l0,0c0.3-0.3,0.7-0.7,1-1l0,0c0.3-0.3,0.7-0.7,1-1l0,0
		c0.3-0.3,0.7-0.7,1-1l0,0c0.3-0.3,0.7-0.7,1-1l0,0c1.6-2,3.2-3.9,4.8-5.9c0.5-0.1,1-0.1,1.5-0.2c0.7,1.2,1.3,2.4,2,3.6
		c-0.1,0.1-0.2,0.3-0.3,0.4c-1.7,2-3.3,4-5,6c-0.4,0.3-0.8,0.6-1.1,0.9c-0.3,0.3-0.7,0.6-1,1c-0.3,0.3-0.7,0.6-1,1
		c-0.3,0.3-0.7,0.7-1,1c-0.3,0.3-0.7,0.6-1,1c-0.3,0.3-0.7,0.7-1,1c-0.3,0.3-0.7,0.7-1,1c-0.1,0.3-0.1,0.6-0.2,0.9
		c0.2-0.2,0.4-0.3,0.6-0.5c0.3-0.3,0.7-0.7,1-1c0.3-0.3,0.7-0.7,1-1c0.3-0.3,0.6-0.7,1-1c0.3-0.3,0.7-0.7,1-1c0.3-0.3,0.7-0.7,1-1
		c0.3,0,0.6-0.1,0.9-0.1c0,1,0,2,0,3l0,0c-0.3,0.3-0.7,0.7-1,1l0,0c-0.3,0.3-0.7,0.7-1,1l0,0c-0.3,0.3-0.7,0.7-1,1c0,0,0,0,0,0
		C106.4,474.3,105.7,474.6,105,475z"/>
	<path class="st27" d="M108,477c-0.3-0.3-0.6-0.6-0.9-0.9c0-0.7,0-1.4,0-2.1l0,0c0.3-0.3,0.7-0.7,1-1l0,0c0.3-0.3,0.7-0.7,1-1l0,0
		c0.3-0.3,0.7-0.7,1-1l0,0c2.3-2.3,4.7-4.7,7-7l0,0c0.3-0.3,0.7-0.7,1-1l0,0c0.3-0.3,0.7-0.6,1-1l0,0c0.7,1,1.4,1.9,2.1,2.9
		C116.8,468.9,112.4,472.9,108,477z"/>
	<path class="st18" d="M108,477c4.4-4,8.8-8.1,13.2-12.1c0.3,0.3,0.6,0.7,0.9,1c-3.8,4-7.5,8-11.4,11.8C110.4,478,109,477.2,108,477
		z"/>
	<path class="st27" d="M116.4,459.5c0.9,0.8,1.8,1.6,2.7,2.5l0,0c-0.3,0.3-0.7,0.6-1,1l0,0c-0.3,0.3-0.7,0.7-1,1l0,0
		c-1.7,0.7-3.3,1.3-5,2c1.3-2,2.7-4,4-6C116.2,459.8,116.3,459.6,116.4,459.5z"/>
	<path class="st12" d="M40.1,483.1c2.5,0.7,5,1.4,7.5,2c-2.6,2.7-5.1,5.4-7.7,8.1c-0.2,0.3-0.4,0.5-0.6,0.6c-1-0.1-2-0.1-3-0.2
		c0.3-3.2,0.5-6.5,0.8-9.7C38,483.6,39.1,483.4,40.1,483.1z"/>
	<path class="st19" d="M95.1,281.7c0,0.8,0.2,2.1,0,2.2c-6.1,2.2-12.2,4.2-18.3,6.3c-0.2-0.5-0.4-1.1-0.7-1.6
		c1.7-0.9,3.3-1.8,4.9-2.6C85.8,284.5,90.4,283.1,95.1,281.7z"/>
	<path class="st19" d="M75.3,285.8c0.5-0.9,0.9-2.3,1.7-2.6c6-2,12.1-3.7,18.2-5.5c-0.3,0.8-0.7,1.5-1,2.3
		c-4.4,1.4-8.7,2.8-13.1,4.1C79.1,284.7,77.2,285.3,75.3,285.8z"/>
	<path class="st13" d="M94,275c-6.3,2-12.7,4.1-19,6.2c-0.2-0.4-0.3-0.8-0.5-1.2c5.2-2.1,10.4-4.3,15.6-6.4
		C91.4,274,92.7,274.5,94,275z"/>
	<path class="st21" d="M81.1,284.2c4.4-1.4,8.7-2.8,13.1-4.1c0.3,0.5,0.6,1.1,0.9,1.6c-4.7,1.4-9.4,2.8-14.1,4.2
		C81.1,285.3,81.1,284.8,81.1,284.2z"/>
	<path class="st21" d="M271.9,613.9c0.4,0,0.8,0,1.2,0c-0.1,3.8-2.4,5.9-5.8,7c0.3-0.7,0.5-1.3,0.8-2l0,0c0.3-0.3,0.7-0.7,1-1l0,0
		c0.3-0.3,0.7-0.7,1-1l0,0c0.3-0.3,0.7-0.7,1-1l0,0C271.4,615.3,271.6,614.6,271.9,613.9z"/>
	<path class="st16" d="M268.1,618.9c-0.3,0.7-0.5,1.3-0.8,2c-0.4,0-0.8,0-1.2,0c0-0.6,0.1-1.2,0.1-1.7
		C266.8,619.1,267.5,619,268.1,618.9z"/>
	<path class="st21" d="M273.1,614c0.4-0.3,0.9-0.7,1.3-1C273.9,613.3,273.5,613.6,273.1,614z"/>
	<path class="st27" d="M263.1,621.9c0.5-0.3,0.9-0.7,1.4-1C264,621.3,263.6,621.6,263.1,621.9z"/>
	<path class="st19" d="M171.2,361.8c-0.4,0.4-0.8,0.9-1.2,1.3c-5.7-3.8-11.3-7.6-17-11.5c0.1-1,0.2-1.9,0.3-2.8
		C159.3,353.1,165.3,357.4,171.2,361.8z"/>
	<path class="st21" d="M173.6,371.8c-1.2-3.7,2.2-3.5,3.9-4.7c0.4,0.4,0.9,0.8,1.3,1.2c0.6,1.7,1.3,3.5,2.3,6.1
		C178.1,373.4,175.9,372.6,173.6,371.8z"/>
	<path class="st6" d="M163.1,366c-1.3,5.6-2.7,11.3-4,16.9c-5.7,0.8-7.7,4.9-8.9,9.9c0.6-10.7,1.3-21.4,1.9-32.1
		c3.3,1.5,6.7,3,10,4.5C162.5,365.4,162.8,365.7,163.1,366z"/>
	<path class="st12" d="M163.1,366c-0.3-0.3-0.6-0.6-0.9-0.9c-3.3-2.8-6.6-5.6-9.9-8.4c0.3-1.7,0.5-3.4,0.8-5.1
		c5.7,3.8,11.3,7.6,17,11.5c0.4,1.4,0.8,2.7,1.4,4.6c-2.4-0.2-4-0.4-5.5-0.5C165,366.8,164.1,366.4,163.1,366z"/>
	<path class="st14" d="M150.2,392.8c1.1-4.9,3.2-9,8.9-9.9c-0.2,1.4-0.4,2.8-0.6,4.1c-6.3-0.5-5.2,4.9-6.1,8.2
		c-0.9,3.2,1.5,4.7,4.6,4.8c0,1,0,2,0,2.9c-1.9-0.6-3.8-1.3-5.8-1.9C150.9,398.3,150.6,395.5,150.2,392.8z"/>
	<path class="st22" d="M151.2,401c1.9,0.6,3.8,1.3,5.8,1.9c-0.6,4.6-1.1,9.2-1.7,13.8C153.9,411.5,152.6,406.3,151.2,401z"/>
	<path class="st19" d="M152.3,356.7c3.3,2.8,6.6,5.6,9.9,8.4c-3.3-1.5-6.7-3-10-4.5C152.2,359.3,152.3,358,152.3,356.7z"/>
	<path class="st13" d="M117.9,251.9c1-0.6,2-1.3,3.9-2.6c-0.4,2.3-0.6,3.5-0.9,5.2C119.7,253.5,118.8,252.7,117.9,251.9L117.9,251.9
		z"/>
	<path class="st21" d="M197.9,286.4c3.9,0,7.8,0,11.7,0c0,0.4,0,0.7,0.1,1.1c-3.9,0-7.9,0-11.8,0
		C197.9,287.2,197.9,286.8,197.9,286.4z"/>
	<path class="st19" d="M86.2,564c-2.5,0.8-5,1.7-7.6,2.2c-1.4,0.3-3-0.2-4.5-0.3c6.4-2.3,12.7-4.7,19.7-7.2
		c-0.2,2.2-0.4,3.7-0.5,5.2c-0.3,0-0.6,0.1-0.8,0.1C90.3,564,88.2,564,86.2,564z"/>
	<path class="st13" d="M92.4,564c0.3,0,0.6,0,0.8-0.1c0.3,0.7,0.6,1.4,0.9,2c-5.7,1.8-11.4,3.5-17.1,5.3c-0.2-0.4-0.3-0.9-0.5-1.3
		c4.2-1.7,8.4-3.3,12.6-5C90.2,564.6,91.3,564.3,92.4,564z"/>
	<path class="st16" d="M77,589c-1.9-1-3.9-2-5.8-3c0.3-1,0.6-2,0.9-3c0.7,0,1.3,0,1.9,0c1,0.4,2,0.9,2.3,1
		C76.6,585.9,76.8,587.4,77,589z"/>
	<path class="st13" d="M88.1,592.8c3.6-1,7.2-2,10.8-2.9c1.7-0.4,3.5-0.6,5.3-0.9c-3.3,1.6-6.5,3.4-9.9,4.7c-3.4,1.3-7,2.2-10.5,3.3
		c-0.2-0.5-0.4-0.9-0.6-1.4C84.8,594.6,86.4,593.7,88.1,592.8z"/>
	<path class="st12" d="M92.4,564c-1.1,0.3-2.2,0.7-3.2,1c-1-0.3-2-0.6-3-1C88.2,564,90.3,564,92.4,564z"/>
	<path class="st21" d="M216.9,594.8c-4.1-0.3-8.2-0.6-12.3-0.9c0-0.5,0-0.9,0.1-1.4c4.1,0,8.2,0,12.3,0
		C216.9,593.3,216.9,594,216.9,594.8z"/>
	<path class="st12" d="M90.2,573.4c0-0.5-0.1-1-0.1-1.4c1.5,0,3,0,4.5-0.1C93.2,572.4,91.7,572.9,90.2,573.4z"/>
	<path class="st23" d="M157,400c-3.1-0.1-5.6-1.5-4.6-4.8c0.9-3.3-0.2-8.7,6.1-8.2C158,391.4,157.5,395.7,157,400z"/>
	<path class="st14" d="M169.6,392.3c-0.2-0.5-0.3-1-0.5-1.4C169.2,391.4,169.4,391.9,169.6,392.3z"/>
	<path class="st22" d="M165,419.4c5.8,1.7,7.7,3.9,3.6,9.6C167.3,425.5,166.3,422.9,165,419.4z"/>
	<path class="st27" d="M268.1,618.9c-0.6,0.1-1.3,0.2-1.9,0.3c-0.5-3.5,1.5-5.6,5-5.2c0,0.7-0.1,1.3-0.1,2l0,0c-0.3,0.3-0.7,0.7-1,1
		l0,0c-0.3,0.3-0.7,0.7-1,1l0,0C268.8,618.3,268.4,618.6,268.1,618.9C268.1,618.9,268.1,618.9,268.1,618.9z"/>
	<path class="st16" d="M271.1,615.9c0-0.7,0.1-1.3,0.1-2c0.2,0,0.5,0,0.7-0.1C271.6,614.6,271.4,615.3,271.1,615.9z"/>
	<path class="st18" d="M148.4,572c-3.1-1.6-6.4-3-9.2-4.8c-0.6-0.4-0.3-3,0.4-4.1c2.9-5.1,1.9-8.6-3.5-11.1
		c-1.1-0.5-2.2-1.5-2.8-2.5c-0.2-0.3,1.1-2.3,1.7-2.3c1.2,0.1,2.6,0.8,3.6,1.6c1.3,1,2.2,2.5,3.4,3.6c3.8,3.1,6.2,6.2,1.1,10.4
		c-0.5,0.4,0.3,3.1,1.3,4.1c1.4,1.4,3.4,2.2,5.1,3.2C149.1,570.7,148.8,571.3,148.4,572z"/>
	<path class="st21" d="M128,614.2c0-0.4,0-0.9,0-1.3c0.4,0.3,0.7,0.7,1.1,1C128.8,614,128.4,614.1,128,614.2z"/>
	<path class="st17" d="M129,615.9c-0.3,0.1-0.6,0.1-0.9,0.1c0-0.3,0-0.6,0.1-0.9C128.4,615.4,128.7,615.6,129,615.9z"/>
	<path class="st11" d="M156.4,194c8.6,2.1,17,4.1,25.4,6.2c-2.4,4.5-8.4,6.3-15.6,4.6C161.1,203.6,156.6,198.9,156.4,194z"/>
	<path class="st27" d="M99.2,470c0-0.5-0.1-1-0.1-1.6c0.3-0.9,0.7-1.7,1-2.5l0,0c0.3-0.3,0.7-0.7,1-1l0,0c0.3-0.3,0.7-0.7,1-1l0,0
		c0.3-0.3,0.7-0.7,1-1l0,0c0.3-0.3,0.7-0.7,1-1l0,0c0.3-0.3,0.7-0.7,1-1l0,0c0.3-0.5,0.7-1,1-1.5c0.3-0.4,0.7-0.7,1-1
		c0.3-0.5,0.7-1,1-1.5l0,0c0.3-0.3,0.7-0.7,1-1l0,0c0.7,0,1.4,0,2.1,0c0.4,0.1,0.7,0.1,1.1,0.2c-1.4,1.9-2.8,3.9-4.2,5.8l0,0
		c-0.3,0.3-0.7,0.7-1,1l0,0c-0.3,0.3-0.7,0.7-1,1l0,0c-0.3,0.3-0.7,0.7-1,1l0,0c-0.3,0.3-0.7,0.7-1,1l0,0
		C102.5,467.3,100.8,468.6,99.2,470z"/>
	<path class="st16" d="M108.1,461.9c1.4-1.9,2.8-3.9,4.2-5.8c0.2,0,0.4-0.1,0.7,0C111.3,458,109.7,460,108.1,461.9z"/>
	<path class="st16" d="M99.2,470c1.7-1.4,3.3-2.7,4.9-4.1c0,3.4-1.7,5-5,5C99.1,470.6,99.1,470.3,99.2,470z"/>
	<path class="st15" d="M100.1,465.9c-0.3,0.9-0.7,1.7-1,2.5c-0.2,0-0.4,0-0.6-0.1c-0.3-0.3-0.6-0.6-0.8-0.8
		C98.5,467,99.3,466.5,100.1,465.9z"/>
	<path class="st13" d="M107.1,473.9c0,0.7,0,1.4,0,2.1c-0.7-0.4-1.4-0.7-2.1-1.1C105.7,474.6,106.4,474.3,107.1,473.9z"/>
	<path class="st15" d="M111.2,456c-0.7,0-1.4,0-2.1,0c0.5-0.5,1-1.1,1.5-1.6C110.8,454.9,111,455.4,111.2,456z"/>
	<path class="st15" d="M109.1,455.9c-0.3,0.3-0.7,0.7-1,1C108.4,456.6,108.7,456.3,109.1,455.9z"/>
	<path class="st15" d="M108.1,456.9c-0.3,0.5-0.7,1-1,1.5C107.4,457.9,107.8,457.4,108.1,456.9z"/>
	<path class="st15" d="M106.1,459.4c-0.3,0.5-0.7,1-1,1.5C105.4,460.4,105.7,459.9,106.1,459.4z"/>
	<path class="st15" d="M105.1,460.9c-0.3,0.3-0.7,0.7-1,1C104.4,461.6,104.7,461.2,105.1,460.9z"/>
	<path class="st15" d="M104.1,461.9c-0.3,0.3-0.7,0.7-1,1C103.4,462.6,103.7,462.2,104.1,461.9z"/>
	<path class="st15" d="M102.1,463.9c-0.3,0.3-0.7,0.7-1,1C101.4,464.6,101.7,464.2,102.1,463.9z"/>
	<path class="st15" d="M103.1,462.9c-0.3,0.3-0.7,0.7-1,1C102.4,463.6,102.7,463.2,103.1,462.9z"/>
	<path class="st15" d="M98.5,468.4c-0.4,0.1-0.8,0.2-1.1,0.3c0.1-0.4,0.2-0.8,0.3-1.1C98,467.8,98.2,468.1,98.5,468.4z"/>
	<path class="st15" d="M101.1,464.9c-0.3,0.3-0.7,0.7-1,1C100.4,465.6,100.7,465.2,101.1,464.9z"/>
	<path class="st21" d="M124.1,307c-0.7,0-1.3,0.1-2,0.1c-0.1-0.8-0.3-1.7-0.4-2.5c7.6-0.9,15.1-1.8,22.7-2.7
		c0.1,0.6,0.2,1.3,0.3,1.9C137.9,304.9,131,306,124.1,307z"/>
	<path class="st18" d="M136.6,307.1c2.4-0.5,4.9-0.9,7.3-1.4c0.1,0.4,0.2,0.7,0.2,1.1c-2.4,0.5-4.9,1.1-7.4,1.6
		C136.7,308,136.6,307.6,136.6,307.1z"/>
	<path class="st18" d="M121.3,310.8c0.9-0.6,1.8-1.3,2.8-1.9c1.2,0,2.4,0,3.6,0c0,0.2,0.1,0.4,0.1,0.6
		C125.6,309.9,123.5,310.4,121.3,310.8z"/>
	<path class="st18" d="M134.1,309c-1.4,0.1-2.7,0.1-4,0.2c0-0.4-0.1-0.8-0.1-1.1c1.3,0,2.6,0,3.9,0
		C133.9,308.1,133.9,308.5,134.1,309z"/>
	<path class="st26" d="M67.2,426c-0.4,7.2-0.7,14.5-1.2,21.7c-0.1,1.5-1.2,2.9-1.8,4.4c-7.8,0-15.7,0-23.6,0c-0.3-2.8-0.5-4.4-0.7-6
		c0.2-5.5,0.2-11,0.6-16.4c0.4-6.1,1.3-6.7,7.3-6.7c4.2,0,8.4-0.2,12.5,0.3C62.5,423.5,64.8,425,67.2,426z M53.2,441
		c0-0.1,0-0.1,0-0.2c-2,0-4.1-0.5-5.9,0.1c-1.5,0.5-2.5,2.2-3.7,3.4c1.2,1.1,2.2,3,3.5,3.2c3.8,0.5,7.6,0.2,11.5,0.4
		c2.5,0.1,3.6-0.9,3.7-3.4c0-2.5-0.9-3.7-3.5-3.5C56.9,441.1,55.1,441,53.2,441z"/>
	<path class="st13" d="M40.8,453c-0.2,0.2-0.5,0.3-0.7,0.5c-0.2-0.3-0.3-0.6-0.5-1c0.3-0.1,0.6-0.3,0.8-0.2
		C40.6,452.4,40.7,452.8,40.8,453z"/>
	<path class="st23" d="M72.9,342.6c-1.6-0.6-3.1-1.2-4.7-1.8c0.1-1.1-0.2-2.6,0.4-3.4c0.9-1.1,2.4-1.6,3.6-2.4
		c0.6,1.2,1.6,2.4,1.7,3.7C74,340.1,73.3,341.4,72.9,342.6z"/>
	<path class="st13" d="M112.1,465.9c1.7-0.7,3.3-1.3,5-2c-2.3,2.3-4.7,4.7-7,7c0-1,0-2,0-3l0,0c0.3-0.3,0.7-0.7,1-1l0,0
		C111.4,466.6,111.8,466.3,112.1,465.9C112.1,465.9,112.1,465.9,112.1,465.9z"/>
	<path class="st16" d="M116.1,459.9c-1.3,2-2.7,4-4,6l0,0c-0.3,0-0.7,0-1,0l0,0C112.8,463.9,114.5,461.9,116.1,459.9z"/>
	<path class="st16" d="M110,466.8c0.4-0.3,0.8-0.6,1.2-0.9l0,0c0,0.3,0,0.7,0,1l0,0c-0.3,0-0.7,0-1,0L110,466.8z"/>
	<path class="st16" d="M106.1,463.9c0.3-0.3,0.7-0.7,1-1C106.8,463.3,106.4,463.6,106.1,463.9z"/>
	<path class="st13" d="M108.1,472.9c-0.3,0.3-0.7,0.7-1,1C107.4,473.6,107.8,473.3,108.1,472.9z"/>
	<path class="st16" d="M104.3,473.1c-0.2,0.2-0.4,0.3-0.6,0.5c0.1-0.3,0.1-0.6,0.2-0.9C104,472.8,104.1,473,104.3,473.1z"/>
	<path class="st13" d="M109.1,471.9c-0.3,0.3-0.7,0.7-1,1C108.4,472.6,108.8,472.3,109.1,471.9z"/>
	<path class="st16" d="M103.9,472.7c0.3-0.3,0.7-0.7,1-1c0.1,0.1,0.3,0.3,0.4,0.4c-0.3,0.3-0.7,0.6-1,1
		C104.1,473,104,472.8,103.9,472.7z"/>
	<path class="st13" d="M110.1,470.9c-0.3,0.3-0.7,0.7-1,1C109.4,471.6,109.8,471.3,110.1,470.9z"/>
	<path class="st16" d="M106.3,471.1c-0.3,0.3-0.7,0.7-1,1c-0.1-0.1-0.3-0.3-0.4-0.4c0.3-0.3,0.7-0.7,1-1
		C106,470.8,106.1,471,106.3,471.1z"/>
	<path class="st16" d="M108.9,467.8c0.3-0.3,0.7-0.6,1.1-1c0,0,0.2,0.2,0.2,0.2c0,0.3,0,0.6,0,1l0,0c-0.3,0-0.6,0.1-0.9,0.1
		C109.2,468,108.9,467.8,108.9,467.8z"/>
	<path class="st16" d="M106.9,469.7c0.3-0.3,0.7-0.7,1-1l0.3,0.3c-0.3,0.3-0.7,0.7-1,1C107.2,470.1,106.9,469.7,106.9,469.7z"/>
	<path class="st16" d="M107.9,468.7c0.3-0.3,0.7-0.6,1-1l0.3,0.3c-0.3,0.3-0.7,0.7-1,1L107.9,468.7z"/>
	<path class="st16" d="M105.9,470.7c0.3-0.3,0.7-0.6,1-1l0.3,0.4c-0.3,0.3-0.6,0.7-1,1C106.1,471,106,470.8,105.9,470.7z"/>
	<path class="st16" d="M105.1,464.9c0.3-0.3,0.7-0.7,1-1C105.8,464.3,105.4,464.6,105.1,464.9z"/>
	<path class="st16" d="M107.1,462.9c0.3-0.3,0.7-0.7,1-1C107.8,462.3,107.4,462.6,107.1,462.9z"/>
	<path class="st16" d="M104.1,465.9c0.3-0.3,0.7-0.7,1-1C104.8,465.3,104.4,465.6,104.1,465.9z"/>
	<path class="st13" d="M117.1,463.9c0.3-0.3,0.7-0.7,1-1C117.8,463.3,117.4,463.6,117.1,463.9z"/>
	<path class="st13" d="M118.1,463c0.3-0.3,0.7-0.6,1-1C118.8,462.3,118.4,462.6,118.1,463z"/>
	<path class="st16" d="M270.1,617c0.3-0.3,0.7-0.7,1-1C270.8,616.3,270.4,616.6,270.1,617z"/>
	<path class="st16" d="M269.1,617.9c0.3-0.3,0.7-0.7,1-1C269.8,617.3,269.4,617.6,269.1,617.9z"/>
	<path class="st16" d="M268.1,618.9c0.3-0.3,0.7-0.7,1-1C268.8,618.3,268.4,618.6,268.1,618.9z"/>
	<path class="st13" d="M53.2,441c1.8,0,3.7,0.1,5.5,0c2.6-0.2,3.5,1,3.5,3.5c0,2.6-1.1,3.5-3.7,3.4c-3.8-0.2-7.7,0.1-11.5-0.4
		c-1.3-0.2-2.4-2.1-3.5-3.2c1.2-1.2,2.2-3,3.7-3.4c1.8-0.6,3.9-0.1,5.9-0.1C53.2,440.9,53.2,440.9,53.2,441z M46.8,443.7
		c0,0.4-0.1,0.8-0.2,1.3c4.1,0.3,8.2,0.5,12.4,0.8c0-0.7,0.1-1.4,0.1-2.1C55,443.7,50.9,443.7,46.8,443.7z"/>
	<path class="st27" d="M111.1,466.9c0-0.3,0-0.7,0-1c0.3,0,0.7,0,1,0C111.8,466.3,111.4,466.6,111.1,466.9z"/>
	<path class="st27" d="M110.1,468c0-0.3,0-0.7,0-1c0.3,0,0.7,0,1,0C110.8,467.3,110.4,467.6,110.1,468z"/>
	<path class="st21" d="M46.8,443.7c4.1,0,8.2,0,12.3,0c0,0.7-0.1,1.4-0.1,2.1c-4.1-0.3-8.2-0.5-12.3-0.8
		C46.7,444.5,46.7,444.1,46.8,443.7z"/>
</g>
<path class="st30" d="M130.6,157.2c2.6,0.2,3.9-0.2,5.5-0.4c5.4-0.4,7.4,3.1,11.6,1.7c0.5-0.2,2-0.6,2.1-1.6c0.2-1-1.3-2-3-3.3
	c-0.7-0.5-1.6-1.1-2.8-1.7c-1.6-0.7-3.1-1-4.1-1.1c-3.5,0.5-6.2,1.4-8.1,2.2c-1.2,0.5-4.9,2.1-4.7,3.1
	C127.2,157,129.2,157.1,130.6,157.2z"/>
<path class="st30" d="M217.7,170.8c-2.6-0.5-3.7-1.3-5.2-1.8c-5.2-1.9-7.6,0.9-11.6-1.4c-1.7-1-3.1-2.5-2.8-3c0.2-0.3,0.8,0,2.1-0.3
	c1.1-0.2,1.1-0.6,2.8-1.2c0.7-0.3,1.3-0.4,2.1-0.7c1-0.3,1.7-0.5,2.4-0.6c0.8-0.1,2.1-0.2,3.8,0.2c0.9,0.5,2.3,1.4,3.8,2.5
	c0.6,0.5,6.9,5.1,6.2,6.3C221,171.5,219.2,171.1,217.7,170.8z"/>
<path class="st31" d="M162.8,124.2c-18,0.7-34.7,1.8-45.6,15c-10.5,12.6-8.9,28.2-8.8,29.9c2.7,22.9,25.6,34.5,33.6,38.6
	c23.7,12,46.3,6.6,55.5,4.4c9.7-2.3,20.7-5.1,27.9-14.8c5.2-7,6.1-14.5,7.1-23c1.4-10.9,2.7-22.4-2-31.7
	C220,121.9,181.7,123.4,162.8,124.2z"/>
<path class="st32" d="M135.5,132.7c7.4-1.1,14.3-2.1,22.5-3.3C151.9,136.4,138.5,137.9,135.5,132.7z"/>
<path class="st32" d="M208.9,142.7c-0.3-0.7-0.2-1.6,0.1-2.2c0.2-0.3,1.3-0.2,1.8,0.1c4.8,3.1,9.5,6.3,14.9,10
	C221.2,151.7,210.5,146.3,208.9,142.7z"/>
<path class="st33" d="M127.8,148.6c1.9-1.2,3.6-2.9,5.6-3.5c1.7-0.5,3.7,0.3,5.6,0.6c-0.1,0.5-0.1,1-0.2,1.5c-2,0.9-4.4,1.3-6,2.7
	c-4,3.3-5,9-2.7,13c3.1,5.5,7.5,7.6,12.7,6.1c5.9-1.7,10.2-6.6,9.7-11.6c-0.2-2.8-0.8-5.9-4.6-5.8c-3.7,0-6.5,3.3-6.2,7.2
	c1.5-0.9,2.9-1.7,4.6-2.7c1.8,3.6-0.1,5.8-2.6,6.4c-1.6,0.4-4.8-0.8-5.5-2.1c-0.9-1.9-1.1-5.9,0.1-6.8c3.1-2.6,7.2-4,11-5.8
	c0.6-0.3,1.5,0.1,2.3,0.2c0.9,0.5,1.7,1,2.6,1.6c5.6,12.4-2,24.2-14.9,24.1c-7.8,0-18-11.7-13.3-20.1c0.3-0.6,0.2-1.5,0.3-2.2
	C126.8,150.3,127.3,149.5,127.8,148.6z"/>
<path class="st33" d="M208.4,184.7c-1-0.4-2-0.9-3-1.3c-9.1-3-13.1-10.7-10-19.6c2.9-8.4,12.3-12.8,20.7-9.2
	c1.7,0.7,2.8,2.7,4.9,4.8c-5.4-0.7-9.2-1.7-12.9-1.7c-5.1,0.1-9.1,4.7-9.7,10.3c-0.5,5.4,2.4,9.7,7.7,11.3c5.5,1.7,10,0.3,12.3-3.6
	c2.5-4.4,1.9-7.4-1.7-9.3c-3.8-2-6.6-0.9-9.2,4c1.1-0.1,2-0.3,2.9-0.3c1.3,0.1,2.5,0.3,3.7,0.5c-0.9,1.1-1.7,3-2.6,3.1
	c-2.4,0.1-5.3,0-7.1-1.3c-0.9-0.6-0.5-4.4,0.5-6.2c2.6-4.7,8.6-6,13.5-3.6c5.1,2.6,6.5,6.8,4.6,12.6c-1.8,5.2-5.7,7.7-10.6,9.3
	C211.1,184.7,209.8,184.7,208.4,184.7z"/>
<path class="st30" d="M194.3,179.2c1.2,1.5,2.6,2.1,4,2.8c2,0.9,3.9,1.3,7.8,1.9c2.2,0.4,3.1,0.5,5.7,0.8c0.7,0.1,1.5,0.2,2.7,0.3
	c0.3,0,1.5,0.1,3-0.1c0.8-0.1,1.8-0.2,2.9-0.4c0.2,0.8,0.6,2.8-0.5,4.5c-1,1.6-2.7,2.1-3.5,2.3c-9.6,2.4-21.2-1.3-25.1-11.5
	c-0.5-1.3,0.6-3.3,1-5C192.6,175.9,193,177.6,194.3,179.2z"/>
<path class="st30" d="M128.6,171.7c3,0.9,5.8,1.6,8.3,2c2.7,0,5.3,0.1,8,0.1c0.8,0.1,1.9,0.1,3.1-0.1c1.2-0.2,2.1-0.5,2.9-0.8
	c0.8-0.5,1.6-0.9,2.5-1.4c0.5-0.2,0.9-0.4,1.3-0.6c-0.2,5.8-3.7,9-8.9,9.4c-5.7,0.4-11.6,0.3-17.1-1.1c-5.7-1.4-6.3-3.8-5-9.2
	C125.2,170.6,126.9,171.2,128.6,171.7z"/>
<path class="st34" d="M178.3,213.3c-0.6,1.4-3.6,2.4-5.6,2.5c-1.8,0.1-3.7-1.1-5.5-1.8c-2.6-1-5-2.4-7.6-3.2c-4.6-1.2-8.1-4.6-7.8-8
	c0.4-4.1,3.8-6.9,8.9-7.2c7.7-0.4,13.4,2.9,18,9.7C178.6,208.1,179.2,211,178.3,213.3z M159.8,198.8c-2.7,0.6-5.8,1.8-4.9,4.8
	c0.6,2,4,4.5,6,4.3c2.9-0.3,4.4,0.8,6.1,2.3c0.6,0.5,1.2,1.2,1.9,1.3c2,0.4,4.1,0.6,6.2,0.9c0.1-2,0.2-4,0.3-6
	C171.5,200.8,165.4,197.6,159.8,198.8z"/>
</svg>
