<?xml version="1.0" encoding="utf-8"?>
<!-- Generator: Adobe Illustrator 23.0.3, SVG Export Plug-In . SVG Version: 6.00 Build 0)  -->
<svg version="1.1" id="Ebene_1" xmlns="http://www.w3.org/2000/svg" xmlns:xlink="http://www.w3.org/1999/xlink" x="0px" y="0px"
	 viewBox="0 0 414.52 349.62" style="enable-background:new 0 0 414.52 349.62;" xml:space="preserve">
<style type="text/css">
	.st0{fill:#545866;}
	.st1{fill:#FBE0E0;}
	.st2{fill:#B44644;}
	.st3{fill:#2F2C3F;}
	.st4{fill:#F5A46A;}
	.st5{fill:#F8B381;}
	.st6{fill:#424152;}
	.st7{fill:#8A677F;}
	.st8{fill:#BB98A4;}
	.st9{fill:#C1AAB6;}
	.st10{fill:#F8F4F6;}
	.st11{fill:#BDA5B3;}
	.st12{fill:#F3EEF1;}
	.st13{fill:#F5B8BA;}
	.st14{fill:#EFDEDE;}
	.st15{fill:#C1AEBB;}
	.st16{fill:#AD92A3;}
	.st17{fill:#F9C59F;}
	.st18{fill:#574951;}
	.st19{fill:#8F736B;}
	.st20{fill:#FCF9FA;}
	.st21{fill:#C8B6C2;}
	.st22{fill:#EDE7EB;}
	.st23{fill:#EAE3E7;}
	.st24{fill:#B99FAD;}
	.st25{fill:#DFD4DB;}
	.st26{fill:#E88138;}
	.st27{fill:#C6967F;}
</style>
<g>
	<path class="st0" d="M-0.95,112.45c0.98-0.32,1.96-0.63,2.93-0.95c2.32,1.31,4.64,2.62,6.96,3.93c-3.15,2.9-3.07,2.69-5.86,0.48
		c-0.91-0.72-1.39-4.92-4.03-1.46C-0.95,113.79-0.95,113.12-0.95,112.45z"/>
	<path class="st1" d="M384.06,208.28c-1.16,2.36-1.97,5-3.6,6.97c-1.41,1.7-4.17,4.04-5.6,3.62c-3.21-0.96-8.21-0.03-8.81-5.45
		c-5.23-0.77-4.42-4.73-3.64-7.91c0.8-3.27,2.66-6.28,4.06-9.4c-14.33-11.25-29.32-21.39-46.61-27.65
		c3.55,6.11,7.08,12.23,10.64,18.33c3.82,6.55,7.66,13.1,11.49,19.65c3.97,3.45,3.89,4.57-0.33,7.14c-3.23,1.96-6.41,4.01-9.53,6.14
		c-2.95,2.01-4.86,1.83-5.33-2.14c-4.54-6.46-9.25-12.82-13.56-19.43c-3.68-5.64-6.92-11.57-10.33-17.39
		c-0.65-1.12-1.83-2.38-1.7-3.45c0.7-5.73-0.21-11.15-2.27-16.46c-12.14-1.81-24.24-4.05-36.44-5.3
		c-13.28-1.36-23.87,4.62-32.49,14.27c-11.33,12.69-20.93,26.62-28.84,41.69c-5.31,10.11-10.4,20.34-16.03,31.39
		c22.71,13.13,38.93,33.67,61.8,47.78c8.82-13.54,17.15-26.36,25.52-39.15c0.92-1.41,2.07-2.66,4.02-3.42
		c-4.71,13.88-14.04,25.24-20.87,38.11c6.59,3.23,12.96,6.36,19.33,9.48c0.02-6.83,0.17-13.66,0.01-20.49
		c-0.14-5.54,1.98-10.1,5.66-15.41c1.51,4.65,3.67,8.41,3.8,12.25c0.34,9.79-0.22,19.62-0.42,29.43
		c9.19,6.44,18.42,12.83,27.59,19.31c2.24-2.32,4.54-4.58,6.95-6.74c2.77-2.47,5.67-4.76,8.63-6.98c0.25-0.25,0.5-0.5,0.75-0.75
		c0.22-0.65,0.58-1.3,1.15-1.91c1.94-2.06,3.96-3.9,6.06-5.6c1.06-1.05,2.15-2.07,3.29-3.03c4.45-3.72,9.14-7.13,13.92-10.43
		c0.06-0.07,0.12-0.13,0.18-0.2c-10.51,3.55-21.02,7.12-31.52,10.72c-2.99,1.02-4.89,0.21-5.86-2.69
		c-4.33-12.9-8.61-25.81-13.23-39.7c6.86-2.28,13.49-4.49,20.13-6.7c1.33-0.11,2.66-0.23,3.99-0.34h0.01c1-0.33,2-0.66,3-1
		c0.5-0.34,1.01-0.68,1.5-1.02l-0.05,0.01c6.83-2.39,13.66-4.79,20.49-7.18c2.41-0.98,4.78-2.07,7.23-2.93
		c6.53-2.28,7.04-1.93,7.87,4.97c2.33,6.7,4.65,13.4,6.98,20.1c0.7,1.92,1.41,3.84,2.11,5.77c0.72-0.57,1.43-1.14,2.17-1.68
		c3.01-3.21,6.01-6.45,8.99-9.74c2.5-2.76,5.19-5.33,7.96-7.8c-0.42-0.56-1.04-1.08-1.96-1.54c-1.05-0.53-0.71-7.15,0.06-7.38
		c3.89-1.15,3.05-4.33,3.22-6.5c0.56-7.03,0.33-7.05,7.04-7.09C396.44,218.39,390.25,213.33,384.06,208.28z M250.12,229.48
		c-3.17,6.48-7.06,12.61-10.3,19.06c-1.94,3.87-3.99,4.58-7.77,2.31c-7.62-4.57-15.45-8.77-23.19-13.13
		c-7.75-2.71-8.34-4.43-4.19-11.61c2.23-3.86,4.22-7.86,6.48-11.7c0.68-1.16,1.91-2,2.88-2.98c0.33-1.25,0.65-2.51,0.98-3.77
		c2.76-5.46,5.37-11,8.38-16.32c0.63-1.12,3.21-2.35,4.11-1.91c6.98,3.4,13.78,7.17,20.58,10.93c0.54,0.3,0.62,1.43,0.92,2.18
		c1.68,4.22,3.44,8.42,5.03,12.68C256.13,220.85,252.29,225.04,250.12,229.48z M287.22,240.17c-0.01,0.13-1.52,0.11-2.33,0.16
		l-0.32,0.07h-0.33c-0.73,3.32-2.87,4.02-5.85,3.15c-4.05-1.18-8.09-2.37-12.14-3.56c-0.1,3.42,0.1,6.89-0.46,10.23
		c-0.2,1.21-2.19,2.13-3.36,3.18c-0.78-1.15-2.3-2.36-2.22-3.44c0.53-7.02,1.17-14.05,2.38-20.97c0.2-1.13,3.4-1.73,5.21-2.58
		c1.68-1.58,3.46-4.57,5.03-4.47c4.83,0.31,9.59,1.77,14.35,2.89c0.5,0.11,1.17,1.02,1.14,1.53
		C288.07,230.97,287.69,235.58,287.22,240.17z M307.64,286.86c-0.18,3.67-3.4,6.3-7.58,6.21c-4.43-0.09-7.98-3.25-8.01-7.13
		c-0.04-4.41,4.42-8.57,9.2-8.59C304.03,277.34,307.83,282.99,307.64,286.86z M295.02,217.72c-2.32-2.96-6-4.85-9.07-7.22
		c-1.02-1.01-2.05-2.01-3.08-3.01c-1.27-0.26-2.8-0.15-3.75-0.82c-7.43-5.31-14.75-10.78-22.11-16.2
		c-4.68-4.21-9.42-8.36-13.98-12.69c-0.59-0.56-0.63-2.21-0.26-3.07c0.28-0.63,1.95-1.35,2.47-1.07c3.35,1.82,6.55,3.9,9.8,5.89
		c0.36,0.32,0.72,0.64,1.08,0.96c1.59,0.34,3.51,0.21,4.71,1.07c8.53,6.12,16.91,12.45,25.34,18.72c2.45,2.37,4.9,4.73,7.35,7.1
		c1.84,2.04,3.79,3.22,6.87,3.21c4.77-0.02,8.11,4.47,9.18,11.48C304.02,222.8,299.09,222.92,295.02,217.72z"/>
	<path class="st2" d="M284.96,307.27c8.17,5.21,16.32,10.46,24.15,16.12c0.8-0.86,1.61-1.72,2.43-2.56
		c-9.17-6.49-18.41-12.88-27.61-19.32c-1.04-0.55-2.07-1.1-3.1-1.65c-1.3-0.8-2.6-1.59-3.9-2.38c-0.68-0.59-1.37-1.17-2.05-1.76
		c-6.37-3.12-12.74-6.24-19.34-9.48c6.83-12.88,16.15-24.23,20.87-38.11c-1.95,0.77-3.1,2.02-4.02,3.42
		c-8.37,12.79-16.71,25.61-25.52,39.15c-22.87-14.11-39.08-34.66-61.8-47.78c5.63-11.05,10.72-21.28,16.03-31.39
		c7.9-15.06,17.5-29,28.84-41.69c8.63-9.65,19.22-15.63,32.49-14.27c12.2,1.25,24.3,3.5,36.44,5.3c5,1.89,10.01,3.79,15.01,5.68
		c1.97,0.64,3.94,1.29,5.91,1.93c17.29,6.25,32.28,16.39,46.61,27.65c0.53,0.47,1.06,0.95,1.59,1.42c3.75,2.54,7.49,5.09,11.24,7.63
		c1.59,1.03,3.18,2.07,4.76,3.11c6.19,5.05,12.38,10.11,18.57,15.16c0.82,0.97,1.64,1.95,2.46,2.92c1.9,1.77,3.81,3.55,5.71,5.33
		c1.29-1.19,2.55-2.4,3.78-3.65c-15.14-14.84-33.05-26.42-50.2-38.93c-25.92-18.91-54.19-31.47-85.96-36.26
		c-16.67-2.51-32.61-2.45-45.94,9.95c-2.92,2.72-5.59,5.69-8.38,8.55c-8.01,12.02-16.03,24.03-24.05,36.04
		c-1.59,2.62-3.19,5.24-4.79,7.86c-4.02,7.96-8.07,15.91-12.05,23.89c-1.78,3.58-2.45,6.77,2.49,8.64c1.55,0.58,2.64,2.35,3.94,3.58
		c1.51,0.97,3.03,1.93,4.54,2.89c7.98,6.22,16.11,12.26,23.88,18.73c4.96,4.14,9.39,8.92,14.05,13.42c1.03,0.9,2.06,1.81,3.09,2.71
		c2.98,1.75,5.96,3.52,8.95,5.25c3.52,2.04,6.53,2.4,8.07-2.41c0.23-0.73,0.97-1.29,2.05-2.64c6.63,3.71,13.26,7.42,19.89,11.13
		C277.72,302.72,281.34,304.99,284.96,307.27z"/>
	<path class="st3" d="M132.06,3.61c0.64,0.34,1.28,0.68,1.92,1.03c0.68,0.3,1.36,0.59,2.05,0.89c0.99,0.15,1.97,0.3,2.96,0.45
		c2.69,3.87,6.26,4.52,10.34,2.61c3.25-1.52,3.68-0.23,3.39,2.72c-0.1,1,0.9,2.12,1.4,3.18c2.6,1.7,5.19,3.4,7.79,5.1
		c3.48,9.5,10.34,13.8,19.09,11.73c1.86-0.44,3.48-2,5.34-2.37c1.34-0.26,2.89,0.6,4.35,0.97c-0.55,1.19-0.79,2.88-1.73,3.48
		c-2.39,1.52-5.09,2.54-8.33,4.08c3.3,5.52,7.17,12.01,11.25,18.84c-1.7,0-3.14,0-4.57,0c-0.38-0.3-0.75-0.59-1.13-0.89
		c-2.03-1.64-4.06-3.28-6.09-4.92c-2-0.78-4-1.56-6.01-2.33c-2.01-0.6-4.02-1.19-6.03-1.79c-2.7-0.57-5.4-1.14-8.11-1.7
		c-6.46-3.02-13.08-4.93-20.27-3.02c-4.52-0.95-9.03-1.9-13.55-2.84c-1.72,0.51-3.44,1.02-5.16,1.53l-0.04,0.06
		c-0.8,0.18-1.61,0.49-2.41,0.51c-10.82,0.22-21.64,0.34-32.46,0.65c-1.55,0.04-3.09,0.92-4.63,1.4c0.08,0.36,0.17,0.72,0.25,1.08
		c2.43,0.31,4.86,0.62,7.78,0.99c-1.07,2.21-1.77,3.65-2.48,5.1c-0.66,0.07-1.31,0.13-1.97,0.2c-2.71-0.23-5.81-1.16-5.88,3.31
		c-1.15,1.39-2.25,2.83-3.47,4.16c-9.74,10.7-11.05,24.07-11.94,37.57c-1.32,2.58-3.87,5.05-0.78,8.06
		c-0.2,1.33-0.41,2.65-0.61,3.98c-0.42,0.64-1.01,1.23-1.25,1.93c-1.58,4.62-3.77,5.48-7.82,2.75c-0.04,0.94-0.08,1.74-0.12,2.54
		c-2.36,3.56-3.16,7.23-0.69,11.09c0.3,2.79,0.85,5.59,0.85,8.38c0,4.68-0.35,9.37-0.55,14.05c-1.6,0-3.21,0-4.93,0
		c0.09,1.72,0.16,3.03,0.23,4.34c0.27,0.33,0.55,0.67,0.82,1l0.15,0.09c-1.19,6.73-3.97,8.07-9.59,4.96
		c-0.99-0.55-2.76,0.14-4.11,0.49c-1.01,0.26-1.92,0.9-2.88,1.37c-1.77-11.88-6.24-22.66-13.33-32.35c0.77-3.16,1.55-6.32,2.32-9.47
		c0.55,0.07,1.11,0.13,1.66,0.2c0.24,1.41,0.48,2.83,0.65,3.85c2.1,0.44,4.02,0.84,5.88,1.23c2.32-5.28,1.51-12.79-1.26-15.6
		c-2.39,2.13-4.68,4.4-7.25,6.29c-0.72,0.53-3.05,0.33-3.31-0.19c-1.25-2.58-5.89-4.35-2.29-8.41c0.37-0.42-0.92-2.31-1.44-3.52
		c0.09-2.48-0.8-5.81,0.47-7.28c3.88-4.49,3.95-9.97,5.46-15.13c2.07-7.05,4.71-13.94,7.36-21.64c-2.15-0.37-4.71-0.82-7.26-1.26
		c-1.01-0.02-2.02-0.05-3.03-0.07c-0.4-0.17-0.81-0.34-1.21-0.5c-0.65-0.62-1.29-1.24-1.94-1.87c1.36-2,2.73-4.01,4.09-6.01
		c1.34-0.11,2.67-0.23,4.01-0.34c0.92,0.7,1.76,1.82,2.79,2.04c4.9,1.07,8.42-1.3,11.81-4.62C44.04,38.5,52.83,32.5,57.3,22.54
		c0.41-0.91,2.55-1.12,3.94-1.48c1.94-0.51,4.18-0.42,5.83-1.38c2.2-1.27,3.97-3.3,5.92-5.01c2.37,0.11,4.74,0.23,7.11,0.34
		c0.59,1.44,1.18,2.88,2.16,5.3c1.25-1.56,2.04-2.55,2.84-3.55c6.75,1.77,12.87,1.5,16.93-5.3c2.44-0.72,5.38-0.83,7.22-2.31
		c3.11-2.49,6.07-4.29,10.19-3.8c2.04,0.24,4.17,0.27,6.19-0.02C127.81,5.02,129.92,4.21,132.06,3.61z M50.15,92.81
		c-0.46,0.1-0.91,0.21-1.37,0.31c-1.43,5.98,1.31,16.11,5.01,16.9C52.55,104.15,51.35,98.48,50.15,92.81z"/>
	<path class="st4" d="M224.06,171.35c-8.02,12.01-16.04,24.02-24.05,36.04c-3.43,0.02-6.31,0.86-7.18,4.75
		c-2.01-1.33-4.01-2.66-5.52-3.66c-13.41,2.03-26.64,4.03-40.52,6.13c-0.17,2.08-0.79,4.74-0.51,7.29
		c1.18,10.67,5.94,19.71,13.79,26.91c8.73,7.99,21.76,8.92,29.5,2.56c1.51,0.96,3.03,1.92,4.54,2.89c-0.7,1.04-1.4,2.09-2.1,3.13
		c-1.27,0.31-2.61,0.47-3.8,0.96c-9.77,4.07-19.31,2.49-27.39-3.31c-11.18-8.02-17.19-19.53-17.87-33.52
		c0.15-2.56,0.29-5.13,0.44-7.65c-4.21-0.41-8.23-0.38-12.04-1.25c-12.85-2.94-25.9-5.42-37.04-13.2
		c-9.27-7.16-18.52-14.35-27.8-21.48c-2.58-1.98-5.49-3.6-7.81-5.83c-1.11-1.06-1.2-3.18-1.75-4.82l-0.06,0.08
		c0.77-0.26,1.53-0.52,2.29-0.78c1.83,1.36,3.68,2.69,5.49,4.07c10.78,8.2,19.5,19.08,32.05,24.93c8.25,3.85,16.42,8.65,25.16,10.48
		c10.58,2.22,21.74,2.44,32.62,2.26c11.85-0.2,23.69-1.87,34.66-7.01c9.84-4.61,17.5-11.27,20.6-22.2c0.53-1.87,1.68-3.56,2.5-5.35
		c1.9-4.19,4.82-8.25,5.45-12.63c1.39-9.64,3.02-19.6,1.95-29.14c-1.25-11.04-4.6-22.01-8.36-32.53
		c-2.64-7.38-7.49-13.98-11.36-20.92c0.8-0.75,1.6-1.49,2.39-2.24c8.65,10.54,14.15,22.56,18.03,35.64
		c5.25,17.74,4.42,35.35,1.29,53.2C221.32,167,223.21,169.27,224.06,171.35z"/>
	<path class="st4" d="M202.15,334.72c-7.09,2.24-14.03,5.53-21.29,6.51c-18.44,2.5-37.05,4.57-55.14-2.52
		c-31.38-12.3-50.29-35.23-56.46-68.09c-1.93-10.28-1.81-21.19-0.99-31.68c0.86-11.05,7.72-20,14.02-28.77
		c1.38-1.92,4.41-2.65,6.68-3.93c-0.41,1.46-0.57,3.04-1.27,4.34c-2.13,3.98-4.46,7.86-6.71,11.78c-2.65,4.69-6.84,9.13-7.68,14.12
		c-2.91,17.37-2.2,34.82,5.46,51.03c3.83,8.11,9.46,15.38,14.27,23.03c10.59,11.45,22.23,21.3,37.96,24.91
		c19.13,5.96,38.12,4.71,57.04-1.02c3.66-1.33,7.32-2.67,10.98-4C200.07,331.86,201.11,333.29,202.15,334.72z"/>
	<path class="st2" d="M202.15,334.72c1.61,1.49,2.47,5.52,5.59,2.82c6.23-5.4,11.95-11.38,18.12-16.85
		c1.22-1.09,4.03-1.89,5.26-1.23c12.16,6.48,24.36,12.93,36.11,20.1c5.1,3.11,9.95,6.49,14.64,10.06c1.19-0.8,2.38-1.6,3.57-2.4
		c-3.51-2.58-7.03-5.17-10.54-7.75c-0.73-0.69-1.45-1.37-2.18-2.05c-10.92-6.01-21.84-12.03-32.76-18.04
		c-1.01-0.65-2.01-1.31-3.02-1.96c-2.97-1.04-5.95-2.09-8.93-3.13c-2.19,1.8-4.37,3.61-6.56,5.41c-1.4,1-2.81,1.99-4.21,2.99
		c-0.29,0.31-0.58,0.63-0.87,0.95c-3.3,3.08-6.61,6.16-10.24,9.54c-4.15-5.71-8.15-11.21-12.15-16.71
		c-1.62,0.31-3.25,0.62-4.87,0.93c3.3,4.34,6.6,8.69,9.9,13.03C200.06,331.86,201.11,333.29,202.15,334.72z"/>
	<path class="st5" d="M80.99,222.35c2.25-3.92,4.58-7.79,6.71-11.78c0.69-1.3,0.86-2.89,1.27-4.34c1.78-2.28,3.57-4.55,5.35-6.83
		c11.14,7.78,24.19,10.26,37.04,13.2c3.81,0.87,7.83,0.84,12.04,1.25c-0.15,2.53-0.29,5.09-0.44,7.65c-3.91,0.93-8,3.1-11.68,2.54
		c-10.49-1.59-20.81-4.3-31.19-6.57c-0.34-2.27-0.69-4.53-1.03-6.8c-0.46,0.08-0.91,0.17-1.37,0.25c-0.51,1.83-1.02,3.67-1.53,5.5
		C91.09,218.41,86.04,220.38,80.99,222.35z"/>
	<path class="st6" d="M72.99,14.67c-1.95,1.7-3.72,3.73-5.92,5.01c-1.66,0.96-3.89,0.87-5.83,1.38c-1.38,0.36-3.53,0.58-3.94,1.48
		C52.83,32.5,44.04,38.5,36.61,45.77c-3.39,3.32-6.92,5.69-11.81,4.62c-1.03-0.23-1.86-1.34-2.79-2.04
		c8.4-7.54,16.5-15.46,25.32-22.47c5.55-4.41,12.05-7.7,18.4-10.96C67.69,13.91,70.55,14.7,72.99,14.67z"/>
	<path class="st6" d="M32.43,160.41c0.96-0.47,1.87-1.11,2.88-1.37c1.35-0.35,3.12-1.04,4.11-0.49c5.62,3.1,8.4,1.76,9.59-4.96
		c2.63,4.59,5.25,9.18,7.88,13.77l0.06-0.08c-4.54,0.98-4.36,4.07-3.57,7.63c0.52,2.35,1.14,4.89,0.73,7.17
		c-0.24,1.31-2.36,2.96-3.8,3.15c-1.07,0.14-3.09-1.61-3.52-2.9c-1.55-4.65-2.59-9.47-3.86-14.22c-0.41-1.54-0.98-3.04-1.58-4.89
		C37.11,165.35,33.95,165.03,32.43,160.41z"/>
	<path class="st6" d="M14.08,102.45c0.52,1.21,1.81,3.1,1.44,3.52c-3.6,4.06,1.04,5.83,2.29,8.41c0.25,0.52,2.58,0.72,3.31,0.19
		c2.57-1.89,4.86-4.16,7.25-6.29c2.78,2.8,3.58,10.31,1.26,15.6c-1.86-0.39-3.78-0.79-5.88-1.23c-0.17-1.03-0.41-2.44-0.65-3.85
		c-0.55-0.07-1.11-0.13-1.66-0.2c-0.77,3.16-1.55,6.32-2.32,9.47c-6.09-0.82-6.4-1.63-4.85-7.5c0.49-1.85-0.72-4.15-1.15-6.24
		c-1.39,0.37-2.78,0.75-4.16,1.12c-2.32-1.31-4.64-2.62-6.96-3.93l0.02,0.01c-0.01-0.41-0.02-0.81-0.03-1.22
		c0.67-0.62,1.34-1.25,2.01-1.87c1.02-0.67,2.04-1.33,3.06-2c0.12-0.31,0.24-0.61,0.36-0.92C9.63,104.49,11.85,103.47,14.08,102.45z
		"/>
	<path class="st0" d="M187.3,56.31c1.44,0,2.87,0,4.57,0c-4.08-6.83-7.96-13.32-11.25-18.84c3.24-1.53,5.94-2.56,8.33-4.08
		c0.93-0.59,1.17-2.29,1.73-3.48c-1.46-0.36-3.02-1.23-4.35-0.97c-1.86,0.37-3.47,1.93-5.34,2.37c-8.75,2.08-15.61-2.22-19.09-11.73
		c0.34-0.04,0.68-0.09,1.02-0.13c2.06,1.91,4.51,3.54,6.09,5.78c2.92,4.14,6.59,4.7,10.92,3.23c2.67-0.9,5.18-2.64,7.88-2.97
		c2.26-0.27,4.71,0.98,7.07,1.55c-0.98,2.76-1.58,5.75-3.08,8.19c-0.89,1.44-3.21,2-5.6,3.35c5.26,2.3,7.97,5.08,3.07,9.39
		c2.17,2.87,4.14,5.48,6.85,9.06c-2.8,0.62-4.72,1.05-6.63,1.48C188.77,57.79,188.03,57.05,187.3,56.31z"/>
	<path class="st0" d="M14.08,102.45c-2.22,1.02-4.45,2.04-6.67,3.06c4.94-5.11,4.58-11.47,5.48-18.01
		c1.26-9.16,5.06-18.04,8.47-26.77c0.96-2.47-0.05-2.67-1.25-3.58c2.56,0.44,5.11,0.89,7.26,1.26c-2.65,7.71-5.28,14.59-7.36,21.64
		c-1.52,5.15-1.58,10.63-5.46,15.13C13.28,96.64,14.17,99.97,14.08,102.45z"/>
	<path class="st6" d="M132.06,3.61c-2.14,0.59-4.24,1.4-6.42,1.72c-2.03,0.29-4.15,0.27-6.19,0.02c-4.12-0.49-7.09,1.31-10.19,3.8
		c-1.84,1.47-4.78,1.59-7.22,2.31c0.37-2.4,0.74-4.8,1.11-7.2c1.13-0.34,2.26-0.68,3.39-1.02c1.07-0.7,2.13-1.4,3.2-2.1
		c1.46-0.3,2.92-0.6,4.38-0.9c0.62-0.08,1.23-0.16,1.85-0.24c1.24,4.51,2.71,1.58,4.14,0.13c0.96,0.09,1.91,0.19,2.87,0.28
		c1.18,0.28,2.37,0.56,3.55,0.84c0.82,0.33,1.63,0.67,2.45,1c0.88,0.31,1.77,0.62,2.65,0.93l0.35,0.08L132.06,3.61z"/>
	<path class="st0" d="M103.14,4.26c-0.37,2.4-0.74,4.8-1.11,7.2c-4.07,6.8-10.18,7.07-16.93,5.3c-0.1-0.26-0.14-0.52-0.1-0.79
		c5-3.58,9.97-7.2,15.02-10.7C100.88,4.68,102.09,4.59,103.14,4.26z"/>
	<path class="st5" d="M187.3,56.31c0.73,0.74,1.47,1.48,2.2,2.22c1.81,2.48,3.63,4.95,5.43,7.44c2.48,3.43,4.94,6.88,7.41,10.32
		c-0.8,0.75-1.6,1.49-2.39,2.24c-5.12-6.34-10.3-12.63-15.29-19.07c-0.7-0.9-0.45-2.53-0.64-3.82c0.72-0.07,1.44-0.14,2.16-0.22
		C186.55,55.72,186.92,56.02,187.3,56.31z"/>
	<path class="st6" d="M154.11,14.49c-0.5-1.06-1.5-2.18-1.4-3.18c0.3-2.94-0.14-4.24-3.39-2.72c-4.08,1.91-7.65,1.26-10.34-2.61
		c3.73-0.36,7.46-0.72,11.19-1.08c3.12,0.89,6.24,1.77,9.36,2.65c-0.27,1.29-0.53,2.58-0.8,3.87
		C157.2,12.45,155.65,13.47,154.11,14.49z"/>
	<path class="st0" d="M18.01,48.69c-1.36,2-2.73,4.01-4.09,6.01c-6.73-1.94-2.06-4.78-0.64-7.67
		C14.96,47.62,16.48,48.15,18.01,48.69z"/>
	<path class="st7" d="M154.11,14.49c1.54-1.02,3.09-2.04,4.63-3.06c0.31,1.48,0.34,3.11,1.02,4.4c0.73,1.38,2.08,2.44,3.15,3.64
		c-0.34,0.04-0.68,0.08-1.02,0.13C159.3,17.89,156.7,16.19,154.11,14.49z"/>
	<path class="st7" d="M159.54,7.55c-3.12-0.88-6.24-1.77-9.36-2.65C156.38,2.25,158.58,2.88,159.54,7.55z"/>
	<path class="st6" d="M85,15.97c-0.03,0.27,0,0.53,0.1,0.79c-0.79,0.99-1.59,1.98-2.84,3.55c-0.98-2.41-1.57-3.85-2.16-5.3
		C81.73,15.33,83.36,15.65,85,15.97z"/>
	<path class="st0" d="M120.11,0.13c-1.43,1.45-2.9,4.38-4.14-0.13C117.34,0.04,118.72,0.09,120.11,0.13z"/>
	<path class="st0" d="M114.11,0.24c-1.46,0.3-2.92,0.6-4.37,0.9C111.19,0.84,112.65,0.54,114.11,0.24z"/>
	<path class="st0" d="M109.73,1.14c-1.07,0.7-2.13,1.4-3.2,2.1C107.6,2.54,108.67,1.84,109.73,1.14z"/>
	<path class="st0" d="M126.52,1.25c-1.18-0.28-2.37-0.56-3.55-0.84C124.16,0.69,125.34,0.97,126.52,1.25z"/>
	<path class="st0" d="M7.04,106.43c-1.02,0.67-2.04,1.33-3.06,2C5,107.76,6.02,107.09,7.04,106.43z"/>
	<path class="st6" d="M136.02,5.52c-0.68-0.3-1.36-0.59-2.05-0.89C134.66,4.93,135.34,5.23,136.02,5.52z"/>
	<path class="st0" d="M131.62,3.18c-0.88-0.31-1.77-0.62-2.65-0.93C129.85,2.56,130.73,2.87,131.62,3.18z"/>
	<path class="st0" d="M1.98,110.3c0.01,0.41,0.02,0.81,0.03,1.22c-0.24-0.14-0.49-0.27-0.73-0.41
		C1.51,110.84,1.74,110.57,1.98,110.3z"/>
	<path class="st0" d="M15.87,56.57c0.4,0.17,0.81,0.34,1.21,0.5C16.67,56.9,16.27,56.73,15.87,56.57z"/>
	<path class="st8" d="M298.92,160.85c5,1.89,10.01,3.79,15.01,5.68c-2.83-0.34-5.66-0.67-9.21-1.1c-0.49,2.73-1.1,6.05-1.7,9.37
		c0.37,0.22,0.73,0.45,1.1,0.67c3.12-3.17,8.76-3.25,9.81-8.94c1.97,0.64,3.94,1.29,5.91,1.93c3.54,6.11,7.08,12.22,10.64,18.33
		c3.82,6.56,7.66,13.1,11.5,19.65c-0.99,0.01-1.97,0.01-2.96,0.02c-6.78-11.19-13.45-22.46-20.5-33.48
		c-0.66-1.03-3.78-1.03-5.56-0.65c-1.65,0.36-2.97,2.04-4.58,2.86c-3.25,1.66-3.64,3.67-1.68,6.74
		c5.98,9.32,11.78,18.76,17.65,28.14c1.5,2.4,3.31,2.82,5.88,1.39c2.25-1.25,4.76-2.02,7.16-3c-0.81,0.7-1.71,1.33-2.43,2.12
		c-2.04,2.25-4,4.57-5.99,6.86c-0.73,0.05-1.45,0.09-2.18,0.14c-4.54-6.47-9.24-12.82-13.56-19.43
		c-3.68-5.64-6.92-11.57-10.33-17.39c-0.66-1.12-1.83-2.38-1.7-3.45C301.89,171.58,300.98,166.15,298.92,160.85z"/>
	<path class="st9" d="M320.99,295.89c10.49-3.6,21-7.16,31.51-10.71c1.18-1.3,2.55-2.46,4.13-3.5c0.62-0.41,1.25-0.64,1.86-0.74
		c0.34-0.38,0.69-0.76,1.05-1.12c-2.81,0.9-5.61,1.81-8.42,2.71c-1.1-0.4-2.2-0.8-3.3-1.2c-1.4-0.38-2.79-0.77-4.19-1.16
		c-0.52,0.75-1.05,1.49-1.57,2.24c0.91,0.58,1.82,1.17,3.46,2.22c-8.62,2.93-16.53,5.74-24.55,8.18c-1.01,0.31-3.41-1.03-3.8-2.1
		c-3.89-10.77-7.35-21.69-11.27-32.45c-1.19-3.29,0.77-3.77,2.79-4.54c4.46-1.7,8.95-3.32,13.42-4.98c-0.02-0.65-0.05-1.3-0.08-1.95
		c-6.64,2.22-13.27,4.43-20.13,6.71c4.62,13.89,8.9,26.8,13.23,39.7C316.1,296.1,318,296.91,320.99,295.89z"/>
	<path class="st9" d="M375.16,265.18c-0.7-1.92-1.41-3.84-2.11-5.77c-0.69,0.01-1.38,0.02-2.09,0.01c0.73,2.47,1.44,4.95,2.18,7.41
		C373.81,266.27,374.48,265.72,375.16,265.18z"/>
	<path class="st10" d="M342.07,282.43c0.91,0.58,1.82,1.17,3.46,2.22c-8.62,2.93-16.53,5.74-24.55,8.18c-1,0.31-3.41-1.03-3.8-2.1
		c-3.89-10.77-7.36-21.69-11.27-32.45c-1.2-3.29,0.77-3.77,2.79-4.54c4.46-1.7,8.94-3.33,13.42-4.98c1.3-0.76,2.6-1.53,3.9-2.29
		h0.01c1-0.33,2-0.67,3-1v-0.01c0.5-0.34,1.01-0.68,1.51-1.02l-0.05,0.01c0.93,0.84,1.85,1.68,2.51,2.28
		c-0.62,1.23-1.23,2.44-1.84,3.65c-0.38,0.33-0.75,0.65-1.13,0.98c-6.24,1.84-12.49,3.64-18.68,5.62c-0.37,0.12-0.26,1.71-0.37,2.62
		c0.03,0.65,0.07,1.3,0.1,1.95c0.63,0.7,1.27,1.39,1.9,2.09c0.03,0.63,0.06,1.26,0.09,1.9c0.98,0.63,1.96,1.27,2.94,1.9
		c0.05,0.42,0.1,0.84,0.15,1.26c-0.07,1.03-0.13,2.06-0.2,3.1c0.03,0.58,0.07,1.17,0.1,1.75c0.63,0.73,1.27,1.46,1.9,2.19
		c0.02,0.59,0.05,1.18,0.07,1.76c-0.01,0.98-0.02,1.96-0.03,2.94c0.03,0.71,0.05,1.41,0.08,2.12c1.86,0.66,3.73,1.32,5.58,1.98
		c-1.21,0.9-2.45,1.83-3.69,2.75c0.29,0.58,0.59,1.16,0.88,1.75c6.37-2.54,12.75-5.07,19.12-7.61
		C340.68,281.76,341.38,282.1,342.07,282.43z"/>
	<path class="st11" d="M392.3,244.4c0.93,0.47,1.55,0.99,1.97,1.55c1.41-1.26,2.84-2.5,4.28-3.73c0.13-3.32,0.28-6.64,0.42-9.96
		c0-0.57,0.01-1.14,0.01-1.71c-1.89-2.79-1.2-4.16,2.23-4.09c1.29,0.02,2.58-0.08,3.87-0.12c-0.82-0.97-1.64-1.95-2.46-2.92
		c-6.71,0.04-6.48,0.06-7.04,7.09c-0.18,2.18,0.67,5.35-3.22,6.5C391.59,237.24,391.25,243.87,392.3,244.4z"/>
	<path class="st9" d="M215.01,207.66c2.75-5.46,5.36-11.01,8.38-16.32c0.63-1.12,3.22-2.35,4.11-1.91
		c6.98,3.4,13.78,7.16,20.58,10.93c0.54,0.3,0.62,1.43,0.92,2.18c-0.27,1.44-0.54,2.87-0.81,4.31c-3.04,7.54-3.04,7.54,3.8,9.38
		c0,0.81,0,1.62,0,2.43c-3.28-1.31-6.55-2.62-10.23-4.08c2.04-4.27,3.67-7.67,5.39-11.28c-2.55-1.42-5.05-2.42-7.07-4.01
		c-4.09-3.22-6.29-1.67-8.32,2.39c-3.56,7.11-7.28,14.14-11.22,21.04c-1.41,2.48-3.62,4.51-5.46,6.75c-0.1-0.35-0.2-0.7-0.3-1.05
		c1.57-3.03,3.13-6.07,4.72-9.09c3.18-6.05,6.38-12.1,9.34-17.71c-1.92-1.29-3.27-2.2-4.63-3.11c1.56-0.23,3.15-0.32,4.66-0.73
		c0.99-0.27,2.25-0.82,2.64-1.61c0.26-0.52-0.6-2.07-1.35-2.52c-3.59-2.17-5.16-1.06-7.12,4.81c-1.21,2.05-2.2,4.28-3.7,6.09
		C218.23,205.87,216.47,206.64,215.01,207.66z"/>
	<path class="st11" d="M251.98,218.66c0-0.81,0-1.62,0-2.43c-1.27-3.13-2.53-6.25-3.8-9.38c0.27-1.44,0.54-2.88,0.81-4.31
		c1.68,4.23,3.44,8.43,5.03,12.69c2.1,5.63-1.74,9.82-3.91,14.26c-3.17,6.48-7.06,12.61-10.3,19.06c-1.94,3.87-3.99,4.58-7.77,2.31
		c-7.62-4.57-15.45-8.77-23.19-13.13c0.06-0.77,0.11-1.53,0.17-2.3c0.84-0.09,1.68-0.17,2.51-0.26c0.49,0.09,0.98,0.18,1.47,0.27
		c0.48,0.79,0.76,1.89,1.46,2.31c4.11,2.47,8.3,4.81,12.5,7.13c8.66,4.79,8.86,4.87,13.59-3.7
		C244.63,233.82,248.19,226.18,251.98,218.66z"/>
	<path class="st12" d="M215.01,207.66c1.46-1.02,3.22-1.8,4.32-3.13c1.5-1.81,2.49-4.04,3.7-6.09c0.39,0.02,0.78,0.04,1.17,0.06
		c1.35,0.91,2.71,1.82,4.63,3.11c-2.96,5.61-6.16,11.65-9.34,17.71c-1.59,3.02-3.14,6.06-4.71,9.1c-2.25-0.66-4.51-1.32-6.77-1.98
		c0.76-1.77,1.57-3.51,2.28-5.3c1.28-3.22,2.5-6.47,3.74-9.7C214.36,210.18,214.68,208.92,215.01,207.66z"/>
	<path class="st13" d="M284.89,240.34l-0.32,0.07h-0.33c-10.7,2.78-16.16-1.27-16.21-12.01l-0.03,0.05
		c2.78-3.18,12.93-2.63,15.28,0.89c0.43,0.64,0.6,1.52,0.7,2.31C284.32,234.54,284.59,237.44,284.89,240.34z"/>
	<path class="st11" d="M331.16,250.38c0.61-1.21,1.22-2.42,1.84-3.65c-0.66-0.6-1.58-1.44-2.51-2.28
		c6.83-2.39,13.66-4.79,20.49-7.18c0.01,0.69,0.01,1.37,0.02,2.06c-4.96,1.82-9.91,3.63-15.6,5.72c1.67,1.19,2.56,1.82,3.45,2.45
		c-0.34,1.06-1.25,2.34-0.94,3.16c1.26,3.28,2.73,6.51,4.47,9.57c0.99,1.76-1.46,4.45,2,5.79c0.76,0.3-0.1,4.78-0.21,7.33
		c-0.71,0.36-1.41,0.71-2.12,1.07c-0.88-0.92-2.07-1.7-2.57-2.8c-1.13-2.47-2.04-5.05-2.81-7.65c-1.32-4.49-2.47-9.03-3.69-13.55
		c0.1-0.12,0.19-0.24,0.29-0.36c-0.08,0.14-0.16,0.27-0.24,0.41C332.41,250.44,331.78,250.41,331.16,250.38z"/>
	<path class="st10" d="M255.03,179.52c0.36,0.32,0.72,0.64,1.08,0.96c2.14,1.87,4.14,3.94,6.44,5.58
		c7.4,5.25,14.91,10.34,22.37,15.5c1.43,1.87,1.87,3.58-0.79,4.78c-1.66-1.04-3.37-2.02-4.99-3.13
		c-6.29-4.27-12.55-8.57-18.82-12.86c-4.54-3.84-9.07-7.69-13.61-11.53c0.27-0.31,0.53-0.63,0.8-0.94
		C250.02,178.42,252.53,178.97,255.03,179.52z"/>
	<path class="st11" d="M283.97,301.49c-1.03-0.55-2.06-1.1-3.1-1.65c0.31-0.57,0.89-1.14,0.9-1.71c0.12-7.96,0.25-15.92,0.11-23.87
		c-0.02-0.93-1.63-1.83-2.5-2.74c-0.75,1.02-2.12,2.03-2.15,3.07c-0.23,7.62-0.2,15.25-0.25,22.88c-0.68-0.59-1.37-1.17-2.05-1.76
		c0.02-6.83,0.17-13.66,0.01-20.49c-0.13-5.54,1.99-10.1,5.66-15.41c1.51,4.65,3.66,8.42,3.8,12.25
		C284.73,281.85,284.17,291.68,283.97,301.49z"/>
	<path class="st2" d="M300.06,293.07c-4.43-0.1-7.98-3.26-8.02-7.14c-0.04-4.4,4.42-8.56,9.2-8.59c2.78-0.01,6.58,5.64,6.39,9.51
		C307.46,290.53,304.24,293.16,300.06,293.07z M302.83,281.7c-2.17,1.22-3.17,1.85-4.23,2.36c-0.8,0.38-1.67,0.61-2.52,0.9
		c0.38,1.02,0.54,2.72,1.19,2.94c1.58,0.52,4.65,0.89,4.88,0.37C302.89,286.52,302.65,284.35,302.83,281.7z"/>
	<path class="st8" d="M284.89,240.34c-0.3-2.9-0.57-5.8-0.92-8.69c-0.1-0.79-0.27-1.67-0.7-2.31c-2.35-3.51-12.5-4.07-15.28-0.89
		c-0.06-0.68-0.13-1.35-0.19-2.03c1.68-1.58,3.45-4.57,5.03-4.47c4.83,0.31,9.59,1.76,14.35,2.89c0.49,0.12,1.16,1.03,1.14,1.53
		c-0.26,4.61-0.63,9.22-1.1,13.81C287.2,240.31,285.7,240.29,284.89,240.34z"/>
	<path class="st9" d="M293.52,207.37c1.83,2.04,3.78,3.23,6.87,3.21c4.77-0.02,8.11,4.47,9.18,11.48
		c-5.54,0.73-10.48,0.86-14.55-4.35c-2.32-2.96-6-4.85-9.07-7.22C288.47,209.45,291,208.41,293.52,207.37z M305.31,219.28
		c0.36-0.57,0.72-1.14,1.08-1.7c-2.21-1.58-4.41-3.16-6.62-4.73c-0.62,1.21-1.99,2.63-1.72,3.59
		C299.18,220.43,302.5,219.35,305.31,219.28z"/>
	<path class="st14" d="M267.8,226.42c0.06,0.68,0.13,1.35,0.19,2.03l0.03-0.05c-0.59,3.86-1.19,7.73-1.78,11.59
		c-0.1,3.42,0.1,6.89-0.45,10.24c-0.2,1.21-2.19,2.13-3.36,3.18c-0.78-1.15-2.3-2.35-2.22-3.44c0.52-7.02,1.17-14.05,2.38-20.97
		C262.79,227.87,265.99,227.27,267.8,226.42z"/>
	<path class="st8" d="M379.29,205.16c1.59,1.04,3.17,2.08,4.76,3.12c-1.17,2.35-1.97,5-3.6,6.97c-1.41,1.7-4.17,4.05-5.6,3.62
		c-3.21-0.95-8.2-0.03-8.81-5.45l-0.04,0.04c1.88-0.09,3.81-0.5,5.62-0.2c2.84,0.47,4.86,0.19,5.67-3.04
		C377.73,208.47,378.61,206.84,379.29,205.16z"/>
	<path class="st15" d="M284.92,201.55c-7.47-5.15-14.97-10.25-22.37-15.5c-2.31-1.64-4.3-3.71-6.44-5.58
		c1.59,0.33,3.51,0.2,4.71,1.07c8.53,6.13,16.91,12.46,25.34,18.72C285.75,200.7,285.34,201.12,284.92,201.55z"/>
	<path class="st11" d="M255.03,179.52c-2.5-0.55-5.01-1.1-7.51-1.65c-0.27,0.31-0.53,0.63-0.8,0.94c4.54,3.84,9.07,7.69,13.6,11.53
		c-1.11,0.04-2.22,0.08-3.32,0.12c-4.68-4.21-9.42-8.36-13.98-12.69c-0.59-0.56-0.63-2.21-0.26-3.07c0.28-0.63,1.94-1.35,2.47-1.07
		C248.58,175.45,251.78,177.53,255.03,179.52z"/>
	<path class="st15" d="M214.03,211.43c-1.24,3.24-2.46,6.48-3.74,9.7c-0.71,1.79-1.52,3.53-2.28,5.3c-4.21,6.1-4.2,6.15,1.02,8.99
		c-0.06,0.76-0.11,1.53-0.17,2.3c-7.75-2.71-8.34-4.43-4.19-11.61c2.23-3.86,4.22-7.86,6.48-11.7
		C211.84,213.25,213.06,212.42,214.03,211.43z"/>
	<path class="st15" d="M257,190.46c1.11-0.04,2.21-0.08,3.32-0.12c6.27,4.29,12.53,8.59,18.82,12.86c1.62,1.1,3.32,2.09,4.99,3.12
		c-0.42,0.38-0.84,0.77-1.27,1.16c-1.26-0.26-2.79-0.14-3.75-0.83C271.68,201.35,264.36,195.88,257,190.46z"/>
	<path class="st9" d="M339.02,206.45c0.99-0.01,1.97-0.01,2.96-0.02c3.97,3.45,3.88,4.57-0.33,7.14c-3.22,1.97-6.41,4.01-9.53,6.14
		c-2.95,2.01-4.86,1.83-5.33-2.14c0.73-0.05,1.45-0.09,2.18-0.14c3.73-1.95,7.62-3.65,11.12-5.95c1.85-1.22,1.39-2.87-1.15-3.16
		C338.96,207.7,338.99,207.08,339.02,206.45z"/>
	<path class="st8" d="M266.25,239.99c0.59-3.86,1.19-7.73,1.78-11.59c0.04,10.74,5.5,14.78,16.21,12.01
		c-0.73,3.32-2.87,4.02-5.85,3.15C274.34,242.37,270.3,241.18,266.25,239.99z"/>
	<path class="st9" d="M351,239.33c-0.01-0.69-0.01-1.37-0.02-2.06c2.41-0.99,4.78-2.08,7.23-2.93c6.52-2.28,7.03-1.92,7.87,4.97
		c-0.39,0.72-0.77,1.43-1.15,2.15c-1.4-4.82-4.21-6.02-8.73-3.67C354.62,238.61,352.74,238.84,351,239.33z"/>
	<path class="st15" d="M364.92,241.46c0.38-0.72,0.77-1.43,1.15-2.15c2.33,6.7,4.65,13.4,6.98,20.1c-0.69,0.01-1.39,0.02-2.08,0.03
		C368.96,253.45,366.94,247.46,364.92,241.46z"/>
	<path class="st16" d="M282.87,207.49c0.42-0.39,0.84-0.78,1.27-1.16c2.66-1.19,2.22-2.9,0.79-4.77c0.41-0.43,0.82-0.85,1.24-1.28
		c2.45,2.36,4.9,4.73,7.35,7.1c-2.52,1.04-5.04,2.08-7.57,3.13C284.92,209.49,283.89,208.49,282.87,207.49z"/>
	<path class="st8" d="M366.46,196.11c0.53,0.47,1.06,0.95,1.59,1.42c-1.66,5.19-4.34,10.24-2.05,15.93l0.04-0.04
		c-5.22-0.76-4.42-4.73-3.64-7.91C363.2,202.24,365.06,199.23,366.46,196.11z"/>
	<path class="st11" d="M326.02,246.47c-1.3,0.76-2.6,1.52-3.9,2.29c-0.03-0.65-0.06-1.3-0.08-1.95
		C323.37,246.7,324.7,246.58,326.02,246.47z"/>
	<path class="st11" d="M329.03,245.46c-1,0.33-2,0.67-3,1C327.03,246.13,328.03,245.8,329.03,245.46z"/>
	<path class="st11" d="M330.54,244.44c-0.5,0.34-1.01,0.68-1.51,1.02C329.53,245.12,330.04,244.78,330.54,244.44z"/>
	<path class="st1" d="M239.97,319.39c10.92,6.01,21.84,12.03,32.76,18.04c4.43-9.72,17.17-15.47,27.41-12.37
		c2,0.61,3.62,1.59,4.88,2.84c1.35-1.52,2.71-3.02,4.09-4.51c-7.83-5.65-15.97-10.9-24.13-16.1c-0.58,0.05-1.15,0.1-1.73,0.15
		c-1.01,2.85,2.08,6.74-2.23,8.75h-1.99c-0.68-0.01-1.35-0.01-2.03-0.02c-3.24,1.94-2.74-0.95-2.8-2.38
		c-0.17-4.44-0.08-8.89-0.09-13.33c-6.63-3.71-13.26-7.42-19.89-11.13c-1.07,1.36-1.82,1.92-2.05,2.64
		c-1.54,4.81-4.54,4.45-8.07,2.41c-2.99-1.73-5.97-3.5-8.95-5.25c-0.7,1.42-1.39,2.84-2.09,4.26c4.54,4.1,9.19,8.09,13.49,12.42
		c0.77,0.78,0.65,3.34-0.04,4.5C244.61,313.5,242.19,316.38,239.97,319.39z"/>
	<path class="st4" d="M235.15,289.11c-0.7,1.42-1.39,2.84-2.09,4.26c-0.63,0.61-1.25,1.22-1.88,1.83c-0.9,1.06-1.79,2.13-2.69,3.19
		c-2.46,2.27-4.92,4.53-7.39,6.8c-3.05,1.75-6.11,3.49-9.16,5.24c-1.49,0.64-2.98,1.29-4.47,1.93c-0.78,0.36-1.56,0.71-2.35,1.07
		c-3.71,1.01-7.42,2.02-11.13,3.03c-1.62,0.31-3.25,0.62-4.87,0.93c-2.69,0.33-5.38,0.65-8.08,0.98
		c-9.04-0.97-18.09-1.77-27.11-2.94c-12.62-1.62-23.36-7.25-32.43-16.09c-9.02-8.79-14.07-20.11-19.27-31.22
		c-2.36-5.05-3.88-10.6-5.09-16.07c-2.61-11.77-2.68-23.69-1-35.62c0.51-1.83,1.02-3.67,1.53-5.5c0.46-0.08,0.91-0.17,1.37-0.25
		c0.34,2.27,0.69,4.53,1.03,6.8c-0.05,1.49,0.06,3.01-0.19,4.47c-2.13,12.84-0.85,25.56,3.53,37.57c3.32,9.1,8.18,17.75,13.3,26.02
		c3.21,5.19,8.15,9.3,12.31,13.9c0.84,0.74,1.62,1.58,2.54,2.21c9.18,6.36,19.8,8.66,30.49,10.73c1.5,0.06,3.02-0.06,4.48,0.2
		c12.06,2.14,23.83,0.6,35.23-3.34c5.93-2.05,11.46-5.23,17.18-7.89c4.37-4.99,8.73-9.97,13.1-14.96
		C233.09,287.3,234.12,288.21,235.15,289.11z"/>
	<path class="st5" d="M232.06,286.4c-4.37,4.99-8.73,9.97-13.1,14.96c-1.97-2.97-3.99-5.91-5.89-8.93
		c-4.74-7.52-9.49-15.03-14.1-22.63c-2.46-4.05-4.64-8.28-6.94-12.42c0.7-1.04,1.4-2.09,2.1-3.13c7.98,6.22,16.11,12.26,23.88,18.73
		C222.97,277.12,227.39,281.9,232.06,286.4z"/>
	<path class="st10" d="M405.62,231.09c0.46,1.09,1.78,1.82,2.87,2.63c0.76-0.68,1.52-1.36,2.27-2.05c-1.89-1.77-3.79-3.54-5.68-5.3
		c-1.29,0.04-2.58,0.15-3.87,0.12c-3.43-0.07-4.12,1.29-2.23,4.09C401.37,228.36,403.61,226.36,405.62,231.09z"/>
	<path class="st10" d="M400.74,233.15c-0.62-0.18-1.19-0.57-1.78-0.87c-0.13,3.32-0.28,6.63-0.41,9.95c2.57-2.2,5.17-4.36,7.73-6.58
		C405.07,234.67,403.25,233.87,400.74,233.15z"/>
	<path class="st13" d="M366,213.46c-2.28-5.69,0.4-10.75,2.05-15.93c3.75,2.55,7.49,5.09,11.24,7.63c-0.68,1.68-1.56,3.31-2,5.06
		c-0.81,3.23-2.83,3.51-5.67,3.04C369.81,212.95,367.88,213.37,366,213.46z"/>
	<path class="st12" d="M276.97,297.47c0.05-7.63,0.02-15.25,0.25-22.88c0.03-1.05,1.4-2.05,2.15-3.07c0.87,0.91,2.49,1.81,2.5,2.74
		c0.14,7.95,0.01,15.91-0.11,23.87c-0.01,0.57-0.58,1.14-0.9,1.71C279.57,299.05,278.27,298.26,276.97,297.47z"/>
	<path class="st11" d="M284.97,307.28c-0.58,0.05-1.15,0.1-1.73,0.15c-2.34,0.34-4.68,0.68-7.87,1.14c0.54,2.54,1.08,5.06,1.63,7.59
		c-3.23,1.94-2.74-0.95-2.8-2.38c-0.17-4.44-0.08-8.88-0.09-13.33C277.73,302.73,281.35,305,284.97,307.28z"/>
	<path class="st5" d="M195.22,215.25c-0.79-1.04-1.59-2.08-2.38-3.11c0.87-3.88,3.75-4.73,7.18-4.75
		C198.41,210.01,196.82,212.63,195.22,215.25z"/>
	<path class="st17" d="M184.01,55.64c0.19,1.29-0.05,2.92,0.64,3.82c4.99,6.44,10.17,12.73,15.29,19.07
		c3.86,6.95,8.72,13.54,11.36,20.92c3.76,10.53,7.12,21.49,8.36,32.53c1.08,9.54-0.56,19.5-1.95,29.14
		c-0.63,4.38-3.55,8.44-5.45,12.63c-0.81,1.79-1.97,3.48-2.5,5.35c-3.1,10.93-10.76,17.59-20.6,22.2
		c-10.97,5.14-22.81,6.81-34.66,7.01c-10.88,0.18-22.04-0.04-32.62-2.26c-8.74-1.83-16.91-6.63-25.16-10.48
		c-12.55-5.85-21.28-16.73-32.05-24.93c-1.81-1.38-3.66-2.72-5.49-4.08c-2-4.47-4.12-8.88-5.93-13.42c-0.59-1.5-0.36-3.32-0.51-5
		c0.2-4.68,0.55-9.37,0.55-14.05c0-2.79-0.55-5.59-0.85-8.38c0.22-1.26,0.44-2.53,0.47-2.7c2.83-0.53,5.09-0.95,7.36-1.37
		c0.69-4.75,1.37-9.5,2.06-14.25c0.2-1.33,0.41-2.65,0.61-3.98c0.26-2.69,0.52-5.37,0.78-8.06c0.89-13.51,2.2-26.87,11.94-37.57
		c1.21-1.33,2.31-2.77,3.47-4.16c1.96-1.1,3.92-2.21,5.88-3.31c0.66-0.07,1.31-0.13,1.97-0.2c6.44-0.17,12.92-0.03,19.31-0.69
		c2.5-0.26,5.49-1.78,7.01-3.71c1.57-1.99,2.53-3.59,5.36-3.28c0.67,0.07,1.5-1.32,2.26-2.04l0.04-0.06
		c1.72-0.51,3.44-1.02,5.16-1.53c4.52,0.95,9.03,1.9,13.55,2.84c6.04,5.49,12.09,10.99,18.02,16.38c5.46-3.43,5.89-5.03,3.3-10.14
		c-0.5-1-0.71-2.14-1.05-3.22c2.7,0.57,5.4,1.14,8.11,1.7c2.01,0.6,4.02,1.19,6.03,1.79c2,0.78,4,1.56,6.01,2.33
		C181.39,52.22,182.7,53.93,184.01,55.64z M155.79,116.81c0.22,0.82,0.44,1.64,0.67,2.46c2.77-0.52,5.65-0.72,8.29-1.63
		c2.96-1.02,6.84-1.96,8.29-4.23c2.41-3.79,3.28-8.58,4.56-13.02c0.22-0.76-0.76-1.87-1.19-2.81c-0.8,0.67-2.01,1.19-2.32,2.04
		c-1.03,2.79-1.78,5.68-2.54,8.56c-0.88,3.31-2.53,5.35-6.32,5.84C162.01,114.42,158.93,115.84,155.79,116.81z M109.28,168.3
		c0.04,0.41,0.09,0.82,0.13,1.23c1,0.25,2,0.74,3,0.73c10.13-0.16,13.86-3.7,15.35-14.86c0.33-2.44-0.16-4.99-0.27-7.49
		c-1.16,2.45-2.94,4.8-3.37,7.37c-1.05,6.34-3.41,10.98-10.59,11.61C112.08,167.01,110.69,167.81,109.28,168.3z M88.04,163.38
		c5.16-7.93,9.63-14.78,14.52-22.28C95.66,142.55,87,155.58,88.04,163.38z M157.68,87.77c-4.81-2.75-9.93-0.35-15.57,6.17
		c-3.52,4.08-4.13,6.49-1.65,9.58C143.44,95.53,149.54,91.06,157.68,87.77z"/>
	<path class="st18" d="M120.93,40.4c-0.76,0.72-1.59,2.12-2.26,2.04c-2.83-0.3-3.79,1.3-5.36,3.28c-1.53,1.93-4.52,3.45-7.01,3.71
		c-6.39,0.66-12.87,0.51-19.31,0.69c0.7-1.44,1.4-2.89,2.48-5.1c-2.92-0.37-5.35-0.68-7.78-0.99c-0.08-0.36-0.17-0.72-0.25-1.08
		c1.54-0.49,3.07-1.36,4.63-1.4c10.82-0.3,21.64-0.43,32.46-0.65C119.32,40.9,120.13,40.58,120.93,40.4z"/>
	<path class="st18" d="M159.94,44.68c0.34,1.08,0.55,2.23,1.05,3.22c2.59,5.11,2.15,6.71-3.3,10.14
		c-5.93-5.39-11.97-10.88-18.02-16.38C146.87,39.75,153.49,41.66,159.94,44.68z"/>
	<path class="st6" d="M62.33,107.4c-0.69,4.75-1.37,9.5-2.06,14.25c-4.74,0.06-6.4-3.01-7.13-7.02c0.04-0.8,0.07-1.6,0.12-2.54
		c4.05,2.73,6.25,1.87,7.82-2.75C61.32,108.63,61.9,108.04,62.33,107.4z"/>
	<path class="st17" d="M52.75,148.15c0.15,1.68-0.09,3.5,0.51,5c1.8,4.54,3.93,8.96,5.93,13.42c-0.76,0.26-1.53,0.52-2.29,0.78
		c-2.63-4.59-5.25-9.18-7.88-13.77l-0.15-0.09c-0.27-0.33-0.55-0.67-0.82-1c-0.07-1.31-0.14-2.62-0.23-4.34
		C49.54,148.15,51.14,148.15,52.75,148.15z"/>
	<path class="st6" d="M50.15,92.81c1.2,5.67,2.4,11.34,3.64,17.21c-3.7-0.8-6.44-10.92-5.01-16.9
		C49.24,93.02,49.69,92.91,50.15,92.81z"/>
	<path class="st19" d="M53.14,114.62c0.73,4.02,2.39,7.08,7.13,7.02c-2.26,0.42-4.52,0.84-7.35,1.37c-0.03,0.17-0.25,1.43-0.47,2.7
		C49.98,121.85,50.78,118.19,53.14,114.62z"/>
	<path class="st0" d="M184.01,55.64c-1.31-1.71-2.62-3.42-3.93-5.13c2.03,1.64,4.06,3.28,6.09,4.92
		C185.45,55.5,184.73,55.57,184.01,55.64z"/>
	<path class="st6" d="M63.72,95.37c-0.26,2.69-0.52,5.37-0.78,8.06C59.85,100.41,62.4,97.95,63.72,95.37z"/>
	<path class="st18" d="M85.01,50.32c-1.96,1.1-3.92,2.21-5.88,3.31C79.2,49.16,82.3,50.09,85.01,50.32z"/>
	<path class="st18" d="M174.08,48.18c-2.01-0.6-4.02-1.19-6.03-1.79C170.06,46.98,172.07,47.58,174.08,48.18z"/>
	<path class="st18" d="M126.13,38.82c-1.72,0.51-3.44,1.02-5.16,1.53C122.69,39.84,124.41,39.33,126.13,38.82z"/>
	<path class="st6" d="M48.04,152.49c0.27,0.33,0.55,0.67,0.82,1C48.59,153.16,48.32,152.82,48.04,152.49z"/>
	<path class="st17" d="M192.03,257.38c2.3,4.15,4.48,8.37,6.94,12.42c4.61,7.6,9.36,15.11,14.1,22.63c1.9,3.02,3.93,5.96,5.89,8.93
		c-5.71,2.67-11.25,5.84-17.18,7.89c-11.4,3.94-23.17,5.48-35.23,3.34c-1.46-0.26-2.99-0.14-4.48-0.2c0.85-1.35,1.56-2.82,2.56-4.04
		c4.37-5.29,4.86-12.58,0.75-17.87c-4.7-6.06-10.77-10.26-18.37-11.87c-8.77-1.86-17.67,4.23-18.77,13.05
		c-0.31,2.53,0.5,5.2,0.79,7.8c-4.16-4.6-9.11-8.71-12.31-13.9c-5.11-8.27-9.98-16.93-13.3-26.02c-4.38-12.01-5.66-24.73-3.53-37.57
		c0.24-1.46,0.13-2.98,0.19-4.47c10.39,2.27,20.7,4.98,31.19,6.57c3.68,0.56,7.78-1.62,11.68-2.54c0.68,13.99,6.7,25.5,17.87,33.52
		c8.08,5.8,17.62,7.38,27.39,3.31C189.42,257.85,190.76,257.69,192.03,257.38z"/>
	<path class="st17" d="M96.15,216.44c-1.68,11.93-1.61,23.85,1,35.62c1.22,5.47,2.73,11.02,5.09,16.07
		c5.2,11.12,10.24,22.44,19.27,31.22c9.08,8.84,19.82,14.46,32.43,16.09c9.01,1.16,18.07,1.97,27.1,2.94
		c2.33,5.35,4.66,10.7,6.99,16.05c-18.92,5.72-37.91,6.98-57.04,1.02c0.99-4.08,3.21-8.31,2.75-12.22
		c-1.38-11.94-8.43-19.97-19.8-23.91c-10.96-3.8-17.88,0.03-20.92,11.22c-4.81-7.65-10.44-14.92-14.27-23.03
		c-7.66-16.21-8.37-33.66-5.46-51.03c0.84-5,5.03-9.43,7.68-14.12C86.04,220.38,91.09,218.41,96.15,216.44z"/>
	<path class="st5" d="M93.04,310.54c3.05-11.2,9.96-15.02,20.92-11.22c11.36,3.93,18.41,11.96,19.8,23.91
		c0.45,3.92-1.76,8.14-2.75,12.22C115.27,331.83,103.63,321.99,93.04,310.54z"/>
	<path class="st5" d="M188.04,334.43c-2.33-5.35-4.66-10.7-6.99-16.05c2.69-0.33,5.38-0.65,8.08-0.98c3.3,4.34,6.6,8.69,9.9,13.03
		C195.36,331.76,191.7,333.1,188.04,334.43z"/>
	<path class="st20" d="M291.9,342.9c3.79-4.22,7.46-8.56,11.2-12.84c-1.54-1.63-3.93-2.67-7-2.82c-10.24-0.49-17.7,3.82-21.19,12.23
		c3.51,2.58,7.02,5.17,10.54,7.75C287.6,345.78,289.75,344.34,291.9,342.9z"/>
	<path class="st9" d="M296.09,327.24c3.08,0.15,5.46,1.2,7.01,2.83c0.63-0.73,1.28-1.44,1.92-2.16c-1.26-1.25-2.88-2.24-4.88-2.84
		c-10.24-3.11-22.99,2.65-27.41,12.36c0.73,0.68,1.45,1.37,2.18,2.05C278.39,331.06,285.86,326.75,296.09,327.24z"/>
	<path class="st1" d="M193.99,316.46c3.71-1.01,7.42-2.02,11.13-3.03c3.75,3.4,7.51,6.8,11.26,10.21
		c-3.31,3.08-6.62,6.16-10.24,9.53C201.99,327.47,197.99,321.96,193.99,316.46z"/>
	<path class="st20" d="M228.49,298.39c0.9-1.06,1.79-2.13,2.69-3.19c4.64,4.08,9.29,8.15,13.87,12.17
		c-2.98,3.7-5.54,6.87-8.09,10.04c-2.98-1.04-5.96-2.09-8.93-3.13c2.34-3.3,4.69-6.59,7.03-9.89c-0.98-0.66-1.96-1.31-2.94-1.97
		c-0.69-0.31-1.38-0.61-2.08-0.92c-0.08-0.42-0.17-0.84-0.25-1.25C229.35,299.63,228.92,299.01,228.49,298.39z"/>
	<path class="st21" d="M236.95,317.41c2.55-3.17,5.11-6.34,8.09-10.04c-4.58-4.02-9.22-8.09-13.87-12.17
		c0.63-0.61,1.25-1.22,1.88-1.84c4.53,4.1,9.19,8.09,13.49,12.42c0.77,0.78,0.65,3.34-0.04,4.5c-1.9,3.19-4.32,6.08-6.54,9.08
		C238.96,318.72,237.96,318.07,236.95,317.41z"/>
	<path class="st12" d="M207.47,312.36c1.49-0.64,2.98-1.29,4.47-1.93c1.34,0.33,2.69,0.66,4.03,0.99c0.35,0.68,0.7,1.36,1.05,2.04
		c0.32,0.32,0.64,0.64,0.97,0.97c0.68,0.33,1.36,0.66,2.03,0.99c0.35,0.34,0.7,0.67,1.05,1.01c0.13,1.09,0.26,2.18,0.39,3.26
		c-1.4,1-2.81,1.99-4.21,2.98C213.99,319.24,210.73,315.8,207.47,312.36z"/>
	<path class="st15" d="M221.46,319.7c-0.13-1.09-0.26-2.18-0.39-3.26c1.58-1.42,3.13-2.87,4.74-4.25c3.06-2.62,6.15-5.2,9.23-7.79
		c-2.34,3.3-4.69,6.59-7.03,9.89C225.83,316.09,223.65,317.89,221.46,319.7z"/>
	<path class="st16" d="M207.47,312.36c3.26,3.44,6.52,6.88,9.78,10.32c-0.29,0.32-0.58,0.64-0.87,0.96
		c-3.75-3.4-7.5-6.8-11.26-10.21C205.91,313.07,206.69,312.72,207.47,312.36z"/>
	<path class="st13" d="M339.02,206.45c-0.03,0.63-0.06,1.25-0.09,1.88l0.01,0.05c-0.4,0.02-0.8,0.03-1.2,0.05l-0.36,0.02
		c-2.4,0.98-4.91,1.75-7.16,3c-2.57,1.43-4.38,1.01-5.88-1.39c-5.87-9.39-11.67-18.82-17.65-28.14c-1.97-3.07-1.57-5.08,1.68-6.74
		c1.61-0.82,2.93-2.5,4.58-2.86c1.79-0.39,4.9-0.39,5.56,0.65C325.57,183.99,332.24,195.26,339.02,206.45z"/>
	<path class="st12" d="M313.94,166.53c-1.05,5.69-6.69,5.77-9.81,8.94c-0.37-0.22-0.73-0.45-1.1-0.67c0.6-3.32,1.2-6.63,1.7-9.37
		C308.28,165.85,311.11,166.19,313.94,166.53L313.94,166.53z"/>
	<path class="st22" d="M337.39,208.46l0.36-0.02c0.4-0.02,0.8-0.03,1.2-0.05l-0.01-0.05c2.54,0.29,3.01,1.94,1.15,3.16
		c-3.5,2.3-7.39,4-11.12,5.95c1.99-2.29,3.95-4.61,5.99-6.86C335.67,209.79,336.57,209.16,337.39,208.46z"/>
	<path class="st22" d="M332.99,250.42c1.22,4.52,2.37,9.06,3.69,13.55c0.77,2.6,1.68,5.19,2.81,7.65c0.5,1.1,1.69,1.87,2.57,2.8
		c0.3,1.01,0.61,2.02,0.92,3.04c0.34,0.34,0.67,0.68,1.01,1.02c-0.11,0.57-0.23,1.14-0.34,1.71c-0.52,0.75-1.05,1.49-1.57,2.24
		c-0.7-0.33-1.39-0.67-2.09-1c-1.84,0.03-3.71-0.14-5.5,0.14c-2.01,0.32-3.95,1.06-5.93,1.61c-0.1-0.37-0.19-0.73-0.29-1.1
		c3.18-1.45,6.35-2.9,9.53-4.35c-0.22-0.5-0.43-1.01-0.65-1.51c-6.35,2.11-12.7,4.22-19.06,6.33c-0.03-0.71-0.05-1.41-0.08-2.12
		c6.24-2.21,12.48-4.41,18.72-6.62c-0.17-0.52-0.33-1.05-0.5-1.57c-6.06,1.75-12.13,3.5-18.19,5.25c-0.02-0.59-0.05-1.18-0.07-1.77
		c5.63-1.98,11.26-3.96,16.88-5.94c-0.17-0.53-0.35-1.07-0.52-1.6c-6.09,1.78-12.18,3.57-18.26,5.35c-0.03-0.58-0.07-1.17-0.1-1.75
		c6.16-2.17,12.33-4.33,18.49-6.5c-0.18-0.55-0.37-1.1-0.55-1.64c-5.92,1.68-11.83,3.37-17.75,5.05c-0.05-0.42-0.1-0.84-0.15-1.26
		c5.59-2.12,11.18-4.25,16.76-6.37c-0.2-0.51-0.4-1.02-0.6-1.53c-6.37,2-12.74,4-19.11,6c-0.03-0.63-0.06-1.26-0.09-1.9
		c6.01-2.14,12.02-4.27,18.02-6.41c-0.2-0.58-0.4-1.16-0.61-1.74c-6.44,2.02-12.88,4.04-19.32,6.06c-0.03-0.65-0.07-1.3-0.1-1.95
		c5.09-1.71,10.23-3.29,15.24-5.19c1.44-0.55,2.55-2,3.8-3.04c0.38-0.33,0.75-0.65,1.13-0.98c0.63,0.03,1.25,0.06,1.87,0.08
		L332.99,250.42z"/>
	<path class="st10" d="M365.8,273.53c-4.64,1.69-9.28,3.28-13.75,4.84c-0.92-1.88-1.65-3.38-2.38-4.87
		c-0.58,0.32-1.17,0.63-1.75,0.95c-0.26,1.3-0.52,2.61-0.77,3.91c0.61,1.01,1.22,2.03,1.83,3.05c0.72,0.38,1.44,0.76,2.16,1.14
		c2.79-0.89,5.57-1.79,8.35-2.68c0.46-0.47,0.94-0.93,1.43-1.38C362.52,276.81,364.15,275.16,365.8,273.53z"/>
	<path class="st10" d="M340.95,247.42c5.91-2.11,11.81-4.27,17.77-6.26c0.48-0.16,1.36,0.87,2.05,1.35c0.09,1.65,0.17,3.3,0.25,4.95
		c0.01,0.49,0.03,0.97,0.04,1.45c2.11-0.3,3.67-0.18,1.93,2.5c0.01,0.64,0.03,1.28,0.04,1.92c0.53,0.46,1.07,0.92,1.6,1.38
		c-0.87,0.61-1.73,1.21-2.6,1.82v1.24c1.13-0.06,2.26-0.11,4.44-0.22c-1.21,1.41-1.84,2.14-2.47,2.87c0.02,0.5,0.04,1.01,0.06,1.51
		c1.29,0.46,2.58,0.93,3.87,1.39c0.38,0.97,0.76,1.94,1.14,2.91c-0.35,0.73-0.71,1.46-1.07,2.19c0.33,0.59,0.67,1.18,1.01,1.77
		c-0.02,0.1-0.04,0.21-0.05,0.32c1.37-1.27,2.77-2.49,4.2-3.69c-0.74-2.46-1.44-4.93-2.17-7.38c-2.02-5.99-4.04-11.99-6.06-17.98
		c-1.4-4.82-4.21-6.02-8.74-3.67c-1.57,0.81-3.45,1.04-5.19,1.54c-4.96,1.82-9.92,3.64-15.6,5.72c1.67,1.19,2.56,1.82,3.45,2.45
		C339.55,247.47,340.25,247.45,340.95,247.42z"/>
	<path class="st16" d="M347.15,278.37c0.61,1.02,1.22,2.04,1.83,3.05c-0.38-0.02-0.76-0.04-1.15-0.07c-1.4-0.39-2.79-0.77-4.19-1.16
		c0.11-0.57,0.23-1.14,0.34-1.72c-0.34-0.34-0.67-0.68-1.01-1.02c-0.31-1.01-0.61-2.02-0.92-3.04c0.71-0.36,1.41-0.71,2.12-1.07
		c0.33,0.29,0.66,0.59,0.99,0.88C345.83,275.61,346.49,276.99,347.15,278.37z"/>
	<path class="st23" d="M347.83,281.36c0.38,0.02,0.76,0.04,1.15,0.07c0.72,0.38,1.44,0.76,2.16,1.14
		C350.03,282.16,348.93,281.76,347.83,281.36z"/>
	<path class="st15" d="M318.09,282.56c6.35-2.11,12.7-4.22,19.06-6.33c0.22,0.5,0.43,1.01,0.65,1.51c-3.18,1.45-6.35,2.9-9.53,4.35
		c0.1,0.37,0.19,0.73,0.29,1.1c1.97-0.55,3.92-1.29,5.93-1.61c1.8-0.29,3.66-0.11,5.5-0.14c-6.38,2.54-12.75,5.07-19.13,7.6
		c-0.29-0.58-0.59-1.16-0.88-1.75c1.24-0.93,2.48-1.85,3.69-2.75C321.82,283.88,319.96,283.22,318.09,282.56z"/>
	<path class="st15" d="M330.03,251.36c-1.26,1.04-2.36,2.5-3.8,3.04c-5.02,1.9-10.15,3.49-15.24,5.19c0.11-0.91,0-2.5,0.37-2.62
		C317.54,254.99,323.79,253.2,330.03,251.36z"/>
	<path class="st15" d="M316.16,268.69c5.92-1.68,11.83-3.37,17.75-5.05c0.18,0.55,0.37,1.1,0.55,1.64
		c-6.16,2.17-12.33,4.33-18.49,6.5C316.03,270.76,316.1,269.72,316.16,268.69z"/>
	<path class="st15" d="M311.08,261.55c6.44-2.02,12.88-4.04,19.32-6.06c0.2,0.58,0.4,1.16,0.61,1.74
		c-6.01,2.13-12.02,4.27-18.02,6.41C312.35,262.94,311.71,262.24,311.08,261.55z"/>
	<path class="st15" d="M318.04,277.5c6.06-1.75,12.13-3.5,18.19-5.25c0.17,0.52,0.33,1.05,0.5,1.57
		c-6.24,2.21-12.48,4.41-18.72,6.62C318.02,279.46,318.03,278.48,318.04,277.5z"/>
	<path class="st15" d="M313.07,265.53c6.37-2,12.74-4,19.11-6c0.2,0.51,0.4,1.02,0.6,1.53c-5.59,2.12-11.18,4.25-16.76,6.37
		C315.03,266.8,314.05,266.17,313.07,265.53z"/>
	<path class="st15" d="M316.07,273.54c6.09-1.78,12.18-3.57,18.26-5.35c0.17,0.53,0.35,1.07,0.52,1.6
		c-5.63,1.98-11.26,3.96-16.88,5.94C317.34,275,316.7,274.27,316.07,273.54z"/>
	<path class="st21" d="M406.29,235.65c0.74-0.64,1.48-1.29,2.21-1.94c-1.09-0.81-2.41-1.54-2.87-2.62
		c-2.02-4.72-4.26-2.73-6.65-0.52c-0.01,0.57-0.01,1.14-0.01,1.71c0.59,0.29,1.15,0.69,1.78,0.87
		C403.25,233.87,405.08,234.67,406.29,235.65z"/>
	<path class="st20" d="M251.98,218.66c-3.79,7.52-7.35,15.17-11.42,22.53c-4.74,8.57-4.94,8.48-13.59,3.7
		c-4.2-2.32-8.39-4.66-12.5-7.13c-0.7-0.42-0.98-1.53-1.46-2.31c0.35-1.66,0.7-3.32,1.04-4.99l-0.02,0.01
		c0.34-0.33,0.67-0.67,1.01-1l0.02-0.01c1.84-2.24,4.05-4.26,5.46-6.74c3.93-6.91,7.66-13.94,11.22-21.04
		c2.03-4.06,4.22-5.61,8.32-2.39c2.03,1.6,4.52,2.59,7.07,4.01c-1.73,3.61-3.35,7.01-5.39,11.28
		C245.43,216.04,248.7,217.35,251.98,218.66z"/>
	<path class="st22" d="M209.03,235.43c-5.22-2.84-5.23-2.89-1.02-8.99c2.26,0.66,4.51,1.32,6.77,1.98c0.1,0.35,0.2,0.7,0.3,1.05
		l-0.02,0.01c-0.34,0.33-0.67,0.67-1.01,1l0.02-0.01c-0.84,1.57-1.68,3.14-2.51,4.71C210.71,235.25,209.87,235.34,209.03,235.43z"/>
	<path class="st22" d="M224.19,198.5c-0.39-0.02-0.78-0.04-1.17-0.06c1.96-5.86,3.53-6.98,7.12-4.81c0.74,0.45,1.6,2,1.35,2.52
		c-0.39,0.79-1.65,1.34-2.64,1.61C227.35,198.18,225.75,198.27,224.19,198.5z"/>
	<path class="st12" d="M248.18,206.85c1.27,3.13,2.53,6.26,3.8,9.38C245.14,214.39,245.14,214.39,248.18,206.85z"/>
	<path class="st9" d="M211.54,235.17c0.84-1.57,1.68-3.14,2.51-4.71c-0.35,1.66-0.7,3.32-1.04,4.99
		C212.52,235.35,212.03,235.26,211.54,235.17z"/>
	<path class="st23" d="M345.17,274.23c-0.33-0.29-0.66-0.59-0.99-0.88c0.11-2.55,0.97-7.03,0.21-7.33c-3.46-1.34-1.01-4.03-2-5.79
		c-1.73-3.06-3.2-6.29-4.47-9.57c-0.31-0.81,0.59-2.09,0.94-3.16c0.7-0.03,1.4-0.05,2.11-0.08c1.47,0.13,3.06,0.68,4.39,0.31
		c4.68-1.3,9.28-2.91,13.91-4.4c-1.24,1.24-2.26,2.99-3.76,3.63c-3.94,1.67-8.08,2.85-12.15,4.23c0.17,0.51,0.35,1.03,0.52,1.54
		c5.71-1.76,11.43-3.51,17.14-5.27c0.01,0.48,0.03,0.96,0.04,1.44c-5.64,2.31-11.27,4.63-16.91,6.95c0.14,0.38,0.28,0.76,0.42,1.14
		c6.14-1.86,12.28-3.73,18.43-5.59c0.01,0.64,0.03,1.28,0.04,1.92c-5.91,2.18-11.83,4.36-17.74,6.54c0.18,0.48,0.36,0.96,0.54,1.44
		c5.4-1.59,10.8-3.18,16.2-4.78c0,0.41,0,0.83,0,1.24c-4.95,2.12-9.89,4.25-14.84,6.37c0.17,0.44,0.33,0.87,0.5,1.31
		c5.44-1.68,10.87-3.35,16.31-5.03c0.02,0.5,0.04,1.01,0.06,1.51c-5.2,2.15-10.39,4.31-15.59,6.47c0.16,0.39,0.32,0.78,0.48,1.17
		c6.33-2.08,12.65-4.17,18.98-6.25c0.38,0.97,0.76,1.94,1.14,2.91c-6.47,2.42-12.94,4.84-19.41,7.26c-0.58,0.32-1.17,0.63-1.75,0.95
		C347,274.38,346.08,274.31,345.17,274.23z"/>
	<path class="st22" d="M333.03,250.46c0.08-0.14,0.16-0.27,0.24-0.41c-0.1,0.12-0.19,0.24-0.29,0.36
		C332.99,250.42,333.03,250.46,333.03,250.46z"/>
	<path class="st1" d="M302.83,281.7c-0.18,2.65,0.06,4.82-0.68,6.57c-0.23,0.53-3.29,0.15-4.88-0.37c-0.65-0.21-0.81-1.91-1.19-2.94
		c0.84-0.29,1.72-0.52,2.52-0.9C299.65,283.56,300.66,282.93,302.83,281.7z"/>
	<path class="st12" d="M305.31,219.28c-2.81,0.07-6.14,1.15-7.27-2.85c-0.27-0.96,1.11-2.38,1.72-3.59
		c2.21,1.58,4.41,3.16,6.62,4.73C306.03,218.15,305.67,218.71,305.31,219.28z"/>
	<path class="st7" d="M276.99,316.16c-0.54-2.52-1.08-5.05-1.63-7.59c3.19-0.46,5.53-0.8,7.87-1.14c-1.01,2.85,2.08,6.74-2.23,8.75
		c-0.66,0-1.33,0-1.99,0C278.35,316.17,277.67,316.17,276.99,316.16z"/>
	<path class="st11" d="M279.02,316.18c0.66,0,1.33,0,1.99,0C280.35,316.18,279.69,316.18,279.02,316.18z"/>
	<path class="st5" d="M129.04,299.45c-0.29-2.6-1.1-5.27-0.79-7.8c1.09-8.81,10-14.91,18.77-13.05c7.6,1.62,13.67,5.81,18.37,11.87
		c4.11,5.3,3.62,12.58-0.75,17.87c-1.01,1.22-1.72,2.69-2.56,4.04c-10.7-2.07-21.31-4.37-30.49-10.73
		C130.67,301.03,129.89,300.19,129.04,299.45z"/>
	<path class="st24" d="M228.49,298.39c0.43,0.62,0.86,1.24,1.3,1.86c-2.92,2.73-5.84,5.46-8.77,8.19c0.03-1.08,0.06-2.17,0.08-3.25
		C223.56,302.93,226.02,300.66,228.49,298.39z"/>
	<path class="st25" d="M221.1,305.19c-0.03,1.08-0.06,2.17-0.08,3.25l0.02-0.03c-0.34,0.34-0.68,0.68-1.03,1.02l0.02-0.02
		c-0.34,0.34-0.68,0.68-1.02,1.02l0.02-0.02c-0.34,0.34-0.68,0.68-1.02,1.02l0.02-0.02c-0.69,0-1.38,0-2.06,0
		c-1.34-0.33-2.69-0.66-4.03-0.99C214.99,308.68,218.05,306.94,221.1,305.19z"/>
	<path class="st3" d="M155.79,116.81c3.14-0.97,6.22-2.39,9.44-2.8c3.78-0.48,5.44-2.53,6.32-5.84c0.77-2.88,1.51-5.77,2.54-8.56
		c0.31-0.85,1.52-1.37,2.32-2.04c0.43,0.95,1.41,2.05,1.19,2.81c-1.28,4.44-2.16,9.23-4.56,13.02c-1.44,2.27-5.32,3.21-8.29,4.23
		c-2.64,0.91-5.52,1.12-8.29,1.63C156.23,118.45,156.01,117.63,155.79,116.81z"/>
	<path class="st3" d="M109.28,168.3c1.41-0.49,2.8-1.29,4.25-1.42c7.18-0.63,9.54-5.27,10.59-11.61c0.43-2.57,2.21-4.92,3.37-7.37
		c0.11,2.5,0.6,5.05,0.27,7.49c-1.49,11.16-5.22,14.7-15.35,14.86c-1,0.02-2-0.47-3-0.73C109.36,169.12,109.32,168.71,109.28,168.3z
		"/>
	<path class="st19" d="M88.04,163.38c-1.03-7.8,7.63-20.82,14.52-22.28C97.67,148.6,93.2,155.45,88.04,163.38z"/>
	<path class="st19" d="M157.68,87.77c-8.14,3.29-14.24,7.76-17.22,15.75c-2.48-3.09-1.88-5.5,1.65-9.58
		C147.74,87.42,152.87,85.02,157.68,87.77z"/>
	<path class="st25" d="M235.05,304.39c-3.08,2.6-6.17,5.18-9.23,7.79c-1.61,1.38-3.16,2.83-4.74,4.25c-0.35-0.34-0.7-0.67-1.05-1.01
		c0-0.67,0.01-1.33,0.01-2l-0.02,0.02c0.34-0.34,0.68-0.68,1.02-1.02l-0.02,0.02c0.34-0.34,0.68-0.68,1.01-1.01l-0.01,0.01
		c0.34-0.34,0.67-0.67,1.01-1.01l-0.01,0.01c0.34-0.34,0.67-0.67,1.01-1.01l-0.01,0.01c1.33-1.33,2.67-2.67,4-4l0.01-0.01
		c0.67-0.67,1.33-1.33,2-2l-0.01,0.01c0.69-0.34,1.39-0.67,2.08-1.01C233.09,303.08,234.07,303.74,235.05,304.39z"/>
	<path class="st25" d="M221.02,308.44c2.92-2.73,5.85-5.46,8.77-8.19c0.08,0.42,0.16,0.83,0.25,1.25c0,0.64-0.01,1.29-0.01,1.93
		l0.01-0.01c-0.67,0.67-1.33,1.33-2,2l-0.01,0.01c-1.33,1.33-2.67,2.67-4,4l0.01-0.01c-0.34,0.34-0.67,0.67-1.01,1.01l0.01-0.01
		c-0.34,0.34-0.67,0.67-1.01,1.01l0.01-0.01c-0.34,0.34-0.68,0.68-1.01,1.01l0.02-0.02c-0.34,0.34-0.68,0.68-1.02,1.02l0.02-0.02
		c-0.68,0.34-1.36,0.67-2.04,1.01c-0.32-0.32-0.64-0.64-0.97-0.97c0.34-0.68,0.67-1.36,1.01-2.04l-0.02,0.02
		c0.34-0.34,0.68-0.68,1.02-1.02l-0.02,0.02c0.34-0.34,0.68-0.68,1.02-1.02l-0.02,0.02c0.34-0.34,0.68-0.68,1.03-1.02
		C221.04,308.42,221.02,308.44,221.02,308.44z"/>
	<path class="st11" d="M230.02,303.44c0-0.64,0.01-1.29,0.01-1.93c0.69,0.31,1.38,0.61,2.08,0.92
		C231.41,302.76,230.72,303.1,230.02,303.44z"/>
	<path class="st11" d="M217.99,314.43c0.68-0.34,1.36-0.67,2.04-1.01c0,0.67-0.01,1.33-0.01,2
		C219.35,315.09,218.67,314.76,217.99,314.43z"/>
	<path class="st24" d="M218.04,311.42c-0.34,0.68-0.67,1.36-1.01,2.04c-0.35-0.68-0.7-1.36-1.05-2.04
		C216.66,311.42,217.35,311.42,218.04,311.42z"/>
	<path class="st9" d="M338.95,208.38c-0.4,0.02-0.8,0.03-1.2,0.05C338.14,208.42,338.54,208.4,338.95,208.38z"/>
	<path class="st9" d="M342.97,277.46c0.34,0.34,0.67,0.68,1.01,1.02C343.65,278.14,343.31,277.8,342.97,277.46z"/>
	<path class="st15" d="M365.81,273.52c1.04-1.02,2.09-2.03,3.15-3.01c0.02-0.12,0.03-0.23,0.05-0.33c-4.51,1.35-9.03,2.7-13.54,4.05
		c-0.21-0.62-0.43-1.24-0.64-1.86c4.39-1.31,8.78-2.63,13.17-3.95c0.35-0.73,0.71-1.45,1.07-2.18c-6.47,2.42-12.94,4.84-19.41,7.26
		c0.73,1.5,1.46,2.99,2.39,4.86C356.53,276.8,361.17,275.21,365.81,273.52z M353.32,273.61c0.11,0.12,0.21,0.24,0.31,0.37
		c-0.27,0.13-0.52,0.29-0.8,0.38c-0.05,0.02-0.2-0.23-0.3-0.35C352.8,273.88,353.06,273.74,353.32,273.61z"/>
	<path class="st15" d="M359.27,243.34c-4.63,1.49-9.23,3.1-13.91,4.4c-1.33,0.37-2.92-0.18-4.39-0.31
		c5.91-2.11,11.81-4.27,17.77-6.26c0.48-0.16,1.35,0.87,2.05,1.35C360.28,242.79,359.77,243.06,359.27,243.34z"/>
	<path class="st15" d="M364.01,260.43c-5.44,1.68-10.87,3.35-16.31,5.03c-0.17-0.44-0.33-0.87-0.5-1.31
		c4.95-2.13,9.89-4.25,14.84-6.37c1.13-0.05,2.26-0.11,4.44-0.21C365.27,258.97,364.64,259.7,364.01,260.43z"/>
	<path class="st15" d="M362.04,256.53c-5.4,1.59-10.8,3.18-16.2,4.78c-0.18-0.48-0.36-0.96-0.54-1.44
		c5.91-2.18,11.83-4.36,17.74-6.54c0.54,0.46,1.07,0.92,1.6,1.38C363.77,255.32,362.91,255.93,362.04,256.53z"/>
	<path class="st9" d="M363,251.41c-6.14,1.86-12.28,3.73-18.43,5.59c-0.14-0.38-0.28-0.76-0.42-1.14
		c5.64-2.32,11.27-4.64,16.91-6.95C363.17,248.61,364.74,248.73,363,251.41z"/>
	<path class="st11" d="M367.94,263.33c-6.33,2.08-12.65,4.17-18.98,6.25c-0.16-0.39-0.32-0.78-0.48-1.17
		c5.2-2.16,10.39-4.32,15.59-6.47C365.36,262.41,366.65,262.87,367.94,263.33z"/>
	<path class="st9" d="M359.27,243.34c0.5-0.27,1.01-0.55,1.51-0.82c0.08,1.65,0.16,3.3,0.24,4.95c-5.71,1.76-11.43,3.51-17.14,5.27
		c-0.17-0.51-0.35-1.03-0.52-1.54c4.06-1.38,8.21-2.56,12.15-4.23C357,246.33,358.03,244.58,359.27,243.34z"/>
	<path class="st23" d="M369.02,270.19c-4.51,1.35-9.03,2.7-13.54,4.05c-0.21-0.62-0.43-1.24-0.64-1.86
		c4.39-1.32,8.78-2.64,13.17-3.95C368.34,269.02,368.68,269.61,369.02,270.19z"/>
	<path class="st9" d="M345.17,274.23c0.92,0.07,1.83,0.15,2.75,0.22c-0.26,1.3-0.51,2.61-0.77,3.91
		C346.49,276.99,345.83,275.61,345.17,274.23z"/>
	<path class="st9" d="M214.04,230.47c0.34-0.33,0.67-0.67,1.01-1C214.71,229.8,214.37,230.13,214.04,230.47z"/>
	<path class="st24" d="M221.04,308.42c-0.34,0.34-0.68,0.68-1.03,1.02C220.36,309.1,220.7,308.76,221.04,308.42z"/>
	<path class="st24" d="M220.04,309.42c-0.34,0.34-0.68,0.68-1.02,1.02C219.36,310.1,219.7,309.76,220.04,309.42z"/>
	<path class="st24" d="M219.04,310.42c-0.34,0.34-0.68,0.68-1.02,1.02C218.36,311.1,218.7,310.76,219.04,310.42z"/>
	<path class="st11" d="M224.02,309.43c1.33-1.33,2.67-2.67,4-4C226.69,306.77,225.36,308.1,224.02,309.43z"/>
	<path class="st11" d="M228.03,305.43c0.67-0.67,1.33-1.33,2-2C229.36,304.09,228.7,304.76,228.03,305.43z"/>
	<path class="st11" d="M223.02,310.44c0.34-0.34,0.67-0.67,1.01-1.01C223.69,309.76,223.36,310.1,223.02,310.44z"/>
	<path class="st11" d="M222.02,311.44c0.34-0.34,0.67-0.67,1.01-1.01C222.69,310.76,222.36,311.1,222.02,311.44z"/>
	<path class="st11" d="M221.02,312.44c0.34-0.34,0.68-0.68,1.01-1.01C221.69,311.76,221.36,312.1,221.02,312.44z"/>
	<path class="st11" d="M220.02,313.44c0.34-0.34,0.68-0.68,1.02-1.02C220.7,312.76,220.36,313.1,220.02,313.44z"/>
	<path class="st10" d="M353.32,273.61c0.11,0.12,0.21,0.24,0.31,0.37c-0.26,0.13-0.52,0.29-0.8,0.38c-0.06,0.02-0.2-0.23-0.3-0.35
		C352.8,273.87,353.06,273.74,353.32,273.61z"/>
</g>
<path class="st26" d="M167.22,169.26c-4.76-0.26-8.18-3.64-7.99-7.88c0.21-4.83,5.5-10.28,9.59-9.87c4.46,0.45,8.45,4.89,8.21,9.14
	C176.75,165.49,172.15,169.53,167.22,169.26z M167.78,167.9c2.4-3.56,4.57-5.55,4.97-7.85c0.22-1.25-2.58-3.02-4.02-4.55
	c-1.89,1.83-4.51,3.37-5.37,5.59C162.92,162.27,165.56,164.62,167.78,167.9z"/>
<path class="st3" d="M156.62,116.68c2.46-0.88,4.87-2.34,7.38-2.53c5.84-0.43,8.36-3.62,9.19-9c0.33-2.11,1.01-4.21,1.88-6.16
	c0.34-0.75,1.64-1.08,2.51-1.59c0.34,0.84,1.15,1.83,0.95,2.51c-1.38,4.58-2.83,9.16-4.6,13.6c-0.47,1.19-2,2.4-3.27,2.74
	c-4.35,1.17-8.8,1.95-13.21,2.88C157.17,118.3,156.9,117.49,156.62,116.68z"/>
<path class="st3" d="M109.62,168.12c2.23-0.74,3.8-1.6,5.44-1.75c6.24-0.6,8.86-4.41,9.53-10.15c0.17-1.48-0.02-3.13,0.6-4.38
	c0.77-1.58,2.21-2.83,3.35-4.23c0.15,1.57,0.55,3.16,0.4,4.69c-0.25,2.63-0.64,5.27-1.34,7.81c-2.02,7.38-8.43,11.26-15.96,9.78
	C111.13,169.8,110.74,169.13,109.62,168.12z"/>
<path class="st19" d="M103.63,140.52c-5.1,7.81-9.55,14.63-14.13,21.65C87.03,156.94,95.87,142.69,103.63,140.52z"/>
<path class="st19" d="M140.9,103.34c-2.21-4.1,0.04-8.61,5.85-13.4c5.51-4.54,7.78-5.14,11.47-2.23
	C150.26,90.56,144.45,95.54,140.9,103.34z"/>
<path class="st27" d="M128.03,148.3c1.31,0.91,3.17,2.43,4.81,4.76c1.35,1.91,4.31,6.14,3.34,10.82c-1.09,5.21-6.41,7.82-10.57,9.87
	c-2.25,1.1-3.94,1.91-6.21,1.7c-4.62-0.41-7.41-4.61-8-5.53c2.18-0.11,4.15-0.25,5.99-0.39c0.13-0.01,2.66-0.22,3.99-1.16
	c0.23-0.16,0.5-0.37,0.5-0.37c0.76-0.59,1.29-1.1,1.63-1.44c1.11-1.1,1.67-1.65,2.01-2.09c0.89-1.11,1.28-2.59,2.06-5.55
	c0.58-2.19,0.66-3.17,0.68-3.87c0.02-0.75-0.03-1.12-0.1-2.23C128.09,151.74,128.02,150.21,128.03,148.3z"/>
<path class="st27" d="M178.07,99.41c0.69,0.33,6.11,3.06,6.85,8.45c0.33,2.43-0.42,4.38-0.82,5.4c-1.75,4.54-5.55,6.75-7.1,7.65
	c-1.53,0.89-5.33,3.03-10.52,2.49c-4.91-0.51-8.15-3.11-9.31-4.14c2.01-0.43,4.03-0.85,6.04-1.28c0.98-0.21,2.36-0.55,4-1.11
	c0.7-0.24,1.43-0.49,2.21-0.85c0.37-0.17,2.66-1.25,4.25-2.97c0.68-0.73,1.37-1.73,2.81-7.07
	C176.94,104.36,177.5,102.12,178.07,99.41z"/>
</svg>
