<?xml version="1.0" encoding="utf-8"?>
<!-- Generator: Adobe Illustrator 23.0.3, SVG Export Plug-In . SVG Version: 6.00 Build 0)  -->
<svg version="1.1" id="Ebene_1" xmlns="http://www.w3.org/2000/svg" xmlns:xlink="http://www.w3.org/1999/xlink" x="0px" y="0px"
	 viewBox="0 0 494.7 250.2" style="enable-background:new 0 0 494.7 250.2;" xml:space="preserve">
<style type="text/css">
	.st0{fill:#E6E6E6;}
	.st1{fill:#CCCCCC;}
	.st2{fill:#20201E;}
	.st3{fill:#CC3E63;}
	.st4{display:none;fill:#846F75;}
	.st5{fill:#E5385D;}
	.st6{fill:#FF99A3;}
	.st7{fill:#8E5960;}
	.st8{fill:#846F75;}
</style>
<g id="cat_eat_1_">
	<path class="st0" d="M235.9,202.6c0,0-2.6-5.8-9-12.1c-0.2-0.2-1.1-1.1-2.4-1.8c-0.2-0.1-0.5-0.2-0.9-0.4c-1.9-0.8-2.6-1.2-2.9-1.3
		c-2.5-0.9-7.5,5.8-8,6.4c-2.6,3.5-2.7,5.3-4.6,8.3c-0.2,0.4-0.9,1.4-1.2,2.9c-0.1,0.5-0.2,0.9-0.2,1.2c1,0.6,2.1,1.3,3.2,2.3
		c0.6,0.6,1.2,1.1,1.7,1.6c0,0,0.9,1.1,1.3,2.6c0.9,4.4-1.2,9-6,10.5c-5.4,1.7-11.2,3.3-16.8,3.6c-12.3,0.6-24.7,0.2-37.1,0.3
		c-5.2,0-9.8,1.4-13,5.4c-4.4,10,2.6,18.6,14.6,17.8c8.5-0.6,17-0.2,25.5-0.7c9.5-0.6,19-1.3,28.4-2.8c15-2.3,24.6-10.4,29.2-23.2
		c1.3-3.5,1.3-6.7,1.2-9.1C238.7,208.8,237,204.9,235.9,202.6z"/>
	<path class="st0" d="M118.5,220.2c-7.7,2.1-14.6,0.2-16.9-4c-0.8-1.4-1.9-4.8-0.3-7.8c1.2-2.3,3.4-3.2,4.2-3.4c0-14.3,0-28.7,0-43
		c-1.4-3.3-0.9-7.1,1.3-9.9c3.3-4.1,8.4-3.6,8.7-3.6h1.9c6.8,0,12.3,5.5,12.3,12.3v43.8c0.1,0.9,0.7,6.4-3.3,11
		C123.5,219,119.7,219.9,118.5,220.2z"/>
	<path class="st0" d="M85.8,218.6c-7.7,2.1-14.6,0.2-16.9-4c-0.8-1.4-1.9-4.8-0.3-7.8c1.2-2.3,3.4-3.2,4.2-3.4c0-14.3,0-28.7,0-43
		c-1.4-3.3-0.9-7.1,1.3-9.9c3.3-4.1,8.4-3.6,8.7-3.6h1.9c6.8,0,12.3,5.5,12.3,12.3V203c0.1,0.9,0.7,6.4-3.3,11
		C90.9,217.5,87,218.4,85.8,218.6z"/>
	<path class="st0" d="M217.1,197.7c3.7-5,4.9-10,5.9-13.7c0.3-1.1,0.9-3.8,1.2-7.4c1.1-12.1-2.4-22.7-3.6-26.3
		c-3.4-10.1-8.5-17.6-12.5-22.6c-2.3-2.4-5.4-5.5-9.5-8.7c-3.8-3-7.8-6.2-13.7-9.1c-7-3.4-14.6-5.5-22.7-6.3
		c-1.5-0.1-3.1-0.4-5.9-0.7c-9.2-1-21.2-2.2-35.6-1.5c-12.7,0.6-19.1,0.8-26.2,3.4c-5.9,2.1-15,5.5-21.1,14.6
		c-4.1,6.1-5.3,12.4-5.6,14.6c-0.4,2.2-1.1,6.6-0.2,12c0.6,3.3,1.6,6.2,2.1,7.7c0.8,2.3,1.6,4.1,2.1,5.1c3.9,7.8,9.5,12.3,12.1,14.3
		c3.9,3,7.3,4.7,12.5,7.3c3.7,1.8,6.5,3,8.6,3.8c9.1,3.7,18.6,7.1,26.1,9.7c2.5,0.3,6.4,0.4,11.1-0.3c-0.7,3.7-1.8,6.6-1.8,9.6
		c-0.1,7.2,3.9,12.5,11,13.2c8,0.8,16.1,0.5,24.2,0.2c8.9-0.4,17.4-3,25.5-6.6c3.6-1.6,6-3.3,7.3-4.2
		C210.9,204,214.1,201.7,217.1,197.7z"/>
	<path class="st1" d="M62.4,168.9c16,2.6,28.5,0.4,32.1-0.3c1-0.2,5.1-1,10.3-2.7c4.8-1.6,10.2-3.4,16-7.5c1.3-0.9,2.3-1.7,3-2.3
		l2.8-2.5c2.8-2.4-2.8,2.5-2.8,2.5c-0.1-0.1,1-1.6,2.8-2.5c0.7-0.3,1.3-0.6,2-0.5c1.5,0.2,1.8,1.5,3.7,2.3c0.9,0.4,2.9,1,3.8,0.1
		c0.8-0.9,0.3-2.7-0.2-3.7c-0.2-0.4-0.4-1.1-1.6-1.8c-2-1.3-2.5-2.7-1.1-4.8c1.4-2.2,2.9-3.1,5.4-1.7c1.2,0.6,2.7,1,4,0.9
		c0.9,0,2.3-0.8,2.6-1.6s-0.3-2.3-1-2.9c-0.7-0.6-1.1-0.5-3.7-1.7c-1.7-0.7-2.1-1-2.3-1.5c-0.3-0.6-0.3-1.3-0.3-2.2
		c0-0.8,0-1.2,0.2-1.6c0.5-1,1.7-1.5,3.1-1.5c3.3-0.2,3.9,0.1,5.8-0.6c1.3-0.5,3.1-1.7,2.9-2.9c-0.1-1.2-2.4-1.9-3.8-2.3
		c-3.6-1.1-5.3,0-6.5-1.2c-0.9-1-1-2.8-1.1-6.6c-0.6-17.7-2.8-35.1-7.4-52.2c-0.5-1.8-1.3-3.5-2.1-5.1c-2.3-5-6.3-6.6-11-3.6
		c-5.5,3.6-10.8,7.6-16.1,11.5c-1.9,1.4-3.4,3.2-5.3,4.4c-1.4,0.9-3.5,1.6-5,1.3c-10.3-2.1-20.5-2.1-30.9,0
		c-1.7,0.4-4.1-0.4-5.6-1.5c-7-5-13.8-10.3-20.8-15.4c-4.9-3.6-9.7-2.1-11.9,3.6c-1.1,3-2.3,6.1-2.9,9.2c-3.2,16.2-6.3,32.4-6.1,49
		c0,0.5,0,0.9-0.1,1.4c-0.5,5.6-0.5,5.4-6,5.1C5,125.4,1.5,124,1,127.7s3.3,2.6,5.4,3.2c1.5,0.4,3.2,0.3,4.8,0.6
		c2.7,0.5,3.4,2.7,1.6,4.8l0,0c-0.6,0.3-1.1,0.6-1.7,0.9c-0.2,0-0.4,0-0.6,0c-1.1,0.2-3,0.7-4.4,2.3c-0.3,0.4-1.9,2.1-1.3,3.2
		c0.4,0.7,1.4,0.9,2.2,1c1.6,0.2,2.6-0.2,6.3-1c1.6-0.4,2-0.4,2.5-0.3c1.2,0.3,2,1.4,2.8,2.7c1.3,2.2-0.1,3.4-1.7,4.5
		c-1,0.7-1,0.6-1.3,1c-0.9,0.9-2,2.8-1.2,4.1c0.6,1,2.1,1,2.3,1c1.4,0,2.2-1,2.3-1.1c0.5-0.5,1.3-1.2,2.5-1.8
		c0.7-0.3,1.4-0.7,2.3-0.6c1.1,0,1.8,0.6,4,2.5c1.4,1.2,2.6,2.1,3.3,2.7c2.2,1.4,5.2,3.1,9,4.8C42.4,163.3,50.6,167,62.4,168.9z"/>
	<path class="st0" d="M61.9,168c15.9,2.6,28.2,0.4,31.8-0.3c1-0.2,5.1-1,10.2-2.7c4.8-1.6,10.1-3.4,15.9-7.5
		c1.3-0.9,2.2-1.7,2.9-2.3l2.8-2.5c2.8-2.4-2.8,2.5-2.8,2.5c-0.1-0.1,1-1.6,2.8-2.5c0.6-0.3,1.2-0.6,2-0.5c1.5,0.2,1.8,1.5,3.7,2.3
		c0.9,0.4,2.9,1,3.8,0.1c0.8-0.8,0.3-2.6-0.2-3.6c-0.2-0.4-0.4-1.1-1.5-1.8c-2-1.3-2.5-2.7-1.1-4.8c1.4-2.1,2.9-3,5.4-1.7
		c1.2,0.6,2.7,1,4,0.9c0.9,0,2.3-0.8,2.5-1.6c0.3-0.8-0.3-2.3-1-2.8c-0.7-0.6-1.1-0.5-3.7-1.7c-1.7-0.7-2.1-1-2.3-1.4
		c-0.3-0.6-0.3-1.3-0.3-2.2c0-0.8,0-1.2,0.2-1.6c0.5-1,1.6-1.4,3-1.5c3.3-0.2,3.9,0.1,5.8-0.6c1.3-0.5,3-1.7,2.9-2.8
		c-0.1-1.2-2.4-1.9-3.7-2.3c-3.5-1.1-5.2,0-6.4-1.2c-0.9-0.9-1-2.8-1.1-6.5c-0.6-17.5-2.7-34.8-7.3-51.8c-0.5-1.7-1.3-3.4-2.1-5.1
		c-2.2-5-6.3-6.5-10.9-3.5c-5.5,3.5-10.7,7.5-15.9,11.4c-1.8,1.4-3.3,3.2-5.3,4.4c-1.4,0.9-3.4,1.6-5,1.3c-10.3-2-20.4-2.1-30.7,0.1
		c-1.7,0.4-4.1-0.4-5.6-1.5C47.7,67.6,41,62.3,34,57.3c-4.9-3.5-9.6-2.1-11.8,3.5c-1.1,3-2.2,6-2.9,9.1c-3.2,16.1-6.2,32.1-6,48.6
		c0,0.5,0,0.9-0.1,1.4c-0.5,5.5-0.5,5.4-6,5.1c-2.2-0.1-5.7-1.5-6.2,2.2s3.3,2.6,5.3,3.2c1.5,0.4,3.2,0.3,4.8,0.6
		c2.7,0.5,3.4,2.7,1.6,4.8l0,0c-0.6,0.3-1.1,0.6-1.7,0.9c-0.2,0-0.4,0-0.6,0c-1.1,0.2-3,0.7-4.4,2.3c-0.3,0.4-1.9,2.1-1.3,3.2
		c0.4,0.7,1.4,0.9,2.1,1c1.5,0.2,2.5-0.2,6.2-1c1.6-0.4,2-0.4,2.5-0.3c1.2,0.3,2,1.4,2.8,2.7c1.3,2.2-0.1,3.4-1.7,4.5
		c-1,0.7-0.9,0.6-1.3,1c-0.9,0.9-2,2.8-1.2,4c0.6,1,2.1,1,2.2,1c1.3,0,2.2-1,2.3-1.1c0.5-0.5,1.3-1.2,2.5-1.8
		c0.7-0.3,1.4-0.7,2.3-0.6c1.1,0,1.8,0.6,4,2.4c1.4,1.2,2.5,2.1,3.2,2.7c2.2,1.4,5.2,3.1,8.9,4.8C42,162.4,50.2,166.1,61.9,168z"/>
	<path class="st2" d="M90.1,139.6c0-3.1,3.8-5.9,8.2-6c4-0.1,7.3,2.2,7.3,5c0,3.1-3.8,5.9-8.2,6C93.3,144.6,90.1,142.4,90.1,139.6z"
		/>
	<path class="st3" d="M73,145.8c-1.4,1.4-2.7,2.7-4.1,4.1c-0.2,0-0.4,0-0.5,0c-1.4-1.5-2.8-3-4.2-4.5c0.4-0.6,0.8-1.2,1.2-1.8
		c2.3,0.1,4.5,0.1,6.8,0.2C72.4,144.5,72.7,145.2,73,145.8z"/>
	<path class="st2" d="M42.7,144.5c-4.3,0-8.3-2.7-8.3-5.8c0-2.8,3.2-5.1,7.2-5.1c4.4,0,8.3,2.7,8.3,5.8
		C49.9,142.2,46.7,144.5,42.7,144.5z"/>
	<path class="st4" d="M64,156.6c0,0.1,0.2,1.9,1.3,3.2c2,2.2,6.3,2.1,8.7,0.2c0.3-0.3,1.5-1.3,2-2.9c0.2-0.8,0.5-1.8,0-2.4
		c-0.9-1.1-2.9,0.5-4.5-0.7c-0.6-0.5-0.9-1.2-2.3-2.3c-0.3-0.2-0.5-0.4-0.8-0.3c-0.6,0.1-0.6,1.1-1.4,1.9c-1,1-2.1,0.5-2.8,1.4
		C63.9,155.2,64,155.9,64,156.6z"/>
	<path class="st5" d="M58.7,150.3c0.1,0.6,0.6,2.8,2.2,4.2c0.7,0.6,1.5,1,2.3,1.1c1.8,0.2,3.1-0.9,3.7-1.4c1.8-1.5,2.2-3.5,2.3-4.2
		c-0.3,0-0.7,0-1,0c-0.1,0.3-0.3,0.7-0.5,1.1c-0.5,0.8-0.9,1.4-1.3,1.7c0,0-0.3,0.2-0.5,0.4c-0.2,0.1-1.9,1-3.4,0.3
		c-0.6-0.3-0.9-0.7-1.2-1c-1-1.2-1.1-2.6-1.1-3.3C59.7,149.5,59.2,149.9,58.7,150.3z"/>
	<path class="st5" d="M79.1,149.7c0,0.6-0.3,2.7-2,4.3c-0.4,0.4-2,1.9-4,1.6c-1.2-0.2-2-0.9-2.5-1.4c-1.6-1.5-2.1-3.3-2.2-4.2
		c0.3,0,0.6,0,0.8,0c0.1,0.2,0.1,0.4,0.2,0.6c0,0.1,0.1,0.3,0.3,0.5c0.1,0.2,0.4,0.6,0.7,1.1c0.2,0.2,0.7,0.8,1.4,1.1
		c1,0.5,2.3,0.5,3.3,0.1c1.5-0.7,2.5-2.3,2.5-4.2C78.2,149.3,78.6,149.5,79.1,149.7z"/>
	<path class="st6" d="M26.1,83c2.3-1.3,5.3-2.7,9.1-3.9c3.6-1.1,6.8-1.8,9.4-2.2c-1.2-2.1-2.5-3.7-3.5-4.9c-1.3-1.5-3.2-3.1-7.1-6.2
		c-1.2-0.9-2.3-1.8-3.5-1.6c-0.7,0.1-1.2,0.6-1.8,1.5c-1.7,2.4-2.2,4.6-2.3,5.3c-0.3,1.4-0.6,3.3-0.7,5.9
		C25.7,78.5,25.7,80.6,26.1,83z"/>
	<path class="st6" d="M121.7,86.2c-2.1-1.7-4.9-3.7-8.5-5.5c-3.4-1.7-6.5-2.8-9-3.6c1.5-2.2,3-3.8,4.1-5c1.5-1.5,3.6-3,7.9-6
		c1.3-0.9,2.5-1.7,3.7-1.4c0.7,0.2,1.1,0.9,1.6,1.9c1.3,2.8,1.5,5.4,1.6,6.1c0.1,1.6,0.1,3.8-0.2,6.7
		C122.7,81.2,122.4,83.5,121.7,86.2z"/>
	<path class="st7" d="M74.8,207.3c-0.4-0.1-0.9-0.3-1.5-0.4c-0.6-0.1-1.7-0.2-2.8,0.2c-1.6,0.6-2.3,2.1-2.5,2.5
		c0.1,0.4,0.1,0.7,0.2,1.1c0.1-0.2,0.2-0.4,0.4-0.6c0.1-0.2,1.2-1.6,3.1-2c1.6-0.4,2.8,0.3,3.2-0.3
		C74.9,207.8,74.9,207.5,74.8,207.3z"/>
	<path class="st7" d="M76.7,212.2c-0.4-0.1-0.9-0.1-1.6-0.1c-0.6,0-1.7,0.1-2.7,0.7c-1.4,0.9-1.9,2.4-2,2.9c0.1,0.4,0.2,0.7,0.3,1.1
		c0.1-0.2,0.1-0.4,0.3-0.7c0.1-0.2,0.9-1.8,2.7-2.5c1.6-0.6,2.8-0.2,3.1-0.8C76.8,212.6,76.7,212.4,76.7,212.2z"/>
	<path class="st7" d="M106.6,209.4c-0.4,0-0.9,0-1.6,0c-0.6,0.1-1.7,0.2-2.7,1c-1.4,1-1.7,2.6-1.7,3.1c0.1,0.3,0.3,0.7,0.4,1
		c0-0.2,0.1-0.4,0.2-0.7c0.1-0.2,0.8-1.8,2.4-2.7c1.5-0.8,2.8-0.4,3-1.1C106.7,209.7,106.6,209.5,106.6,209.4z"/>
	<path class="st7" d="M109.6,213.6c-0.4,0-0.9,0.1-1.6,0.3c-0.6,0.2-1.6,0.5-2.5,1.4c-1.2,1.2-1.2,2.8-1.2,3.3
		c0.2,0.3,0.4,0.6,0.6,1c0-0.2,0-0.4,0.1-0.7c0-0.2,0.4-1.9,2-3.1c1.3-1,2.7-0.9,2.8-1.6C109.8,213.9,109.7,213.7,109.6,213.6z"/>
</g>
<g id="cat_eat">
	<path class="st0" d="M490.9,202.2c0,0-2.6-5.8-9-12.1c-0.2-0.2-1.1-1.1-2.4-1.8c-0.2-0.1-0.5-0.2-0.9-0.4c-1.9-0.8-2.6-1.2-2.9-1.3
		c-2.5-0.9-7.5,5.8-8,6.4c-2.6,3.5-2.7,5.3-4.6,8.3c-0.2,0.4-0.9,1.4-1.2,2.9c-0.1,0.5-0.2,0.9-0.2,1.2c1,0.6,2.1,1.3,3.2,2.3
		c0.6,0.6,1.2,1.1,1.7,1.6c0,0,0.9,1.1,1.3,2.6c0.9,4.4-1.2,9-6,10.5c-5.4,1.7-11.2,3.3-16.8,3.6c-12.3,0.6-24.7,0.2-37.1,0.3
		c-5.2,0-9.8,1.4-13,5.4c-4.4,10,2.6,18.6,14.6,17.8c8.5-0.6,17-0.2,25.5-0.7c9.5-0.6,19-1.3,28.4-2.8c15-2.3,24.6-10.4,29.2-23.2
		c1.3-3.5,1.3-6.7,1.2-9.1C493.7,208.4,492,204.5,490.9,202.2z"/>
	<path class="st0" d="M373.5,219.8c-7.7,2.1-14.6,0.2-16.9-4c-0.8-1.4-1.9-4.8-0.3-7.8c1.2-2.3,3.4-3.2,4.2-3.4c0-14.3,0-28.7,0-43
		c-1.4-3.3-0.9-7.1,1.3-9.9c3.3-4.1,8.4-3.6,8.7-3.6h1.9c6.8,0,12.3,5.5,12.3,12.3v43.8c0.1,0.9,0.7,6.4-3.3,11
		C378.5,218.6,374.7,219.5,373.5,219.8z"/>
	<path class="st0" d="M340.8,218.2c-7.7,2.1-14.6,0.2-16.9-4c-0.8-1.4-1.9-4.8-0.3-7.8c1.2-2.3,3.4-3.2,4.2-3.4c0-14.3,0-28.7,0-43
		c-1.4-3.3-0.9-7.1,1.3-9.9c3.3-4.1,8.4-3.6,8.7-3.6h1.9c6.8,0,12.3,5.5,12.3,12.3v43.8c0.1,0.9,0.7,6.4-3.3,11
		C345.9,217.1,342,218,340.8,218.2z"/>
	<path class="st0" d="M472.1,197.3c3.7-5,4.9-10,5.9-13.7c0.3-1.1,0.9-3.8,1.2-7.4c1.1-12.1-2.4-22.7-3.6-26.3
		c-3.4-10.1-8.5-17.6-12.5-22.6c-2.3-2.4-5.4-5.5-9.5-8.7c-3.8-3-7.8-6.2-13.7-9.1c-7-3.4-14.6-5.5-22.7-6.3
		c-1.5-0.1-3.1-0.4-5.9-0.7c-9.2-1-21.2-2.2-35.6-1.5c-12.7,0.6-19.1,0.8-26.2,3.4c-5.9,2.1-15,5.5-21.1,14.6
		c-4.1,6.1-5.3,12.4-5.6,14.6c-0.4,2.2-1.1,6.6-0.2,12c0.6,3.3,1.6,6.2,2.1,7.7c0.8,2.3,1.6,4.1,2.1,5.1c3.9,7.8,9.5,12.3,12.1,14.3
		c3.9,3,7.3,4.7,12.5,7.3c3.7,1.8,6.5,3,8.6,3.8c9.1,3.7,18.6,7.1,26.1,9.7c2.5,0.3,6.4,0.4,11.1-0.3c-0.7,3.7-1.8,6.6-1.8,9.6
		c-0.1,7.2,3.9,12.5,11,13.2c8,0.8,16.1,0.5,24.2,0.2c8.9-0.4,17.4-3,25.5-6.6c3.6-1.6,6-3.3,7.3-4.2
		C465.9,203.6,469.1,201.3,472.1,197.3z"/>
	<path class="st1" d="M317.4,168.5c16,2.6,28.5,0.4,32.1-0.3c1-0.2,5.1-1,10.3-2.7c4.8-1.6,10.2-3.4,16-7.5c1.3-0.9,2.3-1.7,3-2.3
		l2.8-2.5c2.8-2.4-2.8,2.5-2.8,2.5c-0.1-0.1,1-1.6,2.8-2.5c0.7-0.3,1.3-0.6,2-0.5c1.5,0.2,1.8,1.5,3.7,2.3c0.9,0.4,2.9,1,3.8,0.1
		c0.8-0.9,0.3-2.7-0.2-3.7c-0.2-0.4-0.4-1.1-1.6-1.8c-2-1.3-2.5-2.7-1.1-4.8c1.4-2.2,2.9-3.1,5.4-1.7c1.2,0.6,2.7,1,4,0.9
		c0.9,0,2.3-0.8,2.6-1.6c0.3-0.8-0.3-2.3-1-2.9c-0.7-0.6-1.1-0.5-3.7-1.7c-1.7-0.7-2.1-1-2.3-1.5c-0.3-0.6-0.3-1.3-0.3-2.2
		c0-0.8,0-1.2,0.2-1.6c0.5-1,1.7-1.5,3.1-1.5c3.3-0.2,3.9,0.1,5.8-0.6c1.3-0.5,3.1-1.7,2.9-2.9c-0.1-1.2-2.4-1.9-3.8-2.3
		c-3.6-1.1-5.3,0-6.5-1.2c-0.9-1-1-2.8-1.1-6.6c-0.6-17.7-2.8-35.1-7.4-52.2c-0.5-1.8-1.3-3.5-2.1-5.1c-2.3-5-6.3-6.6-11-3.6
		c-5.5,3.6-10.8,7.6-16.1,11.5c-1.9,1.4-3.4,3.2-5.3,4.4c-1.4,0.9-3.5,1.6-5,1.3c-10.3-2.1-20.5-2.1-30.9,0
		c-1.7,0.4-4.1-0.4-5.6-1.5c-7-5-13.8-10.3-20.8-15.4c-4.9-3.6-9.7-2.1-11.9,3.6c-1.1,3-2.3,6.1-2.9,9.2c-3.2,16.2-6.3,32.4-6.1,49
		c0,0.5,0,0.9-0.1,1.4c-0.5,5.6-0.5,5.4-6,5.1c-2.3-0.1-5.8-1.5-6.3,2.2c-0.5,3.7,3.3,2.6,5.4,3.2c1.5,0.4,3.2,0.3,4.8,0.6
		c2.7,0.5,3.4,2.7,1.6,4.8l0,0c-0.6,0.3-1.1,0.6-1.7,0.9c-0.2,0-0.4,0-0.6,0c-1.1,0.2-3,0.7-4.4,2.3c-0.3,0.4-1.9,2.1-1.3,3.2
		c0.4,0.7,1.4,0.9,2.2,1c1.6,0.2,2.6-0.2,6.3-1c1.6-0.4,2-0.4,2.5-0.3c1.2,0.3,2,1.4,2.8,2.7c1.3,2.2-0.1,3.4-1.7,4.5
		c-1,0.7-1,0.6-1.3,1c-0.9,0.9-2,2.8-1.2,4.1c0.6,1,2.1,1,2.3,1c1.4,0,2.2-1,2.3-1.1c0.5-0.5,1.3-1.2,2.5-1.8
		c0.7-0.3,1.4-0.7,2.3-0.6c1.1,0,1.8,0.6,4,2.5c1.4,1.2,2.6,2.1,3.3,2.7c2.2,1.4,5.2,3.1,9,4.8C297.4,162.9,305.6,166.6,317.4,168.5
		z"/>
	<path class="st0" d="M316.9,167.6c15.9,2.6,28.2,0.4,31.8-0.3c1-0.2,5.1-1,10.2-2.7c4.8-1.6,10.1-3.4,15.9-7.5
		c1.3-0.9,2.2-1.7,2.9-2.3l2.8-2.5c2.8-2.4-2.8,2.5-2.8,2.5c-0.1-0.1,1-1.6,2.8-2.5c0.6-0.3,1.2-0.6,2-0.5c1.5,0.2,1.8,1.5,3.7,2.3
		c0.9,0.4,2.9,1,3.8,0.1c0.8-0.8,0.3-2.6-0.2-3.6c-0.2-0.4-0.4-1.1-1.5-1.8c-2-1.3-2.5-2.7-1.1-4.8s2.9-3,5.4-1.7
		c1.2,0.6,2.7,1,4,0.9c0.9,0,2.3-0.8,2.5-1.6c0.3-0.8-0.3-2.3-1-2.8c-0.7-0.6-1.1-0.5-3.7-1.7c-1.7-0.7-2.1-1-2.3-1.4
		c-0.3-0.6-0.3-1.3-0.3-2.2c0-0.8,0-1.2,0.2-1.6c0.5-1,1.6-1.4,3-1.5c3.3-0.2,3.9,0.1,5.8-0.6c1.3-0.5,3-1.7,2.9-2.8
		c-0.1-1.2-2.4-1.9-3.7-2.3c-3.5-1.1-5.2,0-6.4-1.2c-0.9-0.9-1-2.8-1.1-6.5c-0.6-17.5-2.7-34.8-7.3-51.8c-0.5-1.7-1.3-3.4-2.1-5.1
		c-2.2-5-6.3-6.5-10.9-3.5c-5.5,3.5-10.7,7.5-15.9,11.4c-1.8,1.4-3.3,3.2-5.3,4.4c-1.4,0.9-3.4,1.6-5,1.3c-10.3-2-20.4-2.1-30.7,0.1
		c-1.7,0.4-4.1-0.4-5.6-1.5c-7-5.1-13.7-10.4-20.7-15.4c-4.9-3.5-9.6-2.1-11.8,3.5c-1.1,3-2.2,6-2.9,9.1c-3.2,16.1-6.2,32.1-6,48.6
		c0,0.5,0,0.9-0.1,1.4c-0.5,5.5-0.5,5.4-6,5.1c-2.2-0.1-5.7-1.5-6.2,2.2c-0.5,3.7,3.3,2.6,5.3,3.2c1.5,0.4,3.2,0.3,4.8,0.6
		c2.7,0.5,3.4,2.7,1.6,4.8l0,0c-0.6,0.3-1.1,0.6-1.7,0.9c-0.2,0-0.4,0-0.6,0c-1.1,0.2-3,0.7-4.4,2.3c-0.3,0.4-1.9,2.1-1.3,3.2
		c0.4,0.7,1.4,0.9,2.1,1c1.5,0.2,2.5-0.2,6.2-1c1.6-0.4,2-0.4,2.5-0.3c1.2,0.3,2,1.4,2.8,2.7c1.3,2.2-0.1,3.4-1.7,4.5
		c-1,0.7-0.9,0.6-1.3,1c-0.9,0.9-2,2.8-1.2,4c0.6,1,2.1,1,2.2,1c1.3,0,2.2-1,2.3-1.1c0.5-0.5,1.3-1.2,2.5-1.8
		c0.7-0.3,1.4-0.7,2.3-0.6c1.1,0,1.8,0.6,4,2.4c1.4,1.2,2.5,2.1,3.2,2.7c2.2,1.4,5.2,3.1,8.9,4.8C297,162,305.2,165.7,316.9,167.6z"
		/>
	<path class="st2" d="M345.1,139.2c0-3.1,3.8-5.9,8.2-6c4-0.1,7.3,2.2,7.3,5c0,3.1-3.8,5.9-8.2,6C348.3,144.2,345.1,142,345.1,139.2
		z"/>
	<path class="st3" d="M328,145.4c-1.4,1.4-2.7,2.7-4.1,4.1c-0.2,0-0.4,0-0.5,0c-1.4-1.5-2.8-3-4.2-4.5c0.4-0.6,0.8-1.2,1.2-1.8
		c2.3,0.1,4.5,0.1,6.8,0.2C327.4,144.1,327.7,144.8,328,145.4z"/>
	<path class="st2" d="M297.7,144.1c-4.3,0-8.3-2.7-8.3-5.8c0-2.8,3.2-5.1,7.2-5.1c4.4,0,8.3,2.7,8.3,5.8
		C304.9,141.8,301.7,144.1,297.7,144.1z"/>
	<path class="st8" d="M319,156.2c0,0.1,0.2,1.9,1.3,3.2c2,2.2,6.3,2.1,8.7,0.2c0.3-0.3,1.5-1.3,2-2.9c0.2-0.8,0.5-1.8,0-2.4
		c-0.9-1.1-2.9,0.5-4.5-0.7c-0.6-0.5-0.9-1.2-2.3-2.3c-0.3-0.2-0.5-0.4-0.8-0.3c-0.6,0.1-0.6,1.1-1.4,1.9c-1,1-2.1,0.5-2.8,1.4
		C318.9,154.8,319,155.5,319,156.2z"/>
	<path class="st5" d="M313.7,149.9c0.1,0.6,0.6,2.8,2.2,4.2c0.7,0.6,1.5,1,2.3,1.1c1.8,0.2,3.1-0.9,3.7-1.4c1.8-1.5,2.2-3.5,2.3-4.2
		c-0.3,0-0.7,0-1,0c-0.1,0.3-0.3,0.7-0.5,1.1c-0.5,0.8-0.9,1.4-1.3,1.7c0,0-0.3,0.2-0.5,0.4c-0.2,0.1-1.9,1-3.4,0.3
		c-0.6-0.3-0.9-0.7-1.2-1c-1-1.2-1.1-2.6-1.1-3.3C314.7,149.1,314.2,149.5,313.7,149.9z"/>
	<path class="st5" d="M334.1,149.3c0,0.6-0.3,2.7-2,4.3c-0.4,0.4-2,1.9-4,1.6c-1.2-0.2-2-0.9-2.5-1.4c-1.6-1.5-2.1-3.3-2.2-4.2
		c0.3,0,0.6,0,0.8,0c0.1,0.2,0.1,0.4,0.2,0.6c0,0.1,0.1,0.3,0.3,0.5c0.1,0.2,0.4,0.6,0.7,1.1c0.2,0.2,0.7,0.8,1.4,1.1
		c1,0.5,2.3,0.5,3.3,0.1c1.5-0.7,2.5-2.3,2.5-4.2C333.2,148.9,333.6,149.1,334.1,149.3z"/>
	<path class="st6" d="M281.1,82.6c2.3-1.3,5.3-2.7,9.1-3.9c3.6-1.1,6.8-1.8,9.4-2.2c-1.2-2.1-2.5-3.7-3.5-4.9
		c-1.3-1.5-3.2-3.1-7.1-6.2c-1.2-0.9-2.3-1.8-3.5-1.6c-0.7,0.1-1.2,0.6-1.8,1.5c-1.7,2.4-2.2,4.6-2.3,5.3c-0.3,1.4-0.6,3.3-0.7,5.9
		C280.7,78.1,280.7,80.2,281.1,82.6z"/>
	<path class="st6" d="M376.7,85.8c-2.1-1.7-4.9-3.7-8.5-5.5c-3.4-1.7-6.5-2.8-9-3.6c1.5-2.2,3-3.8,4.1-5c1.5-1.5,3.6-3,7.9-6
		c1.3-0.9,2.5-1.7,3.7-1.4c0.7,0.2,1.1,0.9,1.6,1.9c1.3,2.8,1.5,5.4,1.6,6.1c0.1,1.6,0.1,3.8-0.2,6.7
		C377.7,80.8,377.4,83.1,376.7,85.8z"/>
	<path class="st7" d="M329.8,206.9c-0.4-0.1-0.9-0.3-1.5-0.4c-0.6-0.1-1.7-0.2-2.8,0.2c-1.6,0.6-2.3,2.1-2.5,2.5
		c0.1,0.4,0.1,0.7,0.2,1.1c0.1-0.2,0.2-0.4,0.4-0.6c0.1-0.2,1.2-1.6,3.1-2c1.6-0.4,2.8,0.3,3.2-0.3
		C329.9,207.4,329.9,207.1,329.8,206.9z"/>
	<path class="st7" d="M331.7,211.8c-0.4-0.1-0.9-0.1-1.6-0.1c-0.6,0-1.7,0.1-2.7,0.7c-1.4,0.9-1.9,2.4-2,2.9
		c0.1,0.4,0.2,0.7,0.3,1.1c0.1-0.2,0.1-0.4,0.3-0.7c0.1-0.2,0.9-1.8,2.7-2.5c1.6-0.6,2.8-0.2,3.1-0.8
		C331.8,212.2,331.7,212,331.7,211.8z"/>
	<path class="st7" d="M361.6,209c-0.4,0-0.9,0-1.6,0c-0.6,0.1-1.7,0.2-2.7,1c-1.4,1-1.7,2.6-1.7,3.1c0.1,0.3,0.3,0.7,0.4,1
		c0-0.2,0.1-0.4,0.2-0.7c0.1-0.2,0.8-1.8,2.4-2.7c1.5-0.8,2.8-0.4,3-1.1C361.7,209.3,361.6,209.1,361.6,209z"/>
	<path class="st7" d="M364.6,213.2c-0.4,0-0.9,0.1-1.6,0.3c-0.6,0.2-1.6,0.5-2.5,1.4c-1.2,1.2-1.2,2.8-1.2,3.3
		c0.2,0.3,0.4,0.6,0.6,1c0-0.2,0-0.4,0.1-0.7c0-0.2,0.4-1.9,2-3.1c1.3-1,2.7-0.9,2.8-1.6C364.8,213.5,364.7,213.3,364.6,213.2z"/>
</g>
<path class="st5" d="M436,57.6c-2.5-1.8-6-0.8-7.9,0.4c-2.4,1.4-3.4,3.7-3.7,4.8c-0.4-1.1-1.4-3.3-3.7-4.8c-1.9-1.2-5.5-2.2-7.9-0.4
	c-2.3,1.7-2.3,5-2.3,5.9c0,0.8,0.1,3.6,4.1,8.5c1.8,2.2,4.9,5.4,9.7,8.2c0,0,0,0,0,0.1l0,0l0,0c0,0,0,0,0-0.1c4.8-2.8,7.9-6,9.7-8.2
	c4-4.8,4.1-7.7,4.1-8.5C438.3,62.6,438.3,59.4,436,57.6z"/>
</svg>
