<?xml version="1.0" encoding="utf-8"?>
<!-- Generator: Adobe Illustrator 23.0.3, SVG Export Plug-In . SVG Version: 6.00 Build 0)  -->
<svg version="1.1" id="Ebene_1" xmlns="http://www.w3.org/2000/svg" xmlns:xlink="http://www.w3.org/1999/xlink" x="0px" y="0px"
	 viewBox="0 0 1387.2 642.9" style="enable-background:new 0 0 1387.2 642.9;" xml:space="preserve">
<style type="text/css">
	.st0{fill:#C5C5C5;}
	.st1{display:none;fill:#FFFFFF;}
	.st2{fill:#7C7C7C;}
	.st3{fill:#CECECE;}
	.st4{fill:#E6E6E6;}
	.st5{fill:#FCFCFC;}
	.st6{fill:#F6F7F7;}
	.st7{fill:#6B6969;}
	.st8{fill:#CF4561;}
	.st9{fill:#CD4166;}
	.st10{fill:#7B7A7A;}
	.st11{fill:#FBFBFB;}
	.st12{fill:#FAFAFA;}
	.st13{fill:#737272;}
	.st14{fill:#20201E;}
	.st15{fill:#CC3E63;}
	.st16{fill:#E5385D;}
	.st17{fill:#FF99A3;}
	.st18{fill:#8E5960;}
</style>
<g>
	<path class="st0" d="M0.7,385.7c-0.1,1.9-0.1,3.7-0.2,5.6c0,1.2,0.1,2.5,0.1,3.7C0.5,395,0.2,395,0,395c0-3,0-6.1,0-9.1
		C0.2,385.8,0.5,385.8,0.7,385.7z"/>
	<path class="st1" d="M0,395c0.2,0,0.5,0.1,0.7,0.1c0,0.7,0,1.4,0,2.1c0,0.1-0.5,0.2-0.7,0.3C0,396.6,0,395.8,0,395z"/>
	<path class="st2" d="M328,539.5c0.1,0.2,0.2,0.4,0.3,0.6C328.2,539.9,328.1,539.7,328,539.5z"/>
	<path class="st2" d="M330.6,548.2c0.1,0.1,0.1,0.3,0.1,0.4C330.7,548.4,330.6,548.3,330.6,548.2z"/>
	<path class="st2" d="M329.2,543.9c0,0.1,0,0.2,0.1,0.3c0,0-0.1-0.1-0.1-0.1L329.2,543.9z"/>
	<path class="st2" d="M324.2,464.6c0.1,0.1,0.1,0.2,0.2,0.3c0,0-0.1,0.1-0.1,0.1C324.2,464.9,324.1,464.7,324.2,464.6z"/>
	<g>
		<path class="st3" d="M664.7,145.9c-1.2-11.2-3.2-22.3-6.8-33c-4.1-12.3-9.6-24-15.8-35.4c-3.6-6.6-7.2-13.2-12.1-19
			c-2.7-3.2-5.7-6-8.6-9c-0.6-0.6-1.4-1-2.4-1.6c-0.6,1.1-1.1,1.9-1.5,2.9c-1.8,4.3-4.7,5.6-9,3.7c-2.7-1.2-5-3-6.9-5.1
			c-4.1-4.3-8-8.7-12-13.1c-5.1-5.5-10.2-11-15.4-16.4c-1-1.1-2.4-1.9-3.5-2.8c-0.2,0.2-0.3,0.3-0.5,0.5c0.4,0.9,0.8,1.7,1.1,2.7
			c0.4,1.6-0.3,2.4-1.9,2c-1.4-0.4-2.9-1-4.2-1.7c-3.7-2-7.4-4.1-11-6.2c-6.6-3.8-13.5-6.8-20.8-9c-0.5-0.2-0.9-0.6-1.4-0.9
			c-6.1,0-12.2,0-18.2,0c0.7,0.8,1.4,1.7,2.2,2.3c4,2.8,8,5.5,12,8.4c1,0.7,2,1.6,2.8,2.6c1.2,1.5,0.6,2.8-1.3,3
			c-1.1,0.1-2.3,0-3.3-0.2c-5-1.1-10-2.2-15-3.3c-10.7-2.4-21.6-3.7-32.6-3.2c-7.9,0.4-15.6,1.4-23,4.3c-5.4,2.1-10.4,5-14.8,8.7
			c-0.7,0.6-1.3,1.2-1.9,1.8c-0.2,0.2-0.2,0.4-0.4,0.8c0.6,0.2,1.1,0.5,1.7,0.6c2,0.3,4.1,0.6,6.2,0.9c2.3,0.4,4.6,0.7,6.8,1.5
			c5.2,1.8,10.5,2.8,15.8,3.9c11.6,2.4,22.8,5.7,33.2,11.5c6.9,3.9,13.3,8.6,19.5,13.5c3.1,2.4,6.1,4.9,9.1,7.5
			c0.7,0.6,1.7,1.2,1.3,2.3c-0.5,1.1-1.6,0.8-2.6,0.7c-5.5-0.5-11-1-16.5-1.4c-2.1-0.2-4.3-0.4-6.4,0.7c0.2,1.2,1.1,1.6,2,2
			c2.7,1.2,5.4,2.5,8.1,3.5c23.9,9.2,45,22.5,62.6,41.2c8.1,8.6,14.6,18.4,18.7,29.6c2.6,7.3,4.3,14.7,4.8,22.5
			c0.1,1.5,0.1,3-0.1,4.5c-0.3,2.8-1.7,3.5-4.1,2.2c-3-1.5-5.9-3.3-8.8-4.9c-0.6-0.3-1.2-0.6-2.4-1.1c0.5,1.4,0.8,2.3,1.1,3.2
			c4.3,11.5,8.1,23.2,10.2,35.4c2.7,15.9,2.1,31.5-2.2,47c-1.5,5.3-3.3,10.5-4.9,15.8c-0.1,0.3-0.4,0.6-0.9,1.4
			c-0.1-1-0.2-1.5-0.3-2c-0.4,0.1-0.9,0.2-1,0.4c-1.6,2.2-3.1,4.4-4.6,6.6c-0.1,0.2-0.1,0.5-0.1,0.7c3.1,0.5,6.1,1,9.2,1.6
			c9.7,2,18.8,5.7,27.2,10.9c-0.2-1.8-0.4-3.5-0.7-5.3c0.2,0,0.4-0.1,0.7-0.1c0.3,1.3,0.7,2.5,1.2,4.3c2-3,3.9-5.5,5.5-8.2
			c3.8-6.1,6.5-12.7,8.7-19.4c3.9-12.1,8.6-23.9,14.3-35.3c4-7.9,6.6-16.3,8.4-24.9c1.8-8.3,3.7-16.5,5.2-24.9
			C665.9,167.4,665.9,156.7,664.7,145.9z"/>
		<path class="st3" d="M648.9,321.8c-2.7-6.6-6.7-15.8-15.8-24c-7.2-6.5-14.4-9.2-21.1-11.8c-9.9-3.9-18.7-5.3-24.8-5.9
			c-1.4-1.5-3.2-4-4.3-7.4c-0.5-1.4-0.2-1.2-1.1-6.9c-0.8-4.6-1.6-9.1-2.3-13.7c-0.3-2.2-1.1-4-2.9-5.2c0.3-1.3,0.7-2.6,1-3.8
			c-0.7-2.6-1.3-5.3-2-7.9c-0.8-3.2-1.7-6.4-2.6-9.6c-0.2-0.8-0.6-1.7-1.1-2.4c-0.5-1-1.2-1.5-2.5-1c-1.6,0.7-2.1,0.4-2.7-1.3
			c-0.6-1.6-1-3.2-1.2-4.9c-1.5-10.3-3-20.6-4.4-30.9c-1.5-10.9-2.9-21.7-4.4-32.6c-0.3-2.3-1-4.6-1.7-6.8c-0.7-2.1-2-3.6-4.3-4.1
			c-8.1-1.7-14-6.7-19.2-12.7c-7.9-9-13.8-19.4-19.7-29.8c-1-1.7-2-3.5-3.2-5.6c-0.6,0.9-0.9,1.5-1.3,2.1c-1.1,1.6-2.2,3.2-3.3,4.8
			c-0.6,0.8-1.4,1.5-2.4,1.2c-1.2-0.4-1.2-1.5-1.3-2.6c0-0.5-0.1-1.1-0.2-1.9c-1.5,0.9-2.3,2.1-3.1,3.2c-2.9,4-5.7,8-8.7,12
			c-3.4,4.6-7,9-11.3,12.9c-1.4,1.2-2.8,2.4-4.4,3.3c-2.8,1.6-5,0.7-6.2-2.3c-0.5-1.3-0.7-2.6-1.1-4c-0.2-0.8-0.4-1.7-0.6-2.7
			c-1.4,0.4-1.9,1.5-2.4,2.4c-2.6,4.9-5.2,9.8-7.8,14.8c-5.5,10.7-11,21.4-16.5,32c-0.8,1.5-1.8,2.9-2.6,4.3
			c0.1,0.1,0.3,0.2,0.4,0.3c0.4,1.5-0.9,2.3-1.5,3.3c-0.4,0.5-1.4,0.6-2.2,0.9c0.1,0.5,0.4,1.3-0.7,1.5c0.6,4.3,1,7.1,1,7.1l0,0
			c0,0-3.1-4.6-8-11.7c-0.3,3.8-1.1,7.9-2.8,12.1c-0.2,0.4-0.3,0.8-0.5,1.2c-0.9-1.9,0.3-2.3,0.6-3.1c0-1.5-1.3-2.2-2-3.2
			c-0.9,0.3-1.9,0.7-2.8,1c2.1-1.5,1.4-3.6,1.4-5.6c-0.2-9.7-0.6-19.3-0.8-29c-0.1-5.4,0-10.8,0-16.2c0-4.3-0.6-8.5-1.4-12.7
			c-0.7-3.6-1.3-7.1-1.6-10.7c-0.6-6.8-0.9-13.7-1.5-20.5c-0.3-3.8-0.9-7.5-2.2-11.6c-0.5,1.1-0.9,1.8-1.2,2.5
			c-0.6,1.4-1.2,2.8-1.9,4.2c-0.4,0.8-0.8,1.8-1.9,1.5c-0.6-0.2-1.1-1.1-1.3-1.8c-0.4-1-0.5-2-0.6-3.1c-0.2-1.8-0.3-3.7-0.6-5.5
			c-1.3-8-2.7-16-4.1-24.1c-0.8-4.6-2.3-8.9-4.2-13.1c-2.3-5.3-4.5-10.5-6.7-15.8c-1.8-4.2-3.5-8.3-5.3-12.5
			c-0.5-1.2-0.9-2.5-2.2-3.4c-0.4,0.6-0.8,1.2-1.2,1.7c-1.1,1.3-2.1,1.2-3.1-0.3c-0.3-0.5-0.5-1-0.7-1.5c-1-2-1.9-4.1-2.9-6.1
			c-0.3,0.2-0.7,0.4-0.9,0.7c-1.4,2-2.6,4.1-4.1,6c-6.5,8.2-13.9,15.5-22.5,21.4c-0.7,0.5-1.5,0.9-2.3,1.3c-1.6,0.6-2.3,0.1-2.1-1.7
			c0.1-0.9,0.3-1.8,0.5-2.9c-0.6,0.3-0.8,0.4-1,0.5c-6.4,4.8-12.7,9.7-18.5,15.2c-5.1,4.8-10.3,9.5-13.2,16.2
			c-0.7,1.6-1.7,1.9-3.5,1.6c-1.7-0.3-3.4-0.4-5-0.5c-2.4-0.2-4.9,0-7.2-0.4c-7.2-1.2-14.4-2-21.6-2.4c-7.1-0.4-14.2-0.8-21.3-0.2
			c-2.8,0.2-5.6,0.3-8.5,0.4c-0.7,0-1.1-0.1-1-0.9c-1.2,0.5-2.3,0.2-3.4-0.4c-1.8-1-3.7-2.1-5.5-3.1c-0.5-0.3-1.1-0.5-1.9-0.5
			c0.2,0.4,0.5,0.9,0.8,1.3c0.3,0.5,0.8,0.8,1.1,1.3c1,1.6,0.7,2.5-1.2,2.5c-1.5,0.1-3.1,0.2-4.6-0.1c-6.1-1.3-12.1-2.9-18.1-4.3
			c-2.1-0.5-3.9-1.5-5.3-3.1c-0.9-1-1.7-1.9-2.6-2.9c-0.6-0.6-1.2-1.3-1.9-1.9c-4.4-3.3-8.8-6.5-13.2-9.8c-3.1-2.4-6-4.9-9-7.4
			c-0.4-0.3-0.9-0.6-1.7-1.1c0.3,1.4,0.5,2.3,0.9,3.6c-1-0.3-1.5-0.4-1.9-0.7c-3.9-2.4-8-4.2-12.4-5.3c-2.9-0.8-5.5-2.2-7.8-4.1
			c-3.4-2.8-6.9-5.3-10.4-7.9c-1.6-1.2-3.2-2.4-4.9-3.5c-1.5-0.9-3-1.8-4.7-2.5c-2.4-1-4.9-1.7-7.3-2.7c-1.2-0.5-2.2-0.4-2.9,0.8
			c-0.7,1.1-1.3,2.2-1.8,3.4c-0.7,1.5-1.1,3.2-1.9,4.7c-1.5,3.3-2.9,6.6-3.7,10.2c-0.4,1.8-1.1,3.5-1.9,5.2
			c-3.2,6.8-4.8,14-5.5,21.4c-0.1,1-0.3,2.1-0.5,3.1c-0.1,0.5-0.5,0.9-0.9,1.5c-1.5-1.5-1.5-3.4-1.9-5c-0.5-1.7-0.8-3.5-1.5-5.3
			c-0.2,0.5-0.4,1.1-0.5,1.6c-0.9,9.4-3.2,18.6-4.9,27.9c-0.9,5.1-2.4,10-3.9,15c-3.7,12.5-6.3,25.2-7.2,38.2
			c-0.1,1.4-0.3,2.7-0.7,4c-0.4,1.3-1.3,1.4-2.1,0.3c-0.4-0.6-0.8-1.2-1.1-1.9c-1.3-2.7-2.5-5.4-4.2-8.1c-0.1,0.7-0.4,1.4-0.4,2.1
			c0,3.9-0.1,7.9,0,11.8c0.5,14.4,2.2,28.6,3.9,42.9c0.1,1.2,0.1,2.4,0.1,3.6c0.4,1.4,0.7,2.9,2,3.9c0.4,0.4,0.9,0.8,1.2,1.4
			c1,1.7,1.8,3.4,2.7,5.1c1.6,3,3.3,5.9,4.9,8.9c0.5,0.8,0.8,1.8,1,2.7c0.2,1.1-0.5,1.7-1.6,1.4c-0.9-0.3-1.8-0.7-2.6-1.2
			c-1.1-0.6-2.3-1.2-3.4-1.8c-0.1,0.1-0.2,0.3-0.3,0.4c1.6,2.5,3.2,5,4.9,7.4c5.8,7.9,11.8,15.7,17.7,23.6
			c4.9,6.6,9.6,13.3,14.8,19.7c4.1,5.1,8.7,9.7,13.1,14.6c5.6,6.3,11.8,9.8,15.3,12c1.6,1,5.4,3.4,10.7,6c7.9,3.9,7.7,2.6,15.9,6.4
			c5.8,2.7,16,7.6,18.4,8c0.8,0.2,1.6,0.3,2.3,0.7c0.3,0.1,0.3,0.4,0.7,0.7c0.6,0.6,1.1,0.9,1.5,1.1c-1.2-0.1-3.1-0.4-5.3-0.7
			c-5.1-0.7-7.7-1.3-10.5-1.7c-5-0.8-8.4-0.7-12.1-1c-12.9-1.2-25.8-2.4-38.8-3.5c-12.6-1-25.1-0.6-37.6,1.4
			c-20.7,3.3-39.9,10.2-57,22.7c-13.7,10.1-23.6,23-28.7,39.4c-4.9,15.9-5.9,32.1-3.6,48.6c2.8,19.5,9.8,37.5,20.5,54.1
			c9.7,15.1,22,28,35.6,39.7c12.7,11,26.2,21,39.9,30.7c11.9,8.4,23.8,16.9,35.7,25.4c4.9,3.4,9.8,6.8,14.8,10.1
			c1.3,0.9,2.8,1.4,4.3,2.1c2.4,1.1,4.5,3,7,3.7c0.2,0,0.7,0.2,0.8,0.6c0.1,0.2,0,0.4-0.1,0.6c-0.1,0.5-1,5.1-2.9,6.8
			c-0.6,0.5-1.1,0.7-1.1,0.7c-0.9,0.1-1.9,0.1-2.8-0.1c-2.7-0.6-5.5-1.4-8.2-2.1c-7.4-2.1-14.7-4.3-22.1-6.3
			c-4.6-1.2-9.3-2.1-14.1-1.7c-4.2,0.4-7.9,1.9-10.4,5.4c-2.8,3.7-4.8,7.8-5.3,12.5c-1.3,13,3.3,16.4,0.1,24.4
			c-0.5,1.3-1.8,4.1-1.8,8c0,2.4,0.5,4.4,1,5.7c1.4-0.9,3.4-2.4,5.4-4.7c3.5-3.8,2.8-6.1,7.3-11.6c2.8-3.4,5.5-6.9,8.2-10.5
			c1.5-2,3.1-3.8,5.2-5c2.8-1.6,5.7-3,9.1-4.8c-0.2,1.4-0.3,2.2-0.5,2.9c-0.3,1.2-1,2.4-1.1,3.7c-0.2,2.8-1.2,11.5,3.1,20.3
			c2,4.1,4.3,6.9,4.5,12.1c0.1,1.1,0,2-0.1,2.7c1-1.2,2.6-3.1,4.3-5.7c1.3-2,2-3.6,2.5-4.1c3.8-3.9,6.5-8.6,9.3-13.2
			c2.7-4.5,5.7-8.9,8.7-13.4c2.9-0.2,5.7-0.4,8.6-0.5c0.8,0,1.6,0.2,2.3,0.5c1.6,0.8,3,1.8,4.6,2.6c1.4,0.7,1.8,1.7,1.9,3.1
			c0.3,4.1,0.6,8.2,0.9,12.3c0.4,6,1.9,11.6,4.7,16.8c-0.2,2.1-0.4,4.1-0.6,6.2c2.7-2.1,5.4-4.2,8.2-6.3c1.8-1.4,2.5-3.6,3.1-5.6
			c1.3-4.6,2.4-9.3,3.6-14c1.2-4.2,3.1-7.8,8.2-8.2c0.7-0.1,1.4-0.2,2.2-0.2c6.6-0.3,10.8-0.2,15.5,1.8c1.4,0.6,3.4,1.6,5.6,3.5
			c0.9,1.7,1.8,3.3,2.7,5c-0.9-6.8-3-11.8-4.6-15c-1.9-3.7-4.2-7.2-9.7-13.4c-2.6-2.9-5.1-5.8-7.7-8.6c-1.6-1.7-3.4-3.1-5.2-4.7
			c-0.9-0.7-1.9-1.3-2.7-2c-6.7-5.8-13.4-11.7-20-17.6c-16.1-14.3-23-19.1-43.3-40.1c-10.1-10.5-19.2-20.1-29.2-34.3
			c-9.2-13-14.7-23.5-18.6-31.2c-10.1-19.5-11.6-27.9-12-30.6c-1-6.2-2.4-14.6,0.5-24.7c4.8-17,17.9-26,21.4-28.3
			c8.3-5.5,16-7.3,27.6-9.9c8.5-1.9,15.1-2.4,21.1-2.9c13.6-1.1,20.6-0.2,23.1,0.3c5.1,1,8.9,2.5,13.7,4.1c2.5,0.8,2.6,0.9,2,3.4
			c-0.1,0.2-0.1,0.5-0.2,0.7c-2,6.3-2.2,12.8-1.5,19.2c0.9,8.2,3.8,16,7.7,23.3c5.5,10.4,13.3,18.7,22.5,25.9
			c10.4,8.2,22.1,14.2,34.3,19.1c10.1,4.1,20.4,7,31.2,8.3c8.5,1,9.2-0.3,23.7,0.8c6.7,0.5,13.5,0.1,20.2,0.8
			c0.9,0.1,3.5,0.4,6.9-0.3c3.1-0.6,5.3-1.6,6.1-2c12.1-5.8,22-4.8,27.3-13c0.7-1,1.7-2.9,2.3-5.6c-0.7-6.2-1.5-12.3-3.2-18.3
			c-2.8-9.9-8.2-18-16.2-24.4c-6.6-5.3-13.9-9.4-21.8-12.4c-3.7-1.4-7.5-2.6-11.2-3.9c-1.1-0.4-2.1-0.8-3.1-1.4
			c-0.3-0.2-0.3-0.8-0.7-1.7c2.3,1.7,4.4,2.1,6.5,2.7c10.3,3,19.9,7.4,28.6,13.8c4.8,3.5,8.8,7.6,12,12.2c2.8,4,6.7,9.6,7.6,16.6
			c1.1,9.3-4.2,13.6-7.9,24.7c-2.2,6.7-1.3,8.1-2.3,29.1c-1.7,35-4.4,34.1-4.1,55.4c0,2.4,0.2,10.6-0.8,21.5
			c-1.1,12.1-1.8,18.2-5.3,21.9c-3.6,3.8-6.2,2.4-24,7.9c-11.8,3.7-14.4,5.4-15.8,8.2c-2.6,5.2,0.3,11.7,2,14.8
			c2.8,5.9,6.2,8.5,8.6,9.8c6.9,3.7,16.3,2.3,31.3,1.1c1.3-0.1,1.8-0.2,2-0.3c0.1,0,0.4,0.1,0.8,0.2c0.9,0.2,2.2-0.3,2.7,0.2
			c0.5,0.5,0.3,1.8,0.3,2.7c0.6,8.8,1.2,17.5,1.8,26.3c0,0.2,0.2,0.4,0.5,0.8c0.7-0.6,1.3-1.1,1.9-1.6c4.6-4.3,7.8-9.6,10.8-15
			c3.4-6.1,4.8-12.8,5.9-19.6c0.1-0.6-0.1-1.7-0.6-1.9c-2.6-1.4-4.6-4-7.8-4.1c-0.2,0-0.5-0.3-1.1-0.8c0.9-0.3,1.6-0.7,2-0.5
			c1.4,0.4,2.7,0.9,4,1.5c1.2,0.6,2.3,1.5,3.4,2.3c1.8,1.1,2.1,1.9,1.8,4c-0.3,1.6-0.6,3.3-0.9,4.8c0.3,0.2,0.3,0.3,0.4,0.3
			c4.8,2.4,8.5,5.8,10.1,11.1c0.3,0.9,0.8,1.8,1.2,2.6c1.9,4.5,3.8,9.1,5.6,13.6c0.4,0.9,0.6,1.8,0.9,2.7c0.2,0,0.4,0,0.6,0.1
			c1.2-2.1,2.6-4.1,3.4-6.3c2.6-6.7,4.1-13.7,4.4-21c0.1-1.7-0.4-3.1-1.4-4.5c-2.4-3.1-5-5.9-8.4-7.9c-0.3-0.2-0.8-0.4-1-0.7
			c-0.2-0.3-0.2-0.8-0.3-1.3c0.4-0.1,0.9-0.3,1.3-0.2c0.5,0.1,0.9,0.4,1.3,0.7c3.7,2.3,6.6,5.4,9.1,8.9c1,1.4,1.3,2.9,1.2,4.6
			c0,1.3-0.1,2.7-0.2,4.1c1.1,0.3,2,0.6,2.9,0.8c2.4,0.3,3.9,1.8,4.8,3.9c2,5,3.9,10.1,5.9,15.1c0.2,0.6,0.6,1.1,1.1,2.2
			c1.1-2.5,1.9-4.5,2.7-6.5c0.1-0.6,0.3-1.1,0.4-1.7c0.2-6.5,0.3-12.9,0.5-19.4c-0.1-0.1-0.1-0.3-0.1-0.4c-0.1-0.3-0.2-0.7-0.4-1
			c-0.4-2.4-1.6-4.2-3.9-5.1c-0.3-0.1-0.6-0.3-0.8-0.5c-4.5-3.6-9.6-6.3-14.8-8.5c-4.5-1.9-9.2-3.5-14.1-4.2c-1.7-0.2-3.4-0.6-5.3-1
			c0.1-0.6,0.2-1.1,0.4-1.5c0.2-0.4,0.4-0.9,0.6-1.3c5.5-7.9,9-16.9,14.1-25c8.6-13.5,16.8-35.6,24.2-55.3
			c7.1-19,10.7-28.6,13.4-40.5c6.8-29.8,4.8-50.3,4.3-54.8c-1.2-11.2-3.5-20-4.8-24.6c-2-6.9-4.6-15.9-10.5-26.3
			c-8.9-15.8-20.1-25.3-24.2-28.7c-3.5-2.8-18.1-14.4-35-17.9c-8.2-1.7-18.2-1.7-20.3-1.7c-1.9,0-3.8,0-6.2,0.3
			c-5,0.6-8.9,2-11.6,3.1c0.2-0.2,0.6-0.5,1-0.8c2.1-1.5,7.3-4.9,18.6-5.7c2.1-0.2,8.8-0.5,17.9,1.2c4.6,0.9,14.3,3.1,25.2,9.4
			c6.5,3.7,10.7,7.4,15.1,11.2c2.5,2.2,13.1,11.3,20.6,22c13.4,19,15.8,40.9,16.3,51.8c1.3-0.4,2.8-1,4.5-1.8
			c0.7-0.3,1.5-0.7,2.7-1.4c2.1-1.2,3.1-2.3,7-4.5c6.3-3.6,13.1-5.9,19.7-8.6c3.5-1.4,7-2.1,10.8-2c6.9,0.1,13.9-0.1,20.8-0.9
			c3.2-0.4,6.5-0.4,9.6-1.3c4-1.1,8-2.6,11.8-4.2c7.9-3.3,14.6-8.6,21.2-13.8c1-0.8,1.9-1.9,2.7-2.7c-0.2-0.4-0.2-0.5-0.2-0.5
			c-0.3-0.2-0.6-0.3-0.8-0.5c-8.3-3.9-17.1-5.8-26.2-6c-9.8-0.3-19.3,1.5-28.5,4.5c-0.8,0.3-1.6,0.5-2.4,0.7
			c-0.1-0.2-0.2-0.4-0.3-0.6c0.6-0.4,1.3-0.8,1.9-1c7.9-2.7,16-4.5,24.4-4.8c10.7-0.4,21.1,1.3,30.9,5.7
			c10.8,4.9,19.4,12.3,25.3,22.7c5.5,9.7,7.7,20.3,8.1,31.3c0.6,15.1-2,29.9-5.8,44.5c-2.8,10.8-5.8,21.5-10.2,31.7
			c-1.9,4.4-3.5,8.8-5.3,13.2c-3.8,9.1-7.9,18-11.6,27.1c-2.4,5.8-4.9,11.6-8,17.1c-1.9,3.4-3.6,6.9-5.3,10.3
			c-0.1,0.1-0.2,0.3-0.3,0.4c-0.1,0.1-0.1,0.3-0.2,0.4c0,0.6,0.1,1.2-0.1,1.7c-2,5.4-3.7,10.9-7,15.7c-0.5,0.8-0.8,1.8-1.3,2.5
			c-0.3,0.4-0.9,0.7-1.4,1c-0.1,0.3-0.2,0.5-0.3,0.8c0,1.1,0.1,2.3-1.4,2.6c-0.1,0.2-0.3,0.3-0.4,0.5c-0.1,0.1-0.1,0.2-0.1,0.3
			c-0.1,0.2-0.3,0.5-0.4,0.7c-0.1,0.1-0.1,0.1-0.1,0.2c-0.1,0.2-0.3,0.5-0.4,0.7l-0.1,0.1l0.1,0.1c0,1.2,0.1,2.3-1.4,2.7
			c-0.7,1.6-1.4,3.2-2.1,4.9c-5.1,12.6-7.6,25.8-8.8,39.3c-0.2,2.5,0,5,0.3,8.1c1.2-1.4,2.2-2.4,3-3.4c5.4-6.8,10.9-13.6,16.2-20.5
			c2.5-3.2,5.4-5.7,9-7.5c4-1.9,6.5-1.3,8.1,3.2c2.5,6.7,5.1,13.4,7.7,20.1c0.3,0.8,0.7,1.7,1.1,2.4c1.4,2.2,2,4.6,2.6,7
			c0.1,0.4,0.2,0.8,0.5,1.6c0.9-1.4,1.4-2.4,2.2-3.4c4.3-5.4,6.6-11.6,8-18.2c1.4-6.6,2.2-13.2-0.7-19.7c0.1-0.1,0.2-0.3,0.3-0.4
			c0.3-0.1,0.6-0.3,0.9-0.3c3.2-0.2,6.4-0.3,9.6,0.6c4.1,1.1,7.3,3.3,9.3,7.1c1.3,2.5,2,5.3,1.9,8.2c-0.1,3.3-0.4,6.6-0.6,9.9
			c0,0.7-0.5,1.4,0.6,2c0.5-0.5,1-0.9,1.5-1.5c3.9-4.8,7.1-10,9.5-15.7c2-4.6,3.1-9.5,2.8-14.6c-0.5-7.9-5.1-13.1-12.8-14.5
			c-4.3-0.8-8.5-0.6-12.8,0c-8.7,1.2-17.6,1.4-25.5,5.8c-0.1,0-0.1,0.1-0.2,0.1c-1.8,0.6-3,0.3-4.2-1.4c-1.6-2.4-2.7-4.9-3-7.8
			c-0.2-1.7-0.1-3.1,1.4-4.3c0.9-0.7,1.6-1.8,2.3-2.8c6.1-8.2,12.2-16.4,18.3-24.6c0.3-0.4,0.8-0.8,0.8-1.2c0.1-1.9,1.3-3.2,2.4-4.6
			c1.8-2.4,3.6-4.8,5.4-7.1c8.5-10.4,16.2-21.3,22.3-33.3c1.4-2.6,3.1-5.1,4.7-7.6c4-6.4,8.3-12.7,12-19.3
			c12.1-21.4,21.2-44,27.2-67.8c4.5-17.8,7-35.9,5.8-54.4C655,342.2,653,331.8,648.9,321.8z"/>
		<path class="st4" d="M660.7,145.9c-1.2-11.2-3.2-22.3-6.8-33c-4.1-12.3-9.6-24-15.8-35.4c-3.6-6.6-7.2-13.2-12.1-19
			c-2.7-3.2-5.7-6-8.6-9c-0.6-0.6-1.4-1-2.4-1.6c-0.6,1.1-1.1,1.9-1.5,2.9c-1.8,4.3-4.7,5.6-9,3.7c-2.7-1.2-5-3-6.9-5.1
			c-4.1-4.3-8-8.7-12-13.1c-5.1-5.5-10.2-11-15.4-16.4c-1-1.1-2.4-1.9-3.5-2.8c-0.2,0.2-0.3,0.3-0.5,0.5c0.4,0.9,0.8,1.7,1.1,2.7
			c0.4,1.6-0.3,2.4-1.9,2c-1.4-0.4-2.9-1-4.2-1.7c-3.7-2-7.4-4.1-11-6.2c-6.6-3.8-13.5-6.8-20.8-9c-0.5-0.2-0.9-0.6-1.4-0.9
			c-6.1,0-12.2,0-18.2,0c0.7,0.8,1.4,1.7,2.2,2.3c4,2.8,8,5.5,12,8.4c1,0.7,2,1.6,2.8,2.6c1.2,1.5,0.6,2.8-1.3,3
			c-1.1,0.1-2.3,0-3.3-0.2c-5-1.1-10-2.2-15-3.3c-10.7-2.4-21.6-3.7-32.6-3.2c-7.9,0.4-15.6,1.4-23,4.3c-5.4,2.1-10.4,5-14.8,8.7
			c-0.7,0.6-1.3,1.2-1.9,1.8c-0.2,0.2-0.2,0.4-0.4,0.8c0.6,0.2,1.1,0.5,1.7,0.6c2,0.3,4.1,0.6,6.2,0.9c2.3,0.4,4.6,0.7,6.8,1.5
			c5.2,1.8,10.5,2.8,15.8,3.9c11.6,2.4,22.8,5.7,33.2,11.5c6.9,3.9,13.3,8.6,19.5,13.5c3.1,2.4,6.1,4.9,9.1,7.5
			c0.7,0.6,1.7,1.2,1.3,2.3c-0.5,1.1-1.6,0.8-2.6,0.7c-5.5-0.5-11-1-16.5-1.4c-2.1-0.2-4.3-0.4-6.4,0.7c0.2,1.2,1.1,1.6,2,2
			c2.7,1.2,5.4,2.5,8.1,3.5c23.9,9.2,45,22.5,62.6,41.2c8.1,8.6,14.6,18.4,18.7,29.6c2.6,7.3,4.3,14.7,4.8,22.5
			c0.1,1.5,0.1,3-0.1,4.5c-0.3,2.8-1.7,3.5-4.1,2.2c-3-1.5-5.9-3.3-8.8-4.9c-0.6-0.3-1.2-0.6-2.4-1.1c0.5,1.4,0.8,2.3,1.1,3.2
			c4.3,11.5,8.1,23.2,10.2,35.4c2.7,15.9,2.1,31.5-2.2,47c-1.5,5.3-3.3,10.5-4.9,15.8c-0.1,0.3-0.4,0.6-0.9,1.4
			c-0.1-1-0.2-1.5-0.3-2c-0.4,0.1-0.9,0.2-1,0.4c-1.6,2.2-3.1,4.4-4.6,6.6c-0.1,0.2-0.1,0.5-0.1,0.7c3.1,0.5,6.1,1,9.2,1.6
			c9.7,2,18.8,5.7,27.2,10.9c-0.2-1.8-0.4-3.5-0.7-5.3c0.2,0,0.4-0.1,0.7-0.1c0.3,1.3,0.7,2.5,1.2,4.3c2-3,3.9-5.5,5.5-8.2
			c3.8-6.1,6.5-12.7,8.7-19.4c3.9-12.1,8.6-23.9,14.3-35.3c4-7.9,6.6-16.3,8.4-24.9c1.8-8.3,3.7-16.5,5.2-24.9
			C661.9,167.4,661.9,156.7,660.7,145.9z"/>
		<path class="st4" d="M311.8,592.1c1.8-0.5,2-2.6,4.3-4.9c0.7-0.7,1.4-1.2,6-3.4c4.9-2.3,8.9-4.1,11.7-5.3c3.5-1.5,5.2-2.2,6.1-2.6
			c4.1-1.5,6.2-1.9,10-3.6c1.8-0.8,3.2-1.5,4-2c0.1-0.6,0.3-1.6,0.4-2.8c0.9-7.1,0.7-12.4,0.7-13.8c-0.1-4,0.3-8,2.6-25.4
			c3.5-27.2,5.2-40.8,6-45.4c2-12.4,3.7-20.3,4.2-33.5c0.2-5.7,0.1-10.5,0-13.7c-1.1,0.6-2.2,1.2-3.3,1.7c-1.7,0.9-3.4,1.7-5.1,2.4
			c-4,2.4-7.5,3.8-9.9,4.6c-5,1.7-10,3.6-15,5.4c-0.2,0.1-0.7,0.2-1.2,0.7c-0.6,0.5-1,1.1-1.4,2c-3.2,6.5-3.8,13.4-4.3,20.4
			c-0.1,2-0.2,4-0.4,6c0,0.6,0,1.4-1,1.1c0,0.2,0,0.3,0,0.5c0.9-0.2,0.9,0.4,0.9,1c0,1.8-0.1,3.7-0.1,5.5c0.1,6.7,0.1,13.4,0.5,20.1
			c0.3,5.3,0.9,10.7,1.6,15.9c1.1,8.5,2.8,17,5.6,25.2c0.1,0.3,0.7,1.6,1.4,3.5c0.7,2,1.3,3.6,1.6,4.7c0.1,0.8,0.2,1.6,0.3,2.5
			c0.1,0.7,0.3,1.5,0.5,2.2c0.7,0.5,1.3,0.9,2.4,1.6c-1.9,0-5.2-1.4-9-3.7c-5.4-2.6-10.7-5.3-16.1-7.9c-2.2-1.1-4.5-2-6.9-2.8
			c-1.4-0.5-2.9-0.8-4.4-1.1c-5.6-1-10.1,0.9-13.4,5.4c-3,4-5,8.5-6.8,13.2c-1,2.6-1.8,5.3-2.6,8c-0.2,0.5-0.1,1.1-0.1,2
			c1.1-0.4,2-0.5,2.9-0.9c2.5-1.1,4.9-2.3,7.5-3.2c1.9-0.7,4-1.3,6-1.5c3.9-0.4,5.8,1.8,4.9,5.5c-0.6,2.4-1.7,4.6-2.6,6.9
			c-0.7,1.6-1.5,3.2-2,4.9c-0.5,1.6-0.1,2.3,1.6,2.5c2.3,0.1,4.6,0,6.9-0.1C309.1,592.3,310.8,592.4,311.8,592.1z"/>
		<path class="st4" d="M641.6,324.8c-2.7-6.6-6.7-15.7-15.7-23.8c-7.1-6.4-14.1-9.1-20.9-11.7c-18.8-7.1-35.8-6.9-44.8-6.1
			c-7.8,0.7-23.6,1.9-39.3,11.1c-9.4,5.5-31.3,21-34,22.8c-0.1,0.1-1.1,0.7-2.4,1.6c-0.5,0.4-1,0.7-1.6,1.1c0.8-1.2,1.5-2.2,1.9-2.8
			c8.1-10.9,17.6-15.5,20.2-17.2c0.3-0.2,0.6-0.3,0.9-0.4c0.8-0.6,1.6-1.2,2.5-1.8c6.6-4.2,13.6-7.8,20.8-10.7
			c13.5-5.4,27.5-8.1,42-8c1.7,0,3.5,0.1,5.2,0.2c-0.1-1-0.2-2-0.4-3.1c-0.4-2.3-0.7-4.5-1.1-6.8c-0.8-4.5-1.6-9-2.3-13.6
			c-0.3-2.2-1.1-3.9-2.9-5.2c0.3-1.3,0.7-2.6,1-3.8c-0.7-2.6-1.3-5.3-2-7.9c-0.8-3.2-1.7-6.3-2.6-9.5c-0.2-0.8-0.6-1.6-1-2.4
			c-0.5-1-1.2-1.5-2.5-1c-1.6,0.7-2.1,0.4-2.7-1.3c-0.5-1.6-1-3.2-1.2-4.9c-1.5-10.2-3-20.4-4.4-30.6c-1.5-10.8-2.8-21.6-4.4-32.3
			c-0.3-2.3-1-4.5-1.7-6.7c-0.6-2.1-2-3.6-4.3-4.1c-8-1.7-13.8-6.7-19-12.6c-7.9-9-13.7-19.2-19.5-29.6c-1-1.7-1.9-3.4-3.1-5.5
			c-0.6,0.9-0.9,1.5-1.3,2.1c-1.1,1.6-2.1,3.2-3.3,4.7c-0.6,0.8-1.4,1.5-2.4,1.2c-1.2-0.4-1.2-1.5-1.3-2.6c0-0.5-0.1-1-0.2-1.8
			c-1.5,0.9-2.3,2.1-3.1,3.2c-2.9,3.9-5.7,7.9-8.6,11.9c-3.4,4.6-7,9-11.2,12.8c-1.3,1.2-2.8,2.4-4.4,3.3c-2.8,1.6-4.9,0.7-6.1-2.3
			c-0.5-1.3-0.7-2.6-1.1-3.9c-0.2-0.8-0.4-1.7-0.6-2.6c-1.4,0.4-1.8,1.5-2.3,2.4c-2.6,4.9-5.2,9.7-7.7,14.6
			c-5.5,10.6-10.9,21.2-16.4,31.8c-0.8,1.5-1.7,2.9-2.6,4.3c0.1,0.1,0.3,0.2,0.4,0.3c0.4,1.5-0.9,2.3-1.5,3.2
			c-0.4,0.5-1.4,0.6-2.1,0.9c0.1,0.5,0.4,1.3-0.7,1.4c0.4,1.6,0.9,4,1,7.1c0.6,13.1-6.1,23.3-13.5,35.1
			c-5.8,9.3-12.9,17.4-21.4,24.5c-7.4,6.1-13.8,12.1-24.1,20.1c0,0-13,10.1-24.4,17.4c-1.6,1-3.7,2.3-6.6,3.9
			c-4.6,2.5-8.7,4.1-11.4,5.1c2.5-1.5,6.3-3.7,10.9-6.4c4-2.4,6.2-3.6,6.6-3.8c9.7-5.7,22.2-17.5,33.6-27.8
			c15.8-14.5,15.2-13.3,19.1-17.6c4-4.3,10.9-12.4,17.4-23.5c1.3-2.2,4.2-7.4,6.6-14.6c2.7-7.8,2.6-11.4,2.6-12.8
			c-0.3-5-2-8.9-3.3-11.2c-0.3,3.8-1.1,7.9-2.8,12c-0.2,0.4-0.3,0.8-0.5,1.2c-0.9-1.8,0.3-2.3,0.6-3.1c0-1.5-1.3-2.2-2-3.2
			c-0.9,0.3-1.8,0.6-2.8,1c2.1-1.5,1.4-3.6,1.4-5.5c-0.2-9.6-0.6-19.2-0.8-28.8c-0.1-5.4,0-10.7,0-16.1c0-4.3-0.6-8.4-1.4-12.6
			c-0.7-3.5-1.3-7.1-1.6-10.6c-0.6-6.8-0.9-13.6-1.4-20.3c-0.3-3.7-0.9-7.4-2.2-11.5c-0.5,1.1-0.9,1.8-1.2,2.5
			c-0.6,1.4-1.2,2.8-1.9,4.1c-0.4,0.8-0.8,1.8-1.9,1.5c-0.6-0.2-1.1-1.1-1.3-1.8c-0.3-1-0.5-2-0.6-3c-0.2-1.8-0.3-3.7-0.6-5.5
			c-1.3-8-2.7-15.9-4.1-23.9c-0.8-4.5-2.3-8.8-4.1-13c-2.3-5.2-4.5-10.4-6.7-15.7c-1.8-4.1-3.5-8.2-5.3-12.3
			c-0.5-1.2-0.9-2.5-2.2-3.4c-0.4,0.6-0.8,1.2-1.2,1.7c-1.1,1.3-2.1,1.2-3-0.3c-0.3-0.5-0.5-1-0.7-1.5c-1-2-1.9-4-2.9-6.1
			c-0.3,0.2-0.7,0.4-0.9,0.7c-1.4,2-2.6,4-4,5.9c-6.4,8.2-13.8,15.3-22.4,21.2c-0.7,0.5-1.5,0.9-2.3,1.3c-1.6,0.6-2.3,0.1-2.1-1.6
			c0.1-0.9,0.3-1.7,0.5-2.9c-0.5,0.3-0.8,0.4-1,0.5c-6.4,4.7-12.6,9.6-18.3,15.1c-5,4.8-10.2,9.5-13.1,16c-0.7,1.6-1.7,1.9-3.5,1.6
			c-1.6-0.3-3.3-0.4-5-0.5c-2.4-0.2-4.8,0-7.2-0.4c-7.1-1.2-14.2-2-21.4-2.4c-7-0.4-14-0.8-21.1-0.2c-2.8,0.2-5.6,0.3-8.4,0.4
			c-0.7,0-1.1-0.1-1-0.9c-1.2,0.5-2.3,0.2-3.4-0.4c-1.8-1-3.6-2-5.4-3c-0.5-0.3-1.1-0.5-1.9-0.5c0.2,0.4,0.5,0.9,0.7,1.3
			c0.3,0.5,0.8,0.8,1.1,1.3c1,1.5,0.6,2.5-1.1,2.5c-1.5,0.1-3.1,0.2-4.5-0.1c-6-1.3-12-2.9-18-4.2c-2.1-0.5-3.8-1.5-5.3-3.1
			c-0.8-1-1.7-1.9-2.6-2.9c-0.6-0.6-1.2-1.3-1.9-1.8c-4.3-3.3-8.8-6.4-13.1-9.7c-3-2.3-5.9-4.9-8.9-7.3c-0.4-0.3-0.9-0.6-1.7-1.1
			c0.3,1.4,0.5,2.3,0.9,3.6c-1-0.3-1.5-0.4-1.9-0.7c-3.8-2.4-7.9-4.1-12.3-5.3c-2.9-0.7-5.4-2.1-7.8-4.1c-3.3-2.7-6.8-5.2-10.3-7.8
			c-1.6-1.2-3.2-2.4-4.9-3.4c-1.5-0.9-3-1.8-4.6-2.4c-2.4-1-4.8-1.7-7.2-2.6c-1.2-0.5-2.2-0.4-2.9,0.8c-0.7,1.1-1.3,2.2-1.8,3.3
			c-0.7,1.5-1.1,3.2-1.8,4.7c-1.5,3.3-2.9,6.6-3.7,10.1c-0.4,1.8-1.1,3.5-1.9,5.2c-3.2,6.7-4.8,13.9-5.4,21.3
			c-0.1,1-0.3,2.1-0.5,3.1c-0.1,0.5-0.5,0.9-0.9,1.5c-1.5-1.5-1.5-3.3-1.9-5c-0.5-1.7-0.7-3.4-1.5-5.2c-0.2,0.5-0.4,1.1-0.5,1.6
			c-0.9,9.3-3.2,18.4-4.9,27.6c-0.9,5-2.4,9.9-3.9,14.8c-3.7,12.4-6.3,25-7.1,37.9c-0.1,1.3-0.3,2.7-0.7,4c-0.4,1.2-1.3,1.4-2.1,0.3
			c-0.4-0.6-0.8-1.2-1.1-1.9c-1.3-2.7-2.5-5.3-4.2-8c-0.1,0.7-0.3,1.4-0.4,2.1c0,3.9-0.1,7.8,0,11.7c0.5,14.2,2.2,28.4,3.8,42.5
			c0.1,1.2,0.1,2.4,0.1,3.6c0.4,1.4,0.7,2.9,2,3.9c0.4,0.4,0.9,0.8,1.2,1.3c0.9,1.7,1.8,3.4,2.7,5.1c1.6,2.9,3.3,5.9,4.8,8.8
			c0.4,0.8,0.8,1.8,1,2.7c0.2,1.1-0.5,1.7-1.6,1.4c-0.9-0.3-1.8-0.7-2.6-1.2c-1.1-0.6-2.2-1.2-3.4-1.8c-0.1,0.1-0.2,0.3-0.3,0.4
			c1.6,2.5,3.1,5,4.9,7.4c5.8,7.8,11.7,15.6,17.5,23.4c4.9,6.5,9.6,13.2,14.7,19.6c4.1,5,8.7,9.6,12.9,14.5
			c5.5,6.3,11.7,9.7,15.2,11.9c1.6,1,5.4,3.4,10.6,6c7.9,3.8,7.7,2.6,15.8,6.4c5.8,2.7,15.9,7.5,18.2,8c0.8,0.2,1.6,0.3,2.3,0.7
			c0.3,0.1,0.3,0.4,0.7,0.7c0.6,0.5,1.1,0.9,1.5,1.1c-1.2-0.1-3.1-0.4-5.3-0.7c-5.1-0.7-7.6-1.3-10.5-1.7c-4.9-0.8-8.3-0.7-11.9-1
			c-12.8-1.1-25.6-2.4-38.4-3.4c-12.5-1-24.9-0.6-37.3,1.4c-20.5,3.2-39.6,10.1-56.5,22.5c-13.6,10-23.4,22.8-28.4,39
			c-4.9,15.8-5.9,31.9-3.6,48.1c2.7,19.4,9.7,37.2,20.3,53.6c9.7,15,21.8,27.7,35.3,39.3c12.6,10.9,26,20.8,39.5,30.4
			c11.8,8.4,23.6,16.8,35.4,25.1c4.8,3.4,9.7,6.7,14.6,10c1.3,0.9,2.8,1.4,4.2,2.1c2.4,1.1,4.4,2.9,6.9,3.7c0.2,0,0.7,0.2,0.8,0.6
			c0.1,0.2,0,0.3-0.1,0.6c-0.1,0.5-1,5.1-2.8,6.7c-0.6,0.5-1.1,0.7-1.1,0.7c-0.9,0.1-1.9,0.1-2.8-0.1c-2.7-0.6-5.4-1.3-8.1-2.1
			c-7.3-2.1-14.6-4.3-21.9-6.2c-4.6-1.2-9.2-2.1-14-1.7c-4.2,0.4-7.8,1.9-10.4,5.3c-2.7,3.7-4.8,7.8-5.3,12.4
			c-0.8,8.1-0.8,16.1,0.1,24.2c0.3,2.9,0.5,5.7,0.9,8.6c0.2,1.5,0.1,3.1,0.9,4.7c1.6-1.2,2.2-2.8,2.8-4.3c1.9-4.2,4.4-8,7.2-11.5
			c2.8-3.4,5.5-6.9,8.1-10.4c1.5-1.9,3.1-3.7,5.2-4.9c2.8-1.6,5.7-3,9.1-4.8c-0.2,1.3-0.3,2.1-0.5,2.9c-0.3,1.2-1,2.4-1.1,3.7
			c-0.5,6.9,0.1,13.8,3.1,20.2c1.8,3.9,3.8,7.8,5.7,11.6c0.2,0.5,0.6,0.8,1.1,1.5c0.7-1.6,1.3-2.9,2-4.1c0.8-1.4,1.4-3,2.5-4.1
			c3.8-3.9,6.4-8.5,9.2-13.1c2.7-4.5,5.7-8.8,8.6-13.3c2.8-0.2,5.7-0.4,8.6-0.5c0.8,0,1.6,0.2,2.3,0.5c1.6,0.8,3,1.8,4.6,2.6
			c1.4,0.6,1.8,1.6,1.9,3c0.3,4.1,0.6,8.1,0.9,12.2c0.4,5.9,1.9,11.5,4.7,16.7c1.2,1.4,2.4,2.8,3.6,4.2c1.3-1.4,2.6-2.9,3.9-4.3
			c1.8-1.4,2.4-3.5,3-5.6c1.3-4.6,2.4-9.2,3.6-13.9c1.2-4.2,3.1-7.7,8.1-8.1c0.7-0.1,1.4-0.2,2.1-0.2c5.2-0.2,10.3,0.3,15.4,1.8
			c2.4,0.7,4.8,1.5,7.3,2.3c1.2,1.2,2.4,2.4,3.6,3.6c-2.5-4.9-5-9.1-7.2-12.4c-1.5-2.3-4.5-7.6-9.6-13.3c-2.5-2.9-5-5.8-7.7-8.6
			c-1.6-1.7-3.4-3.1-5.2-4.6c-0.8-0.7-1.8-1.3-2.7-2c-6.6-5.8-13.3-11.6-19.8-17.4c-15.9-14.1-22.8-19-43-39.8
			c-10.1-10.4-19-19.9-29-34c-9.1-12.9-14.6-23.3-18.5-30.9c-10-19.3-11.5-27.7-11.9-30.4c-1-6.1-2.3-14.5,0.5-24.5
			c4.8-16.8,17.7-25.8,21.2-28.1c8.2-5.5,15.9-7.2,27.3-9.8c8.4-1.9,14.9-2.4,20.9-2.9c13.5-1.1,20.5-0.2,22.9,0.2
			c5,1,8.9,2.5,13.5,4c2.5,0.8,2.5,0.9,1.9,3.3c-0.1,0.2-0.1,0.5-0.2,0.7c-2,6.2-2.2,12.7-1.5,19c0.9,8.2,3.8,15.9,7.6,23.1
			c5.4,10.3,13.2,18.6,22.3,25.7c10.4,8.1,21.9,14.1,34,19c10,4,20.3,7,31,8.2c7.8,0.9,15.6,1.4,23.5,0.8c6.3-0.5,12.6-1.1,18.7-2.6
			c2.5-0.6,5-1.6,7.5-2.4c4.6-1.5,6.9-2.3,7.7-2.5c10.7-3.7,14-7.6,26.4-11.8c0.9-0.3,1.6-0.5,2-0.7c-0.7-6.1-1.5-12.2-3.2-18.2
			c-2.8-9.8-8.1-17.8-16-24.2c-6.5-5.3-13.7-9.4-21.6-12.3c-3.7-1.4-7.4-2.5-11.1-3.8c-1-0.4-2.1-0.8-3.1-1.4
			c-0.3-0.2-0.3-0.8-0.7-1.7c2.4,0.2,5.8,0.5,9.7,1.5c15.6,3.6,25.5,12.1,27.9,14.3c5.8,5.3,9.5,10.5,11.4,13.8
			c0.8,1.3,4.3,7.3,6.8,16.3c1.3,4.6,2.5,11.1,2.6,21.4c0,10.4-1.2,16.8-2.9,28.4c-3.2,21.4-2.1,17.3-6.8,53.5
			c-2,15.4-4.3,30.7-5.1,46.2c-0.1,1.4-0.6,2.7-0.8,3.7c-2.7,1-13.4,5-16.9,6.4c-9.7,3.6-11.9,4.5-14.6,6.1
			c-3.9,2.4-9.6,6.7-14.6,15.1c2.8,5.9,6.2,8.4,8.5,9.7c6.9,3.7,16.1,2.3,31,1.1c1.3-0.1,1.8-0.2,2-0.3c0.1,0,0.4,0.1,0.8,0.2
			c0.9,0.2,2.2-0.3,2.6,0.2c0.5,0.5,0.3,1.7,0.3,2.7c0.6,8.7,1.2,17.4,1.8,26.1c0,0.2,0.2,0.4,0.5,0.8c0.7-0.6,1.3-1.1,1.8-1.6
			c4.6-4.2,7.7-9.5,10.8-14.9c3.4-6.1,4.8-12.7,5.9-19.4c0.1-0.6-0.1-1.6-0.6-1.9c-2.5-1.4-4.5-3.9-7.7-4.1c-0.2,0-0.5-0.3-1.1-0.8
			c0.9-0.3,1.5-0.7,2-0.5c1.4,0.4,2.7,0.8,4,1.5c1.2,0.6,2.3,1.5,3.4,2.2c1.7,1.1,2.1,1.9,1.8,4c-0.3,1.6-0.6,3.3-0.9,4.7
			c0.3,0.2,0.3,0.3,0.4,0.3c4.7,2.4,8.5,5.7,10,11c0.3,0.9,0.8,1.7,1.2,2.6c1.9,4.5,3.7,9,5.6,13.5c0.3,0.9,0.6,1.8,0.9,2.6
			c0.2,0,0.4,0,0.6,0.1c1.1-2.1,2.6-4,3.4-6.2c2.6-6.7,4-13.6,4.3-20.8c0.1-1.7-0.4-3.1-1.4-4.5c-2.3-3.1-5-5.8-8.3-7.8
			c-0.3-0.2-0.8-0.4-1-0.7c-0.2-0.3-0.2-0.8-0.3-1.2c0.4-0.1,0.9-0.3,1.3-0.2c0.4,0.1,0.8,0.4,1.3,0.7c3.7,2.3,6.5,5.3,9,8.8
			c1,1.4,1.3,2.9,1.2,4.5c0,1.3-0.1,2.7-0.2,4.1c1.1,0.3,2,0.6,2.9,0.8c2.4,0.3,3.9,1.7,4.7,3.9c2,5,3.9,10,5.8,15
			c0.2,0.6,0.6,1.1,1.1,2.1c1-2.5,1.9-4.5,2.7-6.4c0.1-0.6,0.3-1.1,0.4-1.7c0.2-6.4,0.3-12.8,0.5-19.2c-0.1-0.1-0.1-0.3-0.1-0.4
			c-0.1-0.3-0.2-0.7-0.4-1c-0.4-2.4-1.6-4.1-3.8-5.1c-0.3-0.1-0.5-0.3-0.8-0.5c-4.5-3.6-9.5-6.2-14.7-8.4c-4.5-1.9-9.1-3.5-13.9-4.2
			c-1.7-0.2-3.4-0.6-5.2-1c0.1-0.6,0.2-1.1,0.4-1.5c0.2-0.4,0.4-0.9,0.6-1.3c5.4-7.8,8.9-16.8,14-24.8c8.5-13.4,16.7-35.3,24-54.9
			c7.1-18.9,10.6-28.3,13.3-40.2c6.7-29.6,4.7-49.8,4.3-54.3c-1.2-11.1-3.5-19.8-4.8-24.3c-2-6.8-4.6-15.8-10.4-26
			c-8.9-15.7-19.9-25.1-24-28.4c-3.5-2.8-18-14.3-34.7-17.7c-8.2-1.7-18.1-1.7-20.1-1.7c-1.9,0-3.8,0-6.1,0.3
			c-4.9,0.6-8.9,2-11.5,3.1c0.2-0.2,0.6-0.5,1-0.8c2-1.5,7.2-4.9,18.5-5.7c2.1-0.1,8.8-0.5,17.7,1.2c4.5,0.9,14.2,3.1,25,9.4
			c6.4,3.7,10.6,7.3,15,11.1c2.5,2.2,13,11.2,20.4,21.8c13.3,18.8,15.7,40.6,16.2,51.4c1.2-0.4,2.8-1,4.4-1.8
			c0.7-0.3,1.5-0.7,2.6-1.4c2-1.2,3.1-2.3,7-4.5c6.2-3.5,12.9-5.9,19.6-8.5c3.5-1.4,7-2.1,10.7-2c6.9,0.1,13.7-0.1,20.6-0.9
			c3.2-0.4,6.4-0.4,9.5-1.2c4-1.1,7.9-2.6,11.7-4.2c7.8-3.3,14.4-8.5,21-13.7c1-0.8,1.9-1.9,2.7-2.7c-0.2-0.4-0.2-0.5-0.2-0.5
			c-0.3-0.2-0.6-0.3-0.8-0.5c-8.2-3.8-16.9-5.7-26-6c-9.7-0.3-19.1,1.5-28.3,4.5c-0.8,0.3-1.6,0.5-2.4,0.7c-0.1-0.2-0.2-0.4-0.3-0.6
			c0.6-0.3,1.2-0.8,1.9-1c7.8-2.7,15.9-4.4,24.1-4.8c10.6-0.4,20.9,1.3,30.6,5.7c10.7,4.8,19.3,12.2,25.1,22.5
			c5.5,9.6,7.6,20.1,8,31c0.6,15-2,29.6-5.8,44.1c-2.8,10.7-5.7,21.3-10.1,31.4c-1.9,4.3-3.5,8.8-5.3,13.1
			c-3.8,9-7.8,17.9-11.5,26.9c-2.4,5.8-4.8,11.5-7.9,16.9c-1.9,3.3-3.5,6.8-5.3,10.2c-0.1,0.1-0.2,0.3-0.3,0.4
			c-0.1,0.1-0.1,0.3-0.2,0.4c0,0.6,0.1,1.2-0.1,1.6c-2,5.3-3.7,10.8-6.9,15.5c-0.5,0.8-0.8,1.7-1.3,2.5c-0.3,0.4-0.9,0.7-1.4,1
			c-0.1,0.2-0.2,0.5-0.3,0.7c0,1.1,0.1,2.3-1.4,2.6c-0.1,0.2-0.3,0.3-0.4,0.5c-0.1,0.1-0.1,0.2-0.1,0.3c-0.1,0.2-0.3,0.5-0.4,0.7
			c-0.1,0.1-0.1,0.1-0.1,0.2c-0.1,0.2-0.3,0.5-0.4,0.7l-0.1,0.1l0.1,0.1c0,1.1,0.1,2.3-1.4,2.7c-0.7,1.6-1.4,3.2-2.1,4.8
			c-5.1,12.5-7.5,25.6-8.7,38.9c-0.2,2.5,0,5,0.3,8c1.2-1.4,2.2-2.3,3-3.4c5.4-6.8,10.8-13.5,16.1-20.3c2.5-3.2,5.4-5.7,9-7.4
			c4-1.9,6.4-1.2,8,3.1c2.5,6.7,5.1,13.3,7.6,19.9c0.3,0.8,0.7,1.6,1.1,2.4c1.3,2.1,2,4.5,2.5,6.9c0.1,0.4,0.2,0.8,0.5,1.6
			c0.9-1.3,1.4-2.4,2.1-3.3c4.3-5.3,6.5-11.5,7.9-18.1c1.4-6.5,2.2-13.1-0.7-19.5c0.1-0.1,0.2-0.3,0.3-0.4c0.3-0.1,0.6-0.3,0.9-0.3
			c3.2-0.2,6.4-0.3,9.5,0.5c4,1.1,7.3,3.3,9.2,7.1c1.3,2.5,2,5.3,1.9,8.1c-0.1,3.3-0.4,6.5-0.6,9.8c0,0.7-0.5,1.4,0.6,2
			c0.5-0.5,1-0.9,1.5-1.4c3.9-4.7,7-9.9,9.4-15.5c2-4.6,3.1-9.4,2.7-14.5c-0.5-7.8-5.1-12.9-12.7-14.4c-4.2-0.8-8.5-0.6-12.7,0
			c-8.6,1.2-17.4,1.4-25.3,5.7c-0.1,0-0.1,0.1-0.2,0.1c-1.8,0.6-3,0.3-4.1-1.4c-1.6-2.4-2.6-4.9-3-7.8c-0.2-1.7-0.1-3.1,1.4-4.2
			c0.9-0.7,1.6-1.8,2.3-2.7c6.1-8.1,12.1-16.3,18.2-24.4c0.3-0.4,0.7-0.8,0.8-1.2c0.1-1.9,1.3-3.2,2.4-4.6c1.8-2.4,3.5-4.8,5.4-7.1
			c8.4-10.3,16-21.1,22.2-33c1.4-2.6,3.1-5.1,4.6-7.6c4-6.4,8.2-12.6,11.9-19.2c12-21.2,21-43.6,26.9-67.3c4.4-17.7,7-35.6,5.7-53.9
			C647.6,345,645.7,334.6,641.6,324.8z"/>
		<path class="st4" d="M525.2,584C525.2,584,525.2,584,525.2,584C525.2,584,525.2,584,525.2,584C525.2,584,525.2,584,525.2,584z"/>
	</g>
	<path class="st5" d="M130.2,190c5,12.8,16.5,36.5,41.2,54.9c2.9,2.2,52.6,37.9,108.1,19c4.5-1.5,27.8-9.8,47.9-32.1
		c6.7-7.5,15.9-17.5,21-33.3c2.7-8.3,4-19.2,6.6-41.2c0.8-7,1.4-12.8,1.8-16.6c-3,5.3-7.4,12.8-13.1,21.6
		c-7.4,11.4-15,23.1-23.3,32.2c-21.7,23.7-49.8,31.4-57.9,33.5c-4.6,1.2-27.8,7-57.4,1.5c-5.1-0.9-25.7-5.1-48.7-19.1
		C144.9,203.2,136.2,195.7,130.2,190z"/>
	<path class="st6" d="M533.7,560c0,0.6,0.1,1.2-0.1,1.6c-2,5.3-3.7,10.8-6.9,15.5c-0.5,0.8-0.8,1.7-1.3,2.5c-0.3,0.4-0.9,0.7-1.4,1
		c0.7-1.9,1.2-3.8,2.1-5.6C528.5,570,531.2,565,533.7,560z"/>
	<path class="st6" d="M523.6,581.4c0,1.2,0.1,2.4-1.5,2.6C522.7,583.2,523.2,582.3,523.6,581.4z"/>
	<path class="st6" d="M520.8,586.7c0,1.1,0.1,2.3-1.4,2.7C519.8,588.5,520.3,587.6,520.8,586.7z"/>
	<path class="st6" d="M521.3,585.8c-0.1,0.2-0.3,0.5-0.4,0.7C521,586.2,521.1,586,521.3,585.8z"/>
	<path class="st6" d="M534.2,559.1c-0.1,0.1-0.2,0.3-0.3,0.4C534,559.4,534.1,559.3,534.2,559.1z"/>
	<path class="st6" d="M522.2,584c-0.1,0.2-0.3,0.3-0.4,0.5C522,584.4,522.1,584.2,522.2,584z"/>
	<path class="st6" d="M521.7,584.8c-0.1,0.2-0.3,0.5-0.4,0.7C521.5,585.3,521.6,585.1,521.7,584.8z"/>
	<path class="st4" d="M159.5,572.8c-0.2-0.2-0.3-0.4-0.5-0.6c0.3,0.1,0.6,0.1,1,0.2C159.8,572.5,159.7,572.7,159.5,572.8z"/>
	<path class="st4" d="M228.7,604.5c0,0.2,0.1,0.4,0.1,0.6c-0.2,0-0.4-0.1-0.6-0.1C228.4,604.9,228.6,604.7,228.7,604.5z"/>
	<path class="st4" d="M80.5,203.1c-0.1-0.2-0.1-0.4-0.2-0.5c0.2,0,0.3,0.1,0.5,0.1C80.8,202.8,80.6,202.9,80.5,203.1z"/>
	<path class="st4" d="M563.3,17.4c0-0.2-0.1-0.4-0.1-0.6c0.2,0,0.4,0.1,0.6,0.1C563.6,17.1,563.4,17.3,563.3,17.4z"/>
	<path class="st7" d="M249.1,270.6c-0.3,0-0.6,0-0.9,0.1c-7.2,0.2-14.3,0.2-21.4-0.9c-2.5-0.4-5-0.7-7.5-1.1
		c-3.2-0.8-6.5-1.5-9.7-2.4c-15.7-4.4-29.4-12.3-42-22.4c-5.6-4.5-11.1-9.2-15.8-14.7c-6-6.9-10.7-14.7-15.1-22.7
		c-0.7-1.2-3-5-4.9-9.6c-1.2-2.7-2-5.2-2.1-5.6c-0.5-1.5-0.8-2.7-1.1-3.8c0.7,0.6,1.7,1.3,2.8,2.2c0,0,1,0.7,1.9,1.5
		c8.2,6.8,16.5,13.5,25.9,18.5c10.4,5.5,21.1,10.2,32.3,14.1c8.4,2.9,17,5.1,25.8,6.4c9.1,1.3,18.2,1.2,27.2-0.3
		c20.4-3.2,39.3-10.4,57-21c5.3-3.2,9.9-7.3,14.1-11.8c2.6-2.7,4.3-4.6,16-19.8c9.1-11.9,12-15.8,15.6-21.5
		c2.4-3.9,4.6-7.7,6.7-12.6c1.9-4.3,3.1-8.1,3.9-10.9c0,4.8-0.1,11.5-0.6,19.7c-1.1,17.9-4,31.5-8,48.7
		c-2.5,10.9-7.9,20.4-15.5,28.6c-15.4,16.7-34,28.4-55.6,35.4c-8.3,2.7-16.8,4.6-25.4,5.8C251.3,270.3,250.2,270.4,249.1,270.6z
		 M255.9,230.2c-0.3,0-0.6,0-1,0c-1.2,0.3-2.5,0.6-3.7,0.9c-5.8,1.1-11.6,2.1-17.5,2.1c-2,0-4.1,0.1-6.1-0.1c-1.3-0.1-2,0.5-2.5,1.5
		c-0.3-0.3-0.5-0.7-1-1.2c-5.8,9.8-11.5,19.4-17.3,29.2c10.5,3.2,20.8,5.1,31.6,5.5c-0.2-0.8-0.3-1.3-0.4-1.8c0.2-0.3,0.3-0.7,0.5-1
		c0.5,0.3,0.3,1.8,1.5,1c0.2,0.3,0.3,0.7,0.5,1c0,1.4,1.1,0.9,1.8,0.8c8.1-0.1,16.1-1.2,23.9-3.1c2.4-0.6,4.7-1.3,7.1-1.9
		c-0.1-0.5-0.1-0.8-0.2-1c-5.1-10.2-10.2-20.4-15.3-30.6c-0.2-0.4-0.7-0.6-1-0.8c-0.3-0.2-0.6-0.3-0.9-0.5
		C255.9,230.3,255.9,230.2,255.9,230.2z M352.3,169.9c0.6-4.6,1.2-9.1,1.9-13.9c-1.9,0.1-3.9,0.3-5.8,0.4c-1.2-0.3-1.8,0-2,0.3
		c0,0-0.9,0.7-0.8,1.7c0.1,0.4,0.3,0.7,0.4,0.9c-1,1.9-2.2,4-3.6,6.2c-1.3,2-2.7,3.9-4,5.5c-0.1,0.4-0.3,0.9-0.4,1.3
		c0,0.3,0,0.7-0.1,1c0.1,0.6,0.3,1.3,0.4,1.9c-0.3,0-0.6,0-0.9,0c-0.2-0.3-0.4-0.6-0.6-1c-4.4,5.7-8.6,11.2-12.9,16.8
		c-0.3,0.5-0.6,1-0.9,1.5c-0.1,0-0.2,0-0.2,0.1c-5.4,6.1-10.8,12-17.5,16.7c-0.2,0.1,0,0.6,0,1c-0.3,0.2-0.6,0.3-0.9,0.5
		c-0.2,0.6-0.5,1.1-0.5,1.7c0.1,2.4,0.3,4.8,0.4,7.2c0.4,7.5,0.7,15,1.1,22.5c0.1,2.1,0.3,4.2,0.5,6.7c9.9-6.2,18.6-13.3,26.2-21.8
		c-0.4-0.4-0.6-0.6-0.9-0.8c0.3-0.3,0.6-0.7,0.9-1c0,0,0,0,0,0c0.3,0,0.7,0,1,0c0.4-0.3,1-0.6,1.3-1c2.1-2.9,4.2-5.8,6-8.9
		c2-3.5,3.8-7.2,4.7-11.2c0.6-1.9,1.3-3.8,1.8-5.8c0.1-0.3-0.3-0.8-0.4-1.2c0-0.4,0-0.7,0-1.1c1.5,0,1.2-1.3,1.3-2.1
		c1.4-6.9,2.6-13.8,4-20.7c-0.8-0.1-1.7-0.4-2.5-0.4c-3.2,0-6.3,0-9.5,0c0-0.1,0-0.3,0-0.4c3.9,0,7.7,0,11.7,0
		C351.8,171.4,352.1,170.6,352.3,169.9z M143.6,202.9c-0.1-0.1-0.2-0.2-0.3-0.2c0,0.2,0,0.3,0,0.5c0.3,4.9,1.9,9.6,2.7,14.6
		c0.8-0.6,1.3-1,1.8-1.3c0.1,0.3,0.3,0.5,0.4,0.8c-0.5,0.5-0.9,1-1.4,1.6c3.9,5.5,8.1,10.6,13,15.2c0.2,0,0.3-0.1,0.5-0.1
		c-0.3-1.5-0.6-3-1-4.5c0.3,0,0.6,0,0.9,0c0.5,1.7,0.9,3.4,1.6,5.6c0.5-0.7,0.7-1,0.9-1.3c0.1,0.3,0.3,0.6,0.4,0.9
		c-0.2,0.5-0.4,1-0.7,1.6c5,4.5,10.2,8.7,16.1,12.6c-0.4-2.2-0.6-3.8-0.9-5.4c0.3-0.2,0.5-0.3,0.8-0.5c0.4,1.6,0.7,3.2,1.2,5.1
		c0.6-0.8,0.9-1.3,1.3-1.8c0.1,0.3,0.3,0.6,0.4,0.9c-0.4,0.8-0.8,1.7-1.3,2.7c7.5,5.1,15.5,9,24.3,12.1c-0.3-1.1-0.5-1.7-0.6-2.3
		c-2-6.4-4-12.8-6-19.2c-1.2-3.9-2.4-7.8-3.6-11.6c-0.2-0.5,0-1.6-1.2-1.3c-0.3-0.2-0.5-0.3-0.8-0.5c-0.4-0.3-0.8-0.6-1.2-0.7
		c-5.3-2.1-10.5-4.1-15.8-6.2c-0.2-0.1-0.5-0.1-0.9-0.2c0.3,2,0.6,3.8,0.9,5.6c-0.3,0-0.6,0-0.9,0c-0.3-1.6-0.7-3.3-1-4.9
		c-0.1-0.4-0.4-0.8-0.6-1.1c-0.3-0.1-0.6-0.1-0.9-0.2c0-0.2,0.1-0.4,0.1-0.6c-0.1-0.1-0.3-0.3-0.4-0.4c-5.1-2.4-10.2-4.8-15.6-7.3
		c0.5,2.4,1,4.6,1.5,6.8c-0.3,0-0.6,0-0.9,0c-0.5-2-1-4-1.6-6c-0.1-0.4-0.6-0.8-0.9-1.2c-0.2-0.5-0.4-1-0.6-1.5
		c-1.1-0.7-2.3-1.3-3.4-2.1C147.9,205.8,145.8,204.3,143.6,202.9z M274.6,261.1c0.3,0.2,0.5,0.3,0.8,0.5c0.1,1.4,0.9,0.7,1.5,0.5
		c8.8-2.7,17.2-6.5,25.1-11.1c0.4-0.3,0.8-0.6,1.3-1c-0.3-0.4-0.5-0.6-0.7-0.9c-6.8-8.1-13.7-16.3-20.5-24.4
		c-0.4-0.4-0.7-0.9-1.1-1.2c-0.1-0.1-0.5,0.1-0.7,0.2c-0.3,0-0.6,0-0.9,0c-0.1-0.3-0.1-0.6-0.2-0.8c-7.1,2.3-14.1,4.6-21.2,6.9
		c5.4,10.7,10.7,21.4,16.1,32.3C274.4,261.5,274.5,261.3,274.6,261.1z M195,227.8c3.6,11.6,7.1,22.9,10.8,34.7
		c3.1-5.3,5.9-10,8.7-14.7c2.8-4.8,5.7-9.4,8.4-14.4c-4.8-0.8-9.4-1.3-13.8-2.3C204.5,230.3,200,229,195,227.8z M304.3,249.3
		c0.2-0.1,0.4-0.1,0.5-0.2c-0.7-12.6-1.4-25.2-2-37.9c-7.3,3.7-14.3,7.2-21.4,10.8C289,231.1,296.6,240.2,304.3,249.3z M144.3,214
		c-0.7-3.9-1.5-7.8-2.3-11.7c-0.1-0.4-0.3-1-0.6-1.2c-2.4-1.9-4.8-3.8-7.2-5.7c-0.1,0.1-0.2,0.2-0.4,0.3
		C136.9,202,140.2,208.2,144.3,214z M354.3,154.8c0.4-1.6,0.8-3.4,1.1-5.3c0.5-3,0.8-5.7,0.9-8.3c-2.4,4.5-4.8,9.1-7.1,13.6
		C351,154.8,352.7,154.8,354.3,154.8z"/>
	<path class="st8" d="M336.5,128.8c-0.1,0.8,0,1.7-0.2,2.4c-1.1,3.1-2.2,6.2-3.5,9.1c-1.6,3.6-3.5,7.2-5.4,10.7
		c-2,3.8-4.6,7.1-8,9.7c-2.9,2.2-5.9,4.3-9,6.3c-1.5,1-3.3,1.6-5.1,2.1c-3.2,1.1-6.4,2-9.6,3.1c-2.4,0.8-4.8,1.7-6.8,3.4
		c-0.4,0.4-0.9,0.7-1.4,0.9c-1.3,0.5-2.1-0.1-1.9-1.4c0-0.1,0-0.2,0.1-0.2c1.1-4.9,2.1-9.8,3.5-14.7c1.1-3.7,2.7-7.3,4.2-10.9
		c1.3-3,3.8-4.8,6.4-6.5c5.9-3.9,12.7-4.9,19.4-6.6c1.5-0.4,2.9-0.8,4.3-1.3c1.7-0.6,3.3-1.3,4.9-1.8c2.6-0.8,4.9-2,6.8-3.9
		c0.2-0.2,0.5-0.3,0.8-0.5C336.1,128.7,336.3,128.8,336.5,128.8z"/>
	<path class="st8" d="M131.1,150.8c1.3,0.1,2.3-0.1,2.9,0.3c2.7,1.9,5.8,2.1,8.9,2.3c6.1,0.3,12.3,0.7,18.4,0.9
		c3.6,0.1,6.9,1.2,10.2,2.5c1.3,0.5,2.5,1.1,3.7,1.5c4.5,1.6,7.9,4.7,11,8.3c2.2,2.6,4.3,5.3,6.4,8c0.9,1.2,1.7,2.5,2.5,3.8
		c0.4,0.6,0.6,1.3,0.8,2c0.4,1.8-0.4,2.8-2.3,2.8c-0.9,0-1.9-0.2-2.8-0.5c-4.1-1.8-8.5-2.3-12.9-2.2c-6,0-11.9-0.9-17.6-3
		c-5.6-2.1-10.6-5.2-14.5-9.9c-3.3-4-6.6-8-10-11.9C134.5,154.1,133,152.7,131.1,150.8z"/>
	<path class="st9" d="M233.8,186.3c2.2-0.8,4.2-0.9,6.3-0.8c3,0.1,6-0.4,9.1-0.6c1.2-0.1,2.4,0,3.5,0.3c1.4,0.4,1.9,1.3,1.5,2.7
		c-0.3,1-0.8,2-1.4,2.7c-2.5,3-5.2,5.9-7.8,8.8c-0.7,0.8-1.6,1-2.6,0.4c-0.8-0.4-1.5-0.9-2.2-1.5c-2-1.9-3.9-3.8-5.7-5.8
		c-1.4-1.5-2.2-3.1-0.9-5.2C233.9,187.1,233.8,186.7,233.8,186.3z"/>
	<path class="st6" d="M249.1,270.6c1.1-0.1,2.3-0.2,3.4-0.3C250.9,270.8,250,270.9,249.1,270.6z"/>
	<path class="st10" d="M338.4,175.1c1.9,4.8,3.9,9.5,5.8,14.3c0.8,2.1,1.6,4.3,2.4,6.4c0,0.4,0,0.7,0,1.1c-0.3,0.1-0.6,0.2-1,0.3
		c-6.9-1.5-13.9-3-21.3-4.6c3,11.1,5.9,21.7,8.8,32.4c-0.3,0-0.7,0-1,0c-2.2-8-4.5-16.1-6.7-24.1c-0.8-2.8-1.6-5.7-2.4-8.5
		c0.3-0.5,0.6-1,0.9-1.5c0.5,0.3,1.1,0.7,1.6,0.8c6.2,1.3,12.3,2.6,18.5,3.9c0.3,0.1,0.6,0,1.1,0c-0.2-0.7-0.3-1.3-0.5-1.8
		c-2.1-5.4-4.2-10.8-6.4-16.3c-0.3-0.8-0.6-1.7-0.8-2.5C337.8,175.1,338.1,175.1,338.4,175.1z"/>
	<path class="st10" d="M240.1,266.4c1.9-4.5,3.8-8.9,5.8-13.4c3.3-7.6,6.7-15.1,10.1-22.7c0.3,0.2,0.6,0.3,0.9,0.5
		c-2,4.6-4,9.2-6,13.8c-2.9,6.5-5.8,13.1-8.7,19.6c-0.5,1.1-1.1,2.1-1.6,3.2C240.4,267,240.2,266.7,240.1,266.4z"/>
	<path class="st10" d="M274.6,261.1c0.5-4.4,1-8.9,1.6-13.3c0.9-7.2,1.8-14.4,2.8-21.6c0.1-0.9,0.3-1.7,0.5-2.6c0.3,0,0.6,0,0.9,0
		c-0.4,3.2-0.7,6.5-1.1,9.7c-1,8.3-2.1,16.6-3.2,24.9c-0.1,1.1-0.4,2.2-0.5,3.3C275.2,261.4,274.9,261.2,274.6,261.1z"/>
	<path class="st10" d="M233.7,233.2c-2.5,0.2-5,0.3-7.8,0.5c0.3,1,0.6,1.8,0.9,2.6c3.6,8.9,7.2,17.8,10.8,26.6
		c0.3,0.8,0.6,1.6,0.9,2.5c-0.2,0.3-0.3,0.7-0.5,1c-1.2-2.8-2.4-5.5-3.5-8.3c-3-7.2-5.9-14.4-8.8-21.6c-0.2-0.6-0.4-1.2-0.6-1.8
		c0.5-1,1.2-1.6,2.5-1.5C229.7,233.3,231.7,233.2,233.7,233.2z"/>
	<path class="st10" d="M305.3,210.2c4.8,2.7,9.6,5.4,14.3,8.1c3.5,2,7,4.1,10.6,6c0.6,0.3,1.3,0.5,2,0.7c-0.3,0.3-0.6,0.7-0.9,1
		c-3.5-1.9-6.9-3.8-10.4-5.8c-5.5-3.2-11-6.4-16.5-9.6C304.7,210.5,305,210.3,305.3,210.2z"/>
	<path class="st2" d="M346.9,155.6c0,0.5,0,1.3,0.2,2.2c0.3,1.9,1,3.2,1.3,3.9c1,2,2.3,4.8,3.9,8.3c-0.2,0.7-0.5,1.5-0.8,2.4
		c-3.9,0-7.8,0-11.7,0c0,0.1,0,0.3,0,0.4c3.2,0,6.3,0,9.5,0c0.8,0,1.7,0.3,2.5,0.4c-0.8-0.1-1.6-0.2-2.3-0.2
		c-3.9,0.1-7.7,0.2-11.6,0.3c0-0.3,0-0.7,0.1-1c4.4-0.2,8.8-0.3,13.5-0.5c-1-2.4-2-4.6-3-6.8c-1-2.2-2-4.4-3-6.5
		C346,157.4,346.5,156.5,346.9,155.6z"/>
	<path class="st10" d="M181,246.2c2.8-4.9,5.6-9.8,8.5-14.7c0.9-1.5,1.8-3,2.7-4.5c0.3,0.2,0.5,0.3,0.8,0.5
		c-3.9,6.5-7.7,13.1-11.6,19.6C181.3,246.7,181.1,246.5,181,246.2z"/>
	<path class="st2" d="M177.7,243.3c-1.1-5.9-2.3-11.8-3.4-17.8c0.3,0,0.6,0,0.9,0c0.8,4,1.6,7.9,2.4,11.9c0.4,1.8,0.6,3.6,0.9,5.4
		C178.2,243,178,243.1,177.7,243.3z"/>
	<path class="st10" d="M162.7,233.7c3-4.8,6-9.6,9-14.4c0.3,0.1,0.6,0.1,0.9,0.2c-3.2,5-6.3,10-9.5,15.1
		C163,234.2,162.9,234,162.7,233.7z"/>
	<path class="st2" d="M159.4,229.4c-0.9-3.8-1.9-7.7-2.8-11.5c0.3,0,0.6,0,0.9,0c0.9,3.9,1.9,7.7,2.8,11.6
		C160,229.4,159.7,229.4,159.4,229.4z"/>
	<path class="st2" d="M147.8,216.4c1.5-1.7,3-3.4,4.5-5.2c0.5-0.6,0.8-1.3,1.2-1.9c0.2,0.5,0.4,1,0.6,1.5c-1.9,2.2-3.9,4.3-5.8,6.5
		C148.1,216.9,148,216.7,147.8,216.4z"/>
	<path class="st10" d="M255.9,230.2c-0.3,0-0.6,0-1,0C255.2,230.2,255.5,230.2,255.9,230.2z"/>
	<path class="st11" d="M143.4,203.1c0-0.2,0-0.3,0-0.5c0.1,0.1,0.2,0.2,0.3,0.2C143.5,203,143.4,203,143.4,203.1z"/>
	<path class="st2" d="M159.9,233.9c0.2,0,0.3-0.1,0.5-0.1C160.2,233.9,160,233.9,159.9,233.9z"/>
	<path class="st10" d="M171.9,218.7c-0.1-0.1-0.3-0.3-0.4-0.4C171.6,218.4,171.7,218.6,171.9,218.7z"/>
	<path class="st12" d="M159.3,571.2"/>
</g>
<path class="st13" d="M320.3,37.9"/>
<path class="st4" d="M1379.6,518.2c0,0-6.7-14.7-22.7-30.8c-0.6-0.6-2.7-2.7-6.1-4.4c-0.5-0.2-1.3-0.5-2.3-0.9c-4.9-2-6.7-3-7.4-3.2
	c-6.4-2.3-19.1,14.7-20.3,16.3c-6.6,9-7,13.4-11.8,21.1c-0.6,0.9-2.3,3.6-3.1,7.4c-0.3,1.3-0.4,2.4-0.4,3c2.5,1.4,5.3,3.3,8.2,5.8
	c1.6,1.4,3,2.8,4.2,4.1c0,0,2.4,2.8,3.2,6.6c2.3,11.2-3.1,22.8-15.1,26.6c-13.7,4.3-28.3,8.4-42.7,9c-31.3,1.4-62.7,0.5-94,0.8
	c-13.3,0.1-24.9,3.7-32.9,13.8c-11.2,25.5,6.6,47.3,36.9,45.1c21.5-1.5,43.2-0.5,64.7-1.8c24.1-1.5,48.3-3.3,72-7
	c38-5.8,62.3-26.5,74.1-58.9c3.2-8.8,3.2-17,3-23C1386.6,534.1,1382.3,524.1,1379.6,518.2z"/>
<path class="st4" d="M1331.8,505.9c9.4-12.7,12.6-25.3,14.9-34.8c0.7-2.9,2.3-9.7,3.1-18.7c2.9-30.7-6-57.6-9.1-66.6
	c-8.6-25.6-21.5-44.6-31.7-57.3c-5.8-6.1-13.8-13.9-24.1-22.1c-9.5-7.6-19.8-15.7-34.7-23c-17.8-8.7-37-13.9-57.7-16
	c-3.9-0.4-7.8-1.1-14.9-1.8c-23.4-2.4-53.7-5.5-90.4-3.8c-32.3,1.5-48.4,2.1-66.3,8.6c-14.8,5.3-38,14.1-53.5,37.1
	c-10.4,15.5-13.3,31.5-14.2,36.9c-0.9,5.5-2.8,16.7-0.4,30.4c1.4,8.3,4,15.7,5.4,19.5c2.1,5.8,4.1,10.4,5.4,12.9
	c9.9,19.7,24.2,31.2,30.6,36.2c9.8,7.7,18.4,11.9,31.6,18.4c9.3,4.6,16.5,7.5,21.8,9.6c23.2,9.3,47.1,17.9,66.3,24.6
	c6.4,0.7,16.1,1.1,28.2-0.8c-1.8,9.3-4.5,16.8-4.6,24.4c-0.3,18.2,9.9,31.8,27.8,33.5c20.3,1.9,40.9,1.4,61.4,0.5
	c22.6-1,44-7.7,64.6-16.9c9.2-4.1,15.2-8.4,18.4-10.7C1316,521.9,1324.3,516,1331.8,505.9z"/>
<path class="st4" d="M989.2,289.8c40.3,6.6,71.6,1.1,80.8-0.8c2.6-0.5,12.8-2.6,25.8-6.9c12.1-4,25.6-8.6,40.2-18.9
	c3.2-2.3,5.7-4.3,7.4-5.7c0.1-0.1,7.1-6.2,7.1-6.2c7-6.1-7.1,6.2-7.1,6.2c-0.2-0.2,2.5-4.1,7.1-6.2c1.6-0.8,3.2-1.5,5.1-1.3
	c3.9,0.4,4.5,3.7,9.3,5.9c2.4,1.1,7.3,2.5,9.5,0.2c2.1-2.1,0.8-6.7-0.6-9.2c-0.5-0.9-1.1-2.7-3.9-4.5c-5.1-3.3-6.3-6.8-2.8-12.2
	c3.6-5.4,7.3-7.7,13.7-4.4c3,1.6,6.7,2.4,10,2.3c2.3-0.1,5.8-2.1,6.4-4c0.7-2-0.7-5.8-2.5-7.2c-1.8-1.5-2.7-1.4-9.3-4.2
	c-4.3-1.8-5.3-2.5-5.9-3.7c-0.8-1.5-0.8-3.2-0.8-5.6c0-2.1,0-3.1,0.5-4.1c1.2-2.4,4.2-3.7,7.7-3.9c8.3-0.5,9.9,0.4,14.6-1.5
	c3.4-1.3,7.7-4.4,7.4-7.2c-0.3-3.1-6-4.8-9.4-5.9c-8.9-2.7-13.2,0.1-16.2-3c-2.4-2.4-2.4-7.1-2.7-16.6
	c-1.4-44.4-6.9-88.3-18.6-131.3c-1.2-4.4-3.3-8.7-5.2-12.9c-5.7-12.6-15.9-16.5-27.6-9c-13.9,8.9-27.1,19-40.4,28.8
	c-4.7,3.4-8.5,8.1-13.4,11c-3.6,2.2-8.7,4.1-12.6,3.3c-26-5.2-51.8-5.3-77.8,0.2c-4.3,0.9-10.3-1.1-14.1-3.7
	C953.2,35.1,936.1,21.7,918.5,9c-12.4-9-24.4-5.2-29.9,9c-2.9,7.6-5.7,15.3-7.3,23.2c-8,40.7-15.8,81.5-15.3,123.2
	c0,1.1-0.1,2.3-0.2,3.5c-1.2,14-1.2,13.6-15.1,12.9c-5.7-0.3-14.7-3.7-15.9,5.5c-1.2,9.3,8.3,6.5,13.5,8c3.8,1.1,8.1,0.7,12.1,1.5
	c6.8,1.3,8.5,6.9,4,12.2l-0.1,0c-1.4,0.8-2.8,1.6-4.2,2.3c-0.5,0.1-1,0.1-1.5,0.1c-2.9,0.5-7.5,1.9-11,5.8c-0.8,0.9-4.7,5.3-3.3,8.2
	c0.9,1.9,3.6,2.2,5.4,2.5c3.9,0.6,6.4-0.5,15.8-2.6c4.1-1,5.1-1.1,6.3-0.8c3,0.8,5.1,3.5,7.1,6.7c3.3,5.6-0.3,8.6-4.3,11.4
	c-2.6,1.8-2.4,1.6-3.4,2.6c-2.3,2.3-5,7.1-3,10.2c1.6,2.5,5.3,2.4,5.7,2.4c3.4-0.1,5.5-2.5,5.8-2.9c1.2-1.3,3.3-3.1,6.3-4.5
	c1.8-0.8,3.6-1.7,5.8-1.6c2.7,0.1,4.5,1.5,10.2,6.2c3.6,3,6.4,5.4,8.2,6.8c5.6,3.4,13.2,7.8,22.6,12.1
	C938.7,275.7,959.6,284.9,989.2,289.8z"/>
<path class="st14" d="M1071,185.6c-0.1-7.9,9.6-15,20.7-15.2c10.2-0.2,18.5,5.5,18.6,12.6c0.1,7.8-9.7,15-20.8,15.2
	C1079.3,198.4,1071.1,192.8,1071,185.6z"/>
<path class="st15" d="M1027.6,201.5c-3.5,3.5-6.9,6.9-10.4,10.4c-0.5,0-0.9,0-1.4,0.1c-3.6-3.8-7.1-7.6-10.7-11.4c1-1.5,2-3,2.9-4.6
	c5.8,0.2,11.5,0.3,17.3,0.5C1026.2,198.2,1026.9,199.9,1027.6,201.5z"/>
<path class="st14" d="M950.8,198.2c-11,0.1-21-6.9-21.1-14.7c-0.1-7.1,8.1-12.9,18.3-13c11.1-0.1,21,6.8,21,14.7
	C969.1,192.4,961,198.1,950.8,198.2z"/>
<path class="st16" d="M991.5,212.9c0.3,1.6,1.5,7.2,5.5,10.7c1.8,1.6,3.9,2.5,5.9,2.7c4.5,0.6,7.9-2.4,9.4-3.6
	c4.5-3.8,5.5-8.9,5.8-10.7c-0.8,0-1.7,0-2.5,0.1c-0.3,0.7-0.7,1.8-1.3,2.9c-1.2,2.2-2.4,3.4-3.3,4.2c0,0-0.6,0.5-1.4,0.9
	c-0.4,0.2-4.7,2.6-8.6,0.7c-1.4-0.7-2.2-1.7-2.9-2.6c-2.4-3-2.9-6.5-2.9-8.4C993.9,210.9,992.7,211.9,991.5,212.9z"/>
<path class="st16" d="M1043.2,211.3c-0.1,1.5-0.7,6.8-5,10.9c-1.1,1-5.1,4.7-10.2,4c-3.1-0.4-5.1-2.3-6.5-3.5
	c-4.1-3.7-5.2-8.4-5.6-10.6c0.7,0,1.4,0.1,2.1,0.1c0.1,0.4,0.3,0.9,0.6,1.5c0.1,0.2,0.3,0.7,0.6,1.3c0.2,0.4,0.9,1.6,1.9,2.7
	c0.5,0.5,1.8,1.9,3.7,2.8c2.5,1.2,5.7,1.3,8.4,0.2c3.9-1.7,6.5-5.9,6.4-10.6C1040.8,210.5,1042,210.9,1043.2,211.3z"/>
<path class="st17" d="M898.3,74.4c5.8-3.2,13.5-6.8,23.1-9.9c9-2.9,17.2-4.5,23.9-5.5c-3.1-5.3-6.3-9.4-8.8-12.3
	c-3.2-3.7-8.1-7.7-18-15.7c-2.9-2.4-5.8-4.6-8.8-4.1c-1.8,0.3-3.1,1.6-4.6,3.8c-4.2,6-5.5,11.7-5.9,13.3c-0.8,3.6-1.5,8.4-1.7,15.1
	C897.4,62.9,897.5,68.2,898.3,74.4z"/>
<path class="st17" d="M1140.8,82.4c-5.3-4.3-12.5-9.3-21.5-13.9c-8.5-4.4-16.4-7.2-22.9-9.1c3.9-5.5,7.6-9.7,10.5-12.6
	c3.7-3.8,9.2-7.6,20.1-15.2c3.2-2.3,6.4-4.4,9.3-3.5c1.8,0.6,2.8,2.2,4,4.8c3.4,7.2,3.8,13.6,3.9,15.6c0.3,4.1,0.3,9.6-0.5,16.9
	C1143.4,69.8,1142.5,75.6,1140.8,82.4z"/>
<path class="st4" d="M998.9,558.8c-19.5,5.4-36.9,0.6-42.7-10c-1.9-3.6-4.9-12.1-0.6-19.7c3.2-5.7,8.7-8,10.7-8.7
	c0-36.4,0-72.7,0-109.1c-3.5-8.4-2.3-18,3.3-25.1c8.3-10.4,21.3-9.3,22.1-9.2h4.7c17.3,0,31.3,14,31.3,31.3v111.1
	c0.3,2.3,1.7,16.2-8.4,27.8C1011.7,556,1002,558.2,998.9,558.8z"/>
<path class="st4" d="M1081.7,562.8c-19.5,5.4-36.9,0.6-42.7-10c-1.9-3.6-4.9-12.1-0.6-19.7c3.2-5.7,8.7-8,10.7-8.7
	c0-36.4,0-72.7,0-109.1c-3.5-8.4-2.3-18,3.3-25.1c8.3-10.4,21.3-9.3,22.1-9.2h4.7c17.3,0,31.3,14,31.3,31.3v111.1
	c0.3,2.3,1.7,16.2-8.4,27.8C1094.5,559.9,1084.9,562.2,1081.7,562.8z"/>
<path class="st18" d="M971.1,530.3c-0.9-0.3-2.3-0.7-3.9-0.9c-1.6-0.2-4.3-0.5-7.1,0.6c-4,1.6-5.8,5.3-6.3,6.5
	c0.1,0.9,0.3,1.9,0.4,2.8c0.2-0.4,0.5-0.9,1-1.5c0.3-0.5,3.1-4,7.7-5.1c4.1-0.9,7.1,0.7,8.1-0.8
	C971.3,531.3,971.2,530.7,971.1,530.3z"/>
<path class="st18" d="M975.8,542.6c-1-0.2-2.3-0.3-4-0.3c-1.6,0.1-4.4,0.2-6.9,1.8c-3.7,2.2-4.8,6.2-5.1,7.4
	c0.3,0.9,0.6,1.8,0.9,2.7c0.1-0.4,0.4-1,0.7-1.7c0.3-0.5,2.4-4.5,6.8-6.3c3.9-1.6,7.2-0.4,7.8-2.1
	C976.2,543.6,975.9,543,975.8,542.6z"/>
<path class="st18" d="M1051.5,535.4c-1-0.1-2.4-0.1-4,0.1c-1.5,0.2-4.3,0.6-6.7,2.4c-3.4,2.6-4.2,6.6-4.4,7.8
	c0.4,0.9,0.7,1.8,1.1,2.6c0.1-0.4,0.3-1,0.5-1.7c0.2-0.5,1.9-4.7,6.2-6.9c3.8-2,7.1-1.1,7.6-2.8
	C1052,536.4,1051.7,535.7,1051.5,535.4z"/>
<path class="st18" d="M1059.2,546.1c-1,0.1-2.4,0.3-3.9,0.8c-1.5,0.5-4.2,1.3-6.3,3.5c-3,3.1-3.1,7.2-3.1,8.4c0.5,0.8,1,1.6,1.5,2.4
	c0-0.4,0.1-1.1,0.3-1.8c0.1-0.6,1.1-4.9,5-7.8c3.4-2.5,6.8-2.3,7.1-4C1059.8,547,1059.4,546.5,1059.2,546.1z"/>
</svg>
