<?xml version="1.0" encoding="utf-8"?>
<!-- Generator: Adobe Illustrator 23.0.3, SVG Export Plug-In . SVG Version: 6.00 Build 0)  -->
<svg version="1.1" id="Ebene_1" xmlns="http://www.w3.org/2000/svg" xmlns:xlink="http://www.w3.org/1999/xlink" x="0px" y="0px"
	 viewBox="0 0 159.19 91.25" style="enable-background:new 0 0 159.19 91.25;" xml:space="preserve">
<style type="text/css">
	.st0{fill:#EDD474;}
	.st1{fill:#FFFFFF;stroke:#020203;stroke-miterlimit:10;}
	.st2{fill:#EAB630;}
	.st3{fill:#E9DCBC;}
</style>
<rect x="10.15" y="4.98" class="st0" width="142.47" height="76.6"/>
<path class="st1" d="M-263.06,178.36"/>
<path class="st2" d="M152.45,71.53c-21.78-22.2-43.57-44.4-65.35-66.61c3.06,0.02,6.12,0.04,9.18,0.05
	c18.78,19.12,37.55,38.25,56.33,57.37C152.55,65.41,152.5,68.47,152.45,71.53z"/>
<path class="st2" d="M152.48,51.07c-15.13-15.35-30.26-30.7-45.4-46.05c5.71,0.03,11.42,0.06,17.12,0.09
	c9.41,9.54,18.82,19.09,28.23,28.63C152.45,39.53,152.46,45.3,152.48,51.07z"/>
<path class="st3" d="M71.94,82.6C51.33,61.99,30.72,41.38,10.11,20.77c0.01-5.26,0.02-10.53,0.04-15.79
	c5.96-0.11,11.91-0.23,17.87-0.34c26.34,25.86,52.69,51.71,79.03,77.57C95.35,82.34,83.64,82.47,71.94,82.6z"/>
<path class="st3" d="M19.49,83.12c-3.1-3.1-6.19-6.19-9.29-9.29c-0.11-8.23-0.23-16.47-0.34-24.7
	c11.07,11.07,22.14,22.14,33.21,33.21C35.22,82.61,27.35,82.87,19.49,83.12z"/>
<rect x="10.43" y="81.43" class="st2" width="142.19" height="1.53"/>
</svg>
