<?xml version="1.0" encoding="utf-8"?>
<!-- Generator: Adobe Illustrator 23.0.3, SVG Export Plug-In . SVG Version: 6.00 Build 0)  -->
<svg version="1.1" id="mentor" xmlns="http://www.w3.org/2000/svg" xmlns:xlink="http://www.w3.org/1999/xlink" x="0px" y="0px"
	 viewBox="0 0 620.43 542.3" style="enable-background:new 0 0 620.43 542.3;" xml:space="preserve">
<style type="text/css">
	.st0{fill:#413C69;}
	.st1{fill:#292650;}
	.st2{fill:#34375F;}
	.st3{fill:#1C2B4C;}
	.st4{fill:#1A2744;}
	.st5{fill:#4D4B7B;}
	.st6{fill:#645979;}
	.st7{fill:#30325F;}
	.st8{fill:#92637D;}
	.st9{fill:#392D4F;}
	.st10{fill:#40395E;}
	.st11{fill:#5A517B;}
	.st12{fill:#4E4368;}
	.st13{fill:#553A4C;}
	.st14{fill:#594C67;}
	.st15{fill:#7E6A7D;}
	.st16{fill:#44374E;}
	.st17{fill:#715C79;}
	.st18{fill:#B48986;}
	.st19{fill:#644B52;}
	.st20{fill:#674F66;}
	.st21{fill:#745D6B;}
	.st22{fill:#8D7A84;}
	.st23{fill:#76605D;}
	.st24{fill:#524A6E;}
</style>
<g>
	<path class="st0" d="M217.12,21.82c-0.07,0.39-0.14,0.78-0.21,1.17c-0.55,0.02-1.11,0.03-1.66,0.05"/>
	<path class="st1" d="M216.9,22.99c0.07-0.39,0.14-0.78,0.21-1.17c11.07-2.67,22.03-6.1,33.25-7.79
		c10.74-1.62,21.75-1.43,32.64-2.03c3.58-0.64,8.69-1.39,14.86-1.73c8.06-0.43,14.51,0.03,24,1.02c17.33,1.81,29.77,3.78,29.77,3.78
		c22.9,3.63,40.5,6.41,63.67,12.56c11.14,2.95,19.87,5.71,26.04,7.66c13.38,4.23,20.3,6.42,29.11,10.21
		c6.83,2.94,16.27,7.48,27.06,14.3c4.37,2.74,10.47,6.74,17.5,11.94c12.01,8.88,24.67,18.25,36.48,32.68
		c9.28,11.33,14.08,20.95,23.04,38.92c4.55,9.13,9.49,19.03,13.87,31.87c1.68,4.92,6.94,21.01,10.32,55.92
		c1.7,17.57,3.71,38.31,2.05,66.39c-1.23,20.77-3.11,49.05-15.44,82.97c-3.42,9.41-6.84,17.04-9.39,22.37
		c-0.02-5.25-0.13-10.51-0.06-15.76c0.38-29.22-1.11-58.51,2.78-87.62c0.36-3.23-1.83-3.28-4.09-3.32
		c-6.21-0.12-12.41-0.26-18.62-0.4c-0.06-17.6,0-35.21-0.24-52.81c-0.09-6.8,0.29-13.92-1.54-20.32
		c-5.41-18.83-9.7-38.42-18.31-55.79c-15.38-31.03-37.1-56.95-70.5-70.98c-17.62-7.4-34.29-17.14-52.03-24.17
		c-33.61-13.32-68.78-18.67-104.96-17.94c-23.66,0.48-46.61,4.88-69.29,11.15c-7.34,2.03-14.52,4.62-21.77,6.95
		C217.18,55.57,217.04,39.28,216.9,22.99z"/>
	<path class="st2" d="M578.69,299.47c-3.89,29.11-2.39,58.4-2.78,87.62c-0.07,5.25,0.03,10.51,0.06,15.76
		c-0.46,1.55-0.91,3.09-1.37,4.64c-4.12,4.68-8.19,9.4-12.38,14.02c-2.32,2.56-4.83,4.94-7.25,7.4c-0.56-4.65-1.13-9.29-1.85-15.26
		c-6.94,6.05-13,11.32-19.04,16.6c-12.6,11.02-25.25,21.97-37.75,33.1c-7.91,7.04-15.57,14.36-23.34,21.55
		c-1.64,0.82-3.28,1.65-4.91,2.47c-2.36,0.51-4.73,1.02-7.09,1.53c1.18-1.91,2-4.23,3.6-5.67c9.4-8.45,19-16.67,28.49-25.02
		c16.36-14.39,32.7-28.8,49.02-43.23c3.48-3.08,6.82-6.3,10.23-9.46c-0.23-0.64-0.45-1.28-0.68-1.92
		c-16.22-0.25-32.44-0.5-48.65-0.75c6.27-8.13,12.79-16.09,18.75-24.44c11.65-16.32,19.7-34.48,26.26-53.34
		c6.15-5.57,12.4-11.04,18.4-16.77c1.71-1.63,2.73-4,4.06-6.04c0.31-0.32,0.61-0.63,0.92-0.95
		C573.81,300.7,576.25,300.09,578.69,299.47z"/>
	<path class="st3" d="M353.96,15.94c-1.61,0.31-3.22,0.77-4.84,0.92c-15.68,1.37-31.35,2.82-47.05,3.88
		c-2.65,0.18-5.59-1.01-8.08-2.23c-3.81-1.87-7.34-4.31-10.98-6.5c1.28-0.31,2.56-0.87,3.84-0.9c21.71-0.55,43.39-0.56,64.79,3.98
		C352.44,15.24,353.19,15.64,353.96,15.94z"/>
	<path class="st4" d="M495.92,60.9c-11.75-4.59-23.51-9.15-35.24-13.77c-7.73-3.04-15.46-6.07-23.1-9.32
		c-2.04-0.87-3.75-2.51-5.62-3.8c22.57,3.37,42.87,12.41,61.8,24.84C494.58,59.39,495.21,60.22,495.92,60.9z"/>
	<path class="st0" d="M85.12,96.93c14.72-16.05,32.03-33.28,58.8-48.1c24.52-13.57,47.21-19.78,63.14-22.81
		c2.63-0.73,5.26-1.46,7.89-2.2c0.31,15.23,0.65,30.46,0.89,45.69c0.03,1.78-0.54,3.57-0.84,5.36c-4.07,1.81-8.01,4.12-12.25,5.35
		c-14.7,4.28-27.09,12.55-38.95,21.82c-19.26,15.07-33.55,34.08-43.8,56.14c-4.41,9.49-8.55,19.17-11.98,29.05
		c-5.66,16.32-12.6,32.55-15.39,49.42c-3.03,18.34-2.41,37.36-2.52,56.09c-0.11,19.3,4.3,37.99,10.36,56.22
		c1.84,5.52,4.99,10.6,7.53,15.89c-0.34,0.66-0.67,1.32-1.01,1.98c-1.09,0.32-2.32,0.4-3.24,0.98
		c-13.2,8.28-26.33,16.68-39.57,24.91c-3.77,2.34-7.84,4.2-11.78,6.28c-1.79-3.03-4.14-7.17-6.7-12.2
		c-2.01-3.95-6.98-14-12.35-29.28c-3.27-9.29-7.86-22.35-10.86-39.33c-2.88-16.31-2.9-28.46-2.9-43.6
		c-0.01-23.68-0.02-40.88,4.73-63.23c1.34-6.31,7.18-32.45,23.79-63.07C51.9,141.3,63.8,120.16,85.12,96.93z"/>
	<path class="st5" d="M52.42,398.99c3.93-2.08,8.01-3.94,11.78-6.28c13.24-8.22,26.36-16.63,39.57-24.91
		c0.92-0.58,2.15-0.67,3.24-0.98c5.8,10.27,11.33,20.69,17.46,30.76c8.97,14.72,20.77,26.74,35.77,35.46
		c8.71,5.06,18.85,6.6,27.46,12.35c11.12,7.42,24.81,8.04,37.48,11.38c19.9,5.25,40.18,8.49,60.58,8.74
		c32.54,0.4,65.21,2.33,97.63-2.61c-15.18,13.38-30.37,26.75-45.54,40.15c-8.95,7.9-17.85,15.86-26.77,23.79
		c0,0-0.11,0.07-0.11,0.07c0,0-3.07,1.6-3.63,1.89c-6.69,0.85-16.49,1.81-28.34,1.97c-95.31,1.25-160.29-52.18-169.65-60.64
		c-11.28-10.2-20.11-20.53-20.11-20.53c-0.5-0.58-3.83-4.72-10.49-13c-11.93-14.82-12.93-16.19-14.4-18.43
		c-1.73-2.63-3.52-5.56-9.03-14c-1.15-1.76-2.1-3.21-2.72-4.15C52.53,399.67,52.47,399.33,52.42,398.99z"/>
	<path class="st2" d="M207.05,26.01c-6.15,3.85-12.37,7.59-18.43,11.59c-4.9,3.24-10.14,4.14-15.96,4.54
		c-5.3,0.36-11.09,1.75-15.56,4.5c-10.44,6.42-21.14,12.94-30.01,21.26c-8.88,8.34-19,14.41-28.95,20.95
		c-4.27,2.81-8.68,5.39-13.03,8.08c9.78-9.21,19.04-19.06,29.44-27.49c26.23-21.26,56.11-35.35,89.06-42.86
		C204.75,26.32,205.91,26.2,207.05,26.01z"/>
	<path class="st6" d="M215,74.87c0.29-1.79,0.86-3.58,0.84-5.36c-0.23-15.23-0.58-30.46-0.89-45.69c0.09-0.26,0.19-0.52,0.3-0.78
		c0.55-0.02,1.11-0.03,1.66-0.05c0.14,16.29,0.28,32.58,0.42,48.87c0.23,16.34,0.45,32.67,0.68,49.01c-0.25,1.35-0.5,2.71-0.76,4.06
		c-0.42-0.03-0.84-0.05-1.26-0.08c-0.08-1.02-0.16-2.04-0.24-3.07C215.5,106.14,215.25,90.51,215,74.87z"/>
	<path class="st7" d="M502.99,402.85c16.22,0.25,32.44,0.5,48.65,0.75c0.23,0.64,0.45,1.28,0.68,1.92
		c-3.41,3.16-6.75,6.39-10.23,9.46c-16.32,14.44-32.66,28.85-49.02,43.23c-9.49,8.35-19.09,16.57-28.49,25.02
		c-1.6,1.44-2.42,3.76-3.6,5.67c-15.96,7.78-29.68,12.97-39.53,16.35c-27.42,9.39-50.16,13.29-70.47,16.68
		c-14.46,2.42-26.49,3.88-34.72,4.77c25.58-22.29,51.15-44.58,76.73-66.87c11.71-3.1,23.32-6.63,35.14-9.21
		C459.03,443.89,481.6,424.36,502.99,402.85z"/>
	<path class="st8" d="M392.98,459.83c-25.07,21.95-50.14,43.9-75.21,65.85c-0.86,0.44-1.71,0.88-2.57,1.32
		c-1.38-0.05-2.75-0.11-4.13-0.16c8.92-7.93,17.83-15.88,26.77-23.79c15.17-13.4,30.36-26.77,45.54-40.15
		c0.84-0.53,1.77-0.95,2.51-1.59c20.47-17.77,40.93-35.56,61.38-53.35c35.25-30.68,70.5-61.36,105.75-92.04
		c5.65-4.68,11.3-9.37,16.95-14.05c0.16,0.14,0.32,0.28,0.49,0.41c-1.34,2.03-2.35,4.4-4.06,6.03c-6,5.73-12.25,11.2-18.4,16.77
		c-0.92,0.7-1.89,1.36-2.76,2.12c-35.25,30.64-70.5,61.27-105.73,91.94C423.97,432.65,408.49,446.26,392.98,459.83z"/>
	<path class="st1" d="M553.96,430.8c-8.51,7.37-17.21,14.54-25.48,22.16c-14.72,13.57-31.49,23.65-50.21,30.59
		c-1.7,0.63-3.52,0.91-5.28,1.35c7.77-7.19,15.43-14.51,23.34-21.55c12.5-11.13,25.15-22.08,37.75-33.1
		c6.04-5.29,12.1-10.56,19.04-16.6c0.73,5.97,1.29,10.62,1.85,15.26C554.63,429.54,554.29,430.17,553.96,430.8z"/>
	<path class="st8" d="M310.2,527.72c0.25-0.27,0.51-0.54,0.76-0.81C310.71,527.18,310.46,527.45,310.2,527.72z"/>
	<path class="st9" d="M218,120.87c-0.23-16.34-0.45-32.67-0.68-49.01c7.25-2.33,14.44-4.92,21.77-6.95
		c22.67-6.27,45.62-10.67,69.29-11.15c36.18-0.73,71.36,4.62,104.96,17.94c17.75,7.03,34.41,16.77,52.03,24.17
		c33.4,14.02,55.12,39.94,70.5,70.98c8.61,17.37,12.9,36.96,18.31,55.79c1.84,6.4,1.45,13.52,1.54,20.32
		c0.24,17.6,0.18,35.2,0.24,52.81c-17.01-0.24-34.03-0.48-51.04-0.73c0.35-4.81,0.78-9.61,1.02-14.42
		c0.38-7.63,0.85-15.27,0.88-22.91c0.05-9.81,0.64-19.74-0.65-29.4c-4.04-30.25-18.23-55.35-41-75.52
		c-4.29-3.8-9.46-6.61-14.23-9.88c-7.67-6-15.33-11.99-23-17.99c-4.77-3.56-9.41-7.32-14.34-10.65
		c-13.68-9.24-29.29-13.97-44.74-19.23c-17.76-6.05-35.68-7.63-54.06-4.22c-1.68,0.31-3.23,1.35-4.84,2.04
		c-8.79,0.36-17.65,0.2-26.37,1.18c-22.08,2.48-42.2,10.27-60.03,23.72C221.9,119.01,219.87,119.84,218,120.87z"/>
	<path class="st8" d="M504.94,295.03c17.01,0.24,34.03,0.48,51.04,0.72c6.21,0.14,12.41,0.29,18.62,0.4
		c2.26,0.04,4.45,0.08,4.09,3.32c-2.44,0.61-4.88,1.22-7.31,1.84c-0.13-0.15-0.25-0.31-0.39-0.45c-5.33-0.29-10.66-0.58-15.98-0.87
		c-16.99-0.3-33.97-0.6-50.96-0.9c-3.67-0.02-7.34-0.04-11.01-0.06c-5.72-0.09-11.43-0.19-17.15-0.28c0-1.24,0.01-2.48,0.01-3.72
		c6.03-0.07,12.07-0.13,18.1-0.2C497.64,294.9,501.29,294.97,504.94,295.03z"/>
	<path class="st10" d="M392.98,459.83c15.51-13.57,30.98-27.18,46.52-40.71c35.22-30.67,70.48-61.3,105.73-91.94
		c0.87-0.76,1.84-1.41,2.76-2.12c-6.56,18.86-14.61,37.02-26.26,53.35c-5.96,8.35-12.48,16.31-18.75,24.44
		c-21.38,21.51-43.96,41.05-74.86,47.78C416.31,453.2,404.69,456.73,392.98,459.83z"/>
	<path class="st8" d="M571.38,301.31c-0.31,0.32-0.62,0.63-0.92,0.95c-0.16-0.13-0.32-0.27-0.48-0.41c0.34-0.33,0.68-0.66,1.02-1
		C571.12,301,571.25,301.15,571.38,301.31z"/>
	<path class="st11" d="M504.04,299.09c16.99,0.3,33.97,0.6,50.96,0.9c-0.39,2.44-0.84,4.87-1.14,7.33
		c-0.35,2.86-0.57,5.73-0.84,8.59c-35.25,30.68-70.5,61.37-105.75,92.04c-20.45,17.8-40.91,35.58-61.38,53.35
		c-0.74,0.64-1.67,1.07-2.51,1.59c-32.43,4.95-65.09,3.02-97.63,2.61c-20.4-0.25-40.68-3.49-60.58-8.74
		c-12.67-3.35-26.35-3.96-37.48-11.38c-8.61-5.75-18.75-7.29-27.46-12.35c-15-8.72-26.8-20.74-35.77-35.46
		c-6.13-10.06-11.66-20.49-17.46-30.76c0.34-0.66,0.67-1.32,1.01-1.98c1.85-1.12,3.7-2.24,5.55-3.36
		c9.8-5.9,19.61-11.79,29.41-17.69c0.55,1.74,1,3.51,1.65,5.2c6.67,17.42,19.81,29.79,33.32,41.65
		c17.56,15.41,39.93,22.29,60.3,32.7c1.45,0.74,3.17,1.18,4.8,1.3c19.87,1.43,39.75,2.8,59.63,4.09c1.42,0.09,2.89-0.6,4.33-0.92
		c17.32-0.01,34.64-0.03,51.96-0.04c5.27-0.71,10.7-0.86,15.79-2.24c18.01-4.84,35.94-9.97,53.83-15.26
		c9.57-2.83,17.94-7.73,24.79-15.26c14.18-15.58,26.99-32.19,36.79-50.84C497.55,330.12,502.64,315.12,504.04,299.09z"/>
	<path class="st12" d="M142.97,343.8c-9.8,5.9-19.61,11.79-29.41,17.69c-1.85,1.11-3.7,2.24-5.55,3.36
		c-2.55-5.28-5.7-10.37-7.53-15.89c-6.07-18.23-10.48-36.92-10.36-56.22c0.11-18.73-0.51-37.75,2.52-56.09
		c2.79-16.87,9.73-33.1,15.39-49.42c3.43-9.88,7.57-19.55,11.98-29.05c10.25-22.05,24.54-41.07,43.8-56.14
		c11.85-9.27,24.24-17.53,38.95-21.82c4.24-1.24,8.17-3.54,12.25-5.35c0.25,15.64,0.5,31.27,0.75,46.91
		c-10.27,7.56-21.46,14.17-30.63,22.89c-17.95,17.08-30.46,38.26-40.06,60.96c-6.56,15.5-9.85,31.71-6.4,48.73
		c0.46,2.27-0.49,4.87-0.95,7.29c-2.2,11.56-5.36,23.03-6.45,34.69c-1.38,14.74,4.2,28.5,8.96,42.19c0.44,1.28,1.84,2.22,2.8,3.32
		C143,342.5,142.99,343.15,142.97,343.8z"/>
	<path class="st13" d="M494,294.83c-6.03,0.07-12.07,0.13-18.1,0.2l0.09-0.22c0-12.13,0.57-24.29-0.22-36.37
		c-0.52-8.02-2.86-15.93-4.61-23.85c-0.74-3.37-2.4-6.56-3.02-9.95c-6.14-33.5-23.7-59.47-52.48-77.29
		c-27.58-17.08-58.07-21.77-89.82-16.74c-12.91,2.04-25.39,6.63-38.18,9.58c-19.05,4.4-35.85,13.16-50.91,25.39
		c-6.42,5.21-12.5,10.85-18.73,16.29c-0.26-18.98-0.52-37.96-0.78-56.95c0.25-1.35,0.5-2.71,0.76-4.06
		c1.87-1.03,3.89-1.86,5.58-3.13c17.83-13.45,37.94-21.24,60.03-23.72c8.72-0.98,17.58-0.82,26.37-1.18
		c10.93,0.66,21.87,1.31,32.8,1.99c23.87,1.48,45.72,9.52,66.64,20.6c6.13,3.25,12.36,6.32,18.54,9.48c7.67,6,15.33,11.99,23,17.99
		c1.84,2.32,3.46,4.86,5.56,6.91c9.95,9.77,17.87,21.04,24.07,33.42C498.38,218.78,501.93,256.14,494,294.83z"/>
	<path class="st14" d="M143.01,341.86c-0.96-1.1-2.35-2.04-2.8-3.32c-4.75-13.7-10.34-27.45-8.96-42.19
		c1.09-11.66,4.26-23.13,6.45-34.69c0.46-2.42,1.41-5.02,0.95-7.29c-3.45-17.02-0.16-33.23,6.4-48.73
		c9.6-22.7,22.11-43.87,40.06-60.96c9.17-8.73,20.36-15.33,30.63-22.89c0.08,1.02,0.16,2.04,0.24,3.07
		c-0.05,2.34-0.1,4.67-0.15,7.01c-5.82,4.25-6.83,10.83-7.6,17.16c-0.57,4.7-2.24,7.92-6.16,10.65
		c-16.26,11.29-30.14,25.25-37.87,43.48c-15.19,35.83-19.71,73.02-9.18,111.13c1.5,5.42,4.62,10.4,6.98,15.58
		c-0.02,0.65-0.03,1.3-0.05,1.95c-2.74,1.45-5.48,2.9-8.22,4.35C150.16,338.06,146.58,339.96,143.01,341.86z"/>
	<path class="st15" d="M215.83,131.86c0.05-2.34,0.1-4.67,0.16-7.01c0.42,0.03,0.84,0.05,1.26,0.08
		c0.26,18.98,0.52,37.96,0.78,56.95c0.01,24.96,0.05,49.92-0.01,74.88c-0.01,2.44-0.58,4.89-0.89,7.33
		c-0.38-2.59-1.09-5.17-1.1-7.76c-0.14-22.86-0.17-45.71-0.23-68.57C215.81,169.13,215.82,150.49,215.83,131.86z"/>
	<path class="st5" d="M553.02,315.91c0.28-2.86,0.49-5.74,0.84-8.59c0.3-2.45,0.75-4.88,1.14-7.33c5.33,0.29,10.66,0.58,15.98,0.87
		c-0.34,0.33-0.68,0.66-1.02,1C564.32,306.54,558.67,311.22,553.02,315.91z"/>
	<path class="st16" d="M494,294.83c7.93-38.69,4.38-76.05-13.41-111.6c-6.2-12.38-14.12-23.65-24.07-33.42
		c-2.1-2.06-3.72-4.59-5.56-6.91c4.77,3.27,9.94,6.08,14.23,9.88c22.78,20.17,36.96,45.27,41,75.52c1.29,9.66,0.7,19.59,0.65,29.4
		c-0.04,7.64-0.5,15.28-0.88,22.91c-0.24,4.81-0.67,9.61-1.02,14.42C501.29,294.97,497.64,294.9,494,294.83z"/>
	<path class="st16" d="M427.96,124.91c-6.18-3.15-12.41-6.23-18.54-9.48c-20.92-11.08-42.76-19.11-66.64-20.6
		c-10.93-0.68-21.87-1.33-32.8-1.99c1.61-0.7,3.16-1.73,4.84-2.04c18.38-3.41,36.3-1.82,54.06,4.22
		c15.45,5.26,31.06,9.99,44.74,19.23C418.55,117.59,423.19,121.35,427.96,124.91z"/>
	<path class="st17" d="M161.96,331.81c0.02-0.65,0.03-1.3,0.05-1.95c1.59-0.58,3.23-1.07,4.77-1.77c2.17-0.99,4.28-2.13,6.41-3.2
		c0.64,1.14,1.45,2.22,1.9,3.44c2.63,7,4.54,14.36,7.87,21c13.04,26.06,34.75,42.49,61.4,52.62c12.56,4.78,25.66,8.18,38.58,11.99
		c25.14,7.41,50.64,9.88,76.39,3.85c20.91-4.9,39.15-14.65,53.2-31.45c1.54-1.84,4.27-3.13,6.68-3.74
		c22.26-5.69,37.19-19.85,46.72-40.21c6.45-13.78,8.37-28.66,10.01-43.57l-0.04-0.06c5.72,0.09,11.43,0.19,17.15,0.28
		c-1.16,4.51-2.2,9.06-3.51,13.52c-8.42,28.69-23.87,52.96-46.52,72.46c-23.24,20.01-50.1,33.07-79.77,40.55
		c-1.52,0.38-2.85,1.47-4.27,2.23c-17.32,0.01-34.64,0.03-51.96,0.04c-2.75-0.61-5.47-1.39-8.24-1.82
		c-20.88-3.18-41.69-6.74-61.53-14.3c-26.59-10.12-48.39-26.4-62.64-51.39C169.46,351.34,166.12,341.34,161.96,331.81z"/>
	<path class="st6" d="M358.96,427.78c1.42-0.76,2.76-1.85,4.27-2.23c29.67-7.47,56.53-20.54,79.77-40.55
		c22.65-19.5,38.1-43.76,46.52-72.46c1.31-4.47,2.34-9.01,3.51-13.52c3.67,0.02,7.34,0.04,11.01,0.06
		c-1.41,16.02-6.5,31.02-13.89,45.09c-9.8,18.65-22.6,35.26-36.79,50.84c-6.85,7.53-15.22,12.43-24.79,15.26
		c-17.88,5.29-35.82,10.42-53.83,15.26C369.66,426.92,364.23,427.07,358.96,427.78z"/>
	<path class="st18" d="M475.9,295.03c0,1.24-0.01,2.48-0.01,3.72c0,0,0.04,0.06,0.04,0.06c-22.3-0.29-44.6-0.58-66.9-0.88
		c-18.69-0.35-37.38-0.7-56.07-1.05c-1.63-1.04-3.26-2.08-4.89-3.12c2.28-0.24,4.56-0.72,6.84-0.7c18.04,0.17,36.08,0.42,54.13,0.66
		c22.32,0.36,44.64,0.72,66.96,1.09L475.9,295.03z"/>
	<path class="st6" d="M161.96,331.81c4.16,9.53,7.5,19.53,12.63,28.51c14.25,24.98,36.06,41.26,62.64,51.39
		c19.84,7.56,40.65,11.12,61.53,14.3c2.77,0.42,5.49,1.2,8.24,1.82c-1.45,0.33-2.92,1.01-4.33,0.92
		c-19.88-1.29-39.76-2.66-59.63-4.09c-1.63-0.12-3.35-0.56-4.8-1.3c-20.37-10.42-42.74-17.29-60.3-32.7
		c-13.51-11.86-26.65-24.23-33.32-41.65c-0.65-1.7-1.1-3.47-1.65-5.2c0.01-0.65,0.02-1.29,0.03-1.94c3.58-1.9,7.16-3.8,10.74-5.7
		C156.48,334.71,159.22,333.26,161.96,331.81z"/>
	<path class="st19" d="M475.99,294.81c-22.32-0.36-44.64-0.72-66.96-1.09c0.1-1.99,0.09-4,0.32-5.98
		c3.03-26.1-1.83-50.23-18.77-70.9c-13.51-16.48-31.02-25.85-52.59-26.96c-4.02-6.3-8.17-12.14-15.78-15.02
		c-6.56-2.48-12.4-2.93-18.28,1.12c-0.93,0.33-1.86,0.66-2.79,0.98c-1.07,0.96-2.13,1.93-3.2,2.89c-0.61,0.35-1.22,0.7-1.83,1.05
		c-0.34,0.34-0.68,0.68-1.02,1.02c-1.36,4.98-2.72,9.96-4.07,14.94c-4.72,0-5.6,4.2-7.71,7.05c-7.41,3.97-15.49,7.06-22.11,12.07
		c-24.77,18.74-38.43,43.6-39.07,75.07c-1.69,0.33-3.37,0.67-5.06,1c0.03-9.32,0.05-18.64,0.08-27.96c0.31-2.44,0.88-4.89,0.89-7.33
		c0.05-24.96,0.02-49.92,0.01-74.88c6.23-5.44,12.31-11.08,18.73-16.29c15.06-12.23,31.86-20.99,50.91-25.39
		c12.79-2.95,25.27-7.53,38.18-9.58c31.75-5.03,62.24-0.33,89.82,16.74c28.78,17.82,46.35,43.79,52.48,77.29
		c0.62,3.39,2.28,6.57,3.02,9.95c1.74,7.91,4.09,15.83,4.61,23.85C476.56,270.52,475.99,282.68,475.99,294.81z"/>
	<path class="st20" d="M173.19,324.89c-2.13,1.07-4.24,2.21-6.41,3.2c-1.54,0.7-3.18,1.19-4.77,1.77
		c-2.37-5.18-5.48-10.16-6.98-15.58c-10.53-38.11-6.02-75.3,9.18-111.13c7.73-18.23,21.61-32.19,37.87-43.48
		c3.93-2.73,5.59-5.94,6.16-10.65c0.77-6.34,1.78-12.91,7.6-17.16c-0.01,18.64-0.02,37.27-0.02,55.91
		c-1.71,1.52-3.73,2.81-5.08,4.61c-14.45,19.18-25.62,40.12-32.02,63.32c-6,21.72-7.34,43.9-4.55,66.29
		C173.83,322.94,173.51,323.92,173.19,324.89z"/>
	<path class="st21" d="M174.15,321.97c-2.79-22.39-1.45-44.56,4.55-66.29c6.41-23.2,17.57-44.13,32.02-63.32
		c1.35-1.79,3.37-3.08,5.08-4.61c0.06,22.86,0.08,45.71,0.22,68.57c0.02,2.59,0.72,5.17,1.1,7.76c-0.02,9.32-0.05,18.64-0.07,27.96
		c0.36,0.9,0.71,1.8,1.07,2.7c-9.19,6.08-18.29,12.31-27.62,18.19C185.25,316.25,179.62,318.98,174.15,321.97z"/>
	<path class="st15" d="M174.15,321.97c5.47-2.99,11.1-5.72,16.36-9.04c9.32-5.87,18.42-12.11,27.62-18.19
		c1.29,0.06,2.57,0.12,3.86,0.18c2.15,8.84,3.29,18.09,6.64,26.45c9.38,23.42,26.9,38.68,50.64,46.81
		c16.91,5.8,34.58,6.46,52.17,6.55c41.52,0.23,77.09-35.24,77.59-76.81c22.3,0.29,44.6,0.58,66.9,0.88
		c-1.64,14.91-3.56,29.8-10.01,43.57c-9.53,20.36-24.46,34.52-46.72,40.21c-2.41,0.62-5.14,1.9-6.68,3.74
		c-14.05,16.79-32.29,26.55-53.2,31.45c-25.75,6.03-51.25,3.56-76.39-3.85c-12.92-3.81-26.01-7.21-38.58-11.99
		c-26.64-10.13-48.35-26.56-61.4-52.62c-3.33-6.65-5.24-14-7.87-21c-0.46-1.21-1.26-2.3-1.9-3.44
		C173.51,323.92,173.83,322.94,174.15,321.97z"/>
	<path class="st22" d="M409.03,297.94c-0.49,41.56-36.07,77.03-77.59,76.81c-17.59-0.1-35.26-0.76-52.17-6.55
		c-23.74-8.14-41.26-23.39-50.64-46.81c-3.35-8.36-4.49-17.61-6.64-26.45c16.98,0.3,33.97,0.61,50.95,0.91
		c-5.84,5.53-11.53,11.25-13.49,19.38c-0.87,3.6-4.4,8.78,3.53,9.35c0.45,0.03,0.82,0.98,1.26,1.48
		c7.07,8.07,15.96,12.92,26.47,14.85c3.92,0.72,7.98,0.96,11.75,2.14c7.14,2.22,14.25,3.01,21.66,1.81
		c15.59-2.52,27.93-10.28,36.76-23.26c4.36-6.41,3.29-13.09-2.01-18.6c-1.96-2.04-3.94-4.06-5.91-6.09
		C371.65,297.24,390.34,297.59,409.03,297.94z"/>
	<path class="st23" d="M348.07,293.77c-9.75-3.33-19.47-6.76-29.27-9.95c-10.79-3.51-20.64-2.25-29.53,7.63
		c-0.64-4.43-1.1-7.76-1.62-11.09c-3.45-22.4-0.9-44.1,7.48-65.15c0.54-1.35,0.6-2.9,0.89-4.35c2.06,4.1,6.62,6.95,4.96,12.85
		c-2.25,7.99-4.35,16.12-5.29,24.34c-0.88,7.66-3.4,15.83,4.23,22.53c2.84,2.49,4.96,5.16,8.97,5.24
		c13.02,1.68,25.78,0.93,38.12-3.96c0.68-0.34,1.35-0.68,2.03-1.01l-0.07,0.05c0.35-0.35,0.71-0.71,1.06-1.06l-0.06,0.05
		c0.69-0.34,1.37-0.69,2.06-1.03l-0.04,0.03c4.07-2.07,8.6-3.55,12.12-6.33c8.92-7.04,17.09-14.84,16.75-27.63
		c0.78-4.94,2-10.46-2.75-13.72c-7.89-5.4-15.92-11.01-24.68-14.6c-8.27-3.39-12.46-9.14-15.42-16.71
		c21.57,1.11,39.08,10.48,52.59,26.96c16.94,20.67,21.8,44.8,18.77,70.9c-0.23,1.98-0.22,3.99-0.32,5.98
		c-18.04-0.23-36.08-0.49-54.13-0.66C352.63,293.05,350.35,293.52,348.07,293.77z"/>
	<path class="st23" d="M283.3,203.91c-6.9,15.77-10.47,32.4-10.7,49.48c-0.15,10.88,1.71,21.79,2.78,32.68
		c0.23,2.3,0.92,4.55,1.4,6.83c-0.93,0.37-1.86,0.73-2.79,1.1c0,0,0.19-0.05,0.19-0.05c-4.76-0.7-9.51-1.83-14.29-2.03
		c-12.58-0.51-25.17-0.61-37.76-0.88c0.64-31.47,14.31-56.33,39.07-75.07C267.81,210.97,275.89,207.88,283.3,203.91z"/>
	<path class="st18" d="M222.12,291.05c12.59,0.26,25.18,0.37,37.76,0.88c4.78,0.19,9.53,1.32,14.29,2.03
		c-0.41,0.63-0.83,1.26-1.24,1.89c-16.98-0.3-33.97-0.61-50.95-0.91c-1.29-0.06-2.57-0.12-3.86-0.18c-0.36-0.9-0.71-1.8-1.07-2.7
		C218.75,291.72,220.43,291.38,222.12,291.05z"/>
	<path class="st20" d="M301.14,176.97c-1.07,0.96-2.13,1.93-3.2,2.89C299,178.89,300.07,177.93,301.14,176.97z"/>
	<path class="st20" d="M296.11,180.91c-0.34,0.34-0.68,0.68-1.02,1.02C295.43,181.59,295.77,181.25,296.11,180.91z"/>
	<path class="st18" d="M273.99,294c0.93-0.36,1.86-0.73,2.79-1.1C275.85,293.27,274.92,293.64,273.99,294z"/>
	<path class="st24" d="M349.96,269.88c0.69-0.34,1.37-0.69,2.06-1.03C351.33,269.19,350.65,269.54,349.96,269.88z"/>
	<path class="st24" d="M347.01,271.85c0.68-0.34,1.35-0.68,2.03-1.01C348.36,271.18,347.68,271.51,347.01,271.85z"/>
	<path class="st24" d="M348.96,270.89c0.35-0.35,0.71-0.71,1.06-1.06C349.67,270.18,349.32,270.54,348.96,270.89z"/>
	<path class="st23" d="M338.93,233.79c-0.37,0.22-0.75,0.44-1.12,0.67C338.19,234.23,338.56,234.01,338.93,233.79z"/>
	<path class="st23" d="M334.99,235.79c-0.33,0.27-0.65,0.54-0.98,0.8C334.34,236.33,334.66,236.06,334.99,235.79z"/>
	<path class="st23" d="M336.85,234.78c-0.35,0.24-0.7,0.48-1.05,0.72C336.15,235.26,336.5,235.02,336.85,234.78z"/>
</g>
</svg>
