<?xml version="1.0" encoding="utf-8"?>
<!-- Generator: Adobe Illustrator 23.0.3, SVG Export Plug-In . SVG Version: 6.00 Build 0)  -->
<svg version="1.1" id="mentor" xmlns="http://www.w3.org/2000/svg" xmlns:xlink="http://www.w3.org/1999/xlink" x="0px" y="0px"
	 viewBox="0 0 620.43 542.3" style="enable-background:new 0 0 620.43 542.3;" xml:space="preserve">
<style type="text/css">
	.st0{fill:#645979;}
	.st1{fill:#594C67;}
	.st2{fill:#745D6B;}
	.st3{fill:#472447;}
	.st4{fill:#8B748B;}
	.st5{fill:#623146;}
	.st6{fill:#36274C;}
	.st7{fill:#584C6B;}
	.st8{fill:#924A40;}
	.st9{fill:#764443;}
	.st10{fill:#754343;}
	.st11{fill:#AC684C;}
	.st12{fill:#CC9062;}
	.st13{fill:#33244A;}
</style>
<path class="st0" d="M107.53,365.8"/>
<path class="st1" d="M142.13,342.53"/>
<path class="st2" d="M172.38,325.21"/>
<g>
	<path class="st3" d="M602.86,287.9c0.19,11.26,0.12,20.82,0,28c-0.22,0.27-0.55,0.52-0.72,0.79c0,0-0.07,0.13-0.11,0.28
		c-0.27,0.89-5.94,42.67-12.32,63.52c-0.99,3.24-4.06,12.7-10.52,23.67c-5.47,9.3-10.82,15.35-16.91,22.14
		c-12.72,14.21-24.57,23.86-30.69,28.59c-12.43,9.6-23.38,15.98-36.09,22.87c-32.94,17.84-49.41,26.76-72,34.47
		c-37.13,12.67-67.34,14.39-100.63,16.29c-29.42,1.68-50.78,0.36-72.47-0.97c-52.63-3.24-71.59-9.97-78.59-12.64
		c-15.67-5.98-26.7-12.72-37.84-19.53c-11.61-7.1-34.11-21.03-55.15-42.89c-33.28-34.58-46.49-71.96-52.09-88.34
		C9.4,313.45,12.84,271.15,14.98,247.9c1.52-16.57,3.87-38.02,14.04-63.5c8.47-21.22,19.14-37.44,27.85-48.69
		c3.26-4.15,6.38-8.4,9.8-12.41c0,0,9.31-11.34,17.98-20.47c29.02-30.57,69.98-52.48,69.98-52.48c7.14-3.82,31.43-16.43,65.89-25.5
		c22.89-6.02,42.98-8.58,58.41-9.67c21.63-0.28,43.26-0.56,64.89-0.83c15.64,1.66,35.71,4.69,58.61,10.49
		c34.23,8.67,58.87,19.51,67.01,23.21c23.81,10.82,39.18,17.8,56.81,32.39c26.84,22.23,41.23,46.33,47.18,59.39
		c9.24,20.27,15.32,42,22.43,63.21c4.67,13.92,3.91,27.36,5.03,40.92C602.4,262.19,602.69,277.49,602.86,287.9z M322.54,468.87
		c10.66,0,21.34,0.34,31.98-0.1c9.26-0.38,18.74-0.59,27.68-2.72c20.53-4.9,40.84-10.76,61.14-16.54
		c14.69-4.19,26.79-12.98,38.45-22.52c11.99-9.81,23.24-20.33,32.74-32.61c13.63-17.63,24.1-37.04,32.45-57.67
		c7.82-19.32,13.04-39.09,11.91-60.17c-0.77-14.26-0.92-28.57-2.19-42.78c-0.75-8.34-2.75-16.63-4.92-24.75
		c-1.84-6.87-4.69-13.47-7.15-20.17c-3.08-8.4-4.91-17.61-9.59-25.01c-7.95-12.58-17.18-24.46-26.84-35.81
		c-9.74-11.45-21.32-20.99-35.57-26.74c-4.78-1.93-9.54-3.93-14.2-6.14c-14.26-6.74-28.4-13.76-42.72-20.37
		c-16.63-7.68-34.54-10.76-52.4-13.8c-17.31-2.94-34.67-4.91-52.38-4.25c-17.36,0.65-34.48,2.54-51.27,6.63
		c-12.7,3.1-25.19,7.18-37.54,11.5c-6.54,2.29-12.31,6.85-18.88,8.94c-18.59,5.91-33.86,17.02-47.6,30.15
		c-16.65,15.9-29.49,34.52-37.23,56.57c-6.33,18.03-14.14,35.54-20.42,53.58c-7.39,21.22-5.99,43.63-6.55,65.59
		c-0.31,11.97,1.91,24.14,4.08,36.02c3.64,19.89,10.32,38.77,20,56.67c8.19,15.16,17.28,29.59,29.93,41.36
		c7.78,7.23,16.24,13.68,26.9,16.58c3.84,1.04,7.4,3.16,11.05,4.86c5.7,2.66,11.16,6.11,17.11,7.91c10.32,3.13,20.94,5.23,31.43,7.8
		c21.55,5.27,43.47,7.57,65.61,7.96C305.88,469,314.21,468.87,322.54,468.87z"/>
	<path class="st4" d="M602.86,287.9c0-4,0-8,0-12C602.86,279.9,602.86,283.9,602.86,287.9z"/>
	<path class="st5" d="M322.54,468.87c-8.33,0-16.66,0.12-24.99-0.02c-22.14-0.39-44.06-2.69-65.61-7.96
		c-10.49-2.57-21.11-4.67-31.43-7.8c-5.96-1.81-11.41-5.25-17.11-7.91c-3.65-1.7-7.21-3.82-11.05-4.86
		c-10.65-2.9-19.12-9.35-26.9-16.58c-12.65-11.76-21.74-26.19-29.93-41.36c-9.68-17.9-16.36-36.79-20-56.67
		c-2.17-11.88-4.39-24.04-4.08-36.02c0.56-21.97-0.84-44.37,6.55-65.59c6.29-18.04,14.09-35.55,20.42-53.58
		c7.74-22.05,20.59-40.67,37.23-56.57c13.74-13.13,29.02-24.23,47.6-30.15c6.57-2.09,12.34-6.65,18.88-8.94
		c12.35-4.32,24.84-8.4,37.54-11.5c16.79-4.09,33.91-5.99,51.27-6.63c17.71-0.66,35.06,1.31,52.38,4.25
		c17.86,3.04,35.78,6.12,52.4,13.8c14.32,6.61,28.46,13.63,42.72,20.37c4.66,2.2,9.42,4.21,14.2,6.14
		c14.24,5.75,25.83,15.29,35.57,26.74c9.66,11.35,18.89,23.23,26.84,35.81c4.68,7.4,6.51,16.6,9.59,25.01
		c2.45,6.7,5.31,13.3,7.15,20.17c2.17,8.12,4.18,16.42,4.92,24.75c1.27,14.21,1.43,28.52,2.19,42.78
		c1.13,21.08-4.09,40.85-11.91,60.17c-8.35,20.63-18.82,40.04-32.45,57.67c-9.49,12.28-20.75,22.79-32.74,32.61
		c-11.66,9.55-23.76,18.34-38.45,22.52c-20.31,5.79-40.61,11.65-61.14,16.54c-8.94,2.13-18.42,2.34-27.68,2.72
		C343.88,469.21,333.2,468.87,322.54,468.87z M360.81,430.76c5.25-0.67,10.64-0.79,15.72-2.11c15.42-4.03,30.67-8.71,46.08-12.78
		c15.24-4.02,28.5-11.15,38.29-23.7c7.44-9.54,14.55-19.35,21.55-29.23c17.07-24.07,24.7-51.17,25.4-80.43
		c0.14-5.82,0.27-11.64,0.2-17.46c-0.17-13.07,1.07-26.39-1.03-39.16c-4.6-27.98-18.6-51.34-39.93-70.05
		c-4.51-3.95-10.1-6.68-15.19-9.97c-7.33-5.67-14.67-11.33-22-17c-1.1-1.37-1.96-3.07-3.33-4.06
		c-11.73-8.49-24.04-15.83-37.87-20.63c-21.38-7.41-42.62-15.23-65.89-11.22c-3.71,0.64-7.31,1.92-10.96,2.9
		c-13.94-0.25-27.81,0.35-41.41,3.74c-16.09,4-30.84,11.02-44.52,20.33c-1.54,0.6-3.3,0.9-4.58,1.85
		c-11.61,8.56-23.88,16.41-34.48,26.1c-12.02,10.98-21.29,24.54-29.19,38.88c-12.18,22.09-22.23,44.67-16.93,70.96
		c0.37,1.81-0.48,3.9-0.88,5.83c-2.29,11.02-5.98,21.95-6.66,33.07c-1.39,22.75,6.81,43.57,17.26,63.2
		c10.23,19.22,26.28,33.44,44.74,44.49c11.07,6.62,23.53,10.88,34.73,17.31c11.18,6.42,23.15,7.6,35.44,8.26
		c11.92,0.65,23.84,1.38,35.78,1.86c3.23,0.13,6.5-0.54,9.75-0.84C327.54,430.85,344.17,430.81,360.81,430.76z"/>
	<path class="st6" d="M87.08,99.99c0.78-0.86,1.55-1.71,2.33-2.57C88.63,98.28,87.86,99.13,87.08,99.99z"/>
	<path class="st6" d="M85.59,101.77c0.47-0.56,0.94-1.12,1.41-1.68C86.53,100.64,86.06,101.2,85.59,101.77z"/>
	<path class="st6" d="M84.65,102.84c0.37-0.42,0.75-0.83,1.13-1.25C85.41,102,85.03,102.42,84.65,102.84z"/>
	<path class="st7" d="M330.87,15.05c-1-0.07-2-0.14-3-0.21C328.87,14.91,329.87,14.98,330.87,15.05z"/>
	<path class="st7" d="M339.88,16.02c-0.67-0.06-1.34-0.13-2.01-0.19C338.54,15.9,339.21,15.96,339.88,16.02z"/>
	<path class="st8" d="M429.92,128.88c7.33,5.67,14.67,11.33,22,17c8.09,9.85,17.12,19.09,24.09,29.67
		c15.62,23.71,23.22,50.39,23.6,78.65c0.19,14.33-1.55,28.83-3.86,43.01c-4.67,28.62-16.32,54.39-35.85,75.99
		c-24.37,26.96-54.61,44.57-89.72,53.88c-3.22,0.85-6.25,2.44-9.36,3.68c-16.64,0.04-33.27,0.09-49.91,0.13
		c-3.54-0.66-7.07-1.41-10.63-1.97c-21.82-3.43-43.57-7.07-64.23-15.46c-15.91-6.47-30.23-15.34-42.35-27.44
		c-13.11-13.1-21.92-28.97-28.84-46.09c-8.49-21.01-14.14-42.59-13.78-65.35c0.14-8.57,1.73-17.13,2.9-25.67
		c1.98-14.55,5.27-28.83,11.6-42.13c8.69-18.24,22.11-32.49,38.3-44.41c2.65-1.95,5.29-5.46,5.76-8.58
		c1.78-11.71,5.91-22.03,14.33-30.51c0.89-0.89,1.33-2.22,1.97-3.35c13.68-9.31,28.43-16.33,44.52-20.33
		c13.6-3.38,27.47-3.98,41.41-3.74c14.06,1.01,28.15,1.72,42.17,3.11c18.11,1.8,34.8,8.48,50.96,16.43
		C413.45,119.59,421.62,124.37,429.92,128.88z M477.87,282.25c0-8.88,0.63-15.62-0.16-22.19c-0.92-7.68-2.99-15.23-4.76-22.8
		c-0.74-3.19-2.16-6.21-2.97-9.39c-1.49-5.78-2.17-11.84-4.22-17.41c-10.4-28.26-28.29-50.14-55.43-64.02
		c-28.35-14.49-58.19-17.85-89.15-11.68c-9.74,1.94-19.06,5.94-28.8,7.89c-25.89,5.2-47.39,18.43-65.77,36.53
		c-9.02,8.88-16.36,19.65-23.51,30.2c-8.78,12.95-15.33,27.14-20.34,42.05c-7.22,21.49-8.68,43.62-7.74,66.01
		c0.24,5.76,1.14,11.65,2.78,17.16c9.83,33.04,31.93,55.23,63.16,68.2c14.37,5.97,29.62,9.91,44.59,14.37
		c21.43,6.39,43.35,8.8,65.56,5.6c23.35-3.37,44.1-12.57,60.32-30.2c3.63-3.95,7.28-6.24,12.5-7.81
		c25.43-7.63,40.36-25.76,48.02-50.48C477.43,316.62,478.51,298.41,477.87,282.25z"/>
	<path class="st9" d="M225.93,119.94c-0.65,1.13-1.09,2.46-1.97,3.35c-8.43,8.48-12.56,18.8-14.33,30.51
		c-0.47,3.12-3.11,6.63-5.76,8.58c-16.19,11.92-29.62,26.17-38.3,44.41c-6.34,13.3-9.62,27.58-11.6,42.13
		c-1.16,8.54-2.76,17.1-2.9,25.67c-0.36,22.75,5.29,44.34,13.78,65.35c6.92,17.12,15.72,32.99,28.84,46.09
		c12.12,12.11,26.45,20.98,42.35,27.44c20.66,8.4,42.4,12.03,64.23,15.46c3.56,0.56,7.09,1.31,10.63,1.97
		c-3.25,0.3-6.52,0.97-9.75,0.84c-11.93-0.48-23.85-1.21-35.78-1.86c-12.29-0.67-24.26-1.84-35.44-8.26
		c-11.2-6.43-23.66-10.69-34.73-17.31c-18.47-11.05-34.51-25.27-44.74-44.49c-10.45-19.62-18.65-40.44-17.26-63.2
		c0.68-11.12,4.37-22.05,6.66-33.07c0.4-1.93,1.24-4.02,0.88-5.83c-5.3-26.3,4.75-48.88,16.93-70.96
		c7.91-14.33,17.18-27.89,29.19-38.88c10.6-9.68,22.87-17.54,34.48-26.1C222.63,120.84,224.39,120.54,225.93,119.94z"/>
	<path class="st10" d="M360.81,430.76c3.12-1.25,6.14-2.83,9.36-3.68c35.12-9.31,65.35-26.92,89.72-53.88
		c19.53-21.6,31.18-47.37,35.85-75.99c2.31-14.19,4.06-28.68,3.86-43.01c-0.38-28.26-7.97-54.93-23.6-78.65
		c-6.98-10.59-16-19.82-24.09-29.67c5.09,3.29,10.68,6.01,15.19,9.97c21.33,18.71,35.33,42.06,39.93,70.05
		c2.1,12.77,0.86,26.09,1.03,39.16c0.07,5.82-0.06,11.64-0.2,17.46c-0.7,29.26-8.33,56.36-25.4,80.43
		c-7,9.87-14.11,19.69-21.55,29.23c-9.79,12.55-23.05,19.68-38.29,23.7c-15.41,4.07-30.66,8.75-46.08,12.78
		C371.46,429.98,366.06,430.09,360.81,430.76z"/>
	<path class="st10" d="M429.92,128.88c-8.3-4.51-16.47-9.29-24.93-13.46c-16.16-7.96-32.84-14.63-50.96-16.43
		c-14.02-1.39-28.11-2.1-42.17-3.11c3.65-0.98,7.25-2.26,10.96-2.9c23.27-4.01,44.51,3.8,65.89,11.22
		c13.83,4.8,26.14,12.14,37.87,20.63C427.96,125.81,428.82,127.51,429.92,128.88z"/>
	<path class="st11" d="M477.87,282.25c0.63,16.16-0.45,34.37-5.92,52.06c-7.65,24.72-22.58,42.85-48.02,50.48
		c-5.22,1.57-8.87,3.86-12.5,7.81c-16.22,17.63-36.97,26.83-60.32,30.2c-22.21,3.21-44.13,0.8-65.56-5.6
		c-14.97-4.47-30.21-8.4-44.59-14.37c-31.23-12.98-53.33-35.16-63.16-68.2c-1.64-5.52-2.54-11.4-2.78-17.16
		c-0.94-22.38,0.52-44.52,7.74-66.01c5.01-14.91,11.56-29.1,20.34-42.05c7.15-10.55,14.49-21.32,23.51-30.2
		c18.38-18.1,39.88-31.33,65.77-36.53c9.74-1.96,19.06-5.95,28.8-7.89c30.95-6.18,60.8-2.82,89.15,11.68
		c27.14,13.88,45.03,35.76,55.43,64.02c2.05,5.56,2.73,11.62,4.22,17.41c0.82,3.18,2.23,6.2,2.97,9.39
		c1.77,7.56,3.83,15.12,4.76,22.8C478.5,266.63,477.87,273.37,477.87,282.25z M412.92,277.38c-0.68-23.8-7.94-45.02-24.39-61.94
		c-19.38-19.93-43.72-26.95-70.85-20.69c-11.7,2.7-22.92,7.79-34.1,12.41c-19.64,8.12-35.23,21.39-45.89,39.77
		c-14.02,24.16-18.9,49.55-7.81,76.4c9.94,24.04,27.42,40.22,52.13,47.88c9.22,2.86,19.21,3.21,28.81,4.92
		c15.28,2.72,30.32,2.77,45.26-2.22c26.46-8.83,44.2-26.64,51.46-53.22C411.32,306.81,411.25,291.86,412.92,277.38z"/>
	<path class="st12" d="M412.92,277.38c-1.67,14.47-1.6,29.42-5.39,43.32c-7.26,26.58-25,44.39-51.46,53.22
		c-14.94,4.99-29.98,4.94-45.26,2.22c-9.6-1.71-19.59-2.05-28.81-4.92c-24.7-7.66-42.19-23.84-52.13-47.88
		c-11.1-26.85-6.21-52.25,7.81-76.4c10.66-18.38,26.25-31.65,45.89-39.77c11.18-4.62,22.4-9.71,34.1-12.41
		c27.14-6.26,51.47,0.76,70.85,20.69C404.98,232.36,412.24,253.58,412.92,277.38z"/>
	<path class="st13" d="M231.23,517.59"/>
</g>
</svg>
