<?xml version="1.0" encoding="utf-8"?>
<!-- Generator: Adobe Illustrator 23.0.3, SVG Export Plug-In . SVG Version: 6.00 Build 0)  -->
<svg version="1.1" id="game" xmlns="http://www.w3.org/2000/svg" xmlns:xlink="http://www.w3.org/1999/xlink" x="0px" y="0px"
	 viewBox="0 0 536.5 474.7" style="enable-background:new 0 0 536.5 474.7;" xml:space="preserve">
<style type="text/css">
	.st0{fill:#292650;}
	.st1{fill:#23305D;}
	.st2{fill:#212952;}
	.st3{fill:#E0BEA3;}
	.st4{fill:#392D4F;}
	.st5{fill:#413C69;}
	.st6{fill:#433E5E;}
	.st7{fill:#34375E;}
	.st8{fill:#383E6A;}
	.st9{fill:#4D4B7C;}
	.st10{fill:#414979;}
	.st11{fill:#8F607E;}
	.st12{fill:#40395D;}
	.st13{fill:#30325F;}
	.st14{fill:#8D7A84;}
	.st15{fill:#553A4C;}
	.st16{fill:#44384E;}
	.st17{fill:#4E4368;}
	.st18{fill:#4E475D;}
	.st19{fill:#5A517A;}
	.st20{fill:#AC797E;}
	.st21{fill:#715C79;}
	.st22{fill:#644B52;}
	.st23{fill:#5E4B5C;}
	.st24{fill:#6B5860;}
	.st25{fill:#645979;}
	.st26{fill:#7E6A7C;}
	.st27{fill:#77615D;}
</style>
<g>
	<path class="st0" d="M536.5,231.9c0,15.5,0,30.9,0,46.4c-0.7,3.4-1.3,6.9-2.2,10.3c-5,19.8-10.1,39.6-15.3,59.4
		c-0.4,1.4-0.9,2.9-1.7,4.2c-3.8,5.8-7,12.3-11.7,17.2c-11.2,11.6-23.2,22.6-35,33.7c-16.5,15.5-36,25.7-57.7,31.8
		c0-15.5,0-31-0.1-46.6c0-0.9,0.1-1.8,0.1-2.7c0.9-0.2,2-0.2,2.6-0.7c9.9-8.2,20.3-15.8,29.3-24.9c7.7-7.8,14.1-16.9,20.4-25.9
		c10.6-15.1,17.7-32,24.1-49.2c4.7-12.6,7.5-25.5,7.2-39c-0.4-15.1-0.8-30.2-1.9-45.3c-0.6-7.4-2.4-14.8-4.3-22.1
		c-1.7-6.2-4.4-12.2-6.5-18.3c-3.5-10.3-6-21-12.6-30c-5.8-7.9-11.6-15.9-18.2-23.1c-8.8-9.7-18-19.2-30.4-24.7
		c-6.5-2.8-13-5.7-19.3-9c-18.7-9.7-37.4-19.4-58-24.3c-14.2-3.4-28.7-5.8-43.1-8.1c-8.3-1.3-16.9-2.2-25.2-1.8
		c-12.5,0.5-25.1,1.4-37.3,3.7c-14.8,2.8-29.5,6.5-43.9,11c-9.7,3-18.8,8.1-28.2,12.3c-26.3,11.9-46.7,30.5-61.2,55.3
		c-4.9,8.4-8.4,17.7-12.6,26.6c-0.3-6.8-0.8-13.5-0.8-20.3c-0.1-21.1,0-42.3-0.1-63.4c0-0.6,0-1.2,0-1.8c1.5-0.8,3.3-1.4,4.6-2.5
		c6.6-5.5,12.7-11.7,19.6-16.6c10.7-7.7,21.2-16.4,36-14.1c0.6,0.1,1.5-0.4,2.1-0.8c6.8-3.9,13.7-7.7,20.4-11.7
		c0.8-0.5,1.2-1.6,1.8-2.4c2.3-0.7,4.7-1.1,6.9-2.1c19.5-8.9,40.2-10.9,61.3-10.8c5,2.9,10,5.8,15.1,8.5c0.6,0.3,1.7-0.2,2.6-0.3
		c15-1.3,30-2.5,45-3.8c1.3-0.1,2.5-0.8,3.7-1.2c2.9,0.2,5.7,0.5,8.6,0.4c17.2-0.5,33.4,3.5,48.6,11.5c3.7,1.9,7.8,2.9,11.8,4.3
		c1.3,1,2.4,2.3,3.9,2.9c15.4,6.4,30.9,12.8,46.4,19.1c2.3,0.9,4.9,1.4,7.3,2.1c0.8,0.4,1.6,0.7,2.5,1.1c0.5,0.3,1.1,0.6,1.6,0.9
		c3.4,2,6.6,4.3,10.1,5.9c27.8,12.4,43.9,36,56.9,61.7c6.2,12.1,8.5,26,13.8,38.7c7.9,18.9,11.6,38.3,11.3,58.7
		C534.7,218.9,535.9,225.4,536.5,231.9z"/>
	<path class="st1" d="M281.9,469.1c-9.9,1.5-19.7,3.1-29.6,4.7c-1.1,0.2-2.1,0.6-3.1,0.9c-12.1,0-24.2,0-36.4,0c0-0.3,0-0.6-0.1-0.8
		c4.3-3.7,8.6-7.5,12.8-11.2c1.2,1,2.3,2.8,3.5,2.9c15.7,1.1,31.5,1.9,47.2,2.8C278.1,468.4,280,468.8,281.9,469.1z"/>
	<path class="st2" d="M281.9,0c3.1,0.6,6.2,1.3,9.3,1.8C298.1,3,305.1,4,312,5.2c-1.2,0.4-2.5,1.1-3.7,1.2c-15,1.3-30,2.5-45,3.8
		c-0.9,0.1-2,0.6-2.6,0.3c-5.1-2.8-10.1-5.7-15.1-8.5c6.7-0.3,13.4-0.6,20.1-1c1.5-0.1,3-0.6,4.5-0.9C274,0,277.9,0,281.9,0z"/>
	<path class="st3" d="M0,291l0.3-0.3c0,0,0.3,0.3,0.3,0.3c0.1,10,0.1,19.9,0.2,29.9C0.6,320.9,0.3,321,0,321C0,311,0,301,0,291z"/>
	<path class="st4" d="M93.6,148.2c4.1-8.9,7.6-18.1,12.6-26.6c14.5-24.8,34.9-43.5,61.2-55.3c9.3-4.2,18.4-9.3,28.2-12.3
		c14.4-4.5,29.1-8.3,43.9-11c12.3-2.3,24.8-3.2,37.3-3.7c8.4-0.3,16.9,0.5,25.2,1.8c14.5,2.2,28.9,4.6,43.1,8.1
		c20.6,5,39.3,14.6,58,24.3c6.3,3.3,12.8,6.2,19.3,9c12.4,5.4,21.6,14.9,30.4,24.7c6.6,7.3,12.4,15.2,18.2,23.1
		c6.5,8.9,9.1,19.7,12.6,30c2.1,6.1,4.8,12.1,6.5,18.3c1.9,7.2,3.8,14.6,4.3,22.1c1.1,15,1.6,30.2,1.9,45.3
		c0.3,13.4-2.5,26.4-7.2,39c-6.4,17.2-13.5,34.1-24.1,49.2c-6.3,9-12.7,18.2-20.4,25.9c-9,9.1-19.4,16.7-29.3,24.9
		c-0.6,0.5-1.7,0.5-2.6,0.7c0.3-3.6,0.8-7.2,0.8-10.7c0.1-11.9,0-23.8,0-35.7c0-1.5,0.1-3,0.1-4.5c2.2-2.4,4.5-4.6,6.6-7.1
		c20.6-25.5,30.2-54.7,29.8-87.3c0-3.8,0-7.6,0.3-11.3c1-12.5,1.5-25.1-1.2-37.4c-5.3-24.4-17.4-45-36.1-61.5
		c-3.3-2.9-7.4-4.9-11.2-7.2l0,0c-0.6-0.6-1.2-1.2-1.8-1.8c-7-5.5-13.9-10.9-20.9-16.4c-1.2-1.1-2.3-2.3-3.6-3.3
		c-10.6-7.7-21.7-14.1-34.1-18.4c-19.6-6.9-39.2-13.7-60.5-10c-3.1,0.5-6,1.7-9,2.6c-16.1-0.3-32.1,0.2-47.1,6.4
		c-10.7,4.4-20.7,10.3-31,15.5c-1.9,0.9-4,1.5-5.7,2.6c-14.9,9.8-29.2,20.1-40.4,34.5c-12.8,16.5-23.4,34.2-29.4,54.2
		c-3,9.8-4.9,20.2-2.8,30.8c0.6,3,0.3,6.2-0.3,9.2c-1.9,10.4-5.3,20.6-5.6,31c-0.3,9.7,2.6,19.6,4.1,29.4c-7-0.2-14-0.4-21-0.6
		c0-45.5,0.1-91,0.1-136.5C93.1,150.6,93.3,149.4,93.6,148.2z"/>
	<path class="st5" d="M93.6,148.2c-0.3,1.2-0.6,2.4-0.9,3.6c-1.4,2.8-3.2,5.5-4.2,8.5c-4.9,14.3-10.9,28.3-13.9,42.9
		c-2.9,14-3,28.7-3.6,43.1c-0.3,8.4,0.5,16.9,1.8,25.2c1.5,9.6,4.1,19,6.3,28.6c0,0.3-0.1,0.6-0.1,0.9
		c-16.6,10.4-33.1,20.8-49.7,31.2c-2.3-3.7-5.1-7.2-6.7-11.2c-4-9.5-8.7-19-10.7-28.9c-2.7-13.4-3.4-27.2-4.4-40.8
		c-0.5-7.1,0.1-14.1-2.7-20.9c-4.1-10.1-3-20.1,0.9-30c1.5-3.9,2.3-8.1,3.5-12.1c0.8-1.4,1.9-2.6,2.4-4.1C19,165.1,26,146,33.3,127
		c2.1-5.6,5-10.9,7.5-16.3c8.5-10.2,17.1-20.4,25.6-30.6c5.4-3.4,10.7-7,16.1-10.2c3.3-2,6.8-3.5,10.2-5.2c0,21.1-0.1,42.3,0.1,63.4
		C92.9,134.7,93.3,141.5,93.6,148.2z"/>
	<path class="st6" d="M413.7,339.2c0,11.9,0.1,23.8,0,35.7c0,3.6-0.5,7.2-0.8,10.7c0,0.9-0.1,1.8-0.1,2.7c-2.4,0.9-4.7,1.8-7.1,2.7
		c-3.7,1.5-7.4,3.1-11.1,4.6c0.5-1.5,1-2.9,1.4-4.4c-6.5-0.4-12.6-0.9-18.7-1c-19.6-0.4-39.2-0.6-58.8-1.1c-1.7,0-3.3-1.8-5-2.7
		c1.9-2,3.8-4.1,5.7-6.1c1.5-1,2.9-2,4.4-3c1,3.2,3.3,1.9,5.2,1.4c14.9-4.1,29.8-8.5,44.8-12.5c14.5-3.8,26.5-11.3,35.4-23.5
		C410.2,341.1,412.2,340.3,413.7,339.2z"/>
	<path class="st7" d="M394.6,395.6c3.7-1.5,7.4-3.1,11.1-4.6c2.3-0.9,4.7-1.8,7.1-2.7c0,15.5,0,31,0.1,46.6
		c-5.4,1.7-10.8,3.3-16.2,5c-0.4-4.1-0.7-8.3-1.1-12.4c0,0,0,0,0,0c0.6-7.8,1.3-15.6,1.7-23.4c0.1-1.3-1.2-3-2.4-3.7
		c-0.8-0.4-2.7,0.3-3.6,1.1c-20.5,17.7-41,35.5-61.5,53.3c-1.7,1.5-2.7,3.8-4,5.7c0,0,0.1-0.1,0.1-0.1c-0.4,0.2-0.8,0.4-1.1,0.7
		c-1.5,0.4-3,0.7-4.5,1.1c0.9-2,1.3-4.4,2.7-5.8c4.4-4.5,9.1-8.7,13.8-12.8c14.2-12.3,28.5-24.4,42.6-36.7c2.4-2.1,4.2-4.9,6.3-7.4
		C388.6,398,391.6,396.8,394.6,395.6z"/>
	<path class="st2" d="M92.7,55.4c19.9-16.7,42.3-28.7,67.2-36.1c5.8-1.7,11.6-3,17.5-4.5c-0.6,0.8-1,2-1.8,2.4
		c-6.8,4-13.6,7.8-20.4,11.7c-0.6,0.4-1.5,0.9-2.1,0.8c-14.8-2.4-25.3,6.4-36,14.1c-6.9,5-13,11.1-19.6,16.6
		c-1.3,1.1-3.1,1.6-4.6,2.5C92.8,60.3,92.7,57.8,92.7,55.4z"/>
	<path class="st2" d="M381,21.3c18.4,3,35.5,9.5,51.5,19c2.2,1.3,4.1,3.4,6.1,5.1c-2.4-0.7-5-1.2-7.3-2.1
		c-15.5-6.3-31-12.6-46.4-19.1C383.4,23.6,382.3,22.3,381,21.3z"/>
	<path class="st8" d="M92.7,55.4c0,2.5,0.1,4.9,0.1,7.4c0,0.6,0,1.2,0,1.8c-3.4,1.7-6.9,3.3-10.2,5.2c-5.5,3.3-10.7,6.8-16.1,10.2
		C75.2,71.8,84,63.6,92.7,55.4z"/>
	<path class="st2" d="M441,46.5c0.5,0.3,1.1,0.6,1.6,0.9C442.1,47,441.6,46.8,441,46.5z"/>
	<path class="st9" d="M29.4,332.2C46,321.8,62.6,311.4,79.1,301c2.9,8.1,5.5,16.3,8.9,24.2c8,18.4,18.2,35.6,33.3,49.1
		c6.3,5.6,13.8,10.7,21.6,13.6c5.8,2.2,11.2,4.8,16.4,7.9c13.3,7.7,28.5,8.9,42.9,12.4c22.1,5.3,44.7,6.9,67.4,6.5
		c1.6,0,3.2,0.5,4.8,0.8c-12.9,11.3-25.8,22.6-38.8,33.8c-5.7,4.9-11.5,9.6-17.3,14.4c-4.6-0.6-9.3-1.3-13.9-1.8
		c-9.7-1.1-19.5-2.1-29.2-3c-10.4-0.9-20.7-1.6-31.1-2.4l-0.3,0c0,0-0.2-0.2-0.2-0.2c-0.8-1-1.4-2.3-2.4-3c-4.2-3-8.4-5.9-12.8-8.5
		c-3.9-2.4-8.1-4.4-12.2-6.6c-3.3-1.5-6.6-3-9.8-4.5c-3.1-3.7-6-7.5-9.4-10.9c-0.8-0.9-3-0.4-4.6-0.6c-7.1-7.2-14.1-14.3-21.1-21.5
		c-1.3-1.4-2.2-3.2-3.5-4.6c-2.7-3.1-5.6-6.2-8.3-9.3c-3-3.4-6.8-6.5-8.8-10.4c-3.3-6.3-6.7-12.2-10.5-18.2
		C35.2,350.5,28.3,342.8,29.4,332.2z"/>
	<path class="st10" d="M144.2,456.6c10.4,0.8,20.7,1.5,31.1,2.4c9.8,0.9,19.5,1.9,29.2,3c4.6,0.5,9.3,1.2,13.9,1.8
		c-3.5,3.2-7,6.4-10.6,9.6c-21.7-2.3-42.6-7.2-62.6-16C144.9,457.2,144.6,456.9,144.2,456.6z"/>
	<path class="st11" d="M207.9,473.4c3.5-3.2,7-6.4,10.6-9.6c5.8-4.8,11.6-9.5,17.3-14.4c13-11.2,25.9-22.5,38.8-33.8
		c5-4.3,10-8.6,15-13c8.4-7.5,16.8-15,25.2-22.5c0.5,0,1.1,0,1.6,0c1,0,2,0.1,2.9,0.1c-1.9,2-3.8,4.1-5.7,6.2
		c-10.9,9.4-21.9,18.8-32.8,28.2c-7.6,6.4-15.2,12.8-22.7,19.3c-10.9,9.5-21.7,19.2-32.6,28.7c-4.3,3.7-8.6,7.5-12.8,11.2
		C211.1,473.7,209.5,473.5,207.9,473.4z"/>
	<path class="st8" d="M40.8,110.7c-2.5,5.4-5.3,10.8-7.5,16.3C26,146,19,165.1,11.8,184.1c-0.6,1.5-1.6,2.7-2.4,4.1
		c2.6-27.3,8-53.4,27.7-74.3C38.3,112.8,39.6,111.8,40.8,110.7z"/>
	<path class="st12" d="M116.3,438.3c4.1,2.2,8.3,4.2,12.2,6.6c4.4,2.6,8.6,5.6,12.8,8.5c1,0.7,1.6,2,2.4,3c-2.4-0.7-4.7-1.4-7.1-2.2
		c-3.8-2.6-7.5-5.1-11.3-7.7C122.3,443.9,119.3,441.1,116.3,438.3z"/>
	<path class="st13" d="M92.4,422.3c1.6,0.2,3.8-0.3,4.6,0.6c3.4,3.4,6.3,7.2,9.4,10.9c-1.1-0.3-2.4-0.2-3.3-0.9
		c-2.9-2-5.8-4.1-8.5-6.5C93.5,425.5,93.1,423.8,92.4,422.3z"/>
	<path class="st14" d="M125.3,446.6c3.8,2.6,7.5,5.1,11.3,7.7C128,453.9,127.4,453.5,125.3,446.6z"/>
	<path class="st13" d="M225.5,462.6c10.9-9.6,21.7-19.2,32.6-28.7c7.5-6.5,15.2-12.9,22.8-19.3c13.8-0.3,27.5-0.2,41.3-0.9
		c8.1-0.5,16.2-1.8,24.1-3.7c13.2-3.2,26.3-7.1,39.4-10.7c-2.1,2.5-3.9,5.3-6.3,7.4c-14.1,12.3-28.4,24.5-42.6,36.7
		c-4.8,4.1-9.4,8.3-13.8,12.8c-1.4,1.4-1.8,3.8-2.7,5.8c-10.5,2.1-21,4.2-31.6,6.2c-2.2,0.4-4.4,0.6-6.7,0.8
		c-1.9-0.3-3.8-0.7-5.7-0.8c-15.7-0.9-31.5-1.7-47.2-2.8C227.8,465.4,226.6,463.6,225.5,462.6z"/>
	<path class="st0" d="M395.5,427.4c0.4,4.1,0.7,8.3,1.1,12.4c-22.2,6.5-44.4,13-66.6,19.5c-1.4,0.4-2.9,0.7-4.4,1.1
		c1.3-1.9,2.3-4.2,4-5.7c20.4-17.9,40.9-35.6,61.5-53.3c0.9-0.8,2.9-1.5,3.6-1.1c1.2,0.7,2.5,2.5,2.4,3.7
		C396.9,411.8,396.2,419.6,395.5,427.4c-0.4,3.1-0.7,6.2-1.1,9.3c0.4,0,0.7,0,1.1,0C395.5,433.6,395.5,430.5,395.5,427.4z"/>
	<path class="st0" d="M324.6,460.9c0.4-0.2,0.8-0.4,1.1-0.7C325.4,460.5,325,460.7,324.6,460.9z"/>
	<path class="st15" d="M193.7,97.3c10.3-5.2,20.4-11.1,31-15.5c15-6.2,31.1-6.7,47.1-6.4c12.7,0.9,25.5,1.6,38.2,2.8
		c18.5,1.8,35.2,9,51.5,17.3c5.9,3,11.7,6,17.6,9c7,5.5,13.9,10.9,20.9,16.4c0.6,0.6,1.2,1.2,1.8,1.8c0,0,0,0,0,0
		c6.5,8.5,13.7,16.5,19.5,25.5c13.8,21.4,20.5,45.3,21.3,70.7c0.3,9.1-0.8,18.4-1.7,27.5c-2.1,21.8-8.9,42.2-19.7,61.1
		c-1.8,3.2-4.4,5.9-6.6,8.9c0.3-5.2,0.6-10.3,0.8-15.5c0-1.5,0.1-2.9,0.1-4.4c2.5-0.3,3.2-1.4,1.6-3.5c1.9-10.5,4.5-21,5.4-31.6
		c0.9-12.2,0.7-24.5,0-36.7c-0.3-6.7-2.4-13.3-3.9-19.9c-0.7-2.9-2.4-5.6-2.9-8.5c-1.8-11.3-5.4-22-10.8-32.1
		c-11.5-21.5-28.6-37.2-50.8-46.6c-19.6-8.3-40.3-11.1-61.7-8.9c-18.9,1.9-36.6,8-54.3,13.8c-19.5,6.4-35.6,18.7-49.3,34.3
		c-14.1,16-24.9,34-32.3,53.7c-9.6,25.3-12.2,51.6-7.4,78.4c-4.9,0-9.7,0-14.6-0.1c-0.5-1.9-0.8-3.9-1.5-5.7
		c-5.5-14.8-7.9-30.2-7.3-45.8c0.4-11.2,2.5-22.5,4.4-33.6c4.9-28.9,19.9-51.5,44-68.1c3.3-2.3,4.4-5.1,5-8.6
		c1.6-10.1,5-19.3,12.5-26.6C192.5,99.8,193,98.4,193.7,97.3z"/>
	<path class="st16" d="M193.7,97.3c-0.7,1.1-1.2,2.5-2.1,3.4c-7.5,7.3-10.9,16.5-12.5,26.6c-0.6,3.5-1.7,6.4-5,8.6
		c-24.1,16.6-39,39.2-44,68.1c-1.9,11.1-4,22.4-4.4,33.6c-0.5,15.6,1.8,31,7.3,45.8c0.7,1.8,1,3.8,1.5,5.7c-7,0-13.9,0-20.9,0
		c-1.5-9.8-4.4-19.6-4.1-29.4c0.3-10.4,3.8-20.6,5.6-31c0.5-3,0.8-6.3,0.3-9.2c-2.1-10.6-0.2-21,2.8-30.8c6-20,16.6-37.6,29.4-54.2
		c11.2-14.4,25.5-24.7,40.4-34.5C189.7,98.8,191.8,98.2,193.7,97.3z"/>
	<path class="st17" d="M79.2,300.1c-2.1-9.5-4.7-18.9-6.3-28.6c-1.3-8.3-2.1-16.8-1.8-25.2c0.5-14.4,0.7-29.1,3.6-43.1
		c3-14.7,9.1-28.7,13.9-42.9c1-2.9,2.8-5.6,4.2-8.5c0,45.5-0.1,91-0.1,136.5c-1.1,0.5-2.2,1-3.3,1.5c0.5,0.7,1,1.4,1.5,2.2
		C87,294.7,83.1,297.4,79.2,300.1z"/>
	<path class="st16" d="M414.7,316.4c2.2-3,4.8-5.7,6.6-8.9c10.9-19,17.6-39.3,19.7-61.1c0.9-9.1,1.9-18.4,1.7-27.5
		c-0.8-25.4-7.5-49.3-21.3-70.7c-5.8-9-13-17-19.5-25.5c3.8,2.4,7.9,4.3,11.2,7.2c18.7,16.5,30.8,37.1,36.1,61.5
		c2.7,12.3,2.2,24.9,1.2,37.4c-0.3,3.8-0.3,7.6-0.3,11.3c0.4,32.6-9.2,61.9-29.8,87.3c-2,2.5-4.4,4.7-6.6,7.1
		c0.3-5.5,0.6-10.9,0.8-16.4C414.6,317.7,414.7,317.1,414.7,316.4z"/>
	<path class="st18" d="M414.6,318.3c-0.3,5.5-0.6,10.9-0.8,16.4c0,1.5-0.1,3-0.1,4.5c-1.5,1.1-3.5,2-4.6,3.4
		c-9,12.2-20.9,19.6-35.4,23.5c-15,3.9-29.9,8.3-44.8,12.5c-1.9,0.5-4.2,1.8-5.2-1.3c1.8-1.4,3.5-2.7,5.3-4.1
		c0.6,3.1,2.6,1.9,4.2,1.3c7.6-3,15.1-6,22.6-9.3c16.1-7.2,30.6-17,43.1-29.5C404.2,330,409.3,324,414.6,318.3z"/>
	<path class="st16" d="M379.2,104.6c-5.9-3-11.7-6-17.6-9c-16.3-8.3-33-15.6-51.5-17.3c-12.7-1.2-25.5-1.9-38.2-2.8
		c3-0.9,6-2.1,9-2.6c21.3-3.7,40.9,3.1,60.5,10c12.4,4.4,23.6,10.8,34.1,18.4C376.8,102.2,378,103.5,379.2,104.6z"/>
	<path class="st11" d="M90.9,292c-0.5-0.7-1-1.4-1.5-2.2c1.1-0.5,2.2-1,3.3-1.5c7,0.2,14,0.4,21,0.6c7,0,13.9,0,20.9,0
		c4.9,0,9.7,0,14.6,0.1l0,0.4c-1.5,0.5-2.9,1.4-4.4,1.4c-8.5,0.1-16.9,0-25.4,0.1c-1.6,0-3.2,0.6-4.8,0.9
		C106.7,291.9,98.8,292,90.9,292z"/>
	<path class="st16" d="M401.9,122.8c-0.6-0.6-1.2-1.2-1.8-1.8C400.7,121.6,401.3,122.2,401.9,122.8z"/>
	<path class="st19" d="M90.9,292c7.9,0,15.8-0.1,23.7-0.1c0.6,0.1,1.2,0.2,1.8,0.3c0.3,9.1,4.8,17,9.1,24.3
		c9.8,16.7,23.7,29.8,40.4,39.5c10.4,6,21.9,10.2,32.4,16.1c9.6,5.5,20,6.4,30.5,7c10.8,0.7,21.7,1.3,32.5,1.7
		c2.9,0.1,5.9-0.5,8.9-0.8c14.9,0,29.8,0,44.7,0c-8.4,7.5-16.8,15-25.2,22.5c-4.9,4.4-10,8.6-15,13c-1.6-0.3-3.2-0.9-4.8-0.8
		c-22.7,0.4-45.3-1.2-67.4-6.5c-14.5-3.5-29.6-4.7-42.9-12.4c-5.3-3.1-10.6-5.7-16.4-7.9c-7.8-2.9-15.3-8-21.6-13.6
		C106.3,360.8,96,343.6,88,325.2c-3.4-7.9-6-16.1-8.9-24.2c0-0.3,0-0.6,0.1-0.9C83.1,297.4,87,294.7,90.9,292z"/>
	<path class="st12" d="M385.6,399.2c-13.1,3.6-26.2,7.6-39.4,10.7c-7.9,1.9-16,3.2-24.1,3.7c-13.7,0.8-27.5,0.7-41.3,0.9
		c10.9-9.4,21.9-18.8,32.8-28.2c1.7,1,3.3,2.7,5,2.7c19.6,0.5,39.2,0.7,58.8,1.1c6.1,0.1,12.2,0.7,18.7,1c-0.5,1.4-1,2.9-1.4,4.4
		C391.6,396.8,388.6,398,385.6,399.2z"/>
	<path class="st20" d="M328.9,373.1c-1.8,1.4-3.5,2.7-5.3,4.1c-1.5,1-2.9,2-4.4,3c-1,0-2-0.1-2.9-0.1c4-3.9,8-7.9,12.1-11.8
		c10.8-9.2,21.6-18.3,32.3-27.5c13.1-11.4,26-23,39.1-34.3c3.5-3,7.4-5.5,11.2-8.2c0,0,0,0,0,0c-1.2,1.9-2.1,4.1-3.7,5.6
		c-3.9,3.8-8.1,7.2-12.1,10.8c-8.4,7.5-16.9,15-25.3,22.6c-0.7,0.4-1.4,0.6-1.9,1.1c-7.5,6.5-15,13.1-22.4,19.7
		C340,362.9,334.5,368,328.9,373.1z"/>
	<path class="st21" d="M328.4,368.3c-4,3.9-8,7.9-12.1,11.8c-0.5,0-1.1,0-1.6,0c-14.9,0-29.8,0-44.7,0c-1.1-0.3-2.3-0.7-3.4-0.9
		c-19.7-3-39.4-6.1-58.2-12.8c-26-9.2-46.9-24.9-60.6-49c-4.3-7.5-7-15.9-10.4-23.9c3.9-0.2,7.8-0.4,11.8-0.7c0.3,0,0.5,0,0.8,0
		c0.3,0,0.6,0,0.9,0c0.3,1.8,0.5,3.6,1.1,5.3c6,18.2,17.3,32.5,32.6,43.6c11.9,8.6,25,15.1,39.5,18.7c11.9,3,23.5,7.2,35.3,10
		c15.9,3.8,32,4.5,48.2,2.2C314.6,371.7,321.5,369.8,328.4,368.3z"/>
	<path class="st7" d="M395.5,427.4c0,3.1,0,6.2,0,9.3c-0.4,0-0.7,0-1.1,0C394.8,433.6,395.2,430.5,395.5,427.4
		C395.6,427.4,395.5,427.4,395.5,427.4z"/>
	<path class="st22" d="M149.1,289.1c-4.8-26.8-2.2-53.1,7.4-78.4C164,191,174.8,173,188.9,157c13.7-15.5,29.8-27.9,49.3-34.3
		c17.7-5.8,35.5-11.9,54.3-13.8c21.4-2.2,42,0.6,61.7,8.9c22.3,9.4,39.3,25.1,50.8,46.6c5.4,10.1,9,20.8,10.8,32.1
		c0.5,2.9,2.2,5.6,2.9,8.5c1.5,6.6,3.6,13.2,3.9,19.9c0.6,12.2,0.9,24.5,0,36.7c-0.8,10.6-3.5,21.1-5.4,31.6
		c-19.1-0.1-38.3-0.2-57.4-0.3c-1.8,0-3.5-0.5-5.3-0.7c2.2-6.3,5.5-12.4,6.2-18.9c1.5-12.3,2.2-24.7,1.9-37.1
		c-0.5-22.3-8.8-41.4-25.9-56.3c-17.7-15.4-38.3-19.4-60.6-14.2c-9.6,2.3-18.8,6.4-28.1,10.2c-22,8.9-38.2,24-48.2,45.5
		c-9.4,20.1-11.1,40.6-2.4,61.5c1,2.3,1.7,4.8,2.6,7.2c-1.8,0-3.6,0.1-5.4,0.1c-15.2-0.2-30.3-0.4-45.5-0.6L149.1,289.1z"/>
	<path class="st23" d="M328.9,373.1c5.5-5.1,11-10.2,16.6-15.2c7.4-6.6,14.9-13.1,22.4-19.7c0.5-0.5,1.3-0.7,1.9-1.1
		c1.7,0.3,3.7,1.1,5.2,0.7c17.4-5.5,29.3-17.3,37.6-33.1c0.7-1.4,1.8-2.6,2.7-3.8c-0.3,5.2-0.6,10.3-0.8,15.5c0,0.6,0,1.2,0,1.8
		c-5.3,5.8-10.4,11.7-15.9,17.3c-12.5,12.5-26.9,22.3-43.1,29.5c-7.4,3.3-15,6.3-22.6,9.3C331.6,375,329.5,376.2,328.9,373.1z"/>
	<path class="st24" d="M415.5,301c-0.9,1.3-2,2.5-2.7,3.8c-8.4,15.8-20.3,27.6-37.6,33.1c-1.5,0.5-3.4-0.4-5.2-0.7
		c8.4-7.5,16.8-15.1,25.3-22.6c4-3.6,8.2-7,12.1-10.8c1.6-1.5,2.5-3.7,3.7-5.6c1.5-0.6,3.1-1.1,4.6-1.7
		C415.6,298,415.6,299.5,415.5,301z"/>
	<path class="st20" d="M415.6,296.6c-1.5,0.6-3.1,1.1-4.6,1.7c0,0,0,0,0,0c-1.2-0.6-2.4-1.7-3.7-1.7c-18.5-0.4-36.9-0.6-55.4-0.9
		c-17-0.3-33.9-0.7-50.9-1c-0.7-0.8-1.4-1.6-2.2-2.4c2-0.1,3.9-0.3,5.9-0.3c16.6,0,33.2,0.1,49.8,0.1c1.8,0.2,3.5,0.7,5.3,0.7
		c19.1,0.1,38.3,0.2,57.4,0.3C418.8,295.2,418.1,296.3,415.6,296.6z"/>
	<path class="st20" d="M149.1,289.5c15.2,0.2,30.3,0.4,45.5,0.6c1.8,0,3.6,0,5.4-0.1c9.7,0.3,19.3,0.6,29,0.9
		c-0.9,0.9-1.8,1.9-2.6,2.8c-7.6,0-15.2,0.1-22.7,0.1c-17.6-0.3-35.1-0.6-52.7-0.9c-0.3,0-0.6,0-0.9,0c-0.3-0.1-0.5-0.1-0.8,0
		c-3.9,0.2-7.8,0.4-11.8,0.7c-7-0.4-14-0.9-21-1.4c-0.6-0.1-1.2-0.2-1.8-0.3c1.6-0.3,3.2-0.8,4.8-0.9c8.5-0.1,16.9,0,25.4-0.1
		C146.2,290.9,147.6,290,149.1,289.5z"/>
	<path class="st25" d="M116.4,292.2c7,0.5,14,0.9,21,1.4c3.4,8,6.2,16.3,10.4,23.9c13.7,24.2,34.6,39.8,60.6,49
		c18.9,6.7,38.5,9.8,58.2,12.8c1.2,0.2,2.3,0.6,3.4,0.9c-3,0.3-5.9,0.9-8.9,0.8c-10.8-0.4-21.7-1-32.5-1.7
		c-10.5-0.7-20.8-1.6-30.5-7c-10.5-6-22-10.1-32.4-16.1c-16.7-9.7-30.6-22.8-40.4-39.5C121.1,309.1,116.6,301.3,116.4,292.2z"/>
	<path class="st26" d="M150.9,292.9c17.6,0.3,35.1,0.6,52.7,0.9c2.1,6.3,7.1,10.3,11.9,14.5c0,0.3,0.1,0.6,0.1,0.9
		c-2.4,7.4-2.4,7.4,3.9,11.9c1.6,1.1,3,2.5,4.6,3.6c5.7,4.1,11.2,8.6,18.8,9.1c3.8,0.2,7.7,0.6,11.2,1.8c8,2.6,16,2.7,24,0.7
		c3.6-0.9,6.9-2.8,10.3-4.2c0.5-0.1,1-0.2,1.4-0.3c15.8,0.1,30.1-4.5,42.7-13.9c8-6,15.3-12.8,19.4-22.3c18.5,0.3,36.9,0.5,55.4,0.9
		c1.2,0,2.4,1.1,3.7,1.7c-3.7,2.7-7.7,5.2-11.2,8.2c-13.1,11.3-26,22.9-39.1,34.3c-10.7,9.3-21.5,18.4-32.3,27.5
		c-6.9,1.5-13.8,3.5-20.8,4.4c-16.2,2.3-32.3,1.6-48.2-2.2c-11.9-2.9-23.5-7-35.3-10c-14.5-3.6-27.6-10.1-39.5-18.7
		c-15.3-11.1-26.7-25.4-32.6-43.6C151.4,296.5,151.3,294.6,150.9,292.9z"/>
	<path class="st25" d="M149.2,292.8c0.3,0,0.5,0,0.8,0C149.7,292.9,149.4,292.9,149.2,292.8z"/>
	<path class="st27" d="M229,290.9c-9.7-0.3-19.3-0.6-29-0.9c-0.9-2.4-1.6-4.8-2.6-7.2c-8.7-20.9-7-41.4,2.4-61.5
		c10-21.6,26.2-36.7,48.2-45.5c9.2-3.7,18.4-7.9,28.1-10.2c22.3-5.2,42.9-1.2,60.6,14.2c17.1,14.9,25.4,34,25.9,56.3
		c0.3,12.3-0.4,24.8-1.9,37.1c-0.8,6.4-4.1,12.6-6.2,18.9c-16.6,0-33.2-0.1-49.8-0.1c-2,0-3.9,0.2-5.9,0.3c-8.5-3-17-6.1-25.6-9.1
		c-7.8-2.7-15.7-4.9-23.7-0.5c-2.4,1.3-4.7,3-7.5,4.8c-5.1-24.7-3.2-48.2,7.2-71.2c1.6,3.2,3.8,6.7,3.4,9.9
		c-1.1,8.2-3.8,16.2-4.9,24.3c-0.7,5.4-1,11.5,0.8,16.4c2.6,6.7,9.5,7.5,16.3,8.1c15.7,1.3,30.1-2.1,43.1-10.9
		c10.4-7.1,18.1-16.1,18.1-29.7c0-4.6-0.3-8.7-5.3-11.3c-8.9-4.5-17.5-9.6-26.1-14.5c-1.4-0.8-2.9-1.8-3.6-3.1
		c-2.7-4.5-5-9.3-7.8-13.8c-1.6-2.5-3.3-5.5-5.8-6.8c-7.6-4.1-15.6-6.6-23.7-0.8c-1.9,1.4-5.1,1.9-6,3.7c-2.1,4.3-3.2,9.2-4.5,13.1
		c-2.2,2.9-4.7,5.2-6,8c-10.4,23.6-13.3,48.2-8.1,73.6C229.6,285.2,229,288.1,229,290.9z"/>
	<path class="st14" d="M289.9,331.8c3-2.1,6-4,8.9-6.2c5.7-4.5,11.1-9.4,10.2-17.5c-0.4-3.1-2.5-6.1-4.1-9c-0.9-1.7-2.5-3-3.8-4.4
		c17,0.3,33.9,0.7,50.9,1c-4.1,9.5-11.4,16.3-19.4,22.3C320,327.3,305.7,332,289.9,331.8z"/>
	<path class="st14" d="M226.4,293.7c-3.6,4.8-7.2,9.7-10.8,14.5c-4.8-4.2-9.8-8.1-11.9-14.5C211.2,293.8,218.8,293.7,226.4,293.7z"
		/>
</g>
</svg>
