<?xml version="1.0" encoding="utf-8"?>
<!-- Generator: Adobe Illustrator 23.0.3, SVG Export Plug-In . SVG Version: 6.00 Build 0)  -->
<svg version="1.1" id="Ebene_1" xmlns="http://www.w3.org/2000/svg" xmlns:xlink="http://www.w3.org/1999/xlink" x="0px" y="0px"
	 viewBox="0 0 370.6 921.4" style="enable-background:new 0 0 370.6 921.4;" xml:space="preserve">
<style type="text/css">
	.st0{fill:#F8F5F6;}
	.st1{fill:#525160;}
	.st2{fill:#2C2A3D;}
	.st3{fill:#B44A49;}
	.st4{fill:#A46264;}
	.st5{fill:#FEAF78;}
	.st6{fill:#473D49;}
	.st7{fill:#FEAE76;}
	.st8{fill:#FBA061;}
	.st9{fill:#444353;}
	.st10{fill:#FEB47F;}
	.st11{fill:#323143;}
	.st12{fill:#FCC49D;}
	.st13{fill:#253343;}
	.st14{fill:#FCE0DF;}
	.st15{fill:#FBDFDF;}
	.st16{fill:#FEC69F;}
	.st17{fill:#FAF8F8;}
	.st18{fill:#FAB8B8;}
	.st19{fill:#BC99A5;}
	.st20{fill:#BEA7B3;}
	.st21{fill:#F5F2F4;}
	.st22{fill:#C1ADB9;}
	.st23{fill:#EBE5E9;}
	.st24{fill:#A98E9A;}
	.st25{fill:#BAA0AE;}
	.st26{fill:#DFD5DB;}
	.st27{fill:#C8B7C2;}
	.st28{fill:#8F7873;}
	.st29{fill:#89726F;}
	.st30{fill:#3C3A4C;}
	.st31{fill:#C6967F;}
	.st32{fill:#E88138;}
</style>
<g>
	<path class="st0" d="M219.4,194.2c1.1,2.3,1.2,2.9,1,3c-0.1,0.1-0.3-0.2-0.7-0.1c-0.4,0-0.5,0.2-0.8,0.1c-0.1-0.1-0.2-0.2-0.2-0.3
		c-0.3-0.5-1.3-0.4-1.9-0.4c-0.5-0.1-1.1-0.3-1.9-0.9c-0.4-0.7-0.7-1.8-1.1-3.1c-0.4-1-0.6-2-0.2-2.7c0.8-1.7,3.4-2.6,5.3-3.8
		c0,2.3-0.1,4.7-0.1,7c0.1,0.1,0.3,0.3,0.4,0.6C219.2,193.8,219.3,194,219.4,194.2z"/>
	<path class="st1" d="M297.5,0c0.1,0.6,0.2,1.6,0.4,1.6c1.5,0.2,3.1,0.2,4.6,0.3c-1.3,0.7-2.7,1.4-4,2.1c-1.8-0.4-3.6-0.8-5.4-1.2
		c0.9-0.3,2-0.4,2.7-1c0.4-0.3,0.4-1.2,0.6-1.8C296.8,0,297.2,0,297.5,0z"/>
	<path class="st2" d="M196.8,209.9c-7.6-15.6-10.7-32.4-12.5-49.4c-1.1-10.2-2.3-20.5-1.6-30.7c1.7-27.9,14.7-50.3,36.4-67.6
		C233.1,51,249.3,45.9,267.5,49c11.4,0,11.4,0,13.7-11.9c-3.6,2.4-6.3,4.3-8.6,5.9c-1.5-1.9-3.1-4-4.7-6.1c0.2-0.3,0.3-0.6,0.5-0.9
		c0.7-1.1,1.3-2.3,2-3.4c-0.1-0.3,0.1-0.5,0.4-0.6c1.7-1.6,3.5-3.2,5-5c0.2-0.3-0.5-1.4-0.7-2.1c0.2-1.3,0.4-2.6,0.6-4
		c0.7,0,1.3,0,2,0c2-0.7,4-1.3,6-2c1.3,2.3,2.7,4.7,4,7c0,0.3,0,0.7,0,1c-0.9,0.3-1.9,0.5-3.9,1.1c2.3,1.4,3.6,2.1,4.9,2.9
		c0.8,1.3,1.7,3.8,2.5,3.7c8.3-0.2,11.4,7.8,17.6,10.9c3,1.4,3.4,0.9,3.9-1.6c3.8-0.5,5.4,1.5,6,4.9c0.2,1.2,0.5,3,1.3,3.5
		c3.1,1.8,6.4,3.1,9.7,4.6c0,0.7,0,1.3,0,2c-2.4,0-4.8,0-7.2,0c0,0.5,0,1.1,0,1.6c1.4,0.1,2.8,0.3,4.1,0.4c3.5,2.6,6.9,5.2,10.4,7.9
		c-1.1-0.2-2.7,0.1-3.3-0.6c-2.8-3.1-5.1-1.7-7.4,0.3c1.9,2.3,3.8,4.2,5.3,6.5c1.6,2.3,2.1,5.7,4.2,7.3c7,5.8,10.6,13.4,12.8,21.9
		c0.9,3.5,2.2,6.9,3.4,10.4c4,11.5,6.8,23.2,5.4,35.6c-0.1,0.8-0.3,1.6,0,2.3c1.3,3.1,4,6.2,3.8,9c-0.6,5.6-2.8,10.9-4.4,16.4
		c-0.1-2.1,0.4-4.5-0.3-6.4c-1-2.8-2.2-6.1-4.5-7.6c-4.9-3.4-15.5-1-19.5,3.4c-0.7-1.8-1.3-3.5-2-5.3c-1-2.4-1.9-4.7-3-7.6
		c-5.5,3.5-1,9.4-4.4,13.7c-2-8.6-3.9-16.4-5.5-24.3c-1.1-5.1-2.7-9.8-8.1-11.9c-1.5-4.7-2.9-9.5-4.4-14.2c-1.5,4.1-2,8-2.7,11.8
		c-0.5,2.4-1.3,4.8-4.6,2.6c-2.7-0.6-6.9-0.3-7.8-2c-2.3-3.8-5-2.1-7.9-2.4c-7.5-0.7-15.8,0-20.9-7.7c-0.5-0.7-2.1-0.6-3-1.1
		c-1.7-0.9-3.2-2-4.9-3c-1-0.6-2.2-1.9-3.1-1.7c-1,0.2-2.1,1.6-2.4,2.7c-1.2,3.8,2,8.3,6.4,9.2c0.1,0.4,0.1,0.9,0.1,1.3
		c-1.7,0.2-3.5,0.4-3.9,0.5c-2.1,2.1-3.6,3.6-5.2,5.2c-1.3-1.5-2.5-2.9-3.8-4.4c-0.7,0.2-1.9,0.3-2,0.6c-0.2,0.8,0.1,1.8,0.2,2.7
		c0.2,0.7,0.4,1.3,0.6,2c-3,4-12.3,4.2-17.2,0.3c-1.2,2.5-2.4,4.9-3.6,7.4c-2.6,5.5-5.8,10.9-7.7,16.6c-1.2,3.6-2.2,6.4-5.9,6.4
		c-1.1,5.7-2.1,11.1-3.1,16.4c-0.1,0.1-0.4,0.1-0.4,0.2c0.1,0.3,0.2,0.5,0.2,0.7c-0.1,3.4-0.2,6.7-0.3,10.1c-2.9,2.5-1.7,4.4,1,6
		c0.1,0.6,0.1,1.3,0.2,1.9c-1.8-0.8-3.6-1.5-5.9-2.4c0.7,2.8,0.9,5.6,2,8.1C200.8,208.7,200.1,210,196.8,209.9z"/>
	<path class="st3" d="M187.1,296.6c-0.2-3.5-1.9-8-0.3-10.1c1.8-2.4,6.4-2.7,9.9-3.8c13.1-4.4,26.2-8.9,39.5-13
		c5.9-1.8,12.2-2.6,18.3-3.9c6.7-0.6,13.5-1.5,20.2-1.7c10.6-0.3,21.2-0.2,31.9-0.2c15,2.6,26.2,11,33.9,23.8
		c10.7,17.8,18.4,36.8,19,57.9c0.8,30.1,1.7,60.2,2.1,90.3c0.4,30.8,0.3,61.5,0.5,92.3c0.1,13.8,0.7,27.6,0.7,41.4
		c0,4.9-1.1,9.8-1.7,14.5c-3.6,0-6.8,0-10.2,0c-0.5,7.2-1.2,13.8-1.2,20.4c-0.1,43.8,0,87.5,0,131.3c0,16.5,0.3,33,0,49.5
		c-0.4,22.5-1.3,44.9-2,67.4c0,0.2,0,0.3,0,0.5c0,3,0,6.1,0,9.1c-2.9,0-5.8-0.1-8.8-0.2c-8.5,0-16.9-0.4-25.4,0
		c-5.3,0.3-10.6,1.9-15.8,2.8c-2.8,1-5.6,1.8-8.3,3c-4.3,1.9-5.9,1.4-6.6-3.2c-1.9-12.5-3.7-25-5-37.5c-1.1-11.1-1.7-22.2-2.2-33.3
		c-1.4-30.4-2.6-60.8-4-91.2c-0.5-10.1-1.1-20.2-2.8-30.4c-0.4,0.9-1,1.8-1,2.8c-1.3,30.1-2.5,60.2-3.6,90.3
		c-0.8,21.5-1.5,42.9-2,64.4c-0.2,10.1,0.3,20.3,0.3,30.4c0,1.3-1.3,2.5-2,3.8c-5.2-0.6-10.5-2.2-15.5-1.6c-7.7,1-15.3,3.5-22.9,5.4
		c-9.6,0.2-9.8,0.2-11.3-9.9c-1.6-11.3-2.7-22.8-4.1-34.1c-0.2-1.6-0.6-3.2-0.9-4.8c-0.3-3.3-0.6-6.6-1-9.9
		c-0.8-5.6-1.8-11.1-2.4-16.7c-0.2-1.5,1.2-3.2,1.1-4.7c-0.3-4.3-1.2-8.6-1.6-13c-0.2-1.8-0.3-3.7,0-5.5c0.4-3.3,1.6-6.5,1.6-9.8
		c0.1-53.8,0.1-107.5,0-161.3c0-1.5,0-3,0-5.2c-2.2,0.4-4.3,0.5-6.2,1.1c-4.2,1.3-6.1-0.4-6.2-4.5c-0.2-4-0.2-8-0.2-12
		c0.2-15,0.1-30,0.9-44.9c0.6-13.8,2.2-27.5,3.2-41.3c0.7-9.8,1.1-19.6,1.6-29.4c0-1.7,0-3.3,0-5c0.7-10.7,1.4-21.3,2-32
		c0.2-2.9,0.1-5.9,0.6-8.8c1.5-9.1,3.3-18.1,4.9-27.1c0.5-2.7,1-5.4,1.5-8c1-4.1,2-8.3,3.2-13.2c-2.8,1-4.9,1.8-7,2.5
		c-5.8,2.2-7.2,1.6-9.1-4.2c-0.9-2.7-1.4-5.4-2.1-8.2c-0.3-1.6-0.7-3.3-1-5c-0.7-17.3-1.4-34.6-2.1-52
		C187.3,299.5,187.2,298,187.1,296.6z M276.5,722.9c0.3,0.3,0.6,0.7,0.9,1c-0.3,1-0.7,2.1-1,3.1c0.1,0.7,0.2,1.3,0.3,2
		c0,1-0.1,1.9-0.1,2.9c0,0.7,0,1.4,0.1,2.1c0,0.7-0.1,1.3-0.1,2c0,1,0.1,2,0.1,2.9c0,1.3,0,2.7,0,4c0,1,0.1,2.1,0.1,3.1
		c0.6,8.3,1.2,16.5,1.8,24.8c1.4,22,2.6,44.1,4.2,66.1c0.7,9,2.3,18,3.4,26.2c8.4-1.9,16-3.5,23.5-5.2c1.7-0.2,3.4-0.4,5.1-0.7
		c2.3-0.1,4.5-0.2,6.8-0.4c1,0,2,0.1,3,0.1c6.1,0.3,12.1,0.6,18.3,0.8c0.2-1.3,0.3-1.9,0.4-2.5c0.5-12.9,1-25.9,1.2-38.8
		c0.1-4.8-0.6-9.7-1-14.5c0.5-2.6,1.1-5.1,1.6-7.7c0.1-1.1,0.3-2.2,0.4-3.3c0-10.9,0-21.9,0-32.8c-0.1-1.8-0.2-3.7-0.3-5.5
		c0-0.8-0.1-1.5-0.1-2.3c0.1-1.6,0.2-3.1,0.3-4.7c-0.3-9.2-0.5-18.4-0.8-27.6c0.4-1,0.7-2,1-3.1c0-4,0-8-0.1-12.1
		c0-5.2-0.1-10.5-0.1-15.7c0-1.1-0.1-2.3-0.1-3.4c0.2-32.9,0.3-65.7,0.5-98.6c-14.1,0-29,0-43.9,0c-1.3,0.2-2.7,0.5-4,0.7
		c-12.3,1-24.7,2.1-37,3.2c-0.7,0-1.4,0-2.1,0c-8.9,0.1-17.8,0.2-26.7,0.2c-0.8,0-1.6-0.1-2.4-0.1c-7.3,1-14.6,2-22.7,3.1
		c0,21.9,0,43.2,0,64.6c0,1-0.1,2.1-0.1,3.1c0.1,1.9,0.2,3.9,0.2,5.8c-0.1,0.8-0.1,1.5-0.2,2.2c0,5,0,9.9,0,14.9
		c0,1.7,0.1,3.5,0.1,5.2c0,4.2,0,8.5,0,12.7c0,0.8,0,1.6,0,2.4c-1.9,11.8,1.1,23.6,0.2,35.6c-1.1,15.3,0.4,30.8,0.7,46.2
		c0.1,1.4,0.3,2.8,0.4,4.3c0.5,6.9,0.9,13.9,1.4,20.8c0.1,1,0.1,2,0.2,3c1,9.6,2,19.2,3,28.9c0.8,5.2,1.6,10.3,2.4,15.5
		c-0.1,3.7,1.6,5.4,5.4,4.5c3.4-0.3,7-0.2,10.3-0.9c8.4-1.7,16.5-5.2,25.3-3.1c0.5,0.1,1.2-0.4,1.6-0.5c0-6.7,0-13.2,0-19.6
		c0.2-10.4,0.3-20.7,0.5-31.1c0.4-18.3,0.9-36.6,1.3-54.8c-0.1-0.7-0.2-1.4-0.3-2.1c0.2-1.5,0.4-3,0.6-4.5c0-2.5,0.1-5,0.1-7.5
		c0.1-0.6,0.2-1.2,0.2-1.7c0-1,0-2.1,0-3.1c0-0.6,0-1.2,0.1-1.8c0-0.7-0.1-1.5-0.2-2.2c0-0.9,0.1-1.9,0.2-2.8c0-0.4,0-0.7,0-1.1
		c0.1-3,0.3-6,0.4-9c0.5-4.7,1.1-9.3,1.6-14c0.3-8.3,0.7-16.6,1-24.9c0-1,0-2.1,0-3.1c0.1-1,0.1-2,0.2-3c-0.1-1-0.3-2.1-0.4-3.1
		c0.4-1.2,0.7-2.4,1.1-3.6c0.1-0.6,0.3-1.2,0.4-1.7c6.5-3.3,7.4-3.2,8.2,4c1.2,10.2,1.7,20.5,2.5,30.8c0.1,1,0.2,2,0.3,2.9
		c0,1.3,0,2.6-0.1,3.8c0.1,0.8,0.2,1.5,0.3,2.3c-0.1,2.3-0.2,4.5-0.3,6.7c0,1,0.1,2.1,0.1,3.1c0,0.6,0,1.2,0,1.8
		c0.2,0.7,0.4,1.4,0.6,2.1C276.4,721,276.4,721.9,276.5,722.9z M194.8,354.9c0.6,3.8,1.2,7.5,2,11.9c3.2-1.3,5.3-2.1,7.4-2.9
		c3.1-1,6.2-2,9.4-2.9c3.2-0.4,6.4-0.8,9.6-1.3c0.2,0.4,0.5,0.8,0.7,1.2c-0.8,1-1.5,2.1-2.3,3.1c-2,0.5-4.2,0.7-6,1.7
		c-1.3,0.7-2.1,2.4-3.2,3.7c-0.5,1.7-1,3.5-1.4,5.2c-2.6,13.5-6,26.9-7.3,40.5c-1.6,16-1.2,32.2-1.7,48.3c-0.1,1.5,0.5,3.5-0.3,4.4
		c-3.5,4.1-1.9,8.7-2.1,13.2c0,1.1,0.1,2.2,0.1,3.2c-0.6,6.5-1.3,13.1-1.9,19.6c-0.1,1.1-0.1,2.2-0.2,3.3
		c-0.7,13.6-1.4,27.3-2.1,40.9c0,1-0.1,2-0.1,3c0,0.7,0.1,1.3,0.1,2c0,1,0,2-0.1,3c0,0.6,0.1,1.3,0.1,1.9c0,0.7-0.1,1.4-0.1,2.1
		c0,1,0.1,1.9,0.1,2.9c0,0.7-0.1,1.4-0.1,2.1c0,8.1,0,16.2,0,24.5c11.8-1.8,23.4-3.6,35-5.4l0.5,0.1l0.5,0l0.5,0.1l0.4-0.1
		c1.4,0,2.7,0,4.1-0.1c6.1,0.2,12.2,0.3,18.3,0.5c1.3-0.2,2.5-0.3,3.8-0.5c0.9,0,1.9,0,2.8,0c7.1-0.2,14.4,0.3,21.4-0.8
		c16-2.5,32-4,48.2-3.4c6.8,0.2,13.6-0.6,20.4-0.9c6.5-1.1,7.4-3.6,4.3-11.8c3.4-6.9,1.1-13.9,0.6-20.9c0.1-0.7,0.1-1.5,0.2-2.2
		c0-4.4,0-8.7,0-13.1c0.1-1.9,0.1-3.8,0.2-5.7c-0.1-5.3-0.3-10.7-0.4-16c0.1-1,0.2-2,0.3-3.1c-0.1-2-0.3-4-0.4-6
		c0.3-1,0.6-2.1,1-3.2c0.1-1.2,0.2-2.3,0.2-3.5c-0.5-22.9-1-45.8-1.4-68.7c-0.4-23.7-0.8-47.4-1.2-71.1c0-1.6-0.7-3.2-1-4.7
		c0-0.9-0.1-1.9-0.1-2.8c-0.7-6.7-1.4-13.4-2.2-20.1c-0.3-1-0.6-2-1-3c-5.3-11.9-10-24.1-16.2-35.5c-7.6-13.8-20.2-19.6-36-19.6
		c-14.6,0-29.2,0.4-43.6,3.3c-1.1,0-2.1,0-3.1,0c-8.3,1.6-16.6,3.3-24.9,4.9c-1,0.3-2,0.6-3,1c-11.3,3.8-22.5,7.5-32.9,11
		c0.7,19.4,1.5,38.1,2.2,56.8c0.3,1.4,0.6,2.8,0.8,4.3C194,351,194.4,352.9,194.8,354.9z"/>
	<path class="st4" d="M221.9,867.7c7.6-1.9,15.2-4.4,22.9-5.4c5-0.6,10.3,1,15.5,1.6c0.3,14.3,0.9,28.6,0.9,42.9
		c0,11.8-3.8,15.9-16,16.8c-5.9,0.4-12-0.6-17.9-0.6c-11.1,0.1-22.3,0.8-33.4,0.8c-3.7,0-7.6-0.9-11-2.4c-5.2-2.3-7-7.2-3.9-11.9
		c3.2-4.8,7-9.4,11.5-12.8c5.9-4.5,12.5-8.4,19.2-11.5C217.6,881.6,222,876.4,221.9,867.7z"/>
	<path class="st4" d="M297.5,864.9c5.3-1,10.5-2.6,15.8-2.8c8.4-0.5,16.9-0.1,25.4,0c0.3,2.6,0.8,5.3,0.8,7.9
		c-0.2,12.5-1.2,25-0.7,37.4c0.3,7.8-3.5,11.3-9.7,13.5c-2.9,1.1-6.1,1.7-9.2,2c-9.1,0.8-18.2,1.5-27.4,1.8
		c-7.6,0.3-15.3,0-22.9-0.3c-4.5-0.2-8-6-5.9-10.6c5.2-11.8,10.8-23.5,23.1-29.6c6.8-3.4,10.9-7.8,10.1-15.8
		C296.7,867.2,297.3,866,297.5,864.9z"/>
	<path class="st5" d="M189.4,353c0.3,1.6,0.7,3.3,1,5c-5,0.4-10,0.5-14.9,1.2c-15.8,2.1-30.5-1.3-45.3-6.9
		c-29.2-11.1-53.9-28.7-75.3-51.1c-5.3-5.6-9.1-12.6-14.2-18.5c-7-8.2-14.9-15.6-21.9-23.8C12.5,251,6,243.1,1.1,234.3
		c-2.1-3.8-0.8-9.9,0.2-14.6c0.3-1.4,5-1.8,8.1-2.8c0.6-5.2-2.3-12.7,5.3-15.6c5.9-2.3,10,2,13.3,6.4c7.1-6.8,10.8-6.5,16.3,2
		c3,4.7,4.8,10.2,7.3,15.2c0.8,1.5,1.9,2.9,2.9,4.3c0.3,0.9,0.6,1.8,0.9,2.7c-0.4,0.9-0.8,1.9-1.2,2.8c-1.2-0.8-2.8-1.4-3.4-2.5
		c-2.7-5.3-4.9-10.9-7.8-16.2c-1.9-3.4-4.6-6.4-6.9-9.6c-0.7,0.3-1.3,0.5-2,0.7c-0.2,2.2-0.2,4.4-0.7,6.5c-0.4,2.1-1.3,4.2-2,6.3
		c-0.6,0-1.2,0-1.8,0c-1.2-1.9-2.3-3.9-3.5-5.8c-1.8-2.6-3.4-5.4-5.5-7.6c-3.3-3.3-6.3-2.3-6.8,2.3c-0.3,2.6,0.8,5.4,1.3,8.1
		c0.5,2.4,1.1,4.8,1.8,8.1c-4.8-1.5-8.3-2.5-11.8-3.6c-0.3,0.4-0.6,0.9-0.9,1.4c2.1,3.1,4.2,6.1,6.6,9.5c-2.1,0.9-3.5,1.6-4.9,2.2
		c6.6,14.6,18.7,24.1,29.7,34.4c3.9,3.6,6.6,7.6,9.7,11.8c9.1,12.4,18.3,24.9,31.1,34c2.2,1.6,4.7,2.7,7.1,4.1
		c0.9,1.3,1.6,3,2.8,3.8c7.2,4.9,14.3,10,21.9,14.2c5.6,3.1,10.9,7.8,18.1,6c2.9,1.9,5.5,4.8,8.6,5.6c10,2.5,20.1,5,30.4,6.1
		c5.9,0.7,12.1-1.1,18.1-1.7C185.5,353,187.4,353,189.4,353z"/>
	<path class="st6" d="M356.7,177.9c1.5-5.4,3.8-10.8,4.4-16.4c0.3-2.9-2.5-6-3.8-9c-0.3-0.7-0.1-1.5,0-2.3c1.4-12.3-1.5-24-5.4-35.6
		c-1.2-3.4-2.5-6.9-3.4-10.4c-2.2-8.5-5.8-16.1-12.8-21.9c-2-1.7-2.6-5-4.2-7.3c-1.5-2.2-3.4-4.2-5.3-6.5c2.4-1.9,4.6-3.4,7.4-0.3
		c0.6,0.7,2.2,0.4,3.3,0.6c10.6,4.1,16.6,12.9,21.5,22.3c12.1,23.3,14.9,48.3,9.8,73.8c-2.4,11.7-7.6,22.8-11.8,34.1
		c-0.4,0.9-2.5,1.2-3.8,1.8C353.9,193.2,355.3,185.6,356.7,177.9z"/>
	<path class="st7" d="M196.4,456.9c0,1.7,0,3.3,0,5c-10.8,4.7-21.3,10.5-32.5,13.8c-9.2,2.7-19.3,3.4-28.9,3.3
		c-10.7-0.1-21.4-2.3-32.1-3.1c-10.4-0.8-20.1-4.2-29.7-7.8c-18.7-6.9-34.1-18.3-47.5-32.8c-5.8-6.3-4.9-11.6,3-15.6
		c-0.6-1.3-1.5-2.4-1.8-3.8c-0.4-1.5-1.1-3.5-0.6-4.8c3.3-7.6,13.3-15.5,22.5-9.6c2.2,1.4,4.3,3.2,6.7,4.3c4.6,2.1,9.2,4.8,14.1,5.6
		c7.3,1.2,10.8,7.1,16.2,10.6c0.4,0.3,0,1.8-0.1,2.7l-0.1,0.1c-3.7-2.5-7.5-4.8-10.9-7.5c-4.6-3.6-12.6-3.6-16.8,0.4
		c2.3,7.3,11.3,1.4,14.4,7.5c-3.7,0.4-7.2,0.5-10.6-0.3c-8.2-1.8-10-7-4.9-13.4c-1.2-0.6-2.4-1.2-3.5-1.9s-2.2-1.5-3.8-2.5
		c3.1,10.9,3,11-2.5,13.5c-0.2,3.5,0.5,7.3-0.8,10.3c-1,2.4-4.2,4.1-6.7,5.6c-0.4,0.2-2.3-1.9-3.9-3.4c2.8-0.9,4.2-1.4,5.6-1.8
		c-1.1-1.3-2-2.8-3.3-3.8c-1.1-0.9-2.6-1.8-4-1.9c-2.3-0.3-4.7,0.1-7,0.2c0.4,2.4,0.8,4.7,1.4,7.1c0.2,0.7,1.1,1.2,1.6,1.8
		c16.5,16.9,36.2,28.5,59.1,34c10.2,2.4,21,2.7,31.4,4.2c15.2,2.1,30.2,1,44.8-3.3c6.4-1.9,12.3-5.1,18.4-7.8
		C187.9,460.3,192.1,458.6,196.4,456.9z M44.2,426c-1.7-3.8-3-6.5-4.4-9.7c2.6,0,5,0,7.3,0c0.3-9.8-2.7-12.7-11.2-10.7
		c1.8,4.6,0.4,7-4.8,5.6C30.4,417,35.7,423.2,44.2,426z"/>
	<path class="st7" d="M55.4,231.9c-0.3-0.9-0.6-1.8-0.9-2.7c2.4-3,4.4-6.7,9.2-5.2c4.7,1.5,7.7,4.7,7.9,9.8
		c0.5,9.9,5.6,17.1,13.1,22.9c10.2,8,20.1,16.4,30.7,23.9c12.3,8.7,26.8,12.4,41.6,14.2c10,1.3,20.1,1.2,30.2,1.7
		c0.1,1.5,0.1,2.9,0.2,4.4c-2.9,0.3-5.9,0.6-8.8,1c-16.2,1.1-31.6-2.9-46.8-7.6c-15.6-4.9-28.3-14.9-40.2-25.9
		c-4-3.7-7.7-7.8-11.9-11.3c-5.9-4.8-10.6-10.2-11.1-18.3c-0.3-4.5-1.3-8.8-5.4-10.4C60,229.9,57.7,230.9,55.4,231.9z"/>
	<path class="st8" d="M356.7,177.9c-1.4,7.6-2.8,15.3-4.2,22.9c-3.8,11.1-10.2,20.7-18.4,28.8c-7.5,7.4-16.1,13.9-24.5,20.3
		c-3.2,2.4-4.2,4.8-3.7,8.4c-0.8-1.3-1.5-2.7-2.3-4c-8.7,3-17,7.1-26.7,5.3c0.3-1.3,0.5-2.4,0.7-3.5c11.7-1.7,23.1-4.4,32.8-11.6
		c2.3-1.7,4.1-3.8,6.4-5.5c10.5-8,19.3-17.7,26.8-28.6c1.3-1.9,2.1-4.2,3.2-6.4c-2.8-0.4-5-0.6-7.1-0.9c-0.2-0.6-0.3-1.2-0.5-1.9
		c1-0.6,1.9-1.7,2.9-1.8c4.5-0.4,5.3-3.9,6.5-7.2c0.9-2.5,2-5,2.4-7.5c0.9-5.6,2-11.8-2.7-16c-3.8-3.4-8.6-2.6-12.9,0.5
		c-0.4,0.3-2-1.2-3-1.9c4-4.5,14.6-6.8,19.5-3.4c2.2,1.5,3.4,4.9,4.5,7.6C357.1,173.5,356.6,175.8,356.7,177.9z"/>
	<path class="st5" d="M205.5,380.9c-0.5,2.7-1,5.4-1.5,8c-5.2,3.9-9.3,8.8-14.3,13c-11.3,9.5-23.3,17.5-36.8,23.1
		c-8.1,3.4-16.3,7.2-24.8,8.5c-13.1,2-26.3,0.7-39-3.6c-2.7-0.9-3.9-2.3-3.5-5l0.1-0.1c23,7.5,45.4,5.5,67.2-4.7
		c16-7.5,30.8-16.8,42.8-30C198.6,386.8,202.2,384,205.5,380.9z"/>
	<path class="st7" d="M254.9,258.9c-0.9-0.8-1.7-2-2.8-2.4c-21.1-8.1-35.1-23.3-44.4-43.4c-0.6-1.2-1.3-2.3-2-3.4
		c-0.1-1.2-0.1-2.4-0.2-3.6c1.4,0.3,2.7,0.5,4.1,0.8c1.1,2.4,2.3,4.8,3.5,7.3c0.8,1.6,1.7,3.2,2.5,4.8c6.7,10.1,14.5,19.1,24.3,26.3
		c7.4,5.4,16.1,7.3,24.6,9.7c0.2,3-1.4,4.1-4.2,4C258.5,258.9,256.7,259,254.9,258.9z"/>
	<path class="st9" d="M298.5,4c1.3-0.7,2.7-1.4,4-2.1c1,0,2-0.1,3-0.1c0.1,0.5,0.2,1.3,0.4,1.4c4.3,1,8.7,1.8,13,2.7
		c2.9,2.8,5.8,5.6,8.6,8.4c0.6,0.9,1.2,1.9,1.8,2.8c0.2,1.1,0.4,2.2,0.5,3.3c0.3,0.9,0.6,1.8,0.9,2.7c0.3,1,0.7,2,1,2.9
		c-1.9-0.2-3.8-0.4-4.7-0.5c-1.6,2-2.7,3.3-3.8,4.7c-2.4-1.3-4.8-2.8-7.4-4c-0.6-0.3-1.7,0.5-2.5,0.9c-0.8-0.3-2.2-0.5-2.4-1
		c-0.7-2.9-1-5.9-1.5-8.8c2.7,0.7,5.3,1.4,8,2.2c2.3,1.7,4.5,3.4,6.8,5c0.5-0.7,1-1.4,1.6-2.1c-2-1.8-4.1-3.6-6.1-5.4
		c-5.4-7.1-12.6-8.9-21-7.3C300,7.7,293.7,6.1,298.5,4z"/>
	<path class="st10" d="M254.9,258.9c1.8,0,3.6,0,5.4,0c2.8,0.1,4.4-0.9,4.2-4c4.4,0.4,8.7,0.7,13.1,1.1c-0.2,1.1-0.5,2.2-0.7,3.5
		c9.8,1.9,18-2.3,26.7-5.3c0.8,1.3,1.5,2.6,2.3,4c0.2,1.9,0.4,3.7,0.6,5.6c-10.6,0.1-21.2-0.1-31.9,0.2c-6.8,0.2-13.5,1.1-20.2,1.7
		C254.6,263.5,254.7,261.2,254.9,258.9z"/>
	<path class="st1" d="M329.5,59c0-0.7,0-1.3,0-2c0-1,0-2.1,0.1-3.2c3.1,0.2,6.6,0.3,7.4-3.3c1-4.6-1.9-8-4.6-11.5
		c-1.8,2.2-3.3,4.1-4.8,6c-1.4-1.3-2.6-3.4-4.1-3.7c-3.8-0.7-4-3.2-4.1-6.1c1.4,1.2,2.9,2.4,4.5,3.8c0.6-0.9,1.2-1.8,1.8-2.7
		c4.1,0.2,9,1.8,7.9-5.5c5.7,5,10.1,10.8,10.3,18.8c0.1,7.3-5.8,12-13,10.9C330.4,60,330,59.5,329.5,59C329.5,59,329.5,59,329.5,59z
		"/>
	<path class="st6" d="M298.5,4c-4.8,2.1,1.5,3.7,0.2,5.6c-2.4,0.8-4.8,1.6-7.2,2.4c-0.4,1-0.7,2-1.1,3c-0.6,0-1.2,0.1-1.8,0.1
		c-3.1-1.5-4,0.1-4.1,2.9c-0.3,0.3-0.7,0.7-1,1c-2,0.7-4,1.3-6,2c-0.4-1.7-0.7-3.3-1-5c2-2.4,3.9-4.7,5.8-7.1
		c3.2,1.6,5.5,1.8,5.2-2.9c0.7-0.5,1.4-1.1,2.1-1.6c1.2-0.5,2.3-1.1,3.5-1.6C294.9,3.2,296.7,3.6,298.5,4z"/>
	<path class="st6" d="M267.8,36.8c1.6,2.1,3.2,4.2,4.7,6.1c2.3-1.6,5.1-3.5,8.6-5.9c-2.3,11.8-2.3,11.8-13.7,11.9
		c-1.2-1.7-2.4-3.3-4-5.5C264.8,41.5,266.3,39.2,267.8,36.8z"/>
	<path class="st9" d="M205.5,206.1c0.1,1.2,0.1,2.4,0.2,3.6c-1.1,2.4-2.3,4.9-3.4,7.3c-0.6,0.1-1.2,0.1-1.9,0.2
		c-1.2-2.4-2.4-4.9-3.6-7.3c3.3,0.1,4-1.2,2.7-4.3c-1-2.5-1.3-5.3-2-8.1c2.3,0.9,4.1,1.7,5.9,2.4C204.1,202,204.8,204.1,205.5,206.1
		z"/>
	<path class="st11" d="M333.6,30.7c1.2,7.3-3.8,5.8-7.9,5.5c-0.9-2-1.7-4.1-2.5-6.2c1.1-1.4,2.2-2.7,3.8-4.7c1,0.1,2.8,0.3,4.7,0.5
		c0.2,0.1,0.3,0.2,0.2,0.4c0.3,0.9,0.5,1.8,0.8,2.7C333,29.6,333.3,30.2,333.6,30.7z"/>
	<path class="st1" d="M318.8,5.8c-4.4-0.9-8.7-1.8-13-2.7c-0.2,0-0.3-0.9-0.4-1.4C309.9,3.1,314.4,4.5,318.8,5.8z"/>
	<path class="st6" d="M275,25c0.3,0.7,1,1.8,0.7,2.1c-1.6,1.8-3.3,3.3-5,5C272.1,29.7,273.5,27.3,275,25z"/>
	<path class="st9" d="M287.5,6c0.3,4.7-2,4.5-5.2,2.9c1.3-1,2.6-2,4-3C286.7,5.9,287.1,6,287.5,6z"/>
	<path class="st1" d="M326.5,61c-1.4-0.1-2.8-0.3-4.1-0.4c0-0.5,0-1.1,0-1.6c2.4,0,4.8,0,7.2,0l0,0c-0.1,0.5-0.1,0.9-0.2,1.4
		C328.4,60.6,327.5,60.8,326.5,61z"/>
	<path class="st11" d="M276.5,16c0.4,1.7,0.7,3.3,1,5c-0.7,0-1.3,0-2,0C275.9,19.3,276.2,17.7,276.5,16z"/>
	<path class="st1" d="M287.5,6c-0.4-0.1-0.8-0.1-1.2-0.1c1.1-0.5,2.2-1,3.3-1.5C288.9,5,288.2,5.5,287.5,6z"/>
	<path class="st1" d="M329.3,17c-0.6-0.9-1.2-1.9-1.8-2.8C328.1,15.1,328.7,16.1,329.3,17z"/>
	<path class="st6" d="M270.3,32.6c-0.7,1.1-1.3,2.3-2,3.4C269,34.8,269.7,33.7,270.3,32.6z"/>
	<path class="st1" d="M330.7,23c-0.3-0.9-0.6-1.8-0.9-2.7C330.1,21.2,330.4,22.1,330.7,23z"/>
	<path class="st1" d="M332.7,29.1c-0.3-0.9-0.5-1.8-0.8-2.7C332.2,27.3,332.5,28.2,332.7,29.1z"/>
	<path class="st2" d="M329.3,60.4c0.1-0.5,0.1-0.9,0.2-1.4c0.5,0.5,0.9,1,1.4,1.5C330.4,60.4,329.8,60.4,329.3,60.4z"/>
	<path class="st12" d="M205.5,206.2c-0.7-2-1.4-4.1-2.1-6.1c-0.1-0.7-0.1-1.3-0.2-1.9c-0.3-2-0.6-4-1-6c0.1-3.4,0.2-6.7,0.3-10.1
		c0.2-0.3,0.3-0.6,0.2-0.9c1-5.4,2-10.7,3.1-16.4c3.8,0,4.8-2.7,5.9-6.3c1.9-5.8,5.1-11.1,7.7-16.6c5.5-0.5,11-0.6,16.4-1.6
		c2.7-0.5,5.7-2.1,4.4-6c-0.2-0.7-0.4-1.3-0.6-2c0.6-1.1,1.2-2.2,1.7-3.3c1.3,1.5,2.5,2.9,3.8,4.4c2.1,1.3,4.2,3.4,6.4,3.6
		c4.7,0.4,9.5-0.1,14.3-0.3c9.2-0.5,18.4-0.9,27.5-1.6c1.5-0.1,2.9-1.8,4.3-2.7c3.3,2.2,4.1-0.2,4.6-2.6c0.7-3.8,1.1-7.7,2.7-11.8
		c1.5,4.7,2.9,9.5,4.4,14.2c0.1,1.4,0,2.9,0.3,4.3c2.4,10.5,5.4,20.9,7.1,31.5c1.7,10.1,5.9,19.8,5,30.4c-0.1,1.3,1.4,2.7,2.1,4
		c0.9-1.2,2.2-2.2,2.7-3.5c3.7-9.6,2.9-19.6,2.9-29.5c0-2.3,0.5-4.6,0.9-7c0.7,1.8,1.3,3.5,2,5.3c1,0.7,2.6,2.2,3,1.9
		c4.3-3.1,9.1-3.9,12.9-0.5c4.7,4.2,3.6,10.4,2.7,16c-0.4,2.6-1.5,5.1-2.4,7.5c-1.2,3.2-2,6.8-6.5,7.2c-1,0.1-1.9,1.2-2.9,1.8
		c0.2,0.6,0.3,1.2,0.5,1.9c2.1,0.3,4.3,0.5,7.1,0.9c-1.1,2.2-1.9,4.5-3.2,6.4c-7.5,10.8-16.3,20.5-26.8,28.5
		c-2.2,1.7-4.1,3.9-6.4,5.5c-9.7,7.3-21.1,9.9-32.8,11.6c-4.4-0.3-8.7-0.7-13.1-1c-8.5-2.4-17.2-4.3-24.6-9.7
		c-9.9-7.2-17.6-16.2-24.3-26.3c0,0,0,0-0.1,0C212.2,214.7,208.9,210.5,205.5,206.2z M341.8,182.4c0.6-1.7,1.4-3.1,1.6-4.7
		c0.1-0.8-0.4-2.1-1.1-2.4c-0.7-0.4-2-0.1-2.7,0.3c-3.2,2.1-4.4,9.8-1.8,12.6c0.8,0.9,3.7,1.6,4,1.2c1-1.3,1.4-3.2,1.6-4.9
		C343.5,183.9,342.4,183.1,341.8,182.4z"/>
	<path class="st13" d="M330.5,162.1c-0.3,2.3-0.8,4.6-0.9,7c-0.1,9.9,0.8,20-2.9,29.6c-0.5,1.3-1.8,2.4-2.7,3.6
		c-0.8-1.4-2.2-2.8-2.1-4c0.9-10.6-3.3-20.3-5-30.4c-1.8-10.6-4.8-21-7.1-31.5c-0.3-1.4-0.2-2.9-0.3-4.3c5.4,2.2,7,6.8,8.1,11.9
		c1.7,7.9,3.6,15.7,5.5,24.3c3.4-4.3-1.1-10.2,4.4-13.7C328.6,157.4,329.5,159.7,330.5,162.1z"/>
	<path class="st11" d="M283.5,19c0.3-0.3,0.7-0.7,1-1c1.4-1,2.8-1.9,4.1-2.9c0.6,0,1.2-0.1,1.8-0.1c0.7-0.4,1.4-0.8,2.1-1.1
		c6-0.7,11.5,1.1,16.9,3.3c0.5,2.9,0.8,5.9,1.5,8.8c0.1,0.5,1.5,0.7,2.4,1c2,2.7,4.1,5.5,6.1,8.2c0.1,2.8,0.4,5.3,4.1,6.1
		c1.6,0.3,2.8,2.4,4.1,3.7c0.6,2.9,1.3,5.9,1.9,8.8c0,1,0,2.1-0.1,3.2c-3.3-1.5-6.6-2.8-9.7-4.6c-0.8-0.5-1.1-2.2-1.3-3.5
		c-0.6-3.4-2.2-5.4-6-4.9c-0.3-0.6-0.7-1.2-0.8-1.8c-0.3-4.8-2-8-7.7-7.7c-1.5,0.1-3.1-2-4.7-3c0.2-0.4,0.4-0.7,0.5-1.1
		c1.6,0.1,3.3,0.2,5,0.3c-1-6.6-2.1-7.9-8.1-7.5c-3.2,0.2-6.2,1.9-9.3,2.9C286.2,23.7,284.9,21.3,283.5,19z"/>
	<path class="st6" d="M297.8,132.1c-1.4,0.9-2.8,2.6-4.3,2.7c-9.2,0.7-18.4,1.1-27.5,1.6c-4.8,0.2-9.5,0.7-14.3,0.3
		c-2.2-0.2-4.3-2.3-6.4-3.6c1.6-1.6,3.1-3.1,5.2-5.2c0.5-0.1,2.2-0.3,3.9-0.5c-0.1-0.4-0.1-0.9-0.1-1.3c-4.4-0.9-7.6-5.4-6.4-9.2
		c0.4-1.1,1.5-2.5,2.4-2.7c0.9-0.2,2.1,1.1,3.1,1.7c1.6,1,3.2,2.1,4.9,3c0.9,0.5,2.5,0.4,3,1.1c5.1,7.7,13.4,7,20.9,7.7
		c2.9,0.3,5.6-1.5,7.9,2.4C290.9,131.8,295.1,131.5,297.8,132.1z"/>
	<path class="st9" d="M287.5,26c3.1-1,6.2-2.7,9.3-2.9c6-0.4,7.1,1,8.1,7.5c-1.7-0.1-3.4-0.2-5-0.3c-0.2,0.4-0.4,0.7-0.5,1.1
		c1.6,1.1,3.2,3.1,4.7,3c5.7-0.3,7.4,2.9,7.7,7.7c0,0.6,0.5,1.2,0.8,1.8c-0.5,2.5-0.9,3-3.9,1.6c-6.2-3-9.3-11.1-17.6-10.9
		c-0.8,0-1.7-2.4-2.5-3.7c1.5,0.2,3,0.4,4.5,0.6c-1.1-1.1-2.2-2.4-3.4-3.4c-0.6-0.5-1.4-0.8-2.1-1.2C287.5,26.7,287.5,26.3,287.5,26
		z"/>
	<path class="st6" d="M240.3,134c1.2,4-1.8,5.6-4.4,6c-5.4,1-10.9,1.1-16.4,1.6c1.2-2.4,2.4-4.9,3.6-7.4
		C228,138.3,237.3,138,240.3,134z"/>
	<path class="st11" d="M287.5,27c0.7,0.4,1.5,0.6,2.1,1.2c1.2,1.1,2.3,2.3,3.4,3.4c-1.5-0.2-3-0.4-4.5-0.6c-1.3-0.8-2.6-1.5-4.9-2.9
		C285.6,27.5,286.6,27.2,287.5,27z"/>
	<path class="st9" d="M202.3,192c0.3,2,0.6,4,1,6C200.5,196.4,199.4,194.6,202.3,192z"/>
	<path class="st6" d="M241.4,128.7c-0.6,1.1-1.2,2.2-1.7,3.3c-0.1-0.9-0.4-1.9-0.2-2.7C239.5,129,240.7,128.9,241.4,128.7z"/>
	<path class="st9" d="M202.7,181.1c0.1,0.3,0.1,0.6-0.2,0.9c-0.1-0.2-0.2-0.5-0.2-0.7C202.3,181.2,202.6,181.1,202.7,181.1z"/>
	<path class="st14" d="M195.6,547.9c0.7-13.6,1.4-27.3,2.1-40.9c4.9,0,9.7,0,15,0c0.7,1.5,1.7,3.8,3.1,6.8c1-1.6,1.4-2.3,1.8-3
		c2.4-5.2,4.6-10.5,7.3-15.5c4.6-8.9,0.1-17.3-9.8-17.3c-5.1,0-10.2,1.8-15.3,2.8c0.1-4.5-1.5-9.1,2.1-13.2c0.8-0.9,0.2-2.9,0.3-4.4
		c0.5-16.1,0.2-32.3,1.7-48.3c1.3-13.6,4.8-27,7.3-40.5c0.3-1.8,0.9-3.5,1.4-5.2c2.6,6,8.1,6.6,13.6,6.9c0.6,0,2.2-2.6,1.9-3.1
		c-1.9-3.2-4.1-6.2-6.3-9.2c0.8-1,1.5-2.1,2.3-3.1c-0.2-0.4-0.5-0.8-0.7-1.2c-3.2,0.4-6.4,0.8-9.6,1.3c-6.9-5.4-13.8-10.8-20.8-16.2
		c-0.7-18.7-1.4-37.4-2.2-56.8c10.4-3.5,21.7-7.2,32.9-11c0,2.7,0,5.3,0,8c-0.9,4.2,0.5,7,4.9,8c1-0.1,2.1-0.2,3.1-0.3
		c7.1,0,14.3,3,21-1.6c0.6-6.7,1.3-13.3,1.9-20c14.4-2.9,28.9-3.3,43.6-3.3c15.9,0,28.4,5.8,36,19.6c6.3,11.4,10.9,23.6,16.2,35.5
		c-5.4,1.4-10.2,7.6-11.1,14.3c-1,7.5,7.1,14.1,14.4,11.6c0.4,1.6,1,3.1,1,4.7c0.4,23.7,0.8,47.4,1.2,71.1c0.4,22.9,1,45.8,1.4,68.7
		c0,1.2-0.1,2.3-0.2,3.5c-0.9,0-1.7,0-2.6,0c-2-1-4-1.9-6-2.9l0,0c-0.3-0.3-0.7-0.7-1-1l0,0c-3-2-6-4-9-6l0,0
		c-4.6-3.2-9-6.7-13.8-9.5c-1.4-0.9-3.8-0.1-5.8,0c0.7,1.8,0.9,4.1,2.2,5.4c3.3,3.5,6.7,6.9,10.6,9.7c8,5.8,16.3,11.1,24.5,16.6
		c0.1,5.3,0.3,10.7,0.4,16c-10.3-0.5-14.3,3-14.5,13.3c0,1.8,2,4.5,3.7,5.3c3.2,1.4,7,1.7,10.5,2.5c0.5,7,2.8,14-0.6,20.9
		c-1,0.8-2.6,1.5-2.9,2.6c-0.8,3-1,6.1-1.4,9.2c-6.8,0.3-13.6,1.1-20.4,0.9c-16.2-0.5-32.2,0.9-48.2,3.4c-7,1.1-14.3,0.6-21.4,0.8
		c0.3-4.7,0.8-9.3,1-13.9c0.1-2.5-0.6-4.6-3.9-4.1l0,0c-0.3-0.7-0.6-1.3-1-2c-7.2-0.6-14.3-1.5-21.5-1.8c-1.6,0-4.7,2-4.8,3.3
		c-0.7,5.8-0.5,11.6-0.7,17.4c0,0.4,0.1,0.7,0.1,1.1c-11.6,1.8-23.1,3.6-35,5.4c0-8.3,0-16.4,0-24.5c4,0.8,8,1.9,12.1,2.4
		c1.4,0.2,3-0.9,4.5-1.4c-0.9-1.6-1.4-4.1-2.7-4.6c-4.5-1.6-9.2-2.4-13.9-3.5c0-0.6-0.1-1.3-0.1-1.9c4.4-0.3,8.9-0.4,13.3-1
		c1.1-0.2,2.6-2.3,2.6-3.5c-0.1-1.1-1.8-3-2.9-3.2C204.2,547.8,199.9,548,195.6,547.9z M238.6,543.9c-0.6,0.3-1.1,0.6-2.3,1.3
		c3.2,1,5.2,1.3,5.3-2.2c0.3-0.3,0.6-0.7,1-1c4.5-2.8,7.1-6.9,7.8-12.2c2.2-6.2,4.4-12.4,6.6-18.6c2.6-7,5.3-14,7.9-21
		c0.6-1.3,1.3-2.7,1.9-4c0.9-3.8,2.1-7.5,2.7-11.3c0.2-1.1-0.7-3.5-1.4-3.6c-1.6-0.3-4.2-0.1-4.9,1c-2.3,3.3-3.9,7.1-5.7,10.7
		c-0.5,1.3-0.9,2.6-1.4,4c-2.2,5.4-4.3,10.7-6.5,16.1c-0.8,0-1.6,0.1-2.5,0c-4.2-0.6-6,0.8-5.6,5.3c0.3,3.7-0.4,7.5-0.4,11.2
		c0,0.5,0.9,1,1.4,1.5c0,0.7,0.1,1.3,0.1,2l0,0c-1.3,2.3-2.6,4.7-3.9,7.1C238.6,534.7,238.6,539.3,238.6,543.9z M218.4,317
		c0.6,1,1.3,2,1.9,3.1c0,1,0.3,2.1,0,3c-1.5,4.7-1,8.8,2.1,13c3.6,5,6.1,10.9,9.5,16.1c4.2,6.5,8.9,12.6,13.4,19
		c0.4,3.9,2.3,4.2,5.3,2.2c3.3-2.2,6.7-4.1,9.9-6.4c1.2-0.9,3-2.7,2.7-3.5c-0.4-1.4-2.3-2.3-3.5-3.5c-0.5-1.5-0.6-3.3-1.4-4.6
		c-5.8-9.5-11.4-19-17.6-28.2c-2.5-3.7-3.8-9.3-10.2-8.6c-2.7-2.3-5.4-4.6-8.6-7.2c-0.6,0.7-1.5,1.7-2.4,2.7
		C219.1,315,218.7,316,218.4,317z M298.4,326.8c4.7-5.5,9.4-11.1,14-16.6c0.4-0.8,0.8-1.5,1.1-2.3c1.8-1.1,4-1.9,5.3-3.4
		c0.5-0.5-0.8-3.3-1.9-4.3c-5.7-5.6-11.4-11.1-17.4-16.4c-1.9-1.7-4.4-2.8-6.6-4.1c-0.5-0.9-1-1.7-2.1-3.5c-0.8,3-1.4,4.8-1.8,6.3
		c-2,0.8-4,1.1-5.1,2.2c-4.2,4.2-6,10.9-12.7,12.7c-0.7,0.2-1.1,1.8-1.6,2.7c0.9,0.2,1.7,0.5,2.6,0.7c1.1,1.4,2.1,2.8,3.2,4.2
		c0.3,0.6,0.6,1.3,0.9,1.9c1.4,1.8,2.8,3.6,4.2,5.4c5.1,5.1,10.2,10.2,15.4,15.2C296.3,327.7,297.6,327,298.4,326.8z M313.4,398.1
		c0.1,3.6,0.3,7.2,0.4,10.8c1.8,1,3.5,2.6,5.4,2.8c5.8,0.5,11.8-0.5,17.4,0.6c7.5,1.5,7.4,2.1,9.9-4.3c1.6,0,3.3,0,5,0
		c0-0.3,0.1-0.7,0.1-1c-2-0.9-4-1.9-5.9-2.8c0.1-0.3,0.2-0.5,0.3-0.8c1.7,0,3.5,0,5.2,0c0.1-0.3,0.1-0.7,0.2-1
		c-1.9-0.8-3.8-1.6-6.1-2.6c2.7-0.9,4.8-1.5,6.8-2.1c0-0.4-0.1-0.7-0.1-1.1c-1.7-0.4-3.5-0.8-6.5-1.6c2.9-1,4.5-1.5,6.1-2.1
		c0-0.4-0.1-0.7-0.1-1.1c-1.6-0.5-3.1-1-5.2-1.7c2.1-1.3,3.6-2.2,6.1-3.7c-2.9-0.4-4.5-0.6-6.2-0.8c0-0.3-0.1-0.5-0.1-0.8
		c1.9-0.7,3.7-1.4,5.6-2.1c-0.1-0.4-0.2-0.8-0.4-1.2c-1.8,0-3.5,0-5.6,0c0.4-4.2-0.9-6.3-5.3-5.7c-5.1,0.6-10.2,1-15.3,1.1
		c-11.4,0.3-11.6-2.3-11.5,11c0,0.7-0.1,1.3-0.2,2c-1,0.3-2,0.6-3,0.9C307.2,395.5,308,397.4,313.4,398.1z M330.2,523.9
		c1.5-3.3-1.6-17-4.3-18.8c-0.4-0.2-1-0.1-1.5-0.1c-0.6-0.9-0.9-2.2-1.7-2.7c-5.3-3-10.9-5.5-16.1-8.8c-3.9-2.5-6.2-1-8,2.3
		c-6.8,13-13.4,26.1-20.1,39.1c0.3,1.1,0.1,2.9,0.8,3.2c10,5.4,20,10.6,30.1,15.9c2-0.3,5.1,0.1,5.6-1
		C320.4,543.5,325.2,533.7,330.2,523.9z M313.5,442.1c-1.8,0.2-3.5,0.4-5.3,0.6c-1.1,0.4-2.1,1-3.2,1.1c-4.4,0.5-5.9,2.8-5.3,7.1
		c0.6,4.3,3.1,5.5,6.9,5c2.3-0.3,4.5-0.8,6.8-1.1c6.4-0.9,12.7-2,19-2.7c7.1-0.8,12.9-4,18.4-9.4c-12.1-6.4-23.7-3.2-35.3-0.6
		C314.8,442.1,314.2,442.1,313.5,442.1z M254.1,396.6c-1.4,0.5-2.8,0.9-4.1,1.4c-0.3,0.1-0.6,0.1-1,0c-3.9,1.3-7.7,2.6-11.6,3.9
		c-5.6,1.6-11.2,3.3-17.1,5c4.6,14,8.9,26.9,13.4,39.7c0.5,1.4,3.2,3.4,4.2,3.1c8.9-2.9,17.8-6.3,26.6-9.5c1-0.1,2-0.3,3-0.5
		c8.5-2.8,17-5.8,25.5-8.4c3.8-1.1,4.1-3.5,3.2-6.5c-4-11.9-8-23.8-12.2-35.6c-0.4-1.1-2.5-2.8-3.3-2.5c-5.5,1.8-10.8,3.9-16.2,6
		C261,394,257.6,395.3,254.1,396.6z M288.5,347.4c-0.5,0.2-1.7,0.4-2.6,1.1c-7.9,6-6.2,19.1,3.1,22.6c2.5,0.9,5.9,1.2,8.2,0.1
		c3.3-1.6,6.1-12.6,4.9-15.9C300.7,351.5,294.1,347.5,288.5,347.4z M227.2,446c0.1-4.6-4.2-9.3-8.7-9.2c-4.3,0.1-6.1,3.1-6.6,6.8
		c-0.6,5,3.4,9.9,7.6,10C223.6,453.7,227.1,450.2,227.2,446z M218.3,544.9c3.8,0.1,7.9-4.1,8-8.1c0.1-3.1-5.8-8.5-9.4-8.8
		c-3-0.3-6.3,3.7-6.4,7.6C210.4,540.2,214.2,544.8,218.3,544.9z"/>
	<path class="st15" d="M257.8,837.8c0,6.5,0,12.9,0,19.6c-0.4,0.1-1.1,0.6-1.6,0.5c-8.8-2.2-16.9,1.4-25.3,3.1
		c-3.4,0.7-6.9,0.6-10.3,0.9c0-9.4,0.1-18.8,0-28.2c0-1.6-1.3-3.2-2-4.7c-3.4-0.2-2.4,2.7-3,4.4c-1,2.8-1.9,5.7-2.8,8.6
		c-1-9.6-2-19.2-3-28.9c2.9-0.3,5.9-0.5,8.8-0.8c1,2.3,1.9,4.4,3.1,7.2c3.9-6.7,7.4-12.3,10.5-18.2c1.1-2,2.7-5-1.5-6.2
		c0-0.6-0.1-1.3-0.1-1.9c0.8-5.2-2.8-9-9.1-9.1c-4.6-0.1-9.1,0.6-13.7,0.9c-0.4-15.4-1.9-30.9-0.7-46.2c0.9-12-2.1-23.7-0.2-35.6
		c6.3-2.2,10.2-8.3,8.6-14.6c-0.4-1.7-2.4-3.3-4-4.4c-1.3-0.9-3.1-0.9-4.7-1.3c0-5,0-9.9,0-14.9c2.9,1.3,5.9,2.7,8.9,4
		c3.3,3,6.6,6.1,9.9,9.1c2,0.6,4.1,1.2,6.1,1.8c4,1.3,4.6-0.5,3-3.7c-0.8-1.6-2-2.9-3-4.4c-3.9-2.4-7.7-4.8-11.5-7.2
		c-4.4-3.6-8.9-7.2-13.3-10.9c0-21.3,0-42.7,0-64.6c8.1-1.1,15.4-2.1,22.7-3.1c0.1,1.7,0.1,3.3,0.2,5c0.1,3.8,2.9,5.2,5.9,5.5
		c5.7,0.4,11.5,0.1,17.3,0.2c6.1,0.1,7.9-1.7,7.6-7.9c0.1-1,0.1-1.9,0.2-2.9c12.3-1,24.7-2.1,37-3.2c-0.6,1.4-0.8,3-1.8,4.1
		c-1.3,1.5-3,2.9-4.8,3.8c-4.8,2.5-5.4,9.4-11.8,10.7c-3,0.6-3.6,3.5-0.7,6.1c3.7,3.4,7.1,7.1,10.8,10.4c1.1,1,2.8,1.3,4.2,1.9
		l0,0.1c0.3,0.3,0.6,0.6,1,1l0,0c0.3,0.3,0.6,0.7,1,1l0,0c0.3,0.3,0.6,0.7,1,1l0,0c0.3,0.3,0.6,0.7,1,1l0,0c1.6,2.1,3.1,4.4,5,6.2
		c0.8,0.8,2.6,0.5,3.9,0.6c4.7-5.5,9.4-11.1,14-16.6c0.4-0.8,0.8-1.5,1.1-2.3c1.8-1.1,3.8-1.9,5.3-3.3c0.4-0.4-0.4-2.8-1.2-3.6
		c-7.9-7.4-16-14.7-24-22c0-0.2,0-0.4,0-0.7c14.9,0,29.8,0,43.9,0c-0.2,32.9-0.3,65.7-0.5,98.6c-6.6,0.1-13.1,0.2-19.7,0.2
		c-2.8,0-5.1,0.3-3.9,4.1c0,1.3,0,2.6,0,3.9c0,1.7,0,3.3-0.1,5c-1.3,2.6-2.6,5.1-3.9,7.7c0.5,0,1.1,0,1.6,0c0.5,2.3,1.4,4.5,1.4,6.8
		c0.2,7.4,0.1,7.5,7.6,7.4c5.4-0.1,10.8-0.5,16.3-0.8c0.3,9.2,0.5,18.4,0.8,27.6c-1.2,0.1-2.4,0.2-3.6,0.3c-6.4,1-12.7,2.1-19,3.1
		c-1.5,0.2-3,0.3-4.6,0.5c-0.9,0.1-1.8,0.1-2.6,0.2c-0.9,0.3-1.8,0.9-2.8,1c-4.1,0.4-6.4,2.1-5.8,6.7c0.6,4.7,3.4,6.1,7.7,5.3
		c2.4-0.5,4.8-1.2,7.1-1.9c1-0.9,2.1-1.9,3.1-2.8c2.3,0.4,4.5,0.7,6.7,1.1c1.4-0.1,2.7-0.2,4.1-0.3c1,0,2,0,3-0.1
		c2.3-0.2,4.5-0.5,6.8-0.7c0,10.9,0,21.9,0.1,32.8c-3.6-1.4-7.2-2.8-10.8-4.2c-0.4,0.1-0.7,0.2-1,0.2l0,0c-1.2-1-2.2-2.3-3.6-2.9
		c-1-0.5-2.4-0.1-3.5-0.1c0,1.4-0.6,3.3,0.1,4c4.6,4.2,9.4,8.2,14.1,12.2c0.9,0.6,1.8,1.2,2.7,1.8c0.4,4.8,1.1,9.7,1,14.5
		c-0.2,12.9-0.8,25.9-1.2,38.8c0,0.7-0.2,1.3-0.4,2.5c-6.1-0.3-12.2-0.6-18.3-0.8c4-7.8,8.1-15.5,12.1-23.3
		c2.8-5.4,0.6-18.6-4.5-22.1c-6.6-4.6-13.8-8.3-20.9-12.1c-0.8-0.4-3.2,0.7-3.9,1.7c-2.3,3.4-4.3,7.1-6.2,10.8
		c-4.7,8.9-9.2,17.9-13.9,26.8c-0.3,0.7-0.5,1.3-0.8,2c-0.2,0.7-0.5,1.4-0.7,2.1c0.3,0.7,0.5,1.8,1,2.1c7.6,4.3,15.2,8.6,22.8,12.8
		c-7.5,1.7-15.1,3.3-23.5,5.2c-1.1-8.2-2.7-17.1-3.4-26.2c-1.6-22-2.8-44-4.2-66.1c-0.5-8.3-1.2-16.5-1.8-24.8
		c7.7-2.6,15.4-5.3,23.1-7.7c3.6-1.1,4.4-3,3.2-6.3c-4-11.9-8-23.8-11.9-35.8c-1-3-2.6-3.3-5.3-2.3c-3.4,1.2-7,2.1-10.5,3.1
		c-0.8-10.3-1.2-20.6-2.5-30.8c-0.9-7.1-1.8-7.2-8.2-4c-7.3-11.8-14.7-23.7-22-35.5c-3.3-1.1-6.5-2.2-9.8-3.3
		c-1.1-2.3-2.1-4.5-3.7-8.1c-2,4.9-7.2,7.5-2,11.9c0.4,0.3,0.3,1.7,0,2.3c-2.6,5-0.8,9.1,2.3,13.2c2.2,2.9,3.4,6.5,5.4,9.5
		c5.7,8.6,11.6,17.2,17.5,25.7c0.5,3.8,2.2,4.2,5.2,2.2c1.9-1.2,3.9-2.2,5.9-3.3c-0.3,8.3-0.7,16.6-1,24.9c-11.6,4-23.2,8-35.9,12.4
		c3,5.9,5.5,10.8,8,15.6l0,0c2.2,8.2,4.2,16.5,6.7,24.7c0.3,1,3.6,2,5.2,1.6c4.5-1.1,8.8-2.8,13.2-4.3c-0.4,18.3-0.9,36.6-1.3,54.8
		c-0.5,0.3-1.4,0.6-1.5,1.1c-1.9,6-3.6,12-5.4,18c-0.8,1.5-1.7,2.9-2.5,4.3c-0.1,0.9-0.2,1.8-0.3,2.8c0,0.8-0.1,1.6-0.1,2.4l0.1,0.3
		c-1,0.7-2.7,1.4-2.8,2.2c-0.3,4.4-0.2,8.8-0.3,13.2c-0.5,0.4-0.9,0.8-1.4,1.2c0.3,0.4,0.7,0.9,1,1.3c1.1-1.1,2.3-2.2,3.4-3.3
		c0.4-0.4,0.7-0.8,1.1-1.2c1.6-2.2,3.3-4.4,4.9-6.6C255.6,840.8,256.7,839.3,257.8,837.8z M309.5,667.3c0.1-7.9-9.7-14.9-15.4-12.5
		c-0.9,0.4-1.7,1.1-2.3,1.8c-5.5,7.1-5.2,13.3,0.7,19.7c3.3,3.5,10.4,4.5,12.3,1.3C307.1,673.9,308.4,669.8,309.5,667.3z"/>
	<path class="st16" d="M85.5,424.9c-0.4,2.7,0.8,4.1,3.5,5c12.7,4.4,26,5.6,39,3.6c8.5-1.3,16.8-5.1,24.8-8.5
		c13.5-5.6,25.5-13.6,36.8-23.1c5-4.2,9.1-9.2,14.3-13c-1.7,9-3.4,18.1-4.9,27.1c-0.5,2.9-0.4,5.9-0.6,8.8c-5.1,3.2-10.8,5.8-15,9.9
		c-9.6,9.5-9.2,20,0.1,27.1c-6.1,2.6-12.1,5.9-18.4,7.8c-14.6,4.3-29.6,5.5-44.8,3.3c-10.5-1.5-21.2-1.8-31.4-4.2
		c-22.9-5.5-42.6-17.1-59.1-34c-0.6-0.6-1.5-1.1-1.6-1.8c-0.6-2.3-0.9-4.7-1.4-7.1c2.3-0.1,4.7-0.4,7-0.2c1.4,0.1,2.9,1,4,1.9
		c1.3,1,2.2,2.5,3.3,3.8c-1.4,0.5-2.8,0.9-5.6,1.8c1.6,1.5,3.5,3.6,3.9,3.4c2.5-1.5,5.7-3.2,6.7-5.6c1.3-3,0.6-6.8,0.8-10.3
		c5.6-2.5,5.6-2.6,2.5-13.5c1.5,1,2.6,1.8,3.8,2.5c1.1,0.7,2.3,1.3,3.5,1.9c-5.1,6.4-3.3,11.5,4.9,13.4c3.4,0.8,7,0.7,10.6,0.3
		c-3.1-6.1-12.1-0.2-14.4-7.5c4.1-4,12.1-4,16.8-0.4C78.1,420.1,81.9,422.5,85.5,424.9z"/>
	<path class="st17" d="M321.4,856.8c-2.3,0.1-4.5,0.2-6.8,0.4c-4.1-2.1-8.1-4.4-12.3-6.1c-5-2.1-6-4.6-3.5-9.2
		c1.9-3.5,3.5-7.1,5.2-10.7c2.6-4.3,5.3-8.7,7.9-13c-0.7-0.4-1.4-0.8-2.1-1.2c-0.8,1.3-1.5,2.7-2.3,4c-1.7-0.3-3.4-0.6-5.1-1
		c-0.6-0.7-1.2-1.4-1.8-2c1.6-3,3.3-6,4.9-9c1.4,0.3,2.7,0.6,4,1c4,0,2.2,2.2,1.6,4c-0.4,0.4-0.8,0.8-1.2,1.2
		c0.5,0.3,1.1,0.5,1.7,0.7c0.9-0.9,2-1.6,2.5-2.6c4-7.2,4-7.2,11.1-3.3c1.3,0.7,2.8,1.1,3.9,2c0.7,0.6,0.9,1.8,1.3,2.7
		c-1.4,2.2-2.9,4.4-4,6.8c-0.4,1-0.2,3.3,0.5,3.7c2.4,1.2,5.1,1.8,7.7,2.7c-0.4,1.7-0.4,3.6-1.2,5.2
		C329.5,841,325.4,848.9,321.4,856.8z"/>
	<path class="st18" d="M264.3,664.1c-0.4,1.2-0.7,2.4-1.1,3.6c-2.4,1.4-4.9,2.6-7.3,4.1c-2.4,1.5-4.3,1.4-5.9-1.1
		c-2.5-3.8-5.2-7.5-7.6-11.4c-4.1-6.8-7.9-13.6-12.1-20.7c3-2.2,5.7-4.5,8.7-6c1.3-0.6,4.2,0.1,5.1,1.2c2.7,3.5,4.6,7.6,7,11.3
		C255.4,651.4,259.9,657.7,264.3,664.1z"/>
	<path class="st10" d="M183.6,461.9c-9.3-7.2-9.7-17.7-0.1-27.1c4.2-4.1,9.9-6.6,15-9.9c-0.7,10.7-1.4,21.3-2,32
		C192.1,458.6,187.9,460.3,183.6,461.9z"/>
	<path class="st0" d="M345.2,687.1c0,5.2,0.1,10.5,0.1,15.7c-0.2,4-0.4,8-0.6,12c-5.8,0.3-11.7,0.6-17.5,1c-3.2,0.2-3.9-1.3-3.8-4.2
		c0.1-5.3,0-10.6,0-15.8c0-1.3,0-2.7,0-4c0-1.3,0-2.7,0.1-4C330.8,687.7,338,687.4,345.2,687.1z M340.7,714c0.4-0.6,0.7-1.3,1.1-1.9
		c-1.7-1-3.4-2.2-5.2-3.1c-2.2-1.2-3.1-2.9-1-4.7c4.6-3.8,2.6-6.7-0.9-9.6c-1.4-1.2-2.4-2.8-3.8-3.9c-1.1-0.9-2.6-1.3-4.1-1.6
		c-0.3-0.1-1.5,1.8-1.3,2.1c0.7,1,1.7,2.1,2.8,2.6c5.5,2.5,6.6,5.9,3.6,11c-0.7,1.2-1,3.8-0.5,4.1C334.4,711,337.6,712.4,340.7,714z
		"/>
	<path class="st10" d="M178.5,301.9c2.9-0.3,5.9-0.6,8.8-1c0.7,17.3,1.4,34.6,2.1,52c-2,0-3.9,0-5.9,0c-0.6-0.8-1.3-1.6-1.6-2.5
		c-3.6-12.2-5.7-24.7-5.3-37.4C176.8,309.3,177.9,305.6,178.5,301.9z"/>
	<path class="st17" d="M236.5,584c-1.4,0-2.7,0-4.1,0.1c0.3-4.9,0.4-9.9,1.1-14.7c0.2-1.6,2.2-4.2,3.4-4.2
		c6.9-0.1,13.8,0.4,20.7,0.8l0.5,0.2l0.5,0l0,0c0,6,0.1,12,0.1,18.1c-1.3,0.2-2.5,0.3-3.8,0.5C248.7,584.3,242.6,584.2,236.5,584z"
		/>
	<path class="st17" d="M230.5,793.1c0,0.6,0.1,1.3,0.1,1.9c1.1,7.5-7.7,9.7-8.1,15c-2.6-0.2-4.6-0.6-6.8-0.6c-2.1,0-4.2,0.3-6.3,0.5
		c-0.5-6.9-0.9-13.9-1.4-20.8C220.4,784.3,225.8,786.7,230.5,793.1z"/>
	<path class="st19" d="M264.3,664.1c-4.4-6.3-8.8-12.6-13.1-19.1c-2.5-3.7-4.4-7.8-7-11.3c-0.8-1.1-3.8-1.8-5.1-1.2
		c-3.1,1.5-5.7,3.8-8.7,6c4.1,7.1,8,14,12.1,20.7c2.4,3.9,5.1,7.6,7.6,11.4c1.6,2.5,3.5,2.6,5.9,1.1c2.4-1.5,4.9-2.7,7.3-4.1
		c0.1,1,0.3,2.1,0.4,3.1c-3.4,2-6.7,4.1-10.1,6.1c-0.4,0.4-0.8,0.8-1.2,1.2c-5.8-8.6-11.7-17.1-17.5-25.7c-2-3-3.3-6.6-5.4-9.5
		c-3.1-4.1-4.9-8.2-2.3-13.2c0.3-0.6,0.4-2,0-2.3c-5.2-4.4,0-7,2-11.9c1.6,3.6,2.7,5.8,3.7,8.1c-0.1,0.6-0.3,1.1-0.4,1.7
		c-1.2,0.4-3.3,0.7-3.3,1.1c-0.3,3.1-0.2,6.2-0.2,10.8c4.1-3.5,7.3-6.3,10.6-9.2c1-0.4,2-0.7,3-1.1c7.3,11.8,14.7,23.7,22,35.5
		C264.5,662.9,264.4,663.5,264.3,664.1z"/>
	<path class="st20" d="M330.4,814.7c-0.4-0.9-0.6-2.2-1.3-2.7c-1.1-0.9-2.6-1.3-3.9-2c-7.1-4-7-4-11.1,3.3c-0.6,1-1.7,1.8-2.5,2.6
		c-0.2-0.7-0.3-1.3-0.5-2c0.6-1.8,2.5-4.1-1.6-4c-0.1-0.6-0.2-1.3-0.3-1.9c1.5,0,3,0,4.8,0c2-4.4,2-4.4-4.9-5.8
		c-1.1,1.9-2.2,3.9-3.3,5.8c-0.2,0.3-0.3,0.6-0.3,0.9c-1.6,3-3.3,6-4.9,9c-0.7,1.5-1.4,3.1-2.1,4.7c-2.3,5.1-4.6,10.2-7,15.3
		c-1.5,0.3-2.9,0.6-4.4,0.9c4.6-9,9.2-17.9,13.9-26.8c1.9-3.7,3.9-7.4,6.2-10.8c0.7-1,3.1-2.2,3.9-1.7c7.1,3.8,14.3,7.6,20.9,12.1
		c5.1,3.5,7.3,16.7,4.5,22.1c-4,7.8-8,15.5-12.1,23.3c-1,0-2-0.1-3-0.1c4-7.9,8.1-15.8,12-23.8c0.8-1.5,0.8-3.4,1.2-5.2
		c0.2-0.7,0.5-1.4,0.7-2.1c-0.3-0.3-0.5-0.6-0.8-0.9l0,0c-1-2.6-2-5.2-3-7.8C331.2,816.3,330.8,815.5,330.4,814.7z"/>
	<path class="st21" d="M260,745.2c-0.2,1.5-0.4,3-0.6,4.5c-3.9,1.1-8,2.1-11.8,3.5c-3.1,1.1-4.2,0.5-5.3-2.7
		c-2.3-7-5.1-13.7-7.7-20.6l0,0c-1-3.6-2.1-7.2-2.9-10.9c-0.3-1.3,0.1-3.7,0.8-4c8.3-3,16.7-5.8,25.6-8.8c-0.6,2.2-1,3.4-1.4,4.6
		c-0.4,0.3-0.8,0.6-1.1,1c-6.1,1.8-12.2,3.5-18.3,5.5c-0.5,0.2-0.5,1.8-0.8,2.8c0,0.6,0.1,1.3,0.1,1.9c0.6,0.7,1.3,1.4,1.9,2.1
		c0,0.6,0.1,1.3,0.1,1.9c1,0.6,2,1.2,2.9,1.8c0.1,0.4,0.1,0.9,0.2,1.3c-1.8,3-0.8,5.2,1.8,7c0,0.6,0.1,1.2,0.1,1.8
		c0,1,0,1.9-0.1,2.9c0,0.7,0.1,1.4,0.1,2.2c1,0.5,2.2,1.8,2.9,1.5c4.1-1.3,8-3,12-4.5c-1,1.3-2,2.6-3,3.9c-3.4,1-6.8,2-10.1,3
		c0.3,0.8,0.6,1.5,0.9,2.3c3.5-1.4,7-2.8,10.5-4.2C257.8,745.1,258.9,745.1,260,745.2z"/>
	<path class="st0" d="M275.6,703.9c0-1.3,0-2.6,0.1-3.8c3-0.9,6-2.2,9-2.6c1.4-0.2,4,0.9,4.4,2c3.9,10.9,7.6,21.9,11.1,32.9
		c0.3,0.9-0.6,3.1-1.5,3.4c-7.3,2.5-14.8,4.8-22.2,7.1c0-1.3,0-2.7,0-4c5.4-1.8,10.9-3.4,16.2-5.3c0.8-0.3,1.2-1.9,1.7-3
		c-0.3-0.5-0.6-1.1-1-1.6c0.3-0.8,0.7-1.5,1-2.3c-0.4-0.9-0.7-1.9-1.1-2.8c-1.3-0.5-2.6-1-4-1.5c0-0.5,0-0.9,0-1.4
		c1-0.3,2.1-0.6,3.1-0.9c-0.5-0.6-1-1.2-1.5-1.8c-1.2,0.2-2.4,0.3-3.6,0.5c0-0.6,0-1.1,0-1.7c0.7-1,1.3-2.1,2-3.2
		c-0.3-0.7-0.7-1.3-1-1.9c0-0.7,0-1.5,0-2.2c-1.5-1.7,0.6-5.3-3.1-5.9c0.3-0.7,0.7-1.3,1.4-2.8C282.5,702.1,279.1,703,275.6,703.9z"
		/>
	<path class="st21" d="M226.5,276c8.3-1.6,16.6-3.3,24.9-4.9c0,5.6,0.1,11.3,0.1,16.9c-2.1,0.1-4.3,0.4-6.4,0.4
		c-4.9,0-9.8-0.1-14.8-0.1c-1.9-3.3-3-1.9-3.9,0.7c-0.4-1.3-0.9-2.6-1.3-3.9C225.6,282,226.1,279,226.5,276z M239.5,280.9
		c-2.7-0.4-5.4-0.8-9.1-1.4c0.7,1.1,1.3,3.2,2.2,3.3c4.1,0.6,8.2,0.8,12.3,0.7c0.9,0,2.3-1.8,2.5-2.8c0.2-1.1-0.8-3.5-1.4-3.5
		c-3.9-0.3-7.9-0.2-11.8-0.2c0,0.5,0,1.1,0.1,1.6c2.1,0.1,4.2,0.2,6.2,0.4C240.2,279.6,239.8,280.3,239.5,280.9z"/>
	<path class="st0" d="M197.9,503.7c0.6-6.5,1.3-13.1,1.9-19.6c4.5-1.3,9.1-2.6,13.6-3.9c0,0.5,0.1,1.1,0.1,1.6
		c-4.4,2.4-6.7,5.9-5.4,10.9c1.2,4.5,4.6,6.3,10.4,5.9c-0.7,2.3-1.4,4.5-1.8,5.7c-2.6-0.4-4.4-0.9-6.3-0.9
		C206.3,503.4,202.1,503.6,197.9,503.7z"/>
	<path class="st20" d="M276.5,742.9c7.4-2.3,14.8-4.6,22.2-7.1c0.8-0.3,1.7-2.4,1.5-3.4c-3.5-11-7.1-22-11.1-32.9
		c-0.4-1.1-3-2.2-4.4-2c-3.1,0.4-6,1.7-9,2.6c-0.1-1-0.2-2-0.3-2.9c3.5-1,7-1.9,10.5-3.1c2.7-1,4.3-0.6,5.3,2.3
		c3.9,11.9,7.9,23.9,11.9,35.8c1.1,3.3,0.4,5.2-3.2,6.3c-7.8,2.4-15.4,5.1-23.1,7.7C276.6,745,276.6,743.9,276.5,742.9z"/>
	<path class="st20" d="M197.9,503.7c4.2-0.1,8.4-0.4,12.6-0.3c1.8,0,3.6,0.5,6.3,0.9c0.4-1.2,1.1-3.5,1.8-5.7
		c6.1-3.8,7.3-9.6,3.1-14.5c-1.6-3.7-4.8-4.1-8.3-3.8c-4.5,1.3-9.1,2.6-13.6,3.9c0-1.1-0.1-2.2-0.1-3.2c5.1-1,10.2-2.8,15.3-2.8
		c10-0.1,14.4,8.4,9.8,17.3c-2.6,5.1-4.8,10.3-7.3,15.5c-0.3,0.7-0.8,1.3-1.8,2.9c-1.4-3.1-2.4-5.3-3.1-6.8c-5.3,0-10.2,0-15,0
		C197.8,505.9,197.8,504.8,197.9,503.7z"/>
	<path class="st20" d="M356.3,509.1c-8.2-5.5-16.5-10.9-24.5-16.6c-3.9-2.8-7.3-6.2-10.6-9.7c-1.3-1.3-1.5-3.6-2.2-5.4
		c2,0,4.4-0.8,5.8,0c4.8,2.9,9.2,6.3,13.8,9.5c-4.5-2-9-3.9-13.5-5.9c-0.3,0.4-0.5,0.8-0.8,1.3c10.1,8.8,20.5,17.2,32.4,23.7
		C356.5,507.1,356.4,508.1,356.3,509.1z"/>
	<path class="st22" d="M287.1,838.8c1.5-0.3,2.9-0.6,4.4-0.9c0.8,0.3,2.1,1.2,2.4,0.9c2.9-2.6,5.6-5.3,8.3-8
		c0.6,0.1,1.2,0.2,1.8,0.3c-1.7,3.6-3.3,7.2-5.2,10.7c-2.5,4.7-1.5,7.1,3.5,9.2c4.2,1.8,8.2,4.1,12.3,6.1c-1.7,0.2-3.4,0.4-5.1,0.7
		c-7.6-4.3-15.3-8.5-22.8-12.8c-0.5-0.3-0.7-1.4-1-2.1c0.2-0.7,0.5-1.4,0.7-2.1C286.6,840.1,286.9,839.5,287.1,838.8z"/>
	<path class="st21" d="M356.6,506c-11.9-6.5-22.3-15-32.4-23.7c0.3-0.4,0.5-0.8,0.8-1.3c4.5,2,9,3.9,13.5,5.9l0,0c3,2,6,4,9,6l0,0
		c0.3,0.3,0.7,0.7,1,1l0,0c2,1.4,3.9,2.7,5.9,4.1l0.1-0.1c0.3,0.5,0.6,1,1,1.5c0.3,0.2,0.5,0.4,0.8,0.6
		C356.3,502,356.4,504,356.6,506z"/>
	<path class="st23" d="M255.5,711.8c0.4-0.3,0.8-0.6,1.1-1c0.9,0,1.8,0,1.6,0c1,2,1.7,3.5,2.5,5c-0.1,3-0.3,6-0.4,9
		c-2.1,0.3-4.3,0.3-6.3,0.8c-4.2,1-8.3,2.3-12.4,3.5c-0.1-0.4-0.1-0.9-0.2-1.3c5.6-2.1,11.2-4.2,16.7-6.4c-0.2-0.5-0.4-1-0.6-1.4
		c-6.4,2-12.7,4-19.1,6c0-0.6-0.1-1.3-0.1-1.9c5.9-2.2,11.9-4.4,17.8-6.6c-0.2-0.5-0.4-1-0.6-1.4c-6.4,2-12.8,4-19.2,6
		c0-0.6-0.1-1.3-0.1-1.9c5.1-1.7,10.2-3.3,15.2-5.3C253.1,714.3,254.3,712.8,255.5,711.8z"/>
	<path class="st19" d="M260.4,591.9c0.3,6.2-1.5,8-7.6,7.9c-5.8-0.1-11.6,0.2-17.3-0.2c-2.9-0.2-5.7-1.7-5.9-5.5
		c-0.1-1.7-0.1-3.3-0.2-5c0.8,0,1.6,0.1,2.4,0.1c0.6,1.3,1.1,3.6,1.8,3.6c7.3,0.6,14.6,0.8,21.9,1.1c0.4,0.3,0.7,0.7,1.1,1
		c0.7-1,1.4-2.1,2.1-3.1C259.2,591.9,259.8,591.9,260.4,591.9z"/>
	<path class="st24" d="M257.8,837.8c-1.1,1.5-2.1,3-3.2,4.5c-0.1-0.9-0.7-2-0.3-2.5c2.5-3.7,0.6-5.4-2.7-6.8c-0.7,0-1.4-0.1-2.2-0.1
		c-0.3,0-0.6,0-0.8,0c0.1-0.9,0.2-1.8,0.3-2.8c0.8-1.5,1.7-2.9,2.5-4.3c1.8-6,3.6-12,5.4-18c0.1-0.5,1-0.7,1.5-1.1
		C258.1,817,258,827.4,257.8,837.8z"/>
	<path class="st25" d="M260.8,715.9c-0.7-1.5-1.5-3-2.5-5c0.2,0-0.7,0-1.6,0c0.4-1.2,0.7-2.4,1.4-4.6c-8.9,3-17.3,5.8-25.6,8.8
		c-0.7,0.3-1.1,2.7-0.8,4c0.7,3.7,1.9,7.3,2.9,10.9c-2.5-4.8-5-9.7-8-15.6c12.7-4.4,24.3-8.4,35.8-12.4
		C261.8,706.6,261.3,711.2,260.8,715.9z"/>
	<path class="st17" d="M351.4,326c0.7,6.7,1.4,13.4,2.2,20.1c-1.5,0-3,0.1-4.5,0.1c-4.7-0.1-9-4.9-7-8.9
		C344.3,333,348.2,329.7,351.4,326z"/>
	<path class="st25" d="M301.6,585.1c0,0.2,0,0.4,0,0.7c0,0.7-0.1,1.4-0.1,2c-1,1.4-2,2.8-3.3,4.8c-4.5,0.5-7.1,4.3-9.8,8.2
		c-1.1,1.6-2.6,3.3-4.4,4c-4.3,1.6-4.6,2.4-1.3,6c3.7,4,7.2,8,10.8,12c-1.4-0.6-3.1-0.9-4.2-1.9c-3.7-3.3-7.1-7-10.8-10.4
		c-2.8-2.6-2.3-5.5,0.7-6.1c6.4-1.3,6.9-8.1,11.8-10.7c1.8-0.9,3.5-2.3,4.8-3.8c0.9-1,1.2-2.7,1.8-4.1
		C299,585.6,300.3,585.4,301.6,585.1z"/>
	<path class="st23" d="M258.7,591.9c-0.7,1-1.4,2.1-2.1,3.1c-0.4-0.3-0.7-0.7-1.1-1c-7.3-0.3-14.6-0.5-21.9-1.1
		c-0.7,0-1.2-2.4-1.8-3.6c8.9-0.1,17.8-0.2,26.7-0.2C258.5,590,258.6,590.9,258.7,591.9z"/>
	<path class="st18" d="M356.5,530.9c0,4.4,0,8.7,0,13.1c-3.1-0.9-6.4-1.5-9.4-2.8c-1.1-0.5-2.4-2.4-2.4-3.7c0.1-7.1,2.8-8.9,9.4-7.2
		C354.9,530.5,355.7,530.7,356.5,530.9z"/>
	<path class="st22" d="M323.5,695.9c0,5.3,0.1,10.6,0,15.8c-0.1,2.8,0.6,4.4,3.8,4.2c5.8-0.4,11.7-0.7,17.5-1c0.2,0,0.4,0,0.6,0
		c-0.4,1-0.7,2-1,3.1c-5.4,0.3-10.8,0.7-16.3,0.8c-7.5,0.1-7.4,0-7.6-7.4c0-2.3-0.9-4.5-1.4-6.8c-0.5,0-1.1,0-1.6,0
		c1.3-2.6,2.6-5.1,3.9-7.7C322,696.6,322.8,696.2,323.5,695.9z"/>
	<path class="st25" d="M209.5,810c2.1-0.2,4.2-0.5,6.3-0.5c2.1,0,4.2,0.3,6.8,0.6c0.4-5.3,9.2-7.5,8.1-15c4.1,1.2,2.5,4.2,1.5,6.2
		c-3.1,5.9-6.6,11.5-10.5,18.2c-1.2-2.8-2.1-4.9-3.1-7.2c-2.9,0.3-5.8,0.5-8.8,0.8C209.6,812,209.6,811,209.5,810z"/>
	<path class="st20" d="M257.5,565.9c-6.9-0.3-13.8-0.9-20.7-0.8c-1.2,0-3.1,2.6-3.4,4.2c-0.7,4.9-0.8,9.8-1.1,14.7l-0.4,0.1
		l-0.5-0.1c-0.3-0.4-0.7-0.8-1-1.2c0.1-5.8,0-11.7,0.7-17.4c0.2-1.3,3.2-3.3,4.8-3.3c7.2,0.2,14.4,1.1,21.5,1.8
		C257.5,564.6,257.5,565.2,257.5,565.9z"/>
	<path class="st21" d="M212.7,841.9c0.9-2.9,1.8-5.8,2.8-8.6c0.6-1.7-0.4-4.6,3-4.4c-0.1,7.8,0.1,15.5-0.3,23.2
		c-0.1,1.8-2,3.5-3.1,5.2C214.4,852.2,213.5,847,212.7,841.9z"/>
	<path class="st22" d="M351.4,326c-3.2,3.7-7.1,7-9.2,11.3c-2,4,2.3,8.8,7,8.9c1.5,0,3,0,4.5-0.1c0,0.9,0.1,1.9,0.1,2.8
		c-7.3,2.5-15.4-4.1-14.4-11.6c0.9-6.7,5.8-12.9,11.1-14.3C350.8,323.9,351.1,324.9,351.4,326z"/>
	<path class="st19" d="M356.5,530.9c-0.8-0.2-1.6-0.4-2.4-0.6c-6.6-1.8-9.3,0.1-9.4,7.2c0,1.3,1.2,3.2,2.4,3.7
		c3,1.3,6.2,1.9,9.4,2.8c-0.1,0.7-0.1,1.5-0.2,2.2c-3.5-0.8-7.3-1-10.5-2.5c-1.7-0.8-3.7-3.5-3.7-5.3c0.2-10.3,4.3-13.8,14.5-13.3
		C356.6,527.1,356.5,529,356.5,530.9z"/>
	<path class="st25" d="M234.5,729.9c2.6,6.8,5.5,13.6,7.7,20.6c1,3.2,2.2,3.8,5.3,2.7c3.9-1.4,7.9-2.3,11.8-3.5
		c0.1,0.7,0.2,1.4,0.3,2.1c-4.4,1.5-8.7,3.3-13.2,4.3c-1.6,0.4-4.9-0.6-5.2-1.6C238.7,746.4,236.7,738.1,234.5,729.9z"/>
	<path class="st19" d="M192.8,344.8c6.9,5.4,13.8,10.8,20.8,16.2c-3.1,1-6.2,2-9.4,2.9c-1-1.4-2-2.8-3-4.2c1.1-0.4,2.2-0.7,4.7-1.5
		c-4.8-3.6-8.5-6.4-12.3-9.1C193.3,347.6,193,346.2,192.8,344.8z"/>
	<path class="st19" d="M206.6,682.8c1.6,0.4,3.4,0.5,4.7,1.3c1.6,1.1,3.6,2.7,4,4.4c1.6,6.3-2.3,12.5-8.6,14.6c0-0.8,0-1.6,0-2.4
		c5-5.8,5-10.2,0-12.7C206.7,686.3,206.7,684.6,206.6,682.8z"/>
	<path class="st20" d="M221.5,364c2.1,3,4.4,6,6.3,9.2c0.3,0.5-1.3,3.1-1.9,3.1c-5.5-0.3-10.9-1-13.6-6.9c1-1.3,1.8-3,3.2-3.7
		C217.3,364.7,219.5,364.5,221.5,364z M223.4,373.7c0.3-0.5,0.6-1.1,0.9-1.6c-0.8-3.1-2.5-5.6-6.2-5.5c-0.6,0-1.7,3.4-1.5,3.5
		C218.7,371.5,221.1,372.5,223.4,373.7z"/>
	<path class="st20" d="M195.6,547.9c4.3,0,8.6-0.1,12.9,0.3c1.1,0.1,2.9,2,2.9,3.2c0.1,1.2-1.5,3.3-2.6,3.5c-4.4,0.7-8.8,0.7-13.3,1
		c0-1,0-2,0.1-3c4.4,0,8.9,0,13.3,0c0-0.7,0-1.3,0-2c-4.5,0-8.9,0-13.4,0C195.5,549.9,195.6,548.9,195.6,547.9z"/>
	<path class="st22" d="M241.7,729.2c4.1-1.2,8.2-2.5,12.4-3.5c2-0.5,4.2-0.5,6.3-0.8c0,0.4,0,0.7,0,1.1c-5,1.9-10,3.7-15,5.6
		c-0.5,0.2-1,0.5-2.3,1c1.3,0.2,1.8,0.2,2.3,0.3c4.9-1.4,9.8-2.7,14.7-4.1c0,0.7,0.1,1.5,0.2,2.2c-5.6,1.8-11.3,3.5-16.9,5.3
		C240.9,734.4,239.9,732.1,241.7,729.2z"/>
	<path class="st20" d="M195.7,557.8c4.6,1.1,9.4,2,13.9,3.5c1.3,0.5,1.8,3,2.7,4.6c-1.5,0.5-3.1,1.6-4.5,1.4
		c-4.1-0.5-8.1-1.6-12.1-2.4c0-0.7,0.1-1.4,0.1-2.1c4.2,0.7,8.5,1.4,12.7,2c0.1-0.4,0.1-0.7,0.2-1.1c-4.4-1.3-8.7-2.6-13-3.9
		C195.6,559.2,195.6,558.5,195.7,557.8z"/>
	<path class="st23" d="M285.5,703.8c3.7,0.6,1.6,4.2,3.1,5.9c-4.3,1-8.6,2.1-12.9,3.2c0.1-2.3,0.2-4.5,0.3-6.7
		C279.1,705.4,282.3,704.6,285.5,703.8z"/>
	<path class="st25" d="M215.2,857.3c1.1-1.7,3-3.4,3.1-5.2c0.4-7.7,0.2-15.5,0.3-23.2c0.7,1.6,1.9,3.2,2,4.7
		c0.2,9.4,0.1,18.8,0,28.2C216.7,862.8,215.1,861.1,215.2,857.3z"/>
	<path class="st21" d="M343.3,801.9c-0.9-0.6-1.8-1.2-2.7-1.8c-0.8-1.5-1.3-3.2-2.4-4.3c-2.7-2.8-5.6-5.3-9-8.5
		c2.1-0.2,3.2-0.2,4.4-0.3l0,0c0.3,0.5,0.6,0.9,0.9,1.4c3.5,2,7,4,10.5,5.9C344.4,796.8,343.8,799.3,343.3,801.9z"/>
	<path class="st25" d="M215.5,672c-2.9-1.3-5.9-2.7-8.9-4.1c0.1-0.8,0.1-1.5,0.2-2.2c1.9-0.1,3.8-0.2,5.7-0.3
		c-1.2-1.6-2.3-3.3-3.6-4.8c-0.5-0.5-1.5-0.5-2.3-0.7c0-1,0.1-2.1,0.1-3.1c4.4,3.6,8.9,7.2,13.3,10.9c-0.6,0.1-1.1,0.2-1.6,0.3
		c-3.8-1.8-2.7,1.1-2.8,2.8C215.5,671.2,215.5,671.6,215.5,672z"/>
	<path class="st22" d="M230.5,793.1c-4.6-6.4-10-8.8-22.4-3.9c-0.1-1.4-0.3-2.8-0.4-4.3c4.6-0.3,9.1-1,13.7-0.9
		C227.7,784.1,231.2,788,230.5,793.1z"/>
	<path class="st20" d="M345.2,687.1c-7.2,0.3-14.4,0.5-21.6,0.8c-0.7,0-1.4,0-2.1,0c-1.2-3.7,1.2-4,3.9-4.1c6.6,0,13.1-0.1,19.7-0.2
		C345.1,684.9,345.1,686,345.2,687.1z"/>
	<path class="st23" d="M344.9,750.3c0,0.8,0.1,1.5,0.1,2.3c-2.5,0.5-5,1-7.5,1.5c-0.7,0.2-1.4,0.5-2.1,0.7c-1,0.1-2,0.1-3,0.2
		c-3.4,0-6.7,0-10.1-0.1c0.5-0.5,1-1.1,1.5-1.6C330.9,752.3,337.8,751.2,344.9,750.3L344.9,750.3z"/>
	<path class="st26" d="M201.2,359.6c1,1.4,2,2.8,3,4.2c-2.1,0.8-4.2,1.6-7.4,2.9c-0.7-4.4-1.3-8.1-2-11.9
		C196.9,356.5,199.1,358.1,201.2,359.6z"/>
	<path class="st19" d="M258.6,584c0-6-0.1-12-0.1-18.1c3.3-0.5,4,1.6,3.9,4.1c-0.2,4.7-0.6,9.3-1,13.9
		C260.5,584,259.5,584,258.6,584z"/>
	<path class="st25" d="M351.4,578.8c0.4-3.1,0.6-6.2,1.4-9.2c0.3-1,1.9-1.7,2.9-2.6C358.9,575.3,358,577.7,351.4,578.8z"/>
	<path class="st20" d="M251.5,288c0-5.6-0.1-11.3-0.1-16.9c1.1,0,2.1,0,3.1,0c-0.6,6.7-1.3,13.3-1.9,20
		C252.3,290.1,251.9,289,251.5,288z"/>
	<path class="st22" d="M294.5,730.6c-0.6,1-0.9,2.7-1.7,3c-5.4,1.9-10.8,3.6-16.2,5.3c0-1-0.1-2-0.1-2.9
		C282.5,734.2,288.5,732.4,294.5,730.6z"/>
	<path class="st21" d="M201.2,359.6c-2.1-1.6-4.2-3.2-6.4-4.8c-0.4-2-0.8-3.9-1.2-5.9c3.7,2.8,7.4,5.5,12.3,9.1
		C203.4,358.9,202.3,359.3,201.2,359.6z"/>
	<path class="st23" d="M293.5,723.9c0.4,0.9,0.7,1.9,1.1,2.8c-6,1.7-12,3.5-18,5.2c0-1,0.1-1.9,0.1-2.9
		C282.3,727.3,287.9,725.6,293.5,723.9z"/>
	<path class="st20" d="M243.5,740.9c0-1,0-1.9,0.1-2.9c5.6-1.7,11.2-3.5,16.8-5.2c0,1,0,2.1,0,3.1
		C254.8,737.6,249.1,739.2,243.5,740.9z"/>
	<path class="st20" d="M293.5,723.9c-5.6,1.7-11.2,3.4-16.8,5.2c-0.1-0.7-0.2-1.3-0.3-2c4.4-1.6,8.8-3.2,13.2-4.8
		C290.9,722.8,292.2,723.3,293.5,723.9z"/>
	<path class="st23" d="M294.5,730.6c-6,1.8-12,3.6-18.1,5.4c0-0.7,0.1-1.3,0.1-2c5.6-1.7,11.3-3.3,16.9-5
		C293.9,729.5,294.2,730.1,294.5,730.6z"/>
	<path class="st23" d="M243.5,740.9c5.6-1.6,11.2-3.3,16.8-4.9c-0.1,0.6-0.2,1.2-0.2,1.7c-0.2,0-0.4,0-0.6,0.1
		c-5.3,1.7-10.6,3.5-15.9,5.2C243.6,742.3,243.5,741.6,243.5,740.9z"/>
	<path class="st20" d="M293.5,729c-5.6,1.7-11.3,3.3-16.9,5c0-0.7,0-1.4-0.1-2.1c6-1.7,12-3.5,18-5.2
		C294.2,727.5,293.9,728.2,293.5,729z"/>
	<path class="st23" d="M260.3,732.8c-5.6,1.7-11.2,3.5-16.8,5.2c0-0.6-0.1-1.2-0.1-1.8c5.6-1.8,11.3-3.5,16.9-5.2
		C260.4,731.6,260.3,732.2,260.3,732.8z"/>
	<path class="st18" d="M206.7,688c5,2.5,5,6.9,0,12.7C206.7,696.5,206.7,692.3,206.7,688z"/>
	<path class="st20" d="M252.3,678.1c0.4-0.4,0.8-0.8,1.2-1.2c1.6-0.1,3.3,0.2,4.8-0.3c1.8-0.6,3.4-1.8,5.1-2.7c0,1,0,2.1,0,3.1
		c-2,1.1-4,2.1-5.9,3.3C254.5,682.3,252.8,681.8,252.3,678.1z"/>
	<path class="st23" d="M245.4,731.5c5-1.9,10-3.7,15-5.6c0,0.9-0.1,1.9-0.2,2.8c-4.9,1.4-9.8,2.7-14.7,4.1
		C245.5,732.4,245.4,732,245.4,731.5z"/>
	<path class="st19" d="M337.5,754.1c2.5-0.5,5-1,7.5-1.5c0.1,1.8,0.2,3.7,0.3,5.5c-2.3,0.2-4.5,0.5-6.8,0.7
		C338.2,757.2,337.9,755.6,337.5,754.1z M342.8,756.3c-0.1,0-0.3-0.1-0.4-0.2c0,0.1-0.1,0.3-0.1,0.4c0.1,0,0.3,0.1,0.4,0.1
		C342.7,756.6,342.7,756.4,342.8,756.3z"/>
	<path class="st19" d="M236.5,584c6.1,0.2,12.2,0.3,18.3,0.5C248.7,584.3,242.6,584.2,236.5,584z"/>
	<path class="st20" d="M289.5,713.8c-0.7,1-1.3,2.1-2,3.2c-3.7,1-7.5,2-11.2,3c-0.2-0.7-0.4-1.4-0.6-2.1
		C280.3,716.5,284.9,715.2,289.5,713.8z"/>
	<path class="st22" d="M275.6,712.9c4.3-1,8.6-2.1,12.9-3.2c0,0.7,0,1.5,0,2.2c-4.3,1.4-8.5,2.7-12.8,4.1
		C275.7,715,275.7,713.9,275.6,712.9z"/>
	<path class="st23" d="M263.4,673.8c-1.7,0.9-3.3,2.2-5.1,2.7c-1.5,0.5-3.2,0.2-4.8,0.3c3.4-2,6.7-4.1,10.1-6.1
		C263.5,671.8,263.5,672.8,263.4,673.8z"/>
	<path class="st23" d="M206.6,659.9c0.8,0.2,1.8,0.2,2.3,0.7c1.3,1.5,2.4,3.2,3.6,4.8c-1.9,0.1-3.8,0.2-5.7,0.3
		C206.7,663.8,206.6,661.8,206.6,659.9z"/>
	<path class="st20" d="M344.9,794.2c-3.5-2-7-4-10.5-5.9c0.1-0.5,0.1-1,0.2-1.6c3.6,1.4,7.2,2.8,10.8,4.2
		C345.2,792,345,793.1,344.9,794.2z"/>
	<path class="st23" d="M275.8,716c4.3-1.4,8.5-2.7,12.8-4.1c0.3,0.7,0.7,1.3,1,1.9c-4.6,1.3-9.2,2.6-13.8,4
		C275.7,717.2,275.7,716.6,275.8,716z"/>
	<path class="st23" d="M289.5,722.3c-4.4,1.6-8.8,3.2-13.2,4.8c0.3-1,0.7-2.1,1-3.1c0.4,0,0.8-0.1,1.1-0.1c3.7-1,7.3-1.9,11-2.9
		C289.5,721.4,289.5,721.9,289.5,722.3z"/>
	<path class="st23" d="M195.5,550.9c4.5,0,8.9,0,13.4,0c0,0.7,0,1.3,0,2c-4.4,0-8.9,0-13.3,0C195.6,552.2,195.5,551.5,195.5,550.9z"
		/>
	<path class="st23" d="M276.3,720c3.7-1,7.5-2,11.2-3c0,0.6,0,1.1,0,1.7c-3,1.3-6.1,2.6-9.1,3.9c-0.7,0.1-1.3,0.2-2,0.3
		C276.4,721.9,276.4,721,276.3,720z"/>
	<path class="st26" d="M195.6,559.9c4.4,1.3,8.7,2.6,13,3.9c-0.1,0.4-0.1,0.7-0.2,1.1c-4.3-0.7-8.5-1.4-12.7-2
		C195.6,561.9,195.6,560.9,195.6,559.9z"/>
	<path class="st20" d="M226.5,276c-0.4,3-0.9,6-1.3,9c-0.5,0-1.1-0.1-1.6-0.1c0-2.7,0-5.3,0-8C224.5,276.7,225.5,276.3,226.5,276z"
		/>
	<path class="st22" d="M285.5,703.8c-3.2,0.8-6.4,1.6-9.5,2.3c-0.1-0.8-0.2-1.5-0.3-2.3c3.5-0.9,7-1.8,11.2-2.8
		C286.1,702.5,285.8,703.2,285.5,703.8z"/>
	<path class="st25" d="M259.5,737.8c0.2-0.1,0.4-0.2,0.6-0.1c0,2.5-0.1,5-0.1,7.5c-1.1,0-2.2,0-3.2-0.1c-0.4-0.4-0.8-0.8-1.2-1.2
		c1-1.3,2-2.6,3-3.9C258.8,739.3,259.2,738.6,259.5,737.8z"/>
	<path class="st20" d="M345.4,714.9c-0.2,0-0.4,0-0.6,0c0.2-4,0.4-8,0.6-12C345.3,706.9,345.4,710.9,345.4,714.9z"/>
	<path class="st19" d="M344.9,750.3L344.9,750.3c-1.2-1.5-2.3-2.9-3.4-4.4c1.2-0.1,2.4-0.2,3.6-0.3
		C345.1,747.2,345,748.7,344.9,750.3z"/>
	<path class="st22" d="M356.2,500c-0.3-0.2-0.5-0.4-0.8-0.6c-0.3-0.5-0.6-1-1-1.4l-0.1,0.1c0.1-0.4,0.1-0.8,0.2-1.2
		c0.9,0,1.7,0,2.6,0C356.8,497.9,356.5,499,356.2,500z"/>
	<path class="st24" d="M258.7,591.9c-0.1-1-0.1-1.9-0.2-2.9c0.7,0,1.4,0,2.1,0c-0.1,1-0.1,1.9-0.2,2.9
		C259.8,591.9,259.2,591.9,258.7,591.9z"/>
	<path class="st20" d="M276.5,722.9c0.7-0.1,1.3-0.2,2-0.3c0,0.4,0,0.8,0,1.2c-0.4,0-0.8,0.1-1.1,0.1
		C277.1,723.6,276.8,723.3,276.5,722.9z"/>
	<path class="st19" d="M230.5,582.9c0.3,0.4,0.7,0.8,1,1.2l-0.5,0l-0.5-0.1C230.5,583.7,230.5,583.3,230.5,582.9z"/>
	<path class="st16" d="M178.5,301.9c-0.7,3.7-1.8,7.4-1.9,11.1c-0.4,12.8,1.6,25.2,5.3,37.4c0.3,0.9,1.1,1.7,1.6,2.5
		c-6.1,0.7-12.2,2.4-18.1,1.7c-10.2-1.2-20.4-3.6-30.4-6.1c-3.1-0.8-5.8-3.7-8.6-5.6c0.8-0.9,1.5-1.8,2.2-2.6c6.5-7.4,7.2-11,1-18.8
		c-7.6-9.5-17.4-15.3-30.2-13.5c-7,1-12.9,4-16,10.9c-2.4-1.4-4.9-2.5-7.1-4.1c-12.8-9.1-21.9-21.7-31-34c-3.1-4.2-5.8-8.1-9.7-11.8
		c-11-10.2-23.1-19.8-29.7-34.4c1.4-0.6,2.8-1.3,4.9-2.2c-2.3-3.4-4.4-6.5-6.6-9.5c0.3-0.4,0.6-0.9,0.9-1.4c3.5,1.1,7,2.1,11.8,3.6
		c-0.8-3.3-1.4-5.7-1.9-8.1c-0.5-2.7-1.6-5.5-1.3-8.1c0.5-4.6,3.5-5.6,6.8-2.3c2.2,2.2,3.8,5,5.5,7.6c1.3,1.9,2.4,3.9,3.5,5.8
		c0.6,0,1.2,0,1.8,0c0.7-2.1,1.5-4.1,2-6.3c0.4-2.1,0.5-4.3,0.7-6.5c0.7-0.3,1.3-0.5,2-0.7c2.3,3.2,5,6.1,6.9,9.6
		c2.9,5.2,5.1,10.8,7.8,16.2c0.6,1.1,2.2,1.7,3.4,2.5c0.4-0.9,0.8-1.9,1.2-2.8c2.3-1.1,4.6-2.1,7.7-3.5c4.1,1.6,5.1,5.9,5.4,10.4
		c0.5,8.1,5.2,13.4,11.1,18.3c4.2,3.5,7.9,7.6,11.9,11.3c11.9,10.9,24.7,21,40.2,25.9C146.9,299.1,162.4,303,178.5,301.9z"/>
	<path class="st10" d="M83.5,319c3.1-6.9,9-10,16-10.9c12.8-1.8,22.6,4,30.2,13.5c6.2,7.7,5.5,11.4-1,18.8c-0.8,0.9-1.5,1.7-2.2,2.6
		c-7.3,1.8-12.6-2.9-18.1-6c-7.6-4.2-14.7-9.3-22-14.2C85.1,322,84.5,320.3,83.5,319z"/>
	<path class="st12" d="M44.2,426c-8.5-2.8-13.8-9-13.2-14.8c5.2,1.4,6.6-1,4.8-5.6c8.5-2,11.5,0.9,11.2,10.7c-2.3,0-4.7,0-7.3,0
		C41.2,419.5,42.5,422.2,44.2,426z"/>
	<path class="st1" d="M317.5,19.3c0.8-0.8,1.5-1.6,2.3-2.4c2,1.8,4.1,3.6,6.1,5.4c-0.5,0.7-1,1.4-1.6,2.1
		C322,22.7,319.7,21,317.5,19.3z"/>
	<path class="st9" d="M288.6,15.1c-1.4,1-2.8,1.9-4.1,2.9C284.6,15.1,285.5,13.6,288.6,15.1z"/>
	<path class="st9" d="M291.6,12c0.3,0.6,0.6,1.3,1,1.9c-0.7,0.4-1.4,0.8-2.1,1.1C290.8,14,291.2,13,291.6,12z"/>
	<path class="st8" d="M341.7,182.4c0.6,0.7,1.7,1.5,1.7,2.2c-0.2,1.7-0.6,3.6-1.6,4.9c-0.3,0.4-3.2-0.3-4-1.2
		c-2.6-2.9-1.4-10.6,1.8-12.6c0.7-0.5,2-0.7,2.7-0.3c0.6,0.3,1.2,1.6,1.1,2.4C343.1,179.2,342.4,180.7,341.7,182.4z"/>
	<path class="st21" d="M280.6,312.2c-1.4-1.8-2.8-3.6-4.2-5.4c-0.3-0.6-0.6-1.3-0.9-1.9c-1.1-1.4-2.1-2.8-3.2-4.2
		c0.7-0.8,1.4-2.4,2.1-2.4c3.8,0.1,4.7-2.8,6.4-5.2c1.9-2.6,4.1-6.1,6.7-6.7c3.7-0.8,4.5-2.6,5-5.5c8,7.3,16.1,14.7,23.8,21.7
		c-1.2,2.3-1.9,3.7-2.7,5.2c-0.4,0.8-0.8,1.5-1.1,2.3c-4.7,4.5-9.3,9.1-14,13.6c-2.6-1.4-5.3-2.7-7.8-4.4
		C287.2,317.1,283.9,314.6,280.6,312.2z M288.5,309.1c0.3,0.3,0.6,0.6,0.9,0.9c0.4,0.5,0.7,0.9,1.1,1.4c0.6,0.6,1.2,1.1,1.8,1.7
		c0.7,0.1,1.8,0.6,2,0.4c3.9-3.8,7.7-7.6,11.4-11.5c0.4-0.5-0.2-1.9-0.3-2.8c-1.6-1-3.2-2.1-4.8-3.2c-0.4-0.6-0.8-1.1-1.2-1.7
		c-0.8-2.9-3-6-5.5-4.1c-5.2,3.8-9.4,8.8-15,14.2c2.8,0.5,3.8,0.6,4.7,0.7c1,0.3,1.9,0.6,2.9,1c0.3,0.4,0.6,0.7,0.9,1
		C287.8,307.7,288.1,308.4,288.5,309.1z"/>
	<path class="st20" d="M313.4,389.9c0.1-0.7,0.2-1.3,0.2-2c-0.1-13.3,0.1-10.7,11.5-11c5.1-0.1,10.2-0.5,15.3-1.1
		c4.3-0.5,5.6,1.5,5.3,5.7c2.1,0,3.9,0,5.6,0c0.1,0.4,0.2,0.8,0.4,1.2c-1.9,0.7-3.7,1.4-5.6,2.1c0,0.3,0.1,0.5,0.1,0.8
		c1.6,0.2,3.3,0.4,6.2,0.8c-2.5,1.5-4,2.4-6.1,3.7c2.1,0.7,3.6,1.2,5.2,1.7c0,0.4,0.1,0.7,0.1,1.1c-1.6,0.5-3.2,1.1-6.1,2.1
		c3,0.7,4.7,1.1,6.5,1.6c0,0.4,0.1,0.7,0.1,1.1c-2,0.6-4,1.3-6.8,2.1c2.4,1,4.2,1.8,6.1,2.6c-0.1,0.3-0.1,0.7-0.2,1
		c-1.7,0-3.5,0-5.2,0c-0.1,0.3-0.2,0.5-0.3,0.8c2,0.9,4,1.9,5.9,2.8c0,0.3-0.1,0.7-0.1,1c-1.7,0-3.4,0-5,0c-2.5,6.4-2.4,5.8-9.9,4.3
		c-5.6-1.1-11.6-0.2-17.4-0.6c-1.9-0.1-3.6-1.8-5.4-2.8c0.9,0,1.8,0,2.8,0c4.8,0,9.7-0.3,14.4,0.2c5,0.4,7.4-0.9,6.8-6.4
		c-0.1-1.2,1.7-2.7,2.7-4c0,3.9,0,7.9,0,11.8c0.7,0,1.3,0,2,0c0-10.6,0-21.3,0-31.9c-0.5-0.1-0.9-0.1-1.4-0.2
		c-0.3,3.5-0.5,7.1-0.8,10.6c-0.6,0-1.3,0-1.9,0c0.2-9,0.2-9-9.1-9.1c-0.5,0-1,0-1.5,0c-10.4-0.1-10.4-0.1-11.6,9.8
		c0,0.2-0.1,0.3-0.2,0.5C315.2,390,314.3,390,313.4,389.9z"/>
	<path class="st21" d="M249,398c0.3,0.1,0.6,0.1,1,0c-0.1,1.6-0.3,3.3-0.4,5c-0.4,0.6-0.7,1.3-1,2c-6.1,1.8-12.2,3.5-18.2,5.4
		c-0.5,0.2-0.6,1.8-0.8,2.8c0,0.6,0.1,1.3,0.1,2c0.6,0.7,1.3,1.4,1.9,2.1c0,0.6,0.1,1.3,0.1,1.9c1,0.6,2,1.3,2.9,1.9
		c0,0.6,0,1.2,0,1.8c0,0.8,0,1.7,0,2.5c0,0.6,0.1,1.2,0.1,1.8c0.6,0.7,1.3,1.5,1.9,2.2c0,0.6,0.1,1.2,0.1,1.8c-0.3,1-3.8,1.9,0,2.9
		c0,0.7,0.1,1.4,0.1,2.1c1.1,0.5,2.3,1.5,3.3,1.4c1.9-0.2,3.7-1,5.6-1.6c0,0.4,0,0.8,0.1,1.2c-2.4,1.1-4.7,2.3-7.1,3.4
		c0.3,0.7,0.6,1.4,0.8,2c6.4-2.5,12.8-5,19.2-7.6c0.7,0.3,1.4,0.7,2.1,1c0.6,0.4,1.3,0.7,1.9,1.1c-0.9,0.9-1.6,2.3-2.8,2.7
		c-6.7,2.4-13.5,4.7-20.4,6.6c-1,0.3-3.3-1.3-3.7-2.4c-3.9-10.8-7.6-21.6-11.2-32.5c-0.3-0.9,0.7-3.1,1.6-3.5
		c3.7-1.8,7.6-3.2,11.5-4.7c1.7-0.5,3.5-0.9,5.1-1.7C244.9,400.5,246.9,399.2,249,398z"/>
	<path class="st20" d="M315.5,442.1c11.6-2.6,23.2-5.9,35.3,0.6c-5.5,5.4-11.3,8.6-18.4,9.4c-6.4,0.7-12.7,1.8-19,2.7
		c-0.3-2.3,3-4.5,0.2-6.8c8.8,2.1,16.8-1.2,25.1-2.6c-0.1-0.7-0.2-1.3-0.3-2c-8.3,1.5-16.5,3.1-24.8,4.6
		C309.8,444.5,315.8,444.3,315.5,442.1z"/>
	<path class="st20" d="M278.5,534.9c6.7-13,13.4-26.1,20.1-39.1c1.7-3.4,4-4.8,8-2.3c5.2,3.2,10.8,5.8,16.1,8.8
		c0.8,0.5,1.2,1.8,1.7,2.7l0,0c-3.1-1.1-6.5-1.6-9.1-3.4c-4.1-2.8-5.4-1.4-7.2,2.5c-2,4.3-4.8,8.2-7.3,12.2
		c-0.6-0.1-1.1-0.3-1.7-0.4c2.1-4,4.2-8,6.9-13.1c-3.4-0.3-7.3-1.4-7.7-0.6c-5,8.7-9.4,17.8-13.9,26.7c-0.6,1.3-1.3,2.7-1.9,4
		C281.2,533.6,279.9,534.3,278.5,534.9z M307.2,501.1c0.3-1.5,1-3.2,0.6-3.6c-1.3-1.1-3-2.1-4.7-2.3c-0.7-0.1-1.7,1.7-3,3.1
		C302.8,499.3,304.7,500.1,307.2,501.1z"/>
	<path class="st20" d="M264.4,392.7c5.4-2,10.7-4.2,16.2-6c0.8-0.3,2.9,1.4,3.3,2.5c4.2,11.8,8.3,23.7,12.2,35.6
		c1,3,0.7,5.3-3.2,6.5c-8.6,2.6-17,5.5-25.5,8.4c0-0.8,0-1.7,0-2.5c0.7-0.4,1.4-0.7,2.2-1.1c7.9-2.5,15.9-5,24.6-7.8
		c-4.3-12.7-8.4-24.9-12.7-36.9c-0.3-0.7-2.8-1.1-4.1-0.8c-4.3,1-8.6,2.4-12.9,3.6C264.5,393.6,264.5,393.2,264.4,392.7z"/>
	<path class="st20" d="M237.6,403.2c-3.8,1.5-7.8,2.9-11.5,4.7c-0.9,0.5-1.9,2.6-1.6,3.5c3.6,10.9,7.3,21.7,11.2,32.5
		c0.4,1.1,2.7,2.7,3.7,2.4c6.9-2,13.6-4.3,20.4-6.6c1.1-0.4,1.8-1.8,2.8-2.7c0-0.7-0.1-1.5-0.1-2.2l-0.1-0.2
		c0.7,1.8,1.5,3.6,2.2,5.4c-8.8,3.2-17.6,6.6-26.6,9.5c-1,0.3-3.7-1.7-4.2-3.1c-4.5-12.8-8.7-25.8-13.4-39.7
		c5.9-1.7,11.5-3.4,17.1-5C237.5,402.3,237.6,402.8,237.6,403.2z"/>
	<path class="st19" d="M288.5,347.4c5.6,0.2,12.2,4.2,13.6,7.9c1.2,3.3-1.6,14.3-4.9,15.9c-2.2,1.1-5.7,0.8-8.2-0.1
		c-9.3-3.5-10.9-16.5-3.1-22.6C286.8,347.8,288,347.6,288.5,347.4z M291.6,367c2.2,0.1,6.8-7.2,6.8-10.7c0-2.4-5.1-6.1-8.6-6.2
		c-2.2,0-6.1,6.5-6.3,10.8C283.3,364.2,286.7,366.8,291.6,367z"/>
	<path class="st25" d="M264.5,440.1c-0.7-1.8-1.5-3.6-2.2-5.4c0-0.8,0.3-1.9-0.1-2.4c-4.3-5.2-5.2-11.6-7-17.8
		c-1.1-4-3.7-7.7-5.6-11.5c0.1-1.6,0.3-3.3,0.4-5c1.4-0.5,2.8-0.9,4.1-1.4c0.2,0.3,0.5,0.5,0.7,0.8c-3,3.8,2.4,1.9,2.5,3.6
		c-3.5,2.4,0.3,3.7,0.8,5.5c2,6.3,3.9,12.7,6,19c0.3,1,1.5,1.6,2.3,2.5c-0.3,0.7-0.7,1.4-1,2c0,0.3,0,0.6,0,0.9
		c0.7,1.4,1.4,2.8,2,4.1c0,0.7-0.1,1.5-0.1,2.2c0,0.8,0,1.7,0,2.5C266.5,439.8,265.5,440,264.5,440.1z"/>
	<path class="st27" d="M299.2,515.8c0.6,0.1,1.1,0.3,1.7,0.4c-3.7,7.8-7.4,15.7-11.3,23.8c7.5,4.1,14.7,8,21.9,12
		c-0.7,0.7-1.4,1.3-2.1,1.9c-10-5.3-20.1-10.5-30.1-15.9c-0.7-0.4-0.5-2.1-0.8-3.2c1.3-0.7,2.6-1.3,3.9-2c3.6-2.2,4.9-0.1,5.6,4.6
		c1.1-3,1.8-4.8,2.4-6.5c2.5-4.8,6.4-9,6.8-15C297.6,516,298.4,515.9,299.2,515.8z M285.9,535.6c0.1-0.4,0.1-0.8,0.2-1.1
		c-0.9-0.2-1.9-0.3-2.8-0.4c-0.1,0.3-0.1,0.6-0.2,1C284,535.2,285,535.4,285.9,535.6z"/>
	<path class="st19" d="M245.3,371.1c-4.5-6.3-9.2-12.5-13.4-19c-3.4-5.2-5.9-11.1-9.5-16.1c-3.1-4.3-3.6-8.3-2.1-13c0.3-0.9,0-2,0-3
		c0.7,0,1.4-0.1,2.1-0.1c-0.1,2,0.1,4-0.4,5.8c-0.9,2.9,0.6,3.1,2.7,3c-1.8,3.1-0.1,5.7,1.5,8.2c5.4,8.6,11.1,17.1,16.3,25.8
		c2,3.2,3.9,3.5,6.9,1.6c1.9-1.1,4.1-1.8,6.1-2.6c0,0.3-0.1,0.6-0.1,0.9c-2.5,2.8-7.6,3.1-7.9,8.1C246.8,371,246,371.1,245.3,371.1z
		"/>
	<path class="st19" d="M264.8,490.2c-2.6,7-5.3,14-7.9,21c-0.5-0.7-0.9-1.4-1.4-2c1-2.7,2.1-5.4,2.9-7.6c-2-1-3.4-1.7-5.3-2.6
		c-0.6,3.2-1.1,6.2-1.7,9.2c-1-0.1-2.1-0.2-3.1-0.3c0.4-1.6,0.8-3.2,1.2-4.8c2.2-5.4,4.3-10.7,6.5-16.1c2-0.5,3.9-0.9,5.3-1.2
		C262.5,487.3,263.6,488.7,264.8,490.2z"/>
	<path class="st28" d="M248.3,507.8c1,0.1,2.1,0.2,3.1,0.3c1.4,0.4,2.7,0.7,4.1,1.1c0.4,0.7,0.9,1.4,1.4,2
		c-2.2,6.2-4.4,12.4-6.6,18.6c-2.6-2.3-5.2-4.5-7.8-6.8l0,0c0.9-2.1,1.7-4.1,2.6-6.2C246.2,513.8,247.2,510.8,248.3,507.8z"/>
	<path class="st19" d="M230.4,318.5c6.4-0.7,7.8,5,10.2,8.6c6.2,9.2,11.8,18.7,17.6,28.2c0.8,1.3,1,3.1,1.4,4.6c-0.7,0-1.4,0-2.1,0
		c-6.7-11-13.4-22.1-20.1-33.1c-1.7-2.8-3.9-2.4-6.4-0.9c-1.8,1.1-3.8,1.9-5.7,2.8c1.9-1.9,3.8-3.6,5.6-5.6c0.3-0.4-0.2-1.5-0.4-2.3
		C230.5,320,230.5,319.2,230.4,318.5z"/>
	<path class="st24" d="M313.6,447.9c2.8,2.4-0.5,4.5-0.2,6.8c-2.3,0.4-4.5,0.8-6.8,1.1c-3.8,0.5-6.4-0.7-6.9-5
		c-0.6-4.3,1-6.6,5.3-7.1c1.1-0.1,2.2-0.7,3.2-1.1c1.8-0.2,3.5-0.4,5.3-0.6c0.7,0,1.3,0,2,0C315.8,444.3,309.8,444.5,313.6,447.9
		L313.6,447.9z"/>
	<path class="st3" d="M227.2,446c-0.1,4.2-3.6,7.7-7.7,7.6c-4.2-0.1-8.2-4.9-7.6-10c0.4-3.7,2.3-6.7,6.6-6.8
		C223,436.7,227.3,441.4,227.2,446z M213.7,444.6c2.7,2.3,4.3,4.1,6.3,5.1c0.4,0.2,3.5-3.2,3.3-3.6c-1.2-2-3.1-3.8-5-5.2
		C217.9,440.6,216,442.7,213.7,444.6z"/>
	<path class="st3" d="M218.3,544.9c-4.1-0.1-7.9-4.7-7.8-9.3c0.1-3.9,3.4-7.9,6.4-7.6c3.7,0.3,9.5,5.8,9.4,8.8
		C226.2,540.8,222.1,545,218.3,544.9z M216.2,530.9c-2.5,4.3-2.6,7.3,0.6,9.3c1,0.6,4.2-0.4,4.7-1.5
		C224.3,533,217.4,534.8,216.2,530.9z"/>
	<path class="st24" d="M223.6,285c0.6,0,1.1,0.1,1.6,0.1c0.4,1.3,0.9,2.6,1.3,3.9c1.3-0.2,2.6-0.5,3.9-0.7c4.9,0,9.8,0.1,14.8,0.1
		c2.1,0,4.3-0.3,6.4-0.4c0.4,1,0.7,2.1,1.1,3.1c-6.7,4.6-14,1.6-21,1.6c-0.5-0.5-0.9-1.1-1.4-1.6c-0.6,0.6-1.1,1.2-1.7,1.8
		C224.1,292,222.7,289.2,223.6,285z"/>
	<path class="st27" d="M242.5,523c2.6,2.3,5.2,4.5,7.8,6.8c-0.6,5.3-3.3,9.4-7.8,12.2c-0.9-4-1.8-8-2.7-12.2
		c0.4-0.1-0.4,0.1-1.2,0.2C240,527.7,241.3,525.3,242.5,523z"/>
	<path class="st22" d="M324.5,505c0.5,0,1.1-0.1,1.5,0.1c2.6,1.8,5.7,15.6,4.3,18.8l-0.4,0.1c-2.6-1.6-5.1-3.8-8-4.8
		c-4.3-1.5-3.2-3.6-1.7-6.3C321.7,510.3,323.1,507.6,324.5,505C324.5,504.9,324.5,505,324.5,505z M327.5,517.9c0,0.1,0,0.3,0.1,0.4
		c0,0.1,0.2,0.1,0.2,0.1C327.7,518.2,327.6,518.1,327.5,517.9c-0.6-2.2-1.2-4.5-1.8-6.8c-0.6,0-1.2,0-1.8,0
		c-0.4,1.7-1.6,3.8-1.1,5.1C323.4,517.2,325.9,517.4,327.5,517.9z"/>
	<path class="st20" d="M329.8,524c0,0,0.5-0.1,0.4-0.1c-5,9.8-9.8,19.6-15.1,29.1c-0.6,1-3.7,0.7-5.6,1c0.7-0.6,1.4-1.3,2.1-1.9
		c3.6-6.3,7.1-12.8,11-18.9C324.6,529.9,327.3,527,329.8,524z"/>
	<path class="st25" d="M292.5,281c-0.5,2.9-1.3,4.7-5,5.5c-2.6,0.6-4.8,4.1-6.7,6.7c-1.7,2.4-2.6,5.3-6.4,5.2
		c-0.7,0-1.4,1.5-2.1,2.4c-0.9-0.2-1.7-0.5-2.6-0.7c0.5-0.9,0.9-2.5,1.6-2.7c6.7-1.9,8.5-8.5,12.7-12.7c1.1-1.1,3.1-1.4,5.1-2.2
		c0.4-1.4,0.9-3.3,1.8-6.3c1.1,1.8,1.6,2.7,2.1,3.5C292.8,280,292.6,280.5,292.5,281z"/>
	<path class="st27" d="M292.5,281c0.1-0.5,0.3-0.9,0.5-1.4c2.2,1.4,4.7,2.4,6.6,4.1c5.9,5.3,11.7,10.8,17.4,16.4
		c1.1,1.1,2.4,3.8,1.9,4.3c-1.3,1.5-3.5,2.3-5.3,3.4c0.7-1.4,1.5-2.9,2.7-5.2C308.6,295.6,300.5,288.3,292.5,281z"/>
	<path class="st15" d="M248.3,507.8c-1.1,3-2.1,6-3.2,9c-0.9,1.4-1.8,2.8-2.7,4.2c-0.5-0.5-1.5-1-1.4-1.5c0.1-3.7,0.8-7.5,0.4-11.2
		c-0.4-4.5,1.4-5.9,5.6-5.3c0.8,0.1,1.6,0,2.5,0C249.1,504.5,248.7,506.1,248.3,507.8z"/>
	<path class="st19" d="M257.4,482.9c1.9-3.6,3.5-7.4,5.7-10.7c0.7-1,3.3-1.2,4.9-1c0.7,0.1,1.6,2.5,1.4,3.6
		c-0.6,3.8-1.8,7.5-2.7,11.3c-0.4-0.8-0.8-1.5-1.2-2.3c0.3-1,1-2,0.8-2.8c-0.4-1.4-1.3-2.6-2-3.9c-1.1,0.8-2.5,1.3-3.2,2.3
		c-0.6,0.8-0.2,2.2-0.3,3.4C259.6,482.8,258.5,482.9,257.4,482.9z"/>
	<path class="st22" d="M257.5,360c0.7,0,1.4,0,2.1,0c1.3,1.1,3.1,2.1,3.5,3.5c0.3,0.9-1.5,2.6-2.7,3.5c-3.2,2.3-6.6,4.2-9.9,6.4
		c-3,2-4.9,1.8-5.3-2.2c0.7,0,1.5-0.1,2.2-0.2c3.7-1.9,7.5-3.6,11-5.9c1.8-1.1,1.6-2.9-1.1-3.1C257.5,361.3,257.5,360.6,257.5,360z"
		/>
	<path class="st25" d="M316.6,408.9c-0.9,0-1.8,0-2.8,0c-0.1-3.6-0.3-7.2-0.4-10.8c0.2-1.8,0.4-3.6,0.6-5.4
		c-0.5,0.3-0.9,0.6-1.4,0.9c-0.8-1-1.5-1.9-2.3-2.8c1-0.3,2-0.6,3-0.9c0.9,0,1.8,0.1,2.7,0.2C316.3,396.4,316.4,402.6,316.6,408.9z"
		/>
	<path class="st27" d="M298.5,323.7c4.7-4.5,9.3-9.1,14-13.6c-4.7,5.5-9.4,11.1-14,16.6C298.4,325.8,298.5,324.8,298.5,323.7z"/>
	<path class="st19" d="M298.5,323.7c0,1,0,2,0,3.1c-0.9,0.2-2.1,0.9-2.5,0.6c-5.2-5-10.3-10.1-15.4-15.2c3.4,2.4,6.6,4.9,10.1,7.2
		C293.2,321,295.9,322.3,298.5,323.7z"/>
	<path class="st24" d="M230.4,318.5c0,0.8,0,1.6,0.1,2.4c-1.8-0.6-3.5-1.3-5.3-1.6c-0.9-0.1-1.8,0.5-2.8,0.8c-0.7,0-1.4,0.1-2.1,0.1
		c-0.6-1-1.3-2-1.9-3.1c1.6-0.5,3.2-1,4.8-1.5c-0.1-0.4-0.1-0.7-0.2-1.1c-1.2-0.1-2.4-0.3-3.6-0.4c0.9-1,1.8-2,2.4-2.7
		C225,313.9,227.7,316.2,230.4,318.5z"/>
	<path class="st19" d="M238.7,530c0.8-0.2,1.6-0.3,1.2-0.2c0.9,4.2,1.8,8.2,2.7,12.2c-0.3,0.3-0.6,0.7-1,1c-1,0.3-2,0.6-3,0.9
		C238.6,539.3,238.6,534.7,238.7,530z"/>
	<path class="st24" d="M257.4,482.9c1.1,0,2.2-0.1,3.3-0.1c1.6,0.4,3.2,0.7,4.8,1c0.4,0.8,0.8,1.5,1.2,2.3c-0.6,1.3-1.3,2.7-1.9,4
		c-1.1-1.4-2.2-2.9-3.5-4.5c-1.3,0.3-3.3,0.8-5.3,1.2C256.5,485.5,256.9,484.2,257.4,482.9z"/>
	<path class="st20" d="M310.4,390.8c0.8,1,1.5,1.9,2.3,2.8c0.5-0.3,0.9-0.6,1.4-0.9c-0.2,1.8-0.4,3.6-0.6,5.4
		C308,397.4,307.2,395.5,310.4,390.8z"/>
	<path class="st20" d="M347.5,493c-3-2-6-4-9-6C341.5,489,344.5,491,347.5,493z"/>
	<path class="st25" d="M237.6,403.2c0-0.5-0.1-1-0.1-1.4c3.9-1.3,7.7-2.6,11.6-3.9c-2.1,1.2-4.1,2.6-6.3,3.6
		C241.1,402.3,239.3,402.7,237.6,403.2z"/>
	<path class="st25" d="M264.4,392.7c0,0.5,0.1,1,0.1,1.4c-3.2,1.1-6.5,2.2-9.7,3.3c-0.2-0.3-0.5-0.5-0.7-0.8
		C257.6,395.3,261,394,264.4,392.7z"/>
	<path class="st20" d="M354.5,496.9c0,0.4-0.1,0.8-0.2,1.2c-2-1.4-3.9-2.7-5.9-4.1C350.5,494.9,352.5,495.9,354.5,496.9z"/>
	<path class="st19" d="M219.5,314c1.2,0.1,2.4,0.3,3.6,0.4c0.1,0.4,0.1,0.7,0.2,1.1c-1.6,0.5-3.2,1-4.8,1.5
		C218.7,316,219.1,315,219.5,314z"/>
	<path class="st27" d="M238.6,543.9c1-0.3,2-0.6,3-0.9c-0.1,3.5-2.1,3.2-5.3,2.2C237.4,544.5,238,544.2,238.6,543.9z"/>
	<path class="st27" d="M242.4,520.9c0.9-1.4,1.8-2.8,2.7-4.2c-0.9,2.1-1.7,4.1-2.6,6.2C242.5,522.3,242.4,521.6,242.4,520.9z"/>
	<path class="st20" d="M313.5,442.1c-1.8,0.2-3.5,0.4-5.3,0.6C310,442.5,311.8,442.3,313.5,442.1z"/>
	<path class="st20" d="M228.5,293c0.6-0.6,1.1-1.2,1.7-1.8c0.5,0.5,0.9,1.1,1.4,1.6C230.6,292.8,229.5,292.9,228.5,293z"/>
	<path class="st25" d="M275.5,304.9c0.3,0.6,0.6,1.3,0.9,1.9C276.1,306.2,275.8,305.5,275.5,304.9z"/>
	<path class="st19" d="M257.5,565.9c0-0.6,0-1.3,0-1.9c0.3,0.7,0.6,1.3,1,2l-0.5,0L257.5,565.9z"/>
	<path class="st20" d="M348.5,494c-0.3-0.3-0.7-0.7-1-1C347.8,493.3,348.1,493.6,348.5,494z"/>
	<path class="st0" d="M293.5,622.8c-3.6-4-7.2-8.1-10.8-12c-3.3-3.6-3.1-4.4,1.3-6c1.7-0.6,3.3-2.4,4.4-4c2.7-3.9,5.4-7.7,9.8-8.2
		c1.4-1.9,2.3-3.3,3.3-4.8c7.5,7.6,14.9,15.3,22.3,22.7c-0.7,1.4-1.4,2.8-2.2,4.2c-0.4,0.8-0.8,1.5-1.1,2.3c-4.7,4.5-9.3,9-14,13.6
		c-1.6-0.6-3.2-1.2-4.7-1.8c-1.4-0.6-2.8-1.3-4.2-1.9l0,0c-0.3-0.3-0.6-0.7-1-1l0,0c-0.3-0.3-0.6-0.7-1-1l0,0c-0.3-0.3-0.6-0.7-1-1
		l0,0C294.2,623.6,293.9,623.3,293.5,622.8L293.5,622.8z M293.5,606.9L293.5,606.9c-0.3,0.3-0.7,0.7-1,1l0,0c-0.3,0.5-0.7,1-1,1.5
		c-0.9,0.4-1.9,0.7-2.8,1.1c1,0.5,2,1,3,1.4c0.3,0.5,0.5,0.9,0.8,1.4c0.9,0.9,1.8,1.8,2.8,2.7c0.5,0,0.9,0,1.3,0
		c0.3,0.3,0.6,0.6,0.9,0.9c0.7,0.4,1.4,0.8,2.1,1.1c0.3,0.3,0.6,0.6,0.9,0.9c0.8,0.4,2.2,1.3,2.4,1c3.6-3.4,7-7,10.3-10.7
		c0.6-0.7,0.2-2.2,0.3-3.3c-0.6-0.4-1.3-0.7-1.9-1.1c-0.7-0.3-1.4-0.7-2.1-1c-0.1-3.8-2.2-5.8-6-6c-0.5-0.4-1.4-1.2-1.5-1.1
		c-1.1,1-2.1,2-3.1,3.1c-0.3,0-0.4,0.2-0.5,0.5c-0.4,0.8-0.7,1.7-1,2.5l0,0c-0.3,0.3-0.7,0.7-1,1l0,0c-0.3,0.3-0.7,0.7-1,1l0,0
		c-0.3,0.3-0.7,0.7-1,1l0,0C294.1,606.2,293.8,606.6,293.5,606.9z"/>
	<path class="st19" d="M309.5,667.3c-1.1,2.5-2.4,6.7-4.6,10.3c-1.9,3.2-9,2.2-12.3-1.3c-6-6.4-6.2-12.6-0.7-19.7
		c0.6-0.8,1.4-1.5,2.3-1.8C299.9,652.4,309.6,659.4,309.5,667.3z M298.1,673.9c3.1,0.3,6.7-4.8,7.3-10.3c0.3-2.6-4.1-6.1-8.1-6.5
		c-2.7-0.3-6,4.7-6.7,10.2C290.1,670.9,292.9,673.3,298.1,673.9z"/>
	<path class="st24" d="M324,753.3c-0.5,0.5-1,1.1-1.5,1.6c-1.9,1-1.9,1,1,3c-0.7,1-1.3,2-2,3c-2.4,0.6-4.7,1.4-7.1,1.9
		c-4.2,0.8-7-0.5-7.7-5.3c-0.6-4.6,1.6-6.3,5.8-6.7c0.9-0.1,1.8-0.7,2.8-1c0.9-0.1,1.8-0.1,2.6-0.2c1.5-0.2,3-0.3,4.6-0.5
		c-0.8,1-1.6,2-2.2,2.8C321.5,752.3,322.7,752.8,324,753.3z"/>
	<path class="st20" d="M324,753.3c-1.2-0.5-2.5-1-3.7-1.5c0.6-0.7,1.4-1.8,2.2-2.8c6.4-1,12.7-2.1,19-3.1c1.1,1.4,2.2,2.9,3.3,4.3
		C337.9,751.2,330.9,752.3,324,753.3z"/>
	<path class="st27" d="M321.6,614.8c0.7-1.4,1.5-2.8,2.2-4.2c-7.3-7.5-14.8-15.1-22.3-22.7c0-0.7,0.1-1.4,0.1-2
		c8,7.3,16.1,14.6,24,22c0.9,0.8,1.6,3.2,1.2,3.6C325.4,612.9,323.4,613.7,321.6,614.8z"/>
	<path class="st18" d="M251.6,833c3.2,1.3,5.2,3.1,2.7,6.8c-0.4,0.5,0.2,1.7,0.3,2.5c-1.6,2.2-3.3,4.4-4.9,6.6
		c-4.3-4.1-1.5-8.9-1.1-13.4c0,0-0.1-0.3-0.1-0.3c0.3-0.1,0.6-0.3,0.9-0.4C250.1,834.2,250.9,833.6,251.6,833z"/>
	<path class="st20" d="M218.3,668c0.6-0.1,1.1-0.2,1.6-0.3c3.9,2.4,7.7,4.8,11.5,7.2c-0.4,0.4-0.8,0.8-1.2,1.3
		c-1.7-0.7-3.4-1.3-5.2-1.9c0.1,1.8,0.3,3.7,0.4,5.5c-0.1,0.5-0.1,0.9-0.2,1.4c-3.3-3-6.6-6.1-9.9-9.1c0-0.4,0-0.8,0.1-1.2
		c2.1,0.8,4.1,1.5,6.2,2.3c0.3-0.5,0.6-0.9,0.9-1.4C221.2,670.5,219.8,669.2,218.3,668z"/>
	<path class="st25" d="M333.5,786.9c-1.1,0.1-2.2,0.2-4.4,0.3c3.4,3.2,6.4,5.7,9,8.5c1.1,1.2,1.6,2.9,2.4,4.3
		c-4.7-4-9.6-8-14.1-12.2c-0.7-0.6-0.1-2.6-0.1-4c1.2,0,2.6-0.3,3.5,0.1C331.2,784.7,332.3,785.9,333.5,786.9z"/>
	<path class="st27" d="M306.5,630.7c4.7-4.5,9.3-9,14-13.6c-4.7,5.5-9.4,11.1-14,16.6C306.4,632.7,306.5,631.7,306.5,630.7z"/>
	<path class="st25" d="M225.4,681.1c0.1-0.5,0.1-0.9,0.2-1.4c1.8,0,3.6,0,5.7,0c-0.4-1.5-0.7-2.5-0.9-3.6c0.4-0.4,0.8-0.8,1.2-1.3
		c1,1.5,2.2,2.8,3,4.4c1.6,3.2,1,4.9-3,3.7C229.5,682.3,227.4,681.7,225.4,681.1z"/>
	<path class="st19" d="M248.5,835.5c-0.4,4.5-3.1,9.3,1.1,13.4c-0.4,0.4-0.7,0.8-1.1,1.2c-1,0.3-2,0.6-3.1,0.8
		c0-4.4-0.1-8.8,0.3-13.2C245.8,836.9,247.6,836.2,248.5,835.5z"/>
	<path class="st19" d="M306.5,630.7c0,1,0,2,0,3.1c-1.3-0.2-3.1,0.1-3.9-0.6c-1.9-1.8-3.3-4.1-5-6.2c1.4,0.6,2.8,1.3,4.2,1.9
		C303.3,629.5,304.9,630.1,306.5,630.7z"/>
	<path class="st25" d="M323.5,757.8c-2.9-1.9-2.9-1.9-1-3c3.4,0,6.7,0,10.1,0.1c-0.4,1.4-0.8,2.8-1.1,4.2c-2.3-0.4-4.5-0.7-6.7-1.1
		C324.2,758,323.9,757.9,323.5,757.8z"/>
	<path class="st22" d="M232.5,625.2c0.1-0.6,0.3-1.1,0.4-1.7c3.3,1.1,6.5,2.2,9.8,3.3c-1,0.4-2,0.7-3,1.1
		C237.2,627,234.9,626.1,232.5,625.2z"/>
	<path class="st19" d="M331.4,759.1c0.4-1.4,0.8-2.8,1.1-4.2c1-0.1,2-0.1,3-0.2c0,1.4,0,2.7,0,4.1
		C334.1,758.9,332.8,759,331.4,759.1z"/>
	<path class="st20" d="M323.5,695.9c-0.7,0.3-1.4,0.6-2.1,1c0-1.7,0-3.3,0.1-5c0.7,0,1.4,0,2.1,0
		C323.5,693.3,323.5,694.6,323.5,695.9z"/>
	<path class="st25" d="M335.5,758.8c0-1.4,0-2.7,0-4.1c0.7-0.2,1.4-0.5,2.1-0.7c0.3,1.6,0.7,3.1,1,4.7
		C337.5,758.8,336.5,758.8,335.5,758.8z"/>
	<path class="st18" d="M245.5,850.9c1-0.3,2-0.6,3.1-0.8c-1.1,1.1-2.3,2.2-3.4,3.3c-0.3-0.4-0.7-0.9-1-1.3
		C244.6,851.7,245.1,851.3,245.5,850.9z"/>
	<path class="st27" d="M251.4,825.8c-0.8,1.5-1.7,2.9-2.5,4.3C249.7,828.7,250.5,827.2,251.4,825.8z"/>
	<path class="st27" d="M323.5,757.8c0.4,0.1,0.8,0.1,1.2,0.2c-1,0.9-2.1,1.9-3.1,2.8C322.1,759.8,322.8,758.8,323.5,757.8z"/>
	<path class="st22" d="M323.5,691.9c-0.7,0-1.4,0-2.1,0c0-1.3,0-2.6,0-3.9c0.7,0,1.4,0,2.1,0C323.5,689.3,323.5,690.6,323.5,691.9z"
		/>
	<path class="st20" d="M317.9,749.5c-0.9,0.1-1.8,0.1-2.6,0.2C316.1,749.6,317,749.6,317.9,749.5z"/>
	<path class="st20" d="M286.4,840.8c-0.2,0.7-0.5,1.4-0.7,2.1C285.9,842.2,286.1,841.5,286.4,840.8z"/>
	<path class="st19" d="M249.4,834.8c-0.3,0.1-0.6,0.3-0.9,0.4c0-0.8,0.1-1.6,0.1-2.4c0.3,0,0.6,0,0.8,0
		C249.4,833.5,249.4,834.2,249.4,834.8z"/>
	<path class="st19" d="M293.5,622.9c0.3,0.3,0.6,0.6,1,1C294.2,623.6,293.9,623.2,293.5,622.9z"/>
	<path class="st19" d="M294.5,623.9c0.3,0.3,0.6,0.7,1,1C295.2,624.6,294.9,624.2,294.5,623.9z"/>
	<path class="st19" d="M295.5,624.9c0.3,0.3,0.6,0.7,1,1C296.2,625.6,295.9,625.2,295.5,624.9z"/>
	<path class="st25" d="M334.5,786.7c-0.1,0.5-0.1,1-0.2,1.6c-0.3-0.5-0.6-0.9-0.9-1.4C333.9,786.9,334.2,786.8,334.5,786.7z"/>
	<path class="st19" d="M296.5,625.9c0.3,0.3,0.6,0.7,1,1C297.2,626.6,296.9,626.2,296.5,625.9z"/>
	<path class="st27" d="M304,831.1c-0.6-0.1-1.2-0.2-1.8-0.3c0.7-2.1,1.4-4.1,2.5-7.3c-2.2,0.9-3.3,1.3-4.2,1.7
		c-0.8-0.9-1.5-1.8-2.2-2.6c0.7-1.5,1.4-3.1,2.1-4.7c0.6,0.7,1.2,1.4,1.8,2c0.6,1,1.3,2.8,1.9,2.7c1.1,0,2.2-1.1,3.3-1.8
		c0.8-1.3,1.5-2.7,2.3-4c0.7,0.4,1.4,0.8,2.1,1.2C309.3,822.4,306.7,826.8,304,831.1z"/>
	<path class="st22" d="M330.4,814.7c0.4,0.8,0.8,1.6,1.2,2.4c-3.3,6.5-2.9,7.4,3,7.8l0,0c0.3,0.3,0.5,0.6,0.8,0.9
		c-0.2,0.7-0.5,1.4-0.7,2.1c-2.6-0.8-5.3-1.5-7.7-2.7c-0.7-0.3-0.9-2.7-0.5-3.7C327.5,819.1,329,817,330.4,814.7z"/>
	<path class="st21" d="M307.5,820.9c-1.1,0.7-2.1,1.7-3.3,1.8c-0.6,0-1.2-1.8-1.9-2.7C304.1,820.3,305.8,820.6,307.5,820.9z"/>
	<path class="st21" d="M305.5,808.9c0-0.3,0.1-0.7,0.3-0.9c1.1,0,2.3,0,3.4,0c0.1,0.6,0.2,1.3,0.3,1.9
		C308.2,809.5,306.8,809.2,305.5,808.9z"/>
	<path class="st21" d="M311.1,813.9c0.2,0.7,0.3,1.3,0.5,2c-0.5-0.3-1.1-0.5-1.7-0.7C310.3,814.7,310.7,814.3,311.1,813.9z"/>
	<path class="st27" d="M340.7,714c-3.1-1.6-6.3-3-9.2-4.9c-0.6-0.4-0.2-3,0.5-4.1c3-5.1,1.9-8.5-3.6-11c-1.1-0.5-2.1-1.5-2.8-2.6
		c-0.2-0.3,1-2.2,1.3-2.1c1.4,0.3,2.9,0.7,4.1,1.6c1.4,1.1,2.4,2.8,3.8,3.9c3.5,2.9,5.5,5.8,0.9,9.6c-2.1,1.8-1.2,3.5,1,4.7
		c1.8,1,3.4,2.1,5.2,3.1C341.5,712.7,341.1,713.4,340.7,714z"/>
	<path class="st21" d="M232.5,625.2c2.4,0.9,4.8,1.8,7.1,2.7c-3.3,2.8-6.5,5.7-10.6,9.2c0-4.5-0.1-7.7,0.2-10.8
		C229.2,625.8,231.3,625.6,232.5,625.2z"/>
	<path class="st0" d="M298.5,822.6c0.7,0.8,1.4,1.7,2.2,2.6c0.8-0.3,2-0.8,4.2-1.7c-1.1,3.2-1.8,5.2-2.5,7.3c-2.8,2.7-5.4,5.5-8.3,8
		c-0.3,0.3-1.6-0.6-2.4-0.9C293.8,832.8,296.1,827.7,298.5,822.6z"/>
	<path class="st23" d="M309.2,807.9c-1.1,0-2.3,0-3.4,0c1.1-2,2.3-3.9,3.3-5.8c6.9,1.4,6.9,1.4,4.9,5.8
		C312.3,807.9,310.8,807.9,309.2,807.9z"/>
	<path class="st21" d="M334.5,824.9c-5.9-0.4-6.2-1.3-3-7.8C332.5,819.7,333.5,822.3,334.5,824.9z"/>
	<path class="st21" d="M335.3,825.8c-0.3-0.3-0.5-0.6-0.8-0.9C334.8,825.2,335,825.5,335.3,825.8z"/>
	<path class="st22" d="M255.5,711.8c-1.3,1-2.4,2.4-3.8,3c-5,1.9-10.1,3.5-15.2,5.3c0.3-1,0.3-2.6,0.8-2.8
		C243.3,715.3,249.4,713.6,255.5,711.8z"/>
	<path class="st20" d="M238.6,726c6.4-2,12.7-4,19.1-6c0.2,0.5,0.4,1,0.6,1.4c-5.6,2.1-11.2,4.2-16.7,6.4
		C240.5,727.3,239.6,726.7,238.6,726z"/>
	<path class="st22" d="M236.6,722c6.4-2,12.8-4,19.2-6c0.2,0.5,0.4,1,0.5,1.4c-5.9,2.2-11.9,4.4-17.8,6.6
		C237.8,723.4,237.2,722.7,236.6,722z"/>
	<path class="st22" d="M259.5,737.8c-0.3,0.7-0.7,1.5-1,2.2c-4,1.5-8,3.2-12,4.5c-0.7,0.2-1.9-1-2.9-1.5
		C248.9,741.3,254.2,739.6,259.5,737.8z"/>
	<path class="st22" d="M255.5,744c0.4,0.4,0.8,0.8,1.2,1.2c-3.5,1.4-7,2.8-10.5,4.2c-0.3-0.8-0.6-1.5-0.9-2.3
		C248.8,746,252.1,745,255.5,744z"/>
	<path class="st22" d="M278.5,723.8c0-0.4,0-0.8,0-1.2c3-1.3,6.1-2.6,9.1-3.9c1.2-0.2,2.4-0.3,3.6-0.5c0.5,0.6,1,1.2,1.5,1.8
		c-1,0.3-2.1,0.6-3.1,0.9C285.8,721.9,282.2,722.9,278.5,723.8z"/>
	<path class="st20" d="M240.5,279c-2.1-0.1-4.2-0.2-6.2-0.4c0-0.5,0-1.1-0.1-1.6c3.9,0,7.9-0.2,11.8,0.2c0.6,0,1.6,2.4,1.4,3.5
		c-0.2,1.1-1.6,2.8-2.5,2.8c-4.1,0.1-8.3-0.1-12.3-0.7c-0.9-0.1-1.6-2.2-2.2-3.3c3.7,0.5,6.4,1,9.1,1.4c1.6-0.1,3.1-0.2,4.7-0.3
		c0-0.4-0.1-0.9-0.1-1.3C242.9,279.2,241.7,279.1,240.5,279z"/>
	<path class="st20" d="M230.4,288.3c-1.3,0.2-2.6,0.5-3.9,0.7C227.4,286.3,228.5,284.9,230.4,288.3z"/>
	<path class="st23" d="M240.5,279c1.2,0.1,2.4,0.2,3.7,0.3c0,0.4,0.1,0.9,0.1,1.3c-1.6,0.1-3.1,0.2-4.7,0.3
		C239.8,280.3,240.2,279.6,240.5,279z"/>
	<path class="st3" d="M221.6,484c4.3,5,3.1,10.8-3.1,14.5c-5.8,0.5-9.3-1.3-10.4-5.9c-1.3-5,1-8.5,5.4-10.9c1.6,0.7,3.2,1.5,4.9,2.1
		C219.4,484.2,220.6,484,221.6,484z M215.3,483.9c-1.7,2.9-3.8,4.9-3.4,6.2c0.5,1.9,2.8,3.3,4.3,4.9c1.3-1.5,3.9-3.1,3.7-4.3
		C219.6,488.6,217.5,486.9,215.3,483.9z"/>
	<path class="st26" d="M221.6,484c-1.1,0-2.2,0.2-3.2-0.1c-1.7-0.5-3.3-1.4-4.9-2.1c0-0.5-0.1-1.1-0.1-1.6
		C216.9,479.9,220,480.3,221.6,484z"/>
	<path class="st20" d="M354.4,498c0.3,0.5,0.6,1,1,1.4C355.1,499,354.8,498.5,354.4,498z"/>
	<path class="st24" d="M255.5,593.9c0.4,0.3,0.7,0.7,1.1,1C256.2,594.6,255.9,594.3,255.5,593.9z"/>
	<path class="st27" d="M249.4,834.8c0-0.7,0-1.3,0-2c0.7,0,1.4,0.1,2.2,0.1C250.9,833.6,250.1,834.2,249.4,834.8z"/>
	<path class="st21" d="M223.4,373.7c-2.3-1.2-4.7-2.2-6.8-3.6c-0.2-0.1,0.9-3.5,1.5-3.5c3.7-0.1,5.4,2.4,6.2,5.5
		C224,372.6,223.7,373.2,223.4,373.7z"/>
	<path class="st21" d="M245.4,731.5c0,0.4,0.1,0.9,0.1,1.3c-0.5-0.1-1.1-0.1-2.3-0.3C244.4,732,244.9,731.8,245.4,731.5z"/>
	<path class="st23" d="M218.3,668c1.4,1.2,2.8,2.5,4.3,3.7c-0.3,0.5-0.6,0.9-0.9,1.4c-2.1-0.8-4.1-1.5-6.2-2.3
		C215.6,669.1,214.6,666.2,218.3,668z"/>
	<path class="st25" d="M342.8,756.3c0,0.1-0.1,0.3-0.1,0.3c-0.1,0-0.3-0.1-0.4-0.1c0-0.1,0.1-0.3,0.1-0.4
		C342.5,756.2,342.6,756.2,342.8,756.3z"/>
	<path class="st26" d="M287.4,307c-0.3-0.4-0.6-0.7-0.9-1c1.7-2.6,3.5-5.2,5.2-7.8c0.3-0.4,0.6-0.7,0.9-1.1c0.3-0.3,0.7-0.7,1-1
		c1.3-1,2.6-1.9,4-2.9c-0.4-0.4-0.9-0.9-1.3-1.3c-1,1.3-1.9,2.6-2.8,4c-0.3,0.3-0.7,0.7-1,1c-0.4,0.3-0.7,0.6-1.1,0.9
		c-2.6,2.4-5.2,4.8-7.7,7.1c-0.9-0.1-1.8-0.3-4.7-0.7c5.6-5.5,9.9-10.5,15-14.2c2.5-1.8,4.7,1.3,5.5,4.1c-2.4,3.2-4.8,6.5-7.1,9.7
		c-0.3,0.3-0.7,0.6-1,1c-0.3,0.4-0.6,0.8-0.9,1.1l0,0c-0.3,0.3-0.7,0.7-1,1l0,0C288.8,307,288.1,307,287.4,307z"/>
	<path class="st26" d="M300.7,295.9c1.6,1,3.2,2.1,4.8,3.2c-4.4,4.7-8.8,9.3-13.2,14c-0.6-0.6-1.2-1.1-1.8-1.7c0-0.5,0-0.9,0-1.4
		l0,0c4.2-2.2,8.1-4.8,9-10c0.1-0.1,0.3-0.3,0.4-0.4c-0.1,0-0.2,0-0.3,0.1c-0.1,0.1-0.1,0.2-0.2,0.3c-1,0.3-2,0.6-3,1
		C297.9,299.3,299.3,297.6,300.7,295.9z"/>
	<path class="st27" d="M292.3,313.1c4.4-4.7,8.8-9.3,13.2-14c0.1,1,0.7,2.4,0.3,2.8c-3.7,4-7.5,7.8-11.4,11.5
		C294,313.7,293,313.2,292.3,313.1z"/>
	<path class="st25" d="M300.7,295.9c-1.4,1.7-2.8,3.4-4.3,5.1h0c-0.3,0.3-0.7,0.7-1,1l0,0c-0.4,0.3-0.9,0.7-1.3,1
		c-0.6,0.3-1.1,0.7-1.7,1l-0.1-0.1c2.4-3.2,4.8-6.5,7.1-9.7C299.9,294.7,300.3,295.3,300.7,295.9z"/>
	<path class="st25" d="M291.7,298.1c-1.7,2.6-3.5,5.2-5.2,7.8c-1-0.3-1.9-0.6-2.9-1c2.6-2.4,5.2-4.8,7.7-7.1L291.7,298.1z"/>
	<path class="st26" d="M289.4,310c-0.3-0.3-0.6-0.6-0.9-0.9c0.3-0.7,0.7-1.4,1-2.1l0,0c0.3-0.3,0.7-0.7,1-1l0,0
		c0.3-0.1,0.7-0.2,1-0.3c-0.3,1.4-0.7,2.8-1,4.2l0,0C290.1,310,289.8,310,289.4,310z"/>
	<path class="st25" d="M289.5,307c-0.3,0.7-0.7,1.4-1,2.1c-0.4-0.7-0.7-1.4-1.1-2.1C288.1,307,288.8,307,289.5,307z"/>
	<path class="st22" d="M289.4,310c0.4,0,0.8,0,1.1,0c0,0.5,0,0.9,0,1.4C290.1,310.9,289.8,310.4,289.4,310z"/>
	<path class="st0" d="M316.6,408.9c-0.2-6.3-0.3-12.6-0.5-18.8c0.1-0.1,0.2-0.3,0.2-0.5c1.2-9.8,1.2-9.8,11.6-9.8c0.5,0,1,0,1.5,0
		c9.3,0,9.3,0,9.1,9.1c0,1.7,0,3.3,0,5c0.7,1.1,1.4,2.2,2.1,3.3c0,0.5,0,0.9,0,1.4c-0.9,1.4-2.8,2.8-2.7,4c0.6,5.5-1.8,6.9-6.8,6.4
		C326.3,408.7,321.4,409,316.6,408.9z M333.8,407c0.3-0.6,0.7-1.1,1-1.7c-1.7-1.1-3.3-2.2-5-3.2c-2-1.2-3.5-2.8-1.3-4.6
		c4.8-4,2.5-6.9-1-10c-1.4-1.2-2.3-2.8-3.7-4c-1-0.8-2.4-1.3-3.7-1.4c-0.4,0-1.6,1.6-1.5,2c0.6,1.1,1.5,2.3,2.5,2.8
		c5.8,2.6,6.8,5.7,3.6,11.3c-0.6,1.1-0.9,3.5-0.4,3.8C327.4,403.9,330.6,405.4,333.8,407z"/>
	<path class="st23" d="M340.5,398.6c0-0.5,0-0.9,0-1.4c0-1.1-0.1-2.2-0.1-3.3c0-1.7,0-3.4,0-5c0.3-3.5,0.5-7.1,0.8-10.6
		c0.5,0.1,0.9,0.1,1.4,0.2c0,10.6,0,21.3,0,31.9c-0.7,0-1.3,0-2,0C340.5,406.5,340.5,402.6,340.5,398.6z"/>
	<path class="st22" d="M340.4,388.9c0,1.7,0,3.4,0,5c-0.6,0-1.3,0-1.9,0c0-1.7,0-3.3,0-5C339.1,389,339.8,388.9,340.4,388.9z"/>
	<path class="st23" d="M249.6,402.9c1.9,3.8,4.5,7.5,5.6,11.5c1.8,6.2,2.7,12.6,7,17.8c0.4,0.5,0.1,1.6,0.1,2.4l0.1,0.2
		c-0.6,0.4-1.2,0.7-1.8,1.1c-0.7-0.3-1.4-0.7-2.1-1c-1.5-0.1-3.1-0.4-4.5-0.1c-2.8,0.6-5.6,1.5-8.4,2.3c0-0.4,0-0.8-0.1-1.2
		c3.6-1.5,7.2-3,10.8-4.5c-0.2-0.5-0.4-1-0.6-1.5c-6.4,2.1-12.8,4.2-19.2,6.3c0-0.7-0.1-1.4-0.1-2.1c6.2-2.2,12.5-4.4,18.7-6.6
		c-0.2-0.5-0.3-1-0.5-1.6c-6.1,1.8-12.1,3.5-18.2,5.3c0-0.6-0.1-1.2-0.1-1.8c5.6-2,11.3-3.9,16.9-5.9c-0.2-0.5-0.4-1.1-0.5-1.6
		c-6.1,1.8-12.2,3.6-18.3,5.3c0-0.6-0.1-1.2-0.1-1.8c6.1-2.1,12.2-4.3,18.2-6.4c-0.2-0.5-0.4-1.1-0.5-1.7
		c-5.9,1.8-11.8,3.7-17.7,5.5c0-0.6,0-1.2,0-1.8c5.6-2.1,11.2-4.3,16.8-6.4c-0.2-0.5-0.4-1-0.6-1.5c-6.4,2-12.8,4-19.1,5.9
		c0-0.6-0.1-1.3-0.1-1.9c5.9-2.2,11.9-4.4,17.8-6.6c-0.2-0.5-0.4-1-0.6-1.4c-6.4,2-12.8,4-19.2,6c0-0.6-0.1-1.3-0.1-2
		c5.1-1.7,10.2-3.3,15.2-5.2c1.4-0.5,2.6-2,3.8-3C248.9,404.2,249.2,403.6,249.6,402.9z"/>
	<path class="st22" d="M245.6,437.1c2.8-0.8,5.5-1.7,8.4-2.3c1.4-0.3,3,0.1,4.5,0.1c-6.4,2.5-12.8,5-19.2,7.6
		c-0.3-0.7-0.6-1.4-0.8-2C240.8,439.3,243.2,438.2,245.6,437.1z"/>
	<path class="st22" d="M248.5,404.9c-1.3,1-2.4,2.4-3.8,3c-5,1.9-10.1,3.5-15.2,5.2c0.3-1,0.3-2.6,0.8-2.8
		C236.3,408.4,242.4,406.6,248.5,404.9z"/>
	<path class="st22" d="M236.5,431c6.1-1.8,12.1-3.5,18.2-5.3c0.2,0.5,0.3,1,0.5,1.6c-6.2,2.2-12.5,4.4-18.7,6.6
		C232.8,432.9,236.2,432,236.5,431z"/>
	<path class="st22" d="M236.6,436.1c6.4-2.1,12.8-4.2,19.2-6.3c0.2,0.5,0.4,1,0.6,1.5c-3.6,1.5-7.2,3-10.8,4.5
		c-1.9,0.6-3.7,1.4-5.6,1.6C238.9,437.6,237.7,436.6,236.6,436.1z"/>
	<path class="st22" d="M234.6,427c6.1-1.8,12.2-3.6,18.3-5.3c0.2,0.5,0.4,1.1,0.5,1.6c-5.6,2-11.3,3.9-16.9,5.9
		C235.8,428.5,235.2,427.8,234.6,427z"/>
	<path class="st22" d="M231.6,419c6.4-2,12.8-4,19.1-5.9c0.2,0.5,0.4,1,0.6,1.5c-5.6,2.1-11.2,4.3-16.8,6.4
		C233.5,420.3,232.6,419.7,231.6,419z"/>
	<path class="st22" d="M234.5,422.8c5.9-1.8,11.8-3.7,17.7-5.5c0.2,0.5,0.4,1.1,0.5,1.7c-6.1,2.1-12.2,4.3-18.2,6.4
		C234.5,424.4,234.5,423.6,234.5,422.8z"/>
	<path class="st22" d="M229.6,415.1c6.4-2,12.8-4,19.2-6c0.2,0.5,0.4,1,0.6,1.4c-5.9,2.2-11.9,4.4-17.8,6.6
		C230.9,416.5,230.2,415.8,229.6,415.1z"/>
	<path class="st25" d="M260.6,435.9c0.6-0.4,1.2-0.7,1.8-1.1c0,0.7,0,1.5,0.1,2.2C261.8,436.7,261.2,436.3,260.6,435.9z"/>
	<path class="st23" d="M313.6,447.9c8.3-1.5,16.5-3.1,24.8-4.6c0.1,0.7,0.2,1.3,0.3,2C330.4,446.7,322.4,450,313.6,447.9
		C313.6,447.9,313.6,447.9,313.6,447.9z"/>
	<path class="st17" d="M329.8,524c-2.4,3-5.2,5.9-7.2,9.2c-3.9,6.2-7.4,12.6-11,18.9c-7.2-3.9-14.4-7.9-21.9-12
		c3.9-8.2,7.6-16,11.3-23.8c2.5-4.1,5.4-7.9,7.3-12.2c1.8-3.8,3.1-5.3,7.2-2.5c2.6,1.8,6,2.3,9.1,3.4c-1.5,2.7-2.9,5.4-4.4,8
		c-1.5,2.7-2.7,4.8,1.7,6.3C324.7,520.2,327.1,522.3,329.8,524z"/>
	<path class="st21" d="M299.2,515.8c-0.8,0-1.6,0.1-1.9,0.1c-0.4,6-4.3,10.2-6.8,15c-2-0.7-4.1-1.3-6.1-2c4.6-9,9-18,13.9-26.7
		c0.5-0.8,4.4,0.3,7.7,0.6C303.4,507.8,301.3,511.9,299.2,515.8z"/>
	<path class="st26" d="M284.4,528.9c2,0.7,4.1,1.3,6.1,2c-0.6,1.8-1.3,3.5-2.4,6.5c-0.8-4.7-2-6.8-5.6-4.6
		C283.1,531.6,283.8,530.3,284.4,528.9z"/>
	<path class="st23" d="M307.2,501.1c-2.5-1-4.5-1.8-7.2-2.8c1.3-1.4,2.3-3.2,3-3.1c1.7,0.2,3.4,1.2,4.7,2.3
		C308.2,497.9,307.5,499.6,307.2,501.1z"/>
	<path class="st21" d="M254.9,397.4c3.2-1.1,6.5-2.2,9.7-3.3c4.3-1.2,8.5-2.6,12.9-3.6c1.3-0.3,3.9,0.1,4.1,0.8
		c4.3,12.1,8.4,24.3,12.7,36.9c-8.7,2.8-16.6,5.3-24.6,7.8c-0.7-0.4-1.4-0.7-2-1.1c-0.7-1.4-1.4-2.8-2-4.1c0-0.3,0-0.6,0-0.9
		c0.3-0.7,0.7-1.4,1-2l0,0c1.3-0.3,2.7-0.6,4-0.9c0,0.6,0,1.3,0,1.9c-1.6,2-1.4,3.1,1.4,2.2c4.9-1.5,9.8-3.1,14.6-4.9
		c0.6-0.2,0.7-1.7,1-2.6c-0.3-0.5-0.6-1.1-0.9-1.6c0.5-0.6,1-1.2,1.5-1.8c-0.8-0.4-1.6-0.8-2.4-1.3c-0.4-0.4-0.7-0.7-1.1-1.1
		c0.3-0.6,0.6-1.3,0.9-1.9c-0.9-0.2-1.9-0.5-2.8-0.7c0-0.5,0-1-0.1-1.4c0.3-1,0.7-2,1-3c0-0.7-0.1-1.4-0.1-2.1
		c-0.6-0.6-1.2-1.3-1.9-2c0-0.6,0-1.3,0-1.9c-0.7-0.7-1.3-1.4-2-2.1c0-0.6,0-1.3,0-1.9c-0.6-0.9-1.3-1.7-1.9-2.6
		c0-0.5-0.1-0.9-0.1-1.3c0.6-0.7,1.3-1.5,1.9-2.2c-0.2-0.4-0.5-0.7-0.7-1.1c-6.4,2.4-12.9,4.8-19.3,7.1c-0.7,0-1.4,0-2.1,0.1
		C257.2,399.3,251.9,401.2,254.9,397.4z"/>
	<path class="st23" d="M267.6,435c0.7,0.4,1.4,0.7,2,1.1c-0.7,0.4-1.4,0.7-2.2,1.1C267.5,436.4,267.6,435.7,267.6,435z"/>
	<path class="st18" d="M291.6,367c-4.9-0.2-8.3-2.8-8.1-6.2c0.3-4.3,4.1-10.8,6.3-10.8c3.6,0.1,8.7,3.7,8.6,6.2
		C298.4,359.8,293.8,367,291.6,367z"/>
	<path class="st23" d="M282.5,414c0,0.5,0,1,0.1,1.4c-5.3,2.1-10.5,4.3-15.8,6.4c0.2,0.4,0.3,0.9,0.5,1.3c5.8-1.7,11.5-3.4,17.3-5.1
		c0.4,0.4,0.7,0.7,1.1,1.1c-5.3,2-10.7,3.8-15.9,6c-1.3,0.5-2.2,2-3.2,3l0,0c-0.8-0.8-2-1.5-2.3-2.5c-2.1-6.3-4-12.7-6-19
		c-0.6-1.8-4.3-3.1-0.8-5.5c0.7,0,1.4,0,2.1-0.1c1.5,0.1,3.1,0.7,4.5,0.3c4.6-1.2,9.1-2.8,13.6-4.2c0,0.5,0.1,0.9,0.1,1.3
		c-5.2,2.2-10.4,4.5-15.7,6.7c0.1,0.4,0.3,0.8,0.4,1.1c5.7-1.8,11.4-3.5,17.1-5.3c0,0.6,0,1.3,0,1.9c-5.9,2.2-11.8,4.3-17.8,6.5
		c0.2,0.5,0.4,1.1,0.6,1.6c6.4-2,12.8-4,19.1-6c0,0.6,0,1.3,0,1.9c-5.9,2.2-11.8,4.4-17.7,6.5c0.2,0.6,0.4,1.1,0.6,1.7
		c6.3-2.1,12.6-4.2,19-6.3c0,0.7,0.1,1.4,0.1,2.1c-6,2.2-11.9,4.3-17.8,6.5c0.2,0.5,0.4,1.1,0.6,1.6
		C271.7,417.3,277.1,415.6,282.5,414z"/>
	<path class="st23" d="M265.5,430c0,0.3,0,0.6,0,0.9C265.5,430.6,265.5,430.3,265.5,430z"/>
	<path class="st26" d="M285.9,535.6c-0.9-0.2-1.9-0.4-2.8-0.6c0.1-0.3,0.1-0.6,0.2-1c0.9,0.2,1.9,0.3,2.8,0.4
		C286,534.9,286,535.3,285.9,535.6z"/>
	<path class="st18" d="M257.5,360c0,0.6,0,1.3-0.1,1.9l0,0c-0.6,0-1.3,0-1.9,0c-2.1,0.9-4.3,1.5-6.1,2.6c-3,1.8-4.9,1.6-6.9-1.6
		c-5.3-8.7-10.9-17.2-16.3-25.8c-1.6-2.5-3.3-5.1-1.5-8.2c0.2,0,0.4,0,0.6-0.1c1.9-0.9,3.9-1.7,5.7-2.8c2.5-1.5,4.7-1.9,6.4,0.9
		C244.2,337.9,250.8,348.9,257.5,360z"/>
	<path class="st21" d="M225.3,328.8c-0.2,0-0.4,0-0.6,0.1c-2.1,0-3.6-0.1-2.7-3c0.6-1.8,0.3-3.9,0.4-5.8c0.9-0.3,1.9-0.9,2.8-0.8
		c1.8,0.3,3.5,1.1,5.3,1.6c0.1,0.8,0.7,2,0.4,2.3C229.1,325.1,227.2,326.9,225.3,328.8z"/>
	<path class="st23" d="M257.5,361.9c2.6,0.3,2.8,2,1.1,3.1c-3.5,2.3-7.3,4-11,5.9c0.3-5,5.4-5.3,7.9-8.1
		C256.1,362.5,256.8,362.2,257.5,361.9L257.5,361.9z"/>
	<path class="st22" d="M257.5,361.9c-0.7,0.3-1.4,0.6-2,0.9c0-0.3,0-0.6,0.1-0.9C256.2,361.9,256.8,361.9,257.5,361.9z"/>
	<path class="st18" d="M255.5,509.1c-1.4-0.4-2.7-0.7-4.1-1.1c0.6-3,1.1-6,1.7-9.2c1.9,1,3.3,1.7,5.3,2.6
		C257.5,503.7,256.5,506.4,255.5,509.1z"/>
	<path class="st15" d="M213.7,444.6c2.3-1.9,4.2-3.9,4.6-3.7c1.9,1.4,3.8,3.2,5,5.2c0.3,0.5-2.9,3.9-3.3,3.6
		C218,448.7,216.4,446.9,213.7,444.6z"/>
	<path class="st15" d="M216.2,530.9c1.2,3.9,8.1,2.1,5.3,7.8c-0.6,1.1-3.8,2.1-4.7,1.5C213.6,538.2,213.7,535.2,216.2,530.9z"/>
	<path class="st21" d="M327.5,517.9c-1.6-0.5-4.2-0.7-4.6-1.7c-0.5-1.3,0.6-3.4,1.1-5.1c0.6,0,1.2,0,1.8,0
		C326.3,513.4,326.9,515.7,327.5,517.9L327.5,517.9z"/>
	<path class="st21" d="M327.5,518c0.1,0.1,0.3,0.3,0.4,0.4c-0.1,0-0.2,0-0.2-0.1C327.6,518.2,327.6,518,327.5,518
		C327.5,517.9,327.5,518,327.5,518z"/>
	<path class="st18" d="M265.5,483.8c-1.6-0.4-3.2-0.7-4.8-1c0.1-1.1-0.2-2.5,0.3-3.4c0.7-1,2.1-1.6,3.2-2.3c0.7,1.3,1.6,2.5,2,3.9
		C266.5,481.8,265.8,482.9,265.5,483.8z"/>
	<path class="st26" d="M303.5,597.9c3.8,0.2,5.8,2.2,6,6c-0.4,0-0.9,0-1.3,0.1c-0.4-0.5-0.9-1.1-1.3-1.6c-1.5,2.2-2.9,4.3-4.4,6.5
		c-0.3,0.3-0.7,0.7-1,1l0,0c-0.3,0.3-0.7,0.7-1,1v0c-0.3,0.3-0.6,0.7-1,1.1l0,0c-0.3,0.3-0.7,0.7-1,1l0,0c-0.3,0.3-0.7,0.7-1,1l0,0
		c-0.3,0.3-0.7,0.7-1,1l0,0c-0.5,0.4-0.9,0.7-1.4,1.1c-0.9-0.9-1.8-1.8-2.8-2.7c2-2.5,4.1-4.9,6.1-7.4l0,0c0.3-0.3,0.7-0.7,1-1l0,0
		c0.3-0.3,0.7-0.7,1-1l0,0c0.3-0.3,0.7-0.7,1-1c1.4-0.9,2.7-1.8,4.1-2.7c-0.3-0.4-0.5-0.8-0.8-1.1c-0.7,0.3-1.4,0.7-2.1,1
		c-0.2-0.2-0.4-0.4-0.5-0.5C302.6,599,303,598.5,303.5,597.9z"/>
	<path class="st22" d="M308.2,604c0.4,0,0.9,0,1.3-0.1c0.7,0.3,1.4,0.7,2.1,1c-4,4.4-8.1,8.8-12.1,13.1c-0.7-0.4-1.4-0.8-2.1-1.1
		c1-1.8,2.1-3.5,3.1-5.3c0-0.3,0-0.5,0-0.8v0c0.3-0.3,0.7-0.7,1-1l0,0c0.3,0,0.5,0,0.7,0c0.4-0.3,0.9-0.7,1.3-1l0,0
		c0.3-0.3,0.7-0.7,1-1l0,0c0.3-0.3,0.7-0.7,1-1l0,0c0.3-0.4,0.7-0.9,1-1.3C307.1,605.1,307.6,604.5,308.2,604z"/>
	<path class="st26" d="M299.5,618c4-4.4,8.1-8.8,12.1-13.1c0.6,0.4,1.3,0.7,1.9,1.1c-4.4,4.3-8.7,8.6-13.1,12.9
		C300.1,618.6,299.8,618.3,299.5,618z"/>
	<path class="st26" d="M298.5,600.4c0-0.3,0.2-0.4,0.5-0.5c1-0.1,2.1-0.3,3.2-0.4c0.2,0.2,0.4,0.4,0.5,0.5c-0.4,1-0.8,1.9-1.1,2.8
		c-0.3,0.3-0.7,0.7-1,1l0,0c-0.3,0.3-0.7,0.7-1,1l0,0c-0.3,0.3-0.7,0.7-1,1l0,0c-2.3,2-4.6,4-6.9,6c-1-0.5-2-1-3-1.4
		c0.9-0.4,1.9-0.7,2.8-1.1c0.3-0.5,0.7-1,1-1.5l0,0c0.3-0.3,0.7-0.7,1-1l0,0c0.3-0.3,0.7-0.7,1-1l0,0c0.3-0.3,0.7-0.7,1-1l0,0
		c0.3-0.3,0.7-0.7,1-1l0,0c0.3-0.3,0.7-0.7,1-1l0,0C297.8,602.1,298.1,601.2,298.5,600.4z"/>
	<path class="st27" d="M300.4,618.9c4.4-4.3,8.7-8.6,13.1-12.9c-0.1,1.1,0.3,2.6-0.3,3.3c-3.3,3.7-6.8,7.2-10.3,10.7
		C302.6,620.2,301.3,619.3,300.4,618.9z"/>
	<path class="st25" d="M291.6,611.9c2.3-2,4.6-4,6.9-6c-2,2.5-4.1,4.9-6.1,7.4C292.1,612.8,291.9,612.4,291.6,611.9z"/>
	<path class="st26" d="M300.5,611.7c-1,1.8-2.1,3.5-3.1,5.3c-0.3-0.3-0.6-0.6-0.9-0.9c0-0.4,0-0.7,0-1.1l0,0c0.3-0.3,0.7-0.7,1-1
		l0,0c0.3-0.3,0.7-0.7,1-1l0,0c0.3-0.3,0.7-0.7,1-1l0,0C299.8,611.8,300.2,611.8,300.5,611.7z"/>
	<path class="st24" d="M302.1,599.5c-1,0.1-2.1,0.3-3.2,0.4c1-1,2-2.1,3.1-3.1c0.1-0.1,1,0.7,1.5,1.1
		C303,598.5,302.6,599,302.1,599.5z"/>
	<path class="st24" d="M298.5,600.4c-0.4,0.8-0.7,1.7-1,2.5C297.8,602.1,298.1,601.2,298.5,600.4z"/>
	<path class="st24" d="M292.5,607.9c-0.3,0.5-0.7,1-1,1.5C291.8,608.9,292.1,608.4,292.5,607.9z"/>
	<path class="st24" d="M297.5,602.9c-0.3,0.3-0.7,0.7-1,1C296.8,603.6,297.1,603.2,297.5,602.9z"/>
	<path class="st24" d="M296.5,603.9c-0.3,0.3-0.7,0.7-1,1C295.8,604.6,296.1,604.2,296.5,603.9z"/>
	<path class="st24" d="M295.5,604.9c-0.3,0.3-0.7,0.7-1,1C294.8,605.6,295.1,605.2,295.5,604.9z"/>
	<path class="st24" d="M293.5,606.9c-0.3,0.3-0.7,0.7-1,1C292.8,607.6,293.1,607.2,293.5,606.9z"/>
	<path class="st25" d="M296.5,614.9c0,0.4,0,0.7,0,1.1c-0.5,0-0.9,0-1.3,0C295.6,615.7,296.1,615.3,296.5,614.9z"/>
	<path class="st24" d="M294.5,605.9c-0.3,0.3-0.7,0.7-1,1C293.8,606.6,294.1,606.2,294.5,605.9z"/>
	<path class="st18" d="M298.1,673.9c-5.3-0.6-8.1-3-7.6-6.6c0.8-5.6,4-10.5,6.7-10.2c4,0.4,8.4,4,8.1,6.5
		C304.9,669.1,301.3,674.2,298.1,673.9z"/>
	<path class="st21" d="M230.4,676.2c0.3,1,0.5,2.1,0.9,3.6c-2.1,0-3.9,0-5.7,0c-0.1-1.8-0.3-3.7-0.4-5.5
		C226.9,674.9,228.6,675.5,230.4,676.2z"/>
	<path class="st21" d="M215.3,483.9c2.2,3.1,4.3,4.8,4.6,6.7c0.2,1.3-2.4,2.9-3.7,4.3c-1.5-1.6-3.8-3-4.3-4.9
		C211.5,488.8,213.5,486.8,215.3,483.9z"/>
	<path class="st25" d="M293.4,295.9c1-1.3,1.9-2.6,2.8-4c0.4,0.4,0.9,0.9,1.3,1.3c-1.3,1-2.6,1.9-4,2.9
		C293.6,296,293.4,295.9,293.4,295.9z"/>
	<path class="st25" d="M290.5,306c-0.3,0.3-0.7,0.7-1,1C289.8,306.6,290.2,306.3,290.5,306z"/>
	<path class="st25" d="M291.5,305.7c-0.3,0.1-0.7,0.2-1,0.3c0.3-0.4,0.6-0.8,0.9-1.1l0.1,0.1C291.5,305.2,291.5,305.5,291.5,305.7z"
		/>
	<path class="st25" d="M291.4,304.8c0.3-0.3,0.7-0.6,1-1l0.1,0.1c-0.3,0.3-0.7,0.7-1,1L291.4,304.8z"/>
	<path class="st25" d="M292.6,297c-0.3,0.4-0.6,0.7-0.9,1.1l-0.3-0.3c0.4-0.3,0.7-0.6,1.1-0.9C292.4,296.9,292.6,297,292.6,297z"/>
	<path class="st25" d="M292.4,296.9c0.3-0.3,0.7-0.7,1-1l0.2,0.2c-0.3,0.3-0.7,0.7-1,1C292.6,297,292.4,296.9,292.4,296.9z"/>
	<path class="st22" d="M291.5,305c0.3-0.3,0.7-0.7,1-1c0.6-0.3,1.1-0.7,1.7-1c0.4-0.3,0.9-0.7,1.3-1l0,0c0.3-0.3,0.7-0.7,1-1h0
		c1-0.3,2-0.6,3-1l0,0c-0.9,5.2-4.8,7.8-9,10c0.3-1.4,0.7-2.8,1-4.2C291.5,305.5,291.5,305.2,291.5,305z"/>
	<path class="st22" d="M299.5,300c0-0.1,0.1-0.3,0.2-0.3c0,0,0.2,0,0.3-0.1C299.8,299.7,299.6,299.8,299.5,300
		C299.5,300,299.5,300,299.5,300z"/>
	<path class="st26" d="M295.5,301.9c-0.4,0.3-0.9,0.7-1.3,1C294.6,302.6,295.1,302.3,295.5,301.9z"/>
	<path class="st26" d="M296.5,301c-0.3,0.3-0.7,0.7-1,1C295.8,301.6,296.2,301.3,296.5,301z"/>
	<path class="st27" d="M333.8,407c-3.2-1.6-6.5-3.1-9.5-5c-0.5-0.3-0.2-2.7,0.4-3.8c3.2-5.5,2.2-8.6-3.6-11.3
		c-1.1-0.5-2-1.7-2.5-2.8c-0.2-0.4,1-2,1.5-2c1.3,0.1,2.7,0.6,3.7,1.4c1.4,1.1,2.4,2.8,3.7,4c3.6,3,5.9,5.9,1,10
		c-2.2,1.8-0.7,3.5,1.3,4.6c1.7,1,3.3,2.1,5,3.2C334.5,405.9,334.1,406.4,333.8,407z"/>
	<path class="st20" d="M338.5,394c0.6,0,1.3,0,1.9,0c0,1.1,0.1,2.2,0.1,3.3C339.8,396.1,339.1,395,338.5,394z"/>
	<path class="st22" d="M266.5,428c1.1-1,2-2.5,3.2-3c5.2-2.1,10.6-4,15.9-6c0.8,0.4,1.6,0.8,2.4,1.3c-0.5,0.6-1,1.2-1.5,1.8
		c-5.4,1.7-10.7,3.3-16.1,5C269.1,427.4,267.8,427.7,266.5,428z"/>
	<path class="st22" d="M287.5,423.7c-0.3,0.9-0.4,2.4-1,2.6c-4.8,1.8-9.7,3.4-14.6,4.9c-2.8,0.8-3-0.2-1.4-2.2
		C276.2,427.2,281.8,425.4,287.5,423.7z"/>
	<path class="st22" d="M277.5,397.1c-4.5,1.4-9,3-13.6,4.2c-1.4,0.4-3-0.2-4.5-0.3c6.4-2.4,12.9-4.8,19.3-7.1
		c0.2,0.4,0.5,0.7,0.7,1.1C278.8,395.6,278.2,396.3,277.5,397.1z"/>
	<path class="st22" d="M281.5,405c-6.4,2-12.8,4-19.1,6c-0.2-0.5-0.4-1.1-0.6-1.6c5.9-2.2,11.8-4.3,17.8-6.5
		C280.2,403.6,280.9,404.3,281.5,405z"/>
	<path class="st22" d="M283.4,408.8c-6.3,2.1-12.6,4.2-19,6.3c-0.2-0.6-0.4-1.1-0.6-1.7c5.9-2.2,11.8-4.4,17.7-6.5
		C282.1,407.5,282.8,408.1,283.4,408.8z"/>
	<path class="st22" d="M282.5,414c-5.4,1.7-10.8,3.4-16.3,5c-0.2-0.5-0.4-1.1-0.6-1.6c6-2.2,11.9-4.3,17.8-6.5
		C283.2,411.9,282.8,412.9,282.5,414z"/>
	<path class="st20" d="M284.5,418c-5.8,1.7-11.5,3.4-17.3,5.1c-0.2-0.4-0.3-0.9-0.5-1.3c5.3-2.1,10.5-4.3,15.8-6.4
		c0.9,0.2,1.9,0.5,2.8,0.7C285.1,416.7,284.8,417.3,284.5,418z"/>
	<path class="st23" d="M287.5,423.7c-5.7,1.7-11.3,3.5-17,5.2c0-0.6,0-1.3,0-1.9c5.4-1.7,10.7-3.3,16.1-5
		C286.9,422.6,287.2,423.1,287.5,423.7z"/>
	<path class="st22" d="M279.5,401c-5.7,1.8-11.4,3.5-17.1,5.3c-0.1-0.4-0.3-0.8-0.4-1.1c5.2-2.2,10.4-4.5,15.7-6.7
		C278.3,399.3,278.9,400.1,279.5,401z"/>
	<path class="st25" d="M308.2,604c-0.6,0.5-1.1,1.1-1.7,1.6c-0.3,0.4-0.7,0.9-1,1.3l0,0c-0.3,0.3-0.7,0.7-1,1l0,0
		c-0.3,0.3-0.7,0.7-1,1l0,0c-0.3,0-0.6,0-1,0.1l-0.1-0.1c1.5-2.2,2.9-4.3,4.4-6.5C307.3,602.9,307.7,603.5,308.2,604z"/>
	<path class="st25" d="M301.5,602.9c0.4-1,0.8-1.9,1.1-2.8c0.7-0.3,1.4-0.7,2.1-1c0.3,0.4,0.5,0.8,0.8,1.1
		C304.2,601.1,302.9,602,301.5,602.9z"/>
	<path class="st25" d="M298.5,612.9c-0.3,0.3-0.7,0.7-1,1C297.8,613.6,298.2,613.3,298.5,612.9z"/>
	<path class="st25" d="M300.5,603.9c0.3-0.3,0.7-0.7,1-1C301.2,603.3,300.8,603.6,300.5,603.9z"/>
	<path class="st25" d="M299.5,604.9c0.3-0.3,0.7-0.7,1-1C300.2,604.3,299.8,604.6,299.5,604.9z"/>
	<path class="st25" d="M298.5,605.9c0.3-0.3,0.7-0.7,1-1C299.2,605.3,298.8,605.6,298.5,605.9z"/>
	<path class="st25" d="M297.5,613.9c-0.3,0.3-0.7,0.7-1,1C296.8,614.6,297.2,614.3,297.5,613.9z"/>
	<path class="st25" d="M299.5,611.9c-0.3,0.3-0.7,0.7-1,1C298.8,612.6,299.2,612.3,299.5,611.9z"/>
	<path class="st25" d="M300.5,611.7c-0.3,0.1-0.7,0.2-1,0.3c0.3-0.3,0.6-0.7,1-1.1C300.5,611.1,300.5,611.4,300.5,611.7z"/>
	<path class="st25" d="M301.5,609.9c-0.3,0.3-0.7,0.7-1,1C300.8,610.5,301.1,610.2,301.5,609.9z"/>
	<path class="st25" d="M302.2,609.9c-0.2,0-0.5,0-0.7,0c0.3-0.3,0.7-0.7,1-1c0,0,0.1,0.1,0.1,0.1
		C302.4,609.3,302.3,609.6,302.2,609.9z"/>
	<path class="st26" d="M304.5,607.9c0.3-0.3,0.7-0.7,1-1C305.2,607.3,304.8,607.6,304.5,607.9z"/>
	<path class="st26" d="M303.5,608.9c0.3-0.3,0.7-0.7,1-1C304.2,608.3,303.8,608.6,303.5,608.9z"/>
	<path class="st26" d="M305.5,606.9c0.3-0.4,0.7-0.9,1-1.3C306.2,606,305.8,606.5,305.5,606.9z"/>
	<path class="st26" d="M302.2,609.9c0.1-0.3,0.2-0.7,0.3-1c0.3,0,0.6-0.1,1-0.1C303.1,609.3,302.6,609.6,302.2,609.9z"/>
	<path class="st21" d="M293.3,170.3"/>
	<path class="st28" d="M218.8,189.8"/>
	<path class="st12" d="M300.9,167.4"/>
	<path class="st29" d="M214.9,166.4c7-4.5,12.8-8.2,19.1-12.3C235.1,160,224,167.7,214.9,166.4z"/>
	<path class="st29" d="M287,146.6c5.8,1.2,10.8,2.2,15.9,3.4c0.5,0.1,1.3,1,1.2,1.3c-0.1,0.7-0.7,1.5-1.3,1.8
		C299.5,154.8,289.2,150.9,287,146.6z"/>
	<path class="st30" d="M300.5,162.5c2,1,4.4,1.6,5.9,3c1.3,1.2,1.6,3.4,2.4,5.1c-0.5,0.2-0.9,0.4-1.4,0.6c-1.8-1.3-3.4-3.1-5.4-3.8
		c-4.9-1.7-10.2,0.4-12.5,4.4c-3.1,5.5-2.6,10.4,1.4,14c4.5,4.2,10.9,5.3,15,2.3c2.3-1.7,4.6-3.7,2.6-7c-2-3.2-6.2-3.9-9.4-1.6
		c1.5,0.8,3,1.6,4.7,2.5c-2.2,3.4-5,2.9-6.8,1.1c-1.2-1.2-1.9-4.5-1-5.8c1.2-1.8,4.4-4,5.9-3.5c3.8,1.4,7.2,4.1,10.6,6.4
		c0.5,0.4,0.7,1.4,1,2.1c0,1,0,2,0,3c-7.7,11.2-21.7,10.9-28.4-0.3c-4-6.7,0.7-21.4,10.3-21.8c0.7,0,1.4-0.6,2-0.9
		C298.5,162.5,299.5,162.5,300.5,162.5z"/>
	<path class="st30" d="M229.5,204.5c-1-0.4-2-0.9-3-1.3c-9.1-3-13.1-10.7-10-19.6c2.9-8.4,12.3-12.8,20.7-9.2
		c1.7,0.7,2.8,2.7,4.9,4.8c-5.4-0.7-9.2-1.7-12.9-1.7c-5.1,0.1-9.1,4.7-9.7,10.3c-0.5,5.4,2.4,9.7,7.7,11.3c5.5,1.7,10,0.3,12.3-3.6
		c2.5-4.4,1.9-7.4-1.7-9.3c-3.8-2-6.6-0.9-9.2,4c1.1-0.1,2-0.3,2.9-0.3c1.3,0.1,2.5,0.3,3.7,0.5c-0.9,1.1-1.7,3-2.6,3.1
		c-2.4,0.1-5.3,0-7.1-1.3c-0.9-0.6-0.5-4.4,0.5-6.2c2.6-4.7,8.6-6,13.5-3.6c5.1,2.6,6.5,6.8,4.6,12.6c-1.8,5.2-5.7,7.7-10.6,9.3
		C232.2,204.5,230.8,204.5,229.5,204.5z"/>
	<path class="st31" d="M246.9,194.7c0.4,1.7,1.5,3.6,1,5c-3.9,10.3-15.5,13.9-25.1,11.5c-0.8-0.2-2.5-0.7-3.5-2.3
		c-1.1-1.7-0.7-3.8-0.5-4.5c1.1,0.2,2.1,0.3,2.9,0.4c1.5,0.1,2.7,0.1,3,0.1c1.1-0.1,2-0.2,2.7-0.3c2.6-0.4,3.5-0.4,5.7-0.8
		c3.9-0.7,5.8-1,7.8-1.9c1.5-0.7,2.8-1.3,4-2.8C246.3,197.4,246.7,195.7,246.9,194.7z"/>
	<path class="st31" d="M315.5,189.8c1.4,5.5,0.7,7.9-5,9.2c-5.5,1.3-11.4,1.4-17.1,1.1c-5.2-0.3-8.7-3.6-8.9-9.4
		c0.4,0.2,0.9,0.4,1.3,0.6c0.9,0.4,1.7,0.9,2.5,1.4c0.8,0.3,1.7,0.6,2.9,0.8c1.2,0.2,2.3,0.2,3.1,0.1c2.7,0,5.3-0.1,8-0.1
		c2.5-0.4,5.3-1,8.3-2C312.4,191,314.1,190.4,315.5,189.8z"/>
	<path class="st32" d="M261,221.8c4.6-6.8,10.3-10.1,18-9.7c5.1,0.2,8.5,3.1,8.9,7.2c0.3,3.4-3.3,6.7-7.8,8
		c-2.6,0.7-5.1,2.1-7.6,3.2c-1.8,0.7-3.7,1.9-5.5,1.8c-2-0.1-5-1.1-5.6-2.5C260.4,227.4,261.1,224.5,261,221.8z M264.2,222.7
		c0.1,2,0.2,4,0.3,6c2.1-0.3,4.2-0.5,6.2-0.9c0.7-0.1,1.4-0.8,1.9-1.3c1.7-1.6,3.2-2.6,6.1-2.3c1.9,0.2,5.3-2.3,6-4.3
		c1-3-2.2-4.3-4.9-4.8C274.3,214,268.2,217.2,264.2,222.7z"/>
</g>
</svg>
