<?xml version="1.0" encoding="utf-8"?>
<!-- Generator: Adobe Illustrator 23.0.3, SVG Export Plug-In . SVG Version: 6.00 Build 0)  -->
<svg version="1.1" id="Ebene_1" xmlns="http://www.w3.org/2000/svg" xmlns:xlink="http://www.w3.org/1999/xlink" x="0px" y="0px"
	 viewBox="0 0 1409.3 288.2" style="enable-background:new 0 0 1409.3 288.2;" xml:space="preserve">
<style type="text/css">
	.st0{display:none;fill:#EF7F9D;}
	.st1{display:none;}
	.st2{display:inline;}
	.st3{fill:#E6E6E6;}
	.st4{fill:#CCCCCC;}
	.st5{fill:#20201E;}
	.st6{fill:#CC3E63;}
	.st7{display:none;fill:#846F75;}
	.st8{fill:#E5385D;}
	.st9{fill:#FF99A3;}
	.st10{fill:#8E5960;}
	.st11{fill:#846F75;}
	.st12{display:inline;fill:#E5385D;}
	.st13{fill:#D6D6D6;}
	.st14{fill:#C5C5C5;}
	.st15{display:none;fill:#FFFFFF;}
	.st16{fill:#7C7C7C;}
	.st17{fill:#CECECE;}
	.st18{fill:#FCFCFC;}
	.st19{fill:#F6F7F7;}
	.st20{fill:#6B6969;}
	.st21{fill:#CF4561;}
	.st22{fill:#CD4166;}
	.st23{fill:#7B7A7A;}
	.st24{fill:#FBFBFB;}
	.st25{fill:#FAFAFA;}
	.st26{fill:#737272;}
</style>
<rect x="1127.4" y="0.2" class="st0" width="281.1" height="287.2"/>
<g class="st1">
	<g id="cat_eat_1_" class="st2">
		<path class="st3" d="M235.9,202.6c0,0-2.6-5.8-9-12.1c-0.2-0.2-1.1-1.1-2.4-1.8c-0.2-0.1-0.5-0.2-0.9-0.4
			c-1.9-0.8-2.6-1.2-2.9-1.3c-2.5-0.9-7.5,5.8-8,6.4c-2.6,3.5-2.7,5.3-4.6,8.3c-0.2,0.4-0.9,1.4-1.2,2.9c-0.1,0.5-0.2,0.9-0.2,1.2
			c1,0.6,2.1,1.3,3.2,2.3c0.6,0.6,1.2,1.1,1.7,1.6c0,0,0.9,1.1,1.3,2.6c0.9,4.4-1.2,9-6,10.5c-5.4,1.7-11.2,3.3-16.8,3.6
			c-12.3,0.6-24.7,0.2-37.1,0.3c-5.2,0-9.8,1.4-13,5.4c-4.4,10,2.6,18.6,14.6,17.8c8.5-0.6,17-0.2,25.5-0.7c9.5-0.6,19-1.3,28.4-2.8
			c15-2.3,24.6-10.4,29.2-23.2c1.3-3.5,1.3-6.7,1.2-9.1C238.7,208.8,237,204.9,235.9,202.6z"/>
		<path class="st3" d="M118.5,220.2c-7.7,2.1-14.6,0.2-16.9-4c-0.8-1.4-1.9-4.8-0.3-7.8c1.2-2.3,3.4-3.2,4.2-3.4c0-14.3,0-28.7,0-43
			c-1.4-3.3-0.9-7.1,1.3-9.9c3.3-4.1,8.4-3.6,8.7-3.6h1.9c6.8,0,12.3,5.5,12.3,12.3v43.8c0.1,0.9,0.7,6.4-3.3,11
			C123.5,219,119.7,219.9,118.5,220.2z"/>
		<path class="st3" d="M85.8,218.6c-7.7,2.1-14.6,0.2-16.9-4c-0.8-1.4-1.9-4.8-0.3-7.8c1.2-2.3,3.4-3.2,4.2-3.4c0-14.3,0-28.7,0-43
			c-1.4-3.3-0.9-7.1,1.3-9.9c3.3-4.1,8.4-3.6,8.7-3.6h1.9c6.8,0,12.3,5.5,12.3,12.3V203c0.1,0.9,0.7,6.4-3.3,11
			C90.9,217.5,87,218.4,85.8,218.6z"/>
		<path class="st3" d="M217.1,197.7c3.7-5,4.9-10,5.9-13.7c0.3-1.1,0.9-3.8,1.2-7.4c1.1-12.1-2.4-22.7-3.6-26.3
			c-3.4-10.1-8.5-17.6-12.5-22.6c-2.3-2.4-5.4-5.5-9.5-8.7c-3.8-3-7.8-6.2-13.7-9.1c-7-3.4-14.6-5.5-22.7-6.3
			c-1.5-0.1-3.1-0.4-5.9-0.7c-9.2-1-21.2-2.2-35.6-1.5c-12.7,0.6-19.1,0.8-26.2,3.4c-5.9,2.1-15,5.5-21.1,14.6
			c-4.1,6.1-5.3,12.4-5.6,14.6c-0.4,2.2-1.1,6.6-0.2,12c0.6,3.3,1.6,6.2,2.1,7.7c0.8,2.3,1.6,4.1,2.1,5.1
			c3.9,7.8,9.5,12.3,12.1,14.3c3.9,3,7.3,4.7,12.5,7.3c3.7,1.8,6.5,3,8.6,3.8c9.1,3.7,18.6,7.1,26.1,9.7c2.5,0.3,6.4,0.4,11.1-0.3
			c-0.7,3.7-1.8,6.6-1.8,9.6c-0.1,7.2,3.9,12.5,11,13.2c8,0.8,16.1,0.5,24.2,0.2c8.9-0.4,17.4-3,25.5-6.6c3.6-1.6,6-3.3,7.3-4.2
			C210.9,204,214.1,201.7,217.1,197.7z"/>
		<path class="st4" d="M62.4,168.9c16,2.6,28.5,0.4,32.1-0.3c1-0.2,5.1-1,10.3-2.7c4.8-1.6,10.2-3.4,16-7.5c1.3-0.9,2.3-1.7,3-2.3
			l2.8-2.5c2.8-2.4-2.8,2.5-2.8,2.5c-0.1-0.1,1-1.6,2.8-2.5c0.7-0.3,1.3-0.6,2-0.5c1.5,0.2,1.8,1.5,3.7,2.3c0.9,0.4,2.9,1,3.8,0.1
			c0.8-0.9,0.3-2.7-0.2-3.7c-0.2-0.4-0.4-1.1-1.6-1.8c-2-1.3-2.5-2.7-1.1-4.8c1.4-2.2,2.9-3.1,5.4-1.7c1.2,0.6,2.7,1,4,0.9
			c0.9,0,2.3-0.8,2.6-1.6s-0.3-2.3-1-2.9c-0.7-0.6-1.1-0.5-3.7-1.7c-1.7-0.7-2.1-1-2.3-1.5c-0.3-0.6-0.3-1.3-0.3-2.2
			c0-0.8,0-1.2,0.2-1.6c0.5-1,1.7-1.5,3.1-1.5c3.3-0.2,3.9,0.1,5.8-0.6c1.3-0.5,3.1-1.7,2.9-2.9c-0.1-1.2-2.4-1.9-3.8-2.3
			c-3.6-1.1-5.3,0-6.5-1.2c-0.9-1-1-2.8-1.1-6.6c-0.6-17.7-2.8-35.1-7.4-52.2c-0.5-1.8-1.3-3.5-2.1-5.1c-2.3-5-6.3-6.6-11-3.6
			c-5.5,3.6-10.8,7.6-16.1,11.5c-1.9,1.4-3.4,3.2-5.3,4.4c-1.4,0.9-3.5,1.6-5,1.3c-10.3-2.1-20.5-2.1-30.9,0
			c-1.7,0.4-4.1-0.4-5.6-1.5c-7-5-13.8-10.3-20.8-15.4c-4.9-3.6-9.7-2.1-11.9,3.6c-1.1,3-2.3,6.1-2.9,9.2c-3.2,16.2-6.3,32.4-6.1,49
			c0,0.5,0,0.9-0.1,1.4c-0.5,5.6-0.5,5.4-6,5.1C5,125.4,1.5,124,1,127.7s3.3,2.6,5.4,3.2c1.5,0.4,3.2,0.3,4.8,0.6
			c2.7,0.5,3.4,2.7,1.6,4.8l0,0c-0.6,0.3-1.1,0.6-1.7,0.9c-0.2,0-0.4,0-0.6,0c-1.1,0.2-3,0.7-4.4,2.3c-0.3,0.4-1.9,2.1-1.3,3.2
			c0.4,0.7,1.4,0.9,2.2,1c1.6,0.2,2.6-0.2,6.3-1c1.6-0.4,2-0.4,2.5-0.3c1.2,0.3,2,1.4,2.8,2.7c1.3,2.2-0.1,3.4-1.7,4.5
			c-1,0.7-1,0.6-1.3,1c-0.9,0.9-2,2.8-1.2,4.1c0.6,1,2.1,1,2.3,1c1.4,0,2.2-1,2.3-1.1c0.5-0.5,1.3-1.2,2.5-1.8
			c0.7-0.3,1.4-0.7,2.3-0.6c1.1,0,1.8,0.6,4,2.5c1.4,1.2,2.6,2.1,3.3,2.7c2.2,1.4,5.2,3.1,9,4.8C42.4,163.3,50.6,167,62.4,168.9z"/>
		<path class="st3" d="M61.9,168c15.9,2.6,28.2,0.4,31.8-0.3c1-0.2,5.1-1,10.2-2.7c4.8-1.6,10.1-3.4,15.9-7.5
			c1.3-0.9,2.2-1.7,2.9-2.3l2.8-2.5c2.8-2.4-2.8,2.5-2.8,2.5c-0.1-0.1,1-1.6,2.8-2.5c0.6-0.3,1.2-0.6,2-0.5c1.5,0.2,1.8,1.5,3.7,2.3
			c0.9,0.4,2.9,1,3.8,0.1c0.8-0.8,0.3-2.6-0.2-3.6c-0.2-0.4-0.4-1.1-1.5-1.8c-2-1.3-2.5-2.7-1.1-4.8s2.9-3,5.4-1.7
			c1.2,0.6,2.7,1,4,0.9c0.9,0,2.3-0.8,2.5-1.6c0.3-0.8-0.3-2.3-1-2.8c-0.7-0.6-1.1-0.5-3.7-1.7c-1.7-0.7-2.1-1-2.3-1.4
			c-0.3-0.6-0.3-1.3-0.3-2.2c0-0.8,0-1.2,0.2-1.6c0.5-1,1.6-1.4,3-1.5c3.3-0.2,3.9,0.1,5.8-0.6c1.3-0.5,3-1.7,2.9-2.8
			c-0.1-1.2-2.4-1.9-3.7-2.3c-3.5-1.1-5.2,0-6.4-1.2c-0.9-0.9-1-2.8-1.1-6.5c-0.6-17.5-2.7-34.8-7.3-51.8c-0.5-1.7-1.3-3.4-2.1-5.1
			c-2.2-5-6.3-6.5-10.9-3.5c-5.5,3.5-10.7,7.5-15.9,11.4c-1.8,1.4-3.3,3.2-5.3,4.4c-1.4,0.9-3.4,1.6-5,1.3
			c-10.3-2-20.4-2.1-30.7,0.1c-1.7,0.4-4.1-0.4-5.6-1.5C47.7,67.6,41,62.3,34,57.3c-4.9-3.5-9.6-2.1-11.8,3.5c-1.1,3-2.2,6-2.9,9.1
			c-3.2,16.1-6.2,32.1-6,48.6c0,0.5,0,0.9-0.1,1.4c-0.5,5.5-0.5,5.4-6,5.1c-2.2-0.1-5.7-1.5-6.2,2.2s3.3,2.6,5.3,3.2
			c1.5,0.4,3.2,0.3,4.8,0.6c2.7,0.5,3.4,2.7,1.6,4.8l0,0c-0.6,0.3-1.1,0.6-1.7,0.9c-0.2,0-0.4,0-0.6,0c-1.1,0.2-3,0.7-4.4,2.3
			c-0.3,0.4-1.9,2.1-1.3,3.2c0.4,0.7,1.4,0.9,2.1,1c1.5,0.2,2.5-0.2,6.2-1c1.6-0.4,2-0.4,2.5-0.3c1.2,0.3,2,1.4,2.8,2.7
			c1.3,2.2-0.1,3.4-1.7,4.5c-1,0.7-0.9,0.6-1.3,1c-0.9,0.9-2,2.8-1.2,4c0.6,1,2.1,1,2.2,1c1.3,0,2.2-1,2.3-1.1
			c0.5-0.5,1.3-1.2,2.5-1.8c0.7-0.3,1.4-0.7,2.3-0.6c1.1,0,1.8,0.6,4,2.4c1.4,1.2,2.5,2.1,3.2,2.7c2.2,1.4,5.2,3.1,8.9,4.8
			C42,162.4,50.2,166.1,61.9,168z"/>
		<path class="st5" d="M90.1,139.6c0-3.1,3.8-5.9,8.2-6c4-0.1,7.3,2.2,7.3,5c0,3.1-3.8,5.9-8.2,6C93.3,144.6,90.1,142.4,90.1,139.6z
			"/>
		<path class="st6" d="M73,145.8c-1.4,1.4-2.7,2.7-4.1,4.1c-0.2,0-0.4,0-0.5,0c-1.4-1.5-2.8-3-4.2-4.5c0.4-0.6,0.8-1.2,1.2-1.8
			c2.3,0.1,4.5,0.1,6.8,0.2C72.4,144.5,72.7,145.2,73,145.8z"/>
		<path class="st5" d="M42.7,144.5c-4.3,0-8.3-2.7-8.3-5.8c0-2.8,3.2-5.1,7.2-5.1c4.4,0,8.3,2.7,8.3,5.8
			C49.9,142.2,46.7,144.5,42.7,144.5z"/>
		<path class="st7" d="M64,156.6c0,0.1,0.2,1.9,1.3,3.2c2,2.2,6.3,2.1,8.7,0.2c0.3-0.3,1.5-1.3,2-2.9c0.2-0.8,0.5-1.8,0-2.4
			c-0.9-1.1-2.9,0.5-4.5-0.7c-0.6-0.5-0.9-1.2-2.3-2.3c-0.3-0.2-0.5-0.4-0.8-0.3c-0.6,0.1-0.6,1.1-1.4,1.9c-1,1-2.1,0.5-2.8,1.4
			C63.9,155.2,64,155.9,64,156.6z"/>
		<path class="st8" d="M58.7,150.3c0.1,0.6,0.6,2.8,2.2,4.2c0.7,0.6,1.5,1,2.3,1.1c1.8,0.2,3.1-0.9,3.7-1.4c1.8-1.5,2.2-3.5,2.3-4.2
			c-0.3,0-0.7,0-1,0c-0.1,0.3-0.3,0.7-0.5,1.1c-0.5,0.8-0.9,1.4-1.3,1.7c0,0-0.3,0.2-0.5,0.4c-0.2,0.1-1.9,1-3.4,0.3
			c-0.6-0.3-0.9-0.7-1.2-1c-1-1.2-1.1-2.6-1.1-3.3C59.7,149.5,59.2,149.9,58.7,150.3z"/>
		<path class="st8" d="M79.1,149.7c0,0.6-0.3,2.7-2,4.3c-0.4,0.4-2,1.9-4,1.6c-1.2-0.2-2-0.9-2.5-1.4c-1.6-1.5-2.1-3.3-2.2-4.2
			c0.3,0,0.6,0,0.8,0c0.1,0.2,0.1,0.4,0.2,0.6c0,0.1,0.1,0.3,0.3,0.5c0.1,0.2,0.4,0.6,0.7,1.1c0.2,0.2,0.7,0.8,1.4,1.1
			c1,0.5,2.3,0.5,3.3,0.1c1.5-0.7,2.5-2.3,2.5-4.2C78.2,149.3,78.6,149.5,79.1,149.7z"/>
		<path class="st9" d="M26.1,83c2.3-1.3,5.3-2.7,9.1-3.9c3.6-1.1,6.8-1.8,9.4-2.2c-1.2-2.1-2.5-3.7-3.5-4.9
			c-1.3-1.5-3.2-3.1-7.1-6.2c-1.2-0.9-2.3-1.8-3.5-1.6c-0.7,0.1-1.2,0.6-1.8,1.5c-1.7,2.4-2.2,4.6-2.3,5.3c-0.3,1.4-0.6,3.3-0.7,5.9
			C25.7,78.5,25.7,80.6,26.1,83z"/>
		<path class="st9" d="M121.7,86.2c-2.1-1.7-4.9-3.7-8.5-5.5c-3.4-1.7-6.5-2.8-9-3.6c1.5-2.2,3-3.8,4.1-5c1.5-1.5,3.6-3,7.9-6
			c1.3-0.9,2.5-1.7,3.7-1.4c0.7,0.2,1.1,0.9,1.6,1.9c1.3,2.8,1.5,5.4,1.6,6.1c0.1,1.6,0.1,3.8-0.2,6.7
			C122.7,81.2,122.4,83.5,121.7,86.2z"/>
		<path class="st10" d="M74.8,207.3c-0.4-0.1-0.9-0.3-1.5-0.4c-0.6-0.1-1.7-0.2-2.8,0.2c-1.6,0.6-2.3,2.1-2.5,2.5
			c0.1,0.4,0.1,0.7,0.2,1.1c0.1-0.2,0.2-0.4,0.4-0.6c0.1-0.2,1.2-1.6,3.1-2c1.6-0.4,2.8,0.3,3.2-0.3
			C74.9,207.8,74.9,207.5,74.8,207.3z"/>
		<path class="st10" d="M76.7,212.2c-0.4-0.1-0.9-0.1-1.6-0.1c-0.6,0-1.7,0.1-2.7,0.7c-1.4,0.9-1.9,2.4-2,2.9
			c0.1,0.4,0.2,0.7,0.3,1.1c0.1-0.2,0.1-0.4,0.3-0.7c0.1-0.2,0.9-1.8,2.7-2.5c1.6-0.6,2.8-0.2,3.1-0.8
			C76.8,212.6,76.7,212.4,76.7,212.2z"/>
		<path class="st10" d="M106.6,209.4c-0.4,0-0.9,0-1.6,0c-0.6,0.1-1.7,0.2-2.7,1c-1.4,1-1.7,2.6-1.7,3.1c0.1,0.3,0.3,0.7,0.4,1
			c0-0.2,0.1-0.4,0.2-0.7c0.1-0.2,0.8-1.8,2.4-2.7c1.5-0.8,2.8-0.4,3-1.1C106.7,209.7,106.6,209.5,106.6,209.4z"/>
		<path class="st10" d="M109.6,213.6c-0.4,0-0.9,0.1-1.6,0.3c-0.6,0.2-1.6,0.5-2.5,1.4c-1.2,1.2-1.2,2.8-1.2,3.3
			c0.2,0.3,0.4,0.6,0.6,1c0-0.2,0-0.4,0.1-0.7c0-0.2,0.4-1.9,2-3.1c1.3-1,2.7-0.9,2.8-1.6C109.8,213.9,109.7,213.7,109.6,213.6z"/>
	</g>
	<g id="cat_eat" class="st2">
		<path class="st3" d="M490.9,202.2c0,0-2.6-5.8-9-12.1c-0.2-0.2-1.1-1.1-2.4-1.8c-0.2-0.1-0.5-0.2-0.9-0.4
			c-1.9-0.8-2.6-1.2-2.9-1.3c-2.5-0.9-7.5,5.8-8,6.4c-2.6,3.5-2.7,5.3-4.6,8.3c-0.2,0.4-0.9,1.4-1.2,2.9c-0.1,0.5-0.2,0.9-0.2,1.2
			c1,0.6,2.1,1.3,3.2,2.3c0.6,0.6,1.2,1.1,1.7,1.6c0,0,0.9,1.1,1.3,2.6c0.9,4.4-1.2,9-6,10.5c-5.4,1.7-11.2,3.3-16.8,3.6
			c-12.3,0.6-24.7,0.2-37.1,0.3c-5.2,0-9.8,1.4-13,5.4c-4.4,10,2.6,18.6,14.6,17.8c8.5-0.6,17-0.2,25.5-0.7c9.5-0.6,19-1.3,28.4-2.8
			c15-2.3,24.6-10.4,29.2-23.2c1.3-3.5,1.3-6.7,1.2-9.1C493.7,208.4,492,204.5,490.9,202.2z"/>
		<path class="st3" d="M373.5,219.8c-7.7,2.1-14.6,0.2-16.9-4c-0.8-1.4-1.9-4.8-0.3-7.8c1.2-2.3,3.4-3.2,4.2-3.4c0-14.3,0-28.7,0-43
			c-1.4-3.3-0.9-7.1,1.3-9.9c3.3-4.1,8.4-3.6,8.7-3.6h1.9c6.8,0,12.3,5.5,12.3,12.3v43.8c0.1,0.9,0.7,6.4-3.3,11
			C378.5,218.6,374.7,219.5,373.5,219.8z"/>
		<path class="st3" d="M340.8,218.2c-7.7,2.1-14.6,0.2-16.9-4c-0.8-1.4-1.9-4.8-0.3-7.8c1.2-2.3,3.4-3.2,4.2-3.4c0-14.3,0-28.7,0-43
			c-1.4-3.3-0.9-7.1,1.3-9.9c3.3-4.1,8.4-3.6,8.7-3.6h1.9c6.8,0,12.3,5.5,12.3,12.3v43.8c0.1,0.9,0.7,6.4-3.3,11
			C345.9,217.1,342,218,340.8,218.2z"/>
		<path class="st3" d="M472.1,197.3c3.7-5,4.9-10,5.9-13.7c0.3-1.1,0.9-3.8,1.2-7.4c1.1-12.1-2.4-22.7-3.6-26.3
			c-3.4-10.1-8.5-17.6-12.5-22.6c-2.3-2.4-5.4-5.5-9.5-8.7c-3.8-3-7.8-6.2-13.7-9.1c-7-3.4-14.6-5.5-22.7-6.3
			c-1.5-0.1-3.1-0.4-5.9-0.7c-9.2-1-21.2-2.2-35.6-1.5c-12.7,0.6-19.1,0.8-26.2,3.4c-5.9,2.1-15,5.5-21.1,14.6
			c-4.1,6.1-5.3,12.4-5.6,14.6c-0.4,2.2-1.1,6.6-0.2,12c0.6,3.3,1.6,6.2,2.1,7.7c0.8,2.3,1.6,4.1,2.1,5.1
			c3.9,7.8,9.5,12.3,12.1,14.3c3.9,3,7.3,4.7,12.5,7.3c3.7,1.8,6.5,3,8.6,3.8c9.1,3.7,18.6,7.1,26.1,9.7c2.5,0.3,6.4,0.4,11.1-0.3
			c-0.7,3.7-1.8,6.6-1.8,9.6c-0.1,7.2,3.9,12.5,11,13.2c8,0.8,16.1,0.5,24.2,0.2c8.9-0.4,17.4-3,25.5-6.6c3.6-1.6,6-3.3,7.3-4.2
			C465.9,203.6,469.1,201.3,472.1,197.3z"/>
		<path class="st4" d="M317.4,168.5c16,2.6,28.5,0.4,32.1-0.3c1-0.2,5.1-1,10.3-2.7c4.8-1.6,10.2-3.4,16-7.5c1.3-0.9,2.3-1.7,3-2.3
			l2.8-2.5c2.8-2.4-2.8,2.5-2.8,2.5c-0.1-0.1,1-1.6,2.8-2.5c0.7-0.3,1.3-0.6,2-0.5c1.5,0.2,1.8,1.5,3.7,2.3c0.9,0.4,2.9,1,3.8,0.1
			c0.8-0.9,0.3-2.7-0.2-3.7c-0.2-0.4-0.4-1.1-1.6-1.8c-2-1.3-2.5-2.7-1.1-4.8c1.4-2.2,2.9-3.1,5.4-1.7c1.2,0.6,2.7,1,4,0.9
			c0.9,0,2.3-0.8,2.6-1.6c0.3-0.8-0.3-2.3-1-2.9c-0.7-0.6-1.1-0.5-3.7-1.7c-1.7-0.7-2.1-1-2.3-1.5c-0.3-0.6-0.3-1.3-0.3-2.2
			c0-0.8,0-1.2,0.2-1.6c0.5-1,1.7-1.5,3.1-1.5c3.3-0.2,3.9,0.1,5.8-0.6c1.3-0.5,3.1-1.7,2.9-2.9c-0.1-1.2-2.4-1.9-3.8-2.3
			c-3.6-1.1-5.3,0-6.5-1.2c-0.9-1-1-2.8-1.1-6.6c-0.6-17.7-2.8-35.1-7.4-52.2c-0.5-1.8-1.3-3.5-2.1-5.1c-2.3-5-6.3-6.6-11-3.6
			c-5.5,3.6-10.8,7.6-16.1,11.5c-1.9,1.4-3.4,3.2-5.3,4.4c-1.4,0.9-3.5,1.6-5,1.3c-10.3-2.1-20.5-2.1-30.9,0
			c-1.7,0.4-4.1-0.4-5.6-1.5c-7-5-13.8-10.3-20.8-15.4c-4.9-3.6-9.7-2.1-11.9,3.6c-1.1,3-2.3,6.1-2.9,9.2c-3.2,16.2-6.3,32.4-6.1,49
			c0,0.5,0,0.9-0.1,1.4c-0.5,5.6-0.5,5.4-6,5.1c-2.3-0.1-5.8-1.5-6.3,2.2c-0.5,3.7,3.3,2.6,5.4,3.2c1.5,0.4,3.2,0.3,4.8,0.6
			c2.7,0.5,3.4,2.7,1.6,4.8l0,0c-0.6,0.3-1.1,0.6-1.7,0.9c-0.2,0-0.4,0-0.6,0c-1.1,0.2-3,0.7-4.4,2.3c-0.3,0.4-1.9,2.1-1.3,3.2
			c0.4,0.7,1.4,0.9,2.2,1c1.6,0.2,2.6-0.2,6.3-1c1.6-0.4,2-0.4,2.5-0.3c1.2,0.3,2,1.4,2.8,2.7c1.3,2.2-0.1,3.4-1.7,4.5
			c-1,0.7-1,0.6-1.3,1c-0.9,0.9-2,2.8-1.2,4.1c0.6,1,2.1,1,2.3,1c1.4,0,2.2-1,2.3-1.1c0.5-0.5,1.3-1.2,2.5-1.8
			c0.7-0.3,1.4-0.7,2.3-0.6c1.1,0,1.8,0.6,4,2.5c1.4,1.2,2.6,2.1,3.3,2.7c2.2,1.4,5.2,3.1,9,4.8
			C297.4,162.9,305.6,166.6,317.4,168.5z"/>
		<path class="st3" d="M316.9,167.6c15.9,2.6,28.2,0.4,31.8-0.3c1-0.2,5.1-1,10.2-2.7c4.8-1.6,10.1-3.4,15.9-7.5
			c1.3-0.9,2.2-1.7,2.9-2.3l2.8-2.5c2.8-2.4-2.8,2.5-2.8,2.5c-0.1-0.1,1-1.6,2.8-2.5c0.6-0.3,1.2-0.6,2-0.5c1.5,0.2,1.8,1.5,3.7,2.3
			c0.9,0.4,2.9,1,3.8,0.1c0.8-0.8,0.3-2.6-0.2-3.6c-0.2-0.4-0.4-1.1-1.5-1.8c-2-1.3-2.5-2.7-1.1-4.8s2.9-3,5.4-1.7
			c1.2,0.6,2.7,1,4,0.9c0.9,0,2.3-0.8,2.5-1.6c0.3-0.8-0.3-2.3-1-2.8c-0.7-0.6-1.1-0.5-3.7-1.7c-1.7-0.7-2.1-1-2.3-1.4
			c-0.3-0.6-0.3-1.3-0.3-2.2c0-0.8,0-1.2,0.2-1.6c0.5-1,1.6-1.4,3-1.5c3.3-0.2,3.9,0.1,5.8-0.6c1.3-0.5,3-1.7,2.9-2.8
			c-0.1-1.2-2.4-1.9-3.7-2.3c-3.5-1.1-5.2,0-6.4-1.2c-0.9-0.9-1-2.8-1.1-6.5c-0.6-17.5-2.7-34.8-7.3-51.8c-0.5-1.7-1.3-3.4-2.1-5.1
			c-2.2-5-6.3-6.5-10.9-3.5c-5.5,3.5-10.7,7.5-15.9,11.4c-1.8,1.4-3.3,3.2-5.3,4.4c-1.4,0.9-3.4,1.6-5,1.3
			c-10.3-2-20.4-2.1-30.7,0.1c-1.7,0.4-4.1-0.4-5.6-1.5c-7-5.1-13.7-10.4-20.7-15.4c-4.9-3.5-9.6-2.1-11.8,3.5c-1.1,3-2.2,6-2.9,9.1
			c-3.2,16.1-6.2,32.1-6,48.6c0,0.5,0,0.9-0.1,1.4c-0.5,5.5-0.5,5.4-6,5.1c-2.2-0.1-5.7-1.5-6.2,2.2c-0.5,3.7,3.3,2.6,5.3,3.2
			c1.5,0.4,3.2,0.3,4.8,0.6c2.7,0.5,3.4,2.7,1.6,4.8l0,0c-0.6,0.3-1.1,0.6-1.7,0.9c-0.2,0-0.4,0-0.6,0c-1.1,0.2-3,0.7-4.4,2.3
			c-0.3,0.4-1.9,2.1-1.3,3.2c0.4,0.7,1.4,0.9,2.1,1c1.5,0.2,2.5-0.2,6.2-1c1.6-0.4,2-0.4,2.5-0.3c1.2,0.3,2,1.4,2.8,2.7
			c1.3,2.2-0.1,3.4-1.7,4.5c-1,0.7-0.9,0.6-1.3,1c-0.9,0.9-2,2.8-1.2,4c0.6,1,2.1,1,2.2,1c1.3,0,2.2-1,2.3-1.1
			c0.5-0.5,1.3-1.2,2.5-1.8c0.7-0.3,1.4-0.7,2.3-0.6c1.1,0,1.8,0.6,4,2.4c1.4,1.2,2.5,2.1,3.2,2.7c2.2,1.4,5.2,3.1,8.9,4.8
			C297,162,305.2,165.7,316.9,167.6z"/>
		<path class="st5" d="M345.1,139.2c0-3.1,3.8-5.9,8.2-6c4-0.1,7.3,2.2,7.3,5c0,3.1-3.8,5.9-8.2,6
			C348.3,144.2,345.1,142,345.1,139.2z"/>
		<path class="st6" d="M328,145.4c-1.4,1.4-2.7,2.7-4.1,4.1c-0.2,0-0.4,0-0.5,0c-1.4-1.5-2.8-3-4.2-4.5c0.4-0.6,0.8-1.2,1.2-1.8
			c2.3,0.1,4.5,0.1,6.8,0.2C327.4,144.1,327.7,144.8,328,145.4z"/>
		<path class="st5" d="M297.7,144.1c-4.3,0-8.3-2.7-8.3-5.8c0-2.8,3.2-5.1,7.2-5.1c4.4,0,8.3,2.7,8.3,5.8
			C304.9,141.8,301.7,144.1,297.7,144.1z"/>
		<path class="st11" d="M319,156.2c0,0.1,0.2,1.9,1.3,3.2c2,2.2,6.3,2.1,8.7,0.2c0.3-0.3,1.5-1.3,2-2.9c0.2-0.8,0.5-1.8,0-2.4
			c-0.9-1.1-2.9,0.5-4.5-0.7c-0.6-0.5-0.9-1.2-2.3-2.3c-0.3-0.2-0.5-0.4-0.8-0.3c-0.6,0.1-0.6,1.1-1.4,1.9c-1,1-2.1,0.5-2.8,1.4
			C318.9,154.8,319,155.5,319,156.2z"/>
		<path class="st8" d="M313.7,149.9c0.1,0.6,0.6,2.8,2.2,4.2c0.7,0.6,1.5,1,2.3,1.1c1.8,0.2,3.1-0.9,3.7-1.4
			c1.8-1.5,2.2-3.5,2.3-4.2c-0.3,0-0.7,0-1,0c-0.1,0.3-0.3,0.7-0.5,1.1c-0.5,0.8-0.9,1.4-1.3,1.7c0,0-0.3,0.2-0.5,0.4
			c-0.2,0.1-1.9,1-3.4,0.3c-0.6-0.3-0.9-0.7-1.2-1c-1-1.2-1.1-2.6-1.1-3.3C314.7,149.1,314.2,149.5,313.7,149.9z"/>
		<path class="st8" d="M334.1,149.3c0,0.6-0.3,2.7-2,4.3c-0.4,0.4-2,1.9-4,1.6c-1.2-0.2-2-0.9-2.5-1.4c-1.6-1.5-2.1-3.3-2.2-4.2
			c0.3,0,0.6,0,0.8,0c0.1,0.2,0.1,0.4,0.2,0.6c0,0.1,0.1,0.3,0.3,0.5c0.1,0.2,0.4,0.6,0.7,1.1c0.2,0.2,0.7,0.8,1.4,1.1
			c1,0.5,2.3,0.5,3.3,0.1c1.5-0.7,2.5-2.3,2.5-4.2C333.2,148.9,333.6,149.1,334.1,149.3z"/>
		<path class="st9" d="M281.1,82.6c2.3-1.3,5.3-2.7,9.1-3.9c3.6-1.1,6.8-1.8,9.4-2.2c-1.2-2.1-2.5-3.7-3.5-4.9
			c-1.3-1.5-3.2-3.1-7.1-6.2c-1.2-0.9-2.3-1.8-3.5-1.6c-0.7,0.1-1.2,0.6-1.8,1.5c-1.7,2.4-2.2,4.6-2.3,5.3c-0.3,1.4-0.6,3.3-0.7,5.9
			C280.7,78.1,280.7,80.2,281.1,82.6z"/>
		<path class="st9" d="M376.7,85.8c-2.1-1.7-4.9-3.7-8.5-5.5c-3.4-1.7-6.5-2.8-9-3.6c1.5-2.2,3-3.8,4.1-5c1.5-1.5,3.6-3,7.9-6
			c1.3-0.9,2.5-1.7,3.7-1.4c0.7,0.2,1.1,0.9,1.6,1.9c1.3,2.8,1.5,5.4,1.6,6.1c0.1,1.6,0.1,3.8-0.2,6.7
			C377.7,80.8,377.4,83.1,376.7,85.8z"/>
		<path class="st10" d="M329.8,206.9c-0.4-0.1-0.9-0.3-1.5-0.4c-0.6-0.1-1.7-0.2-2.8,0.2c-1.6,0.6-2.3,2.1-2.5,2.5
			c0.1,0.4,0.1,0.7,0.2,1.1c0.1-0.2,0.2-0.4,0.4-0.6c0.1-0.2,1.2-1.6,3.1-2c1.6-0.4,2.8,0.3,3.2-0.3
			C329.9,207.4,329.9,207.1,329.8,206.9z"/>
		<path class="st10" d="M331.7,211.8c-0.4-0.1-0.9-0.1-1.6-0.1c-0.6,0-1.7,0.1-2.7,0.7c-1.4,0.9-1.9,2.4-2,2.9
			c0.1,0.4,0.2,0.7,0.3,1.1c0.1-0.2,0.1-0.4,0.3-0.7c0.1-0.2,0.9-1.8,2.7-2.5c1.6-0.6,2.8-0.2,3.1-0.8
			C331.8,212.2,331.7,212,331.7,211.8z"/>
		<path class="st10" d="M361.6,209c-0.4,0-0.9,0-1.6,0c-0.6,0.1-1.7,0.2-2.7,1c-1.4,1-1.7,2.6-1.7,3.1c0.1,0.3,0.3,0.7,0.4,1
			c0-0.2,0.1-0.4,0.2-0.7c0.1-0.2,0.8-1.8,2.4-2.7c1.5-0.8,2.8-0.4,3-1.1C361.7,209.3,361.6,209.1,361.6,209z"/>
		<path class="st10" d="M364.6,213.2c-0.4,0-0.9,0.1-1.6,0.3c-0.6,0.2-1.6,0.5-2.5,1.4c-1.2,1.2-1.2,2.8-1.2,3.3
			c0.2,0.3,0.4,0.6,0.6,1c0-0.2,0-0.4,0.1-0.7c0-0.2,0.4-1.9,2-3.1c1.3-1,2.7-0.9,2.8-1.6C364.8,213.5,364.7,213.3,364.6,213.2z"/>
	</g>
	<path class="st12" d="M436,57.6c-2.5-1.8-6-0.8-7.9,0.4c-2.4,1.4-3.4,3.7-3.7,4.8c-0.4-1.1-1.4-3.3-3.7-4.8
		c-1.9-1.2-5.5-2.2-7.9-0.4c-2.3,1.7-2.3,5-2.3,5.9c0,0.8,0.1,3.6,4.1,8.5c1.8,2.2,4.9,5.4,9.7,8.2c0,0,0,0,0,0.1l0,0l0,0
		c0,0,0,0,0-0.1c4.8-2.8,7.9-6,9.7-8.2c4-4.8,4.1-7.7,4.1-8.5C438.3,62.6,438.3,59.4,436,57.6z"/>
</g>
<g class="st1">
	<g id="cat_play" class="st2">
		<path class="st3" d="M233.2,222.9"/>
		<path class="st3" d="M215.4,163.3"/>
		<path class="st3" d="M217.6,155.8c-6.4,14.7-7.4,27.2-7.6,30.9c-0.1,1-0.3,5.1,0.1,10.5c0.4,5,0.8,10.6,3.3,17.2
			c0.6,1.4,1.1,2.6,1.5,3.4l1.7,3.3c1.7,3.3-1.7-3.3-1.7-3.3c0.1,0,1.3,1.3,1.7,3.3c0.1,0.7,0.3,1.4,0,2.1c-0.5,1.4-1.9,1.4-3.1,3
			c-0.6,0.8-1.7,2.6-1,3.6c0.6,1,2.5,0.9,3.6,0.7c0.4-0.1,1.2-0.2,2.1-1.1c1.7-1.6,3.2-1.8,4.9,0.1c1.7,1.9,2.2,3.5,0.3,5.6
			c-0.9,1-1.6,2.3-1.9,3.6c-0.2,0.9,0.2,2.4,0.9,2.8c0.7,0.5,2.3,0.3,3-0.2c0.7-0.6,0.8-0.9,2.5-3.2c1.1-1.5,1.5-1.8,2-1.9
			c0.7-0.2,1.3,0,2.2,0.2c0.8,0.2,1.2,0.3,1.5,0.6c0.8,0.7,1,2,0.7,3.3c-0.6,3.2-1.1,3.8-0.9,5.7c0.2,1.4,0.9,3.4,2,3.5
			c1.2,0.2,2.4-1.8,3.2-3c1.9-3.2,1.2-5.1,2.7-5.9c1.1-0.7,2.9-0.2,6.6,0.6c17.1,3.8,34.4,6,52,5.7c1.8,0,3.6-0.4,5.4-0.7
			c5.4-0.9,7.9-4.5,6.1-9.7c-2.1-6.2-4.6-12.2-7.1-18.2c-0.9-2.1-2.3-4-2.9-6.2c-0.5-1.6-0.7-3.7,0-5.2c4.5-9.4,7.1-19.3,7.5-29.7
			c0.1-1.7,1.4-3.8,2.8-5c6.5-5.5,13.3-10.8,19.9-16.3c4.6-3.9,4.4-8.8-0.5-12.3c-2.6-1.8-5.3-3.7-8.2-5c-14.8-7-29.6-14-45.6-17.9
			c-0.4-0.1-0.9-0.3-1.3-0.4c-5.2-1.8-5.1-1.8-3.5-7c0.7-2.2,2.8-5.3-0.5-6.6c-3.4-1.4-3.3,2.5-4.4,4.4c-0.8,1.4-1.1,3-1.7,4.5
			c-1.1,2.5-3.5,2.6-5,0.4l0,0c-0.2-0.6-0.3-1.2-0.5-1.8c0-0.2,0.1-0.4,0.1-0.6c0.1-1.1,0-3-1.1-4.8c-0.3-0.4-1.5-2.3-2.8-2.1
			c-0.8,0.2-1.2,1.1-1.5,1.8c-0.6,1.4-0.5,2.5-0.5,6.3c0,1.7-0.1,2-0.3,2.5c-0.6,1.1-1.8,1.6-3.3,2c-2.5,0.7-3.2-0.9-3.9-2.7
			c-0.4-1.2-0.4-1.1-0.7-1.5c-0.7-1.1-2.2-2.6-3.6-2.2c-1.1,0.4-1.4,1.8-1.5,1.9c-0.3,1.3,0.4,2.3,0.5,2.5c0.4,0.6,0.9,1.6,1.1,2.9
			c0.1,0.8,0.3,1.5,0,2.4c-0.3,1-1,1.6-3.3,3.3c-1.5,1.1-2.7,1.9-3.4,2.5c-1.9,1.8-4.3,4.3-6.8,7.5
			C227.9,137.8,222.3,144.9,217.6,155.8z"/>
		<path class="st5" d="M249.4,197.1c3,0.7,4.8,5.1,3.8,9.4c-0.9,3.9-3.9,6.5-6.6,5.9c-3-0.7-4.8-5.2-3.8-9.4
			C243.7,199.1,246.6,196.5,249.4,197.1z"/>
		<path class="st6" d="M247.5,179c-1-1.7-2-3.3-3-5c0-0.2,0.1-0.4,0.1-0.5c1.8-1,3.6-2,5.4-3c0.5,0.5,1,1,1.5,1.6
			c-0.6,2.2-1.2,4.4-1.9,6.6C249,178.8,248.2,178.9,247.5,179z"/>
		<path class="st5" d="M256.3,150c1-4.2,4.7-7.4,7.7-6.6c2.7,0.7,4.1,4.4,3.2,8.3c-1.1,4.3-4.6,7.4-7.7,6.6
			C256.7,157.6,255.3,153.9,256.3,150z"/>
		<path class="st8" d="M246.7,164.1c-0.6,0-2.9-0.1-4.6,1.1c-0.8,0.5-1.3,1.2-1.6,2c-0.7,1.7,0.1,3.3,0.5,3.9c1,2.1,2.9,3,3.5,3.3
			c0.1-0.3,0.1-0.6,0.2-1c-0.3-0.2-0.6-0.4-1-0.8c-0.7-0.7-1.1-1.2-1.3-1.7c0,0-0.1-0.3-0.2-0.6c-0.1-0.2-0.5-2.1,0.6-3.4
			c0.4-0.5,0.9-0.7,1.3-0.9c1.4-0.6,2.8-0.5,3.5-0.3C247.2,165.2,247,164.7,246.7,164.1z"/>
		<path class="st8" d="M242.3,184c-0.6-0.2-2.5-0.9-3.7-3c-0.3-0.5-1.3-2.4-0.5-4.3c0.5-1.1,1.4-1.7,2-2.1c1.8-1.2,3.7-1.2,4.6-1.1
			c-0.1,0.3-0.2,0.5-0.3,0.8c-0.2,0-0.4,0-0.6,0.1c-0.1,0-0.3,0-0.6,0.1c-0.2,0-0.7,0.2-1.2,0.4c-0.2,0.1-0.9,0.5-1.4,1.1
			c-0.7,0.8-1.1,2.1-0.9,3.2c0.3,1.7,1.6,3,3.4,3.5C242.8,183.2,242.6,183.6,242.3,184z"/>
		<path class="st9" d="M308.7,142c0.7,2.5,1.3,5.8,1.5,9.8c0.2,3.7,0.1,7-0.2,9.7c2.3-0.7,4.2-1.5,5.6-2.2c1.7-0.9,3.8-2.4,7.8-5.4
			c1.2-0.9,2.3-1.8,2.4-3c0.1-0.7-0.3-1.3-1-2.1c-1.9-2.2-3.9-3.2-4.5-3.5c-1.3-0.6-3.1-1.4-5.6-2.1
			C313.2,142.8,311.2,142.3,308.7,142z"/>
		<path class="st9" d="M282,233.9c2.2-1.6,4.8-3.9,7.4-6.9c2.5-2.8,4.4-5.6,5.7-7.9c1.7,2,3,3.9,3.8,5.2c1.1,1.8,2,4.2,3.9,9.2
			c0.6,1.5,1.1,2.9,0.4,3.9c-0.4,0.6-1.1,0.9-2.2,1.1c-3.1,0.6-5.6,0.1-6.3,0c-1.6-0.3-3.7-0.8-6.4-1.8
			C286.6,236.1,284.4,235.2,282,233.9z"/>
		<path class="st13" d="M213.7,108.5c8,0,14.1,3.7,15.1,8.4c0.4,1.6,0.6,5.1-1.9,7.6c-1.8,1.8-4.2,2.1-5,2.2
			c-3.9,13.8-7.8,27.6-11.8,41.4c0.4,3.6-1.1,7.1-4,9.2c-4.3,3.1-9.1,1.2-9.4,1.1l-1.8-0.5c-6.6-1.9-10.4-8.7-8.5-15.2l12-42.1
			c0.1-0.9,1.1-6.3,6.2-9.6C208.6,108.2,212.5,108.4,213.7,108.5z"/>
		<path class="st3" d="M157.6,108.4c6.6-4.5,13.7-4.9,17.2-1.7c1.2,1.1,3.4,3.9,2.8,7.3c-0.5,2.5-2.2,4.1-2.9,4.6
			c4.6,13.6,9.2,27.2,13.9,40.7c2.4,2.7,3.1,6.4,1.9,9.8c-1.8,4.9-6.8,6.2-7.1,6.2l-1.8,0.6c-6.5,2.2-13.5-1.3-15.7-7.7l-14.1-41.5
			c-0.4-0.8-2.7-5.8-0.4-11.4C153.2,111.1,156.6,109,157.6,108.4z"/>
		<path class="st10" d="M221.2,122.3c0.3,0.2,0.8,0.5,1.4,0.8c0.6,0.2,1.6,0.7,2.8,0.5c1.7-0.2,2.8-1.4,3.1-1.8
			c0.1-0.4,0.1-0.7,0.2-1.1c-0.1,0.1-0.3,0.3-0.5,0.5c-0.2,0.1-1.6,1.2-3.5,1.1c-1.7-0.1-2.6-1-3.1-0.6
			C221.2,121.9,221.2,122.2,221.2,122.3z"/>
		<path class="st10" d="M220.8,117.1c0.3,0.2,0.9,0.4,1.5,0.5s1.7,0.4,2.8,0.1c1.6-0.5,2.5-1.8,2.7-2.2c0-0.4,0-0.8,0-1.1
			c-0.1,0.1-0.2,0.3-0.4,0.6c-0.2,0.2-1.4,1.4-3.3,1.6c-1.7,0.2-2.8-0.6-3.2-0.1C220.7,116.7,220.8,117,220.8,117.1z"/>
		<path class="st10" d="M172.4,114.8c0.4-0.1,0.9-0.3,1.5-0.6c0.6-0.3,1.5-0.8,2.2-1.8c1-1.4,0.7-3,0.6-3.5
			c-0.3-0.3-0.5-0.6-0.8-0.8c0,0.2,0,0.4,0,0.7c0,0.2-0.1,2-1.4,3.4c-1.2,1.2-2.5,1.3-2.5,2C172.1,114.5,172.3,114.7,172.4,114.8z"
			/>
		<path class="st10" d="M168.2,111.8c0.4-0.2,0.8-0.4,1.4-0.8c0.5-0.4,1.4-1,1.9-2.1c0.7-1.5,0.2-3.1,0.1-3.5
			c-0.3-0.2-0.6-0.5-0.9-0.7c0,0.2,0.1,0.4,0.1,0.7c0,0.2,0.2,2-0.9,3.5c-0.9,1.4-2.3,1.7-2.1,2.4
			C167.8,111.5,168.1,111.7,168.2,111.8z"/>
		<path class="st3" d="M55.4,185.1c-3-3.9-2.2-8.9-1.2-14.9c1.4-8.8,3.8-9,4.5-15.9c0.8-8.3-1.9-14.9-3.2-18
			c-1.5-3.5-3.4-8-7.9-11.8c-3.4-2.9-6.7-4.1-8.8-4.9c-10.4-3.7-19.7-1.1-21.3-0.6c-3.3,1-15,4.6-16.8,12.8c-0.1,0.5-1,5,1.4,7.2
			c2.3,2.2,6.5,1.1,10,0.1c6.4-1.7,7-4,12-4.8c1.7-0.3,6.5-1.1,10.4,1.5c5.6,3.7,5.7,12.2,5.7,15.2c0.1,9.4-4.2,11.8-6.1,21
			c-1.6,7.8-0.8,17.8,3.2,24.5c6.8,11.2,24.3,16,43.1,12.2c0.2-6.8,0.4-13.7,0.6-20.5c-2.7,1-7.8,2.6-14.1,1.8
			C63.2,189.5,58.3,188.9,55.4,185.1z"/>
		<path class="st13" d="M122.5,111.4c7.8-1.4,14.5,1.1,16.4,5.5c0.6,1.5,1.5,4.9-0.4,7.8c-1.4,2.1-3.7,2.8-4.5,3.1
			c-1.3,14.3-2.6,28.6-3.9,42.8c1.1,3.4,0.2,7.2-2.2,9.7c-3.6,3.8-8.7,2.9-9,2.8l-1.8-0.2c-6.8-0.6-11.8-6.6-11.2-13.4l3.9-43.6
			c0-0.9-0.1-6.4,4.3-10.6C117.4,112,121.3,111.5,122.5,111.4z"/>
		<path class="st3" d="M66,122.5c4.8-6.3,11.5-9,15.8-7c1.5,0.7,4.4,2.6,4.9,6.1c0.4,2.6-0.8,4.6-1.3,5.3
			c8.6,11.4,17.3,22.9,25.9,34.3c3.1,1.8,5,5.1,4.9,8.7c-0.1,5.2-4.5,8-4.8,8.1l-1.5,1.1c-5.4,4.1-13.2,3-17.3-2.4l-26.3-34.9
			c-0.6-0.7-4.4-4.7-4-10.7C62.6,126.5,65.2,123.5,66,122.5z"/>
		<path class="st3" d="M85.4,177c-4.7,8-5.1,15.7-5.3,20.7c-0.5,10.2,2,18.4,3.9,23c2.1,2.7,5.4,6.5,10.4,9.8c5.4,3.6,10,4.8,18.8,7
			c4.6,1.2,13.2,3.1,24.3,3.6c2,0.1,3.5,0.1,6.9,0.1c18.2,0,27.2,0.1,35.8-0.5c13-0.9,19.5-1.4,26.1-3.9c5.8-2.2,14.9-5.8,20.8-15.1
			c4-6.2,5-12.5,5.3-14.7s1-6.6-0.1-12c-0.6-3.3-1.7-6.2-2.3-7.6c-0.9-2.3-1.7-4.1-2.2-5c-4-7.7-9.8-12.1-12.3-14
			c-3.9-2.9-7.4-4.5-12.6-7c-1-0.5-2-0.9-2.9-1.3c0,0-3-1.3-5.7-2.3c-3.2-1.2-13.9-2.8-28.6-3.3c-5.2,0.1-10.4,0.2-15.7,0.3
			c-4.9-0.3-11.7-0.4-19.7,0.4c-7.5,0.7-14.3,1.1-22,4.2C103.1,161.4,92.1,165.8,85.4,177z"/>
		<path class="st10" d="M132.4,123.6c0.4,0.2,0.9,0.4,1.5,0.5s1.7,0.4,2.8,0c1.6-0.5,2.4-1.9,2.7-2.3c0-0.4,0-0.8-0.1-1.1
			c-0.1,0.1-0.2,0.3-0.4,0.6c-0.2,0.2-1.3,1.5-3.2,1.7c-1.7,0.2-2.8-0.5-3.2,0C132.4,123.1,132.4,123.4,132.4,123.6z"/>
		<path class="st10" d="M131,118.6c0.4,0.1,0.9,0.2,1.6,0.2c0.6,0,1.7,0.1,2.8-0.5c1.5-0.8,2.1-2.2,2.3-2.7
			c-0.1-0.4-0.2-0.7-0.2-1.1c-0.1,0.2-0.2,0.4-0.3,0.6s-1.1,1.7-2.9,2.2c-1.6,0.5-2.8-0.1-3.2,0.5C130.9,118.1,131,118.4,131,118.6z
			"/>
		<path class="st10" d="M82,124c0.3-0.2,0.8-0.5,1.2-1c0.4-0.4,1.2-1.2,1.5-2.4c0.5-1.6-0.2-3.1-0.5-3.5c-0.3-0.2-0.7-0.4-1-0.6
			c0.1,0.2,0.2,0.4,0.2,0.7c0.1,0.2,0.5,1.9-0.3,3.6c-0.7,1.5-2,2-1.7,2.7C81.6,123.8,81.9,123.9,82,124z"/>
		<path class="st10" d="M77.1,122.4c0.3-0.3,0.7-0.6,1.1-1.2c0.4-0.5,1-1.4,1.1-2.6c0.2-1.7-0.7-3-1-3.4c-0.4-0.1-0.7-0.3-1.1-0.4
			c0.1,0.1,0.2,0.4,0.3,0.6c0.1,0.2,0.8,1.8,0.3,3.6c-0.5,1.6-1.6,2.3-1.3,2.9C76.6,122.3,76.9,122.4,77.1,122.4z"/>
	</g>
	<g id="Ebene_13" class="st2">
		<path class="st3" d="M585.3,223.2"/>
		<path class="st3" d="M567.6,163.6"/>
		<path class="st3" d="M569.7,156c-6.4,14.7-7.4,27.2-7.6,30.9c-0.1,1-0.3,5.1,0.1,10.5c0.4,5,0.8,10.6,3.3,17.2
			c0.6,1.4,1.1,2.6,1.5,3.4l1.7,3.3c1.7,3.3-1.7-3.3-1.7-3.3c0.1,0,1.3,1.3,1.7,3.3c0.1,0.7,0.3,1.4,0,2.1c-0.5,1.4-1.9,1.4-3.1,3
			c-0.6,0.8-1.7,2.6-1,3.6c0.6,1,2.5,0.9,3.6,0.7c0.4-0.1,1.2-0.2,2.1-1.1c1.7-1.6,3.2-1.8,4.9,0.1c1.7,1.9,2.2,3.5,0.3,5.6
			c-0.9,1-1.6,2.3-1.9,3.6c-0.2,0.9,0.2,2.4,0.9,2.8c0.7,0.5,2.3,0.3,3-0.2c0.7-0.6,0.8-0.9,2.5-3.2c1.1-1.5,1.5-1.8,2-1.9
			c0.7-0.2,1.3,0,2.2,0.2c0.8,0.2,1.2,0.3,1.5,0.6c0.8,0.7,1,2,0.7,3.3c-0.6,3.2-1.1,3.8-0.9,5.7c0.2,1.4,0.9,3.4,2,3.5
			c1.2,0.2,2.4-1.8,3.2-3c1.9-3.2,1.2-5.1,2.7-5.9c1.1-0.7,2.9-0.2,6.6,0.6c17.1,3.8,34.4,6,52,5.7c1.8,0,3.6-0.4,5.4-0.7
			c5.4-0.9,7.9-4.5,6.1-9.7c-2.1-6.2-4.6-12.2-7.1-18.2c-0.9-2.1-2.3-4-2.9-6.2c-0.5-1.6-0.7-3.7,0-5.2c4.5-9.4,7.1-19.3,7.5-29.7
			c0.1-1.7,1.4-3.8,2.8-5c6.5-5.5,13.3-10.8,19.9-16.3c4.6-3.9,4.4-8.8-0.5-12.3c-2.6-1.8-5.3-3.7-8.2-5c-14.8-7-29.6-14-45.6-17.9
			c-0.4-0.1-0.9-0.3-1.3-0.4c-5.2-1.8-5.1-1.8-3.5-7c0.7-2.2,2.8-5.3-0.5-6.6c-3.4-1.4-3.3,2.5-4.4,4.4c-0.8,1.4-1.1,3-1.7,4.5
			c-1.1,2.5-3.5,2.6-5,0.4l0,0c-0.2-0.6-0.3-1.2-0.5-1.8c0-0.2,0.1-0.4,0.1-0.6c0.1-1.1,0-3-1.1-4.8c-0.3-0.4-1.5-2.3-2.8-2.1
			c-0.8,0.2-1.2,1.1-1.5,1.8c-0.6,1.4-0.5,2.5-0.5,6.3c0,1.7-0.1,2-0.3,2.5c-0.6,1.1-1.8,1.6-3.3,2c-2.5,0.7-3.2-0.9-3.9-2.7
			c-0.4-1.2-0.4-1.1-0.7-1.5c-0.7-1.1-2.2-2.6-3.6-2.2c-1.1,0.4-1.4,1.8-1.5,1.9c-0.3,1.3,0.4,2.3,0.5,2.5c0.4,0.6,0.9,1.6,1.1,2.9
			c0.1,0.8,0.3,1.5,0,2.4c-0.3,1-1,1.6-3.3,3.3c-1.5,1.1-2.7,1.9-3.4,2.5c-1.9,1.8-4.3,4.3-6.8,7.5C580,138.1,574.5,145.2,569.7,156
			z"/>
		<path class="st5" d="M601.5,197.4c0.9-0.3,5,4.6,3.8,9.4c-1.1,4.2-5.9,6.5-6.6,5.9c-0.6-0.5,1.9-2.8,2.8-7.4
			C602.4,200.6,600.9,197.6,601.5,197.4z"/>
		<path class="st6" d="M599.7,179.3c-1-1.7-2-3.3-3-5c0-0.2,0.1-0.4,0.1-0.5c1.8-1,3.6-2,5.4-3c0.5,0.5,1,1,1.5,1.6
			c-0.6,2.2-1.2,4.4-1.9,6.6C601.1,179.1,600.4,179.2,599.7,179.3z"/>
		<path class="st5" d="M615,151.3c1.3-4.5,0.3-7.4,1.1-7.6c1-0.2,4.1,4.1,3.2,8.3c-1.1,4.8-7,7.3-7.7,6.6
			C611.1,158,613.7,156,615,151.3z"/>
		<path class="st8" d="M598.9,164.4c-0.6,0-2.9-0.1-4.6,1.1c-0.8,0.5-1.3,1.2-1.6,2c-0.7,1.7,0.1,3.3,0.5,3.9c1,2.1,2.9,3,3.5,3.3
			c0.1-0.3,0.1-0.6,0.2-1c-0.3-0.2-0.6-0.4-1-0.8c-0.7-0.7-1.1-1.2-1.3-1.7c0,0-0.1-0.3-0.2-0.6c-0.1-0.2-0.5-2.1,0.6-3.4
			c0.4-0.5,0.9-0.7,1.3-0.9c1.4-0.6,2.8-0.5,3.5-0.3C599.4,165.5,599.1,164.9,598.9,164.4z"/>
		<path class="st8" d="M594.5,184.3c-0.6-0.2-2.5-0.9-3.7-3c-0.3-0.5-1.3-2.4-0.5-4.3c0.5-1.1,1.4-1.7,2-2.1
			c1.8-1.2,3.7-1.2,4.6-1.1c-0.1,0.3-0.2,0.5-0.3,0.8c-0.2,0-0.4,0-0.6,0.1c-0.1,0-0.3,0-0.6,0.1c-0.2,0-0.7,0.2-1.2,0.4
			c-0.2,0.1-0.9,0.5-1.4,1.1c-0.7,0.8-1.1,2.1-0.9,3.2c0.3,1.7,1.6,3,3.4,3.5C595,183.5,594.7,183.9,594.5,184.3z"/>
		<path class="st9" d="M660.9,142.3c0.7,2.5,1.3,5.8,1.5,9.8c0.2,3.7,0.1,7-0.2,9.7c2.3-0.7,4.2-1.5,5.6-2.2
			c1.7-0.9,3.8-2.4,7.8-5.4c1.2-0.9,2.3-1.8,2.4-3c0.1-0.7-0.3-1.3-1-2.1c-1.9-2.2-3.9-3.2-4.5-3.5c-1.3-0.6-3.1-1.4-5.6-2.1
			C665.4,143,663.3,142.6,660.9,142.3z"/>
		<path class="st9" d="M634.2,234.2c2.2-1.6,4.8-3.9,7.4-6.9c2.5-2.8,4.4-5.6,5.7-7.9c1.7,2,3,3.9,3.8,5.2c1.1,1.8,2,4.2,3.9,9.2
			c0.6,1.5,1.1,2.9,0.4,3.9c-0.4,0.6-1.1,0.9-2.2,1.1c-3.1,0.6-5.6,0.1-6.3,0c-1.6-0.3-3.7-0.8-6.4-1.8
			C638.8,236.4,636.6,235.5,634.2,234.2z"/>
		<path class="st13" d="M518.7,106.8c7.2-3.5,14.3-2.9,17.3,0.9c1,1.2,2.8,4.3,1.7,7.6c-0.8,2.4-2.8,3.7-3.5,4.1
			c2.6,14.1,5.2,28.2,7.7,42.3c2,3,2.2,6.8,0.5,10c-2.5,4.6-7.6,5.1-7.9,5.1l-1.8,0.3c-6.7,1.2-13.1-3.2-14.4-9.9l-7.9-43.1
			c-0.3-0.9-1.8-6.2,1.3-11.4C513.9,108.8,517.5,107.2,518.7,106.8z"/>
		<path class="st3" d="M568.1,107.5c7.9,1.2,13.4,5.8,13.7,10.6c0.1,1.6-0.2,5.1-3,7.2c-2.1,1.5-4.4,1.5-5.3,1.4
			c-5.9,13-11.8,26.1-17.8,39.1c-0.1,3.6-2.1,6.8-5.3,8.5c-4.7,2.4-9.2-0.2-9.4-0.3l-1.7-0.8c-6.2-2.8-8.9-10.1-6.1-16.3l18.1-39.9
			c0.3-0.9,2.1-6.1,7.5-8.6C563,106.4,566.9,107.2,568.1,107.5z"/>
		<path class="st10" d="M531.5,115.9c0.4,0.1,0.9,0.1,1.6,0.1c0.6,0,1.7-0.1,2.7-0.8c1.4-0.9,1.9-2.5,2-2.9
			c-0.1-0.4-0.2-0.7-0.4-1.1c-0.1,0.2-0.1,0.4-0.3,0.7c-0.1,0.2-0.9,1.8-2.6,2.5c-1.5,0.7-2.8,0.2-3.1,0.9
			C531.3,115.5,531.4,115.7,531.5,115.9z"/>
		<path class="st10" d="M528.8,111.4c0.4,0,0.9,0,1.6-0.2c0.6-0.1,1.7-0.4,2.6-1.2c1.3-1.1,1.4-2.7,1.5-3.2c-0.2-0.3-0.4-0.7-0.5-1
			c0,0.2-0.1,0.4-0.2,0.7c-0.1,0.2-0.6,1.9-2.2,2.9c-1.4,0.9-2.8,0.7-2.9,1.4C528.6,111.1,528.7,111.3,528.8,111.4z"/>
		<path class="st10" d="M574.5,122.3c0.3,0.2,0.8,0.4,1.5,0.6c0.6,0.2,1.7,0.5,2.8,0.2c1.6-0.4,2.6-1.7,2.9-2.1c0-0.4,0-0.8,0-1.1
			c-0.1,0.1-0.3,0.3-0.5,0.5s-1.5,1.4-3.3,1.5c-1.7,0.1-2.7-0.8-3.2-0.2C574.4,121.8,574.4,122.1,574.5,122.3z"/>
		<path class="st10" d="M573.5,117.2c0.4,0.1,0.9,0.3,1.5,0.4s1.7,0.2,2.8-0.2c1.6-0.6,2.3-2.1,2.5-2.5c-0.1-0.4-0.1-0.7-0.2-1.1
			c-0.1,0.2-0.2,0.4-0.4,0.6c-0.1,0.2-1.2,1.6-3.1,2c-1.6,0.4-2.8-0.3-3.2,0.3C573.4,116.7,573.4,117,573.5,117.2z"/>
		<path class="st3" d="M411.5,182c-3.7-3.1-4.1-8.2-4.6-14.2c-0.6-8.9,1.7-9.6,0.8-16.5c-1.1-8.2-5.2-14.1-7.2-16.9
			c-2.2-3.1-5.1-7-10.4-9.7c-4-2.1-7.5-2.5-9.7-2.7c-11-1.3-19.4,3.4-20.9,4.2c-2.9,1.6-13.5,7.7-13.4,16.2c0,0.5,0.1,5.1,3,6.7
			c2.8,1.6,6.6-0.4,9.8-2.1c5.8-3.1,5.9-5.4,10.6-7.4c1.6-0.6,6.1-2.5,10.5-0.9c6.3,2.3,8.3,10.6,9,13.5c2.2,9.1-1.4,12.5-1.2,21.8
			c0.2,8,3.2,17.5,8.7,23.1c9.1,9.4,27.2,10.1,44.8,2.1c-1.4-6.7-2.7-13.4-4.1-20.1c-2.3,1.6-7,4.3-13.3,4.9
			C420.1,184.5,415.1,185,411.5,182z"/>
		<path class="st13" d="M437.1,119.3c6.7-4.3,13.9-4.5,17.3-1.1c1.1,1.1,3.2,4,2.5,7.4c-0.5,2.5-2.4,4-3,4.5
			c4.2,13.7,8.3,27.4,12.5,41.2c2.3,2.8,2.9,6.5,1.6,9.8c-1.9,4.9-7,5.9-7.3,6l-1.8,0.5c-6.5,2-13.4-1.7-15.4-8.2l-12.7-41.9
			c-0.4-0.9-2.5-5.9,0-11.4C432.6,121.8,436,119.9,437.1,119.3z"/>
		<path class="st3" d="M473.2,110.4c7.7-1.9,14.6,0.2,16.7,4.4c0.7,1.4,1.8,4.8,0,7.8c-1.3,2.2-3.5,3.1-4.3,3.3
			c-0.4,14.3-0.8,28.7-1.2,43c1.3,3.3,0.7,7.1-1.6,9.9c-3.4,4-8.5,3.4-8.8,3.4l-1.8-0.1c-6.8-0.2-12.2-5.9-12-12.7l1.2-43.8
			c-0.1-0.9-0.5-6.4,3.6-10.9C468.1,111.4,472,110.6,473.2,110.4z"/>
		<path class="st3" d="M437.6,177.3c-4.7,8-5.1,15.7-5.3,20.7c-0.5,10.2,2,18.4,3.9,23c2.1,2.7,5.4,6.5,10.4,9.8
			c5.4,3.6,10,4.8,18.8,7c4.6,1.2,13.2,3.1,24.3,3.6c2,0.1,3.5,0.1,6.9,0.1c18.2,0,27.2,0.1,35.8-0.5c13-0.9,19.5-1.4,26.1-3.9
			c5.8-2.2,14.9-5.8,20.8-15.1c4-6.2,5-12.5,5.3-14.7s1-6.6-0.1-12c-0.6-3.3-1.7-6.2-2.3-7.6c-0.9-2.3-1.7-4.1-2.2-5
			c-4-7.7-9.8-12.1-12.3-14c-3.9-2.9-7.4-4.5-12.6-7c-1-0.5-2-0.9-2.9-1.3c0,0-3-1.3-5.7-2.3c-3.2-1.2-13.9-2.8-28.6-3.3
			c-5.2,0.1-10.4,0.2-15.7,0.3c-4.9-0.3-11.7-0.4-19.7,0.4c-7.5,0.7-14.3,1.1-22,4.2C455.3,161.7,444.3,166,437.6,177.3z"/>
		<path class="st10" d="M450.9,126.9c0.4,0,0.9,0,1.6-0.1c0.6-0.1,1.7-0.3,2.6-1.1c1.3-1.1,1.6-2.7,1.6-3.2c-0.2-0.3-0.3-0.7-0.5-1
			c0,0.2-0.1,0.4-0.2,0.7c-0.1,0.2-0.7,1.9-2.3,2.8c-1.5,0.8-2.8,0.5-3,1.2C450.7,126.5,450.8,126.7,450.9,126.9z"/>
		<path class="st10" d="M447.7,122.8c0.4,0,0.9-0.1,1.5-0.4c0.6-0.2,1.6-0.6,2.4-1.5c1.1-1.3,1.1-2.9,1.1-3.4
			c-0.2-0.3-0.4-0.6-0.6-0.9c0,0.2,0,0.4-0.1,0.7c0,0.2-0.4,2-1.8,3.1c-1.3,1-2.7,1-2.7,1.7C447.5,122.4,447.6,122.6,447.7,122.8z"
			/>
		<path class="st10" d="M484.8,121.6c0.4,0,0.9,0.1,1.6,0c0.6-0.1,1.7-0.2,2.7-0.9c1.4-1,1.7-2.5,1.8-3c-0.1-0.4-0.3-0.7-0.4-1.1
			c0,0.2-0.1,0.4-0.2,0.7c-0.1,0.2-0.8,1.8-2.5,2.6c-1.5,0.7-2.8,0.4-3,1C484.6,121.2,484.7,121.4,484.8,121.6z"/>
		<path class="st10" d="M481.9,117.2c0.4,0,0.9-0.1,1.6-0.3c0.6-0.2,1.7-0.5,2.5-1.3c1.2-1.2,1.3-2.8,1.3-3.3
			c-0.2-0.3-0.4-0.6-0.6-1c0,0.2,0,0.4-0.1,0.7c-0.1,0.2-0.5,1.9-2.1,3c-1.4,1-2.7,0.8-2.8,1.5C481.7,116.9,481.8,117.1,481.9,117.2
			z"/>
		<path class="st8" d="M681.1,81.8c-2.5-1.8-6-0.8-7.9,0.4c-2.4,1.4-3.4,3.7-3.7,4.8c-0.4-1.1-1.4-3.3-3.7-4.8
			c-1.9-1.2-5.5-2.2-7.9-0.4c-2.3,1.7-2.3,5-2.3,5.9c0,0.8,0.1,3.6,4.1,8.5c1.8,2.2,4.9,5.4,9.7,8.2c0,0,0,0,0,0.1l0,0l0,0
			c0,0,0,0,0-0.1c4.8-2.8,7.9-6,9.7-8.2c4-4.8,4.1-7.7,4.1-8.5C683.4,86.8,683.4,83.6,681.1,81.8z"/>
	</g>
</g>
<g id="Ebene_3">
	<g id="cat_walk_2">
		<path class="st3" d="M47.3,142.3"/>
		<path class="st3" d="M63.9,202.3"/>
		<path class="st3" d="M61.9,136.5c15.9,2.6,28.2,0.4,31.8-0.3c1-0.2,5.1-1,10.2-2.7c4.8-1.6,10.1-3.4,15.9-7.5
			c1.3-0.9,2.2-1.7,2.9-2.3l2.8-2.5c2.8-2.4-2.8,2.5-2.8,2.5c-0.1-0.1,1-1.6,2.8-2.5c0.6-0.3,1.2-0.6,2-0.5c1.5,0.2,1.8,1.5,3.7,2.3
			c0.9,0.4,2.9,1,3.8,0.1c0.8-0.8,0.3-2.6-0.2-3.6c-0.2-0.4-0.4-1.1-1.5-1.8c-2-1.3-2.5-2.7-1.1-4.8c1.4-2.1,2.9-3,5.4-1.7
			c1.2,0.6,2.7,1,4,0.9c0.9,0,2.3-0.8,2.5-1.6c0.3-0.8-0.3-2.3-1-2.8c-0.7-0.6-1.1-0.5-3.7-1.7c-1.7-0.7-2.1-1-2.3-1.4
			c-0.3-0.6-0.3-1.3-0.3-2.2c0-0.8,0-1.2,0.2-1.6c0.5-1,1.6-1.4,3-1.5c3.3-0.2,3.9,0.1,5.8-0.6c1.3-0.5,3-1.7,2.9-2.8
			c-0.1-1.2-2.4-1.9-3.7-2.3c-3.5-1.1-5.2,0-6.4-1.2c-0.9-0.9-1-2.8-1.1-6.5c-0.6-17.5-2.7-34.8-7.3-51.8c-0.5-1.7-1.3-3.4-2.1-5.1
			c-2.2-5-6.3-6.5-10.9-3.5c-5.5,3.5-10.7,7.5-15.9,11.4c-1.8,1.4-3.3,3.2-5.3,4.4c-1.4,0.9-3.4,1.6-5,1.3
			c-10.3-2-20.4-2.1-30.7,0.1c-1.7,0.4-4.1-0.4-5.6-1.5C47.7,36.1,41,30.8,34,25.8c-4.9-3.5-9.6-2.1-11.8,3.5c-1.1,3-2.2,6-2.9,9.1
			c-3.2,16.1-6.2,32.1-6,48.6c0,0.5,0,0.9-0.1,1.4c-0.5,5.5-0.5,5.4-6,5.1C5,93.4,1.5,92.1,1,95.7c-0.5,3.7,3.3,2.6,5.3,3.2
			c1.5,0.4,3.2,0.3,4.8,0.6c2.7,0.5,3.4,2.7,1.6,4.8l0,0c-0.6,0.3-1.1,0.6-1.7,0.9c-0.2,0-0.4,0-0.6,0c-1.1,0.2-3,0.7-4.4,2.3
			c-0.3,0.4-1.9,2.1-1.3,3.2c0.4,0.7,1.4,0.9,2.1,1c1.5,0.2,2.5-0.2,6.2-1c1.6-0.4,2-0.4,2.5-0.3c1.2,0.3,2,1.4,2.8,2.7
			c1.3,2.2-0.1,3.4-1.7,4.5c-1,0.7-0.9,0.6-1.3,1c-0.9,0.9-2,2.8-1.2,4c0.6,1,2.1,1,2.2,1c1.3,0,2.2-1,2.3-1.1
			c0.5-0.5,1.3-1.2,2.5-1.8c0.7-0.3,1.4-0.7,2.3-0.6c1.1,0,1.8,0.6,4,2.4c1.4,1.2,2.5,2.1,3.2,2.7c2.2,1.4,5.2,3.1,8.9,4.8
			C42,131,50.2,134.6,61.9,136.5z"/>
		<path class="st5" d="M94.2,95.5c0-3.1,3.8-5.9,8.2-6c4-0.1,7.3,2.2,7.3,5c0,3.1-3.8,5.9-8.2,6C97.4,100.5,94.2,98.3,94.2,95.5z"/>
		<path class="st6" d="M77.1,101.7c-1.4,1.4-2.7,2.7-4.1,4.1c-0.2,0-0.4,0-0.5,0c-1.4-1.5-2.8-3-4.2-4.5c0.4-0.6,0.8-1.2,1.2-1.8
			c2.3,0.1,4.5,0.1,6.8,0.2C76.5,100.4,76.8,101.1,77.1,101.7z"/>
		<path class="st5" d="M46.8,100.4c-4.3,0-8.3-2.7-8.3-5.8c0-2.8,3.2-5.1,7.2-5.1c4.4,0,8.3,2.7,8.3,5.8
			C54,98.1,50.8,100.4,46.8,100.4z"/>
		<path class="st8" d="M62.8,106.2c0.1,0.6,0.6,2.8,2.2,4.2c0.7,0.6,1.5,1,2.3,1.1c1.8,0.2,3.1-0.9,3.7-1.4c1.8-1.5,2.2-3.5,2.3-4.2
			c-0.3,0-0.7,0-1,0c-0.1,0.3-0.3,0.7-0.5,1.1c-0.5,0.8-0.9,1.4-1.3,1.7c0,0-0.3,0.2-0.5,0.4c-0.2,0.1-1.9,1-3.4,0.3
			c-0.6-0.3-0.9-0.7-1.2-1c-1-1.2-1.1-2.6-1.1-3.3C63.8,105.4,63.3,105.8,62.8,106.2z"/>
		<path class="st8" d="M83.2,105.6c0,0.6-0.3,2.7-2,4.3c-0.4,0.4-2,1.9-4,1.6c-1.2-0.2-2-0.9-2.5-1.4c-1.6-1.5-2.1-3.3-2.2-4.2
			c0.3,0,0.6,0,0.8,0c0.1,0.2,0.1,0.4,0.2,0.6c0,0.1,0.1,0.3,0.3,0.5c0.1,0.2,0.4,0.6,0.7,1.1c0.2,0.2,0.7,0.8,1.4,1.1
			c1,0.5,2.3,0.5,3.3,0.1c1.5-0.7,2.5-2.3,2.5-4.2C82.2,105.2,82.7,105.4,83.2,105.6z"/>
		<path class="st9" d="M26.1,51.6c2.3-1.3,5.3-2.7,9.1-3.9c3.6-1.1,6.8-1.8,9.4-2.2c-1.2-2.1-2.5-3.7-3.5-4.9
			c-1.3-1.5-3.2-3.1-7.1-6.2c-1.2-0.9-2.3-1.8-3.5-1.6c-0.7,0.1-1.2,0.6-1.8,1.5c-1.7,2.4-2.2,4.6-2.3,5.3c-0.3,1.4-0.6,3.3-0.7,5.9
			C25.7,47.1,25.7,49.1,26.1,51.6z"/>
		<path class="st9" d="M121.7,54.7c-2.1-1.7-4.9-3.7-8.5-5.5c-3.4-1.7-6.5-2.8-9-3.6c1.5-2.2,3-3.8,4.1-5c1.5-1.5,3.6-3,7.9-6
			c1.3-0.9,2.5-1.7,3.7-1.4c0.7,0.2,1.1,0.9,1.6,1.9c1.3,2.8,1.5,5.4,1.6,6.1c0.1,1.6,0.1,3.8-0.2,6.7
			C122.7,49.8,122.4,52.1,121.7,54.7z"/>
		<path class="st13" d="M99.3,245.3c-7.1,3.7-14.2,3.3-17.3-0.3c-1-1.2-2.9-4.2-1.9-7.6c0.7-2.5,2.7-3.8,3.4-4.3
			c-3-14-6.1-28-9.1-42c-2.1-2.9-2.4-6.8-0.8-9.9c2.3-4.7,7.4-5.3,7.8-5.4l1.8-0.4c6.7-1.4,13.2,2.8,14.7,9.4l9.3,42.8
			c0.3,0.9,2,6.1-0.9,11.4C104,243.1,100.5,244.8,99.3,245.3z"/>
		<path class="st3" d="M35.7,229.9c-7-3.8-10.6-9.9-9.4-14.6c0.4-1.5,1.9-4.8,5.2-5.8c2.5-0.8,4.7,0.1,5.4,0.5
			c10-10.3,19.9-20.6,29.9-30.9c1.3-3.3,4.3-5.7,7.8-6.2c5.2-0.7,8.6,3.2,8.8,3.5l1.3,1.3c4.9,4.7,5,12.6,0.3,17.4l-30.5,31.5
			c-0.6,0.7-4,5-10,5.6C40.1,232.6,36.8,230.5,35.7,229.9z"/>
		<path class="st10" d="M86.2,236.6c-0.4,0-0.9-0.1-1.6,0c-0.6,0.1-1.7,0.2-2.7,0.8c-1.4,1-1.8,2.5-1.9,3c0.1,0.4,0.3,0.7,0.4,1.1
			c0-0.2,0.1-0.4,0.2-0.7c0.1-0.2,0.8-1.8,2.6-2.6c1.5-0.7,2.8-0.3,3-1C86.4,237,86.3,236.8,86.2,236.6z"/>
		<path class="st10" d="M89,241c-0.4,0-0.9,0.1-1.6,0.2c-0.6,0.2-1.7,0.4-2.5,1.3c-1.2,1.2-1.3,2.8-1.4,3.3c0.2,0.3,0.4,0.7,0.6,1
			c0-0.2,0.1-0.4,0.1-0.7c0.1-0.2,0.5-1.9,2.1-3c1.4-0.9,2.7-0.8,2.9-1.5C89.3,241.4,89.1,241.1,89,241z"/>
		<path class="st10" d="M34.7,213.8c-0.3-0.3-0.6-0.7-1.2-1.1c-0.5-0.4-1.4-1-2.6-1.2c-1.7-0.2-3,0.7-3.4,1
			c-0.1,0.4-0.3,0.7-0.4,1.1c0.1-0.1,0.4-0.2,0.6-0.3s1.8-0.8,3.6-0.3c1.6,0.5,2.3,1.6,2.9,1.3C34.5,214.2,34.6,214,34.7,213.8z"/>
		<path class="st10" d="M33.9,218.9c-0.3-0.2-0.7-0.6-1.3-0.9c-0.6-0.3-1.5-0.8-2.7-0.7c-1.7,0.1-2.8,1.2-3.2,1.6
			c-0.1,0.4-0.2,0.7-0.2,1.1c0.1-0.1,0.3-0.3,0.6-0.4c0.2-0.1,1.7-1.1,3.6-0.8c1.7,0.2,2.6,1.2,3.1,0.8
			C33.8,219.4,33.9,219.1,33.9,218.9z"/>
		<path class="st3" d="M205.9,139.8c-5.8,2.6-11.2,2.5-14,2.3c2.1,6.5,4.2,13,6.4,19.5c19.2-1.7,34.6-11.2,37.9-23.9
			c2-7.6-0.1-17.4-3.9-24.4c-4.4-8.2-9.1-9.3-11.8-18.4c-0.8-2.9-3.2-11.1,1.2-16.2c3-3.5,7.9-4.2,9.6-4.4c5-0.6,6.3,1.4,12.9,1.2
			c3.6-0.1,7.9-0.2,9.5-3c1.7-2.9-0.5-6.9-0.7-7.3c-4.1-7.4-16.3-7.5-19.7-7.5c-1.7,0-11.3,0.1-20.3,6.6c-1.8,1.3-4.6,3.4-7.1,7.1
			c-3.3,5-3.8,9.8-4.3,13.6c-0.4,3.4-1.1,10.5,2,18.2c2.6,6.4,5,5.9,8.9,14c2.6,5.5,4.8,10.1,3.1,14.6
			C213.9,136.3,209.3,138.3,205.9,139.8z"/>
		<path class="st13" d="M206.8,233.8c-4.4,6.7-10.8,9.8-15.3,8.1c-1.5-0.6-4.6-2.3-5.3-5.7c-0.5-2.5,0.5-4.6,0.9-5.4
			c-9.5-10.8-18.9-21.6-28.4-32.3c-3.2-1.6-5.4-4.8-5.5-8.3c-0.3-5.2,3.9-8.3,4.2-8.5l1.4-1.2c5.1-4.5,12.9-4,17.4,1.1l28.9,32.9
			c0.7,0.6,4.7,4.4,4.8,10.4C209.9,229.7,207.6,232.9,206.8,233.8z"/>
		<path class="st3" d="M158.3,248.6c-7.8,1.5-14.5-0.9-16.5-5.3c-0.7-1.5-1.6-4.9,0.4-7.8c1.4-2.2,3.7-2.9,4.5-3.1
			c1.1-14.3,2.2-28.6,3.4-42.9c-1.1-3.4-0.3-7.2,2.1-9.8c3.6-3.8,8.7-3,9-2.9l1.8,0.1c6.8,0.5,11.9,6.5,11.3,13.3l-3.4,43.7
			c0,0.9,0.1,6.4-4.1,10.7C163.5,247.9,159.6,248.5,158.3,248.6z"/>
		<path class="st3" d="M194.1,191.1c4.9-7.9,5.4-15.6,5.7-20.6c0.7-10.2-1.7-18.4-3.4-23.1c-2-2.7-5.3-6.6-10.2-10
			c-5.4-3.7-9.9-5-18.6-7.4c-4.6-1.3-13.1-3.4-24.3-4.1c-2-0.1-3.5-0.2-6.9-0.3c-18.1-0.4-27.2-0.6-35.8-0.2
			c-13,0.7-19.6,1-26.2,3.4c-5.9,2.1-15,5.5-21.1,14.6c-4.1,6.1-5.3,12.4-5.6,14.6c-0.4,2.2-1.1,6.6-0.2,12c0.6,3.3,1.6,6.2,2.1,7.7
			c0.8,2.3,1.6,4.1,2.1,5.1c3.9,7.8,9.5,12.3,12.1,14.3c3.9,3,7.3,4.7,12.5,7.3c1,0.5,2,1,2.9,1.4c0,0,3,1.4,5.7,2.4
			c3.2,1.2,13.9,3.1,28.5,3.8c5.2,0,10.4,0,15.7,0c4.9,0.4,11.7,0.6,19.7,0c7.6-0.6,14.3-0.8,22.1-3.7
			C176.2,206.3,187.2,202.2,194.1,191.1z"/>
		<path class="st10" d="M191.1,232.6c-0.4,0.1-0.9,0.4-1.4,0.7s-1.4,1-2,2c-0.8,1.5-0.3,3.1-0.2,3.5c0.3,0.2,0.6,0.5,0.9,0.7
			c0-0.2-0.1-0.4-0.1-0.7c0-0.2-0.1-2,1-3.5c1-1.4,2.3-1.6,2.2-2.3C191.5,232.9,191.3,232.7,191.1,232.6z"/>
		<path class="st10" d="M195.7,235.1c-0.3,0.2-0.8,0.5-1.3,1c-0.4,0.4-1.2,1.2-1.6,2.3c-0.5,1.6,0.2,3.1,0.4,3.5
			c0.3,0.2,0.6,0.4,1,0.6c-0.1-0.2-0.2-0.4-0.2-0.7c-0.1-0.2-0.5-1.9,0.4-3.6c0.8-1.5,2-2,1.8-2.7
			C196.1,235.3,195.9,235.1,195.7,235.1z"/>
		<path class="st10" d="M147.3,236.9c-0.4-0.1-0.9-0.1-1.6-0.1c-0.6,0-1.7,0.1-2.7,0.7c-1.4,0.9-1.9,2.5-2,2.9
			c0.1,0.4,0.2,0.7,0.4,1.1c0.1-0.2,0.1-0.4,0.3-0.7c0.1-0.2,0.9-1.8,2.6-2.5c1.5-0.7,2.8-0.2,3.1-0.9
			C147.5,237.3,147.4,237.1,147.3,236.9z"/>
		<path class="st10" d="M150,241.4c-0.4,0-0.9,0-1.6,0.2c-0.6,0.1-1.7,0.4-2.6,1.2c-1.3,1.1-1.4,2.7-1.5,3.2c0.2,0.3,0.4,0.7,0.5,1
			c0-0.2,0.1-0.4,0.2-0.7c0.1-0.2,0.6-1.9,2.2-2.9c1.4-0.9,2.8-0.7,2.9-1.4C150.2,241.7,150.1,241.5,150,241.4z"/>
	</g>
	<g id="cat_walk_1">
		<path class="st3" d="M329.3,145.8"/>
		<path class="st3" d="M345.9,205.8"/>
		<path class="st3" d="M343.9,140c15.9,2.6,28.2,0.4,31.8-0.3c1-0.2,5.1-1,10.2-2.7c4.8-1.6,10.1-3.4,15.9-7.5
			c1.3-0.9,2.2-1.7,2.9-2.3l2.8-2.5c2.8-2.4-2.8,2.5-2.8,2.5c-0.1-0.1,1-1.6,2.8-2.5c0.6-0.3,1.2-0.6,2-0.5c1.5,0.2,1.8,1.5,3.7,2.3
			c0.9,0.4,2.9,1,3.8,0.1c0.8-0.8,0.3-2.6-0.2-3.6c-0.2-0.4-0.4-1.1-1.5-1.8c-2-1.3-2.5-2.7-1.1-4.8c1.4-2.1,2.9-3,5.4-1.7
			c1.2,0.6,2.7,1,4,0.9c0.9,0,2.3-0.8,2.5-1.6c0.3-0.8-0.3-2.3-1-2.8c-0.7-0.6-1.1-0.5-3.7-1.7c-1.7-0.7-2.1-1-2.3-1.4
			c-0.3-0.6-0.3-1.3-0.3-2.2c0-0.8,0-1.2,0.2-1.6c0.5-1,1.6-1.4,3-1.5c3.3-0.2,3.9,0.1,5.8-0.6c1.3-0.5,3-1.7,2.9-2.8
			c-0.1-1.2-2.4-1.9-3.7-2.3c-3.5-1.1-5.2,0-6.4-1.2c-0.9-0.9-1-2.8-1.1-6.5c-0.6-17.5-2.7-34.8-7.3-51.8c-0.5-1.7-1.3-3.4-2.1-5.1
			c-2.2-5-6.3-6.5-10.9-3.5c-5.5,3.5-10.7,7.5-15.9,11.4c-1.8,1.4-3.3,3.2-5.3,4.4c-1.4,0.9-3.4,1.6-5,1.3
			c-10.3-2-20.4-2.1-30.7,0.1c-1.7,0.4-4.1-0.4-5.6-1.5c-7-5.1-13.7-10.4-20.7-15.4c-4.9-3.5-9.6-2.1-11.8,3.5c-1.1,3-2.2,6-2.9,9.1
			c-3.2,16.1-6.2,32.1-6,48.6c0,0.5,0,0.9-0.1,1.4c-0.5,5.5-0.5,5.4-6,5.1c-2.2-0.1-5.7-1.4-6.2,2.2c-0.5,3.7,3.3,2.6,5.3,3.2
			c1.5,0.4,3.2,0.3,4.8,0.6c2.7,0.5,3.4,2.7,1.6,4.8l0,0c-0.6,0.3-1.1,0.6-1.7,0.9c-0.2,0-0.4,0-0.6,0c-1.1,0.2-3,0.7-4.4,2.3
			c-0.3,0.4-1.9,2.1-1.3,3.2c0.4,0.7,1.4,0.9,2.1,1c1.5,0.2,2.5-0.2,6.2-1c1.6-0.4,2-0.4,2.5-0.3c1.2,0.3,2,1.4,2.8,2.7
			c1.3,2.2-0.1,3.4-1.7,4.5c-1,0.7-0.9,0.6-1.3,1c-0.9,0.9-2,2.8-1.2,4c0.6,1,2.1,1,2.2,1c1.3,0,2.2-1,2.3-1.1
			c0.5-0.5,1.3-1.2,2.5-1.8c0.7-0.3,1.4-0.7,2.3-0.6c1.1,0,1.8,0.6,4,2.4c1.4,1.2,2.5,2.1,3.2,2.7c2.2,1.4,5.2,3.1,8.9,4.8
			C324,134.5,332.2,138.1,343.9,140z"/>
		<path class="st5" d="M376.2,99c0-3.1,3.8-5.9,8.2-6c4-0.1,7.3,2.2,7.3,5c0,3.1-3.8,5.9-8.2,6C379.4,104,376.2,101.8,376.2,99z"/>
		<path class="st6" d="M359.1,105.2c-1.4,1.4-2.7,2.7-4.1,4.1c-0.2,0-0.4,0-0.5,0c-1.4-1.5-2.8-3-4.2-4.5c0.4-0.6,0.8-1.2,1.2-1.8
			c2.3,0.1,4.5,0.1,6.8,0.2C358.5,103.9,358.8,104.6,359.1,105.2z"/>
		<path class="st5" d="M328.8,103.9c-4.3,0-8.3-2.7-8.3-5.8c0-2.8,3.2-5.1,7.2-5.1c4.4,0,8.3,2.7,8.3,5.8
			C336,101.6,332.8,103.9,328.8,103.9z"/>
		<path class="st8" d="M344.8,109.7c0.1,0.6,0.6,2.8,2.2,4.2c0.7,0.6,1.5,1,2.3,1.1c1.8,0.2,3.1-0.9,3.7-1.4
			c1.8-1.5,2.2-3.5,2.3-4.2c-0.3,0-0.7,0-1,0c-0.1,0.3-0.3,0.7-0.5,1.1c-0.5,0.8-0.9,1.4-1.3,1.7c0,0-0.3,0.2-0.5,0.4
			c-0.2,0.1-1.9,1-3.4,0.3c-0.6-0.3-0.9-0.7-1.2-1c-1-1.2-1.1-2.6-1.1-3.3C345.8,108.9,345.3,109.3,344.8,109.7z"/>
		<path class="st8" d="M365.2,109.1c0,0.6-0.3,2.7-2,4.3c-0.4,0.4-2,1.9-4,1.6c-1.2-0.2-2-0.9-2.5-1.4c-1.6-1.5-2.1-3.3-2.2-4.2
			c0.3,0,0.6,0,0.8,0c0.1,0.2,0.1,0.4,0.2,0.6c0,0.1,0.1,0.3,0.3,0.5c0.1,0.2,0.4,0.6,0.7,1.1c0.2,0.2,0.7,0.8,1.4,1.1
			c1,0.5,2.3,0.5,3.3,0.1c1.5-0.7,2.5-2.3,2.5-4.2C364.2,108.7,364.7,108.9,365.2,109.1z"/>
		<path class="st9" d="M308.1,55.1c2.3-1.3,5.3-2.7,9.1-3.9c3.6-1.1,6.8-1.8,9.4-2.2c-1.2-2.1-2.5-3.7-3.5-4.9
			c-1.3-1.5-3.2-3.1-7.1-6.2c-1.2-0.9-2.3-1.8-3.5-1.6c-0.7,0.1-1.2,0.6-1.8,1.5c-1.7,2.4-2.2,4.6-2.3,5.3c-0.3,1.4-0.6,3.3-0.7,5.9
			C307.7,50.6,307.7,52.6,308.1,55.1z"/>
		<path class="st9" d="M403.7,58.3c-2.1-1.7-4.9-3.7-8.5-5.5c-3.4-1.7-6.5-2.8-9-3.6c1.5-2.2,3-3.8,4.1-5c1.5-1.5,3.6-3,7.9-6
			c1.3-0.9,2.5-1.7,3.7-1.4c0.7,0.2,1.1,0.9,1.6,1.9c1.3,2.8,1.5,5.4,1.6,6.1c0.1,1.6,0.1,3.8-0.2,6.7
			C404.7,53.3,404.4,55.6,403.7,58.3z"/>
		<path class="st13" d="M332.4,240.1c-7.9-0.9-13.6-5.2-14.2-10c-0.2-1.6,0-5.1,2.7-7.3c2-1.6,4.4-1.7,5.2-1.6
			c5.4-13.3,10.7-26.6,16.1-39.9c-0.1-3.6,1.8-6.9,4.9-8.7c4.6-2.6,9.1-0.3,9.4-0.1l1.7,0.7c6.3,2.5,9.4,9.7,6.8,16.1L348.6,230
			c-0.2,0.9-1.8,6.2-7.1,8.9C337.5,241,333.6,240.4,332.4,240.1z"/>
		<path class="st3" d="M388.1,246.1c-7,3.8-14.1,3.5-17.3-0.1c-1.1-1.2-2.9-4.2-2-7.5c0.7-2.5,2.6-3.8,3.3-4.3
			c-3.2-14-6.3-28-9.5-42c-2.1-2.9-2.4-6.7-0.9-9.9c2.3-4.7,7.4-5.4,7.7-5.4l1.8-0.4c6.7-1.5,13.3,2.7,14.8,9.3l9.7,42.7
			c0.3,0.9,2,6.1-0.8,11.4C392.8,243.9,389.3,245.6,388.1,246.1z"/>
		<path class="st10" d="M326.4,225.6c-0.3-0.3-0.7-0.6-1.3-0.9c-0.5-0.3-1.5-0.8-2.7-0.8c-1.7,0-2.9,1.1-3.2,1.4
			c-0.1,0.4-0.2,0.7-0.3,1.1c0.1-0.1,0.3-0.3,0.6-0.4c0.2-0.1,1.7-1,3.6-0.7c1.7,0.3,2.5,1.3,3.1,0.9
			C326.3,226,326.4,225.7,326.4,225.6z"/>
		<path class="st10" d="M326.3,230.8c-0.3-0.2-0.8-0.5-1.4-0.7s-1.6-0.6-2.8-0.4c-1.7,0.3-2.7,1.5-3,1.9c0,0.4-0.1,0.7-0.1,1.1
			c0.1-0.1,0.3-0.3,0.5-0.5c0.2-0.1,1.5-1.3,3.4-1.3c1.7,0,2.7,0.9,3.2,0.4C326.3,231.2,326.3,230.9,326.3,230.8z"/>
		<path class="st10" d="M374.1,238.2c-0.4,0.1-0.9,0.2-1.5,0.4s-1.6,0.6-2.4,1.5c-1.1,1.3-1,2.9-1,3.4c0.2,0.3,0.4,0.6,0.7,0.9
			c0-0.2,0-0.4,0.1-0.7c0-0.2,0.3-2,1.8-3.2c1.3-1.1,2.6-1,2.7-1.7C374.4,238.5,374.2,238.3,374.1,238.2z"/>
		<path class="st10" d="M378,241.6c-0.4,0.1-0.9,0.3-1.4,0.6s-1.5,0.9-2.1,1.9c-0.9,1.5-0.6,3-0.4,3.5c0.3,0.3,0.5,0.5,0.8,0.8
			c0-0.2-0.1-0.4-0.1-0.7c0-0.2,0-2,1.2-3.4c1.1-1.3,2.4-1.5,2.4-2.2C378.3,241.9,378.1,241.7,378,241.6z"/>
		<path class="st3" d="M487.9,143.3c-5.8,2.6-11.2,2.5-14,2.3c2.1,6.5,4.2,13,6.4,19.5c19.2-1.7,34.6-11.2,37.9-23.9
			c2-7.6-0.1-17.4-3.9-24.4c-4.4-8.2-9.1-9.3-11.8-18.4c-0.8-2.9-3.2-11.1,1.2-16.2c3-3.5,7.9-4.2,9.6-4.4c5-0.6,6.3,1.4,12.9,1.2
			c3.6-0.1,7.9-0.2,9.5-3c1.7-2.9-0.5-6.9-0.7-7.3c-4.1-7.4-16.3-7.5-19.7-7.5c-1.7,0-11.3,0.1-20.3,6.6c-1.8,1.3-4.6,3.4-7.1,7.1
			c-3.3,5-3.8,9.8-4.3,13.6c-0.4,3.4-1.1,10.5,2,18.2c2.6,6.4,5,5.9,8.9,14c2.6,5.5,4.8,10.1,3.1,14.6S491.3,141.8,487.9,143.3z"/>
		<path class="st13" d="M423.4,246.9c-7.9,0.6-14.3-2.6-15.8-7.2c-0.5-1.5-1-5,1.3-7.7c1.7-2,4-2.4,4.8-2.6
			c2.8-14.1,5.6-28.1,8.4-42.2c-0.7-3.5,0.5-7.1,3.2-9.4c4-3.4,8.9-1.9,9.3-1.8l1.8,0.4c6.7,1.3,11,7.8,9.7,14.5l-8.5,43
			c-0.1,0.9-0.6,6.4-5.4,10.1C428.6,246.7,424.6,246.9,423.4,246.9z"/>
		<path class="st3" d="M480.8,241.7c-5.5,5.8-12.4,7.7-16.5,5.3c-1.4-0.8-4.1-3.1-4.2-6.5c-0.1-2.6,1.3-4.5,1.8-5.1
			c-7.4-12.3-14.8-24.6-22.1-36.9c-2.9-2.1-4.4-5.6-4-9.2c0.7-5.2,5.3-7.4,5.6-7.6l1.6-1c5.8-3.5,13.4-1.6,16.9,4.2l22.6,37.6
			c0.6,0.7,3.8,5.1,2.8,11.1C484.5,238.2,481.7,240.9,480.8,241.7z"/>
		<path class="st3" d="M476.1,194.6c4.9-7.9,5.4-15.6,5.7-20.6c0.7-10.2-1.7-18.4-3.4-23.1c-2-2.7-5.3-6.6-10.2-10
			c-5.4-3.7-9.9-5-18.6-7.4c-4.6-1.3-13.1-3.4-24.3-4.1c-2-0.1-3.5-0.2-6.9-0.3c-18.1-0.4-27.2-0.6-35.8-0.2
			c-13,0.7-19.6,1-26.2,3.4c-5.9,2.1-15,5.5-21.1,14.6c-4.1,6.1-5.3,12.4-5.6,14.6c-0.4,2.2-1.1,6.6-0.2,12c0.6,3.3,1.6,6.2,2.1,7.7
			c0.8,2.3,1.6,4.1,2.1,5.1c3.9,7.8,9.5,12.3,12.1,14.3c3.9,3,7.3,4.7,12.5,7.3c1,0.5,2,1,2.9,1.4c0,0,3,1.4,5.7,2.4
			c3.2,1.2,13.9,3.1,28.5,3.8c5.2,0,10.4,0,15.7,0c4.9,0.4,11.7,0.6,19.7,0c7.6-0.6,14.3-0.8,22.1-3.7
			C458.2,209.8,469.2,205.7,476.1,194.6z"/>
		<path class="st10" d="M414.8,233.7c-0.3-0.2-0.8-0.5-1.4-0.7s-1.6-0.5-2.8-0.3c-1.7,0.3-2.6,1.6-2.9,2c0,0.4,0,0.8-0.1,1.1
			c0.1-0.1,0.3-0.3,0.5-0.5s1.5-1.3,3.4-1.4c1.7,0,2.7,0.8,3.2,0.3C414.8,234.1,414.8,233.8,414.8,233.7z"/>
		<path class="st10" d="M415.7,238.8c-0.4-0.1-0.9-0.3-1.5-0.4c-0.6-0.1-1.7-0.3-2.8,0.2c-1.6,0.6-2.3,2-2.5,2.5
			c0,0.4,0.1,0.7,0.1,1.1c0.1-0.1,0.2-0.4,0.4-0.6c0.1-0.2,1.3-1.6,3.1-1.9c1.6-0.3,2.8,0.4,3.2-0.2
			C415.7,239.2,415.7,239,415.7,238.8z"/>
		<path class="st10" d="M465,238.6c-0.3,0.2-0.8,0.4-1.3,0.9c-0.5,0.4-1.3,1.1-1.8,2.2c-0.6,1.6-0.1,3.1,0.1,3.5
			c0.3,0.2,0.6,0.4,0.9,0.7c-0.1-0.2-0.1-0.4-0.2-0.7c0-0.2-0.3-2,0.7-3.6c0.9-1.4,2.2-1.8,2-2.5C465.4,238.8,465.1,238.7,465,238.6
			z"/>
		<path class="st10" d="M469.8,240.7c-0.3,0.2-0.7,0.6-1.2,1.1c-0.4,0.5-1.1,1.3-1.4,2.5c-0.4,1.6,0.4,3.1,0.7,3.5
			c0.3,0.2,0.7,0.3,1,0.5c-0.1-0.2-0.2-0.4-0.3-0.7c-0.1-0.2-0.6-1.9,0.1-3.6c0.6-1.5,1.8-2.1,1.6-2.8
			C470.2,240.8,469.9,240.7,469.8,240.7z"/>
	</g>
</g>
<g>
	<path class="st3" d="M761,224.8c3.7-5,4.9-10,5.9-13.7c0.3-1.1,0.9-3.8,1.2-7.4c1.1-12.1-2.4-22.7-3.6-26.3
		c-3.4-10.1-8.5-17.6-12.5-22.6c-2.3-2.4-5.4-5.5-9.5-8.7c-3.8-3-7.8-6.2-13.7-9.1c-7-3.4-14.6-5.5-22.7-6.3
		c-1.5-0.1-3.1-0.4-5.9-0.7c-9.2-1-21.2-2.2-35.6-1.5c-12.7,0.6-19.1,0.8-26.2,3.4c-5.9,2.1-15,5.5-21.1,14.6
		c-4.1,6.1-5.3,12.4-5.6,14.6c-0.4,2.2-1.1,6.6-0.2,12c0.6,3.3,1.6,6.2,2.1,7.7c0.8,2.3,1.6,4.1,2.1,5.1c3.9,7.8,9.5,12.3,12.1,14.3
		c3.9,3,7.3,4.7,12.5,7.3c3.7,1.8,6.5,3,8.6,3.8c9.1,3.7,18.6,7.1,26.1,9.7c2.5,0.3,6.4,0.4,11.1-0.3c-0.7,3.7-1.8,6.6-1.8,9.6
		c-0.1,7.2,3.9,12.5,11,13.2c8,0.8,16.1,0.5,24.2,0.2c8.9-0.4,17.4-3,25.5-6.6c3.6-1.6,6-3.3,7.3-4.2
		C754.8,231.1,758.1,228.8,761,224.8z"/>
</g>
<g>
	<path class="st3" d="M625.9,139.6c15.9,2.6,28.2,0.4,31.8-0.3c1-0.2,5.1-1,10.2-2.7c4.8-1.6,10.1-3.4,15.9-7.5
		c1.3-0.9,2.2-1.7,2.9-2.3l2.8-2.5c2.8-2.4-2.8,2.5-2.8,2.5c-0.1-0.1,1-1.6,2.8-2.5c0.6-0.3,1.2-0.6,2-0.5c1.5,0.2,1.8,1.5,3.7,2.3
		c0.9,0.4,2.9,1,3.8,0.1c0.8-0.8,0.3-2.6-0.2-3.6c-0.2-0.4-0.4-1.1-1.5-1.8c-2-1.3-2.5-2.7-1.1-4.8c1.4-2.1,2.9-3,5.4-1.7
		c1.2,0.6,2.7,1,4,0.9c0.9,0,2.3-0.8,2.5-1.6c0.3-0.8-0.3-2.3-1-2.8c-0.7-0.6-1.1-0.5-3.7-1.7c-1.7-0.7-2.1-1-2.3-1.4
		c-0.3-0.6-0.3-1.3-0.3-2.2c0-0.8,0-1.2,0.2-1.6c0.5-1,1.6-1.4,3-1.5c3.3-0.2,3.9,0.1,5.8-0.6c1.3-0.5,3-1.7,2.9-2.8
		c-0.1-1.2-2.4-1.9-3.7-2.3c-3.5-1.1-5.2,0-6.4-1.2c-0.9-0.9-1-2.8-1.1-6.5c-0.6-17.5-2.7-34.8-7.3-51.8c-0.5-1.7-1.3-3.4-2.1-5.1
		c-2.2-5-6.3-6.5-10.9-3.5c-5.5,3.5-10.7,7.5-15.9,11.4c-1.8,1.4-3.3,3.2-5.3,4.4c-1.4,0.9-3.4,1.6-5,1.3c-10.3-2-20.4-2.1-30.7,0.1
		c-1.7,0.4-4.1-0.4-5.6-1.5c-7-5.1-13.7-10.4-20.7-15.4c-4.9-3.5-9.6-2.1-11.8,3.5c-1.1,3-2.2,6-2.9,9.1c-3.2,16.1-6.2,32.1-6,48.6
		c0,0.5,0,0.9-0.1,1.4c-0.5,5.5-0.5,5.4-6,5.1c-2.2-0.1-5.7-1.4-6.2,2.2c-0.5,3.7,3.3,2.6,5.3,3.2c1.5,0.4,3.2,0.3,4.8,0.6
		c2.7,0.5,3.4,2.7,1.6,4.8l0,0c-0.6,0.3-1.1,0.6-1.7,0.9c-0.2,0-0.4,0-0.6,0c-1.1,0.2-3,0.7-4.4,2.3c-0.3,0.4-1.9,2.1-1.3,3.2
		c0.4,0.7,1.4,0.9,2.1,1c1.5,0.2,2.5-0.2,6.2-1c1.6-0.4,2-0.4,2.5-0.3c1.2,0.3,2,1.4,2.8,2.7c1.3,2.2-0.1,3.4-1.7,4.5
		c-1,0.7-0.9,0.6-1.3,1c-0.9,0.9-2,2.8-1.2,4c0.6,1,2.1,1,2.2,1c1.3,0,2.2-1,2.3-1.1c0.5-0.5,1.3-1.2,2.5-1.8
		c0.7-0.3,1.4-0.7,2.3-0.6c1.1,0,1.8,0.6,4,2.4c1.4,1.2,2.5,2.1,3.2,2.7c2.2,1.4,5.2,3.1,8.9,4.8C606,134.1,614.2,137.7,625.9,139.6
		z"/>
	<path class="st5" d="M658.2,98.6c0-3.1,3.8-5.9,8.2-6c4-0.1,7.3,2.2,7.3,5c0,3.1-3.8,5.9-8.2,6C661.4,103.6,658.2,101.4,658.2,98.6
		z"/>
	<path class="st6" d="M641.1,104.8c-1.4,1.4-2.7,2.7-4.1,4.1c-0.2,0-0.4,0-0.5,0c-1.4-1.5-2.8-3-4.2-4.5c0.4-0.6,0.8-1.2,1.2-1.8
		c2.3,0.1,4.5,0.1,6.8,0.2C640.5,103.5,640.8,104.2,641.1,104.8z"/>
	<path class="st5" d="M610.8,103.5c-4.3,0-8.3-2.7-8.3-5.8c0-2.8,3.2-5.1,7.2-5.1c4.4,0,8.3,2.7,8.3,5.8
		C618,101.2,614.8,103.5,610.8,103.5z"/>
	<path class="st8" d="M626.8,109.3c0.1,0.6,0.6,2.8,2.2,4.2c0.7,0.6,1.5,1,2.3,1.1c1.8,0.2,3.1-0.9,3.7-1.4c1.8-1.5,2.2-3.5,2.3-4.2
		c-0.3,0-0.7,0-1,0c-0.1,0.3-0.3,0.7-0.5,1.1c-0.5,0.8-0.9,1.4-1.3,1.7c0,0-0.3,0.2-0.5,0.4c-0.2,0.1-1.9,1-3.4,0.3
		c-0.6-0.3-0.9-0.7-1.2-1c-1-1.2-1.1-2.6-1.1-3.3C627.8,108.5,627.3,108.9,626.8,109.3z"/>
	<path class="st8" d="M647.2,108.7c0,0.6-0.3,2.7-2,4.3c-0.4,0.4-2,1.9-4,1.6c-1.2-0.2-2-0.9-2.5-1.4c-1.6-1.5-2.1-3.3-2.2-4.2
		c0.3,0,0.6,0,0.8,0c0.1,0.2,0.1,0.4,0.2,0.6c0,0.1,0.1,0.3,0.3,0.5c0.1,0.2,0.4,0.6,0.7,1.1c0.2,0.2,0.7,0.8,1.4,1.1
		c1,0.5,2.3,0.5,3.3,0.1c1.5-0.7,2.5-2.3,2.5-4.2C646.2,108.3,646.7,108.5,647.2,108.7z"/>
	<path class="st9" d="M590.1,54.7c2.3-1.3,5.3-2.7,9.1-3.9c3.6-1.1,6.8-1.8,9.4-2.2c-1.2-2.1-2.5-3.7-3.5-4.9
		c-1.3-1.5-3.2-3.1-7.1-6.2c-1.2-0.9-2.3-1.8-3.5-1.6c-0.7,0.1-1.2,0.6-1.8,1.5c-1.7,2.4-2.2,4.6-2.3,5.3c-0.3,1.4-0.6,3.3-0.7,5.9
		C589.7,50.2,589.7,52.2,590.1,54.7z"/>
	<path class="st9" d="M649.9,30.6"/>
	<path class="st9" d="M685.7,57.9c-2.1-1.7-4.9-3.7-8.5-5.5c-3.4-1.7-6.5-2.8-9-3.6c1.5-2.2,3-3.8,4.1-5c1.5-1.5,3.6-3,7.9-6
		c1.3-0.9,2.5-1.7,3.7-1.4c0.7,0.2,1.1,0.9,1.6,1.9c1.3,2.8,1.5,5.4,1.6,6.1c0.1,1.6,0.1,3.8-0.2,6.7
		C686.7,52.9,686.4,55.2,685.7,57.9z"/>
</g>
<g id="Ebene_3_1_">
	<path class="st3" d="M629.7,245.7c-7.7,2.1-14.6,0.2-16.9-4c-0.8-1.4-1.9-4.8-0.3-7.8c1.2-2.3,3.4-3.2,4.2-3.4c0-14.3,0-28.7,0-43
		c-1.4-3.3-0.9-7.1,1.3-9.9c3.3-4.1,8.4-3.6,8.7-3.6h1.9c6.8,0,12.3,5.5,12.3,12.3v43.8c0.1,0.9,0.7,6.4-3.3,11
		C634.8,244.6,631,245.5,629.7,245.7z"/>
	<path class="st3" d="M860.9,204.4"/>
	<path class="st3" d="M662.4,247.3c-7.7,2.1-14.6,0.2-16.9-4c-0.8-1.4-1.9-4.8-0.3-7.8c1.2-2.3,3.4-3.2,4.2-3.4c0-14.3,0-28.7,0-43
		c-1.4-3.3-0.9-7.1,1.3-9.9c3.3-4.1,8.4-3.6,8.7-3.6h1.9c6.8,0,12.3,5.5,12.3,12.3v43.8c0.1,0.9,0.7,6.4-3.3,11
		C667.4,246.2,663.6,247,662.4,247.3z"/>
	<path class="st10" d="M618.8,234.5c-0.4-0.1-0.9-0.3-1.5-0.4c-0.6-0.1-1.7-0.2-2.8,0.2c-1.6,0.6-2.3,2.1-2.5,2.5
		c0.1,0.4,0.1,0.7,0.2,1.1c0.1-0.2,0.2-0.4,0.4-0.6c0.1-0.2,1.2-1.6,3.1-2c1.6-0.4,2.8,0.3,3.2-0.3
		C618.9,234.9,618.8,234.6,618.8,234.5z"/>
	<path class="st10" d="M620.6,239.3c-0.4-0.1-0.9-0.1-1.6-0.1c-0.6,0-1.7,0.1-2.7,0.7c-1.4,0.9-1.9,2.4-2,2.9
		c0.1,0.4,0.2,0.7,0.3,1.1c0.1-0.2,0.1-0.4,0.3-0.7c0.1-0.2,0.9-1.8,2.7-2.5c1.6-0.6,2.8-0.2,3.1-0.8
		C620.8,239.7,620.7,239.5,620.6,239.3z"/>
	<path class="st10" d="M650.5,236.5c-0.4,0-0.9,0-1.6,0c-0.6,0.1-1.7,0.2-2.7,1c-1.4,1-1.7,2.6-1.7,3.1c0.1,0.3,0.3,0.7,0.4,1
		c0-0.2,0.1-0.4,0.2-0.7c0.1-0.2,0.8-1.8,2.4-2.7c1.5-0.8,2.8-0.4,3-1.1C650.7,236.9,650.6,236.6,650.5,236.5z"/>
	<path class="st10" d="M653.5,240.7c-0.4,0-0.9,0.1-1.6,0.3c-0.6,0.2-1.6,0.5-2.5,1.4c-1.2,1.2-1.2,2.8-1.2,3.3
		c0.2,0.3,0.4,0.6,0.6,1c0-0.2,0-0.4,0.1-0.7c0-0.2,0.4-1.9,2-3.1c1.3-1,2.7-0.9,2.8-1.6C653.7,241.1,653.6,240.8,653.5,240.7z"/>
</g>
<g id="Ebene_4">
	<path class="st3" d="M779.9,229.7c0,0-2.6-5.8-9-12.1c-0.2-0.2-1.1-1.1-2.4-1.8c-0.2-0.1-0.5-0.2-0.9-0.4c-1.9-0.8-2.6-1.2-2.9-1.3
		c-2.5-0.9-7.5,5.8-8,6.4c-2.6,3.5-2.7,5.3-4.6,8.3c-0.2,0.4-0.9,1.4-1.2,2.9c-0.1,0.5-0.2,0.9-0.2,1.2c1,0.6,2.1,1.3,3.2,2.3
		c0.6,0.6,1.2,1.1,1.7,1.6c0,0,0.9,1.1,1.3,2.6c0.9,4.4-1.2,9-6,10.5c-5.4,1.7-11.2,3.3-16.8,3.6c-12.3,0.6-24.7,0.2-37.1,0.3
		c-5.2,0-9.8,1.4-13,5.4c-4.4,10,2.6,18.6,14.6,17.8c8.5-0.6,17-0.2,25.5-0.7c9.5-0.6,19-1.3,28.4-2.8c15-2.3,24.6-10.4,29.2-23.2
		c1.3-3.5,1.3-6.7,1.2-9.1C782.6,236,780.9,232,779.9,229.7z"/>
</g>
<g id="cat_stand">
	<g id="Ebene_4_1_">
		<path class="st3" d="M1039.2,194.2c4.9-7.9,5.4-15.6,5.7-20.6c0.7-10.2-1.7-18.4-3.4-23.1c-2-2.7-5.3-6.6-10.2-10
			c-5.4-3.7-9.9-5-18.6-7.4c-4.6-1.3-13.1-3.4-24.3-4.1c-2-0.1-3.5-0.2-6.9-0.3c-18.1-0.4-27.2-0.6-35.8-0.2
			c-13,0.7-19.6,1-26.2,3.4c-5.9,2.1-15,5.5-21.1,14.6c-4.1,6.1-5.3,12.4-5.6,14.6c-0.4,2.2-1.1,6.6-0.2,12c0.6,3.3,1.6,6.2,2.1,7.7
			c0.8,2.3,1.6,4.1,2.1,5.1c3.9,7.8,9.5,12.3,12.1,14.3c3.9,3,7.3,4.7,12.5,7.3c1,0.5,2,1,2.9,1.4c0,0,3,1.4,5.7,2.4
			c3.2,1.2,13.9,3.1,28.5,3.8c5.2,0,10.4,0,15.7,0c4.9,0.4,11.7,0.6,19.7,0c7.6-0.6,14.3-0.8,22.1-3.7
			C1021.3,209.4,1032.3,205.3,1039.2,194.2z"/>
		<path class="st3" d="M907,139.6c15.9,2.6,28.2,0.4,31.8-0.3c1-0.2,5.1-1,10.2-2.7c4.8-1.6,10.1-3.4,15.9-7.5
			c1.3-0.9,2.2-1.7,2.9-2.3l2.8-2.5c2.8-2.4-2.8,2.5-2.8,2.5c-0.1-0.1,1-1.6,2.8-2.5c0.6-0.3,1.2-0.6,2-0.5c1.5,0.2,1.8,1.5,3.7,2.3
			c0.9,0.4,2.9,1,3.8,0.1c0.8-0.8,0.3-2.6-0.2-3.6c-0.2-0.4-0.4-1.1-1.5-1.8c-2-1.3-2.5-2.7-1.1-4.8c1.4-2.1,2.9-3,5.4-1.7
			c1.2,0.6,2.7,1,4,0.9c0.9,0,2.3-0.8,2.5-1.6c0.3-0.8-0.3-2.3-1-2.8c-0.7-0.6-1.1-0.5-3.7-1.7c-1.7-0.7-2.1-1-2.3-1.4
			c-0.3-0.6-0.3-1.3-0.3-2.2c0-0.8,0-1.2,0.2-1.6c0.5-1,1.6-1.4,3-1.5c3.3-0.2,3.9,0.1,5.8-0.6c1.3-0.5,3-1.7,2.9-2.8
			c-0.1-1.2-2.4-1.9-3.7-2.3c-3.5-1.1-5.2,0-6.4-1.2c-0.9-0.9-1-2.8-1.1-6.5c-0.6-17.5-2.7-34.8-7.3-51.8c-0.5-1.7-1.3-3.4-2.1-5.1
			c-2.2-5-6.3-6.5-10.9-3.5c-5.5,3.5-10.7,7.5-15.9,11.4c-1.8,1.4-3.3,3.2-5.3,4.4c-1.4,0.9-3.4,1.6-5,1.3
			c-10.3-2-20.4-2.1-30.7,0.1c-1.7,0.4-4.1-0.4-5.6-1.5c-7-5.1-13.7-10.4-20.7-15.4c-4.9-3.5-9.6-2.1-11.8,3.5c-1.1,3-2.2,6-2.9,9.1
			c-3.2,16.1-6.2,32.1-6,48.6c0,0.5,0,0.9-0.1,1.4c-0.5,5.5-0.5,5.4-6,5.1c-2.2-0.1-5.7-1.4-6.2,2.2c-0.5,3.7,3.3,2.6,5.3,3.2
			c1.5,0.4,3.2,0.3,4.8,0.6c2.7,0.5,3.4,2.7,1.6,4.8l0,0c-0.6,0.3-1.1,0.6-1.7,0.9c-0.2,0-0.4,0-0.6,0c-1.1,0.2-3,0.7-4.4,2.3
			c-0.3,0.4-1.9,2.1-1.3,3.2c0.4,0.7,1.4,0.9,2.1,1c1.5,0.2,2.5-0.2,6.2-1c1.6-0.4,2-0.4,2.5-0.3c1.2,0.3,2,1.4,2.8,2.7
			c1.3,2.2-0.1,3.4-1.7,4.5c-1,0.7-0.9,0.6-1.3,1c-0.9,0.9-2,2.8-1.2,4c0.6,1,2.1,1,2.2,1c1.3,0,2.2-1,2.3-1.1
			c0.5-0.5,1.3-1.2,2.5-1.8c0.7-0.3,1.4-0.7,2.3-0.6c1.1,0,1.8,0.6,4,2.4c1.4,1.2,2.5,2.1,3.2,2.7c2.2,1.4,5.2,3.1,8.9,4.8
			C887.1,134.1,895.3,137.7,907,139.6z"/>
		<path class="st5" d="M939.3,98.6c0-3.1,3.8-5.9,8.2-6c4-0.1,7.3,2.2,7.3,5c0,3.1-3.8,5.9-8.2,6
			C942.5,103.6,939.3,101.4,939.3,98.6z"/>
		<path class="st6" d="M922.2,104.8c-1.4,1.4-2.7,2.7-4.1,4.1c-0.2,0-0.4,0-0.5,0c-1.4-1.5-2.8-3-4.2-4.5c0.4-0.6,0.8-1.2,1.2-1.8
			c2.3,0.1,4.5,0.1,6.8,0.2C921.6,103.5,921.9,104.2,922.2,104.8z"/>
		<path class="st5" d="M891.9,103.5c-4.3,0-8.3-2.7-8.3-5.8c0-2.8,3.2-5.1,7.2-5.1c4.4,0,8.3,2.7,8.3,5.8
			C899.1,101.2,895.9,103.5,891.9,103.5z"/>
		<path class="st8" d="M907.9,109.3c0.1,0.6,0.6,2.8,2.2,4.2c0.7,0.6,1.5,1,2.3,1.1c1.8,0.2,3.1-0.9,3.7-1.4
			c1.8-1.5,2.2-3.5,2.3-4.2c-0.3,0-0.7,0-1,0c-0.1,0.3-0.3,0.7-0.5,1.1c-0.5,0.8-0.9,1.4-1.3,1.7c0,0-0.3,0.2-0.5,0.4
			c-0.2,0.1-1.9,1-3.4,0.3c-0.6-0.3-0.9-0.7-1.2-1c-1-1.2-1.1-2.6-1.1-3.3C908.9,108.5,908.4,108.9,907.9,109.3z"/>
		<path class="st8" d="M928.3,108.7c0,0.6-0.3,2.7-2,4.3c-0.4,0.4-2,1.9-4,1.6c-1.2-0.2-2-0.9-2.5-1.4c-1.6-1.5-2.1-3.3-2.2-4.2
			c0.3,0,0.6,0,0.8,0c0.1,0.2,0.1,0.4,0.2,0.6c0,0.1,0.1,0.3,0.3,0.5c0.1,0.2,0.4,0.6,0.7,1.1c0.2,0.2,0.7,0.8,1.4,1.1
			c1,0.5,2.3,0.5,3.3,0.1c1.5-0.7,2.5-2.3,2.5-4.2C927.3,108.3,927.8,108.5,928.3,108.7z"/>
		<path class="st9" d="M871.2,54.7c2.3-1.3,5.3-2.7,9.1-3.9c3.6-1.1,6.8-1.8,9.4-2.2c-1.2-2.1-2.5-3.7-3.5-4.9
			c-1.3-1.5-3.2-3.1-7.1-6.2c-1.2-0.9-2.3-1.8-3.5-1.6c-0.7,0.1-1.2,0.6-1.8,1.5c-1.7,2.4-2.2,4.6-2.3,5.3c-0.3,1.4-0.6,3.3-0.7,5.9
			C870.8,50.2,870.8,52.2,871.2,54.7z"/>
		<path class="st9" d="M966.8,57.9c-2.1-1.7-4.9-3.7-8.5-5.5c-3.4-1.7-6.5-2.8-9-3.6c1.5-2.2,3-3.8,4.1-5c1.5-1.5,3.6-3,7.9-6
			c1.3-0.9,2.5-1.7,3.7-1.4c0.7,0.2,1.1,0.9,1.6,1.9c1.3,2.8,1.5,5.4,1.6,6.1c0.1,1.6,0.1,3.8-0.2,6.7
			C967.8,52.9,967.5,55.2,966.8,57.9z"/>
		<path class="st3" d="M910.8,245.7c-7.7,2.1-14.6,0.2-16.9-4c-0.8-1.4-1.9-4.8-0.3-7.8c1.2-2.3,3.4-3.2,4.2-3.4c0-14.3,0-28.7,0-43
			c-1.4-3.3-0.9-7.1,1.3-9.9c3.3-4.1,8.4-3.6,8.7-3.6h1.9c6.8,0,12.3,5.5,12.3,12.3v43.8c0.1,0.9,0.7,6.4-3.3,11
			C915.9,244.6,912.1,245.5,910.8,245.7z"/>
		<path class="st3" d="M943.5,247.3c-7.7,2.1-14.6,0.2-16.9-4c-0.8-1.4-1.9-4.8-0.3-7.8c1.2-2.3,3.4-3.2,4.2-3.4c0-14.3,0-28.7,0-43
			c-1.4-3.3-0.9-7.1,1.3-9.9c3.3-4.1,8.4-3.6,8.7-3.6h1.9c6.8,0,12.3,5.5,12.3,12.3v43.8c0.1,0.9,0.7,6.4-3.3,11
			C948.5,246.2,944.7,247,943.5,247.3z"/>
		<path class="st10" d="M899.9,234.5c-0.4-0.1-0.9-0.3-1.5-0.4c-0.6-0.1-1.7-0.2-2.8,0.2c-1.6,0.6-2.3,2.1-2.5,2.5
			c0.1,0.4,0.1,0.7,0.2,1.1c0.1-0.2,0.2-0.4,0.4-0.6c0.1-0.2,1.2-1.6,3.1-2c1.6-0.4,2.8,0.3,3.2-0.3
			C900,234.9,899.9,234.6,899.9,234.5z"/>
		<path class="st10" d="M901.7,239.3c-0.4-0.1-0.9-0.1-1.6-0.1c-0.6,0-1.7,0.1-2.7,0.7c-1.4,0.9-1.9,2.4-2,2.9
			c0.1,0.4,0.2,0.7,0.3,1.1c0.1-0.2,0.1-0.4,0.3-0.7c0.1-0.2,0.9-1.8,2.7-2.5c1.6-0.6,2.8-0.2,3.1-0.8
			C901.9,239.7,901.8,239.5,901.7,239.3z"/>
		<path class="st10" d="M931.6,236.5c-0.4,0-0.9,0-1.6,0c-0.6,0.1-1.7,0.2-2.7,1c-1.4,1-1.7,2.6-1.7,3.1c0.1,0.3,0.3,0.7,0.4,1
			c0-0.2,0.1-0.4,0.2-0.7c0.1-0.2,0.8-1.8,2.4-2.7c1.5-0.8,2.8-0.4,3-1.1C931.8,236.9,931.7,236.6,931.6,236.5z"/>
		<path class="st10" d="M934.6,240.7c-0.4,0-0.9,0.1-1.6,0.3c-0.6,0.2-1.6,0.5-2.5,1.4c-1.2,1.2-1.2,2.8-1.2,3.3
			c0.2,0.3,0.4,0.6,0.6,1c0-0.2,0-0.4,0.1-0.7c0-0.2,0.4-1.9,2-3.1c1.3-1,2.7-0.9,2.8-1.6C934.8,241.1,934.7,240.8,934.6,240.7z"/>
		<path class="st3" d="M1051,142.9c-5.8,2.6-11.2,2.5-14,2.3c2.1,6.5,4.2,13,6.4,19.5c19.2-1.7,34.6-11.2,37.9-23.9
			c2-7.6-0.1-17.4-3.9-24.4c-4.4-8.2-9.1-9.3-11.8-18.4c-0.8-2.9-3.2-11.1,1.2-16.2c3-3.5,7.9-4.2,9.6-4.4c5-0.6,6.3,1.4,12.9,1.2
			c3.6-0.1,7.9-0.2,9.5-3c1.7-2.9-0.5-6.9-0.7-7.3c-4.1-7.4-16.3-7.5-19.7-7.5c-1.7,0-11.3,0.1-20.3,6.6c-1.8,1.3-4.6,3.4-7.1,7.1
			c-3.3,5-3.8,9.8-4.3,13.6c-0.4,3.4-1.1,10.5,2,18.2c2.6,6.4,5,5.9,8.9,14c2.6,5.5,4.8,10.1,3.1,14.6S1054.4,141.4,1051,142.9z"/>
		<path class="st3" d="M993.4,246.5c-7.7,2.1-14.6,0.2-16.9-4c-0.8-1.4-1.9-4.8-0.3-7.8c1.2-2.3,3.4-3.2,4.2-3.4c0-14.3,0-28.7,0-43
			c-1.4-3.3-0.9-7.1,1.3-9.9c3.3-4.1,8.4-3.6,8.7-3.6h1.9c6.8,0,12.3,5.5,12.3,12.3v43.8c0.1,0.9,0.7,6.4-3.3,11
			C998.5,245.4,994.7,246.3,993.4,246.5z"/>
		<path class="st3" d="M1026.1,248.1c-7.7,2.1-14.6,0.2-16.9-4c-0.8-1.4-1.9-4.8-0.3-7.8c1.2-2.3,3.4-3.2,4.2-3.4
			c0-14.3,0-28.7,0-43c-1.4-3.3-0.9-7.1,1.3-9.9c3.3-4.1,8.4-3.6,8.7-3.6h1.9c6.8,0,12.3,5.5,12.3,12.3v43.8c0.1,0.9,0.7,6.4-3.3,11
			C1031.1,246.9,1027.3,247.8,1026.1,248.1z"/>
		<path class="st10" d="M982.5,235.2c-0.4-0.1-0.9-0.3-1.5-0.4c-0.6-0.1-1.7-0.2-2.8,0.2c-1.6,0.6-2.3,2.1-2.5,2.5
			c0.1,0.4,0.1,0.7,0.2,1.1c0.1-0.2,0.2-0.4,0.4-0.6c0.1-0.2,1.2-1.6,3.1-2c1.6-0.4,2.8,0.3,3.2-0.3
			C982.6,235.7,982.5,235.4,982.5,235.2z"/>
		<path class="st10" d="M984.3,240.1c-0.4-0.1-0.9-0.1-1.6-0.1c-0.6,0-1.7,0.1-2.7,0.7c-1.4,0.9-1.9,2.4-2,2.9
			c0.1,0.4,0.2,0.7,0.3,1.1c0.1-0.2,0.1-0.4,0.3-0.7c0.1-0.2,0.9-1.8,2.7-2.5c1.6-0.6,2.8-0.2,3.1-0.8
			C984.5,240.5,984.4,240.3,984.3,240.1z"/>
		<path class="st10" d="M1014.2,237.2c-0.4,0-0.9,0-1.6,0c-0.6,0.1-1.7,0.2-2.7,1c-1.4,1-1.7,2.6-1.7,3.1c0.1,0.3,0.3,0.7,0.4,1
			c0-0.2,0.1-0.4,0.2-0.7c0.1-0.2,0.8-1.8,2.4-2.7c1.5-0.8,2.8-0.4,3-1.1C1014.4,237.6,1014.3,237.4,1014.2,237.2z"/>
		<path class="st10" d="M1017.2,241.5c-0.4,0-0.9,0.1-1.6,0.3c-0.6,0.2-1.6,0.5-2.5,1.4c-1.2,1.2-1.2,2.8-1.2,3.3
			c0.2,0.3,0.4,0.6,0.6,1c0-0.2,0-0.4,0.1-0.7c0-0.2,0.4-1.9,2-3.1c1.3-1,2.7-0.9,2.8-1.6C1017.4,241.8,1017.3,241.6,1017.2,241.5z"
			/>
	</g>
</g>
<g>
	<path class="st14" d="M1127.8,181c0,0.8,0,1.5-0.1,2.3c0,0.5,0,1,0,1.5c0,0-0.2,0-0.3,0c0-1.3,0-2.5,0-3.8
		C1127.6,181,1127.7,181,1127.8,181z"/>
	<path class="st15" d="M1127.5,184.8c0.1,0,0.2,0,0.3,0c0,0.3,0,0.6,0,0.9c0,0-0.2,0.1-0.3,0.1
		C1127.5,185.5,1127.5,185.2,1127.5,184.8z"/>
	<path class="st16" d="M1264.5,245.2c0,0.1,0.1,0.2,0.1,0.3C1264.6,245.4,1264.6,245.3,1264.5,245.2z"/>
	<path class="st16" d="M1265.6,248.8c0,0,0,0.1,0,0.2C1265.7,248.9,1265.6,248.9,1265.6,248.8z"/>
	<path class="st16" d="M1265,247c0,0,0,0.1,0,0.1L1265,247L1265,247z"/>
	<path class="st16" d="M1263,213.9c0,0,0,0.1,0.1,0.1l0,0C1263,214,1262.9,214,1263,213.9z"/>
	<g>
		<path class="st17" d="M1405.2,80.8c-0.5-4.7-1.3-9.3-2.8-13.8c-1.7-5.1-4-10-6.6-14.8c-1.5-2.8-3-5.5-5.1-7.9
			c-1.1-1.3-2.4-2.5-3.6-3.8c-0.3-0.3-0.6-0.4-1-0.7c-0.3,0.5-0.5,0.8-0.6,1.2c-0.8,1.8-2,2.3-3.8,1.5c-1.1-0.5-2.1-1.3-2.9-2.1
			c-1.7-1.8-3.3-3.6-5-5.5c-2.1-2.3-4.3-4.6-6.4-6.9c-0.4-0.5-1-0.8-1.5-1.2c-0.1,0.1-0.1,0.1-0.2,0.2c0.2,0.4,0.3,0.7,0.5,1.1
			c0.2,0.7-0.1,1-0.8,0.8c-0.6-0.2-1.2-0.4-1.8-0.7c-1.5-0.8-3.1-1.7-4.6-2.6c-2.8-1.6-5.6-2.8-8.7-3.8c-0.2-0.1-0.4-0.3-0.6-0.4
			c-2.5,0-5.1,0-7.6,0c0.3,0.3,0.6,0.7,0.9,1c1.7,1.2,3.3,2.3,5,3.5c0.4,0.3,0.8,0.7,1.2,1.1c0.5,0.6,0.3,1.2-0.5,1.3
			c-0.5,0-1,0-1.4-0.1c-2.1-0.5-4.2-0.9-6.3-1.4c-4.5-1-9-1.5-13.6-1.3c-3.3,0.2-6.5,0.6-9.6,1.8c-2.3,0.9-4.3,2.1-6.2,3.6
			c-0.3,0.3-0.5,0.5-0.8,0.8c-0.1,0.1-0.1,0.2-0.2,0.3c0.3,0.1,0.5,0.2,0.7,0.3c0.8,0.1,1.7,0.3,2.6,0.4c1,0.2,1.9,0.3,2.8,0.6
			c2.2,0.8,4.4,1.2,6.6,1.6c4.8,1,9.5,2.4,13.9,4.8c2.9,1.6,5.6,3.6,8.1,5.6c1.3,1,2.5,2,3.8,3.1c0.3,0.3,0.7,0.5,0.5,1
			c-0.2,0.5-0.7,0.3-1.1,0.3c-2.3-0.2-4.6-0.4-6.9-0.6c-0.9-0.1-1.8-0.2-2.7,0.3c0.1,0.5,0.5,0.7,0.8,0.8c1.1,0.5,2.3,1,3.4,1.5
			c10,3.8,18.8,9.4,26.1,17.2c3.4,3.6,6.1,7.7,7.8,12.4c1.1,3,1.8,6.1,2,9.4c0,0.6,0,1.3,0,1.9c-0.1,1.2-0.7,1.5-1.7,0.9
			c-1.3-0.6-2.5-1.4-3.7-2c-0.3-0.1-0.5-0.3-1-0.5c0.2,0.6,0.3,1,0.5,1.3c1.8,4.8,3.4,9.7,4.3,14.8c1.1,6.6,0.9,13.2-0.9,19.6
			c-0.6,2.2-1.4,4.4-2,6.6c0,0.1-0.2,0.3-0.4,0.6c0-0.4-0.1-0.6-0.1-0.8c-0.2,0-0.4,0.1-0.4,0.2c-0.7,0.9-1.3,1.8-1.9,2.8
			c0,0.1,0,0.2,0,0.3c1.3,0.2,2.5,0.4,3.8,0.7c4.1,0.8,7.9,2.4,11.4,4.6c-0.1-0.8-0.2-1.5-0.3-2.2c0.1,0,0.2,0,0.3,0
			c0.1,0.5,0.3,1,0.5,1.8c0.8-1.3,1.6-2.3,2.3-3.4c1.6-2.5,2.7-5.3,3.6-8.1c1.6-5.1,3.6-10,6-14.7c1.7-3.3,2.8-6.8,3.5-10.4
			c0.8-3.5,1.5-6.9,2.2-10.4C1405.7,89.8,1405.7,85.3,1405.2,80.8z"/>
		<path class="st17" d="M1398.6,154.3c-1.1-2.8-2.8-6.6-6.6-10c-3-2.7-6-3.8-8.8-4.9c-4.1-1.6-7.8-2.2-10.4-2.5
			c-0.6-0.6-1.3-1.7-1.8-3.1c-0.2-0.6-0.1-0.5-0.5-2.9c-0.3-1.9-0.7-3.8-1-5.7c-0.1-0.9-0.5-1.7-1.2-2.2c0.1-0.5,0.3-1.1,0.4-1.6
			c-0.3-1.1-0.5-2.2-0.8-3.3c-0.3-1.3-0.7-2.7-1.1-4c-0.1-0.3-0.3-0.7-0.5-1c-0.2-0.4-0.5-0.6-1-0.4c-0.7,0.3-0.9,0.2-1.1-0.5
			c-0.3-0.7-0.4-1.3-0.5-2c-0.6-4.3-1.3-8.6-1.8-12.9c-0.6-4.6-1.2-9.1-1.8-13.6c-0.1-1-0.4-1.9-0.7-2.8c-0.3-0.9-0.8-1.5-1.8-1.7
			c-3.4-0.7-5.8-2.8-8-5.3c-3.3-3.8-5.8-8.1-8.2-12.4c-0.4-0.7-0.8-1.5-1.3-2.3c-0.3,0.4-0.4,0.6-0.5,0.9c-0.5,0.7-0.9,1.3-1.4,2
			c-0.3,0.3-0.6,0.6-1,0.5c-0.5-0.2-0.5-0.6-0.5-1.1c0-0.2,0-0.5-0.1-0.8c-0.6,0.4-1,0.9-1.3,1.3c-1.2,1.7-2.4,3.3-3.6,5
			c-1.4,1.9-2.9,3.8-4.7,5.4c-0.6,0.5-1.2,1-1.8,1.4c-1.2,0.7-2.1,0.3-2.6-1c-0.2-0.5-0.3-1.1-0.5-1.7c-0.1-0.3-0.2-0.7-0.3-1.1
			c-0.6,0.2-0.8,0.6-1,1c-1.1,2-2.2,4.1-3.3,6.2c-2.3,4.5-4.6,8.9-6.9,13.4c-0.3,0.6-0.8,1.2-1.1,1.8c0,0,0.1,0.1,0.2,0.1
			c0.2,0.6-0.4,1-0.6,1.4c-0.2,0.2-0.6,0.3-0.9,0.4c0,0.2,0.2,0.5-0.3,0.6c0.3,1.8,0.4,3,0.4,3l0,0c0,0-1.3-1.9-3.3-4.9
			c-0.1,1.6-0.5,3.3-1.2,5.1c-0.1,0.2-0.1,0.3-0.2,0.5c-0.4-0.8,0.1-1,0.3-1.3c0-0.6-0.5-0.9-0.8-1.3c-0.4,0.1-0.8,0.3-1.2,0.4
			c0.9-0.6,0.6-1.5,0.6-2.3c-0.1-4.1-0.3-8.1-0.3-12.1c0-2.3,0-4.5,0-6.8c0-1.8-0.3-3.6-0.6-5.3c-0.3-1.5-0.5-3-0.7-4.5
			c-0.3-2.8-0.4-5.7-0.6-8.6c-0.1-1.6-0.4-3.1-0.9-4.8c-0.2,0.5-0.4,0.8-0.5,1c-0.3,0.6-0.5,1.2-0.8,1.8c-0.2,0.3-0.3,0.8-0.8,0.6
			c-0.3-0.1-0.5-0.5-0.5-0.8c-0.2-0.4-0.2-0.8-0.3-1.3c-0.1-0.8-0.1-1.5-0.3-2.3c-0.5-3.3-1.1-6.7-1.7-10.1c-0.3-1.9-1-3.7-1.8-5.5
			c-1-2.2-1.9-4.4-2.8-6.6c-0.8-1.8-1.5-3.5-2.2-5.2c-0.2-0.5-0.4-1-0.9-1.4c-0.2,0.3-0.3,0.5-0.5,0.7c-0.5,0.5-0.9,0.5-1.3-0.1
			c-0.1-0.2-0.2-0.4-0.3-0.6c-0.4-0.8-0.8-1.7-1.2-2.5c-0.1,0.1-0.3,0.2-0.4,0.3c-0.6,0.8-1.1,1.7-1.7,2.5c-2.7,3.4-5.8,6.5-9.4,8.9
			c-0.3,0.2-0.6,0.4-1,0.5c-0.7,0.3-1,0-0.9-0.7c0-0.4,0.1-0.8,0.2-1.2c-0.3,0.1-0.3,0.2-0.4,0.2c-2.7,2-5.3,4.1-7.7,6.3
			c-2.1,2-4.3,4-5.5,6.8c-0.3,0.7-0.7,0.8-1.5,0.7c-0.7-0.1-1.4-0.2-2.1-0.2c-1-0.1-2,0-3-0.2c-3-0.5-6-0.8-9-1
			c-3-0.2-5.9-0.3-8.9-0.1c-1.2,0.1-2.3,0.1-3.6,0.2c-0.3,0-0.5,0-0.4-0.4c-0.5,0.2-1,0.1-1.4-0.2c-0.8-0.4-1.5-0.9-2.3-1.3
			c-0.2-0.1-0.5-0.2-0.8-0.2c0.1,0.2,0.2,0.4,0.3,0.5c0.1,0.2,0.3,0.3,0.5,0.5c0.4,0.7,0.3,1-0.5,1c-0.6,0-1.3,0.1-1.9,0
			c-2.5-0.5-5.1-1.2-7.6-1.8c-0.9-0.2-1.6-0.6-2.2-1.3c-0.4-0.4-0.7-0.8-1.1-1.2c-0.3-0.3-0.5-0.5-0.8-0.8c-1.8-1.4-3.7-2.7-5.5-4.1
			c-1.3-1-2.5-2-3.8-3.1c-0.2-0.1-0.4-0.3-0.7-0.5c0.1,0.6,0.2,1,0.4,1.5c-0.4-0.1-0.6-0.2-0.8-0.3c-1.6-1-3.3-1.8-5.2-2.2
			c-1.2-0.3-2.3-0.9-3.3-1.7c-1.4-1.2-2.9-2.2-4.3-3.3c-0.7-0.5-1.3-1-2-1.5c-0.6-0.4-1.3-0.8-2-1c-1-0.4-2-0.7-3-1.1
			c-0.5-0.2-0.9-0.2-1.2,0.3c-0.3,0.5-0.5,0.9-0.8,1.4c-0.3,0.6-0.5,1.3-0.8,2c-0.6,1.4-1.2,2.8-1.5,4.3c-0.2,0.8-0.5,1.5-0.8,2.2
			c-1.3,2.8-2,5.8-2.3,8.9c0,0.4-0.1,0.9-0.2,1.3c0,0.2-0.2,0.4-0.4,0.6c-0.6-0.6-0.6-1.4-0.8-2.1c-0.2-0.7-0.3-1.5-0.6-2.2
			c-0.1,0.2-0.2,0.5-0.2,0.7c-0.4,3.9-1.3,7.8-2,11.7c-0.4,2.1-1,4.2-1.6,6.3c-1.5,5.2-2.6,10.5-3,16c0,0.6-0.1,1.1-0.3,1.7
			c-0.2,0.5-0.5,0.6-0.9,0.1c-0.2-0.3-0.3-0.5-0.5-0.8c-0.5-1.1-1-2.3-1.8-3.4c0,0.3-0.2,0.6-0.2,0.9c0,1.6,0,3.3,0,4.9
			c0.2,6,0.9,11.9,1.6,17.9c0,0.5,0,1,0,1.5c0.2,0.6,0.3,1.2,0.8,1.6c0.2,0.2,0.4,0.3,0.5,0.6c0.4,0.7,0.8,1.4,1.1,2.1
			c0.7,1.3,1.4,2.5,2,3.7c0.2,0.3,0.3,0.8,0.4,1.1c0.1,0.5-0.2,0.7-0.7,0.6c-0.4-0.1-0.8-0.3-1.1-0.5c-0.5-0.3-1-0.5-1.4-0.8
			c0,0-0.1,0.1-0.1,0.2c0.7,1,1.3,2.1,2,3.1c2.4,3.3,4.9,6.6,7.4,9.9c2,2.8,4,5.6,6.2,8.2c1.7,2.1,3.6,4.1,5.5,6.1
			c2.3,2.6,4.9,4.1,6.4,5c0.7,0.4,2.3,1.4,4.5,2.5c3.3,1.6,3.2,1.1,6.6,2.7c2.4,1.1,6.7,3.2,7.7,3.3c0.3,0.1,0.7,0.1,1,0.3
			c0.1,0,0.1,0.2,0.3,0.3c0.3,0.3,0.5,0.4,0.6,0.5c-0.5,0-1.3-0.2-2.2-0.3c-2.1-0.3-3.2-0.5-4.4-0.7c-2.1-0.3-3.5-0.3-5.1-0.4
			c-5.4-0.5-10.8-1-16.2-1.5c-5.3-0.4-10.5-0.3-15.7,0.6c-8.6,1.4-16.7,4.3-23.8,9.5c-5.7,4.2-9.9,9.6-12,16.5
			c-2,6.6-2.5,13.4-1.5,20.3c1.2,8.1,4.1,15.7,8.6,22.6c4.1,6.3,9.2,11.7,14.9,16.6c5.3,4.6,10.9,8.8,16.7,12.8
			c5,3.5,9.9,7.1,14.9,10.6c2,1.4,4.1,2.8,6.2,4.2c0.5,0.4,1.2,0.6,1.8,0.9c1,0.5,1.9,1.3,2.9,1.5c0.1,0,0.3,0.1,0.3,0.3
			c0,0.1,0,0.2,0,0.3c0,0.2-0.4,2.1-1.2,2.8c-0.3,0.2-0.5,0.3-0.5,0.3c-0.4,0-0.8,0-1.2,0c-1.1-0.3-2.3-0.6-3.4-0.9
			c-3.1-0.9-6.1-1.8-9.2-2.6c-1.9-0.5-3.9-0.9-5.9-0.7c-1.8,0.2-3.3,0.8-4.3,2.3c-1.2,1.5-2,3.3-2.2,5.2c-0.5,5.4,1.4,6.9,0,10.2
			c-0.2,0.5-0.8,1.7-0.8,3.3c0,1,0.2,1.8,0.4,2.4c0.6-0.4,1.4-1,2.3-2c1.5-1.6,1.2-2.5,3-4.8c1.2-1.4,2.3-2.9,3.4-4.4
			c0.6-0.8,1.3-1.6,2.2-2.1c1.2-0.7,2.4-1.3,3.8-2c-0.1,0.6-0.1,0.9-0.2,1.2c-0.1,0.5-0.4,1-0.5,1.5c-0.1,1.2-0.5,4.8,1.3,8.5
			c0.8,1.7,1.8,2.9,1.9,5.1c0,0.5,0,0.8,0,1.1c0.4-0.5,1.1-1.3,1.8-2.4c0.5-0.8,0.8-1.5,1-1.7c1.6-1.6,2.7-3.6,3.9-5.5
			c1.1-1.9,2.4-3.7,3.6-5.6c1.2-0.1,2.4-0.2,3.6-0.2c0.3,0,0.7,0.1,1,0.2c0.7,0.3,1.3,0.8,1.9,1.1c0.6,0.3,0.8,0.7,0.8,1.3
			c0.1,1.7,0.3,3.4,0.4,5.1c0.2,2.5,0.8,4.8,2,7c-0.1,0.9-0.2,1.7-0.3,2.6c1.1-0.9,2.3-1.8,3.4-2.6c0.8-0.6,1-1.5,1.3-2.3
			c0.5-1.9,1-3.9,1.5-5.8c0.5-1.8,1.3-3.3,3.4-3.4c0.3,0,0.6-0.1,0.9-0.1c2.8-0.1,4.5-0.1,6.5,0.8c0.6,0.3,1.4,0.7,2.3,1.5
			c0.4,0.7,0.8,1.4,1.1,2.1c-0.4-2.8-1.3-4.9-1.9-6.3c-0.8-1.5-1.8-3-4.1-5.6c-1.1-1.2-2.1-2.4-3.2-3.6c-0.7-0.7-1.4-1.3-2.2-2
			c-0.4-0.3-0.8-0.5-1.1-0.8c-2.8-2.4-5.6-4.9-8.4-7.4c-6.7-6-9.6-8-18.1-16.8c-4.2-4.4-8-8.4-12.2-14.3c-3.8-5.4-6.1-9.8-7.8-13
			c-4.2-8.1-4.8-11.7-5-12.8c-0.4-2.6-1-6.1,0.2-10.3c2-7.1,7.5-10.9,8.9-11.8c3.5-2.3,6.7-3,11.5-4.1c3.6-0.8,6.3-1,8.8-1.2
			c5.7-0.5,8.6-0.1,9.6,0.1c2.1,0.4,3.7,1,5.7,1.7c1,0.3,1.1,0.4,0.8,1.4c0,0.1,0,0.2-0.1,0.3c-0.8,2.6-0.9,5.3-0.6,8
			c0.4,3.4,1.6,6.7,3.2,9.7c2.3,4.3,5.6,7.8,9.4,10.8c4.3,3.4,9.2,5.9,14.3,8c4.2,1.7,8.5,2.9,13,3.5c3.6,0.4,3.8-0.1,9.9,0.3
			c2.8,0.2,5.6,0,8.4,0.3c0.4,0,1.5,0.2,2.9-0.1c1.3-0.3,2.2-0.7,2.5-0.8c5.1-2.4,9.2-2,11.4-5.4c0.3-0.4,0.7-1.2,1-2.3
			c-0.3-2.6-0.6-5.1-1.3-7.6c-1.2-4.1-3.4-7.5-6.8-10.2c-2.8-2.2-5.8-3.9-9.1-5.2c-1.5-0.6-3.1-1.1-4.7-1.6
			c-0.5-0.2-0.9-0.3-1.3-0.6c-0.1-0.1-0.1-0.3-0.3-0.7c1,0.7,1.8,0.9,2.7,1.1c4.3,1.3,8.3,3.1,11.9,5.8c2,1.5,3.7,3.2,5,5.1
			c1.2,1.7,2.8,4,3.2,6.9c0.5,3.9-1.8,5.7-3.3,10.3c-0.9,2.8-0.5,3.4-1,12.2c-0.7,14.6-1.8,14.2-1.7,23.1c0,1,0.1,4.4-0.3,9
			c-0.5,5.1-0.8,7.6-2.2,9.1c-1.5,1.6-2.6,1-10,3.3c-4.9,1.5-6,2.3-6.6,3.4c-1.1,2.2,0.1,4.9,0.8,6.2c1.2,2.5,2.6,3.6,3.6,4.1
			c2.9,1.5,6.8,1,13.1,0.5c0.5,0,0.8-0.1,0.8-0.1c0,0,0.2,0,0.3,0.1c0.4,0.1,0.9-0.1,1.1,0.1s0.1,0.8,0.1,1.1
			c0.3,3.7,0.5,7.3,0.8,11c0,0.1,0.1,0.2,0.2,0.3c0.3-0.3,0.5-0.5,0.8-0.7c1.9-1.8,3.3-4,4.5-6.3c1.4-2.5,2-5.3,2.5-8.2
			c0-0.3,0-0.7-0.3-0.8c-1.1-0.6-1.9-1.7-3.3-1.7c-0.1,0-0.2-0.1-0.5-0.3c0.4-0.1,0.7-0.3,0.8-0.2c0.6,0.2,1.1,0.4,1.7,0.6
			c0.5,0.3,1,0.6,1.4,1c0.8,0.5,0.9,0.8,0.8,1.7c-0.1,0.7-0.3,1.4-0.4,2c0.1,0.1,0.1,0.1,0.2,0.1c2,1,3.6,2.4,4.2,4.6
			c0.1,0.4,0.3,0.8,0.5,1.1c0.8,1.9,1.6,3.8,2.3,5.7c0.2,0.4,0.3,0.8,0.4,1.1c0.1,0,0.2,0,0.3,0c0.5-0.9,1.1-1.7,1.4-2.6
			c1.1-2.8,1.7-5.7,1.8-8.8c0-0.7-0.2-1.3-0.6-1.9c-1-1.3-2.1-2.5-3.5-3.3c-0.1-0.1-0.3-0.2-0.4-0.3c-0.1-0.1-0.1-0.3-0.1-0.5
			c0.2,0,0.4-0.1,0.5-0.1c0.2,0,0.4,0.2,0.5,0.3c1.5,1,2.8,2.3,3.8,3.7c0.4,0.6,0.5,1.2,0.5,1.9c0,0.5,0,1.1-0.1,1.7
			c0.5,0.1,0.8,0.3,1.2,0.3c1,0.1,1.6,0.8,2,1.6c0.8,2.1,1.6,4.2,2.5,6.3c0.1,0.3,0.3,0.5,0.5,0.9c0.5-1,0.8-1.9,1.1-2.7
			c0-0.3,0.1-0.5,0.2-0.7c0.1-2.7,0.1-5.4,0.2-8.1c0,0,0-0.1,0-0.2c0-0.1-0.1-0.3-0.2-0.4c-0.2-1-0.7-1.8-1.6-2.1
			c-0.1,0-0.3-0.1-0.3-0.2c-1.9-1.5-4-2.6-6.2-3.6c-1.9-0.8-3.8-1.5-5.9-1.8c-0.7-0.1-1.4-0.3-2.2-0.4c0-0.3,0.1-0.5,0.2-0.6
			c0.1-0.2,0.2-0.4,0.3-0.5c2.3-3.3,3.8-7.1,5.9-10.4c3.6-5.6,7-14.9,10.1-23.1c3-7.9,4.5-11.9,5.6-16.9c2.8-12.4,2-21,1.8-22.9
			c-0.5-4.7-1.5-8.4-2-10.3c-0.8-2.9-1.9-6.6-4.4-11c-3.7-6.6-8.4-10.6-10.1-12c-1.5-1.2-7.6-6-14.6-7.5c-3.4-0.7-7.6-0.7-8.5-0.7
			c-0.8,0-1.6,0-2.6,0.1c-2.1,0.3-3.7,0.8-4.8,1.3c0.1-0.1,0.3-0.2,0.4-0.3c0.9-0.6,3-2,7.8-2.4c0.9-0.1,3.7-0.2,7.5,0.5
			c1.9,0.4,6,1.3,10.5,3.9c2.7,1.5,4.5,3.1,6.3,4.7c1,0.9,5.5,4.7,8.6,9.2c5.6,7.9,6.6,17.1,6.8,21.6c0.5-0.2,1.2-0.4,1.9-0.8
			c0.3-0.1,0.6-0.3,1.1-0.6c0.9-0.5,1.3-1,2.9-1.9c2.6-1.5,5.5-2.5,8.2-3.6c1.5-0.6,2.9-0.9,4.5-0.8c2.9,0,5.8,0,8.7-0.4
			c1.3-0.2,2.7-0.2,4-0.5c1.7-0.5,3.3-1.1,4.9-1.8c3.3-1.4,6.1-3.6,8.9-5.8c0.4-0.3,0.8-0.8,1.1-1.1c-0.1-0.2-0.1-0.2-0.1-0.2
			c-0.1-0.1-0.3-0.1-0.3-0.2c-3.5-1.6-7.1-2.4-10.9-2.5c-4.1-0.1-8.1,0.6-11.9,1.9c-0.3,0.1-0.7,0.2-1,0.3c0-0.1-0.1-0.2-0.1-0.3
			c0.3-0.2,0.5-0.3,0.8-0.4c3.3-1.1,6.7-1.9,10.2-2c4.5-0.2,8.8,0.5,12.9,2.4c4.5,2,8.1,5.1,10.6,9.5c2.3,4.1,3.2,8.5,3.4,13.1
			c0.3,6.3-0.8,12.5-2.4,18.6c-1.2,4.5-2.4,9-4.3,13.2c-0.8,1.8-1.5,3.7-2.2,5.5c-1.6,3.8-3.3,7.5-4.8,11.3c-1,2.4-2,4.8-3.3,7.1
			c-0.8,1.4-1.5,2.9-2.2,4.3c0,0-0.1,0.1-0.1,0.2c0,0,0,0.1-0.1,0.2c0,0.3,0,0.5,0,0.7c-0.8,2.3-1.5,4.6-2.9,6.6
			c-0.2,0.3-0.3,0.8-0.5,1c-0.1,0.2-0.4,0.3-0.6,0.4c0,0.1-0.1,0.2-0.1,0.3c0,0.5,0,1-0.6,1.1c0,0.1-0.1,0.1-0.2,0.2
			c0,0,0,0.1,0,0.1c0,0.1-0.1,0.2-0.2,0.3c0,0,0,0,0,0.1c0,0.1-0.1,0.2-0.2,0.3l0,0l0,0c0,0.5,0,1-0.6,1.1c-0.3,0.7-0.6,1.3-0.9,2
			c-2.1,5.3-3.2,10.8-3.7,16.4c-0.1,1,0,2.1,0.1,3.4c0.5-0.6,0.9-1,1.3-1.4c2.3-2.8,4.6-5.7,6.8-8.6c1-1.3,2.3-2.4,3.8-3.1
			c1.7-0.8,2.7-0.5,3.4,1.3c1,2.8,2.1,5.6,3.2,8.4c0.1,0.3,0.3,0.7,0.5,1c0.6,0.9,0.8,1.9,1.1,2.9c0,0.2,0.1,0.3,0.2,0.7
			c0.4-0.6,0.6-1,0.9-1.4c1.8-2.3,2.8-4.8,3.3-7.6s0.9-5.5-0.3-8.2c0,0,0.1-0.1,0.1-0.2c0.1,0,0.3-0.1,0.4-0.1
			c1.3-0.1,2.7-0.1,4,0.3c1.7,0.5,3,1.4,3.9,3c0.5,1,0.8,2.2,0.8,3.4c0,1.4-0.2,2.8-0.3,4.1c0,0.3-0.2,0.6,0.3,0.8
			c0.2-0.2,0.4-0.4,0.6-0.6c1.6-2,3-4.2,4-6.6c0.8-1.9,1.3-4,1.2-6.1c-0.2-3.3-2.1-5.5-5.3-6.1c-1.8-0.3-3.6-0.3-5.3,0
			c-3.6,0.5-7.4,0.6-10.7,2.4c0,0,0,0-0.1,0c-0.8,0.3-1.3,0.1-1.8-0.6c-0.7-1-1.1-2-1.3-3.3c-0.1-0.7,0-1.3,0.6-1.8
			c0.4-0.3,0.7-0.8,1-1.2c2.5-3.4,5.1-6.9,7.6-10.3c0.1-0.2,0.3-0.3,0.3-0.5c0-0.8,0.5-1.3,1-1.9c0.8-1,1.5-2,2.3-3
			c3.6-4.3,6.8-8.9,9.3-13.9c0.6-1.1,1.3-2.1,2-3.2c1.7-2.7,3.5-5.3,5-8.1c5.1-8.9,8.9-18.4,11.4-28.3c1.9-7.4,2.9-15,2.4-22.7
			C1401.1,162.8,1400.3,158.4,1398.6,154.3z"/>
		<path class="st3" d="M1403.5,80.8c-0.5-4.7-1.3-9.3-2.8-13.8c-1.7-5.1-4-10-6.6-14.8c-1.5-2.8-3-5.5-5.1-7.9
			c-1.1-1.3-2.4-2.5-3.6-3.8c-0.3-0.3-0.6-0.4-1-0.7c-0.3,0.5-0.5,0.8-0.6,1.2c-0.8,1.8-2,2.3-3.8,1.5c-1.1-0.5-2.1-1.3-2.9-2.1
			c-1.7-1.8-3.3-3.6-5-5.5c-2.1-2.3-4.3-4.6-6.4-6.9c-0.4-0.5-1-0.8-1.5-1.2c-0.1,0.1-0.1,0.1-0.2,0.2c0.2,0.4,0.3,0.7,0.5,1.1
			c0.2,0.7-0.1,1-0.8,0.8c-0.6-0.2-1.2-0.4-1.8-0.7c-1.5-0.8-3.1-1.7-4.6-2.6c-2.8-1.6-5.6-2.8-8.7-3.8c-0.2-0.1-0.4-0.3-0.6-0.4
			c-2.5,0-5.1,0-7.6,0c0.3,0.3,0.6,0.7,0.9,1c1.7,1.2,3.3,2.3,5,3.5c0.4,0.3,0.8,0.7,1.2,1.1c0.5,0.6,0.3,1.2-0.5,1.3
			c-0.5,0-1,0-1.4-0.1c-2.1-0.5-4.2-0.9-6.3-1.4c-4.5-1-9-1.5-13.6-1.3c-3.3,0.2-6.5,0.6-9.6,1.8c-2.3,0.9-4.3,2.1-6.2,3.6
			c-0.3,0.3-0.5,0.5-0.8,0.8c-0.1,0.1-0.1,0.2-0.2,0.3c0.3,0.1,0.5,0.2,0.7,0.3c0.8,0.1,1.7,0.3,2.6,0.4c1,0.2,1.9,0.3,2.8,0.6
			c2.2,0.8,4.4,1.2,6.6,1.6c4.8,1,9.5,2.4,13.9,4.8c2.9,1.6,5.6,3.6,8.1,5.6c1.3,1,2.5,2,3.8,3.1c0.3,0.3,0.7,0.5,0.5,1
			c-0.2,0.5-0.7,0.3-1.1,0.3c-2.3-0.2-4.6-0.4-6.9-0.6c-0.9-0.1-1.8-0.2-2.7,0.3c0.1,0.5,0.5,0.7,0.8,0.8c1.1,0.5,2.3,1,3.4,1.5
			c10,3.8,18.8,9.4,26.1,17.2c3.4,3.6,6.1,7.7,7.8,12.4c1.1,3,1.8,6.1,2,9.4c0,0.6,0,1.3,0,1.9c-0.1,1.2-0.7,1.5-1.7,0.9
			c-1.3-0.6-2.5-1.4-3.7-2c-0.3-0.1-0.5-0.3-1-0.5c0.2,0.6,0.3,1,0.5,1.3c1.8,4.8,3.4,9.7,4.3,14.8c1.1,6.6,0.9,13.2-0.9,19.6
			c-0.6,2.2-1.4,4.4-2,6.6c0,0.1-0.2,0.3-0.4,0.6c0-0.4-0.1-0.6-0.1-0.8c-0.2,0-0.4,0.1-0.4,0.2c-0.7,0.9-1.3,1.8-1.9,2.8
			c0,0.1,0,0.2,0,0.3c1.3,0.2,2.5,0.4,3.8,0.7c4.1,0.8,7.9,2.4,11.4,4.6c-0.1-0.8-0.2-1.5-0.3-2.2c0.1,0,0.2,0,0.3,0
			c0.1,0.5,0.3,1,0.5,1.8c0.8-1.3,1.6-2.3,2.3-3.4c1.6-2.5,2.7-5.3,3.6-8.1c1.6-5.1,3.6-10,6-14.7c1.7-3.3,2.8-6.8,3.5-10.4
			c0.8-3.5,1.5-6.9,2.2-10.4C1404,89.8,1404,85.3,1403.5,80.8z"/>
		<path class="st3" d="M1257.8,267.2c0.8-0.2,0.8-1.1,1.8-2c0.3-0.3,0.6-0.5,2.5-1.4c2-1,3.7-1.7,4.9-2.2c1.5-0.6,2.2-0.9,2.5-1.1
			c1.7-0.6,2.6-0.8,4.2-1.5c0.8-0.3,1.3-0.6,1.7-0.8c0-0.3,0.1-0.7,0.2-1.2c0.4-3,0.3-5.2,0.3-5.8c0-1.7,0.1-3.3,1.1-10.6
			c1.5-11.4,2.2-17,2.5-19c0.8-5.2,1.5-8.5,1.8-14c0.1-2.4,0-4.4,0-5.7c-0.5,0.3-0.9,0.5-1.4,0.7c-0.7,0.4-1.4,0.7-2.1,1
			c-1.7,1-3.1,1.6-4.1,1.9c-2.1,0.7-4.2,1.5-6.3,2.3c-0.1,0-0.3,0.1-0.5,0.3c-0.3,0.2-0.4,0.5-0.6,0.8c-1.3,2.7-1.6,5.6-1.8,8.5
			c0,0.8-0.1,1.7-0.2,2.5c0,0.3,0,0.6-0.4,0.5c0,0.1,0,0.1,0,0.2c0.4-0.1,0.4,0.2,0.4,0.4c0,0.8,0,1.5,0,2.3c0,2.8,0,5.6,0.2,8.4
			c0.1,2.2,0.4,4.5,0.7,6.6c0.5,3.6,1.2,7.1,2.3,10.5c0,0.1,0.3,0.7,0.6,1.5c0.3,0.8,0.5,1.5,0.7,2c0,0.3,0.1,0.7,0.1,1
			c0,0.3,0.1,0.6,0.2,0.9c0.3,0.2,0.5,0.4,1,0.7c-0.8,0-2.2-0.6-3.8-1.5c-2.3-1.1-4.5-2.2-6.7-3.3c-0.9-0.5-1.9-0.8-2.9-1.2
			c-0.6-0.2-1.2-0.3-1.8-0.5c-2.3-0.4-4.2,0.4-5.6,2.3c-1.3,1.7-2.1,3.6-2.8,5.5c-0.4,1.1-0.8,2.2-1.1,3.3c-0.1,0.2,0,0.5,0,0.8
			c0.5-0.2,0.8-0.2,1.2-0.4c1-0.5,2-1,3.1-1.3c0.8-0.3,1.7-0.5,2.5-0.6c1.6-0.2,2.4,0.8,2,2.3c-0.3,1-0.7,1.9-1.1,2.9
			c-0.3,0.7-0.6,1.3-0.8,2c-0.2,0.7,0,1,0.7,1c1,0,1.9,0,2.9,0C1256.7,267.3,1257.4,267.3,1257.8,267.2z"/>
		<path class="st3" d="M1395.5,155.5c-1.1-2.8-2.8-6.6-6.6-9.9c-3-2.7-5.9-3.8-8.7-4.9c-7.9-3-15-2.9-18.7-2.5
			c-3.3,0.3-9.9,0.8-16.4,4.6c-3.9,2.3-13.1,8.8-14.2,9.5c0,0-0.5,0.3-1,0.7c-0.2,0.2-0.4,0.3-0.7,0.5c0.3-0.5,0.6-0.9,0.8-1.2
			c3.4-4.6,7.4-6.5,8.4-7.2c0.1-0.1,0.3-0.1,0.4-0.2c0.3-0.3,0.7-0.5,1-0.8c2.8-1.8,5.7-3.3,8.7-4.5c5.6-2.3,11.5-3.4,17.5-3.3
			c0.7,0,1.5,0,2.2,0.1c0-0.4-0.1-0.8-0.2-1.3c-0.2-1-0.3-1.9-0.5-2.8c-0.3-1.9-0.7-3.8-1-5.7c-0.1-0.9-0.5-1.6-1.2-2.2
			c0.1-0.5,0.3-1.1,0.4-1.6c-0.3-1.1-0.5-2.2-0.8-3.3c-0.3-1.3-0.7-2.6-1.1-4c-0.1-0.3-0.3-0.7-0.4-1c-0.2-0.4-0.5-0.6-1-0.4
			c-0.7,0.3-0.9,0.2-1.1-0.5c-0.2-0.7-0.4-1.3-0.5-2c-0.6-4.3-1.3-8.5-1.8-12.8c-0.6-4.5-1.2-9-1.8-13.5c-0.1-1-0.4-1.9-0.7-2.8
			c-0.3-0.9-0.8-1.5-1.8-1.7c-3.3-0.7-5.8-2.8-7.9-5.3c-3.3-3.8-5.7-8-8.1-12.4c-0.4-0.7-0.8-1.4-1.3-2.3c-0.3,0.4-0.4,0.6-0.5,0.9
			c-0.5,0.7-0.9,1.3-1.4,2c-0.3,0.3-0.6,0.6-1,0.5c-0.5-0.2-0.5-0.6-0.5-1.1c0-0.2,0-0.4-0.1-0.8c-0.6,0.4-1,0.9-1.3,1.3
			c-1.2,1.6-2.4,3.3-3.6,5c-1.4,1.9-2.9,3.8-4.7,5.3c-0.5,0.5-1.2,1-1.8,1.4c-1.2,0.7-2,0.3-2.5-1c-0.2-0.5-0.3-1.1-0.5-1.6
			c-0.1-0.3-0.2-0.7-0.3-1.1c-0.6,0.2-0.8,0.6-1,1c-1.1,2-2.2,4.1-3.2,6.1c-2.3,4.4-4.6,8.9-6.9,13.3c-0.3,0.6-0.7,1.2-1.1,1.8
			c0,0,0.1,0.1,0.2,0.1c0.2,0.6-0.4,1-0.6,1.3c-0.2,0.2-0.6,0.3-0.9,0.4c0,0.2,0.2,0.5-0.3,0.6c0.2,0.7,0.4,1.7,0.4,3
			c0.3,5.5-2.5,9.7-5.6,14.7c-2.4,3.9-5.4,7.3-8.9,10.2c-3.1,2.5-5.8,5.1-10.1,8.4c0,0-5.4,4.2-10.2,7.3c-0.7,0.4-1.5,1-2.8,1.6
			c-1.9,1-3.6,1.7-4.8,2.1c1-0.6,2.6-1.5,4.6-2.7c1.7-1,2.6-1.5,2.8-1.6c4.1-2.4,9.3-7.3,14-11.6c6.6-6.1,6.3-5.6,8-7.4
			c1.7-1.8,4.6-5.2,7.3-9.8c0.5-0.9,1.8-3.1,2.8-6.1c1.1-3.3,1.1-4.8,1.1-5.3c-0.1-2.1-0.8-3.7-1.4-4.7c-0.1,1.6-0.5,3.3-1.2,5
			c-0.1,0.2-0.1,0.3-0.2,0.5c-0.4-0.8,0.1-1,0.3-1.3c0-0.6-0.5-0.9-0.8-1.3c-0.4,0.1-0.8,0.3-1.2,0.4c0.9-0.6,0.6-1.5,0.6-2.3
			c-0.1-4-0.3-8-0.3-12c0-2.3,0-4.5,0-6.7c0-1.8-0.3-3.5-0.6-5.3c-0.3-1.5-0.5-3-0.7-4.4c-0.3-2.8-0.4-5.7-0.6-8.5
			c-0.1-1.5-0.4-3.1-0.9-4.8c-0.2,0.5-0.4,0.8-0.5,1c-0.3,0.6-0.5,1.2-0.8,1.7c-0.2,0.3-0.3,0.8-0.8,0.6c-0.3-0.1-0.5-0.5-0.5-0.8
			c-0.1-0.4-0.2-0.8-0.3-1.3c-0.1-0.8-0.1-1.5-0.3-2.3c-0.5-3.3-1.1-6.6-1.7-10c-0.3-1.9-1-3.7-1.7-5.4c-1-2.2-1.9-4.3-2.8-6.6
			c-0.8-1.7-1.5-3.4-2.2-5.1c-0.2-0.5-0.4-1-0.9-1.4c-0.2,0.3-0.3,0.5-0.5,0.7c-0.5,0.5-0.9,0.5-1.3-0.1c-0.1-0.2-0.2-0.4-0.3-0.6
			c-0.4-0.8-0.8-1.7-1.2-2.5c-0.1,0.1-0.3,0.2-0.4,0.3c-0.6,0.8-1.1,1.7-1.7,2.5c-2.7,3.4-5.8,6.4-9.4,8.9c-0.3,0.2-0.6,0.4-1,0.5
			c-0.7,0.3-1,0-0.9-0.7c0-0.4,0.1-0.7,0.2-1.2c-0.2,0.1-0.3,0.2-0.4,0.2c-2.7,2-5.3,4-7.6,6.3c-2.1,2-4.3,4-5.5,6.7
			c-0.3,0.7-0.7,0.8-1.5,0.7c-0.7-0.1-1.4-0.2-2.1-0.2c-1-0.1-2,0-3-0.2c-3-0.5-5.9-0.8-8.9-1c-2.9-0.2-5.8-0.3-8.8-0.1
			c-1.2,0.1-2.3,0.1-3.5,0.2c-0.3,0-0.5,0-0.4-0.4c-0.5,0.2-1,0.1-1.4-0.2c-0.8-0.4-1.5-0.8-2.3-1.3c-0.2-0.1-0.5-0.2-0.8-0.2
			c0.1,0.2,0.2,0.4,0.3,0.5c0.1,0.2,0.3,0.3,0.5,0.5c0.4,0.6,0.3,1-0.5,1c-0.6,0-1.3,0.1-1.9,0c-2.5-0.5-5-1.2-7.5-1.8
			c-0.9-0.2-1.6-0.6-2.2-1.3c-0.3-0.4-0.7-0.8-1.1-1.2c-0.3-0.3-0.5-0.5-0.8-0.8c-1.8-1.4-3.7-2.7-5.5-4.1c-1.3-1-2.5-2-3.7-3
			c-0.2-0.1-0.4-0.3-0.7-0.5c0.1,0.6,0.2,1,0.4,1.5c-0.4-0.1-0.6-0.2-0.8-0.3c-1.6-1-3.3-1.7-5.1-2.2c-1.2-0.3-2.3-0.9-3.3-1.7
			c-1.4-1.1-2.8-2.2-4.3-3.3c-0.7-0.5-1.3-1-2-1.4c-0.6-0.4-1.3-0.8-1.9-1c-1-0.4-2-0.7-3-1.1c-0.5-0.2-0.9-0.2-1.2,0.3
			c-0.3,0.5-0.5,0.9-0.8,1.4c-0.3,0.6-0.5,1.3-0.8,2c-0.6,1.4-1.2,2.8-1.5,4.2c-0.2,0.8-0.5,1.5-0.8,2.2c-1.3,2.8-2,5.8-2.3,8.9
			c0,0.4-0.1,0.9-0.2,1.3c0,0.2-0.2,0.4-0.4,0.6c-0.6-0.6-0.6-1.4-0.8-2.1c-0.2-0.7-0.3-1.4-0.6-2.2c-0.1,0.2-0.2,0.5-0.2,0.7
			c-0.4,3.9-1.3,7.7-2,11.5c-0.4,2.1-1,4.1-1.6,6.2c-1.5,5.2-2.6,10.4-3,15.8c0,0.5-0.1,1.1-0.3,1.7c-0.2,0.5-0.5,0.6-0.9,0.1
			c-0.2-0.3-0.3-0.5-0.5-0.8c-0.5-1.1-1-2.2-1.8-3.3c0,0.3-0.1,0.6-0.2,0.9c0,1.6,0,3.3,0,4.9c0.2,5.9,0.9,11.9,1.6,17.8
			c0,0.5,0,1,0,1.5c0.2,0.6,0.3,1.2,0.8,1.6c0.2,0.2,0.4,0.3,0.5,0.5c0.4,0.7,0.8,1.4,1.1,2.1c0.7,1.2,1.4,2.5,2,3.7
			c0.2,0.3,0.3,0.8,0.4,1.1c0.1,0.5-0.2,0.7-0.7,0.6c-0.4-0.1-0.8-0.3-1.1-0.5c-0.5-0.3-0.9-0.5-1.4-0.8c0,0-0.1,0.1-0.1,0.2
			c0.7,1,1.3,2.1,2,3.1c2.4,3.3,4.9,6.5,7.3,9.8c2,2.7,4,5.5,6.1,8.2c1.7,2.1,3.6,4,5.4,6.1c2.3,2.6,4.9,4.1,6.3,5
			c0.7,0.4,2.3,1.4,4.4,2.5c3.3,1.6,3.2,1.1,6.6,2.7c2.4,1.1,6.6,3.1,7.6,3.3c0.3,0.1,0.7,0.1,1,0.3c0.1,0,0.1,0.2,0.3,0.3
			c0.3,0.2,0.5,0.4,0.6,0.5c-0.5,0-1.3-0.2-2.2-0.3c-2.1-0.3-3.2-0.5-4.4-0.7c-2-0.3-3.5-0.3-5-0.4c-5.3-0.5-10.7-1-16-1.4
			c-5.2-0.4-10.4-0.3-15.6,0.6c-8.6,1.3-16.5,4.2-23.6,9.4c-5.7,4.2-9.8,9.5-11.9,16.3c-2,6.6-2.5,13.3-1.5,20.1
			c1.1,8.1,4.1,15.5,8.5,22.4c4.1,6.3,9.1,11.6,14.7,16.4c5.3,4.6,10.9,8.7,16.5,12.7c4.9,3.5,9.9,7,14.8,10.5
			c2,1.4,4.1,2.8,6.1,4.2c0.5,0.4,1.2,0.6,1.8,0.9c1,0.5,1.8,1.2,2.9,1.5c0.1,0,0.3,0.1,0.3,0.3c0,0.1,0,0.1,0,0.3
			c0,0.2-0.4,2.1-1.2,2.8c-0.3,0.2-0.5,0.3-0.5,0.3c-0.4,0-0.8,0-1.2,0c-1.1-0.3-2.3-0.5-3.4-0.9c-3-0.9-6.1-1.8-9.1-2.6
			c-1.9-0.5-3.8-0.9-5.8-0.7c-1.8,0.2-3.3,0.8-4.3,2.2c-1.1,1.5-2,3.3-2.2,5.2c-0.3,3.4-0.3,6.7,0,10.1c0.1,1.2,0.2,2.4,0.4,3.6
			c0.1,0.6,0,1.3,0.4,2c0.7-0.5,0.9-1.2,1.2-1.8c0.8-1.8,1.8-3.3,3-4.8c1.2-1.4,2.3-2.9,3.4-4.3c0.6-0.8,1.3-1.5,2.2-2
			c1.2-0.7,2.4-1.3,3.8-2c-0.1,0.5-0.1,0.9-0.2,1.2c-0.1,0.5-0.4,1-0.5,1.5c-0.2,2.9,0,5.8,1.3,8.4c0.8,1.6,1.6,3.3,2.4,4.8
			c0.1,0.2,0.3,0.3,0.5,0.6c0.3-0.7,0.5-1.2,0.8-1.7c0.3-0.6,0.6-1.3,1-1.7c1.6-1.6,2.7-3.6,3.8-5.5c1.1-1.9,2.4-3.7,3.6-5.6
			c1.2-0.1,2.4-0.2,3.6-0.2c0.3,0,0.7,0.1,1,0.2c0.7,0.3,1.3,0.8,1.9,1.1c0.6,0.3,0.8,0.7,0.8,1.3c0.1,1.7,0.3,3.4,0.4,5.1
			c0.2,2.5,0.8,4.8,2,7c0.5,0.6,1,1.2,1.5,1.8c0.5-0.6,1.1-1.2,1.6-1.8c0.8-0.6,1-1.5,1.3-2.3c0.5-1.9,1-3.8,1.5-5.8
			c0.5-1.8,1.3-3.2,3.4-3.4c0.3,0,0.6-0.1,0.9-0.1c2.2-0.1,4.3,0.1,6.4,0.8c1,0.3,2,0.6,3,1c0.5,0.5,1,1,1.5,1.5c-1-2-2.1-3.8-3-5.2
			c-0.6-1-1.9-3.2-4-5.6c-1-1.2-2.1-2.4-3.2-3.6c-0.7-0.7-1.4-1.3-2.2-1.9c-0.3-0.3-0.8-0.5-1.1-0.8c-2.8-2.4-5.6-4.8-8.3-7.3
			c-6.6-5.9-9.5-7.9-18-16.6c-4.2-4.3-7.9-8.3-12.1-14.2c-3.8-5.4-6.1-9.7-7.7-12.9c-4.2-8.1-4.8-11.6-5-12.7
			c-0.4-2.5-1-6.1,0.2-10.2c2-7,7.4-10.8,8.9-11.7c3.4-2.3,6.6-3,11.4-4.1c3.5-0.8,6.2-1,8.7-1.2c5.6-0.5,8.6-0.1,9.6,0.1
			c2.1,0.4,3.7,1,5.6,1.7c1,0.3,1,0.4,0.8,1.4c0,0.1,0,0.2-0.1,0.3c-0.8,2.6-0.9,5.3-0.6,7.9c0.4,3.4,1.6,6.6,3.2,9.6
			c2.3,4.3,5.5,7.8,9.3,10.7c4.3,3.4,9.1,5.9,14.2,7.9c4.2,1.7,8.5,2.9,12.9,3.4c3.3,0.4,6.5,0.6,9.8,0.3c2.6-0.2,5.3-0.5,7.8-1.1
			c1-0.3,2.1-0.7,3.1-1c1.9-0.6,2.9-1,3.2-1c4.5-1.5,5.8-3.2,11-4.9c0.4-0.1,0.7-0.2,0.8-0.3c-0.3-2.5-0.6-5.1-1.3-7.6
			c-1.2-4.1-3.4-7.4-6.7-10.1c-2.7-2.2-5.7-3.9-9-5.1c-1.5-0.6-3.1-1-4.6-1.6c-0.4-0.2-0.9-0.3-1.3-0.6c-0.1-0.1-0.1-0.3-0.3-0.7
			c1,0.1,2.4,0.2,4.1,0.6c6.5,1.5,10.7,5.1,11.7,6c2.4,2.2,4,4.4,4.8,5.8c0.3,0.5,1.8,3,2.8,6.8c0.5,1.9,1,4.6,1.1,8.9
			c0,4.3-0.5,7-1.2,11.9c-1.3,8.9-0.9,7.2-2.8,22.3c-0.8,6.4-1.8,12.8-2.1,19.3c0,0.6-0.3,1.1-0.3,1.5c-1.1,0.4-5.6,2.1-7.1,2.7
			c-4.1,1.5-5,1.9-6.1,2.5c-1.6,1-4,2.8-6.1,6.3c1.2,2.5,2.6,3.5,3.6,4.1c2.9,1.5,6.7,1,12.9,0.5c0.5,0,0.8-0.1,0.8-0.1
			c0,0,0.2,0,0.3,0.1c0.4,0.1,0.9-0.1,1.1,0.1c0.2,0.2,0.1,0.7,0.1,1.1c0.3,3.6,0.5,7.3,0.8,10.9c0,0.1,0.1,0.2,0.2,0.3
			c0.3-0.3,0.5-0.5,0.8-0.7c1.9-1.8,3.2-4,4.5-6.2c1.4-2.5,2-5.3,2.5-8.1c0-0.3,0-0.7-0.3-0.8c-1-0.6-1.9-1.6-3.2-1.7
			c-0.1,0-0.2-0.1-0.5-0.3c0.4-0.1,0.6-0.3,0.8-0.2c0.6,0.2,1.1,0.3,1.7,0.6c0.5,0.3,1,0.6,1.4,0.9c0.7,0.5,0.9,0.8,0.8,1.7
			c-0.1,0.7-0.3,1.4-0.4,2c0.1,0.1,0.1,0.1,0.2,0.1c2,1,3.6,2.4,4.2,4.6c0.1,0.4,0.3,0.7,0.5,1.1c0.8,1.9,1.5,3.8,2.3,5.6
			c0.1,0.4,0.3,0.8,0.4,1.1c0.1,0,0.2,0,0.3,0c0.5-0.9,1.1-1.7,1.4-2.6c1.1-2.8,1.7-5.7,1.8-8.7c0-0.7-0.2-1.3-0.6-1.9
			c-1-1.3-2.1-2.4-3.5-3.3c-0.1-0.1-0.3-0.2-0.4-0.3c-0.1-0.1-0.1-0.3-0.1-0.5c0.2,0,0.4-0.1,0.5-0.1c0.2,0,0.3,0.2,0.5,0.3
			c1.5,1,2.7,2.2,3.8,3.7c0.4,0.6,0.5,1.2,0.5,1.9c0,0.5,0,1.1-0.1,1.7c0.5,0.1,0.8,0.3,1.2,0.3c1,0.1,1.6,0.7,2,1.6
			c0.8,2.1,1.6,4.2,2.4,6.3c0.1,0.3,0.3,0.5,0.5,0.9c0.4-1,0.8-1.9,1.1-2.7c0-0.3,0.1-0.5,0.2-0.7c0.1-2.7,0.1-5.3,0.2-8
			c0,0,0-0.1,0-0.2c0-0.1-0.1-0.3-0.2-0.4c-0.2-1-0.7-1.7-1.6-2.1c-0.1,0-0.2-0.1-0.3-0.2c-1.9-1.5-4-2.6-6.1-3.5
			c-1.9-0.8-3.8-1.5-5.8-1.8c-0.7-0.1-1.4-0.3-2.2-0.4c0-0.3,0.1-0.5,0.2-0.6c0.1-0.2,0.2-0.4,0.3-0.5c2.3-3.3,3.7-7,5.8-10.4
			c3.6-5.6,7-14.7,10-22.9c3-7.9,4.4-11.8,5.6-16.8c2.8-12.4,2-20.8,1.8-22.7c-0.5-4.6-1.5-8.3-2-10.2c-0.8-2.8-1.9-6.6-4.3-10.9
			c-3.7-6.6-8.3-10.5-10-11.9c-1.5-1.2-7.5-6-14.5-7.4c-3.4-0.7-7.6-0.7-8.4-0.7c-0.8,0-1.6,0-2.5,0.1c-2,0.3-3.7,0.8-4.8,1.3
			c0.1-0.1,0.3-0.2,0.4-0.3c0.8-0.6,3-2,7.7-2.4c0.9,0,3.7-0.2,7.4,0.5c1.9,0.4,5.9,1.3,10.4,3.9c2.7,1.5,4.4,3,6.3,4.6
			c1,0.9,5.4,4.7,8.5,9.1c5.6,7.9,6.6,17,6.8,21.5c0.5-0.2,1.2-0.4,1.8-0.8c0.3-0.1,0.6-0.3,1.1-0.6c0.8-0.5,1.3-1,2.9-1.9
			c2.6-1.5,5.4-2.5,8.2-3.6c1.5-0.6,2.9-0.9,4.5-0.8c2.9,0,5.7,0,8.6-0.4c1.3-0.2,2.7-0.2,4-0.5c1.7-0.5,3.3-1.1,4.9-1.8
			c3.3-1.4,6-3.6,8.8-5.7c0.4-0.3,0.8-0.8,1.1-1.1c-0.1-0.2-0.1-0.2-0.1-0.2c-0.1-0.1-0.3-0.1-0.3-0.2c-3.4-1.6-7.1-2.4-10.9-2.5
			c-4.1-0.1-8,0.6-11.8,1.9c-0.3,0.1-0.7,0.2-1,0.3c0-0.1-0.1-0.2-0.1-0.3c0.3-0.1,0.5-0.3,0.8-0.4c3.3-1.1,6.6-1.8,10.1-2
			c4.4-0.2,8.7,0.5,12.8,2.4c4.5,2,8.1,5.1,10.5,9.4c2.3,4,3.2,8.4,3.3,12.9c0.3,6.3-0.8,12.4-2.4,18.4c-1.2,4.5-2.4,8.9-4.2,13.1
			c-0.8,1.8-1.5,3.7-2.2,5.5c-1.6,3.8-3.3,7.5-4.8,11.2c-1,2.4-2,4.8-3.3,7.1c-0.8,1.4-1.5,2.8-2.2,4.3c0,0-0.1,0.1-0.1,0.2
			c0,0,0,0.1-0.1,0.2c0,0.3,0,0.5,0,0.7c-0.8,2.2-1.5,4.5-2.9,6.5c-0.2,0.3-0.3,0.7-0.5,1c-0.1,0.2-0.4,0.3-0.6,0.4
			c0,0.1-0.1,0.2-0.1,0.3c0,0.5,0,1-0.6,1.1c0,0.1-0.1,0.1-0.2,0.2c0,0,0,0.1,0,0.1c0,0.1-0.1,0.2-0.2,0.3c0,0,0,0,0,0.1
			c0,0.1-0.1,0.2-0.2,0.3l0,0l0,0c0,0.5,0,1-0.6,1.1c-0.3,0.7-0.6,1.3-0.9,2c-2.1,5.2-3.1,10.7-3.6,16.2c-0.1,1,0,2.1,0.1,3.3
			c0.5-0.6,0.9-1,1.3-1.4c2.3-2.8,4.5-5.6,6.7-8.5c1-1.3,2.3-2.4,3.8-3.1c1.7-0.8,2.7-0.5,3.3,1.3c1,2.8,2.1,5.6,3.2,8.3
			c0.1,0.3,0.3,0.7,0.5,1c0.5,0.9,0.8,1.9,1,2.9c0,0.2,0.1,0.3,0.2,0.7c0.4-0.5,0.6-1,0.9-1.4c1.8-2.2,2.7-4.8,3.3-7.6
			c0.6-2.7,0.9-5.5-0.3-8.1c0,0,0.1-0.1,0.1-0.2c0.1,0,0.3-0.1,0.4-0.1c1.3-0.1,2.7-0.1,4,0.2c1.7,0.5,3,1.4,3.8,3
			c0.5,1,0.8,2.2,0.8,3.4c0,1.4-0.2,2.7-0.3,4.1c0,0.3-0.2,0.6,0.3,0.8c0.2-0.2,0.4-0.4,0.6-0.6c1.6-2,2.9-4.1,3.9-6.5
			c0.8-1.9,1.3-3.9,1.1-6.1c-0.2-3.3-2.1-5.4-5.3-6c-1.8-0.3-3.6-0.3-5.3,0c-3.6,0.5-7.3,0.6-10.6,2.4c0,0,0,0-0.1,0
			c-0.8,0.3-1.3,0.1-1.7-0.6c-0.7-1-1.1-2-1.3-3.3c-0.1-0.7,0-1.3,0.6-1.8c0.4-0.3,0.7-0.8,1-1.1c2.5-3.4,5.1-6.8,7.6-10.2
			c0.1-0.2,0.3-0.3,0.3-0.5c0-0.8,0.5-1.3,1-1.9c0.8-1,1.5-2,2.3-3c3.5-4.3,6.7-8.8,9.3-13.8c0.6-1.1,1.3-2.1,1.9-3.2
			c1.7-2.7,3.4-5.3,5-8c5-8.9,8.8-18.2,11.2-28.1c1.8-7.4,2.9-14.9,2.4-22.5C1398,164,1397.3,159.6,1395.5,155.5z"/>
		<path class="st3" d="M1346.9,263.8L1346.9,263.8L1346.9,263.8L1346.9,263.8z"/>
	</g>
	<path class="st18" d="M1181.9,99.2c2.1,5.3,6.9,15.2,17.2,22.9c1.2,0.9,22,15.8,45.2,7.9c1.9-0.6,11.6-4.1,20-13.4
		c2.8-3.1,6.6-7.3,8.8-13.9c1.1-3.5,1.7-8,2.8-17.2c0.3-2.9,0.6-5.3,0.8-6.9c-1.3,2.2-3.1,5.3-5.5,9c-3.1,4.8-6.3,9.6-9.7,13.5
		c-9.1,9.9-20.8,13.1-24.2,14c-1.9,0.5-11.6,2.9-24,0.6c-2.1-0.4-10.7-2.1-20.3-8C1188.1,104.7,1184.4,101.6,1181.9,99.2z"/>
	<path class="st19" d="M1350.5,253.8c0,0.3,0,0.5,0,0.7c-0.8,2.2-1.5,4.5-2.9,6.5c-0.2,0.3-0.3,0.7-0.5,1c-0.1,0.2-0.4,0.3-0.6,0.4
		c0.3-0.8,0.5-1.6,0.9-2.3C1348.3,257.9,1349.4,255.9,1350.5,253.8z"/>
	<path class="st19" d="M1346.3,262.7c0,0.5,0,1-0.6,1.1C1345.9,263.5,1346.1,263.1,1346.3,262.7z"/>
	<path class="st19" d="M1345.1,264.9c0,0.5,0,1-0.6,1.1C1344.7,265.7,1344.9,265.3,1345.1,264.9z"/>
	<path class="st19" d="M1345.3,264.5c0,0.1-0.1,0.2-0.2,0.3C1345.2,264.7,1345.2,264.6,1345.3,264.5z"/>
	<path class="st19" d="M1350.7,253.4c0,0-0.1,0.1-0.1,0.2C1350.6,253.5,1350.6,253.5,1350.7,253.4z"/>
	<path class="st19" d="M1345.7,263.8c0,0.1-0.1,0.1-0.2,0.2C1345.6,264,1345.6,263.9,1345.7,263.8z"/>
	<path class="st19" d="M1345.5,264.1c0,0.1-0.1,0.2-0.2,0.3C1345.4,264.3,1345.4,264.2,1345.5,264.1z"/>
	<path class="st3" d="M1194.2,259.1c-0.1-0.1-0.1-0.2-0.2-0.3c0.1,0,0.3,0,0.4,0.1C1194.3,259,1194.2,259.1,1194.2,259.1z"/>
	<path class="st3" d="M1223.1,272.4c0,0.1,0,0.2,0,0.3c-0.1,0-0.2,0-0.3,0C1222.9,272.5,1223,272.4,1223.1,272.4z"/>
	<path class="st3" d="M1161.2,104.7c0-0.1,0-0.2-0.1-0.2c0.1,0,0.1,0,0.2,0C1161.3,104.6,1161.2,104.6,1161.2,104.7z"/>
	<path class="st3" d="M1362.8,27.1c0-0.1,0-0.2,0-0.3c0.1,0,0.2,0,0.3,0C1363,27,1362.9,27.1,1362.8,27.1z"/>
	<path class="st20" d="M1231.6,132.9c-0.1,0-0.3,0-0.4,0c-3,0.1-6,0.1-8.9-0.4c-1-0.2-2.1-0.3-3.1-0.5c-1.3-0.3-2.7-0.6-4.1-1
		c-6.6-1.8-12.3-5.1-17.5-9.4c-2.3-1.9-4.6-3.8-6.6-6.1c-2.5-2.9-4.5-6.1-6.3-9.5c-0.3-0.5-1.3-2.1-2-4c-0.5-1.1-0.8-2.2-0.9-2.3
		c-0.2-0.6-0.3-1.1-0.5-1.6c0.3,0.3,0.7,0.5,1.2,0.9c0,0,0.4,0.3,0.8,0.6c3.4,2.8,6.9,5.6,10.8,7.7c4.3,2.3,8.8,4.3,13.5,5.9
		c3.5,1.2,7.1,2.1,10.8,2.7c3.8,0.5,7.6,0.5,11.4-0.1c8.5-1.3,16.4-4.3,23.8-8.8c2.2-1.3,4.1-3,5.9-4.9c1.1-1.1,1.8-1.9,6.7-8.3
		c3.8-5,5-6.6,6.5-9c1-1.6,1.9-3.2,2.8-5.3c0.8-1.8,1.3-3.4,1.6-4.6c0,2,0,4.8-0.3,8.2c-0.5,7.5-1.7,13.2-3.3,20.3
		c-1,4.6-3.3,8.5-6.5,11.9c-6.4,7-14.2,11.9-23.2,14.8c-3.5,1.1-7,1.9-10.6,2.4C1232.5,132.7,1232,132.8,1231.6,132.9z M1234.4,116
		c-0.1,0-0.3,0-0.4,0c-0.5,0.1-1,0.3-1.5,0.4c-2.4,0.5-4.8,0.9-7.3,0.9c-0.8,0-1.7,0-2.5,0c-0.5,0-0.8,0.2-1,0.6
		c-0.1-0.1-0.2-0.3-0.4-0.5c-2.4,4.1-4.8,8.1-7.2,12.2c4.4,1.3,8.7,2.1,13.2,2.3c-0.1-0.3-0.1-0.5-0.2-0.8c0.1-0.1,0.1-0.3,0.2-0.4
		c0.2,0.1,0.1,0.8,0.6,0.4c0.1,0.1,0.1,0.3,0.2,0.4c0,0.6,0.5,0.4,0.8,0.3c3.4,0,6.7-0.5,10-1.3c1-0.3,2-0.5,3-0.8
		c0-0.2,0-0.3-0.1-0.4c-2.1-4.3-4.3-8.5-6.4-12.8c-0.1-0.2-0.3-0.3-0.4-0.3C1234.7,116.1,1234.6,116.1,1234.4,116
		C1234.4,116,1234.4,116,1234.4,116z M1274.7,90.8c0.3-1.9,0.5-3.8,0.8-5.8c-0.8,0-1.6,0.1-2.4,0.2c-0.5-0.1-0.8,0-0.8,0.1
		c0,0-0.4,0.3-0.3,0.7c0,0.2,0.1,0.3,0.2,0.4c-0.4,0.8-0.9,1.7-1.5,2.6c-0.5,0.8-1.1,1.6-1.7,2.3c0,0.2-0.1,0.4-0.2,0.5
		c0,0.1,0,0.3,0,0.4c0,0.3,0.1,0.5,0.2,0.8c-0.1,0-0.3,0-0.4,0c-0.1-0.1-0.2-0.3-0.3-0.4c-1.8,2.4-3.6,4.7-5.4,7
		c-0.1,0.2-0.3,0.4-0.4,0.6c0,0-0.1,0-0.1,0c-2.3,2.5-4.5,5-7.3,7c-0.1,0,0,0.3,0,0.4c-0.1,0.1-0.3,0.1-0.4,0.2
		c-0.1,0.3-0.2,0.5-0.2,0.7c0,1,0.1,2,0.2,3c0.2,3.1,0.3,6.3,0.5,9.4c0,0.9,0.1,1.8,0.2,2.8c4.1-2.6,7.8-5.6,10.9-9.1
		c-0.2-0.2-0.3-0.3-0.4-0.3c0.1-0.1,0.3-0.3,0.4-0.4l0,0c0.1,0,0.3,0,0.4,0c0.2-0.1,0.4-0.3,0.5-0.4c0.9-1.2,1.8-2.4,2.5-3.7
		c0.8-1.5,1.6-3,2-4.7c0.3-0.8,0.5-1.6,0.8-2.4c0-0.1-0.1-0.3-0.2-0.5c0-0.2,0-0.3,0-0.5c0.6,0,0.5-0.5,0.5-0.9
		c0.6-2.9,1.1-5.8,1.7-8.6c-0.3,0-0.7-0.2-1-0.2c-1.3,0-2.6,0-4,0c0,0,0-0.1,0-0.2c1.6,0,3.2,0,4.9,0
		C1274.5,91.4,1274.6,91.1,1274.7,90.8z M1187.5,104.6c0,0-0.1-0.1-0.1-0.1c0,0.1,0,0.1,0,0.2c0.1,2,0.8,4,1.1,6.1
		c0.3-0.3,0.5-0.4,0.8-0.5c0,0.1,0.1,0.2,0.2,0.3c-0.2,0.2-0.4,0.4-0.6,0.7c1.6,2.3,3.4,4.4,5.4,6.3c0.1,0,0.1,0,0.2,0
		c-0.1-0.6-0.3-1.3-0.4-1.9c0.1,0,0.3,0,0.4,0c0.2,0.7,0.4,1.4,0.7,2.3c0.2-0.3,0.3-0.4,0.4-0.5c0,0.1,0.1,0.3,0.2,0.4
		c-0.1,0.2-0.2,0.4-0.3,0.7c2.1,1.9,4.3,3.6,6.7,5.3c-0.2-0.9-0.3-1.6-0.4-2.3c0.1-0.1,0.2-0.1,0.3-0.2c0.2,0.7,0.3,1.3,0.5,2.1
		c0.3-0.3,0.4-0.5,0.5-0.8c0,0.1,0.1,0.3,0.2,0.4c-0.2,0.3-0.3,0.7-0.5,1.1c3.1,2.1,6.5,3.8,10.2,5.1c-0.1-0.5-0.2-0.7-0.3-1
		c-0.8-2.7-1.7-5.3-2.5-8c-0.5-1.6-1-3.3-1.5-4.8c-0.1-0.2,0-0.7-0.5-0.5c-0.1-0.1-0.2-0.1-0.3-0.2c-0.2-0.1-0.3-0.3-0.5-0.3
		c-2.2-0.9-4.4-1.7-6.6-2.6c-0.1,0-0.2,0-0.4-0.1c0.1,0.8,0.3,1.6,0.4,2.3c-0.1,0-0.3,0-0.4,0c-0.1-0.7-0.3-1.4-0.4-2
		c0-0.2-0.2-0.3-0.3-0.5c-0.1,0-0.3,0-0.4-0.1c0-0.1,0-0.2,0-0.3c0,0-0.1-0.1-0.2-0.2c-2.1-1-4.3-2-6.5-3c0.2,1,0.4,1.9,0.6,2.8
		c-0.1,0-0.3,0-0.4,0c-0.2-0.8-0.4-1.7-0.7-2.5c0-0.2-0.3-0.3-0.4-0.5c-0.1-0.2-0.2-0.4-0.3-0.6c-0.5-0.3-1-0.5-1.4-0.9
		C1189.3,105.8,1188.4,105.2,1187.5,104.6z M1242.2,128.9c0.1,0.1,0.2,0.1,0.3,0.2c0,0.6,0.4,0.3,0.6,0.2c3.7-1.1,7.2-2.7,10.5-4.6
		c0.2-0.1,0.3-0.3,0.5-0.4c-0.1-0.2-0.2-0.3-0.3-0.4c-2.8-3.4-5.7-6.8-8.6-10.2c-0.2-0.2-0.3-0.4-0.5-0.5c0,0-0.2,0-0.3,0.1
		c-0.1,0-0.3,0-0.4,0c0-0.1,0-0.3-0.1-0.3c-3,1-5.9,1.9-8.9,2.9c2.3,4.5,4.5,8.9,6.7,13.5C1242.2,129.1,1242.2,129,1242.2,128.9z
		 M1209,115c1.5,4.8,3,9.6,4.5,14.5c1.3-2.2,2.5-4.2,3.6-6.1c1.2-2,2.4-3.9,3.5-6c-2-0.3-3.9-0.5-5.8-1
		C1213,116,1211.1,115.5,1209,115z M1254.6,124c0.1,0,0.2,0,0.2-0.1c-0.3-5.3-0.6-10.5-0.8-15.8c-3,1.5-6,3-8.9,4.5
		C1248.3,116.4,1251.4,120.2,1254.6,124z M1187.8,109.2c-0.3-1.6-0.6-3.3-1-4.9c0-0.2-0.1-0.4-0.3-0.5c-1-0.8-2-1.6-3-2.4
		c0,0-0.1,0.1-0.2,0.1C1184.7,104.2,1186.1,106.8,1187.8,109.2z M1275.5,84.5c0.2-0.7,0.3-1.4,0.5-2.2c0.2-1.3,0.3-2.4,0.4-3.5
		c-1,1.9-2,3.8-3,5.7C1274.2,84.5,1274.9,84.5,1275.5,84.5z"/>
	<path class="st21" d="M1268.1,73.6c0,0.3,0,0.7-0.1,1c-0.5,1.3-0.9,2.6-1.5,3.8c-0.7,1.5-1.5,3-2.3,4.5c-0.8,1.6-1.9,3-3.3,4.1
		c-1.2,0.9-2.5,1.8-3.8,2.6c-0.6,0.4-1.4,0.7-2.1,0.9c-1.3,0.5-2.7,0.8-4,1.3c-1,0.3-2,0.7-2.8,1.4c-0.2,0.2-0.4,0.3-0.6,0.4
		c-0.5,0.2-0.9,0-0.8-0.6c0,0,0-0.1,0-0.1c0.5-2,0.9-4.1,1.5-6.1c0.5-1.5,1.1-3,1.8-4.6c0.5-1.3,1.6-2,2.7-2.7
		c2.5-1.6,5.3-2,8.1-2.8c0.6-0.2,1.2-0.3,1.8-0.5c0.7-0.3,1.4-0.5,2-0.8c1.1-0.3,2-0.8,2.8-1.6c0.1-0.1,0.2-0.1,0.3-0.2
		C1267.9,73.6,1268,73.6,1268.1,73.6z"/>
	<path class="st21" d="M1182.3,82.8c0.5,0,1,0,1.2,0.1c1.1,0.8,2.4,0.9,3.7,1c2.5,0.1,5.1,0.3,7.7,0.4c1.5,0,2.9,0.5,4.3,1
		c0.5,0.2,1,0.5,1.5,0.6c1.9,0.7,3.3,2,4.6,3.5c0.9,1.1,1.8,2.2,2.7,3.3c0.4,0.5,0.7,1,1,1.6c0.2,0.3,0.3,0.5,0.3,0.8
		c0.2,0.8-0.2,1.2-1,1.2c-0.4,0-0.8-0.1-1.2-0.2c-1.7-0.8-3.6-1-5.4-0.9c-2.5,0-5-0.4-7.4-1.3c-2.3-0.9-4.4-2.2-6.1-4.1
		c-1.4-1.7-2.8-3.3-4.2-5C1183.7,84.2,1183.1,83.6,1182.3,82.8z"/>
	<path class="st22" d="M1225.2,97.7c0.9-0.3,1.8-0.4,2.6-0.3c1.3,0,2.5-0.2,3.8-0.3c0.5,0,1,0,1.5,0.1c0.6,0.2,0.8,0.5,0.6,1.1
		c-0.1,0.4-0.3,0.8-0.6,1.1c-1,1.3-2.2,2.5-3.3,3.7c-0.3,0.3-0.7,0.4-1.1,0.2c-0.3-0.2-0.6-0.4-0.9-0.6c-0.8-0.8-1.6-1.6-2.4-2.4
		c-0.6-0.6-0.9-1.3-0.4-2.2C1225.2,98,1225.2,97.8,1225.2,97.7z"/>
	<path class="st19" d="M1231.6,132.9c0.5,0,1-0.1,1.4-0.1C1232.3,133,1232,133,1231.6,132.9z"/>
	<path class="st23" d="M1268.9,93c0.8,2,1.6,4,2.4,6c0.3,0.9,0.7,1.8,1,2.7c0,0.2,0,0.3,0,0.5c-0.1,0-0.3,0.1-0.4,0.1
		c-2.9-0.6-5.8-1.3-8.9-1.9c1.3,4.6,2.5,9.1,3.7,13.5c-0.1,0-0.3,0-0.4,0c-0.9-3.3-1.9-6.7-2.8-10.1c-0.3-1.2-0.7-2.4-1-3.6
		c0.1-0.2,0.3-0.4,0.4-0.6c0.2,0.1,0.5,0.3,0.7,0.3c2.6,0.5,5.1,1.1,7.7,1.6c0.1,0,0.3,0,0.5,0c-0.1-0.3-0.1-0.5-0.2-0.8
		c-0.9-2.3-1.8-4.5-2.7-6.8c-0.1-0.3-0.3-0.7-0.3-1C1268.6,93,1268.8,93,1268.9,93z"/>
	<path class="st23" d="M1227.8,131.1c0.8-1.9,1.6-3.7,2.4-5.6c1.4-3.2,2.8-6.3,4.2-9.5c0.1,0.1,0.3,0.1,0.4,0.2
		c-0.8,1.9-1.7,3.8-2.5,5.8c-1.2,2.7-2.4,5.5-3.6,8.2c-0.2,0.5-0.5,0.9-0.7,1.3C1228,131.4,1227.9,131.2,1227.8,131.1z"/>
	<path class="st23" d="M1242.2,128.9c0.2-1.8,0.4-3.7,0.7-5.6c0.4-3,0.8-6,1.2-9c0-0.4,0.1-0.7,0.2-1.1c0.1,0,0.3,0,0.4,0
		c-0.2,1.3-0.3,2.7-0.5,4.1c-0.4,3.5-0.9,6.9-1.3,10.4c0,0.5-0.2,0.9-0.2,1.4C1242.5,129,1242.4,128.9,1242.2,128.9z"/>
	<path class="st23" d="M1225.2,117.3c-1,0.1-2.1,0.1-3.3,0.2c0.1,0.4,0.3,0.8,0.4,1.1c1.5,3.7,3,7.4,4.5,11.1c0.1,0.3,0.3,0.7,0.4,1
		c-0.1,0.1-0.1,0.3-0.2,0.4c-0.5-1.2-1-2.3-1.5-3.5c-1.3-3-2.5-6-3.7-9c-0.1-0.3-0.2-0.5-0.3-0.8c0.2-0.4,0.5-0.7,1-0.6
		C1223.5,117.3,1224.3,117.3,1225.2,117.3z"/>
	<path class="st23" d="M1255.1,107.6c2,1.1,4,2.3,6,3.4c1.5,0.8,2.9,1.7,4.4,2.5c0.3,0.1,0.5,0.2,0.8,0.3c-0.1,0.1-0.3,0.3-0.4,0.4
		c-1.5-0.8-2.9-1.6-4.3-2.4c-2.3-1.3-4.6-2.7-6.9-4C1254.8,107.8,1254.9,107.7,1255.1,107.6z"/>
	<path class="st16" d="M1272.4,84.8c0,0.2,0,0.5,0.1,0.9c0.1,0.8,0.4,1.3,0.5,1.6c0.4,0.8,1,2,1.6,3.5c-0.1,0.3-0.2,0.6-0.3,1
		c-1.6,0-3.3,0-4.9,0c0,0,0,0.1,0,0.2c1.3,0,2.6,0,4,0c0.3,0,0.7,0.1,1,0.2c-0.3,0-0.7-0.1-1-0.1c-1.6,0-3.2,0.1-4.8,0.1
		c0-0.1,0-0.3,0-0.4c1.8-0.1,3.7-0.1,5.6-0.2c-0.4-1-0.8-1.9-1.3-2.8s-0.8-1.8-1.3-2.7C1272.1,85.6,1272.3,85.2,1272.4,84.8z"/>
	<path class="st23" d="M1203.1,122.7c1.2-2,2.3-4.1,3.6-6.1c0.4-0.6,0.8-1.3,1.1-1.9c0.1,0.1,0.2,0.1,0.3,0.2
		c-1.6,2.7-3.2,5.5-4.8,8.2C1203.3,122.9,1203.2,122.8,1203.1,122.7z"/>
	<path class="st16" d="M1201.8,121.5c-0.5-2.5-1-4.9-1.4-7.4c0.1,0,0.3,0,0.4,0c0.3,1.7,0.7,3.3,1,5c0.2,0.8,0.3,1.5,0.4,2.3
		C1202,121.3,1201.9,121.4,1201.8,121.5z"/>
	<path class="st23" d="M1195.5,117.5c1.3-2,2.5-4,3.8-6c0.1,0,0.3,0,0.4,0.1c-1.3,2.1-2.6,4.2-4,6.3
		C1195.6,117.7,1195.6,117.6,1195.5,117.5z"/>
	<path class="st16" d="M1194.1,115.7c-0.4-1.6-0.8-3.2-1.2-4.8c0.1,0,0.3,0,0.4,0c0.4,1.6,0.8,3.2,1.2,4.8
		C1194.4,115.7,1194.2,115.7,1194.1,115.7z"/>
	<path class="st16" d="M1189.3,110.2c0.6-0.7,1.3-1.4,1.9-2.2c0.2-0.3,0.3-0.5,0.5-0.8c0.1,0.2,0.2,0.4,0.3,0.6
		c-0.8,0.9-1.6,1.8-2.4,2.7C1189.4,110.4,1189.4,110.4,1189.3,110.2z"/>
	<path class="st23" d="M1234.4,116c-0.1,0-0.3,0-0.4,0C1234.1,116,1234.3,116,1234.4,116z"/>
	<path class="st24" d="M1187.4,104.7c0-0.1,0-0.1,0-0.2c0,0,0.1,0.1,0.1,0.1C1187.5,104.6,1187.4,104.6,1187.4,104.7z"/>
	<path class="st16" d="M1194.3,117.5c0.1,0,0.1,0,0.2,0C1194.5,117.5,1194.4,117.5,1194.3,117.5z"/>
	<path class="st23" d="M1199.3,111.2c0,0-0.1-0.1-0.2-0.2C1199.2,111.1,1199.3,111.2,1199.3,111.2z"/>
	<path class="st25" d="M1194.1,258.4"/>
</g>
<path class="st26" d="M1261.3,35.7"/>
</svg>
