<?xml version="1.0" encoding="utf-8"?>
<!-- Generator: Adobe Illustrator 23.0.3, SVG Export Plug-In . SVG Version: 6.00 Build 0)  -->
<svg version="1.1" id="Ebene_1" xmlns="http://www.w3.org/2000/svg" xmlns:xlink="http://www.w3.org/1999/xlink" x="0px" y="0px"
	 viewBox="0 0 144.3 80.7" style="enable-background:new 0 0 144.3 80.7;" xml:space="preserve">
<style type="text/css">
	.st0{fill:#ECD373;}
	.st1{fill:#E9B52F;}
	.st2{fill:#E8DBBB;}
</style>
<rect x="0.9" y="0.9" class="st0" width="142.5" height="76.6"/>
<path class="st1" d="M143.2,67.4C121.4,45.2,99.7,23,77.9,0.8c3.1,0,6.1,0,9.2,0.1c18.8,19.1,37.6,38.2,56.3,57.4
	C143.3,61.3,143.3,64.4,143.2,67.4z"/>
<path class="st1" d="M143.3,47c-15.1-15.3-30.3-30.7-45.4-46C103.6,1,109.3,1,115,1c9.4,9.5,18.8,19.1,28.2,28.6
	C143.2,35.4,143.3,41.2,143.3,47z"/>
<path class="st2" d="M62.7,78.5C42.1,57.9,21.5,37.3,0.9,16.7c0-5.3,0-10.5,0-15.8c6-0.1,11.9-0.2,17.9-0.3
	c26.3,25.9,52.7,51.7,79,77.6C86.1,78.2,74.4,78.4,62.7,78.5z"/>
<path class="st2" d="M10.3,79c-3.1-3.1-6.2-6.2-9.3-9.3C0.9,61.5,0.8,53.3,0.7,45c11.1,11.1,22.1,22.1,33.2,33.2
	C26,78.5,18.1,78.8,10.3,79z"/>
<rect x="0.9" y="77.3" class="st1" width="142.2" height="1.5"/>
</svg>
