<?xml version="1.0" encoding="utf-8"?>
<!-- Generator: Adobe Illustrator 23.0.3, SVG Export Plug-In . SVG Version: 6.00 Build 0)  -->
<svg version="1.1" xmlns="http://www.w3.org/2000/svg" xmlns:xlink="http://www.w3.org/1999/xlink" x="0px" y="0px"
	 viewBox="0 0 218.2 251.2" style="enable-background:new 0 0 218.2 251.2;" xml:space="preserve">
<style type="text/css">
	.st0{fill:#E6E6E6;}
	.st1{fill:#20201E;}
	.st2{fill:#CC3E63;}
	.st3{fill:#E5385D;}
	.st4{fill:#FF99A3;}
	.st5{fill:#8E5960;}
</style>
<g id="Ebene_2">
	<path class="st0" d="M196,198.8c3.7-5,4.9-10,5.9-13.7c0.3-1.1,0.9-3.8,1.2-7.4c1.1-12.1-2.4-22.7-3.6-26.3
		c-3.4-10.1-8.5-17.6-12.5-22.6c-2.3-2.4-5.4-5.5-9.5-8.7c-3.8-3-7.8-6.2-13.7-9.1c-7-3.4-14.6-5.5-22.7-6.3
		c-1.5-0.1-3.1-0.4-5.9-0.7c-9.2-1-21.2-2.2-35.6-1.5c-12.7,0.6-19.1,0.8-26.2,3.4c-5.9,2.1-15,5.5-21.1,14.6
		c-4.1,6.1-5.3,12.4-5.6,14.6c-0.4,2.2-1.1,6.6-0.2,12c0.6,3.3,1.6,6.2,2.1,7.7c0.8,2.3,1.6,4.1,2.1,5.1c3.9,7.8,9.5,12.3,12.1,14.3
		c3.9,3,7.3,4.7,12.5,7.3c3.7,1.8,6.5,3,8.6,3.8c9.1,3.7,18.6,7.1,26.1,9.7c2.5,0.3,6.4,0.4,11.1-0.3c-0.7,3.7-1.8,6.6-1.8,9.6
		c-0.1,7.2,3.9,12.5,11,13.2c8,0.8,16.1,0.5,24.2,0.2c8.9-0.4,17.4-3,25.5-6.6c3.6-1.6,6-3.3,7.3-4.2
		C189.8,205.1,193.1,202.8,196,198.8z"/>
	<path class="st0" d="M279.3,118.4"/>
</g>
<g id="Ebene_5">
</g>
<g id="Ebene_1">
	<path class="st0" d="M60.9,113.6c15.9,2.6,28.2,0.4,31.8-0.3c1-0.2,5.1-1,10.2-2.7c4.8-1.6,10.1-3.4,15.9-7.5
		c1.3-0.9,2.2-1.7,2.9-2.3c0,0,2.8-2.5,2.8-2.5c2.8-2.4-2.8,2.5-2.8,2.5c-0.1-0.1,1-1.6,2.8-2.5c0.6-0.3,1.2-0.6,2-0.5
		c1.5,0.2,1.8,1.5,3.7,2.3c0.9,0.4,2.9,1,3.8,0.1c0.8-0.8,0.3-2.6-0.2-3.6c-0.2-0.4-0.4-1.1-1.5-1.8c-2-1.3-2.5-2.7-1.1-4.8
		c1.4-2.1,2.9-3,5.4-1.7c1.2,0.6,2.7,1,4,0.9c0.9,0,2.3-0.8,2.5-1.6c0.3-0.8-0.3-2.3-1-2.8c-0.7-0.6-1.1-0.5-3.7-1.7
		c-1.7-0.7-2.1-1-2.3-1.4c-0.3-0.6-0.3-1.3-0.3-2.2c0-0.8,0-1.2,0.2-1.6c0.5-1,1.6-1.4,3-1.5c3.3-0.2,3.9,0.1,5.8-0.6
		c1.3-0.5,3-1.7,2.9-2.8c-0.1-1.2-2.4-1.9-3.7-2.3c-3.5-1.1-5.2,0-6.4-1.2c-0.9-0.9-1-2.8-1.1-6.5c-0.6-17.5-2.7-34.8-7.3-51.8
		c-0.5-1.7-1.3-3.4-2.1-5.1c-2.2-5-6.3-6.5-10.9-3.5c-5.5,3.5-10.7,7.5-15.9,11.4c-1.8,1.4-3.3,3.2-5.3,4.4c-1.4,0.9-3.4,1.6-5,1.3
		c-10.3-2-20.4-2.1-30.7,0.1c-1.7,0.4-4.1-0.4-5.6-1.5C46.7,13.2,40,7.9,33,2.9c-4.9-3.5-9.6-2.1-11.8,3.5c-1.1,3-2.2,6-2.9,9.1
		c-3.2,16.1-6.2,32.1-6,48.6c0,0.5,0,0.9-0.1,1.4c-0.5,5.5-0.5,5.4-6,5.1C4,70.5,0.5,69.2,0,72.8c-0.5,3.7,3.3,2.6,5.3,3.2
		c1.5,0.4,3.2,0.3,4.8,0.6c2.7,0.5,3.4,2.7,1.6,4.8l0,0c-0.6,0.3-1.1,0.6-1.7,0.9c-0.2,0-0.4,0-0.6,0c-1.1,0.2-3,0.7-4.4,2.3
		c-0.3,0.4-1.9,2.1-1.3,3.2c0.4,0.7,1.4,0.9,2.1,1c1.5,0.2,2.5-0.2,6.2-1c1.6-0.4,2-0.4,2.5-0.3c1.2,0.3,2,1.4,2.8,2.7
		c1.3,2.2-0.1,3.4-1.7,4.5c-1,0.7-0.9,0.6-1.3,1c-0.9,0.9-2,2.8-1.2,4c0.6,1,2.1,1,2.2,1c1.3,0,2.2-1,2.3-1.1
		c0.5-0.5,1.3-1.2,2.5-1.8c0.7-0.3,1.4-0.7,2.3-0.6c1.1,0,1.8,0.6,4,2.4c1.4,1.2,2.5,2.1,3.2,2.7c2.2,1.4,5.2,3.1,8.9,4.8
		C41,108.1,49.2,111.7,60.9,113.6z"/>
	<path class="st1" d="M93.2,72.6c0-3.1,3.8-5.9,8.2-6c4-0.1,7.3,2.2,7.3,5c0,3.1-3.8,5.9-8.2,6C96.4,77.6,93.2,75.4,93.2,72.6z"/>
	<path class="st2" d="M76.1,78.8c-1.4,1.4-2.7,2.7-4.1,4.1c-0.2,0-0.4,0-0.5,0c-1.4-1.5-2.8-3-4.2-4.5c0.4-0.6,0.8-1.2,1.2-1.8
		c2.3,0.1,4.5,0.1,6.8,0.2C75.5,77.5,75.8,78.2,76.1,78.8z"/>
	<path class="st1" d="M45.8,77.5c-4.3,0-8.3-2.7-8.3-5.8c0-2.8,3.2-5.1,7.2-5.1c4.4,0,8.3,2.7,8.3,5.8C53,75.2,49.8,77.5,45.8,77.5z
		"/>
	<path class="st3" d="M61.8,83.3c0.1,0.6,0.6,2.8,2.2,4.2c0.7,0.6,1.5,1,2.3,1.1c1.8,0.2,3.1-0.9,3.7-1.4c1.8-1.5,2.2-3.5,2.3-4.2
		c-0.3,0-0.7,0-1,0c-0.1,0.3-0.3,0.7-0.5,1.1c-0.5,0.8-0.9,1.4-1.3,1.7c0,0-0.3,0.2-0.5,0.4c-0.2,0.1-1.9,1-3.4,0.3
		c-0.6-0.3-0.9-0.7-1.2-1c-1-1.2-1.1-2.6-1.1-3.3C62.8,82.5,62.3,82.9,61.8,83.3z"/>
	<path class="st3" d="M82.2,82.7c0,0.6-0.3,2.7-2,4.3c-0.4,0.4-2,1.9-4,1.6c-1.2-0.2-2-0.9-2.5-1.4c-1.6-1.5-2.1-3.3-2.2-4.2
		c0.3,0,0.6,0,0.8,0c0.1,0.2,0.1,0.4,0.2,0.6c0,0.1,0.1,0.3,0.3,0.5c0.1,0.2,0.4,0.6,0.7,1.1c0.2,0.2,0.7,0.8,1.4,1.1
		c1,0.5,2.3,0.5,3.3,0.1c1.5-0.7,2.5-2.3,2.5-4.2C81.2,82.3,81.7,82.5,82.2,82.7z"/>
	<path class="st4" d="M25.1,28.7c2.3-1.3,5.3-2.7,9.1-3.9c3.6-1.1,6.8-1.8,9.4-2.2c-1.2-2.1-2.5-3.7-3.5-4.9
		c-1.3-1.5-3.2-3.1-7.1-6.2c-1.2-0.9-2.3-1.8-3.5-1.6c-0.7,0.1-1.2,0.6-1.8,1.5c-1.7,2.4-2.2,4.6-2.3,5.3c-0.3,1.4-0.6,3.3-0.7,5.9
		C24.7,24.2,24.7,26.2,25.1,28.7z"/>
	<path class="st4" d="M84.9,4.6"/>
	<path class="st4" d="M120.7,31.9c-2.1-1.7-4.9-3.7-8.5-5.5c-3.4-1.7-6.5-2.8-9-3.6c1.5-2.2,3-3.8,4.1-5c1.5-1.5,3.6-3,7.9-6
		c1.3-0.9,2.5-1.7,3.7-1.4c0.7,0.2,1.1,0.9,1.6,1.9c1.3,2.8,1.5,5.4,1.6,6.1c0.1,1.6,0.1,3.8-0.2,6.7
		C121.7,26.9,121.4,29.2,120.7,31.9z"/>
</g>
<g id="Ebene_3">
	<path class="st0" d="M64.7,219.7c-7.7,2.1-14.6,0.2-16.9-4c-0.8-1.4-1.9-4.8-0.3-7.8c1.2-2.3,3.4-3.2,4.2-3.4c0-14.3,0-28.7,0-43
		c-1.4-3.3-0.9-7.1,1.3-9.9c3.3-4.1,8.4-3.6,8.7-3.6h1.9c6.8,0,12.3,5.5,12.3,12.3v43.8c0.1,0.9,0.7,6.4-3.3,11
		C69.8,218.6,66,219.5,64.7,219.7z"/>
	<path class="st0" d="M295.9,178.4"/>
	<path class="st0" d="M97.4,221.3c-7.7,2.1-14.6,0.2-16.9-4c-0.8-1.4-1.9-4.8-0.3-7.8c1.2-2.3,3.4-3.2,4.2-3.4c0-14.3,0-28.7,0-43
		c-1.4-3.3-0.9-7.1,1.3-9.9c3.3-4.1,8.4-3.6,8.7-3.6h1.9c6.8,0,12.3,5.5,12.3,12.3v43.8c0.1,0.9,0.7,6.4-3.3,11
		C102.4,220.2,98.6,221,97.4,221.3z"/>
	<path class="st5" d="M53.8,208.5c-0.4-0.1-0.9-0.3-1.5-0.4c-0.6-0.1-1.7-0.2-2.8,0.2c-1.6,0.6-2.3,2.1-2.5,2.5
		c0.1,0.4,0.1,0.7,0.2,1.1c0.1-0.2,0.2-0.4,0.4-0.6c0.1-0.2,1.2-1.6,3.1-2c1.6-0.4,2.8,0.3,3.2-0.3
		C53.9,208.9,53.8,208.6,53.8,208.5z"/>
	<path class="st5" d="M55.6,213.3c-0.4-0.1-0.9-0.1-1.6-0.1c-0.6,0-1.7,0.1-2.7,0.7c-1.4,0.9-1.9,2.4-2,2.9c0.1,0.4,0.2,0.7,0.3,1.1
		c0.1-0.2,0.1-0.4,0.3-0.7c0.1-0.2,0.9-1.8,2.7-2.5c1.6-0.6,2.8-0.2,3.1-0.8C55.8,213.7,55.7,213.5,55.6,213.3z"/>
	<path class="st5" d="M85.5,210.5c-0.4,0-0.9,0-1.6,0c-0.6,0.1-1.7,0.2-2.7,1c-1.4,1-1.7,2.6-1.7,3.1c0.1,0.3,0.3,0.7,0.4,1
		c0-0.2,0.1-0.4,0.2-0.7c0.1-0.2,0.8-1.8,2.4-2.7c1.5-0.8,2.8-0.4,3-1.1C85.7,210.9,85.6,210.6,85.5,210.5z"/>
	<path class="st5" d="M88.5,214.7c-0.4,0-0.9,0.1-1.6,0.3c-0.6,0.2-1.6,0.5-2.5,1.4c-1.2,1.2-1.2,2.8-1.2,3.3c0.2,0.3,0.4,0.6,0.6,1
		c0-0.2,0-0.4,0.1-0.7c0-0.2,0.4-1.9,2-3.1c1.3-1,2.7-0.9,2.8-1.6C88.7,215.1,88.6,214.8,88.5,214.7z"/>
</g>
<g id="Ebene_4">
	<path class="st0" d="M214.9,203.7c0,0-2.6-5.8-9-12.1c-0.2-0.2-1.1-1.1-2.4-1.8c-0.2-0.1-0.5-0.2-0.9-0.4c-1.9-0.8-2.6-1.2-2.9-1.3
		c-2.5-0.9-7.5,5.8-8,6.4c-2.6,3.5-2.7,5.3-4.6,8.3c-0.2,0.4-0.9,1.4-1.2,2.9c-0.1,0.5-0.2,0.9-0.2,1.2c1,0.6,2.1,1.3,3.2,2.3
		c0.6,0.6,1.2,1.1,1.7,1.6c0,0,0.9,1.1,1.3,2.6c0.9,4.4-1.2,9-6,10.5c-5.4,1.7-11.2,3.3-16.8,3.6c-12.3,0.6-24.7,0.2-37.1,0.3
		c-5.2,0-9.8,1.4-13,5.4c-4.4,10,2.6,18.6,14.6,17.8c8.5-0.6,17-0.2,25.5-0.7c9.5-0.6,19-1.3,28.4-2.8c15-2.3,24.6-10.4,29.2-23.2
		c1.3-3.5,1.3-6.7,1.2-9.1C217.6,210,215.9,206,214.9,203.7z"/>
</g>
</svg>
