<?xml version="1.0" encoding="utf-8"?>
<!-- Generator: Adobe Illustrator 23.0.3, SVG Export Plug-In . SVG Version: 6.00 Build 0)  -->
<svg version="1.1" xmlns="http://www.w3.org/2000/svg" xmlns:xlink="http://www.w3.org/1999/xlink" x="0px" y="0px"
	 viewBox="0 0 341.1 169.2" style="enable-background:new 0 0 341.1 169.2;" xml:space="preserve">
<style type="text/css">
	.st0{display:none;}
	.st1{display:inline;fill:#E6E6E6;}
	.st2{display:inline;}
	.st3{fill:#E6E6E6;}
	.st4{fill:#20201E;}
	.st5{fill:#CC3E63;}
	.st6{fill:#E5385D;}
	.st7{fill:#FF99A3;}
	.st8{fill:#8E5960;}
	.st9{display:inline;fill:#CC3E63;}
	.st10{display:inline;fill:#20201E;}
	.st11{display:inline;fill:#E5385D;}
	.st12{display:inline;fill:#FF99A3;}
	.st13{display:inline;fill:#8E5960;}
	.st14{display:inline;fill:#D6D6D6;}
	.st15{display:inline;fill:#CCCCCC;}
	.st16{fill:#846F75;}
	.st17{fill:#D6D6D6;}
</style>
<g id="cat_sit" class="st0">
	<path class="st1" d="M-273.4,282.8c0,0-2.6-5.8-9-12.1c-0.2-0.2-1.1-1.1-2.4-1.8c-0.2-0.1-0.5-0.2-0.9-0.4
		c-1.9-0.8-2.6-1.2-2.9-1.3c-2.5-0.9-7.5,5.8-8,6.4c-2.6,3.5-2.7,5.3-4.6,8.3c-0.2,0.4-0.9,1.4-1.2,2.9c-0.1,0.5-0.2,0.9-0.2,1.2
		c1,0.6,2.1,1.3,3.2,2.3c0.6,0.6,1.2,1.1,1.7,1.6c0,0,0.9,1.1,1.3,2.6c0.9,4.4-1.2,9-6,10.5c-5.4,1.7-11.2,3.3-16.8,3.6
		c-12.3,0.6-24.7,0.2-37.1,0.3c-5.2,0-9.8,1.4-13,5.4c-4.4,10,2.6,18.6,14.6,17.8c8.5-0.6,17-0.2,25.5-0.7c9.5-0.6,19-1.3,28.4-2.8
		c15-2.3,24.6-10.4,29.2-23.2c1.3-3.5,1.3-6.7,1.2-9.1C-270.6,289.1-272.3,285.1-273.4,282.8z"/>
	<g id="Ebene_2" class="st2">
		<path class="st3" d="M-292.2,277.9c3.7-5,4.9-10,5.9-13.7c0.3-1.1,0.9-3.8,1.2-7.4c1.1-12.1-2.4-22.7-3.6-26.3
			c-3.4-10.1-8.5-17.6-12.5-22.6c-2.3-2.4-5.4-5.5-9.5-8.7c-3.8-3-7.8-6.2-13.7-9.1c-7-3.4-14.6-5.5-22.7-6.3
			c-1.5-0.1-3.1-0.4-5.9-0.7c-9.2-1-21.2-2.2-35.6-1.5c-12.7,0.6-19.1,0.8-26.2,3.4c-5.9,2.1-15,5.5-21.1,14.6
			c-4.1,6.1-5.3,12.4-5.6,14.6c-0.4,2.2-1.1,6.6-0.2,12c0.6,3.3,1.6,6.2,2.1,7.7c0.8,2.3,1.6,4.1,2.1,5.1
			c3.9,7.8,9.5,12.3,12.1,14.3c3.9,3,7.3,4.7,12.5,7.3c3.6,1.8,6.5,3,8.6,3.8c9.1,3.7,18.6,7.1,26.1,9.7c2.5,0.3,6.4,0.4,11.1-0.3
			c-0.7,3.7-1.8,6.6-1.8,9.6c-0.1,7.2,3.9,12.5,11,13.2c8,0.8,16.1,0.5,24.2,0.2c8.9-0.4,17.4-3,25.5-6.6c3.6-1.6,6-3.3,7.3-4.2
			C-298.4,284.2-295.2,281.9-292.2,277.9z"/>
		<path class="st3" d="M-208.9,198.5"/>
	</g>
	<g id="Ebene_5" class="st2">
	</g>
	<g id="Ebene_1" class="st2">
		<path class="st3" d="M-427.3,192.7c15.9,2.6,28.2,0.4,31.8-0.3c1-0.2,5.1-1,10.2-2.7c4.8-1.6,10.1-3.4,15.9-7.5
			c1.3-0.9,2.2-1.7,2.9-2.3c0,0,2.8-2.5,2.8-2.5c2.8-2.4-2.8,2.5-2.8,2.5c-0.1-0.1,1-1.6,2.8-2.5c0.6-0.3,1.2-0.6,2-0.5
			c1.5,0.2,1.8,1.5,3.7,2.3c0.9,0.4,2.9,1,3.8,0.1c0.8-0.8,0.3-2.6-0.2-3.6c-0.2-0.4-0.4-1.1-1.5-1.8c-2-1.3-2.5-2.7-1.1-4.8
			c1.4-2.1,2.9-3,5.4-1.7c1.2,0.6,2.7,1,4,0.9c0.9,0,2.3-0.8,2.5-1.6c0.3-0.8-0.3-2.3-1-2.8c-0.7-0.6-1.1-0.5-3.7-1.7
			c-1.7-0.7-2.1-1-2.3-1.4c-0.3-0.6-0.3-1.3-0.3-2.2c0-0.8,0-1.2,0.2-1.6c0.5-1,1.6-1.4,3-1.5c3.3-0.2,3.9,0.1,5.8-0.6
			c1.3-0.5,3-1.7,2.9-2.8c-0.1-1.2-2.4-1.9-3.7-2.3c-3.5-1.1-5.2,0-6.4-1.2c-0.9-0.9-1-2.8-1.1-6.5c-0.6-17.5-2.7-34.8-7.3-51.8
			c-0.5-1.7-1.3-3.4-2.1-5.1c-2.2-5-6.3-6.5-10.9-3.5c-5.5,3.5-10.7,7.5-15.9,11.4c-1.8,1.4-3.3,3.2-5.3,4.4c-1.4,0.9-3.4,1.6-5,1.3
			c-10.3-2-20.4-2.1-30.7,0.1c-1.7,0.4-4.1-0.4-5.6-1.5c-7-4.9-13.7-10.2-20.7-15.2c-4.9-3.5-9.6-2.1-11.8,3.5c-1.1,3-2.2,6-2.9,9.1
			c-3.2,16.1-6.2,32.1-6,48.6c0,0.5,0,0.9-0.1,1.4c-0.5,5.5-0.5,5.4-6,5.1c-2.3-0.1-5.8-1.5-6.3,2.2c-0.5,3.7,3.3,2.6,5.3,3.2
			c1.5,0.4,3.2,0.3,4.8,0.6c2.7,0.5,3.4,2.7,1.6,4.8l0,0c-0.6,0.3-1.1,0.6-1.7,0.9c-0.2,0-0.4,0-0.6,0c-1.1,0.2-3,0.7-4.4,2.3
			c-0.3,0.4-1.9,2.1-1.3,3.2c0.4,0.7,1.4,0.9,2.1,1c1.5,0.2,2.5-0.2,6.2-1c1.6-0.4,2-0.4,2.5-0.3c1.2,0.3,2,1.4,2.8,2.7
			c1.3,2.2-0.1,3.4-1.7,4.5c-1,0.7-0.9,0.6-1.3,1c-0.9,0.9-2,2.8-1.2,4c0.6,1,2.1,1,2.2,1c1.3,0,2.2-1,2.3-1.1
			c0.5-0.5,1.3-1.2,2.5-1.8c0.7-0.3,1.4-0.7,2.3-0.6c1.1,0,1.8,0.6,4,2.4c1.4,1.2,2.5,2.1,3.2,2.7c2.2,1.4,5.2,3.1,8.9,4.8
			C-447.2,187.1-439,190.8-427.3,192.7z"/>
		<path class="st4" d="M-395.1,151.7c0-3.1,3.8-5.9,8.2-6c4-0.1,7.3,2.2,7.3,5c0,3.1-3.8,5.9-8.2,6
			C-391.8,156.7-395,154.5-395.1,151.7z"/>
		<path class="st5" d="M-412.2,157.9c-1.4,1.4-2.7,2.7-4.1,4.1c-0.2,0-0.4,0-0.5,0c-1.4-1.5-2.8-3-4.2-4.5c0.4-0.6,0.8-1.2,1.2-1.8
			c2.3,0.1,4.5,0.1,6.8,0.2C-412.7,156.6-412.4,157.3-412.2,157.9z"/>
		<path class="st4" d="M-442.5,156.6c-4.3,0-8.3-2.7-8.3-5.8c0-2.8,3.2-5.1,7.2-5.1c4.4,0,8.3,2.7,8.3,5.8
			C-435.2,154.3-438.4,156.6-442.5,156.6z"/>
		<path class="st6" d="M-426.4,162.4c0.1,0.6,0.6,2.8,2.2,4.2c0.7,0.6,1.5,1,2.3,1.1c1.8,0.2,3.1-0.9,3.7-1.4
			c1.8-1.5,2.2-3.5,2.3-4.2c-0.3,0-0.7,0-1,0c-0.1,0.3-0.3,0.7-0.5,1.1c-0.5,0.8-0.9,1.4-1.3,1.7c0,0-0.3,0.2-0.5,0.4
			c-0.2,0.1-1.9,1-3.4,0.3c-0.6-0.3-0.9-0.7-1.2-1c-1-1.2-1.1-2.6-1.1-3.3C-425.5,161.6-425.9,162-426.4,162.4z"/>
		<path class="st6" d="M-406,161.8c0,0.6-0.3,2.7-2,4.3c-0.4,0.4-2,1.9-4,1.6c-1.2-0.2-2-0.9-2.5-1.4c-1.6-1.5-2.1-3.3-2.2-4.2
			c0.3,0,0.6,0,0.8,0c0.1,0.2,0.1,0.4,0.2,0.6c0,0.1,0.1,0.3,0.3,0.5c0.1,0.2,0.4,0.6,0.7,1.1c0.2,0.2,0.7,0.8,1.4,1.1
			c1,0.5,2.3,0.5,3.3,0.1c1.5-0.7,2.5-2.3,2.5-4.2C-407,161.4-406.5,161.6-406,161.8z"/>
		<path class="st7" d="M-463.2,107.8c2.3-1.3,5.3-2.7,9.1-3.9c3.6-1.1,6.8-1.8,9.4-2.2c-1.2-2.1-2.5-3.7-3.5-4.9
			c-1.3-1.5-3.2-3.1-7.1-6.2c-1.2-0.9-2.3-1.8-3.5-1.6c-0.7,0.1-1.2,0.6-1.8,1.5c-1.7,2.4-2.2,4.6-2.3,5.3c-0.3,1.4-0.6,3.3-0.7,5.9
			C-463.5,103.3-463.5,105.3-463.2,107.8z"/>
		<path class="st7" d="M-367.5,110.9c-2.1-1.7-4.9-3.7-8.5-5.5c-3.4-1.7-6.5-2.8-9-3.6c1.5-2.2,3-3.8,4.1-5c1.5-1.5,3.6-3,7.9-6
			c1.3-0.9,2.5-1.7,3.7-1.4c0.7,0.2,1.1,0.9,1.6,1.9c1.3,2.8,1.5,5.4,1.6,6.1c0.1,1.6,0.1,3.8-0.2,6.7
			C-366.5,106-366.9,108.3-367.5,110.9z"/>
	</g>
	<g id="Ebene_3" class="st2">
		<path class="st3" d="M-423.5,298.8c-7.7,2.1-14.6,0.2-16.9-4c-0.8-1.4-1.9-4.8-0.3-7.8c1.2-2.3,3.4-3.2,4.2-3.4
			c0-14.3,0-28.7,0-43c-1.4-3.3-0.9-7.1,1.3-9.9c3.3-4.1,8.4-3.6,8.7-3.6h1.9c6.8,0,12.3,5.5,12.3,12.3v43.8c0.1,0.9,0.7,6.4-3.3,11
			C-418.4,297.7-422.3,298.6-423.5,298.8z"/>
		<path class="st3" d="M-192.3,258.5"/>
		<path class="st3" d="M-390.8,300.4c-7.7,2.1-14.6,0.2-16.9-4c-0.8-1.4-1.9-4.8-0.3-7.8c1.2-2.3,3.4-3.2,4.2-3.4
			c0-14.3,0-28.7,0-43c-1.4-3.3-0.9-7.1,1.3-9.9c3.3-4.1,8.4-3.6,8.7-3.6h1.9c6.8,0,12.3,5.5,12.3,12.3v43.8c0.1,0.9,0.7,6.4-3.3,11
			C-385.8,299.2-389.6,300.1-390.8,300.4z"/>
		<path class="st8" d="M-434.4,287.5c-0.4-0.1-0.9-0.3-1.5-0.4c-0.6-0.1-1.7-0.2-2.8,0.2c-1.6,0.6-2.3,2.1-2.5,2.5
			c0.1,0.4,0.1,0.7,0.2,1.1c0.1-0.2,0.2-0.4,0.4-0.6c0.1-0.2,1.2-1.6,3.1-2c1.6-0.4,2.8,0.3,3.2-0.3
			C-434.4,288-434.4,287.7-434.4,287.5z"/>
		<path class="st8" d="M-432.6,292.4c-0.4-0.1-0.9-0.1-1.6-0.1c-0.6,0-1.7,0.1-2.7,0.7c-1.4,0.9-1.9,2.4-2,2.9
			c0.1,0.4,0.2,0.7,0.3,1.1c0.1-0.2,0.1-0.4,0.3-0.7c0.1-0.2,0.9-1.8,2.7-2.5c1.6-0.6,2.8-0.2,3.1-0.8
			C-432.5,292.8-432.5,292.6-432.6,292.4z"/>
		<path class="st8" d="M-402.7,289.6c-0.4,0-0.9,0-1.6,0c-0.6,0.1-1.7,0.2-2.7,1c-1.4,1-1.7,2.6-1.7,3.1c0.1,0.3,0.3,0.7,0.4,1
			c0-0.2,0.1-0.4,0.2-0.7c0.1-0.2,0.8-1.8,2.4-2.7c1.5-0.8,2.8-0.4,3-1.1C-402.5,290-402.7,289.7-402.7,289.6z"/>
		<path class="st8" d="M-399.7,293.8c-0.4,0-0.9,0.1-1.6,0.3c-0.6,0.2-1.6,0.5-2.5,1.4c-1.2,1.2-1.2,2.8-1.2,3.3
			c0.2,0.3,0.4,0.6,0.6,1c0-0.2,0-0.4,0.1-0.7c0-0.2,0.4-1.9,2-3.1c1.3-1,2.7-0.9,2.8-1.6C-399.5,294.2-399.6,293.9-399.7,293.8z"/>
	</g>
</g>
<g id="cat_pet" class="st0">
	<path class="st1" d="M-786.2,275.4c0,0-2.6-5.8-9-12.1c-0.2-0.2-1.1-1.1-2.4-1.8c-0.2-0.1-0.5-0.2-0.9-0.4
		c-1.9-0.8-2.6-1.2-2.9-1.3c-2.5-0.9-7.5,5.8-8,6.4c-2.6,3.5-2.7,5.3-4.6,8.3c-0.2,0.4-0.9,1.4-1.2,2.9c-0.1,0.5-0.2,0.9-0.2,1.2
		c1,0.6,2.1,1.3,3.2,2.3c0.6,0.6,1.2,1.1,1.7,1.6c0,0,0.9,1.1,1.3,2.6c0.9,4.4-1.2,9-6,10.5c-5.4,1.7-11.2,3.3-16.8,3.6
		c-12.3,0.6-24.7,0.2-37.1,0.3c-5.2,0-9.8,1.4-13,5.4c-4.4,10,2.6,18.6,14.6,17.8c8.5-0.6,17-0.2,25.5-0.7c9.5-0.6,19-1.3,28.4-2.8
		c15-2.3,24.6-10.4,29.2-23.2c1.3-3.5,1.3-6.7,1.2-9.1C-783.5,281.7-785.2,277.7-786.2,275.4z"/>
	<path class="st1" d="M-805.1,270.6c3.7-5,5-10,5.9-13.7c0.3-1.1,0.9-3.8,1.2-7.4c1.1-12.1-2.4-22.7-3.6-26.3
		c-3.4-10.1-8.5-17.6-12.5-22.6c-2.3-2.4-5.4-5.5-9.5-8.7c-3.8-3-7.8-6.2-13.7-9.1c-7-3.4-14.6-5.5-22.7-6.3
		c-1.5-0.1-3.1-0.4-5.9-0.7c-9.2-1-21.2-2.2-35.7-1.5c-12.7,0.6-19.1,0.8-26.2,3.4c-5.9,2.1-15,5.5-21.1,14.6
		c-4.1,6.1-5.3,12.4-5.6,14.6c-0.4,2.2-1.1,6.6-0.2,12c0.6,3.3,1.6,6.2,2.1,7.7c0.8,2.3,1.6,4.1,2.1,5.1c3.9,7.8,9.5,12.3,12.1,14.3
		c3.9,3,7.3,4.7,12.5,7.3c3.7,1.8,6.5,3,8.6,3.8c9.1,3.7,18.6,7.1,26.1,9.7c2.5,0.3,6.4,0.4,11.1-0.3c-0.7,3.7-1.8,6.6-1.8,9.6
		c-0.1,7.2,3.9,12.5,11,13.2c8,0.8,16.1,0.5,24.2,0.2c8.9-0.4,17.4-3,25.5-6.6c3.6-1.6,6-3.3,7.3-4.2
		C-811.3,276.9-808,274.6-805.1,270.6z"/>
	<path class="st1" d="M-940.2,185.3c15.9,2.6,28.2,0.4,31.8-0.3c1-0.2,5.1-1,10.2-2.7c4.8-1.6,10.1-3.4,15.9-7.5
		c1.3-0.9,2.2-1.7,2.9-2.3c0,0,2.8-2.5,2.8-2.5c2.8-2.4-2.8,2.5-2.8,2.5c-0.1-0.1,1-1.6,2.8-2.5c0.6-0.3,1.2-0.6,2-0.5
		c1.5,0.2,1.8,1.5,3.7,2.3c0.9,0.4,2.9,1,3.8,0.1c0.8-0.8,0.3-2.6-0.2-3.6c-0.2-0.4-0.4-1.1-1.5-1.8c-2-1.3-2.5-2.7-1.1-4.8
		c1.4-2.1,2.9-3,5.4-1.7c1.2,0.6,2.7,1,4,0.9c0.9,0,2.3-0.8,2.5-1.6c0.3-0.8-0.3-2.3-1-2.8c-0.7-0.6-1.1-0.5-3.7-1.7
		c-1.7-0.7-2.1-1-2.3-1.4c-0.3-0.6-0.3-1.3-0.3-2.2c0-0.8,0-1.2,0.2-1.6c0.5-1,1.6-1.4,3-1.5c3.3-0.2,3.9,0.1,5.8-0.6
		c1.3-0.5,3-1.7,2.9-2.8c-0.1-1.2-2.4-1.9-3.7-2.3c-3.5-1.1-5.2,0-6.4-1.2c-0.9-0.9-1-2.8-1.1-6.5c-0.6-17.5-2.7-34.8-7.3-51.8
		c-0.5-1.7-1.3-3.4-2.1-5.1c-2.2-5-6.3-6.5-10.9-3.5c-5.5,3.5-10.7,7.5-15.9,11.4c-1.8,1.4-3.3,3.2-5.3,4.4c-1.4,0.9-3.4,1.6-5,1.3
		c-10.3-2-20.4-2.1-30.7,0.1c-1.7,0.4-4.1-0.4-5.6-1.5c-7-4.9-13.7-10.2-20.7-15.2c-4.9-3.5-9.6-2.1-11.8,3.5c-1.1,3-2.2,6-2.9,9.1
		c-3.2,16.1-6.2,32.1-6,48.6c0,0.5,0,0.9-0.1,1.4c-0.5,5.5-0.5,5.4-6,5.1c-2.3-0.1-5.8-1.5-6.3,2.2c-0.5,3.7,3.3,2.6,5.3,3.2
		c1.5,0.4,3.2,0.3,4.8,0.6c2.7,0.5,3.4,2.7,1.6,4.8l0,0c-0.6,0.3-1.1,0.6-1.7,0.9c-0.2,0-0.4,0-0.6,0c-1.1,0.2-3,0.7-4.4,2.3
		c-0.3,0.4-1.9,2.1-1.3,3.2c0.4,0.7,1.4,0.9,2.1,1c1.5,0.2,2.5-0.2,6.2-1c1.6-0.4,2-0.4,2.5-0.3c1.2,0.3,2,1.4,2.8,2.7
		c1.3,2.2-0.1,3.4-1.7,4.5c-1,0.7-0.9,0.6-1.3,1c-0.9,0.9-2,2.8-1.2,4c0.6,1,2.1,1,2.2,1c1.3,0,2.2-1,2.3-1.1
		c0.5-0.5,1.3-1.2,2.5-1.8c0.7-0.3,1.4-0.7,2.3-0.6c1.1,0,1.8,0.6,4,2.4c1.4,1.2,2.5,2.1,3.2,2.7c2.2,1.4,5.2,3.1,8.9,4.8
		C-960.1,179.8-951.9,183.4-940.2,185.3z"/>
	<path class="st9" d="M-936.6,134c-1.4,1.4-2.7,2.7-4.1,4.1c-0.2,0-0.4,0-0.5,0c-1.4-1.5-2.8-3-4.2-4.5c0.4-0.6,0.8-1.2,1.2-1.8
		c2.3,0.1,4.5,0.1,6.8,0.2C-937.2,132.6-936.9,133.3-936.6,134z"/>
	<path class="st10" d="M-957.9,131.9c-1.5-0.9-4.1-2.2-7.6-2.7c-3.7-0.5-6.8,0.2-8.4,0.7c0.2-0.2,4-4.2,9.4-3.1
		C-960.2,127.8-958.2,131.4-957.9,131.9z"/>
	<path class="st11" d="M-950.8,138.5c0.1,0.6,0.6,2.8,2.2,4.2c0.7,0.6,1.5,1,2.3,1.1c1.8,0.2,3.1-0.9,3.7-1.4
		c1.8-1.5,2.2-3.5,2.3-4.2c-0.3,0-0.7,0-1,0c-0.1,0.3-0.3,0.7-0.5,1.1c-0.5,0.8-0.9,1.4-1.3,1.7c0,0-0.3,0.2-0.5,0.4
		c-0.2,0.1-1.9,1-3.4,0.3c-0.6-0.3-0.9-0.7-1.2-1c-1-1.2-1.1-2.6-1.1-3.3C-949.9,137.7-950.4,138.1-950.8,138.5z"/>
	<path class="st11" d="M-930.5,137.8c0,0.6-0.3,2.7-2,4.3c-0.4,0.4-2,1.9-4,1.6c-1.2-0.2-2-0.9-2.5-1.4c-1.6-1.5-2.1-3.3-2.2-4.2
		c0.3,0,0.6,0,0.8,0c0,0.2,0.1,0.4,0.2,0.6c0,0.1,0.1,0.3,0.3,0.5c0.1,0.2,0.4,0.6,0.7,1.1c0.2,0.2,0.7,0.8,1.4,1.1
		c1,0.5,2.3,0.5,3.3,0.1c1.5-0.7,2.5-2.3,2.5-4.2C-931.4,137.5-930.9,137.7-930.5,137.8z"/>
	<path class="st12" d="M-976,100.4c2.3-1.3,5.3-2.7,9.1-3.9c3.6-1.1,6.8-1.8,9.4-2.2c-1.2-2.1-2.5-3.7-3.5-4.9
		c-1.3-1.5-3.2-3.1-7.1-6.2c-1.2-0.9-2.3-1.8-3.5-1.6c-0.7,0.1-1.2,0.6-1.8,1.5c-1.7,2.4-2.2,4.6-2.3,5.3c-0.3,1.4-0.6,3.3-0.7,5.9
		C-976.4,95.9-976.3,98-976,100.4z"/>
	<path class="st12" d="M-880.4,103.6c-2.1-1.7-4.9-3.7-8.5-5.5c-3.4-1.7-6.5-2.8-9-3.6c1.5-2.2,3-3.8,4.1-5c1.5-1.5,3.6-3,7.9-6
		c1.3-0.9,2.5-1.7,3.7-1.4c0.7,0.2,1.1,0.9,1.6,1.9c1.3,2.8,1.5,5.4,1.6,6.1c0.1,1.6,0.1,3.8-0.2,6.7
		C-879.4,98.6-879.7,100.9-880.4,103.6z"/>
	<path class="st1" d="M-936.3,291.5c-7.7,2.1-14.6,0.2-16.9-4c-0.8-1.4-1.9-4.8-0.3-7.8c1.2-2.3,3.4-3.2,4.2-3.4c0-14.3,0-28.7,0-43
		c-1.4-3.3-0.9-7.1,1.3-9.9c3.3-4.1,8.4-3.6,8.7-3.6h1.8c6.8,0,12.3,5.5,12.3,12.3v43.8c0.1,0.9,0.7,6.4-3.3,11
		C-931.3,290.3-935.1,291.2-936.3,291.5z"/>
	<path class="st1" d="M-903.7,293c-7.7,2.1-14.6,0.2-16.9-4c-0.8-1.4-1.9-4.8-0.3-7.8c1.2-2.3,3.4-3.2,4.2-3.4c0-14.3,0-28.7,0-43
		c-1.4-3.3-0.9-7.1,1.3-9.9c3.3-4.1,8.4-3.6,8.7-3.6h1.9c6.8,0,12.3,5.5,12.3,12.3v43.8c0.1,0.9,0.7,6.4-3.3,11
		C-898.6,291.9-902.4,292.8-903.7,293z"/>
	<path class="st13" d="M-947.3,280.2c-0.4-0.1-0.9-0.3-1.5-0.4c-0.6-0.1-1.7-0.2-2.8,0.2c-1.6,0.6-2.3,2.1-2.5,2.5
		c0.1,0.4,0.1,0.7,0.2,1.1c0.1-0.2,0.2-0.4,0.4-0.6c0.1-0.2,1.2-1.6,3.1-2c1.6-0.4,2.8,0.3,3.2-0.3
		C-947.2,280.6-947.3,280.4-947.3,280.2z"/>
	<path class="st13" d="M-945.5,285.1c-0.4-0.1-0.9-0.1-1.6-0.1c-0.6,0-1.7,0.1-2.7,0.7c-1.4,0.9-1.9,2.4-2,2.9
		c0.1,0.4,0.2,0.7,0.3,1.1c0.1-0.2,0.1-0.4,0.3-0.7c0.1-0.2,0.9-1.8,2.7-2.5c1.6-0.6,2.8-0.2,3.1-0.8
		C-945.3,285.5-945.4,285.2-945.5,285.1z"/>
	<path class="st13" d="M-915.6,282.2c-0.4,0-0.9,0-1.6,0c-0.6,0.1-1.7,0.2-2.7,1c-1.4,1-1.7,2.6-1.7,3.1c0.1,0.3,0.3,0.7,0.4,1
		c0-0.2,0.1-0.4,0.2-0.7c0.1-0.2,0.8-1.8,2.4-2.7c1.5-0.8,2.8-0.4,3-1.1C-915.4,282.6-915.5,282.3-915.6,282.2z"/>
	<path class="st13" d="M-912.6,286.4c-0.4,0-0.9,0.1-1.6,0.3c-0.6,0.2-1.6,0.5-2.5,1.4c-1.2,1.2-1.2,2.8-1.2,3.3
		c0.2,0.3,0.4,0.6,0.6,1c0-0.2,0-0.4,0.1-0.7c0-0.2,0.4-1.9,2-3.1c1.3-1,2.7-0.9,2.8-1.6C-912.3,286.8-912.5,286.6-912.6,286.4z"/>
	<path class="st10" d="M-913.5,126.6c5.7-0.8,9.4,3.7,9.5,3.9c-1.7-0.7-4.8-1.6-8.7-1.3c-3.7,0.2-6.5,1.4-8.1,2.2
		C-920.5,130.9-918.1,127.2-913.5,126.6z"/>
	<path class="st11" d="M-821.1,88.2c-2.5-1.8-6-0.8-7.9,0.4c-2.4,1.4-3.4,3.7-3.7,4.8c-0.4-1.1-1.4-3.3-3.7-4.8
		c-1.9-1.2-5.5-2.2-7.9-0.4c-2.3,1.7-2.3,5-2.3,5.9c0,0.8,0.1,3.6,4.1,8.5c1.8,2.2,4.9,5.4,9.7,8.2c0,0,0,0,0,0.1c0,0,0,0,0,0
		c0,0,0,0,0,0c0,0,0,0,0-0.1c4.8-2.8,7.9-6,9.7-8.2c4-4.8,4.1-7.7,4.1-8.5C-818.8,93.2-818.8,90-821.1,88.2z"/>
</g>
<g id="cat_stand" class="st0">
	<g id="Ebene_4" class="st2">
		<path class="st3" d="M-62.1,247.3c4.9-7.9,5.4-15.6,5.7-20.6c0.7-10.2-1.7-18.4-3.4-23.1c-2-2.7-5.3-6.6-10.2-10
			c-5.4-3.7-9.9-5-18.6-7.4c-4.6-1.3-13.1-3.4-24.3-4.1c-2-0.1-3.5-0.2-6.9-0.3c-18.1-0.4-27.2-0.6-35.8-0.2
			c-13,0.7-19.6,1-26.2,3.4c-5.9,2.1-15,5.5-21.1,14.6c-4.1,6.1-5.3,12.4-5.6,14.6c-0.4,2.2-1.1,6.6-0.2,12c0.6,3.3,1.6,6.2,2.1,7.7
			c0.8,2.3,1.6,4.1,2.1,5.1c3.9,7.8,9.5,12.3,12.1,14.3c3.9,3,7.3,4.7,12.5,7.3c1,0.5,2,1,2.9,1.4c0,0,3,1.4,5.7,2.4
			c3.2,1.2,13.9,3.1,28.5,3.8c5.2,0,10.4,0,15.7,0c4.9,0.4,11.7,0.6,19.7,0c7.6-0.6,14.3-0.8,22.1-3.7
			C-80.1,262.5-69,258.4-62.1,247.3z"/>
		<path class="st3" d="M-194.3,192.7c15.9,2.6,28.2,0.4,31.8-0.3c1-0.2,5.1-1,10.2-2.7c4.8-1.6,10.1-3.4,15.9-7.5
			c1.3-0.9,2.2-1.7,2.9-2.3c0,0,2.8-2.5,2.8-2.5c2.8-2.4-2.8,2.5-2.8,2.5c-0.1-0.1,1-1.6,2.8-2.5c0.6-0.3,1.2-0.6,2-0.5
			c1.5,0.2,1.8,1.5,3.7,2.3c0.9,0.4,2.9,1,3.8,0.1c0.8-0.8,0.3-2.6-0.2-3.6c-0.2-0.4-0.4-1.1-1.5-1.8c-2-1.3-2.5-2.7-1.1-4.8
			c1.4-2.1,2.9-3,5.4-1.7c1.2,0.6,2.7,1,4,0.9c0.9,0,2.3-0.8,2.5-1.6c0.3-0.8-0.3-2.3-1-2.8c-0.7-0.6-1.1-0.5-3.7-1.7
			c-1.7-0.7-2.1-1-2.3-1.4c-0.3-0.6-0.3-1.3-0.3-2.2c0-0.8,0-1.2,0.2-1.6c0.5-1,1.6-1.4,3-1.5c3.3-0.2,3.9,0.1,5.8-0.6
			c1.3-0.5,3-1.7,2.9-2.8c-0.1-1.2-2.4-1.9-3.7-2.3c-3.5-1.1-5.2,0-6.4-1.2c-0.9-0.9-1-2.8-1.1-6.5c-0.6-17.5-2.7-34.8-7.3-51.8
			c-0.5-1.7-1.3-3.4-2.1-5.1c-2.2-5-6.3-6.5-10.9-3.5c-5.5,3.5-10.7,7.5-15.9,11.4c-1.8,1.4-3.3,3.2-5.3,4.4c-1.4,0.9-3.4,1.6-5,1.3
			c-10.3-2-20.4-2.1-30.7,0.1c-1.7,0.4-4.1-0.4-5.6-1.5c-7-4.9-13.7-10.2-20.7-15.2c-4.9-3.5-9.6-2.1-11.8,3.5c-1.1,3-2.2,6-2.9,9.1
			c-3.2,16.1-6.2,32.1-6,48.6c0,0.5,0,0.9-0.1,1.4c-0.5,5.5-0.5,5.4-6,5.1c-2.3-0.1-5.8-1.5-6.3,2.2c-0.5,3.7,3.3,2.6,5.3,3.2
			c1.5,0.4,3.2,0.3,4.8,0.6c2.7,0.5,3.4,2.7,1.6,4.8l0,0c-0.6,0.3-1.1,0.6-1.7,0.9c-0.2,0-0.4,0-0.6,0c-1.1,0.2-3,0.7-4.4,2.3
			c-0.3,0.4-1.9,2.1-1.3,3.2c0.4,0.7,1.4,0.9,2.1,1c1.5,0.2,2.5-0.2,6.2-1c1.6-0.4,2-0.4,2.5-0.3c1.2,0.3,2,1.4,2.8,2.7
			c1.3,2.2-0.1,3.4-1.7,4.5c-1,0.7-0.9,0.6-1.3,1c-0.9,0.9-2,2.8-1.2,4c0.6,1,2.1,1,2.2,1c1.3,0,2.2-1,2.3-1.1
			c0.5-0.5,1.3-1.2,2.5-1.8c0.7-0.3,1.4-0.7,2.3-0.6c1.1,0,1.8,0.6,4,2.4c1.4,1.2,2.5,2.1,3.2,2.7c2.2,1.4,5.2,3.1,8.9,4.8
			C-214.2,187.1-206,190.8-194.3,192.7z"/>
		<path class="st4" d="M-162.1,151.7c0-3.1,3.8-5.9,8.2-6c4-0.1,7.3,2.2,7.3,5c0,3.1-3.8,5.9-8.2,6
			C-158.8,156.7-162,154.5-162.1,151.7z"/>
		<path class="st5" d="M-179.2,157.9c-1.4,1.4-2.7,2.7-4.1,4.1c-0.2,0-0.4,0-0.5,0c-1.4-1.5-2.8-3-4.2-4.5c0.4-0.6,0.8-1.2,1.2-1.8
			c2.3,0.1,4.5,0.1,6.8,0.2C-179.7,156.6-179.4,157.3-179.2,157.9z"/>
		<path class="st4" d="M-209.5,156.6c-4.3,0-8.3-2.7-8.3-5.8c0-2.8,3.2-5.1,7.2-5.1c4.4,0,8.3,2.7,8.3,5.8
			C-202.2,154.3-205.4,156.6-209.5,156.6z"/>
		<path class="st6" d="M-193.4,162.4c0.1,0.6,0.6,2.8,2.2,4.2c0.7,0.6,1.5,1,2.3,1.1c1.8,0.2,3.1-0.9,3.7-1.4
			c1.8-1.5,2.2-3.5,2.3-4.2c-0.3,0-0.7,0-1,0c-0.1,0.3-0.3,0.7-0.5,1.1c-0.5,0.8-0.9,1.4-1.3,1.7c0,0-0.3,0.2-0.5,0.4
			c-0.2,0.1-1.9,1-3.4,0.3c-0.6-0.3-0.9-0.7-1.2-1c-1-1.2-1.1-2.6-1.1-3.3C-192.5,161.6-192.9,162-193.4,162.4z"/>
		<path class="st6" d="M-173,161.8c0,0.6-0.3,2.7-2,4.3c-0.4,0.4-2,1.9-4,1.6c-1.2-0.2-2-0.9-2.5-1.4c-1.6-1.5-2.1-3.3-2.2-4.2
			c0.3,0,0.6,0,0.8,0c0.1,0.2,0.1,0.4,0.2,0.6c0,0.1,0.1,0.3,0.3,0.5c0.1,0.2,0.4,0.6,0.7,1.1c0.2,0.2,0.7,0.8,1.4,1.1
			c1,0.5,2.3,0.5,3.3,0.1c1.5-0.7,2.5-2.3,2.5-4.2C-174,161.4-173.5,161.6-173,161.8z"/>
		<path class="st7" d="M-230.2,107.8c2.3-1.3,5.3-2.7,9.1-3.9c3.6-1.1,6.8-1.8,9.4-2.2c-1.2-2.1-2.5-3.7-3.5-4.9
			c-1.3-1.5-3.2-3.1-7.1-6.2c-1.2-0.9-2.3-1.8-3.5-1.6c-0.7,0.1-1.2,0.6-1.8,1.5c-1.7,2.4-2.2,4.6-2.3,5.3c-0.3,1.4-0.6,3.3-0.7,5.9
			C-230.5,103.3-230.5,105.3-230.2,107.8z"/>
		<path class="st7" d="M-134.5,110.9c-2.1-1.7-4.9-3.7-8.5-5.5c-3.4-1.7-6.5-2.8-9-3.6c1.5-2.2,3-3.8,4.1-5c1.5-1.5,3.6-3,7.9-6
			c1.3-0.9,2.5-1.7,3.7-1.4c0.7,0.2,1.1,0.9,1.6,1.9c1.3,2.8,1.5,5.4,1.6,6.1c0.1,1.6,0.1,3.8-0.2,6.7
			C-133.5,106-133.9,108.3-134.5,110.9z"/>
		<path class="st3" d="M-190.5,298.8c-7.7,2.1-14.6,0.2-16.9-4c-0.8-1.4-1.9-4.8-0.3-7.8c1.2-2.3,3.4-3.2,4.2-3.4
			c0-14.3,0-28.7,0-43c-1.4-3.3-0.9-7.1,1.3-9.9c3.3-4.1,8.4-3.6,8.7-3.6h1.9c6.8,0,12.3,5.5,12.3,12.3v43.8c0.1,0.9,0.7,6.4-3.3,11
			C-185.4,297.7-189.3,298.6-190.5,298.8z"/>
		<path class="st3" d="M-157.8,300.4c-7.7,2.1-14.6,0.2-16.9-4c-0.8-1.4-1.9-4.8-0.3-7.8c1.2-2.3,3.4-3.2,4.2-3.4
			c0-14.3,0-28.7,0-43c-1.4-3.3-0.9-7.1,1.3-9.9c3.3-4.1,8.4-3.6,8.7-3.6h1.9c6.8,0,12.3,5.5,12.3,12.3v43.8c0.1,0.9,0.7,6.4-3.3,11
			C-152.8,299.2-156.6,300.1-157.8,300.4z"/>
		<path class="st8" d="M-201.4,287.5c-0.4-0.1-0.9-0.3-1.5-0.4c-0.6-0.1-1.7-0.2-2.8,0.2c-1.6,0.6-2.3,2.1-2.5,2.5
			c0.1,0.4,0.1,0.7,0.2,1.1c0.1-0.2,0.2-0.4,0.4-0.6c0.1-0.2,1.2-1.6,3.1-2c1.6-0.4,2.8,0.3,3.2-0.3
			C-201.4,288-201.4,287.7-201.4,287.5z"/>
		<path class="st8" d="M-199.6,292.4c-0.4-0.1-0.9-0.1-1.6-0.1c-0.6,0-1.7,0.1-2.7,0.7c-1.4,0.9-1.9,2.4-2,2.9
			c0.1,0.4,0.2,0.7,0.3,1.1c0.1-0.2,0.1-0.4,0.3-0.7c0.1-0.2,0.9-1.8,2.7-2.5c1.6-0.6,2.8-0.2,3.1-0.8
			C-199.5,292.8-199.5,292.6-199.6,292.4z"/>
		<path class="st8" d="M-169.7,289.6c-0.4,0-0.9,0-1.6,0c-0.6,0.1-1.7,0.2-2.7,1c-1.4,1-1.7,2.6-1.7,3.1c0.1,0.3,0.3,0.7,0.4,1
			c0-0.2,0.1-0.4,0.2-0.7c0.1-0.2,0.8-1.8,2.4-2.7c1.5-0.8,2.8-0.4,3-1.1C-169.5,290-169.7,289.7-169.7,289.6z"/>
		<path class="st8" d="M-166.7,293.8c-0.4,0-0.9,0.1-1.6,0.3c-0.6,0.2-1.6,0.5-2.5,1.4c-1.2,1.2-1.2,2.8-1.2,3.3
			c0.2,0.3,0.4,0.6,0.6,1c0-0.2,0-0.4,0.1-0.7c0-0.2,0.4-1.9,2-3.1c1.3-1,2.7-0.9,2.8-1.6C-166.5,294.2-166.6,293.9-166.7,293.8z"/>
		<path class="st3" d="M-50.3,196c-5.8,2.6-11.2,2.5-14,2.3c2.1,6.5,4.2,13,6.4,19.5c19.2-1.7,34.6-11.2,37.9-23.9
			c2-7.6-0.1-17.4-3.9-24.4c-4.4-8.2-9.1-9.3-11.8-18.4c-0.8-2.9-3.2-11.1,1.2-16.2c3-3.5,7.9-4.2,9.6-4.4c5-0.6,6.3,1.4,12.9,1.2
			c3.6-0.1,7.9-0.2,9.5-3c1.7-2.9-0.5-6.9-0.7-7.3c-4.1-7.4-16.3-7.5-19.7-7.5c-1.7,0-11.3,0.1-20.3,6.6c-1.8,1.3-4.6,3.4-7.1,7.1
			c-3.3,5-3.8,9.8-4.3,13.6c-0.4,3.4-1.1,10.5,2,18.2c2.6,6.4,5,5.9,8.9,14c2.6,5.5,4.8,10.1,3.1,14.6
			C-42.3,192.5-46.9,194.5-50.3,196z"/>
		<path class="st3" d="M-107.9,299.6c-7.7,2.1-14.6,0.2-16.9-4c-0.8-1.4-1.9-4.8-0.3-7.8c1.2-2.3,3.4-3.2,4.2-3.4
			c0-14.3,0-28.7,0-43c-1.4-3.3-0.9-7.1,1.3-9.9c3.3-4.1,8.4-3.6,8.7-3.6h1.9c6.8,0,12.3,5.5,12.3,12.3V284c0.1,0.9,0.7,6.4-3.3,11
			C-102.8,298.5-106.7,299.4-107.9,299.6z"/>
		<path class="st3" d="M-75.2,301.1c-7.7,2.1-14.6,0.2-16.9-4c-0.8-1.4-1.9-4.8-0.3-7.8c1.2-2.3,3.4-3.2,4.2-3.4c0-14.3,0-28.7,0-43
			c-1.4-3.3-0.9-7.1,1.3-9.9c3.3-4.1,8.4-3.6,8.7-3.6h1.9c6.8,0,12.3,5.5,12.3,12.3v43.8c0.1,0.9,0.7,6.4-3.3,11
			C-70.2,300-74,300.9-75.2,301.1z"/>
		<path class="st8" d="M-118.8,288.3c-0.4-0.1-0.9-0.3-1.5-0.4c-0.6-0.1-1.7-0.2-2.8,0.2c-1.6,0.6-2.3,2.1-2.5,2.5
			c0.1,0.4,0.1,0.7,0.2,1.1c0.1-0.2,0.2-0.4,0.4-0.6c0.1-0.2,1.2-1.6,3.1-2c1.6-0.4,2.8,0.3,3.2-0.3
			C-118.8,288.8-118.8,288.5-118.8,288.3z"/>
		<path class="st8" d="M-117,293.2c-0.4-0.1-0.9-0.1-1.6-0.1c-0.6,0-1.7,0.1-2.7,0.7c-1.4,0.9-1.9,2.4-2,2.9
			c0.1,0.4,0.2,0.7,0.3,1.1c0.1-0.2,0.1-0.4,0.3-0.7c0.1-0.2,0.9-1.8,2.7-2.5c1.6-0.6,2.8-0.2,3.1-0.8
			C-116.9,293.6-117,293.3-117,293.2z"/>
		<path class="st8" d="M-87.1,290.3c-0.4,0-0.9,0-1.6,0c-0.6,0.1-1.7,0.2-2.7,1c-1.4,1-1.7,2.6-1.7,3.1c0.1,0.3,0.3,0.7,0.4,1
			c0-0.2,0.1-0.4,0.2-0.7c0.1-0.2,0.8-1.8,2.4-2.7c1.5-0.8,2.8-0.4,3-1.1C-87,290.7-87.1,290.5-87.1,290.3z"/>
		<path class="st8" d="M-84.1,294.6c-0.4,0-0.9,0.1-1.6,0.3c-0.6,0.2-1.6,0.5-2.5,1.4c-1.2,1.2-1.2,2.8-1.2,3.3
			c0.2,0.3,0.4,0.6,0.6,1c0-0.2,0-0.4,0.1-0.7c0-0.2,0.4-1.9,2-3.1c1.3-1,2.7-0.9,2.8-1.6C-83.9,294.9-84,294.7-84.1,294.6z"/>
	</g>
</g>
<g id="cat_walk_2" class="st0">
	<path class="st1" d="M407.4,198.2"/>
	<path class="st1" d="M424,258.2"/>
	<path class="st1" d="M422,192.5c15.9,2.6,28.2,0.4,31.8-0.3c1-0.2,5.1-1,10.2-2.7c4.8-1.6,10.1-3.4,15.9-7.5
		c1.3-0.9,2.2-1.7,2.9-2.3c0,0,2.8-2.5,2.8-2.5c2.8-2.4-2.8,2.5-2.8,2.5c-0.1-0.1,1-1.6,2.8-2.5c0.6-0.3,1.2-0.6,2-0.5
		c1.5,0.2,1.8,1.5,3.7,2.3c0.9,0.4,2.9,1,3.8,0.1c0.8-0.8,0.3-2.6-0.2-3.6c-0.2-0.4-0.4-1.1-1.5-1.8c-2-1.3-2.5-2.7-1.1-4.8
		c1.4-2.1,2.9-3,5.4-1.7c1.2,0.6,2.7,1,4,0.9c0.9,0,2.3-0.8,2.5-1.6c0.3-0.8-0.3-2.3-1-2.8c-0.7-0.6-1.1-0.5-3.7-1.7
		c-1.7-0.7-2.1-1-2.3-1.4c-0.3-0.6-0.3-1.3-0.3-2.2c0-0.8,0-1.2,0.2-1.6c0.5-1,1.6-1.4,3-1.5c3.3-0.2,3.9,0.1,5.8-0.6
		c1.3-0.5,3-1.7,2.9-2.8c-0.1-1.2-2.4-1.9-3.7-2.3c-3.5-1.1-5.2,0-6.4-1.2c-0.9-0.9-1-2.8-1.1-6.5c-0.6-17.5-2.7-34.8-7.3-51.8
		c-0.5-1.7-1.3-3.4-2.1-5.1c-2.2-5-6.3-6.5-10.9-3.5c-5.5,3.5-10.7,7.5-15.9,11.4c-1.8,1.4-3.3,3.2-5.3,4.4c-1.4,0.9-3.4,1.6-5,1.3
		c-10.3-2-20.4-2.1-30.7,0.1c-1.7,0.4-4.1-0.4-5.6-1.5c-7-4.9-13.7-10.2-20.7-15.2c-4.9-3.5-9.6-2.1-11.8,3.5c-1.1,3-2.2,6-2.9,9.1
		c-3.2,16.1-6.2,32.1-6,48.6c0,0.5,0,0.9-0.1,1.4c-0.5,5.5-0.5,5.4-6,5.1c-2.3-0.1-5.8-1.5-6.3,2.2c-0.5,3.7,3.3,2.6,5.3,3.2
		c1.5,0.4,3.2,0.3,4.8,0.6c2.7,0.5,3.4,2.7,1.6,4.8l0,0c-0.6,0.3-1.1,0.6-1.7,0.9c-0.2,0-0.4,0-0.6,0c-1.1,0.2-3,0.7-4.4,2.3
		c-0.3,0.4-1.9,2.1-1.3,3.2c0.4,0.7,1.4,0.9,2.1,1c1.5,0.2,2.5-0.2,6.2-1c1.6-0.4,2-0.4,2.5-0.3c1.2,0.3,2,1.4,2.8,2.7
		c1.3,2.2-0.1,3.4-1.7,4.5c-1,0.7-0.9,0.6-1.3,1c-0.9,0.9-2,2.8-1.2,4c0.6,1,2.1,1,2.2,1c1.3,0,2.2-1,2.3-1.1
		c0.5-0.5,1.3-1.2,2.5-1.8c0.7-0.3,1.4-0.7,2.3-0.6c1.1,0,1.8,0.6,4,2.4c1.4,1.2,2.5,2.1,3.2,2.7c2.2,1.4,5.2,3.1,8.9,4.8
		C402.1,186.9,410.3,190.6,422,192.5z"/>
	<path class="st10" d="M454.3,151.4c0-3.1,3.8-5.9,8.2-6c4-0.1,7.3,2.2,7.3,5c0,3.1-3.8,5.9-8.2,6
		C457.5,156.5,454.3,154.3,454.3,151.4z"/>
	<path class="st9" d="M437.2,157.7c-1.4,1.4-2.7,2.7-4.1,4.1c-0.2,0-0.4,0-0.5,0c-1.4-1.5-2.8-3-4.2-4.5c0.4-0.6,0.8-1.2,1.2-1.8
		c2.3,0.1,4.5,0.1,6.8,0.2C436.6,156.4,436.9,157,437.2,157.7z"/>
	<path class="st10" d="M406.9,156.4c-4.3,0-8.3-2.7-8.3-5.8c0-2.8,3.2-5.1,7.2-5.1c4.4,0,8.3,2.7,8.3,5.8
		C414.1,154.1,410.9,156.4,406.9,156.4z"/>
	<path class="st11" d="M422.9,162.2c0.1,0.6,0.6,2.8,2.2,4.2c0.7,0.6,1.5,1,2.3,1.1c1.8,0.2,3.1-0.9,3.7-1.4
		c1.8-1.5,2.2-3.5,2.3-4.2c-0.3,0-0.7,0-1,0c-0.1,0.3-0.3,0.7-0.5,1.1c-0.5,0.8-0.9,1.4-1.3,1.7c0,0-0.3,0.2-0.5,0.4
		c-0.2,0.1-1.9,1-3.4,0.3c-0.6-0.3-0.9-0.7-1.2-1c-1-1.2-1.1-2.6-1.1-3.3C423.9,161.4,423.4,161.8,422.9,162.2z"/>
	<path class="st11" d="M443.3,161.5c0,0.6-0.3,2.7-2,4.3c-0.4,0.4-2,1.9-4,1.6c-1.2-0.2-2-0.9-2.5-1.4c-1.6-1.5-2.1-3.3-2.2-4.2
		c0.3,0,0.6,0,0.8,0c0,0.2,0.1,0.4,0.2,0.6c0,0.1,0.1,0.3,0.3,0.5c0.1,0.2,0.4,0.6,0.7,1.1c0.2,0.2,0.7,0.8,1.4,1.1
		c1,0.5,2.3,0.5,3.3,0.1c1.5-0.7,2.5-2.3,2.5-4.2C442.4,161.2,442.8,161.4,443.3,161.5z"/>
	<path class="st12" d="M386.2,107.5c2.3-1.3,5.3-2.7,9.1-3.9c3.6-1.1,6.8-1.8,9.4-2.2c-1.2-2.1-2.5-3.7-3.5-4.9
		c-1.3-1.5-3.2-3.1-7.1-6.2c-1.2-0.9-2.3-1.8-3.5-1.6c-0.7,0.1-1.2,0.6-1.8,1.5c-1.7,2.4-2.2,4.6-2.3,5.3c-0.3,1.4-0.6,3.3-0.7,5.9
		C385.8,103,385.9,105.1,386.2,107.5z"/>
	<path class="st12" d="M481.8,110.7c-2.1-1.7-4.9-3.7-8.5-5.5c-3.4-1.7-6.5-2.8-9-3.6c1.5-2.2,3-3.8,4.1-5c1.5-1.5,3.6-3,7.9-6
		c1.3-0.9,2.5-1.7,3.7-1.4c0.7,0.2,1.1,0.9,1.6,1.9c1.3,2.8,1.5,5.4,1.6,6.1c0.1,1.6,0.1,3.8-0.2,6.7
		C482.8,105.8,482.5,108.1,481.8,110.7z"/>
	<path class="st14" d="M459.4,301.3c-7.1,3.7-14.2,3.3-17.3-0.3c-1-1.2-2.9-4.2-1.9-7.6c0.7-2.5,2.7-3.8,3.4-4.3
		c-3-14-6.1-28-9.1-42c-2.1-2.9-2.4-6.8-0.8-9.9c2.3-4.7,7.4-5.3,7.8-5.4l1.8-0.4c6.7-1.4,13.2,2.8,14.7,9.4l9.3,42.8
		c0.3,0.9,2,6.1-0.9,11.4C464.1,299.1,460.6,300.8,459.4,301.3z"/>
	<path class="st1" d="M395.8,285.8c-7-3.8-10.6-9.9-9.4-14.6c0.4-1.5,1.9-4.8,5.2-5.8c2.5-0.8,4.7,0.1,5.4,0.5
		c10-10.3,19.9-20.6,29.9-30.9c1.3-3.3,4.3-5.7,7.8-6.2c5.2-0.7,8.6,3.2,8.8,3.5l1.3,1.3c4.9,4.7,5,12.6,0.3,17.4l-30.5,31.5
		c-0.6,0.7-4,5-10,5.6C400.2,288.5,396.9,286.5,395.8,285.8z"/>
	<path class="st13" d="M446.3,292.6c-0.4,0-0.9-0.1-1.6,0c-0.6,0.1-1.7,0.2-2.7,0.8c-1.4,1-1.8,2.5-1.9,3c0.1,0.4,0.3,0.7,0.4,1.1
		c0-0.2,0.1-0.4,0.2-0.7c0.1-0.2,0.8-1.8,2.6-2.6c1.5-0.7,2.8-0.3,3-1C446.5,293,446.4,292.8,446.3,292.6z"/>
	<path class="st13" d="M449.2,297c-0.4,0-0.9,0.1-1.6,0.2c-0.6,0.2-1.7,0.4-2.5,1.3c-1.2,1.2-1.3,2.8-1.4,3.3c0.2,0.3,0.4,0.7,0.6,1
		c0-0.2,0.1-0.4,0.1-0.7c0.1-0.2,0.5-1.9,2.1-3c1.4-0.9,2.7-0.8,2.9-1.5C449.4,297.3,449.3,297.1,449.2,297z"/>
	<path class="st13" d="M394.8,269.8c-0.3-0.3-0.6-0.7-1.2-1.1c-0.5-0.4-1.4-1-2.6-1.2c-1.7-0.2-3,0.7-3.4,1
		c-0.1,0.4-0.3,0.7-0.4,1.1c0.1-0.1,0.4-0.2,0.6-0.3c0.2-0.1,1.8-0.8,3.6-0.3c1.6,0.5,2.3,1.6,2.9,1.3
		C394.6,270.2,394.7,269.9,394.8,269.8z"/>
	<path class="st13" d="M394,274.9c-0.3-0.2-0.7-0.6-1.3-0.9c-0.6-0.3-1.5-0.8-2.7-0.7c-1.7,0.1-2.8,1.2-3.2,1.6
		c-0.1,0.4-0.2,0.7-0.2,1.1c0.1-0.1,0.3-0.3,0.6-0.4c0.2-0.1,1.7-1.1,3.6-0.8c1.7,0.2,2.6,1.2,3.1,0.8
		C393.9,275.3,394,275.1,394,274.9z"/>
	<path class="st1" d="M566,195.8c-5.8,2.6-11.2,2.5-14,2.3c2.1,6.5,4.2,13,6.4,19.5c19.2-1.7,34.6-11.2,37.9-23.9
		c2-7.6-0.1-17.4-3.9-24.4c-4.4-8.2-9.1-9.3-11.8-18.4c-0.8-2.9-3.2-11.1,1.2-16.2c3-3.5,7.9-4.2,9.6-4.4c5-0.6,6.3,1.4,12.9,1.2
		c3.6-0.1,7.9-0.2,9.5-3c1.7-2.9-0.5-6.9-0.7-7.3c-4.1-7.4-16.3-7.5-19.7-7.5c-1.7,0-11.3,0.1-20.3,6.6c-1.8,1.3-4.6,3.4-7.1,7.1
		c-3.3,5-3.8,9.8-4.3,13.6c-0.4,3.4-1.1,10.5,2,18.2c2.6,6.4,5,5.9,8.9,14c2.6,5.5,4.8,10.1,3.1,14.6
		C574,192.2,569.4,194.3,566,195.8z"/>
	<path class="st14" d="M566.9,289.8c-4.4,6.7-10.8,9.8-15.3,8.1c-1.5-0.6-4.6-2.3-5.3-5.7c-0.5-2.5,0.5-4.6,0.9-5.4
		c-9.5-10.8-18.9-21.6-28.4-32.3c-3.2-1.6-5.4-4.8-5.5-8.3c-0.3-5.2,3.9-8.3,4.2-8.5l1.4-1.2c5.1-4.5,12.9-4,17.4,1.1l28.9,32.9
		c0.7,0.6,4.7,4.4,4.8,10.4C570,285.7,567.7,288.8,566.9,289.8z"/>
	<path class="st1" d="M518.4,304.6c-7.8,1.5-14.5-0.9-16.5-5.3c-0.7-1.5-1.6-4.9,0.4-7.8c1.4-2.2,3.7-2.9,4.5-3.1
		c1.1-14.3,2.2-28.6,3.4-42.9c-1.1-3.4-0.3-7.2,2.1-9.8c3.6-3.8,8.7-3,9-2.9l1.8,0.1c6.8,0.5,11.9,6.5,11.3,13.3L531,290
		c0,0.9,0.1,6.4-4.1,10.7C523.6,303.9,519.7,304.4,518.4,304.6z"/>
	<path class="st1" d="M554.3,247c4.9-7.9,5.4-15.6,5.7-20.6c0.7-10.2-1.7-18.4-3.4-23.1c-2-2.7-5.3-6.6-10.2-10
		c-5.4-3.7-9.9-5-18.6-7.4c-4.6-1.3-13.1-3.4-24.3-4.1c-2-0.1-3.5-0.2-6.9-0.3c-18.1-0.4-27.2-0.6-35.8-0.2c-13,0.7-19.6,1-26.2,3.4
		c-5.9,2.1-15,5.5-21.1,14.6c-4.1,6.1-5.3,12.4-5.6,14.6c-0.4,2.2-1.1,6.6-0.2,12c0.6,3.3,1.6,6.2,2.1,7.7c0.8,2.3,1.6,4.1,2.1,5.1
		c3.9,7.8,9.5,12.3,12.1,14.3c3.9,3,7.3,4.7,12.5,7.3c1,0.5,2,1,2.9,1.4c0,0,3,1.4,5.7,2.4c3.2,1.2,13.9,3.1,28.5,3.8
		c5.2,0,10.4,0,15.7,0c4.9,0.4,11.7,0.6,19.7,0c7.6-0.6,14.3-0.8,22.1-3.7C536.3,262.3,547.3,258.2,554.3,247z"/>
	<path class="st13" d="M551.2,288.6c-0.4,0.1-0.9,0.4-1.4,0.7c-0.5,0.3-1.4,1-2,2c-0.8,1.5-0.3,3.1-0.2,3.5c0.3,0.2,0.6,0.5,0.9,0.7
		c0-0.2-0.1-0.4-0.1-0.7c0-0.2-0.1-2,1-3.5c1-1.4,2.3-1.6,2.2-2.3C551.6,288.8,551.4,288.7,551.2,288.6z"/>
	<path class="st13" d="M555.8,291c-0.3,0.2-0.8,0.5-1.3,1c-0.4,0.4-1.2,1.2-1.6,2.3c-0.5,1.6,0.2,3.1,0.4,3.5c0.3,0.2,0.6,0.4,1,0.6
		c-0.1-0.2-0.2-0.4-0.2-0.7c-0.1-0.2-0.5-1.9,0.4-3.6c0.8-1.5,2-2,1.8-2.7C556.2,291.2,556,291.1,555.8,291z"/>
	<path class="st13" d="M507.4,292.9c-0.4-0.1-0.9-0.1-1.6-0.1c-0.6,0-1.7,0.1-2.7,0.7c-1.4,0.9-1.9,2.5-2,2.9
		c0.1,0.4,0.2,0.7,0.4,1.1c0.1-0.2,0.1-0.4,0.3-0.7c0.1-0.2,0.9-1.8,2.6-2.5c1.5-0.7,2.8-0.2,3.1-0.9
		C507.6,293.3,507.5,293,507.4,292.9z"/>
	<path class="st13" d="M510.1,297.3c-0.4,0-0.9,0-1.6,0.2c-0.6,0.1-1.7,0.4-2.6,1.2c-1.3,1.1-1.4,2.7-1.5,3.2c0.2,0.3,0.4,0.7,0.5,1
		c0-0.2,0.1-0.4,0.2-0.7c0.1-0.2,0.6-1.9,2.2-2.9c1.4-0.9,2.8-0.7,2.9-1.4C510.3,297.7,510.2,297.5,510.1,297.3z"/>
</g>
<g id="cat_eat" class="st0">
	<path class="st1" d="M-508,273.8c0,0-2.6-5.8-8.9-12.1c-0.2-0.2-1.1-1.1-2.4-1.8c-0.2-0.1-0.5-0.2-0.9-0.4
		c-1.9-0.8-2.6-1.2-2.9-1.3c-2.5-0.9-7.5,5.8-8,6.4c-2.6,3.5-2.7,5.3-4.6,8.3c-0.2,0.4-0.9,1.4-1.2,2.9c-0.1,0.5-0.2,0.9-0.2,1.2
		c1,0.6,2.1,1.3,3.2,2.3c0.6,0.6,1.2,1.1,1.7,1.6c0,0,0.9,1.1,1.3,2.6c0.9,4.4-1.2,9-6,10.5c-5.4,1.7-11.2,3.3-16.8,3.6
		c-12.3,0.6-24.7,0.2-37.1,0.3c-5.2,0-9.8,1.4-13,5.4c-4.4,10,2.6,18.6,14.6,17.8c8.5-0.6,17-0.2,25.5-0.7c9.5-0.6,19-1.3,28.4-2.8
		c15-2.3,24.6-10.4,29.2-23.2c1.3-3.5,1.3-6.7,1.2-9.1C-505.3,280.1-507,276.1-508,273.8z"/>
	<path class="st1" d="M-625.5,291.4c-7.7,2.1-14.6,0.2-16.9-4c-0.8-1.4-1.9-4.8-0.3-7.8c1.2-2.3,3.4-3.2,4.2-3.4c0-14.3,0-28.7,0-43
		c-1.4-3.3-0.9-7.1,1.3-9.9c3.3-4.1,8.4-3.6,8.7-3.6h1.9c6.8,0,12.3,5.5,12.3,12.3v43.8c0.1,0.9,0.7,6.4-3.3,11
		C-620.5,290.3-624.3,291.2-625.5,291.4z"/>
	<path class="st1" d="M-658.2,289.8c-7.7,2.1-14.6,0.2-16.9-4c-0.8-1.4-1.9-4.8-0.3-7.8c1.2-2.3,3.4-3.2,4.2-3.4c0-14.3,0-28.7,0-43
		c-1.4-3.3-0.9-7.1,1.3-9.9c3.3-4.1,8.4-3.6,8.7-3.6h1.8c6.8,0,12.3,5.5,12.3,12.3v43.8c0.1,0.9,0.7,6.4-3.3,11
		C-653.1,288.7-656.9,289.6-658.2,289.8z"/>
	<path class="st1" d="M-526.9,269c3.7-5,5-10,5.9-13.7c0.3-1.1,0.9-3.8,1.2-7.4c1.1-12.1-2.4-22.7-3.6-26.3
		c-3.4-10.1-8.5-17.6-12.5-22.6c-2.3-2.4-5.4-5.5-9.5-8.7c-3.8-3-7.8-6.2-13.7-9.1c-7-3.4-14.6-5.5-22.7-6.3
		c-1.5-0.1-3.1-0.4-5.9-0.7c-9.2-1-21.2-2.2-35.7-1.5c-12.7,0.6-19.1,0.8-26.2,3.4c-5.9,2.1-15,5.5-21.1,14.6
		c-4.1,6.1-5.3,12.4-5.6,14.6c-0.4,2.2-1.1,6.6-0.2,12c0.6,3.3,1.6,6.2,2.1,7.7c0.8,2.3,1.6,4.1,2.1,5.1c3.9,7.8,9.5,12.3,12.1,14.3
		c3.9,3,7.3,4.7,12.5,7.3c3.7,1.8,6.5,3,8.6,3.8c9.1,3.7,18.6,7.1,26.1,9.7c2.5,0.3,6.4,0.4,11.1-0.3c-0.7,3.7-1.8,6.6-1.8,9.6
		c-0.1,7.2,3.9,12.5,11,13.2c8,0.8,16.1,0.5,24.2,0.2c8.9-0.4,17.4-3,25.5-6.6c3.6-1.6,6-3.3,7.3-4.2
		C-533.1,275.3-529.8,273-526.9,269z"/>
	<path class="st15" d="M-681.5,240.2c16,2.6,28.5,0.4,32.1-0.3c1-0.2,5.1-1,10.3-2.7c4.8-1.6,10.2-3.4,16-7.5c1.3-0.9,2.3-1.7,3-2.3
		c0,0,2.8-2.5,2.8-2.5c2.8-2.4-2.8,2.5-2.8,2.5c-0.1-0.1,1-1.6,2.8-2.5c0.7-0.3,1.3-0.6,2-0.5c1.5,0.2,1.8,1.5,3.7,2.3
		c0.9,0.4,2.9,1,3.8,0.1c0.8-0.9,0.3-2.7-0.2-3.7c-0.2-0.4-0.4-1.1-1.6-1.8c-2-1.3-2.5-2.7-1.1-4.8c1.4-2.2,2.9-3.1,5.4-1.7
		c1.2,0.6,2.7,1,4,0.9c0.9,0,2.3-0.8,2.6-1.6c0.3-0.8-0.3-2.3-1-2.9c-0.7-0.6-1.1-0.5-3.7-1.7c-1.7-0.7-2.1-1-2.3-1.5
		c-0.3-0.6-0.3-1.3-0.3-2.2c0-0.8,0-1.2,0.2-1.6c0.5-1,1.7-1.5,3.1-1.5c3.3-0.2,3.9,0.1,5.8-0.6c1.3-0.5,3.1-1.7,2.9-2.9
		c-0.1-1.2-2.4-1.9-3.8-2.3c-3.6-1.1-5.3,0-6.5-1.2c-0.9-1-1-2.8-1.1-6.6c-0.6-17.7-2.8-35.1-7.4-52.2c-0.5-1.8-1.3-3.5-2.1-5.1
		c-2.3-5-6.3-6.6-11-3.6c-5.5,3.6-10.8,7.6-16.1,11.5c-1.9,1.4-3.4,3.2-5.3,4.4c-1.4,0.9-3.5,1.6-5,1.3c-10.3-2.1-20.6-2.1-30.9,0.1
		c-1.7,0.4-4.1-0.4-5.6-1.5c-7-5-13.8-10.3-20.8-15.4c-4.9-3.6-9.7-2.1-11.9,3.6c-1.1,3-2.3,6.1-2.9,9.2c-3.2,16.2-6.3,32.4-6.1,49
		c0,0.5,0,0.9-0.1,1.4c-0.5,5.6-0.5,5.4-6,5.1c-2.3-0.1-5.8-1.5-6.3,2.2c-0.5,3.7,3.3,2.6,5.4,3.2c1.5,0.4,3.2,0.3,4.8,0.6
		c2.7,0.5,3.4,2.7,1.6,4.8l0,0c-0.6,0.3-1.1,0.6-1.7,0.9c-0.2,0-0.4,0-0.6,0c-1.1,0.2-3,0.7-4.4,2.3c-0.3,0.4-1.9,2.1-1.3,3.2
		c0.4,0.7,1.4,0.9,2.2,1c1.6,0.2,2.6-0.2,6.3-1c1.6-0.4,2-0.4,2.5-0.3c1.2,0.3,2,1.4,2.8,2.7c1.3,2.2-0.1,3.4-1.7,4.5
		c-1,0.7-1,0.6-1.3,1c-0.9,0.9-2,2.8-1.2,4.1c0.6,1,2.1,1,2.3,1c1.4,0,2.2-1,2.3-1.1c0.5-0.5,1.3-1.2,2.5-1.8
		c0.7-0.3,1.4-0.7,2.3-0.6c1.1,0,1.8,0.6,4,2.5c1.4,1.2,2.6,2.1,3.3,2.7c2.2,1.4,5.2,3.1,9,4.8
		C-701.6,234.6-693.3,238.2-681.5,240.2z"/>
	<path class="st1" d="M-682.1,239.2c15.9,2.6,28.2,0.4,31.8-0.3c1-0.2,5.1-1,10.2-2.7c4.8-1.6,10.1-3.4,15.9-7.5
		c1.3-0.9,2.2-1.7,2.9-2.3c0,0,2.8-2.5,2.8-2.5c2.8-2.4-2.8,2.5-2.8,2.5c-0.1-0.1,1-1.6,2.8-2.5c0.6-0.3,1.2-0.6,2-0.5
		c1.5,0.2,1.8,1.5,3.7,2.3c0.9,0.4,2.9,1,3.8,0.1c0.8-0.8,0.3-2.6-0.2-3.6c-0.2-0.4-0.4-1.1-1.5-1.8c-2-1.3-2.5-2.7-1.1-4.8
		c1.4-2.1,2.9-3,5.4-1.7c1.2,0.6,2.7,1,4,0.9c0.9,0,2.3-0.8,2.5-1.6c0.3-0.8-0.3-2.3-1-2.8c-0.7-0.6-1.1-0.5-3.7-1.7
		c-1.7-0.7-2.1-1-2.3-1.4c-0.3-0.6-0.3-1.3-0.3-2.2c0-0.8,0-1.2,0.2-1.6c0.5-1,1.6-1.4,3-1.5c3.3-0.2,3.9,0.1,5.8-0.6
		c1.3-0.5,3-1.7,2.9-2.8c-0.1-1.2-2.4-1.9-3.7-2.3c-3.5-1.1-5.2,0-6.4-1.2c-0.9-0.9-1-2.8-1.1-6.5c-0.6-17.5-2.7-34.8-7.3-51.8
		c-0.5-1.7-1.3-3.4-2.1-5.1c-2.2-5-6.3-6.5-10.9-3.5c-5.5,3.5-10.7,7.5-15.9,11.4c-1.8,1.4-3.3,3.2-5.3,4.4c-1.4,0.9-3.4,1.6-5,1.3
		c-10.3-2-20.4-2.1-30.7,0.1c-1.7,0.4-4.1-0.4-5.6-1.5c-7-4.9-13.7-10.2-20.7-15.2c-4.9-3.5-9.6-2.1-11.8,3.5c-1.1,3-2.2,6-2.9,9.1
		c-3.2,16.1-6.2,32.1-6,48.6c0,0.5,0,0.9-0.1,1.4c-0.5,5.5-0.5,5.4-6,5.1c-2.3-0.1-5.8-1.5-6.3,2.2c-0.5,3.7,3.3,2.6,5.3,3.2
		c1.5,0.4,3.2,0.3,4.8,0.6c2.7,0.5,3.4,2.7,1.6,4.8l0,0c-0.6,0.3-1.1,0.6-1.7,0.9c-0.2,0-0.4,0-0.6,0c-1.1,0.2-3,0.7-4.4,2.3
		c-0.3,0.4-1.9,2.1-1.3,3.2c0.4,0.7,1.4,0.9,2.1,1c1.5,0.2,2.5-0.2,6.2-1c1.6-0.4,2-0.4,2.5-0.3c1.2,0.3,2,1.4,2.8,2.7
		c1.3,2.2-0.1,3.4-1.7,4.5c-1,0.7-0.9,0.6-1.3,1c-0.9,0.9-2,2.8-1.2,4c0.6,1,2.1,1,2.2,1c1.3,0,2.2-1,2.3-1.1
		c0.5-0.5,1.3-1.2,2.5-1.8c0.7-0.3,1.4-0.7,2.3-0.6c1.1,0,1.8,0.6,4,2.4c1.4,1.2,2.5,2.1,3.2,2.7c2.2,1.4,5.2,3.1,8.9,4.8
		C-702,233.7-693.7,237.3-682.1,239.2z"/>
	<path class="st10" d="M-653.9,210.8c0-3.1,3.8-5.9,8.2-6c4-0.1,7.3,2.2,7.3,5c0,3.1-3.8,5.9-8.2,6
		C-650.6,215.8-653.9,213.6-653.9,210.8z"/>
	<path class="st9" d="M-671,217.1c-1.4,1.4-2.7,2.7-4.1,4.1c-0.2,0-0.4,0-0.5,0c-1.4-1.5-2.8-3-4.2-4.5c0.4-0.6,0.8-1.2,1.2-1.8
		c2.3,0.1,4.5,0.1,6.8,0.2C-671.6,215.7-671.3,216.4-671,217.1z"/>
	<path class="st10" d="M-701.3,215.7c-4.3,0-8.3-2.7-8.3-5.8c0-2.8,3.2-5.1,7.2-5.1c4.4,0,8.3,2.7,8.3,5.8
		C-694.1,213.4-697.3,215.7-701.3,215.7z"/>
	<path class="st16" d="M-680,227.9c0,0.1,0.2,1.9,1.3,3.2c2,2.2,6.3,2.1,8.7,0.2c0.3-0.3,1.5-1.3,2-2.9c0.2-0.8,0.5-1.8,0-2.4
		c-0.9-1.1-2.9,0.5-4.5-0.7c-0.6-0.5-0.9-1.2-2.3-2.3c-0.3-0.2-0.5-0.4-0.8-0.3c-0.6,0.1-0.6,1.1-1.4,1.9c-1,1-2.1,0.5-2.8,1.4
		C-680,226.5-680,227.1-680,227.9z"/>
	<path class="st11" d="M-685.2,221.6c0.1,0.6,0.6,2.8,2.2,4.2c0.7,0.6,1.5,1,2.3,1.1c1.8,0.2,3.1-0.9,3.7-1.4
		c1.8-1.5,2.2-3.5,2.3-4.2c-0.3,0-0.7,0-1,0c-0.1,0.3-0.3,0.7-0.5,1.1c-0.5,0.8-0.9,1.4-1.3,1.7c0,0-0.3,0.2-0.5,0.4
		c-0.2,0.1-1.9,1-3.4,0.3c-0.6-0.3-0.9-0.7-1.2-1c-1-1.2-1.1-2.6-1.1-3.3C-684.3,220.8-684.8,221.2-685.2,221.6z"/>
	<path class="st11" d="M-664.9,220.9c0,0.6-0.3,2.7-2,4.3c-0.4,0.4-2,1.9-4,1.6c-1.2-0.2-2-0.9-2.5-1.4c-1.6-1.5-2.1-3.3-2.2-4.2
		c0.3,0,0.6,0,0.8,0c0,0.2,0.1,0.4,0.2,0.6c0,0.1,0.1,0.3,0.3,0.5c0.1,0.2,0.4,0.6,0.7,1.1c0.2,0.2,0.7,0.8,1.4,1.1
		c1,0.5,2.3,0.5,3.3,0.1c1.5-0.7,2.5-2.3,2.5-4.2C-665.8,220.6-665.3,220.7-664.9,220.9z"/>
	<path class="st12" d="M-717.9,154.3c2.3-1.3,5.3-2.7,9.1-3.9c3.6-1.1,6.8-1.8,9.4-2.2c-1.2-2.1-2.5-3.7-3.5-4.9
		c-1.3-1.5-3.2-3.1-7.1-6.2c-1.2-0.9-2.3-1.8-3.5-1.6c-0.7,0.1-1.2,0.6-1.8,1.5c-1.7,2.4-2.2,4.6-2.3,5.3c-0.3,1.4-0.6,3.3-0.7,5.9
		C-718.3,149.8-718.2,151.8-717.9,154.3z"/>
	<path class="st12" d="M-622.3,157.5c-2.1-1.7-4.9-3.7-8.5-5.5c-3.4-1.7-6.5-2.8-9-3.6c1.5-2.2,3-3.8,4.1-5c1.5-1.5,3.6-3,7.9-6
		c1.3-0.9,2.5-1.7,3.7-1.4c0.7,0.2,1.1,0.9,1.6,1.9c1.3,2.8,1.5,5.4,1.6,6.1c0.1,1.6,0.1,3.8-0.2,6.7
		C-621.3,152.5-621.6,154.8-622.3,157.5z"/>
	<path class="st13" d="M-669.1,278.6c-0.4-0.1-0.9-0.3-1.5-0.4c-0.6-0.1-1.7-0.2-2.8,0.2c-1.6,0.6-2.3,2.1-2.5,2.5
		c0.1,0.4,0.1,0.7,0.2,1.1c0.1-0.2,0.2-0.4,0.4-0.6c0.1-0.2,1.2-1.6,3.1-2c1.6-0.4,2.8,0.3,3.2-0.3
		C-669,279-669.1,278.7-669.1,278.6z"/>
	<path class="st13" d="M-667.3,283.4c-0.4-0.1-0.9-0.1-1.6-0.1c-0.6,0-1.7,0.1-2.7,0.7c-1.4,0.9-1.9,2.4-2,2.9
		c0.1,0.4,0.2,0.7,0.3,1.1c0.1-0.2,0.1-0.4,0.3-0.7c0.1-0.2,0.9-1.8,2.7-2.5c1.6-0.6,2.8-0.2,3.1-0.8
		C-667.1,283.9-667.2,283.6-667.3,283.4z"/>
	<path class="st13" d="M-637.4,280.6c-0.4,0-0.9,0-1.6,0c-0.6,0.1-1.7,0.2-2.7,1c-1.4,1-1.7,2.6-1.7,3.1c0.1,0.3,0.3,0.7,0.4,1
		c0-0.2,0.1-0.4,0.2-0.7c0.1-0.2,0.8-1.8,2.4-2.7c1.5-0.8,2.8-0.4,3-1.1C-637.2,281-637.3,280.7-637.4,280.6z"/>
	<path class="st13" d="M-634.4,284.8c-0.4,0-0.9,0.1-1.6,0.3c-0.6,0.2-1.6,0.5-2.5,1.4c-1.2,1.2-1.2,2.8-1.2,3.3
		c0.2,0.3,0.4,0.6,0.6,1c0-0.2,0-0.4,0.1-0.7c0-0.2,0.4-1.9,2-3.1c1.3-1,2.7-0.9,2.8-1.6C-634.2,285.2-634.3,285-634.4,284.8z"/>
</g>
<g id="cat_walk_1" class="st0">
	<path class="st1" d="M83.8,201.3"/>
	<path class="st1" d="M100.4,261.3"/>
	<path class="st1" d="M98.4,195.6c15.9,2.6,28.2,0.4,31.8-0.3c1-0.2,5.1-1,10.2-2.7c4.8-1.6,10.1-3.4,15.9-7.5
		c1.3-0.9,2.2-1.7,2.9-2.3c0,0,2.8-2.5,2.8-2.5c2.8-2.4-2.8,2.5-2.8,2.5c-0.1-0.1,1-1.6,2.8-2.5c0.6-0.3,1.2-0.6,2-0.5
		c1.5,0.2,1.8,1.5,3.7,2.3c0.9,0.4,2.9,1,3.8,0.1c0.8-0.8,0.3-2.6-0.2-3.6c-0.2-0.4-0.4-1.1-1.5-1.8c-2-1.3-2.5-2.7-1.1-4.8
		c1.4-2.1,2.9-3,5.4-1.7c1.2,0.6,2.7,1,4,0.9c0.9,0,2.3-0.8,2.5-1.6c0.3-0.8-0.3-2.3-1-2.8c-0.7-0.6-1.1-0.5-3.7-1.7
		c-1.7-0.7-2.1-1-2.3-1.4c-0.3-0.6-0.3-1.3-0.3-2.2c0-0.8,0-1.2,0.2-1.6c0.5-1,1.6-1.4,3-1.5c3.3-0.2,3.9,0.1,5.8-0.6
		c1.3-0.5,3-1.7,2.9-2.8c-0.1-1.2-2.4-1.9-3.7-2.3c-3.5-1.1-5.2,0-6.4-1.2c-0.9-0.9-1-2.8-1.1-6.5c-0.6-17.5-2.7-34.8-7.3-51.8
		c-0.5-1.7-1.3-3.4-2.1-5.1c-2.2-5-6.3-6.5-10.9-3.5c-5.5,3.5-10.7,7.5-15.9,11.4c-1.8,1.4-3.3,3.2-5.3,4.4c-1.4,0.9-3.4,1.6-5,1.3
		c-10.3-2-20.4-2.1-30.7,0.1c-1.7,0.4-4.1-0.4-5.6-1.5c-7-4.9-13.7-10.2-20.7-15.2c-4.9-3.5-9.6-2.1-11.8,3.5c-1.1,3-2.2,6-2.9,9.1
		c-3.2,16.1-6.2,32.1-6,48.6c0,0.5,0,0.9-0.1,1.4c-0.5,5.5-0.5,5.4-6,5.1c-2.3-0.1-5.8-1.5-6.3,2.2c-0.5,3.7,3.3,2.6,5.3,3.2
		c1.5,0.4,3.2,0.3,4.8,0.6c2.7,0.5,3.4,2.7,1.6,4.8l0,0c-0.6,0.3-1.1,0.6-1.7,0.9c-0.2,0-0.4,0-0.6,0c-1.1,0.2-3,0.7-4.4,2.3
		c-0.3,0.4-1.9,2.1-1.3,3.2c0.4,0.7,1.4,0.9,2.1,1c1.5,0.2,2.5-0.2,6.2-1c1.6-0.4,2-0.4,2.5-0.3c1.2,0.3,2,1.4,2.8,2.7
		c1.3,2.2-0.1,3.4-1.7,4.5c-1,0.7-0.9,0.6-1.3,1c-0.9,0.9-2,2.8-1.2,4c0.6,1,2.1,1,2.2,1c1.3,0,2.2-1,2.3-1.1
		c0.5-0.5,1.3-1.2,2.5-1.8c0.7-0.3,1.4-0.7,2.3-0.6c1.1,0,1.8,0.6,4,2.4c1.4,1.2,2.5,2.1,3.2,2.7c2.2,1.4,5.2,3.1,8.9,4.8
		C78.5,190,86.7,193.7,98.4,195.6z"/>
	<path class="st10" d="M130.6,154.5c0-3.1,3.8-5.9,8.2-6c4-0.1,7.3,2.2,7.3,5c0,3.1-3.8,5.9-8.2,6
		C133.9,159.6,130.6,157.4,130.6,154.5z"/>
	<path class="st9" d="M113.5,160.8c-1.4,1.4-2.7,2.7-4.1,4.1c-0.2,0-0.4,0-0.5,0c-1.4-1.5-2.8-3-4.2-4.5c0.4-0.6,0.8-1.2,1.2-1.8
		c2.3,0.1,4.5,0.1,6.8,0.2C113,159.5,113.2,160.1,113.5,160.8z"/>
	<path class="st10" d="M83.2,159.5c-4.3,0-8.3-2.7-8.3-5.8c0-2.8,3.2-5.1,7.2-5.1c4.4,0,8.3,2.7,8.3,5.8
		C90.4,157.2,87.3,159.5,83.2,159.5z"/>
	<path class="st11" d="M99.3,165.3c0.1,0.6,0.6,2.8,2.2,4.2c0.7,0.6,1.5,1,2.3,1.1c1.8,0.2,3.1-0.9,3.7-1.4c1.8-1.5,2.2-3.5,2.3-4.2
		c-0.3,0-0.7,0-1,0c-0.1,0.3-0.3,0.7-0.5,1.1c-0.5,0.8-0.9,1.4-1.3,1.7c0,0-0.3,0.2-0.5,0.4c-0.2,0.1-1.9,1-3.4,0.3
		c-0.6-0.3-0.9-0.7-1.2-1c-1-1.2-1.1-2.6-1.1-3.3C100.2,164.5,99.7,164.9,99.3,165.3z"/>
	<path class="st11" d="M119.7,164.6c0,0.6-0.3,2.7-2,4.3c-0.4,0.4-2,1.9-4,1.6c-1.2-0.2-2-0.9-2.5-1.4c-1.6-1.5-2.1-3.3-2.2-4.2
		c0.3,0,0.6,0,0.8,0c0.1,0.2,0.1,0.4,0.2,0.6c0,0.1,0.1,0.3,0.3,0.5c0.1,0.2,0.4,0.6,0.7,1.1c0.2,0.2,0.7,0.8,1.4,1.1
		c1,0.5,2.3,0.5,3.3,0.1c1.5-0.7,2.5-2.3,2.5-4.2C118.7,164.3,119.2,164.5,119.7,164.6z"/>
	<path class="st12" d="M62.5,110.7c2.3-1.3,5.3-2.7,9.1-3.9c3.6-1.1,6.8-1.8,9.4-2.2c-1.2-2.1-2.5-3.7-3.5-4.9
		c-1.3-1.5-3.2-3.1-7.1-6.2c-1.2-0.9-2.3-1.8-3.5-1.6c-0.7,0.1-1.2,0.6-1.8,1.5c-1.7,2.4-2.2,4.6-2.3,5.3c-0.3,1.4-0.6,3.3-0.7,5.9
		C62.2,106.1,62.2,108.2,62.5,110.7z"/>
	<path class="st12" d="M158.2,113.8c-2.1-1.7-4.9-3.7-8.5-5.5c-3.4-1.7-6.5-2.8-9-3.6c1.5-2.2,3-3.8,4.1-5c1.5-1.5,3.6-3,7.9-6
		c1.3-0.9,2.5-1.7,3.7-1.4c0.7,0.2,1.1,0.9,1.6,1.9c1.3,2.8,1.5,5.4,1.6,6.1c0.1,1.6,0.1,3.8-0.2,6.7
		C159.2,108.9,158.8,111.2,158.2,113.8z"/>
	<path class="st14" d="M86.8,295.7c-7.9-0.9-13.6-5.2-14.2-10c-0.2-1.6,0-5.1,2.7-7.3c2-1.6,4.4-1.7,5.2-1.6
		c5.4-13.3,10.7-26.6,16.1-39.9c-0.1-3.6,1.8-6.9,4.9-8.7c4.6-2.6,9.1-0.3,9.4-0.1l1.7,0.7c6.3,2.5,9.4,9.7,6.8,16.1l-16.4,40.7
		c-0.2,0.9-1.8,6.2-7.1,8.9C91.9,296.5,88,295.9,86.8,295.7z"/>
	<path class="st1" d="M142.6,301.7c-7,3.8-14.1,3.5-17.3-0.1c-1.1-1.2-2.9-4.2-2-7.5c0.7-2.5,2.6-3.8,3.3-4.3c-3.2-14-6.3-28-9.5-42
		c-2.1-2.9-2.4-6.7-0.9-9.9c2.3-4.7,7.4-5.4,7.7-5.4l1.8-0.4c6.7-1.5,13.3,2.7,14.8,9.3l9.7,42.7c0.3,0.9,2,6.1-0.8,11.4
		C147.3,299.4,143.7,301.2,142.6,301.7z"/>
	<path class="st13" d="M80.9,281.2c-0.3-0.3-0.7-0.6-1.3-0.9c-0.5-0.3-1.5-0.8-2.7-0.8c-1.7,0-2.9,1.1-3.2,1.4
		c-0.1,0.4-0.2,0.7-0.3,1.1c0.1-0.1,0.3-0.3,0.6-0.4c0.2-0.1,1.7-1,3.6-0.7c1.7,0.3,2.5,1.3,3.1,0.9
		C80.8,281.6,80.8,281.3,80.9,281.2z"/>
	<path class="st13" d="M80.7,286.3c-0.3-0.2-0.8-0.5-1.4-0.7c-0.6-0.2-1.6-0.6-2.8-0.4c-1.7,0.3-2.7,1.5-3,1.9
		c0,0.4-0.1,0.7-0.1,1.1c0.1-0.1,0.3-0.3,0.5-0.5c0.2-0.1,1.5-1.3,3.4-1.3c1.7,0,2.7,0.9,3.2,0.4C80.7,286.8,80.7,286.5,80.7,286.3z
		"/>
	<path class="st13" d="M128.6,293.8c-0.4,0.1-0.9,0.2-1.5,0.4c-0.6,0.2-1.6,0.6-2.4,1.5c-1.1,1.3-1,2.9-1,3.4
		c0.2,0.3,0.4,0.6,0.7,0.9c0-0.2,0-0.4,0.1-0.7c0-0.2,0.3-2,1.8-3.2c1.3-1.1,2.6-1,2.7-1.7C128.9,294.1,128.7,293.9,128.6,293.8z"/>
	<path class="st13" d="M132.5,297.2c-0.4,0.1-0.9,0.3-1.4,0.6c-0.5,0.3-1.5,0.9-2.1,1.9c-0.9,1.5-0.6,3-0.4,3.5
		c0.3,0.3,0.5,0.5,0.8,0.8c0-0.2-0.1-0.4-0.1-0.7c0-0.2,0-2,1.2-3.4c1.1-1.3,2.4-1.5,2.4-2.2C132.8,297.5,132.6,297.3,132.5,297.2z"
		/>
	<path class="st1" d="M242.3,198.9c-5.8,2.6-11.2,2.5-14,2.3c2.1,6.5,4.2,13,6.4,19.5c19.2-1.7,34.6-11.2,37.9-23.9
		c2-7.6-0.1-17.4-3.9-24.4c-4.4-8.2-9.1-9.3-11.8-18.4c-0.8-2.9-3.2-11.1,1.2-16.2c3-3.5,7.9-4.2,9.6-4.4c5-0.6,6.3,1.4,12.9,1.2
		c3.6-0.1,7.9-0.2,9.5-3c1.7-2.9-0.5-6.9-0.7-7.3c-4.1-7.4-16.3-7.5-19.7-7.5c-1.7,0-11.3,0.1-20.3,6.6c-1.8,1.3-4.6,3.4-7.1,7.1
		c-3.3,5-3.8,9.8-4.3,13.6c-0.4,3.4-1.1,10.5,2,18.2c2.6,6.4,5,5.9,8.9,14c2.6,5.5,4.8,10.1,3.1,14.6
		C250.3,195.4,245.8,197.4,242.3,198.9z"/>
	<path class="st14" d="M177.8,302.4c-7.9,0.6-14.3-2.6-15.8-7.2c-0.5-1.5-1-5,1.3-7.7c1.7-2,4-2.4,4.8-2.6
		c2.8-14.1,5.6-28.1,8.4-42.2c-0.7-3.5,0.5-7.1,3.2-9.4c4-3.4,8.9-1.9,9.3-1.8l1.8,0.4c6.7,1.3,11,7.8,9.7,14.5l-8.5,43
		c-0.1,0.9-0.6,6.4-5.4,10.1C183,302.3,179.1,302.4,177.8,302.4z"/>
	<path class="st1" d="M235.2,297.3c-5.5,5.8-12.4,7.7-16.5,5.3c-1.4-0.8-4.1-3.1-4.2-6.5c-0.1-2.6,1.3-4.5,1.8-5.1
		c-7.4-12.3-14.8-24.6-22.1-36.9c-2.9-2.1-4.4-5.6-4-9.2c0.7-5.2,5.3-7.4,5.6-7.6l1.6-1c5.8-3.5,13.4-1.6,16.9,4.2l22.6,37.6
		c0.6,0.7,3.8,5.1,2.8,11.1C239,293.7,236.2,296.5,235.2,297.3z"/>
	<path class="st1" d="M230.6,250.1c4.9-7.9,5.4-15.6,5.7-20.6c0.7-10.2-1.7-18.4-3.4-23.1c-2-2.7-5.3-6.6-10.2-10
		c-5.4-3.7-9.9-5-18.6-7.4c-4.6-1.3-13.1-3.4-24.3-4.1c-2-0.1-3.5-0.2-6.9-0.3c-18.1-0.4-27.2-0.6-35.8-0.2c-13,0.7-19.6,1-26.2,3.4
		c-5.9,2.1-15,5.5-21.1,14.6c-4.1,6.1-5.3,12.4-5.6,14.6c-0.4,2.2-1.1,6.6-0.2,12c0.6,3.3,1.6,6.2,2.1,7.7c0.8,2.3,1.6,4.1,2.1,5.1
		c3.9,7.8,9.5,12.3,12.1,14.3c3.9,3,7.3,4.7,12.5,7.3c1,0.5,2,1,2.9,1.4c0,0,3,1.4,5.7,2.4c3.2,1.2,13.9,3.1,28.5,3.8
		c5.2,0,10.4,0,15.7,0c4.9,0.4,11.7,0.6,19.7,0c7.6-0.6,14.3-0.8,22.1-3.7C212.6,265.4,223.7,261.3,230.6,250.1z"/>
	<path class="st13" d="M169.3,289.3c-0.3-0.2-0.8-0.5-1.4-0.7c-0.6-0.2-1.6-0.5-2.8-0.3c-1.7,0.3-2.6,1.6-2.9,2c0,0.4,0,0.8-0.1,1.1
		c0.1-0.1,0.3-0.3,0.5-0.5c0.2-0.2,1.5-1.3,3.4-1.4c1.7,0,2.7,0.8,3.2,0.3C169.3,289.7,169.3,289.4,169.3,289.3z"/>
	<path class="st13" d="M170.1,294.4c-0.4-0.1-0.9-0.3-1.5-0.4c-0.6-0.1-1.7-0.3-2.8,0.2c-1.6,0.6-2.3,2-2.5,2.5
		c0,0.4,0.1,0.7,0.1,1.1c0.1-0.1,0.2-0.4,0.4-0.6c0.1-0.2,1.3-1.6,3.1-1.9c1.6-0.3,2.8,0.4,3.2-0.2
		C170.2,294.8,170.2,294.5,170.1,294.4z"/>
	<path class="st13" d="M219.4,294.2c-0.3,0.2-0.8,0.4-1.3,0.9c-0.5,0.4-1.3,1.1-1.8,2.2c-0.6,1.6-0.1,3.1,0.1,3.5
		c0.3,0.2,0.6,0.4,0.9,0.7c-0.1-0.2-0.1-0.4-0.2-0.7c0-0.2-0.3-2,0.7-3.6c0.9-1.4,2.2-1.8,2-2.5
		C219.8,294.4,219.6,294.2,219.4,294.2z"/>
	<path class="st13" d="M224.2,296.2c-0.3,0.2-0.7,0.6-1.2,1.1c-0.4,0.5-1.1,1.3-1.4,2.5c-0.4,1.6,0.4,3.1,0.7,3.5
		c0.3,0.2,0.7,0.3,1,0.5c-0.1-0.2-0.2-0.4-0.3-0.7c-0.1-0.2-0.6-1.9,0.1-3.6c0.6-1.5,1.8-2.1,1.6-2.8
		C224.6,296.4,224.4,296.3,224.2,296.2z"/>
</g>
<g id="cat_play" class="st0">
	<path class="st1" d="M239.2,142.4"/>
	<path class="st1" d="M221.5,82.8"/>
	<path class="st1" d="M223.6,75.2c-6.4,14.7-7.4,27.2-7.6,30.9c-0.1,1-0.3,5.1,0.1,10.5c0.4,5,0.8,10.6,3.3,17.2
		c0.6,1.4,1.1,2.6,1.5,3.4c0,0,1.7,3.3,1.7,3.3c1.7,3.3-1.7-3.3-1.7-3.3c0.1,0,1.3,1.3,1.7,3.3c0.1,0.7,0.3,1.4,0,2.1
		c-0.5,1.4-1.9,1.4-3.1,3c-0.6,0.8-1.7,2.6-1,3.6c0.6,1,2.5,0.9,3.6,0.7c0.4-0.1,1.2-0.2,2.1-1.1c1.7-1.6,3.2-1.8,4.9,0.1
		c1.7,1.9,2.2,3.5,0.3,5.6c-0.9,1-1.6,2.3-1.9,3.6c-0.2,0.9,0.2,2.4,0.9,2.8c0.7,0.5,2.3,0.3,3-0.2c0.7-0.6,0.8-0.9,2.5-3.2
		c1.1-1.5,1.5-1.8,2-1.9c0.7-0.2,1.3,0,2.2,0.2c0.8,0.2,1.2,0.3,1.5,0.6c0.8,0.7,1,2,0.7,3.3c-0.6,3.2-1.1,3.8-0.9,5.7
		c0.2,1.4,0.9,3.4,2,3.5c1.2,0.2,2.4-1.8,3.2-3c1.9-3.2,1.2-5.1,2.7-5.9c1.1-0.7,2.9-0.2,6.6,0.6c17.1,3.8,34.4,6,52,5.7
		c1.8,0,3.6-0.4,5.4-0.7c5.4-0.9,7.9-4.5,6.1-9.7c-2.1-6.2-4.6-12.2-7.1-18.2c-0.9-2.1-2.3-4-2.9-6.2c-0.5-1.6-0.7-3.7,0-5.2
		c4.5-9.4,7.1-19.3,7.5-29.7c0.1-1.7,1.4-3.8,2.8-5c6.5-5.5,13.3-10.8,19.9-16.3c4.6-3.9,4.4-8.8-0.5-12.3c-2.6-1.8-5.3-3.7-8.2-5
		c-14.8-7-29.6-14-45.6-17.9c-0.4-0.1-0.9-0.3-1.3-0.4c-5.2-1.8-5.1-1.8-3.5-7c0.7-2.2,2.8-5.3-0.5-6.6c-3.4-1.4-3.3,2.5-4.4,4.4
		c-0.8,1.4-1.1,3-1.7,4.5c-1.1,2.5-3.5,2.6-5,0.4l0,0c-0.2-0.6-0.3-1.2-0.5-1.8c0-0.2,0.1-0.4,0.1-0.6c0.1-1.1,0-3-1.1-4.8
		c-0.3-0.4-1.5-2.3-2.8-2.1c-0.8,0.2-1.2,1.1-1.5,1.8c-0.6,1.4-0.5,2.5-0.5,6.3c0,1.7-0.1,2-0.3,2.5c-0.6,1.1-1.8,1.6-3.3,2
		c-2.5,0.7-3.2-0.9-3.9-2.7c-0.4-1.2-0.4-1.1-0.7-1.5c-0.7-1.1-2.2-2.6-3.6-2.2c-1.1,0.4-1.4,1.8-1.5,1.9c-0.3,1.3,0.4,2.3,0.5,2.5
		c0.4,0.6,0.9,1.6,1.1,2.9c0.1,0.8,0.3,1.5,0,2.4c-0.3,1-1,1.6-3.3,3.3c-1.5,1.1-2.7,1.9-3.4,2.5c-1.9,1.8-4.3,4.3-6.8,7.5
		C233.9,57.3,228.4,64.4,223.6,75.2z"/>
	<path class="st10" d="M255.4,116.6c3,0.7,4.8,5.1,3.8,9.4c-0.9,3.9-3.9,6.5-6.6,5.9c-3-0.7-4.8-5.2-3.8-9.4
		C249.8,118.5,252.7,116,255.4,116.6z"/>
	<path class="st9" d="M253.6,98.5c-1-1.7-2-3.3-3-5c0-0.2,0.1-0.4,0.1-0.5c1.8-1,3.6-2,5.4-3c0.5,0.5,1,1,1.5,1.6
		c-0.6,2.2-1.2,4.4-1.9,6.6C255,98.3,254.3,98.4,253.6,98.5z"/>
	<path class="st10" d="M262.4,69.5c1-4.2,4.7-7.4,7.7-6.6c2.7,0.7,4.1,4.4,3.2,8.3c-1.1,4.3-4.6,7.4-7.7,6.6
		C262.8,77,261.4,73.4,262.4,69.5z"/>
	<path class="st11" d="M252.8,83.6c-0.6,0-2.9-0.1-4.6,1.1c-0.8,0.5-1.3,1.2-1.6,2c-0.7,1.7,0.1,3.3,0.5,3.9c1,2.1,2.9,3,3.5,3.3
		c0.1-0.3,0.1-0.6,0.2-1c-0.3-0.2-0.6-0.4-1-0.8c-0.7-0.7-1.1-1.2-1.3-1.7c0,0-0.1-0.3-0.2-0.6c-0.1-0.2-0.5-2.1,0.6-3.4
		c0.4-0.5,0.9-0.7,1.3-0.9c1.4-0.6,2.8-0.5,3.5-0.3C253.3,84.7,253,84.1,252.8,83.6z"/>
	<path class="st11" d="M248.4,103.5c-0.6-0.2-2.5-0.9-3.7-3c-0.3-0.5-1.3-2.4-0.5-4.3c0.5-1.1,1.4-1.7,2-2.1
		c1.8-1.2,3.7-1.2,4.6-1.1c-0.1,0.3-0.2,0.5-0.3,0.8c-0.2,0-0.4,0-0.6,0.1c-0.1,0-0.3,0-0.6,0.1c-0.2,0-0.7,0.2-1.2,0.4
		c-0.2,0.1-0.9,0.5-1.4,1.1c-0.7,0.8-1.1,2.1-0.9,3.2c0.3,1.7,1.6,3,3.4,3.5C248.9,102.7,248.6,103.1,248.4,103.5z"/>
	<path class="st12" d="M314.8,61.5c0.7,2.5,1.3,5.8,1.5,9.8c0.2,3.7,0.1,7-0.2,9.7c2.3-0.7,4.2-1.5,5.6-2.2c1.7-0.9,3.8-2.4,7.8-5.4
		c1.2-0.9,2.3-1.8,2.4-3c0.1-0.7-0.3-1.3-1-2.1c-1.9-2.2-3.9-3.2-4.5-3.5c-1.3-0.6-3.1-1.4-5.6-2.1
		C319.3,62.2,317.2,61.8,314.8,61.5z"/>
	<path class="st12" d="M288.1,153.4c2.2-1.6,4.8-3.9,7.4-6.9c2.5-2.8,4.4-5.6,5.7-7.9c1.7,2,3,3.9,3.8,5.2c1.1,1.8,2,4.2,3.9,9.2
		c0.6,1.5,1.1,2.9,0.4,3.9c-0.4,0.6-1.1,0.9-2.2,1.1c-3.1,0.6-5.6,0.1-6.3,0c-1.6-0.3-3.7-0.8-6.4-1.8
		C292.7,155.6,290.5,154.7,288.1,153.4z"/>
	<path class="st14" d="M219.8,28c8,0,14.1,3.7,15.1,8.4c0.4,1.6,0.6,5.1-1.9,7.6c-1.8,1.8-4.2,2.1-5,2.2
		c-3.9,13.8-7.8,27.6-11.8,41.4c0.4,3.6-1.1,7.1-4,9.2c-4.3,3.1-9.1,1.2-9.4,1.1l-1.8-0.5c-6.6-1.9-10.4-8.7-8.5-15.2l12-42.1
		c0.1-0.9,1.1-6.3,6.2-9.6C214.7,27.7,218.6,27.8,219.8,28z"/>
	<path class="st1" d="M163.7,27.9c6.6-4.5,13.7-4.9,17.2-1.7c1.2,1.1,3.4,3.9,2.8,7.3c-0.5,2.5-2.2,4.1-2.9,4.6
		c4.6,13.6,9.2,27.2,13.9,40.7c2.4,2.7,3.1,6.4,1.9,9.8c-1.8,4.9-6.8,6.2-7.1,6.2l-1.8,0.6c-6.5,2.2-13.5-1.3-15.7-7.7L158,46.3
		c-0.4-0.8-2.7-5.8-0.4-11.4C159.3,30.6,162.6,28.5,163.7,27.9z"/>
	<path class="st13" d="M227.3,41.8c0.3,0.2,0.8,0.5,1.4,0.8c0.6,0.2,1.6,0.7,2.8,0.5c1.7-0.2,2.8-1.4,3.1-1.8
		c0.1-0.4,0.1-0.7,0.2-1.1c-0.1,0.1-0.3,0.3-0.5,0.5c-0.2,0.1-1.6,1.2-3.5,1.1c-1.7-0.1-2.6-1-3.1-0.6
		C227.3,41.4,227.3,41.6,227.3,41.8z"/>
	<path class="st13" d="M226.9,36.6c0.3,0.2,0.9,0.4,1.5,0.5c0.6,0.1,1.7,0.4,2.8,0.1c1.6-0.5,2.5-1.8,2.7-2.2c0-0.4,0-0.8,0-1.1
		c-0.1,0.1-0.2,0.3-0.4,0.6c-0.2,0.2-1.4,1.4-3.3,1.6c-1.7,0.2-2.8-0.6-3.2-0.1C226.8,36.2,226.8,36.4,226.9,36.6z"/>
	<path class="st13" d="M178.5,34.3c0.4-0.1,0.9-0.3,1.5-0.6c0.6-0.3,1.5-0.8,2.2-1.8c1-1.4,0.7-3,0.6-3.5c-0.3-0.3-0.5-0.6-0.8-0.8
		c0,0.2,0,0.4,0,0.7c0,0.2-0.1,2-1.4,3.4c-1.2,1.2-2.5,1.3-2.5,2C178.2,34,178.4,34.2,178.5,34.3z"/>
	<path class="st13" d="M174.3,31.2c0.4-0.2,0.8-0.4,1.4-0.8c0.5-0.4,1.4-1,1.9-2.1c0.7-1.5,0.2-3.1,0.1-3.5
		c-0.3-0.2-0.6-0.5-0.9-0.7c0,0.2,0.1,0.4,0.1,0.7c0,0.2,0.2,2-0.9,3.5c-0.9,1.4-2.3,1.7-2.1,2.4C173.9,31,174.1,31.2,174.3,31.2z"
		/>
	<path class="st1" d="M61.5,104.5c-3-3.9-2.2-8.9-1.2-14.9c1.4-8.8,3.8-9,4.5-15.9c0.8-8.3-1.9-14.9-3.2-18c-1.5-3.5-3.4-8-7.9-11.8
		c-3.4-2.9-6.7-4.1-8.8-4.9c-10.4-3.7-19.7-1.1-21.3-0.6c-3.3,1-15,4.6-16.8,12.8c-0.1,0.5-1,5,1.4,7.2c2.3,2.2,6.5,1.1,10,0.1
		c6.4-1.7,7-4,12-4.8c1.7-0.3,6.5-1.1,10.4,1.5c5.6,3.7,5.7,12.2,5.7,15.2c0.1,9.4-4.2,11.8-6.1,21c-1.6,7.8-0.8,17.8,3.2,24.5
		c6.8,11.2,24.3,16,43.1,12.2c0.2-6.8,0.4-13.7,0.6-20.5c-2.7,1-7.8,2.6-14.1,1.8C69.3,109,64.4,108.3,61.5,104.5z"/>
	<path class="st14" d="M128.6,30.8c7.8-1.4,14.5,1.1,16.4,5.5c0.6,1.5,1.5,4.9-0.4,7.8c-1.4,2.1-3.7,2.8-4.5,3.1
		c-1.3,14.3-2.6,28.6-3.9,42.8c1.1,3.4,0.2,7.2-2.2,9.7c-3.6,3.8-8.7,2.9-9,2.8l-1.8-0.2c-6.8-0.6-11.8-6.6-11.2-13.4l3.9-43.6
		c0-0.9-0.1-6.4,4.3-10.6C123.5,31.5,127.3,31,128.6,30.8z"/>
	<path class="st1" d="M72.1,42c4.8-6.3,11.5-9,15.8-7c1.5,0.7,4.4,2.6,4.9,6.1c0.4,2.6-0.8,4.6-1.3,5.3
		c8.6,11.4,17.3,22.9,25.9,34.3c3.1,1.8,5,5.1,4.9,8.7c-0.1,5.2-4.5,8-4.8,8.1l-1.5,1.1c-5.4,4.1-13.2,3-17.3-2.4l-26.4-35
		c-0.6-0.7-4.4-4.7-4-10.7C68.7,45.9,71.2,42.9,72.1,42z"/>
	<path class="st1" d="M91.5,96.5c-4.7,8-5.1,15.7-5.3,20.7c-0.5,10.2,2,18.4,3.9,23c2.1,2.7,5.4,6.5,10.4,9.8c5.4,3.6,10,4.8,18.8,7
		c4.6,1.2,13.2,3.1,24.3,3.6c2,0.1,3.5,0.1,6.9,0.1c18.2,0,27.2,0.1,35.8-0.5c13-0.9,19.5-1.4,26.1-3.9c5.8-2.2,14.9-5.8,20.8-15.1
		c4-6.2,5-12.5,5.3-14.7c0.3-2.2,1-6.6-0.1-12c-0.6-3.3-1.7-6.2-2.3-7.6c-0.9-2.3-1.7-4.1-2.2-5c-4-7.7-9.8-12.1-12.3-14
		c-3.9-2.9-7.4-4.5-12.6-7c-1-0.5-2-0.9-2.9-1.3c0,0-3-1.3-5.7-2.3c-3.2-1.2-13.9-2.8-28.6-3.3c-5.2,0.1-10.4,0.2-15.7,0.3
		c-4.9-0.3-11.7-0.4-19.7,0.4c-7.5,0.7-14.3,1.1-22,4.2C109.2,80.9,98.2,85.2,91.5,96.5z"/>
	<path class="st13" d="M138.5,43c0.4,0.2,0.9,0.4,1.5,0.5c0.6,0.1,1.7,0.4,2.8,0c1.6-0.5,2.4-1.9,2.7-2.3c0-0.4,0-0.8-0.1-1.1
		c-0.1,0.1-0.2,0.3-0.4,0.6c-0.2,0.2-1.3,1.5-3.2,1.7c-1.7,0.2-2.8-0.5-3.2,0C138.4,42.6,138.5,42.9,138.5,43z"/>
	<path class="st13" d="M137.1,38c0.4,0.1,0.9,0.2,1.6,0.2c0.6,0,1.7,0.1,2.8-0.5c1.5-0.8,2.1-2.2,2.3-2.7c-0.1-0.4-0.2-0.7-0.2-1.1
		c-0.1,0.2-0.2,0.4-0.3,0.6c-0.1,0.2-1.1,1.7-2.9,2.2c-1.6,0.5-2.8-0.1-3.2,0.5C137,37.6,137.1,37.9,137.1,38z"/>
	<path class="st13" d="M88.1,43.4c0.3-0.2,0.8-0.5,1.2-1c0.4-0.4,1.2-1.2,1.5-2.4c0.5-1.6-0.2-3.1-0.5-3.5c-0.3-0.2-0.7-0.4-1-0.6
		c0.1,0.2,0.2,0.4,0.2,0.7c0.1,0.2,0.5,1.9-0.3,3.6c-0.7,1.5-2,2-1.7,2.7C87.7,43.2,87.9,43.4,88.1,43.4z"/>
	<path class="st13" d="M83.1,41.9c0.3-0.3,0.7-0.6,1.1-1.2c0.4-0.5,1-1.4,1.1-2.6c0.2-1.7-0.7-3-1-3.4c-0.4-0.1-0.7-0.3-1.1-0.4
		c0.1,0.1,0.2,0.4,0.3,0.6c0.1,0.2,0.8,1.8,0.3,3.6c-0.5,1.6-1.6,2.3-1.3,2.9C82.7,41.7,83,41.8,83.1,41.9z"/>
</g>
<g id="Ebene_13">
	<path class="st3" d="M239.2,142.4"/>
	<path class="st3" d="M221.5,82.8"/>
	<path class="st3" d="M223.6,75.2c-6.4,14.7-7.4,27.2-7.6,30.9c-0.1,1-0.3,5.1,0.1,10.5c0.4,5,0.8,10.6,3.3,17.2
		c0.6,1.4,1.1,2.6,1.5,3.4c0,0,1.7,3.3,1.7,3.3c1.7,3.3-1.7-3.3-1.7-3.3c0.1,0,1.3,1.3,1.7,3.3c0.1,0.7,0.3,1.4,0,2.1
		c-0.5,1.4-1.9,1.4-3.1,3c-0.6,0.8-1.7,2.6-1,3.6c0.6,1,2.5,0.9,3.6,0.7c0.4-0.1,1.2-0.2,2.1-1.1c1.7-1.6,3.2-1.8,4.9,0.1
		c1.7,1.9,2.2,3.5,0.3,5.6c-0.9,1-1.6,2.3-1.9,3.6c-0.2,0.9,0.2,2.4,0.9,2.8c0.7,0.5,2.3,0.3,3-0.2c0.7-0.6,0.8-0.9,2.5-3.2
		c1.1-1.5,1.5-1.8,2-1.9c0.7-0.2,1.3,0,2.2,0.2c0.8,0.2,1.2,0.3,1.5,0.6c0.8,0.7,1,2,0.7,3.3c-0.6,3.2-1.1,3.8-0.9,5.7
		c0.2,1.4,0.9,3.4,2,3.5c1.2,0.2,2.4-1.8,3.2-3c1.9-3.2,1.2-5.1,2.7-5.9c1.1-0.7,2.9-0.2,6.6,0.6c17.1,3.8,34.4,6,52,5.7
		c1.8,0,3.6-0.4,5.4-0.7c5.4-0.9,7.9-4.5,6.1-9.7c-2.1-6.2-4.6-12.2-7.1-18.2c-0.9-2.1-2.3-4-2.9-6.2c-0.5-1.6-0.7-3.7,0-5.2
		c4.5-9.4,7.1-19.3,7.5-29.7c0.1-1.7,1.4-3.8,2.8-5c6.5-5.5,13.3-10.8,19.9-16.3c4.6-3.9,4.4-8.8-0.5-12.3c-2.6-1.8-5.3-3.7-8.2-5
		c-14.8-7-29.6-14-45.6-17.9c-0.4-0.1-0.9-0.3-1.3-0.4c-5.2-1.8-5.1-1.8-3.5-7c0.7-2.2,2.8-5.3-0.5-6.6c-3.4-1.4-3.3,2.5-4.4,4.4
		c-0.8,1.4-1.1,3-1.7,4.5c-1.1,2.5-3.5,2.6-5,0.4l0,0c-0.2-0.6-0.3-1.2-0.5-1.8c0-0.2,0.1-0.4,0.1-0.6c0.1-1.1,0-3-1.1-4.8
		c-0.3-0.4-1.5-2.3-2.8-2.1c-0.8,0.2-1.2,1.1-1.5,1.8c-0.6,1.4-0.5,2.5-0.5,6.3c0,1.7-0.1,2-0.3,2.5c-0.6,1.1-1.8,1.6-3.3,2
		c-2.5,0.7-3.2-0.9-3.9-2.7c-0.4-1.2-0.4-1.1-0.7-1.5c-0.7-1.1-2.2-2.6-3.6-2.2c-1.1,0.4-1.4,1.8-1.5,1.9c-0.3,1.3,0.4,2.3,0.5,2.5
		c0.4,0.6,0.9,1.6,1.1,2.9c0.1,0.8,0.3,1.5,0,2.4c-0.3,1-1,1.6-3.3,3.3c-1.5,1.1-2.7,1.9-3.4,2.5c-1.9,1.8-4.3,4.3-6.8,7.5
		C233.9,57.3,228.4,64.4,223.6,75.2z"/>
	<path class="st4" d="M255.4,116.6c0.9-0.3,5,4.6,3.8,9.4c-1.1,4.2-5.9,6.5-6.6,5.9c-0.6-0.5,1.9-2.8,2.8-7.4
		C256.3,119.8,254.8,116.8,255.4,116.6z"/>
	<path class="st5" d="M253.6,98.5c-1-1.7-2-3.3-3-5c0-0.2,0.1-0.4,0.1-0.5c1.8-1,3.6-2,5.4-3c0.5,0.5,1,1,1.5,1.6
		c-0.6,2.2-1.2,4.4-1.9,6.6C255,98.3,254.3,98.4,253.6,98.5z"/>
	<path class="st4" d="M268.9,70.5c1.3-4.5,0.3-7.4,1.1-7.6c1-0.2,4.1,4.1,3.2,8.3c-1.1,4.8-7,7.3-7.7,6.6
		C265,77.2,267.6,75.2,268.9,70.5z"/>
	<path class="st6" d="M252.8,83.6c-0.6,0-2.9-0.1-4.6,1.1c-0.8,0.5-1.3,1.2-1.6,2c-0.7,1.7,0.1,3.3,0.5,3.9c1,2.1,2.9,3,3.5,3.3
		c0.1-0.3,0.1-0.6,0.2-1c-0.3-0.2-0.6-0.4-1-0.8c-0.7-0.7-1.1-1.2-1.3-1.7c0,0-0.1-0.3-0.2-0.6c-0.1-0.2-0.5-2.1,0.6-3.4
		c0.4-0.5,0.9-0.7,1.3-0.9c1.4-0.6,2.8-0.5,3.5-0.3C253.3,84.7,253,84.1,252.8,83.6z"/>
	<path class="st6" d="M248.4,103.5c-0.6-0.2-2.5-0.9-3.7-3c-0.3-0.5-1.3-2.4-0.5-4.3c0.5-1.1,1.4-1.7,2-2.1c1.8-1.2,3.7-1.2,4.6-1.1
		c-0.1,0.3-0.2,0.5-0.3,0.8c-0.2,0-0.4,0-0.6,0.1c-0.1,0-0.3,0-0.6,0.1c-0.2,0-0.7,0.2-1.2,0.4c-0.2,0.1-0.9,0.5-1.4,1.1
		c-0.7,0.8-1.1,2.1-0.9,3.2c0.3,1.7,1.6,3,3.4,3.5C248.9,102.7,248.6,103.1,248.4,103.5z"/>
	<path class="st7" d="M314.8,61.5c0.7,2.5,1.3,5.8,1.5,9.8c0.2,3.7,0.1,7-0.2,9.7c2.3-0.7,4.2-1.5,5.6-2.2c1.7-0.9,3.8-2.4,7.8-5.4
		c1.2-0.9,2.3-1.8,2.4-3c0.1-0.7-0.3-1.3-1-2.1c-1.9-2.2-3.9-3.2-4.5-3.5c-1.3-0.6-3.1-1.4-5.6-2.1
		C319.3,62.2,317.2,61.8,314.8,61.5z"/>
	<path class="st7" d="M288.1,153.4c2.2-1.6,4.8-3.9,7.4-6.9c2.5-2.8,4.4-5.6,5.7-7.9c1.7,2,3,3.9,3.8,5.2c1.1,1.8,2,4.2,3.9,9.2
		c0.6,1.5,1.1,2.9,0.4,3.9c-0.4,0.6-1.1,0.9-2.2,1.1c-3.1,0.6-5.6,0.1-6.3,0c-1.6-0.3-3.7-0.8-6.4-1.8
		C292.7,155.6,290.5,154.7,288.1,153.4z"/>
	<path class="st17" d="M172.6,26c7.2-3.5,14.3-2.9,17.3,0.9c1,1.2,2.8,4.3,1.7,7.6c-0.8,2.4-2.8,3.7-3.5,4.1
		c2.6,14.1,5.2,28.2,7.7,42.3c2,3,2.2,6.8,0.5,10c-2.5,4.6-7.6,5.1-7.9,5.1l-1.8,0.3c-6.7,1.2-13.1-3.2-14.4-9.9l-7.9-43.1
		c-0.3-0.9-1.8-6.2,1.3-11.4C167.8,28,171.4,26.4,172.6,26z"/>
	<path class="st3" d="M222,26.7c7.9,1.2,13.4,5.8,13.7,10.6c0.1,1.6-0.2,5.1-3,7.2c-2.1,1.5-4.4,1.5-5.3,1.4
		C221.5,58.9,215.6,72,209.6,85c-0.1,3.6-2.1,6.8-5.3,8.5c-4.7,2.4-9.2-0.2-9.4-0.3l-1.7-0.8c-6.2-2.8-8.9-10.1-6.1-16.3l18.1-39.9
		c0.3-0.9,2.1-6.1,7.5-8.6C216.9,25.6,220.8,26.4,222,26.7z"/>
	<path class="st8" d="M185.4,35.1c0.4,0.1,0.9,0.1,1.6,0.1c0.6,0,1.7-0.1,2.7-0.8c1.4-0.9,1.9-2.5,2-2.9c-0.1-0.4-0.2-0.7-0.4-1.1
		c-0.1,0.2-0.1,0.4-0.3,0.7c-0.1,0.2-0.9,1.8-2.6,2.5c-1.5,0.7-2.8,0.2-3.1,0.9C185.2,34.7,185.3,34.9,185.4,35.1z"/>
	<path class="st8" d="M182.7,30.6c0.4,0,0.9,0,1.6-0.2c0.6-0.1,1.7-0.4,2.6-1.2c1.3-1.1,1.4-2.7,1.5-3.2c-0.2-0.3-0.4-0.7-0.5-1
		c0,0.2-0.1,0.4-0.2,0.7c-0.1,0.2-0.6,1.9-2.2,2.9c-1.4,0.9-2.8,0.7-2.9,1.4C182.5,30.3,182.6,30.5,182.7,30.6z"/>
	<path class="st8" d="M228.4,41.5c0.3,0.2,0.8,0.4,1.5,0.6c0.6,0.2,1.7,0.5,2.8,0.2c1.6-0.4,2.6-1.7,2.9-2.1c0-0.4,0-0.8,0-1.1
		c-0.1,0.1-0.3,0.3-0.5,0.5c-0.2,0.2-1.5,1.4-3.3,1.5c-1.7,0.1-2.7-0.8-3.2-0.2C228.3,41,228.3,41.3,228.4,41.5z"/>
	<path class="st8" d="M227.4,36.4c0.4,0.1,0.9,0.3,1.5,0.4c0.6,0.1,1.7,0.2,2.8-0.2c1.6-0.6,2.3-2.1,2.5-2.5
		c-0.1-0.4-0.1-0.7-0.2-1.1c-0.1,0.2-0.2,0.4-0.4,0.6c-0.1,0.2-1.2,1.6-3.1,2c-1.6,0.4-2.8-0.3-3.2,0.3
		C227.3,35.9,227.3,36.2,227.4,36.4z"/>
	<path class="st3" d="M65.4,101.2c-3.7-3.1-4.1-8.2-4.6-14.2c-0.6-8.9,1.7-9.6,0.8-16.5c-1.1-8.2-5.2-14.1-7.2-16.9
		c-2.2-3.1-5.1-7-10.4-9.7c-4-2.1-7.5-2.5-9.7-2.7c-11-1.3-19.4,3.4-20.9,4.2C10.5,47-0.1,53.1,0,61.6c0,0.5,0.1,5.1,3,6.7
		c2.8,1.6,6.6-0.4,9.8-2.1c5.8-3.1,5.9-5.4,10.6-7.4c1.6-0.6,6.1-2.5,10.5-0.9c6.3,2.3,8.3,10.6,9,13.5c2.2,9.1-1.4,12.5-1.2,21.8
		c0.2,8,3.2,17.5,8.7,23.1c9.1,9.4,27.2,10.1,44.8,2.1c-1.4-6.7-2.7-13.4-4.1-20.1c-2.3,1.6-7,4.3-13.3,4.9
		C74,103.7,69,104.2,65.4,101.2z"/>
	<path class="st17" d="M91,38.5c6.7-4.3,13.9-4.5,17.3-1.1c1.1,1.1,3.2,4,2.5,7.4c-0.5,2.5-2.4,4-3,4.5c4.2,13.7,8.3,27.4,12.5,41.2
		c2.3,2.8,2.9,6.5,1.6,9.8c-1.9,4.9-7,5.9-7.3,6l-1.8,0.5c-6.5,2-13.4-1.7-15.4-8.2L84.7,56.7c-0.4-0.9-2.5-5.9,0-11.4
		C86.5,41,89.9,39.1,91,38.5z"/>
	<path class="st3" d="M127.1,29.6c7.7-1.9,14.6,0.2,16.7,4.4c0.7,1.4,1.8,4.8,0,7.8c-1.3,2.2-3.5,3.1-4.3,3.3
		c-0.4,14.3-0.8,28.7-1.2,43c1.3,3.3,0.7,7.1-1.6,9.9c-3.4,4-8.5,3.4-8.8,3.4l-1.8-0.1c-6.8-0.2-12.2-5.9-12-12.7l1.2-43.8
		c-0.1-0.9-0.5-6.4,3.6-10.9C122,30.6,125.9,29.8,127.1,29.6z"/>
	<path class="st3" d="M91.5,96.5c-4.7,8-5.1,15.7-5.3,20.7c-0.5,10.2,2,18.4,3.9,23c2.1,2.7,5.4,6.5,10.4,9.8c5.4,3.6,10,4.8,18.8,7
		c4.6,1.2,13.2,3.1,24.3,3.6c2,0.1,3.5,0.1,6.9,0.1c18.2,0,27.2,0.1,35.8-0.5c13-0.9,19.5-1.4,26.1-3.9c5.8-2.2,14.9-5.8,20.8-15.1
		c4-6.2,5-12.5,5.3-14.7c0.3-2.2,1-6.6-0.1-12c-0.6-3.3-1.7-6.2-2.3-7.6c-0.9-2.3-1.7-4.1-2.2-5c-4-7.7-9.8-12.1-12.3-14
		c-3.9-2.9-7.4-4.5-12.6-7c-1-0.5-2-0.9-2.9-1.3c0,0-3-1.3-5.7-2.3c-3.2-1.2-13.9-2.8-28.6-3.3c-5.2,0.1-10.4,0.2-15.7,0.3
		c-4.9-0.3-11.7-0.4-19.7,0.4c-7.5,0.7-14.3,1.1-22,4.2C109.2,80.9,98.2,85.2,91.5,96.5z"/>
	<path class="st8" d="M104.8,46.1c0.4,0,0.9,0,1.6-0.1c0.6-0.1,1.7-0.3,2.6-1.1c1.3-1.1,1.6-2.7,1.6-3.2c-0.2-0.3-0.3-0.7-0.5-1
		c0,0.2-0.1,0.4-0.2,0.7c-0.1,0.2-0.7,1.9-2.3,2.8c-1.5,0.8-2.8,0.5-3,1.2C104.6,45.7,104.7,45.9,104.8,46.1z"/>
	<path class="st8" d="M101.6,42c0.4,0,0.9-0.1,1.5-0.4c0.6-0.2,1.6-0.6,2.4-1.5c1.1-1.3,1.1-2.9,1.1-3.4c-0.2-0.3-0.4-0.6-0.6-0.9
		c0,0.2,0,0.4-0.1,0.7c0,0.2-0.4,2-1.8,3.1c-1.3,1-2.7,1-2.7,1.7C101.4,41.6,101.5,41.8,101.6,42z"/>
	<path class="st8" d="M138.7,40.8c0.4,0,0.9,0.1,1.6,0c0.6-0.1,1.7-0.2,2.7-0.9c1.4-1,1.7-2.5,1.8-3c-0.1-0.4-0.3-0.7-0.4-1.1
		c0,0.2-0.1,0.4-0.2,0.7c-0.1,0.2-0.8,1.8-2.5,2.6c-1.5,0.7-2.8,0.4-3,1C138.5,40.4,138.6,40.6,138.7,40.8z"/>
	<path class="st8" d="M135.8,36.4c0.4,0,0.9-0.1,1.6-0.3c0.6-0.2,1.7-0.5,2.5-1.3c1.2-1.2,1.3-2.8,1.3-3.3c-0.2-0.3-0.4-0.6-0.6-1
		c0,0.2,0,0.4-0.1,0.7c-0.1,0.2-0.5,1.9-2.1,3c-1.4,1-2.7,0.8-2.8,1.5C135.6,36.1,135.7,36.3,135.8,36.4z"/>
	<path class="st6" d="M335,1c-2.5-1.8-6-0.8-7.9,0.4c-2.4,1.4-3.4,3.7-3.7,4.8c-0.4-1.1-1.4-3.3-3.7-4.8c-1.9-1.2-5.5-2.2-7.9-0.4
		c-2.3,1.7-2.3,5-2.3,5.9c0,0.8,0.1,3.6,4.1,8.5c1.8,2.2,4.9,5.4,9.7,8.2c0,0,0,0,0,0.1l0,0l0,0c0,0,0,0,0-0.1
		c4.8-2.8,7.9-6,9.7-8.2c4-4.8,4.1-7.7,4.1-8.5C337.3,6,337.3,2.8,335,1z"/>
</g>
</svg>
