<?xml version="1.0" encoding="utf-8"?>
<!-- Generator: Adobe Illustrator 23.0.3, SVG Export Plug-In . SVG Version: 6.00 Build 0)  -->
<svg version="1.1" xmlns="http://www.w3.org/2000/svg" xmlns:xlink="http://www.w3.org/1999/xlink" x="0px" y="0px"
	 viewBox="0 0 217.9 251.2" style="enable-background:new 0 0 217.9 251.2;" xml:space="preserve">
<style type="text/css">
	.st0{display:none;}
	.st1{display:inline;fill:#E6E6E6;}
	.st2{display:inline;}
	.st3{fill:#E6E6E6;}
	.st4{fill:#20201E;}
	.st5{fill:#CC3E63;}
	.st6{fill:#E5385D;}
	.st7{fill:#FF99A3;}
	.st8{fill:#8E5960;}
	.st9{display:inline;fill:#20201E;}
	.st10{display:inline;fill:#CC3E63;}
	.st11{display:inline;fill:#E5385D;}
	.st12{display:inline;fill:#FF99A3;}
	.st13{display:inline;fill:#D6D6D6;}
	.st14{display:inline;fill:#8E5960;}
	.st15{display:inline;fill:#CCCCCC;}
	.st16{fill:#846F75;}
</style>
<g id="cat_sit" class="st0">
	<path class="st1" d="M727.7,210.9c0,0-2.6-5.8-9-12.1c-0.2-0.2-1.1-1.1-2.4-1.8c-0.2-0.1-0.5-0.2-0.9-0.4c-1.9-0.8-2.6-1.2-2.9-1.3
		c-2.5-0.9-7.5,5.8-8,6.4c-2.6,3.5-2.7,5.3-4.6,8.3c-0.2,0.4-0.9,1.4-1.2,2.9c-0.1,0.5-0.2,0.9-0.2,1.2c1,0.6,2.1,1.3,3.2,2.3
		c0.6,0.6,1.2,1.1,1.7,1.6c0,0,0.9,1.1,1.3,2.6c0.9,4.4-1.2,9-6,10.5c-5.4,1.7-11.2,3.3-16.8,3.6c-12.3,0.6-24.7,0.2-37.1,0.3
		c-5.2,0-9.8,1.4-13,5.4c-4.4,10,2.6,18.6,14.6,17.8c8.5-0.6,17-0.2,25.5-0.7c9.5-0.6,19-1.3,28.4-2.8c15-2.3,24.6-10.4,29.2-23.2
		c1.3-3.5,1.3-6.7,1.2-9.1C730.5,217.2,728.8,213.3,727.7,210.9z"/>
	<g id="Ebene_2" class="st2">
		<path class="st3" d="M708.9,206.1c3.7-5,4.9-10,5.9-13.7c0.3-1.1,0.9-3.8,1.2-7.4c1.1-12.1-2.4-22.7-3.6-26.3
			c-3.4-10.1-8.5-17.6-12.5-22.6c-2.3-2.4-5.4-5.5-9.5-8.7c-3.8-3-7.8-6.2-13.7-9.1c-7-3.4-14.6-5.5-22.7-6.3
			c-1.5-0.1-3.1-0.4-5.9-0.7c-9.2-1-21.2-2.2-35.6-1.5c-12.7,0.6-19.1,0.8-26.2,3.4c-5.9,2.1-15,5.5-21.1,14.6
			c-4.1,6.1-5.3,12.4-5.6,14.6c-0.4,2.2-1.1,6.6-0.2,12c0.6,3.3,1.6,6.2,2.1,7.7c0.8,2.3,1.6,4.1,2.1,5.1
			c3.9,7.8,9.5,12.3,12.1,14.3c3.9,3,7.3,4.7,12.5,7.3c3.7,1.8,6.5,3,8.6,3.8c9.1,3.7,18.6,7.1,26.1,9.7c2.5,0.3,6.4,0.4,11.1-0.3
			c-0.7,3.7-1.8,6.6-1.8,9.6c-0.1,7.2,3.9,12.5,11,13.2c8,0.8,16.1,0.5,24.2,0.2c8.9-0.4,17.4-3,25.5-6.6c3.6-1.6,6-3.3,7.3-4.2
			C702.7,212.4,705.9,210.1,708.9,206.1z"/>
		<path class="st3" d="M792.2,126.6"/>
	</g>
	<g id="Ebene_5" class="st2">
	</g>
	<g id="Ebene_1" class="st2">
		<path class="st3" d="M573.8,120.8c15.9,2.6,28.2,0.4,31.8-0.3c1-0.2,5.1-1,10.2-2.7c4.8-1.6,10.1-3.4,15.9-7.5
			c1.3-0.9,2.2-1.7,2.9-2.3c0,0,2.8-2.5,2.8-2.5c2.8-2.4-2.8,2.5-2.8,2.5c-0.1-0.1,1-1.6,2.8-2.5c0.6-0.3,1.2-0.6,2-0.5
			c1.5,0.2,1.8,1.5,3.7,2.3c0.9,0.4,2.9,1,3.8,0.1c0.8-0.8,0.3-2.6-0.2-3.6c-0.2-0.4-0.4-1.1-1.5-1.8c-2-1.3-2.5-2.7-1.1-4.8
			c1.4-2.1,2.9-3,5.4-1.7c1.2,0.6,2.7,1,4,0.9c0.9,0,2.3-0.8,2.5-1.6c0.3-0.8-0.3-2.3-1-2.8c-0.7-0.6-1.1-0.5-3.7-1.7
			c-1.7-0.7-2.1-1-2.3-1.4c-0.3-0.6-0.3-1.3-0.3-2.2c0-0.8,0-1.2,0.2-1.6c0.5-1,1.6-1.4,3-1.5c3.3-0.2,3.9,0.1,5.8-0.6
			c1.3-0.5,3-1.7,2.9-2.8c-0.1-1.2-2.4-1.9-3.7-2.3c-3.5-1.1-5.2,0-6.4-1.2c-0.9-0.9-1-2.8-1.1-6.5c-0.6-17.5-2.7-34.8-7.3-51.8
			c-0.5-1.7-1.3-3.4-2.1-5.1c-2.2-5-6.3-6.5-10.9-3.5c-5.5,3.5-10.7,7.5-15.9,11.4c-1.8,1.4-3.3,3.2-5.3,4.4c-1.4,0.9-3.4,1.6-5,1.3
			c-10.3-2-20.4-2.1-30.7,0.1c-1.7,0.4-4.1-0.4-5.6-1.5c-7-4.9-13.7-10.2-20.7-15.2c-4.9-3.5-9.6-2.1-11.8,3.5c-1.1,3-2.2,6-2.9,9.1
			c-3.2,16.1-6.2,32.1-6,48.6c0,0.5,0,0.9-0.1,1.4c-0.5,5.5-0.5,5.4-6,5.1c-2.3-0.1-5.8-1.5-6.3,2.2c-0.5,3.7,3.3,2.6,5.3,3.2
			c1.5,0.4,3.2,0.3,4.8,0.6c2.7,0.5,3.4,2.7,1.6,4.8l0,0c-0.6,0.3-1.1,0.6-1.7,0.9c-0.2,0-0.4,0-0.6,0c-1.1,0.2-3,0.7-4.4,2.3
			c-0.3,0.4-1.9,2.1-1.3,3.2c0.4,0.7,1.4,0.9,2.1,1c1.5,0.2,2.5-0.2,6.2-1c1.6-0.4,2-0.4,2.5-0.3c1.2,0.3,2,1.4,2.8,2.7
			c1.3,2.2-0.1,3.4-1.7,4.5c-1,0.7-0.9,0.6-1.3,1c-0.9,0.9-2,2.8-1.2,4c0.6,1,2.1,1,2.2,1c1.3,0,2.2-1,2.3-1.1
			c0.5-0.5,1.3-1.2,2.5-1.8c0.7-0.3,1.4-0.7,2.3-0.6c1.1,0,1.8,0.6,4,2.4c1.4,1.2,2.5,2.1,3.2,2.7c2.2,1.4,5.2,3.1,8.9,4.8
			C553.9,115.3,562.1,118.9,573.8,120.8z"/>
		<path class="st4" d="M606,79.8c0-3.1,3.8-5.9,8.2-6c4-0.1,7.3,2.2,7.3,5c0,3.1-3.8,5.9-8.2,6C609.3,84.8,606.1,82.6,606,79.8z"/>
		<path class="st5" d="M588.9,86.1c-1.4,1.4-2.7,2.7-4.1,4.1c-0.2,0-0.4,0-0.5,0c-1.4-1.5-2.8-3-4.2-4.5c0.4-0.6,0.8-1.2,1.2-1.8
			c2.3,0.1,4.5,0.1,6.8,0.2C588.4,84.7,588.6,85.4,588.9,86.1z"/>
		<path class="st4" d="M558.6,84.7c-4.3,0-8.3-2.7-8.3-5.8c0-2.8,3.2-5.1,7.2-5.1c4.4,0,8.3,2.7,8.3,5.8
			C565.9,82.4,562.7,84.7,558.6,84.7z"/>
		<path class="st6" d="M574.7,90.6c0.1,0.6,0.6,2.8,2.2,4.2c0.7,0.6,1.5,1,2.3,1.1c1.8,0.2,3.1-0.9,3.7-1.4c1.8-1.5,2.2-3.5,2.3-4.2
			c-0.3,0-0.7,0-1,0c-0.1,0.3-0.3,0.7-0.5,1.1c-0.5,0.8-0.9,1.4-1.3,1.7c0,0-0.3,0.2-0.5,0.4c-0.2,0.1-1.9,1-3.4,0.3
			c-0.6-0.3-0.9-0.7-1.2-1c-1-1.2-1.1-2.6-1.1-3.3C575.6,89.8,575.2,90.2,574.7,90.6z"/>
		<path class="st6" d="M595.1,89.9c0,0.6-0.3,2.7-2,4.3c-0.4,0.4-2,1.9-4,1.6c-1.2-0.2-2-0.9-2.5-1.4c-1.6-1.5-2.1-3.3-2.2-4.2
			c0.3,0,0.6,0,0.8,0c0.1,0.2,0.1,0.4,0.2,0.6c0,0.1,0.1,0.3,0.3,0.5c0.1,0.2,0.4,0.6,0.7,1.1c0.2,0.2,0.7,0.8,1.4,1.1
			c1,0.5,2.3,0.5,3.3,0.1c1.5-0.7,2.5-2.3,2.5-4.2C594.1,89.6,594.6,89.7,595.1,89.9z"/>
		<path class="st7" d="M537.9,35.9c2.3-1.3,5.3-2.7,9.1-3.9c3.6-1.1,6.8-1.8,9.4-2.2c-1.2-2.1-2.5-3.7-3.5-4.9
			c-1.3-1.5-3.2-3.1-7.1-6.2c-1.2-0.9-2.3-1.8-3.5-1.6c-0.7,0.1-1.2,0.6-1.8,1.5c-1.7,2.4-2.2,4.6-2.3,5.3c-0.3,1.4-0.6,3.3-0.7,5.9
			C537.6,31.4,537.6,33.5,537.9,35.9z"/>
		<path class="st7" d="M633.6,39.1c-2.1-1.7-4.9-3.7-8.5-5.5c-3.4-1.7-6.5-2.8-9-3.6c1.5-2.2,3-3.8,4.1-5c1.5-1.5,3.6-3,7.9-6
			c1.3-0.9,2.5-1.7,3.7-1.4c0.7,0.2,1.1,0.9,1.6,1.9c1.3,2.8,1.5,5.4,1.6,6.1c0.1,1.6,0.1,3.8-0.2,6.7
			C634.6,34.1,634.2,36.4,633.6,39.1z"/>
	</g>
	<g id="Ebene_3" class="st2">
		<path class="st3" d="M577.6,227c-7.7,2.1-14.6,0.2-16.9-4c-0.8-1.4-1.9-4.8-0.3-7.8c1.2-2.3,3.4-3.2,4.2-3.4c0-14.3,0-28.7,0-43
			c-1.4-3.3-0.9-7.1,1.3-9.9c3.3-4.1,8.4-3.6,8.7-3.6h1.8c6.8,0,12.3,5.5,12.3,12.3v43.8c0.1,0.9,0.7,6.4-3.3,11
			C582.7,225.8,578.8,226.7,577.6,227z"/>
		<path class="st3" d="M808.8,186.6"/>
		<path class="st3" d="M610.3,228.5c-7.7,2.1-14.6,0.2-16.9-4c-0.8-1.4-1.9-4.8-0.3-7.8c1.2-2.3,3.4-3.2,4.2-3.4c0-14.3,0-28.7,0-43
			c-1.4-3.3-0.9-7.1,1.3-9.9c3.3-4.1,8.4-3.6,8.7-3.6h1.9c6.8,0,12.3,5.5,12.3,12.3V213c0.1,0.9,0.7,6.4-3.3,11
			C615.3,227.4,611.5,228.3,610.3,228.5z"/>
		<path class="st8" d="M566.7,215.7c-0.4-0.1-0.9-0.3-1.5-0.4c-0.6-0.1-1.7-0.2-2.8,0.2c-1.6,0.6-2.3,2.1-2.5,2.5
			c0.1,0.4,0.1,0.7,0.2,1.1c0.1-0.2,0.2-0.4,0.4-0.6c0.1-0.2,1.2-1.6,3.1-2c1.6-0.4,2.8,0.3,3.2-0.3
			C566.7,216.1,566.7,215.9,566.7,215.7z"/>
		<path class="st8" d="M568.5,220.6c-0.4-0.1-0.9-0.1-1.6-0.1c-0.6,0-1.7,0.1-2.7,0.7c-1.4,0.9-1.9,2.4-2,2.9
			c0.1,0.4,0.2,0.7,0.3,1.1c0.1-0.2,0.1-0.4,0.3-0.7c0.1-0.2,0.9-1.8,2.7-2.5c1.6-0.6,2.8-0.2,3.1-0.8
			C568.6,221,568.5,220.7,568.5,220.6z"/>
		<path class="st8" d="M598.4,217.7c-0.4,0-0.9,0-1.6,0c-0.6,0.1-1.7,0.2-2.7,1c-1.4,1-1.7,2.6-1.7,3.1c0.1,0.3,0.3,0.7,0.4,1
			c0-0.2,0.1-0.4,0.2-0.7c0.1-0.2,0.8-1.8,2.4-2.7c1.5-0.8,2.8-0.4,3-1.1C598.5,218.1,598.4,217.9,598.4,217.7z"/>
		<path class="st8" d="M601.4,221.9c-0.4,0-0.9,0.1-1.6,0.3c-0.6,0.2-1.6,0.5-2.5,1.4c-1.2,1.2-1.2,2.8-1.2,3.3
			c0.2,0.3,0.4,0.6,0.6,1c0-0.2,0-0.4,0.1-0.7c0-0.2,0.4-1.9,2-3.1c1.3-1,2.7-0.9,2.8-1.6C601.6,222.3,601.5,222.1,601.4,221.9z"/>
	</g>
</g>
<g id="cat_pet">
	<path class="st3" d="M214.9,203.6c0,0-2.6-5.8-9-12.1c-0.2-0.2-1.1-1.1-2.4-1.8c-0.2-0.1-0.5-0.2-0.9-0.4c-1.9-0.8-2.6-1.2-2.9-1.3
		c-2.5-0.9-7.5,5.8-8,6.4c-2.6,3.5-2.7,5.3-4.6,8.3c-0.2,0.4-0.9,1.4-1.2,2.9c-0.1,0.5-0.2,0.9-0.2,1.2c1,0.6,2.1,1.3,3.2,2.3
		c0.6,0.6,1.2,1.1,1.7,1.6c0,0,0.9,1.1,1.3,2.6c0.9,4.4-1.2,9-6,10.5c-5.4,1.7-11.2,3.3-16.8,3.6c-12.3,0.6-24.7,0.2-37.1,0.3
		c-5.2,0-9.8,1.4-13,5.4c-4.4,10,2.6,18.6,14.6,17.8c8.5-0.6,17-0.2,25.5-0.7c9.5-0.6,19-1.3,28.4-2.8c15-2.3,24.6-10.4,29.2-23.2
		c1.3-3.5,1.3-6.7,1.2-9.1C217.6,209.8,215.9,205.9,214.9,203.6z"/>
	<path class="st3" d="M196,198.7c3.7-5,4.9-10,5.9-13.7c0.3-1.1,0.9-3.8,1.2-7.4c1.1-12.1-2.4-22.7-3.6-26.3
		c-3.4-10.1-8.5-17.6-12.5-22.6c-2.3-2.4-5.4-5.5-9.5-8.7c-3.8-3-7.8-6.2-13.7-9.1c-7-3.4-14.6-5.5-22.7-6.3
		c-1.5-0.1-3.1-0.4-5.9-0.7c-9.2-1-21.2-2.2-35.6-1.5c-12.7,0.6-19.1,0.8-26.2,3.4c-5.9,2.1-15,5.5-21.1,14.6
		c-4.1,6.1-5.3,12.4-5.6,14.6c-0.4,2.2-1.1,6.6-0.2,12c0.6,3.3,1.6,6.2,2.1,7.7c0.8,2.3,1.6,4.1,2.1,5.1c3.9,7.8,9.5,12.3,12.1,14.3
		c3.9,3,7.3,4.7,12.5,7.3c3.7,1.8,6.5,3,8.6,3.8c9.1,3.7,18.6,7.1,26.1,9.7c2.5,0.3,6.4,0.4,11.1-0.3c-0.7,3.7-1.8,6.6-1.8,9.6
		c-0.1,7.2,3.9,12.5,11,13.2c8,0.8,16.1,0.5,24.2,0.2c8.9-0.4,17.4-3,25.5-6.6c3.6-1.6,6-3.3,7.3-4.2
		C189.8,205,193.1,202.7,196,198.7z"/>
	<path class="st3" d="M60.9,113.5c15.9,2.6,28.2,0.4,31.8-0.3c1-0.2,5.1-1,10.2-2.7c4.8-1.6,10.1-3.4,15.9-7.5
		c1.3-0.9,2.2-1.7,2.9-2.3c0,0,2.8-2.5,2.8-2.5c2.8-2.4-2.8,2.5-2.8,2.5c-0.1-0.1,1-1.6,2.8-2.5c0.6-0.3,1.2-0.6,2-0.5
		c1.5,0.2,1.8,1.5,3.7,2.3c0.9,0.4,2.9,1,3.8,0.1c0.8-0.8,0.3-2.6-0.2-3.6c-0.2-0.4-0.4-1.1-1.5-1.8c-2-1.3-2.5-2.7-1.1-4.8
		c1.4-2.1,2.9-3,5.4-1.7c1.2,0.6,2.7,1,4,0.9c0.9,0,2.3-0.8,2.5-1.6c0.3-0.8-0.3-2.3-1-2.8c-0.7-0.6-1.1-0.5-3.7-1.7
		c-1.7-0.7-2.1-1-2.3-1.4c-0.3-0.6-0.3-1.3-0.3-2.2c0-0.8,0-1.2,0.2-1.6c0.5-1,1.6-1.4,3-1.5c3.3-0.2,3.9,0.1,5.8-0.6
		c1.3-0.5,3-1.7,2.9-2.8c-0.1-1.2-2.4-1.9-3.7-2.3c-3.5-1.1-5.2,0-6.4-1.2c-0.9-0.9-1-2.8-1.1-6.5c-0.6-17.5-2.7-34.8-7.3-51.8
		c-0.5-1.7-1.3-3.4-2.1-5.1c-2.2-5-6.3-6.5-10.9-3.5c-5.5,3.5-10.7,7.5-15.9,11.4c-1.8,1.4-3.3,3.2-5.3,4.4c-1.4,0.9-3.4,1.6-5,1.3
		c-10.3-2-20.4-2.1-30.7,0.1c-1.7,0.4-4.1-0.4-5.6-1.5C46.7,13.1,40,7.8,33,2.8c-4.9-3.5-9.6-2.1-11.8,3.5c-1.1,3-2.2,6-2.9,9.1
		c-3.2,16.1-6.2,32.1-6,48.6c0,0.5,0,0.9-0.1,1.4c-0.5,5.5-0.5,5.4-6,5.1c-2.3-0.1-5.8-1.5-6.3,2.2c-0.5,3.7,3.3,2.6,5.3,3.2
		c1.5,0.4,3.2,0.3,4.8,0.6c2.7,0.5,3.4,2.7,1.6,4.8l0,0c-0.6,0.3-1.1,0.6-1.7,0.9c-0.2,0-0.4,0-0.6,0c-1.1,0.2-3,0.7-4.4,2.3
		c-0.3,0.4-1.9,2.1-1.3,3.2c0.4,0.7,1.4,0.9,2.1,1c1.5,0.2,2.5-0.2,6.2-1c1.6-0.4,2-0.4,2.5-0.3c1.2,0.3,2,1.4,2.8,2.7
		c1.3,2.2-0.1,3.4-1.7,4.5c-1,0.7-0.9,0.6-1.3,1c-0.9,0.9-2,2.8-1.2,4c0.6,1,2.1,1,2.2,1c1.3,0,2.2-1,2.3-1.1
		c0.5-0.5,1.3-1.2,2.5-1.8c0.7-0.3,1.4-0.7,2.3-0.6c1.1,0,1.8,0.6,4,2.4c1.4,1.2,2.5,2.1,3.2,2.7c2.2,1.4,5.2,3.1,8.9,4.8
		C41,107.9,49.2,111.6,60.9,113.5z"/>
	<path class="st5" d="M64.5,62.1c-1.4,1.4-2.7,2.7-4.1,4.1c-0.2,0-0.4,0-0.5,0c-1.4-1.5-2.8-3-4.2-4.5c0.4-0.6,0.8-1.2,1.2-1.8
		c2.3,0.1,4.5,0.1,6.8,0.2C63.9,60.8,64.2,61.5,64.5,62.1z"/>
	<path class="st4" d="M43.2,60.1c-1.5-0.9-4.1-2.2-7.6-2.7c-3.7-0.5-6.8,0.2-8.4,0.7c0.2-0.2,4-4.2,9.4-3.1
		C40.9,55.9,42.9,59.5,43.2,60.1z"/>
	<path class="st6" d="M50.2,66.6c0.1,0.6,0.6,2.8,2.2,4.2c0.7,0.6,1.5,1,2.3,1.1c1.8,0.2,3.1-0.9,3.7-1.4c1.8-1.5,2.2-3.5,2.3-4.2
		c-0.3,0-0.7,0-1,0c-0.1,0.3-0.3,0.7-0.5,1.1c-0.5,0.8-0.9,1.4-1.3,1.7c0,0-0.3,0.2-0.5,0.4c-0.2,0.1-1.9,1-3.4,0.3
		c-0.6-0.3-0.9-0.7-1.2-1c-1-1.2-1.1-2.6-1.1-3.3C51.2,65.8,50.7,66.2,50.2,66.6z"/>
	<path class="st6" d="M70.6,66c0,0.6-0.3,2.7-2,4.3c-0.4,0.4-2,1.9-4,1.6c-1.2-0.2-2-0.9-2.5-1.4c-1.6-1.5-2.1-3.3-2.2-4.2
		c0.3,0,0.6,0,0.8,0c0.1,0.2,0.1,0.4,0.2,0.6c0,0.1,0.1,0.3,0.3,0.5c0.1,0.2,0.4,0.6,0.7,1.1c0.2,0.2,0.7,0.8,1.4,1.1
		c1,0.5,2.3,0.5,3.3,0.1c1.5-0.7,2.5-2.3,2.5-4.2C69.7,65.6,70.2,65.8,70.6,66z"/>
	<path class="st7" d="M25.1,28.6c2.3-1.3,5.3-2.7,9.1-3.9c3.6-1.1,6.8-1.8,9.4-2.2c-1.2-2.1-2.5-3.7-3.5-4.9
		c-1.3-1.5-3.2-3.1-7.1-6.2c-1.2-0.9-2.3-1.8-3.5-1.6c-0.7,0.1-1.2,0.6-1.8,1.5c-1.7,2.4-2.2,4.6-2.3,5.3c-0.3,1.4-0.6,3.3-0.7,5.9
		C24.7,24,24.8,26.1,25.1,28.6z"/>
	<path class="st7" d="M120.7,31.7c-2.1-1.7-4.9-3.7-8.5-5.5c-3.4-1.7-6.5-2.8-9-3.6c1.5-2.2,3-3.8,4.1-5c1.5-1.5,3.6-3,7.9-6
		c1.3-0.9,2.5-1.7,3.7-1.4c0.7,0.2,1.1,0.9,1.6,1.9c1.3,2.8,1.5,5.4,1.6,6.1c0.1,1.6,0.1,3.8-0.2,6.7
		C121.7,26.8,121.4,29.1,120.7,31.7z"/>
	<path class="st3" d="M64.8,219.6c-7.7,2.1-14.6,0.2-16.9-4c-0.8-1.4-1.9-4.8-0.3-7.8c1.2-2.3,3.4-3.2,4.2-3.4c0-14.3,0-28.7,0-43
		c-1.4-3.3-0.9-7.1,1.3-9.9c3.3-4.1,8.4-3.6,8.7-3.6h1.9c6.8,0,12.3,5.5,12.3,12.3V204c0.1,0.9,0.7,6.4-3.3,11
		C69.8,218.5,66,219.4,64.8,219.6z"/>
	<path class="st3" d="M97.4,221.2c-7.7,2.1-14.6,0.2-16.9-4c-0.8-1.4-1.9-4.8-0.3-7.8c1.2-2.3,3.4-3.2,4.2-3.4c0-14.3,0-28.7,0-43
		c-1.4-3.3-0.9-7.1,1.3-9.9c3.3-4.1,8.4-3.6,8.7-3.6h1.9c6.8,0,12.3,5.5,12.3,12.3v43.8c0.1,0.9,0.7,6.4-3.3,11
		C102.5,220,98.7,220.9,97.4,221.2z"/>
	<path class="st8" d="M53.8,208.3c-0.4-0.1-0.9-0.3-1.5-0.4c-0.6-0.1-1.7-0.2-2.8,0.2c-1.6,0.6-2.3,2.1-2.5,2.5
		c0.1,0.4,0.1,0.7,0.2,1.1c0.1-0.2,0.2-0.4,0.4-0.6c0.1-0.2,1.2-1.6,3.1-2c1.6-0.4,2.8,0.3,3.2-0.3
		C53.9,208.8,53.8,208.5,53.8,208.3z"/>
	<path class="st8" d="M55.6,213.2c-0.4-0.1-0.9-0.1-1.6-0.1c-0.6,0-1.7,0.1-2.7,0.7c-1.4,0.9-1.9,2.4-2,2.9c0.1,0.4,0.2,0.7,0.3,1.1
		c0.1-0.2,0.1-0.4,0.3-0.7c0.1-0.2,0.9-1.8,2.7-2.5c1.6-0.6,2.8-0.2,3.1-0.8C55.8,213.6,55.7,213.4,55.6,213.2z"/>
	<path class="st8" d="M85.5,210.3c-0.4,0-0.9,0-1.6,0c-0.6,0.1-1.7,0.2-2.7,1c-1.4,1-1.7,2.6-1.7,3.1c0.1,0.3,0.3,0.7,0.4,1
		c0-0.2,0.1-0.4,0.2-0.7c0.1-0.2,0.8-1.8,2.4-2.7c1.5-0.8,2.8-0.4,3-1.1C85.7,210.7,85.6,210.5,85.5,210.3z"/>
	<path class="st8" d="M88.5,214.6c-0.4,0-0.9,0.1-1.6,0.3c-0.6,0.2-1.6,0.5-2.5,1.4c-1.2,1.2-1.2,2.8-1.2,3.3c0.2,0.3,0.4,0.6,0.6,1
		c0-0.2,0-0.4,0.1-0.7c0-0.2,0.4-1.9,2-3.1c1.3-1,2.7-0.9,2.8-1.6C88.8,214.9,88.6,214.7,88.5,214.6z"/>
	<path class="st4" d="M87.6,54.8c5.7-0.8,9.4,3.7,9.5,3.9c-1.7-0.7-4.8-1.6-8.7-1.3c-3.7,0.2-6.5,1.4-8.1,2.2
		C80.6,59,83,55.4,87.6,54.8z"/>
	<path class="st6" d="M180,16.4c-2.5-1.8-6-0.8-7.9,0.4c-2.4,1.4-3.4,3.7-3.7,4.8c-0.4-1.1-1.4-3.3-3.7-4.8
		c-1.9-1.2-5.5-2.2-7.9-0.4c-2.3,1.7-2.3,5-2.3,5.9c0,0.8,0.1,3.6,4.1,8.5c1.8,2.2,4.9,5.4,9.7,8.2c0,0,0,0,0,0.1c0,0,0,0,0,0
		c0,0,0,0,0,0c0,0,0,0,0-0.1c4.8-2.8,7.9-6,9.7-8.2c4-4.8,4.1-7.7,4.1-8.5C182.3,21.4,182.3,18.1,180,16.4z"/>
</g>
<g id="cat_stand" class="st0">
	<g id="Ebene_4" class="st2">
		<path class="st3" d="M939,175.4c4.9-7.9,5.4-15.6,5.7-20.6c0.7-10.2-1.7-18.4-3.4-23.1c-2-2.7-5.3-6.6-10.2-10
			c-5.4-3.7-9.9-5-18.6-7.4c-4.6-1.3-13.1-3.4-24.3-4.1c-2-0.1-3.5-0.2-6.9-0.3c-18.1-0.4-27.2-0.6-35.8-0.2
			c-13,0.7-19.6,1-26.2,3.4c-5.9,2.1-15,5.5-21.1,14.6c-4.1,6.1-5.3,12.4-5.6,14.6c-0.4,2.2-1.1,6.6-0.2,12c0.6,3.3,1.6,6.2,2.1,7.7
			c0.8,2.3,1.6,4.1,2.1,5.1c3.9,7.8,9.5,12.3,12.1,14.3c3.9,3,7.3,4.7,12.5,7.3c1,0.5,2,1,2.9,1.4c0,0,3,1.4,5.7,2.4
			c3.2,1.2,13.9,3.1,28.5,3.8c5.2,0,10.4,0,15.7,0c4.9,0.4,11.7,0.6,19.7,0c7.6-0.6,14.3-0.8,22.1-3.7
			C921,190.7,932.1,186.6,939,175.4z"/>
		<path class="st3" d="M806.8,120.8c15.9,2.6,28.2,0.4,31.8-0.3c1-0.2,5.1-1,10.2-2.7c4.8-1.6,10.1-3.4,15.9-7.5
			c1.3-0.9,2.2-1.7,2.9-2.3c0,0,2.8-2.5,2.8-2.5c2.8-2.4-2.8,2.5-2.8,2.5c-0.1-0.1,1-1.6,2.8-2.5c0.6-0.3,1.2-0.6,2-0.5
			c1.5,0.2,1.8,1.5,3.7,2.3c0.9,0.4,2.9,1,3.8,0.1c0.8-0.8,0.3-2.6-0.2-3.6c-0.2-0.4-0.4-1.1-1.5-1.8c-2-1.3-2.5-2.7-1.1-4.8
			c1.4-2.1,2.9-3,5.4-1.7c1.2,0.6,2.7,1,4,0.9c0.9,0,2.3-0.8,2.5-1.6c0.3-0.8-0.3-2.3-1-2.8c-0.7-0.6-1.1-0.5-3.7-1.7
			c-1.7-0.7-2.1-1-2.3-1.4c-0.3-0.6-0.3-1.3-0.3-2.2c0-0.8,0-1.2,0.2-1.6c0.5-1,1.6-1.4,3-1.5c3.3-0.2,3.9,0.1,5.8-0.6
			c1.3-0.5,3-1.7,2.9-2.8c-0.1-1.2-2.4-1.9-3.7-2.3c-3.5-1.1-5.2,0-6.4-1.2c-0.9-0.9-1-2.8-1.1-6.5c-0.6-17.5-2.7-34.8-7.3-51.8
			c-0.5-1.7-1.3-3.4-2.1-5.1c-2.2-5-6.3-6.5-10.9-3.5c-5.5,3.5-10.7,7.5-15.9,11.4c-1.8,1.4-3.3,3.2-5.3,4.4c-1.4,0.9-3.4,1.6-5,1.3
			c-10.3-2-20.4-2.1-30.7,0.1c-1.7,0.4-4.1-0.4-5.6-1.5c-7-4.9-13.7-10.2-20.7-15.2c-4.9-3.5-9.6-2.1-11.8,3.5c-1.1,3-2.2,6-2.9,9.1
			c-3.2,16.1-6.2,32.1-6,48.6c0,0.5,0,0.9-0.1,1.4c-0.5,5.5-0.5,5.4-6,5.1c-2.3-0.1-5.8-1.5-6.3,2.2c-0.5,3.7,3.3,2.6,5.3,3.2
			c1.5,0.4,3.2,0.3,4.8,0.6c2.7,0.5,3.4,2.7,1.6,4.8l0,0c-0.6,0.3-1.1,0.6-1.7,0.9c-0.2,0-0.4,0-0.6,0c-1.1,0.2-3,0.7-4.4,2.3
			c-0.3,0.4-1.9,2.1-1.3,3.2c0.4,0.7,1.4,0.9,2.1,1c1.5,0.2,2.5-0.2,6.2-1c1.6-0.4,2-0.4,2.5-0.3c1.2,0.3,2,1.4,2.8,2.7
			c1.3,2.2-0.1,3.4-1.7,4.5c-1,0.7-0.9,0.6-1.3,1c-0.9,0.9-2,2.8-1.2,4c0.6,1,2.1,1,2.2,1c1.3,0,2.2-1,2.3-1.1
			c0.5-0.5,1.3-1.2,2.5-1.8c0.7-0.3,1.4-0.7,2.3-0.6c1.1,0,1.8,0.6,4,2.4c1.4,1.2,2.5,2.1,3.2,2.7c2.2,1.4,5.2,3.1,8.9,4.8
			C786.9,115.3,795.1,118.9,806.8,120.8z"/>
		<path class="st4" d="M839,79.8c0-3.1,3.8-5.9,8.2-6c4-0.1,7.3,2.2,7.3,5c0,3.1-3.8,5.9-8.2,6C842.3,84.8,839.1,82.6,839,79.8z"/>
		<path class="st5" d="M821.9,86.1c-1.4,1.4-2.7,2.7-4.1,4.1c-0.2,0-0.4,0-0.5,0c-1.4-1.5-2.8-3-4.2-4.5c0.4-0.6,0.8-1.2,1.2-1.8
			c2.3,0.1,4.5,0.1,6.8,0.2C821.4,84.7,821.6,85.4,821.9,86.1z"/>
		<path class="st4" d="M791.6,84.7c-4.3,0-8.3-2.7-8.3-5.8c0-2.8,3.2-5.1,7.2-5.1c4.4,0,8.3,2.7,8.3,5.8
			C798.9,82.4,795.7,84.7,791.6,84.7z"/>
		<path class="st6" d="M807.7,90.6c0.1,0.6,0.6,2.8,2.2,4.2c0.7,0.6,1.5,1,2.3,1.1c1.8,0.2,3.1-0.9,3.7-1.4c1.8-1.5,2.2-3.5,2.3-4.2
			c-0.3,0-0.7,0-1,0c-0.1,0.3-0.3,0.7-0.5,1.1c-0.5,0.8-0.9,1.4-1.3,1.7c0,0-0.3,0.2-0.5,0.4c-0.2,0.1-1.9,1-3.4,0.3
			c-0.6-0.3-0.9-0.7-1.2-1c-1-1.2-1.1-2.6-1.1-3.3C808.6,89.8,808.2,90.2,807.7,90.6z"/>
		<path class="st6" d="M828.1,89.9c0,0.6-0.3,2.7-2,4.3c-0.4,0.4-2,1.9-4,1.6c-1.2-0.2-2-0.9-2.5-1.4c-1.6-1.5-2.1-3.3-2.2-4.2
			c0.3,0,0.6,0,0.8,0c0.1,0.2,0.1,0.4,0.2,0.6c0,0.1,0.1,0.3,0.3,0.5c0.1,0.2,0.4,0.6,0.7,1.1c0.2,0.2,0.7,0.8,1.4,1.1
			c1,0.5,2.3,0.5,3.3,0.1c1.5-0.7,2.5-2.3,2.5-4.2C827.1,89.6,827.6,89.7,828.1,89.9z"/>
		<path class="st7" d="M770.9,35.9c2.3-1.3,5.3-2.7,9.1-3.9c3.6-1.1,6.8-1.8,9.4-2.2c-1.2-2.1-2.5-3.7-3.5-4.9
			c-1.3-1.5-3.2-3.1-7.1-6.2c-1.2-0.9-2.3-1.8-3.5-1.6c-0.7,0.1-1.2,0.6-1.8,1.5c-1.7,2.4-2.2,4.6-2.3,5.3c-0.3,1.4-0.6,3.3-0.7,5.9
			C770.6,31.4,770.6,33.5,770.9,35.9z"/>
		<path class="st7" d="M866.6,39.1c-2.1-1.7-4.9-3.7-8.5-5.5c-3.4-1.7-6.5-2.8-9-3.6c1.5-2.2,3-3.8,4.1-5c1.5-1.5,3.6-3,7.9-6
			c1.3-0.9,2.5-1.7,3.7-1.4c0.7,0.2,1.1,0.9,1.6,1.9c1.3,2.8,1.5,5.4,1.6,6.1c0.1,1.6,0.1,3.8-0.2,6.7
			C867.6,34.1,867.2,36.4,866.6,39.1z"/>
		<path class="st3" d="M810.6,227c-7.7,2.1-14.6,0.2-16.9-4c-0.8-1.4-1.9-4.8-0.3-7.8c1.2-2.3,3.4-3.2,4.2-3.4c0-14.3,0-28.7,0-43
			c-1.4-3.3-0.9-7.1,1.3-9.9c3.3-4.1,8.4-3.6,8.7-3.6h1.8c6.8,0,12.3,5.5,12.3,12.3v43.8c0.1,0.9,0.7,6.4-3.3,11
			C815.7,225.8,811.8,226.7,810.6,227z"/>
		<path class="st3" d="M843.3,228.5c-7.7,2.1-14.6,0.2-16.9-4c-0.8-1.4-1.9-4.8-0.3-7.8c1.2-2.3,3.4-3.2,4.2-3.4c0-14.3,0-28.7,0-43
			c-1.4-3.3-0.9-7.1,1.3-9.9c3.3-4.1,8.4-3.6,8.7-3.6h1.9c6.8,0,12.3,5.5,12.3,12.3V213c0.1,0.9,0.7,6.4-3.3,11
			C848.3,227.4,844.5,228.3,843.3,228.5z"/>
		<path class="st8" d="M799.7,215.7c-0.4-0.1-0.9-0.3-1.5-0.4c-0.6-0.1-1.7-0.2-2.8,0.2c-1.6,0.6-2.3,2.1-2.5,2.5
			c0.1,0.4,0.1,0.7,0.2,1.1c0.1-0.2,0.2-0.4,0.4-0.6c0.1-0.2,1.2-1.6,3.1-2c1.6-0.4,2.8,0.3,3.2-0.3
			C799.7,216.1,799.7,215.9,799.7,215.7z"/>
		<path class="st8" d="M801.5,220.6c-0.4-0.1-0.9-0.1-1.6-0.1c-0.6,0-1.7,0.1-2.7,0.7c-1.4,0.9-1.9,2.4-2,2.9
			c0.1,0.4,0.2,0.7,0.3,1.1c0.1-0.2,0.1-0.4,0.3-0.7c0.1-0.2,0.9-1.8,2.7-2.5c1.6-0.6,2.8-0.2,3.1-0.8
			C801.6,221,801.5,220.7,801.5,220.6z"/>
		<path class="st8" d="M831.4,217.7c-0.4,0-0.9,0-1.6,0c-0.6,0.1-1.7,0.2-2.7,1c-1.4,1-1.7,2.6-1.7,3.1c0.1,0.3,0.3,0.7,0.4,1
			c0-0.2,0.1-0.4,0.2-0.7c0.1-0.2,0.8-1.8,2.4-2.7c1.5-0.8,2.8-0.4,3-1.1C831.5,218.1,831.4,217.9,831.4,217.7z"/>
		<path class="st8" d="M834.4,221.9c-0.4,0-0.9,0.1-1.6,0.3c-0.6,0.2-1.6,0.5-2.5,1.4c-1.2,1.2-1.2,2.8-1.2,3.3
			c0.2,0.3,0.4,0.6,0.6,1c0-0.2,0-0.4,0.1-0.7c0-0.2,0.4-1.9,2-3.1c1.3-1,2.7-0.9,2.8-1.6C834.6,222.3,834.5,222.1,834.4,221.9z"/>
		<path class="st3" d="M950.8,124.2c-5.8,2.6-11.2,2.5-14,2.3c2.1,6.5,4.2,13,6.4,19.5c19.2-1.7,34.6-11.2,37.9-23.9
			c2-7.6-0.1-17.4-3.9-24.4c-4.4-8.2-9.1-9.3-11.8-18.4c-0.8-2.9-3.2-11.1,1.2-16.2c3-3.5,7.9-4.2,9.6-4.4c5-0.6,6.3,1.4,12.9,1.2
			c3.6-0.1,7.9-0.2,9.5-3c1.7-2.9-0.5-6.9-0.7-7.3c-4.1-7.4-16.3-7.5-19.7-7.5c-1.7,0-11.3,0.1-20.3,6.6c-1.8,1.3-4.6,3.4-7.1,7.1
			c-3.3,5-3.8,9.8-4.3,13.6c-0.4,3.4-1.1,10.5,2,18.2c2.6,6.4,5,5.9,8.9,14c2.6,5.5,4.8,10.1,3.1,14.6
			C958.8,120.6,954.2,122.6,950.8,124.2z"/>
		<path class="st3" d="M893.2,227.7c-7.7,2.1-14.6,0.2-16.9-4c-0.8-1.4-1.9-4.8-0.3-7.8c1.2-2.3,3.4-3.2,4.2-3.4c0-14.3,0-28.7,0-43
			c-1.4-3.3-0.9-7.1,1.3-9.9c3.3-4.1,8.4-3.6,8.7-3.6h1.9c6.8,0,12.3,5.5,12.3,12.3v43.8c0.1,0.9,0.7,6.4-3.3,11
			C898.3,226.6,894.4,227.5,893.2,227.7z"/>
		<path class="st3" d="M925.9,229.3c-7.7,2.1-14.6,0.2-16.9-4c-0.8-1.4-1.9-4.8-0.3-7.8c1.2-2.3,3.4-3.2,4.2-3.4c0-14.3,0-28.7,0-43
			c-1.4-3.3-0.9-7.1,1.3-9.9c3.3-4.1,8.4-3.6,8.7-3.6h1.8c6.8,0,12.3,5.5,12.3,12.3v43.8c0.1,0.9,0.7,6.4-3.3,11
			C930.9,228.2,927.1,229.1,925.9,229.3z"/>
		<path class="st8" d="M882.2,216.5c-0.4-0.1-0.9-0.3-1.5-0.4c-0.6-0.1-1.7-0.2-2.8,0.2c-1.6,0.6-2.3,2.1-2.5,2.5
			c0.1,0.4,0.1,0.7,0.2,1.1c0.1-0.2,0.2-0.4,0.4-0.6c0.1-0.2,1.2-1.6,3.1-2c1.6-0.4,2.8,0.3,3.2-0.3
			C882.3,216.9,882.3,216.6,882.2,216.5z"/>
		<path class="st8" d="M884.1,221.3c-0.4-0.1-0.9-0.1-1.6-0.1c-0.6,0-1.7,0.1-2.7,0.7c-1.4,0.9-1.9,2.4-2,2.9
			c0.1,0.4,0.2,0.7,0.3,1.1c0.1-0.2,0.1-0.4,0.3-0.7c0.1-0.2,0.9-1.8,2.7-2.5c1.6-0.6,2.8-0.2,3.1-0.8
			C884.2,221.7,884.1,221.5,884.1,221.3z"/>
		<path class="st8" d="M914,218.5c-0.4,0-0.9,0-1.6,0c-0.6,0.1-1.7,0.2-2.7,1c-1.4,1-1.7,2.6-1.7,3.1c0.1,0.3,0.3,0.7,0.4,1
			c0-0.2,0.1-0.4,0.2-0.7c0.1-0.2,0.8-1.8,2.4-2.7c1.5-0.8,2.8-0.4,3-1.1C914.1,218.9,914,218.6,914,218.5z"/>
		<path class="st8" d="M917,222.7c-0.4,0-0.9,0.1-1.6,0.3c-0.6,0.2-1.6,0.5-2.5,1.4c-1.2,1.2-1.2,2.8-1.2,3.3c0.2,0.3,0.4,0.6,0.6,1
			c0-0.2,0-0.4,0.1-0.7c0-0.2,0.4-1.9,2-3.1c1.3-1,2.7-0.9,2.8-1.6C917.2,223.1,917.1,222.9,917,222.7z"/>
	</g>
</g>
<g id="cat_walk_2" class="st0">
	<path class="st1" d="M1408.5,126.4"/>
	<path class="st1" d="M1425.1,186.4"/>
	<path class="st1" d="M1423.1,120.6c15.9,2.6,28.2,0.4,31.8-0.3c1-0.2,5.1-1,10.2-2.7c4.8-1.6,10.1-3.4,15.9-7.5
		c1.3-0.9,2.2-1.7,2.9-2.3c0,0,2.8-2.5,2.8-2.5c2.8-2.4-2.8,2.5-2.8,2.5c-0.1-0.1,1-1.6,2.8-2.5c0.6-0.3,1.2-0.6,2-0.5
		c1.5,0.2,1.8,1.5,3.7,2.3c0.9,0.4,2.9,1,3.8,0.1c0.8-0.8,0.3-2.6-0.2-3.6c-0.2-0.4-0.4-1.1-1.5-1.8c-2-1.3-2.5-2.7-1.1-4.8
		c1.4-2.1,2.9-3,5.4-1.7c1.2,0.6,2.7,1,4,0.9c0.9,0,2.3-0.8,2.5-1.6c0.3-0.8-0.3-2.3-1-2.8c-0.7-0.6-1.1-0.5-3.7-1.7
		c-1.7-0.7-2.1-1-2.3-1.4c-0.3-0.6-0.3-1.3-0.3-2.2c0-0.8,0-1.2,0.2-1.6c0.5-1,1.6-1.4,3-1.5c3.3-0.2,3.9,0.1,5.8-0.6
		c1.3-0.5,3-1.7,2.9-2.8c-0.1-1.2-2.4-1.9-3.7-2.3c-3.5-1.1-5.2,0-6.4-1.2c-0.9-0.9-1-2.8-1.1-6.5c-0.6-17.5-2.7-34.8-7.3-51.8
		c-0.5-1.7-1.3-3.4-2.1-5.1c-2.2-5-6.3-6.5-10.9-3.5c-5.5,3.5-10.7,7.5-15.9,11.4c-1.8,1.4-3.3,3.2-5.3,4.4c-1.4,0.9-3.4,1.6-5,1.3
		c-10.3-2-20.4-2.1-30.7,0.1c-1.7,0.4-4.1-0.4-5.6-1.5c-7-4.9-13.7-10.2-20.7-15.2c-4.9-3.5-9.6-2.1-11.8,3.5c-1.1,3-2.2,6-2.9,9.1
		c-3.2,16.1-6.2,32.1-6,48.6c0,0.5,0,0.9-0.1,1.4c-0.5,5.5-0.5,5.4-6,5.1c-2.3-0.1-5.8-1.5-6.3,2.2c-0.5,3.7,3.3,2.6,5.3,3.2
		c1.5,0.4,3.2,0.3,4.8,0.6c2.7,0.5,3.4,2.7,1.6,4.8l0,0c-0.6,0.3-1.1,0.6-1.7,0.9c-0.2,0-0.4,0-0.6,0c-1.1,0.2-3,0.7-4.4,2.3
		c-0.3,0.4-1.9,2.1-1.3,3.2c0.4,0.7,1.4,0.9,2.1,1c1.5,0.2,2.5-0.2,6.2-1c1.6-0.4,2-0.4,2.5-0.3c1.2,0.3,2,1.4,2.8,2.7
		c1.3,2.2-0.1,3.4-1.7,4.5c-1,0.7-0.9,0.6-1.3,1c-0.9,0.9-2,2.8-1.2,4c0.6,1,2.1,1,2.2,1c1.3,0,2.2-1,2.3-1.1
		c0.5-0.5,1.3-1.2,2.5-1.8c0.7-0.3,1.4-0.7,2.3-0.6c1.1,0,1.8,0.6,4,2.4c1.4,1.2,2.5,2.1,3.2,2.7c2.2,1.4,5.2,3.1,8.9,4.8
		C1403.2,115.1,1411.4,118.7,1423.1,120.6z"/>
	<path class="st9" d="M1455.4,79.6c0-3.1,3.8-5.9,8.2-6c4-0.1,7.3,2.2,7.3,5c0,3.1-3.8,5.9-8.2,6
		C1458.6,84.6,1455.4,82.4,1455.4,79.6z"/>
	<path class="st10" d="M1438.3,85.8c-1.4,1.4-2.7,2.7-4.1,4.1c-0.2,0-0.4,0-0.5,0c-1.4-1.5-2.8-3-4.2-4.5c0.4-0.6,0.8-1.2,1.2-1.8
		c2.3,0.1,4.5,0.1,6.8,0.2C1437.7,84.5,1438,85.2,1438.3,85.8z"/>
	<path class="st9" d="M1408,84.5c-4.3,0-8.3-2.7-8.3-5.8c0-2.8,3.2-5.1,7.2-5.1c4.4,0,8.3,2.7,8.3,5.8
		C1415.2,82.2,1412,84.5,1408,84.5z"/>
	<path class="st11" d="M1424,90.3c0.1,0.6,0.6,2.8,2.2,4.2c0.7,0.6,1.5,1,2.3,1.1c1.8,0.2,3.1-0.9,3.7-1.4c1.8-1.5,2.2-3.5,2.3-4.2
		c-0.3,0-0.7,0-1,0c-0.1,0.3-0.3,0.7-0.5,1.1c-0.5,0.8-0.9,1.4-1.3,1.7c0,0-0.3,0.2-0.5,0.4c-0.2,0.1-1.9,1-3.4,0.3
		c-0.6-0.3-0.9-0.7-1.2-1c-1-1.2-1.1-2.6-1.1-3.3C1425,89.5,1424.5,89.9,1424,90.3z"/>
	<path class="st11" d="M1444.4,89.7c0,0.6-0.3,2.7-2,4.3c-0.4,0.4-2,1.9-4,1.6c-1.2-0.2-2-0.9-2.5-1.4c-1.6-1.5-2.1-3.3-2.2-4.2
		c0.3,0,0.6,0,0.8,0c0,0.2,0.1,0.4,0.2,0.6c0,0.1,0.1,0.3,0.3,0.5c0.1,0.2,0.4,0.6,0.7,1.1c0.2,0.2,0.7,0.8,1.4,1.1
		c1,0.5,2.3,0.5,3.3,0.1c1.5-0.7,2.5-2.3,2.5-4.2C1443.4,89.4,1443.9,89.5,1444.4,89.7z"/>
	<path class="st12" d="M1387.3,35.7c2.3-1.3,5.3-2.7,9.1-3.9c3.6-1.1,6.8-1.8,9.4-2.2c-1.2-2.1-2.5-3.7-3.5-4.9
		c-1.3-1.5-3.2-3.1-7.1-6.2c-1.2-0.9-2.3-1.8-3.5-1.6c-0.7,0.1-1.2,0.6-1.8,1.5c-1.7,2.4-2.2,4.6-2.3,5.3c-0.3,1.4-0.6,3.3-0.7,5.9
		C1386.9,31.2,1387,33.2,1387.3,35.7z"/>
	<path class="st12" d="M1482.9,38.9c-2.1-1.7-4.9-3.7-8.5-5.5c-3.4-1.7-6.5-2.8-9-3.6c1.5-2.2,3-3.8,4.1-5c1.5-1.5,3.6-3,7.9-6
		c1.3-0.9,2.5-1.7,3.7-1.4c0.7,0.2,1.1,0.9,1.6,1.9c1.3,2.8,1.5,5.4,1.6,6.1c0.1,1.6,0.1,3.8-0.2,6.7
		C1483.9,33.9,1483.6,36.2,1482.9,38.9z"/>
	<path class="st13" d="M1460.5,229.4c-7.1,3.7-14.2,3.3-17.3-0.3c-1-1.2-2.9-4.2-1.9-7.6c0.7-2.5,2.7-3.8,3.4-4.3
		c-3-14-6.1-28-9.1-42c-2.1-2.9-2.4-6.8-0.8-9.9c2.3-4.7,7.4-5.3,7.8-5.4l1.8-0.4c6.7-1.4,13.2,2.8,14.7,9.4l9.3,42.8
		c0.3,0.9,2,6.1-0.9,11.4C1465.2,227.3,1461.7,228.9,1460.5,229.4z"/>
	<path class="st1" d="M1396.9,214c-7-3.8-10.6-9.9-9.4-14.6c0.4-1.5,1.9-4.8,5.2-5.8c2.5-0.8,4.7,0.1,5.4,0.5
		c10-10.3,19.9-20.6,29.9-30.9c1.3-3.3,4.3-5.7,7.8-6.2c5.2-0.7,8.6,3.2,8.8,3.5l1.3,1.3c4.9,4.7,5,12.6,0.3,17.4l-30.5,31.5
		c-0.6,0.7-4,5-10,5.6C1401.3,216.7,1398,214.7,1396.9,214z"/>
	<path class="st14" d="M1447.4,220.7c-0.4,0-0.9-0.1-1.6,0c-0.6,0.1-1.7,0.2-2.7,0.8c-1.4,1-1.8,2.5-1.9,3c0.1,0.4,0.3,0.7,0.4,1.1
		c0-0.2,0.1-0.4,0.2-0.7c0.1-0.2,0.8-1.8,2.6-2.6c1.5-0.7,2.8-0.3,3-1C1447.6,221.1,1447.5,220.9,1447.4,220.7z"/>
	<path class="st14" d="M1450.2,225.1c-0.4,0-0.9,0.1-1.6,0.2c-0.6,0.2-1.7,0.4-2.5,1.3c-1.2,1.2-1.3,2.8-1.4,3.3
		c0.2,0.3,0.4,0.7,0.6,1c0-0.2,0.1-0.4,0.1-0.7c0.1-0.2,0.5-1.9,2.1-3c1.4-0.9,2.7-0.8,2.9-1.5
		C1450.5,225.5,1450.3,225.3,1450.2,225.1z"/>
	<path class="st14" d="M1395.9,197.9c-0.3-0.3-0.6-0.7-1.2-1.1c-0.5-0.4-1.4-1-2.6-1.2c-1.7-0.2-3,0.7-3.4,1
		c-0.1,0.4-0.3,0.7-0.4,1.1c0.1-0.1,0.4-0.2,0.6-0.3c0.2-0.1,1.8-0.8,3.6-0.3c1.6,0.5,2.3,1.6,2.9,1.3
		C1395.7,198.3,1395.8,198.1,1395.9,197.9z"/>
	<path class="st14" d="M1395.1,203.1c-0.3-0.2-0.7-0.6-1.3-0.9c-0.6-0.3-1.5-0.8-2.7-0.7c-1.7,0.1-2.8,1.2-3.2,1.6
		c-0.1,0.4-0.2,0.7-0.2,1.1c0.1-0.1,0.3-0.3,0.6-0.4c0.2-0.1,1.7-1.1,3.6-0.8c1.7,0.2,2.6,1.2,3.1,0.8
		C1395,203.5,1395.1,203.2,1395.1,203.1z"/>
	<path class="st1" d="M1567.1,124c-5.8,2.6-11.2,2.5-14,2.3c2.1,6.5,4.2,13,6.4,19.5c19.2-1.7,34.6-11.2,37.9-23.9
		c2-7.6-0.1-17.4-3.9-24.4c-4.4-8.2-9.1-9.3-11.8-18.4c-0.8-2.9-3.2-11.1,1.2-16.2c3-3.5,7.9-4.2,9.6-4.4c5-0.6,6.3,1.4,12.9,1.2
		c3.6-0.1,7.9-0.2,9.5-3c1.7-2.9-0.5-6.9-0.7-7.3c-4.1-7.4-16.3-7.5-19.7-7.5c-1.7,0-11.3,0.1-20.3,6.6c-1.8,1.3-4.6,3.4-7.1,7.1
		c-3.3,5-3.8,9.8-4.3,13.6c-0.4,3.4-1.1,10.5,2,18.2c2.6,6.4,5,5.9,8.9,14c2.6,5.5,4.8,10.1,3.1,14.6
		C1575.1,120.4,1570.5,122.4,1567.1,124z"/>
	<path class="st13" d="M1568,218c-4.4,6.7-10.8,9.8-15.3,8.1c-1.5-0.6-4.6-2.3-5.3-5.7c-0.5-2.5,0.5-4.6,0.9-5.4
		c-9.5-10.8-18.9-21.6-28.4-32.3c-3.2-1.6-5.4-4.8-5.5-8.3c-0.3-5.2,3.9-8.3,4.2-8.5l1.4-1.2c5.1-4.5,12.9-4,17.4,1.1l28.9,32.9
		c0.7,0.6,4.7,4.4,4.8,10.4C1571.1,213.8,1568.8,217,1568,218z"/>
	<path class="st1" d="M1519.5,232.7c-7.8,1.5-14.5-0.9-16.5-5.3c-0.7-1.5-1.6-4.9,0.4-7.8c1.4-2.2,3.7-2.9,4.5-3.1
		c1.1-14.3,2.2-28.6,3.4-42.9c-1.1-3.4-0.3-7.2,2.1-9.8c3.6-3.8,8.7-3,9-2.9l1.8,0.1c6.8,0.5,11.9,6.5,11.3,13.3l-3.4,43.7
		c0,0.9,0.1,6.4-4.1,10.7C1524.7,232,1520.8,232.6,1519.5,232.7z"/>
	<path class="st1" d="M1555.4,175.2c4.9-7.9,5.4-15.6,5.7-20.6c0.7-10.2-1.7-18.4-3.4-23.1c-2-2.7-5.3-6.6-10.2-10
		c-5.4-3.7-9.9-5-18.6-7.4c-4.6-1.3-13.1-3.4-24.3-4.1c-2-0.1-3.5-0.2-6.9-0.3c-18.1-0.4-27.2-0.6-35.8-0.2c-13,0.7-19.6,1-26.2,3.4
		c-5.9,2.1-15,5.5-21.1,14.6c-4.1,6.1-5.3,12.4-5.6,14.6c-0.4,2.2-1.1,6.6-0.2,12c0.6,3.3,1.6,6.2,2.1,7.7c0.8,2.3,1.6,4.1,2.1,5.1
		c3.9,7.8,9.5,12.3,12.1,14.3c3.9,3,7.3,4.7,12.5,7.3c1,0.5,2,1,2.9,1.4c0,0,3,1.4,5.7,2.4c3.2,1.2,13.9,3.1,28.5,3.8
		c5.2,0,10.4,0,15.7,0c4.9,0.4,11.7,0.6,19.7,0c7.6-0.6,14.3-0.8,22.1-3.7C1537.4,190.5,1548.4,186.3,1555.4,175.2z"/>
	<path class="st14" d="M1552.3,216.7c-0.4,0.1-0.9,0.4-1.4,0.7c-0.5,0.3-1.4,1-2,2c-0.8,1.5-0.3,3.1-0.2,3.5
		c0.3,0.2,0.6,0.5,0.9,0.7c0-0.2-0.1-0.4-0.1-0.7c0-0.2-0.1-2,1-3.5c1-1.4,2.3-1.6,2.2-2.3C1552.7,217,1552.5,216.8,1552.3,216.7z"
		/>
	<path class="st14" d="M1556.9,219.2c-0.3,0.2-0.8,0.5-1.3,1c-0.4,0.4-1.2,1.2-1.6,2.3c-0.5,1.6,0.2,3.1,0.4,3.5
		c0.3,0.2,0.6,0.4,1,0.6c-0.1-0.2-0.2-0.4-0.2-0.7c-0.1-0.2-0.5-1.9,0.4-3.6c0.8-1.5,2-2,1.8-2.7
		C1557.3,219.4,1557.1,219.3,1556.9,219.2z"/>
	<path class="st14" d="M1508.5,221c-0.4-0.1-0.9-0.1-1.6-0.1c-0.6,0-1.7,0.1-2.7,0.7c-1.4,0.9-1.9,2.5-2,2.9
		c0.1,0.4,0.2,0.7,0.4,1.1c0.1-0.2,0.1-0.4,0.3-0.7c0.1-0.2,0.9-1.8,2.6-2.5c1.5-0.7,2.8-0.2,3.1-0.9
		C1508.7,221.4,1508.6,221.2,1508.5,221z"/>
	<path class="st14" d="M1511.2,225.5c-0.4,0-0.9,0-1.6,0.2c-0.6,0.1-1.7,0.4-2.6,1.2c-1.3,1.1-1.4,2.7-1.5,3.2
		c0.2,0.3,0.4,0.7,0.5,1c0-0.2,0.1-0.4,0.2-0.7c0.1-0.2,0.6-1.9,2.2-2.9c1.4-0.9,2.8-0.7,2.9-1.4
		C1511.4,225.9,1511.3,225.6,1511.2,225.5z"/>
</g>
<g id="cat_eat" class="st0">
	<path class="st1" d="M493.1,202c0,0-2.6-5.8-9-12.1c-0.2-0.2-1.1-1.1-2.4-1.8c-0.2-0.1-0.5-0.2-0.9-0.4c-1.9-0.8-2.6-1.2-2.9-1.3
		c-2.5-0.9-7.5,5.8-8,6.4c-2.6,3.5-2.7,5.3-4.6,8.3c-0.2,0.4-0.9,1.4-1.2,2.9c-0.1,0.5-0.2,0.9-0.2,1.2c1,0.6,2.1,1.3,3.2,2.3
		c0.6,0.6,1.2,1.1,1.7,1.6c0,0,0.9,1.1,1.3,2.6c0.9,4.4-1.2,9-6,10.5c-5.4,1.7-11.2,3.3-16.8,3.6c-12.3,0.6-24.7,0.2-37.1,0.3
		c-5.2,0-9.8,1.4-13,5.4c-4.4,10,2.6,18.6,14.6,17.8c8.5-0.6,17-0.2,25.5-0.7c9.5-0.6,19-1.3,28.4-2.8c15-2.3,24.6-10.4,29.2-23.2
		c1.3-3.5,1.3-6.7,1.2-9.1C495.8,208.2,494.1,204.3,493.1,202z"/>
	<path class="st1" d="M375.6,219.5c-7.7,2.1-14.6,0.2-16.9-4c-0.8-1.4-1.9-4.8-0.3-7.8c1.2-2.3,3.4-3.2,4.2-3.4c0-14.3,0-28.7,0-43
		c-1.4-3.3-0.9-7.1,1.3-9.9c3.3-4.1,8.4-3.6,8.7-3.6h1.9c6.8,0,12.3,5.5,12.3,12.3V204c0.1,0.9,0.7,6.4-3.3,11
		C380.6,218.4,376.8,219.3,375.6,219.5z"/>
	<path class="st1" d="M342.9,218c-7.7,2.1-14.6,0.2-16.9-4c-0.8-1.4-1.9-4.8-0.3-7.8c1.2-2.3,3.4-3.2,4.2-3.4c0-14.3,0-28.7,0-43
		c-1.4-3.3-0.9-7.1,1.3-9.9c3.3-4.1,8.4-3.6,8.7-3.6h1.9c6.8,0,12.3,5.5,12.3,12.3v43.8c0.1,0.9,0.7,6.4-3.3,11
		C348,216.9,344.2,217.8,342.9,218z"/>
	<path class="st1" d="M474.2,197.1c3.7-5,4.9-10,5.9-13.7c0.3-1.1,0.9-3.8,1.2-7.4c1.1-12.1-2.4-22.7-3.6-26.3
		c-3.4-10.1-8.5-17.6-12.5-22.6c-2.3-2.4-5.4-5.5-9.5-8.7c-3.8-3-7.8-6.2-13.7-9.1c-7-3.4-14.6-5.5-22.7-6.3
		c-1.5-0.1-3.1-0.4-5.9-0.7c-9.2-1-21.2-2.2-35.6-1.5c-12.7,0.6-19.1,0.8-26.2,3.4c-5.9,2.1-15,5.5-21.1,14.6
		c-4.1,6.1-5.3,12.4-5.6,14.6c-0.4,2.2-1.1,6.6-0.2,12c0.6,3.3,1.6,6.2,2.1,7.7c0.8,2.3,1.6,4.1,2.1,5.1c3.9,7.8,9.5,12.3,12.1,14.3
		c3.9,3,7.3,4.7,12.5,7.3c3.6,1.8,6.5,3,8.6,3.8c9.1,3.7,18.6,7.1,26.1,9.7c2.5,0.3,6.4,0.4,11.1-0.3c-0.7,3.7-1.8,6.6-1.8,9.6
		c-0.1,7.2,3.9,12.5,11,13.2c8,0.8,16.1,0.5,24.2,0.2c8.9-0.4,17.4-3,25.5-6.6c3.6-1.6,6-3.3,7.3-4.2
		C468,203.4,471.3,201.1,474.2,197.1z"/>
	<path class="st15" d="M319.6,168.3c16,2.6,28.5,0.4,32.1-0.3c1-0.2,5.1-1,10.3-2.7c4.8-1.6,10.2-3.4,16-7.5c1.3-0.9,2.3-1.7,3-2.3
		c0,0,2.8-2.5,2.8-2.5c2.8-2.4-2.8,2.5-2.8,2.5c-0.1-0.1,1-1.6,2.8-2.5c0.7-0.3,1.3-0.6,2-0.5c1.5,0.2,1.8,1.5,3.7,2.3
		c0.9,0.4,2.9,1,3.8,0.1c0.8-0.9,0.3-2.7-0.2-3.7c-0.2-0.4-0.4-1.1-1.6-1.8c-2-1.3-2.5-2.7-1.1-4.8c1.4-2.2,2.9-3.1,5.4-1.7
		c1.2,0.6,2.7,1,4,0.9c0.9,0,2.3-0.8,2.6-1.6c0.3-0.8-0.3-2.3-1-2.9c-0.7-0.6-1.1-0.5-3.7-1.7c-1.7-0.7-2.1-1-2.3-1.5
		c-0.3-0.6-0.3-1.3-0.3-2.2c0-0.8,0-1.2,0.2-1.6c0.5-1,1.7-1.5,3.1-1.5c3.3-0.2,3.9,0.1,5.8-0.6c1.3-0.5,3.1-1.7,2.9-2.9
		c-0.1-1.2-2.4-1.9-3.8-2.3c-3.6-1.1-5.3,0-6.5-1.2c-0.9-1-1-2.8-1.1-6.6c-0.6-17.7-2.8-35.1-7.4-52.2c-0.5-1.8-1.3-3.5-2.1-5.1
		c-2.3-5-6.3-6.6-11-3.6c-5.5,3.6-10.8,7.6-16.1,11.5c-1.9,1.4-3.4,3.2-5.3,4.4c-1.4,0.9-3.5,1.6-5,1.3c-10.3-2.1-20.6-2.1-30.9,0.1
		c-1.7,0.4-4.1-0.4-5.6-1.5c-7-5-13.8-10.3-20.8-15.4c-4.9-3.6-9.7-2.1-11.9,3.6c-1.1,3-2.3,6.1-2.9,9.2c-3.2,16.2-6.3,32.4-6.1,49
		c0,0.5,0,0.9-0.1,1.4c-0.5,5.6-0.5,5.4-6,5.1c-2.3-0.1-5.8-1.5-6.3,2.2c-0.5,3.7,3.3,2.6,5.4,3.2c1.5,0.4,3.2,0.3,4.8,0.6
		c2.7,0.5,3.4,2.7,1.6,4.8l0,0c-0.6,0.3-1.1,0.6-1.7,0.9c-0.2,0-0.4,0-0.6,0c-1.1,0.2-3,0.7-4.4,2.3c-0.3,0.4-1.9,2.1-1.3,3.2
		c0.4,0.7,1.4,0.9,2.2,1c1.6,0.2,2.6-0.2,6.3-1c1.6-0.4,2-0.4,2.5-0.3c1.2,0.3,2,1.4,2.8,2.7c1.3,2.2-0.1,3.4-1.7,4.5
		c-1,0.7-1,0.6-1.3,1c-0.9,0.9-2,2.8-1.2,4.1c0.6,1,2.1,1,2.3,1c1.4,0,2.2-1,2.3-1.1c0.5-0.5,1.3-1.2,2.5-1.8
		c0.7-0.3,1.4-0.7,2.3-0.6c1.1,0,1.8,0.6,4,2.5c1.4,1.2,2.6,2.1,3.3,2.7c2.2,1.4,5.2,3.1,9,4.8C299.5,162.7,307.8,166.4,319.6,168.3
		z"/>
	<path class="st1" d="M319,167.4c15.9,2.6,28.2,0.4,31.8-0.3c1-0.2,5.1-1,10.2-2.7c4.8-1.6,10.1-3.4,15.9-7.5
		c1.3-0.9,2.2-1.7,2.9-2.3c0,0,2.8-2.5,2.8-2.5c2.8-2.4-2.8,2.5-2.8,2.5c-0.1-0.1,1-1.6,2.8-2.5c0.6-0.3,1.2-0.6,2-0.5
		c1.5,0.2,1.8,1.5,3.7,2.3c0.9,0.4,2.9,1,3.8,0.1c0.8-0.8,0.3-2.6-0.2-3.6c-0.2-0.4-0.4-1.1-1.5-1.8c-2-1.3-2.5-2.7-1.1-4.8
		c1.4-2.1,2.9-3,5.4-1.7c1.2,0.6,2.7,1,4,0.9c0.9,0,2.3-0.8,2.5-1.6c0.3-0.8-0.3-2.3-1-2.8c-0.7-0.6-1.1-0.5-3.7-1.7
		c-1.7-0.7-2.1-1-2.3-1.4c-0.3-0.6-0.3-1.3-0.3-2.2c0-0.8,0-1.2,0.2-1.6c0.5-1,1.6-1.4,3-1.5c3.3-0.2,3.9,0.1,5.8-0.6
		c1.3-0.5,3-1.7,2.9-2.8c-0.1-1.2-2.4-1.9-3.7-2.3c-3.5-1.1-5.2,0-6.4-1.2c-0.9-0.9-1-2.8-1.1-6.5c-0.6-17.5-2.7-34.8-7.3-51.8
		c-0.5-1.7-1.3-3.4-2.1-5.1c-2.2-5-6.3-6.5-10.9-3.5c-5.5,3.5-10.7,7.5-15.9,11.4c-1.8,1.4-3.3,3.2-5.3,4.4c-1.4,0.9-3.4,1.6-5,1.3
		c-10.3-2-20.4-2.1-30.7,0.1c-1.7,0.4-4.1-0.4-5.6-1.5c-7-4.9-13.7-10.2-20.7-15.2c-4.9-3.5-9.6-2.1-11.8,3.5c-1.1,3-2.2,6-2.9,9.1
		c-3.2,16.1-6.2,32.1-6,48.6c0,0.5,0,0.9-0.1,1.4c-0.5,5.5-0.5,5.4-6,5.1c-2.3-0.1-5.8-1.5-6.3,2.2c-0.5,3.7,3.3,2.6,5.3,3.2
		c1.5,0.4,3.2,0.3,4.8,0.6c2.7,0.5,3.4,2.7,1.6,4.8l0,0c-0.6,0.3-1.1,0.6-1.7,0.9c-0.2,0-0.4,0-0.6,0c-1.1,0.2-3,0.7-4.4,2.3
		c-0.3,0.4-1.9,2.1-1.3,3.2c0.4,0.7,1.4,0.9,2.1,1c1.5,0.2,2.5-0.2,6.2-1c1.6-0.4,2-0.4,2.5-0.3c1.2,0.3,2,1.4,2.8,2.7
		c1.3,2.2-0.1,3.4-1.7,4.5c-1,0.7-0.9,0.6-1.3,1c-0.9,0.9-2,2.8-1.2,4c0.6,1,2.1,1,2.2,1c1.3,0,2.2-1,2.3-1.1
		c0.5-0.5,1.3-1.2,2.5-1.8c0.7-0.3,1.4-0.7,2.3-0.6c1.1,0,1.8,0.6,4,2.4c1.4,1.2,2.5,2.1,3.2,2.7c2.2,1.4,5.2,3.1,8.9,4.8
		C299.1,161.8,307.4,165.4,319,167.4z"/>
	<path class="st9" d="M347.2,138.9c0-3.1,3.8-5.9,8.2-6c4-0.1,7.3,2.2,7.3,5c0,3.1-3.8,5.9-8.2,6C350.5,144,347.2,141.8,347.2,138.9
		z"/>
	<path class="st10" d="M330.1,145.2c-1.4,1.4-2.7,2.7-4.1,4.1c-0.2,0-0.4,0-0.5,0c-1.4-1.5-2.8-3-4.2-4.5c0.4-0.6,0.8-1.2,1.2-1.8
		c2.3,0.1,4.5,0.1,6.8,0.2C329.5,143.9,329.8,144.5,330.1,145.2z"/>
	<path class="st9" d="M299.8,143.9c-4.3,0-8.3-2.7-8.3-5.8c0-2.8,3.2-5.1,7.2-5.1c4.4,0,8.3,2.7,8.3,5.8
		C307,141.6,303.8,143.9,299.8,143.9z"/>
	<path class="st16" d="M321.1,156c0,0.1,0.2,1.9,1.3,3.2c2,2.2,6.3,2.1,8.7,0.2c0.3-0.3,1.5-1.3,2-2.9c0.2-0.8,0.5-1.8,0-2.4
		c-0.9-1.1-2.9,0.5-4.5-0.7c-0.6-0.5-0.9-1.2-2.3-2.3c-0.3-0.2-0.5-0.4-0.8-0.3c-0.6,0.1-0.6,1.1-1.4,1.9c-1,1-2.1,0.5-2.8,1.4
		C321,154.6,321.1,155.3,321.1,156z"/>
	<path class="st11" d="M315.8,149.7c0.1,0.6,0.6,2.8,2.2,4.2c0.7,0.6,1.5,1,2.3,1.1c1.8,0.2,3.1-0.9,3.7-1.4
		c1.8-1.5,2.2-3.5,2.3-4.2c-0.3,0-0.7,0-1,0c-0.1,0.3-0.3,0.7-0.5,1.1c-0.5,0.8-0.9,1.4-1.3,1.7c0,0-0.3,0.2-0.5,0.4
		c-0.2,0.1-1.9,1-3.4,0.3c-0.6-0.3-0.9-0.7-1.2-1c-1-1.2-1.1-2.6-1.1-3.3C316.8,148.9,316.3,149.3,315.8,149.7z"/>
	<path class="st11" d="M336.2,149c0,0.6-0.3,2.7-2,4.3c-0.4,0.4-2,1.9-4,1.6c-1.2-0.2-2-0.9-2.5-1.4c-1.6-1.5-2.1-3.3-2.2-4.2
		c0.3,0,0.6,0,0.8,0c0,0.2,0.1,0.4,0.2,0.6c0,0.1,0.1,0.3,0.3,0.5c0.1,0.2,0.4,0.6,0.7,1.1c0.2,0.2,0.7,0.8,1.4,1.1
		c1,0.5,2.3,0.5,3.3,0.1c1.5-0.7,2.5-2.3,2.5-4.2C335.3,148.7,335.8,148.9,336.2,149z"/>
	<path class="st12" d="M283.2,82.4c2.3-1.3,5.3-2.7,9.1-3.9c3.6-1.1,6.8-1.8,9.4-2.2c-1.2-2.1-2.5-3.7-3.5-4.9
		c-1.3-1.5-3.2-3.1-7.1-6.2c-1.2-0.9-2.3-1.8-3.5-1.6c-0.7,0.1-1.2,0.6-1.8,1.5c-1.7,2.4-2.2,4.6-2.3,5.3c-0.3,1.4-0.6,3.3-0.7,5.9
		C282.8,77.9,282.9,80,283.2,82.4z"/>
	<path class="st12" d="M378.8,85.6c-2.1-1.7-4.9-3.7-8.5-5.5c-3.4-1.7-6.5-2.8-9-3.6c1.5-2.2,3-3.8,4.1-5c1.5-1.5,3.6-3,7.9-6
		c1.3-0.9,2.5-1.7,3.7-1.4c0.7,0.2,1.1,0.9,1.6,1.9c1.3,2.8,1.5,5.4,1.6,6.1c0.1,1.6,0.1,3.8-0.2,6.7
		C379.8,80.6,379.5,82.9,378.8,85.6z"/>
	<path class="st14" d="M332,206.7c-0.4-0.1-0.9-0.3-1.5-0.4c-0.6-0.1-1.7-0.2-2.8,0.2c-1.6,0.6-2.3,2.1-2.5,2.5
		c0.1,0.4,0.1,0.7,0.2,1.1c0.1-0.2,0.2-0.4,0.4-0.6c0.1-0.2,1.2-1.6,3.1-2c1.6-0.4,2.8,0.3,3.2-0.3C332.1,207.2,332,206.9,332,206.7
		z"/>
	<path class="st14" d="M333.8,211.6c-0.4-0.1-0.9-0.1-1.6-0.1c-0.6,0-1.7,0.1-2.7,0.7c-1.4,0.9-1.9,2.4-2,2.9
		c0.1,0.4,0.2,0.7,0.3,1.1c0.1-0.2,0.1-0.4,0.3-0.7c0.1-0.2,0.9-1.8,2.7-2.5c1.6-0.6,2.8-0.2,3.1-0.8
		C334,212,333.9,211.7,333.8,211.6z"/>
	<path class="st14" d="M363.7,208.7c-0.4,0-0.9,0-1.6,0c-0.6,0.1-1.7,0.2-2.7,1c-1.4,1-1.7,2.6-1.7,3.1c0.1,0.3,0.3,0.7,0.4,1
		c0-0.2,0.1-0.4,0.2-0.7c0.1-0.2,0.8-1.8,2.4-2.7c1.5-0.8,2.8-0.4,3-1.1C363.9,209.1,363.8,208.9,363.7,208.7z"/>
	<path class="st14" d="M366.7,213c-0.4,0-0.9,0.1-1.6,0.3c-0.6,0.2-1.6,0.5-2.5,1.4c-1.2,1.2-1.2,2.8-1.2,3.3c0.2,0.3,0.4,0.6,0.6,1
		c0-0.2,0-0.4,0.1-0.7c0-0.2,0.4-1.9,2-3.1c1.3-1,2.7-0.9,2.8-1.6C366.9,213.3,366.8,213.1,366.7,213z"/>
</g>
<g id="cat_walk_1" class="st0">
	<path class="st1" d="M1084.9,129.5"/>
	<path class="st1" d="M1101.5,189.5"/>
	<path class="st1" d="M1099.5,123.7c15.9,2.6,28.2,0.4,31.8-0.3c1-0.2,5.1-1,10.2-2.7c4.8-1.6,10.1-3.4,15.9-7.5
		c1.3-0.9,2.2-1.7,2.9-2.3c0,0,2.8-2.5,2.8-2.5c2.8-2.4-2.8,2.5-2.8,2.5c-0.1-0.1,1-1.6,2.8-2.5c0.6-0.3,1.2-0.6,2-0.5
		c1.5,0.2,1.8,1.5,3.7,2.3c0.9,0.4,2.9,1,3.8,0.1c0.8-0.8,0.3-2.6-0.2-3.6c-0.2-0.4-0.4-1.1-1.5-1.8c-2-1.3-2.5-2.7-1.1-4.8
		c1.4-2.1,2.9-3,5.4-1.7c1.2,0.6,2.7,1,4,0.9c0.9,0,2.3-0.8,2.5-1.6c0.3-0.8-0.3-2.3-1-2.8c-0.7-0.6-1.1-0.5-3.7-1.7
		c-1.7-0.7-2.1-1-2.3-1.4c-0.3-0.6-0.3-1.3-0.3-2.2c0-0.8,0-1.2,0.2-1.6c0.5-1,1.6-1.4,3-1.5c3.3-0.2,3.9,0.1,5.8-0.6
		c1.3-0.5,3-1.7,2.9-2.8c-0.1-1.2-2.4-1.9-3.7-2.3c-3.5-1.1-5.2,0-6.4-1.2c-0.9-0.9-1-2.8-1.1-6.5c-0.6-17.5-2.7-34.8-7.3-51.8
		c-0.5-1.7-1.3-3.4-2.1-5.1c-2.2-5-6.3-6.5-10.9-3.5c-5.5,3.5-10.7,7.5-15.9,11.4c-1.8,1.4-3.3,3.2-5.3,4.4c-1.4,0.9-3.4,1.6-5,1.3
		c-10.3-2-20.4-2.1-30.7,0.1c-1.7,0.4-4.1-0.4-5.6-1.5c-7-4.9-13.7-10.2-20.7-15.2c-4.9-3.5-9.6-2.1-11.8,3.5c-1.1,3-2.2,6-2.9,9.1
		c-3.2,16.1-6.2,32.1-6,48.6c0,0.5,0,0.9-0.1,1.4c-0.5,5.5-0.5,5.4-6,5.1c-2.3-0.1-5.8-1.5-6.3,2.2c-0.5,3.7,3.3,2.6,5.3,3.2
		c1.5,0.4,3.2,0.3,4.8,0.6c2.7,0.5,3.4,2.7,1.6,4.8l0,0c-0.6,0.3-1.1,0.6-1.7,0.9c-0.2,0-0.4,0-0.6,0c-1.1,0.2-3,0.7-4.4,2.3
		c-0.3,0.4-1.9,2.1-1.3,3.2c0.4,0.7,1.4,0.9,2.1,1c1.5,0.2,2.5-0.2,6.2-1c1.6-0.4,2-0.4,2.5-0.3c1.2,0.3,2,1.4,2.8,2.7
		c1.3,2.2-0.1,3.4-1.7,4.5c-1,0.7-0.9,0.6-1.3,1c-0.9,0.9-2,2.8-1.2,4c0.6,1,2.1,1,2.2,1c1.3,0,2.2-1,2.3-1.1
		c0.5-0.5,1.3-1.2,2.5-1.8c0.7-0.3,1.4-0.7,2.3-0.6c1.1,0,1.8,0.6,4,2.4c1.4,1.2,2.5,2.1,3.2,2.7c2.2,1.4,5.2,3.1,8.9,4.8
		C1079.6,118.2,1087.8,121.8,1099.5,123.7z"/>
	<path class="st9" d="M1131.7,82.7c0-3.1,3.8-5.9,8.2-6c4-0.1,7.3,2.2,7.3,5c0,3.1-3.8,5.9-8.2,6C1135,87.7,1131.7,85.5,1131.7,82.7
		z"/>
	<path class="st10" d="M1114.6,89c-1.4,1.4-2.7,2.7-4.1,4.1c-0.2,0-0.4,0-0.5,0c-1.4-1.5-2.8-3-4.2-4.5c0.4-0.6,0.8-1.2,1.2-1.8
		c2.3,0.1,4.5,0.1,6.8,0.2C1114,87.6,1114.3,88.3,1114.6,89z"/>
	<path class="st9" d="M1084.3,87.6c-4.3,0-8.3-2.7-8.3-5.8c0-2.8,3.2-5.1,7.2-5.1c4.4,0,8.3,2.7,8.3,5.8
		C1091.5,85.3,1088.4,87.6,1084.3,87.6z"/>
	<path class="st11" d="M1100.4,93.4c0.1,0.6,0.6,2.8,2.2,4.2c0.7,0.6,1.5,1,2.3,1.1c1.8,0.2,3.1-0.9,3.7-1.4
		c1.8-1.5,2.2-3.5,2.3-4.2c-0.3,0-0.7,0-1,0c-0.1,0.3-0.3,0.7-0.5,1.1c-0.5,0.8-0.9,1.4-1.3,1.7c0,0-0.3,0.2-0.5,0.4
		c-0.2,0.1-1.9,1-3.4,0.3c-0.6-0.3-0.9-0.7-1.2-1c-1-1.2-1.1-2.6-1.1-3.3C1101.3,92.6,1100.8,93,1100.4,93.4z"/>
	<path class="st11" d="M1120.8,92.8c0,0.6-0.3,2.7-2,4.3c-0.4,0.4-2,1.9-4,1.6c-1.2-0.2-2-0.9-2.5-1.4c-1.6-1.5-2.1-3.3-2.2-4.2
		c0.3,0,0.6,0,0.8,0c0,0.2,0.1,0.4,0.2,0.6c0,0.1,0.1,0.3,0.3,0.5c0.1,0.2,0.4,0.6,0.7,1.1c0.2,0.2,0.7,0.8,1.4,1.1
		c1,0.5,2.3,0.5,3.3,0.1c1.5-0.7,2.5-2.3,2.5-4.2C1119.8,92.5,1120.3,92.6,1120.8,92.8z"/>
	<path class="st12" d="M1063.6,38.8c2.3-1.3,5.3-2.7,9.1-3.9c3.6-1.1,6.8-1.8,9.4-2.2c-1.2-2.1-2.5-3.7-3.5-4.9
		c-1.3-1.5-3.2-3.1-7.1-6.2c-1.2-0.9-2.3-1.8-3.5-1.6c-0.7,0.1-1.2,0.6-1.8,1.5c-1.7,2.4-2.2,4.6-2.3,5.3c-0.3,1.4-0.6,3.3-0.7,5.9
		C1063.3,34.3,1063.3,36.4,1063.6,38.8z"/>
	<path class="st12" d="M1159.3,42c-2.1-1.7-4.9-3.7-8.5-5.5c-3.4-1.7-6.5-2.8-9-3.6c1.5-2.2,3-3.8,4.1-5c1.5-1.5,3.6-3,7.9-6
		c1.3-0.9,2.5-1.7,3.7-1.4c0.7,0.2,1.1,0.9,1.6,1.9c1.3,2.8,1.5,5.4,1.6,6.1c0.1,1.6,0.1,3.8-0.2,6.7
		C1160.3,37,1159.9,39.3,1159.3,42z"/>
	<path class="st13" d="M1087.9,223.8c-7.9-0.9-13.6-5.2-14.2-10c-0.2-1.6,0-5.1,2.7-7.3c2-1.6,4.4-1.7,5.2-1.6
		c5.4-13.3,10.7-26.6,16.1-39.9c-0.1-3.6,1.8-6.9,4.9-8.7c4.6-2.6,9.1-0.3,9.4-0.1l1.7,0.7c6.3,2.5,9.4,9.7,6.8,16.1l-16.4,40.7
		c-0.2,0.9-1.8,6.2-7.1,8.9C1093,224.7,1089.1,224.1,1087.9,223.8z"/>
	<path class="st1" d="M1143.7,229.8c-7,3.8-14.1,3.5-17.3-0.1c-1.1-1.2-2.9-4.2-2-7.5c0.7-2.5,2.6-3.8,3.3-4.3
		c-3.2-14-6.3-28-9.5-42c-2.1-2.9-2.4-6.7-0.9-9.9c2.3-4.7,7.4-5.4,7.7-5.4l1.8-0.4c6.7-1.5,13.3,2.7,14.8,9.3l9.7,42.7
		c0.3,0.9,2,6.1-0.8,11.4C1148.4,227.6,1144.8,229.3,1143.7,229.8z"/>
	<path class="st14" d="M1081.9,209.3c-0.3-0.3-0.7-0.6-1.3-0.9c-0.5-0.3-1.5-0.8-2.7-0.8c-1.7,0-2.9,1.1-3.2,1.4
		c-0.1,0.4-0.2,0.7-0.3,1.1c0.1-0.1,0.3-0.3,0.6-0.4c0.2-0.1,1.7-1,3.6-0.7c1.7,0.3,2.5,1.3,3.1,0.9
		C1081.9,209.7,1081.9,209.5,1081.9,209.3z"/>
	<path class="st14" d="M1081.8,214.5c-0.3-0.2-0.8-0.5-1.4-0.7c-0.6-0.2-1.6-0.6-2.8-0.4c-1.7,0.3-2.7,1.5-3,1.9
		c0,0.4-0.1,0.7-0.1,1.1c0.1-0.1,0.3-0.3,0.5-0.5c0.2-0.1,1.5-1.3,3.4-1.3c1.7,0,2.7,0.9,3.2,0.4
		C1081.8,214.9,1081.8,214.7,1081.8,214.5z"/>
	<path class="st14" d="M1129.7,221.9c-0.4,0.1-0.9,0.2-1.5,0.4c-0.6,0.2-1.6,0.6-2.4,1.5c-1.1,1.3-1,2.9-1,3.4
		c0.2,0.3,0.4,0.6,0.7,0.9c0-0.2,0-0.4,0.1-0.7c0-0.2,0.3-2,1.8-3.2c1.3-1.1,2.6-1,2.7-1.7C1130,222.2,1129.8,222,1129.7,221.9z"/>
	<path class="st14" d="M1133.6,225.4c-0.4,0.1-0.9,0.3-1.4,0.6c-0.5,0.3-1.5,0.9-2.1,1.9c-0.9,1.5-0.6,3-0.4,3.5
		c0.3,0.3,0.5,0.5,0.8,0.8c0-0.2-0.1-0.4-0.1-0.7c0-0.2,0-2,1.2-3.4c1.1-1.3,2.4-1.5,2.4-2.2
		C1133.9,225.7,1133.7,225.5,1133.6,225.4z"/>
	<path class="st1" d="M1243.4,127.1c-5.8,2.6-11.2,2.5-14,2.3c2.1,6.5,4.2,13,6.4,19.5c19.2-1.7,34.6-11.2,37.9-23.9
		c2-7.6-0.1-17.4-3.9-24.4c-4.4-8.2-9.1-9.3-11.8-18.4c-0.8-2.9-3.2-11.1,1.2-16.2c3-3.5,7.9-4.2,9.6-4.4c5-0.6,6.3,1.4,12.9,1.2
		c3.6-0.1,7.9-0.2,9.5-3c1.7-2.9-0.5-6.9-0.7-7.3c-4.1-7.4-16.3-7.5-19.7-7.5c-1.7,0-11.3,0.1-20.3,6.6c-1.8,1.3-4.6,3.4-7.1,7.1
		c-3.3,5-3.8,9.8-4.3,13.6c-0.4,3.4-1.1,10.5,2,18.2c2.6,6.4,5,5.9,8.9,14c2.6,5.5,4.8,10.1,3.1,14.6
		C1251.4,123.5,1246.9,125.5,1243.4,127.1z"/>
	<path class="st13" d="M1178.9,230.6c-7.9,0.6-14.3-2.6-15.8-7.2c-0.5-1.5-1-5,1.3-7.7c1.7-2,4-2.4,4.8-2.6
		c2.8-14.1,5.6-28.1,8.4-42.2c-0.7-3.5,0.5-7.1,3.2-9.4c4-3.4,8.9-1.9,9.3-1.8l1.8,0.4c6.7,1.3,11,7.8,9.7,14.5l-8.5,43
		c-0.1,0.9-0.6,6.4-5.4,10.1C1184.1,230.5,1180.2,230.6,1178.9,230.6z"/>
	<path class="st1" d="M1236.3,225.4c-5.5,5.8-12.4,7.7-16.5,5.3c-1.4-0.8-4.1-3.1-4.2-6.5c-0.1-2.6,1.3-4.5,1.8-5.1
		c-7.4-12.3-14.8-24.6-22.1-36.9c-2.9-2.1-4.4-5.6-4-9.2c0.7-5.2,5.3-7.4,5.6-7.6l1.6-1c5.8-3.5,13.4-1.6,16.9,4.2l22.6,37.6
		c0.6,0.7,3.8,5.1,2.8,11.1C1240.1,221.9,1237.3,224.6,1236.3,225.4z"/>
	<path class="st1" d="M1231.7,178.3c4.9-7.9,5.4-15.6,5.7-20.6c0.7-10.2-1.7-18.4-3.4-23.1c-2-2.7-5.3-6.6-10.2-10
		c-5.4-3.7-9.9-5-18.6-7.4c-4.6-1.3-13.1-3.4-24.3-4.1c-2-0.1-3.5-0.2-6.9-0.3c-18.1-0.4-27.2-0.6-35.8-0.2c-13,0.7-19.6,1-26.2,3.4
		c-5.9,2.1-15,5.5-21.1,14.6c-4.1,6.1-5.3,12.4-5.6,14.6c-0.4,2.2-1.1,6.6-0.2,12c0.6,3.3,1.6,6.2,2.1,7.7c0.8,2.3,1.6,4.1,2.1,5.1
		c3.9,7.8,9.5,12.3,12.1,14.3c3.9,3,7.3,4.7,12.5,7.3c1,0.5,2,1,2.9,1.4c0,0,3,1.4,5.7,2.4c3.2,1.2,13.9,3.1,28.5,3.8
		c5.2,0,10.4,0,15.7,0c4.9,0.4,11.7,0.6,19.7,0c7.6-0.6,14.3-0.8,22.1-3.7C1213.7,193.6,1224.8,189.4,1231.7,178.3z"/>
	<path class="st14" d="M1170.4,217.4c-0.3-0.2-0.8-0.5-1.4-0.7c-0.6-0.2-1.6-0.5-2.8-0.3c-1.7,0.3-2.6,1.6-2.9,2
		c0,0.4,0,0.8-0.1,1.1c0.1-0.1,0.3-0.3,0.5-0.5c0.2-0.2,1.5-1.3,3.4-1.4c1.7,0,2.7,0.8,3.2,0.3
		C1170.4,217.8,1170.4,217.6,1170.4,217.4z"/>
	<path class="st14" d="M1171.2,222.5c-0.4-0.1-0.9-0.3-1.5-0.4c-0.6-0.1-1.7-0.3-2.8,0.2c-1.6,0.6-2.3,2-2.5,2.5
		c0,0.4,0.1,0.7,0.1,1.1c0.1-0.1,0.2-0.4,0.4-0.6c0.1-0.2,1.3-1.6,3.1-1.9c1.6-0.3,2.8,0.4,3.2-0.2
		C1171.3,223,1171.3,222.7,1171.2,222.5z"/>
	<path class="st14" d="M1220.5,222.3c-0.3,0.2-0.8,0.4-1.3,0.9c-0.5,0.4-1.3,1.1-1.8,2.2c-0.6,1.6-0.1,3.1,0.1,3.5
		c0.3,0.2,0.6,0.4,0.9,0.7c-0.1-0.2-0.1-0.4-0.2-0.7c0-0.2-0.3-2,0.7-3.6c0.9-1.4,2.2-1.8,2-2.5
		C1220.9,222.5,1220.7,222.4,1220.5,222.3z"/>
	<path class="st14" d="M1225.3,224.4c-0.3,0.2-0.7,0.6-1.2,1.1c-0.4,0.5-1.1,1.3-1.4,2.5c-0.4,1.6,0.4,3.1,0.7,3.5
		c0.3,0.2,0.7,0.3,1,0.5c-0.1-0.2-0.2-0.4-0.3-0.7c-0.1-0.2-0.6-1.9,0.1-3.6c0.6-1.5,1.8-2.1,1.6-2.8
		C1225.7,224.6,1225.5,224.5,1225.3,224.4z"/>
</g>
</svg>
