<?xml version="1.0" encoding="utf-8"?>
<!-- Generator: Adobe Illustrator 23.0.3, SVG Export Plug-In . SVG Version: 6.00 Build 0)  -->
<svg version="1.1" xmlns="http://www.w3.org/2000/svg" xmlns:xlink="http://www.w3.org/1999/xlink" x="0px" y="0px"
	 viewBox="0 0 217.9 250.2" style="enable-background:new 0 0 217.9 250.2;" xml:space="preserve">
<style type="text/css">
	.st0{display:none;}
	.st1{display:inline;fill:#3E355E;}
	.st2{display:inline;fill:#E6E6E6;}
	.st3{display:inline;}
	.st4{fill:#E6E6E6;}
	.st5{fill:#20201E;}
	.st6{fill:#CC3E63;}
	.st7{fill:#E5385D;}
	.st8{fill:#FF99A3;}
	.st9{fill:#8E5960;}
	.st10{display:none;fill:#20201E;}
	.st11{display:none;fill:#E5385D;}
	.st12{display:inline;fill:#20201E;}
	.st13{display:inline;fill:#CC3E63;}
	.st14{display:inline;fill:#E5385D;}
	.st15{display:inline;fill:#FF99A3;}
	.st16{display:inline;fill:#D6D6D6;}
	.st17{display:inline;fill:#8E5960;}
	.st18{display:inline;fill:#CCCCCC;}
	.st19{fill:#846F75;}
</style>
<g id="Ebene_14" class="st0">
	<path class="st1" d="M2357.5,260.6H10.7c-21.4,0-38.8-17.4-38.8-38.8V-40.6c0-21.4,17.4-38.8,38.8-38.8h2346.8
		c21.4,0,38.8,17.4,38.8,38.8v262.4C2396.4,243.2,2379,260.6,2357.5,260.6z"/>
</g>
<g id="cat_sit" class="st0">
	<path class="st2" d="M727.7,210c0,0-2.6-5.8-9-12.1c-0.2-0.2-1.1-1.1-2.4-1.8c-0.2-0.1-0.5-0.2-0.9-0.4c-1.9-0.8-2.6-1.2-2.9-1.3
		c-2.5-0.9-7.5,5.8-8,6.4c-2.6,3.5-2.7,5.3-4.6,8.3c-0.2,0.4-0.9,1.4-1.2,2.9c-0.1,0.5-0.2,0.9-0.2,1.2c1,0.6,2.1,1.3,3.2,2.3
		c0.6,0.6,1.2,1.1,1.7,1.6c0,0,0.9,1.1,1.3,2.6c0.9,4.4-1.2,9-6,10.5c-5.4,1.7-11.2,3.3-16.8,3.6c-12.3,0.6-24.7,0.2-37.1,0.3
		c-5.2,0-9.8,1.4-13,5.4c-4.4,10,2.6,18.6,14.6,17.8c8.5-0.6,17-0.2,25.5-0.7c9.5-0.6,19-1.3,28.4-2.8c15-2.3,24.6-10.4,29.2-23.2
		c1.3-3.5,1.3-6.7,1.2-9.1C730.5,216.3,728.8,212.4,727.7,210z"/>
	<g id="Ebene_2" class="st3">
		<path class="st4" d="M708.9,205.2c3.7-5,5-10,5.9-13.7c0.3-1.1,0.9-3.8,1.2-7.4c1.1-12.1-2.4-22.7-3.6-26.3
			c-3.4-10.1-8.5-17.6-12.5-22.6c-2.3-2.4-5.4-5.5-9.5-8.7c-3.8-3-7.8-6.2-13.7-9.1c-7-3.4-14.6-5.5-22.7-6.3
			c-1.5-0.1-3.1-0.4-5.9-0.7c-9.2-1-21.2-2.2-35.7-1.5c-12.7,0.6-19.1,0.8-26.2,3.4c-5.9,2.1-15,5.5-21.1,14.6
			c-4.1,6.1-5.3,12.4-5.6,14.6c-0.4,2.2-1.1,6.6-0.2,12c0.6,3.3,1.6,6.2,2.1,7.7c0.8,2.3,1.6,4.1,2.1,5.1
			c3.9,7.8,9.5,12.3,12.1,14.3c3.9,3,7.3,4.7,12.5,7.3c3.7,1.8,6.5,3,8.6,3.8c9.1,3.7,18.6,7.1,26.1,9.7c2.5,0.3,6.4,0.4,11.1-0.3
			c-0.7,3.7-1.8,6.6-1.8,9.6c-0.1,7.2,3.9,12.5,11,13.2c8,0.8,16.1,0.5,24.2,0.2c8.9-0.4,17.4-3,25.5-6.6c3.6-1.6,6-3.3,7.3-4.2
			C702.6,211.5,705.9,209.2,708.9,205.2z"/>
		<path class="st4" d="M792.2,125.7"/>
	</g>
	<g id="Ebene_5" class="st3">
	</g>
	<g id="Ebene_1" class="st3">
		<path class="st4" d="M573.8,120c15.9,2.6,28.2,0.4,31.8-0.3c1-0.2,5.1-1,10.2-2.7c4.8-1.6,10.1-3.4,15.9-7.5
			c1.3-0.9,2.2-1.7,2.9-2.3c0,0,2.8-2.5,2.8-2.5c2.8-2.4-2.8,2.5-2.8,2.5c-0.1-0.1,1-1.6,2.8-2.5c0.6-0.3,1.2-0.6,2-0.5
			c1.5,0.2,1.8,1.5,3.7,2.3c0.9,0.4,2.9,1,3.8,0.1c0.8-0.8,0.3-2.6-0.2-3.6c-0.2-0.4-0.4-1.1-1.5-1.8c-2-1.3-2.5-2.7-1.1-4.8
			c1.4-2.1,2.9-3,5.4-1.7c1.2,0.6,2.7,1,4,0.9c0.9,0,2.3-0.8,2.5-1.6c0.3-0.8-0.3-2.3-1-2.8c-0.7-0.6-1.1-0.5-3.7-1.7
			c-1.7-0.7-2.1-1-2.3-1.4c-0.3-0.6-0.3-1.3-0.3-2.2c0-0.8,0-1.2,0.2-1.6c0.5-1,1.6-1.4,3-1.5c3.3-0.2,3.9,0.1,5.8-0.6
			c1.3-0.5,3-1.7,2.9-2.8c-0.1-1.2-2.4-1.9-3.7-2.3c-3.5-1.1-5.2,0-6.4-1.2c-0.9-0.9-1-2.8-1.1-6.5c-0.6-17.5-2.7-34.8-7.3-51.8
			c-0.5-1.7-1.3-3.4-2.1-5.1c-2.2-5-6.3-6.5-10.9-3.5c-5.5,3.5-10.7,7.5-15.9,11.4c-1.8,1.4-3.3,3.2-5.3,4.4c-1.4,0.9-3.4,1.6-5,1.3
			c-10.3-2-20.4-2.1-30.7,0.1c-1.7,0.4-4.1-0.4-5.6-1.5c-7-4.9-13.7-10.2-20.7-15.2c-4.9-3.5-9.6-2.1-11.8,3.5c-1.1,3-2.2,6-2.9,9.1
			c-3.2,16.1-6.2,32.1-6,48.6c0,0.5,0,0.9-0.1,1.4c-0.5,5.5-0.5,5.4-6,5.1c-2.3-0.1-5.8-1.5-6.3,2.2c-0.5,3.7,3.3,2.6,5.3,3.2
			c1.5,0.4,3.2,0.3,4.8,0.6c2.7,0.5,3.4,2.7,1.6,4.8l0,0c-0.6,0.3-1.1,0.6-1.7,0.9c-0.2,0-0.4,0-0.6,0c-1.1,0.2-3,0.7-4.4,2.3
			c-0.3,0.4-1.9,2.1-1.3,3.2c0.4,0.7,1.4,0.9,2.1,1c1.5,0.2,2.5-0.2,6.2-1c1.6-0.4,2-0.4,2.5-0.3c1.2,0.3,2,1.4,2.8,2.7
			c1.3,2.2-0.1,3.4-1.7,4.5c-1,0.7-0.9,0.6-1.3,1c-0.9,0.9-2,2.8-1.2,4c0.6,1,2.1,1,2.2,1c1.3,0,2.2-1,2.3-1.1
			c0.5-0.5,1.3-1.2,2.5-1.8c0.7-0.3,1.4-0.7,2.3-0.6c1.1,0,1.8,0.6,4,2.4c1.4,1.2,2.5,2.1,3.2,2.7c2.2,1.4,5.2,3.1,8.9,4.8
			C553.9,114.4,562.1,118.1,573.8,120z"/>
		<path class="st5" d="M606,78.9c0-3.1,3.8-5.9,8.2-6c4-0.1,7.3,2.2,7.3,5c0,3.1-3.8,5.9-8.2,6C609.3,84,606,81.7,606,78.9z"/>
		<path class="st6" d="M588.9,85.2c-1.4,1.4-2.7,2.7-4.1,4.1c-0.2,0-0.4,0-0.5,0c-1.4-1.5-2.8-3-4.2-4.5c0.4-0.6,0.8-1.2,1.2-1.8
			c2.3,0.1,4.5,0.1,6.8,0.2C588.3,83.9,588.6,84.5,588.9,85.2z"/>
		<path class="st5" d="M558.6,83.9c-4.3,0-8.3-2.7-8.3-5.8c0-2.8,3.2-5.1,7.2-5.1c4.4,0,8.3,2.7,8.3,5.8
			C565.8,81.6,562.7,83.8,558.6,83.9z"/>
		<path class="st7" d="M574.7,89.7c0.1,0.6,0.6,2.8,2.2,4.2c0.7,0.6,1.5,1,2.3,1.1c1.8,0.2,3.1-0.9,3.7-1.4c1.8-1.5,2.2-3.5,2.3-4.2
			c-0.3,0-0.7,0-1,0c-0.1,0.3-0.3,0.7-0.5,1.1c-0.5,0.8-0.9,1.4-1.3,1.7c0,0-0.3,0.2-0.5,0.4c-0.2,0.1-1.9,1-3.4,0.3
			c-0.6-0.3-0.9-0.7-1.2-1c-1-1.2-1.1-2.6-1.1-3.3C575.6,88.9,575.1,89.3,574.7,89.7z"/>
		<path class="st7" d="M595.1,89c0,0.6-0.3,2.7-2,4.3c-0.4,0.4-2,1.9-4,1.6c-1.2-0.2-2-0.9-2.5-1.4c-1.6-1.5-2.1-3.3-2.2-4.2
			c0.3,0,0.6,0,0.8,0c0,0.2,0.1,0.4,0.2,0.6c0,0.1,0.1,0.3,0.3,0.5c0.1,0.2,0.4,0.6,0.7,1.1c0.2,0.2,0.7,0.8,1.4,1.1
			c1,0.5,2.3,0.5,3.3,0.1c1.5-0.7,2.5-2.3,2.5-4.2C594.1,88.7,594.6,88.9,595.1,89z"/>
		<path class="st8" d="M537.9,35c2.3-1.3,5.3-2.7,9.1-3.9c3.6-1.1,6.8-1.8,9.4-2.2c-1.2-2.1-2.5-3.7-3.5-4.9
			c-1.3-1.5-3.2-3.1-7.1-6.2c-1.2-0.9-2.3-1.8-3.5-1.6c-0.7,0.1-1.2,0.6-1.8,1.5c-1.7,2.4-2.2,4.6-2.3,5.3c-0.3,1.4-0.6,3.3-0.7,5.9
			C537.6,30.5,537.6,32.6,537.9,35z"/>
		<path class="st8" d="M633.6,38.2c-2.1-1.7-4.9-3.7-8.5-5.5c-3.4-1.7-6.5-2.8-9-3.6c1.5-2.2,3-3.8,4.1-5c1.5-1.5,3.6-3,7.9-6
			c1.3-0.9,2.5-1.7,3.7-1.4c0.7,0.2,1.1,0.9,1.6,1.9c1.3,2.8,1.5,5.4,1.6,6.1c0.1,1.6,0.1,3.8-0.2,6.7
			C634.6,33.2,634.2,35.5,633.6,38.2z"/>
	</g>
	<g id="Ebene_3" class="st3">
		<path class="st4" d="M577.6,226.1c-7.7,2.1-14.6,0.2-16.9-4c-0.8-1.4-1.9-4.8-0.3-7.8c1.2-2.3,3.4-3.2,4.2-3.4c0-14.3,0-28.7,0-43
			c-1.4-3.3-0.9-7.1,1.3-9.9c3.3-4.1,8.4-3.6,8.7-3.6h1.8c6.8,0,12.3,5.5,12.3,12.3v43.8c0.1,0.9,0.7,6.4-3.3,11
			C582.6,225,578.8,225.8,577.6,226.1z"/>
		<path class="st4" d="M808.8,185.7"/>
		<path class="st4" d="M610.3,227.6c-7.7,2.1-14.6,0.2-16.9-4c-0.8-1.4-1.9-4.8-0.3-7.8c1.2-2.3,3.4-3.2,4.2-3.4c0-14.3,0-28.7,0-43
			c-1.4-3.3-0.9-7.1,1.3-9.9c3.3-4.1,8.4-3.6,8.7-3.6h1.9c6.8,0,12.3,5.5,12.3,12.3v43.8c0.1,0.9,0.7,6.4-3.3,11
			C615.3,226.5,611.5,227.4,610.3,227.6z"/>
		<path class="st9" d="M566.6,214.8c-0.4-0.1-0.9-0.3-1.5-0.4c-0.6-0.1-1.7-0.2-2.8,0.2c-1.6,0.6-2.3,2.1-2.5,2.5
			c0.1,0.4,0.1,0.7,0.2,1.1c0.1-0.2,0.2-0.4,0.4-0.6c0.1-0.2,1.2-1.6,3.1-2c1.6-0.4,2.8,0.3,3.2-0.3
			C566.7,215.2,566.7,215,566.6,214.8z"/>
		<path class="st9" d="M568.5,219.7c-0.4-0.1-0.9-0.1-1.6-0.1c-0.6,0-1.7,0.1-2.7,0.7c-1.4,0.9-1.9,2.4-2,2.9
			c0.1,0.4,0.2,0.7,0.3,1.1c0.1-0.2,0.1-0.4,0.3-0.7c0.1-0.2,0.9-1.8,2.7-2.5c1.6-0.6,2.8-0.2,3.1-0.8
			C568.6,220.1,568.5,219.8,568.5,219.7z"/>
		<path class="st9" d="M598.3,216.8c-0.4,0-0.9,0-1.6,0c-0.6,0.1-1.7,0.2-2.7,1c-1.4,1-1.7,2.6-1.7,3.1c0.1,0.3,0.3,0.7,0.4,1
			c0-0.2,0.1-0.4,0.2-0.7c0.1-0.2,0.8-1.8,2.4-2.7c1.5-0.8,2.8-0.4,3-1.1C598.5,217.2,598.4,217,598.3,216.8z"/>
		<path class="st9" d="M601.3,221.1c-0.4,0-0.9,0.1-1.6,0.3c-0.6,0.2-1.6,0.5-2.5,1.4c-1.2,1.2-1.2,2.8-1.2,3.3
			c0.2,0.3,0.4,0.6,0.6,1c0-0.2,0-0.4,0.1-0.7c0-0.2,0.4-1.9,2-3.1c1.3-1,2.7-0.9,2.8-1.6C601.6,221.4,601.5,221.2,601.3,221.1z"/>
	</g>
</g>
<g id="cat_pet">
	<path class="st4" d="M214.9,202.7c0,0-2.6-5.8-9-12.1c-0.2-0.2-1.1-1.1-2.4-1.8c-0.2-0.1-0.5-0.2-0.9-0.4c-1.9-0.8-2.6-1.2-2.9-1.3
		c-2.5-0.9-7.5,5.8-8,6.4c-2.6,3.5-2.7,5.3-4.6,8.3c-0.2,0.4-0.9,1.4-1.2,2.9c-0.1,0.5-0.2,0.9-0.2,1.2c1,0.6,2.1,1.3,3.2,2.3
		c0.6,0.6,1.2,1.1,1.7,1.6c0,0,0.9,1.1,1.3,2.6c0.9,4.4-1.2,9-6,10.5c-5.4,1.7-11.2,3.3-16.8,3.6c-12.3,0.6-24.7,0.2-37.1,0.3
		c-5.2,0-9.8,1.4-13,5.4c-4.4,10,2.6,18.6,14.6,17.8c8.5-0.6,17-0.2,25.5-0.7c9.5-0.6,19-1.3,28.4-2.8c15-2.3,24.6-10.4,29.2-23.2
		c1.3-3.5,1.3-6.7,1.2-9.1C217.6,209,215.9,205,214.9,202.7z"/>
	<path class="st4" d="M196,197.8c3.7-5,4.9-10,5.9-13.7c0.3-1.1,0.9-3.8,1.2-7.4c1.1-12.1-2.4-22.7-3.6-26.3
		c-3.4-10.1-8.5-17.6-12.5-22.6c-2.3-2.4-5.4-5.5-9.5-8.7c-3.8-3-7.8-6.2-13.7-9.1c-7-3.4-14.6-5.5-22.7-6.3
		c-1.5-0.1-3.1-0.4-5.9-0.7c-9.2-1-21.2-2.2-35.6-1.5c-12.7,0.6-19.1,0.8-26.2,3.4c-5.9,2.1-15,5.5-21.1,14.6
		c-4.1,6.1-5.3,12.4-5.6,14.6c-0.4,2.2-1.1,6.6-0.2,12c0.6,3.3,1.6,6.2,2.1,7.7c0.8,2.3,1.6,4.1,2.1,5.1c3.9,7.8,9.5,12.3,12.1,14.3
		c3.9,3,7.3,4.7,12.5,7.3c3.7,1.8,6.5,3,8.6,3.8c9.1,3.7,18.6,7.1,26.1,9.7c2.5,0.3,6.4,0.4,11.1-0.3c-0.7,3.7-1.8,6.6-1.8,9.6
		c-0.1,7.2,3.9,12.5,11,13.2c8,0.8,16.1,0.5,24.2,0.2c8.9-0.4,17.4-3,25.5-6.6c3.6-1.6,6-3.3,7.3-4.2
		C189.8,204.1,193.1,201.8,196,197.8z"/>
	<path class="st4" d="M60.9,112.6c15.9,2.6,28.2,0.4,31.8-0.3c1-0.2,5.1-1,10.2-2.7c4.8-1.6,10.1-3.4,15.9-7.5
		c1.3-0.9,2.2-1.7,2.9-2.3c0,0,2.8-2.5,2.8-2.5c2.8-2.4-2.8,2.5-2.8,2.5c-0.1-0.1,1-1.6,2.8-2.5c0.6-0.3,1.2-0.6,2-0.5
		c1.5,0.2,1.8,1.5,3.7,2.3c0.9,0.4,2.9,1,3.8,0.1c0.8-0.8,0.3-2.6-0.2-3.6c-0.2-0.4-0.4-1.1-1.5-1.8c-2-1.3-2.5-2.7-1.1-4.8
		c1.4-2.1,2.9-3,5.4-1.7c1.2,0.6,2.7,1,4,0.9c0.9,0,2.3-0.8,2.5-1.6c0.3-0.8-0.3-2.3-1-2.8c-0.7-0.6-1.1-0.5-3.7-1.7
		c-1.7-0.7-2.1-1-2.3-1.4c-0.3-0.6-0.3-1.3-0.3-2.2c0-0.8,0-1.2,0.2-1.6c0.5-1,1.6-1.4,3-1.5c3.3-0.2,3.9,0.1,5.8-0.6
		c1.3-0.5,3-1.7,2.9-2.8c-0.1-1.2-2.4-1.9-3.7-2.3c-3.5-1.1-5.2,0-6.4-1.2c-0.9-0.9-1-2.8-1.1-6.5c-0.6-17.5-2.7-34.8-7.3-51.8
		c-0.5-1.7-1.3-3.4-2.1-5.1c-2.2-5-6.3-6.5-10.9-3.5c-5.5,3.5-10.7,7.5-15.9,11.4c-1.8,1.4-3.3,3.2-5.3,4.4c-1.4,0.9-3.4,1.6-5,1.3
		c-10.3-2-20.4-2.1-30.7,0.1c-1.7,0.4-4.1-0.4-5.6-1.5C46.7,12.2,40,6.9,33,1.9c-4.9-3.5-9.6-2.1-11.8,3.5c-1.1,3-2.2,6-2.9,9.1
		c-3.2,16.1-6.2,32.1-6,48.6c0,0.5,0,0.9-0.1,1.4c-0.5,5.5-0.5,5.4-6,5.1C4,69.5,0.5,68.2,0,71.8c-0.5,3.7,3.3,2.6,5.3,3.2
		c1.5,0.4,3.2,0.3,4.8,0.6c2.7,0.5,3.4,2.7,1.6,4.8l0,0c-0.6,0.3-1.1,0.6-1.7,0.9c-0.2,0-0.4,0-0.6,0c-1.1,0.2-3,0.7-4.4,2.3
		c-0.3,0.4-1.9,2.1-1.3,3.2c0.4,0.7,1.4,0.9,2.1,1c1.5,0.2,2.5-0.2,6.2-1c1.6-0.4,2-0.4,2.5-0.3c1.2,0.3,2,1.4,2.8,2.7
		c1.3,2.2-0.1,3.4-1.7,4.5c-1,0.7-0.9,0.6-1.3,1c-0.9,0.9-2,2.8-1.2,4c0.6,1,2.1,1,2.2,1c1.3,0,2.2-1,2.3-1.1
		c0.5-0.5,1.3-1.2,2.5-1.8c0.7-0.3,1.4-0.7,2.3-0.6c1.1,0,1.8,0.6,4,2.4c1.4,1.2,2.5,2.1,3.2,2.7c2.2,1.4,5.2,3.1,8.9,4.8
		C41,107.1,49.2,110.7,60.9,112.6z"/>
	<path class="st6" d="M64.5,61.2c-1.4,1.4-2.7,2.7-4.1,4.1c-0.2,0-0.4,0-0.5,0c-1.4-1.5-2.8-3-4.2-4.5c0.4-0.6,0.8-1.2,1.2-1.8
		c2.3,0.1,4.5,0.1,6.8,0.2C63.9,59.9,64.2,60.6,64.5,61.2z"/>
	<path class="st10" d="M43.2,59.2c-1.5-0.9-4.1-2.2-7.6-2.7c-3.7-0.5-6.8,0.2-8.4,0.7c0.2-0.2,4-4.2,9.4-3.1
		C40.9,55,42.9,58.6,43.2,59.2z"/>
	<path class="st7" d="M50.2,65.7c0.1,0.6,0.6,2.8,2.2,4.2c0.7,0.6,1.5,1,2.3,1.1c1.8,0.2,3.1-0.9,3.7-1.4c1.8-1.5,2.2-3.5,2.3-4.2
		c-0.3,0-0.7,0-1,0c-0.1,0.3-0.3,0.7-0.5,1.1c-0.5,0.8-0.9,1.4-1.3,1.7c0,0-0.3,0.2-0.5,0.4c-0.2,0.1-1.9,1-3.4,0.3
		c-0.6-0.3-0.9-0.7-1.2-1c-1-1.2-1.1-2.6-1.1-3.3C51.2,64.9,50.7,65.3,50.2,65.7z"/>
	<path class="st7" d="M70.6,65.1c0,0.6-0.3,2.7-2,4.3c-0.4,0.4-2,1.9-4,1.6c-1.2-0.2-2-0.9-2.5-1.4c-1.6-1.5-2.1-3.3-2.2-4.2
		c0.3,0,0.6,0,0.8,0c0.1,0.2,0.1,0.4,0.2,0.6c0,0.1,0.1,0.3,0.3,0.5c0.1,0.2,0.4,0.6,0.7,1.1c0.2,0.2,0.7,0.8,1.4,1.1
		c1,0.5,2.3,0.5,3.3,0.1c1.5-0.7,2.5-2.3,2.5-4.2C69.7,64.8,70.1,64.9,70.6,65.1z"/>
	<path class="st8" d="M25.1,27.7c2.3-1.3,5.3-2.7,9.1-3.9c3.6-1.1,6.8-1.8,9.4-2.2c-1.2-2.1-2.5-3.7-3.5-4.9
		c-1.3-1.5-3.2-3.1-7.1-6.2c-1.2-0.9-2.3-1.8-3.5-1.6c-0.7,0.1-1.2,0.6-1.8,1.5c-1.7,2.4-2.2,4.6-2.3,5.3c-0.3,1.4-0.6,3.3-0.7,5.9
		C24.7,23.2,24.7,25.2,25.1,27.7z"/>
	<path class="st8" d="M120.7,30.9c-2.1-1.7-4.9-3.7-8.5-5.5c-3.4-1.7-6.5-2.8-9-3.6c1.5-2.2,3-3.8,4.1-5c1.5-1.5,3.6-3,7.9-6
		c1.3-0.9,2.5-1.7,3.7-1.4c0.7,0.2,1.1,0.9,1.6,1.9c1.3,2.8,1.5,5.4,1.6,6.1c0.1,1.6,0.1,3.8-0.2,6.7
		C121.7,25.9,121.4,28.2,120.7,30.9z"/>
	<path class="st4" d="M64.7,218.7c-7.7,2.1-14.6,0.2-16.9-4c-0.8-1.4-1.9-4.8-0.3-7.8c1.2-2.3,3.4-3.2,4.2-3.4c0-14.3,0-28.7,0-43
		c-1.4-3.3-0.9-7.1,1.3-9.9c3.3-4.1,8.4-3.6,8.7-3.6h1.9c6.8,0,12.3,5.5,12.3,12.3v43.8c0.1,0.9,0.7,6.4-3.3,11
		C69.8,217.6,66,218.5,64.7,218.7z"/>
	<path class="st4" d="M97.4,220.3c-7.7,2.1-14.6,0.2-16.9-4c-0.8-1.4-1.9-4.8-0.3-7.8c1.2-2.3,3.4-3.2,4.2-3.4c0-14.3,0-28.7,0-43
		c-1.4-3.3-0.9-7.1,1.3-9.9c3.3-4.1,8.4-3.6,8.7-3.6h1.9c6.8,0,12.3,5.5,12.3,12.3v43.8c0.1,0.9,0.7,6.4-3.3,11
		C102.4,219.2,98.6,220,97.4,220.3z"/>
	<path class="st9" d="M53.8,207.5c-0.4-0.1-0.9-0.3-1.5-0.4c-0.6-0.1-1.7-0.2-2.8,0.2c-1.6,0.6-2.3,2.1-2.5,2.5
		c0.1,0.4,0.1,0.7,0.2,1.1c0.1-0.2,0.2-0.4,0.4-0.6c0.1-0.2,1.2-1.6,3.1-2c1.6-0.4,2.8,0.3,3.2-0.3
		C53.9,207.9,53.8,207.6,53.8,207.5z"/>
	<path class="st9" d="M55.6,212.3c-0.4-0.1-0.9-0.1-1.6-0.1c-0.6,0-1.7,0.1-2.7,0.7c-1.4,0.9-1.9,2.4-2,2.9c0.1,0.4,0.2,0.7,0.3,1.1
		c0.1-0.2,0.1-0.4,0.3-0.7c0.1-0.2,0.9-1.8,2.7-2.5c1.6-0.6,2.8-0.2,3.1-0.8C55.8,212.7,55.7,212.5,55.6,212.3z"/>
	<path class="st9" d="M85.5,209.5c-0.4,0-0.9,0-1.6,0c-0.6,0.1-1.7,0.2-2.7,1c-1.4,1-1.7,2.6-1.7,3.1c0.1,0.3,0.3,0.7,0.4,1
		c0-0.2,0.1-0.4,0.2-0.7c0.1-0.2,0.8-1.8,2.4-2.7c1.5-0.8,2.8-0.4,3-1.1C85.7,209.9,85.6,209.6,85.5,209.5z"/>
	<path class="st9" d="M88.5,213.7c-0.4,0-0.9,0.1-1.6,0.3c-0.6,0.2-1.6,0.5-2.5,1.4c-1.2,1.2-1.2,2.8-1.2,3.3c0.2,0.3,0.4,0.6,0.6,1
		c0-0.2,0-0.4,0.1-0.7c0-0.2,0.4-1.9,2-3.1c1.3-1,2.7-0.9,2.8-1.6C88.7,214.1,88.6,213.8,88.5,213.7z"/>
	<path class="st10" d="M87.5,53.9c5.7-0.8,9.4,3.7,9.5,3.9c-1.7-0.7-4.8-1.6-8.7-1.3c-3.7,0.2-6.5,1.4-8.1,2.2
		C80.6,58.1,82.9,54.5,87.5,53.9z"/>
	<path class="st11" d="M180,15.5c-2.5-1.8-6-0.8-7.9,0.4c-2.4,1.4-3.4,3.7-3.7,4.8c-0.4-1.1-1.4-3.3-3.7-4.8
		c-1.9-1.2-5.5-2.2-7.9-0.4c-2.3,1.7-2.3,5-2.3,5.9c0,0.8,0.1,3.6,4.1,8.5c1.8,2.2,4.9,5.4,9.7,8.2c0,0,0,0,0,0.1c0,0,0,0,0,0
		c0,0,0,0,0,0c0,0,0,0,0-0.1c4.8-2.8,7.9-6,9.7-8.2c4-4.8,4.1-7.7,4.1-8.5C182.3,20.5,182.3,17.2,180,15.5z"/>
	<path class="st5" d="M81.6,54.4c0-3.1,3.8-5.9,8.2-6c4-0.1,7.3,2.2,7.3,5c0,3.1-3.8,5.9-8.2,6C84.9,59.4,81.6,57.2,81.6,54.4z"/>
	<path class="st5" d="M38.9,59.3c-4.3,0-8.3-2.7-8.3-5.8c0-2.8,3.2-5.1,7.2-5.1c4.4,0,8.3,2.7,8.3,5.8C46.2,57,43,59.3,38.9,59.3z"
		/>
</g>
<g id="cat_stand" class="st0">
	<g id="Ebene_4" class="st3">
		<path class="st4" d="M939,174.5c4.9-7.9,5.4-15.6,5.7-20.6c0.7-10.2-1.7-18.4-3.4-23.1c-2-2.7-5.3-6.6-10.2-10
			c-5.4-3.7-9.9-5-18.6-7.4c-4.6-1.3-13.1-3.4-24.3-4.1c-2-0.1-3.5-0.2-6.9-0.3c-18.1-0.4-27.2-0.6-35.8-0.2
			c-13,0.7-19.6,1-26.2,3.4c-5.9,2.1-15,5.5-21.1,14.6c-4.1,6.1-5.3,12.4-5.6,14.6c-0.4,2.2-1.1,6.6-0.2,12c0.6,3.3,1.6,6.2,2.1,7.7
			c0.8,2.3,1.6,4.1,2.1,5.1c3.9,7.8,9.5,12.3,12.1,14.3c3.9,3,7.3,4.7,12.5,7.3c1,0.5,2,1,2.9,1.4c0,0,3,1.4,5.7,2.4
			c3.2,1.2,13.9,3.1,28.5,3.8c5.2,0,10.4,0,15.7,0c4.9,0.4,11.7,0.6,19.7,0c7.6-0.6,14.3-0.8,22.1-3.7
			C921,189.8,932.1,185.7,939,174.5z"/>
		<path class="st4" d="M806.8,120c15.9,2.6,28.2,0.4,31.8-0.3c1-0.2,5.1-1,10.2-2.7c4.8-1.6,10.1-3.4,15.9-7.5
			c1.3-0.9,2.2-1.7,2.9-2.3c0,0,2.8-2.5,2.8-2.5c2.8-2.4-2.8,2.5-2.8,2.5c-0.1-0.1,1-1.6,2.8-2.5c0.6-0.3,1.2-0.6,2-0.5
			c1.5,0.2,1.8,1.5,3.7,2.3c0.9,0.4,2.9,1,3.8,0.1c0.8-0.8,0.3-2.6-0.2-3.6c-0.2-0.4-0.4-1.1-1.5-1.8c-2-1.3-2.5-2.7-1.1-4.8
			c1.4-2.1,2.9-3,5.4-1.7c1.2,0.6,2.7,1,4,0.9c0.9,0,2.3-0.8,2.5-1.6c0.3-0.8-0.3-2.3-1-2.8c-0.7-0.6-1.1-0.5-3.7-1.7
			c-1.7-0.7-2.1-1-2.3-1.4c-0.3-0.6-0.3-1.3-0.3-2.2c0-0.8,0-1.2,0.2-1.6c0.5-1,1.6-1.4,3-1.5c3.3-0.2,3.9,0.1,5.8-0.6
			c1.3-0.5,3-1.7,2.9-2.8c-0.1-1.2-2.4-1.9-3.7-2.3c-3.5-1.1-5.2,0-6.4-1.2c-0.9-0.9-1-2.8-1.1-6.5c-0.6-17.5-2.7-34.8-7.3-51.8
			c-0.5-1.7-1.3-3.4-2.1-5.1c-2.2-5-6.3-6.5-10.9-3.5c-5.5,3.5-10.7,7.5-15.9,11.4c-1.8,1.4-3.3,3.2-5.3,4.4c-1.4,0.9-3.4,1.6-5,1.3
			c-10.3-2-20.4-2.1-30.7,0.1c-1.7,0.4-4.1-0.4-5.6-1.5c-7-4.9-13.7-10.2-20.7-15.2c-4.9-3.5-9.6-2.1-11.8,3.5c-1.1,3-2.2,6-2.9,9.1
			c-3.2,16.1-6.2,32.1-6,48.6c0,0.5,0,0.9-0.1,1.4c-0.5,5.5-0.5,5.4-6,5.1c-2.3-0.1-5.8-1.5-6.3,2.2c-0.5,3.7,3.3,2.6,5.3,3.2
			c1.5,0.4,3.2,0.3,4.8,0.6c2.7,0.5,3.4,2.7,1.6,4.8l0,0c-0.6,0.3-1.1,0.6-1.7,0.9c-0.2,0-0.4,0-0.6,0c-1.1,0.2-3,0.7-4.4,2.3
			c-0.3,0.4-1.9,2.1-1.3,3.2c0.4,0.7,1.4,0.9,2.1,1c1.5,0.2,2.5-0.2,6.2-1c1.6-0.4,2-0.4,2.5-0.3c1.2,0.3,2,1.4,2.8,2.7
			c1.3,2.2-0.1,3.4-1.7,4.5c-1,0.7-0.9,0.6-1.3,1c-0.9,0.9-2,2.8-1.2,4c0.6,1,2.1,1,2.2,1c1.3,0,2.2-1,2.3-1.1
			c0.5-0.5,1.3-1.2,2.5-1.8c0.7-0.3,1.4-0.7,2.3-0.6c1.1,0,1.8,0.6,4,2.4c1.4,1.2,2.5,2.1,3.2,2.7c2.2,1.4,5.2,3.1,8.9,4.8
			C786.9,114.4,795.1,118.1,806.8,120z"/>
		<path class="st5" d="M839,78.9c0-3.1,3.8-5.9,8.2-6c4-0.1,7.3,2.2,7.3,5c0,3.1-3.8,5.9-8.2,6C842.3,84,839,81.7,839,78.9z"/>
		<path class="st6" d="M821.9,85.2c-1.4,1.4-2.7,2.7-4.1,4.1c-0.2,0-0.4,0-0.5,0c-1.4-1.5-2.8-3-4.2-4.5c0.4-0.6,0.8-1.2,1.2-1.8
			c2.3,0.1,4.5,0.1,6.8,0.2C821.3,83.9,821.6,84.5,821.9,85.2z"/>
		<path class="st5" d="M791.6,83.9c-4.3,0-8.3-2.7-8.3-5.8c0-2.8,3.2-5.1,7.2-5.1c4.4,0,8.3,2.7,8.3,5.8
			C798.8,81.6,795.7,83.8,791.6,83.9z"/>
		<path class="st7" d="M807.7,89.7c0.1,0.6,0.6,2.8,2.2,4.2c0.7,0.6,1.5,1,2.3,1.1c1.8,0.2,3.1-0.9,3.7-1.4c1.8-1.5,2.2-3.5,2.3-4.2
			c-0.3,0-0.7,0-1,0c-0.1,0.3-0.3,0.7-0.5,1.1c-0.5,0.8-0.9,1.4-1.3,1.7c0,0-0.3,0.2-0.5,0.4c-0.2,0.1-1.9,1-3.4,0.3
			c-0.6-0.3-0.9-0.7-1.2-1c-1-1.2-1.1-2.6-1.1-3.3C808.6,88.9,808.1,89.3,807.7,89.7z"/>
		<path class="st7" d="M828.1,89c0,0.6-0.3,2.7-2,4.3c-0.4,0.4-2,1.9-4,1.6c-1.2-0.2-2-0.9-2.5-1.4c-1.6-1.5-2.1-3.3-2.2-4.2
			c0.3,0,0.6,0,0.8,0c0,0.2,0.1,0.4,0.2,0.6c0,0.1,0.1,0.3,0.3,0.5c0.1,0.2,0.4,0.6,0.7,1.1c0.2,0.2,0.7,0.8,1.4,1.1
			c1,0.5,2.3,0.5,3.3,0.1c1.5-0.7,2.5-2.3,2.5-4.2C827.1,88.7,827.6,88.9,828.1,89z"/>
		<path class="st8" d="M770.9,35c2.3-1.3,5.3-2.7,9.1-3.9c3.6-1.1,6.8-1.8,9.4-2.2c-1.2-2.1-2.5-3.7-3.5-4.9
			c-1.3-1.5-3.2-3.1-7.1-6.2c-1.2-0.9-2.3-1.8-3.5-1.6c-0.7,0.1-1.2,0.6-1.8,1.5c-1.7,2.4-2.2,4.6-2.3,5.3c-0.3,1.4-0.6,3.3-0.7,5.9
			C770.6,30.5,770.6,32.6,770.9,35z"/>
		<path class="st8" d="M866.6,38.2c-2.1-1.7-4.9-3.7-8.5-5.5c-3.4-1.7-6.5-2.8-9-3.6c1.5-2.2,3-3.8,4.1-5c1.5-1.5,3.6-3,7.9-6
			c1.3-0.9,2.5-1.7,3.7-1.4c0.7,0.2,1.1,0.9,1.6,1.9c1.3,2.8,1.5,5.4,1.6,6.1c0.1,1.6,0.1,3.8-0.2,6.7
			C867.6,33.2,867.2,35.5,866.6,38.2z"/>
		<path class="st4" d="M810.6,226.1c-7.7,2.1-14.6,0.2-16.9-4c-0.8-1.4-1.9-4.8-0.3-7.8c1.2-2.3,3.4-3.2,4.2-3.4c0-14.3,0-28.7,0-43
			c-1.4-3.3-0.9-7.1,1.3-9.9c3.3-4.1,8.4-3.6,8.7-3.6h1.8c6.8,0,12.3,5.5,12.3,12.3v43.8c0.1,0.9,0.7,6.4-3.3,11
			C815.6,225,811.8,225.8,810.6,226.1z"/>
		<path class="st4" d="M843.3,227.6c-7.7,2.1-14.6,0.2-16.9-4c-0.8-1.4-1.9-4.8-0.3-7.8c1.2-2.3,3.4-3.2,4.2-3.4c0-14.3,0-28.7,0-43
			c-1.4-3.3-0.9-7.1,1.3-9.9c3.3-4.1,8.4-3.6,8.7-3.6h1.9c6.8,0,12.3,5.5,12.3,12.3v43.8c0.1,0.9,0.7,6.4-3.3,11
			C848.3,226.5,844.5,227.4,843.3,227.6z"/>
		<path class="st9" d="M799.6,214.8c-0.4-0.1-0.9-0.3-1.5-0.4c-0.6-0.1-1.7-0.2-2.8,0.2c-1.6,0.6-2.3,2.1-2.5,2.5
			c0.1,0.4,0.1,0.7,0.2,1.1c0.1-0.2,0.2-0.4,0.4-0.6c0.1-0.2,1.2-1.6,3.1-2c1.6-0.4,2.8,0.3,3.2-0.3
			C799.7,215.2,799.7,215,799.6,214.8z"/>
		<path class="st9" d="M801.5,219.7c-0.4-0.1-0.9-0.1-1.6-0.1c-0.6,0-1.7,0.1-2.7,0.7c-1.4,0.9-1.9,2.4-2,2.9
			c0.1,0.4,0.2,0.7,0.3,1.1c0.1-0.2,0.1-0.4,0.3-0.7c0.1-0.2,0.9-1.8,2.7-2.5c1.6-0.6,2.8-0.2,3.1-0.8
			C801.6,220.1,801.5,219.8,801.5,219.7z"/>
		<path class="st9" d="M831.3,216.8c-0.4,0-0.9,0-1.6,0c-0.6,0.1-1.7,0.2-2.7,1c-1.4,1-1.7,2.6-1.7,3.1c0.1,0.3,0.3,0.7,0.4,1
			c0-0.2,0.1-0.4,0.2-0.7c0.1-0.2,0.8-1.8,2.4-2.7c1.5-0.8,2.8-0.4,3-1.1C831.5,217.2,831.4,217,831.3,216.8z"/>
		<path class="st9" d="M834.3,221.1c-0.4,0-0.9,0.1-1.6,0.3c-0.6,0.2-1.6,0.5-2.5,1.4c-1.2,1.2-1.2,2.8-1.2,3.3
			c0.2,0.3,0.4,0.6,0.6,1c0-0.2,0-0.4,0.1-0.7c0-0.2,0.4-1.9,2-3.1c1.3-1,2.7-0.9,2.8-1.6C834.6,221.4,834.5,221.2,834.3,221.1z"/>
		<path class="st4" d="M950.7,123.3c-5.8,2.6-11.2,2.5-14,2.3c2.1,6.5,4.2,13,6.4,19.5c19.2-1.7,34.6-11.2,37.9-23.9
			c2-7.6-0.1-17.4-3.9-24.4c-4.4-8.2-9.1-9.3-11.8-18.4c-0.8-2.9-3.2-11.1,1.2-16.2c3-3.5,7.9-4.2,9.6-4.4c5-0.6,6.3,1.4,12.9,1.2
			c3.6-0.1,7.9-0.2,9.5-3c1.7-2.9-0.5-6.9-0.7-7.3c-4.1-7.4-16.3-7.5-19.7-7.5c-1.7,0-11.3,0.1-20.3,6.6c-1.8,1.3-4.6,3.4-7.1,7.1
			c-3.3,5-3.8,9.8-4.3,13.6c-0.4,3.4-1.1,10.5,2,18.2c2.6,6.4,5,5.9,8.9,14c2.6,5.5,4.8,10.1,3.1,14.6
			C958.7,119.7,954.2,121.8,950.7,123.3z"/>
		<path class="st4" d="M893.2,226.9c-7.7,2.1-14.6,0.2-16.9-4c-0.8-1.4-1.9-4.8-0.3-7.8c1.2-2.3,3.4-3.2,4.2-3.4c0-14.3,0-28.7,0-43
			c-1.4-3.3-0.9-7.1,1.3-9.9c3.3-4.1,8.4-3.6,8.7-3.6h1.9c6.8,0,12.3,5.5,12.3,12.3v43.8c0.1,0.9,0.7,6.4-3.3,11
			C898.2,225.7,894.4,226.6,893.2,226.9z"/>
		<path class="st4" d="M925.9,228.4c-7.7,2.1-14.6,0.2-16.9-4c-0.8-1.4-1.9-4.8-0.3-7.8c1.2-2.3,3.4-3.2,4.2-3.4c0-14.3,0-28.7,0-43
			c-1.4-3.3-0.9-7.1,1.3-9.9c3.3-4.1,8.4-3.6,8.7-3.6h1.8c6.8,0,12.3,5.5,12.3,12.3v43.8c0.1,0.9,0.7,6.4-3.3,11
			C930.9,227.3,927.1,228.2,925.9,228.4z"/>
		<path class="st9" d="M882.2,215.6c-0.4-0.1-0.9-0.3-1.5-0.4c-0.6-0.1-1.7-0.2-2.8,0.2c-1.6,0.6-2.3,2.1-2.5,2.5
			c0.1,0.4,0.1,0.7,0.2,1.1c0.1-0.2,0.2-0.4,0.4-0.6c0.1-0.2,1.2-1.6,3.1-2c1.6-0.4,2.8,0.3,3.2-0.3
			C882.3,216,882.3,215.8,882.2,215.6z"/>
		<path class="st9" d="M884.1,220.5c-0.4-0.1-0.9-0.1-1.6-0.1c-0.6,0-1.7,0.1-2.7,0.7c-1.4,0.9-1.9,2.4-2,2.9
			c0.1,0.4,0.2,0.7,0.3,1.1c0.1-0.2,0.1-0.4,0.3-0.7c0.1-0.2,0.9-1.8,2.7-2.5c1.6-0.6,2.8-0.2,3.1-0.8
			C884.2,220.9,884.1,220.6,884.1,220.5z"/>
		<path class="st9" d="M913.9,217.6c-0.4,0-0.9,0-1.6,0c-0.6,0.1-1.7,0.2-2.7,1c-1.4,1-1.7,2.6-1.7,3.1c0.1,0.3,0.3,0.7,0.4,1
			c0-0.2,0.1-0.4,0.2-0.7c0.1-0.2,0.8-1.8,2.4-2.7c1.5-0.8,2.8-0.4,3-1.1C914.1,218,914,217.8,913.9,217.6z"/>
		<path class="st9" d="M916.9,221.8c-0.4,0-0.9,0.1-1.6,0.3c-0.6,0.2-1.6,0.5-2.5,1.4c-1.2,1.2-1.2,2.8-1.2,3.3
			c0.2,0.3,0.4,0.6,0.6,1c0-0.2,0-0.4,0.1-0.7c0-0.2,0.4-1.9,2-3.1c1.3-1,2.7-0.9,2.8-1.6C917.2,222.2,917,222,916.9,221.8z"/>
	</g>
</g>
<g id="cat_walk_2" class="st0">
	<path class="st2" d="M1408.5,125.5"/>
	<path class="st2" d="M1425.1,185.5"/>
	<path class="st2" d="M1423.1,119.8c15.9,2.6,28.2,0.4,31.8-0.3c1-0.2,5.1-1,10.2-2.7c4.8-1.6,10.1-3.4,15.9-7.5
		c1.3-0.9,2.2-1.7,2.9-2.3c0,0,2.8-2.5,2.8-2.5c2.8-2.4-2.8,2.5-2.8,2.5c-0.1-0.1,1-1.6,2.8-2.5c0.6-0.3,1.2-0.6,2-0.5
		c1.5,0.2,1.8,1.5,3.7,2.3c0.9,0.4,2.9,1,3.8,0.1c0.8-0.8,0.3-2.6-0.2-3.6c-0.2-0.4-0.4-1.1-1.5-1.8c-2-1.3-2.5-2.7-1.1-4.8
		c1.4-2.1,2.9-3,5.4-1.7c1.2,0.6,2.7,1,4,0.9c0.9,0,2.3-0.8,2.5-1.6c0.3-0.8-0.3-2.3-1-2.8c-0.7-0.6-1.1-0.5-3.7-1.7
		c-1.7-0.7-2.1-1-2.3-1.4c-0.3-0.6-0.3-1.3-0.3-2.2c0-0.8,0-1.2,0.2-1.6c0.5-1,1.6-1.4,3-1.5c3.3-0.2,3.9,0.1,5.8-0.6
		c1.3-0.5,3-1.7,2.9-2.8c-0.1-1.2-2.4-1.9-3.7-2.3c-3.5-1.1-5.2,0-6.4-1.2c-0.9-0.9-1-2.8-1.1-6.5c-0.6-17.5-2.7-34.8-7.3-51.8
		c-0.5-1.7-1.3-3.4-2.1-5.1c-2.2-5-6.3-6.5-10.9-3.5c-5.5,3.5-10.7,7.5-15.9,11.4c-1.8,1.4-3.3,3.2-5.3,4.4c-1.4,0.9-3.4,1.6-5,1.3
		c-10.3-2-20.4-2.1-30.7,0.1c-1.7,0.4-4.1-0.4-5.6-1.5c-7-4.9-13.7-10.2-20.7-15.2c-4.9-3.5-9.6-2.1-11.8,3.5c-1.1,3-2.2,6-2.9,9.1
		c-3.2,16.1-6.2,32.1-6,48.6c0,0.5,0,0.9-0.1,1.4c-0.5,5.5-0.5,5.4-6,5.1c-2.3-0.1-5.8-1.5-6.3,2.2c-0.5,3.7,3.3,2.6,5.3,3.2
		c1.5,0.4,3.2,0.3,4.8,0.6c2.7,0.5,3.4,2.7,1.6,4.8l0,0c-0.6,0.3-1.1,0.6-1.7,0.9c-0.2,0-0.4,0-0.6,0c-1.1,0.2-3,0.7-4.4,2.3
		c-0.3,0.4-1.9,2.1-1.3,3.2c0.4,0.7,1.4,0.9,2.1,1c1.5,0.2,2.5-0.2,6.2-1c1.6-0.4,2-0.4,2.5-0.3c1.2,0.3,2,1.4,2.8,2.7
		c1.3,2.2-0.1,3.4-1.7,4.5c-1,0.7-0.9,0.6-1.3,1c-0.9,0.9-2,2.8-1.2,4c0.6,1,2.1,1,2.2,1c1.3,0,2.2-1,2.3-1.1
		c0.5-0.5,1.3-1.2,2.5-1.8c0.7-0.3,1.4-0.7,2.3-0.6c1.1,0,1.8,0.6,4,2.4c1.4,1.2,2.5,2.1,3.2,2.7c2.2,1.4,5.2,3.1,8.9,4.8
		C1403.2,114.2,1411.4,117.8,1423.1,119.8z"/>
	<path class="st12" d="M1455.3,78.7c0-3.1,3.8-5.9,8.2-6c4-0.1,7.3,2.2,7.3,5c0,3.1-3.8,5.9-8.2,6
		C1458.6,83.7,1455.4,81.5,1455.3,78.7z"/>
	<path class="st13" d="M1438.3,85c-1.4,1.4-2.7,2.7-4.1,4.1c-0.2,0-0.4,0-0.5,0c-1.4-1.5-2.8-3-4.2-4.5c0.4-0.6,0.8-1.2,1.2-1.8
		c2.3,0.1,4.5,0.1,6.8,0.2C1437.7,83.6,1438,84.3,1438.3,85z"/>
	<path class="st12" d="M1408,83.6c-4.3,0-8.3-2.7-8.3-5.8c0-2.8,3.2-5.1,7.2-5.1c4.4,0,8.3,2.7,8.3,5.8
		C1415.2,81.3,1412,83.6,1408,83.6z"/>
	<path class="st14" d="M1424,89.5c0.1,0.6,0.6,2.8,2.2,4.2c0.7,0.6,1.5,1,2.3,1.1c1.8,0.2,3.1-0.9,3.7-1.4c1.8-1.5,2.2-3.5,2.3-4.2
		c-0.3,0-0.7,0-1,0c-0.1,0.3-0.3,0.7-0.5,1.1c-0.5,0.8-0.9,1.4-1.3,1.7c0,0-0.3,0.2-0.5,0.4c-0.2,0.1-1.9,1-3.4,0.3
		c-0.6-0.3-0.9-0.7-1.2-1c-1-1.2-1.1-2.6-1.1-3.3C1425,88.7,1424.5,89.1,1424,89.5z"/>
	<path class="st14" d="M1444.4,88.8c0,0.6-0.3,2.7-2,4.3c-0.4,0.4-2,1.9-4,1.6c-1.2-0.2-2-0.9-2.5-1.4c-1.6-1.5-2.1-3.3-2.2-4.2
		c0.3,0,0.6,0,0.8,0c0.1,0.2,0.1,0.4,0.2,0.6c0,0.1,0.1,0.3,0.3,0.5c0.1,0.2,0.4,0.6,0.7,1.1c0.2,0.2,0.7,0.8,1.4,1.1
		c1,0.5,2.3,0.5,3.3,0.1c1.5-0.7,2.5-2.3,2.5-4.2C1443.4,88.5,1443.9,88.6,1444.4,88.8z"/>
	<path class="st15" d="M1387.3,34.8c2.3-1.3,5.3-2.7,9.1-3.9c3.6-1.1,6.8-1.8,9.4-2.2c-1.2-2.1-2.5-3.7-3.5-4.9
		c-1.3-1.5-3.2-3.1-7.1-6.2c-1.2-0.9-2.3-1.8-3.5-1.6c-0.7,0.1-1.2,0.6-1.8,1.5c-1.7,2.4-2.2,4.6-2.3,5.3c-0.3,1.4-0.6,3.3-0.7,5.9
		C1386.9,30.3,1386.9,32.4,1387.3,34.8z"/>
	<path class="st15" d="M1482.9,38c-2.1-1.7-4.9-3.7-8.5-5.5c-3.4-1.7-6.5-2.8-9-3.6c1.5-2.2,3-3.8,4.1-5c1.5-1.5,3.6-3,7.9-6
		c1.3-0.9,2.5-1.7,3.7-1.4c0.7,0.2,1.1,0.9,1.6,1.9c1.3,2.8,1.5,5.4,1.6,6.1c0.1,1.6,0.1,3.8-0.2,6.7
		C1483.9,33,1483.6,35.3,1482.9,38z"/>
	<path class="st16" d="M1460.5,228.6c-7.1,3.7-14.2,3.3-17.3-0.3c-1-1.2-2.9-4.2-1.9-7.6c0.7-2.5,2.7-3.8,3.4-4.3
		c-3-14-6.1-28-9.1-42c-2.1-2.9-2.4-6.8-0.8-9.9c2.3-4.7,7.4-5.3,7.8-5.4l1.8-0.4c6.7-1.4,13.2,2.8,14.7,9.4l9.3,42.8
		c0.3,0.9,2,6.1-0.9,11.4C1465.2,226.4,1461.7,228.1,1460.5,228.6z"/>
	<path class="st2" d="M1396.9,213.1c-7-3.8-10.6-9.9-9.4-14.6c0.4-1.5,1.9-4.8,5.2-5.8c2.5-0.8,4.7,0.1,5.4,0.5
		c10-10.3,19.9-20.6,29.9-30.9c1.3-3.3,4.3-5.7,7.8-6.2c5.2-0.7,8.6,3.2,8.8,3.5l1.3,1.3c4.9,4.7,5,12.6,0.3,17.4l-30.5,31.5
		c-0.6,0.7-4,5-10,5.6C1401.3,215.8,1398,213.8,1396.9,213.1z"/>
	<path class="st17" d="M1447.4,219.9c-0.4,0-0.9-0.1-1.6,0c-0.6,0.1-1.7,0.2-2.7,0.8c-1.4,1-1.8,2.5-1.9,3c0.1,0.4,0.3,0.7,0.4,1.1
		c0-0.2,0.1-0.4,0.2-0.7c0.1-0.2,0.8-1.8,2.6-2.6c1.5-0.7,2.8-0.3,3-1C1447.6,220.3,1447.5,220,1447.4,219.9z"/>
	<path class="st17" d="M1450.2,224.2c-0.4,0-0.9,0.1-1.6,0.2c-0.6,0.2-1.7,0.4-2.5,1.3c-1.2,1.2-1.3,2.8-1.4,3.3
		c0.2,0.3,0.4,0.7,0.6,1c0-0.2,0.1-0.4,0.1-0.7c0.1-0.2,0.5-1.9,2.1-3c1.4-0.9,2.7-0.8,2.9-1.5
		C1450.5,224.6,1450.3,224.4,1450.2,224.2z"/>
	<path class="st17" d="M1395.9,197c-0.3-0.3-0.6-0.7-1.2-1.1c-0.5-0.4-1.4-1-2.6-1.2c-1.7-0.2-3,0.7-3.4,1c-0.1,0.4-0.3,0.7-0.4,1.1
		c0.1-0.1,0.4-0.2,0.6-0.3c0.2-0.1,1.8-0.8,3.6-0.3c1.6,0.5,2.3,1.6,2.9,1.3C1395.7,197.5,1395.8,197.2,1395.9,197z"/>
	<path class="st17" d="M1395.1,202.2c-0.3-0.2-0.7-0.6-1.3-0.9c-0.6-0.3-1.5-0.8-2.7-0.7c-1.7,0.1-2.8,1.2-3.2,1.6
		c-0.1,0.4-0.2,0.7-0.2,1.1c0.1-0.1,0.3-0.3,0.6-0.4c0.2-0.1,1.7-1.1,3.6-0.8c1.7,0.2,2.6,1.2,3.1,0.8
		C1395,202.6,1395.1,202.3,1395.1,202.2z"/>
	<path class="st2" d="M1567.1,123.1c-5.8,2.6-11.2,2.5-14,2.3c2.1,6.5,4.2,13,6.4,19.5c19.2-1.7,34.6-11.2,37.9-23.9
		c2-7.6-0.1-17.4-3.9-24.4c-4.4-8.2-9.1-9.3-11.8-18.4c-0.8-2.9-3.2-11.1,1.2-16.2c3-3.5,7.9-4.2,9.6-4.4c5-0.6,6.3,1.4,12.9,1.2
		c3.6-0.1,7.9-0.2,9.5-3c1.7-2.9-0.5-6.9-0.7-7.3c-4.1-7.4-16.3-7.5-19.7-7.5c-1.7,0-11.3,0.1-20.3,6.6c-1.8,1.3-4.6,3.4-7.1,7.1
		c-3.3,5-3.8,9.8-4.3,13.6c-0.4,3.4-1.1,10.5,2,18.2c2.6,6.4,5,5.9,8.9,14c2.6,5.5,4.8,10.1,3.1,14.6
		C1575.1,119.5,1570.5,121.5,1567.1,123.1z"/>
	<path class="st16" d="M1568,217.1c-4.4,6.7-10.8,9.8-15.3,8.1c-1.5-0.6-4.6-2.3-5.3-5.7c-0.5-2.5,0.5-4.6,0.9-5.4
		c-9.5-10.8-18.9-21.6-28.4-32.3c-3.2-1.6-5.4-4.8-5.5-8.3c-0.3-5.2,3.9-8.3,4.2-8.5l1.4-1.2c5.1-4.5,12.9-4,17.4,1.1l28.9,32.9
		c0.7,0.6,4.7,4.4,4.8,10.4C1571,212.9,1568.8,216.1,1568,217.1z"/>
	<path class="st2" d="M1519.5,231.8c-7.8,1.5-14.5-0.9-16.5-5.3c-0.7-1.5-1.6-4.9,0.4-7.8c1.4-2.2,3.7-2.9,4.5-3.1
		c1.1-14.3,2.2-28.6,3.4-42.9c-1.1-3.4-0.3-7.2,2.1-9.8c3.6-3.8,8.7-3,9-2.9l1.8,0.1c6.8,0.5,11.9,6.5,11.3,13.3l-3.4,43.7
		c0,0.9,0.1,6.4-4.1,10.7C1524.6,231.1,1520.8,231.7,1519.5,231.8z"/>
	<path class="st2" d="M1555.3,174.3c4.9-7.9,5.4-15.6,5.7-20.6c0.7-10.2-1.7-18.4-3.4-23.1c-2-2.7-5.3-6.6-10.2-10
		c-5.4-3.7-9.9-5-18.6-7.4c-4.6-1.3-13.1-3.4-24.3-4.1c-2-0.1-3.5-0.2-6.9-0.3c-18.1-0.4-27.2-0.6-35.8-0.2c-13,0.7-19.6,1-26.2,3.4
		c-5.9,2.1-15,5.5-21.1,14.6c-4.1,6.1-5.3,12.4-5.6,14.6c-0.4,2.2-1.1,6.6-0.2,12c0.6,3.3,1.6,6.2,2.1,7.7c0.8,2.3,1.6,4.1,2.1,5.1
		c3.9,7.8,9.5,12.3,12.1,14.3c3.9,3,7.3,4.7,12.5,7.3c1,0.5,2,1,2.9,1.4c0,0,3,1.4,5.7,2.4c3.2,1.2,13.9,3.1,28.5,3.8
		c5.2,0,10.4,0,15.7,0c4.9,0.4,11.7,0.6,19.7,0c7.6-0.6,14.3-0.8,22.1-3.7C1537.3,189.6,1548.4,185.5,1555.3,174.3z"/>
	<path class="st17" d="M1552.3,215.9c-0.4,0.1-0.9,0.4-1.4,0.7c-0.5,0.3-1.4,1-2,2c-0.8,1.5-0.3,3.1-0.2,3.5
		c0.3,0.2,0.6,0.5,0.9,0.7c0-0.2-0.1-0.4-0.1-0.7c0-0.2-0.1-2,1-3.5c1-1.4,2.3-1.6,2.2-2.3C1552.7,216.1,1552.5,215.9,1552.3,215.9z
		"/>
	<path class="st17" d="M1556.9,218.3c-0.3,0.2-0.8,0.5-1.3,1c-0.4,0.4-1.2,1.2-1.6,2.3c-0.5,1.6,0.2,3.1,0.4,3.5
		c0.3,0.2,0.6,0.4,1,0.6c-0.1-0.2-0.2-0.4-0.2-0.7c-0.1-0.2-0.5-1.9,0.4-3.6c0.8-1.5,2-2,1.8-2.7
		C1557.3,218.5,1557.1,218.4,1556.9,218.3z"/>
	<path class="st17" d="M1508.5,220.1c-0.4-0.1-0.9-0.1-1.6-0.1c-0.6,0-1.7,0.1-2.7,0.7c-1.4,0.9-1.9,2.5-2,2.9
		c0.1,0.4,0.2,0.7,0.4,1.1c0.1-0.2,0.1-0.4,0.3-0.7c0.1-0.2,0.9-1.8,2.6-2.5c1.5-0.7,2.8-0.2,3.1-0.9
		C1508.6,220.5,1508.6,220.3,1508.5,220.1z"/>
	<path class="st17" d="M1511.2,224.6c-0.4,0-0.9,0-1.6,0.2c-0.6,0.1-1.7,0.4-2.6,1.2c-1.3,1.1-1.4,2.7-1.5,3.2
		c0.2,0.3,0.4,0.7,0.5,1c0-0.2,0.1-0.4,0.2-0.7c0.1-0.2,0.6-1.9,2.2-2.9c1.4-0.9,2.8-0.7,2.9-1.4
		C1511.4,225,1511.3,224.7,1511.2,224.6z"/>
</g>
<g id="cat_eat" class="st0">
	<path class="st2" d="M493,201.1c0,0-2.6-5.8-9-12.1c-0.2-0.2-1.1-1.1-2.4-1.8c-0.2-0.1-0.5-0.2-0.9-0.4c-1.9-0.8-2.6-1.2-2.9-1.3
		c-2.5-0.9-7.5,5.8-8,6.4c-2.6,3.5-2.7,5.3-4.6,8.3c-0.2,0.4-0.9,1.4-1.2,2.9c-0.1,0.5-0.2,0.9-0.2,1.2c1,0.6,2.1,1.3,3.2,2.3
		c0.6,0.6,1.2,1.1,1.7,1.6c0,0,0.9,1.1,1.3,2.6c0.9,4.4-1.2,9-6,10.5c-5.4,1.7-11.2,3.3-16.8,3.6c-12.3,0.6-24.7,0.2-37.1,0.3
		c-5.2,0-9.8,1.4-13,5.4c-4.4,10,2.6,18.6,14.6,17.8c8.5-0.6,17-0.2,25.5-0.7c9.5-0.6,19-1.3,28.4-2.8c15-2.3,24.6-10.4,29.2-23.2
		c1.3-3.5,1.3-6.7,1.2-9.1C495.8,207.4,494.1,203.4,493,201.1z"/>
	<path class="st2" d="M375.6,218.7c-7.7,2.1-14.6,0.2-16.9-4c-0.8-1.4-1.9-4.8-0.3-7.8c1.2-2.3,3.4-3.2,4.2-3.4c0-14.3,0-28.7,0-43
		c-1.4-3.3-0.9-7.1,1.3-9.9c3.3-4.1,8.4-3.6,8.7-3.6h1.9c6.8,0,12.3,5.5,12.3,12.3v43.8c0.1,0.9,0.7,6.4-3.3,11
		C380.6,217.5,376.8,218.4,375.6,218.7z"/>
	<path class="st2" d="M342.9,217.1c-7.7,2.1-14.6,0.2-16.9-4c-0.8-1.4-1.9-4.8-0.3-7.8c1.2-2.3,3.4-3.2,4.2-3.4c0-14.3,0-28.7,0-43
		c-1.4-3.3-0.9-7.1,1.3-9.9c3.3-4.1,8.4-3.6,8.7-3.6h1.9c6.8,0,12.3,5.5,12.3,12.3v43.8c0.1,0.9,0.7,6.4-3.3,11
		C348,216,344.2,216.9,342.9,217.1z"/>
	<path class="st2" d="M474.2,196.2c3.7-5,4.9-10,5.9-13.7c0.3-1.1,0.9-3.8,1.2-7.4c1.1-12.1-2.4-22.7-3.6-26.3
		c-3.4-10.1-8.5-17.6-12.5-22.6c-2.3-2.4-5.4-5.5-9.5-8.7c-3.8-3-7.8-6.2-13.7-9.1c-7-3.4-14.6-5.5-22.7-6.3
		c-1.5-0.1-3.1-0.4-5.9-0.7c-9.2-1-21.2-2.2-35.6-1.5c-12.7,0.6-19.1,0.8-26.2,3.4c-5.9,2.1-15,5.5-21.1,14.6
		c-4.1,6.1-5.3,12.4-5.6,14.6c-0.4,2.2-1.1,6.6-0.2,12c0.6,3.3,1.6,6.2,2.1,7.7c0.8,2.3,1.6,4.1,2.1,5.1c3.9,7.8,9.5,12.3,12.1,14.3
		c3.9,3,7.3,4.7,12.5,7.3c3.6,1.8,6.5,3,8.6,3.8c9.1,3.7,18.6,7.1,26.1,9.7c2.5,0.3,6.4,0.4,11.1-0.3c-0.7,3.7-1.8,6.6-1.8,9.6
		c-0.1,7.2,3.9,12.5,11,13.2c8,0.8,16.1,0.5,24.2,0.2c8.9-0.4,17.4-3,25.5-6.6c3.6-1.6,6-3.3,7.3-4.2
		C468,202.5,471.2,200.2,474.2,196.2z"/>
	<path class="st18" d="M319.5,167.4c16,2.6,28.5,0.4,32.1-0.3c1-0.2,5.1-1,10.3-2.7c4.8-1.6,10.2-3.4,16-7.5c1.3-0.9,2.3-1.7,3-2.3
		c0,0,2.8-2.5,2.8-2.5c2.8-2.4-2.8,2.5-2.8,2.5c-0.1-0.1,1-1.6,2.8-2.5c0.7-0.3,1.3-0.6,2-0.5c1.5,0.2,1.8,1.5,3.7,2.3
		c0.9,0.4,2.9,1,3.8,0.1c0.8-0.9,0.3-2.7-0.2-3.7c-0.2-0.4-0.4-1.1-1.6-1.8c-2-1.3-2.5-2.7-1.1-4.8c1.4-2.2,2.9-3.1,5.4-1.7
		c1.2,0.6,2.7,1,4,0.9c0.9,0,2.3-0.8,2.6-1.6c0.3-0.8-0.3-2.3-1-2.9c-0.7-0.6-1.1-0.5-3.7-1.7c-1.7-0.7-2.1-1-2.3-1.5
		c-0.3-0.6-0.3-1.3-0.3-2.2c0-0.8,0-1.2,0.2-1.6c0.5-1,1.7-1.5,3.1-1.5c3.3-0.2,3.9,0.1,5.8-0.6c1.3-0.5,3.1-1.7,2.9-2.9
		c-0.1-1.2-2.4-1.9-3.8-2.3c-3.6-1.1-5.3,0-6.5-1.2c-0.9-1-1-2.8-1.1-6.6c-0.6-17.7-2.8-35.1-7.4-52.2c-0.5-1.8-1.3-3.5-2.1-5.1
		c-2.3-5-6.3-6.6-11-3.6c-5.5,3.6-10.8,7.6-16.1,11.5c-1.9,1.4-3.4,3.2-5.3,4.4c-1.4,0.9-3.5,1.6-5,1.3c-10.3-2.1-20.6-2.1-30.9,0.1
		c-1.7,0.4-4.1-0.4-5.6-1.5c-7-5-13.8-10.3-20.8-15.4c-4.9-3.6-9.7-2.1-11.9,3.6c-1.1,3-2.3,6.1-2.9,9.2c-3.2,16.2-6.3,32.4-6.1,49
		c0,0.5,0,0.9-0.1,1.4c-0.5,5.6-0.5,5.4-6,5.1c-2.3-0.1-5.8-1.5-6.3,2.2c-0.5,3.7,3.3,2.6,5.4,3.2c1.5,0.4,3.2,0.3,4.8,0.6
		c2.7,0.5,3.4,2.7,1.6,4.8l0,0c-0.6,0.3-1.1,0.6-1.7,0.9c-0.2,0-0.4,0-0.6,0c-1.1,0.2-3,0.7-4.4,2.3c-0.3,0.4-1.9,2.1-1.3,3.2
		c0.4,0.7,1.4,0.9,2.2,1c1.6,0.2,2.6-0.2,6.3-1c1.6-0.4,2-0.4,2.5-0.3c1.2,0.3,2,1.4,2.8,2.7c1.3,2.2-0.1,3.4-1.7,4.5
		c-1,0.7-1,0.6-1.3,1c-0.9,0.9-2,2.8-1.2,4.1c0.6,1,2.1,1,2.3,1c1.4,0,2.2-1,2.3-1.1c0.5-0.5,1.3-1.2,2.5-1.8
		c0.7-0.3,1.4-0.7,2.3-0.6c1.1,0,1.8,0.6,4,2.5c1.4,1.2,2.6,2.1,3.3,2.7c2.2,1.4,5.2,3.1,9,4.8C299.5,161.8,307.8,165.5,319.5,167.4
		z"/>
	<path class="st2" d="M319,166.5c15.9,2.6,28.2,0.4,31.8-0.3c1-0.2,5.1-1,10.2-2.7c4.8-1.6,10.1-3.4,15.9-7.5
		c1.3-0.9,2.2-1.7,2.9-2.3c0,0,2.8-2.5,2.8-2.5c2.8-2.4-2.8,2.5-2.8,2.5c-0.1-0.1,1-1.6,2.8-2.5c0.6-0.3,1.2-0.6,2-0.5
		c1.5,0.2,1.8,1.5,3.7,2.3c0.9,0.4,2.9,1,3.8,0.1c0.8-0.8,0.3-2.6-0.2-3.6c-0.2-0.4-0.4-1.1-1.5-1.8c-2-1.3-2.5-2.7-1.1-4.8
		c1.4-2.1,2.9-3,5.4-1.7c1.2,0.6,2.7,1,4,0.9c0.9,0,2.3-0.8,2.5-1.6c0.3-0.8-0.3-2.3-1-2.8c-0.7-0.6-1.1-0.5-3.7-1.7
		c-1.7-0.7-2.1-1-2.3-1.4c-0.3-0.6-0.3-1.3-0.3-2.2c0-0.8,0-1.2,0.2-1.6c0.5-1,1.6-1.4,3-1.5c3.3-0.2,3.9,0.1,5.8-0.6
		c1.3-0.5,3-1.7,2.9-2.8c-0.1-1.2-2.4-1.9-3.7-2.3c-3.5-1.1-5.2,0-6.4-1.2c-0.9-0.9-1-2.8-1.1-6.5c-0.6-17.5-2.7-34.8-7.3-51.8
		c-0.5-1.7-1.3-3.4-2.1-5.1c-2.2-5-6.3-6.5-10.9-3.5c-5.5,3.5-10.7,7.5-15.9,11.4c-1.8,1.4-3.3,3.2-5.3,4.4c-1.4,0.9-3.4,1.6-5,1.3
		c-10.3-2-20.4-2.1-30.7,0.1c-1.7,0.4-4.1-0.4-5.6-1.5c-7-4.9-13.7-10.2-20.7-15.2c-4.9-3.5-9.6-2.1-11.8,3.5c-1.1,3-2.2,6-2.9,9.1
		c-3.2,16.1-6.2,32.1-6,48.6c0,0.5,0,0.9-0.1,1.4c-0.5,5.5-0.5,5.4-6,5.1c-2.3-0.1-5.8-1.5-6.3,2.2c-0.5,3.7,3.3,2.6,5.3,3.2
		c1.5,0.4,3.2,0.3,4.8,0.6c2.7,0.5,3.4,2.7,1.6,4.8l0,0c-0.6,0.3-1.1,0.6-1.7,0.9c-0.2,0-0.4,0-0.6,0c-1.1,0.2-3,0.7-4.4,2.3
		c-0.3,0.4-1.9,2.1-1.3,3.2c0.4,0.7,1.4,0.9,2.1,1c1.5,0.2,2.5-0.2,6.2-1c1.6-0.4,2-0.4,2.5-0.3c1.2,0.3,2,1.4,2.8,2.7
		c1.3,2.2-0.1,3.4-1.7,4.5c-1,0.7-0.9,0.6-1.3,1c-0.9,0.9-2,2.8-1.2,4c0.6,1,2.1,1,2.2,1c1.3,0,2.2-1,2.3-1.1
		c0.5-0.5,1.3-1.2,2.5-1.8c0.7-0.3,1.4-0.7,2.3-0.6c1.1,0,1.8,0.6,4,2.4c1.4,1.2,2.5,2.1,3.2,2.7c2.2,1.4,5.2,3.1,8.9,4.8
		C299.1,160.9,307.3,164.6,319,166.5z"/>
	<path class="st12" d="M347.2,138.1c0-3.1,3.8-5.9,8.2-6c4-0.1,7.3,2.2,7.3,5c0,3.1-3.8,5.9-8.2,6
		C350.5,143.1,347.2,140.9,347.2,138.1z"/>
	<path class="st13" d="M330.1,144.3c-1.4,1.4-2.7,2.7-4.1,4.1c-0.2,0-0.4,0-0.5,0c-1.4-1.5-2.8-3-4.2-4.5c0.4-0.6,0.8-1.2,1.2-1.8
		c2.3,0.1,4.5,0.1,6.8,0.2C329.5,143,329.8,143.7,330.1,144.3z"/>
	<path class="st12" d="M299.8,143c-4.3,0-8.3-2.7-8.3-5.8c0-2.8,3.2-5.1,7.2-5.1c4.4,0,8.3,2.7,8.3,5.8
		C307,140.7,303.8,143,299.8,143z"/>
	<path class="st19" d="M321.1,155.1c0,0.1,0.2,1.9,1.3,3.2c2,2.2,6.3,2.1,8.7,0.2c0.3-0.3,1.5-1.3,2-2.9c0.2-0.8,0.5-1.8,0-2.4
		c-0.9-1.1-2.9,0.5-4.5-0.7c-0.6-0.5-0.9-1.2-2.3-2.3c-0.3-0.2-0.5-0.4-0.8-0.3c-0.6,0.1-0.6,1.1-1.4,1.9c-1,1-2.1,0.5-2.8,1.4
		C321,153.7,321.1,154.4,321.1,155.1z"/>
	<path class="st14" d="M315.8,148.8c0.1,0.6,0.6,2.8,2.2,4.2c0.7,0.6,1.5,1,2.3,1.1c1.8,0.2,3.1-0.9,3.7-1.4
		c1.8-1.5,2.2-3.5,2.3-4.2c-0.3,0-0.7,0-1,0c-0.1,0.3-0.3,0.7-0.5,1.1c-0.5,0.8-0.9,1.4-1.3,1.7c0,0-0.3,0.2-0.5,0.4
		c-0.2,0.1-1.9,1-3.4,0.3c-0.6-0.3-0.9-0.7-1.2-1c-1-1.2-1.1-2.6-1.1-3.3C316.8,148,316.3,148.4,315.8,148.8z"/>
	<path class="st14" d="M336.2,148.2c0,0.6-0.3,2.7-2,4.3c-0.4,0.4-2,1.9-4,1.6c-1.2-0.2-2-0.9-2.5-1.4c-1.6-1.5-2.1-3.3-2.2-4.2
		c0.3,0,0.6,0,0.8,0c0.1,0.2,0.1,0.4,0.2,0.6c0,0.1,0.1,0.3,0.3,0.5c0.1,0.2,0.4,0.6,0.7,1.1c0.2,0.2,0.7,0.8,1.4,1.1
		c1,0.5,2.3,0.5,3.3,0.1c1.5-0.7,2.5-2.3,2.5-4.2C335.3,147.9,335.7,148,336.2,148.2z"/>
	<path class="st15" d="M283.2,81.5c2.3-1.3,5.3-2.7,9.1-3.9c3.6-1.1,6.8-1.8,9.4-2.2c-1.2-2.1-2.5-3.7-3.5-4.9
		c-1.3-1.5-3.2-3.1-7.1-6.2c-1.2-0.9-2.3-1.8-3.5-1.6c-0.7,0.1-1.2,0.6-1.8,1.5c-1.7,2.4-2.2,4.6-2.3,5.3c-0.3,1.4-0.6,3.3-0.7,5.9
		C282.8,77,282.9,79.1,283.2,81.5z"/>
	<path class="st15" d="M378.8,84.7c-2.1-1.7-4.9-3.7-8.5-5.5c-3.4-1.7-6.5-2.8-9-3.6c1.5-2.2,3-3.8,4.1-5c1.5-1.5,3.6-3,7.9-6
		c1.3-0.9,2.5-1.7,3.7-1.4c0.7,0.2,1.1,0.9,1.6,1.9c1.3,2.8,1.5,5.4,1.6,6.1c0.1,1.6,0.1,3.8-0.2,6.7
		C379.8,79.8,379.5,82.1,378.8,84.7z"/>
	<path class="st17" d="M332,205.9c-0.4-0.1-0.9-0.3-1.5-0.4c-0.6-0.1-1.7-0.2-2.8,0.2c-1.6,0.6-2.3,2.1-2.5,2.5
		c0.1,0.4,0.1,0.7,0.2,1.1c0.1-0.2,0.2-0.4,0.4-0.6c0.1-0.2,1.2-1.6,3.1-2c1.6-0.4,2.8,0.3,3.2-0.3C332,206.3,332,206,332,205.9z"/>
	<path class="st17" d="M333.8,210.7c-0.4-0.1-0.9-0.1-1.6-0.1c-0.6,0-1.7,0.1-2.7,0.7c-1.4,0.9-1.9,2.4-2,2.9
		c0.1,0.4,0.2,0.7,0.3,1.1c0.1-0.2,0.1-0.4,0.3-0.7c0.1-0.2,0.9-1.8,2.7-2.5c1.6-0.6,2.8-0.2,3.1-0.8
		C333.9,211.1,333.9,210.9,333.8,210.7z"/>
	<path class="st17" d="M363.7,207.9c-0.4,0-0.9,0-1.6,0c-0.6,0.1-1.7,0.2-2.7,1c-1.4,1-1.7,2.6-1.7,3.1c0.1,0.3,0.3,0.7,0.4,1
		c0-0.2,0.1-0.4,0.2-0.7c0.1-0.2,0.8-1.8,2.4-2.7c1.5-0.8,2.8-0.4,3-1.1C363.9,208.3,363.7,208,363.7,207.9z"/>
	<path class="st17" d="M366.7,212.1c-0.4,0-0.9,0.1-1.6,0.3c-0.6,0.2-1.6,0.5-2.5,1.4c-1.2,1.2-1.2,2.8-1.2,3.3
		c0.2,0.3,0.4,0.6,0.6,1c0-0.2,0-0.4,0.1-0.7c0-0.2,0.4-1.9,2-3.1c1.3-1,2.7-0.9,2.8-1.6C366.9,212.5,366.8,212.2,366.7,212.1z"/>
</g>
<g id="cat_walk_1" class="st0">
	<path class="st2" d="M1084.9,128.6"/>
	<path class="st2" d="M1101.5,188.6"/>
	<path class="st2" d="M1099.4,122.9c15.9,2.6,28.2,0.4,31.8-0.3c1-0.2,5.1-1,10.2-2.7c4.8-1.6,10.1-3.4,15.9-7.5
		c1.3-0.9,2.2-1.7,2.9-2.3c0,0,2.8-2.5,2.8-2.5c2.8-2.4-2.8,2.5-2.8,2.5c-0.1-0.1,1-1.6,2.8-2.5c0.6-0.3,1.2-0.6,2-0.5
		c1.5,0.2,1.8,1.5,3.7,2.3c0.9,0.4,2.9,1,3.8,0.1c0.8-0.8,0.3-2.6-0.2-3.6c-0.2-0.4-0.4-1.1-1.5-1.8c-2-1.3-2.5-2.7-1.1-4.8
		c1.4-2.1,2.9-3,5.4-1.7c1.2,0.6,2.7,1,4,0.9c0.9,0,2.3-0.8,2.5-1.6c0.3-0.8-0.3-2.3-1-2.8c-0.7-0.6-1.1-0.5-3.7-1.7
		c-1.7-0.7-2.1-1-2.3-1.4c-0.3-0.6-0.3-1.3-0.3-2.2c0-0.8,0-1.2,0.2-1.6c0.5-1,1.6-1.4,3-1.5c3.3-0.2,3.9,0.1,5.8-0.6
		c1.3-0.5,3-1.7,2.9-2.8c-0.1-1.2-2.4-1.9-3.7-2.3c-3.5-1.1-5.2,0-6.4-1.2c-0.9-0.9-1-2.8-1.1-6.5c-0.6-17.5-2.7-34.8-7.3-51.8
		c-0.5-1.7-1.3-3.4-2.1-5.1c-2.2-5-6.3-6.5-10.9-3.5c-5.5,3.5-10.7,7.5-15.9,11.4c-1.8,1.4-3.3,3.2-5.3,4.4c-1.4,0.9-3.4,1.6-5,1.3
		c-10.3-2-20.4-2.1-30.7,0.1c-1.7,0.4-4.1-0.4-5.6-1.5c-7-4.9-13.7-10.2-20.7-15.2c-4.9-3.5-9.6-2.1-11.8,3.5c-1.1,3-2.2,6-2.9,9.1
		c-3.2,16.1-6.2,32.1-6,48.6c0,0.5,0,0.9-0.1,1.4c-0.5,5.5-0.5,5.4-6,5.1c-2.3-0.1-5.8-1.5-6.3,2.2c-0.5,3.7,3.3,2.6,5.3,3.2
		c1.5,0.4,3.2,0.3,4.8,0.6c2.7,0.5,3.4,2.7,1.6,4.8l0,0c-0.6,0.3-1.1,0.6-1.7,0.9c-0.2,0-0.4,0-0.6,0c-1.1,0.2-3,0.7-4.4,2.3
		c-0.3,0.4-1.9,2.1-1.3,3.2c0.4,0.7,1.4,0.9,2.1,1c1.5,0.2,2.5-0.2,6.2-1c1.6-0.4,2-0.4,2.5-0.3c1.2,0.3,2,1.4,2.8,2.7
		c1.3,2.2-0.1,3.4-1.7,4.5c-1,0.7-0.9,0.6-1.3,1c-0.9,0.9-2,2.8-1.2,4c0.6,1,2.1,1,2.2,1c1.3,0,2.2-1,2.3-1.1
		c0.5-0.5,1.3-1.2,2.5-1.8c0.7-0.3,1.4-0.7,2.3-0.6c1.1,0,1.8,0.6,4,2.4c1.4,1.2,2.5,2.1,3.2,2.7c2.2,1.4,5.2,3.1,8.9,4.8
		C1079.5,117.3,1087.8,120.9,1099.4,122.9z"/>
	<path class="st12" d="M1131.7,81.8c0-3.1,3.8-5.9,8.2-6c4-0.1,7.3,2.2,7.3,5c0,3.1-3.8,5.9-8.2,6
		C1135,86.8,1131.7,84.6,1131.7,81.8z"/>
	<path class="st13" d="M1114.6,88.1c-1.4,1.4-2.7,2.7-4.1,4.1c-0.2,0-0.4,0-0.5,0c-1.4-1.5-2.8-3-4.2-4.5c0.4-0.6,0.8-1.2,1.2-1.8
		c2.3,0.1,4.5,0.1,6.8,0.2C1114,86.7,1114.3,87.4,1114.6,88.1z"/>
	<path class="st12" d="M1084.3,86.8c-4.3,0-8.3-2.7-8.3-5.8c0-2.8,3.2-5.1,7.2-5.1c4.4,0,8.3,2.7,8.3,5.8
		C1091.5,84.5,1088.3,86.7,1084.3,86.8z"/>
	<path class="st14" d="M1100.3,92.6c0.1,0.6,0.6,2.8,2.2,4.2c0.7,0.6,1.5,1,2.3,1.1c1.8,0.2,3.1-0.9,3.7-1.4
		c1.8-1.5,2.2-3.5,2.3-4.2c-0.3,0-0.7,0-1,0c-0.1,0.3-0.3,0.7-0.5,1.1c-0.5,0.8-0.9,1.4-1.3,1.7c0,0-0.3,0.2-0.5,0.4
		c-0.2,0.1-1.9,1-3.4,0.3c-0.6-0.3-0.9-0.7-1.2-1c-1-1.2-1.1-2.6-1.1-3.3C1101.3,91.8,1100.8,92.2,1100.3,92.6z"/>
	<path class="st14" d="M1120.7,91.9c0,0.6-0.3,2.7-2,4.3c-0.4,0.4-2,1.9-4,1.6c-1.2-0.2-2-0.9-2.5-1.4c-1.6-1.5-2.1-3.3-2.2-4.2
		c0.3,0,0.6,0,0.8,0c0.1,0.2,0.1,0.4,0.2,0.6c0,0.1,0.1,0.3,0.3,0.5c0.1,0.2,0.4,0.6,0.7,1.1c0.2,0.2,0.7,0.8,1.4,1.1
		c1,0.5,2.3,0.5,3.3,0.1c1.5-0.7,2.5-2.3,2.5-4.2C1119.8,91.6,1120.3,91.8,1120.7,91.9z"/>
	<path class="st15" d="M1063.6,37.9c2.3-1.3,5.3-2.7,9.1-3.9c3.6-1.1,6.8-1.8,9.4-2.2c-1.2-2.1-2.5-3.7-3.5-4.9
		c-1.3-1.5-3.2-3.1-7.1-6.2c-1.2-0.9-2.3-1.8-3.5-1.6c-0.7,0.1-1.2,0.6-1.8,1.5c-1.7,2.4-2.2,4.6-2.3,5.3c-0.3,1.4-0.6,3.3-0.7,5.9
		C1063.2,33.4,1063.3,35.5,1063.6,37.9z"/>
	<path class="st15" d="M1159.2,41.1c-2.1-1.7-4.9-3.7-8.5-5.5c-3.4-1.7-6.5-2.8-9-3.6c1.5-2.2,3-3.8,4.1-5c1.5-1.5,3.6-3,7.9-6
		c1.3-0.9,2.5-1.7,3.7-1.4c0.7,0.2,1.1,0.9,1.6,1.9c1.3,2.8,1.5,5.4,1.6,6.1c0.1,1.6,0.1,3.8-0.2,6.7
		C1160.2,36.1,1159.9,38.4,1159.2,41.1z"/>
	<path class="st16" d="M1087.9,223c-7.9-0.9-13.6-5.2-14.2-10c-0.2-1.6,0-5.1,2.7-7.3c2-1.6,4.4-1.7,5.2-1.6
		c5.4-13.3,10.7-26.6,16.1-39.9c-0.1-3.6,1.8-6.9,4.9-8.7c4.6-2.6,9.1-0.3,9.4-0.1l1.7,0.7c6.3,2.5,9.4,9.7,6.8,16.1l-16.4,40.7
		c-0.2,0.9-1.8,6.2-7.1,8.9C1093,223.8,1089.1,223.2,1087.9,223z"/>
	<path class="st2" d="M1143.7,228.9c-7,3.8-14.1,3.5-17.3-0.1c-1.1-1.2-2.9-4.2-2-7.5c0.7-2.5,2.6-3.8,3.3-4.3
		c-3.2-14-6.3-28-9.5-42c-2.1-2.9-2.4-6.7-0.9-9.9c2.3-4.7,7.4-5.4,7.7-5.4l1.8-0.4c6.7-1.5,13.3,2.7,14.8,9.3l9.7,42.7
		c0.3,0.9,2,6.1-0.8,11.4C1148.3,226.7,1144.8,228.4,1143.7,228.9z"/>
	<path class="st17" d="M1081.9,208.4c-0.3-0.3-0.7-0.6-1.3-0.9c-0.5-0.3-1.5-0.8-2.7-0.8c-1.7,0-2.9,1.1-3.2,1.4
		c-0.1,0.4-0.2,0.7-0.3,1.1c0.1-0.1,0.3-0.3,0.6-0.4c0.2-0.1,1.7-1,3.6-0.7c1.7,0.3,2.5,1.3,3.1,0.9
		C1081.8,208.8,1081.9,208.6,1081.9,208.4z"/>
	<path class="st17" d="M1081.8,213.6c-0.3-0.2-0.8-0.5-1.4-0.7c-0.6-0.2-1.6-0.6-2.8-0.4c-1.7,0.3-2.7,1.5-3,1.9
		c0,0.4-0.1,0.7-0.1,1.1c0.1-0.1,0.3-0.3,0.5-0.5c0.2-0.1,1.5-1.3,3.4-1.3c1.7,0,2.7,0.9,3.2,0.4
		C1081.8,214.1,1081.8,213.8,1081.8,213.6z"/>
	<path class="st17" d="M1129.7,221c-0.4,0.1-0.9,0.2-1.5,0.4c-0.6,0.2-1.6,0.6-2.4,1.5c-1.1,1.3-1,2.9-1,3.4
		c0.2,0.3,0.4,0.6,0.7,0.9c0-0.2,0-0.4,0.1-0.7c0-0.2,0.3-2,1.8-3.2c1.3-1.1,2.6-1,2.7-1.7C1129.9,221.4,1129.8,221.1,1129.7,221z"
		/>
	<path class="st17" d="M1133.5,224.5c-0.4,0.1-0.9,0.3-1.4,0.6c-0.5,0.3-1.5,0.9-2.1,1.9c-0.9,1.5-0.6,3-0.4,3.5
		c0.3,0.3,0.5,0.5,0.8,0.8c0-0.2-0.1-0.4-0.1-0.7c0-0.2,0-2,1.2-3.4c1.1-1.3,2.4-1.5,2.4-2.2
		C1133.9,224.8,1133.7,224.6,1133.5,224.5z"/>
	<path class="st2" d="M1243.4,126.2c-5.8,2.6-11.2,2.5-14,2.3c2.1,6.5,4.2,13,6.4,19.5c19.2-1.7,34.6-11.2,37.9-23.9
		c2-7.6-0.1-17.4-3.9-24.4c-4.4-8.2-9.1-9.3-11.8-18.4c-0.8-2.9-3.2-11.1,1.2-16.2c3-3.5,7.9-4.2,9.6-4.4c5-0.6,6.3,1.4,12.9,1.2
		c3.6-0.1,7.9-0.2,9.5-3c1.7-2.9-0.5-6.9-0.7-7.3c-4.1-7.4-16.3-7.5-19.7-7.5c-1.7,0-11.3,0.1-20.3,6.6c-1.8,1.3-4.6,3.4-7.1,7.1
		c-3.3,5-3.8,9.8-4.3,13.6c-0.4,3.4-1.1,10.5,2,18.2c2.6,6.4,5,5.9,8.9,14c2.6,5.5,4.8,10.1,3.1,14.6
		C1251.4,122.6,1246.9,124.7,1243.4,126.2z"/>
	<path class="st16" d="M1178.9,229.7c-7.9,0.6-14.3-2.6-15.8-7.2c-0.5-1.5-1-5,1.3-7.7c1.7-2,4-2.4,4.8-2.6
		c2.8-14.1,5.6-28.1,8.4-42.2c-0.7-3.5,0.5-7.1,3.2-9.4c4-3.4,8.9-1.9,9.3-1.8l1.8,0.4c6.7,1.3,11,7.8,9.7,14.5l-8.5,43
		c-0.1,0.9-0.6,6.4-5.4,10.1C1184.1,229.6,1180.2,229.7,1178.9,229.7z"/>
	<path class="st2" d="M1236.3,224.6c-5.5,5.8-12.4,7.7-16.5,5.3c-1.4-0.8-4.1-3.1-4.2-6.5c-0.1-2.6,1.3-4.5,1.8-5.1
		c-7.4-12.3-14.8-24.6-22.1-36.9c-2.9-2.1-4.4-5.6-4-9.2c0.7-5.2,5.3-7.4,5.6-7.6l1.6-1c5.8-3.5,13.4-1.6,16.9,4.2l22.6,37.6
		c0.6,0.7,3.8,5.1,2.8,11.1C1240,221,1237.2,223.7,1236.3,224.6z"/>
	<path class="st2" d="M1231.7,177.4c4.9-7.9,5.4-15.6,5.7-20.6c0.7-10.2-1.7-18.4-3.4-23.1c-2-2.7-5.3-6.6-10.2-10
		c-5.4-3.7-9.9-5-18.6-7.4c-4.6-1.3-13.1-3.4-24.3-4.1c-2-0.1-3.5-0.2-6.9-0.3c-18.1-0.4-27.2-0.6-35.8-0.2c-13,0.7-19.6,1-26.2,3.4
		c-5.9,2.1-15,5.5-21.1,14.6c-4.1,6.1-5.3,12.4-5.6,14.6c-0.4,2.2-1.1,6.6-0.2,12c0.6,3.3,1.6,6.2,2.1,7.7c0.8,2.3,1.6,4.1,2.1,5.1
		c3.9,7.8,9.5,12.3,12.1,14.3c3.9,3,7.3,4.7,12.5,7.3c1,0.5,2,1,2.9,1.4c0,0,3,1.4,5.7,2.4c3.2,1.2,13.9,3.1,28.5,3.8
		c5.2,0,10.4,0,15.7,0c4.9,0.4,11.7,0.6,19.7,0c7.6-0.6,14.3-0.8,22.1-3.7C1213.7,192.7,1224.8,188.6,1231.7,177.4z"/>
	<path class="st17" d="M1170.4,216.5c-0.3-0.2-0.8-0.5-1.4-0.7c-0.6-0.2-1.6-0.5-2.8-0.3c-1.7,0.3-2.6,1.6-2.9,2
		c0,0.4,0,0.8-0.1,1.1c0.1-0.1,0.3-0.3,0.5-0.5c0.2-0.2,1.5-1.3,3.4-1.4c1.7,0,2.7,0.8,3.2,0.3
		C1170.4,217,1170.4,216.7,1170.4,216.5z"/>
	<path class="st17" d="M1171.2,221.7c-0.4-0.1-0.9-0.3-1.5-0.4c-0.6-0.1-1.7-0.3-2.8,0.2c-1.6,0.6-2.3,2-2.5,2.5
		c0,0.4,0.1,0.7,0.1,1.1c0.1-0.1,0.2-0.4,0.4-0.6c0.1-0.2,1.3-1.6,3.1-1.9c1.6-0.3,2.8,0.4,3.2-0.2
		C1171.3,222.1,1171.2,221.8,1171.2,221.7z"/>
	<path class="st17" d="M1220.5,221.4c-0.3,0.2-0.8,0.4-1.3,0.9c-0.5,0.4-1.3,1.1-1.8,2.2c-0.6,1.6-0.1,3.1,0.1,3.5
		c0.3,0.2,0.6,0.4,0.9,0.7c-0.1-0.2-0.1-0.4-0.2-0.7c0-0.2-0.3-2,0.7-3.6c0.9-1.4,2.2-1.8,2-2.5
		C1220.9,221.7,1220.7,221.5,1220.5,221.4z"/>
	<path class="st17" d="M1225.3,223.5c-0.3,0.2-0.7,0.6-1.2,1.1c-0.4,0.5-1.1,1.3-1.4,2.5c-0.4,1.6,0.4,3.1,0.7,3.5
		c0.3,0.2,0.7,0.3,1,0.5c-0.1-0.2-0.2-0.4-0.3-0.7c-0.1-0.2-0.6-1.9,0.1-3.6c0.6-1.5,1.8-2.1,1.6-2.8
		C1225.7,223.7,1225.4,223.6,1225.3,223.5z"/>
</g>
<g id="cat_play" class="st0">
	<path class="st2" d="M1891.6,194.3"/>
	<path class="st2" d="M1873.8,134.6"/>
	<path class="st2" d="M1876,127.1c-6.4,14.7-7.4,27.2-7.6,30.9c-0.1,1-0.3,5.1,0.1,10.5c0.4,5,0.8,10.6,3.3,17.2
		c0.6,1.4,1.1,2.6,1.5,3.4c0,0,1.7,3.3,1.7,3.3c1.7,3.3-1.7-3.3-1.7-3.3c0.1,0,1.3,1.3,1.7,3.3c0.1,0.7,0.3,1.4,0,2.1
		c-0.5,1.4-1.9,1.4-3.1,3c-0.6,0.8-1.7,2.6-1,3.6c0.6,1,2.5,0.9,3.6,0.7c0.4-0.1,1.2-0.2,2.1-1.1c1.7-1.6,3.2-1.8,4.9,0.1
		c1.7,1.9,2.2,3.5,0.3,5.6c-0.9,1-1.6,2.3-1.9,3.6c-0.2,0.9,0.2,2.4,0.9,2.8c0.7,0.5,2.3,0.3,3-0.2c0.7-0.6,0.8-0.9,2.5-3.2
		c1.1-1.5,1.5-1.8,2-1.9c0.7-0.2,1.3,0,2.2,0.2c0.8,0.2,1.2,0.3,1.5,0.6c0.8,0.7,1,2,0.7,3.3c-0.6,3.2-1.1,3.8-0.9,5.7
		c0.2,1.4,0.9,3.4,2,3.5c1.2,0.2,2.4-1.8,3.2-3c1.9-3.2,1.2-5.1,2.7-5.9c1.1-0.7,2.9-0.2,6.6,0.6c17.1,3.8,34.4,6,52,5.7
		c1.8,0,3.6-0.4,5.4-0.7c5.4-0.9,7.9-4.5,6.1-9.7c-2.1-6.2-4.6-12.2-7.1-18.2c-0.9-2.1-2.3-4-2.9-6.2c-0.5-1.6-0.7-3.7,0-5.2
		c4.5-9.4,7.1-19.3,7.5-29.7c0.1-1.7,1.4-3.8,2.8-5c6.5-5.5,13.3-10.8,19.9-16.3c4.6-3.9,4.4-8.8-0.5-12.3c-2.6-1.8-5.3-3.7-8.2-5
		c-14.8-7-29.6-14-45.6-17.9c-0.4-0.1-0.9-0.3-1.3-0.4c-5.2-1.8-5.1-1.8-3.5-7c0.7-2.2,2.8-5.3-0.5-6.6c-3.4-1.4-3.3,2.5-4.4,4.4
		c-0.8,1.4-1.1,3-1.7,4.5c-1.1,2.5-3.5,2.6-5,0.4l0,0c-0.2-0.6-0.3-1.2-0.5-1.8c0-0.2,0.1-0.4,0.1-0.6c0.1-1.1,0-3-1.1-4.8
		c-0.3-0.4-1.5-2.3-2.8-2.1c-0.8,0.2-1.2,1.1-1.5,1.8c-0.6,1.4-0.5,2.5-0.5,6.3c0,1.7-0.1,2-0.3,2.5c-0.6,1.1-1.8,1.6-3.3,2
		c-2.5,0.7-3.2-0.9-3.9-2.7c-0.4-1.2-0.4-1.1-0.7-1.5c-0.7-1.1-2.2-2.6-3.6-2.2c-1.1,0.4-1.4,1.8-1.5,1.9c-0.3,1.3,0.4,2.3,0.5,2.5
		c0.4,0.6,0.9,1.6,1.1,2.9c0.1,0.8,0.3,1.5,0,2.4c-0.3,1-1,1.6-3.3,3.3c-1.5,1.1-2.7,1.9-3.4,2.5c-1.9,1.8-4.3,4.3-6.8,7.5
		C1886.3,109.2,1880.7,116.2,1876,127.1z"/>
	<path class="st12" d="M1907.8,168.5c3,0.7,4.8,5.1,3.8,9.4c-0.9,3.9-3.9,6.5-6.6,5.9c-3-0.7-4.8-5.2-3.8-9.4
		C1902.1,170.4,1905,167.8,1907.8,168.5z"/>
	<path class="st13" d="M1905.9,150.4c-1-1.7-2-3.3-3-5c0-0.2,0.1-0.4,0.1-0.5c1.8-1,3.6-2,5.4-3c0.5,0.5,1,1,1.5,1.6
		c-0.6,2.2-1.2,4.4-1.9,6.6C1907.4,150.2,1906.6,150.3,1905.9,150.4z"/>
	<path class="st12" d="M1914.7,121.4c1-4.2,4.7-7.4,7.7-6.6c2.7,0.7,4.1,4.4,3.2,8.3c-1.1,4.3-4.6,7.4-7.7,6.6
		C1915.1,128.9,1913.7,125.3,1914.7,121.4z"/>
	<path class="st14" d="M1905.1,135.4c-0.6,0-2.9-0.1-4.6,1.1c-0.8,0.5-1.3,1.2-1.6,2c-0.7,1.7,0.1,3.3,0.5,3.9c1,2.1,2.9,3,3.5,3.3
		c0.1-0.3,0.1-0.6,0.2-1c-0.3-0.2-0.6-0.4-1-0.8c-0.7-0.7-1.1-1.2-1.3-1.7c0,0-0.1-0.3-0.2-0.6c-0.1-0.2-0.5-2.1,0.6-3.4
		c0.4-0.5,0.9-0.7,1.3-0.9c1.4-0.6,2.8-0.5,3.5-0.3C1905.6,136.6,1905.4,136,1905.1,135.4z"/>
	<path class="st14" d="M1900.7,155.4c-0.6-0.2-2.5-0.9-3.7-3c-0.3-0.5-1.3-2.4-0.5-4.3c0.5-1.1,1.4-1.7,2-2.1
		c1.8-1.2,3.7-1.2,4.6-1.1c-0.1,0.3-0.2,0.5-0.3,0.8c-0.2,0-0.4,0-0.6,0.1c-0.1,0-0.3,0-0.6,0.1c-0.2,0-0.7,0.2-1.2,0.4
		c-0.2,0.1-0.9,0.5-1.4,1.1c-0.7,0.8-1.1,2.1-0.9,3.2c0.3,1.7,1.6,3,3.4,3.5C1901.2,154.5,1901,154.9,1900.7,155.4z"/>
	<path class="st15" d="M1967.1,113.3c0.7,2.5,1.3,5.8,1.5,9.8c0.2,3.7,0.1,7-0.2,9.7c2.3-0.7,4.2-1.5,5.6-2.2
		c1.7-0.9,3.8-2.4,7.8-5.4c1.2-0.9,2.3-1.8,2.4-3c0.1-0.7-0.3-1.3-1-2.1c-1.9-2.2-3.9-3.2-4.5-3.5c-1.3-0.6-3.1-1.4-5.6-2.1
		C1971.6,114.1,1969.6,113.6,1967.1,113.3z"/>
	<path class="st15" d="M1940.4,205.2c2.2-1.6,4.8-3.9,7.4-6.9c2.5-2.8,4.4-5.6,5.7-7.9c1.7,2,3,3.9,3.8,5.2c1.1,1.8,2,4.2,3.9,9.2
		c0.6,1.5,1.1,2.9,0.4,3.9c-0.4,0.6-1.1,0.9-2.2,1.1c-3.1,0.6-5.6,0.1-6.3,0c-1.6-0.3-3.7-0.8-6.4-1.8
		C1945,207.4,1942.8,206.5,1940.4,205.2z"/>
	<path class="st16" d="M1872.2,79.8c8,0,14.1,3.7,15.1,8.4c0.4,1.6,0.6,5.1-1.9,7.6c-1.8,1.8-4.2,2.1-5,2.2
		c-3.9,13.8-7.8,27.6-11.8,41.4c0.4,3.6-1.1,7.1-4,9.2c-4.3,3.1-9.1,1.2-9.4,1.1l-1.8-0.5c-6.6-1.9-10.4-8.7-8.5-15.2l12-42.1
		c0.1-0.9,1.1-6.3,6.2-9.6C1867,79.5,1870.9,79.7,1872.2,79.8z"/>
	<path class="st2" d="M1816.1,79.8c6.6-4.5,13.7-4.9,17.2-1.7c1.2,1.1,3.4,3.9,2.8,7.3c-0.5,2.5-2.2,4.1-2.9,4.6
		c4.6,13.6,9.2,27.2,13.9,40.7c2.4,2.7,3.1,6.4,1.9,9.8c-1.8,4.9-6.8,6.2-7.1,6.2l-1.8,0.6c-6.5,2.2-13.5-1.3-15.7-7.7l-14.1-41.5
		c-0.4-0.8-2.7-5.8-0.4-11.4C1811.6,82.5,1815,80.4,1816.1,79.8z"/>
	<path class="st17" d="M1879.6,93.7c0.3,0.2,0.8,0.5,1.4,0.8c0.6,0.2,1.6,0.7,2.8,0.5c1.7-0.2,2.8-1.4,3.1-1.8
		c0.1-0.4,0.1-0.7,0.2-1.1c-0.1,0.1-0.3,0.3-0.5,0.5c-0.2,0.1-1.6,1.2-3.5,1.1c-1.7-0.1-2.6-1-3.1-0.6
		C1879.6,93.2,1879.6,93.5,1879.6,93.7z"/>
	<path class="st17" d="M1879.2,88.5c0.3,0.2,0.9,0.4,1.5,0.5c0.6,0.1,1.7,0.4,2.8,0.1c1.6-0.5,2.5-1.8,2.7-2.2c0-0.4,0-0.8,0-1.1
		c-0.1,0.1-0.2,0.3-0.4,0.6c-0.2,0.2-1.4,1.4-3.3,1.6c-1.7,0.2-2.8-0.6-3.2-0.1C1879.1,88.1,1879.2,88.3,1879.2,88.5z"/>
	<path class="st17" d="M1830.8,86.2c0.4-0.1,0.9-0.3,1.5-0.6c0.6-0.3,1.5-0.8,2.2-1.8c1-1.4,0.7-3,0.6-3.5c-0.3-0.3-0.5-0.6-0.8-0.8
		c0,0.2,0,0.4,0,0.7c0,0.2-0.1,2-1.4,3.4c-1.2,1.2-2.5,1.3-2.5,2C1830.5,85.9,1830.7,86,1830.8,86.2z"/>
	<path class="st17" d="M1826.6,83.1c0.4-0.2,0.8-0.4,1.4-0.8c0.5-0.4,1.4-1,1.9-2.1c0.7-1.5,0.2-3.1,0.1-3.5
		c-0.3-0.2-0.6-0.5-0.9-0.7c0,0.2,0.1,0.4,0.1,0.7c0,0.2,0.2,2-0.9,3.5c-0.9,1.4-2.3,1.7-2.1,2.4C1826.2,82.9,1826.5,83,1826.6,83.1
		z"/>
	<path class="st2" d="M1713.8,156.4c-3-3.9-2.2-8.9-1.2-14.9c1.4-8.8,3.8-9,4.5-15.9c0.8-8.3-1.9-14.9-3.2-18
		c-1.5-3.5-3.4-8-7.9-11.8c-3.4-2.9-6.7-4.1-8.8-4.9c-10.4-3.7-19.7-1.1-21.3-0.6c-3.3,1-15,4.6-16.8,12.8c-0.1,0.5-1,5,1.4,7.2
		c2.3,2.2,6.5,1.1,10,0.1c6.4-1.7,7-4,12-4.8c1.7-0.3,6.5-1.1,10.4,1.5c5.6,3.7,5.7,12.2,5.7,15.2c0.1,9.4-4.2,11.8-6.1,21
		c-1.6,7.8-0.8,17.8,3.2,24.5c6.8,11.2,24.3,16,43.1,12.2c0.2-6.8,0.4-13.7,0.6-20.5c-2.7,1-7.8,2.6-14.1,1.8
		C1721.6,160.8,1716.7,160.2,1713.8,156.4z"/>
	<path class="st16" d="M1780.9,82.7c7.8-1.4,14.5,1.1,16.4,5.5c0.6,1.5,1.5,4.9-0.4,7.8c-1.4,2.1-3.7,2.8-4.5,3.1
		c-1.3,14.3-2.6,28.6-3.9,42.8c1.1,3.4,0.2,7.2-2.2,9.7c-3.6,3.8-8.7,2.9-9,2.8l-1.8-0.2c-6.8-0.6-11.8-6.6-11.2-13.4l3.9-43.6
		c0-0.9-0.1-6.4,4.3-10.6C1775.8,83.4,1779.7,82.8,1780.9,82.7z"/>
	<path class="st2" d="M1724.4,93.9c4.8-6.3,11.5-9,15.8-7c1.5,0.7,4.4,2.6,4.9,6.1c0.4,2.6-0.8,4.6-1.3,5.3
		c8.6,11.4,17.3,22.9,25.9,34.3c3.1,1.8,5,5.1,4.9,8.7c-0.1,5.2-4.5,8-4.8,8.1l-1.5,1.1c-5.4,4.1-13.2,3-17.3-2.4l-26.4-35
		c-0.6-0.7-4.4-4.7-4-10.7C1721,97.8,1723.6,94.8,1724.4,93.9z"/>
	<path class="st2" d="M1743.8,148.4c-4.7,8-5.1,15.7-5.3,20.7c-0.5,10.2,2,18.4,3.9,23c2.1,2.7,5.4,6.5,10.4,9.8
		c5.4,3.6,10,4.8,18.8,7c4.6,1.2,13.2,3.1,24.3,3.6c2,0.1,3.5,0.1,6.9,0.1c18.2,0,27.2,0.1,35.8-0.5c13-0.9,19.5-1.4,26.1-3.9
		c5.8-2.2,14.9-5.8,20.8-15.1c4-6.2,5-12.5,5.3-14.7c0.3-2.2,1-6.6-0.1-12c-0.6-3.3-1.7-6.2-2.3-7.6c-0.9-2.3-1.7-4.1-2.2-5
		c-4-7.7-9.8-12.1-12.3-14c-3.9-2.9-7.4-4.5-12.6-7c-1-0.5-2-0.9-2.9-1.3c0,0-3-1.3-5.7-2.3c-3.2-1.2-13.9-2.8-28.6-3.3
		c-5.2,0.1-10.4,0.2-15.7,0.3c-4.9-0.3-11.7-0.4-19.7,0.4c-7.5,0.7-14.3,1.1-22,4.2C1761.5,132.8,1750.5,137.1,1743.8,148.4z"/>
	<path class="st17" d="M1790.8,94.9c0.4,0.2,0.9,0.4,1.5,0.5c0.6,0.1,1.7,0.4,2.8,0c1.6-0.5,2.4-1.9,2.7-2.3c0-0.4,0-0.8-0.1-1.1
		c-0.1,0.1-0.2,0.3-0.4,0.6c-0.2,0.2-1.3,1.5-3.2,1.7c-1.7,0.2-2.8-0.5-3.2,0C1790.8,94.5,1790.8,94.7,1790.8,94.9z"/>
	<path class="st17" d="M1789.4,89.9c0.4,0.1,0.9,0.2,1.6,0.2c0.6,0,1.7,0.1,2.8-0.5c1.5-0.8,2.1-2.2,2.3-2.7
		c-0.1-0.4-0.2-0.7-0.2-1.1c-0.1,0.2-0.2,0.4-0.3,0.6c-0.1,0.2-1.1,1.7-2.9,2.2c-1.6,0.5-2.8-0.1-3.2,0.5
		C1789.3,89.5,1789.4,89.7,1789.4,89.9z"/>
	<path class="st17" d="M1740.4,95.3c0.3-0.2,0.8-0.5,1.2-1c0.4-0.4,1.2-1.2,1.5-2.4c0.5-1.6-0.2-3.1-0.5-3.5c-0.3-0.2-0.7-0.4-1-0.6
		c0.1,0.2,0.2,0.4,0.2,0.7c0.1,0.2,0.5,1.9-0.3,3.6c-0.7,1.5-2,2-1.7,2.7C1740,95.1,1740.3,95.2,1740.4,95.3z"/>
	<path class="st17" d="M1735.5,93.7c0.3-0.3,0.7-0.6,1.1-1.2c0.4-0.5,1-1.4,1.1-2.6c0.2-1.7-0.7-3-1-3.4c-0.4-0.1-0.7-0.3-1.1-0.4
		c0.1,0.1,0.2,0.4,0.3,0.6c0.1,0.2,0.8,1.8,0.3,3.6c-0.5,1.6-1.6,2.3-1.3,2.9C1735,93.6,1735.3,93.7,1735.5,93.7z"/>
</g>
<g id="Ebene_13" class="st0">
	<path class="st2" d="M2277.6,195"/>
	<path class="st2" d="M2259.8,135.3"/>
	<path class="st2" d="M2261.9,127.8c-6.4,14.7-7.4,27.2-7.6,30.9c-0.1,1-0.3,5.1,0.1,10.5c0.4,5,0.8,10.6,3.3,17.2
		c0.6,1.4,1.1,2.6,1.5,3.4c0,0,1.7,3.3,1.7,3.3c1.7,3.3-1.7-3.3-1.7-3.3c0.1,0,1.3,1.3,1.7,3.3c0.1,0.7,0.3,1.4,0,2.1
		c-0.5,1.4-1.9,1.4-3.1,3c-0.6,0.8-1.7,2.6-1,3.6c0.6,1,2.5,0.9,3.6,0.7c0.4-0.1,1.2-0.2,2.1-1.1c1.7-1.6,3.2-1.8,4.9,0.1
		c1.7,1.9,2.2,3.5,0.3,5.6c-0.9,1-1.6,2.3-1.9,3.6c-0.2,0.9,0.2,2.4,0.9,2.8c0.7,0.5,2.3,0.3,3-0.2c0.7-0.6,0.8-0.9,2.5-3.2
		c1.1-1.5,1.5-1.8,2-1.9c0.7-0.2,1.3,0,2.2,0.2c0.8,0.2,1.2,0.3,1.5,0.6c0.8,0.7,1,2,0.7,3.3c-0.6,3.2-1.1,3.8-0.9,5.7
		c0.2,1.4,0.9,3.4,2,3.5c1.2,0.2,2.4-1.8,3.2-3c1.9-3.2,1.2-5.1,2.7-5.9c1.1-0.7,2.9-0.2,6.6,0.6c17.1,3.8,34.4,6,52,5.7
		c1.8,0,3.6-0.4,5.4-0.7c5.4-0.9,7.9-4.5,6.1-9.7c-2.1-6.2-4.6-12.2-7.1-18.2c-0.9-2.1-2.3-4-2.9-6.2c-0.5-1.6-0.7-3.7,0-5.2
		c4.5-9.4,7.1-19.3,7.5-29.7c0.1-1.7,1.4-3.8,2.8-5c6.5-5.5,13.3-10.8,19.9-16.3c4.6-3.9,4.4-8.8-0.5-12.3c-2.6-1.8-5.3-3.7-8.2-5
		c-14.8-7-29.6-14-45.6-17.9c-0.4-0.1-0.9-0.3-1.3-0.4c-5.2-1.8-5.1-1.8-3.5-7c0.7-2.2,2.8-5.3-0.5-6.6c-3.4-1.4-3.3,2.5-4.4,4.4
		c-0.8,1.4-1.1,3-1.7,4.5c-1.1,2.5-3.5,2.6-5,0.4l0,0c-0.2-0.6-0.3-1.2-0.5-1.8c0-0.2,0.1-0.4,0.1-0.6c0.1-1.1,0-3-1.1-4.8
		c-0.3-0.4-1.5-2.3-2.8-2.1c-0.8,0.2-1.2,1.1-1.5,1.8c-0.6,1.4-0.5,2.5-0.5,6.3c0,1.7-0.1,2-0.3,2.5c-0.6,1.1-1.8,1.6-3.3,2
		c-2.5,0.7-3.2-0.9-3.9-2.7c-0.4-1.2-0.4-1.1-0.7-1.5c-0.7-1.1-2.2-2.6-3.6-2.2c-1.1,0.4-1.4,1.8-1.5,1.9c-0.3,1.3,0.4,2.3,0.5,2.5
		c0.4,0.6,0.9,1.6,1.1,2.9c0.1,0.8,0.3,1.5,0,2.4c-0.3,1-1,1.6-3.3,3.3c-1.5,1.1-2.7,1.9-3.4,2.5c-1.9,1.8-4.3,4.3-6.8,7.5
		C2272.2,109.9,2266.7,116.9,2261.9,127.8z"/>
	<path class="st12" d="M2293.8,169.2c0.9-0.3,5,4.6,3.8,9.4c-1.1,4.2-5.9,6.5-6.6,5.9c-0.6-0.5,1.9-2.8,2.8-7.4
		C2294.6,172.3,2293.1,169.4,2293.8,169.2z"/>
	<path class="st13" d="M2291.9,151c-1-1.7-2-3.3-3-5c0-0.2,0.1-0.4,0.1-0.5c1.8-1,3.6-2,5.4-3c0.5,0.5,1,1,1.5,1.6
		c-0.6,2.2-1.2,4.4-1.9,6.6C2293.3,150.8,2292.6,150.9,2291.9,151z"/>
	<path class="st12" d="M2307.3,123c1.3-4.5,0.3-7.4,1.1-7.6c1-0.2,4.1,4.1,3.2,8.3c-1.1,4.8-7,7.3-7.7,6.6
		C2303.4,129.7,2305.9,127.7,2307.3,123z"/>
	<path class="st14" d="M2291.1,136.1c-0.6,0-2.9-0.1-4.6,1.1c-0.8,0.5-1.3,1.2-1.6,2c-0.7,1.7,0.1,3.3,0.5,3.9c1,2.1,2.9,3,3.5,3.3
		c0.1-0.3,0.1-0.6,0.2-1c-0.3-0.2-0.6-0.4-1-0.8c-0.7-0.7-1.1-1.2-1.3-1.7c0,0-0.1-0.3-0.2-0.6c-0.1-0.2-0.5-2.1,0.6-3.4
		c0.4-0.5,0.9-0.7,1.3-0.9c1.4-0.6,2.8-0.5,3.5-0.3C2291.6,137.2,2291.3,136.7,2291.1,136.1z"/>
	<path class="st14" d="M2286.7,156c-0.6-0.2-2.5-0.9-3.7-3c-0.3-0.5-1.3-2.4-0.5-4.3c0.5-1.1,1.4-1.7,2-2.1c1.8-1.2,3.7-1.2,4.6-1.1
		c-0.1,0.3-0.2,0.5-0.3,0.8c-0.2,0-0.4,0-0.6,0.1c-0.1,0-0.3,0-0.6,0.1c-0.2,0-0.7,0.2-1.2,0.4c-0.2,0.1-0.9,0.5-1.4,1.1
		c-0.7,0.8-1.1,2.1-0.9,3.2c0.3,1.7,1.6,3,3.4,3.5C2287.2,155.2,2286.9,155.6,2286.7,156z"/>
	<path class="st15" d="M2353.1,114c0.7,2.5,1.3,5.8,1.5,9.8c0.2,3.7,0.1,7-0.2,9.7c2.3-0.7,4.2-1.5,5.6-2.2c1.7-0.9,3.8-2.4,7.8-5.4
		c1.2-0.9,2.3-1.8,2.4-3c0.1-0.7-0.3-1.3-1-2.1c-1.9-2.2-3.9-3.2-4.5-3.5c-1.3-0.6-3.1-1.4-5.6-2.1
		C2357.6,114.8,2355.6,114.3,2353.1,114z"/>
	<path class="st15" d="M2326.4,205.9c2.2-1.6,4.8-3.9,7.4-6.9c2.5-2.8,4.4-5.6,5.7-7.9c1.7,2,3,3.9,3.8,5.2c1.1,1.8,2,4.2,3.9,9.2
		c0.6,1.5,1.1,2.9,0.4,3.9c-0.4,0.6-1.1,0.9-2.2,1.1c-3.1,0.6-5.6,0.1-6.3,0c-1.6-0.3-3.7-0.8-6.4-1.8
		C2331,208.1,2328.8,207.2,2326.4,205.9z"/>
	<path class="st16" d="M2210.9,78.5c7.2-3.5,14.3-2.9,17.3,0.9c1,1.2,2.8,4.3,1.7,7.6c-0.8,2.4-2.8,3.7-3.5,4.1
		c2.6,14.1,5.2,28.2,7.7,42.3c2,3,2.2,6.8,0.5,10c-2.5,4.6-7.6,5.1-7.9,5.1l-1.8,0.3c-6.7,1.2-13.1-3.2-14.4-9.9l-7.9-43.1
		c-0.3-0.9-1.8-6.2,1.3-11.4C2206.1,80.5,2209.7,79,2210.9,78.5z"/>
	<path class="st2" d="M2260.3,79.2c7.9,1.2,13.4,5.8,13.7,10.6c0.1,1.6-0.2,5.1-3,7.2c-2.1,1.5-4.4,1.5-5.3,1.4
		c-5.9,13.1-11.9,26.1-17.8,39.2c-0.1,3.6-2.1,6.8-5.3,8.5c-4.7,2.4-9.2-0.2-9.4-0.3l-1.7-0.8c-6.2-2.8-8.9-10.1-6.1-16.3l18.1-39.9
		c0.3-0.9,2.1-6.1,7.5-8.6C2255.2,78.2,2259.1,78.9,2260.3,79.2z"/>
	<path class="st17" d="M2223.7,87.6c0.4,0.1,0.9,0.1,1.6,0.1c0.6,0,1.7-0.1,2.7-0.8c1.4-0.9,1.9-2.5,2-2.9c-0.1-0.4-0.2-0.7-0.4-1.1
		c-0.1,0.2-0.1,0.4-0.3,0.7c-0.1,0.2-0.9,1.8-2.6,2.5c-1.5,0.7-2.8,0.2-3.1,0.9C2223.5,87.2,2223.6,87.5,2223.7,87.6z"/>
	<path class="st17" d="M2221,83.2c0.4,0,0.9,0,1.6-0.2c0.6-0.1,1.7-0.4,2.6-1.2c1.3-1.1,1.4-2.7,1.5-3.2c-0.2-0.3-0.4-0.7-0.5-1
		c0,0.2-0.1,0.4-0.2,0.7c-0.1,0.2-0.6,1.9-2.2,2.9c-1.4,0.9-2.8,0.7-2.9,1.4C2220.8,82.8,2220.9,83,2221,83.2z"/>
	<path class="st17" d="M2266.7,94c0.3,0.2,0.8,0.4,1.5,0.6c0.6,0.2,1.7,0.5,2.8,0.2c1.6-0.4,2.6-1.7,2.9-2.1c0-0.4,0-0.8,0-1.1
		c-0.1,0.1-0.3,0.3-0.5,0.5c-0.2,0.2-1.5,1.4-3.3,1.5c-1.7,0.1-2.7-0.8-3.2-0.2C2266.7,93.6,2266.7,93.8,2266.7,94z"/>
	<path class="st17" d="M2265.7,88.9c0.4,0.1,0.9,0.3,1.5,0.4c0.6,0.1,1.7,0.2,2.8-0.2c1.6-0.6,2.3-2.1,2.5-2.5
		c-0.1-0.4-0.1-0.7-0.2-1.1c-0.1,0.2-0.2,0.4-0.4,0.6c-0.1,0.2-1.2,1.6-3.1,2c-1.6,0.4-2.8-0.3-3.2,0.3
		C2265.6,88.5,2265.6,88.7,2265.7,88.9z"/>
	<path class="st2" d="M2103.7,153.7c-3.7-3.1-4.1-8.2-4.6-14.2c-0.6-8.9,1.7-9.6,0.8-16.5c-1.1-8.2-5.2-14.1-7.2-16.9
		c-2.2-3.1-5.1-7-10.4-9.7c-4-2.1-7.5-2.5-9.7-2.7c-11-1.3-19.4,3.4-20.9,4.2c-3,1.7-13.5,7.8-13.5,16.3c0,0.5,0.1,5.1,3,6.7
		c2.8,1.6,6.6-0.4,9.8-2.1c5.8-3.1,5.9-5.4,10.6-7.4c1.6-0.6,6.1-2.5,10.5-0.9c6.3,2.3,8.3,10.6,9,13.5c2.2,9.1-1.4,12.5-1.2,21.8
		c0.2,8,3.2,17.5,8.7,23.1c9.1,9.4,27.2,10.1,44.8,2.1c-1.4-6.7-2.7-13.4-4.1-20.1c-2.3,1.6-7,4.3-13.3,4.9
		C2112.3,156.2,2107.4,156.7,2103.7,153.7z"/>
	<path class="st16" d="M2129.4,91c6.7-4.3,13.9-4.5,17.3-1.1c1.1,1.1,3.2,4,2.5,7.4c-0.5,2.5-2.4,4-3,4.5
		c4.2,13.7,8.3,27.4,12.5,41.2c2.3,2.8,2.9,6.5,1.6,9.8c-1.9,4.9-7,5.9-7.3,6l-1.8,0.5c-6.5,2-13.4-1.7-15.4-8.2l-12.7-41.9
		c-0.4-0.9-2.5-5.9,0-11.4C2124.9,93.6,2128.3,91.6,2129.4,91z"/>
	<path class="st2" d="M2165.4,82.2c7.7-1.9,14.6,0.2,16.7,4.4c0.7,1.4,1.8,4.8,0,7.8c-1.3,2.2-3.5,3.1-4.3,3.3
		c-0.4,14.3-0.8,28.7-1.2,43c1.3,3.3,0.7,7.1-1.6,9.9c-3.4,4-8.5,3.4-8.8,3.4l-1.8-0.1c-6.8-0.2-12.2-5.9-12-12.7l1.2-43.8
		c-0.1-0.9-0.5-6.4,3.6-10.9C2160.4,83.1,2164.2,82.4,2165.4,82.2z"/>
	<path class="st2" d="M2129.8,149c-4.7,8-5.1,15.7-5.3,20.7c-0.5,10.2,2,18.4,3.9,23c2.1,2.7,5.4,6.5,10.4,9.8
		c5.4,3.6,10,4.8,18.8,7c4.6,1.2,13.2,3.1,24.3,3.6c2,0.1,3.5,0.1,6.9,0.1c18.2,0,27.2,0.1,35.8-0.5c13-0.9,19.5-1.4,26.1-3.9
		c5.8-2.2,14.9-5.8,20.8-15.1c4-6.2,5-12.5,5.3-14.7c0.3-2.2,1-6.6-0.1-12c-0.6-3.3-1.7-6.2-2.3-7.6c-0.9-2.3-1.7-4.1-2.2-5
		c-4-7.7-9.8-12.1-12.3-14c-3.9-2.9-7.4-4.5-12.6-7c-1-0.5-2-0.9-2.9-1.3c0,0-3-1.3-5.7-2.3c-3.2-1.2-13.9-2.8-28.6-3.3
		c-5.2,0.1-10.4,0.2-15.7,0.3c-4.9-0.3-11.7-0.4-19.7,0.4c-7.5,0.7-14.3,1.1-22,4.2C2147.5,133.4,2136.5,137.8,2129.8,149z"/>
	<path class="st17" d="M2143.1,98.6c0.4,0,0.9,0,1.6-0.1c0.6-0.1,1.7-0.3,2.6-1.1c1.3-1.1,1.6-2.7,1.6-3.2c-0.2-0.3-0.3-0.7-0.5-1
		c0,0.2-0.1,0.4-0.2,0.7c-0.1,0.2-0.7,1.9-2.3,2.8c-1.5,0.8-2.8,0.5-3,1.2C2142.9,98.2,2143,98.5,2143.1,98.6z"/>
	<path class="st17" d="M2140,94.5c0.4,0,0.9-0.1,1.5-0.4c0.6-0.2,1.6-0.6,2.4-1.5c1.1-1.3,1.1-2.9,1.1-3.4c-0.2-0.3-0.4-0.6-0.6-0.9
		c0,0.2,0,0.4-0.1,0.7c0,0.2-0.4,2-1.8,3.1c-1.3,1-2.7,1-2.7,1.7C2139.7,94.2,2139.9,94.4,2140,94.5z"/>
	<path class="st17" d="M2177,93.3c0.4,0,0.9,0.1,1.6,0c0.6-0.1,1.7-0.2,2.7-0.9c1.4-1,1.7-2.5,1.8-3c-0.1-0.4-0.3-0.7-0.4-1.1
		c0,0.2-0.1,0.4-0.2,0.7c-0.1,0.2-0.8,1.8-2.5,2.6c-1.5,0.7-2.8,0.4-3,1C2176.9,92.9,2177,93.2,2177,93.3z"/>
	<path class="st17" d="M2174.1,89c0.4,0,0.9-0.1,1.6-0.3c0.6-0.2,1.7-0.5,2.5-1.3c1.2-1.2,1.3-2.8,1.3-3.3c-0.2-0.3-0.4-0.6-0.6-1
		c0,0.2,0,0.4-0.1,0.7c-0.1,0.2-0.5,1.9-2.1,3c-1.4,1-2.7,0.8-2.8,1.5C2173.9,88.6,2174,88.8,2174.1,89z"/>
	<path class="st14" d="M2373.3,53.5c-2.5-1.8-6-0.8-7.9,0.4c-2.4,1.4-3.4,3.7-3.7,4.8c-0.4-1.1-1.4-3.3-3.7-4.8
		c-1.9-1.2-5.5-2.2-7.9-0.4c-2.3,1.7-2.3,5-2.3,5.9c0,0.8,0.1,3.6,4.1,8.5c1.8,2.2,4.9,5.4,9.7,8.2c0,0,0,0,0,0.1l0,0l0,0
		c0,0,0,0,0-0.1c4.8-2.8,7.9-6,9.7-8.2c4-4.8,4.1-7.7,4.1-8.5C2375.6,58.5,2375.6,55.3,2373.3,53.5z"/>
</g>
</svg>
