<?xml version="1.0" encoding="utf-8"?>
<!-- Generator: Adobe Illustrator 23.0.3, SVG Export Plug-In . SVG Version: 6.00 Build 0)  -->
<svg version="1.1" id="Ebene_1" xmlns="http://www.w3.org/2000/svg" xmlns:xlink="http://www.w3.org/1999/xlink" x="0px" y="0px"
	 viewBox="0 0 288 560" style="enable-background:new 0 0 288 560;" xml:space="preserve">
<style type="text/css">
	.st0{fill:#E6E6E6;}
</style>
<path class="st0" d="M215.85,318.88c3.71-5.01,4.95-9.99,5.87-13.72c0.28-1.13,0.91-3.83,1.23-7.36
	c1.13-12.09-2.37-22.71-3.57-26.28c-3.41-10.08-8.46-17.6-12.5-22.58c-2.28-2.39-5.44-5.47-9.5-8.7c-3.75-3-7.79-6.19-13.67-9.07
	c-7.02-3.43-14.61-5.5-22.74-6.29c-1.53-0.15-3.08-0.43-5.86-0.72c-14.55-1.51-24.63-2.56-35.65-1.48
	c-9.28,0.91-15.78,2.99-24.41,5.76c-11.78,3.77-21.23,8.23-28,11.85c-0.03,0.39-0.1,0.77-0.19,1.14c0,0,0,0.01,0,0.01
	c0,0-1.95,6.72-3.37,11.61c-0.01,0.42-0.02,0.85-0.04,1.27c0.01,1.24,0.02,2.48,0.02,3.73c0.01,0.43,0.02,0.86,0.03,1.3
	c0.97,3.73,2.55,9.14,5.02,15.58c0.94,2.44,1.42,3.68,2.11,5.07c3.89,7.78,9.54,12.29,12.07,14.26c3.87,3.02,7.26,4.69,12.48,7.27
	c3.65,1.8,6.51,2.96,8.58,3.79c9.14,3.66,18.57,7.07,26.14,9.71c2.54,0.26,6.36,0.42,11.13-0.31c-0.72,3.66-1.76,6.64-1.82,9.64
	c-0.13,7.19,3.9,12.54,10.98,13.21c8.01,0.76,16.14,0.55,24.2,0.2c8.91-0.38,17.37-3.03,25.49-6.65c3.63-1.62,6.01-3.31,7.27-4.2
	C209.62,325.18,212.89,322.87,215.85,318.88z"/>
</svg>
