<?xml version="1.0" encoding="utf-8"?>
<!-- Generator: Adobe Illustrator 23.0.3, SVG Export Plug-In . SVG Version: 6.00 Build 0)  -->
<svg version="1.1" id="Ebene_1" xmlns="http://www.w3.org/2000/svg" xmlns:xlink="http://www.w3.org/1999/xlink" x="0px" y="0px"
	 viewBox="0 0 288 560" style="enable-background:new 0 0 288 560;" xml:space="preserve">
<style type="text/css">
	.st0{fill:#E6E6E6;}
</style>
<path class="st0" d="M192.7,261.78c0,0-2.63-6.51-8.95-13.67c-0.23-0.26-1.06-1.19-2.42-1.97c0,0-1.39-0.77-2.94-0.98
	c-3.44-0.46-6.99,3.99-8.89,6.37c-1.93,2.41-4.09,5.17-4.64,9.38c-0.25,1.89-0.09,3.49,0.08,4.55c0.08,0.5,0.16,1,0.25,1.5
	c0.41,0.27,0.94,0.66,1.51,1.18c0.41,0.37,1.08,0.97,1.66,1.83c0,0,0.93,1.26,1.25,2.95c0.92,4.95-1.22,10.1-5.97,11.78
	c-5.42,1.92-11.16,3.71-16.84,4c-12.33,0.63-24.71,0.24-37.07,0.34c-5.23,0.04-9.8,1.63-12.97,6.12
	c-4.42,11.3,2.62,20.97,14.57,20.03c8.48-0.67,17.04-0.2,25.53-0.8c9.5-0.67,19.04-1.48,28.41-3.1
	c14.97-2.59,24.56-11.75,29.22-26.14c1.27-3.91,1.25-7.54,1.17-10.2C195.45,268.84,193.74,264.4,192.7,261.78z"/>
</svg>
