<?xml version="1.0" encoding="utf-8"?>
<!-- Generator: Adobe Illustrator 23.0.3, SVG Export Plug-In . SVG Version: 6.00 Build 0)  -->
<svg version="1.1" id="Ebene_1" xmlns="http://www.w3.org/2000/svg" xmlns:xlink="http://www.w3.org/1999/xlink" x="0px" y="0px"
	 viewBox="0 0 288 560" style="enable-background:new 0 0 288 560;" xml:space="preserve">
<style type="text/css">
	.st0{fill:#E6E6E6;}
	.st1{fill:#20201E;}
	.st2{fill:#201F1E;}
	.st3{fill:#202020;}
</style>
<path class="st0" d="M132.34,331.32c14.43,2.37,25.65,0.38,28.94-0.27c0.92-0.18,4.59-0.93,9.26-2.47
	c4.35-1.44,9.19-3.08,14.41-6.79c1.14-0.81,2.04-1.54,2.66-2.06c0.03-0.03,2.55-2.23,2.55-2.23c2.5-2.19-2.55,2.23-2.55,2.23
	c-0.06-0.06,0.89-1.46,2.55-2.23c0.59-0.28,1.13-0.55,1.81-0.48c1.17,0.13,2.12,1.65,3.34,2.1c1.01,0.37,2.26,0.08,3.41,0.08
	c-0.05-1.1,0.05-2.25-0.22-3.29c-0.16-0.63-0.81-1.24-1.4-1.62c-1.82-1.17-2.27-2.43-0.99-4.37c1.28-1.95,2.61-2.76,4.9-1.56
	c1.07,0.56,2.41,0.87,3.6,0.82c0.83-0.04,2.07-0.75,2.3-1.44c0.24-0.72-0.26-2.08-0.89-2.59c-0.92-0.74-2.44-0.75-3.35-1.5
	c-1.04-0.85-2.17-2.09-2.39-3.32c-0.33-1.83,1.09-2.73,2.92-2.85c1.76-0.12,3.61,0.01,5.24-0.53c1.05-0.35,1.77-1.69,2.64-2.59
	c-1.13-0.73-2.22-2.05-3.38-2.1c-6.71-0.32-6.57-0.22-6.79-7c-0.5-15.92-2.48-31.64-6.67-47.04c-0.43-1.59-1.18-3.11-1.87-4.62
	c-2.04-4.53-5.7-5.91-9.89-3.22c-4.98,3.2-9.7,6.81-14.47,10.32c-1.67,1.23-3.04,2.91-4.79,3.96c-1.3,0.78-3.13,1.46-4.53,1.18
	c-9.32-1.86-18.56-1.89-27.87,0.06c-1.55,0.32-3.69-0.38-5.05-1.34c-6.35-4.49-12.47-9.3-18.78-13.85
	c-4.45-3.21-8.76-1.88-10.71,3.21c-1.03,2.71-2.04,5.48-2.6,8.31c-2.88,14.59-5.68,29.2-5.49,44.17c0.01,0.41-0.04,0.83-0.07,1.24
	c-0.44,5.02-0.43,4.89-5.41,4.62c-2.06-0.11-5.27-1.32-5.69,1.96c-0.43,3.32,2.98,2.32,4.83,2.87c1.37,0.4,2.89,0.26,4.32,0.53
	c2.42,0.46,3.05,2.46,1.45,4.36c0,0-0.02,0.01-0.02,0.01c-0.51,0.28-1.01,0.56-1.52,0.84c-0.18,0.02-0.36,0.04-0.54,0.04
	c-0.87,0.52-1.88,0.9-2.57,1.6c-0.99,1.01-1.73,2.25-2.58,3.4c1.35,0.38,2.7,1.03,4.05,1.05c1.18,0.02,2.41-0.6,3.55-1.09
	c2.42-1.03,3.7,0.28,4.8,2.14c1.19,2.01-0.09,3.07-1.54,4.07c-0.43,0.29-1.07,0.54-1.21,0.94c-0.48,1.43-0.78,2.92-1.15,4.39
	c2.41-0.32,3.58-0.67,4.17-0.89c0.04-0.01,0.08-0.03,0.14-0.05c1.11-0.46,1.51-1.21,2.13-1.57c0.74-0.43,1.44-0.59,2.09-0.57
	c0.98,0.03,1.62,0.53,3.64,2.21c1.29,1.07,2.31,1.93,2.93,2.45c1.99,1.23,4.73,2.79,8.11,4.35
	C114.25,326.27,121.72,329.58,132.34,331.32z"/>
<path class="st1" d="M166.53,275.24c3.07,0.16,5.55,3.7,5.31,7.57c-0.23,3.53-2.66,6.28-5.42,6.13c-3.03-0.16-5.55-3.76-5.31-7.59
	C161.33,277.8,163.74,275.09,166.53,275.24z"/>
<path class="st2" d="M124.12,275.48c3.01,0.07,5.46,3.23,5.42,7c-0.04,3.65-2.53,6.69-5.42,6.64c-2.94-0.05-5.44-3.35-5.37-7.07
	C118.81,278.27,121.14,275.42,124.12,275.48z"/>
<path class="st3" d="M151.3,300.52c-2.17,2.04-4.18,5.25-5.72,5.06c-1.87-0.23-3.38-3.27-4.9-5.24c-0.13-0.16,0.85-2.05,1.35-2.1
	c2.47-0.24,4.95-0.25,7.4-0.05C150.01,298.25,150.47,299.44,151.3,300.52z"/>
</svg>
