<?xml version="1.0" encoding="utf-8"?>
<!-- Generator: Adobe Illustrator 23.0.3, SVG Export Plug-In . SVG Version: 6.00 Build 0)  -->
<svg version="1.1" id="game" xmlns="http://www.w3.org/2000/svg" xmlns:xlink="http://www.w3.org/1999/xlink" x="0px" y="0px"
	 viewBox="0 0 921.7 707.7" style="enable-background:new 0 0 921.7 707.7;" xml:space="preserve">
<style type="text/css">
	.st0{fill:#664D6A;}
	.st1{fill:#674D6B;}
	.st2{fill:#B46563;}
	.st3{fill:#2B3B62;}
	.st4{fill:#202C4C;}
	.st5{fill:#A5666A;}
	.st6{fill:#725772;}
	.st7{fill:#CA7C89;}
	.st8{fill:#3F4E70;}
	.st9{fill:#071C3A;}
	.st10{fill:#2C3B62;}
	.st11{fill:#1E2C4D;}
	.st12{fill:#CC7B5C;}
	.st13{fill:#634E6C;}
	.st14{fill:#524350;}
	.st15{fill:#22213D;}
	.st16{fill:#544553;}
	.st17{fill:#794F61;}
	.st18{fill:#3D3D5A;}
	.st19{fill:#544C71;}
	.st20{fill:#1C2B4C;}
	.st21{fill:#333658;}
	.st22{fill:#253757;}
	.st23{fill:#6E4B60;}
	.st24{fill:#60597B;}
	.st25{fill:#6E7894;}
	.st26{fill:#6A7591;}
	.st27{fill:#717B96;}
	.st28{fill:#DCA179;}
</style>
<g>
	<path class="st0" d="M1.9,370.8c1.9,0.3,3.9,0.9,5.8,0.9c8.1-0.2,16.3-0.8,24.4-0.8c43.8-0.4,87.6-0.7,131.3-1
		c44.4-0.3,88.9-0.7,133.3-1c44.3-0.3,88.6-0.7,132.8-1c43.9-0.3,87.9-0.7,131.8-1c44.4-0.3,88.9-0.7,133.3-1
		c44.3-0.3,88.6-0.7,132.8-1c30.7-0.2,61.3,0,92-0.1c-0.6,8-1.8,16-1.8,24c-0.2,42.8-0.1,85.6-0.1,128.5c0,1.6,0,3.3,0,4.9
		c-303.9,0-607.5,0-911.6,0c-0.4-7.3-1-14-1.2-20.8c-0.8-30.3-1.4-60.6-2.3-90.9c-0.1-2.9-1.9-11.1-1.9-22.2
		C0.7,380.8,1.3,374.8,1.9,370.8z M212.7,385.7c-7.5-0.3-14.9-1-22.4-0.9c-37.9,0.2-75.8,0.6-113.8,1c-1.3,0-2.6,1.2-3.9,1.9
		c-1.5-0.6-2.9-1.5-4.4-1.7c-4.2-0.5-8.5-0.8-12.7-0.8c-10.2-0.1-20.3,0-30.3,0c-0.5,11.4-1.4,21.3-1.4,31.2
		c0.1,25.7,0.5,51.5,0.9,77.2c0,1,0.7,2.1,1,3.1c-0.7,1.5-2.2,3.3-1.8,4.4c0.4,1.1,2.7,1.9,4.3,2.1c3.7,0.4,7.4,0.4,11.1,0.4
		c72.4,0.3,144.9,0.8,217.3,0.8c146.1-0.1,292.1-0.4,438.2-0.6c64.3-0.1,128.6-0.1,192.9-0.2c2.9,0,5.9,0,8.8-0.1
		c3.5,1.9,4-0.3,4.1-3c0.3-9.9,0.9-19.9,0.9-29.8c-0.1-27.1-0.6-54.2-0.9-81.3c0-1.1-0.3-2.2-0.5-3.9c-45.3,0-90.3,0-135.4,0
		c-4,0-8,0-12,0c-8.5-0.3-16.9-0.9-25.4-0.9c-61.1-0.4-122.2-0.9-183.3-1c-52.5,0-104.9,0.6-157.4,0.9c-57.3,0.3-114.6,0.7-171.9,1
		C214.1,385.8,213.4,385.7,212.7,385.7z"/>
	<path class="st1" d="M272.8,603.5c9.4,3.7,17.6,8.6,23.5,17.5c3.9,6,9.8,10.7,14.7,16.2c3.2,3.6,6.7,7,8.9,11.2
		c3.1,5.8-0.1,10.7-6.5,12.2c-7.8,1.7-14.3-1.9-20.9-4.6c-3.6-1.5-7.1-3.8-10.2-6.1c-3.7-2.8-7.1-3-11.1-0.9
		c-8.4,4.6-16.9,9.1-25.9,13.9c0.7,5.4,1.7,11.4,2.3,17.4c1,9.9-1.5,19-6.9,27.3c-2,0-4,0-6,0c-0.6-1.5-1-3.1-1.9-4.4
		c-2.6-4-5.4-7.8-8.2-11.7c-3.2-4.4-6.6-8.7-9.8-13c-0.4-0.9-0.7-1.9-1.3-2.6c-6-7.4-9.1-15.9-9.9-25.4c0.4-2,0.8-3.9,1.2-5.9
		c2.3-3.4,4.5-6.7,6.8-10.1c0-0.3,0.1-0.6,0.2-1c2.6-0.9,5.4-1.7,7.9-2.9c5.2-2.5,10.6-4.9,15.4-8.1c7.2-4.9,13.6-11.1,21.1-15.4
		C260.9,604.7,267.2,604.7,272.8,603.5z M226.7,652.7c-1-0.6-1.9-1.4-2.9-1.9c-3.4-1.6-6.3-0.7-8,2.5c-1.8,3.6-0.2,6.4,2.9,8.3
		c3.3,2.1,5.8,0.1,7.5-2.5c1-1.5,1-3.7,1.4-5.6c2.3,0.5,5.4,0.3,6.9,1.7c4.5,4.4,7.2-0.2,10.3-1.8c1.5-0.7,0.3-12.3-1-13.2
		c-0.5-0.3-1.2-0.5-1.8-0.7c-1.9-0.8-3.7-2-5.6-2.3c-2.4-0.3-4.9,0.3-7.4,0.5c0.4,1.9,0.6,3.8,1.1,5.6c0.2,0.7,0.9,1.3,0.8,1.2
		C229.4,647.8,228.1,650.3,226.7,652.7z M275.6,630.8c1.7-1.7,4.5-3.2,4.8-5.1c0.8-4.9-2.4-8.9-5.9-8.8c-3.4,0.1-7,3.7-6.9,7.2
		C267.7,628.5,270.5,629.9,275.6,630.8z"/>
	<path class="st2" d="M204.8,644.8c-0.4,2-0.8,3.9-1.2,5.9c-0.8,1.9-1.9,3.8-2.4,5.7c-0.6,2.2-0.7,4.6-0.9,6.8
		c-0.1,0.8-0.2,1.7,0.1,2.3c3.1,6.3,7.5,11.1,14.5,13.1c3.3,4.3,6.6,8.6,9.8,13c2.8,3.8,5.6,7.7,8.2,11.7c0.9,1.3,1.3,2.9,1.9,4.4
		c-1,0-2,0-3,0c-11.4-10.3-22.6-20.9-34.4-30.7c-7.5-6.2-9.5-13.5-8.6-22.5c1-9.9,13.3-23.4,22.9-24.9c0,1.4,0.1,2.7,0.1,4.1
		c-0.1,0.3-0.1,0.6-0.2,1C207.3,636.7,204.1,639.4,204.8,644.8z"/>
	<path class="st3" d="M74.8,286c1-0.1,2-0.2,3-0.2c87.3,0,174.6,0,261.9,0c-1.2,8.8-1.2,8.7-9.4,9.9c-3.5,0.5-7.1,1.4-10.6,2.1
		c-6.8,1.1-13.7,1.6-20.3,3.4c-2.9,0.8-5.8,3.6-7.6,6.3c-1.5,2.2-1.3,5.3,3,5.2c2.8,3.5,6.6,3.2,10.5,2.9c3.6-0.3,7.2-0.9,10.9-0.8
		c12,0.2,24,0.7,36.1,0.9c20.6,0.4,41.2,0.7,61.8,1c5.8,0.1,11-3.9,11.6-8.8c0.5-4.3-3.7-9.1-9.3-10c-3.6-0.6-7.2-1-10.8-1.1
		c-9.8-0.1-19.6,0-29.5-0.1c-1.4,0-3.9-1.3-4-2.2c-0.3-2.9,0.4-5.8,0.6-8.7c154.7,0,309.5,0,464.2,0c1.4,0,6.4-0.5,11.7,2.1
		c5.1,2.5,7.2,6.3,11.6,12.1c3.1,4.1,0.3-0.1,15.3,17.4c5.2,6.1,8.7,10.2,15.8,18.4c4.9,5.6,7.5,8.3,11.2,11.7
		c5.9,5.4,11.3,9.3,15.1,11.9c-10.9,0.6-27,1.4-46.6,1.7c-13.1,0.2-23,0.1-48.3-0.3c-71.5-1.2-68.6-1.8-83.4-1.4
		c-28.9,0.9-32.6,2.9-58.2,2.7c-20.8-0.1-37.9-1.5-49.4-2.7c-16.9,0.1-33.9,0.1-50.8,0.2c-5.7,0-11.4,0-17.1,0.1
		c-82.9,0.3-165.8,0.7-248.7,0.9c-96.2,0.2-192.5,0.1-288.7,0.2c-1.9,0-3.8-0.6-5.7-0.9c16.4-20.3,32.8-40.5,49.1-60.9
		C72.6,295.2,75.5,291.3,74.8,286z"/>
	<path class="st4" d="M372.6,285.8c-0.1,0.8-0.2,2-0.4,3.6c-0.4,3.4-0.7,4.2-0.2,5.1c0.8,1.5,2.8,2.1,4,2.2c9.8,0.2,19.6,0,29.5,0.1
		c3.6,0.1,7.3,0.5,10.8,1.1c5.5,0.9,9.8,5.7,9.3,10c-0.6,5-5.8,8.9-11.6,8.8c-20.6-0.3-41.2-0.6-61.8-1c-12-0.2-24-0.7-36.1-0.9
		c-3.6-0.1-7.2,0.6-10.9,0.8c-3.9,0.3-7.7,0.5-10.5-2.9c0.5-2,0.3-4.9,1.5-5.7c2.6-1.7,5.9-2.8,9-3.4c4.5-0.9,9.1-1.2,13.6-1.7
		c6.9-0.5,13.9-0.9,20.8-1.4c5.5-0.4,8.3-2.7,8.7-8.2c0.8-10,1-20.1,1.5-30.2c0.2-4.5-1.7-6.1-6-5c-37.5,0.3-74.9,0.1-112.4,1
		c-25.3,0.6-50.5,2.9-75.7,4.4c-5.3,0.3-10.6,0.3-16,0.4c-4.1-1.4-8.1-2.8-12.2-4.1c-3.6-1.2-4.6-4.1-4.8-7.4
		c-0.7-15.2-1.8-30.4-1.9-45.6c-0.1-23.3,0.4-46.6,1-69.8c0.3-11.3,1.7-22.5,2.1-33.8c0.6-17.3,0.6-34.5,1.1-51.8
		c0.5-15.8-3.2-32.1,5.3-47c2.8-0.9,5.6-2.5,8.4-2.4c66.6,0.8,133.2,1.8,199.9,2.7C367,4,395.4,4.4,423.7,4.8
		c45.6,0.5,91.3,1.1,136.9,1.5c3.4,0,6.9-1.2,10.3-1.3c7.9-0.3,13.4,4.3,14.2,12.2c0.4,4.3-0.4,8.6-0.2,13
		c0.7,17.3,1.5,34.6,2.3,51.9c0.1,1.8,0.4,3.6,0.4,5.5c0.5,48.6,1,97.3,1.5,145.9c0.1,6.9,0,13.9,0,20.8c0,1.2,0.1,2.4,0.1,3.6
		c-1.5,0.1-3.3,0.2-5.4,0.3c0,0-3.4,0.2-6.8,0.3c-18.4,0.5-37.3-1.1-37.3-1.1c-21.9-1.9-47,0.7-88.4,1.3
		c-18.2,0.3-44.7,0.2-77.2-1.5c-0.8,4.2-1.5,9.1-1.7,14.6C372,276.9,372.2,281.7,372.6,285.8z M142.7,239.8c0.9,0.2,1.8,0.7,2.7,0.6
		c5.9-0.5,11.8-1.6,17.8-1.6c133.2-0.4,266.4-0.8,399.6-1.1c0.7-1,1.4-2,2.1-3c0.3-1,0.6-2,1-3c0.3-1.6,0.9-3.2,0.9-4.7
		c-0.2-5.6-0.9-11.2-0.9-16.9c-0.1-52.5-0.1-104.9-0.1-157.4c-0.1-3,0.2-6.1-0.2-9.1c-0.6-4.6-2.9-8.8-0.1-13.8
		c1-1.8,2.4-6.2-1.6-8.2c0-1.3,0-2.7,0-4c0-6.9,0-7-7-7c-137.4,0-274.8,0-412.3,0c-2.1,0-4.2,0-7,0c0,76.7,0,152.5,0,229
		C139.1,239.8,140.9,239.8,142.7,239.8z"/>
	<path class="st1" d="M481.6,665.7c-3.2,3.8-5.9,8.3-9.8,11.3c-4.9,3.8-11.5,1.5-13.1-4.6c-2-7.3-2.7-14.9-3.8-22.4
		c-0.4-2.4-0.1-5-0.1-8.6c-12.3-3.7-24.6-7.7-37.1-11.1c-1.8-0.5-4.7,1.2-6.6,2.6c-5.1,4-9.9,8.4-14.9,12.5c-2,1.7-4.2,3.3-6.6,4.3
		c-4.3,1.8-7.4,0.4-9.1-4c-1.9-5.1-2.6-10.2,0.2-15.2c-0.1,3-0.3,5.9-0.4,8.9c0.4,0.2,0.8,0.3,1.2,0.5c0.8-1.4,1.8-2.8,2.3-4.3
		c2.4-8.1,4.2-16.4,7.1-24.3c1.8-4.8,4.7-9.4,8-13.3c4-4.7,10-5.7,15.9-5.6c5.4,0.2,10.9-3.3,16.4,0.7c2,1.5,5,1.7,7.5,2.4
		c0.7,0.3,1.3,0.7,2,1c1.7,0.4,3.3,0.7,5,1.1c8.1,1.3,16.1,2.9,24.2,4c5.1,0.7,10.3,0.5,13.9,5c-0.9,1.1-2.6,2.3-2.4,3.1
		c0.8,3.5,1.9,7,3.5,10.2c4.8,9.2,6.6,18.2,0,27.4c-2.5,3.5-4.3,7.4-6.5,11.1c-2.7,4.5-5.6,9-8.4,13.5c0.3,0.3,0.6,0.6,0.9,0.9
		c1.3-1,2.6-2,4-2.9C477.1,668.6,479.3,667.2,481.6,665.7z M423.4,624.3c1.9-2.4,2.7-4.4,4.1-4.9c6.8-2.6,6.6-6,4-12.4
		c-1.4-3.4-3.2-3.2-4.9-3.6c-1.2-0.2-2.9,1.4-4.2,2.5c-0.6,0.4-0.5,2.1-0.9,2.2c-7.8,1.1-7.9,4.9-3.6,10.1
		C419.3,620.1,421.1,621.8,423.4,624.3z M474.1,633.7c3.8,0,7.5-3.2,7.5-6.5c0-3.1-4.5-7.5-7.6-7.5c-3.9,0.1-6.4,3.2-6.5,7.9
		C467.4,632.3,470,633.8,474.1,633.7z M404.5,614.8c5.5-0.1,9.6-3.8,9.1-7.5c-0.5-4-3.3-5.5-7-5.6c-4.3-0.1-6.9,2.8-6.8,7.4
		C399.9,612.9,402,614.8,404.5,614.8z"/>
	<path class="st2" d="M130.5,3.3c-8.5,14.9-4.9,31.2-5.3,47c-0.5,17.3-0.5,34.5-1.1,51.8c-0.4,11.3-1.8,22.5-2.1,33.8
		c-0.6,23.3-1.1,46.6-1,69.8c0.1,15.2,1.2,30.4,1.9,45.6c0.2,3.3,1.2,6.2,4.8,7.4c4.1,1.3,8.1,2.7,12.2,4.1
		c-3.9,1.4-11.7,3.4-17.3-0.4c-6.8-4.7-6.3-15.5-6.3-21.3c0-21.1,0.2-42.2,0.4-63.3C117,143.9,117,110,118,76.1
		c0.6-22.9,2.5-45.8,4.1-68.7c0.1-1,1.4-4.1,4.3-5.9c3.9-2.5,9.5-1.4,9.6-0.5C136,1.4,135.1,2.1,130.5,3.3z"/>
	<path class="st2" d="M20.5,359.8c-1.6,2.3-2.8,4-6.6,3.5c-2.7-0.3-5.7,3-8.7,4.5c-1.3,0.6-2.8,0.7-4.2,1c-2.4-4.2,0.5-6.2,3-9
		c6.3-7.3,11.6-15.3,17.8-22.7c14.1-17.1,28.4-34,42.6-50.9c0.4-0.5,0.9-1,1.3-1.5c4.9-5.3,6.9-5,9.1,1.4c0.7,5.3-2.2,9.3-5.2,13
		C53.3,319.3,36.8,339.6,20.5,359.8z"/>
	<path class="st2" d="M445.7,597.7c-1.7-0.4-3.3-0.7-5-1.1c-0.7-0.3-1.3-0.7-2-1c-2.5-0.8-5.5-0.9-7.5-2.4c-5.4-4-10.9-0.6-16.4-0.7
		c-6-0.2-12,0.9-15.9,5.6c-3.3,3.9-6.2,8.5-8,13.3c-2.9,7.9-4.7,16.2-7.1,24.3c-0.5,1.5-1.5,2.9-2.3,4.3c-0.4-0.2-0.8-0.3-1.2-0.5
		c0.1-3,0.3-5.9,0.4-8.9c0,0,0,0.1,0,0.1c0.2-1,0.3-2,0.5-3c1.2-6.7,2.2-13.4,3.6-20c3.9-17.4,23.2-30.4,39-25.9
		c5.5,1.6,10.4,5,15.5,7.6c1.8,0.9,3.6,1.6,5.5,2.4C447.6,593.4,448.1,595.3,445.7,597.7z"/>
	<path class="st5" d="M445.7,597.7c2.4-2.4,1.9-4.3-1-5.9c10.5-1.7,19.9,2.7,29.6,5.2c3.4,0.8,6.8,1.4,10.1,2.4
		c10.6,3.2,16.3,11.9,17.5,24c0.7,7.1-3.3,11.9-6.1,17.4c1.3-7.7,0.6-15.3-1.9-22.8c-1.8-5.3-5.4-8.8-10.2-11.4
		c-3.6-4.5-8.9-4.3-13.9-5C461.8,600.6,453.8,599.1,445.7,597.7z"/>
	<path class="st6" d="M483.8,606.7c4.8,2.6,8.4,6.1,10.2,11.4c2.5,7.5,3.1,15,1.9,22.8c0,0,0-0.1,0-0.1c-0.3,0.8-0.7,1.6-1,2.4
		c0.1,0.2,0,0.4-0.2,0.5c-0.3,0.8-0.6,1.6-0.9,2.4c-1.5,2.8-2.9,5.6-4.6,8.3c-2.4,3.9-5.1,7.6-7.6,11.4c-2.2,1.4-4.5,2.8-6.7,4.3
		c-1.4,0.9-2.6,1.9-4,2.9c-0.3-0.3-0.6-0.6-0.9-0.9c2.8-4.5,5.7-8.9,8.4-13.5c2.2-3.7,4-7.6,6.5-11.1c6.6-9.2,4.8-18.2,0-27.4
		c-1.6-3.2-2.7-6.7-3.5-10.2C481.2,609,483,607.7,483.8,606.7z"/>
	<path class="st7" d="M343.8,257.1c4.3-1.1,6.2,0.5,6,5c-0.5,10.1-0.7,20.1-1.5,30.2c-0.4,5.6-3.2,7.8-8.7,8.2
		c-6.9,0.5-13.9,0.9-20.8,1.4c0.3-1.4,0.6-2.7,0.9-4.1c3.5-0.7,7-1.5,10.6-2.1c8.2-1.2,8.2-1.1,9.4-9.9
		C341.1,276.2,342.5,266.7,343.8,257.1z"/>
	<path class="st5" d="M211.7,633.7c0-1.4-0.1-2.7-0.1-4.1c4.2-1.4,8.8-2.1,12.4-4.3c7.3-4.5,14.1-9.6,20.9-14.9
		c6.3-4.9,12.9-8.8,21-9.3c2.2-0.1,4.6,1.6,6.9,2.4c-5.6,1.2-11.9,1.2-16.6,3.8c-7.5,4.2-13.9,10.5-21.1,15.4
		c-4.8,3.2-10.2,5.6-15.4,8.1C217.1,632.1,214.4,632.8,211.7,633.7z"/>
	<path class="st1" d="M381.1,627.7c-0.2,1-0.3,2-0.5,3C380.8,629.7,380.9,628.7,381.1,627.7z"/>
	<path class="st5" d="M493.8,646c0.3-0.8,0.6-1.6,0.9-2.4C494.4,644.4,494.1,645.2,493.8,646z"/>
	<path class="st5" d="M494.8,643.2c0.3-0.8,0.7-1.6,1-2.4C495.5,641.6,495.2,642.4,494.8,643.2z"/>
	<path class="st8" d="M214.7,385.8c57.3-0.3,114.6-0.7,171.9-1c52.5-0.3,104.9-0.9,157.4-0.9c61.1,0,122.2,0.6,183.3,1
		c8.5,0.1,16.9,0.6,25.4,0.9c-2.6,7.3-5.1,14.6-7.7,21.9c0.5,0,0.9-0.1,1.4-0.1c0.4,2.1,0.9,4.1,1.3,6.2c-3.9-3.2-8.4-4.4-13.3-2.9
		c-4.4,1.4-11.3-1.1-11.7,7c-1.5-2.6-2.8-5.4-4.6-7.8c-1.9-2.5-4.5-4.4-6.3-6.9c-1.8-2.6-3.5-6.2-7-4.8c-1.7,0.7-2.5,4.6-3,7.2
		c-2.6,16-6.2,31.8-5.2,48.2c-28.7,0.3-57.5,0.9-86.2,1c-41.9,0.2-83.8,0.1-125.7,0c-16.3,0-32.5-0.5-48.8-0.7
		c-1.5-2.7-3.1-5.4-4.5-8.2c-3.3-6.4-6.4-12.9-9.9-19.2c-0.5-1-2.4-1.6-3.7-1.7c-10.2-0.4-20.5-1-30.7-1
		c-14.6,0.1-29.2,0.6-43.7,0.9c-5.8,0.1-11.6,0.1-17.4,0.1c-1.4,0.5-3.3,0.6-4.2,1.6c-3.5,3.9-6.4,8.5-10.2,12.2
		c-3.5,3.4-3.7,10.3-10.6,10.1c-0.1,0-0.2,0.2-0.4,0.4c0,1.4,0,2.8,0,4.6c-9.4,0-18.5,0-27.6,0c-0.3-0.9-0.8-1.8-1-2.8
		c-2-12-4.1-23.9-5.9-35.9c-0.3-2.2-0.5-3.7-3.1-2.2c0.2-3.6-2.4-3.9-5-4c-4.7-0.1-9.3,0-14,0c-0.4-6.8-0.8-13.7-1.3-21.6
		c-2.6,1.9-4.5,3.3-6.3,4.6c-6.1,4.7-12.3,9.3-18.4,14c-7.7,0-15.3,0-23,0c5.2-4.1,10.6-7.9,15.4-12.4
		C212.2,391.4,213.2,388.3,214.7,385.8z"/>
	<path class="st9" d="M272.7,453.6c9.1,0,18.2,0,27.6,0c0-1.8,0-3.2,0-4.6c0.1-0.2,0.3-0.4,0.4-0.4c6.9,0.3,7.1-6.7,10.6-10.1
		c3.8-3.7,6.6-8.2,10.2-12.2c0.9-1,2.8-1.1,4.2-1.6c-0.3,1-0.7,2-1,2.9c-1,1-2.2,2-3,3.2c-5.7,7.6-11.3,15.3-17,23
		c-0.7,1.3-1.8,2.5-1.9,3.8c-0.5,4.9-1,9.8-0.9,14.7c0,6.2,0.4,12.5,1,18.6c0.3,2.6,0.7,2.5,2.9,0.8c2.1,1,4.2,2.8,6.3,2.8
		c6.1-0.2,12.2-1.6,18.3-1.7c18.6-0.5,37.2-0.7,55.8-1.1c10-0.2,19.9-0.7,29.9-1c5.8-0.1,11.7,0,17.4,0c1.3-10.2-1.3-20.6,2-31.2
		c0.1-1.6,0.2-3.2,0.3-4.8c0-0.3,0-0.6,0-0.8c16.3,0.3,32.5,0.7,48.8,0.7c41.9,0.1,83.8,0.2,125.7,0c28.7-0.1,57.5-0.6,86.2-1
		c2,6.4,4,12.7,6.2,19c1.4,4-0.2,9.8,6.2,11.1c-0.6,7.6-0.2,8.1,7.3,8.1c3.5,0,7-0.3,10.5,0c3.5,0.3,5-1.1,5.7-4.4
		c2-9.9,4.2-19.7,6.4-29.6c2.2,6.9-1.5,14.9,3.9,21.2c0.4,0.4,0,1.5,0.3,1.9c0.7,0.8,1.7,1.2,2.6,1.8c0.5,1,0.7,2.4,1.4,3
		c5.7,4.9,12.6,6.5,19.8,6.8c0.9,0,2.4-2.2,2.8-3.6c3.5-11.7,6.8-23.4,10.2-35.2c3.5-0.2,3,2.3,2.9,4.4c-0.4,7.3,0,14.6,3.2,21.3
		c1.8,3.7,4.5,6.9,6.8,10.3c1.4,0.7,2.7,1.7,4.1,1.9c3.1,0.5,6.2,0.5,9.3,0.9c5.5,0.8,6.5,0,6.9-5.8c6.5,0.3,12.9,0.7,19.4,0.7
		c1.5,0,3-1.6,4.5-2.4c1-0.6,2-1.2,2.9-1.8c-0.1,3.1-0.4,6.2,4,6.4c7.4,0.3,14.9,0.7,22.3,1.2c3.7,0.3,5.6-1.6,6.4-4.8
		c1.2-4.3,2.1-8.6,3.4-12.9c1.5-4.8,3.2-9.6,4.9-14.3c4.8,9.9,9.6,19.7,14.3,29.6c2.3,4.8,3.7,9.9,1.7,15.3c-2.9,0-5.9,0.1-8.8,0.1
		c-64.3,0-128.6,0.1-192.9,0.2c-146.1,0.2-292.1,0.6-438.2,0.6c-72.4,0-144.9-0.5-217.3-0.8c-3.7,0-7.4,0-11.1-0.4
		c-1.6-0.2-3.9-1-4.3-2.1c-0.4-1.1,1.1-2.9,1.8-4.4c3.6-4,7.3-8,10.9-12.1c0.3,1.5,0.7,2.9,0.7,4.4c0.5,7.6,1.1,7.9,8.7,7.1
		c6.8-0.7,13.6-1.1,20.3-1.6c3.5,0.7,5.4-1.3,7.3-3.9c2.8-3.8,6-7.3,9-11c0.7,3.9,1.3,7.8,2,11.7c0.9,5,2.5,6.2,7.5,5.2
		c4.9-0.9,9.7-2.1,14.5-2.9c6.3-1.1,7-2.2,5.6-8.5c-2.3-10.5-4.4-21-6.7-31.4c10.3,0,20.5,0,30.8,0.1c-0.6,12.1-1.2,24.2-1.8,36.3
		c-0.2,4.1,1.3,5.6,5.6,7c10,3.2,19.7,0.9,29.5,0.4c1.7-0.1,3.3-1.8,5-2.7c3.6-4,7.2-8,10.7-12c0.3,3.9,0.9,7.9,1,11.8
		c0.1,3.7,2.2,4.3,5.2,4.2c7.4-0.4,14.8-0.6,22.2-1.1c1.3-0.1,2.5-1.2,3.7-1.9c1.6-1,3.2-2,4.8-2.9c0.7,3.5,3.1,5.4,6.6,5.5
		c6.9,0.2,13.9,0.4,20.8,0.1c1.4-0.1,2.6-2.4,3.9-3.7c3.3,1.6,4.7-0.1,5.8-3c2.2-5.7,4.9-11.2,7-17
		C269.2,467.9,274.4,461.7,272.7,453.6z"/>
	<path class="st10" d="M896.6,503.7c2-5.4,0.6-10.5-1.7-15.3c-4.6-9.9-9.5-19.7-14.3-29.6c0.2-1.6,0.1-3.3,0.6-4.8
		c3.4-10.4,6.9-20.9,10.3-31.3c4.1-5.5,6.2-11.8,6-18.6c0-1.5-1.2-3.3-2.4-4.4c-3.6-3.2-7.4-6-11.2-8.9c-1.1-0.8-2.4-1.4-3.6-2.1
		c-0.3,0.4-0.5,0.7-0.8,1.1c3.3,3.6,6.5,7.3,9.8,10.9c-6.4,0.8-12.9,1.5-19.3,2.5c-2,0.3-3.8,1.7-5.7,2.6c-1.8-1.5-3.9-2.8-5.5-4.6
		c-2.9-3.4-5.5-7.1-9-11.6c-1.1,3.4-1.6,5.5-2.5,7.6c-1.3,3.2-2.7,6.4-4.1,9.6c-4.1-5.7-8.2-11.4-12.3-17.1c-0.5,0.3-1,0.6-1.5,1
		c2.3,3.8,4.6,7.6,7.3,12.2c-3.7,0-6.4,0.1-9.1,0c-3.8-0.2-7.6-0.7-11.4-1.1c-2.7-2.9-5.4-6-8.2-8.8c-1.2-1.2-2.7-2.1-4-3.1
		c-0.9,1.6-2.3,3.2-2.6,4.9c-0.9,6-1.4,12.1-2.1,18.1c0.3,0.7,0.7,1.3,1,2c0,0,0,0,0,0c0.3,0.3,0.7,0.7,1,1c0,0,0,0,0,0
		c0.3,0.3,0.7,0.7,1,1c0,0,0,0,0,0c0.3,0.3,0.7,0.7,1,1l0,0c1.3,2,2.7,4,4,6c-5.7,1-11.3,2-17,3c0.7-2.4,0.8-5.1,2.1-7
		c4.3-6.6,3.6-12.3-1.6-18.2c-2.9-3.2-4.8-7.1-7.2-10.7c-0.5,0.3-1,0.6-1.5,0.9c3.1,5.1,6.1,10.3,9.2,15.4c-0.3,0.4-0.7,0.7-1,1.1
		c-2.9-1.4-5.7-3.2-8.7-4.1c-3-0.9-6.2-0.9-9.4-1.4c-2.6-5.7-5.3-11.3-7.9-17c45.1,0,90.1,0,135.4,0c0.2,1.6,0.5,2.7,0.5,3.9
		c0.3,27.1,0.8,54.2,0.9,81.3c0.1,9.9-0.6,19.9-0.9,29.8C900.6,503.4,900.1,505.5,896.6,503.7z"/>
	<path class="st8" d="M72.7,387.7c1.3-0.7,2.6-1.9,3.9-1.9c37.9-0.4,75.8-0.8,113.8-1c7.5,0,14.9,0.6,22.4,0.9
		c-6.3,4.7-12.7,9.3-19,14c-1.1-0.3-2.2-0.9-3.3-1c-9.4-0.3-18.9-0.5-28.3-0.7c-0.8,0-1.8,0.7-2.5,1.3c-3.5,3.1-7.1,6-10.3,9.4
		c-2.2,2.3-3.8,5.3-5.6,8c-0.3,0-0.6,0-0.9,0c-0.3,0.3-0.7,0.6-1,0.9c-1,1.1-2.8,2.2-2.9,3.4c-0.6,6.9-0.8,13.8-1.2,20.7
		c-1-1-2.8-1.9-2.9-2.9c-0.9-9-1.6-18-2-27c-0.2-4.2-1.6-5-5.1-3.2c-1.2-1-2.6-2.8-3.7-2.7c-5.8,0.6-11.6,1.8-17.3,2.7
		c0.2-0.6,0.6-1.4,0.4-1.9c-1.2-4-1.5-10.6-3.9-11.5c-7.4-2.7-15.6-3.3-23.5-4.7c-0.7-0.3-1.3-0.6-2-0.9c-1.6-0.4-3.3-0.7-4.9-1.1
		C72.8,388.4,72.7,388,72.7,387.7z"/>
	<path class="st3" d="M72.7,387.7c0,0.3,0,0.7,0.1,1c-11.7,5.6-23.3,11.1-35,16.7c0.3,0.5,0.7,0.9,1,1.4c-0.7,6.4-1.8,12.7-1.9,19.1
		c-0.3,19.6-0.1,39.2-0.1,58.8c-3.6,4-7.3,8-10.9,12.1c-0.4-1-1-2.1-1-3.1c-0.4-25.7-0.8-51.5-0.9-77.2c0-9.9,0.9-19.8,1.4-31.2
		c10,0,20.1-0.1,30.3,0c4.2,0,8.5,0.4,12.7,0.8C69.8,386.2,71.2,387.1,72.7,387.7z"/>
	<path class="st11" d="M764.7,385.7c2.6,5.7,5.3,11.3,7.9,17c-0.5,0.8-1.3,1.5-1.6,2.4c-5.2,15.2-10.4,30.4-15.4,45.6
		c-3.5,10.6-6.7,21.3-10.1,32c-0.9-0.6-1.9-1.1-2.6-1.8c-0.4-0.4,0-1.4-0.3-1.9c-5.4-6.4-1.6-14.3-3.9-21.2
		c1.4-5.9,3.1-11.8,4.3-17.8c1.7-8.7,3.1-17.5,4.6-26.3c-0.4-2.1-0.9-4.1-1.3-6.2c-0.5,0-0.9,0.1-1.4,0.1c2.6-7.3,5.1-14.6,7.7-21.9
		C756.7,385.7,760.7,385.7,764.7,385.7z"/>
	<path class="st10" d="M193.7,399.8c6.3-4.7,12.7-9.3,19-14c0.7,0,1.3,0,2,0c-1.5,2.6-2.5,5.7-4.6,7.6c-4.9,4.4-10.2,8.3-15.4,12.4
		c-2.7,0.7-5.3,1.3-8,2C189.1,405.1,191.4,402.4,193.7,399.8z"/>
	<path class="st9" d="M226.7,652.7c1.3-2.5,2.6-4.9,4.3-7.9c0.1,0.1-0.6-0.5-0.8-1.2c-0.5-1.8-0.7-3.7-1.1-5.6
		c2.5-0.2,5-0.8,7.4-0.5c1.9,0.2,3.7,1.5,5.6,2.3c0.6,0.3,1.3,0.4,1.8,0.7c1.3,0.9,2.5,12.5,1,13.2c-3.1,1.5-5.8,6.1-10.3,1.8
		c-1.5-1.4-4.5-1.2-6.9-1.7l0.1,0.1C227.4,653.4,227.1,653,226.7,652.7C226.7,652.7,226.7,652.7,226.7,652.7z M232.3,639.8
		c2.9,4.8,1.3,8.3-2.6,11.2c4.4,0.7,8.1,1.4,11.1,1.9c0.4-4.1,0.7-6.9,0.9-8.7C238.5,642.6,235.4,641.2,232.3,639.8z"/>
	<path class="st9" d="M275.6,630.8c-5.1-0.8-7.9-2.2-8-6.8c0-3.5,3.5-7.1,6.9-7.2c3.5-0.1,6.6,3.9,5.9,8.8
		C280.2,627.5,277.3,629,275.6,630.8z"/>
	<path class="st5" d="M214.8,678.7c-7-2-11.4-6.8-14.5-13.1c-0.3-0.6-0.2-1.5-0.1-2.3c0.2-2.3,0.4-4.6,0.9-6.8
		c0.5-2,1.6-3.8,2.4-5.7c0.8,9.4,3.9,18,9.9,25.4C214.1,676.8,214.4,677.8,214.8,678.7z"/>
	<path class="st9" d="M227.7,653.7c-0.4,1.9-0.4,4.1-1.4,5.6c-1.7,2.6-4.2,4.5-7.5,2.5c-3.1-1.9-4.7-4.8-2.9-8.3
		c1.7-3.3,4.6-4.1,8-2.5c1,0.5,1.9,1.2,2.9,1.9c0,0,0-0.1,0-0.1C227.1,653,227.4,653.4,227.7,653.7L227.7,653.7z"/>
	<path class="st5" d="M204.8,644.8c-0.7-5.4,2.5-8.1,6.8-10.1C209.3,638.1,207.1,641.4,204.8,644.8z"/>
	<path class="st12" d="M319.7,297.8c-0.3,1.4-0.6,2.7-0.9,4.1c-4.5,0.5-9.1,0.8-13.6,1.7c-3.1,0.6-6.4,1.7-9,3.4
		c-1.2,0.8-1.1,3.7-1.5,5.7c-4.3,0.1-4.5-3-3-5.2c1.9-2.6,4.7-5.5,7.6-6.3C306,299.5,312.9,298.9,319.7,297.8z"/>
	<path class="st13" d="M580.7,359.6c-5.7,0-11.4,0-17.1,0.1C569.4,359.7,575,359.6,580.7,359.6z"/>
	<path class="st14" d="M565.7,231.8c-0.3,1-0.6,2-1,3c-0.7,1-1.4,2-2.1,3c-133.2,0.4-266.4,0.7-399.6,1.1c-5.9,0-11.8,1.1-17.8,1.6
		c-0.9,0.1-1.8-0.4-2.7-0.6c0-72.5,0-145,0-218c2.9,0,4.8,0,6.8,0c29.8,0,59.6,0,89.4,0c108.2,0,216.5,0,324.7-0.1
		c4,2,2.7,6.4,1.6,8.2c-2.8,5-0.5,9.2,0.1,13.8c0.4,3,0.2,6.1,0.2,9.1c-1.1,0.5-2.3,1-4.7,2.1c-0.1-4.8,0-9-0.4-13.1
		c-0.2-3-0.5-6.3-1.7-9c-1.1-2.5-3.5-3.1-5.2,0c-24.8-0.3-49.6-0.9-74.4-0.9c-106.1-0.1-212.2-0.1-318.3-0.2c-1.6,0-3.2,0.2-5.1,0.3
		c0,4.2,0,8,0,11.8c0,0.6,0,1.3-0.1,1.9c0,3,0,6,0,9c0,1.6,0,3.3,0.1,4.9c0,18.7,0,37.4,0,56.1c0,1.6,0.1,3.3,0.1,4.9
		c-0.1,21.7-0.1,43.4-0.2,65.1c0,1.7,0,3.3,0.1,5c0.3,12.5,0.6,25.1,0.9,38c2.7,0,4.7,0,6.7,0c31.3-0.3,62.5-0.8,93.8-0.9
		c56.6-0.2,113.2-0.1,169.8-0.1c2,0,4,0.1,6,0.2c1.1,0.3,2.2,0.8,3.3,0.8c15.8,0.1,31.5,0.1,47.3,0c1.1,0,2.2-0.5,3.2-0.8
		c3.4,0.3,6.9,0.8,10.3,0.8c14.9,0.1,29.8,0.1,44.8,0.2c0.1,2.3-0.4,4.9,3.3,4.6C551.9,232.9,558.8,232.3,565.7,231.8z"/>
	<path class="st15" d="M563.7,21.7c-108.2,0-216.5,0-324.7,0.1c-29.8,0-59.6,0-89.4,0c-2,0-4,0-6.8,0c0,72.9,0,145.4,0,218
		c-1.8,0-3.6,0-5.2,0c0-76.5,0-152.3,0-229c2.8,0,4.9,0,7,0c137.4,0,274.8,0,412.3,0c7,0,7,0,7,7C563.7,19.1,563.7,20.4,563.7,21.7z
		"/>
	<path class="st16" d="M565.7,231.8c-6.9,0.6-13.8,1.1-20.7,1.7c-3.7,0.3-3.2-2.3-3.3-4.6c3.9-0.6,7.7-1.3,12-2c0-2,0-4,0-5.9
		c0-46.3,0-92.5,0-138.8c0-6.8-0.1-13.6-0.2-20.5c0-0.6,0-1.2,0-1.8c0-2.4,0-4.8,0-7.2c0-1.6,0-3.2,0-4.8c0.1-5,0.1-10,0.2-15
		c1.7-3.1,4.1-2.5,5.2,0c1.2,2.7,1.5,6,1.7,9c0.3,4.1,0.2,8.2,0.4,13.1c2.4-1.1,3.6-1.6,4.7-2.1c0,52.5,0,104.9,0.1,157.4
		c0,5.6,0.7,11.2,0.9,16.9C566.7,228.6,566,230.2,565.7,231.8z"/>
	<path class="st16" d="M562.7,237.7c0.7-1,1.4-2,2.1-3C564.1,235.7,563.4,236.7,562.7,237.7z"/>
	<path class="st17" d="M21.9,365.5c51.2,0,102.3,0,153.5,0c0,0.1,0,0.3,0,0.4c-51.1,0-102.2,0-153.3,0C22,365.7,22,365.6,21.9,365.5
		z"/>
	<path class="st9" d="M423.4,624.3c-2.3-2.5-4.1-4.2-5.6-6.1c-4.3-5.3-4.2-9.1,3.6-10.1c0.4-0.1,0.4-1.7,0.9-2.2
		c1.3-1,3-2.7,4.2-2.5c1.8,0.3,3.6,0.2,4.9,3.6c2.6,6.3,2.8,9.8-4,12.4C426.1,619.8,425.3,621.8,423.4,624.3z M419,613.1
		c0.5,0.8,1.5,2.4,2.4,4c0.4,0.7,0.6,1.6,0.9,2.4c0.8-0.5,1.6-0.9,2.3-1.5c1.8-1.6,3.4-3.3,5.4-5.2c-0.8-1.6-2.1-4.2-3.6-7.1
		C424,608.1,421.5,610.6,419,613.1z"/>
	<path class="st9" d="M474.1,633.7c-4.1,0.1-6.7-1.5-6.6-6.1c0.1-4.7,2.6-7.9,6.5-7.9c3,0,7.5,4.4,7.6,7.5
		C481.6,630.5,477.9,633.7,474.1,633.7z"/>
	<path class="st9" d="M404.5,614.8c-2.5,0-4.6-1.9-4.7-5.7c-0.1-4.6,2.6-7.5,6.8-7.4c3.7,0.1,6.5,1.6,7,5.6
		C414.1,611,410,614.7,404.5,614.8z"/>
	<path class="st5" d="M438.7,595.7c0.7,0.3,1.3,0.7,2,1C440.1,596.3,439.4,596,438.7,595.7z"/>
	<path class="st18" d="M186.8,407.7c2.7-0.7,5.3-1.3,8-2c7.7,0,15.3,0,23,0c0,7-0.1,13.9,0.1,20.9c0.1,1.7,1.3,3.4,1.9,5.2
		c0,0.3,0,0.6,0,1c-0.3,1.6-1,3.1-0.9,4.7c0.2,5.4,0.6,10.9,1,16.3c-1,1.8-2.8,3.6-2.9,5.5c-0.4,5.7-0.3,11.5-0.1,17.2
		c0.2,6.5,0.6,12.9,1,19.4c-1.2,0.7-2.4,1.8-3.7,1.9c-7.4,0.5-14.8,0.7-22.2,1.1c-3,0.2-5.1-0.4-5.2-4.2c-0.1-3.9-0.6-7.9-1-11.8
		c0.4-2.3,1.2-4.6,1.2-6.9c0-10.2-0.4-20.4-0.1-30.6c0.1-5.3,1.7-10.6,1.8-15.9c0.1-6.5-0.6-13-0.9-19.5
		C187.4,409.1,187.1,408.4,186.8,407.7z"/>
	<path class="st19" d="M747.6,413.7c-1.5,8.8-2.9,17.5-4.6,26.3c-1.2,6-2.8,11.9-4.3,17.8c-2.1,9.9-4.4,19.7-6.4,29.6
		c-0.7,3.4-2.2,4.7-5.7,4.4c-3.5-0.3-7,0-10.5,0c-7.5,0-7.9-0.5-7.3-8.1c0.2-0.6,0.6-1.2,0.7-1.8c3.4-16.9,6.7-33.7,10.1-50.6
		c0.9-4.5,1.9-9,2.9-13.5c0.4-8.2,7.3-5.7,11.7-7C739.2,409.3,743.7,410.5,747.6,413.7z"/>
	<path class="st20" d="M272.7,453.6c1.6,8.1-3.5,14.2-6.1,21.1c-2.1,5.7-4.8,11.3-7,17c-1.1,3-2.5,4.6-5.8,3
		c-2.2-14.3-4.4-28.7-6.6-43c-0.9-6.3-1.8-12.6-2.7-18.9c2.8-3.6,5.4-7.5,8.5-10.9c3-3.3,6.4-6.2,9.7-9.3l0,0c2.6-1.5,2.8,0,3.1,2.2
		c1.8,12,3.9,24,5.9,35.9C271.9,451.8,272.4,452.7,272.7,453.6z"/>
	<path class="st20" d="M722.6,417.8c-1,4.5-2,9-2.9,13.5c-3.4,16.9-6.7,33.7-10.1,50.6c-0.1,0.6-0.5,1.2-0.7,1.8
		c-6.4-1.2-4.8-7-6.2-11.1c-2.2-6.3-4.1-12.7-6.2-19c-1-16.4,2.6-32.2,5.2-48.2c0.4-2.6,1.3-6.5,3-7.2c3.4-1.3,5.1,2.2,7,4.8
		c1.8,2.5,4.4,4.4,6.3,6.9C719.8,412.4,721.1,415.2,722.6,417.8z"/>
	<path class="st20" d="M219.8,431.8c-0.7-1.7-1.9-3.4-1.9-5.2c-0.2-6.9-0.1-13.9-0.1-20.9c6.1-4.7,12.3-9.3,18.4-14
		c1.8-1.4,3.6-2.7,6.3-4.6c0.5,7.9,0.9,14.7,1.3,21.6c0,0.3,0,0.7,0,1c-3.6,2.9-7.4,5.5-10.7,8.6
		C228.4,422.6,224.2,427.3,219.8,431.8z"/>
	<path class="st11" d="M324.7,427.7c0.3-1,0.7-2,1-2.9c5.8,0,11.6,0,17.4-0.1c14.6-0.3,29.2-0.8,43.7-0.9c10.2,0,20.5,0.5,30.7,1
		c1.3,0.1,3.2,0.7,3.7,1.7c3.5,6.3,6.6,12.8,9.9,19.2c1.4,2.8,3,5.5,4.5,8.2c0,0.3,0,0.6,0,0.8c-1.2-0.7-2.9-1-3.5-2.1
		c-4.5-7.3-8.7-14.8-13.1-22.2c-0.7-1.2-2.2-2.6-3.4-2.6c-7.8-0.6-15.5-1.1-23.3-1c-8.4,0-16.9,0.8-25.3,0.9
		C352.9,427.9,338.8,427.7,324.7,427.7z"/>
	<path class="st21" d="M243.7,409.7c0-0.3,0-0.7,0-1c4.7,0,9.3,0,14,0c2.6,0,5.2,0.4,5,4c0,0,0,0,0,0c-5.3-0.3-10.6-0.6-15.9-1.1
		C245.8,411.5,244.8,410.4,243.7,409.7z"/>
	<path class="st22" d="M324.7,427.7c14.1,0,28.2,0.1,42.3,0c8.4-0.1,16.9-0.9,25.3-0.9c7.8,0,15.6,0.5,23.3,1
		c1.2,0.1,2.7,1.5,3.4,2.6c4.5,7.3,8.7,14.8,13.1,22.2c0.6,1,2.3,1.4,3.5,2.1c-0.1,1.6-0.2,3.2-0.3,4.8c-3.3,10.6-0.7,21-2,31.2
		c-5.8,0-11.6-0.1-17.4,0c-10,0.2-19.9,0.8-29.9,1c-18.6,0.4-37.2,0.6-55.8,1.1c-6.1,0.2-12.2,1.5-18.3,1.7
		c-2.1,0.1-4.2-1.8-6.3-2.8c-2-10.9-0.2-21.6,0.8-32c3.2,0.4,5.8,1,8.3,0.9c10.6-0.5,21.2-2.2,31.7-1.6c7.7,0.5,15.3,0.6,22.9,0.7
		c12.2,0.1,24.5,0,36.7,0c2.7,0,4.6-0.6,4.5-3.8c-0.4-0.4-0.8-0.8-1.2-1.2c-0.3,0.1-0.5,0.1-0.8,0c-1.2-0.3-2.5-1-3.7-1
		c-16.3-0.1-32.6,0-49,0c-1.1,0-2.2,0.5-3.2,0.8c-14.4,0.4-28.8,0.8-43.3,1c-1.6,0-3.3-1.2-4.9-1.8c5.7-7.7,11.3-15.3,17-23
		C322.5,429.7,323.7,428.8,324.7,427.7z M345.8,480.6c-2.6,3.3,0.7,3.8,2.4,3.9c3.2,0.2,6.4-0.5,9.6-0.8c3.3-1.4,2.3-3.7,0.6-5.4
		C356.5,476.4,348.3,478.2,345.8,480.6z M331.9,484.7c0.9-1,1.9-2,2.8-3c-1.1-1-2.1-2.7-3.2-2.9c-3.4-0.4-6.9-0.3-10.4,0
		c-0.8,0-1.6,1.2-2.3,1.9c0.5,1.3,1,3.8,1.6,3.8C324.1,484.9,328,484.7,331.9,484.7z M408.2,483.1c-3.7-3.7-7.3-3.8-11.1-2.9
		c-0.8,0.2-2.1,1.2-2,1.8c0.1,0.9,0.8,2.2,1.7,2.6C400.7,486.6,404.1,484.9,408.2,483.1z M415.2,481.1c0,0.6,0,1.2,0,1.8
		c3.5,0,6.9,0,10.4,0C422.3,478.8,418.8,479.1,415.2,481.1z"/>
	<path class="st23" d="M142.8,416.8c0.3,0,0.6,0,0.9,0c6.6,0.3,13.2,0.5,19.8,1c5.1,0.4,10.1,1.3,15.1,2c-0.3,14.6-0.3,29.2-1,43.8
		c-0.5,10.4-1.8,20.7-2.7,31.1c-1.7,1-3.3,2.6-5,2.7c-9.8,0.5-19.6,2.8-29.5-0.4c-4.3-1.4-5.8-2.9-5.6-7c0.7-12.1,1.2-24.2,1.8-36.3
		c0.4-4,0.7-8,1.1-12.1c0.3-6.9,0.6-13.8,1.2-20.7c0.1-1.2,1.9-2.3,2.9-3.4C142.1,417.4,142.5,417.1,142.8,416.8z"/>
	<path class="st24" d="M891.6,422.7c-3.5,10.4-7,20.8-10.3,31.3c-0.5,1.5-0.4,3.2-0.6,4.8c-1.6,4.8-3.4,9.5-4.9,14.3
		c-1.3,4.3-2.2,8.6-3.4,12.9c-0.9,3.2-2.7,5.1-6.4,4.8c-7.4-0.5-14.8-0.9-22.3-1.2c-4.5-0.2-4.2-3.3-4-6.4c0,0,0-0.1,0-0.1
		c0.4-1.5,0.7-3,1.1-4.4c0,0,0,0.1,0,0.1c3-8.3,5.9-16.6,8.9-25c4.7-13.2,9.5-26.4,14.1-39.7c0.9-2.6,0.6-5.5,0.9-8.3
		c1.9-0.9,3.7-2.3,5.7-2.6c6.4-1,12.9-1.7,19.3-2.5c1.9,1,3.9,2.1,6.9,3.7c-1.4,4.6-3,9.5-4.4,14.5
		C891.6,420.1,891.7,421.4,891.6,422.7z"/>
	<path class="st25" d="M36.8,484.7c0-19.6-0.1-39.2,0.1-58.8c0.1-6.4,1.2-12.7,1.9-19.1c1-0.3,1.9-0.6,2.9-0.9c8,1.3,16,2.6,24,4
		c0,0.3,0.1,0.6,0.2,0.9c-0.6,3-1.8,6-1.8,9c-0.1,5.4,0.5,10.9,0.7,16.3c0.6,19.5,1.2,39,1.8,58.5c-6.8,0.5-13.6,0.8-20.3,1.6
		c-7.6,0.8-8.2,0.5-8.7-7.1C37.4,487.6,37,486.2,36.8,484.7z"/>
	<path class="st26" d="M745.6,482.7c3.4-10.7,6.6-21.4,10.1-32c5-15.2,10.2-30.4,15.4-45.6c0.3-0.9,1-1.6,1.6-2.4
		c3.1,0.4,6.4,0.5,9.4,1.4c3,0.9,5.8,2.7,8.7,4.1c0.3-0.4,0.7-0.7,1-1.1c-3.1-5.1-6.1-10.3-9.2-15.4c0.5-0.3,1-0.6,1.5-0.9
		c2.4,3.6,4.4,7.5,7.2,10.7c5.2,5.8,5.9,11.6,1.6,18.2c-1.3,2-1.4,4.7-2.1,7c-0.3,1-0.7,2-1,3c-3.3,8-6.6,16.1-9.9,24.1
		c-3.4,11.7-6.7,23.5-10.2,35.2c-0.4,1.4-1.9,3.6-2.8,3.6c-7.2-0.3-14.1-1.9-19.8-6.8C746.3,485.1,746.1,483.8,745.6,482.7z"/>
	<path class="st21" d="M836.7,485.1c-1.5,0.9-3,2.4-4.5,2.4c-6.5,0-12.9-0.4-19.4-0.7c0.3-20.4,0.6-40.8,0.9-61.2
		c1.1-7.4,2.1-14.8,3.2-22.2c5.1,0.4,10.1,1.1,15.2,1.2c6.3,0.2,8.1,2.3,7,8.5c-0.2,1.4,0,2.8,0,5.6c1.6-3.7,2.6-5.9,3.5-8
		c0,1.1,0,2.2,0,3.2c-0.3,0.9-0.8,1.8-0.9,2.7c-0.7,9.9-1.3,19.8-2,29.7c-0.6,9.1-1.4,18.1-2.1,27.2
		C837.3,477.3,837,481.2,836.7,485.1z"/>
	<path class="st24" d="M105.8,453.8c2.2,10.5,4.3,21,6.7,31.4c1.4,6.3,0.7,7.3-5.6,8.5c-4.9,0.9-9.7,2-14.5,2.9
		c-5,0.9-6.6-0.2-7.5-5.2c-0.7-3.9-1.3-7.8-2-11.7c-0.5-4.6-0.6-9.2-1.5-13.7c-1.2-5.9-3.3-11.6-4.4-17.6c-0.9-5-0.5-10.2-1.6-15.1
		c-0.7-3.2,0-5,2.5-6.6c1.4-0.4,2.8-0.9,4.2-1.1c5.6-0.6,10.7-4.4,16.6-1.9C101,433.8,103.4,443.8,105.8,453.8z"/>
	<path class="st27" d="M244.6,432.9c0.9,6.3,1.8,12.6,2.7,18.9c2.2,14.3,4.4,28.7,6.6,43c-1.3,1.3-2.6,3.6-3.9,3.7
		c-6.9,0.3-13.8,0.1-20.8-0.1c-3.5-0.1-5.8-2-6.6-5.5c-0.6-10.3-1.2-20.6-1.8-31c-0.2-2.7-0.6-5.5-0.9-8.2c-0.3-5.4-0.8-10.9-1-16.3
		c-0.1-1.5,0.6-3.1,0.9-4.7c5.3,0.2,10.6,0.4,15.9,0.5C238.6,433.3,241.6,433,244.6,432.9z"/>
	<path class="st20" d="M77.8,426.7c-2.5,1.6-3.2,3.4-2.5,6.6c1.1,4.9,0.7,10.2,1.6,15.1c1.1,5.9,3.2,11.6,4.4,17.6
		c0.9,4.5,1,9.1,1.5,13.7c-3,3.7-6.1,7.2-9,11c-1.9,2.6-3.7,4.6-7.3,3.9c-0.6-19.5-1.2-39-1.8-58.5c-0.2-5.5-0.8-10.9-0.7-16.3
		c0.1-3,1.2-6,1.8-9c10-4.6,20-9.3,30-13.9c-0.1-0.6-0.3-1.2-0.4-1.8c-1.5-0.5-3-1-4.5-1.4c-3.8-1-7.5-2-11.3-3
		c7.9,1.4,16.1,1.9,23.5,4.7c2.4,0.9,2.7,7.5,3.9,11.5c0.2,0.5-0.3,1.3-0.4,1.9c-7.3,3.9-14.6,7.7-21.7,11.9
		C82.3,422.2,80.2,424.7,77.8,426.7z"/>
	<path class="st17" d="M813.7,425.6c-0.3,20.4-0.6,40.8-0.9,61.2c-0.3,5.7-1.4,6.5-6.9,5.8c-3.1-0.4-6.2-0.4-9.3-0.9
		c-1.4-0.2-2.7-1.3-4.1-1.9c0-3.3,0.2-6.7,0-10c-0.9-16.7-1.9-33.4-2.9-50.1c0.3-1,0.7-2,1-3c5.7-1,11.3-2,17-3
		c0.9,0.3,1.8,0.6,2.7,0.9C811.5,425,812.6,425.3,813.7,425.6z"/>
	<path class="st21" d="M105.8,453.8c-2.4-10-4.8-20-7.1-30c9.7-5,19.4-10,29.1-15.1c3.5-1.8,4.9-1,5.1,3.2c0.4,9,1.1,18,2,27
		c0.1,1.1,1.9,1.9,2.9,2.9c-0.4,4-0.7,8-1.1,12.1C126.3,453.8,116.1,453.8,105.8,453.8z"/>
	<path class="st20" d="M174.9,494.8c0.9-10.4,2.3-20.7,2.7-31.1c0.7-14.6,0.7-29.2,1-43.8c3-3.3,6-6.7,9-10c0.3,6.5,1.1,13,0.9,19.5
		c-0.1,5.3-1.7,10.6-1.8,15.9c-0.2,10.2,0.2,20.4,0.1,30.6c0,2.3-0.8,4.6-1.2,6.9C182.1,486.8,178.5,490.8,174.9,494.8z"/>
	<path class="st8" d="M408.7,454.8c0.3,0,0.5,0,0.8,0c0.4,0.4,0.8,0.8,1.2,1.2c0.1,3.2-1.8,3.8-4.5,3.8c-12.2-0.1-24.5,0-36.7,0
		c-7.6,0-15.3-0.2-22.9-0.7c-10.5-0.7-21.1,1.1-31.7,1.6c-2.5,0.1-5-0.5-8.3-0.9c-1.1,10.4-2.8,21.1-0.8,32
		c-2.2,1.8-2.7,1.8-2.9-0.8c-0.6-6.2-1-12.4-1-18.6c0-4.9,0.4-9.8,0.9-14.7c0.1-1.3,1.2-2.5,1.9-3.8c1.6,0.6,3.3,1.9,4.9,1.8
		c14.4-0.2,28.8-0.7,43.3-1C371.5,454.7,390.1,454.7,408.7,454.8z"/>
	<path class="st11" d="M789.7,429.6c1,16.7,2,33.4,2.9,50.1c0.2,3.3,0,6.7,0,10c-2.3-3.4-5-6.6-6.8-10.3c-3.2-6.7-3.5-14-3.2-21.3
		c0.1-2,0.7-4.6-2.9-4.4C783.1,445.7,786.4,437.7,789.7,429.6z"/>
	<path class="st26" d="M836.7,485.1c0.3-3.9,0.6-7.7,0.9-11.6c0.7-9.1,1.4-18.1,2.1-27.2c0.7-9.9,1.3-19.8,2-29.7
		c0.1-0.9,0.6-1.8,0.9-2.7c0.3,5.9,0.8,11.8,0.7,17.8c-0.2,7.4-1,14.8-1.5,22.2c-0.4,8.3-0.8,16.6-1.2,24.9c0,0,0-0.1,0-0.1
		c-0.4,1.5-0.7,3-1.1,4.4c0,0,0,0.1,0,0.1C838.6,483.8,837.6,484.5,836.7,485.1z"/>
	<path class="st20" d="M219.8,453.7c0.3,2.7,0.8,5.4,0.9,8.2c0.7,10.3,1.2,20.6,1.8,31c-1.6,1-3.2,2-4.8,2.9
		c-0.3-6.5-0.8-12.9-1-19.4c-0.2-5.7-0.3-11.5,0.1-17.2C217,457.3,218.8,455.5,219.8,453.7z"/>
	<path class="st11" d="M841.8,453.8c0.5-7.4,1.3-14.8,1.5-22.2c0.1-5.9-0.4-11.8-0.7-17.8c0-1.1,0-2.2,0-3.2
		c0.3-1.3,0.6-2.6,0.8-3.9c1.4-3.2,2.8-6.3,4.1-9.6c0.8-2,1.4-4.2,2.5-7.6c3.5,4.6,6.1,8.2,9,11.6c1.5,1.8,3.6,3.1,5.5,4.6
		c-0.3,2.8,0,5.7-0.9,8.3c-4.5,13.3-9.4,26.5-14.1,39.7c-1.9,1.2-3.9,2.3-6.1,3.6C843,456.4,842.4,455.1,841.8,453.8z"/>
	<path class="st20" d="M813.7,425.6c-1.1-0.3-2.1-0.6-3.2-1c-2.3-2.3-4.5-4.6-6.8-7c0,0,0,0,0,0c-0.3-0.3-0.7-0.7-1-1c0,0,0,0,0,0
		c-0.3-0.3-0.7-0.7-1-1c0,0,0,0,0,0c-0.3-0.3-0.7-0.7-1-1c0,0,0,0,0,0c-0.3-0.7-0.7-1.3-1-2c0.7-6,1.2-12.1,2.1-18.1
		c0.3-1.7,1.7-3.2,2.6-4.9c1.3,1,2.8,1.9,4,3.1c2.8,2.9,5.4,5.9,8.2,8.8c0.1,0.6,0.2,1.2,0.3,1.7
		C815.8,410.8,814.7,418.2,813.7,425.6z"/>
	<path class="st26" d="M816.9,403.5c-0.1-0.6-0.2-1.1-0.3-1.7c3.8,0.4,7.6,0.8,11.4,1.1c2.7,0.2,5.4,0,9.1,0
		c-2.8-4.6-5-8.4-7.3-12.2c0.5-0.3,1-0.6,1.5-1c4.1,5.7,8.2,11.4,12.3,17.1c-0.3,1.3-0.6,2.6-0.8,3.9c-1,2.2-1.9,4.3-3.5,8
		c0-2.8-0.2-4.2,0-5.6c1.1-6.2-0.7-8.2-7-8.5C827,404.5,821.9,403.9,816.9,403.5z"/>
	<path class="st27" d="M891.6,422.7c0.1-1.3,0-2.6,0.4-3.8c1.4-5,3-9.9,4.4-14.5c-3-1.6-4.9-2.7-6.9-3.7c-3.3-3.7-6.5-7.3-9.8-10.9
		c0.3-0.4,0.5-0.7,0.8-1.1c1.2,0.7,2.5,1.3,3.6,2.1c3.8,2.9,7.6,5.8,11.2,8.9c1.2,1,2.3,2.9,2.4,4.4
		C897.7,410.9,895.7,417.2,891.6,422.7z"/>
	<path class="st26" d="M803.7,417.7c2.3,2.3,4.5,4.6,6.8,7c-0.9-0.3-1.8-0.6-2.8-1C806.4,421.7,805,419.7,803.7,417.7z"/>
	<path class="st26" d="M799.7,412.8c0.3,0.7,0.7,1.3,1,2C800.4,414.1,800,413.4,799.7,412.8z"/>
	<path class="st26" d="M802.7,416.7c0.3,0.3,0.7,0.7,1,1C803.3,417.4,803,417.1,802.7,416.7z"/>
	<path class="st26" d="M801.7,415.7c0.3,0.3,0.7,0.7,1,1C802.3,416.4,802,416.1,801.7,415.7z"/>
	<path class="st26" d="M800.7,414.7c0.3,0.3,0.7,0.7,1,1C801.3,415.4,801,415.1,800.7,414.7z"/>
	<path class="st21" d="M187.7,409.8c-3,3.3-6,6.7-9,10c-5-0.7-10.1-1.6-15.1-2c-6.6-0.5-13.2-0.7-19.8-1c1.8-2.7,3.4-5.6,5.6-8
		c3.2-3.4,6.8-6.3,10.3-9.4c0.7-0.6,1.7-1.3,2.5-1.3c9.5,0.1,18.9,0.4,28.3,0.7c1.1,0,2.2,0.6,3.3,1c-2.3,2.7-4.6,5.3-6.9,8
		C187.1,408.4,187.4,409.1,187.7,409.8z"/>
	<path class="st3" d="M79.7,390.7c3.8,1,7.5,2,11.3,3c1.5,0.4,3,0.9,4.5,1.4c0.1,0.6,0.3,1.2,0.4,1.8c-10,4.6-20,9.3-30,13.9
		c-0.1-0.3-0.1-0.6-0.2-0.9c-1.5-1-2.9-2.6-4.5-3c-4.4-1-8.9-1.5-13.4-2.2c1.2-1,2.2-2.5,3.5-3.1c8.8-4,17.6-7.9,26.5-11.8
		C78.4,390.1,79.1,390.4,79.7,390.7z"/>
	<path class="st3" d="M127.8,408.7c-9.7,5-19.4,10-29.1,15.1c-5.9-2.5-11.1,1.3-16.6,1.9c-1.4,0.2-2.8,0.7-4.2,1.1
		c2.4-2.1,4.6-4.5,7.2-6.1c7.1-4.2,14.5-8,21.7-11.9c5.8-1,11.5-2.1,17.3-2.7C125.2,405.9,126.5,407.8,127.8,408.7z"/>
	<path class="st11" d="M77.7,389.8c-8.8,3.9-17.7,7.8-26.5,11.8c-1.4,0.6-2.4,2-3.5,3.1c-2,0.4-4,0.8-6,1.2c-1,0.3-1.9,0.6-2.9,0.9
		c-0.3-0.5-0.7-0.9-1-1.4c11.7-5.6,23.3-11.1,35-16.7C74.4,389.1,76.1,389.4,77.7,389.8z"/>
	<path class="st21" d="M142.8,416.8c-0.3,0.3-0.7,0.6-1,0.9C142.1,417.4,142.5,417.1,142.8,416.8z"/>
	<path class="st0" d="M232.3,639.8c3.1,1.4,6.1,2.8,9.5,4.3c-0.2,1.8-0.5,4.6-0.9,8.7c-3.1-0.5-6.7-1.1-11.1-1.9
		C233.7,648,235.3,644.5,232.3,639.8z"/>
	<path class="st1" d="M227.8,653.7c-0.4-0.4-0.7-0.7-1.1-1.1C227.1,653,227.4,653.4,227.8,653.7z"/>
	<path class="st12" d="M553.5,61.7c0.1,6.8,0.2,13.6,0.2,20.5c0,46.3,0,92.5,0,138.8c0,2,0,3.9,0,5.9c-4.3,0.7-8.1,1.4-12,2
		c-14.9,0-29.8-0.1-44.8-0.2c-3.4,0-6.9-0.5-10.3-0.8c-17.9,0-35.8,0-53.7,0c-2-0.1-4-0.2-6-0.2c-56.6,0-113.2,0-169.8,0.1
		c-31.3,0.1-62.5,0.6-93.8,0.9c-2,0-3.9,0-6.7,0c-0.3-13-0.6-25.5-0.9-38c88.4,0.3,176.8,0.7,265.2,1c41.5,0.1,82.9,0,124.4,0
		c1.3,0,2.8,0.2,4-0.2c0.9-0.3,2-1.5,2-2.3c0-0.8-1.2-1.8-2.1-2.3c-0.8-0.4-2-0.2-3-0.2c-49.6-0.3-99.2-0.8-148.8-0.9
		c-80.6-0.2-161.2-0.1-241.8-0.1c0.1-21.7,0.1-43.4,0.2-65.1c4.5-0.3,8.9-0.8,13.4-0.8c47.9-0.4,95.9-0.7,143.8-1
		c50.4-0.3,100.9-0.7,151.3-1c26.8-0.1,53.6,0,80.5-0.1c1.3,0,2.8,0.3,4-0.2c1-0.4,1.8-1.6,2.7-2.4c-0.9-0.8-1.7-1.9-2.7-2.3
		c-1.2-0.4-2.6-0.1-4-0.1c-29.1,0.3-58.2,0.7-87.3,0.9c-54.3,0.4-108.5,0.7-162.8,1c-46.3,0.3-92.5,0.7-138.8,1
		c0-18.7,0-37.4,0-56.1c18.6,0.3,37.2,0.7,55.9,1c24.8,0.4,49.6,0.7,74.4,1c24.8,0.3,49.6,0.7,74.4,1c24.5,0.3,48.9,0.7,73.4,1
		c25,0.3,49.9,0.8,74.9,1C523.7,64.9,538.8,65.9,553.5,61.7z M158.3,205c3.4-0.5,6.2-1.2,9.1-1.2c64.1,0.3,128.2,0.7,192.2,0.9
		c60.8,0.2,121.6,0.1,182.4,0.1c1,0,2.2,0.3,3-0.1c1-0.5,1.8-1.6,2.6-2.4c-0.9-0.8-1.7-1.8-2.8-2.3c-0.8-0.4-2-0.1-3-0.1
		c-69.6-0.3-139.2-0.8-208.7-0.9c-56.8-0.2-113.6-0.1-170.4-0.1C155.8,198.8,155.6,199,158.3,205z"/>
	<path class="st12" d="M553.7,32.9c-0.1,5-0.1,10-0.2,15c-15.1-0.4-30.2-0.8-45.4-1c-24.9-0.4-49.9-0.7-74.8-1
		c-25.1-0.3-50.2-0.7-75.3-1c-25.1-0.3-50.2-0.7-75.3-1c-38.3-0.4-76.6-0.7-114.8-1c-3.9,0-7.9,0.7-11.8,1c0-3.8,0-7.6,0-11.8
		c1.9-0.1,3.5-0.3,5.1-0.3c106.1,0,212.2,0,318.3,0.2C504.1,32,528.9,32.6,553.7,32.9z"/>
	<path class="st12" d="M553.5,52.7c0,2.4,0,4.8,0,7.2c-4.4,0-8.8,0-13.2-0.1c-15.3-0.3-30.5-0.7-45.8-1c-23.9-0.4-47.9-0.7-71.8-1
		c-24.9-0.3-49.9-0.7-74.8-1c-24.4-0.3-48.9-0.7-73.3-1c-24.9-0.3-49.9-0.7-74.8-1c-14.6-0.1-29.3,0-43.9,0c0-3,0-6,0-9
		c2.3,0.7,4.7,1.9,7,1.9c18.8,0.5,37.6,0.8,56.3,1.1c25.3,0.4,50.6,0.7,75.8,1c32.8,0.4,65.5,0.6,98.3,1.1c17,0.2,33.9,0.7,50.8,0.9
		C480.6,52.1,517.1,52.4,553.5,52.7z"/>
	<path class="st28" d="M155.8,185.7c80.6,0,161.2-0.1,241.8,0.1c49.6,0.1,99.2,0.6,148.8,0.9c1,0,2.1-0.2,3,0.2
		c0.9,0.4,2.1,1.5,2.1,2.3c0,0.8-1.1,2-2,2.3c-1.2,0.4-2.6,0.2-4,0.2c-41.5,0-82.9,0.1-124.4,0c-88.4-0.3-176.8-0.6-265.2-1
		C155.8,189.1,155.8,187.4,155.8,185.7z"/>
	<path class="st28" d="M553.5,52.7c-36.4-0.3-72.9-0.6-109.3-1c-17-0.2-33.9-0.7-50.8-0.9c-32.8-0.4-65.5-0.7-98.3-1.1
		c-25.3-0.3-50.6-0.6-75.8-1c-18.8-0.3-37.6-0.6-56.3-1.1c-2.3-0.1-4.7-1.3-7-1.9c0-0.6,0-1.3,0.1-1.9c3.9-0.4,7.9-1,11.8-1
		c38.3,0.3,76.6,0.6,114.8,1c25.1,0.3,50.2,0.7,75.3,1c25.1,0.3,50.2,0.7,75.3,1c24.9,0.3,49.9,0.6,74.8,1c15.1,0.2,30.2,0.7,45.4,1
		C553.5,49.5,553.5,51.1,553.5,52.7z"/>
	<path class="st28" d="M155.9,115.8c46.3-0.3,92.5-0.7,138.8-1c54.3-0.4,108.5-0.6,162.8-1c29.1-0.2,58.2-0.6,87.3-0.9
		c1.3,0,2.8-0.3,4,0.1c1.1,0.4,1.8,1.5,2.7,2.3c-0.9,0.8-1.6,2-2.7,2.4c-1.2,0.4-2.6,0.2-4,0.2c-26.8,0-53.6-0.1-80.5,0.1
		c-50.4,0.3-100.9,0.6-151.3,1c-47.9,0.3-95.9,0.6-143.8,1c-4.5,0-8.9,0.5-13.4,0.8C155.9,119.1,155.9,117.4,155.9,115.8z"/>
	<path class="st28" d="M155.8,54.8c14.6,0,29.3-0.1,43.9,0c24.9,0.2,49.9,0.6,74.8,1c24.4,0.3,48.9,0.7,73.3,1
		c24.9,0.3,49.9,0.7,74.8,1c23.9,0.3,47.9,0.6,71.8,1c15.3,0.2,30.6,0.6,45.8,1c4.4,0.1,8.8,0.1,13.2,0.1c0,0.6,0,1.2,0,1.8
		c-14.7,4.3-29.8,3.2-44.7,3c-25-0.2-49.9-0.6-74.9-1c-24.5-0.3-48.9-0.7-73.4-1c-24.8-0.3-49.6-0.7-74.4-1
		c-24.8-0.3-49.6-0.6-74.4-1c-18.6-0.3-37.2-0.7-55.9-1C155.9,58.1,155.9,56.5,155.8,54.8z"/>
	<path class="st21" d="M432.8,227.9c17.9,0,35.8,0,53.7,0c-1.1,0.3-2.2,0.8-3.2,0.8c-15.8,0-31.5,0-47.3,0
		C435,228.7,433.9,228.2,432.8,227.9z"/>
	<path class="st0" d="M419,613.1c2.5-2.5,4.9-5,7.4-7.5c1.5,3,2.8,5.5,3.6,7.1c-2,1.9-3.7,3.6-5.4,5.2c-0.7,0.6-1.5,1-2.3,1.5
		c-0.3-0.8-0.5-1.6-0.9-2.4C420.5,615.4,419.5,613.9,419,613.1z"/>
	<path class="st8" d="M244.6,432.9c-3,0.1-6,0.4-9,0.4c-5.3-0.1-10.6-0.3-15.9-0.5c0-0.3,0-0.6,0-1c4.4-4.5,8.7-9.1,13.3-13.4
		c3.3-3.1,7.1-5.8,10.7-8.6c1.1,0.7,2.1,1.8,3.2,1.9c5.3,0.5,10.6,0.8,15.9,1.1c-3.2,3.1-6.7,6-9.7,9.3
		C250,425.4,247.4,429.2,244.6,432.9z"/>
	<path class="st8" d="M331.9,484.7c-3.9,0-7.7,0.2-11.6-0.1c-0.6-0.1-1.1-2.5-1.6-3.8c2.9,0,5.9,0.2,8.8-0.1
		C330.6,480.5,332.2,481.4,331.9,484.7z"/>
	<path class="st9" d="M408.2,483.1c-4.1,1.8-7.5,3.5-11.4,1.5c-0.8-0.4-1.6-1.7-1.7-2.6c-0.1-0.5,1.2-1.6,2-1.8
		C400.8,479.3,404.5,479.5,408.2,483.1z"/>
	<path class="st9" d="M408.7,454.8c-18.6,0-37.3-0.1-55.9-0.1c1.1-0.3,2.2-0.8,3.2-0.8c16.3-0.1,32.6-0.1,49,0
		C406.3,453.8,407.5,454.4,408.7,454.8z"/>
	<path class="st8" d="M357.8,483.7c-3.2,0.3-6.4,1-9.6,0.8c-1.7-0.1-5-0.6-2.4-3.9c2.6-0.1,5.2,0.2,7.7-0.4
		C357,479.3,357.9,480.6,357.8,483.7z"/>
	<path class="st9" d="M331.9,484.7c0.3-3.3-1.3-4.3-4.3-4c-2.9,0.2-5.9,0.1-8.8,0.1c0.8-0.7,1.5-1.9,2.3-1.9c3.5-0.2,7-0.3,10.4,0
		c1.2,0.1,2.1,1.9,3.2,2.9C333.7,482.7,332.8,483.7,331.9,484.7z"/>
	<path class="st9" d="M415.2,481.1c3.6-2,7.1-2.3,10.3,1.8c-3.5,0-6.9,0-10.4,0C415.2,482.3,415.2,481.7,415.2,481.1z"/>
	<path class="st9" d="M357.8,483.7c0.2-3.1-0.8-4.4-4.3-3.5c-2.4,0.6-5.1,0.3-7.7,0.4c2.4-2.4,10.7-4.2,12.6-2.3
		C360.1,480,361.1,482.3,357.8,483.7z"/>
	<path class="st9" d="M410.7,455.9c-0.4-0.4-0.8-0.8-1.2-1.2C409.9,455.1,410.3,455.5,410.7,455.9z"/>
	<path class="st9" d="M841.8,453.8c0.6,1.3,1.2,2.5,1.7,3.6c2.2-1.3,4.1-2.4,6.1-3.6c-3,8.3-5.9,16.6-8.9,25
		C841,470.4,841.4,462.1,841.8,453.8z"/>
	<path class="st9" d="M839.6,483.1c0.4-1.5,0.7-3,1.1-4.4C840.3,480.2,839.9,481.6,839.6,483.1z"/>
	<path class="st8" d="M41.7,405.9c2-0.4,4-0.8,6-1.2c4.5,0.7,9,1.2,13.4,2.2c1.7,0.4,3,2,4.5,3C57.7,408.5,49.7,407.2,41.7,405.9z"
		/>
	<path class="st28" d="M158.3,205c-2.7-6-2.5-6.2,4.4-6.2c56.8,0,113.6-0.1,170.4,0.1c69.6,0.2,139.2,0.6,208.7,0.9
		c1,0,2.1-0.3,3,0.1c1.1,0.5,1.9,1.5,2.8,2.3c-0.9,0.8-1.6,1.9-2.6,2.4c-0.8,0.4-2,0.1-3,0.1c-60.8,0-121.6,0.1-182.4-0.1
		c-64.1-0.2-128.2-0.6-192.2-0.9C164.5,203.8,161.7,204.5,158.3,205z"/>
	<path class="st5" d="M20.5,359.8c1.9,0.3,3.8,0.9,5.7,0.9c96.2,0,192.5,0,288.7-0.2c82.9-0.2,165.8-0.6,248.7-0.9
		c5.7,0,11.4,0,17.1-0.1c16.9-0.1,33.9-0.1,50.8-0.2c1.5,0.1,3,0.3,4.5,0.3c94.5,0,189.1,0,283.6,0c3.6,1.7,2,3.4,0,5.1
		c-30.7,0-61.3-0.1-92,0.1c-44.3,0.2-88.6,0.6-132.8,1c-44.4,0.3-88.9,0.7-133.3,1c-43.9,0.3-87.9,0.7-131.8,1
		c-44.3,0.3-88.6,0.7-132.8,1c-44.4,0.3-88.9,0.7-133.3,1c-43.8,0.3-87.6,0.6-131.3,1c-8.1,0.1-16.3,0.6-24.4,0.8
		c-1.9,0-3.9-0.6-5.8-0.9c-0.3-0.7-0.6-1.3-1-2c1.4-0.3,2.9-0.3,4.2-1c3-1.5,6.1-4.8,8.7-4.5C17.6,363.8,18.9,362.1,20.5,359.8z
		 M21.9,365.5c0.1,0.1,0.1,0.3,0.2,0.4c51.1,0,102.2,0,153.3,0c0-0.1,0-0.3,0-0.4C124.2,365.5,73,365.5,21.9,365.5z"/>
</g>
</svg>
