<?xml version="1.0" encoding="utf-8"?>
<!-- Generator: Adobe Illustrator 23.0.3, SVG Export Plug-In . SVG Version: 6.00 Build 0)  -->
<svg version="1.1" id="game" xmlns="http://www.w3.org/2000/svg" xmlns:xlink="http://www.w3.org/1999/xlink" x="0px" y="0px"
	 viewBox="0 0 536.5 474.7" style="enable-background:new 0 0 536.5 474.7;" xml:space="preserve">
<style type="text/css">
	.st0{fill:#292650;}
	.st1{fill:#212952;}
	.st2{fill:#E0BEA3;}
	.st3{fill:#392D4F;}
	.st4{fill:#383E6A;}
	.st5{fill:#40395D;}
	.st6{fill:#30325F;}
	.st7{fill:#553A4C;}
	.st8{fill:#44384E;}
	.st9{fill:#34375E;}
	.st10{fill:#644B52;}
	.st11{fill:#645979;}
	.st12{fill:#77615D;}
</style>
<g>
	<path class="st0" d="M536.5,231.9c0,15.5,0,30.9,0,46.4c-0.7,3.4-1.3,6.9-2.2,10.3c-5,19.8-10.1,39.6-15.3,59.4
		c-0.4,1.4-0.9,2.9-1.7,4.2c-3.8,5.8-7,12.3-11.7,17.2c-22.1,23-35,33.7-35,33.7c-12.5,9.6-31,22.2-56,33.6
		c-4.7-12.8-8-29.7-2.9-47.2c0.4-1.3,0.8-2.6,1.3-3.9c0.9-0.2,2-0.2,2.6-0.7c9.9-8.2,20.3-15.8,29.3-24.9
		c7.7-7.8,14.1-16.9,20.4-25.9c10.6-15.1,17.7-32,24.1-49.2c4.7-12.6,7.5-25.5,7.2-39c-0.4-15.1-0.8-30.2-1.9-45.3
		c-0.6-7.4-2.4-14.8-4.3-22.1c-1.7-6.2-4.4-12.2-6.5-18.3c-3.5-10.3-6-21-12.6-30c-5.8-7.9-11.6-15.9-18.2-23.1
		c-8.8-9.7-18-19.2-30.4-24.7c-6.5-2.8-13-5.7-19.3-9c-18.7-9.7-37.4-19.4-58-24.3c-14.2-3.4-28.7-5.8-43.1-8.1
		c-8.3-1.3-16.9-2.2-25.2-1.8c-12.5,0.5-25.1,1.4-37.3,3.7c-14.8,2.8-29.5,6.5-43.9,11c-9.7,3-18.8,8.1-28.2,12.3
		c-26.3,11.9-46.7,30.5-61.2,55.3c-4.9,8.4-8.4,17.7-12.6,26.6c-0.3-6.8-0.8-13.5-0.8-20.3c-0.1-21.1,0-42.3-0.1-63.4
		c0-0.6,0-1.2,0-1.8c1.5-0.8,3.3-1.4,4.6-2.5c6.6-5.5,12.7-11.7,19.6-16.6c10.7-7.7,21.2-16.4,36-14.1c0.6,0.1,1.5-0.4,2.1-0.8
		c6.8-3.9,13.7-7.7,20.4-11.7c0.8-0.5,1.2-1.6,1.8-2.4c2.3-0.7,4.7-1.1,6.9-2.1c19.5-8.9,40.2-10.9,61.3-10.8c5,2.9,10,5.8,15.1,8.5
		c0.6,0.3,1.7-0.2,2.6-0.3c15-1.3,30-2.5,45-3.8c1.3-0.1,2.5-0.8,3.7-1.2c2.9,0.2,5.7,0.5,8.6,0.4c17.2-0.5,33.4,3.5,48.6,11.5
		c3.7,1.9,7.8,2.9,11.8,4.3c1.3,1,2.4,2.3,3.9,2.9c15.4,6.4,30.9,12.8,46.4,19.1c2.3,0.9,4.9,1.4,7.3,2.1c0.8,0.4,1.6,0.7,2.5,1.1
		c0.5,0.3,1.1,0.6,1.6,0.9c3.4,2,6.6,4.3,10.1,5.9c27.8,12.4,43.9,36,56.9,61.7c6.2,12.1,8.5,26,13.8,38.7
		c7.9,18.9,11.6,38.3,11.3,58.7C534.7,218.9,535.9,225.4,536.5,231.9z"/>
	<path class="st0" d="M283.6,468.9c-9.9,0.4-20.4,1.9-31.3,4.9c-1,0.3-2.1,0.6-3.1,0.9c-12.1,0-24.2,0-36.4,0c0-0.3,0-0.6-0.1-0.8
		c4.3-3.7,8.6-7.5,12.8-11.2c1.2,1,2.3,1.9,3.5,2.9c14.1-0.5,29.4,0,45.5,2C277.6,468,280.6,468.4,283.6,468.9z"/>
	<path class="st1" d="M281.9,0c3.1,0.6,6.2,1.3,9.3,1.8C298.1,3,305.1,4,312,5.2c-1.2,0.4-2.5,1.1-3.7,1.2c-15,1.3-30,2.5-45,3.8
		c-0.9,0.1-2,0.6-2.6,0.3c-5.1-2.8-10.1-5.7-15.1-8.5c6.7-0.3,13.4-0.6,20.1-1c1.5-0.1,3-0.6,4.5-0.9C274,0,277.9,0,281.9,0z"/>
	<path class="st2" d="M0,291l0.3-0.3l0.3,0.3c0.1,10,0.1,19.9,0.2,29.9c-0.2,0-0.5,0.1-0.8,0.1C0,311,0,301,0,291z"/>
	<path class="st3" d="M93.6,148.2c4.1-8.9,7.6-18.1,12.6-26.6c14.5-24.8,34.9-43.5,61.2-55.3c9.3-4.2,18.4-9.3,28.2-12.3
		c14.4-4.5,29.1-8.3,43.9-11c12.3-2.3,24.8-3.2,37.3-3.7c8.4-0.3,16.9,0.5,25.2,1.8c14.5,2.2,28.9,4.6,43.1,8.1
		c20.6,5,39.3,14.6,58,24.3c6.3,3.3,12.8,6.2,19.3,9c12.4,5.4,21.6,14.9,30.4,24.7c6.6,7.3,12.4,15.2,18.2,23.1
		c6.5,8.9,9.1,19.7,12.6,30c2.1,6.1,4.8,12.1,6.5,18.3c1.9,7.2,3.8,14.6,4.3,22.1c1.1,15,1.6,30.2,1.9,45.3
		c0.3,13.4-2.5,26.4-7.2,39c-6.4,17.2-13.5,34.1-24.1,49.2c-6.3,9-12.7,18.2-20.4,25.9c-9,9.1-19.4,16.7-29.3,24.9
		c-0.6,0.5-1.7,0.5-2.6,0.7c0.3-3.6,0.8-7.2,0.8-10.7c0.1-11.9,0-23.8,0-35.7c0-1.5,0.1-3,0.1-4.5c2.2-2.4,4.5-4.6,6.6-7.1
		c20.6-25.5,30.2-54.7,29.8-87.3c0-3.8,0-7.6,0.3-11.3c1-12.5,1.5-25.1-1.2-37.4c-5.3-24.4-17.4-45-36.1-61.5
		c-3.3-2.9-7.4-4.9-11.2-7.2c-0.6-0.6-1.2-1.2-1.8-1.8c-7-5.5-13.9-10.9-20.9-16.4c-1.2-1.1-2.3-2.3-3.6-3.3
		c-10.6-7.7-21.7-14.1-34.1-18.4c-19.6-6.9-39.2-13.7-60.5-10c-3.1,0.5-6,1.7-9,2.6c-16.1-0.3-32.1,0.2-47.1,6.4
		c-10.7,4.4-20.7,10.3-31,15.5c-1.9,0.9-4,1.5-5.7,2.6c-14.9,9.8-29.2,20.1-40.4,34.5c-12.8,16.5-23.4,34.2-29.4,54.2
		c-3,9.8-4.9,20.2-2.8,30.8c0.6,3,0.3,6.2-0.3,9.2c-1.9,10.4-5.3,20.6-5.6,31c-0.3,9.7,2.6,19.6,4.1,29.4c-6.6,2-13.1,4-19.7,6
		c-2.5-2-6.1-5.3-8.8-10.2c-9.3-16.6,5.4-30.9,7.5-64.6c0.7-11.4-0.9-9.7-0.8-37.3c0.1-13.1,0.5-23.8,0.8-31
		C92.9,151.5,93.1,150.8,93.6,148.2z"/>
	<path class="st0" d="M93.6,148.2c-0.3,1.2-0.6,2.4-0.9,3.6c-1.4,2.8-3.2,5.5-4.2,8.5c-4.9,14.3-10.9,28.3-13.9,42.9
		c-2.9,14-3,28.7-3.6,43.1c-0.3,8.4,0.5,16.9,1.8,25.2c1.5,9.6,4.1,19,6.3,28.6c0,0.3-0.1,0.6-0.1,0.9
		c-16.6,10.4-33.1,20.8-49.7,31.2c-2.3-3.7-5.1-7.2-6.7-11.2c-4-9.5-8.7-19-10.7-28.9c-2.7-13.4-3.4-27.2-4.4-40.8
		c-0.5-7.1,0.1-14.1-2.7-20.9c-4.1-10.1-3-20.1,0.9-30c1.5-3.9,2.3-8.1,3.5-12.1c0.8-1.4,1.9-2.6,2.4-4.1C19,165.1,26,146,33.3,127
		c2.1-5.6,5-10.9,7.5-16.3c8.5-10.2,17.1-20.4,25.6-30.6c5.4-3.4,10.7-7,16.1-10.2c3.3-2,6.8-3.5,10.2-5.2c3,16.3,4.9,36.1,3.6,58.6
		C95.8,132.2,94.8,140.5,93.6,148.2z"/>
	<path class="st3" d="M413.7,339.2c0,11.9,0.1,23.8,0,35.7c0,3.6-0.5,7.2-0.8,10.7c0,0.9-0.1,1.8-0.1,2.7c-2.4,0.9-4.7,1.8-7.1,2.7
		c-3.7,1.5-7.4,3.1-11.1,4.6c0.5-1.5,1-2.9,1.4-4.4c-6.5-0.4-12.6-0.9-18.7-1c-19.6-0.4-39.2-0.6-58.8-1.1c-1.7,0-3.3-1.8-5-2.7
		c1.9-2,3.8-4.1,5.7-6.1c1.5-1,2.9-2,4.4-3c1,3.2,3.3,1.9,5.2,1.4c14.9-4.1,29.8-8.5,44.8-12.5c14.5-3.8,26.5-11.3,35.4-23.5
		C410.2,341.1,412.2,340.3,413.7,339.2z"/>
	<path class="st0" d="M394.6,395.6c4.5-1.8,6.6-2.8,11.1-4.6c2.3-0.9,4.7-1.8,7.1-2.7c-0.2,7.3-0.3,15.1,0,23.3
		c0.3,9.3,1,18,1.9,26.2c-5,2.5-10,4.9-15.1,7.4c-7.9-7-9.3-12.5-9.2-16.1c0.1-6,4.4-18.2,5.6-20.4c0,0,0.7-1.5,0.8-2.7
		c0-0.4-0.1-0.8-0.1-1.3c-0.1-0.3-0.1-0.6-0.1-0.6c-0.1-0.3-0.2-1.1-0.5-1.8c-0.3-0.6-0.6-1.5-1.2-1.8c-1.1-0.7-3.1,0.7-3.6,1.1
		c-20.5,17.7-41,35.5-61.5,53.3c-1.7,1.5-2.7,3.8-4,5.7l0.1-0.1c-0.4,0.2-0.8,0.4-1.1,0.7c-1.5,0.4-3,0.7-4.5,1.1
		c0.9-2,1.3-4.4,2.7-5.8c4.4-4.5,9.1-8.7,13.8-12.8c20.2-17.7,41.5-35.4,42.6-36.7c2.6-3.2,4.5-5.9,5.7-7.6
		C389.2,397.8,392.4,396.5,394.6,395.6z"/>
	<path class="st1" d="M92.7,55.4c19.9-16.7,42.3-28.7,67.2-36.1c5.8-1.7,11.6-3,17.5-4.5c-0.6,0.8-1,2-1.8,2.4
		c-6.8,4-13.6,7.8-20.4,11.7c-0.6,0.4-1.5,0.9-2.1,0.8c-14.8-2.4-25.3,6.4-36,14.1c-6.9,5-13,11.1-19.6,16.6
		c-1.3,1.1-3.1,1.6-4.6,2.5C92.8,60.3,92.7,57.8,92.7,55.4z"/>
	<path class="st1" d="M381,21.3c18.4,3,35.5,9.5,51.5,19c2.2,1.3,4.1,3.4,6.1,5.1c-2.4-0.7-5-1.2-7.3-2.1
		c-15.5-6.3-31-12.6-46.4-19.1C383.4,23.6,382.3,22.3,381,21.3z"/>
	<path class="st4" d="M92.7,55.4c0,2.5,0.1,4.9,0.1,7.4c0,0.6,0,1.2,0,1.8c-3.4,1.7-6.9,3.3-10.2,5.2c-5.5,3.3-10.7,6.8-16.1,10.2
		C75.2,71.8,84,63.6,92.7,55.4z"/>
	<path class="st1" d="M441,46.5c0.5,0.3,1.1,0.6,1.6,0.9C442.1,47,441.6,46.8,441,46.5z"/>
	<path class="st0" d="M29.4,332.2C46,321.8,62.6,311.4,79.1,301c2.9,8.1,5.5,16.3,8.9,24.2c8,18.4,18.2,35.6,33.3,49.1
		c6.3,5.6,13.8,10.7,21.6,13.6c5.8,2.2,11.2,4.8,16.4,7.9c11.7,7,42.9,12.4,42.9,12.4c0,0,29.3,5.1,52,6.1
		c7.5,0.3,15.4,0.4,15.4,0.4c4.6,0,8.7,0,12-0.1c-14.5,11.9-29.2,24.3-43.9,37.2c-5.1,4.4-10.1,8.9-15,13.3
		c-4.3-0.9-10.6-2.1-18.3-3.3c-7.8-1.1-13.9-1.7-29.2-3c-10.4-0.9-20.7-1.6-31.1-2.4h-0.3l-0.2-0.2c-0.8-1-1.4-2.3-2.4-3
		c-4.2-3-8.4-5.9-12.8-8.5c-3.9-2.4-8.1-4.4-12.2-6.6c-3.3-1.5-6.6-3-9.8-4.5c-3.1-3.7-6-7.5-9.4-10.9c-0.8-0.9-3-0.4-4.6-0.6
		c-7.1-7.2-14.1-14.3-21.1-21.5c-1.3-1.4-2.2-3.2-3.5-4.6c-2.7-3.1-5.6-6.2-8.3-9.3c-3-3.4-6.8-6.5-8.8-10.4
		c-3.3-6.3-6.7-12.2-10.5-18.2C35.2,350.5,28.3,342.8,29.4,332.2z"/>
	<path class="st0" d="M144.2,456.6c14.6,0.8,24.7,1.3,31.9,1.5c2.9,0.1,10.2,0.4,19.8,1.3c3.1,0.3,5.7,0.5,8.9,1
		c7.8,1.1,14.1,2.8,18.5,4.2c-2.9,3.4-5.7,6.7-8.6,10.1c-11.1-0.9-24.3-2.9-38.9-6.9C163.7,464.5,153.1,460.6,144.2,456.6z"/>
	<path class="st4" d="M40.8,110.7c-2.5,5.4-5.3,10.8-7.5,16.3C26,146,19,165.1,11.8,184.1c-0.6,1.5-1.6,2.7-2.4,4.1
		c2.6-27.3,8-53.4,27.7-74.3C38.3,112.8,39.6,111.8,40.8,110.7z"/>
	<path class="st5" d="M116.3,438.3c4.1,2.2,8.3,4.2,12.2,6.6c4.4,2.6,8.6,5.6,12.8,8.5c1,0.7,1.6,2,2.4,3c-2.4-0.7-4.7-1.4-7.1-2.2
		c-3.8-2.6-7.5-5.1-11.3-7.7C122.3,443.9,119.3,441.1,116.3,438.3z"/>
	<path class="st6" d="M92.4,422.3c1.6,0.2,3.8-0.3,4.6,0.6c3.4,3.4,6.3,7.2,9.4,10.9c-1.1-0.3-2.4-0.2-3.3-0.9
		c-2.9-2-5.8-4.1-8.5-6.5C93.5,425.5,93.1,423.8,92.4,422.3z"/>
	<path class="st0" d="M224,463.1c11.3-9.7,22.7-19.5,34.1-29.2c7.6-6.5,15.2-12.9,22.8-19.3c6.9-0.5,14.1-0.8,21.5-0.9
		c6.8-0.1,13.4-0.1,19.8,0c10.1-3.9,18.4-5.5,24.1-6.2c6.2-0.8,11.6-0.8,20.1-2.9c2-0.5,5.9-1.5,10.5-3c3.8-1.2,7-2.3,9.4-3.1
		c-1.4,1.8-3.8,4.7-7,8.2c-13,14.4-24.3,21.9-42,37.5c-0.8,0.7-1.9,1.7-3.3,3c-4.8,4.5-7.2,6.8-8.6,9.1c-1.1,1.9-2.9,5.7-2.2,12.1
		c-8.6,0.7-20.4,1.4-34.5,1.5c-3.8,0-1,0-16.2-0.1c-23.3-0.1-32.4,0-43.5-4.4C226.8,464.5,225,463.6,224,463.1z"/>
	<path class="st0" d="M395.5,427.4c0-0.1,0.1,3,0.6,6.2c0.7,5,2.3,8.9,3.6,11.5c-15.7,9-36.9,18.2-63.1,22
		c-5.8,0.8-11.3,1.3-16.5,1.5c-0.2-5.3,0.3-11.5,3.8-13.3c2.2-1.1,3.9,0.4,5.8-0.6c4.3-2.4-0.3-12,2.9-19.3
		c3.7-8.4,13.2-3.2,28.6-13.3c3.5-2.3,23-15.6,30-20.7c0.5-0.4,2.3-1.9,3.6-1.1c1.2,0.7,2.5,2.5,2.4,3.7
		C396.9,411.8,396.2,419.6,395.5,427.4c-0.4,3.1-0.7,6.2-1.1,9.3c0.4,0,0.7,0,1.1,0C395.5,433.6,395.5,430.5,395.5,427.4z"/>
	<path class="st0" d="M324.6,460.9c0.4-0.2,0.8-0.4,1.1-0.7C325.4,460.5,325,460.7,324.6,460.9z"/>
	<path class="st7" d="M193.7,97.3c10.3-5.2,20.4-11.1,31-15.5c15-6.2,31.1-6.7,47.1-6.4c12.7,0.9,25.5,1.6,38.2,2.8
		c18.5,1.8,35.2,9,51.5,17.3c5.9,3,11.7,6,17.6,9c7,5.5,13.9,10.9,20.9,16.4c0.6,0.6,1.2,1.2,1.8,1.8c6.5,8.5,13.7,16.5,19.5,25.5
		c13.8,21.4,20.5,45.3,21.3,70.7c0.3,9.1-0.8,18.4-1.7,27.5c-2.1,21.8-8.9,42.2-19.7,61.1c-1.8,3.2-4.4,5.9-6.6,8.9
		c0.3-5.2,0.6-10.3,0.8-15.5c0-1.5,0.1-2.9,0.1-4.4c2.5-0.3,3.2-1.4,1.6-3.5c1.9-10.5,4.5-21,5.4-31.6c0.9-12.2,0.7-24.5,0-36.7
		c-0.3-6.7-2.4-13.3-3.9-19.9c-0.7-2.9-2.4-5.6-2.9-8.5c-1.8-11.3-5.4-22-10.8-32.1c-11.5-21.5-28.6-37.2-50.8-46.6
		c-19.6-8.3-40.3-11.1-61.7-8.9c-18.9,1.9-36.6,8-54.3,13.8c-19.5,6.4-35.6,18.7-49.3,34.3c-14.1,16-24.9,34-32.3,53.7
		c-3,7.9-8.2,22.5-9.4,42.2c-1,16.5,1.1,30.8,3.9,41.6c5.5,29.6,5.3,37.3,3.7,37.8c-1.7,0.5-6-6.3-17.1-35.9
		c-1.2-3.2-2.8-7.7-4.6-13.2c-1.9-5.9-4.1-12.4-5.4-19.2c-1.6-8.7-2.3-17.6-1.9-26.6c0.4-11.2,2.5-22.5,4.4-33.6
		c4.9-28.9,19.9-51.5,44-68.1c3.3-2.3,4.4-5.1,5-8.6c1.6-10.1,5-19.3,12.5-26.6C192.5,99.8,193,98.4,193.7,97.3z"/>
	<path class="st7" d="M193.7,97.3c-0.7,1.1-1.2,2.5-2.1,3.4c-7.5,7.3-10.9,16.5-12.5,26.6c-0.6,3.5-1.7,6.4-5,8.6
		c-24.1,16.6-39,39.2-44,68.1c-1.9,11.1-4,22.4-4.4,33.6c-0.2,4.8,0.1,23.2,7.3,45.8c1.3,4.2,2.7,7.7,3.6,10.1
		c-5.7,6.9-12,10.5-16.2,8.7c-0.7-0.3-2.3-1.1-4.9-6c-1.9-3.6-4.3-9.3-5.1-17.3c-0.5-4.6-1.1-10.5-1-19.3c0.1-11.1,1-20,2.1-30.6
		c0.3-3.2,0.6-6.2,1.1-10.1c1.7-13.3,4.1-25.2,5.4-30.3c6.2-24.9,24.6-48,29.4-54.2c11.2-14.4,25.5-24.7,40.4-34.5
		C189.7,98.8,191.8,98.2,193.7,97.3z"/>
	<path class="st3" d="M79,301c-2.2-7.9-4.6-17.8-6.1-29.5c-0.5-4-2.2-13.2-1.8-25.2c0.5-14.4,0.7-29.1,3.6-43.1
		c3-14.7,9.1-28.7,13.9-42.9c1-2.9,2.8-5.6,4.2-8.5c0,45.5-0.1,91-0.1,136.5c-1.1,0.5-2.2,1-3.3,1.5c0.5,0.7,1,1.4,1.5,2.2
		C86.9,295,83,298,79,301z"/>
	<path class="st7" d="M414.7,316.4c1-2.6,2.8-6.9,5.1-12.2c9.5-21.6,13.6-24.7,16.6-36.8c1.3-5.3,1.7-11.1,2.6-22.7
		c0.6-8.8,1.2-16.6,0.8-25c-1.5-29-13-33.9-13.8-56c-0.1-2.6-0.2-9.4-4.5-15.5c-3.2-4.5-7.3-6.6-8.7-7.3c-6.3-3.4-16.3-11.6-32-33
		c9,4.5,21.1,11.6,32.4,22.1c6.3,5.8,11.1,11.5,12.6,13.3c5.9,7.1,9.6,13.1,10.5,14.4c9.8,15.8,13.3,30.7,14.1,34.3
		c3.1,13.7,2.7,24.9,2.2,37.3c-0.1,1.7-0.3,6.4-0.9,12.6c-1.4,14.7-3,31.5-10.9,51c-7.9,19.6-18.1,31.7-20.4,34.6
		c-2,2.5-4.4,4.7-6.6,7.1C414,328.5,414.4,322.4,414.7,316.4z"/>
	<path class="st7" d="M414.6,318.3c-0.3,5.5-0.6,10.9-0.8,16.4c0,1.5-0.1,3-0.1,4.5c-1.5,1.1-3.5,2-4.6,3.4
		c-9,12.2-20.9,19.6-35.4,23.5c-15,3.9-29.9,8.3-44.8,12.5c-1.9,0.5-4.2,1.8-5.2-1.3c1.8-1.4,3.5-2.7,5.3-4.1
		c0.6,3.1,2.6,1.9,4.2,1.3c7.6-3,15.1-6,22.6-9.3c16.1-7.2,30.6-17,43.1-29.5C404.2,330,409.3,324,414.6,318.3z"/>
	<path class="st8" d="M379.2,104.6c-5.9-3-11.7-6-17.6-9c-16.3-8.3-33-15.6-51.5-17.3c-12.7-1.2-25.5-1.9-38.2-2.8
		c3-0.9,6-2.1,9-2.6c21.3-3.7,40.9,3.1,60.5,10c12.4,4.4,23.6,10.8,34.1,18.4C376.8,102.2,378,103.5,379.2,104.6z"/>
	<path class="st8" d="M401.9,122.8c-0.6-0.6-1.2-1.2-1.8-1.8C400.7,121.6,401.3,122.2,401.9,122.8z"/>
	<path class="st3" d="M90.9,292c2.3,0.6,6.7,1.4,11.8-0.1c2.6-0.7,4.6-1.8,6.1-2.7c1.3,0,2.5,0,3.8-0.1c1.1,2.8,2.5,6.4,4.3,10.5
		c0.5,1.2,1.4,3.1,2.5,5.3c0,0,3,6.3,6,11.5c9.8,16.7,23.7,29.8,40.4,39.5c10.4,6,21.9,10.2,32.4,16.1c9.6,5.5,20,6.4,30.5,7
		c10.8,0.7,21.7,1.3,32.5,1.7c4.2,0.2,7.2-0.6,8.9-0.8c10-1.1,25.5-1.8,49,0.3c-4.6,5-9.8,10.3-15.6,15.5
		c-7.8,7.2-15.5,13.4-22.7,18.8c-2.6,0.1-6.4,0.1-11,0.1c-35-0.2-60.9-4.9-67.4-6.5c-14.5-3.5-29.6-4.7-42.9-12.4
		c-5.3-3.1-10.6-5.7-16.4-7.9c-7.8-2.9-15.3-8-21.6-13.6C106.3,360.8,96,343.6,88,325.2c-3.4-7.9-6-16.1-8.9-24.2
		c0-0.3,0-0.6,0.1-0.9C83.1,297.4,87,294.7,90.9,292z"/>
	<path class="st3" d="M385.6,399.2c-13.1,3.6-26.2,7.6-39.4,10.7c-7.9,1.9-16,3.2-24.1,3.7c-13.7,0.8-27.5,0.7-41.3,0.9
		c10.9-9.4,21.9-18.8,32.8-28.2c1.7,1,3.3,2.7,5,2.7c19.6,0.5,39.2,0.7,58.8,1.1c6.1,0.1,12.2,0.7,18.7,1c-0.5,1.4-1,2.9-1.4,4.4
		C391.6,396.8,388.6,398,385.6,399.2z"/>
	<path class="st7" d="M328.4,368.3c-4,3.9-8,7.9-12.1,11.8c-0.5,0-1.1,0-1.6,0c-14.9,0-29.8,0-44.7,0c-1.1-0.3-2.3-0.7-3.4-0.9
		c-19.7-3-39.4-6.1-58.2-12.8c-26-9.2-46.9-24.9-60.6-49c-4.3-7.5-7-15.9-10.4-23.9c3.9-0.2,7.8-0.4,11.8-0.7c0.3,0,0.5,0,0.8,0
		s0.6,0,0.9,0c0.3,1.8,0.5,3.6,1.1,5.3c1.9,5.6,4.2,10.9,7.1,15.8c10.2,17.6,25.5,27.8,25.5,27.8c13.9,9.9,26.8,13,42.7,16.9
		c12.3,3,22.4,4,32.7,5.1c14.8,1.5,22.2,2.3,28.1,1.5c24-3.1,36.6-19.5,41.9-15.3C331.9,351.4,332.9,355.7,328.4,368.3z"/>
	<path class="st9" d="M395.5,427.4c0,3.1,0,6.2,0,9.3c-0.4,0-0.7,0-1.1,0C394.8,433.6,395.2,430.5,395.5,427.4
		C395.6,427.4,395.5,427.4,395.5,427.4z"/>
	<path class="st10" d="M149.1,289.1c-4.8-26.8-2.2-53.1,7.4-78.4C164,191,174.8,173,188.9,157c13.7-15.5,29.8-27.9,49.3-34.3
		c17.7-5.8,35.5-11.9,54.3-13.8c21.4-2.2,42,0.6,61.7,8.9c22.3,9.4,39.3,25.1,50.8,46.6c5.4,10.1,9,20.8,10.8,32.1
		c0.5,2.9,2.2,5.6,2.9,8.5c1.5,6.6,3.6,13.2,3.9,19.9c0.6,12.2,0.9,24.5,0,36.7c-0.8,10.6-3.5,21.1-5.4,31.6
		c-19.1-0.1-38.3-0.2-57.4-0.3c-1.8,0-3.5-0.5-5.3-0.7c2.2-6.3,5.5-12.4,6.2-18.9c1.5-12.3,2.2-24.7,1.9-37.1
		c-0.5-22.3-8.8-41.4-25.9-56.3c-17.7-15.4-38.3-19.4-60.6-14.2c-9.6,2.3-18.8,6.4-28.1,10.2c-22,8.9-38.2,24-48.2,45.5
		c-5.9,12.6-8.8,25.3-7.9,38.2c0.2,2.6,1,12.1,5.5,23.3c1.8,4.6,3.8,8.2,5.4,10.9c-2.7,0.3-5.5,0.5-8.3,0.7
		c-15.4,1.1-30,0.9-43.5-0.1C150.3,292.6,149.7,290.9,149.1,289.1z"/>
	<path class="st7" d="M317.6,380.2c-0.6-6.1,0.7-10.2,1.8-12.7c5.4-11.4,18.9-12.4,48.4-29.3c0.8-0.5,1.5-0.9,1.9-1.1
		c1.2,0.5,3.1,1.1,5.2,0.7c5.3-0.9,7.4-6.9,11.1-12.9c4.7-7.5,5.8-5.3,22-22.7c4.8-5.1,8.5-9.3,10.6-11.8
		c6.8,10.7,6.9,15.7,5.1,18.1c-2.2,3.1-8.6,3.6-9.4,7.9c-0.1,0.7-0.1,1.4,0,1.8c-1.8,5.5-5.2,13.6-12.3,21.2
		c-4.3,4.6-8.2,7.2-15.3,11.7c-5.8,3.7-12,7.2-29.4,15.3c-6,2.8-14.1,6.5-23.7,10.7C328.4,378.2,323,379.2,317.6,380.2z"/>
	<path class="st7" d="M415.5,301c-0.9,1.3-2,2.5-2.7,3.8c-8.4,15.8-20.3,27.6-37.6,33.1c-1.5,0.5-3.4-0.4-5.2-0.7
		c8.4-7.5,16.8-15.1,25.3-22.6c4-3.6,8.2-7,12.1-10.8c1.6-1.5,2.5-3.7,3.7-5.6c1.5-0.6,3.1-1.1,4.6-1.7
		C415.6,298,415.6,299.5,415.5,301z"/>
	<path class="st7" d="M114.7,293.1c3.8-0.2,7.8-0.3,12.2-0.2c3.7,0.1,7.2,0.4,10.5,0.7c1.7,4,3.3,8.1,4.9,12.1
		c0.4,1,3.4,7.7,5.5,11.8c5,9.5,11.5,15.9,15.9,20.1c7.2,7,21.8,21.2,44.7,28.9c15.1,5.1,20,6.4,58.2,12.8c1.2,0.2,2.3,0.6,3.4,0.9
		c40.5-1.1,49.2-0.6,49.2,0.1c0.1,1.2-23.7,4.1-48.5,4.3c-12.1,0.1-23.4,0.1-38.3-2.6c-3.6-0.6-17.3-3.2-34.3-9.8
		c-17.5-6.7-29.4-14.4-32.4-16.1c-11.3-6.5-27.7-18.5-40.4-39.5C119.7,307.4,116.5,298.9,114.7,293.1z"/>
	<path class="st10" d="M150.9,292.9c17.6,0.3,35.1,0.6,52.7,0.9c2.1,6.3,7.1,10.3,11.9,14.5c0,0.3,0.1,0.6,0.1,0.9
		c-2.4,7.4-2.4,7.4,3.9,11.9c1.6,1.1,3,2.5,4.6,3.6c5.7,4.1,11.2,8.6,18.8,9.1c3.8,0.2,7.7,0.6,11.2,1.8c8,2.6,16,2.7,24,0.7
		c3.6-0.9,6.9-2.8,10.3-4.2c0.5-0.1,1-0.2,1.4-0.3c8.6,0.1,16.7-1.3,24.4-4c2.4-0.9,10-3.7,18.3-9.9c11.5-8.5,18.3-18.7,22-25.7
		c17.3,0.5,34.8,0.8,52.5,0.9c3.4,0,6.8,0,10.2,0.1c-3.8,3.8-9.7,9.7-16.8,16.9c-29.1,29.7-27.1,29-32.7,33.4
		c-21.5,16.8-45.3,21.5-56.7,23.7c-12.4,2.4-22.9,2.9-28.6,3.1c-9.3,0.3-19,0.6-31.1-1.5c-9.5-1.7-16-4.1-27.2-8.4
		c-19.5-7.4-29.2-11.2-39.5-18.7c-15.3-11.1-26.7-25.4-32.6-43.6C151.4,296.5,151.3,294.6,150.9,292.9z"/>
	<path class="st11" d="M149.2,292.8c0.3,0,0.5,0,0.8,0C149.7,292.9,149.4,292.9,149.2,292.8z"/>
	<path class="st12" d="M229,290.9c-9.7-0.3-19.3-0.6-29-0.9c-0.9-2.4-1.6-4.8-2.6-7.2c-8.7-20.9-7-41.4,2.4-61.5
		c10-21.6,26.2-36.7,48.2-45.5c9.2-3.7,18.4-7.9,28.1-10.2c22.3-5.2,42.9-1.2,60.6,14.2c17.1,14.9,25.4,34,25.9,56.3
		c0.3,12.3-0.4,24.8-1.9,37.1c-0.8,6.4-4.1,12.6-6.2,18.9c-16.6,0-33.2-0.1-49.8-0.1c-2,0-3.9,0.2-5.9,0.3c-8.5-3-17-6.1-25.6-9.1
		c-7.8-2.7-15.7-4.9-23.7-0.5c-2.4,1.3-4.7,3-7.5,4.8c-5.1-24.7-3.2-48.2,7.2-71.2c1.6,3.2,3.8,6.7,3.4,9.9
		c-1.1,8.2-3.8,16.2-4.9,24.3c-0.7,5.4-1,11.5,0.8,16.4c2.6,6.7,9.5,7.5,16.3,8.1c15.7,1.3,30.1-2.1,43.1-10.9
		C318.3,257,326,248,326,234.4c0-4.6-0.3-8.7-5.3-11.3c-8.9-4.5-17.5-9.6-26.1-14.5c-1.4-0.8-2.9-1.8-3.6-3.1
		c-2.7-4.5-5-9.3-7.8-13.8c-1.6-2.5-3.3-5.5-5.8-6.8c-7.6-4.1-15.6-6.6-23.7-0.8c-1.9,1.4-5.1,1.9-6,3.7c-2.1,4.3-3.2,9.2-4.5,13.1
		c-2.2,2.9-4.7,5.2-6,8c-10.4,23.6-13.3,48.2-8.1,73.6C229.6,285.2,229,288.1,229,290.9z"/>
	<path class="st12" d="M289.9,331.8c3-2.1,6-4,8.9-6.2c5.7-4.5,11.1-9.4,10.2-17.5c-0.4-3.4-2.1-6.1-4.1-9c-2.1-3.2-4.4-5.4-6.1-6.8
		c9-0.4,18.2-0.7,27.7-0.9c9.7-0.2,19.1-0.2,28.3-0.1c-2,4.4-5.3,10.6-11,16.8c-4.5,5-8.7,8-11.2,9.8
		C320,327.3,305.7,332,289.9,331.8z"/>
	<path class="st12" d="M229,290.9c-2.6,3.2-5.3,6.6-8,10.1c-1.9,2.4-3.7,4.9-5.4,7.3c-2.1-1.6-4.6-3.7-7-6.4
		c-3.8-4.2-6.3-8.4-7.9-11.8c3.4-0.8,8-1.5,13.3-1.4C220.2,288.7,225.3,289.8,229,290.9z"/>
	<path class="st12" d="M116,287.8"/>
	<path class="st7" d="M186.3,356.3"/>
	<path class="st7" d="M106.4,291.5"/>
	<path class="st3" d="M116.5,294"/>
	
		<image style="overflow:visible;" width="1343" height="848" xlink:href="77EECA58.jpg"  transform="matrix(1 0 0 1 -7894 -7770.1099)">
	</image>
	
		<image style="overflow:visible;" width="1343" height="848" xlink:href="77EECA5B.jpg"  transform="matrix(1 0 0 1 -7894 -7770.1099)">
	</image>
</g>
<path class="st0" d="M246.3,475.3"/>
<path class="st0" d="M305.7,416.2"/>
</svg>
