<?xml version="1.0" encoding="utf-8"?>
<!-- Generator: Adobe Illustrator 23.0.3, SVG Export Plug-In . SVG Version: 6.00 Build 0)  -->
<svg version="1.1" id="mentor" xmlns="http://www.w3.org/2000/svg" xmlns:xlink="http://www.w3.org/1999/xlink" x="0px" y="0px"
	 viewBox="0 0 818.04 1087.66" style="enable-background:new 0 0 818.04 1087.66;" xml:space="preserve">
<style type="text/css">
	.st0{fill:#876860;}
	.st1{fill:#63524E;}
	.st2{fill:#9F7F77;}
	.st3{fill:#9F8078;}
	.st4{fill:#CABE9E;}
	.st5{fill:#C9BD9D;}
	.st6{fill:#C8BC9C;}
	.st7{fill:#C7BA9B;}
	.st8{fill:#FEFEFE;}
	.st9{fill:#EFEFEF;}
	.st10{fill:#FDFDFC;}
	.st11{fill:#876960;}
	.st12{fill:#886961;}
</style>
<g>
	<path class="st0" d="M5.17,1018.47c0.47-1.52,0.99-3.02,1.39-4.55c1.86-7.04,3.68-13.43,12.91-14.78
		c6.01-0.88,11.47-5.02,17.48-6.54c15.18-3.84,30.32-1.51,45.37,1.47c1.47,0.29,2.93,0.59,4.4,0.88c0.42,0.07,0.84,0.15,1.26,0.22
		c-0.14-0.36-0.29-0.72-0.43-1.09c-7.83-8.38-16.04-16.44-23.39-25.22c-8-9.55-15.16-19.79-22.76-29.68
		c-7.44-9.68-5.72-19.48-0.71-29.48c9.12-18.22,24.82-29.73,41.35-40.22c16.59-10.53,35.11-16.35,54.55-17.59
		c19.75-1.26,38.66,3.58,56.01,13.35c13.51,7.6,27.47,12.78,43.29,13.51c13.23,0.61,26.33,3.7,39.56,4.75
		c6.31,0.5,12.8-1.76,19.21-1.78c12.49-0.04,20.01-9.97,30-14.85c4.78-2.34,7.04-9.85,10.71-15.41c-2.23-1.05-3.56-1.27-4.21-2.06
		c-1.7-2.06-4.68-4.74-4.27-6.48c0.6-2.51,3.47-5.82,5.87-6.3c5.31-1.07,7.18-3.51,6.86-8.65c-0.33-5.29-0.16-10.62-0.45-15.92
		c-0.05-0.99-1.04-2.26-1.95-2.81c-3.69-2.24-3.78-4.89-1.79-8.41c1.05-1.86,1.91-4.23,1.77-6.29c-1.22-18.26-2.06-36.57-4.28-54.72
		c-1.48-12.14-3.99-24.37-7.88-35.94c-6.98-20.75-14.85-41.23-23.39-61.39c-3.17-7.48-9.03-13.9-14.17-20.4
		c-1.95-2.46-5.29-3.88-8.09-5.6c-2.54-1.56-5.47-2.57-7.77-4.4c-3.28-2.59-5.23-6.04-3.8-10.51c1.47-4.61,2.69-8.88,8.8-10.09
		c9.41-1.87,18.48-5.43,27.9-7.2c19.71-3.7,39.61-4.01,59.62-2.22c14.47,1.29,28.96,2.66,42.24,8.8
		c12.2,5.64,25.09,10.9,35.45,19.13c11.46,9.1,19.17,22.09,20.29,37.62c1.16,16.06,2.09,32.14,3.07,47.57
		c3.71-0.61,7.21-1.61,10.72-1.67c14.64-0.26,29.29-0.25,43.94-0.33c1.37,2.66,3.67,4.47,6.4,3.02c4.76-2.54,8.68-0.93,12.52,1.56
		c5.72,3.7,9.98,2.08,11.6-4.6c2.94,0.12,5.88,0.24,8.81,0.36l-0.09-0.05c8.02,1.67,16.04,3.39,24.08,5.01
		c18.4,3.71,36.87,7.13,55.18,11.21c4.85,1.08,9.46,3.8,13.85,6.35c7.61,4.43,15.15,9.04,22.37,14.08
		c11.58,8.08,23.41,15.97,34.06,25.18c4.72,4.08,6.51,11.39,10.18,16.87c4.51,6.72,4.28,12.93,0.36,19.86
		c-4.31,7.61-10.15,13.4-17.2,18.41c-3.21,2.28-5.98,5.63-7.98,9.06c-5.45,9.33-9.44,19.66-15.81,28.26
		c-5.76,7.76-6.36,16.23-6.77,24.69c-1.22,24.77-1.59,49.58-2.24,74.37c-0.04,1.64,0.52,3.29,0.62,4.95
		c0.39,6.1-0.74,11.29-4.83,16.58c-7.38,9.57-13.48,20.15-19.98,30.38c-0.74,1.17-1.31,3.09-0.88,4.25c1.95,5.21-0.27,9.35-3.6,12.6
		c-7.87,7.69-11.41,17.49-14.1,27.63c-2.31,8.73-7.74,12.71-16.43,13.15c-26.43,1.34-52.87,2.73-79.3,4.12
		c-2.63,0.14-5.25,0.42-7.87,0.62c-6.91,0.53-10.29-4.14-14.1-8.86c-6.57-8.16-13.79-15.79-20.59-23.77
		c-2.22-2.61-4.61-1.86-6.59-0.48c-7.76,5.4-15.4,10.97-22.95,16.67c-2.51,1.89-4.91,4.1-6.83,6.57
		c-8.39,10.84-20.3,13.56-32.97,15.21c-14.16,1.84-28.23,4.37-42.38,6.35c-5.58,0.78-11.26,1.07-16.9,1.28
		c-23.79,0.89-47.6,1.47-71.38,2.56c-12.12,0.56-24.21,1.94-36.31,3c-0.57,0.05-1.09,0.55-1.63,0.85c-10.67,0-21.33,0-32,0
		c-1.36-0.34-2.7-0.88-4.07-0.97c-10.45-0.7-20.95-0.85-31.33-2.09c-8.63-1.03-17.08-3.5-25.67-4.97
		c-9.65-1.65-19.49-2.33-29.04-4.4c-29.34-6.37-58.68-12.79-87.81-20.01c-15.11-3.75-30.6-8.17-35.04-26.55
		C5.17,1020.46,5.17,1019.47,5.17,1018.47z M231.15,889.91c-0.15,0.45-0.3,0.9-0.45,1.36c4.96,4.61,9.82,9.34,14.89,13.82
		c7.66,6.77,14.07,14.6,15.96,24.72c3.94,21.16,7.33,42.43,10.49,63.73c1.77,11.96,2.6,24.06,3.88,36.09
		c0.72,6.76,1.71,13.49,2.13,20.27c0.24,3.9-1.08,7.5-5.93,7.6c-4.69,0.1-5.54-3.4-5.95-7.1c-1.38-12.52-2.64-25.05-4.19-37.55
		c-2.51-20.22-5.25-40.42-7.85-60.63c-2.13-16.6-7.35-31.33-20.94-42.66c-7.09-5.91-15.07-11.73-18.44-21.2
		c-0.16-0.44-1.09-0.6-1.68-0.88c-9.49-4.42-19.03-8.76-28.47-13.29c-22.05-10.58-44.6-13.78-68.56-6.76
		c-18.14,5.32-33.75,14.6-48.05,26.59c-9.8,8.21-17.26,17.98-20.31,30.56c-0.51,2.09-0.02,5.23,1.29,6.84
		c12.32,15.04,24.03,30.73,37.66,44.5c17.41,17.59,36.19,33.85,54.83,50.17c17.71,15.51,37.8,26.88,60.64,33.54
		c7.72,2.25,16.67,1.96,22.86,8.6c0.43,0.46,1.6,0.32,2.42,0.29c10.58-0.4,21.17-0.56,31.73-1.31c19.21-1.37,38.37-3.54,57.59-4.57
		c17.61-0.95,35.28-0.82,52.92-1.21c1.65-0.04,3.29-0.37,4.93-0.62c14.11-2.14,28.19-4.47,42.32-6.39
		c10.72-1.46,20.83-3.55,28.02-12.92c3.09-4.03,7.25-7.37,11.31-10.52c9.17-7.12,17.91-15,29.27-18.7
		c7.43-2.42,14.9-4.73,22.34-7.15c5.92-1.92,11.78-3.46,17.75-0.05c0.88,0.5,2.26,0.3,3.39,0.21c18.84-1.59,37.66-3.54,56.52-4.72
		c13.94-0.87,27.95-0.7,41.92-1.15c1.4-0.05,3.37-0.78,4.06-1.85c8-12.44,15.82-25,23.62-37.56c0.58-0.93,0.92-2.14,0.98-3.24
		c0.39-6.8,0.74-13.61,0.97-20.43c0.72-21.28,0.96-42.58,2.24-63.82c0.6-9.97,0.98-20.39,6.91-29.22c1.52-2.26,4.05-3.86,5.43-6.18
		c3.22-5.43,6.54-10.91,8.88-16.74c4.2-10.45,10.61-18.67,20.65-23.97c1.3-0.69,2.43-1.75,3.55-2.74
		c8.46-7.37,7.58-18.12-1.91-23.91c-0.96-0.59-1.84-1.39-2.61-2.23c-8.89-9.77-18.02-19.25-29.68-25.87
		c-5.64-3.2-11.57-6.13-16.57-10.17c-10.4-8.41-22.41-11.66-35.29-13.2c-6.57-0.78-13.14-2.02-19.55-3.68
		c-24.1-6.27-48.49-9.66-73.45-9.29c-12.8,0.19-25.62-0.53-38.43-0.85c-1-0.02-2-0.06-2.99-0.21c-8.63-1.3-13.5,0.66-17.26,8.01
		c-4.99,9.75-10.1,19.51-14.07,29.69c-7.39,18.97-16.02,37.27-26.44,54.75c-3.56,5.97-7.12,11.94-10.97,18.39
		c2.07,0.87,3.6,1.41,5.04,2.12c10.55,5.2,22.1,4.04,33.28,5.15c4.05,0.4,6.99,1.99,7.29,6.04c0.31,4.16-2.02,6.75-6.43,7.39
		c-10.39,1.51-20.54,0.38-30.54-2.51c-5.38-1.56-10.69-3.38-16.21-5.13c-1.33,2.54-2.26,4.68-3.51,6.61
		c-1.71,2.65-1.1,4.15,1.43,6.1c10.59,8.17,16.64,19.22,19.11,32.25c0.7,3.69-0.79,6.43-4.6,7.76c-3.71,1.3-6.33-0.31-8-3.23
		c-1.46-2.55-2.13-5.55-3.21-8.33c-2.57-6.65-5.79-12.84-11.13-16.41c-3.99,5.29-6.75,10.99-11.24,14.46
		c-8.66,6.69-18.2,12.25-27.57,17.98c-2.47,1.51-5.62,1.91-8.18,2.73c1.42,5.7,3.22,12.21,4.61,18.81c0.96,4.56-2.4,9.22-6.77,10.15
		c-3.7,0.78-6.75-1.95-7.85-7.11c-0.38-1.78-0.68-3.59-0.88-5.4c-1.11-9.77-6.4-16.53-14.96-20.96c-2.66-1.38-13.47,3.33-13.9,6.14
		c-0.13,0.86,0.35,1.93,0.83,2.75c1.1,1.86,2.56,3.52,3.54,5.43c3.09,5.97,5.56,12.06,3.8,19.08c-1.02,4.08-3.06,6.68-7.51,6.42
		c-4.11-0.24-7.28-3.67-6.86-8.34c0.66-7.32-3.27-12.44-7.7-17.15c-1.73-1.84-4.97-3.11-7.52-3.11c-3.81,0-7.63,1.34-10.14,1.85
		c0.54,7.42,1.4,14.23,1.37,21.05c-0.02,3.76-3.01,5.99-6.89,5.66c-3.83-0.32-6.52-2.37-7.07-6.49c-0.35-2.63-0.5-5.3-0.99-7.9
		c-1.15-6.08-2.38-12.94-9.05-14.78C248.69,891.85,239.82,891.25,231.15,889.91z M320.06,652.33c-0.12,0.62-0.22,0.81-0.17,0.94
		c2,5.27,4.02,10.54,6.03,15.81c11.48,30.12,20.17,60.8,20.41,93.45c0.07,10.25,1.85,20.49,2.98,30.72c0.25,2.31,0.83,4.2,4.15,4.42
		c16.5,1.08,32.71,3.63,47.68,11.28c2.81,1.44,4.72,0.64,5.95-2.26c0.58-1.37,1.54-2.57,2.23-3.89
		c9.46-18.11,19.18-36.09,28.25-54.4c7-14.13,12.98-28.75,19.84-42.95c1.7-3.52,2.83-6.56,1.46-10.29
		c-2.31-6.3-5.26-12.47-6.61-18.97c-1.48-7.1-1.66-14.5-2.02-21.79c-0.91-18.62-8.93-32.58-26.01-40.84
		c-1.19-0.58-2.27-1.42-3.47-1.96c-9.84-4.37-19.36-9.88-29.62-12.78c-18.6-5.26-37.92-6.41-57.21-5.26
		c-12.56,0.75-25.11,2.31-37.57,4.12c-6.17,0.9-12.13,3.2-18.18,4.87c-0.09,0.63-0.19,1.26-0.28,1.9
		c17.12,3.71,24.53,17.57,32.76,30.4c4.35,6.79,3.94,6.67,12.09,6.16c20.81-1.32,41.54-1.09,61.79,4.86
		c18.17,5.34,31.31,16.08,38.1,34.31c6.22,16.7,9.96,33.73,9.45,51.58c-0.11,3.9,1.38,8.97-4.82,9.77c-4.08,0.53-6.05-2.29-6.02-9.5
		c0.07-15.87-3.95-30.86-9.03-45.68c-4.87-14.22-14.26-23.78-28.75-28.11C362.68,651.99,341.44,651,320.06,652.33z M386.77,835.51
		c3.7,1.34,5.95-1.04,7.35-4.99c0.44-1.24,1.1-2.43,1.79-3.56c1.82-2.99,1.87-5.17-2.17-6.24c-12.31-3.28-24.54-6.81-36.88-9.95
		c-3.58-0.91-5.52,1.78-5.31,5.75c0.21,3.85,0.21,7.76-0.18,11.59c-0.46,4.61,0.84,6.41,5.37,6.21c2.13-0.09,4.26-0.64,6.37-0.52
		C370.71,834.24,378.31,834.88,386.77,835.51z M337.14,873.52c4.32,3.9,8.03,7.25,10.84,9.79c6.5-5.49,12.52-10.84,18.84-15.8
		c3.78-2.97,8.36-4.95,11.96-8.08c2.75-2.39,4.54-5.89,6.76-8.89c-0.38-0.72-0.76-1.44-1.14-2.16c-10.45,0-20.9,0.11-31.35-0.07
		c-2.98-0.05-4.42,1.15-4.64,3.84C347.71,860.81,344.78,868.3,337.14,873.52z M499.07,1022.13c6.18,5.67,11.24,10.31,16.89,15.49
		c0.76-4.75,1.64-8.75,1.98-12.79c0.26-3.05-1.5-5.41-4.67-5.15C508.94,1020.03,504.66,1021.12,499.07,1022.13z"/>
	<path class="st1" d="M550.36,693.15c-1.62,6.69-5.88,8.3-11.6,4.6c-3.84-2.49-7.76-4.1-12.52-1.56c-2.73,1.46-5.03-0.35-6.4-3.02
		c0.12-1.99-0.35-4.28,0.46-5.93c2.97-5.96-0.17-9.02-4.74-11.91c-2.94-1.86-5.72-4.04-8.33-6.35c-2.57-2.27-3.86-5.25-1.7-8.43
		c2.11-3.09,5.2-2.63,8.02-1.1c4.66,2.52,9.19,5.28,13.95,8.03c3.45-5.79,6.91-11.6,10.56-17.73c-5.29-7.07-12.16-12.4-20.48-15.74
		c-3.39-1.36-6.46-2.86-5.19-7.05c1.25-4.12,5.07-4.68,8.63-4.08c8.31,1.4,15.04,6.01,21.21,11.47c1.48,1.31,2.62,3.02,3.93,4.57
		c7.9-6.52,15.28-12.62,23.68-19.56c-9.18-7-17.88-13.89-26.89-20.36c-2.73-1.96-4.85-3.67-3.81-7.15c1.11-3.71,4.35-3.95,7.37-3.39
		c2.55,0.48,5.28,1.3,7.35,2.79c9.14,6.59,18.07,13.47,27.72,20.73c5.45-3.13,12.01-6.89,18.76-10.77
		c-8.01-11.58-17.59-21.19-28.64-29.39c-1.59-1.18-3.81-2.39-4.27-4.01c-0.74-2.57-1.15-5.93-0.07-8.17
		c1.44-2.96,5.02-2.65,7.48-0.88c6.88,4.94,14,9.69,20.14,15.47c6.74,6.34,12.49,13.74,18.62,20.62
		c14.43-5.31,28.99-10.68,43.98-16.2c-1.04-1.14-1.94-2.23-2.95-3.2c-8.25-7.93-15.04-16.97-19.58-27.46
		c-1.71-3.94-2.19-8.5-2.62-12.84c-0.11-1.11,1.87-3.16,3.25-3.59c19.99-6.16,40.39-6.63,61.17-5.59
		c23.54,1.18,46.73,3.93,69.26,10.69c11.83,3.55,23.47,8.15,33.71,15.9c-9.97,9.11-19.58,17.9-30.13,27.54
		c12.1,9.09,23.06,17.32,34.33,25.79c-28.77,20.79-57.87,39.46-92.06,48.68c-7.97,2.15-15.63,5.47-23.4,8.32
		c-8.75,3.21-11.67,0.84-14.5-8.31c-6.08-19.7-6.07-39.53-2.89-60.58c-16.23,6.19-31.77,12.12-47.71,18.2
		c2.14,5.44,4.23,10.57,6.18,15.75c4.48,11.94,4.58,24.45,4.44,36.93c-0.05,4.77-3.5,7.8-7.57,7.55c-4.05-0.24-6.54-3.03-6.36-7.94
		c0.59-16.03-1.53-31.45-9.88-46.07c-5.31,3.47-10.66,6.81-15.78,10.46c-0.9,0.65-1.42,2.78-1.13,4c2.72,11.6,5.69,23.15,8.48,34.74
		c0.42,1.75,0.35,3.64,0.37,5.47c0.05,4.22-1.63,7.26-6.19,7.51c-4.49,0.24-6.36-2.46-7.07-6.7c-1.93-11.42-4.13-22.79-6.52-35.76
		c-3.48,3.26-5.78,5.25-7.88,7.43c-2.07,2.16-4,4.46-5.89,6.79c-7.99,9.85-7.83,14.32-1.16,25.38c1.66,2.75,1.26,7.38,0.44,10.83
		c-0.96,4.06-4.88,5.03-8.83,4.88c0,0,0.09,0.05,0.09,0.05c-6.03-3.78-5.5-10.76-7.78-17.31c-1.98,3.51-3.48,6.18-4.98,8.85
		c0.49-0.04,0.98-0.07,1.47-0.11C548.71,687.67,549.53,690.41,550.36,693.15z M700.5,567.34c-2.8,3.63-5.92,7.48-8.83,11.48
		c-3.18,4.38-2.84,8.47,0.66,10.93c3.5,2.46,7.22,1.32,10.53-3.14c3.15-4.24,6.36-8.43,10.16-13.45c3.01,2.86,5.56,5.32,8.15,7.73
		c3.69,3.43,9.3,3.48,12.06,0.14c2.93-3.54,1.92-7.48-2.58-10.87c-3.14-2.37-6.12-4.94-9.82-7.94c2.25-1.87,4.65-3.54,6.64-5.6
		c1.36-1.41,3.13-3.46,2.96-5.04c-0.18-1.69-2.41-4.44-3.77-4.46c-3.24-0.04-6.93,0.56-9.62,2.22c-2.8,1.73-4.64,5-7.06,7.78
		c-3.28-2.74-5.68-4.76-8.11-6.77c-2.87-2.37-6.07-4.18-9.28-1.02c-2.96,2.9-2.35,6.51-0.02,9.5
		C694.91,561.82,697.74,564.42,700.5,567.34z"/>
	<path class="st2" d="M371.53,412.6c4.97-15.97,9.32-32.17,15.09-47.84c5.79-15.72,12.7-31.07,19.72-46.3
		c5.22-11.33,4.27-21.55-2.01-32.15c-9.74-16.45-23.74-28.56-38.53-40.05c-15.37-11.95-31.47-23.09-43.88-38.41
		c-10.04-12.39-17.76-25.74-16.89-42.54c0.46-8.93,3.94-16.8,8.26-24.32c12.88-22.42,30.61-40.63,50.44-56.87
		c8.98-7.36,18.51-14.06,27.86-20.96c2.85-2.1,5.91-1.53,8.08,0.97c2.31,2.66,2.49,5.99-0.11,8.6c-2.45,2.46-5.3,4.54-8.13,6.58
		c-24.33,17.54-46.65,37.13-63.17,62.54c-4.99,7.68-9.82,15.61-10.07,25.14c-0.34,12.82,6.32,22.8,14.02,32.18
		c11.76,14.31,26.94,24.72,41.43,35.89c16.16,12.46,31.34,25.76,42.18,43.47c8.91,14.57,10.44,29.07,3.59,45.04
		c-9.35,21.81-18,43.94-26.36,66.15c-2.9,7.7-4.06,16.05-6.01,24.1c-0.12,0.48-0.17,0.99-0.29,1.47c-1.33,5.54-4.11,7.97-8.38,7.34
		c-4.13-0.61-5.94-3.79-5.46-9.61C372.46,412.89,372,412.75,371.53,412.6z"/>
	<path class="st3" d="M659.03,151.41c5.18,0.22,7.38,3.95,5.41,7.66c-1.13,2.13-3,3.95-4.78,5.65
		c-15.67,14.99-31.29,30.05-41.6,49.48c-3.1,5.84-5.78,12.03-7.69,18.34c-4.28,14.14-0.92,26.89,9.53,37.15
		c8.3,8.14,17.46,15.41,26.28,23.03c12.42,10.73,21.87,23.17,23.97,40.11c2.58,20.76-4.15,38.64-16.78,54.67
		c-3.91,4.96-8.13,9.7-12.46,14.31c-10.96,11.64-22.05,23.15-33.12,34.7c-5.28,5.51-11.24,5.18-12.89-0.94
		c-0.54-1.99,0.21-5.11,1.56-6.71c6.78-7.98,14.02-15.56,20.96-23.41c10.24-11.58,21.71-22.36,30.22-35.1
		c13.93-20.87,13.14-46.48-7.97-64.77c-7.93-6.87-16.18-13.38-23.9-20.48c-14.73-13.54-23.96-29.44-19.58-50.45
		c2.69-12.87,8.3-24.55,15.54-35.41c11.19-16.8,25.64-30.56,41.13-43.31C655.09,154.08,657.52,152.5,659.03,151.41z"/>
	<path class="st4" d="M257.19,286.52c6.82-16.49,25.54-18.31,35.58-10.2c5.07,4.1,7.78,9.4,8.36,15.79
		c0.92,10.03-1.59,19.39-5.41,28.57c-0.93,2.23-1.43,5.23-0.75,7.45c4.83,15.81-5.81,33.01-21.91,36.56
		c-17.21,3.79-38.55-13.6-30.45-35.96c1.12-3.1-0.44-3.95-2.29-5.55c-6.72-5.84-14.11-11.2-19.6-18.06
		c-5.58-6.99-4.75-14.79-0.33-20.29c5.47-6.78,14.11-9.6,22.4-6.37C247.79,280.41,252.25,283.7,257.19,286.52z M281.15,317.12
		c0.59-0.36,1.19-0.73,1.78-1.09c2.76-7.38,6.16-14.7,4.75-22.9c-1.1-6.43-5.46-8.98-11.57-7.43c-4.86,1.23-7.15,5.72-5.48,11.5
		c1.29,4.44,2.68,8.92,4.71,13.04C276.63,312.86,279.17,314.85,281.15,317.12z M260.64,311.03c-1.12-3.96-1.37-8.68-7.43-9.67
		c-1.66-0.27-2.94-2.54-4.52-3.73c-2.63-1.98-5.22-4.08-8.08-5.67c-3.04-1.69-7.03-2.51-8.73,1.04c-0.89,1.86,0.51,6,2.25,7.71
		c4.32,4.25,9.49,7.62,14.21,11.49C252.71,315.79,256.75,316.27,260.64,311.03z"/>
	<path class="st4" d="M592.84,25.97c6.81-1.86,13.18-4.78,19.7-5.14c12.59-0.71,20.91,10.25,19.96,23.83
		c-0.98,14.1-10.31,23.29-19.68,32.44c-3.05,2.98-6.06,6.15-8.43,9.67c-5.73,8.53-13.21,14.21-23.7,12.54
		c-11.06-1.76-18.44-9.29-22.02-19.55c-1.32-3.79-0.19-8.96,1.21-13.02c1.28-3.69,1.05-6.17-1.33-9.02
		c-5.99-7.17-9.58-15.41-11.11-24.68c-2.56-15.59,9.19-29.13,24.62-27.36c9.48,1.09,15.06,7.78,18.98,15.95
		C591.91,23.41,592.56,25.28,592.84,25.97z M582.07,48.68c-0.51-8.38-0.17-17.38-5.57-25.11c-2.2-3.16-5.28-6.18-9.6-4.6
		c-4.16,1.52-5.54,5.41-5.81,9.64c-0.54,8.57,3.55,15.25,8.26,21.18C573.68,49.42,577.54,49.08,582.07,48.68z M606.85,63.1
		c5.55-4.44,10.48-10.22,12.02-18.33c0.86-4.51-1.14-9.21-4.27-10.1c-9.16-2.63-20.78,8.68-18.51,18.03
		c0.15,0.6,0.43,1.28,0.87,1.68C600.13,57.23,603.35,60.03,606.85,63.1z"/>
	<path class="st5" d="M231.15,889.91c8.67,1.34,17.53,1.94,25.93,4.25c6.67,1.83,7.91,8.69,9.05,14.78c0.49,2.6,0.64,5.27,0.99,7.9
		c0.54,4.12,3.24,6.18,7.07,6.49c3.89,0.32,6.87-1.9,6.89-5.66c0.03-6.81-0.84-13.63-1.37-21.05c2.51-0.51,6.32-1.86,10.14-1.85
		c2.55,0,5.79,1.27,7.52,3.11c4.44,4.71,8.36,9.82,7.7,17.15c-0.42,4.67,2.76,8.1,6.86,8.34c4.45,0.26,6.49-2.34,7.51-6.42
		c1.75-7.02-0.71-13.11-3.8-19.08c-0.99-1.91-2.44-3.57-3.54-5.43c-0.48-0.81-0.96-1.89-0.83-2.75c0.43-2.81,11.24-7.52,13.9-6.14
		c8.56,4.43,13.85,11.2,14.96,20.96c0.21,1.81,0.5,3.62,0.88,5.4c1.1,5.17,4.15,7.9,7.85,7.11c4.38-0.93,7.73-5.59,6.77-10.15
		c-1.39-6.6-3.19-13.11-4.61-18.81c2.56-0.82,5.71-1.22,8.18-2.73c9.36-5.73,18.91-11.29,27.57-17.98
		c4.49-3.47,7.25-9.17,11.24-14.46c5.35,3.57,8.56,9.75,11.13,16.41c1.08,2.78,1.75,5.78,3.21,8.33c1.67,2.91,4.28,4.52,8,3.23
		c3.81-1.33,5.31-4.07,4.6-7.76c-2.47-13.03-8.52-24.07-19.11-32.25c-2.53-1.95-3.13-3.45-1.43-6.1c1.25-1.93,2.18-4.07,3.51-6.61
		c5.52,1.76,10.82,3.58,16.21,5.13c9.99,2.9,20.15,4.02,30.54,2.51c4.4-0.64,6.73-3.23,6.43-7.39c-0.3-4.05-3.24-5.64-7.29-6.04
		c-11.18-1.1-22.72,0.05-33.28-5.15c-1.44-0.71-2.97-1.25-5.04-2.12c3.85-6.45,7.41-12.42,10.97-18.39
		c10.42-17.47,19.06-35.77,26.44-54.75c3.96-10.18,9.07-19.94,14.07-29.69c3.77-7.35,8.63-9.31,17.26-8.01
		c0.98,0.15,1.99,0.18,2.99,0.21c12.81,0.32,25.63,1.04,38.43,0.85c24.96-0.37,49.35,3.03,73.45,9.29c6.4,1.67,12.97,2.9,19.55,3.68
		c12.88,1.54,24.89,4.79,35.29,13.2c5,4.04,10.93,6.97,16.57,10.17c11.67,6.62,20.79,16.1,29.68,25.87
		c0.77,0.84,1.64,1.64,2.61,2.23c9.49,5.79,10.38,16.54,1.91,23.91c-1.13,0.98-2.25,2.05-3.55,2.74
		c-10.04,5.29-16.45,13.51-20.65,23.97c-2.34,5.83-5.66,11.31-8.88,16.74c-1.37,2.32-3.91,3.92-5.43,6.18
		c-5.94,8.83-6.31,19.24-6.91,29.22c-1.28,21.24-1.52,42.54-2.24,63.82c-0.23,6.81-0.58,13.62-0.97,20.43
		c-0.06,1.1-0.4,2.31-0.98,3.24c-7.81,12.56-15.62,25.12-23.62,37.56c-0.69,1.07-2.66,1.81-4.06,1.85
		c-13.97,0.45-27.98,0.28-41.92,1.15c-18.86,1.18-37.68,3.13-56.52,4.72c-1.13,0.1-2.5,0.3-3.39-0.21
		c-5.97-3.41-11.83-1.87-17.75,0.05c-7.43,2.42-14.9,4.73-22.34,7.15c-11.36,3.7-20.1,11.57-29.27,18.7
		c-4.06,3.15-8.21,6.49-11.31,10.52c-7.19,9.37-17.3,11.46-28.02,12.92c-14.14,1.93-28.22,4.25-42.32,6.39
		c-1.64,0.25-3.28,0.58-4.93,0.62c-17.64,0.39-35.31,0.27-52.92,1.21c-19.22,1.03-38.38,3.19-57.59,4.57
		c-10.55,0.76-21.15,0.91-31.73,1.31c-0.82,0.03-2,0.17-2.42-0.29c-6.19-6.64-15.15-6.35-22.86-8.6
		c-22.84-6.66-42.93-18.03-60.64-33.54c-18.64-16.32-37.42-32.59-54.83-50.17c-13.63-13.77-25.34-29.46-37.66-44.5
		c-1.31-1.6-1.8-4.74-1.29-6.84c3.04-12.59,10.5-22.35,20.31-30.56c14.3-11.99,29.91-21.27,48.05-26.59
		c23.95-7.02,46.51-3.82,68.56,6.76c9.44,4.53,18.98,8.86,28.47,13.29c0.58,0.27,1.52,0.44,1.68,0.88
		c3.37,9.47,11.35,15.29,18.44,21.2c13.59,11.33,18.81,26.06,20.94,42.66c2.6,20.21,5.33,40.41,7.85,60.63
		c1.55,12.5,2.81,25.03,4.19,37.55c0.41,3.7,1.26,7.2,5.95,7.1c4.85-0.1,6.17-3.7,5.93-7.6c-0.42-6.77-1.41-13.51-2.13-20.27
		c-1.28-12.03-2.11-24.13-3.88-36.09c-3.15-21.29-6.55-42.57-10.49-63.73c-1.89-10.12-8.3-17.95-15.96-24.72
		c-5.07-4.48-9.93-9.21-14.89-13.82C230.85,890.82,231,890.36,231.15,889.91z M622.1,826.37c-4.02,0.83-7.1,1.77-7.97,5.79
		c-0.88,4.1,1.81,6.05,5.16,7.34c1.07,0.41,2.2,0.69,3.3,1.04c7.24,2.32,14.51,4.55,21.69,7.02c3.76,1.3,6.91,1.12,9.03-2.56
		c1.93-3.36,0.61-7.92-3.56-9.49C640.67,832.11,631.33,829.38,622.1,826.37z M483.12,885.86c-0.23-0.87-0.31-1.53-0.57-2.13
		c-1.61-3.74-6.2-4.96-9.51-1.22c-7.86,8.85-15.02,18.34-22.12,27.82c-0.77,1.03,0.09,4.59,1.29,5.47c1.47,1.07,4.63,1.42,6.12,0.53
		c2.6-1.57,4.66-4.19,6.62-6.63c5.58-6.93,11.01-13.98,16.46-21.01C482.1,887.8,482.59,886.76,483.12,885.86z M562.87,813.24
		c-0.1,0.44-0.21,0.88-0.31,1.32c-2.32,0-4.7-0.3-6.96,0.07c-4.29,0.7-6.18,5.55-3.3,8.74c1.33,1.48,3.53,2.44,5.51,3.01
		c7.27,2.08,14.55,4.17,21.95,5.63c2.36,0.47,5.83-0.25,7.5-1.81c2.56-2.38,1.83-5.87-0.58-8.46c-1.21-1.3-2.75-2.64-4.39-3.14
		C575.87,816.64,569.35,815,562.87,813.24z M510.42,851.62c1.25,1.44,2.25,3.67,3.72,4.03c1.7,0.42,4.22-0.27,5.67-1.4
		c6.89-5.34,13.63-10.89,20.17-16.65c1.23-1.08,2.12-3.65,1.72-5.15c-0.4-1.52-2.62-3.67-3.98-3.62c-3.53,0.13-7.83,0.29-10.34,2.29
		c-5.26,4.19-9.67,9.48-14.2,14.52C511.94,847.04,511.52,849.17,510.42,851.62z M388.96,929.19c1.42-1.13,4.2-2.32,4.23-3.58
		c0.06-2.67-0.45-6.57-2.23-7.85c-6.18-4.41-12.86-8.24-19.71-11.53c-1.84-0.89-5.94,0.07-7.29,1.65c-2.22,2.61-0.53,5.69,2.23,7.6
		c5.6,3.87,11.23,7.72,16.94,11.42C384.61,927.86,386.47,928.24,388.96,929.19z M415.86,922.95c-2.01,1.62-4.8,3.11-6.28,5.44
		c-0.61,0.96,1.18,4.92,2.63,5.44c5.57,2.02,11.39,3.75,17.24,4.4c1.95,0.22,5.04-2.78,6.14-5.03c0.52-1.06-2.02-4.81-3.91-5.61
		C427.01,925.61,421.9,924.64,415.86,922.95z"/>
	<path class="st5" d="M320.06,652.33c21.38-1.32,42.62-0.34,63.4,5.87c14.49,4.33,23.87,13.89,28.75,28.11
		c5.08,14.82,9.1,29.82,9.03,45.68c-0.03,7.21,1.95,10.03,6.02,9.5c6.2-0.8,4.71-5.87,4.82-9.77c0.5-17.85-3.23-34.88-9.45-51.58
		c-6.79-18.23-19.93-28.97-38.1-34.31c-20.25-5.95-40.99-6.19-61.79-4.86c-8.15,0.52-7.73,0.63-12.09-6.16
		c-8.22-12.82-15.63-26.68-32.76-30.4c0.09-0.63,0.19-1.26,0.28-1.9c6.06-1.67,12.02-3.97,18.18-4.87
		c12.46-1.82,25.01-3.37,37.57-4.12c19.29-1.16,38.6,0,57.21,5.26c10.26,2.9,19.78,8.41,29.62,12.78c1.21,0.54,2.28,1.38,3.47,1.96
		c17.08,8.27,25.1,22.23,26.01,40.84c0.36,7.29,0.54,14.69,2.02,21.79c1.35,6.5,4.31,12.68,6.61,18.97
		c1.37,3.73,0.24,6.77-1.46,10.29c-6.87,14.2-12.84,28.82-19.84,42.95c-9.07,18.3-18.8,36.28-28.25,54.4
		c-0.69,1.33-1.65,2.53-2.23,3.89c-1.24,2.9-3.14,3.7-5.95,2.26c-14.97-7.65-31.18-10.2-47.68-11.28c-3.32-0.22-3.89-2.11-4.15-4.42
		c-1.12-10.23-2.91-20.47-2.98-30.72c-0.23-32.65-8.93-63.32-20.41-93.45c-2.01-5.27-4.03-10.53-6.03-15.81
		C319.84,653.14,319.94,652.95,320.06,652.33z"/>
	<path class="st6" d="M386.77,835.51c-8.46-0.63-16.06-1.27-23.66-1.71c-2.11-0.12-4.24,0.42-6.37,0.52
		c-4.53,0.2-5.83-1.61-5.37-6.21c0.39-3.83,0.39-7.74,0.18-11.59c-0.22-3.97,1.73-6.66,5.31-5.75c12.34,3.14,24.58,6.67,36.88,9.95
		c4.04,1.08,3.99,3.25,2.17,6.24c-0.69,1.13-1.35,2.32-1.79,3.56C392.72,834.46,390.47,836.85,386.77,835.51z"/>
	<path class="st6" d="M337.14,873.52c7.64-5.22,10.57-12.72,11.27-21.37c0.22-2.69,1.66-3.89,4.64-3.84
		c10.45,0.18,20.9,0.07,31.35,0.07c0.38,0.72,0.76,1.44,1.14,2.16c-2.22,3.01-4,6.51-6.76,8.89c-3.61,3.13-8.19,5.11-11.96,8.08
		c-6.32,4.96-12.33,10.31-18.84,15.8C345.17,880.78,341.46,877.42,337.14,873.52z"/>
	<path class="st7" d="M499.07,1022.13c5.59-1.01,9.87-2.1,14.2-2.45c3.17-0.26,4.93,2.1,4.67,5.15c-0.35,4.04-1.22,8.03-1.98,12.79
		C510.31,1032.43,505.25,1027.79,499.07,1022.13z"/>
	<path class="st8" d="M550.36,693.15c-0.83-2.74-1.65-5.47-2.48-8.21c-0.49,0.04-0.98,0.07-1.47,0.11c1.5-2.67,3-5.33,4.98-8.85
		c2.28,6.55,1.75,13.53,7.78,17.31C556.23,693.38,553.29,693.26,550.36,693.15z"/>
	<path class="st8" d="M87.55,994.09c0.14,0.36,0.29,0.72,0.43,1.09c-0.42-0.07-0.84-0.15-1.26-0.22
		C86.99,994.66,87.27,994.37,87.55,994.09z"/>
	<path class="st9" d="M700.5,567.34c-2.76-2.93-5.59-5.52-7.92-8.51c-2.33-2.99-2.94-6.59,0.02-9.5c3.22-3.15,6.41-1.35,9.28,1.02
		c2.43,2,4.83,4.03,8.11,6.77c2.42-2.78,4.26-6.05,7.06-7.78c2.69-1.66,6.38-2.26,9.62-2.22c1.36,0.02,3.59,2.77,3.77,4.46
		c0.17,1.58-1.6,3.63-2.96,5.04c-1.99,2.06-4.39,3.74-6.64,5.6c3.69,3,6.68,5.58,9.82,7.94c4.5,3.4,5.5,7.33,2.58,10.87
		c-2.76,3.34-8.37,3.29-12.06-0.14c-2.59-2.41-5.14-4.87-8.15-7.73c-3.8,5.02-7.01,9.21-10.16,13.45c-3.31,4.46-7.04,5.6-10.53,3.14
		c-3.5-2.46-3.83-6.55-0.66-10.93C694.58,574.82,697.7,570.97,700.5,567.34z"/>
	<path class="st10" d="M281.15,317.12c-1.98-2.27-4.52-4.27-5.8-6.88c-2.03-4.12-3.42-8.6-4.71-13.04
		c-1.67-5.78,0.62-10.27,5.48-11.5c6.11-1.55,10.47,1.01,11.57,7.43c1.4,8.2-1.99,15.52-4.75,22.9
		C282.34,316.4,281.74,316.76,281.15,317.12z"/>
	<path class="st10" d="M260.64,311.03c-3.89,5.24-7.93,4.77-12.31,1.17c-4.72-3.86-9.89-7.24-14.21-11.49
		c-1.74-1.71-3.14-5.85-2.25-7.71c1.7-3.55,5.69-2.73,8.73-1.04c2.86,1.59,5.45,3.69,8.08,5.67c1.58,1.19,2.86,3.46,4.52,3.73
		C259.27,302.34,259.52,307.07,260.64,311.03z"/>
	<path class="st10" d="M582.07,48.68c-4.53,0.4-8.4,0.73-12.71,1.11c-4.71-5.94-8.8-12.61-8.26-21.18c0.27-4.23,1.65-8.12,5.81-9.64
		c4.31-1.58,7.4,1.45,9.6,4.6C581.9,31.3,581.57,40.3,582.07,48.68z"/>
	<path class="st10" d="M606.85,63.1c-3.5-3.07-6.72-5.87-9.88-8.72c-0.44-0.4-0.73-1.08-0.87-1.68
		c-2.28-9.35,9.34-20.66,18.51-18.03c3.13,0.9,5.13,5.6,4.27,10.1C617.32,52.88,612.4,58.66,606.85,63.1z"/>
	<path class="st0" d="M622.1,826.37c9.23,3.01,18.57,5.73,27.65,9.14c4.17,1.57,5.49,6.13,3.56,9.49c-2.12,3.68-5.27,3.86-9.03,2.56
		c-7.18-2.48-14.45-4.7-21.69-7.02c-1.1-0.35-2.23-0.63-3.3-1.04c-3.35-1.29-6.04-3.24-5.16-7.34
		C614.99,828.15,618.07,827.2,622.1,826.37z"/>
	<path class="st11" d="M483.12,885.86c-0.53,0.89-1.02,1.94-1.71,2.82c-5.45,7.03-10.88,14.08-16.46,21.01
		c-1.96,2.44-4.03,5.06-6.62,6.63c-1.48,0.9-4.65,0.55-6.12-0.53c-1.2-0.88-2.06-4.44-1.29-5.47c7.1-9.49,14.27-18.97,22.12-27.82
		c3.31-3.73,7.9-2.52,9.51,1.22C482.81,884.33,482.9,885,483.12,885.86z"/>
	<path class="st0" d="M562.87,813.24c6.48,1.76,13,3.4,19.42,5.36c1.64,0.5,3.18,1.84,4.39,3.14c2.41,2.59,3.14,6.08,0.58,8.46
		c-1.68,1.56-5.14,2.27-7.5,1.81c-7.4-1.46-14.69-3.56-21.95-5.63c-1.98-0.57-4.18-1.53-5.51-3.01c-2.88-3.19-0.99-8.04,3.3-8.74
		c2.26-0.37,4.64-0.07,6.96-0.07C562.66,814.12,562.77,813.68,562.87,813.24z"/>
	<path class="st11" d="M510.42,851.62c1.1-2.46,1.52-4.58,2.77-5.97c4.53-5.05,8.94-10.33,14.2-14.52c2.52-2,6.82-2.16,10.34-2.29
		c1.35-0.05,3.58,2.1,3.98,3.62c0.39,1.5-0.49,4.07-1.72,5.15c-6.55,5.76-13.29,11.3-20.17,16.65c-1.45,1.13-3.97,1.82-5.67,1.4
		C512.67,855.29,511.67,853.07,510.42,851.62z"/>
	<path class="st0" d="M388.96,929.19c-2.49-0.95-4.35-1.33-5.83-2.29c-5.72-3.7-11.34-7.54-16.94-11.42
		c-2.77-1.91-4.46-4.99-2.23-7.6c1.34-1.58,5.45-2.53,7.29-1.65c6.85,3.3,13.52,7.12,19.71,11.53c1.79,1.27,2.3,5.18,2.23,7.85
		C393.15,926.87,390.38,928.06,388.96,929.19z"/>
	<path class="st12" d="M415.86,922.95c6.04,1.69,11.14,2.66,15.83,4.64c1.89,0.8,4.42,4.55,3.91,5.61c-1.1,2.25-4.19,5.25-6.14,5.03
		c-5.86-0.65-11.67-2.38-17.24-4.4c-1.45-0.53-3.24-4.49-2.63-5.44C411.06,926.06,413.86,924.57,415.86,922.95z"/>
</g>
</svg>
