<?xml version="1.0" encoding="utf-8"?>
<!-- Generator: Adobe Illustrator 23.0.3, SVG Export Plug-In . SVG Version: 6.00 Build 0)  -->
<svg version="1.1" id="Ebene_1" xmlns="http://www.w3.org/2000/svg" xmlns:xlink="http://www.w3.org/1999/xlink" x="0px" y="0px"
	 viewBox="0 0 565.8 630.6" style="enable-background:new 0 0 565.8 630.6;" xml:space="preserve">
<style type="text/css">
	.st0{clip-path:url(#SVGID_2_);}
	.st1{fill:#585074;}
	.st2{fill:#585073;}
	.st3{fill:#0C0F40;}
	.st4{fill:#686083;}
	.st5{fill:#665E81;}
	.st6{fill:#453D60;}
	.st7{fill:#675F82;}
	.st8{fill:#2B3B62;}
	.st9{fill:#504566;}
	.st10{fill:#674D6B;}
	.st11{fill:#B16A6B;}
	.st12{fill:#AC6262;}
	.st13{fill:#02142F;}
	.st14{fill:#896362;}
	.st15{fill:#B97475;}
	.st16{fill:#8F6B6D;}
	.st17{fill:#524A6F;}
	.st18{fill:#1B1B48;}
	.st19{fill:#3D4C70;}
	.st20{fill:#765766;}
	.st21{fill:#A8686C;}
	.st22{fill:#354368;}
	.st23{fill:#7A5869;}
	.st24{fill:#5C5477;}
	.st25{fill:#6D516D;}
	.st26{clip-path:url(#SVGID_4_);fill:#8D726C;}
	.st27{clip-path:url(#SVGID_6_);fill:#504566;}
</style>
<g>
	<g>
		<defs>
			<path id="SVGID_1_" d="M6.2,429.4l-4.9-239l12.3-1.1l-3.4-51.2l164-11.5l49-31.1l93.5-46.7c22.6-17.4,45.2-34.8,67.8-52.2
				C372.2-30.7,578.7-14,634.4,117.8c89.1,210.8,47.2,583.2,27.6,539.5l-421.2,88.8L6.2,429.4z"/>
		</defs>
		<clipPath id="SVGID_2_">
			<use xlink:href="#SVGID_1_"  style="overflow:visible;"/>
		</clipPath>
		<g class="st0">
			<path class="st1" d="M565.4,159.6c0,7,0,14,0,21c-0.8,0.2-1.6,0.4-2.4,0.7c-13.1,5.8-25.9,12.3-39.3,17.1
				c-21.2,7.7-42.8,14.4-64.3,21.2c-40.9,13-81.4,27.3-123.6,36c-22.4,4.6-44.7,9.1-67.3,12.1c-13.9,1.8-27.8,3.9-41.6,6.7
				c-21.3,4.3-40.2,14.6-58.7,25.4c-1.4,0.8-1.9,3.1-2.8,4.8l0,0c-2.7-2.8-5.4-5.6-8.2-8.4c-3.6-3.6-7.3-7.1-10.9-10.6
				c-9-12.1-17-24.7-21.8-39.2c-2.6-8-2.3-15.7,0.8-23.2c2.5-6.1,5.5-12.1,8.4-18.1c12.4-24.9,27.4-48.1,45.2-69.5
				c8.2-9.8,17-19.1,24.5-29.4c10.6-14.5,22.6-27.6,34.7-40.8c4-4.4,8.3-8.5,12.5-12.7c2.9-2.9,5.8-5.9,8.7-8.8
				c3.7-3.5,7.4-7,11.1-10.4c1.3-0.1,3,0.2,3.8-0.5c11.7-9.9,25.4-16.7,38.9-23.5c1.1,0.5,2.5,1.8,3.2,1.5c4.2-1.9,8.3-3.9,12.2-6.3
				c6.6-4.1,13.3-6.4,21.1-4.1c7,2,14.1,3.5,21.1,5.1c7.5,1.7,15,3.3,22.5,4.9c-3.4,0-6.8,0-10.2,0c-0.3,0.5-0.6,1-0.9,1.5
				c0.8,0.3,1.5,0.8,2.3,1c2.6,0.4,5.3,0.5,7.8,1.2c1.4,0.4,3.3,1.5,3.6,2.7c0.3,1-1.2,2.7-2.1,3.9c-2.4,2.9-5.3,5.5-7.4,8.7
				c-6.7,10.3-13.2,20.7-19.6,31.2c-2.1,3.4-4.2,6.9-5.5,10.6c-6.2,17.1-13.2,34-16.1,52.1c-2.5,15.6-9.3,30.5-8.1,46.9
				c0.2,2.6-1.1,6.2-3,7.8c-3.8,3.3-8.3,6.2-13,8c-12.7,4.8-25.6,9-38.4,13.3c-22,7.4-44,14.8-66.1,22.1c-1.2,0.4-2.5,0.8-3.8,0.8
				c-2.8,0.1-5.7-0.6-8.4-0.1c-8.8,1.6-17.5,3.5-26.2,5.5c-7.5,1.8-15.1,3.7-22.4,6.2c-11.2,3.9-10.2,12.5-3.5,21
				c1.8,2.3,5,3.6,7.5,5.4c0.5-0.4,1-0.8,1.5-1.1c0-3.8,0.3-7.6-0.1-11.3c-0.5-5.9,3.1-9.1,7.5-11c4.2-1.8,8.9-2.3,13.5-3.2
				c12.2-2.5,24.5-4.4,36.5-7.5c9.6-2.5,18.8-6.5,28.3-9.4c16.6-5,33.6-9,50-14.8c12.9-4.5,25.2-10.8,37.5-16.6c4.3-2.1,8-5,8-11
				c-0.1-5.6,0.2-11.3,1.3-16.8c2.2-11.5,5.1-22.9,7.8-34.7c18.9-4.4,37.8-8.6,56.6-13.3c15.4-3.8,30.6-8.8,46.1-12.2
				c6.8-1.5,14.6-3.1,21.4,0.6c13.5,7.4,26.9,15.2,40.3,22.9c2.4,1.4,4.7,3,8.3,5.3c-5.4,1.4-9.2,2.5-13,3.5
				c-19.9,5-39.9,9.7-59.7,15.1c-18,4.9-36,10.4-53.8,16c-12.7,3.9-25.2,8.2-37.7,12.6c-1.4,0.5-2.3,2.5-3.4,3.8
				c1.6,0.2,3.4,0.9,4.8,0.4c7-2.2,13.8-4.9,20.8-6.9c14.8-4.3,29.7-8.1,44.5-12.4c17.2-5,34.2-10.7,51.5-15.4
				c14.2-3.8,28.9-5.9,43-10.1c8.4-2.5,14.7-1.8,19.8,5c0.1,1.9,0.7,3.6,1.6,5c0.8,1.2,2.1,2.2,3.3,3
				C552.6,150.5,559,155,565.4,159.6z M236.6,208.4c0.2,0.3,0.4,0.6,0.7,0.9c1.3-0.8,3.2-1.2,4-2.4c4.3-6.3,9.5-12.2,12.4-19.1
				c9.8-23.4,18.8-47.2,27.8-70.9c6.4-16.8,13-33.5,22.7-48.7c10.6-16.6,21.4-33.2,32-49.8c2.1-3.3,3.9-6.9,5.6-10.5
				c0.4-0.8-0.2-2-0.5-4.2c-3.8,5.5-6.8,9.9-9.6,14.3C319,37.3,305.9,56.3,294,76c-11.6,19.3-17.8,41.1-25.6,62.1
				c-6,16-12.3,31.9-19.1,47.6C245.8,193.6,240.9,200.8,236.6,208.4z M197.7,208.9c7.8-8.5,36.3-115.3,32.4-122.1
				C219.3,127.5,208.5,168.2,197.7,208.9z"/>
			<path class="st2" d="M565.4,187.6c0,25,0,50,0,75c-2.2,0.8-4.4,1.4-6.5,2.3c-14.9,5.9-29.6,12.6-44.9,17.6
				c-21.7,7-43.9,12.8-65.9,19.1c-12.4,3.6-24.6,8-37.2,11c-25.6,6-51.7,9.3-78,11c-18.5,1.2-37.2,1.3-55.7,2.2
				c-6,0.3-12.2,1.2-18,3c-10.9,3.3-21.5,7.7-32.4,11.2c-7.2,2.3-14.8,3.8-22.1,5.9c-1.2,0.3-1.9,2.2-2.8,3.4c1.3,0.4,2.8,1.4,3.9,1
				c14.3-4,28.6-8.1,42.9-12.3c7.1-2.1,14.2-5.6,21.4-6.1c19.5-1.4,39.1-1.5,58.7-2.3c6.6-0.3,13.3-0.5,19.8-1.3
				c10.8-1.3,21.6-2.8,32.3-4.7c14.3-2.6,28.7-5.1,42.7-8.8c18-4.7,35.6-10.6,53.4-15.9c20.6-6.2,41.4-11.8,61.9-18.5
				c9.1-3,17.6-7.8,26.3-11.8c0,22,0,44,0,66c-2.9-0.3-6-1.2-8.8-0.7c-14.5,2.3-29.1,4.6-43.5,7.5c-14.6,2.9-29.2,6.1-43.5,9.8
				c-20.2,5.3-40.2,11.2-60.3,17.1c-15.2,4.5-30.5,7.5-46.3,8.5c-8.1,0.5-16.1,1.8-24.1,2.6c-10.8,1.1-21.7,2.5-32.6,3.2
				c-10.6,0.7-21.3,0-31.8,1.3c-13.3,1.6-26.4,4.5-39.5,7c-1.2,0.2-2.1,1.4-3.2,2.2c0.2,0.4,0.3,0.8,0.5,1.2c2.7,0,5.5,0.5,8.1-0.1
				c16.6-3.4,33.2-5.9,50.3-5.6c10.9,0.2,21.9-0.2,32.8-1.2c13.2-1.1,26.3-3,39.3-4.8c12.3-1.7,24.7-2.8,36.7-5.7
				c27.8-6.7,54.6-17.5,83.1-22c13.8-2.2,27.4-6.3,41.2-8.8c13.8-2.5,27.4-6.9,41.7-5.5c0,14,0,28,0,42c-8.7,1.2-17.4,2.3-26,3.5
				c-14.3,2.1-28.1,6.4-42.6,7.7c-8.5,0.8-17.2,1.7-25.4,4.2c-15.5,4.6-30.8,10.4-46.1,15.7c-1.6,0.5-3,1.4-4.6,1.9
				c-8.1,2.3-16.2,4.8-24.5,6.5c-16.5,3.4-33,6.6-49.6,9.5c-9.4,1.6-19,2.8-28.5,3.6c-9.8,0.8-19.8,1.5-29.6,1.3
				c-6.2-0.1-12.4-2.5-18.6-2.6c-5.2-0.1-8.5-1.8-10.9-6.2c-4.1-7.5-10.7-11.5-18.7-14.4c-3.9-1.4-7.1-5.2-10-8.5
				c-3-3.3-5.4-7.2-8-10.8c-4.3-6.1-9-11.9-12.7-18.3c-4.5-7.7-8.1-16-12.3-23.8c-0.6-1.1-2.6-1.5-3.9-2.2c-3-5.3-6-10.7-9-16
				c-2.2-7-3.5-14.3-9.8-19.4c-3.4-2.8-6.2-6.4-9.2-9.6l0,0c4.1-1.6,8.5-2.9,12.3-5c17.1-9.1,34.3-17.8,53.6-20.9
				c24-3.8,48.2-6.3,72.1-10.3c19.7-3.3,39.5-7,58.7-12.5c39.2-11.2,78.1-23.6,117.1-35.8c24.7-7.7,49.3-16,72.6-27.6
				C556.2,190.3,560.9,189.2,565.4,187.6z"/>
			<path class="st3" d="M565.4,400.6c0,50.7,0,101.3,0,152c-0.8,0.6-1.5,1.6-2.3,1.7c-4.4,0.6-8.8,1-13.2,1.3
				c-4.9,0.3-9.7-0.7-14.8,0.7c-5.4,1.5-11.4-0.8-17.3,1c-4.7,1.4-10-0.6-15.3,1c-5.8,1.7-12.3,1.1-18.4,1.3c-2,0.1-3.9-0.5-5.9-0.6
				c-1.1-0.1-2.3,0-3.4,0.1c-8.6,0.8-17.2,1.7-25.8,2.6c-0.5,0-1,0-1.5,0c-3.7,0.2-7.4,0.4-11.1,0.6c-1.8,0.1-3.6,0.4-5.4,0.4
				c-7,0.2-14,0.1-20.9,0.4c-6.8,0.3-13.7,1-20.5,1.6c-2.5,0.2-4.9,0.8-7.3,0.9c-6.2,0.2-12.5-0.2-18.7,0.2
				c-14.5,0.8-29,2.1-43.6,2.8c-7.1,0.3-14.3-0.5-21.4-0.8c-3.3-0.2-6.6-0.4-9.9-0.8c-6-0.7-9.6,2-10.2,7.7
				c-0.6,0.8-1.7,1.6-1.8,2.5c-1.1,10.3-2,20.7-3.2,31c-0.3,2.5-0.5,6.1-2.2,7.2c-3,2.1-2.7,4.6-2.7,7.3c-0.9,0-1.8,0-2.8,0
				c-1.8,0-3.7-0.2-5.5-0.1c-5.1,0.3-8.3-1.5-8.9-7c-1.5-13.8-4.3-27.5-4.6-41.3c-0.9-39.6-0.9-79.2-1.2-118.7c-0.1-11,0-22,0-33
				c5.1,2,9.8,4.5,11.9,9.9c1.7,4.3,5.1,5.8,9.1,6.8c20.5,5.4,41.3,2.8,61.9,0.9c13.7-1.2,27.3-3.2,40.8-5.8
				c14.6-2.8,29.1-6.3,43.4-10.5c14.6-4.3,28.9-9.8,43.3-14.7c3.9-1.3,7.8-2.8,11.8-3.6c7.8-1.4,15.7-2.3,23.5-3.3
				c0.4,0,0.9,0,1.3-0.1c0.5,0,1.1,0,1.6,0c8.9-0.2,17.8-0.5,26.7-0.7C535.7,401.2,550.6,400.9,565.4,400.6z"/>
			<path class="st4" d="M565.4,159.6c-6.4-4.6-12.9-9.1-19.3-13.8c-1.2-0.9-2.4-1.8-3.3-3c-1-1.4-1.5-3.1-1.6-5
				c-5.1-6.8-11.4-7.5-19.8-5c-14.1,4.2-28.8,6.3-43,10.1c-17.3,4.7-34.3,10.4-51.5,15.4c-14.8,4.3-29.7,8.1-44.5,12.4
				c-7,2-13.8,4.8-20.8,6.9c-1.4,0.4-3.2-0.3-4.8-0.4c1.1-1.3,2-3.3,3.4-3.8c12.5-4.4,25-8.7,37.7-12.6c17.9-5.5,35.8-11.1,53.8-16
				c19.8-5.4,39.8-10.1,59.7-15.1c3.8-1,7.6-2,13-3.5c-3.6-2.3-5.9-3.9-8.3-5.3c-13.4-7.7-26.7-15.5-40.3-22.9
				c-6.8-3.7-14.5-2.1-21.4-0.6c-15.5,3.4-30.7,8.4-46.1,12.2c-18.8,4.7-37.7,8.9-56.6,13.3c-2.7,11.8-5.5,23.2-7.8,34.7
				c-1.1,5.5-1.4,11.2-1.3,16.8c0.1,5.9-3.6,8.9-8,11c-12.4,5.9-24.7,12.1-37.5,16.6c-16.4,5.7-33.4,9.7-50,14.8
				c-9.5,2.9-18.7,7-28.3,9.4c-12,3.1-24.4,5-36.5,7.5c-4.5,0.9-9.3,1.4-13.5,3.2c-4.4,1.9-8.1,5.1-7.5,11c0.3,3.7,0.1,7.5,0.1,11.3
				c-0.5,0.4-1,0.8-1.5,1.1c-2.5-1.8-5.7-3-7.5-5.4c-6.7-8.5-7.7-17.2,3.5-21c7.3-2.5,14.9-4.4,22.4-6.2c8.7-2.1,17.4-3.9,26.2-5.5
				c2.7-0.5,5.6,0.1,8.4,0.1c1.3,0,2.5-0.4,3.8-0.8c22-7.4,44.1-14.7,66.1-22.1c12.8-4.3,25.8-8.5,38.4-13.3c4.7-1.8,9.2-4.7,13-8
				c1.9-1.6,3.2-5.2,3-7.8c-1.1-16.3,5.6-31.2,8.1-46.9c3-18.2,10-35,16.1-52.1c1.3-3.7,3.5-7.2,5.5-10.6
				c6.4-10.5,12.9-20.9,19.6-31.2c2-3.1,5-5.7,7.4-8.7c1-1.2,2.4-2.8,2.1-3.9c-0.3-1.2-2.2-2.3-3.6-2.7c-2.5-0.7-5.2-0.8-7.8-1.2
				c-0.8-0.1-1.5-0.6-2.3-1c0.3-0.5,0.6-1,0.9-1.5c3.4,0,6.8,0,10.2,0c6.2,0.9,10.2,4.5,13,9.8c-3.3,3-6.7,5.8-9.8,9
				c-3.3,3.3-3,6,0.7,9.6c8.4,8.1,18.5,13.2,28.1,19.5c27.1,17.7,57.6,29.7,83.4,49.7c8.9,6.9,20.4,10.5,30,16.6
				c9.3,5.9,17.8,13.2,26.6,19.9C565.4,149.6,565.4,154.6,565.4,159.6z M418.5,68c-2.7-0.4-4.8-1.2-6.7-0.9
				c-6.5,1.2-13,2.7-19.3,4.4c-7.4,2-14.8,4.5-22.2,6.8c-0.4-0.3-0.8-0.6-1.2-0.9c1.3-1.6,2.2-4.1,3.9-4.8c7.5-2.9,15.3-5.4,23-7.9
				c3-1,6.1-1.4,9.2-2.1c2.8-0.7,5.7-1.4,7.4-1.8c-6.5-6-13.2-11.9-19.4-18.3c-2.9-3-4.5-3.2-6.7,0.4c-4.3,6.9-8.7,13.7-13.2,20.5
				c-9,13.5-12.3,29.3-17.7,44.1c-1.2,3.4-1.5,7.1-2.1,10.6c35.7-9.6,70.5-19,105.3-28.4c-0.3-0.3-0.7-0.9-1.2-1.3
				c-9.4-6.8-18.9-13.4-28.2-20.3C425.1,65,421.5,63.6,418.5,68z"/>
			<path class="st5" d="M494.2,402.3c-0.5,0-1.1,0-1.6,0c-0.4,0-0.9,0-1.3,0.1c-7.8,1.1-15.7,2-23.5,3.3c-4,0.7-7.9,2.2-11.8,3.6
				c-14.5,4.9-28.7,10.4-43.3,14.7c-14.3,4.2-28.8,7.6-43.4,10.5c-13.5,2.6-27.2,4.6-40.8,5.8c-20.6,1.9-41.3,4.5-61.9-0.9
				c-4-1-7.5-2.5-9.1-6.8c-2.1-5.4-6.8-7.9-11.9-9.9c-1.7-0.7-3.3-1.3-5-2c-17.3-11.2-27-28.4-36-46.1c-1.7-3.7-3.3-7.3-5-11
				c-0.3-0.7-0.7-1.3-1-2c-0.3-0.7-0.7-1.3-1-2c-0.3-0.3-0.6-0.7-0.9-1c-1-3-2-6-3-9c1.3,0.7,3.3,1.1,3.9,2.2
				c4.2,7.9,7.8,16.1,12.3,23.8c3.7,6.4,8.4,12.3,12.7,18.3c2.6,3.7,5,7.5,8,10.8c3,3.2,6.2,7,10,8.5c7.9,3,14.5,6.9,18.7,14.4
				c2.4,4.3,5.7,6.1,10.9,6.2c6.2,0.1,12.4,2.5,18.6,2.6c9.9,0.1,19.8-0.5,29.6-1.3c9.5-0.8,19.1-2,28.5-3.6
				c16.6-2.9,33.1-6,49.6-9.5c8.3-1.7,16.3-4.3,24.5-6.5c1.6-0.4,3-1.3,4.6-1.9c15.3-5.3,30.5-11,46.1-15.7
				c8.2-2.4,16.9-3.4,25.4-4.2c14.4-1.3,28.3-5.6,42.6-7.7c8.7-1.3,17.3-2.4,26-3.5c0,2.3,0,4.7,0,7c-5.7,0.7-11.5,1.1-17.2,2
				c-17.6,3-35.2,6.1-52.7,9.2C495,401,494.6,401.8,494.2,402.3z"/>
			<path class="st6" d="M278.4,574.5c0.6-5.8,4.2-8.4,10.2-7.7c3.3,0.4,6.6,0.6,9.9,0.8c7.1,0.4,14.3,1.1,21.4,0.8
				c14.5-0.6,29-2,43.6-2.8c6.2-0.3,12.5,0,18.7-0.2c2.5-0.1,4.9-0.7,7.3-0.9c6.8-0.6,13.7-1.3,20.5-1.6c7-0.3,14-0.3,20.9-0.4
				c1.8,0,3.6-0.3,5.4-0.4c3.7-0.2,7.4-0.4,11.1-0.6c0.5,0,1,0.1,1.5,0c8.6-0.9,17.2-1.7,25.8-2.6c1.1-0.1,2.3-0.2,3.4-0.1
				c2,0.2,3.9,0.7,5.9,0.6c6.2-0.2,12.7,0.4,18.4-1.3c5.4-1.6,10.6,0.5,15.3-1c6-1.8,11.9,0.5,17.3-1c5.2-1.5,9.9-0.5,14.8-0.7
				c4.4-0.2,8.8-0.7,13.2-1.3c0.8-0.1,1.5-1.1,2.3-1.7c0,3,0,6,0,9c-15.3,0.8-30.6,1.4-45.9,2.3c-20.9,1.2-41.9,2.5-62.8,3.7
				c-25.6,1.5-51.2,3.1-76.7,4.6c-19.6,1.2-39.2,2.3-58.8,3.4c-3.5,0.2-7,0.5-10.5,0.7c-3.5,0.1-7.5,1.7-9.6-3
				c-0.1-0.2-0.5-0.4-0.8-0.4c-5.9,0-11.8,0-17.9,0c0,8.8,0.6,17.7-0.2,26.4c-0.6,7.2-2.2,14.5-4.4,21.3c-1.9,6-7.1,8.9-13.5,8.8
				c-0.7-1.2-1.4-2.4-1.9-3.3c1.3-1.4,2.3-2.4,3.2-3.4c0.9,0,1.8,0,2.8,0c5.3-1.3,6.3-6,6.8-10C276.7,600,277.4,587.2,278.4,574.5z"
				/>
			<path class="st7" d="M565.4,187.6c-4.5,1.6-9.2,2.7-13.4,4.8c-23.3,11.6-47.9,19.9-72.6,27.6c-39,12.2-77.9,24.6-117.1,35.8
				c-19.2,5.5-39,9.2-58.7,12.5c-23.9,4-48.2,6.5-72.1,10.3c-19.3,3.1-36.5,11.8-53.6,20.9c-3.9,2.1-8.2,3.3-12.3,5
				c0.9-1.6,1.4-4,2.8-4.8c18.5-10.8,37.4-21.2,58.7-25.4c13.8-2.8,27.7-4.9,41.6-6.7c22.7-3,45-7.5,67.3-12.1
				c42.2-8.7,82.7-22.9,123.6-36c21.5-6.9,43.1-13.5,64.3-21.2c13.4-4.9,26.2-11.4,39.3-17.1c0.8-0.3,1.6-0.5,2.4-0.7
				C565.4,182.9,565.4,185.3,565.4,187.6z"/>
			<path class="st7" d="M565.4,268.6c-8.8,4-17.3,8.8-26.3,11.8c-20.5,6.7-41.3,12.3-61.9,18.5c-17.8,5.3-35.4,11.2-53.4,15.9
				c-14,3.7-28.4,6.2-42.7,8.8c-10.7,2-21.5,3.4-32.3,4.7c-6.6,0.8-13.2,1-19.8,1.3c-19.6,0.7-39.2,0.9-58.7,2.3
				c-7.2,0.5-14.3,4-21.4,6.1c-14.3,4.2-28.6,8.3-42.9,12.3c-1.1,0.3-2.6-0.7-3.9-1c0.9-1.2,1.6-3.1,2.8-3.4
				c7.3-2.1,14.8-3.6,22.1-5.9c10.9-3.5,21.5-7.9,32.4-11.2c5.8-1.8,12-2.7,18-3c18.6-1,37.2-1,55.7-2.2c26.3-1.7,52.3-5,78-11
				c12.6-2.9,24.8-7.4,37.2-11c22-6.4,44.1-12.1,65.9-19.1c15.3-5,29.9-11.7,44.9-17.6c2.1-0.8,4.3-1.5,6.5-2.3
				C565.4,264.6,565.4,266.6,565.4,268.6z"/>
			<path class="st7" d="M565.4,340.6c-14.3-1.3-27.9,3.1-41.7,5.5c-13.8,2.5-27.3,6.6-41.2,8.8c-28.5,4.5-55.2,15.3-83.1,22
				c-12,2.9-24.4,4-36.7,5.7c-13.1,1.8-26.2,3.6-39.3,4.8c-10.9,0.9-21.9,1.4-32.8,1.2c-17-0.3-33.7,2.2-50.3,5.6
				c-2.6,0.5-5.4,0.1-8.1,0.1c-0.2-0.4-0.3-0.8-0.5-1.2c1.1-0.8,2-2,3.2-2.2c13.1-2.5,26.2-5.4,39.5-7c10.5-1.3,21.2-0.5,31.8-1.3
				c10.9-0.7,21.7-2.1,32.6-3.2c8-0.8,16.1-2.1,24.1-2.6c15.8-1,31.1-4,46.3-8.5c20-5.9,40.1-11.7,60.3-17.1
				c14.4-3.8,29-6.9,43.5-9.8c14.4-2.9,28.9-5.2,43.5-7.5c2.8-0.4,5.9,0.5,8.8,0.7C565.4,336.6,565.4,338.6,565.4,340.6z"/>
			<path class="st8" d="M494.2,402.3c0.4-0.5,0.8-1.3,1.3-1.4c17.6-3.1,35.1-6.3,52.7-9.2c5.7-1,11.5-1.4,17.2-2c0,3.7,0,7.3,0,11
				c-14.8,0.3-29.7,0.7-44.6,1C512,401.8,503.1,402,494.2,402.3z"/>
			<path class="st8" d="M193.5,349.6c1,3,2,6,3,9l-0.1,0.1c-2.7-2.9-5.3-5.9-8.2-8.6c-11.2-10.7-22.5-21.2-33.7-31.8
				c-6.6-6.3-12.8-12.9-19.4-19.2c-9.3-8.8-18.7-17.5-28-26.2c-6.8-6.4-13.4-13-20.3-19.1c-23.5-20.7-47.1-41.4-70.8-61.9
				c-4.4-3.8-9.6-6.7-14.4-10c-1.6-1.1-3.4-2-4.8-3.3c-11.3-10.8-22.4-21.9-33.7-32.6c-25.8-24.5-51.5-49.1-77.5-73.4
				c-7.2-6.8-15.4-12.5-23.1-18.8c-8.1-6.6-16.3-13-24.2-19.9c-4.8-4.1-9.1-8.7-13.7-13.1c-0.7-1.2-1.3-2.7-2.3-3.7
				c-5-5.1-9.9-10.2-15.1-15c-11.1-10.2-22.4-20.2-33.5-30.3c0.3-3.6,0.2-7.3,0.9-10.8c0.8-4.1,2.1-8.2,3.6-12.1
				c1-2.6,3.2-3.7,6-2.1c6.8,3.8,13.7,7.3,20.2,11.4c7.2,4.6,14,9.8,21,14.7c1.2,1.6,2.1,3.4,3.5,4.6c5.1,4.2,10.5,8.1,15.6,12.3
				c9.6,7.7,19.5,15,28.5,23.3c11.8,10.9,22.8,22.8,34.4,33.9c3.9,3.7,8.8,6.5,13.5,9.3c1.1,0.7,3.1-0.2,4.7-0.3
				c-0.7-1.4-1-3.3-2.1-4.1c-3.5-2.8-7.7-4.7-11-7.7c-10.9-10.2-21.2-21.1-32.3-31C-132,2.2-144.8-8-157.6-18.3
				c-4.6-3.7-9.6-6.8-14.5-10.2c-1-1.1-1.9-2.2-3-3.1c-6.2-5.2-12.4-10.4-18.7-15.6c7.8,1,15.5,2.4,23.3,2.8
				c13.2,0.7,26.5,0.7,39.7,1.1c5.1,0.1,6-1.2,4.2-6.3c1.3-0.7,3.1-1.1,3.7-2.2c2.6-5,4.4-1.9,6.5,0.4c1.9,2.1,4,4.1,6,6.1
				c0.3,0.4,0.6,0.7,1,1.1c0.7,1,1.4,1.9,2.1,2.9c2,2.4,4,4.8,5.9,7.2c2,3,3.9,6.1,6.1,8.9c7.1,8.8,14.2,17.5,21.6,26
				c3.4,4,7.6,7.4,11.1,11.3c2.9,3.2,5.8,4.8,10,2.4c1-0.6,2.8-0.1,4.2,0.3c5,1.5,10.1,4.4,14.1-1.9c0.4-0.7,1.8-0.9,2.7-1
				c11.3-1.4,22.6-3.3,33.9-3.9c15.1-0.9,30.3-0.2,45.3-1.3c13.8-1,27.6-3.1,41.2-5.6c15.5-2.8,29.3-10.3,43.7-16.2
				c14.1-5.9,26.1-14.9,39.6-21.4c1-0.5,1.6-1.8,2.5-2.7c-6.7-5.7-12.9-11-19.9-16.9c0-0.2-0.1-1.7-0.2-3.2c0.3-0.5,0.6-1,1-1.5
				c2.5,1.2,4.9,3.5,7.4,3.5c10.9,0.1,21.9-0.2,32.8-0.9c6.7-0.4,13.3-1.8,20-2.7c0.7,0,1.4,0,2,0.1c4,0.3,8,0.6,12,0.8
				c6.9,3.3,14.6,5.4,20.5,9.9c13.6,10.5,26.3,22.1,39.5,33.1c2.7,2.3,5.5,5.7,10,3.7c5.2,4.1,10.7,8,15.6,12.5
				c1.6,1.4,1.9,4.2,2.8,6.4c-1.5,1.4-3.1,2.8-4.6,4.2c-13.6,6.9-27.2,13.6-38.9,23.5c-0.8,0.7-2.5,0.4-3.8,0.5
				c-2.1,0.9-4.4,1.5-6.1,2.9c-8.4,6.8-16.6,13.8-24.9,20.7c-7.5,6.3-15.8,11.9-22,19.3c-16.6,19.9-36.4,36.8-52,57.8
				c-12,16.1-24.3,31.9-34.8,49c-5.3,8.7-9.5,18.2-14.1,27.4c-6.5-5.4-12.7-11.3-19.5-16.2c-27.5-19.9-53.2-41.7-77.6-65.3
				c-3.3-3.2-7-6.2-10.7-8.9c-7.3-5.5-15.1-10.3-22.1-16.1c-17.2-14.1-34-28.6-51.1-42.7c-2-1.6-4.8-2.2-7.2-3.3
				c-0.3,0.5-0.6,1.1-1,1.6c0.6,0.9,1,1.9,1.8,2.6c4.2,3.8,8.4,7.5,12.7,11.1c14.6,12.3,28.4,25.6,44,36.4
				c19.9,13.7,36.4,30.9,54.6,46.3c13.3,11.2,26.6,22.5,40.1,33.4c8.7,7.1,17.8,13.7,26.7,20.5c-0.6,0.3-1.2,0.7-1.7,1
				c0.2,1.2-0.1,3,0.6,3.5c1.9,1.3,4.1,2,6.2,3c-1.5,3.5-3.3,6.9-4.5,10.5c-0.8,2.4-1.6,5.6-0.7,7.6c4,8.3,8.1,16.8,13.4,24.3
				c8,11.3,17.1,21.8,25.8,32.6c3.1,4,5.9,8.3,9.4,12c9.4,9.8,19,19.4,28.6,29C187.5,338.9,190.5,344.3,193.5,349.6z"/>
			<path class="st9" d="M-175.4,20.6c4.5,4.4,8.9,9,13.7,13.1c7.9,6.8,16.1,13.3,24.2,19.9c7.7,6.3,15.9,12,23.1,18.8
				c26,24.3,51.7,48.8,77.5,73.4c11.3,10.8,22.4,21.8,33.7,32.6c1.4,1.3,3.2,2.2,4.8,3.3c1,1.5,1.7,3.2,3,4.4
				c6.8,6.3,13.7,12.5,20.7,18.7c20.5,18.2,41,36.3,61.4,54.5c7.1,6.4,13.9,13.3,20.9,19.8c6,5.5,12.3,10.7,18.1,16.3
				c9.5,9.2,18.8,18.7,28.2,28.1c12.8,12.7,25.5,25.5,38.2,38.2c2.2,2.2,4.3,4.6,6.4,6.9c2,2,4,4,6,6c9,17.7,18.7,34.9,36,46.1
				c-0.3,9.3-1,18.6-1,27.8c0.2,41.4,0.6,82.7,1,124.1c0,5,0.7,9.9,0.8,14.9c0,3-0.5,6.1-0.8,9.1c-0.5-2.9-0.9-5.8-1.5-8.6
				c-1.7-8.2-3.2-16.3-5.2-24.4c-0.6-2.4-2.2-4.8-4-6.5c-58.1-57.8-116.3-115.4-174.5-173.2C-8.8,320.2-73,256.4-137.3,192.8
				c-3.4-3.4-8.4-5.1-11.9-8.5c-6.6-6.3-12.5-13.3-18.8-20c-9.3-10-19-19.6-27.9-29.9c-6-6.9-10.7-14.8-16.6-21.8
				c-6.3-7.4-13.3-14.3-20.5-21.9c-1.4,7.5-2.1,13.9-3.8,20c-2,7.2-6.4,9.1-13.8,7c-2.8-20.7,0.2-41.5-1-62.2c0.6-26,1.2-52,1.8-78
				c0.1-5.7,0.3-11.3,0.4-17c2.6,2,5.2,4,7.7,6.1c17.9,14.9,35.7,29.8,53.7,44.6C-184,14.7-179.6,17.6-175.4,20.6z"/>
			<path class="st10" d="M241.5-156.5c1.2,5.9,3.3,11.7,3.5,17.7c0.7,25.2,0.8,50.3,1.2,75.5c-3.3-1.7-6.7-3.4-10-5.2
				c0.4-9.2-2.5-11.2-11-12.1c-15.1-1.5-30,1.2-45.3-0.3c-16.9-1.6-34.2,0.8-51.3,1.5c-4-3-8.1-6-12.1-9c0-0.4,0-0.7,0-1.1
				c22.3-0.6,44.6-1.2,67-1.8c1.5,0.6,3,1.8,4.4,1.8c12-0.2,24.1-0.6,36.2-0.9c3-0.1,6.1,0,9.1,0c0.2-0.3,0.4-0.6,0.6-1
				c-1.7-0.9-3.5-1.9-5.2-2.9c1.9-0.4,3.8-0.8,5.9-1.2c0.4-6.2,0.7-12.1,1-17.3c-160.3,5.4-320.1,10.9-479.9,16.3
				c0-14.7,0-29.3,0-44c6.9-4.3,14.8-3.4,22.3-3.9c11.1-0.7,22.3-0.1,33.4-0.2c6.1,0,12.2,0.2,18.3-0.2c13.5-1.1,27-2.8,40.5-3.6
				c10.1-0.6,20.3,0.1,30.5-0.2c4.4-0.1,8.7-1.2,13.1-1.9c6.8,0,13.6,0.3,20.3-0.1c14.9-0.8,29.8-2,44.6-2.9
				c4.9-0.3,9.9,0.1,14.8-0.2c5.3-0.3,10.5-1.5,15.8-1.7c20.2-0.8,40.5-1.5,60.7-2.1c16.4-0.5,32.9-0.8,49.3-1
				c30.8-0.4,61.5-0.7,92.3-1.1c3.5,0,7-1,10.4-0.7c4.5,0.4,9.2,1.2,13.4,2.8c1.8,0.7,2.8,3.7,4.2,5.7c0.6-0.4,1.1-0.8,1.7-1.2
				C241.2-154,241.4-155.3,241.5-156.5z"/>
			<path class="st11" d="M241.5-156.5c-0.2,1.2-0.3,2.5-0.5,3.7c-0.6,0.4-1.1,0.8-1.7,1.2c-1.4-2-2.3-5-4.2-5.7
				c-4.2-1.6-8.9-2.4-13.4-2.8c-3.4-0.3-6.9,0.7-10.4,0.7c-30.8,0.4-61.5,0.6-92.3,1.1c-16.5,0.2-32.9,0.5-49.3,1
				c-20.2,0.6-40.5,1.2-60.7,2.1c-5.3,0.2-10.5,1.4-15.8,1.7c-4.9,0.3-9.9-0.1-14.8,0.2c-14.9,0.9-29.7,2.1-44.6,2.9
				c-6.8,0.4-13.5,0.1-20.3,0.1c-7.8-0.7-15.7-2.1-23.5-1.8c-12.9,0.4-25.7,2-38.6,2.7c-5,0.3-10-0.8-15-0.6
				c-4.3,0.1-8.5,1.2-12.8,1.6c-1.6,0.2-4.1,0.1-4.6-0.8c-2.2-3.6-5.3-1.9-8-1.8c-4.1,0.1-8.3,0.4-12.4,0.5
				c-3.9,0.1-7.8-0.1-11.7,0.2c-2.7,0.2-5.4,1.1-8.1,1.2c-10.4,0.5-20.9,0.5-30,6.8c-0.8,0.5-2.2,0-3.4,0c-0.1-1.1-0.2-2.2-0.3-3.2
				l0.1,0.1c0.4-0.4,0.8-0.7,1.1-1.1c3.7-4.6,8.7-7.4,14.5-7.7c17.6-1,35.2-1.7,52.8-2.1c25-0.5,49.9-0.6,74.8-1
				c12.8-0.2,25.6-0.5,38.4-1c12.9-0.5,25.8-1.5,38.7-1.8c21.7-0.6,43.6,0.3,65.2-1.6c16.3-1.4,32.3,0.3,48.5-0.6
				c10.3-0.6,20.5-2.2,30.8-2.5c19.5-0.5,38.9-0.5,58.4-0.5c18.3,0,36.6,0.1,54.9,0.3c6.5,0.1,12.6,1.3,16.9,6.8
				c0.4,0.7,0.8,1.3,1.1,2C241.6-156.4,241.5-156.5,241.5-156.5z"/>
			<path class="st12" d="M-254.5-142.4c1.1,0,2.6,0.5,3.4,0c9.1-6.3,19.6-6.3,30-6.8c2.7-0.1,5.4-1.1,8.1-1.2
				c3.9-0.2,7.8,0,11.7-0.1c4.1-0.1,8.3-0.4,12.4-0.5c2.8-0.1,5.8-1.8,8,1.8c0.5,0.9,3.1,0.9,4.6,0.8c4.3-0.4,8.5-1.5,12.8-1.7
				c5-0.1,10,0.9,15,0.6c12.9-0.7,25.7-2.4,38.6-2.7c7.8-0.2,15.7,1.2,23.5,1.8c-4.4,0.7-8.7,1.8-13.1,1.9
				c-10.1,0.3-20.3-0.4-30.5,0.2c-13.5,0.8-27,2.6-40.5,3.6c-6,0.5-12.2,0.2-18.3,0.2c-11.1,0-22.3-0.6-33.4,0.2
				c-7.5,0.5-15.4-0.5-22.3,3.9c-5.6,3.4-4.6,9.3-4.8,14.3c-0.3,8.6,0.8,17.2,0.7,25.8c-0.1,15.3-0.6,30.6-1,45.8
				c-0.6,1.5-1.6,2.9-1.9,4.4c-0.5,3.5-0.7,7.1-1.1,10.6c-1-0.7-2-1.3-3.1-2c-0.3-26.3-0.7-52.6-1-78.8
				C-255.8-127.6-255.1-135-254.5-142.4z"/>
			<path class="st13" d="M240.5,596.6c0.3-3,0.8-6.1,0.8-9.1c-0.1-5-0.8-9.9-0.8-14.9c-0.4-41.4-0.8-82.7-1-124.1
				c0-9.3,0.6-18.6,1-27.8c1.7,0.7,3.3,1.3,5,2c0,11-0.1,22,0,33c0.3,39.6,0.3,79.2,1.2,118.7c0.3,13.8,3.1,27.5,4.6,41.3
				c0.6,5.5,3.9,7.3,8.9,7c1.8-0.1,3.7,0,5.5,0.1c-0.9,1-1.9,2-3.2,3.4c0.5,0.9,1.2,2.1,1.9,3.3c-12.9,0.5-16.9-2.5-20.3-14.9
				c-0.7-2.5-1.2-5.1-1.9-7.6c-0.2-0.8-0.4-1.5-0.6-2.3c-0.1-0.6-0.2-1.3-0.4-1.9c-0.2-1-0.4-2.1-0.6-3.2
				C240.7,598.5,240.6,597.5,240.5,596.6z"/>
			<path class="st14" d="M236.2-68.5c3.3,1.7,6.7,3.4,10,5.2c1.7,2,3.1,4.2,5,5.9c16,14.7,32.1,29.3,48.2,43.9
				c-4.5,2-7.3-1.4-10-3.7c-13.2-11-25.9-22.6-39.5-33.1c-5.9-4.5-13.6-6.7-20.5-9.9c-4-0.3-8-0.6-12-0.8c-0.7,0-1.4,0-2-0.1
				c-5,0.2-10.1,0.9-15.1,0.5c-2.4-0.2-4.7-2.4-7-3.7c0.9-0.3,1.8-0.8,2.7-0.9c10.7-1.3,21.3-2.7,32-3.8
				C230.7-69.3,233.5-68.7,236.2-68.5z"/>
			<path class="st15" d="M-255.5-41.3c1,0.7,2,1.3,3.1,2c0,4.4-0.2,8.9,0.1,13.4c0.1,1.3,1.7,2.5,2.6,3.7c-0.6,26-1.2,52-1.8,78
				c-1.6,0.7-3.2,1.3-4.8,2c-0.2-5.6-0.7-11.2-0.5-16.8c0.2-9,1.2-17.9,1.3-26.9c0-15.4-0.4-30.9-0.6-46.4
				C-256.3-35.4-255.8-38.4-255.5-41.3z"/>
			<path class="st14" d="M313.3,9.5c1.5-1.4,3.1-2.8,4.6-4.2c2.3-1.5,4.9-2.7,7-4.4c8.6-6.8,17.9-8.3,28.6-5.3
				c11,3.1,22.2,5.4,33.4,7.6c9.9,1.9,16.5,7.9,22.7,15.9c-1.2,0.5-2.2,0.9-3.1,1.3c-2.8-5.3-6.8-9-13-9.8C386,9,378.5,7.4,371,5.7
				c-7.1-1.6-14.2-3.1-21.1-5.1c-7.9-2.2-14.5,0-21.1,4.1c-3.9,2.4-8,4.4-12.2,6.3C315.8,11.3,314.4,10.1,313.3,9.5z"/>
			<path class="st12" d="M-256.5,57.6c1.6-0.7,3.2-1.3,4.8-2c1.3,20.7-1.8,41.5,1,62.2c-3.8-0.3-5.7-2.6-6-6.1
				c-0.4-4.9-0.8-9.9-0.8-14.8C-257.2,83.8-256.8,70.7-256.5,57.6z"/>
			<path class="st16" d="M-254.5-142.4c-0.7,7.4-1.4,14.8-2,22.2c0-7.6-0.1-15.1,0-22.7c0-0.9,1.1-1.8,1.8-2.7
				C-254.6-144.5-254.6-143.4-254.5-142.4z"/>
			<path class="st9" d="M240.8,599.5c0.2,1,0.4,2.1,0.6,3.2C241.1,601.6,240.9,600.5,240.8,599.5z"/>
			<path class="st10" d="M241.6-156.4c-0.4-0.7-0.8-1.3-1.1-2C240.8-157.7,241.2-157,241.6-156.4z"/>
			<path class="st9" d="M241.7,604.5c0.2,0.8,0.4,1.5,0.6,2.3C242.1,606,241.9,605.3,241.7,604.5z"/>
			<path class="st16" d="M-253.5-146.5c-0.4,0.4-0.8,0.7-1.1,1.1C-254.3-145.8-253.9-146.2-253.5-146.5z"/>
			<path class="st14" d="M146.5,292.6c-8.7-10.8-17.8-21.4-25.8-32.6c-5.3-7.5-9.4-16-13.4-24.3c-1-2-0.1-5.2,0.7-7.6
				c1.2-3.6,3-7,4.5-10.5c1.4-2.3,2.7-4.6,4.1-6.9c4.7-9.1,8.8-18.6,14.1-27.4c10.5-17.1,22.9-32.9,34.8-49
				c15.6-21,35.3-37.9,52-57.8c6.2-7.4,14.6-13,22-19.3c8.2-7,16.5-14,24.9-20.7c1.7-1.4,4.1-1.9,6.1-2.9
				c-3.7,3.5-7.4,6.9-11.1,10.4c-3,2.9-5.8,5.8-8.7,8.8c-4.2,4.2-8.5,8.3-12.5,12.7c-12.1,13.2-24.1,26.3-34.7,40.8
				c-7.5,10.3-16.3,19.6-24.5,29.4c-17.8,21.4-32.8,44.6-45.2,69.5c-3,5.9-5.9,11.9-8.4,18.1c-3.1,7.6-3.4,15.3-0.8,23.2
				c4.8,14.5,12.9,27.1,21.8,39.2c0.9,2,1.8,4.1,2.8,6.4C148.3,292.3,147.4,292.4,146.5,292.6z"/>
			<path class="st7" d="M236.6,208.4c4.3-7.6,9.3-14.9,12.7-22.8c6.8-15.6,13.1-31.5,19.1-47.6c7.8-21,14.1-42.8,25.6-62.1
				c11.8-19.7,25-38.7,37.5-58c2.9-4.4,5.9-8.7,9.6-14.3c0.3,2.2,0.9,3.4,0.5,4.2c-1.7,3.6-3.5,7.2-5.6,10.5
				c-10.6,16.6-21.4,33.1-32,49.8c-9.7,15.2-16.2,31.9-22.7,48.7c-9.1,23.7-18.1,47.4-27.8,70.9c-2.9,6.9-8.1,12.9-12.4,19.1
				c-0.8,1.1-2.6,1.6-4,2.4C237,209,236.8,208.7,236.6,208.4z"/>
			<path class="st7" d="M197.7,208.9c10.8-40.7,21.6-81.4,32.4-122.1C234,93.6,205.5,200.4,197.7,208.9z"/>
			<path class="st17" d="M146.5,292.6c0.9-0.2,1.8-0.3,2.7-0.5c-1-2.4-2-4.4-2.8-6.4c3.6,3.5,7.3,7,10.9,10.6
				c2.8,2.8,5.5,5.6,8.2,8.4c3.1,3.2,5.8,6.8,9.2,9.6c6.3,5.1,7.6,12.4,9.8,19.4c-9.5-9.7-19.2-19.2-28.6-29
				C152.4,300.9,149.6,296.6,146.5,292.6z"/>
			<path class="st18" d="M278.4,574.5c-1,12.7-1.6,25.4-3.1,38.1c-0.5,4-1.5,8.8-6.8,10c0-2.8-0.3-5.2,2.7-7.3
				c1.6-1.2,1.9-4.7,2.2-7.2c1.2-10.3,2-20.7,3.2-31C276.7,576.1,277.8,575.4,278.4,574.5z"/>
			<path class="st8" d="M491.3,402.4c0.4,0,0.9,0,1.3-0.1C492.2,402.3,491.7,402.3,491.3,402.4z"/>
			<path class="st1" d="M418.5,68c3-4.4,6.7-3,10.8,0.1c9.3,6.9,18.8,13.5,28.2,20.3c0.5,0.4,0.9,0.9,1.2,1.3
				c-34.9,9.4-69.7,18.8-105.3,28.4c0.7-3.4,0.9-7.2,2.1-10.6c5.4-14.9,8.7-30.6,17.7-44.1c4.5-6.8,8.9-13.6,13.2-20.5
				c2.2-3.6,3.8-3.4,6.7-0.4c6.2,6.4,12.9,12.2,19.4,18.3c-1.7,0.4-4.5,1.2-7.4,1.8c-3.1,0.7-6.2,1.2-9.2,2.1
				c-7.7,2.5-15.4,5-23,7.9c-1.7,0.6-2.6,3.1-3.9,4.8c0.4,0.3,0.8,0.6,1.2,0.9c7.4-2.3,14.7-4.8,22.2-6.8c6.4-1.8,12.8-3.2,19.3-4.4
				C413.6,66.8,415.8,67.6,418.5,68z"/>
			<path class="st8" d="M204.5,374.6c-2-2-4-4-6-6c0.3-1.7,0.7-3.3,1-5l0,0C201.2,367.2,202.8,370.9,204.5,374.6z"/>
			<path class="st8" d="M197.5,359.6c0.3,0.7,0.7,1.3,1,2h0C198.1,360.9,197.8,360.3,197.5,359.6L197.5,359.6z"/>
			<path class="st8" d="M198.5,361.6c0.3,0.7,0.7,1.3,1,2l0,0C199.1,362.9,198.8,362.3,198.5,361.6L198.5,361.6z"/>
			<path class="st8" d="M196.5,358.5c0.3,0.3,0.6,0.7,0.9,1l0,0c-0.3-0.3-0.7-0.7-1-1C196.5,358.6,196.5,358.5,196.5,358.5z"/>
			<path class="st17" d="M116.5-88.3c4,3,8.1,6,12.1,9c8.6,6.6,17.2,13.2,25.8,19.8c0.1,1.5,0.2,2.9,0.2,3.2
				c7,5.9,13.2,11.2,19.9,16.9c-0.8,0.9-1.4,2.2-2.5,2.7c-13.5,6.5-25.6,15.6-39.6,21.4C118-9.4,104.2-1.9,88.8,0.9
				C75.1,3.3,61.4,5.4,47.6,6.5c-15,1.1-30.2,0.4-45.3,1.3c-11.4,0.7-22.6,2.5-34,3.9c-1,0.1-2.3,0.4-2.7,1c-4,6.3-9.1,3.4-14.1,1.9
				c-1.3-0.4-3.1-0.8-4.2-0.3c-4.2,2.4-7.1,0.8-10-2.4c-3.5-3.9-7.7-7.3-11.1-11.3c-7.4-8.5-14.5-17.2-21.6-26
				c-2.3-2.8-4.1-5.9-6.1-8.9c0.4-1.1,0.7-2.1,1-3.2c1.5,1.8,3.7,3.3,4.4,5.3c1.8,5,4.7,4.2,8.2,2.4c1.9-1,3.6-2.4,5.6-3.2
				c12.2-4.6,24.5-9,36.7-13.6c4.8-1.8,9.4-3.9,14.1-5.9c10.4-0.3,20.9-0.4,31.3-1c15.2-0.9,29.3-5.8,43.2-12
				c15-6.6,30.5-12.1,46-17.1C97.9-85.4,107.3-86.4,116.5-88.3z M-71.6-16.8c0.2,0.9,0.3,1.8,0.5,2.7c1.7,0,3.5,0.3,5.2-0.1
				c8.6-1.7,17.1-3.7,25.6-5.2c19-3.4,38.2-4.3,57.5-4.1c7.4,0.1,15.1-0.6,22-2.9C54.9-31.6,70.3-37.9,85.7-44
				c15.7-6.2,31.4-11.7,48.6-11.4c3.3,0.1,6.7-0.3,9.8-1.2c1.4-0.4,2.2-2.8,3.3-4.2c-1.2-0.8-2.5-2.4-3.7-2.4
				c-7.3,0.2-14.6,0.3-21.8,1.3c-20.1,2.8-38.7,10.7-56.7,19.4c-16.6,8-34,12.8-52.2,12.9c-21,0.1-41.7,2.2-62.3,5.5
				C-56.9-22.9-64.2-19.3-71.6-16.8z"/>
			<path class="st19" d="M116.6,210.7c-1.4,2.3-2.7,4.6-4.1,6.9c-2.1-1-4.4-1.7-6.2-3c-0.7-0.5-0.4-2.3-0.6-3.5
				c0.6-0.3,1.2-0.7,1.7-1c-8.9-6.8-18-13.4-26.7-20.5c-13.5-11-26.8-22.2-40.1-33.4C22.4,140.8,5.8,123.6-14,109.9
				c-15.6-10.8-29.5-24.1-44-36.4c-4.3-3.6-8.5-7.4-12.7-11.1c-0.8-0.7-1.2-1.7-1.8-2.6c0.3-0.5,0.6-1.1,1-1.6
				c2.4,1.1,5.3,1.7,7.2,3.3c17.1,14.2,33.9,28.7,51.1,42.7c7,5.8,14.8,10.6,22.1,16.1c3.7,2.8,7.3,5.7,10.7,8.9
				c24.3,23.6,50.1,45.4,77.6,65.3C103.9,199.4,110.1,205.3,116.6,210.7z"/>
			<path class="st20" d="M196.5,358.6c0.3,0.3,0.7,0.7,1,1c0.3,0.7,0.7,1.3,1,2c0.3,0.7,0.7,1.3,1,2c-0.3,1.7-0.7,3.3-1,5
				c-2.1-2.3-4.2-4.7-6.4-6.9c-12.7-12.8-25.5-25.5-38.2-38.2c-9.4-9.4-18.7-18.9-28.2-28.1c-5.8-5.7-12.2-10.8-18.1-16.3
				c-7-6.5-13.8-13.4-20.9-19.8c-20.4-18.3-40.9-36.3-61.4-54.5c-7-6.2-13.9-12.4-20.7-18.7c-1.3-1.2-2-2.9-3-4.4
				c4.8,3.3,10,6.2,14.4,10c23.7,20.5,47.3,41.1,70.8,61.9c7,6.2,13.6,12.7,20.3,19.1c9.3,8.7,18.8,17.4,28,26.2
				c6.6,6.3,12.9,12.9,19.4,19.2c11.2,10.7,22.5,21.2,33.7,31.8C191.1,352.7,193.7,355.7,196.5,358.6z"/>
			<path class="st21" d="M-174.6-27.2c-7-4.9-13.8-10.1-21-14.7c-6.5-4.1-13.5-7.6-20.2-11.4c-2.9-1.6-5-0.5-6,2.1
				c-1.5,3.9-2.8,8-3.6,12.1c-0.7,3.5-0.6,7.2-0.9,10.8c-1.6-1.4-3.2-2.7-4.9-4c-0.4-2.5-0.7-5.1-1.1-7.6c0.1-0.4,0.4-0.9,0.4-1.4
				c0-13.1,4.3-18,18.7-18.2c11.3-0.1,22.5-0.6,33.8-0.8c18.9-0.3,37.8-0.6,56.7-0.8c-0.1,1.2-0.3,2.4-0.3,2.8
				c-26.2,1.9-51.9,3.8-78.3,5.6c2.7,2,5.1,3.7,7.5,5.4c6.2,5.2,12.5,10.4,18.7,15.6c1.1,0.9,2,2.1,3,3.1
				C-172.9-28.1-173.7-27.7-174.6-27.2z"/>
			<path class="st22" d="M-193.8-47.3c-2.4-1.7-4.7-3.4-7.5-5.4c26.4-1.9,52.1-3.8,78.3-5.6c0-0.4,0.2-1.6,0.3-2.8
				c0.4-0.1,0.7-0.3,1.1-0.4c3.7,5.4,7.4,10.8,11.1,16.2c-2-2-4.1-4-6-6.1c-2.1-2.3-3.8-5.4-6.5-0.4c-0.6,1.1-2.4,1.5-3.7,2.2
				c1.9,5.1,1,6.4-4.2,6.3c-13.2-0.4-26.5-0.4-39.7-1.1C-178.3-44.9-186-46.3-193.8-47.3z"/>
			<path class="st23" d="M-231.2-32.3c1.6,1.4,3.2,2.7,4.9,4c11.2,10.1,22.5,20.1,33.5,30.3c5.2,4.8,10.1,9.9,15.1,15
				c1,1,1.5,2.4,2.3,3.7c-4.2-3.1-8.6-5.9-12.6-9.2c-17.9-14.8-35.8-29.7-53.7-44.6c-2.5-2.1-5.1-4.1-7.7-6.1c0-5-0.1-10-0.1-15
				c0.4-15.3,0.9-30.6,1-45.8c0.1-8.6-1.1-17.2-0.7-25.8c0.2-5-0.8-10.9,4.8-14.3c0,14.7,0,29.3,0,44c0,5.3,0,10.6,0.1,15.9
				c0.3,1,0.6,2,1,3.1c-0.3,2.7-0.6,5.4-1,8.2c0.9,8.7,1.5,17.5,2.9,26.1c0.3,2,3,3.6,4.6,5.4C-235-35.9-233.1-34.1-231.2-32.3z"/>
			<path class="st11" d="M-110.5-45.4c-3.7-5.4-7.4-10.8-11.1-16.2c-1.6-3.6-3.3-7.2-4.9-10.8c-0.4-3.1,0.9-4.7,4-5.7
				c3.5-1.1,6.7-3.1,10-4.8c4.1-1.3,8.2-2.4,12.3-3.8c11.4-4.1,22.9-8.7,35.2-7.6c8.3,0.7,16.4,2.9,24.6,4.4c1.3,5.9-2.9,3.2-5,2.9
				c-12.2-1.4-24.5-4.1-36.5,0.8c-12.8,5.2-25.4,11-38.5,16.6c5.6,8.8,11.2,17.5,16.7,26.1c0.3,0.7,0.7,1.3,1,2
				c0.7,1.3,1.4,2.6,2.1,4c-0.4,1.1-0.7,2.1-1,3.2c-2-2.4-4-4.8-5.9-7.2c-0.7-1-1.4-1.9-2.1-2.9C-109.8-44.6-110.2-45-110.5-45.4z"
				/>
			<path class="st10" d="M-174.6-27.2c0.8-0.4,1.6-0.9,2.5-1.3c4.9,3.4,9.9,6.5,14.5,10.2C-144.9-8-132,2.2-119.8,13.1
				c11.1,9.9,21.4,20.8,32.3,31c3.2,3,7.4,5,11,7.7c1.1,0.9,1.5,2.7,2.1,4.1c-1.6,0.1-3.6,1-4.7,0.3c-4.7-2.8-9.5-5.6-13.5-9.3
				c-11.7-11.1-22.6-23-34.4-33.9c-9-8.3-18.9-15.6-28.5-23.3c-5.2-4.1-10.5-8.1-15.6-12.3C-172.5-23.8-173.4-25.7-174.6-27.2z"/>
			<path class="st19" d="M155.3-61c3.6-0.8,7.2-1.9,10.9-2.2c9-0.6,18.1-0.8,27.1-1.2c2.3,1.3,4.6,3.5,7,3.7
				c5,0.4,10.1-0.3,15.1-0.5c-6.7,0.9-13.3,2.3-20,2.7c-10.9,0.7-21.9,1-32.8,0.9C160.3-57.6,157.8-59.8,155.3-61z"/>
			<path class="st19" d="M217.5-61.2c4,0.3,8,0.6,12,0.8C225.5-60.6,221.5-60.9,217.5-61.2z"/>
			<path class="st22" d="M-109.5-44.2c0.7,1,1.4,1.9,2.1,2.9C-108.2-42.3-108.8-43.3-109.5-44.2z"/>
			<path class="st11" d="M-249.5-54.3c0,5,0.1,10,0.1,15c-0.1,5.7-0.3,11.3-0.4,17c-0.9-1.2-2.5-2.4-2.6-3.7
				c-0.3-4.4-0.1-8.9-0.1-13.4c0.3-3.5,0.5-7.1,1.1-10.6C-251.2-51.5-250.2-52.9-249.5-54.3z"/>
			<path class="st24" d="M107.5-94.3c1.3,0.1,2.6,0.6,3.8,0.3c3.8-0.7,5.3,0.9,5.3,4.5c0,0.4,0,0.7,0,1.1c-9.2,1.9-18.6,3-27.5,5.9
				C73.5-77.4,58-71.9,43-65.3c-13.9,6.1-28,11.1-43.2,12c-10.4,0.6-20.9,0.7-31.3,1c-1.8-0.3-3.5-1-5.3-0.9
				c-6.8,0.2-13.6,0.8-20.4,0.9c-13.5,0.3-26.2,3.2-38.3,9.4c-2.1,1.1-4.7,1.1-7.1,1.7c-0.3-0.7-0.7-1.3-1-2
				c14.7-10.7,31.7-14,49.3-14.9c12.6-0.7,25.2-0.1,37.8-0.1C0.2-57.8,16-61,31.4-67.7C46.3-74.2,61.2-80.5,76.5-86
				C86.5-89.6,97.1-91.6,107.5-94.3z"/>
			<path class="st16" d="M183.5-91.3c3.3-0.6,6.6-1.6,10-1.7c11.7-0.6,23.4-0.8,35.1-1.2c1.7,0.9,3.5,1.9,5.2,2.9
				c-0.2,0.3-0.4,0.6-0.6,1c-3,0-6.1-0.1-9.1,0c-12,0.3-24.1,0.7-36.2,0.9C186.4-89.4,185-90.6,183.5-91.3z"/>
			<path class="st24" d="M-71.6-16.8c7.4-2.5,14.6-6.1,22.3-7.3C-28.7-27.4-8-29.5,13-29.6c18.1-0.1,35.6-4.9,52.2-12.9
				c18.1-8.7,36.6-16.6,56.7-19.4c7.2-1,14.5-1.1,21.8-1.3c1.2,0,2.5,1.5,3.7,2.4c-1.1,1.5-1.9,3.8-3.3,4.2
				c-3.1,0.9-6.5,1.3-9.8,1.2c-17.2-0.3-32.9,5.2-48.6,11.4c-15.4,6.1-30.8,12.4-46.5,17.6c-6.9,2.3-14.7,2.9-22,2.9
				c-19.3-0.1-38.5,0.8-57.5,4.1c-8.6,1.5-17.1,3.6-25.6,5.2c-1.7,0.3-3.5,0.1-5.2,0.1C-71.3-15-71.4-15.9-71.6-16.8z"/>
			<path class="st10" d="M-102.6-41.3c2.4-0.5,5-0.6,7.1-1.7c12-6.2,24.8-9.1,38.3-9.4c6.8-0.1,13.6-0.7,20.4-0.9
				c1.8-0.1,3.5,0.6,5.3,0.9c-4.7,2-9.3,4.1-14.1,5.9c-12.2,4.6-24.5,9-36.7,13.6c-2,0.8-3.7,2.1-5.6,3.2c-3.4,1.8-6.4,2.6-8.2-2.4
				c-0.7-2-2.9-3.5-4.4-5.3C-101.2-38.7-101.9-40-102.6-41.3z"/>
			<path class="st8" d="M-236.9-37.6c0.1-3.6,2.2-3.2,4.6-2.3c0.4,2.5,0.7,5.1,1.1,7.6C-233.1-34.1-235-35.9-236.9-37.6z"/>
			<path class="st25" d="M-126.5-72.3c-19.7,0.5-39.5,1-59.2,1.5c-19.6,0.5-39.1,1-58.7,1.6c0.3-2.7,0.6-5.4,1-8.2
				c9.9,2.3,19.7,0.5,29.4-1.5c0.3-0.1,0.5-0.8,0.7-1.3c33.6-0.9,67.3-1.7,100.9-2.6c-3.3,1.6-6.5,3.6-10,4.8
				C-125.6-77-126.9-75.4-126.5-72.3z"/>
			<path class="st15" d="M-213.4-80.2c-0.2,0.4-0.4,1.2-0.7,1.3c-9.7,2.1-19.5,3.8-29.4,1.5c-0.3-1-0.6-2-1-3.1
				C-234-80.3-223.7-80.2-213.4-80.2z"/>
			<path class="st10" d="M-16.5-58.4c-12.6,0-25.2-0.5-37.8,0.1c-17.5,0.9-34.6,4.2-49.3,14.9c-5.5-8.6-11.1-17.3-16.7-26.1
				c13.1-5.7,25.7-11.4,38.5-16.6c12-4.9,24.3-2.2,36.5-0.8c2.1,0.2,6.3,2.9,5-2.9c5.9,0.7,11.9,1.3,17.8,2c1.1,0.8,2.3,2.3,3.4,2.3
				c8.3-0.1,16.5-0.6,24.7-0.9c18.2-0.6,35.6-5.1,52.9-10c2.3-0.7,4.7-1.3,7-2c-2.8,2-5.4,4.5-8.5,5.8c-5.9,2.5-12.3,3.9-18.2,6.3
				C27-81.5,15.3-76.9,3.9-71.4C-3.3-67.8-9.7-62.7-16.5-58.4z"/>
			<path class="st17" d="M-16.5-58.4c6.8-4.4,13.2-9.5,20.5-13C15.3-76.9,27-81.5,38.7-86.2c6-2.4,12.3-3.9,18.2-6.3
				c3.1-1.3,5.7-3.8,8.5-5.8c2.3-0.7,4.5-1.6,6.8-2c5.7-0.8,11.5-1.4,17.3-2c6.6,1.4,13.1,2.8,17.9,8.1c-10.3,2.7-21,4.7-31,8.3
				c-15.3,5.5-30.2,11.9-45.1,18.4C16-61,0.2-57.9-16.5-58.4z"/>
			<path class="st11" d="M58.5-96.4c-17.3,4.9-34.8,9.4-52.9,10c0.3-1.3,0.6-2.6,0.9-3.9c12.8-2.4,25.6-4.7,38.4-7.1
				c2.6-0.5,5.1-1.3,7.6-2c1-0.4,2-0.7,3-1.1H56C56.8-99.1,57.6-97.7,58.5-96.4z"/>
			<path class="st14" d="M58.5-96.4c-0.8-1.3-1.7-2.7-2.5-4c11-3.6,22.1-6.9,33.6-1.9c-5.8,0.7-11.5,1.2-17.3,2
				c-2.3,0.3-4.5,1.3-6.8,2C63.2-97.7,60.8-97,58.5-96.4z"/>
			<path class="st14" d="M6.5-90.3c-0.3,1.3-0.6,2.6-0.9,3.9c-8.2,0.4-16.5,0.8-24.7,0.9c-1.1,0-2.2-1.5-3.4-2.3
				C-12.8-88.6-3.2-89.5,6.5-90.3z"/>
			<path class="st14" d="M55.6-100.4c-1,0.4-2,0.7-3,1.1C53.6-99.7,54.6-100,55.6-100.4z"/>
		</g>
	</g>
	<g>
		<defs>
			<path id="SVGID_3_" d="M6.2,429.4l-4.9-239l12.3-1.1l-3.4-51.2l164-11.5l49-31.1l93.5-46.7c22.6-17.4,45.2-34.8,67.8-52.2
				C372.2-30.7,578.7-14,634.4,117.8c89.1,210.8,47.2,583.2,27.6,539.5l-421.2,88.8L6.2,429.4z"/>
		</defs>
		<clipPath id="SVGID_4_">
			<use xlink:href="#SVGID_3_"  style="overflow:visible;"/>
		</clipPath>
		<path class="st26" d="M-36.6,341.6"/>
	</g>
	<g>
		<defs>
			<path id="SVGID_5_" d="M6.2,429.4l-4.9-239l12.3-1.1l-3.4-51.2l164-11.5l49-31.1l93.5-46.7c22.6-17.4,45.2-34.8,67.8-52.2
				C372.2-30.7,578.7-14,634.4,117.8c89.1,210.8,47.2,583.2,27.6,539.5l-421.2,88.8L6.2,429.4z"/>
		</defs>
		<clipPath id="SVGID_6_">
			<use xlink:href="#SVGID_5_"  style="overflow:visible;"/>
		</clipPath>
		<path class="st27" d="M-26.8,522"/>
	</g>
</g>
</svg>
