<?xml version="1.0" encoding="utf-8"?>
<!-- Generator: Adobe Illustrator 23.0.3, SVG Export Plug-In . SVG Version: 6.00 Build 0)  -->
<svg version="1.1" id="coffee" xmlns="http://www.w3.org/2000/svg" xmlns:xlink="http://www.w3.org/1999/xlink" x="0px" y="0px"
	 viewBox="0 0 1050.9 815" style="enable-background:new 0 0 1050.9 815;" xml:space="preserve">
<style type="text/css">
</style>
<g class="coffee0">
	<path class="coffee1" d="M-251.5,401.2c-0.6,8-1.8,16-1.8,24c-0.2,42.7-0.1,85.3-0.1,128c0,1.8,0,3.6,0,5.4c-303.9,0-607.5,0-911.5,0
		c-0.4-7.1-1-13.7-1.2-20.3c-0.8-30.3-1.4-60.6-2.3-90.9c-0.2-7.6-1.1-15.1-1.9-22.7c-0.1-1.2-1.3-2.3-2-3.5c0-2.7,0-5.3,0-8
		c1-2,2.1-4,3.1-6c0.3,0,0.6,0,0.9,0c1.6,0.3,3.2,0.9,4.7,0.9c8-0.2,15.9-0.8,23.9-0.8c44.5-0.4,88.9-0.7,133.4-1
		c44-0.3,87.9-0.7,131.9-1c44.5-0.3,88.9-0.7,133.4-1c44.1-0.3,88.3-0.7,132.4-1s88.3-0.7,132.4-1c44.3-0.3,88.6-0.8,132.9-1
		C-312.8,401.1-282.1,401.2-251.5,401.2z M-1098.3,424.1c-1.5-0.6-2.9-1.5-4.5-1.7c-4.2-0.5-8.5-0.8-12.7-0.8
		c-10.2-0.1-20.3,0-30.3,0c-0.5,11.4-1.4,21.3-1.4,31.2c0.1,25.7,0.5,51.5,0.9,77.2c0,1,0.7,2.1,1,3.1c-0.7,1.5-2.2,3.3-1.8,4.5
		c0.4,1.1,2.7,1.9,4.3,2.1c3.7,0.4,7.4,0.4,11.1,0.4c72.1,0.3,144.2,0.8,216.3,0.8c146.2-0.1,292.4-0.4,438.7-0.7
		c64.5-0.1,128.9-0.1,193.4-0.2c2.9,0,5.9,0,8.8-0.1c3.5,1.9,4-0.3,4.1-3c0.3-9.6,0.9-19.2,0.9-28.8c-0.2-27.6-0.6-55.2-0.9-82.8
		c0-0.9-0.3-1.9-0.5-3.2c-45.3,0-90.4,0-135.4,0c-4,0-8-0.1-12-0.1c-8.6-0.3-17.3-0.9-25.9-0.9c-60.3-0.4-120.6-0.9-180.9-1
		c-53.1,0-106.2,0.6-159.4,0.9c-57.3,0.3-114.6,0.7-171.8,1c-0.7,0-1.3,0-2,0c-7.5-0.3-14.9-1-22.4-0.9c-37.9,0.2-75.8,0.6-113.7,1
		C-1095.7,422.3-1097,423.5-1098.3,424.1z"/>
	<path class="coffee2" d="M-798.4,322.2c154.6,0,309.3,0,463.9,0c11.8,0,14.5,1.9,18.6,12.5c0.4,0.9,0.9,1.8,1.5,2.6
		c8.6,10.4,17.1,20.8,26,31c2.7,3.1,6.1,5.7,9.4,8.1c4.4,3.3,5.8,7.4,4.2,12.6c-4,3.9-8.3,6-13.5,1.9c-0.4-0.3-1.2,0-1.9,0
		c-17.5,0.4-34.9,0.8-52.4,1.1c-22.8,0.4-45.6,0.8-68.4,1c-41.3,0.4-82.6,0.7-123.9,1.1c-0.7,0-1.4-0.2-2,0c-1,0.4-1.8,1.1-2.7,1.6
		c-17.9,0-35.9,0.1-53.8,0.2c-4.7,0-9.4,0-14.1,0c-82.9,0.3-165.8,0.7-248.7,0.9c-96.1,0.2-192.2,0.1-288.2,0.2
		c-2.1,0-4.2-0.6-6.2-0.9c16.3-20.1,32.6-40.2,48.8-60.4c3.1-3.8,6.3-7.9,5.5-13.4c1-0.1,2-0.2,3-0.2c87.3,0,174.6,0,261.9,0
		c-1.2,8.8-1.2,8.7-9.4,9.9c-3.5,0.5-7,1.4-10.6,2.1c-6.8,1.1-13.7,1.6-20.3,3.4c-3,0.8-5.8,3.6-7.7,6.3c-1.5,2.2-1.3,5.3,3,5.2
		c2.8,3.5,6.6,3.3,10.5,3c3.6-0.3,7.3-0.9,10.9-0.8c12,0.2,24,0.7,36.1,0.9c20.6,0.4,41.2,0.7,61.8,1c5.8,0.1,11-3.8,11.6-8.8
		c0.5-4.3-3.7-9.1-9.3-10c-3.6-0.6-7.2-1-10.8-1.1c-9.8-0.1-19.6,0-29.5-0.2c-1.4,0-3.9-1.3-4-2.2
		C-799.3,328.1-798.7,325.1-798.4,322.2z"/>
	<path class="coffee3" d="M-798.4,322.2c-0.3,2.9-0.9,5.8-0.6,8.7c0.1,0.9,2.6,2.1,4,2.2c9.8,0.2,19.6,0,29.5,0.2
		c3.6,0,7.3,0.5,10.8,1.1c5.5,0.9,9.8,5.7,9.3,10c-0.6,5-5.8,8.9-11.6,8.8c-20.6-0.3-41.2-0.6-61.8-1c-12-0.2-24-0.7-36.1-0.9
		c-3.6-0.1-7.2,0.6-10.9,0.8c-3.8,0.3-7.7,0.5-10.5-3c0.5-2,0.3-4.9,1.5-5.7c2.6-1.8,5.9-2.8,9-3.4c4.5-0.9,9-1.2,13.6-1.7
		c6.9-0.5,13.9-0.9,20.8-1.4c5.4-0.4,8.3-2.7,8.7-8.3c0.8-10,1-20.1,1.5-30.2c0.2-4.5-1.7-6.1-6-5c-37.5,0.3-74.9,0.1-112.4,1
		c-25.3,0.6-50.5,2.9-75.7,4.4c-5.3,0.3-10.7,0.3-16,0.4c-4.1-1.4-8.1-2.8-12.2-4.1c-3.6-1.2-4.6-4.1-4.8-7.4
		c-0.7-14.9-1.8-29.8-1.9-44.8c-0.1-23.6,0.4-47.2,1-70.8c0.3-11.3,1.8-22.5,2.2-33.8c0.6-17.1,0.7-34.2,1.2-51.3
		c0.4-16-3.3-32.5,5.3-47.5c2.8-0.8,5.6-2.4,8.4-2.4c66.6,0.8,133.2,1.8,199.8,2.7c28.5,0.4,57,0.8,85.4,1.2
		c45.5,0.5,90.9,1,136.4,1.4c3.6,0,7.2-1.2,10.8-1.3c7.4-0.3,12.8,4.3,13.6,11.7c0.5,4.4-0.3,9-0.1,13.4c0.7,17.3,1.5,34.6,2.2,51.8
		c0.1,1.8,0.4,3.6,0.4,5.5c0.5,48.6,1,97.3,1.5,145.9c0.1,7,0,13.9,0,20.8c-0.6-0.2-1.2-0.4-1.8-0.7c-2,1.3-3.9,2.6-6,3.8
		c-1.2,0.7-2.7,1.5-3.9,1.3c-13.5-2.7-27.1-1.6-40.8-1c-22,0.9-44,1.3-65.9,1.2c-31.4-0.2-62.8-1.2-94.2-1.8c-1.7,0-3.3,0-5.5,0
		C-794.8,302.8-799.1,312.6-798.4,322.2z M-1028.3,276.2c0.9,0.2,1.8,0.7,2.7,0.7c5.9-0.5,11.8-1.6,17.7-1.6
		c119.5-0.1,239.1,0,358.6-0.1c12.6,0,25.2-0.6,37.8-1c3.8-0.1,6.5-1.6,6.2-6c0.3-1.8,1-3.5,0.9-5.3c-0.2-5.3-0.9-10.6-0.9-15.9
		c-0.1-52.3-0.1-104.5-0.1-156.8c0-3.4,0.2-6.8-0.2-10.1c-0.6-4.6-2.9-8.8-0.1-13.8c1-1.8,2.4-6.2-1.7-8.2c0-1.3,0-2.7,0-4
		c0-7,0-7-7-7c-137.4,0-274.8,0-412.3,0c-2.1,0-4.2,0-7,0c0,76.7,0,152.5,0,229C-1031.9,276.2-1030.1,276.2-1028.3,276.2z"/>
	<path class="coffee4" d="M-593.3,396.1c17.9,0,35.9-0.1,53.8-0.2c0.5,0.1,1,0.2,1.5,0.2c94,0,187.9,0,281.9,0c1.2,0,2.5-1,3.7-1.5
		c1.9,2,5.1,3.8,1,6.6c-30.7,0-61.3-0.1-92,0c-44.3,0.2-88.6,0.6-132.9,1c-44.1,0.3-88.2,0.7-132.4,1c-44.1,0.3-88.3,0.7-132.4,1
		c-44.5,0.3-88.9,0.7-133.4,1c-44,0.3-87.9,0.7-131.9,1c-44.5,0.3-88.9,0.6-133.4,1c-8,0.1-15.9,0.6-23.9,0.8
		c-1.6,0-3.2-0.6-4.7-0.9c3.6-2.6,6.9-6.9,10.8-7.4c3.3-0.4,5.3-0.9,6.9-3.5c2.1,0.3,4.2,0.9,6.2,0.9c96.1,0,192.2,0,288.2-0.2
		c82.9-0.2,165.8-0.6,248.7-0.9C-602.7,396.1-598,396.1-593.3,396.1z M-996.6,402.5c0-0.5,0.1-0.9,0.1-1.4
		c-50.9,0.6-101.7-1-153.9,1.4C-1098.3,402.5-1047.5,402.5-996.6,402.5z"/>
	<path class="coffee5" d="M-898.2,640c9.4,3.8,17.6,8.6,23.5,17.5c3.9,6,9.8,10.8,14.7,16.2c3.2,3.6,6.7,7,8.9,11.2
		c3.1,5.8-0.1,10.7-6.5,12.1c-7.8,1.7-14.3-1.9-20.9-4.6c-3.6-1.5-7-3.8-10.2-6.1c-3.7-2.8-7.1-3-11.1-0.8
		c-8.4,4.6-16.9,9.1-25.4,13.7c0.6,7.8,1.7,16,1.8,24.2c0.1,6.2-1.5,12-5.1,17.4c-2.3,3.5-4.4,4-7.7,2.2c-3.6-5.4-7.2-10.9-11-16.2
		c-2.8-4-6-7.8-9-11.7c-0.4-0.9-0.7-1.9-1.3-2.6c-6-7.4-9.2-15.9-9.9-25.4c0.4-2,0.8-3.9,1.2-5.9c2.3-3.4,4.5-6.7,6.8-10.1
		c0-0.3,0.1-0.6,0.1-1c2.6-0.9,5.4-1.7,7.9-2.9c5.2-2.5,10.6-4.9,15.4-8.1c7.2-4.8,13.6-11.2,21.1-15.3
		C-910.1,641.1-903.8,641.2-898.2,640z M-944.3,689.2c-1-0.6-1.9-1.4-2.9-1.9c-3.4-1.5-6.3-0.7-8,2.5c-1.8,3.6-0.3,6.4,2.9,8.3
		c3.3,2.1,5.8,0.1,7.5-2.5c1-1.5,1-3.7,1.4-5.6c2.3,0.5,5.4,0.3,6.9,1.7c4.5,4.3,7.2-0.2,10.3-1.8c1.5-0.7,0.3-12.3-1-13.2
		c-0.5-0.3-1.2-0.5-1.8-0.7c-1.9-0.8-3.7-2-5.6-2.3c-2.4-0.3-4.9,0.3-7.4,0.5c0.3,1.9,0.6,3.8,1.1,5.6c0.2,0.7,0.9,1.3,0.8,1.2
		C-941.7,684.3-943,686.7-944.3,689.2z M-895.5,667.2c1.7-1.7,4.6-3.1,4.9-5.1c0.9-4.5-2.5-8.9-5.8-8.9c-3.3,0-7,3.7-7,7.1
		C-903.3,664.9-900.6,666.3-895.5,667.2z"/>
	<path class="coffee5" d="M-689.3,702.1c-2.8,3.6-5.2,7.8-8.6,10.6c-5.9,4.8-13,2.6-14.9-4.6c-1.9-7.1-2.4-14.6-3.4-22c-0.3-2.4,0-5,0-8
		c-11.2-3.5-22.3-6.8-33.2-10.4c-4.7-1.6-8.2-0.5-11.7,2.7c-4.3,3.9-8.8,7.7-13.3,11.3c-2.2,1.8-4.5,3.5-7,4.6
		c-4.3,1.9-7.5,0.4-9.1-4c-1.9-5.1-2.6-10.2,0.2-15.3c-0.1,3-0.3,5.9-0.4,8.9c0.4,0.2,0.8,0.3,1.2,0.5c0.8-1.4,1.9-2.7,2.3-4.3
		c2.4-8.1,4.7-16.2,7-24.3c2.4-8.8,7.3-15.9,16.3-17.6c8.3-1.6,17-4.7,25.5,0c1.8,1,4.1,1.3,6.1,1.9c0.7,0.3,1.3,0.7,2,1
		c1.7,0.3,3.3,0.7,5,1c7.7,1.3,15.4,2.8,23.2,4c5.3,0.8,11,0.1,14.9,5c-0.8,1.1-2.6,2.4-2.4,3.1c1,3.8,2.6,7.4,3.9,11.1
		c2.2,6.4,6.8,12.5,2.8,19.8c-3,5.7-6,11.5-9.2,17.1c-2.8,4.8-6,9.5-9,14.2c0.2,0.2,0.5,0.4,0.7,0.6
		C-696.7,706.7-693,704.4-689.3,702.1z M-741,640.3c-1.5-0.1-5.9-1-6.2-0.3c-1.5,3.7-4.3,5.2-7.7,6.4c-0.8,0.3-1.7,2.3-1.4,2.9
		c1.6,3.1,2.9,6.6,5.4,8.7c5.7,4.8,6.7-5.4,11.7-4.4c0.3,0.1,1.3-2.8,1.7-4.3c0.2-0.7-0.3-1.6-0.6-2.3
		C-738.8,645.1-739.7,643.2-741,640.3z M-696,670.2c2.7,0,6.3-2.9,6.5-6.3c0.2-3-4.2-7.7-7.3-7.8c-3.9-0.1-6.5,3-6.7,7.6
		C-703.7,668.3-701.5,670.2-696,670.2z M-766.8,651.2c5.6,0,9.7-3.7,9.4-7.3c-0.4-4-3.1-5.6-6.9-5.7c-4.3-0.2-7,2.6-7,7.3
		C-771.2,649.2-769.2,651.2-766.8,651.2z"/>
	<path class="coffee6" d="M-1040.5,39.7c-8.7,15.1-4.9,31.5-5.3,47.5c-0.5,17.1-0.6,34.2-1.2,51.3c-0.4,11.3-1.9,22.5-2.2,33.8
		c-0.6,23.6-1.1,47.2-1,70.8c0,14.9,1.2,29.8,1.9,44.8c0.2,3.3,1.2,6.2,4.8,7.4c4.1,1.3,8.1,2.7,12.2,4.1
		c-4.5,5.7-16.9,3.9-19.7-3.5c-2.2-5.9-3.7-12.5-3.8-18.8c-0.3-20.5,0.1-41,0.3-61.4c0.4-34.3,0.4-68.6,1.3-102.9
		c0.6-23,2.4-45.9,4.1-68.8c0.2-2.1,2.5-4.3,4.3-5.9C-1044.2,37.5-1042,39.1-1040.5,39.7z"/>
	<path class="coffee7" d="M-1150.6,396.3c-1.6,2.6-3.6,3.1-6.9,3.5c-3.9,0.5-7.2,4.8-10.8,7.4c-0.3,0-0.6,0-0.9,0
		c-2.8-4.2-1.7-6.8,1.8-10.8c11.7-13.3,22.2-27.6,33.4-41.4c9-11.1,18.4-21.9,27.6-32.8c0.3-0.4,0.7-0.8,1-1.1
		c4.9-5.3,6.9-5,9.1,1.3c0.8,5.5-2.4,9.6-5.5,13.4C-1118,356-1134.3,376.1-1150.6,396.3z"/>
	<path class="coffee8" d="M-252.4,394.6c-1.2,0.5-2.5,1.5-3.7,1.5c-94,0.1-187.9,0-281.9,0c-0.5,0-1-0.1-1.5-0.2
		c0.9-0.6,1.8-1.2,2.7-1.6c0.6-0.2,1.3,0,2,0c41.3-0.3,82.6-0.7,123.9-1.1c22.8-0.2,45.6-0.6,68.4-1c17.5-0.3,34.9-0.8,52.4-1.1
		c0.6,0,1.5-0.3,1.9,0c5.2,4.1,9.4,2,13.5-1.9c1.5,0.5,3,1.4,4.5,1.5C-264.1,390.9-257.6,389.6-252.4,394.6z"/>
	<path class="coffee6" d="M-966.3,681.2c-0.4,2-0.8,3.9-1.2,5.9c-0.8,1.9-1.9,3.8-2.4,5.7c-0.6,2.2-0.7,4.6-0.9,6.8
		c-0.1,0.8-0.2,1.7,0.1,2.3c3.1,6.3,7.5,11.1,14.5,13.1c3,3.9,6.1,7.7,9,11.7c3.8,5.3,7.3,10.8,11,16.2c-1.3,0-3.1,0.4-4-0.2
		c-4.3-3.1-8.7-6.2-12.6-9.7c-6.9-6.3-13.1-13.3-20.3-19.2c-7.4-6-10.2-13.1-9.1-22.3c1.4-11.5,11.6-22.4,22.9-25.5
		c0,1.4,0,2.7,0.1,4.1c0,0.3-0.1,0.6-0.1,1C-963.8,673.1-967,675.9-966.3,681.2z"/>
	<path class="coffee6" d="M-725.3,634.2c-1.7-0.3-3.3-0.7-5-1c-0.7-0.3-1.3-0.7-2-1c-2.1-0.6-4.3-0.9-6.1-1.9c-8.5-4.8-17.2-1.6-25.5,0
		c-9.1,1.7-14,8.8-16.3,17.6c-2.2,8.1-4.5,16.2-7,24.3c-0.5,1.5-1.5,2.8-2.3,4.3c-0.4-0.2-0.8-0.3-1.2-0.5c0.1-3,0.3-5.9,0.4-8.9
		l0,0.1c0.2-1,0.3-2,0.5-3c1.2-6.8,2.2-13.7,3.7-20.5c4-17.2,23.8-30.1,39.4-25.4c5.3,1.6,10,5,15.1,7.5c1.8,0.9,3.6,1.6,5.5,2.4
		C-723.5,629.8-723,631.7-725.3,634.2z"/>
	<path class="coffee4" d="M-725.3,634.2c2.4-2.4,1.9-4.3-1-5.9c10.5-1.7,19.9,2.7,29.6,5.2c3.4,0.8,6.8,1.4,10.1,2.4
		c10.5,3.2,16.3,11.9,17.5,24c0.7,7.1-3.3,11.9-6.1,17.4c1.3-7.9,1.3-16-2.2-23.1c-2.1-4.3-6.4-7.4-9.8-11c-3.9-4.9-9.6-4.2-14.9-5
		C-709.9,636.9-717.6,635.5-725.3,634.2z"/>
	<path class="coffee9" d="M-687.2,643.1c3.3,3.6,7.7,6.8,9.8,11c3.5,7.2,3.5,15.2,2.2,23.1l0-0.1c-0.3,0.8-0.7,1.6-1,2.4
		c0.1,0.2,0,0.4-0.2,0.5c-0.3,0.7-0.7,1.3-1,2c-4,6.7-7.9,13.4-11.9,20.1c-3.7,2.3-7.4,4.6-11.1,6.9c-0.2-0.2-0.5-0.4-0.7-0.6
		c3-4.7,6.2-9.3,9-14.2c3.2-5.6,6.2-11.4,9.2-17c3.9-7.3-0.6-13.4-2.8-19.8c-1.3-3.7-2.9-7.3-3.9-11.1
		C-689.8,645.5-688.1,644.2-687.2,643.1z"/>
	<path class="coffee10" d="M-827.2,293.5c4.3-1.1,6.3,0.5,6,5c-0.5,10.1-0.7,20.2-1.5,30.2c-0.4,5.6-3.3,7.8-8.7,8.3
		c-6.9,0.5-13.9,0.9-20.8,1.4c0.3-1.3,0.6-2.7,0.9-4.1c3.5-0.7,7-1.5,10.6-2.1c8.2-1.2,8.2-1.1,9.4-9.9
		C-830,312.7-828.6,303.1-827.2,293.5z"/>
	<path class="coffee4" d="M-959.3,670.2c0-1.4,0-2.7-0.1-4.1c3.8-1.2,8-1.8,11.3-3.8c7.6-4.7,14.8-9.8,21.9-15.3c6.3-4.9,13-8.9,21-9.4
		c2.3-0.1,4.6,1.6,6.9,2.4c-5.6,1.2-11.9,1.2-16.6,3.8c-7.5,4.2-13.9,10.5-21.1,15.3c-4.8,3.2-10.2,5.6-15.4,8.1
		C-953.9,668.5-956.7,669.2-959.3,670.2z"/>
	<path class="coffee5" d="M-789.9,664.2c-0.2,1-0.3,2-0.5,3C-790.3,666.2-790.1,665.2-789.9,664.2z"/>
	<path class="coffee4" d="M-676.2,679.6c0.3-0.8,0.7-1.6,1-2.4C-675.5,678-675.9,678.8-676.2,679.6z"/>
	<path class="coffee4" d="M-677.4,682.1c0.3-0.7,0.7-1.3,1-2C-676.7,680.7-677.1,681.4-677.4,682.1z"/>
	<path class="coffee11" d="M-956.3,422.2c57.3-0.3,114.6-0.7,171.8-1c53.1-0.3,106.2-0.9,159.4-0.9c60.3,0,120.6,0.6,180.9,1
		c8.6,0.1,17.3,0.6,25.9,0.9c-2.6,7.3-5.1,14.6-7.7,21.9c0.5,0,0.9,0,1.4-0.1c0.4,2,0.9,4.1,1.3,6.1c-4.1-4.1-9.3-3.7-14.3-2.9
		c-4.5,0.7-10.5-0.4-10.7,7c-1.5-2.6-2.8-5.4-4.6-7.8c-1.9-2.5-4.5-4.4-6.3-6.9c-1.8-2.6-3.5-6.2-7-4.8c-1.7,0.7-2.5,4.6-3,7.2
		c-2.6,16-6.2,31.8-5.2,48.2c-28.8,0.3-57.5,1-86.3,1c-45.4,0-90.8-0.5-136.2-0.8c-12.5-0.1-25,0-37.4,0c-1.8-2.7-3.8-5.4-5.5-8.2
		c-3.2-5.4-7.4-10.5-9.1-16.4c-1.3-4.5-3-5.5-7-5.5c-9.2,0.1-18.5-0.1-27.7,0c-14.6,0.2-29.2,0.7-43.8,0.9c-6,0.1-12,0-18,0
		c-1.3,0.2-3.1,0-3.7,0.7c-5.5,6.8-10.7,13.9-16.1,20.7c-0.9,1.1-2.8,1.4-4.3,2.1c-0.4,0.2-0.8,0.4-1.3,0.5c0,1.5,0,3,0,4.8
		c-9.4,0-18.5,0-27.6,0c-0.7-2.9-1.5-5.7-2-8.6c-1.7-10.3-3.3-20.7-5.1-31c-0.1-0.6-1.9-0.8-2.9-1.2c0.2-3.6-2.4-3.9-5-4
		c-4.7-0.1-9.3,0-14,0c-0.4-6.8-0.8-13.7-1.3-21.6c-2.7,1.9-4.5,3.3-6.3,4.6c-6.1,4.7-12.3,9.3-18.4,14c-7.7,0-15.3,0-23,0
		c5.2-4.1,10.5-7.9,15.4-12.4C-958.8,427.9-957.8,424.8-956.3,422.2z"/>
	<path class="coffee12" d="M-734.3,490.2c12.5,0,25,0,37.4,0c45.4,0.3,90.8,0.7,136.2,0.8c28.8,0,57.5-0.6,86.2-1c2,6.3,4,12.7,6.2,19
		c1.4,4-0.2,9.8,6.2,11.1c-0.6,7.6-0.2,8.1,7.3,8.1c3.7,0,7.3-0.2,11,0c3,0.2,4.4-0.9,5-3.9c2-10.1,4.3-20,6.5-30.1
		c2.2,6.9-1.5,14.9,3.9,21.2c0.4,0.4,0,1.5,0.3,1.9c0.7,0.8,1.7,1.3,2.6,1.8c0.5,1,0.7,2.3,1.4,3c5.7,4.9,12.6,6.5,19.8,6.8
		c0.9,0,2.4-2.2,2.8-3.6c3.5-11.7,6.8-23.4,10.2-35.2c3.5-0.3,3,2.3,2.9,4.4c-0.3,7.3,0,14.6,3.2,21.3c1.8,3.7,4.5,6.9,6.8,10.3
		c1.4,0.7,2.7,1.7,4.1,1.9c3,0.5,6.2,0.5,9.3,0.9c5.5,0.8,6.5,0,6.9-5.8c6.5,0.3,13.1,0.8,19.6,0.7c1.8,0,3.6-1.7,5.4-2.5
		c0.6-0.4,1.3-0.8,1.9-1.3c-1.2,3.8,0.4,5.7,4.1,5.9c7.1,0.4,14.2,0.6,21.3,1.2c4.6,0.4,6.5-1.8,7.6-5.9c2.2-8.5,4.6-16.8,7-25.3
		c0.5,0.4,1.2,0.7,1.5,1.3c4.9,9.4,10.2,18.6,14.3,28.3c1.8,4.2,0.9,9.5,1.2,14.3c-2.9,0-5.9,0.1-8.8,0.1
		c-64.5,0-128.9,0.1-193.4,0.2c-146.2,0.2-292.4,0.6-438.7,0.7c-72.1,0-144.2-0.5-216.3-0.8c-3.7,0-7.4,0-11.1-0.4
		c-1.6-0.2-3.9-1-4.3-2.1s1.1-2.9,1.8-4.5c3.7-4,7.3-8,10.9-12c0.3,1.5,0.7,2.9,0.8,4.4c0.3,7.5,1,8,8.7,7.1
		c6.8-0.8,13.6-1.1,20.3-1.6c3.5,0.7,5.4-1.3,7.3-3.9c2.8-3.8,5.9-7.3,8.9-11c0.7,3.9,1.3,7.8,2,11.7c0.9,5,2.5,6.2,7.6,5.2
		c4.9-0.9,9.7-2.1,14.5-2.9c6.3-1.1,7-2.2,5.6-8.5c-2.3-10.5-4.4-21-6.7-31.4c10.3,0,20.5,0,30.8,0.1c-0.6,12.3-1.2,24.5-1.8,36.8
		c-0.2,3.7,1.2,5.1,5.1,6.4c10.1,3.3,20,1.2,30,0.5c1.7-0.1,3.3-1.8,5-2.7c3.6-4,7.2-8,10.8-12c0.3,3.9,0.9,7.8,1,11.8
		c0.1,3.7,2.2,4.3,5.2,4.2c7.4-0.4,14.8-0.6,22.2-1.1c1.3-0.1,2.5-1.2,3.7-1.9c1.6-1,3.2-2,4.8-2.9c0.8,3.5,3.1,5.4,6.6,5.5
		c6.9,0.2,13.9,0.4,20.8,0.1c1.4-0.1,2.6-2.4,3.9-3.7c3.3,1.6,4.7-0.1,5.8-3c2.2-5.7,4.9-11.3,7-17c2.5-6.9,7.7-13,6.1-21.1
		c9.1,0,18.2,0,27.6,0c0-1.8,0-3.2,0-4.8c0.4-0.2,0.8-0.3,1.3-0.5c1.5-0.7,3.4-1,4.3-2.1c5.5-6.8,10.7-13.9,16.1-20.7
		c0.6-0.8,2.4-0.5,3.7-0.7c-7,9.7-14,19.4-21,29.1c-0.7,1.5-1.7,3-1.9,4.6c-0.5,4.6-1,9.2-0.9,13.8c0.1,6.3,0.5,12.5,1,18.7
		c0.2,1.8,1.1,4,3,0.8c2.1,1,4.2,2.9,6.3,2.8c7.8-0.3,15.5-1.5,23.2-1.8c13.6-0.6,27.2-0.7,40.8-1c19.1-0.5,38.2-0.9,57.4-1.4
		c1.4-9.6-1.4-20.1,2-30.8c1.2,2.2,2,3.6,2.7,5c0.5-0.2,1-0.3,1.4-0.5C-732.4,497.1-733.3,493.6-734.3,490.2z"/>
	<path class="coffee13" d="M-274.4,540.1c-0.3-4.8,0.5-10.1-1.2-14.3c-4.1-9.7-9.4-19-14.3-28.3c-0.3-0.5-1-0.9-1.5-1.3
		c4-12.3,8-24.7,12-37c4.1-5.5,6.2-11.8,6-18.6c0-1.5-1.2-3.3-2.4-4.4c-3.6-3.2-7.4-6-11.2-8.9c-1.1-0.8-2.4-1.4-3.6-2.1
		c-0.3,0.4-0.5,0.7-0.8,1.1c3.3,3.7,6.5,7.3,9.8,10.9c-6.4,0.8-12.9,1.5-19.3,2.5c-2,0.3-3.8,1.7-5.7,2.6c-1.8-1.5-3.9-2.8-5.5-4.6
		c-2.9-3.4-5.5-7-9-11.6c-1.1,3.4-1.6,5.5-2.5,7.6c-1.3,3.2-2.7,6.4-4.1,9.6c-0.9-1-1.9-1.8-2.6-2.9c-3.1-4.6-6.1-9.3-9.1-13.9
		c-0.5,0.3-1.1,0.6-1.6,0.9c2.1,3.7,4.1,7.4,6.6,12c-3.3,0-5.8,0.1-8.4,0c-4-0.3-7.9-0.8-11.9-1.2c-2.6-2.9-5-5.8-7.7-8.5
		c-1.3-1.3-3-2.2-4.4-3.3c-0.9,1.8-2.3,3.5-2.6,5.4c-0.9,5.8-1.4,11.7-2.1,17.6c0.3,0.7,0.7,1.3,1,1.9l0,0c0.4,0.3,0.7,0.7,1,1l0,0
		c0.4,0.3,0.7,0.7,1,1l0,0c0.3,0.3,0.7,0.7,1,1l0,0c1.3,2,2.7,4,4,6c-5.7,0.7-11.4,1.5-17,2.2c1.1-2.9,2.3-5.8,3.2-8.8
		c0.8-2.5,2.4-5.7,1.5-7.5c-3.3-6.5-7.4-12.6-11.3-18.9c-0.5,0.3-1.1,0.7-1.6,1c3.3,5.4,6.6,10.8,10,16.2c-4.2-0.9-7.4-3-11-4.2
		c-2.8-0.9-5.9-0.8-8.9-1.2c-2.7-5.6-5.3-11.2-8-16.8c45.1,0,90.1,0,135.4,0c0.2,1.3,0.5,2.2,0.5,3.2c0.4,27.6,0.8,55.2,0.9,82.8
		c0.1,9.6-0.6,19.2-0.9,28.8C-270.5,539.8-270.9,542-274.4,540.1z"/>
	<path class="coffee11" d="M-1098.3,424.1c1.3-0.7,2.6-1.9,3.9-1.9c37.9-0.4,75.8-0.8,113.7-1c7.5,0,14.9,0.6,22.4,0.9
		c-6.3,4.7-12.7,9.3-19,14c-1.1-0.3-2.2-0.9-3.3-1c-9.5-0.3-18.9-0.5-28.3-0.7c-0.8,0-1.8,0.7-2.5,1.3c-3.5,3.1-7.1,6-10.3,9.4
		c-2.2,2.3-3.8,5.3-5.6,8c-0.3,0-0.6,0-0.9,0c-0.3,0.3-0.7,0.6-1,0.9c-1,1.1-2.8,2.2-2.9,3.4c-0.6,6.9-0.8,13.8-1.2,20.7
		c-1-1-2.8-1.8-2.8-2.9c-0.9-9-1.7-18-2-27c-0.2-4.2-1.6-5-5.1-3.2c-1.2-1-2.6-2.8-3.7-2.7c-5.8,0.6-11.6,1.8-17.3,2.8
		c0.2-0.6,0.3-1.3,0.5-1.9c0.8-4.3-1.3-11.5-3.8-11.9c-7.9-1.5-15.8-2.8-23.7-4.2c-1-0.3-2-0.6-3-0.9c-1.3-0.3-2.6-0.7-3.9-1
		C-1098.3,424.8-1098.3,424.5-1098.3,424.1z"/>
	<path class="coffee2" d="M-1098.3,424.1c0,0.3,0,0.7,0.1,1c-10.7,5.3-21.4,10.7-32,16l0,0c-1.1,0.4-2.2,0.8-3.3,1.2
		c0.4,0.3,0.9,0.6,1.4,0.9c-0.7,6.4-1.8,12.7-1.9,19.1c-0.3,19.6-0.1,39.2-0.1,58.8c-3.7,4-7.3,8-10.9,12c-0.4-1-1-2.1-1-3.1
		c-0.4-25.7-0.8-51.5-0.9-77.2c0-9.9,0.9-19.8,1.4-31.2c10,0,20.1-0.1,30.3,0c4.2,0,8.5,0.4,12.7,0.8
		C-1101.2,422.7-1099.8,423.6-1098.3,424.1z"/>
	<path class="coffee14" d="M-406.4,422.3c2.7,5.6,5.3,11.2,8,16.8c-0.5,0.8-1.3,1.5-1.6,2.4c-5.2,15.2-10.4,30.4-15.4,45.6
		c-3.5,10.6-6.7,21.3-10.1,32c-0.9-0.6-1.9-1.1-2.6-1.8c-0.4-0.4,0-1.5-0.3-1.9c-5.4-6.3-1.6-14.3-3.9-21.2
		c1.4-5.9,3.1-11.8,4.3-17.8c1.7-8.7,3.1-17.5,4.6-26.3c-0.4-2-0.9-4.1-1.3-6.1c-0.5,0-0.9,0-1.4,0.1c2.6-7.3,5.1-14.6,7.7-21.9
		C-414.4,422.2-410.4,422.2-406.4,422.3z"/>
	<path class="coffee13" d="M-977.3,436.2c6.3-4.7,12.7-9.3,19-14c0.7,0,1.3,0,2,0c-1.5,2.6-2.5,5.7-4.6,7.6c-4.8,4.4-10.2,8.3-15.4,12.4
		c-2.7,0.7-5.3,1.3-8,2C-981.9,441.5-979.6,438.9-977.3,436.2z"/>
	<path class="coffee15" d="M-851.3,334.3c-0.3,1.3-0.6,2.7-0.9,4.1c-4.5,0.5-9.1,0.8-13.6,1.7c-3.1,0.6-6.4,1.7-9,3.4
		c-1.2,0.8-1.1,3.7-1.5,5.7c-4.3,0.1-4.5-3-3-5.2c1.8-2.6,4.7-5.5,7.7-6.3C-865,335.9-858.1,335.3-851.3,334.3z"/>
	<path class="coffee8" d="M-593.3,396.1c-4.7,0-9.4,0-14.1,0C-602.7,396.1-598,396.1-593.3,396.1z"/>
	<path class="coffee16" d="M-605.3,268.2c0.3,4.4-2.4,5.9-6.2,6c-12.6,0.4-25.2,1-37.8,1c-119.5,0.1-239.1,0-358.6,0.1
		c-5.9,0-11.8,1.1-17.7,1.6c-0.9,0.1-1.8-0.4-2.7-0.7c0-72.5,0-145,0-218c2.7,0,4.5,0,6.3,0c15.3,0,30.6,0,46,0
		c122.9,0,245.8,0,368.7,0c4,2,2.7,6.4,1.7,8.2c-2.8,5-0.5,9.2,0.1,13.8c0.4,3.3,0.2,6.8,0.2,10.1c-1.1,0.2-2.2,0.4-4.8,0.9
		c-0.1-4.6-0.1-8.9-0.4-13.2c-0.2-2.8-0.3-5.7-1.4-8.2c-1.1-2.6-3.4-3.9-5.5-0.4c-25.1-0.3-50.3-0.9-75.4-0.9
		c-105.8-0.1-211.5-0.1-317.3-0.1c-1.6,0-3.2,0.2-5.1,0.3c0,4.2,0,8,0,11.8c0,0.6,0,1.3-0.1,1.9c0,3,0,6,0,9c0,1.6,0,3.3,0,4.9
		c0,18.7,0,37.4,0,56.1c0,1.6,0.1,3.3,0.1,4.9c-0.1,21.7-0.1,43.4-0.2,65.1c0,1.7,0,3.3,0.1,5c0.3,12.5,0.6,25.1,0.9,38
		c2.8,0,4.7,0,6.7,0c30.6-0.3,61.2-0.8,91.8-0.9c58.6-0.2,117.2-0.1,175.7-0.1c1.3,0,2.7,0.1,4,0.2c1.1,0.3,2.2,0.8,3.3,0.8
		c15.1,0.1,30.2,0.1,45.3,0c1.1,0,2.2-0.5,3.2-0.8c3.5,0.3,6.9,0.8,10.3,0.8c14.6,0.1,29.2,0.1,43.8,0.2c0,2.9,1.2,4.8,4.3,4.6
		C-619.1,269.4-612.2,268.8-605.3,268.2z"/>
	<path class="coffee17" d="M-607.4,58.2c-122.9,0-245.8,0-368.7,0c-15.3,0-30.6,0-46,0c-1.8,0-3.6,0-6.3,0c0,72.9,0,145.5,0,218
		c-1.8,0-3.6,0-5.3,0c0-76.5,0-152.3,0-229c2.8,0,4.9,0,7,0c137.4,0,274.8,0,412.3,0c7,0,7,0,7,7C-607.3,55.5-607.4,56.8-607.4,58.2
		z"/>
	<path class="coffee18" d="M-605.3,268.2c-6.9,0.6-13.8,1.2-20.7,1.7c-3.2,0.2-4.3-1.7-4.3-4.6c4.2-0.6,8.4-1.3,13-1.9
		c0-1.9,0-3.8,0-5.5c0-51.4,0-102.8,0-154.3c0-1.8-0.1-3.6-0.2-5.5c0-0.6,0-1.2,0-1.8c0-2.4,0-4.8,0-7.2c0-1.6,0-3.2,0-4.8
		c0-5,0.1-10,0.2-15c2.1-3.5,4.4-2.2,5.5,0.4c1.1,2.5,1.2,5.4,1.3,8.2c0.3,4.3,0.3,8.5,0.4,13.2c2.5-0.5,3.6-0.7,4.8-0.9
		c0,52.3,0,104.5,0.1,156.8c0,5.3,0.7,10.6,0.9,15.9C-604.4,264.6-605,266.4-605.3,268.2z"/>
	<path class="coffee19" d="M-996.6,402.5c-50.8,0-101.6,0-153.8,0c52.2-2.4,103.1-0.8,153.9-1.4C-996.6,401.6-996.6,402.1-996.6,402.5z"
		/>
	<path class="coffee12" d="M-944.3,689.2c1.3-2.5,2.6-4.9,4.3-7.9c0.1,0.1-0.6-0.5-0.8-1.2c-0.5-1.8-0.8-3.8-1.1-5.6
		c2.5-0.2,5-0.8,7.4-0.5c1.9,0.2,3.7,1.5,5.6,2.3c0.6,0.3,1.3,0.4,1.8,0.7c1.3,0.9,2.5,12.5,1,13.2c-3.1,1.5-5.8,6.1-10.3,1.8
		c-1.5-1.4-4.5-1.2-6.9-1.7l0.1,0.1C-943.6,689.8-944,689.5-944.3,689.2C-944.3,689.1-944.3,689.2-944.3,689.2z M-929.5,679.4
		c-1,0-3,0.5-4.6-0.1s-2.7-2.3-4-3.6c-0.7,0.3-1.4,0.5-2.1,0.8c5.4,4.7,1.9,7.8-1,11c4.2,0.7,7.8,1.4,11.2,2
		C-929.7,685.5-929.6,682.9-929.5,679.4z"/>
	<path class="coffee12" d="M-895.5,667.2c-5.1-0.8-7.8-2.3-7.8-6.9c0-3.4,3.6-7.1,7-7.1c3.3,0,6.7,4.4,5.8,8.9
		C-891,664.1-893.8,665.5-895.5,667.2z"/>
	<path class="coffee4" d="M-956.2,715.1c-7-2-11.4-6.8-14.5-13.1c-0.3-0.6-0.2-1.6-0.1-2.3c0.3-2.3,0.4-4.6,0.9-6.8
		c0.5-2,1.6-3.8,2.4-5.7c0.8,9.4,3.9,18,9.9,25.4C-956.9,713.2-956.6,714.2-956.2,715.1z"/>
	<path class="coffee12" d="M-943.3,690.1c-0.5,1.9-0.4,4.1-1.4,5.6c-1.7,2.6-4.2,4.5-7.5,2.5c-3.1-1.9-4.7-4.8-2.9-8.3
		c1.7-3.3,4.6-4.1,8-2.5c1,0.5,1.9,1.2,2.9,1.9l0-0.1C-944,689.5-943.6,689.8-943.3,690.1C-943.3,690.2-943.3,690.1-943.3,690.1z"/>
	<path class="coffee4" d="M-966.3,681.2c-0.7-5.4,2.5-8.1,6.8-10.1C-961.7,674.5-964,677.9-966.3,681.2z"/>
	<path class="coffee12" d="M-741,640.3c1.3,2.9,2.2,4.8,3,6.7c0.3,0.7,0.8,1.6,0.6,2.3c-0.4,1.6-1.4,4.4-1.7,4.3c-5-1-6,9.2-11.7,4.4
		c-2.5-2.1-3.9-5.7-5.4-8.7c-0.3-0.6,0.6-2.6,1.4-2.9c3.4-1.2,6.1-2.7,7.7-6.4C-746.9,639.3-742.5,640.2-741,640.3z M-751.7,649.5
		c0.5,1.1,1.2,2.7,2,4.3c0.3,0.7,0.6,1.3,1,2c0.8-0.5,1.7-0.8,2.3-1.4c1.7-1.6,3.4-3.3,5.3-5.3c-0.5-1.3-1.3-3.8-2.5-6.1
		c-0.2-0.3-2.6,0-3.3,0.7C-748.8,645.5-750.2,647.6-751.7,649.5z"/>
	<path class="coffee12" d="M-696,670.2c-5.4,0-7.6-1.9-7.5-6.4c0.2-4.7,2.8-7.8,6.7-7.6c3.1,0.1,7.4,4.8,7.3,7.8
		C-689.7,667.3-693.3,670.2-696,670.2z"/>
	<path class="coffee12" d="M-766.8,651.2c-2.4,0-4.5-2-4.5-5.8c0-4.7,2.6-7.4,7-7.3c3.7,0.1,6.5,1.8,6.9,5.7
		C-757.1,647.6-761.2,651.2-766.8,651.2z"/>
	<path class="coffee4" d="M-732.3,632.1c0.7,0.3,1.3,0.7,2,1C-731,632.8-731.7,632.4-732.3,632.1z"/>
	<path class="coffee20" d="M-866.4,490.3c7-9.7,14-19.4,21-29.1c6,0,12,0.1,18,0c14.6-0.3,29.2-0.7,43.8-0.9c9.2-0.1,18.5,0.1,27.7,0
		c4,0,5.7,1,7,5.5c1.7,5.9,5.9,11,9.1,16.4c1.7,2.8,3.6,5.5,5.5,8.2c1,3.4,1.9,6.8,2.8,10.2c-0.5,0.2-1,0.3-1.4,0.5
		c-0.8-1.4-1.5-2.8-2.7-5c-3.4,10.7-0.6,21.2-2,30.8c-19.3,0.5-38.3,0.9-57.4,1.4c-13.6,0.3-27.2,0.5-40.8,1
		c-7.8,0.3-15.5,1.5-23.2,1.8c-2,0.1-4.2-1.8-6.3-2.8c0-9.6-0.1-19.1,0-28.7c0-1.3,1.5-3.8,2.3-3.8c9.6-0.4,19.2-0.7,28.7-0.5
		c6.2,0.2,12.3,1.5,18.5,1.8c7.4,0.3,14.8,0.2,22.2,0c9.8-0.2,19.5-0.6,29.3-0.9c4.8-0.2,3.8-2.4,1.8-5c-9.3,0-18.6-0.1-27.9-0.1
		c-23.7,0.4-47.5,0.8-71.2,1C-863.1,492.1-864.7,490.9-866.4,490.3z M-813.2,520.2c3.3-1.5,2.3-3.7,0.6-5.4c-2-2-10.1-0.3-12.6,2.3
		c-2.3,2.7,0.2,3.8,1.9,3.8C-820,521-816.6,520.4-813.2,520.2z M-839.2,521.2c0.9-1,1.9-2,2.8-3c-1.1-1-2-2.7-3.2-2.8
		c-3.4-0.4-7-0.3-10.4,0c-0.8,0-1.6,1.2-2.3,1.9c0.5,1.3,1,3.8,1.6,3.8C-846.9,521.4-843,521.2-839.2,521.2z M-763.6,520.9
		c0-0.7,0-1.5,0-2.2c-3-2.8-6.6-3-10.4-2c-0.8,0.2-2,1.3-2,1.8c0.2,1,1.1,2.5,1.8,2.5C-770.7,521.2-767.2,521-763.6,520.9z
		 M-745.3,519.4c-3-4.2-6.9-4.4-11.4,0C-752.4,519.4-749,519.4-745.3,519.4z"/>
	<path class="coffee21" d="M-984.3,444.2c2.7-0.7,5.3-1.3,8-2c7.7,0,15.3,0,23,0c0,7-0.2,13.9,0.1,20.9c0,1.7,1.3,3.4,1.9,5.2
		c0,0.3,0,0.6,0,1c-0.3,1.5-1,3.1-0.9,4.7c0.2,5.4,0.6,10.9,1,16.3c-1,1.8-2.8,3.6-2.9,5.5c-0.4,5.5-0.3,11.1-0.1,16.7
		c0.2,6.6,0.7,13.2,1,19.9c-1.2,0.7-2.4,1.8-3.7,1.9c-7.4,0.5-14.8,0.7-22.2,1.1c-3,0.2-5.2-0.4-5.2-4.2c-0.1-3.9-0.6-7.9-1-11.8
		c0.4-2.5,1.1-4.9,1.1-7.4c-0.1-9.2-0.8-18.5-0.8-27.7c0-12.6,3.9-25.1,1.7-37.8C-983.7,445.6-984,444.9-984.3,444.2z"/>
	<path class="coffee22" d="M-423.4,450.2c-1.5,8.8-2.9,17.5-4.6,26.3c-1.2,6-2.8,11.9-4.3,17.8c-2.2,10-4.5,20-6.5,30.1
		c-0.6,3.1-2,4.1-5,3.9c-3.6-0.2-7.3,0-11,0c-7.5,0-7.9-0.5-7.3-8.1c0.3-0.6,0.6-1.2,0.7-1.8c3.4-16.8,6.7-33.7,10.1-50.6
		c0.9-4.5,1.9-9,2.9-13.5c0.3-7.4,6.3-6.3,10.7-7C-432.7,446.5-427.5,446.1-423.4,450.2z"/>
	<path class="coffee14" d="M-898.3,490.1c1.7,8.1-3.5,14.2-6.1,21.1c-2.1,5.7-4.8,11.3-7,17c-1.1,3-2.5,4.6-5.8,3
		c-2.2-14.3-4.4-28.7-6.6-43c-1-6.3-1.8-12.6-2.7-18.9c2.8-3.6,5.4-7.5,8.5-10.9c3-3.3,6.4-6.2,9.7-9.3l0,0c1,0.4,2.8,0.7,2.9,1.2
		c1.8,10.3,3.4,20.7,5.1,31C-899.8,484.4-899,487.2-898.3,490.1z"/>
	<path class="coffee14" d="M-448.4,454.3c-1,4.5-2,9-2.9,13.5c-3.4,16.8-6.7,33.7-10.1,50.6c-0.1,0.6-0.5,1.2-0.7,1.8
		c-6.4-1.2-4.8-7-6.2-11.1c-2.2-6.3-4.1-12.7-6.2-19c-1-16.3,2.6-32.2,5.2-48.2c0.4-2.6,1.3-6.5,3-7.2c3.4-1.3,5.1,2.2,7,4.8
		c1.8,2.5,4.4,4.4,6.3,6.9C-451.2,448.8-450,451.6-448.4,454.3z"/>
	<path class="coffee14" d="M-951.3,468.2c-0.7-1.7-1.9-3.4-1.9-5.2c-0.2-7-0.1-13.9-0.1-20.9c6.1-4.7,12.3-9.3,18.4-14
		c1.8-1.4,3.6-2.7,6.3-4.6c0.5,7.9,0.9,14.7,1.3,21.6c0,0.3,0,0.7,0,1c-3.6,2.9-7.4,5.5-10.7,8.6
		C-942.6,459.1-946.9,463.7-951.3,468.2z"/>
	<path class="coffee23" d="M-927.3,446.1c0-0.3,0-0.7,0-1c4.7,0,9.3,0,14,0c2.6,0,5.2,0.3,5,4l0,0c-5.3-0.3-10.6-0.6-15.8-1.1
		C-925.3,448-926.3,446.8-927.3,446.1z"/>
	<path class="coffee24" d="M-1033.3,478.2c0.3-6.9,0.6-13.8,1.2-20.7c0.1-1.2,1.9-2.3,2.9-3.4c0.3-0.3,0.7-0.6,1-0.9c0.3,0,0.6,0,0.9,0
		c6.9,0.3,13.8,0.5,20.7,1c4.8,0.4,9.5,1.3,14.3,2c-0.3,14.6-0.3,29.2-1,43.8c-0.5,10.4-1.8,20.8-2.7,31.1c-1.7,1-3.3,2.6-5,2.7
		c-10,0.7-19.9,2.8-30-0.5c-3.9-1.3-5.3-2.7-5.1-6.4c0.6-12.3,1.2-24.5,1.8-36.8C-1034.1,486.3-1033.7,482.2-1033.3,478.2z"/>
	<path class="coffee25" d="M-279.5,459.1c-4,12.3-8,24.7-12,37c-2.3,8.4-4.8,16.8-7,25.3c-1.1,4.1-3,6.3-7.6,5.9
		c-7.1-0.6-14.2-0.8-21.3-1.2c-3.8-0.2-5.4-2.1-4.1-5.9c0.3-2,0.6-3.9,1-5.8c2.8-7.7,5.5-15.3,8.3-22.9c4.8-13.1,9.4-26.3,14.4-39.4
		c1.2-3.3,2.1-6.3,1.2-9.8c1.9-0.9,3.7-2.3,5.7-2.6c6.4-1,12.9-1.7,19.3-2.5c1.9,1,3.9,2.1,6.9,3.7c-1.4,4.6-2.9,9.5-4.4,14.5
		C-279.4,456.5-279.3,457.8-279.5,459.1z"/>
	<path class="coffee26" d="M-1134.3,521.1c0-19.6-0.1-39.2,0.1-58.8c0.1-6.4,1.2-12.8,1.9-19.1c0.6-0.2,1.2-0.3,1.8-0.5
		c8.4,1.5,16.8,3,25.2,4.5c-0.6,3-1.8,6-1.8,9c-0.1,5.4,0.5,10.9,0.7,16.3c0.6,19.5,1.2,39,1.8,58.5c-6.8,0.5-13.6,0.8-20.3,1.6
		c-7.7,0.8-8.3,0.4-8.7-7.1C-1133.6,524.1-1134,522.6-1134.3,521.1z"/>
	<path class="coffee27" d="M-425.4,519.2c3.4-10.7,6.6-21.4,10.1-32c5-15.2,10.2-30.4,15.4-45.6c0.3-0.9,1-1.6,1.6-2.4
		c3,0.3,6.1,0.2,8.9,1.2c3.5,1.2,6.8,3.2,11,4.2c-3.3-5.4-6.6-10.8-10-16.2c0.5-0.3,1.1-0.7,1.6-1c3.8,6.3,8,12.3,11.3,18.9
		c0.9,1.8-0.8,5-1.5,7.5c-0.9,3-2.1,5.9-3.2,8.8c-0.3,1.3-0.6,2.5-1,3.8c-3.3,8-6.6,16.1-9.9,24.1c-3.4,11.7-6.7,23.5-10.2,35.2
		c-0.4,1.4-1.9,3.6-2.8,3.6c-7.2-0.3-14.1-1.9-19.8-6.8C-424.8,521.5-425,520.2-425.4,519.2z"/>
	<path class="coffee23" d="M-333.3,521.4c-1.8,0.9-3.6,2.5-5.4,2.5c-6.5,0.1-13.1-0.4-19.6-0.7c0.3-20.4,0.6-40.8,0.9-61.2
		c1.1-7.4,2.1-14.8,3.2-22.2c5.2,0.4,10.4,1,15.7,1.2c5.8,0.2,7.6,2.5,6.5,8.5c-0.3,1.4,0,2.8,0,5.5c1.6-3.7,2.6-5.8,3.5-8
		c0,1.1,0,2.1,0,3.2c-0.3,1.2-0.8,2.5-0.9,3.7c-0.7,9.2-1.2,18.5-2,27.7c-1.1,11.8-2.5,23.6-3.6,35.5
		C-335.1,518.5-333.9,520-333.3,521.4z"/>
	<path class="coffee25" d="M-1065.2,490.2c2.2,10.5,4.3,21,6.7,31.4c1.4,6.3,0.7,7.3-5.6,8.5c-4.9,0.9-9.7,2-14.5,2.9
		c-5,0.9-6.7-0.2-7.6-5.2c-0.7-3.9-1.3-7.8-2-11.7c-0.5-4.7-0.8-9.5-1.6-14.2c-1.2-6.6-3.1-13-4.4-19.5c-0.8-4.2-0.4-8.6-1.5-12.7
		c-0.8-3.2,0-5,2.4-6.6c1.4-0.4,2.8-0.9,4.2-1.1c5.6-0.6,10.8-4.4,16.7-1.9C-1070,470.2-1067.6,480.2-1065.2,490.2z"/>
	<path class="coffee28" d="M-926.5,469.3c0.9,6.3,1.8,12.6,2.7,18.9c2.2,14.3,4.4,28.7,6.6,43c-1.3,1.3-2.6,3.6-3.9,3.7
		c-6.9,0.3-13.8,0.1-20.8-0.1c-3.5-0.1-5.8-2-6.6-5.5c-0.6-10.3-1.2-20.6-1.8-31c-0.2-2.7-0.6-5.5-1-8.2c-0.3-5.4-0.8-10.9-1-16.3
		c0-1.5,0.6-3.1,0.9-4.7c5.3,0.2,10.6,0.5,15.8,0.5C-932.5,469.7-929.5,469.4-926.5,469.3z"/>
	<path class="coffee14" d="M-1093.3,463.2c-2.5,1.6-3.3,3.4-2.5,6.6c1,4.1,0.7,8.5,1.5,12.7c1.2,6.6,3.1,13,4.4,19.5
		c0.9,4.7,1.1,9.4,1.6,14.2c-3,3.7-6.1,7.2-9,11c-1.9,2.5-3.8,4.6-7.3,3.9c-0.6-19.5-1.2-39-1.8-58.5c-0.2-5.5-0.8-10.9-0.7-16.3
		c0.1-3,1.2-6,1.8-9c9.8-5.1,20.9-7.9,30.9-15.6c-2.4-0.8-3.5-1.3-4.7-1.5c-4.1-1-8.2-2-12.3-3c7.9,1.4,15.8,2.7,23.7,4.2
		c2.4,0.5,4.5,7.7,3.8,11.9c-0.1,0.7-0.3,1.3-0.5,1.9c-7.3,3.9-14.6,7.7-21.7,11.9C-1088.7,458.6-1090.9,461.1-1093.3,463.2z"/>
	<path class="coffee19" d="M-357.4,462.1c-0.3,20.4-0.6,40.8-0.9,61.2c-0.3,5.7-1.4,6.5-6.9,5.8c-3.1-0.4-6.2-0.4-9.3-0.9
		c-1.4-0.2-2.7-1.3-4.1-1.9c0-3.3,0.2-6.7,0-10c-0.9-16.7-1.9-33.4-2.9-50.1c0.3-1.3,0.6-2.5,1-3.8c5.7-0.7,11.4-1.5,17-2.2
		c0.9,0.3,1.8,0.6,2.8,1C-359.5,461.4-358.4,461.8-357.4,462.1z"/>
	<path class="coffee23" d="M-1065.2,490.2c-2.4-10-4.8-20-7.2-30c9.7-5,19.4-10,29.1-15.1c3.5-1.8,4.9-1,5.1,3.2c0.4,9,1.1,18,2,27
		c0.1,1,1.9,1.9,2.8,2.9c-0.4,4-0.7,8-1.1,12.1C-1044.7,490.3-1055,490.2-1065.2,490.2z"/>
	<path class="coffee14" d="M-996.1,531.2c0.9-10.4,2.3-20.7,2.7-31.1c0.7-14.6,0.7-29.2,1-43.8c3-3.3,6-6.7,9-10
		c2.3,12.7-1.6,25.2-1.7,37.8c0,9.2,0.6,18.5,0.8,27.7c0,2.5-0.7,4.9-1.1,7.4C-989,523.2-992.5,527.2-996.1,531.2z"/>
	<path class="coffee11" d="M-762.3,491.2c2,2.6,2.9,4.8-1.8,5c-9.8,0.3-19.5,0.7-29.3,0.9c-7.4,0.2-14.8,0.3-22.2,0
		c-6.2-0.3-12.3-1.6-18.5-1.8c-9.6-0.2-19.2,0-28.7,0.5c-0.9,0-2.3,2.5-2.3,3.8c-0.2,9.5-0.1,19.1,0,28.7c-1.9,3.2-2.8,1-3-0.8
		c-0.5-6.2-0.9-12.5-1-18.7c0-4.6,0.4-9.2,0.9-13.8c0.2-1.6,1.3-3.1,1.9-4.6c1.7,0.6,3.3,1.8,5,1.8c23.7-0.2,47.5-0.7,71.2-1
		C-780.9,491.1-771.6,491.2-762.3,491.2z"/>
	<path class="coffee3" d="M-381.4,466.1c1,16.7,2,33.4,2.9,50.1c0.2,3.3,0,6.7,0,10c-2.3-3.4-5-6.6-6.8-10.3c-3.2-6.7-3.5-14-3.2-21.3
		c0.1-2,0.7-4.6-2.9-4.4C-388,482.2-384.7,474.1-381.4,466.1z"/>
	<path class="coffee27" d="M-333.3,521.4c-0.6-1.4-1.8-2.9-1.7-4.2c1.1-11.8,2.5-23.6,3.6-35.5c0.9-9.2,1.3-18.5,2-27.7
		c0.1-1.3,0.6-2.5,0.9-3.7c0.3,5.9,0.9,11.8,0.7,17.8c-0.2,7.4-1,14.8-1.5,22.2c-0.4,8-0.8,16-1.2,24.1c-0.3,2-0.6,3.9-1,5.8
		C-332,520.6-332.7,521-333.3,521.4z"/>
	<path class="coffee14" d="M-951.3,490.1c0.3,2.7,0.8,5.4,1,8.2c0.7,10.3,1.2,20.6,1.8,31c-1.6,1-3.2,2-4.8,2.9
		c-0.3-6.6-0.8-13.2-1-19.9c-0.2-5.6-0.3-11.2,0.1-16.7C-954,493.7-952.3,492-951.3,490.1z"/>
	<path class="coffee14" d="M-329.2,490.3c0.5-7.4,1.3-14.8,1.5-22.2c0.1-5.9-0.4-11.8-0.7-17.8c0-1.1,0-2.1,0-3.2
		c0.3-1.3,0.6-2.6,0.9-3.9c1.4-3.2,2.8-6.3,4.1-9.6c0.8-2,1.4-4.2,2.5-7.6c3.5,4.6,6.1,8.2,9,11.6c1.5,1.8,3.6,3,5.4,4.6
		c0.9,3.4,0.1,6.5-1.2,9.8c-4.9,13.1-9.6,26.2-14.4,39.4c-4.1-4-2.4,3.9-5.6,2.3C-328.1,492.8-328.7,491.5-329.2,490.3z"/>
	<path class="coffee14" d="M-357.4,462.1c-1.1-0.3-2.1-0.7-3.2-1c-2.3-2.3-4.5-4.6-6.8-7l0,0c-0.3-0.3-0.7-0.7-1-1l0,0
		c-0.4-0.3-0.7-0.7-1-1l0,0c-0.4-0.3-0.7-0.7-1-1l0,0c-0.3-0.7-0.7-1.3-1-1.9c0.7-5.9,1.2-11.8,2.1-17.6c0.3-1.9,1.7-3.6,2.6-5.4
		c1.5,1.1,3.2,2,4.4,3.3c2.7,2.7,5.1,5.7,7.7,8.5c0.1,0.6,0.2,1.2,0.3,1.7C-355.2,447.3-356.3,454.7-357.4,462.1z"/>
	<path class="coffee27" d="M-354.2,439.9c-0.1-0.6-0.2-1.2-0.3-1.7c4,0.4,7.9,0.9,11.9,1.2c2.5,0.2,5,0,8.4,0c-2.6-4.6-4.6-8.3-6.6-12
		c0.5-0.3,1-0.6,1.6-0.9c3,4.6,6.1,9.3,9.1,13.9c0.7,1.1,1.7,1.9,2.6,2.9c-0.3,1.3-0.6,2.6-0.9,3.9c-1,2.2-1.9,4.3-3.6,8
		c0-2.7-0.2-4.2,0-5.5c1.1-6-0.8-8.2-6.5-8.5C-343.7,440.9-348.9,440.3-354.2,439.9z"/>
	<path class="coffee28" d="M-279.5,459.1c0.1-1.3,0-2.6,0.4-3.8c1.4-5,3-9.9,4.4-14.5c-3-1.6-4.9-2.7-6.9-3.7c-3.3-3.7-6.5-7.3-9.8-10.9
		c0.3-0.4,0.5-0.7,0.8-1.1c1.2,0.7,2.5,1.3,3.6,2.1c3.8,2.9,7.6,5.8,11.2,8.9c1.2,1,2.3,2.9,2.4,4.4
		C-273.3,447.3-275.3,453.6-279.5,459.1z"/>
	<path class="coffee27" d="M-367.4,454.1c2.3,2.3,4.5,4.6,6.8,7c-0.9-0.3-1.8-0.6-2.8-1C-364.7,458.2-366,456.1-367.4,454.1z"/>
	<path class="coffee27" d="M-371.4,449.2c0.3,0.7,0.7,1.3,1,1.9C-370.7,450.5-371,449.9-371.4,449.2z"/>
	<path class="coffee27" d="M-368.4,453.1c0.3,0.3,0.7,0.7,1,1C-367.7,453.8-368,453.5-368.4,453.1z"/>
	<path class="coffee27" d="M-369.4,452.1c0.4,0.3,0.7,0.7,1,1C-368.7,452.8-369,452.5-369.4,452.1z"/>
	<path class="coffee27" d="M-370.4,451.1c0.4,0.3,0.7,0.7,1,1C-369.7,451.8-370,451.5-370.4,451.1z"/>
	<path class="coffee23" d="M-983.4,446.3c-3,3.3-6,6.7-9,10c-4.8-0.7-9.5-1.6-14.3-2c-6.9-0.5-13.8-0.7-20.7-1c1.8-2.7,3.4-5.6,5.6-8
		c3.2-3.4,6.8-6.3,10.3-9.4c0.7-0.6,1.7-1.3,2.5-1.3c9.5,0.1,18.9,0.4,28.3,0.7c1.1,0,2.2,0.6,3.3,1c-2.3,2.7-4.6,5.3-6.9,8
		C-984,444.9-983.7,445.6-983.4,446.3z"/>
	<path class="coffee13" d="M-1091.3,427.1c4.1,1,8.2,2,12.3,3c1.2,0.3,2.3,0.8,4.7,1.5c-9.9,7.6-21,10.4-30.9,15.6
		c-8.4-1.5-16.8-3-25.2-4.5c0-0.5,0.1-1,0.1-1.5l0,0c2.5-0.6,5.2-0.8,7.5-1.9c9.5-4.2,19-8.7,28.4-13.1
		C-1093.3,426.5-1092.3,426.8-1091.3,427.1z"/>
	<path class="coffee2" d="M-1043.3,445.2c-9.7,5-19.4,10-29.1,15.1c-5.9-2.5-11.1,1.3-16.7,1.9c-1.4,0.2-2.8,0.7-4.2,1.1
		c2.4-2.1,4.6-4.5,7.3-6.1c7.1-4.2,14.5-8,21.7-11.9c5.8-1,11.5-2.1,17.3-2.8C-1045.8,442.3-1044.5,444.2-1043.3,445.2z"/>
	<path class="coffee14" d="M-1094.3,426.2c-9.5,4.4-18.9,8.9-28.4,13.1c-2.3,1-5,1.3-7.5,1.9c10.7-5.3,21.4-10.7,32-16
		C-1096.9,425.5-1095.6,425.8-1094.3,426.2z"/>
	<path class="coffee23" d="M-1028.2,453.2c-0.3,0.3-0.7,0.6-1,0.9C-1028.9,453.8-1028.6,453.5-1028.2,453.2z"/>
	<path class="coffee14" d="M-1130.3,441.2c0,0.5-0.1,1-0.1,1.5c-0.6,0.2-1.2,0.3-1.8,0.5c-0.4-0.3-0.9-0.6-1.4-0.9
		C-1132.5,441.9-1131.4,441.6-1130.3,441.2z"/>
	<path class="coffee15" d="M-617.6,98.1c0.1,1.8,0.2,3.6,0.2,5.5c0,51.4,0,102.8,0,154.3c0,1.8,0,3.6,0,5.5c-4.6,0.7-8.8,1.3-13,1.9
		c-14.6,0-29.2,0-43.8-0.2c-3.5,0-6.9-0.5-10.3-0.8c-17.3,0-34.5,0-51.7,0c-1.3-0.1-2.7-0.2-4-0.2c-58.6,0-117.2,0-175.7,0.1
		c-30.6,0.1-61.2,0.6-91.8,0.9c-2,0-3.9,0-6.7,0c-0.3-13-0.6-25.5-0.9-38c88.1,0.3,176.1,0.7,264.2,1c41.8,0.1,83.6,0,125.4,0
		c1.3,0,2.8,0.2,4-0.2c0.9-0.3,2-1.5,2-2.3s-1.2-1.8-2.1-2.3c-0.8-0.4-2-0.2-3-0.2c-49.6-0.3-99.2-0.8-148.8-0.9
		c-80.6-0.2-161.2-0.1-241.8-0.1c0.1-21.7,0.1-43.4,0.2-65.1c4.5-0.3,8.9-0.8,13.4-0.8c47.9-0.4,95.9-0.7,143.8-1
		c50.4-0.3,100.9-0.7,151.3-1c26.8-0.1,53.6,0,80.5,0c1.3,0,2.8,0.3,4-0.1c1-0.4,1.8-1.6,2.7-2.4c-0.9-0.8-1.7-2-2.7-2.3
		c-1.2-0.4-2.6-0.1-4-0.1c-29.1,0.3-58.2,0.7-87.3,1c-59.8,0.4-119.5,0.7-179.3,1.1c-40.8,0.3-81.5,0.7-122.3,1
		c0-18.7,0-37.4,0-56.1c18.6,0.3,37.3,0.7,55.9,1c24.8,0.4,49.6,0.7,74.4,1c24.8,0.3,49.6,0.7,74.4,1c24.5,0.3,48.9,0.7,73.4,1
		c25,0.3,49.9,0.8,74.9,1C-647.3,101.3-632.3,102.4-617.6,98.1z M-1013,241.6c3.6-0.5,6.3-1.3,8.9-1.3c64.3,0.3,128.5,0.7,192.8,0.9
		c60.6,0.2,121.2,0.1,181.9,0.1c1.2,0,2.5,0.3,3.5-0.2c1-0.5,2-1.5,2.3-2.6c0.1-0.5-1.3-1.7-2.2-2.1c-1-0.4-2.3-0.2-3.5-0.2
		c-69.6-0.3-139.1-0.8-208.7-1c-56.8-0.2-113.6,0-170.4-0.1c-1.8,0-3.6,0-6.1,0C-1013.9,238-1013.4,240-1013,241.6z"/>
	<path class="coffee15" d="M-617.4,69.3c0,5-0.1,10-0.2,15c-14.8-0.4-29.6-0.8-44.4-1c-25.3-0.4-50.6-0.7-75.8-1
		c-25.1-0.3-50.2-0.7-75.3-1s-50.2-0.7-75.3-1c-38.3-0.4-76.5-0.7-114.8-1c-4,0-7.9,0.7-11.8,1c0-3.8,0-7.6,0-11.8
		c1.9-0.1,3.5-0.3,5.1-0.3c105.8,0,211.5,0,317.3,0.1C-667.6,68.4-642.5,69-617.4,69.3z"/>
	<path class="coffee15" d="M-617.5,89.1c0,2.4,0,4.8,0,7.2c-4.4,0-8.8,0-13.3-0.1c-15.1-0.3-30.3-0.7-45.4-1c-24.1-0.4-48.3-0.7-72.4-1
		c-25-0.3-49.9-0.7-74.9-1c-24.3-0.3-48.6-0.7-72.9-1c-25-0.3-49.9-0.7-74.9-1c-14.7-0.1-29.3,0-44,0c0-3,0-6,0-9
		c2.3,0.7,4.7,1.9,7,1.9c18.8,0.5,37.6,0.8,56.3,1c25.3,0.4,50.5,0.7,75.8,1c32.6,0.4,65.2,0.6,97.8,1c17.1,0.2,34.2,0.7,51.3,0.9
		C-690.4,88.6-654,88.8-617.5,89.1z"/>
	<path class="coffee29" d="M-1015.3,222.2c80.6,0,161.2-0.1,241.8,0.1c49.6,0.1,99.2,0.6,148.8,0.9c1,0,2.1-0.2,3,0.2
		c0.9,0.5,2.1,1.5,2.1,2.3s-1.1,2-2,2.3c-1.2,0.4-2.6,0.2-4,0.2c-41.8,0-83.6,0.1-125.4,0c-88.1-0.3-176.1-0.7-264.2-1
		C-1015.2,225.5-1015.3,223.8-1015.3,222.2z"/>
	<path class="coffee29" d="M-617.5,89.1c-36.4-0.3-72.9-0.6-109.3-1c-17.1-0.2-34.2-0.7-51.3-0.9c-32.6-0.4-65.2-0.7-97.8-1
		c-25.3-0.3-50.5-0.6-75.8-1c-18.8-0.3-37.6-0.6-56.3-1c-2.3-0.1-4.7-1.3-7-1.9c0-0.6,0-1.3,0.1-1.9c4-0.4,7.9-1,11.8-1
		c38.3,0.3,76.5,0.6,114.8,1c25.1,0.3,50.2,0.6,75.3,1c25.1,0.3,50.2,0.7,75.3,1c25.3,0.3,50.6,0.6,75.8,1c14.8,0.2,29.6,0.7,44.4,1
		C-617.5,85.9-617.5,87.5-617.5,89.1z"/>
	<path class="coffee29" d="M-1015.2,152.2c40.8-0.3,81.5-0.7,122.3-1c59.8-0.4,119.5-0.6,179.3-1.1c29.1-0.2,58.2-0.6,87.3-1
		c1.3,0,2.8-0.3,4,0.1c1,0.4,1.8,1.5,2.7,2.3c-0.9,0.8-1.6,2-2.7,2.4c-1.2,0.4-2.6,0.1-4,0.1c-26.8,0-53.6-0.1-80.5,0
		c-50.4,0.3-100.9,0.6-151.3,1c-47.9,0.3-95.9,0.6-143.8,1c-4.5,0-8.9,0.5-13.4,0.8C-1015.1,155.5-1015.1,153.9-1015.2,152.2z"/>
	<path class="coffee29" d="M-1015.2,91.2c14.7,0,29.3-0.1,44,0c25,0.2,49.9,0.6,74.9,1c24.3,0.3,48.6,0.7,72.9,1c25,0.3,49.9,0.7,74.9,1
		c24.1,0.3,48.3,0.6,72.4,1c15.1,0.2,30.3,0.6,45.4,1c4.4,0.1,8.8,0.1,13.3,0.1c0,0.6,0,1.2,0,1.8c-14.7,4.3-29.8,3.2-44.8,3
		c-25-0.2-49.9-0.6-74.9-1c-24.5-0.3-48.9-0.7-73.4-1c-24.8-0.3-49.6-0.7-74.4-1c-24.8-0.3-49.6-0.6-74.4-1
		c-18.6-0.3-37.3-0.7-55.9-1C-1015.2,94.5-1015.2,92.9-1015.2,91.2z"/>
	<path class="coffee23" d="M-736.2,264.4c17.3,0,34.5,0,51.7,0c-1.1,0.3-2.2,0.8-3.2,0.8c-15.1,0-30.2,0-45.3,0
		C-734,265.1-735.1,264.6-736.2,264.4z"/>
	<path class="coffee1" d="M-929.5,679.4c-0.2,3.5-0.3,6.1-0.4,10c-3.3-0.6-7-1.2-11.2-2c2.9-3.1,6.4-6.3,1-11c0.7-0.3,1.4-0.5,2.1-0.8
		c1.3,1.2,2.5,2.9,4,3.6C-932.5,679.9-930.5,679.4-929.5,679.4z"/>
	<path class="coffee5" d="M-943.3,690.2c-0.4-0.3-0.7-0.7-1.1-1.1C-944,689.5-943.6,689.8-943.3,690.2z"/>
	<path class="coffee8" d="M-751.7,649.5c1.5-1.9,2.9-4,4.7-5.7c0.7-0.7,3.1-1,3.3-0.7c1.2,2.3,2,4.7,2.5,6.1c-2,2-3.6,3.7-5.3,5.3
		c-0.6,0.6-1.5,0.9-2.3,1.4c-0.3-0.7-0.7-1.3-1-2C-750.5,652.2-751.2,650.6-751.7,649.5z"/>
	<path class="coffee11" d="M-839.2,521.2c-3.9,0-7.7,0.2-11.6-0.1c-0.6-0.1-1.1-2.5-1.6-3.8c2.9,0,5.9,0.2,8.8-0.1
		C-840.4,516.9-838.8,517.9-839.2,521.2z"/>
	<path class="coffee12" d="M-763.6,520.9c-3.5,0.1-7.1,0.3-10.6,0.1c-0.7,0-1.6-1.6-1.8-2.5c-0.1-0.5,1.2-1.6,2-1.8
		c3.8-1,7.4-0.8,10.4,2C-763.6,519.5-763.6,520.2-763.6,520.9z"/>
	<path class="coffee11" d="M-813.2,520.2c-3.4,0.3-6.8,0.9-10.1,0.7c-1.7-0.1-4.2-1.1-1.9-3.8c2.6-0.1,5.3-0.1,7.9-0.4
		C-814.5,516.3-813.2,517.4-813.2,520.2z"/>
	<path class="coffee12" d="M-839.2,521.2c0.3-3.3-1.3-4.3-4.3-4c-2.9,0.2-5.9,0.1-8.8,0.1c0.8-0.7,1.5-1.8,2.3-1.9c3.5-0.2,7-0.3,10.4,0
		c1.2,0.1,2.2,1.8,3.2,2.8C-837.3,519.2-838.2,520.2-839.2,521.2z"/>
	<path class="coffee12" d="M-813.2,520.2c0-2.7-1.3-3.8-4.1-3.5c-2.6,0.3-5.3,0.3-7.9,0.4c2.5-2.5,10.5-4.2,12.6-2.3
		C-810.9,516.4-810,518.7-813.2,520.2z"/>
	<path class="coffee12" d="M-745.3,519.4c-3.7,0-7.1,0-11.4,0C-752.3,515-748.4,515.2-745.3,519.4z"/>
	<path class="coffee12" d="M-762.3,491.2c-9.3,0-18.6-0.1-27.9-0.1C-780.9,491.1-771.6,491.2-762.3,491.2z"/>
	<path class="coffee11" d="M-926.5,469.3c-3,0.1-6,0.4-9,0.4c-5.3-0.1-10.6-0.3-15.8-0.5c0-0.3,0-0.6,0-1c4.4-4.5,8.7-9.2,13.3-13.4
		c3.3-3.1,7.1-5.8,10.7-8.6c1,0.7,2,1.8,3.2,1.9c5.3,0.5,10.6,0.8,15.8,1.1c-3.2,3.1-6.7,6-9.7,9.3
		C-921,461.8-923.7,465.7-926.5,469.3z"/>
	<path class="coffee12" d="M-329.2,490.3c0.6,1.3,1.1,2.5,1.6,3.5c3.2,1.6,1.5-6.3,5.6-2.3c-2.8,7.7-5.5,15.3-8.3,22.9
		C-330,506.3-329.6,498.3-329.2,490.3z"/>
	<path class="coffee29" d="M-1013,241.6c-0.4-1.6-0.9-3.6-1.6-6.4c2.5,0,4.3,0,6.1,0c56.8,0,113.6-0.1,170.4,0.1
		c69.6,0.2,139.2,0.6,208.7,1c1.2,0,2.4-0.2,3.5,0.2c0.9,0.3,2.4,1.6,2.2,2.1c-0.3,1-1.3,2.1-2.3,2.6c-1,0.4-2.3,0.2-3.5,0.2
		c-60.6,0-121.2,0.1-181.9-0.1c-64.3-0.2-128.5-0.6-192.8-0.9C-1006.7,240.2-1009.4,241-1013,241.6z"/>
	<polygon class="coffee2" points="-322.1,324.7 -252.4,394.6 -342.6,392.1 	"/>
</g>
<g class="coffee0">
	<polygon class="coffee30" points="1489.6,45.7 1517.9,38.7 1524.9,82.6 1498,92.3 	"/>
	<path class="coffee31" d="M2092.5,224.6c-1.1,3.5-2.9,7-3,10.5c-0.9,44.6-1.5,89.3-2.3,133.9c-1.2,71-2.5,141.9-3.7,212.8
		c-0.2,11.3-0.1,11.3-11.4,12.4c-3.5,0.3-7,0.5-10.5,0.5c-3.6-0.1-4.6-2.4-2.9-5.4c0.9-1.4,1.7-3.1,1.8-4.7
		c1.4-57.9,2.8-115.9,4.2-173.8c0.6-23.3,1.2-46.6,1.9-69.9c0-1.6,0-3.3,0-5.7c-1.6,1.2-2.8,2-3.8,2.9
		c-77.8,68.5-155.5,136.9-233.2,205.4c-34.4,30.3-68.8,60.4-103.1,90.8c-1.7,1.5-2.7,4.9-2.7,7.4c-0.1,78.3-0.1,156.6-0.1,234.9
		c0,1.8,0,3.6,0,6c-2,0-3.7,0-5.5,0c-60.1,0-120.3,0-180.4,0c-2,0-4,0.1-6,0.1c0.3-2.9,0.6-5.9,0.9-8.9c1.1-10.7,1.5-21.5,3.3-32.1
		c2.7-15.9,5.9-31.8,9.5-47.6c2.3-10.4,2-20.3-3.3-29.4c-2.9-4.9-6.9-9.4-11.2-13.2c-3.5-3-8-5-12.3-6.8c-5.1-2.1-10.6-3.4-15.9-5.3
		c-3.4-1.2-6.7-2.8-10.1-4.1c-15.8-5.8-32.5-5.8-48.9-7.6c-17.9-1.9-36.1-1.8-54.2-2.2c-4.4-0.1-8.9,0.8-13.3,1.6
		c-10.3,1.8-18.9,7.7-28.1,12.4c-11.4,5.8-20,14-25.3,25.7c-0.6,1.4-1.7,3.1-3,3.5c-3.5,1.2-3.5,3.3-2.5,6.2
		c2.1,5.9,2.3,12.2,3.9,18.4c3.1,11.5,4.3,23.7,5.4,35.7c1.7,17.8,2.7,35.6,4,53.4c-31.1,0-62.3,0-93.7,0c0-116.2,0-232.2,0-349
		c50.4,0,100.9,0,151.5,0c15.3,0,30.5,0.1,45.8,0.1c16.7,0,33.4-0.2,50.1,0c49.3,0.6,98.7,1.4,148.1,1.9c10.3,0.1,20.6-0.9,30.8-0.8
		c15.6,0.1,31.2,0.6,46.8,0.9c4.5,0.1,9,0,13.5,0c0.1,0.9,0.3,1.8,0.5,3.3c1.7-1,3-1.6,4.1-2.6c21.5-18.8,43.1-37.6,64.6-56.4
		c11.7-10.3,23.4-20.6,35.2-30.8c13.3-11.5,26.7-22.9,39.9-34.5c14.7-12.8,29.2-25.7,43.9-38.5c14-12.2,28.2-24.3,42.2-36.5
		c11.2-9.7,22.2-19.5,33.3-29.2c11.8-10.2,23.6-20.4,35.5-30.6s23.6-20.4,35.4-30.7c7.6-6.6,15.1-13.4,22.4-20.3
		c1.3-1.2,1.4-3.5,2.1-5.3l0,0c0.3-0.3,0.7-0.7,1-1v0c2.5-0.3,5-0.6,7.6-0.9c0.5,0.6,0.9,1.3,1.4,1.9
		C2092.5,223.9,2092.5,224.2,2092.5,224.6z M2074.8,273.2c0.2,0,0.3,0.1,0.5,0.1c0-7.6,0-15.1,0-22.7c-0.2,0-0.3,0-0.5,0
		C2074.8,258.2,2074.8,265.7,2074.8,273.2z"/>
	<path class="coffee32" d="M1358.6,171.1c-7.2,2.9-14.5,5.7-21.6,8.8c-7.7,3.4-15.1,7.1-23.1,11c-0.1-1.4-0.1-2.3-0.2-3.2
		c0.3-0.3,0.7-0.6,1.1-0.9c1.7-0.6,3.4-1.2,5.1-1.9c10.8-4.8,21.6-9.6,32.3-14.3c27.8-12.3,55.6-24.7,83.3-37c4-1,5.3-3.4,5.1-7.6
		c-0.6-11.6-0.7-23.3-1.1-34.9c-0.3-9.5-0.7-18.9-0.9-28.4c-0.7-23.4-1.4-46.9-2-70.3c-0.5-18.3-0.7-36.6-1.1-54.9
		c-0.3-10.6-0.8-21.3-1.2-31.9c0.1-1,0.3-1.9,0.4-2.9c0.9-1,1.9-2,2.8-3c0.3,0,0.7,0,1,0c0.3,1.7,0.9,3.4,1,5.2
		c0.4,30.4,0.7,60.9,1.1,91.4c0.2,15.8,0.7,31.6,0.9,47.4c0.4,25.1,0.7,50.3,1.1,75.4c0.1,3.6,0.8,7.3,0.7,10.9
		c0,1.6-1.2,3.1-1.8,4.7c-1.2,0.1-2.5-0.1-3.5,0.3c-16.8,7.3-33.6,14.7-50.4,22.2c-3.5,1.6-6.7,3.7-10.1,5.6l0,0c-2.3,1-4.7,2-7,3
		l0,0c-1,0.4-2,0.7-3,1l0.1,0c-1.3,0.7-2.7,1.3-4.1,2l0.1,0c-0.7,0.3-1.4,0.7-2.1,1l0.1,0C1360.7,170.1,1359.7,170.6,1358.6,171.1z
		 M1437.4-96.2c-0.2,0-0.3,0-0.5,0c0,8.3,0,16.5,0,24.8c0.2,0,0.3,0,0.5,0C1437.4-79.7,1437.4-88,1437.4-96.2z"/>
	<path class="coffee2" d="M1723.5,535.5c-4.5,0-9,0-13.5,0c-15.6-0.3-31.2-0.8-46.8-0.9c-10.3,0-20.6,1-30.8,0.8
		c-49.3-0.5-98.7-1.3-148.1-1.9c-16.7-0.2-33.4,0-50.1,0c-15.3,0-30.5,0-45.8-0.1c-1.8-0.3-3.7-0.8-5.6-0.8
		c-47-0.5-93.9-1-140.9-1.5c-2.5,0-4.9,0-8.6,0c1.6-1.5,2.3-2.2,3-2.6c107.2-67.6,214.4-135.3,321.6-202.9c0.1-0.1,0.3-0.1,0.5-0.2
		c0.1,5.5,0.4,11.1,0.2,16.6c-0.1,1.3-1.5,2.8-2.7,3.7c-5.3,3.8-11.3,6.9-16.1,11.3c-5.3,4.8-10,10.8-7.5,18.7
		c3.5,10.9,15.9,13.5,25.3,5.8c2.3-0.9,4.8-1.4,6.8-2.7c13.7-8.7,27.3-17.5,40.9-26.3c0.4-0.3,0.7-0.7,1.1-1.1l-0.1,0.1
		c0.3-0.3,0.7-0.7,1.1-1.1l-0.1,0c6-1.5,9.9-5.5,12.5-10.9c2.4-5,1.7-9.8-1.8-13.9c-3.2-3.7-7.1-6.6-12.5-4.5
		c-7,3.1-14.1,6.2-21.1,9.3c-0.7,0.3-1.3,0.6-2,0.9c-0.3-7-0.6-14.1-0.9-21.1c10.3-6.3,20.5-12.6,30.8-18.9c3.3-2.4,6.5-5.1,9.9-7.3
		c7.6-4.7,15.4-9.1,23.1-13.7c4.6,2.6,4.8-1.5,6-4c26.3-16.7,52.7-33.3,79-50c18.4,0.3,36.7,0.7,55.1,1
		c-6.3,5.1-11.4,11.1-13.5,19.1c-1,3.8-4.5,9.1,3.6,9.8c0.3,0,0.6,0.8,0.9,1.1c7.1,8.2,15.9,13.3,26.7,15c4.1,0.7,8.2,1.1,12.2,2.2
		c6.2,1.8,12.3,2.6,18.9,2c15-1.2,26.1-9.1,36-19c6.6-6.6,8.6-17.7-1.2-25.2c-1.4-1.1-2.5-2.7-3.7-4c15.3,0.3,30.6,0.6,45.8,0.9
		c18.9,0.3,37.9,0.7,56.8,1c24.4,0.4,48.9,0.7,73.3,1c12.3,0.1,24.6,0,36.9,0.1c1.7,0,3.4,0.6,5.2,1v0c-0.3,0.3-0.7,0.7-1,1l0,0
		c-3.1,2.5-6.2,4.9-9.2,7.5c-14.6,12.6-29.1,25.2-43.7,37.8c-11.2,9.7-22.3,19.5-33.4,29.2c-16.7,14.5-33.4,28.9-50.1,43.4
		c-13.9,12.1-27.7,24.3-41.6,36.4c-14.7,12.8-29.4,25.4-44,38.2c-11,9.6-22,19.3-33,28.8c-16.9,14.7-33.9,29.3-50.8,44
		c-11.7,10.1-23.4,20.1-35.1,30.3C1735.5,524.5,1729.5,530.1,1723.5,535.5z"/>
	<path class="coffee33" d="M1434.8-97.4c-0.1,1-0.3,1.9-0.4,2.9c-0.6,1.7-1.7,3.4-1.7,5.1c0.2,18.9,0.6,37.9,0.9,56.8
		c0.3,19.8,0.7,39.5,1,59.3s0.8,39.5,1,59.3c0.2,15.8,0,31.6,0,47.5c-27.8,12.3-55.6,24.7-83.3,37c-10.8,4.8-21.6,9.6-32.3,14.3
		c-1.7,0.7-3.4,1.3-5.1,1.9c-0.3-0.4-0.7-0.8-1-1.2c-0.1-1.2-0.2-2.3-0.2-3.5c0-83.2,0-166.4,0-249.6c0-1,0.1-2,0.2-3
		c0.3-0.3,0.6-0.6,0.9-0.9c14.8-3.3,29.7-6.7,44.5-10c24.6-5.4,49.1-10.6,73.7-15.9C1433.5-97.4,1434.2-97.3,1434.8-97.4z"/>
	<path class="coffee34" d="M1330.7,882.4c-1.3-17.8-2.3-35.7-4-53.4c-1.2-12-2.3-24.2-5.4-35.7c-1.7-6.1-1.9-12.4-3.9-18.4
		c-1-2.9-1-5,2.5-6.2c1.3-0.4,2.4-2.2,3-3.5c5.4-11.6,13.9-19.8,25.3-25.7c9.2-4.7,17.7-10.5,28.1-12.4c4.4-0.8,8.8-1.7,13.3-1.6
		c18.1,0.4,36.2,0.3,54.2,2.2c16.3,1.7,33.1,1.7,48.9,7.6c3.4,1.3,6.7,2.9,10.1,4.1c5.3,1.8,10.7,3.2,15.9,5.3
		c4.3,1.8,8.9,3.7,12.3,6.8c4.3,3.8,8.3,8.3,11.2,13.2c5.3,9.1,5.7,19,3.3,29.4c-3.6,15.8-6.8,31.6-9.5,47.6
		c-1.8,10.6-2.2,21.4-3.3,32.1c-0.3,3-0.6,5.9-0.9,8.9c-2,14.3-3,28.8-6.3,42.8c-4.3,18.5-4.7,37.2-5.6,55.9c-0.1,1.7-1,4.5-2.2,4.8
		c-1.4,0.5-3.5-1.1-5.5-1.8c-11,6.5-22.4,13.5-34.2,20c-3.3,1.8-7.5,2.3-11.2,3.3c1.1-2.9-0.1-4.8-2.1-6.9
		c-4.7-4.9-9-10.2-13.4-15.4c-2.3-2.7-1.7-4.8,1.4-6.9c7.3-4.9,14.5-10,21.5-15.3c4.7-3.6,8.9-7.7,13.5-11.7c1,1.3,1.6,2,2.2,2.8
		c4.8,6.8,9.4,13.7,14.4,20.3c0.9,1.1,3.3,1.1,5,1.6c0-1.6,0.3-3.2-0.1-4.7c-0.3-1.2-1.5-2.2-2.2-3.3c-4.7-6.7-9.4-13.5-14.3-20.4
		c1.8-1.4,3.1-2.4,4.4-3.4c7.7-6.6,15.5-13.1,23-19.8c1.2-1.1,1.2-3.5,1.8-5.3c-1.9,0.5-4.2,0.3-5.5,1.5
		c-7.9,6.5-15.6,13.3-23.2,20.1c-2.7,2.4-4.1,1.8-5.8-1c-5.9-10.4-12.1-20.7-17.9-31.1c-3.8-6.9-3.7-7.1,3.2-11.6
		c9.2-6,18.4-11.9,27.6-17.8c1.7-1.1,3.4-2.4,5.7-4c3.6,7,6.8,13.5,10.4,19.9c1.3,2.3,3,4.5,5.2,5.9c1.4,0.9,3.8,0.3,5.8,0.3
		c-0.4-1.8-0.4-3.8-1.4-5.2c-5.3-8-10.8-15.9-16.4-24.1c6.4-5.4,12.3-10.2,17.9-15.4c1.2-1.1,1.2-3.4,1.7-5.2
		c-1.7,0.4-3.7,0.4-5,1.4c-5.7,4.4-11.2,9-16.9,13.7c-1.1-1.4-1.8-2.1-2.3-2.9c-8.8-17-17.4-34-26.3-51c-0.7-1.4-2.4-2.3-3.6-3.4
		c-0.5,0.4-0.9,0.8-1.4,1.3c1.5,4.2,2.6,8.6,4.5,12.5c7.1,14.3,14.3,28.5,21.8,42.6c2.1,3.9,2,6.1-2,8.5
		c-5.9,3.6-11.5,7.9-17.3,11.8c-5.5,3.7-11.1,7.1-17.4,11.1c-8.7-18.1-17.3-35.8-26-53.9c11-9.5,21.6-18.6,32.1-27.7
		c3.1-2.6,3.1-4.8-0.8-6.8c-11.1,9.9-22.1,19.7-33.4,29.7c-5.2-9.6-9.5-19.4-16.7-27.7c-0.3,3.1,0.3,5.7,1.4,8.1
		c3.1,6.5,6.3,12.9,9.6,19.2c1.7,3.2,1.2,5.2-1.7,7.6c-10.7,8.7-21,17.8-31.5,26.8c-2.7,2.3-5.5,4.4-8.7,6.9
		c-8.5-16.5-16.7-32.3-24.9-48.3c1.8-1.6,3.4-2.9,5-4.4c5.6-5.4,11.3-10.8,16.8-16.4c0.7-0.7,0.3-2.5,0.3-3.8
		c-1.2,0.1-2.6-0.1-3.5,0.4c-1.3,0.7-2.2,2-3.3,3c-5.8,5.6-11.6,11.3-17.8,17.3c-6.5-9.2-12.5-17.5-18.3-26c-1.8-2.7-3.5-4.3-8-2.6
		c7.5,10.8,14.7,21.1,21.9,31.6c-5,4.2-9.4,7.7-13.6,11.4c-1.1,0.9-1.4,2.6-2.1,4c1.6-0.3,3.6-0.1,4.8-0.9c4.5-3,8.8-6.4,13.1-9.6
		c0.5,0.4,0.9,0.5,1,0.8c7.6,15,15.2,30,22.6,45.1c0.5,1-0.2,3.4-1.1,4c-8.9,6-18,11.7-26.9,17.5c-3.4-3-4.4-8.2-10.5-10.2
		c1.5,3.6,2,6.1,3.4,8c2.9,3.9,2.3,6.4-1.9,8.6c-2.3,1.2-3.9,2.9-2.1,6.2c3-1.9,5.8-3.7,8.8-5.6c9.2,15.3,18.2,30.2,27.3,45.3
		c-9.4,6.4-18.5,12.5-27.5,18.8c-1.5,1-2.5,2.6-3.8,3.9c0.6,0.7,1.2,1.4,1.8,2.1c10.8-6.8,21.5-13.7,32.4-20.5
		c0.8,1,1.5,1.7,2.1,2.5c8.6,12.4,17.1,24.9,25.9,37.2c5.3,7.4,5.1,6.6,11.4,1.8c7.2-5.5,15.2-9.9,23-14.8c2.8,3.9,5.3,7.6,8,11.2
		c3.9,5.2,7.3,11.1,15,10.9c-5.1,1-10.2,2.4-15.3,2.8c-19.6,1.6-38.7-2.3-57.9-5.2c-14.4-2.1-27.4-7.6-40.4-13.4
		c-2.8-1.3-5.3-3.2-8.2-4.5c-7.8-3.4-7.6-10.8-8.2-17.3c-1.1-13.6-1.3-27.3-2.2-40.9c-0.9-14.8-2.1-29.5-3.2-44.3
		C1331.3,884,1330.9,883.2,1330.7,882.4z M1360.6,795.5c2.3,0.6,4.7,1.6,7,1.8c4,0.3,8,0.2,12,0.3c1,0,2,0,3,0
		c1.1,0.7,2.1,1.8,3.2,1.9c5.9,0.5,11.8,0.8,17.7,1c1.4,0.1,2.8-0.6,4.1-0.9c2,0.3,3.9,0.5,5.9,0.8c7.5,1.1,15,2.5,22.5,3.1
		c5,0.4,10.1-0.5,15.1-0.9c9.7-0.7,19.4-1.3,29.1-2.1c5.1-0.4,10.2-1.2,15.2-1.8c4.1,2.3,6.7,1.2,8-3.3c1.6,0.5,3.3,1.6,4.8,1.4
		c3.8-0.4,7.5-1.4,11.3-2.2c1,0.2,2.2,0.7,3.1,0.4c4.5-1.6,8.9-3.5,11.8-4.6c0.5-4.1,0.9-6.8,1.2-9.5c0.8-9.2-8.2-22.3-18.1-26.3
		c0.6-4.6-1.7-4.6-4.9-3c-1.8-0.9-3.5-1.8-5.3-2.6c-13.6-6.2-27.2-12.5-42.7-11.4c-1-1-1.9-2.3-3.1-2.8c-0.8-0.3-2,0.5-3.1,0.8
		c-5.9-0.4-11.8-0.7-17.8-1.1c-15.1-0.9-30.3-1.9-45.4-2.8c-0.9-0.1-1.8,0.6-2.7,0.9c-1.3,0-2.6,0-4,0c-13.1,0.4-25.1,4.2-35.6,12
		c-10.1,7.5-20.5,14.8-26.6,26.3c-3.7,7-2.6,12.1,4.7,15.4c8.1,3.6,16.9,5.6,25.4,8.2C1357.9,794.8,1359.3,795.2,1360.6,795.5z
		 M1519.1,797.9c-0.6,0.6-1.2,1.2-1.7,1.8c1,1.4,2,2.7,3,4.1c3.6,4.9,7.1,9.9,11,14.7c0.8,1,2.7,1,4.1,1.4c-0.1-1.4,0.3-3.1-0.4-4.2
		c-2.8-4.1-5.7-8.1-9-11.8C1524.1,801.6,1521.5,799.9,1519.1,797.9z"/>
	<path class="coffee35" d="M1645.5,270.6c-7.7,4.5-15.5,9-23.1,13.7c-3.5,2.2-6.6,4.8-9.9,7.3c-0.7-0.2-1.7-0.8-2.1-0.5
		c-10,5.5-19.9,11-29.8,16.5c-7,4-13.9,8-20.9,12c-0.3,0.4-0.7,0.7-1.1,1.1l0-0.2c-1.4,0.4-3,0.5-4.2,1.2
		c-22.5,12.3-44.9,24.7-67.3,37c-2.2,1.2-4.6,3-4.1-2.1c-1.1,0.4-2.2,0.8-3.2,1.2c-0.2-7.2-0.6-14.5-0.7-21.7
		c-0.1-5.5,0.4-11,0.3-16.5c-0.1-4.3-0.8-8.5-0.9-12.8c-0.1-5.7,1.4-11.4-1.5-16.9c-1.3,0.7-2.3,1.1-3.3,1.6
		c-0.3-1.8-0.9-3.5-0.9-5.3c-0.1-6.1,0.2-12.2-0.1-18.2c-0.4-8.8-1.3-17.5-1.9-26.2c-0.8-11-1.5-21.9-2.4-32.9
		c-0.3-3.7,0.9-5.8,4.3-7.3c23.4-10.3,46.7-20.7,70.1-31.1c16.7-7.4,33.4-14.7,50.1-22.1c13.3-5.9,26.7-11.8,39.9-18
		c1.7-0.8,2.7-3.2,3.9-4.9c1.2,1.5,2.5,2.9,3.6,4.5c1.1,1.5,1.9,3,2.9,4.6c0.2,5,0.4,10,0.6,15c-0.1,1.1-0.2,2.3-0.2,3.5
		C1644.1,192.2,1644.8,231.4,1645.5,270.6z M1513.4,187.3c-1.6,0.7-3.2,1.5-4.8,2.2c0.2,0.3,0.3,0.7,0.5,1c1.7-0.8,3.4-1.6,5.1-2.4
		c0.5-0.4,1-0.8,1.5-1.2c-0.2-0.2-0.3-0.4-0.4-0.7C1514.7,186.7,1514,187,1513.4,187.3z M1487.5,346.2
		c21.9-12.2,43.2-23.9,64.4-35.8c27.3-15.4,54.5-31,81.9-46.3c4-2.2,4.8-5.3,4.6-8.9c-0.8-14.2-2.2-28.4-2.8-42.6
		c-0.7-17.1-0.8-34.2-1.1-51.3c-0.1-5.3,0-10.5,0-15.8c0-1.2-0.3-2.4-0.6-4.3c-51.4,23.5-102.2,46.7-152.9,69.9
		C1483.2,256.1,1485.4,300.9,1487.5,346.2z M1516.4,185.8c0.2,0.4,0.5,0.8,0.7,1.2c2.5-1.2,5-2.4,7.5-3.7c-0.2-0.4-0.3-0.7-0.5-1.1
		C1521.5,183.4,1519,184.6,1516.4,185.8z M1528.4,180.4c-0.2,0.3-0.3,0.6-0.5,0.9c0.3,0.1,0.6,0.3,0.8,0.3c0.3-0.2,0.5-0.5,0.7-0.8
		C1529.1,180.7,1528.8,180.6,1528.4,180.4z M1526.6,182.1c-0.1-0.1-0.2-0.3-0.3-0.3c-0.2,0-0.4,0.2-0.7,0.3c0.1,0.1,0.2,0.3,0.3,0.3
		C1526.2,182.3,1526.4,182.2,1526.6,182.1z"/>
	<path class="coffee36" d="M1865.6,218.6c1.2,1.3,2.3,2.9,3.7,4c9.8,7.5,7.8,18.6,1.2,25.2c-9.9,9.9-21,17.8-36,19
		c-6.7,0.5-12.7-0.3-18.9-2c-3.9-1.1-8.1-1.5-12.2-2.2c-10.8-1.7-19.6-6.8-26.7-15c-0.3-0.4-0.6-1.1-0.9-1.1c-8.1-0.7-4.6-6-3.6-9.8
		c2.1-8,7.2-14,13.5-19.1c1.2-1.6,2.4-3.2,3.7-4.8c-8-29.4-5-58,6.5-85.9c1.4-3.5,2.2-8.5,7.9-8.2c1.6,4.6,3.3,9.2,4.9,13.8
		c-2.2,7.6-4.6,15.1-6.5,22.7c-4.4,18.2-4.3,43.4-0.2,56.5c4.4-2.3,8.7-5.2,13.4-7c7.3-2.8,14.3,0.3,21.3,2.5
		c7.7,2.5,15.3,5.1,23,7.7C1861.5,216.1,1863.6,217.4,1865.6,218.6z"/>
	<path class="coffee37" d="M1808.5,132.5c-1.6-4.6-3.3-9.2-4.9-13.8c-0.5-5.3,1.1-10,4.3-14.2c0.3-1.1,0.7-2.2,1-3.4l0.3-0.1
		c0.4-0.2,0.8-0.4,1.3-0.6l-0.1,0.1c0.7-0.3,1.4-0.7,2.1-1l-0.1,0.1c0.9-0.5,1.9-0.9,2.8-1.4c0,0,0,0,0,0.1c1.8,0.1,3.6,0.4,5.4,0.4
		c13.6,0,18,2.2,22.2,15.2c4.5,13.6,12.1,23.5,25.6,28.9c2.9,1.2,5.4,3.6,8.1,5.4c-2.6,0.5-5.3,1-7.9,1.5c-0.8,0-1.6,0.1-2.4,0.2
		c-4.5,1.6-9.1,3.2-13.6,4.8c-3.2,1.7-6.3,3.4-9.5,5c-3.2,2.5-6.3,5.1-9.5,7.6c-0.8,0.5-1.5,0.9-2.3,1.4c-1,0.5-2.2,0.8-2.9,1.6
		c-3.1,3.5-6.1,7.3-9.2,10.8c-5.6,6.4-5.7,7.5-1.1,14.9c0.3,0.4,0.5,0.9,0.7,1.3c-2.1-1.8-4.2-3.7-6.3-5.6c-0.2-0.2-0.1-0.8-0.2-0.9
		c-9.7-4.8-4.4-13.4-4.1-19.8c0.5-9.1,3.7-18,5.6-27c0.3-1.3,0.2-2.9-0.4-4C1812,137.2,1810.2,134.9,1808.5,132.5z"/>
	<path class="coffee38" d="M1289.6,257.6c-14.1,4-28.3,7.9-42.9,12c-3.9-20.9-7.8-41.7-11.8-63.3c14.2-2.6,28.5-5.2,42.7-7.8
		c4.8,17.1,9.7,34.3,14.5,51.5c-15.5,5-29.7,9.5-43.9,14.1c0.1,0.5,0.3,1,0.4,1.6c2.9-0.8,5.8-1.5,8.6-2.4
		c12.2-3.8,24.3-7.6,36.5-11.4C1296.3,256.5,1291.1,255.7,1289.6,257.6z"/>
	<path class="coffee39" d="M1473.6,291.5c1-0.5,2-1,3.3-1.6c2.8,5.5,1.3,11.3,1.5,16.9c0.1,4.3,0.8,8.5,0.9,12.8
		c0.1,5.5-0.3,11-0.3,16.5c0.1,7.2,0.4,14.5,0.7,21.7c-2.6,0.2-5.2,0.8-7.7,0.5c-1.2-0.1-2.9-1.8-3.2-3c-2.9-13.1-6.5-26.1-8-39.3
		c-2.2-18.5-3.1-37.1-3.8-55.7c-0.6-15.4-0.7-30.9-0.2-46.4c0.3-7.5,2.4-14.9,4-22.3c0.3-1.2,2.1-2.5,3.5-3.1
		c45.9-18.9,91.8-37.7,137.8-56.4c7.3-3,14.9-5.7,22.5-7.8c4.1-1.1,8.7-1.7,12.8-0.8c5.2,1.2,5.3,6.5,5.8,10.9
		c-0.9-1.5-1.8-3.1-2.9-4.6c-1.1-1.5-2.4-3-3.6-4.5c-11.2,4.6-22.4,9.2-33.6,13.8c-28.7,11.7-57.5,23.4-86.2,35.2
		c-11.2,4.6-22.3,9.2-33.4,13.9c-4.9,2-9.9,3.8-14.6,6.3c-2.3,1.2-5.1,3.3-5.7,5.5c-1.4,5-2.4,10.4-2.2,15.7
		c0.6,15.4,2,30.7,2.8,46.1c0.6,11.9,0.8,23.8,1.1,35.7c0.3,16.6,5.6,32.1,9,46.7C1473.6,327.5,1473.6,309.5,1473.6,291.5z"/>
	<path class="coffee40" d="M1289.6,257.6c1.5-1.9,6.7-1.1,4.1-5.8c4.4-2.6,1.7-6.7,2-10.1c5.3-2.9,10.5-6,15.8-8.7
		c3.7-1.8,7.5-3.3,11.4-4.7c0.8-0.3,2.1,0.7,3.2,1c-4.7,1-3.9,4.3-2.8,7.3c4.7,13,9.6,25.9,14.3,38.9c0,1,0,2.1,0,3.8
		c-4.6,1.6-10,2.9-14.8,5.3c-5.1,2.5-9.6,6-14.4,9c-3.4,1.6-5.3,0.5-6.7-3.1c-2.9-7.3-6.4-14.3-9.6-21.5
		C1290.5,265.4,1287.3,262.1,1289.6,257.6z"/>
	<path class="coffee41" d="M1818.9,197.2c-0.2-0.4-0.4-0.9-0.7-1.3c-4.6-7.3-4.5-8.4,1.1-14.9c3.1-3.6,6-7.3,9.2-10.8
		c0.7-0.8,1.9-1.1,2.9-1.6c1.3,2.4,2.1,5.4,4,7.1c5.7,5,15.8,5.2,22.4,1.1c9.6-5.9,13.2-14.8,12.7-25.7c6.9-0.3,14-2.4,20,3
		c0.3,0.5,0.7,1,1,1.5c-0.8,4.1-0.5,9.1-2.8,12.1c-4.3,5.8-10.2,10.5-15.4,15.5c-2.8,2.7-5.7,5.2-8.5,7.7v-0.2
		c-0.4,0.3-0.8,0.6-1.2,1l0.1-0.1c-0.7,0.3-1.4,0.7-2.1,1l0.1,0c-0.7,0.3-1.4,0.6-2.1,0.9c-9.9,4.3-20.3,5.1-30.9,4.6
		C1825.4,198,1822.2,197.5,1818.9,197.2z"/>
	<path class="coffee38" d="M1476.7-31.6c-0.5-2.9-1.3-5.8-1.5-8.8c-0.9-14.5-1.7-29-2.6-44.2c8.9-1.1,17.5-2.1,26.2-3.1
		c0.8,7.7,1.5,15.4,2.4,23.1c0.8,6.9,1.7,13.7,2.6,20.6c0.3,2.8-0.7,4.1-3.7,4.7c-6.6,1.4-13.2,3.1-19.7,5
		C1478.9-33.9,1477.9-32.5,1476.7-31.6z"/>
	<path class="coffee42" d="M1559.7,319.5c7-4,13.9-8,20.9-12c0.2,0.2,0.3,0.4,0.2,0.7c0,7.6-0.2,15.1,0,22.7c0,1.5,1.2,3.1,1.9,4.6
		l0-0.1c0.3,0.7,0.7,1.3,1,2c-0.1,5.5,0.9,10.8-5.1,14.9c-8,5.5-14.7,4.8-18.9-3.7c-0.2-0.4-0.7-0.6-1.2-1c-2.2,2-4.4,4-6.6,6
		c-2.4,2.1-5,3.9-7.1,6.2c-2.7,2.8-5.5,5.8-7.2,9.2c-3.1,6.1,0.2,11.6,7.1,12.3c2.3,0.3,4.6-0.3,6.9-0.3c2.1,0,4.2,0.3,6.2,0.5
		c-9.4,7.7-21.9,5.1-25.3-5.8c-2.5-7.9,2.2-13.9,7.5-18.7c4.8-4.3,10.8-7.5,16.1-11.3c1.2-0.9,2.7-2.4,2.7-3.7
		c0.2-5.5-0.1-11.1-0.2-16.6c0-1.7,0.1-3.3,0.1-5l0,0.2C1559,320.3,1559.3,319.9,1559.7,319.5z"/>
	<path class="coffee34" d="M1494.7,27.7c-0.7-1.2-1.7-2.4-1.9-3.7c-1.8-11.2-3.4-22.5-5.1-34.4c10.4-3.3,20.9-6.6,31.8-10.1
		c0.1,1.2,0.3,2.2,0.4,3.1c-4.6,0.8-5.5,3.1-4.7,7.8c1.5,8.5,2.1,17.2,3,25.9c-5.4,1.1-10.7,1.5-15.3,3.5
		C1499.5,21.1,1494.2,21.7,1494.7,27.7z"/>
	<path class="coffee43" d="M1865.6,218.6c-2-1.3-4-2.5-6-3.8c60.1,0.9,120.3,1.8,180.4,2.7c15.7,0.2,31.3,0.2,47,0.2c2.7,0,5.4,0,4.2,4
		c-2.5,0.3-5,0.6-7.6,0.9c-1.7-0.3-3.4-1-5.2-1c-12.3-0.1-24.6,0-36.9-0.1c-24.4-0.3-48.9-0.6-73.3-1c-18.9-0.3-37.9-0.6-56.8-1
		C1896.1,219.2,1880.8,218.9,1865.6,218.6z"/>
	<path class="coffee43" d="M1891.5,155.6c-0.3-0.5-0.7-1-1-1.5c1.1-3.3-1.7-5.6-6.1-5.4c-2.6,0.1-5.3-0.4-7.9-0.6
		c-2.7-1.9-5.1-4.3-8.1-5.4c-13.5-5.4-21.1-15.3-25.6-28.9c-4.3-13-8.7-15.2-22.2-15.2c-1.8,0-3.6-0.3-5.4-0.4
		c6.4-4.1,12.4-4.8,20.1-1.6c7.8,3.3,11.7,9,14.9,15.6c4,8.2,9.5,13.8,18.2,17.4c7.9,3.2,15.1,8.4,22.2,13.2
		c5.2,3.5,3.7,8.9,2.6,13.9C1892.7,156.2,1892.1,155.9,1891.5,155.6z"/>
	<path class="coffee44" d="M1493.4,88.6c-1.9-9.9-3.8-19.7-5.7-29.6c-0.7-3.8-1.1-7.7-1.9-11.5c-1.1-5-0.2-6.2,5-7
		c8.5-1.3,16.9-2.8,25.4-4.5c3.3-0.6,5.4-0.1,5.5,3.5c0.2,12.6,3.8,24.4,8.2,36.1c-2.8,1.5-3.8,0.2-4.3-2.5
		c-2.5-11.7-5.1-23.3-7.6-34.4c-0.1,0.1-0.6,1.1-1.2,2c-8.7,1.6-17.3,3.2-27.1,5c2.5,14.1,4.8,27.4,7.2,40.7
		C1495.6,87.1,1494.5,87.8,1493.4,88.6z"/>
	<path class="coffee32" d="M1645.5,270.6c-0.7-39.2-1.4-78.4-2.1-117.6c0-1.1,0.1-2.3,0.2-3.5c0.6,7.3,1.3,14.5,1.8,21.7
		c1.5,25.3,2.8,50.7,4.3,76c0.4,6.4,1.2,12.9,1.8,19.3C1650.3,269.1,1650.1,273.2,1645.5,270.6z"/>
	<path class="coffee45" d="M1494.7,27.7c-0.5-6,4.8-6.6,8.2-8c4.6-1.9,9.9-2.3,15.3-3.5c-1-8.7-1.5-17.4-3-25.9c-0.8-4.6,0.1-7,4.7-7.8
		c1.2,6.1,2.6,12.1,3.6,18.3c0.9,5.2,1.3,10.5,2,15.7c0.5,3.5-0.6,5.5-4.5,6.2C1512.1,24.2,1503.4,26,1494.7,27.7z"/>
	<path class="coffee32" d="M1295.7,241.6c-0.3,3.4,2.4,7.5-2,10.1c-12.2,3.8-24.3,7.6-36.5,11.4c-2.8,0.9-5.8,1.6-8.6,2.4
		c-0.1-0.5-0.3-1-0.4-1.6c14.2-4.5,28.4-9.1,43.9-14.1c-4.9-17.3-9.7-34.4-14.5-51.5c1-0.2,2-0.5,2.9-0.7c1.8,4.5,3.8,8.8,5.4,13.4
		c3.1,8.5,6,17,9,25.5C1295.2,238.2,1295.5,239.9,1295.7,241.6z"/>
	<path class="coffee45" d="M1337.6,275.5c-4.8-13-9.7-25.9-14.3-38.9c-1.1-3-1.8-6.3,2.8-7.3c1.2,1.5,2.8,2.8,3.4,4.5
		c4.8,12.9,9.4,25.9,14.2,38.8c0.9,2.5,1.9,4.8-1.2,6.5C1340.9,277.9,1339.3,276.7,1337.6,275.5z"/>
	<path class="coffee46" d="M1476.7-31.6c1.2-0.9,2.3-2.3,3.6-2.7c6.5-1.8,13.1-3.6,19.7-5c3-0.6,4-1.9,3.7-4.7
		c-0.8-6.9-1.8-13.7-2.6-20.6c-0.9-7.7-1.6-15.4-2.4-23.1c2.7-2,3.7-0.2,3.9,2.1c1,10.1,1.8,20.2,2.9,30.3c0.4,3.3,1.4,6.5,2.3,9.6
		c1.6,5.5,0.1,8.8-5.5,10.5c-8.6,2.6-17.2,4.8-25.9,7.1c-0.5,0.1-1.1-0.1-3.2-0.3c2.4-1.3,3.5-1.9,4.6-2.5c0,0-0.1-0.3-0.2-0.4
		C1477.3-31.4,1477-31.5,1476.7-31.6z"/>
	<path class="coffee46" d="M1493.4,88.6c1.1-0.7,2.3-1.5,3.4-2.2c9-3.8,18-7.6,26.7-11.3c-2.1-10.8-4.4-22.6-6.7-34.4
		c0.6-0.9,1.1-1.9,1.2-2c2.5,11.1,5.1,22.8,7.6,34.4c0.6,2.7,1.6,4,4.3,2.5c0.5,1,0.9,1.9,1.4,2.9c-2.1,1.4-4,3.4-6.3,4.1
		c-10.1,3.1-20.3,5.9-30.4,8.8C1494.1,90.4,1493.8,89.5,1493.4,88.6z M1526.8,80.3c-5.3-2.7-17.9,0.4-23.9,6.2
		C1511.5,84.3,1518.9,82.4,1526.8,80.3z"/>
	<path class="coffee43" d="M1789.2,212.8c-1.2,1.6-2.4,3.2-3.7,4.8c-18.4-0.3-36.7-0.7-55.1-1c-1.8-2.3-0.7-3.4,1.7-3.5
		c2.8-0.1,5.6,0.2,8.5,0.2c13.4,0.1,26.9,0.3,40.3,0.3C1783.7,213.6,1786.5,213.1,1789.2,212.8z"/>
	<path class="coffee37" d="M1377.7,162.6c3.4-1.9,6.6-4,10.1-5.6c16.7-7.5,33.6-14.9,50.4-22.2c1-0.5,2.3-0.2,3.5-0.3
		c-5.7,2.8-11.3,5.9-17.2,8.4c-14.3,6.3-28.7,12.4-43.1,18.5C1380.2,162,1378.9,162.3,1377.7,162.6z"/>
	<path class="coffee37" d="M1891.5,155.6c0.6,0.3,1.2,0.7,1.8,1c0.1,6.9-1.8,13-6.5,18.1c-6.3,6.9-12.9,13.3-22,16.3
		c2.8-2.6,5.8-5.1,8.6-7.7c5.3-5.1,11.1-9.8,15.4-15.5C1891,164.6,1890.7,159.6,1891.5,155.6z"/>
	<path class="coffee44" d="M1494.5,91.3c10.1-2.9,20.3-5.7,30.4-8.8c2.3-0.7,4.2-2.7,6.3-4.1c2.4,5.9,2.2,6.1-3.8,7.4
		c-9.8,2-19.6,4.4-29.4,6.5C1496.9,92.5,1495.7,91.7,1494.5,91.3z"/>
	<path class="coffee41" d="M1294.9,236.6c-3-8.5-5.9-17-9-25.5c-1.6-4.5-3.6-8.9-5.4-13.4c2.1,1.7,5.4,3.1,6,5.2
		C1289.8,214,1292.2,225.3,1294.9,236.6z"/>
	<path class="coffee46" d="M1337.6,275.5c1.6,1.2,3.3,2.4,4.9,3.6c-10.7,4.8-21.4,9.5-32.1,14.2c-0.6,0.3-1.4,0.2-2.1,0.3
		c4.8-3,9.3-6.5,14.4-9c4.8-2.4,10.2-3.7,14.8-5.3C1337.6,277.6,1337.6,276.5,1337.6,275.5z"/>
	<path class="coffee37" d="M1370.7,165.6c2.3-1,4.7-2,7-3C1375.3,163.6,1373,164.6,1370.7,165.6z"/>
	<path class="coffee37" d="M1363.7,168.6c1.3-0.7,2.7-1.3,4.1-2C1366.4,167.3,1365,168,1363.7,168.6z"/>
	<path class="coffee43" d="M1808.9,101.1c-0.3,1.1-0.7,2.2-1,3.4C1808.3,103.4,1808.6,102.2,1808.9,101.1z"/>
	<path class="coffee43" d="M1815.3,98.1c-0.9,0.5-1.9,0.9-2.8,1.4C1813.4,99,1814.3,98.5,1815.3,98.1z"/>
	<path class="coffee37" d="M1358.6,171.1c1-0.5,2-1,3.1-1.6C1360.7,170.1,1359.7,170.6,1358.6,171.1z"/>
	<path class="coffee37" d="M1367.7,166.7c1-0.4,2-0.7,3-1C1369.7,166,1368.7,166.3,1367.7,166.7z"/>
	<path class="coffee37" d="M1859.6,193.5c0.7-0.3,1.4-0.6,2.1-0.9C1861,192.9,1860.3,193.2,1859.6,193.5z"/>
	<path class="coffee37" d="M1361.6,169.6c0.7-0.3,1.4-0.7,2.1-1C1363,168.9,1362.3,169.3,1361.6,169.6z"/>
	<path class="coffee37" d="M1861.6,192.6c0.7-0.3,1.4-0.7,2.1-1C1863,191.9,1862.3,192.3,1861.6,192.6z"/>
	<path class="coffee43" d="M1812.5,99.4c-0.7,0.3-1.4,0.7-2.1,1C1811.1,100.1,1811.8,99.7,1812.5,99.4z"/>
	<path class="coffee47" d="M1313.8,185.6c0.3,0.4,0.7,0.8,1,1.2c-0.3,0.3-0.7,0.6-1.1,0.9C1313.8,187,1313.8,186.3,1313.8,185.6z"/>
	<path class="coffee47" d="M1314.6-71.4c-0.3,0.3-0.6,0.6-0.9,0.9C1314-70.7,1314.3-71,1314.6-71.4z"/>
	<path class="coffee37" d="M1863.6,191.7c0.4-0.3,0.8-0.6,1.2-1C1864.4,191,1864,191.3,1863.6,191.7z"/>
	<path class="coffee43" d="M1810.5,100.4c-0.4,0.2-0.8,0.4-1.3,0.6C1809.6,100.8,1810.1,100.6,1810.5,100.4z"/>
	<path class="coffee43" d="M1723.5,535.5c6-5.5,12-11,18.1-16.3c11.6-10.2,23.4-20.2,35.1-30.3c17-14.7,33.9-29.3,50.8-44
		c11-9.6,22-19.3,33-28.8c14.7-12.8,29.4-25.4,44-38.2c13.9-12.1,27.7-24.3,41.6-36.4c16.7-14.5,33.4-28.9,50.1-43.4
		c11.2-9.7,22.3-19.5,33.4-29.2c14.5-12.6,29.1-25.3,43.7-37.8c3-2.6,6.1-5,9.2-7.5c-0.7,1.8-0.9,4.1-2.1,5.3
		c-7.3,6.9-14.8,13.7-22.4,20.3c-11.7,10.3-23.6,20.5-35.4,30.7c-11.8,10.2-23.7,20.3-35.5,30.6c-11.2,9.7-22.2,19.5-33.3,29.2
		c-14,12.2-28.2,24.3-42.2,36.5c-14.7,12.8-29.2,25.7-43.9,38.5c-13.3,11.5-26.7,22.9-39.9,34.5c-11.8,10.2-23.4,20.6-35.2,30.8
		c-21.5,18.8-43,37.6-64.6,56.4c-1.1,0.9-2.5,1.5-4.1,2.6C1723.8,537.4,1723.7,536.5,1723.5,535.5z"/>
	<path class="coffee48" d="M3194.1,342.4c0-7.5,0-15,0-22.6c0.2,0,0.3,0,0.5,0c0,7.6,0,15.1,0,22.7
		C3194.5,342.5,3194.3,342.4,3194.1,342.4z"/>
	<path class="coffee43" d="M3201.9,292.7c0.3-0.3,0.7-0.7,1-1C3202.6,292,3202.2,292.4,3201.9,292.7z"/>
	<path class="coffee45" d="M1435.6,133.5c0-15.8,0.1-31.6,0-47.5c-0.2-19.8-0.6-39.5-1-59.3s-0.7-39.5-1-59.3
		c-0.3-18.9-0.7-37.9-0.9-56.8c0-1.7,1.1-3.4,1.7-5.1c0.4,10.6,0.9,21.3,1.2,31.9c0.4,18.3,0.7,36.6,1.1,54.9
		c0.6,23.4,1.3,46.9,2,70.3c0.3,9.5,0.6,18.9,0.9,28.4c0.3,11.6,0.5,23.3,1.1,34.9C1440.9,130.1,1439.6,132.5,1435.6,133.5z"/>
	<path class="coffee45" d="M1437.4-96.2c0,8.2,0,16.5,0,24.7c-0.2,0-0.3,0-0.5,0c0-8.3,0-16.5,0-24.8C1437-96.2,1437.2-96.2,1437.4-96.2
		z"/>
	<path class="coffee49" d="M1557.7,381.6c-2.1-0.2-4.2-0.5-6.2-0.5c-2.3,0-4.7,0.6-6.9,0.3c-6.9-0.8-10.2-6.2-7.1-12.3
		c1.7-3.4,4.6-6.3,7.2-9.2c2.1-2.3,4.8-4.1,7.1-6.2c2.2-1.9,4.3-3.9,6.6-6c0.5,0.4,1,0.6,1.2,1c4.2,8.5,11,9.2,18.9,3.7
		c6-4.2,5-9.4,5.1-14.9c-0.3-0.7-0.7-1.3-1-2l0,0.1c0-1.4,0-2.7,0-4.1c0.7-0.3,1.3-0.6,2-0.9c-0.1,2.4,0.7,3.4,3.3,2.3
		c5.6-2.4,11.3-4.5,16.9-7.1c1.3-0.6,2-2.3,3-3.5c3.3,2.9,6.8,5.5,9.7,8.7c2.6,2.8,1.3,8.7-1.5,11.3c-2.9,2.6-5.5,5.5-8.3,8.2l0.1,0
		c-0.3,0.3-0.7,0.7-1.1,1.1l0.1-0.1c-0.4,0.3-0.7,0.7-1.1,1.1c-13.6,8.8-27.2,17.6-40.9,26.3C1562.6,380.1,1560,380.7,1557.7,381.6z
		"/>
	<path class="coffee45" d="M1607.6,350.5c2.8-2.8,5.4-5.6,8.3-8.2c2.8-2.5,4.1-8.4,1.5-11.3c-2.9-3.2-6.4-5.8-9.7-8.7
		c-0.7-0.4-1.3-0.7-2-1.1c5.5-2.1,9.3,0.8,12.5,4.5c3.5,4,4.2,8.8,1.8,13.9C1617.5,345.1,1613.6,349,1607.6,350.5z"/>
	<path class="coffee34" d="M1605.7,321.3c0.7,0.4,1.3,0.7,2,1.1c-1,1.2-1.7,2.9-3,3.5c-5.5,2.5-11.3,4.7-16.9,7.1
		c-2.6,1.1-3.3,0.1-3.3-2.3C1591.7,327.5,1598.7,324.4,1605.7,321.3z"/>
	<path class="coffee43" d="M1580.8,308.3c0.3,0.7,0.6,1.4,0.9,2.1c0.3,7,0.6,14.1,0.9,21.1c0,1.4,0,2.7,0,4.1c-0.7-1.5-1.8-3.1-1.9-4.6
		C1580.6,323.4,1580.7,315.8,1580.8,308.3z"/>
	<path class="coffee45" d="M1605.5,352.6c0.4-0.3,0.7-0.7,1.1-1.1C1606.3,351.8,1605.9,352.2,1605.5,352.6z"/>
	<path class="coffee45" d="M1606.6,351.6c0.3-0.3,0.7-0.7,1.1-1.1C1607.3,350.8,1606.9,351.2,1606.6,351.6z"/>
	<path class="coffee48" d="M1466.8,1007.5c-7.8,0.2-11.2-5.7-15-10.9c-2.7-3.6-5.2-7.3-8-11.2c-7.8,4.9-15.8,9.3-23,14.8
		c-6.3,4.8-6.1,5.6-11.4-1.8c-8.8-12.3-17.3-24.8-25.9-37.2c-0.6-0.8-1.2-1.5-2.1-2.5c-10.8,6.9-21.6,13.7-32.4,20.5
		c-0.6-0.7-1.2-1.4-1.8-2.1c1.3-1.3,2.3-2.9,3.8-3.9c9-6.2,18.1-12.3,27.5-18.8c-9.1-15.2-18.1-30-27.3-45.3c-3,1.9-5.7,3.6-8.8,5.6
		c-1.7-3.2-0.1-5,2.1-6.2c4.2-2.2,4.8-4.7,1.9-8.6c-1.4-1.9-1.9-4.4-3.4-8c6.1,2.1,7.1,7.3,10.5,10.2c8.9-5.7,18-11.5,26.9-17.5
		c0.9-0.6,1.6-3,1.1-4c-7.4-15.1-15-30.1-22.6-45.1c-0.1-0.3-0.5-0.4-1-0.8c-4.3,3.2-8.6,6.6-13.1,9.6c-1.2,0.8-3.2,0.6-4.8,0.9
		c0.7-1.3,1.1-3,2.1-4c4.2-3.8,8.6-7.3,13.6-11.4c-7.3-10.5-14.5-20.9-21.9-31.6c4.5-1.7,6.2-0.1,8,2.6c5.8,8.5,11.8,16.8,18.3,26
		c6.2-6,12-11.7,17.8-17.3c1.1-1.1,2-2.3,3.3-3c1-0.5,2.3-0.3,3.5-0.4c-0.1,1.3,0.3,3.1-0.3,3.8c-5.5,5.6-11.1,11-16.8,16.4
		c-1.5,1.5-3.2,2.8-5,4.4c8.3,16,16.4,31.8,24.9,48.3c3.2-2.5,6-4.6,8.7-6.9c10.5-8.9,20.8-18,31.5-26.8c2.9-2.4,3.4-4.4,1.7-7.6
		c-3.3-6.3-6.6-12.7-9.6-19.2c-1.1-2.4-1.7-5.1-1.4-8.1c7.2,8.2,11.5,18.1,16.7,27.7c11.3-10,22.3-19.8,33.4-29.7
		c3.8,2,3.8,4.1,0.8,6.8c-10.6,9.1-21.1,18.2-32.1,27.7c8.7,18.1,17.3,35.8,26,53.9c6.3-4,11.9-7.5,17.4-11.1
		c5.8-3.9,11.3-8.2,17.3-11.8c4-2.4,4-4.6,2-8.5c-7.5-14.1-14.7-28.3-21.8-42.6c-2-4-3-8.3-4.5-12.5c0.5-0.4,0.9-0.8,1.4-1.3
		c1.2,1.1,2.9,2,3.6,3.4c8.8,16.9,17.5,34,26.3,51c0.4,0.9,1.2,1.6,2.3,2.9c5.7-4.7,11.2-9.3,16.9-13.7c1.3-1,3.3-1,5-1.4
		c-0.5,1.8-0.6,4.1-1.7,5.2c-5.6,5.2-11.5,9.9-17.9,15.4c5.7,8.2,11.2,16.1,16.4,24.1c0.9,1.4,0.9,3.5,1.4,5.2c-2,0-4.4,0.6-5.8-0.3
		c-2.1-1.4-3.9-3.7-5.2-5.9c-3.5-6.3-6.7-12.8-10.4-19.9c-2.3,1.6-3.9,2.8-5.7,4c-9.2,6-18.5,11.8-27.6,17.8
		c-6.8,4.5-7,4.7-3.2,11.6c5.8,10.5,12,20.7,17.9,31.1c1.6,2.9,3.1,3.4,5.8,1c7.6-6.8,15.4-13.6,23.2-20.1c1.3-1.1,3.7-1,5.5-1.5
		c-0.6,1.8-0.6,4.2-1.8,5.3c-7.5,6.8-15.3,13.3-23,19.8c-1.3,1.1-2.6,2-4.4,3.4c4.8,6.9,9.6,13.7,14.3,20.4c0.8,1.1,1.9,2.1,2.2,3.3
		c0.4,1.5,0.1,3.1,0.1,4.7c-1.7-0.5-4.1-0.4-5-1.6c-5-6.6-9.7-13.5-14.4-20.3c-0.6-0.8-1.2-1.6-2.2-2.8c-4.6,4-8.8,8.2-13.5,11.7
		c-7,5.3-14.2,10.4-21.5,15.3c-3.1,2.1-3.7,4.2-1.4,6.9c4.4,5.2,8.7,10.5,13.4,15.4c2,2.1,3.3,4,2.1,6.9
		C1466.7,1007.6,1466.8,1007.5,1466.8,1007.5z M1418.4,928.1c13.2-9.1,25.9-17.8,38.6-26.7c0.8-0.5,1.1-2.8,0.6-3.7
		c-7.9-16.7-15.9-33.2-24.2-50.5c-4,3.5-7.8,6.9-11.7,10.2c-9.8,8.2-19.6,16.4-29.3,24.7c-0.8,0.7-1.3,3.1-0.8,4
		C1400.3,899.9,1409.1,913.6,1418.4,928.1z M1460.8,905.1c-13.4,9.3-26.7,18.4-40.2,27.7c8.9,14.9,17.4,29.2,26,43.7
		c13.8-9.1,26.8-18.3,37.6-29.2C1476.2,932.9,1468.7,919.3,1460.8,905.1z M1413.4,931.6c-9.6-15.3-18.6-29.6-28-44.7
		c-9.5,6.4-18.5,12.3-27.3,18.4c-0.8,0.5-0.9,3-0.4,4.1c2.2,4.3,4.7,8.4,7.2,12.5c5.9,9.6,12,19,18.4,29.2
		C1393.6,944.6,1403.2,938.3,1413.4,931.6z M1386.6,955c0.3,0.9,0.5,1.6,0.8,2.1c8.9,12.8,17.9,25.5,26.8,38.3
		c1.7,2.5,3.5,1.8,5.5,0.3c5.5-3.9,10.9-8.1,16.7-11.7c3.9-2.4,4.8-4.7,2.3-8.7c-5.3-8.4-10.2-17.1-15.3-25.7
		c-2.6-4.4-5.2-8.8-7.9-13.3C1405.7,942.7,1396.4,948.8,1386.6,955z"/>
	<path class="coffee2" d="M1495.5,798.6c-5.1,0.6-10.1,1.4-15.2,1.8c-9.7,0.8-19.4,1.4-29.1,2.1c-5,0.3-10.1,1.2-15.1,0.9
		c-7.5-0.6-15-2-22.5-3.1c-2-0.3-3.9-0.5-5.9-0.8c-8-1.2-16.1-2.4-24.1-3.5c-0.2,0-0.6,1-0.9,1.6c-1,0-2,0-3,0
		c-0.3-1.4-0.6-2.8-0.9-4.2c5.4-0.6,1.9-3.2,1.3-5.4c-0.6-2.4-1.6-5.7-0.5-7.3c1.1-1.5,4.6-1.7,7-1.9c2.1-0.2,4.2,0.6,6.4,0.7
		c3.1,0.1,4.3-1.4,2.8-4.5c-0.8-1.7-2.1-3.2-2.3-4.9c-0.2-1.5,0.6-4.4,1.5-4.6c3-0.7,6.3-0.9,9.3-0.5c3.2,0.4,6.4,1.6,9.5,2.6
		c2.3,0.7,4.5,1.6,6.4,2.3c-0.7,3.1-1.6,5.4-1.5,7.8c0.1,3.1,1.1,6.2,1.4,9.3c0.2,1.4-0.3,2.8-0.5,4.2c-1.4-0.2-3-0.1-4.2-0.8
		c-3.9-2.2-7.7-4.7-11.5-6.9c-1.5-0.9-3.3-1.5-5-1.9c-0.6-0.2-1.9,0.5-2,0.9c-0.1,0.8,0.2,2.2,0.8,2.5c7,3.8,14,7.6,21.2,11
		c1.1,0.5,3.6-1.1,5-2.3c5.2-4.2,10.2-8.7,15.4-12.9c0.5-0.4,1.8-0.7,2.2-0.4c4.6,3.8,9.2,7.8,13.7,11.8c1.8,1.7,3.4,3.7,5.1,5.6
		c0.6-0.5,1.3-1,1.9-1.5c-3.6-5.1-7.1-10.2-10.7-15.3c-0.7-0.4-1.4-0.8-2.1-1.3l0,0.1c-1.3-1-2.7-2-4-3l0,0c0.3-2.1,0.7-4.2,1-6.3
		c0.2-0.3,0.4-0.5,0.6-0.8c2.1-1.6,4.2-3.2,6.3-4.8c6.1-0.4,12.2-1.1,18.3-1c3.4,0.1,7.1,1.2,10.2,2.6c6.5,3,11.5,9,19.1,9.9
		c2.1,0.3,4.3,0.7,6.3,1.5c2.7,1,3,3.2,1.1,5.1c-3.4,3.3-7.1,6.3-10.8,9.6c-6.3-7.5-11.8-15.5-20.3-20.6c1.3,2.9,3,5.4,4.8,7.9
		C1486.7,785.9,1491.1,792.2,1495.5,798.6z"/>
	<path class="coffee50" d="M1356.6,794.5c-8.5-2.7-17.3-4.7-25.4-8.2c-7.3-3.2-8.4-8.3-4.7-15.4c6.1-11.6,16.5-18.8,26.6-26.3
		c10.6-7.8,22.5-11.6,35.6-12c-2.7,5,4.1,3.6,4.3,5.8c-9.1,12.1-17.7,23.7-26.7,35.7c-5.5-5.3-11.2-10.9-17-16.3
		c-1.3-1.2-3.1-1.6-4.7-2.4c-0.6,0.8-1.1,1.6-1.6,2.3c6.4,5.9,12.7,11.9,19.2,17.7c2.3,2,2.4,3.7,0.8,6.3
		C1360.5,785.8,1358.7,790.2,1356.6,794.5z"/>
	<path class="coffee51" d="M1495.5,798.6c-4.4-6.3-8.8-12.6-13.3-19c-1.7-2.5-3.5-5-4.8-7.9c8.5,5.1,14,13.1,20.3,20.6
		c3.8-3.3,7.4-6.3,10.8-9.6c1.9-1.9,1.6-4-1.1-5.1c-2-0.7-4.1-1.2-6.3-1.5c-7.6-1-12.6-6.9-19.1-9.9c-3.2-1.5-6.8-2.6-10.2-2.6
		c-6.1-0.1-12.2,0.6-18.3,1c-4.1-1-4.7,2.6-6.3,4.8c-0.2,0.3-0.4,0.5-0.6,0.8c-0.8,2-5.5,3.5-1,6.3l0,0c1.3,1,2.7,2,4,3l0-0.1
		c0.7,0.4,1.4,0.8,2.1,1.3c3.6,5.1,7.1,10.2,10.7,15.3c-0.6,0.5-1.3,1-1.9,1.5c-1.7-1.9-3.2-3.9-5.1-5.6c-4.5-4-9.1-7.9-13.7-11.8
		c-0.4-0.3-1.7,0-2.2,0.4c-5.2,4.3-10.2,8.7-15.4,12.9c-1.4,1.2-3.9,2.8-5,2.3c-7.2-3.3-14.2-7.2-21.2-11c-0.6-0.3-0.9-1.7-0.8-2.5
		c0-0.4,1.4-1,2-0.9c1.7,0.4,3.5,1.1,5,1.9c3.9,2.2,7.6,4.7,11.5,6.9c1.2,0.7,2.8,0.5,4.2,0.8c0.2-1.4,0.7-2.8,0.5-4.2
		c-0.4-3.1-1.3-6.2-1.4-9.3c-0.1-2.3,0.9-4.7,1.5-7.8c-1.9-0.7-4.1-1.6-6.4-2.3c-3.2-1-6.3-2.2-9.5-2.6c-3.1-0.4-6.3-0.2-9.3,0.5
		c-0.9,0.2-1.7,3-1.5,4.6c0.2,1.7,1.5,3.3,2.3,4.9c1.5,3,0.3,4.5-2.8,4.5c-2.1,0-4.3-0.8-6.4-0.7c-2.5,0.2-6,0.3-7,1.9
		c-1.1,1.6-0.2,4.9,0.5,7.3c0.6,2.2,4.1,4.8-1.3,5.4c-1.4-3.3-2.8-6.5-4.2-9.8c0.3-1.1,0.6-2.1,0.9-3.2c3.3-6.2,8.9-6.4,15.3-4.9
		c-0.5-1.8-0.8-2.8-1.2-3.9c-2.2-7-1.3-8.6,5.6-10.9c3.9-1.3,7.5-1.5,11.4,0.4c3.1,1.5,6.7,1.7,10,2.5c1.2,0.4,2.4,0.8,3.7,1.2
		c1,0.6,2,1.2,2.9,1.8c2.5,1.5,6.7,2.8,0.5,5.2c-0.6,0.2-1.1,1.7-1,2.5c0.4,3.8,1.1,7.6,1.9,12.9c4.4-4.2,7.7-7.5,11.1-10.7
		l-0.1-0.1c1.5-1,3.4-1.7,4.4-3.1c2.5-3.5,4.3-7.5,6.8-10.9c1.1-1.5,3.3-2.7,5.2-2.9c7.5-0.7,15-0.9,22.6-1.3
		c1.6,0.5,3.1,0.9,4.7,1.4c3.2,1.8,6.8,3.2,9.5,5.6c3.2,2.8,6.4,4.6,10.6,4.3c10.2,1.9,18,7.6,24.4,15.4c1.6,2,4.2,4.2-0.1,6.1
		c-2.8-3.2-5.7-6.4-9-10.2c-4.4,5.6-7.8,9.9-11.3,14.3C1502.2,799.8,1499.5,800.9,1495.5,798.6z"/>
	<path class="coffee52" d="M1435.8,776.6c-3.3,3.2-6.7,6.5-11.1,10.7c-0.8-5.3-1.5-9.1-1.9-12.9c-0.1-0.8,0.4-2.3,1-2.5
		c6.2-2.4,2-3.7-0.5-5.2c-1-0.6-2-1.2-2.9-1.8c1-3.3,0-5.7-2.6-7.9c-3.5-3-6.9-6.1-10.2-9.3c-5-5-9.9-10.1-14.8-15.2
		c0.9-0.3,1.8-1,2.7-0.9c15.1,0.9,30.3,1.8,45.4,2.8c5.9,0.4,11.8,0.7,17.8,1.1c-1.4,1.3-3,2.5-4.2,4.1
		c-7.7,10.6-15.4,21.2-22.9,31.8c-1.1,1.5-1.3,3.6-2.3,6.3C1432.3,777.2,1434,776.9,1435.8,776.6z"/>
	<path class="coffee50" d="M1499.4,769.7c-4.2,0.2-7.4-1.6-10.6-4.3c-2.7-2.4-6.3-3.8-9.5-5.6c1-3.3-0.4-5.5-2.6-7.9
		c-4.3-4.6-8.1-9.6-12-14.4c15.5-1.1,29.1,5.2,42.7,11.4c1.8,0.8,3.5,1.8,5.3,2.6c-3.6,3.4-6.7,7.5-10.8,10c-4,2.4-3.6,4.8-2.2,8.1
		L1499.4,769.7z"/>
	<path class="coffee50" d="M1523.7,791.3c4.3-1.9,1.7-4.1,0.1-6.1c-6.4-7.9-14.2-13.5-24.4-15.4l0.2-0.3c2.6-1.9,5.4-3.8,7.9-5.9
		c3.4-2.9,6.7-6.1,10-9.1c9.9,4,18.9,17,18.1,26.3c-0.2,2.7-0.7,5.4-1.2,9.5c-2.8,1.1-7.3,3-11.8,4.6c-0.9,0.3-2.1-0.2-3.1-0.4
		C1521,793.4,1522.3,792.3,1523.7,791.3z"/>
	<path class="coffee48" d="M1392.6,732.5c4.9,5.1,9.8,10.2,14.8,15.2c3.3,3.2,6.7,6.3,10.2,9.3c2.5,2.2,3.6,4.6,2.6,7.9
		c-1.2-0.4-2.4-0.8-3.7-1.2c-0.8-1.4-1.4-3-2.5-4.1c-4.2-4.4-8.6-8.7-12.9-13c-1.6-1.6-3.3-2.9-6-5.3c-7.8,10.9-15.1,21.1-22.3,31.4
		c-3.4,4.8-3.1,5.2,2.5,7.7c-0.3,1.1-0.6,2.1-0.9,3.2c-2.3-0.3-4.5-0.6-7.8-1.1c-1.8,3.9-3.9,8.4-6.1,13c-1.3-0.3-2.7-0.7-4.1-1
		c2.1-4.3,3.9-8.7,6.4-12.8c1.6-2.7,1.4-4.3-0.8-6.3c-6.5-5.8-12.8-11.8-19.2-17.7c0.6-0.8,1.1-1.6,1.6-2.3c1.6,0.8,3.5,1.2,4.7,2.4
		c5.8,5.4,11.5,11,17,16.3c9-12,17.7-23.6,26.7-35.7c-0.2-2.2-7.1-0.8-4.3-5.8C1390,732.5,1391.3,732.5,1392.6,732.5z"/>
	<path class="coffee48" d="M1464.6,737.5c4,4.8,7.8,9.8,12,14.4c2.2,2.4,3.6,4.7,2.6,7.9c-1.6-0.5-3.2-0.9-4.7-1.4
		c-4.6-6.3-9.2-12.6-14.6-20c-7.9,11-15.2,20.8-22.2,30.8c-1.4,2-1.5,4.9-2.2,7.3l0.1,0.1c-1.8,0.3-3.5,0.6-6.6,1
		c0.9-2.7,1.2-4.8,2.3-6.3c7.5-10.7,15.2-21.3,22.9-31.8c1.1-1.6,2.8-2.7,4.2-4.1c1-0.3,2.3-1.1,3.1-0.8
		C1462.8,735.2,1463.6,736.5,1464.6,737.5z"/>
	<path class="coffee50" d="M1360.6,795.5c2.1-4.6,4.3-9.1,6.1-13c3.3,0.5,5.6,0.8,7.8,1.1c1.4,3.3,2.8,6.5,4.2,9.8
		c0.3,1.4,0.6,2.8,0.9,4.2c-4-0.1-8,0.1-12-0.3C1365.3,797,1363,796.1,1360.6,795.5z"/>
	<path class="coffee48" d="M1523.7,791.3c-1.4,1.1-2.7,2.2-4.1,3.3c-3.8,0.8-7.5,1.8-11.3,2.2c-1.5,0.2-3.2-0.9-4.8-1.4
		c3.4-4.3,6.8-8.7,11.3-14.3C1518,784.8,1520.9,788,1523.7,791.3z"/>
	<path class="coffee48" d="M1517.5,754.5c-3.3,3.1-6.6,6.2-10,9.1c-2.5,2.1-5.3,3.9-7.9,5.9c-1.4-3.3-1.8-5.6,2.2-8.1
		c4.1-2.5,7.3-6.6,10.8-10C1515.8,749.9,1518.1,749.8,1517.5,754.5z"/>
	<path class="coffee48" d="M1519.1,797.9c2.4,2,5,3.7,7,6c3.3,3.7,6.2,7.8,9,11.8c0.7,1,0.3,2.7,0.4,4.2c-1.4-0.4-3.4-0.4-4.1-1.4
		c-3.8-4.8-7.3-9.8-11-14.7c-1-1.4-2-2.7-3-4.1C1518,799.1,1518.5,798.5,1519.1,797.9z"/>
	<path class="coffee50" d="M1382.6,797.5c0.3-0.6,0.7-1.6,0.9-1.6c8.1,1.1,16.1,2.3,24.1,3.5c-1.4,0.3-2.8,1-4.1,0.9
		c-5.9-0.2-11.8-0.5-17.7-1C1384.7,799.3,1383.7,798.2,1382.6,797.5z"/>
	<path class="coffee42" d="M1487.5,346.2c-2.2-45.2-4.3-90-6.4-135.1c50.7-23.2,101.5-46.4,152.9-69.9c0.3,1.9,0.6,3.1,0.6,4.3
		c0.1,5.3-0.1,10.5,0,15.8c0.3,17.1,0.4,34.2,1.1,51.3c0.6,14.2,2,28.4,2.8,42.6c0.2,3.6-0.7,6.7-4.6,8.9
		c-27.4,15.3-54.6,30.9-81.9,46.3C1530.7,322.3,1509.4,334,1487.5,346.2z"/>
	<path class="coffee53" d="M1473.6,291.5c0,18,0,35.9,0,52.8c-3.5-14.6-8.7-30.2-9-46.7c-0.2-11.9-0.5-23.8-1.1-35.7
		c-0.8-15.4-2.2-30.7-2.8-46.1c-0.2-5.2,0.8-10.6,2.2-15.7c0.6-2.2,3.4-4.3,5.7-5.5c4.7-2.4,9.7-4.2,14.6-6.3
		c11.1-4.6,22.3-9.3,33.4-13.9c28.7-11.8,57.5-23.5,86.2-35.2c11.2-4.6,22.4-9.2,33.6-13.8c-1.3,1.7-2.3,4.1-3.9,4.9
		c-13.2,6.2-26.6,12.1-39.9,18c-16.7,7.4-33.4,14.8-50.1,22.1c-23.4,10.4-46.7,20.8-70.1,31.1c-3.4,1.5-4.7,3.6-4.3,7.3
		c0.9,11,1.6,21.9,2.4,32.9c0.6,8.7,1.5,17.5,1.9,26.2c0.3,6.1,0,12.1,0.1,18.2C1472.7,288,1473.3,289.8,1473.6,291.5z"/>
	<path class="coffee54" d="M1516.4,185.8c2.6-1.2,5.1-2.3,7.7-3.5c0.2,0.4,0.3,0.7,0.5,1.1c-2.5,1.2-5,2.4-7.5,3.7
		C1516.9,186.6,1516.7,186.2,1516.4,185.8z"/>
	<path class="coffee54" d="M1514.2,188.1c-1.7,0.8-3.4,1.6-5.1,2.4c-0.2-0.3-0.3-0.7-0.5-1c1.6-0.7,3.2-1.5,4.8-2.2
		C1513.7,187.6,1514,187.9,1514.2,188.1z"/>
	<path class="coffee54" d="M1528.4,180.4c0.4,0.1,0.7,0.2,0.9,0.3c-0.2,0.3-0.4,0.6-0.7,0.8c-0.2,0.1-0.5-0.2-0.8-0.3
		C1528.1,181,1528.3,180.7,1528.4,180.4z"/>
	<path class="coffee54" d="M1513.4,187.3c0.6-0.3,1.3-0.7,1.9-1c0.2,0.2,0.3,0.4,0.4,0.7c-0.5,0.4-1,0.8-1.5,1.2
		C1514,187.9,1513.7,187.6,1513.4,187.3z"/>
	<path class="coffee54" d="M1526.6,182.1c-0.2,0.1-0.4,0.2-0.6,0.3c-0.1,0-0.2-0.2-0.3-0.3c0.2-0.1,0.4-0.3,0.7-0.3
		C1526.4,181.7,1526.5,182,1526.6,182.1z"/>
	<path class="coffee55" d="M1870.6,151.1c0.4,10.9-3.1,19.8-12.7,25.7c-6.6,4.1-16.6,3.9-22.4-1.1c-1.9-1.7-2.7-4.7-4-7.1
		c0.8-0.5,1.5-0.9,2.3-1.4c8,10.3,20.3,10.4,28.9-1.7c2.2-3.1,3.2-6.5,0-9.8c1.2-2,2.5-3.9,3.7-5.9c0.8,0,1.6-0.1,2.4-0.2
		C1869.3,150.1,1869.9,150.6,1870.6,151.1z"/>
	<path class="coffee56" d="M1862.6,155.7c3.2,3.3,2.2,6.6,0,9.8c-8.5,12.1-20.9,12-28.9,1.7c3.2-2.5,6.3-5.1,9.5-7.6
		c0.6,0.1,1.3,0.2,1.9,0.2c-1.2,2.2-2.3,4.3-3.5,6.4c7.1,3.2,10.2,2.8,13.3-1.5c2.8-3.8,1.9-7.1-1.3-10.1
		C1856.6,155,1859.6,155.3,1862.6,155.7z"/>
	<path class="coffee54" d="M1853.6,154.6c3.2,3,4.1,6.3,1.3,10.1c-3.2,4.3-6.3,4.7-13.3,1.5c1.2-2.1,2.3-4.1,3.5-6.4
		c-0.6-0.1-1.2-0.1-1.9-0.2c3.2-1.7,6.3-3.4,9.5-5l0.5-0.1L1853.6,154.6z"/>
	<path class="coffee43" d="M1582.6,335.5c0.3,0.7,0.7,1.3,1,2C1583.3,336.8,1582.9,336.2,1582.6,335.5z"/>
	<path class="coffee42" d="M1418.4,928.1c-9.3-14.5-18.2-28.2-26.8-42c-0.6-0.9-0.1-3.3,0.8-4c9.7-8.3,19.5-16.5,29.3-24.7
		c3.9-3.3,7.7-6.7,11.7-10.2c8.3,17.2,16.3,33.8,24.2,50.5c0.5,1,0.2,3.2-0.6,3.7C1444.4,910.3,1431.6,919,1418.4,928.1z"/>
	<path class="coffee42" d="M1460.8,905.1c7.9,14.2,15.4,27.8,23.4,42.2c-10.8,10.8-23.8,20.1-37.6,29.2c-8.6-14.5-17.2-28.8-26-43.7
		C1434,923.5,1447.3,914.3,1460.8,905.1z"/>
	<path class="coffee42" d="M1413.4,931.6c-10.2,6.7-19.9,13-30.1,19.6c-6.4-10.2-12.5-19.7-18.4-29.2c-2.6-4.1-5-8.2-7.2-12.5
		c-0.5-1.1-0.4-3.6,0.4-4.1c8.8-6.2,17.8-12.1,27.3-18.4C1394.8,902,1403.8,916.3,1413.4,931.6z"/>
	<path class="coffee42" d="M1386.6,955c9.7-6.3,19.1-12.3,28.9-18.7c2.7,4.6,5.3,9,7.9,13.3c5.1,8.6,10,17.2,15.3,25.7
		c2.5,4,1.6,6.3-2.3,8.7c-5.8,3.6-11.2,7.7-16.7,11.7c-2,1.4-3.7,2.2-5.5-0.3c-8.9-12.8-17.8-25.5-26.8-38.3
		C1387.1,956.6,1387,955.9,1386.6,955z"/>
	<path class="coffee36" d="M1447.2,769.4c1.6-2.2,2.2-5.8,6.3-4.8C1451.4,766.2,1449.3,767.8,1447.2,769.4z"/>
	<path class="coffee36" d="M1445.6,776.6c-4.4-2.9,0.2-4.3,1-6.3C1446.2,772.3,1445.9,774.4,1445.6,776.6z"/>
	<path class="coffee36" d="M1449.6,779.6c-1.3-1-2.7-2-4-3C1446.9,777.5,1448.2,778.6,1449.6,779.6z"/>
	<path class="coffee36" d="M1451.6,780.8c-0.7-0.4-1.4-0.8-2.1-1.3C1450.2,779.9,1450.9,780.4,1451.6,780.8z"/>
	<path class="coffee52" d="M1375.4,780.4c-5.6-2.5-5.9-2.8-2.5-7.7c7.2-10.3,14.5-20.5,22.3-31.4c2.7,2.3,4.4,3.7,6,5.3
		c4.4,4.3,8.7,8.6,12.9,13c1.1,1.1,1.7,2.7,2.5,4.1c-3.4-0.8-7-1.1-10-2.5c-3.9-1.9-7.5-1.7-11.4-0.4c-6.8,2.2-7.8,3.8-5.6,10.9
		c0.3,1.1,0.6,2.2,1.2,3.9C1384.3,774,1378.8,774.2,1375.4,780.4z"/>
	<path class="coffee52" d="M1435.7,776.5c0.7-2.5,0.8-5.3,2.2-7.3c6.9-10,14.2-19.8,22.2-30.8c5.4,7.4,10,13.7,14.6,20
		c-7.5,0.4-15.1,0.6-22.6,1.3c-1.8,0.2-4.1,1.4-5.2,2.9c-2.6,3.4-4.3,7.4-6.8,10.9C1439.1,774.8,1437.2,775.5,1435.7,776.5z"/>
</g>
<g>
	<path class="coffee57" d="M784,618.2c-3.4-4.1-11.5-4-16.9-6.8c-6.2-3.2-11.8-7.4-17.7-11.1c-5.5,0-10.9,0-16.3,0
		c-25.2,0-50.4,0.1-75.6,0.1c-30.3,19.6-62.5,27.5-98,17c-7.5-2.2-15.2-4.1-22.8-6.1c-13.5,1.2-27.3,1.4-40.6,3.8
		c-26.9,4.9-55.3,6.5-76.7,27.2c8.8,0.7,17.3,1.7,18,13.3c17,4.7,34,9.4,51.1,14.1c16.1,0.1,32.6-2,48.3,0.7
		c37.5,6.4,73.9,1.4,110.1-7.1c38.8-9.1,77.3-19.4,115.9-29.2c2.8-0.7,5.7-2.3,8.2-1.8c3.4,0.7,6.5,3,9.7,4.6
		c-2.5,3-4.6,7.9-7.7,8.6c-52.5,13-105,25.5-157.6,38.2c-3.3,0.8-6.5,2-9.8,3c-9.5,2.5-19,5.5-28.7,7.3c-49.9,9-98.1,4.7-143.4-19.9
		c-1.8-1-4.5-0.3-6.8-0.4c-14.4,27.7-28.9,55.5-43.3,83.2c19.8,9.8,38.6,22.9,59.5,28.5c29.6,8,60.8,10.2,91.2,15.4
		c1.7,0.3,3.4,1.1,5,2c0.6-0.2,1.2-0.4,1.9-0.4c14.9,0,29.9,0,44.7,1.8c5.7-1.3,11.5-2.5,17.2-3.2c34.2-4.6,69-6.2,102.7-13.4
		c31.8-6.8,62.7-18.5,93.5-29.6c15.5-5.6,29.9-14.4,44.8-21.8C843.9,686.9,813,652.9,784,618.2z"/>
	<path class="coffee58" d="M1036.3,707.7c-38.6,26.2-78.9,47.9-127.6,45.6c-5.9-0.3-11.5-4.7-17.3-7.2c36.4-2.3,71-9,96.7-38.3
		c3.3-5.1,8.9-9.9,9.6-15.4c4.1-32.8,7-65.7,10.4-98.6c1.7-57.1-7.8-112.8-20.9-168.2c-2.2-9.4-0.7-19.7-0.9-29.6
		c8.6,29.9,20.2,59.4,25.3,89.9c9.2,55.1,14.5,110.8,21.6,166.2c0.5,3.6,2.2,7.1,3.3,10.7C1036.3,677.8,1036.3,692.8,1036.3,707.7z"
		/>
	<path class="coffee59" d="M676.7,12.9c-48.5,10.7-91.3,33.6-132.2,60.8c-27.2,18.1-44.7,41-38.3,76.1c3.5,2.8,6.9,5.7,11.4,9.3
		c2.9-5.6,5.7-10.9,8.5-16.2c2.6-6.7,3.5-14.9,8-19.9c47.5-53,106-87.3,176-101.6c10.1-2.1,19.7-6.7,29.5-10.1
		c-2.2-0.8-4.4-1.7-6.6-2.5C714.2,8.8,695.4,11.4,676.7,12.9z"/>
	<path class="coffee60" d="M657.6,600.3c-30.3,19.6-62.5,27.5-98,17c-7.5-2.2-15.2-4.1-22.8-6.1c-14.6-12.9-28.1-25-50.8-24.2
		c-32.2,1.2-58.7-25.8-57.4-55.2c0.3-7.8,5.9-15.4,9-23.2c12.4-0.1,24.9-0.3,37.3-0.4c1.8,0.2,3.5,0.5,5.3,0.7
		c-1.1-1.5-2.2-3-3.4-4.6c-1.9-2.4-3.7-4.9-5.6-7.3c1-2.5,2.1-5,3.1-7.4c1.7-1.1,3.4-2.2,5.2-3.3c4.1-2.1,8.3-4.2,12.4-6.3
		c12.7-2.2,25.3-4.4,38-6.6c2.3-0.7,4.6-1.5,6.9-2.2c3.4-0.5,6.9-0.9,10.3-1.4c5.8-0.4,11.5-0.8,17.3-1.1c3.5-0.7,6.9-1.4,10.4-2.1
		c3.4-0.3,6.8-0.6,10.3-0.9c27.6,0,55.1,0,82.7-0.1c5.3,1.1,10.6,2.2,15.9,3.4c5.2,5.5,10.4,11.1,15.6,16.7c0.9,1.6,1.8,3.2,2.7,4.8
		C702.7,533.5,687.3,569.8,657.6,600.3z M678.1,492.6c-3.4,0.6-6.8,1.2-10.2,1.8c-31.4-14.1-64.5-7.5-96.9-7.9
		c-7.5-12-20.8-12.8-47.5-2.3c3.7,2.5,6.9,4.5,10,6.6c-4.7,4.6-9.3,9.2-14,13.8c-5.7-1.4-11.5-2.8-17.2-4.2c0.7-2.7,1.3-5.4,2-8.1
		c-0.9-0.3-1.9-0.6-2.8-0.9c-0.8,2.6-1.7,5.2-2.5,7.8c-7.6,13.7,5.9,12.4,11.3,13.6c43.7,9.7,88.2,13.8,132.2,4.3
		c15.2-3.3,34.9-3.6,42.5-23.2c-0.8-3.1-1.7-6.2-2.5-9.2c-1,0.1-1.9,0.2-2.9,0.3C679,487.6,678.5,490.1,678.1,492.6z M493,572.3
		c-8-18-10.7-35.4-29.1-41.2c-4.2-1.3-11.2-1.7-13.3,0.6c-2.3,2.6-2.3,10-0.3,13.4C459.1,560,472.3,568.9,493,572.3z"/>
	<path class="coffee60" d="M192,25.4c52.7-2.2,89.3,40.6,82.5,96.3c-0.2,1.7-0.6,3.4-0.9,5.1c-6.2,37.1-6.2,37.1,31.2,44.4
		c70.6,13.7,109.8,74.3,93.7,144.4c-2.6,11.2-4.9,22.4-6.2,33.8c-2.7,23.3,6.7,34.1,30.4,35.2c27.5,1.3,55.2,0.8,82.5,3.6
		c19.1,2,38.9,5.7,56.1,13.6c10.4,4.7,18.2,17.9,24,28.9c4.4,8.5,0.3,17.6-8.4,20.7c-8.1-12.1-13.1-28.7-23.2-32.6
		c-19-7.5-40.7-9.6-61.5-10.4c-26.3-1-52.7,2.1-79,2.2c-24.4,0.1-43.9-15.5-49.1-37.2c0.1-10.3,0.1-20.6,0.2-30.9
		c2.9-16.3,5.7-32.5,8.8-48.7c3.9-20-2.4-36.6-14.5-52.7c-19.5-25.9-42.8-41.4-76.4-45.8c-37.2-4.9-45.5-21.8-37.2-58.3
		c1.9-8.3,3.1-17,3.6-25.5c2-36.9-15.2-59.8-51-69c-10.5-2.7-20.7-6.2-31-9.4c0.3-2,0.5-3.9,0.8-5.9c5.8-0.5,11.6-0.9,17.5-1.3
		C187.6,25.7,189.8,25.5,192,25.4z"/>
	<path class="coffee61" d="M474.3,489.7c-1,2.5-2.1,5-3.1,7.4c-12.7,1.4-25.3,2.8-38,4.1c-2.3,0-4.6-0.1-6.9-0.1
		c-8.1-0.9-16.2-1.9-24.3-2.8c-18.3,2.5-36.5,5.1-54.8,7.7c-9.4,0.3-18.8,0.7-28.2,1c-7-4.1-14.1-8.3-21.1-12.4
		c-0.2-17.6-0.3-35.1-0.8-52.7c0-1-3.7-1.8-5.7-2.8c-2.3-2-4.5-4-6.8-6c-0.6-2.1-1.3-4.2-1.9-6.3c-1.7,1.1-3.4,2.2-5.2,3.2
		c-1.2,0.2-2.1-0.1-2.9-1.1c-1.4-2.2-2.6-6.2-4.2-6.4c-22.1-1.8-44.3-3.4-66.4-4c-4-0.1-8.1,4.5-12.2,6.9c-2.1,0.1-4.3,0.2-6.4,0.3
		c-17.5,0-34.9,0-52.3,0c-2.2-0.3-4.4-0.6-6.6-0.9c-4.6-1-9.3-2-13.9-3.1c-1.1-0.1-2.2-0.3-3.4-0.4c-1.9-3-3.9-5.9-5.8-8.9
		c-1.5,1.8-3,3.7-4.5,5.5c-15-6.7-31.3-11.5-44.7-20.5c-22.9-15.3-29.2-38-14.5-61.4c15.4-24.6,34.6-46.9,53.8-68.8
		c14-16,22.8-32.3,13.7-52.8c-8.2-18.5-22.9-31.6-42.4-37.1c-18.6-5.3-37.8-8.2-56.7-12.2c1.5-3.2,2.6-8.8,4.6-9.2
		c34.7-6.3,88,17.3,106.5,46.5c13.4,21.1,9,49.2-9.1,71.5c-17.2,21.3-34.1,43.1-48.6,66.3c-11.7,18.7-7.5,29.4,12.3,40.6
		c28.8,16.3,60,20.7,92.8,18.8c31.3-1.8,62.7-2,94.1-1.8c8.8,0.1,18,3.4,26.4,6.7c26.5,10.5,34.6,25.9,29.7,54
		c-4,22.8-0.9,27.6,22.1,25.5c24.1-2.3,46.4-3.3,70.2,7.2c13.6,6,33-0.8,49.7-1.6C464,489.6,469.2,489.7,474.3,489.7z"/>
	<path class="coffee62" d="M749.5,600.2c-5.5,0-10.9,0-16.3,0c-0.1-2.7-0.3-5.4-0.4-8.1c-3.8-20-7.5-40-11.2-60
		c-13.1-40.5-22.8-82.6-40.3-121.2c-19.2-42.3-45.5-81.3-68.7-121.8c1.1-5.3,2.2-10.7,3.3-16c2.3,0.1,4.7,0.2,7.1,0.2
		c3.8,5.6,7.1,11.7,11.5,16.8c7.5,8.7,15.6,16.8,23.5,25.2c0.5,0.9,0.9,1.9,1.1,2.9c0.3,3.7-0.5,8.2,1.2,11
		c36,56.6,55.3,120.1,74.5,183.3c8.4,27.5,10.8,56.8,16,85.4C750.4,598.8,750,599.5,749.5,600.2z"/>
	<path class="coffee63" d="M506.2,149.7c3.5,2.8,6.9,5.7,11.4,9.3c2.9-5.6,5.7-10.9,8.5-16.2c3.1-2.5,6.3-4.8,9.2-7.6
		c16.2-16,31.3-33.5,49-47.7c6.5-5.2,22-7,28.5-2.8c11.6,7.4,3.2,17.4-4,25.5c-9.5,10.5-18.3,21.6-27.4,32.4
		c-1.1,3.5-2.2,6.9-3.3,10.4l0.1-0.1c-7.4,4.5-17.7,7.2-21.7,13.8c-13.6,22.6-31.3,27-54.3,17.2c-5.3-5.5,16-12.6-1.1-17.3
		C502.8,161,504.5,155.3,506.2,149.7z"/>
	<path class="coffee64" d="M591.8,317.2c-6.6,2.3-13.2,6.5-19.9,6.6c-13.1,0.2-26.2-1.8-39.3-2.9c-17.5-1.5-22.7-6.9-18-24.4
		c6.2-23,14.7-45.4,22.3-68c9.7,1,7.9,6,5.9,13.1c-5,17.8-9.4,36-12.5,54.2c-0.6,3.4,5.5,11,9.3,11.6c15,2.4,30.3,2.7,45.5,3.8
		c2.3,1.3,4.7,2.5,7,3.8C592.5,315.8,592.4,316.5,591.8,317.2z"/>
	<path class="coffee65" d="M585,311.2c-15.2-1.1-30.5-1.5-45.5-3.8c-3.8-0.6-9.9-8.2-9.3-11.6c3.1-18.3,7.5-36.4,12.5-54.2
		c2-7.1,3.8-12.1-5.9-13.1c-1-6.9-2-13.9-3.1-20.8c3.3-2.2,6.5-4.4,9.8-6.6c10.2,14.1,16.9,28.7,10.4,46.9
		c-5.8,16.3-10.2,33.2-16.5,53.9c12.8-1.5,21-2.3,29.2-3.5C577.1,296.8,585.4,297.6,585,311.2z"/>
	<path class="coffee66" d="M543.6,201.1c-3.3,2.2-6.5,4.4-9.8,6.6c-13-3.9-25.9-7.8-38.8-11.6c-1-0.6-2-1.2-3.1-1.8h0
		c3.4-3.4,6.8-6.9,10.3-10.3c23,9.8,40.7,5.4,54.3-17.2c4-6.6,14.3-9.3,21.7-13.8c-3.4,5.8-6.7,11.5-10.1,17.2
		C559.9,180.5,551.7,190.8,543.6,201.1z"/>
	<path class="coffee67" d="M591.8,317.2c0.6-0.7,0.7-1.4,0.3-2.2c7.4-28.9,14.8-57.8,22.1-86.8c2.3,0.3,4.7,0.6,7,0.9
		c0.5,6.7,1,13.5,1.4,20.2c-2.3,8-4.6,15.9-6.8,23.9c-1.1,5.3-2.2,10.7-3.3,16c-2.6,6.9-4.3,14.5-8.3,20.6
		C601.9,313.4,596,314.8,591.8,317.2z"/>
	<path class="coffee68" d="M721.5,532.2c3.8,20,7.5,40,11.2,60C729,572.1,725.2,552.2,721.5,532.2z"/>
	<path class="coffee59" d="M502.1,183.9c-3.4,3.4-6.8,6.9-10.3,10.3c-1.1-4.6-4.4-10.1-2.9-13.6c2.3-5.4,7.9-9.4,12.1-14
		C518.2,171.3,496.8,178.5,502.1,183.9z"/>
	<path class="coffee69" d="M364.6,342.5c-0.1,10.3-0.1,20.6-0.2,30.9C364.5,363.1,364.6,352.8,364.6,342.5z"/>
	<path class="coffee70" d="M564.3,468.8c-5.8,0.4-11.5,0.8-17.3,1.1C552.8,469.6,558.5,469.2,564.3,468.8z"/>
	<path class="coffee70" d="M683.5,469.1c-5.3-1.1-10.6-2.2-15.9-3.4C672.9,466.9,678.2,468,683.5,469.1z"/>
	<path class="coffee70" d="M584.9,465.8c-3.4,0.3-6.8,0.6-10.3,0.9C578.1,466.4,581.5,466.1,584.9,465.8z"/>
	<path class="coffee70" d="M491.9,480.1c-4.1,2.1-8.3,4.2-12.4,6.3C483.6,484.3,487.7,482.2,491.9,480.1z"/>
	<path class="coffee70" d="M536.7,471.3c-2.3,0.7-4.6,1.5-6.9,2.2C532.1,472.8,534.4,472,536.7,471.3z"/>
	<path class="coffee69" d="M192,25.4c-2.2,0.1-4.5,0.3-6.7,0.4C187.6,25.7,189.8,25.5,192,25.4z"/>
	<path class="coffee70" d="M701.8,490.6c-0.9-1.6-1.8-3.2-2.7-4.8C700,487.4,700.9,489,701.8,490.6z"/>
	<path class="coffee59" d="M491.9,194.2c1,0.6,2,1.2,3.1,1.8C493.9,195.5,492.9,194.8,491.9,194.2z"/>
	<path class="coffee62" d="M419.5,642.3c8.8,0.7,17.3,1.7,18,13.3c-3.5,6-7,12.1-10.4,18.1c-14.4,27.7-28.9,55.5-43.3,83.2l-1,0.2
		l-0.7-0.8c-2-2.4-4-4.8-6.1-7.1c-12.6-7.3-11-15.5-4-26.8c15-24.1,28.6-49.1,42.7-73.7c1.6-2.2,3.3-4.4,4.9-6.6
		C419.6,642.1,419.5,642.3,419.5,642.3z"/>
	<path class="coffee70" d="M191.9,425.5c4.1-2.4,8.2-7,12.2-6.9c22.2,0.6,44.3,2.2,66.4,4c1.5,0.1,2.8,4.2,4.2,6.4
		C247.2,427.8,219.5,426.6,191.9,425.5z"/>
	<path class="coffee70" d="M291.5,439.1c2,0.9,5.6,1.8,5.7,2.8c0.5,17.6,0.6,35.1,0.8,52.7c-2.6-11.1-5.9-22.2-7.4-33.4
		C289.6,453.9,291.1,446.4,291.5,439.1z"/>
	<path class="coffee70" d="M133.1,425.9c17.4,0,34.9,0,52.3,0C168,425.8,150.6,425.9,133.1,425.9z"/>
	<path class="coffee71" d="M319.1,506.9c9.4-0.3,18.8-0.7,28.2-1C337.9,506.3,328.5,506.6,319.1,506.9z"/>
	<path class="coffee71" d="M402,498.3c8.1,0.9,16.2,1.9,24.3,2.8C418.3,500.1,410.1,499.2,402,498.3z"/>
	<path class="coffee70" d="M112.7,421.9c4.6,1,9.3,2,13.9,3.1C122,424,117.3,422.9,112.7,421.9z"/>
	<path class="coffee70" d="M99,418.1c1.5-1.8,3-3.7,4.5-5.5c1.9,3,3.9,5.9,5.8,8.9C105.9,420.4,102.5,419.2,99,418.1z"/>
	<path class="coffee70" d="M277.6,430c1.7-1.1,3.4-2.2,5.2-3.2c0.6,2.1,1.3,4.2,1.9,6.3C282.4,432,280,431,277.6,430z"/>
	<path class="coffee57" d="M419.6,642.1c-1.7,2.2-3.3,4.4-4.9,6.6C416.3,646.5,417.9,644.3,419.6,642.1z"/>
	<path class="coffee57" d="M376,749.2c2,2.4,4,4.8,6.1,7.1C380,753.9,378,751.6,376,749.2z"/>
	<path class="coffee68" d="M427,673.7c3.5-6,7-12.1,10.4-18.1c17,4.7,34.1,9.4,51.1,14.1c32.1,3.4,64.3,6.5,96.3,10.4
		c7.1,0.9,14,4.4,20.9,6.6c-9.5,2.5-19,5.5-28.7,7.3c-49.9,9-98.1,4.7-143.4-19.9C432,673.1,429.3,673.8,427,673.7z"/>
	<path class="coffee72" d="M605.8,686.8c-7-2.3-13.8-5.8-20.9-6.6c-32.1-3.9-64.2-7-96.3-10.4c16.1,0.1,32.6-2,48.3,0.7
		c37.5,6.4,73.9,1.4,110.1-7.1c38.8-9.1,77.3-19.4,115.9-29.2c2.8-0.7,5.7-2.3,8.2-1.8c3.4,0.7,6.5,3,9.7,4.6
		c-2.5,3-4.6,7.9-7.7,8.6c-52.5,13-105,25.5-157.6,38.2C612.3,684.5,609.1,685.7,605.8,686.8z"/>
	<path class="coffee73" d="M749.5,600.2c0.5-0.7,0.9-1.5,1.1-2.3c1.1,0,2.1-0.3,3.1-0.7c23.4,3.5,43.9,10.3,58.2,32.3
		c16.5,25.3,36.4,48.2,43.3,78.6c2.3,10,5.6,20.3-5.6,27.6c-1.8,0.2-3.6,0.3-5.4,0.4c-0.4-49.4-31.3-83.3-60.3-118
		c-3.4-4.1-11.5-4-16.9-6.8C761,608.2,755.3,604,749.5,600.2z"/>
	<path class="coffee74" d="M568,170.1c3.4-5.8,6.7-11.5,10.1-17.2l-0.1,0.1c1.1-3.5,2.2-6.9,3.3-10.4c9.1-10.8,17.9-21.9,27.4-32.4
		c7.3-8.1,15.6-18.1,4-25.5c-6.6-4.2-22-2.4-28.5,2.8c-17.7,14.1-32.8,31.6-49,47.7c-2.8,2.8-6.1,5.1-9.2,7.6
		c2.6-6.7,3.5-14.9,8-19.9c47.5-53,106-87.3,176-101.6c10.1-2.1,19.7-6.7,29.5-10.1c26.6-4.3,46.5,10.6,60.1,28.6
		c34.7,46,67.6,93.5,97.8,142.5c21,34,38.5,70.5,53.7,107.4c14.2,34.4,23.5,70.9,34.9,106.5c0.2,9.9-1.3,20.2,0.9,29.6
		c13.2,55.3,22.6,111,20.9,168.2c-2.1,1.2-4.1,2.3-6.2,3.5c-15.4,3.5-30.7,7.5-46.2,10.3c-12.5,2.3-17.1-6.1-19.2-16.8
		c-7.9-39.4-15.3-78.9-24.1-118.1c-4.2-18.8-11.2-36.9-16.9-55.3c-7.5-23.8-13.9-48-22.9-71.2c-9.4-24.3-20.8-48-32.5-71.3
		c-4.2-8.3-11.7-15-17.7-22.4c13.7-13.3,33.1-22,34.7-44.7L857,208c1.1-2.2,2.2-4.3,3.2-6.5c18.8-29,18.8-29.1-0.4-57.2
		c-9.9-14.5-20.1-28.8-30.2-43.2c-18.8-22.4-37.6-44.7-54.4-64.8c-17.9,18.3-32,34.2-47.7,48.4c-31.6,28.7-65,55.6-104.7,72.2
		C605.7,164.2,586.4,165.9,568,170.1z"/>
	<path class="coffee57" d="M822.4,252.5c6,7.4,13.5,14.1,17.7,22.4c11.7,23.4,23,47,32.5,71.3c9,23.2,15.4,47.4,22.9,71.2
		c5.8,18.4,12.7,36.5,16.9,55.3c8.8,39.2,16.2,78.7,24.1,118.1c2.1,10.7,6.7,19,19.2,16.8c15.5-2.8,30.8-6.8,46.2-10.3
		c-9.3,14.4-2.9,29.9-3.5,45c-0.2,4.5-0.9,9-1.6,13.5c-2.8,17.3-5.7,34.7-8.6,52c-25.7,29.3-60.3,36-96.7,38.3
		c-13.9-3.5-27.8-6.9-41.8-10.4c11.2-7.3,7.9-17.6,5.6-27.6c-6.9-30.4-26.9-53.4-43.3-78.6c-14.4-22.1-34.8-28.8-58.2-32.3
		c11.1-10.7,12.7-23.5,8.7-37.8c-1.1-3.8-1-7.9-1.9-11.8c-8.3-36-13.3-73.3-26.1-107.7c-15.4-41.5-37.5-80.5-56.7-120.6
		C730.7,307.4,778.8,284.7,822.4,252.5z"/>
	<path class="coffee75" d="M988.1,707.9c2.9-17.3,5.8-34.7,8.6-52c0.7-4.5,1.4-9,1.6-13.5c0.6-15-5.8-30.6,3.5-45
		c2.1-1.2,4.1-2.3,6.2-3.5c-3.3,32.9-6.3,65.8-10.4,98.6C997,697.9,991.4,702.7,988.1,707.9z"/>
	<path class="coffee76" d="M571,486.5c32.5,0.4,65.6-6.2,96.9,7.9c-2.8,2.5-5.1,6-8.3,7.2c-30,11.4-61.3,11.1-92.7,8.7
		c-15.9-1.2-31.7-3.8-47.5-5.7c4.7-4.6,9.3-9.2,14-13.8C546,489.3,558.5,487.9,571,486.5z"/>
	<path class="coffee77" d="M519.5,504.6c15.8,1.9,31.6,4.5,47.5,5.7c31.3,2.4,62.6,2.7,92.7-8.7c3.2-1.2,5.5-4.7,8.3-7.2
		c3.4-0.6,6.8-1.2,10.2-1.8c2.3,0.5,4.5,0.9,6.8,1.4c-7.5,19.6-27.3,19.9-42.5,23.2c-44,9.4-88.5,5.4-132.2-4.3
		c-5.3-1.2-18.8,0.1-11.3-13.6c1.1,0.4,2.3,0.8,3.4,1.1C508,501.8,513.7,503.2,519.5,504.6z"/>
	<path class="coffee78" d="M493,572.3c-20.7-3.3-34-12.2-42.7-27.1c-2.1-3.5-2.1-10.8,0.3-13.4c2.1-2.4,9.1-2,13.3-0.6
		C482.3,536.9,485,554.3,493,572.3z"/>
	<path class="coffee70" d="M571,486.5c-12.5,1.5-25,2.9-37.5,4.3c-3.2-2.1-6.3-4.2-10-6.6C550.2,473.7,563.5,474.4,571,486.5z"/>
	<path class="coffee70" d="M684.8,494c-2.3-0.5-4.5-0.9-6.8-1.4c0.4-2.5,0.9-5,1.3-7.5c1-0.1,1.9-0.2,2.9-0.3
		C683.1,487.9,684,490.9,684.8,494z"/>
	<path class="coffee70" d="M502.3,500.4c-1.1-0.4-2.3-0.7-3.4-1.1c0.8-2.6,1.7-5.2,2.5-7.8c0.9,0.3,1.9,0.6,2.8,0.9
		C503.6,495,502.9,497.7,502.3,500.4z"/>
	<path class="coffee61" d="M474.8,508.3c0.6-1.3,1.3-2.6,1.9-3.9c1.1,1.5,2.3,3,3.4,4.6C478.4,508.7,476.6,508.5,474.8,508.3z"/>
	<path class="coffee79" d="M829.6,101.2c10.1,14.4,20.3,28.7,30.2,43.2c19.3,28.2,19.2,28.2,0.4,57.2c-1.1,2.2-2.2,4.3-3.2,6.5l0.1-0.2
		c-12.4,10.9-23.8,23.1-37.2,32.6c-46,32.6-94.5,60.1-151.5,68.7c-10.8-11.6-21.3-23.5-32.7-34.4c-2.5-2.3-8.5-0.9-12.9-1.2
		c-2.3-0.1-4.7-0.2-7.1-0.2c2.3-8,4.6-15.9,6.8-23.9c18.9-9.3,37.9-18.5,56.7-28.1c1.4-0.7,1.5-4,2.1-6.1c6.2-0.8,13.3,0,18.4-2.8
		c25.3-14.3,50.3-29.2,74.7-44.8c3.9-2.5,4.7-9.6,7-14.6c1.1,0,2.5,0.4,3.4-0.1c16.9-10.8,34.5-21,38.1-43.6
		C823.5,106.2,827.3,103.8,829.6,101.2z"/>
	<path class="coffee65" d="M677.7,319.5c19.2,40.1,41.3,79.1,56.7,120.6c12.8,34.4,17.8,71.6,26.1,107.7c0.9,3.9,0.8,8,1.9,11.8
		c4,14.2,2.4,27.1-8.7,37.8c-1,0.4-2.1,0.6-3.1,0.7c-5.1-28.5-7.6-57.8-16-85.4c-19.2-63.2-38.5-126.7-74.5-183.3
		c-1.8-2.8-0.9-7.3-1.2-11C665.2,318.7,671.4,319.1,677.7,319.5z"/>
	<path class="coffee80" d="M677.7,319.5c-6.3-0.4-12.6-0.8-18.8-1.2c-0.2-1-0.6-2-1.1-2.9c3.5-2.1,7.1-4.2,10.6-6.3
		c57-8.6,105.5-36.1,151.5-68.7c13.4-9.5,24.9-21.6,37.2-32.6c-1.6,22.6-21,31.4-34.7,44.7C778.8,284.7,730.7,307.4,677.7,319.5z"/>
	<path class="coffee65" d="M668.4,309.1c-3.5,2.1-7.1,4.2-10.6,6.3c-7.9-8.3-16-16.5-23.5-25.2c-4.4-5.1-7.7-11.2-11.5-16.8
		c4.4,0.3,10.4-1.1,12.9,1.2C647.1,285.6,657.6,297.5,668.4,309.1z"/>
	<path class="coffee66" d="M581.3,142.6c-1.1,3.5-2.2,6.9-3.3,10.4C579.1,149.5,580.2,146.1,581.3,142.6z"/>
	<path class="coffee81" d="M829.6,101.2c-2.3,2.6-6.1,5-6.6,8c-3.6,22.7-21.2,32.8-38.1,43.6c-0.8,0.5-2.2,0.1-3.4,0.1
		c-29,24.7-60.9,44.4-97.2,56.6c-1.5,0.5-2,3.8-3,5.7c-0.7,2.1-0.7,5.4-2.1,6.1c-18.8,9.6-37.7,18.8-56.7,28.1
		c-0.5-6.7-1-13.5-1.4-20.2c-2.3-0.3-4.7-0.6-7-0.9c-7.4,28.9-14.8,57.8-22.1,86.8c-2.3-1.3-4.7-2.5-7-3.8
		c0.4-13.6-7.9-14.5-18.3-12.8c-8.1,1.3-16.3,2-29.2,3.5c6.3-20.7,10.7-37.5,16.5-53.9c6.5-18.2-0.2-32.8-10.4-46.9
		c8.2-10.3,16.3-20.7,24.5-31c18.3-4.2,37.7-6,54.7-13.1c39.7-16.6,73.1-43.5,104.7-72.2c15.7-14.2,29.8-30.1,47.7-48.4
		C792,56.5,810.8,78.8,829.6,101.2z"/>
	<path class="coffee80" d="M857,208c1.1-2.2,2.2-4.3,3.2-6.5C859.1,203.7,858.1,205.9,857,208z"/>
	<path class="coffee72" d="M681.4,215.2c1-2,1.5-5.2,3-5.7c36.3-12.2,68.2-31.9,97.2-56.6c-2.3,5-3.1,12.2-7,14.6
		c-24.5,15.6-49.5,30.5-74.7,44.8C694.7,215.2,687.6,214.3,681.4,215.2z"/>
</g>
</svg>
