<?xml version="1.0" encoding="utf-8"?>
<!-- Generator: Adobe Illustrator 23.0.3, SVG Export Plug-In . SVG Version: 6.00 Build 0)  -->
<svg version="1.1" xmlns="http://www.w3.org/2000/svg" xmlns:xlink="http://www.w3.org/1999/xlink" x="0px" y="0px"
	 viewBox="0 0 870.6 536.3" style="enable-background:new 0 0 870.6 536.3;" xml:space="preserve">
<style type="text/css">
	.st0{fill:#6F6A7B;}
	.st1{fill:#7A7784;}
	.st2{opacity:0.59;fill:#5C5461;}
	.st3{opacity:0.48;fill:#5C5461;}
	.st4{fill:#B59885;}
	.st5{fill:#AD907D;}
	.st6{fill:#B69985;}
	.st7{fill:#AB8E7C;}
	.st8{fill:#96796A;}
	.st9{fill:#A68977;}
	.st10{fill:#726769;}
	.st11{fill:#A28574;}
	.st12{fill:#C9C0C2;}
	.st13{opacity:0.23;fill:#625B6A;}
	.st14{fill:#625B6A;}
	.st15{fill:#E6E6E6;}
	.st16{fill:#CC3E63;}
	.st17{display:none;fill:#E5385D;}
	.st18{fill:#FF99A3;}
	.st19{fill:#8E5960;}
	.st20{fill:#20201E;}
	.st21{fill:#E5385D;}
	.st22{fill:#39BAE2;}
	.st23{fill:#E6F8FC;}
	.st24{opacity:0.2;fill:#5C5461;}
	.st25{opacity:0.1;fill:#5C5461;}
</style>
<g id="Ebene_2">
	<path class="st0" d="M155.8,2.7c23.7-0.3,47.3-0.7,71-1c-21.3,10.2-77.5,40.6-114.4,107.2c-11.2,20.3-21.1,46.3-31.7,122.6
		C73.9,280.9,67,351,67.5,437c-20.4,0.5-40.9,1-61.3,1.5c2.6-81.5,7.2-153.8,12.3-215.2c1.2-15,4.7-63.3,26.6-119.5
		C62,60.3,77.1,44.6,81.3,40.5C107.5,14.4,138.8,5.9,155.8,2.7z"/>
	<path class="st1" d="M67.5,437c2.5-87.1,7-156.3,10.7-204.5C79.4,217,82,182.9,93.5,140c11.4-42.3,17.1-63.5,34.7-85.3
		c6.4-7.9,41.4-51.3,101.1-53.6c57.1-2.2,94.9,36,106.7,48c30.2,30.5,40.2,65.2,45.4,84.5c4.6,17,5.6,40.7,7.7,88.1
		c1.3,30.7,1.4,61.4,1.5,100.3c0,13.7,0,25.1,0,32.9c-0.8,27.1-1.5,54.1-2.3,81.2C281.5,436.5,174.5,436.7,67.5,437z"/>
	<path class="st2" d="M170.5,93.4c5.1-7.1,16.3-22.8,34.6-30.6c2.8-1.2,3.2-1.1,17-6.5c11.3-4.4,12.8-5.1,15.8-5.8
		c5.5-1.2,11-1.1,23.3,1c8.7,1.5,13.1,2.3,15,4.1c2,1.9,3.2,4.3,6.8,6.1c2.5,1.3,3.6,1,6.1,1.7c5.8,1.7,7.2,5.4,12.9,9.9
		c4.8,3.7,8.3,4.6,11.6,6.1c7.4,3.6,10.4,9.2,25.5,35.1c13,22.2,17.9,29.9,16.7,37.1c-0.2,1.2-1.1,5.7-0.3,11.6
		c0.5,4.1,1.7,6.9,2.4,8.9c2.2,6.2,2,8.3,4.4,21.1c2.4,12.7,3.9,17.4,5.1,23.1c1.9,9.7,1.2,14.5-1.4,48c-2,25.7-2.7,37.6-3.1,51.4
		c-0.5,19.7,0.3,25.3,0.7,27.9c0.9,5.6,2.3,11.6,2.7,21.4c0.1,2.3,0.3,6.6,0,11.9c-0.5,9.9-2.4,16-3.9,23.3
		c-3.8,18.1-1.1,22.4-3.6,27.1c-11.8,22.3-66.7,13.7-162.4,3.1c-22.4-2.5-55.1-6.2-95-10.7c-0.4-24.6,0.6-44.1,1.7-57.7
		c0.8-9.7,1.9-19.8,2.7-37.1c0.8-15.1,0.5-18.5,1-28.3c0.9-17,3-29,6.1-47c6.5-37.4,12.1-51.5,12.9-66.4c0.1-1.7,0.2-5.3,1.7-9.9
		c2.3-7.3,6.7-12.8,9.2-16c3.4-4.2,4-4,5.8-6.8c3.4-5.3,4.3-10.9,4.4-15c3.5-6.1,7-12.3,10.6-18.4
		C161.8,106.7,166.8,98.7,170.5,93.4z"/>
	<path class="st3" d="M167,83.6c4-10,9-14.5,12.9-16.7c3.3-1.8,6.4-2.4,10.9-6.1c2.3-1.9,3.8-3.6,7.1-5.8c0,0,2.8-1.8,6.5-3.4
		c13.2-5.7,32.8-8.2,32.8-8.2c14.9-1.9,22.5-2.8,29.5,0.7c4.1,2,3.1,2.8,9.2,6.5c9.7,5.8,14.7,5.3,23.5,9.5c4,1.9,9.5,5.2,15.3,10.9
		c20.1,12.5,27.1,24.9,29.6,34c1.8,6.4,1.8,12.6,6.5,23.1c4,9.1,6.8,10.7,9.5,18.7c2.7,8,2.1,12.7,2.7,23.1
		c0.7,12.4,1.9,12.6,4.8,33.4c2.7,20.1,4.1,30.2,4.1,41.5c0,20-3.4,26-2.7,49.7c0.2,7.2,0.7,16,0.7,16c0.6,11.6,1.1,16,1.7,26.9
		c0.7,12.7,0.2,11.5,0.7,17.4c1.7,22.7,7.4,27.2,5.8,37.8c-1.9,12.6-12.1,20.8-18.1,25.6c-30.1,24.1-86.1,12.8-164.7,3
		c-46.6-5.8-83-10.2-100.8-12.3c1.1-10.4,2.5-26.1,3.7-45.3c1.4-23.2,1.1-28.7,2-45.6c1.1-18.4,1.9-18.1,8.5-73.5
		c4.6-38.4,5.2-47,9.9-63c4.5-15.3,9.7-27.4,13.6-35.4c6.3-12.8,10-23.5,12.2-31.1c1.5-5.2,2.5-9.3,5.5-14.5
		C154.8,92.1,161.7,86.8,167,83.6z"/>
	<path class="st4" d="M4.2,423.1c-0.9,0.4,0.2,6.4,3.7,13.6c2.9,6.1,8.4,14.8,19.1,23.3c23.6,6.8,47.2,13.5,70.8,20.3l79.7,11.9
		l102.8,17.9l106.9,15l91.9,0.5L531,504l44.6,28.3l153.4-7.1l123.6-30l-14.1-60.4l-158.3-32l-100.6,0.9l-31.7,3.6l-95.7-4.8
		L361.2,416l-63.5-10.6l-158.8,32.3l-48.3-7.3l-28.4,5.6l-10.6,7.3c-4.9-1.8-9.8-3.6-14.6-5.4c-3.6,0-7.3,0-10.9,0
		c-1.8,0.1-4.3-0.1-7-1C9.2,433.5,5.4,422.6,4.2,423.1z"/>
	<g>
		<path class="st4" d="M754.5,394c2.1,0.2,4.3,0.5,6.4,0.7c0.6,0.1,1.2,0.1,1.8,0.2c23.2,3,45.5,8.7,66.5,19.2
			c9.5,4.7,18.6,10.3,26.2,17.8c11.1,11,16.1,24,13.1,39.7c-0.4,1.9-0.1,3.9,0.3,5.8c3,15.9-3.3,29.7-17.3,37.7
			c-6,3.4-12.5,5.5-19.2,6.9c-15.6,3.3-31.3,5.8-47.2,6.7c-11.3,0.6-22.7,0.4-34.1,1c-7.1,0.4-14.1,1.5-21.2,2.3c-3,0.3-6,0.7-9,1.1
			c-0.6,0.1-1.2,0.1-1.8,0.2c-2.4,0.3-4.9,0.5-7.3,0.8c-0.6,0-1.2,0.1-1.8,0.1c-2.1,0.2-4.3,0.5-6.4,0.7c-1.3-0.9-2.5-0.9-3.6,0.2
			c-4.3,0.2-8.5,0.5-12.8,0.7c-1.5-1-3-1-4.5,0.1c-7.3,0.3-14.6,0.5-21.9,0.8c-0.7-0.2-1.4-0.7-2.1-0.7c-5.1-0.1-10.2-0.1-15.4,0
			c-0.8,0-1.7,0.5-2.5,0.8c-3.6,0-7.3,0-10.9,0c-3.3-0.3-6.7-0.6-10-0.9c0.4-2,2-2.4,3.7-2.7c4.2-0.8,8.3-1.8,12.4-2.5
			c6.9-1.1,13.7-2.1,20.6-3c6-0.8,12-1.4,18-2c5.4-0.6,10.8-1.1,16.2-1.6c4.5-0.4,9-0.6,13.5-1.1c7-0.8,14.1-2,21.1-2.4
			c9-0.6,18.1-0.5,27.2-1.1c6-0.4,12-0.8,17.8-2.9c9-3.2,18-6.3,27.3-8.7c6.1-1.6,11.6-3.8,16.6-7.8c5.8-4.7,11.3-9.6,14.7-16.4
			c1.3-2.6,2.5-5.6,2.8-8.5c0.5-4.2,0.2-8.5,0.1-12.7c0-0.9-0.2-1.8-0.6-2.6c-2.2-4.2-4.1-8.5-6.7-12.4c-2-3.1-4.4-6.5-7.4-8.5
			c-9.8-6.5-20.2-11.6-32-13.4c-2.2-0.3-4.6-0.7-6.5-1.7c-4.8-2.5-9.6-5.2-14.2-8.1c-7.5-4.7-15.8-7.2-24.5-7.4
			c-9.8-0.3-19.6-0.6-29.4-1.8c-7.9-1-15.5-2.3-22.8-5.7c-1.3-0.6-2.9-0.6-4.4-0.8c-1.2-0.9-2.4-1.8-3.6-2.8
			c-0.4-1.6-0.8-3.3-1.1-4.9c0.3-0.1,0.6-0.1,0.9-0.1c1.3-0.1,2.6-0.3,3.9-0.4c13.1,0,26.1,0,39.2,0c1.2,0,2.4,0.1,3.6,0.1
			c5.2,0.3,10.3,0.5,15.5,0.8c0.6,0,1.2,0.1,1.8,0.1c3,0.3,6.1,0.6,9.1,0.8C753.3,393.9,753.9,393.9,754.5,394z"/>
		<path class="st4" d="M6,425.5c0.3,1.3,0.6,2.5,0.9,3.8c1.9,9.3,7.9,14.6,16.8,17c3.6,1,7.4,1,10.6-2c3.2-3,6.6-5.7,9.9-8.5
			c3.5-2.8,7.5-3.7,11.8-3.7c0,3.2,2,5.4,4.1,7.3c6.9,6.3,13.9,12.6,21.1,18.6c6.9,5.7,13.8,11.3,21.2,16.2c9.3,6.2,19.8,9,30.9,8.9
			c5.9-0.1,11.8-0.5,17.6-0.9c3.6-0.2,6.5,1.1,9.1,3.4c4,3.5,8.1,6.8,12,10.3c2.1,1.9,4.7,3.6,4.1,7.1c-1.5-0.2-3-0.4-4.5-0.5
			c-0.5-1-1.1-1.2-1.8-0.3c-7.8-0.9-15.7-1.5-23.5-2.8c-19.5-3.2-39-6-58.2-10.2c-18.1-4-35.5-10.4-52.2-18.4
			c-10.3-4.9-19.3-11.5-26-20.9c-1.9-2.7-3.2-5.8-4.8-8.7c-0.1-1.6-0.3-3.2-0.4-4.8c-0.2-2.6-0.4-5.1-0.6-7.7
			C3.9,427.2,4.4,426,6,425.5z"/>
		<path class="st5" d="M683.4,400.2c1.5,0.3,3.1,0.2,4.4,0.8c7.2,3.3,14.9,4.7,22.8,5.7c9.8,1.2,19.6,1.5,29.4,1.8
			c8.7,0.2,17,2.7,24.5,7.4c4.6,2.9,9.3,5.6,14.2,8.1c2,1,4.3,1.4,6.5,1.7c11.8,1.8,22.3,6.9,32,13.4c3,2,5.3,5.4,7.4,8.5
			c2.6,3.9,4.5,8.2,6.7,12.4c0.4,0.8,0.6,1.7,0.6,2.6c0.1,4.2,0.4,8.5-0.1,12.7c-0.3,2.9-1.5,5.8-2.8,8.5
			c-3.4,6.7-8.9,11.7-14.7,16.4c-5,4-10.4,6.2-16.6,7.8c-9.2,2.4-18.3,5.5-27.3,8.7c-5.8,2-11.8,2.5-17.8,2.9
			c-9.1,0.5-18.1,0.5-27.2,1.1c-7.1,0.5-14.1,1.7-21.1,2.4c-4.5,0.5-9,0.7-13.5,1.1c-5.4,0.5-10.8,1-16.2,1.6c-6,0.6-12,1.3-18,2
			c-6.9,0.9-13.8,1.9-20.6,3c-4.2,0.7-8.3,1.7-12.4,2.5c-1.7,0.3-3.3,0.7-3.7,2.7c-3.4,0-6.8-0.1-10.2,0c-2.3,0.1-4.7,0.4-7,0.6
			c-5.5-0.2-11-0.5-16.5-0.7c0.1-2.5-1.2-4-3.5-4.6c-1-0.3-2-0.6-3.1-0.9c-5.7-1.5-11.3-3.2-16-7c-3.9-3.1-8.3-5.5-12.4-8.4
			c-3.9-2.8-7.7-5.9-11.6-8.7c-3.9-2.9-7.7-6-12.7-6.8c-0.6,0-1.2,0-1.8,0c0-0.6,0-1.2,0-1.8c0.9,0,1.8,0,2.7,0
			c3.8,1.9,7.9,3.3,11.2,5.8c4.4,3.3,9.1,6,13.5,9c4.7,3.2,9.8,4.7,15.1,5.8c4,0.8,8.1,0.9,12.2,1.2c8.7,0.7,17.5,1.3,26.2,1.8
			c7.6,0.4,15.1,0.6,22.7,1c1.1,0,2.1,0.2,3.2,0.3c3.5,0.2,6.9,0.7,10.4,0.5c9.1-0.4,18.1-1.2,27.1-1.7c7.3-0.4,14.5-0.6,21.8-1
			c3.6-0.2,7.2-0.7,10.8-1.1c6.4-0.8,12.9-1.7,19.3-2.4c6.2-0.7,12.3-1.4,18.5-2c9-0.9,18.1-1.6,27-2.6c5.7-0.7,11.3-1.8,16.9-3
			c2.9-0.6,5.8-1.7,8.7-2.4c2.8-0.7,5.7-1.1,8.4-2c3.6-1.2,6.1-3.1,6.7-7.6c0.8-6.4,3.1-12.3,9.2-15.9c2-1.2,3.5-3.2,5.4-4.8
			c0.8-0.6,1.7-1.2,2.6-1.5c3.4-1.1,4.2-1.9,4.4-5.3c0.1-1.8,0.2-3.7,0-5.5c-0.9-5.7-2.3-11.2-9.1-12.7c-0.6-0.1-1.1-0.5-1.6-0.9
			c-4.9-3.9-10.8-6.2-16.3-8.9c-3.4-1.6-6.1-3.8-8.1-7c-2.6-4.2-6.7-5.9-11.5-6.4c-3.6-0.3-7.2-0.8-10.8-1.1
			c-8.9-0.9-17.7-1.8-26.6-2.4c-5-0.3-10-0.2-15,0c-5.3,0.2-10.6,0.6-15.8,0.8c-3.2,0.1-6.7,0.9-9.3-2.1c0.4-4.8-0.1-4.2-3.6-7.3
			c-4.5-4-9.7-6.2-15.3-7.8C686.7,405.1,684.2,402.9,683.4,400.2z"/>
		<path class="st6" d="M525.1,499.9c0.6,0,1.2,0,1.8,0c0.4,0.6,0.8,1.3,1.3,1.7c3,2.2,6.2,4.3,9.1,6.5c2.8,2.1,5.3,4.4,8.1,6.5
			c6.8,5.2,13.6,10.5,20.5,15.6c1.9,1.4,3.4,3,2.9,5.6c-5.8-0.2-11.5-0.3-17.3-0.5c-1.8-1.2-3.6-1.2-5.4-0.1
			c-5.8-0.3-11.6-0.5-17.4-0.8c-1.2-1.1-2.4-1.1-3.6-0.1c-6.4-0.3-12.8-0.5-19.2-0.8c-1.5-1.2-3-1.2-4.5-0.2
			c-4-0.3-7.9-0.5-11.9-0.8c-1.2-1.1-2.4-1.1-3.6-0.1c-4.9-0.3-9.7-0.5-14.6-0.8c-1.2-1.1-2.4-1.1-3.6-0.1c-4-0.3-7.9-0.5-11.9-0.8
			c-0.9,0-1.8-0.1-2.7-0.1c-3-0.2-6-0.4-9-0.6c-2.4-1.7-4.9-1.3-7.4-0.4c-2.1-0.2-4.2-0.3-6.3-0.5c-2-1.8-4.2-1.4-6.5-0.4
			c-2.7-0.2-5.5-0.4-8.2-0.6c-2-1.6-4.2-1.3-6.4-0.4c-1.8-0.2-3.6-0.3-5.4-0.4c-1.7-1.7-3.6-1.4-5.6-0.4c-3.7-0.3-7.3-0.6-11-0.8
			c-0.6-0.3-1.2-0.6-1.8-0.9c0.2-1.5,1-2.5,2.6-2.6c8.7-0.9,17.4-2,26.1-2.8c10.1-0.9,20.1,1,30.3,0.2c7.1-0.6,14.2-0.9,21.1-2.3
			c7.2-1.5,14.3-3.8,21.3-6.3c8.4-3,16.6-6.5,24.9-9.8c0.9-0.3,1.5-1.2,2.2-1.8c0.9,0,1.8,0,2.7,0c2.1,1,2.3,0.9,2.7-1.8
			c0.6,0,1.2,0,1.8,0C522.1,501.1,522.4,501.2,525.1,499.9z"/>
		<path class="st4" d="M514.1,499.5c-0.7,0.6-1.4,1.5-2.2,1.8c-8.3,3.3-16.5,6.8-24.9,9.8c-7,2.5-14.1,4.7-21.3,6.3
			c-6.9,1.5-14,1.8-21.1,2.3c-10.1,0.8-20.2-1.1-30.3-0.2c-8.7,0.8-17.4,1.8-26.1,2.8c-1.6,0.2-2.4,1.1-2.6,2.6
			c-0.3,0.2-0.6,0.5-0.9,0.7c-2.7-0.2-5.5-0.5-8.2-0.7c-0.6,0-1.2-0.1-1.8-0.1c-2.7-0.2-5.5-0.5-8.2-0.7c-1.1-1.1-2.3-1.2-3.6-0.2
			c-2.1-0.2-4.3-0.4-6.4-0.7c-0.9-0.1-1.8-0.1-2.7-0.2c-2.7-0.3-5.5-0.5-8.2-0.8c-0.9-0.1-1.8-0.1-2.7-0.2c-2.1-0.2-4.3-0.5-6.4-0.7
			c-0.6,0-1.2-0.1-1.8-0.1c-2.1-0.2-4.3-0.5-6.4-0.7c-0.9-0.1-1.8-0.1-2.7-0.2c-1.8-0.2-3.7-0.4-5.5-0.6c-0.9-0.1-1.8-0.2-2.7-0.2
			c-2.1-0.2-4.3-0.5-6.4-0.7c-0.9-0.1-1.8-0.2-2.7-0.2c-1.8-0.2-3.7-0.4-5.5-0.7c-0.6-0.1-1.2-0.1-1.8-0.2c-2.1-0.3-4.3-0.5-6.4-0.8
			c-0.9-0.1-1.8-0.2-2.7-0.3c-1.5-0.2-3.1-0.4-4.6-0.6c-0.6-0.1-1.2-0.1-1.8-0.2c-1.8-0.3-3.7-0.5-5.5-0.8c-0.6-0.1-1.2-0.1-1.8-0.2
			c-1.5-0.2-3.1-0.4-4.6-0.7c-0.6-0.1-1.2-0.1-1.8-0.2c-1.8-0.3-3.7-0.5-5.5-0.8c-0.6-0.1-1.2-0.1-1.8-0.2c-1.5-0.2-3.1-0.5-4.6-0.7
			c-0.6-0.1-1.2-0.1-1.8-0.2c-2.7-0.3-5.5-0.6-8.2-0.9c0-0.2,0-0.4-0.1-0.6c0-3.3,2.6-3.3,4.8-3.7c10.1-1.6,20.4-2.7,30.4-4.8
			c7.8-1.6,14.7,0.1,21.6,3c3.8,1.6,7.6,2.9,11.5,4.2c5.2,1.8,10.5,3.1,15.5,5.3c11.5,5.1,23.6,6.2,36,5.9c1.4,0,2.8-0.1,3.2-1.8
			c1.5,0,3,0,4.5,0c2.6,1,5.2,2.3,7.3-0.9c1.5,0,3,0,4.6,0c1.8,1.2,3.5,1.7,4.6-0.9c1.5,0,3,0,4.6,0c1.6,1.2,2.9,1.4,3.6-0.9
			c1.5-0.3,3-0.6,4.6-0.9c0.9,0.3,1.8,0.6,2.7,0.9c4.6,1.5,9.1,1.5,13.7,0c2.7-0.3,5.5-0.6,8.2-0.9c6.7,0,13.4,0,20,0
			c0.3,1.6,1.4,1.8,2.7,1.8c1.3,0,2.5-0.2,2.7-1.8c0.9,0,1.8,0,2.7,0c0.6,0.3,1.2,0.6,1.8,0.9c1.2-0.3,2.4-0.6,3.6-0.9
			c0.6,0,1.2,0,1.8,0c1.6-0.2,1.8-1.4,1.8-2.7c0.6,0,1.2,0,1.8,0c0.3,0.4,0.6,0.8,0.9,1.2c0.3-0.4,0.6-0.8,0.9-1.3
			c1-0.3,2-0.5,3-0.8c3-0.9,6-1.8,9-2.8c1.7-0.5,3.3-1.2,4.9-1.9c3.6-1.6,7.1-3.7,11.3-3.6c0.6-0.6,1.2-1.2,1.9-1.8
			c0.6,0,1.2,0,1.8,0c1.3,1.1,1.6,0.1,1.8-0.9c1.2-0.3,2.4-0.6,3.6-0.9c1.3,1.1,1.6,0.1,1.8-0.9c0,0,0,0,0,0c0.9,0,1.8,0,2.7,0
			C514.1,498.9,514.1,499.2,514.1,499.5z"/>
		<path class="st7" d="M176.2,502.9c0.5-3.5-2-5.2-4.1-7.1c-3.9-3.5-8-6.9-12-10.3c-2.6-2.3-5.5-3.6-9.1-3.4
			c-5.9,0.3-11.8,0.8-17.6,0.9c-11.2,0.1-21.7-2.8-30.9-8.9c-7.4-4.9-14.3-10.6-21.2-16.2c-7.2-6-14.1-12.3-21.1-18.6
			c-2.1-1.9-4.1-4.1-4.1-7.3c0.9-0.3,1.8-0.6,2.8-0.8c0.6,4.3,3.8,6.3,7.2,8.2c0.1,2.2,2,2.9,3.5,3.8c4.8,3.1,9.4,6.4,13.4,10.7
			c2.8,2.9,5.9,5.6,9,8.1c1.8,1.5,4,2.6,6,3.8c1.8,1.6,3.7,3.1,5.5,4.7c7,6.3,15.5,8.5,24.6,9c1.8,2.5,2.7,2.5,4.6,0
			c3.6,0,7.3,0,10.9,0c0.6-0.1,1.2,0,1.8-0.2c6.9-1.8,13.2-0.7,18.9,3.7c4.1,3.1,8.3,6.1,12.4,9.1c3.5,2.6,4.9,2.5,8.5,0.1
			c4.9-3.2,10.2-5.3,16.3-3.8c1.3,0.3,2.7,0.1,4.1,0.2c0.6,0,1.2,0,1.8,0c1.2,0.3,2.4,0.6,3.6,0.9c0.9,0,1.8,0,2.7,0
			c1.2,1.2,2.4,1.2,3.6,0c1.5,0,3,0,4.5,0c0.2,1.1,0.5,2,1.8,0.9c1.2,0,2.4,0,3.6,0c0.4,1.7,1.3,2.2,2.7,0.9c0.9,0,1.8,0,2.7,0
			c0.4,1.7,1.3,2.2,2.7,0.9c0.6,0,1.2,0,1.8,0c0.5,0.5,0.8,1.5,1.4,1.6c10.3,2.1,20.6,4.4,31.2,4.7c6.1,0.2,12.3-0.5,18.5-0.8
			c-0.9,0.6-1.8,1.5-2.7,1.7c-3.1,0.7-6.2,1-9.4,1.5c-10.4,1.7-20.7,2.3-30.9-0.8c-13.9-4.3-28.3-6.2-42.5-8.6
			c-2.9-0.5-6.1,1.5-7,3.9c-1.1,3.1-0.2,5.6,2.7,7.7c0.7,0.5,1,1.3,1.5,2c-3.4-0.3-6.9-0.5-10.3-0.8c-3.9-0.3-7.8-0.6-11.6-0.8
			C177.3,503.3,176.7,503.1,176.2,502.9z"/>
		<path class="st4" d="M568.8,535.9c0.5-2.6-0.9-4.2-2.9-5.6c-6.9-5.2-13.7-10.4-20.5-15.6c-2.7-2.1-5.3-4.4-8.1-6.5
			c-3-2.3-6.1-4.3-9.1-6.5c-0.6-0.4-0.9-1.1-1.3-1.7c5,0.8,8.8,3.9,12.7,6.8c3.9,2.9,7.6,5.9,11.6,8.7c4.1,2.9,8.5,5.3,12.4,8.4
			c4.8,3.9,10.3,5.6,16,7c1,0.3,2,0.6,3.1,0.9c2.3,0.7,3.6,2.1,3.5,4.6c-1.2,0-2.4,0-3.6,0c-2.7-1.4-5.4-1.3-8.2-0.2
			C572.5,536.1,570.6,536,568.8,535.9z"/>
		<path class="st8" d="M6,425.5c-1.6,0.5-2,1.7-1.9,3.2c0.2,2.6,0.4,5.1,0.6,7.7c0.1,1.6,0.3,3.2,0.4,4.8c-0.8-1.9-1.9-3.8-2.3-5.8
			c-1.3-6.2-0.9-12.3,1.6-18.2c0.3-0.6,1-1.1,1.5-1.7c0.9,2.2,1.7,4.3,0.1,6.5c0,0.6,0,1.3,0,1.9C5.9,424.5,5.9,425,6,425.5z"/>
		<path class="st8" d="M602.6,537c2.3-0.2,4.7-0.6,7-0.6c3.4-0.1,6.8,0,10.2,0c3.3,0.3,6.7,0.6,10,0.9c-1.5,0.2-2.9,0.5-4.4,0.5
			c-6.2,0-12.3,0-18.5-0.1C605.5,537.7,604,537.3,602.6,537z"/>
		<path class="st8" d="M640.8,537.2c0.8-0.3,1.7-0.8,2.5-0.8c5.1-0.1,10.2-0.1,15.4,0c0.7,0,1.4,0.4,2.1,0.7
			C654.1,537.1,647.4,537.2,640.8,537.2z"/>
		<path class="st8" d="M574.3,536.2c2.7-1.1,5.5-1.3,8.2,0.2C579.8,536.3,577,536.2,574.3,536.2z"/>
		<path class="st8" d="M436.8,529.8c2.5-0.9,5-1.3,7.4,0.4C441.7,530.1,439.2,529.9,436.8,529.8z"/>
		<path class="st8" d="M424,528.9c2.2-1,4.4-1.4,6.5,0.4C428.3,529.2,426.2,529.1,424,528.9z"/>
		<path class="st8" d="M409.5,528c2.2-1,4.3-1.2,6.4,0.4C413.7,528.2,411.6,528.1,409.5,528z"/>
		<path class="st8" d="M546.1,535.3c1.8-1.1,3.6-1.1,5.4,0.1C549.7,535.4,547.9,535.3,546.1,535.3z"/>
		<path class="st8" d="M398.5,527.1c1.9-1,3.8-1.3,5.6,0.4C402.2,527.4,400.4,527.3,398.5,527.1z"/>
		<path class="st8" d="M682.7,536.3c1.5-1.2,3-1.1,4.5-0.1C685.7,536.2,684.2,536.3,682.7,536.3z"/>
		<path class="st8" d="M501.5,533.4c1.5-1,3-1,4.5,0.2C504.5,533.5,503,533.5,501.5,533.4z"/>
		<path class="st8" d="M486,532.5c1.2-0.9,2.4-0.9,3.6,0.1C488.4,532.6,487.2,532.6,486,532.5z"/>
		<path class="st8" d="M525.1,534.4c1.2-0.9,2.4-0.9,3.6,0.1C527.5,534.5,526.3,534.4,525.1,534.4z"/>
		<path class="st8" d="M700,535.5c1.1-1.1,2.3-1.1,3.6-0.2C702.4,535.3,701.2,535.4,700,535.5z"/>
		<path class="st8" d="M467.7,531.6c1.2-1,2.4-0.9,3.6,0.1C470.1,531.7,468.9,531.7,467.7,531.6z"/>
		<path class="st8" d="M363,524.3c1.3-0.9,2.5-0.9,3.6,0.2C365.4,524.5,364.2,524.4,363,524.3z"/>
		<path class="st8" d="M453.2,530.8c0.9,0,1.8,0.1,2.7,0.1C455,530.8,454.1,530.8,453.2,530.8z"/>
		<path class="st8" d="M384.9,526.1c0.3-0.2,0.6-0.5,0.9-0.7c0.6,0.3,1.2,0.6,1.8,0.9C386.6,526.2,385.8,526.2,384.9,526.1z"/>
		<path class="st8" d="M353.9,523.4c0.9,0.1,1.8,0.1,2.7,0.2C355.7,523.6,354.8,523.5,353.9,523.4z"/>
		<path class="st8" d="M343,522.4c0.9,0.1,1.8,0.1,2.7,0.2C344.8,522.6,343.9,522.5,343,522.4z"/>
		<path class="st8" d="M325.7,520.7c0.9,0.1,1.8,0.1,2.7,0.2C327.5,520.8,326.6,520.8,325.7,520.7z"/>
		<path class="st8" d="M317.5,519.8c0.9,0.1,1.8,0.2,2.7,0.2C319.3,520,318.4,519.9,317.5,519.8z"/>
		<path class="st8" d="M308.4,518.9c0.9,0.1,1.8,0.2,2.7,0.2C310.2,519,309.3,519,308.4,518.9z"/>
		<path class="st8" d="M292,517c0.9,0.1,1.8,0.2,2.7,0.3C293.8,517.2,292.9,517.1,292,517z"/>
		<path class="st7" d="M169.9,502.6c0.8-0.9,1.4-0.7,1.8,0.3C171.1,502.8,170.5,502.7,169.9,502.6z"/>
		<path class="st8" d="M258.3,512.5c0.6,0.1,1.2,0.1,1.8,0.2C259.4,512.6,258.9,512.6,258.3,512.5z"/>
		<path class="st8" d="M264.6,513.4c0.6,0.1,1.2,0.1,1.8,0.2C265.8,513.5,265.2,513.5,264.6,513.4z"/>
		<path class="st8" d="M271.9,514.4c0.6,0.1,1.2,0.1,1.8,0.2C273.1,514.5,272.5,514.5,271.9,514.4z"/>
		<path class="st8" d="M278.3,515.2c0.6,0.1,1.2,0.1,1.8,0.2C279.5,515.4,278.9,515.3,278.3,515.2z"/>
		<path class="st8" d="M285.6,516.2c0.6,0.1,1.2,0.1,1.8,0.2C286.8,516.3,286.2,516.2,285.6,516.2z"/>
		<path class="st8" d="M301.1,518c0.6,0.1,1.2,0.1,1.8,0.2C302.3,518.1,301.7,518.1,301.1,518z"/>
		<path class="st8" d="M334.8,521.6c0.6,0,1.2,0.1,1.8,0.1C336,521.7,335.4,521.7,334.8,521.6z"/>
		<path class="st8" d="M374.8,525.3c0.6,0,1.2,0.1,1.8,0.1C376,525.3,375.4,525.3,374.8,525.3z"/>
		<path class="st8" d="M719.1,533.6c0.6-0.1,1.2-0.1,1.8-0.2C720.3,533.5,719.7,533.5,719.1,533.6z"/>
		<path class="st8" d="M710,534.5c0.6,0,1.2-0.1,1.8-0.1C711.2,534.4,710.6,534.5,710,534.5z"/>
		<path class="st8" d="M44.1,435.7c-3.3,2.8-6.7,5.6-9.9,8.5c-3.2,3-7,2.9-10.6,2c-2-0.5-7.7-1.8-12.2-7.2c-4.5-5.3-5-11.1-5.1-13
			c1,1.4,2.5,3.4,4.7,5.5c2.7,2.6,5.6,5.4,10.1,6.5c2.6,0.7,4.6,0.5,8.8,0.1c3.1-0.3,5.2-0.4,7.7-1.4c1.7-0.7,4.7-2.1,7.5-5.4
			C44.7,432.7,44.4,434.2,44.1,435.7z"/>
		<path class="st9" d="M44.1,435.7c0.3-1.5,0.6-2.9,0.9-4.4c0.9-0.1,1.7-0.2,2.6-0.3c0.6-0.3,1.3-0.5,1.9-0.8c0.6,0,1.2-0.1,1.8-0.1
			c0.6-0.2,1.2-0.5,1.8-0.7c0,0,0-0.1,0-0.1c0.9,0,1.9,0,2.8,0c3,0.4,5.5-0.4,7.7-2.5c1-1,2.5-1.6,3.6-2.6c1.4-1.2,2.8-2.6,4.1-3.9
			c1.7-1.8,3.4-3.6,5.2-5.4c0.9-0.9,2-1.3,2.9,0.1c-3.1,2.4-6.4,4.7-7.2,8.9c-2.9,1.8-5.7,3.7-8.7,5.4c-1.5,0.9-3.3,1.3-4.9,1.9
			c-0.9,0.3-1.8,0.6-2.8,0.8C51.6,432,47.6,432.9,44.1,435.7z"/>
		<path class="st10" d="M971.3,611c-0.1,0-0.2,0-0.3,0C971.1,610.9,971.2,610.9,971.3,611z"/>
		<path class="st10" d="M970,610.8c-0.1,0-0.2,0-0.3,0C969.8,610.8,969.9,610.8,970,610.8z"/>
		<path class="st8" d="M686.9,414.8c0.1,1.3,1.5,3.1,1.2,6.7c-0.6,7.6,4.9,12.5,12.2,12.4c10-0.1,20-0.3,30,0.6
			c11.7,1,23.6,0.7,35.4,1.1c5,0.2,9.9,0.9,14.9,1.5c2.2,0.3,4.5,0.5,6.6,1.2c4.5,1.6,6.8,5.4,8.9,9.3c4.8,9,8.2,18.6,10.1,28.6
			c0.7,3.5-0.2,6.4-3,8.5c-5.8,4.3-10.3,9.7-14.6,15.4c-4.2,5.6-9.7,8.9-17.2,8.4c-8.6-0.6-17.2,0.1-25.9-0.8
			c-10.4-1-20.9-1.1-31.3-1c-30.8,0.3-61.6-1-92.4,0.8c-8.9,0.5-17.8,0-26.8,0.7c-13.4,1-26.9,0.8-40.4,1.1c-2.9,0.1-5.1-1-7.5-2.7
			c-4.3-3.1-8.8-5.8-13.5-8.3c-1.7-0.9-4-0.6-6-0.9c-0.9,0-1.8,0-2.7,0c0,0,0,0,0,0c-2.5-2.5-5.7-2.5-8.2,0l0,0c-0.9,0-1.8,0-2.7,0
			c-1.4-1.3-2.3-0.8-2.7,0.9c0,0,0,0,0,0c-0.6,0-1.2,0-1.8,0c-0.7-0.1-1.5-0.5-2.1-0.3c-2.9,0.8-5.8,1.6-8.7,2.5
			c-6.9,2.2-13.7,4.8-20.7,6.7c-13.1,3.5-26.4,5.4-39.9,4.8c-2.3-0.1-4.6,1.1-6.9,1.7c-1.5,0-3,0-4.5,0c-0.5-0.5-0.9-1.5-1.4-1.5
			c-2.6,0.1-5.2,0.4-7.8,0.6c-2.1,0-4.3,0-6.4,0c-1.8-2.5-2.7-2.5-4.6,0c-1.5,0-3,0-4.6,0c-0.7-0.3-1.3-0.8-2-0.9
			c-3.6-0.4-7.2-0.5-10.8-1.2c-7-1.3-14-2.6-20.8-4.5c-8.6-2.4-17.5-3.7-25.6-7.8c-1.3-0.7-2.9-0.8-4.4-1.1
			c-4.2-0.6-8.4-1.3-12.6-1.7c-4.4-0.5-8.7-0.9-13.1-1c-6.1-0.2-12.1,0-18.2,0c-0.9,0-1.8,0-2.7,0c-0.7-0.3-1.3-0.8-2-0.8
			c-5.4-0.4-10.9-0.6-16.3-1c-4.8-0.3-9.6-0.6-14.5-1c-3.6-0.3-7.2-0.6-10.8-1c-9-1.1-18-2.2-26.9-3.4c-7-1-14.2-1.5-21-3.2
			c-15.2-3.6-30.2-7.6-45.3-11.7c-6.4-1.7-12.5-2.4-18.1,2.1c-1,0.8-2.4,1.5-3.6,1.8c-1.7,0.4-3.6,0.9-5.3,0.6
			c-3.9-0.7-7.6-1.8-11.5-2.7c-4.3-1-7.1-3.5-9-7.6c-2.4-5.3-5.8-9.8-11.3-12.6c-3.6-1.8-7-4.2-10.3-6.6c-4-3-7.8-6.3-9.9-11
			c-1.2-2.6-2.3-5.2-1.3-8.3c0.7-2,0-3.9-2.4-4.6c0.8-4.2,4.1-6.5,7.2-8.9c6.9-2.7,14.1-3.6,21.4-2.9c5.4,0.6,10.8,1.6,16.2,2.2
			c8.9,0.9,17.9,1.7,25.8-3.9c1.6-1.1,3.3-2.1,5-3.2c1.5-0.3,3-0.5,4.5-0.8c1.5-0.1,3.1-0.1,4.6-0.2c0.9,0.4,1.8,0.9,1.9,0.9
			c0.2-1.4,0.8-3.2,2.2-4c1.9-1.1,3.8,0.2,6.8,0.1c3.2-0.1,4.9-2.3,7.3-3.1c8.8-2.7,17.7-5.5,26.5-8.2c3.3-0.7,6.6-1.2,9.8-2.1
			c3.3-0.9,2.9-0.3,17.6-1c3.3-0.2,6-0.3,9.1,1c2,0.9,3.4,2,4.3,2.9c0.3-0.2,4.7-3.5,9.5-1.7c2.5,0.9,3.9,2.7,4.4,3.6
			c0.5-1.1,1.4-2.7,3.1-4.3c2.5-2.3,5.1-3,7.1-3.6c3-0.8,9.5-2.5,14.8,0.7c1.9,1.1,2.6,2.3,8.7,6.8c0.9,0.6,1.6,1.1,2.6,1.5
			c2.1,0.7,3.8,0.1,7.8-0.6c0,0,1.4-0.3,4.6-0.7c4.6-0.6,8-1.1,11.4-0.3c1.8,0.4,5.1,1.5,8.5,4.8c1.2-0.8,2.9-1.8,5.1-2.8
			c7-3.2,13-3.3,14.4-3.4c2.4,0,7.7-0.1,13.7,2.6c4.6,2,7.7,4.7,9.5,6.6c-0.5-0.8-1.1-1.5-1.6-2.3c0-2,0-3.6,0-5.5
			c3.2-0.5,10.4-1.3,18.2,2.3c4.1,1.8,7,4.3,8.9,6.1c7.5-6.2,12.8-6.8,16.3-6.1c6.5,1.2,9.5,7.2,16.3,6.5c2.3-0.2,3.9-1.1,6.8-2.7
			c8-4.4,9.3-9.2,11.9-8.9c5.1,0.8,6.2,20,7.4,19.9c0.7-0.1-1.1-6.5,2.1-10c4-4.3,11.8,0.3,24.9-1.7c4.8-0.7,8.6-2.1,10.9-3.1
			c10.4,14.8,14.9,17.8,17.1,17.4c0,0,4.7-1,8.4-1c0,0,0.1,0,0.3,0c0.1,0,0.2,0,0.3-0.1c1.4,0.5,3.4,0.6,4,1.6
			c2.2,3.4,5.4,3.3,8.8,3.2c9.2-0.3,18.3-0.5,27.5-0.9c1.9-0.1,3.8-0.8,5.7-1.2c0.8,0,1.6,0.1,2.4,0.1c1.8,0.1,3.7,0.2,5.5,0.2
			c0.8,0,16,0.6,17.2-3.3c1.3-4.2-14.9-12-13.8-14.6c0.8-1.8,8.2,2,16.7-1.4c4.2-1.7,3.6-3.1,8.2-5.4c6.4-3.3,16.6-4.9,23.1,0.3
			c2.4,1.9,3.7,4.2,4.4,5.8c1.1-1,5.1-4.2,11.2-4.4c5.9-0.2,10,2.5,11.2,3.4c4.7-1.2,9.3-2.5,14-3.7c6,0.3,12,0.7,18,1
			c1.8,1,5.3,3.2,6.9,7.1c0.3,0.8,0.5,1.5,0.6,2.1C688.2,406.3,686.2,408.1,686.9,414.8z"/>
		<path class="st11" d="M527.8,497.6c2,0.3,4.3,0,6,0.9c4.7,2.5,9.2,5.2,13.5,8.3c2.3,1.7,4.6,2.8,7.5,2.7c13.5-0.4,27-0.1,40.4-1.1
			c9-0.7,17.9-0.2,26.8-0.7c30.8-1.8,61.6-0.6,92.4-0.8c10.4-0.1,20.9,0,31.3,1c8.7,0.9,17.3,0.2,25.9,0.8c7.5,0.5,13-2.8,17.2-8.4
			c4.3-5.7,8.9-11.1,14.6-15.4c2.8-2.1,3.7-5,3-8.5c-1.9-10.1-5.3-19.6-10.1-28.6c-2.1-3.9-4.4-7.7-8.9-9.3
			c-2.1-0.7-4.4-0.9-6.6-1.2c-4.9-0.6-9.9-1.3-14.9-1.5c-11.8-0.5-23.7-0.1-35.4-1.1c-10-0.9-20-0.7-30-0.6
			c-7.3,0.1-12.8-4.8-12.2-12.4c0.3-3.7,0.3-7.5-4.5-8.6c0.9-1.5,1.7-3.1,2.6-4.6c5.6,1.7,10.7,3.9,15.2,7.8
			c3.6,3.1,4.1,2.6,3.6,7.3c2.5,3,6,2.2,9.3,2.1c5.3-0.1,10.6-0.6,15.8-0.8c5-0.1,10-0.3,15,0c8.9,0.6,17.7,1.6,26.6,2.4
			c3.6,0.3,7.2,0.8,10.8,1.1c4.8,0.4,8.9,2.2,11.5,6.4c2,3.2,4.8,5.4,8.1,7c5.6,2.7,11.4,5,16.3,8.9c0.5,0.4,1,0.7,1.6,0.9
			c6.8,1.5,8.2,7,9.1,12.7c0.3,1.8,0.2,3.6,0,5.5c-0.2,3.4-1,4.2-4.4,5.3c-0.9,0.3-1.9,0.9-2.6,1.5c-1.8,1.6-3.4,3.6-5.4,4.8
			c-6.1,3.6-8.4,9.5-9.2,15.9c-0.6,4.5-3.1,6.4-6.7,7.6c-2.7,0.9-5.6,1.3-8.4,2c-2.9,0.8-5.7,1.8-8.7,2.4c-5.6,1.1-11.2,2.3-16.9,3
			c-9,1.1-18,1.7-27,2.6c-6.2,0.6-12.3,1.3-18.5,2c-6.4,0.8-12.9,1.6-19.3,2.4c-3.6,0.4-7.2,0.9-10.8,1.1c-7.2,0.4-14.5,0.6-21.8,1
			c-9.1,0.5-18.1,1.3-27.1,1.7c-3.5,0.2-6.9-0.3-10.4-0.5c-1.1-0.1-2.1-0.2-3.2-0.3c-7.6-0.3-15.1-0.5-22.7-1
			c-8.7-0.5-17.5-1.2-26.2-1.8c-4.1-0.3-8.2-0.4-12.2-1.2c-5.3-1-10.5-2.5-15.1-5.8c-4.5-3.1-9.2-5.7-13.5-9
			C535.7,500.9,531.5,499.5,527.8,497.6z"/>
		<path class="st4" d="M525.1,499.9c-2.7,1.3-3,1.2-3.6-1.8c1.2,0,2.4-0.1,3.7-0.1c0,0,0,0,0,0C525.1,498.7,525.1,499.3,525.1,499.9
			z"/>
		<path class="st11" d="M525.1,498.1c-1.2,0-2.4,0.1-3.7,0.1c-0.6,0-1.2,0-1.8,0c-0.9,0-1.8-0.1-2.7-0.1
			C519.4,495.6,522.6,495.6,525.1,498.1z"/>
		<path class="st4" d="M516.9,498.1c0.9,0,1.8,0.1,2.7,0.1c-0.4,2.6-0.6,2.8-2.7,1.8C516.9,499.3,516.9,498.7,516.9,498.1
			L516.9,498.1z"/>
		<path class="st5" d="M516.9,498.1c0,0.6,0,1.2,0,1.8c-0.9,0-1.8,0-2.7,0c0-0.3,0-0.6,0-0.9c0-0.3,0-0.6,0-1
			C515.1,498.1,516,498.1,516.9,498.1z"/>
		<path class="st5" d="M249.9,510.5c-5.5-0.7-11.1-1.4-16.6-2c-6.2-0.7-12.3-1.2-18.5-1.8c-0.7-0.1-1.5-0.4-2.2-0.6
			c-1.6-2.9-2.7-2.9-4.6-0.3c-2.7-0.3-5.5-0.5-8.2-0.8c-0.5-0.7-0.9-1.5-1.5-2c-2.9-2.1-3.8-4.6-2.7-7.7c0.9-2.4,4.1-4.4,7-3.9
			c14.3,2.4,28.6,4.3,42.5,8.6c10.2,3.1,20.6,2.5,30.9,0.8c3.1-0.5,6.3-0.9,9.4-1.5c1-0.2,1.8-1.1,2.7-1.7c1.8,0,3.6,0,5.5,0
			c0.6,0.6,1.1,1.4,1.8,1.7c3.4,1.2,6.9,2.2,10.3,3.4c3.3,1.2,6.4,3.2,9.8,3.7c9.5,1.3,17.9,5.4,26.7,8.6c4.2,1.5,8.8,1.8,13.3,2.7
			c1.2,0,2.4,0,3.6,0c1.4,0.3,2.8,0.8,4.3,0.9c3.1,0.1,6.3,0,9.4,0c-0.4,1.7-1.8,1.8-3.2,1.8c-12.4,0.3-24.4-0.7-36-5.9
			c-5-2.2-10.3-3.5-15.5-5.3c-3.9-1.3-7.7-2.7-11.5-4.2c-7-2.9-13.8-4.6-21.6-3c-10,2.1-20.3,3.2-30.4,4.8
			C252.5,507.1,249.9,507.2,249.9,510.5z"/>
		<path class="st11" d="M431.3,514.5c2.3-0.6,4.6-1.8,6.9-1.7c13.6,0.5,26.9-1.4,39.9-4.8c7-1.9,13.8-4.5,20.7-6.7
			c2.9-0.9,5.8-1.8,8.7-2.5c0.6-0.2,1.4,0.2,2.1,0.3c0,0.3,0,0.6,0,0.9c-1.2,0.3-2.4,0.6-3.6,0.9c-0.6,0.3-1.2,0.6-1.8,0.9
			c-0.6,0-1.2,0-1.8,0c-0.6,0.6-1.2,1.2-1.9,1.8c-4.2-0.1-7.7,2-11.3,3.6c-1.6,0.7-3.2,1.3-4.9,1.9c-3,1-6,1.9-9,2.8
			c-1,0.3-2,0.5-3,0.8c-0.6,0-1.2,0-1.8,0c-0.6,0-1.2,0-1.8,0c-0.6,0-1.2,0-1.8,0c-0.6,0.6-1.2,1.2-1.8,1.8c-1.2,0-2.4,0-3.6,0
			c-1.3-1.1-1.6-0.2-1.8,0.9c-0.9,0-1.8,0-2.7,0c-0.9,0-1.8,0-2.7,0c-0.9-1-1.8-1-2.7,0c-6.7,0-13.4,0-20,0
			C431.3,515.1,431.3,514.8,431.3,514.5z"/>
		<path class="st5" d="M411.2,513.6c2.1,0,4.3,0,6.4,0c1.8,0.3,3.6,0.6,5.5,0.9c0,0.6,0,1.2,0,1.8c-4.6,1.5-9.1,1.5-13.7,0
			c0.3-0.6,0.6-1.2,0.9-1.8C410.6,514.2,410.9,513.9,411.2,513.6z"/>
		<path class="st7" d="M373,519.1c-3.1,0-6.3,0.1-9.4,0c-1.4-0.1-2.8-0.6-4.3-0.9c1.4-0.3,2.8-0.8,4.3-0.9c4.6-0.1,9.3,0,13.9,0
			c0,0.6,0,1.2,0,1.8C376,519.1,374.5,519.1,373,519.1z"/>
		<path class="st5" d="M377.5,519.1c0-0.6,0-1.2,0-1.8c1.5,0.3,3,0.6,4.5,0.9c0.9,0,1.8,0,2.7,0
			C382.8,521.4,380.1,520.1,377.5,519.1z"/>
		<path class="st7" d="M423.1,516.3c0-0.6,0-1.2,0-1.8c1.2,0,2.4,0,3.7,0c1.5,0,3,0,4.5,0c0,0.3,0,0.6,0,1
			C428.5,515.7,425.8,516,423.1,516.3z"/>
		<path class="st7" d="M384.8,518.1c-0.9,0-1.8,0-2.7,0c0-0.6,0-1.2,0-1.8c2.4,0,4.9,0,7.3,0c0,0.6,0,1.2,0,1.8
			C387.9,518.1,386.3,518.1,384.8,518.1z"/>
		<path class="st5" d="M389.4,518.1c0-0.6,0-1.2,0-1.8c0.3,0,0.6,0,0.9,0c1.2,0,2.4,0,3.6,0c0,0.3,0,0.6,0,0.9
			C392.9,519.9,391.2,519.3,389.4,518.1z"/>
		<path class="st9" d="M402.1,513.6c1.5,0,3,0,4.6,0c0,0.3,0,0.6,0,0.9c0,0.3,0,0.6,0,0.9c-1.5,0.3-3,0.6-4.6,0.9c0,0,0,0,0,0
			C402.1,515.4,402.1,514.5,402.1,513.6z"/>
		<path class="st7" d="M393.9,517.2c0-0.3,0-0.6,0-0.9c0-0.3,0-0.6,0-0.9c1.5,0.3,3,0.6,4.6,0.9c0,0.3,0,0.6,0,0.9
			C397,517.2,395.5,517.2,393.9,517.2z"/>
		<path class="st7" d="M451.3,515.4c0.9-1,1.8-1,2.7,0c0,0.6,0,1.2,0,1.8C452.7,517.2,451.6,517,451.3,515.4z"/>
		<path class="st5" d="M398.5,517.2c0-0.3,0-0.6,0-0.9c1.2,0,2.4,0,3.6,0c0,0,0,0,0,0C401.4,518.6,400.1,518.4,398.5,517.2z"/>
		<path class="st7" d="M406.7,515.4c0-0.3,0-0.6,0-0.9c1.2,0,2.4,0,3.6,0c-0.3,0.6-0.6,1.2-0.9,1.8
			C408.5,516,407.6,515.7,406.7,515.4z"/>
		<path class="st11" d="M514.2,498.1c0,0.3,0,0.6,0,1c-0.9,0-1.8,0-2.7,0C511.9,497.3,512.7,496.8,514.2,498.1z"/>
		<path class="st7" d="M459.5,515.4c0.2-1.1,0.5-2,1.8-0.9c0,0.6,0,1.2,0,1.8C460.7,516,460.1,515.7,459.5,515.4z"/>
		<path class="st5" d="M454,517.2c0-0.6,0-1.2,0-1.8c0.9,0,1.8,0,2.7,0C456.5,517,455.4,517.2,454,517.2z"/>
		<path class="st7" d="M465,514.5c0.6-0.6,1.2-1.2,1.8-1.8c0,0.9,0,1.8,0,2.7c-0.6,0-1.2,0-1.8,0C465,515.1,465,514.8,465,514.5z"/>
		<path class="st5" d="M466.8,515.4c0-0.9,0-1.8,0-2.7c0.6,0,1.2,0,1.8,0C468.6,514,468.4,515.2,466.8,515.4z"/>
		<path class="st5" d="M464.9,514c0,0.3,0,0.6,0,0.9c-1.2,0.3-2.4,0.6-3.6,0.9c0-0.6,0-1.2,0-1.8C462.5,514,463.7,514,464.9,514z"/>
		<path class="st5" d="M509.6,500c0-0.3,0-0.6,0-0.9c0.6,0,1.2,0,1.8,0C511.2,500.1,510.9,501,509.6,500z"/>
		<path class="st5" d="M500.5,503.6c0.6-0.6,1.2-1.2,1.9-1.8C501.7,502.4,501.1,503,500.5,503.6z"/>
		<path class="st5" d="M470.4,512.7c0.6,0,1.2,0,1.8,0c-0.3,0.4-0.6,0.8-0.9,1.3C471.1,513.5,470.7,513.1,470.4,512.7z"/>
		<path class="st5" d="M504.1,501.8c0.6-0.3,1.2-0.6,1.8-0.9C505.7,501.9,505.4,502.9,504.1,501.8z"/>
		<path class="st11" d="M72.3,423.9c2.4,0.7,3.1,2.6,2.4,4.6c-1,3.1,0.1,5.7,1.3,8.3c2.1,4.7,5.9,8,9.9,11c3.3,2.4,6.7,4.8,10.3,6.6
			c5.5,2.8,8.8,7.3,11.3,12.6c1.9,4.1,4.7,6.6,9,7.6c3.8,0.9,7.6,2.1,11.5,2.7c1.7,0.3,3.6-0.2,5.3-0.6c1.3-0.3,2.6-1,3.6-1.8
			c5.6-4.5,11.7-3.8,18.1-2.1c15,4.1,30.1,8.1,45.3,11.7c6.9,1.6,14,2.2,21,3.2c9,1.2,17.9,2.3,26.9,3.4c3.6,0.4,7.2,0.8,10.8,1
			c4.8,0.4,9.6,0.7,14.5,1c5.4,0.3,10.9,0.6,16.3,1c0.7,0,1.4,0.6,2,0.8c-1.6,0.3-3.2,0.9-4.8,0.8c-7.1-0.2-14.1-0.5-21.2-0.9
			c-4.2-0.2-8.4-0.8-12.6-1.2c-5.4-0.5-10.8-1-16.1-1.5c-0.6,0-1.2,0-1.8,0c-0.9-0.3-1.8-0.6-2.7-0.9c-0.9,0-1.8,0-2.7,0
			c-0.9-0.3-1.8-0.6-2.7-0.9c-1.2,0-2.4,0-3.6,0c-0.6-0.3-1.2-0.6-1.8-0.9c-1.5,0-3,0-4.5,0c-1.2-1.2-2.4-1.2-3.6,0
			c-0.9,0-1.8,0-2.7,0c-0.7-2.3-2.1-2.1-3.6-0.9c-0.6,0-1.2,0-1.8,0c-0.5-0.5-0.8-1.5-1.4-1.6c-5-0.9-10.1-1.8-15.2-0.7
			c-1.8,0.4-3.9,0.2-5.7-0.2c-8.1-1.8-16.1-4.1-23.4-8.1c-5.1-2.8-10.2-1.9-15.2,0.1c-0.4,0.2-0.6,0.9-1,1.4c-3.6,0-7.3,0-10.9,0
			c-1.5,0-3,0-4.6,0c-9.1-0.5-17.6-2.7-24.6-9c-1.8-1.6-3.7-3.1-5.5-4.7c-0.5-3.4-2.9-5.6-5.2-7.6c-4.2-3.7-8.6-7.1-12.7-10.8
			c-4.1-3.7-8.8-6.3-14-8c-3.4-1.8-6.6-3.9-7.2-8.2c1.6-0.6,3.4-1.1,4.9-1.9C66.6,427.6,69.4,425.7,72.3,423.9z"/>
		<path class="st9" d="M143.4,479.9c0.3-0.5,0.5-1.3,1-1.4c5-2,10.1-2.8,15.2-0.1c7.4,4,15.3,6.3,23.4,8.1c1.9,0.4,3.9,0.6,5.7,0.2
			c5.2-1.1,10.2-0.2,15.2,0.7c0.5,0.1,0.9,1,1.4,1.6c-1.4,0-2.8,0.2-4.1-0.2c-6.1-1.5-11.3,0.5-16.3,3.8c-3.6,2.4-5,2.4-8.5-0.1
			c-4.1-3-8.4-6-12.4-9.1c-5.7-4.3-12-5.5-18.9-3.7C144.7,479.8,144.1,479.8,143.4,479.9z"/>
		<path class="st9" d="M237.3,492.6c5.4,0.5,10.8,1,16.1,1.5c4.2,0.4,8.4,0.9,12.6,1.2c7.1,0.4,14.1,0.7,21.2,0.9
			c1.6,0,3.2-0.5,4.8-0.8c0.9,0,1.8,0,2.7,0c0,0.6,0,1.2,0,1.8c-0.3,0.3-0.6,0.6-0.9,0.9c-1.8,0-3.6,0-5.5,0
			c-6.2,0.3-12.3,1-18.5,0.8c-10.6-0.3-20.9-2.6-31.2-4.7C238.1,494.1,237.7,493.2,237.3,492.6z"/>
		<path class="st9" d="M213.6,489.9c1.2-1.2,2.4-1.2,3.6,0C216,491.1,214.8,491.1,213.6,489.9z"/>
		<path class="st9" d="M207.2,489c1.6-1.2,2.9-1.4,3.6,0.9C209.6,489.6,208.4,489.3,207.2,489z"/>
		<path class="st9" d="M227.2,490.8c0.9,0.3,1.8,0.6,2.7,0.9C228.5,493,227.7,492.6,227.2,490.8z"/>
		<path class="st9" d="M232.7,491.7c0.9,0.3,1.8,0.6,2.7,0.9C234,493.9,233.1,493.5,232.7,491.7z"/>
		<path class="st9" d="M221.8,489.9c0.6,0.3,1.2,0.6,1.8,0.9C222.3,491.9,222,491,221.8,489.9z"/>
		<path class="st7" d="M208.1,506.4c1.9-2.7,3-2.6,4.6,0.3C211.2,506.6,209.6,506.5,208.1,506.4z"/>
		<path class="st11" d="M294.6,496.7c0-0.6,0-1.2,0-1.8c6.1,0,12.1-0.1,18.2,0c4.4,0.1,8.7,0.5,13.1,1c4.2,0.4,8.4,1.1,12.6,1.7
			c1.5,0.2,3.1,0.4,4.4,1.1c8.1,4.1,17,5.3,25.6,7.8c6.8,1.9,13.8,3.2,20.8,4.5c3.5,0.7,7.2,0.7,10.8,1.2c0.7,0.1,1.4,0.6,2,0.9
			c0,0.9,0,1.8,0,2.7c-1.2,0-2.4,0-3.6,0c-1.5-0.3-3-0.6-4.6-0.9c-1.6-1.2-2.9-1.4-3.6,0.9c-0.3,0-0.6,0-0.9,0c-2.4,0-4.9,0-7.3,0
			c-1.4-0.3-2.9-0.8-4.3-0.9c-8.1-0.4-16.3-0.3-24.4-1.1c-5.7-0.5-10.6-3.2-13.8-8.4c-1.9-3.2-4.3-6-8.2-6.6
			c-3.4-0.6-6.9-1-10.3-1.2c-1.5-0.1-3,0.2-4.4,0.7c-3.4,1.2-6.8,1.2-10.3,0.8c-0.8-0.1-1.7,0.1-2.5,0.2c-0.6,0-1.2,0-1.8,0
			c-0.6-2.4-2.8-2.2-4.6-2.7C296.4,496.7,295.5,496.7,294.6,496.7z"/>
		<path class="st11" d="M426.7,514.5c-1.2,0-2.4,0-3.7,0c-1.8-0.3-3.6-0.6-5.5-0.9c2.6-0.2,5.2-0.6,7.8-0.6
			C425.8,512.9,426.3,513.9,426.7,514.5z"/>
		<path class="st11" d="M410.3,514.5c-1.2,0-2.4,0-3.6,0c0-0.3,0-0.6,0-0.9c1.8-2.5,2.8-2.5,4.6,0
			C410.9,513.9,410.6,514.2,410.3,514.5z"/>
		<path class="st9" d="M303.7,499.5c0.8-0.1,1.7-0.3,2.5-0.2c3.5,0.4,6.9,0.4,10.3-0.8c1.4-0.5,3-0.8,4.4-0.7
			c3.5,0.2,6.9,0.6,10.3,1.2c3.9,0.7,6.3,3.5,8.2,6.6c3.1,5.2,8,7.9,13.8,8.4c8.1,0.7,16.3,0.7,24.4,1.1c1.5,0.1,2.9,0.6,4.3,0.9
			c0,0.6,0,1.2,0,1.8c-1.5-0.3-3-0.6-4.5-0.9c-4.6,0-9.3-0.1-13.9,0c-1.4,0-2.8,0.6-4.3,0.9c-1.2,0-2.4,0-3.6,0
			c-0.5-2.1-2.2-1.6-3.6-1.8c-6.1-0.9-11.5-3.8-16.8-6.7c-0.7-0.4-1.3-1.3-1.7-2.1c-1.4-2.4-2.7-4.8-6-4.9c-2.8-0.1-6-1.1-8.4-0.2
			C313.2,504.2,308.5,502.3,303.7,499.5z"/>
		<path class="st7" d="M303.7,499.5c4.8,2.9,9.5,4.8,15.4,2.6c2.4-0.9,5.6,0.1,8.4,0.2c3.3,0.1,4.6,2.5,6,4.9c0.4,0.8,1,1.7,1.7,2.1
			c5.3,2.9,10.7,5.8,16.8,6.7c1.5,0.2,3.2-0.2,3.6,1.8c-4.4-0.9-9.1-1.2-13.3-2.7c-8.8-3.2-17.3-7.3-26.7-8.6
			c-3.4-0.5-6.5-2.5-9.8-3.7c-3.4-1.2-6.9-2.2-10.3-3.4c-0.7-0.3-1.2-1.1-1.8-1.7c0.3-0.3,0.6-0.6,0.9-0.9c0.9,0,1.8,0,2.7,0
			c0.6,2.4,2.8,2.2,4.6,2.7C302.5,499.5,303.1,499.5,303.7,499.5z"/>
		<path class="st9" d="M390.3,516.3c0.7-2.3,2.1-2.1,3.6-0.9c0,0.3,0,0.6,0,0.9C392.7,516.3,391.5,516.3,390.3,516.3z"/>
		<path class="st9" d="M301.9,499.9c-1.7-0.6-3.9-0.4-4.6-2.7C299.1,497.8,301.3,497.5,301.9,499.9z"/>
	</g>
	<path class="st4" d="M127,420.8"/>
	<path class="st12" d="M239.5,124.7c3.6,0,7.3,0,10.9,0c-0.1,12.5-0.1,25.1-0.2,37.6c8.3,0.2,16.6,0.5,24.9,0.7
		c0.2,3.3,0.3,6.6,0.5,9.9c-8.4,0-16.8,0-25.2,0c-0.1,19.1-0.1,38.2-0.2,57.3c-3.8,0.1-7.6,0.2-11.3,0.4c0.2-19.4,0.3-38.8,0.5-58.2
		c-9-0.2-18-0.5-27.1-0.7c0.3-3.3,0.5-6.6,0.8-9.9c8.6,0.2,17.2,0.5,25.8,0.7C239.1,150,239.3,137.3,239.5,124.7z"/>
	<g>
		<path class="st13" d="M789.6,455.4c-0.3-1.5-0.6-3.1-0.2-4.6c2.6-12.3-1.7-22.5-11.3-31.1c-6.6-5.9-14.4-10.3-22.7-14
			c-18.2-8.2-37.6-12.7-57.6-15c-0.5-0.1-1-0.1-1.6-0.2c-1.8-0.2-3.7-0.4-5.5-0.6c-0.5,0-1-0.1-1.6-0.1c-2.6-0.2-5.3-0.4-7.9-0.7
			c-0.5,0-1-0.1-1.6-0.1c-4.5-0.2-9-0.4-13.4-0.6c-1,0-2.1-0.1-3.1-0.1c-11.3,0-22.6,0-33.9,0c-1.1,0.1-2.3,0.2-3.4,0.3
			c-0.3,0-0.5,0.1-0.8,0.1c0,0.2,0.1,0.4,0.1,0.6c-4.9-0.3-9.8-0.5-14.7-0.8c-4,1-8.1,2-12.1,2.9c-1.1-0.7-4.6-2.8-9.7-2.7
			c-5.3,0.2-8.8,2.7-9.7,3.5c-0.6-1.2-1.8-3-3.8-4.5c-5.6-4.1-14.5-2.8-20.1-0.3c-3.9,1.8-3.4,2.9-7.1,4.3
			c-7.3,2.7-13.7-0.3-14.4,1.1c-1,2.1,13.1,8.1,11.9,11.4c-1.1,3-14.2,2.6-14.9,2.6c-1.6-0.1-3.2-0.1-4.8-0.2
			c-0.7,0-1.4-0.1-2.1-0.1c-1.6,0.3-3.3,0.9-4.9,0.9c-7.9,0.3-15.9,0.5-23.8,0.7c-2.9,0.1-5.7,0.2-7.6-2.5c-0.6-0.8-2.3-0.8-3.5-1.2
			c-0.1,0-0.2,0-0.3,0.1c-0.1,0-0.3,0-0.3,0c-3.2,0-7.3,0.8-7.3,0.8c-1.8,0.4-5.8-2.1-14.8-13.6c-2,0.7-5.2,1.8-9.4,2.4
			c-11.3,1.6-18.1-2-21.5,1.3c-2.8,2.7-1.2,7.8-1.8,7.9c-1.1,0.1-2-15-6.4-15.6c-2.3-0.3-3.4,3.5-10.3,6.9c-2.5,1.2-3.9,1.9-5.9,2.1
			c-5.9,0.6-8.5-4.1-14.2-5.1c-3-0.5-7.6-0.1-14.2,4.8c-1.6-1.5-4.2-3.4-7.7-4.8c-6.8-2.8-13-2.2-15.8-1.8c0,1.5,0,2.8,0,4.4
			c0.5,0.6,1,1.2,1.4,1.8c-1.6-1.4-4.3-3.6-8.2-5.2c-5.2-2.1-9.8-2.1-11.9-2c-1.1,0-6.4,0.2-12.4,2.6c-1.9,0.8-3.4,1.6-4.4,2.2
			c-3-2.6-5.8-3.4-7.4-3.7c-2.9-0.6-5.9-0.2-9.9,0.3c-2.7,0.3-4,0.5-4,0.5c-3.5,0.6-4.9,1-6.7,0.5c-0.9-0.3-1.5-0.7-2.3-1.2
			c-5.3-3.5-5.9-4.4-7.5-5.3c-4.6-2.5-10.2-1.2-12.8-0.5c-1.8,0.4-4.1,1-6.2,2.8c-1.4,1.2-2.2,2.5-2.7,3.3c-0.5-0.7-1.7-2.1-3.8-2.8
			c-4.2-1.4-8,1.2-8.3,1.4c-0.8-0.7-2-1.6-3.7-2.3c-2.7-1.1-5-1-7.9-0.8c-12.7,0.6-12.3,0.1-15.2,0.8c-2.8,0.7-5.6,1.1-8.4,1.6
			c-7.6,2.2-15.3,4.3-22.9,6.5c-2,0.6-3.6,2.3-6.3,2.4c-2.6,0.1-4.2-0.9-5.9-0.1c-1.3,0.7-1.7,2.1-1.9,3.2c-0.1,0-0.8-0.4-1.6-0.7
			c-1.3,0-2.7,0.1-4,0.1c-1.3,0.2-2.6,0.4-3.9,0.6c-1.4,0.8-2.9,1.6-4.3,2.5c-6.9,4.4-14.7,3.7-22.4,3c-4.7-0.4-9.3-1.3-14-1.7
			c-6.4-0.6-12.6,0.1-18.5,2.2c0,0,0,0,0,0c-0.8-1.1-1.8-0.7-2.6-0.1c-1.6,1.3-3,2.8-4.5,4.2c-1.2,1-2.3,2.1-3.6,3.1
			c-1,0.7-2.2,1.2-3.1,2c-1.9,1.7-4.1,2.3-6.7,2c-0.8,0-1.6,0-2.4,0c0,0,0,0.1,0,0.1c-0.5,0.2-1.1,0.4-1.6,0.5c-0.5,0-1.1,0-1.6,0.1
			c-0.5,0.2-1.1,0.4-1.6,0.6c-0.8,0.1-1.5,0.1-2.3,0.2c-2.5,2.6-5,3.7-6.5,4.3c-2.1,0.8-3.9,0.9-6.6,1.1c-3.6,0.3-5.4,0.4-7.6-0.1
			c-3.8-0.9-6.4-3.1-8.7-5.1c-1.9-1.6-3.2-3.2-4.1-4.3c0,0.2,0,0.4,0.1,0.7c-0.1-0.4-0.2-0.7-0.3-1.1c0-0.4,0-0.8-0.1-1.2
			c0-0.5,0-1,0-1.5c1.4-1.7,0.7-3.4-0.1-5.1c-0.4,0.4-1.1,0.8-1.3,1.3c-2.2,4.6-2.4,9.4-1.4,14.3c0.4,1.6,1.3,3,2,4.5
			c1.4,2.3,2.5,4.7,4.1,6.8c5.8,7.4,13.6,12.5,22.5,16.4c14.5,6.3,29.6,11.3,45.3,14.5c16.7,3.3,33.6,5.5,50.5,8
			c6.7,1,13.6,1.5,20.3,2.2c0.7-0.7,1.2-0.5,1.6,0.2c1.3,0.1,2.6,0.3,3.9,0.4c0.5,0.2,1,0.3,1.5,0.5c3.4,0.2,6.7,0.4,10.1,0.7
			c3,0.2,6,0.4,8.9,0.6c-0.3-0.4-0.6-0.9-0.9-1.3c0.4,0.4,0.6,0.9,0.9,1.3c2.4,0.2,4.7,0.4,7.1,0.6c1.6-2.1,2.6-2,3.9,0.2
			c0.6,0.2,1.3,0.4,1.9,0.4c5.3,0.5,10.7,0.9,16,1.4c4.8,0.5,9.6,1,14.4,1.5c0,0.2,0.1,0.3,0.1,0.5c2.4,0.2,4.7,0.5,7.1,0.7
			c0.5,0.1,1,0.1,1.5,0.2c1.3,0.2,2.6,0.4,4,0.5c0.5,0,1,0.1,1.5,0.1c1.6,0.2,3.2,0.4,4.8,0.6c0.5,0.1,1,0.1,1.6,0.2
			c1.3,0.2,2.6,0.3,4,0.5c0.5,0,1,0.1,1.5,0.1c1.6,0.2,3.2,0.4,4.8,0.6c0.5,0.1,1,0.1,1.6,0.2c1.3,0.2,2.7,0.3,4,0.5
			c0.8,0.1,1.6,0.1,2.3,0.2c1.8,0.2,3.7,0.4,5.5,0.6c0.5,0,1,0.1,1.6,0.1c1.6,0.2,3.2,0.4,4.8,0.5c0.8,0.1,1.6,0.1,2.3,0.2
			c1.8,0.2,3.7,0.4,5.5,0.6c0.8,0.1,1.6,0.1,2.4,0.2c1.6,0.2,3.2,0.3,4.7,0.5c0.8,0.1,1.6,0.1,2.3,0.2c1.8,0.2,3.7,0.4,5.5,0.5
			c0.5,0,1,0.1,1.5,0.1c1.9,0.2,3.7,0.4,5.6,0.5c0.8,0.1,1.5,0.1,2.3,0.2c2.4,0.2,4.8,0.4,7.1,0.6c0.8,0.1,1.6,0.1,2.3,0.2
			c1.9,0.2,3.7,0.3,5.6,0.5c1.1-0.7,2.1-0.7,3.1,0.2c2.4,0.2,4.8,0.4,7.1,0.6c0.5,0,1,0.1,1.5,0.1c2.4,0.2,4.8,0.4,7.1,0.6
			c0.3-0.2,0.5-0.4,0.8-0.6c0.2-1.2,0.9-1.9,2.3-2.1c7.5-0.7,15-1.5,22.6-2.2c8.7-0.7,17.4,0.8,26.2,0.1c6.1-0.5,12.3-0.7,18.3-1.8
			c6.2-1.2,12.4-3,18.4-4.9c7.3-2.3,14.4-5.1,21.5-7.7c0.7-0.3,1.3-1,1.9-1.4c0-0.1,0-0.2,0-0.3c0,0,0,0,0.1,0c0,0.2,0,0.5,0,0.7
			c-0.6,0.5-1.2,1.2-1.9,1.4c-7.2,2.6-14.3,5.4-21.5,7.7c-6,1.9-12.2,3.7-18.4,4.9c-6,1.1-12.2,1.4-18.3,1.8
			c-8.8,0.7-17.5-0.9-26.2-0.1c-7.5,0.6-15,1.4-22.6,2.2c-1.4,0.1-2.1,0.9-2.3,2.1c0.5,0.2,1,0.5,1.6,0.7c3.2,0.2,6.3,0.4,9.5,0.7
			c1.6,0.1,3.2,0.2,4.8,0.3c1.6,0.1,3.1,0.2,4.7,0.4c1.8,0.1,3.7,0.2,5.5,0.3c0,0,0,0,0,0c2.4,0.2,4.7,0.3,7.1,0.5
			c1.9,0.1,3.7,0.2,5.6,0.3c1.8,0.1,3.6,0.2,5.5,0.4c2.1,0.1,4.3,0.2,6.4,0.3c2.6,0.1,5.2,0.3,7.8,0.4c0.8,0,1.6,0.1,2.3,0.1
			c3.4,0.2,6.9,0.4,10.3,0.6c1,0,2.1,0.1,3.1,0.1c4.2,0.2,8.4,0.4,12.7,0.6c1,0,2.1,0.1,3.1,0.1c3.4,0.2,6.9,0.4,10.3,0.6
			c1.3,0,2.6,0.1,3.9,0.1c5.5,0.2,11.1,0.4,16.6,0.6c1,0,2.1,0.1,3.1,0.1c5,0.2,10,0.4,15,0.6c1.6,0,3.1,0.1,4.7,0.1
			c5,0.1,10,0.3,15,0.4c1.6,0.1,3.2,0.1,4.8,0.2c2.4,0.1,4.7,0.1,7.1,0.2c1.1,0,2.1,0,3.2,0c0-0.1,0-0.2,0-0.4
			c4.7,0.2,9.5,0.4,14.2,0.5c2-0.2,4-0.4,6.1-0.5c3-0.1,5.9,0,8.9,0c2.9,0.2,5.8,0.5,8.7,0.7c3.2,0,6.3,0,9.5,0
			c0.7-0.2,1.4-0.6,2.2-0.6c4.4-0.1,8.9-0.1,13.3,0c0.6,0,1.2,0.3,1.8,0.5c6.3-0.2,12.7-0.4,19-0.6c1.3-0.9,2.6-0.9,3.9-0.1
			c3.7-0.2,7.4-0.4,11.1-0.6c1-0.9,2-0.9,3.1-0.2c1.9-0.2,3.7-0.4,5.6-0.5c0.5,0,1-0.1,1.5-0.1c2.1-0.2,4.2-0.4,6.3-0.6
			c0.5-0.1,1-0.1,1.5-0.2c2.6-0.3,5.2-0.6,7.8-0.9c6.1-0.6,12.2-1.5,18.4-1.8c9.8-0.5,19.7-0.3,29.5-0.8c13.8-0.7,27.4-2.6,40.9-5.2
			c5.8-1.1,11.4-2.7,16.6-5.4C786.7,478.6,792.2,467.8,789.6,455.4z M672.6,478.7c-4.5-0.2-9.1-0.2-13.6-0.2
			C663.6,478.5,668.1,478.5,672.6,478.7z M632.9,411.6c0.3-2.8-0.9-4.2-1-5.3C633.2,407.7,633.1,409.6,632.9,411.6z M620.6,478.4
			c5,0,10,0.1,15,0.1c3.3,0,6.7,0,10,0c-3.3,0-6.7,0-10,0C630.6,478.5,625.6,478.4,620.6,478.4c-3.3,0-6.7,0-10,0
			C614,478.4,617.3,478.4,620.6,478.4z M514,480.1c0.5,0.2,1.1,0.3,1.6,0.4C515.1,480.4,514.5,480.3,514,480.1
			c-0.5-0.2-1-0.4-1.5-0.7C513,479.7,513.5,479.9,514,480.1z M496.8,471.4c-0.4,0-0.9,0-1.4-0.1
			C495.9,471.4,496.4,471.4,496.8,471.4z M494.8,471.4c-0.2,0-0.4,0-0.7-0.1c0,0,0,0,0,0h0C494.3,471.3,494.5,471.3,494.8,471.4z
			 M393.1,483.5c1.8,0,3.7,0,5.5,0c2.2-0.2,4.5-0.4,6.7-0.5c0.4,0,0.8,0.8,1.2,1.2c1.3,0,2.6,0,3.9,0c2-0.5,4-1.4,6-1.3
			c11.8,0.4,23.3-1.1,34.6-3.8c6.1-1.5,12-3.5,17.9-5.3c2.5-0.7,5-1.4,7.6-2c0.5-0.1,1.2,0.1,1.8,0.2c0.5,0,1.1,0,1.6,0l0,0
			c0,0.1-0.1,0.2-0.1,0.4c-0.5,0-0.9,0-1.4,0c-0.6-0.1-1.3-0.4-1.8-0.2c-2.5,0.6-5.1,1.3-7.6,2c-6,1.7-11.9,3.8-17.9,5.3
			c-11.3,2.7-22.8,4.2-34.6,3.8c-2-0.1-4,0.9-6,1.3c0,0,0,0,0,0c-1.3,0-2.6,0-3.9,0c-0.4-0.4-0.8-1.2-1.2-1.2
			c-2.2,0.1-4.5,0.3-6.7,0.5c1.6,0.2,3.2,0.5,4.7,0.7l0,0c0,0.4,0,0.7,0,1.1l0,0c0-0.4,0-0.7,0-1.1c-1.6-0.2-3.2-0.5-4.7-0.7
			c-1.8,0-3.7,0-5.5,0l0,0c-1.6-1.9-2.4-2-3.9,0c-1.3,0-2.6,0-3.9,0c0,0.6,0,1.2,0,1.8c0,0,0,0-0.1,0c0,0.1-0.1,0.2-0.1,0.3
			c-1,0-2,0-3,0c0,0.1,0,0.3,0,0.4l0,0c0-0.1,0-0.3,0-0.4c-1.3-0.2-2.6-0.5-3.9-0.7c-1.4-0.9-2.5-1.1-3.2,0.7c-0.3,0-0.5,0-0.8,0
			c-2.1,0-4.2,0-6.3,0c0,0.5,0,1,0,1.4c0,0,0,0,0,0c-1.3-0.2-2.6-0.5-3.9-0.7v0c-4,0-8.1-0.1-12.1,0c-1,0-1.9,0.3-2.9,0.5
			c-0.3-0.1-0.6-0.1-0.9-0.2c1.2-0.2,2.5-0.7,3.7-0.7c4-0.1,8.1,0,12.1,0c1.3,0.2,2.6,0.5,3.9,0.7c0-0.5,0-1,0-1.4
			c2.1,0,4.2,0,6.3,0c0.3,0,0.5,0,0.8,0c0.6-1.8,1.8-1.7,3.2-0.7c1.3,0.2,2.6,0.5,3.9,0.7c1.1,0,2.1,0,3.2,0c0-0.7,0-1.4,0-2.1l0,0
			c1.3,0,2.6,0,3.9,0C390.7,481.5,391.6,481.5,393.1,483.5z M479.9,472C479.9,472,479.9,472,479.9,472
			C479.9,472,479.9,472,479.9,472z M444.7,483.1L444.7,483.1c0.3,0,0.7,0,1,0l0,0C445.4,483.1,445,483.1,444.7,483.1z M430.3,485.2
			c-0.3-0.3-0.6-0.5-0.9-0.6C429.7,484.8,430,484.9,430.3,485.2c0.7,0,1.5,0,2.2,0l0,0C431.7,485.3,431,485.2,430.3,485.2z
			 M436.5,484.5c-0.1-0.1-0.2-0.2-0.3-0.2C436.3,484.3,436.4,484.4,436.5,484.5L436.5,484.5z M435.4,484.2c0.1-0.1,0.3-0.1,0.4-0.1
			C435.7,484.1,435.5,484.2,435.4,484.2z M389.2,484.5c0,0.1,0,0.3,0,0.4l0,0C389.2,484.8,389.2,484.7,389.2,484.5z M99.6,413.4
			c0.8,0.2,1.4,0.5,1.7,1C101,414,100.4,413.6,99.6,413.4L99.6,413.4z M94.1,425.6c4.5,1.4,8.5,3.4,12.1,6.3c3.6,2.9,7.4,5.6,11,8.5
			c2,1.6,4.1,3.3,4.5,6c-1.7-1-3.6-1.8-5.2-3c-2.7-2-5.4-4.1-7.8-6.4c-3.4-3.3-7.4-5.9-11.6-8.4C95.8,427.8,94.2,427.3,94.1,425.6z
			 M136.4,455.2c0.9,0.3,1.8,0.5,2.7,0.7C138.2,455.7,137.3,455.5,136.4,455.2z M147.7,457c-2-0.1-3.9-0.3-5.8-0.6
			C143.8,456.7,145.8,456.9,147.7,457c1.3,0,2.6,0,4,0c3.2,0,6.3,0,9.5,0c0.3-0.4,0.4-1,0.8-1.1c4.4-1.5,8.8-2.2,13.2,0
			c6.4,3.1,13.3,5,20.3,6.4c1.6,0.3,3.4,0.5,5,0.2c4.5-0.8,8.8-0.1,13.2,0.6c0.5,0.1,0.8,0.8,1.2,1.2c-0.1,0-0.2,0-0.2,0
			c-0.3-0.4-0.6-0.8-0.9-0.9c-4.4-0.7-8.7-1.4-13.2-0.6c-1.6,0.3-3.4,0.2-5-0.2c-7-1.4-13.9-3.2-20.3-6.4c-4.4-2.2-8.8-1.5-13.2,0
			c-0.3,0.1-0.4,0.4-0.6,0.7c-0.1,0-0.2,0-0.3,0c-3.2,0-6.3,0-9.5,0C150.1,459,149.3,459,147.7,457z M240.5,467.3
			c-0.6-0.2-1.3-0.4-1.9-0.6c0-0.1-0.1-0.2-0.1-0.4c0.8,0.2,1.6,0.5,2.4,0.7C240.7,467.1,240.6,467.2,240.5,467.3z M235.8,466.5
			c-0.6-0.2-1.3-0.4-1.9-0.6c0-0.1-0.1-0.2-0.1-0.4c0.8,0.2,1.6,0.5,2.4,0.7C236,466.4,235.9,466.5,235.8,466.5z M230.6,465.6
			c-0.1,0.1-0.2,0.1-0.3,0.2c-0.4-0.2-0.8-0.3-1.2-0.5c0-0.1-0.1-0.3-0.1-0.4C229.5,465.1,230.1,465.4,230.6,465.6z M224.8,465
			c-0.9-0.6-1.8-0.6-2.7,0c-0.1-0.1-0.2-0.1-0.3-0.2c1.1-0.9,2.1-0.9,3.2,0C225,464.9,224.9,465,224.8,465z M216.9,464.3
			c-0.2,0-0.3-0.1-0.5-0.1c1.4-0.9,2.5-1.1,3.2,0.7c0,0-0.1,0-0.1,0C218.9,463.6,217.9,463.6,216.9,464.3z M298.3,472.7
			c-0.7-1.4-2.3-1.3-3.7-1.7c-0.1-0.1-0.1-0.2-0.2-0.4C296,471,297.9,470.9,298.3,472.7C298.4,472.7,298.4,472.7,298.3,472.7z
			 M316.4,469.7c-2.8-0.3-5.7-0.5-8.5-0.5C310.7,469.3,313.6,469.5,316.4,469.7z M292.1,469.2C292.1,469.2,292.1,469.2,292.1,469.2
			c0,0.1,0,0.2,0,0.4c-0.8,0-1.5,0-2.3,0c-1.4,0.2-2.8,0.7-4.1,0.7c-6.1-0.1-12.2-0.4-18.4-0.7c-3.6-0.2-7.3-0.6-10.9-0.9
			c-4.6-0.4-9.2-0.8-13.7-1.2c-0.1-0.1-0.2-0.3-0.3-0.4c4.7,0.4,9.3,0.8,14,1.2c3.6,0.3,7.2,0.7,10.9,0.9c6.1,0.3,12.2,0.5,18.4,0.7
			c1.4,0,2.7-0.4,4.1-0.7c0,0,0,0,0,0C290.5,469.2,291.3,469.2,292.1,469.2z M46.9,425.4c0.1,0.1,0.2,0.2,0.3,0.3
			C47.1,425.6,47,425.5,46.9,425.4z M47.8,426.2c0.1,0.1,0.2,0.2,0.3,0.2C47.9,426.4,47.9,426.3,47.8,426.2z M439.7,484.5
			C439.7,484.5,439.7,484.5,439.7,484.5c0.1,0.1,0.1,0.2,0.1,0.4c0,0,0,0-0.1,0C439.7,484.8,439.7,484.6,439.7,484.5z M482.3,471.7
			c-1.1-0.9-1.8-0.7-2.2,0.4c-0.1,0-0.1,0-0.2,0l0,0c0.4-1.4,1.1-1.7,2.4-0.7c0.8,0,1.6,0,2.4,0l0,0c2.2-2,4.9-2,7.1,0c0,0,0,0,0,0
			c0.8,0,1.6,0,2.4,0c-0.8,0-1.6,0-2.4,0c0,0.1,0,0.2,0,0.3c-2.2-1.9-4.9-1.9-7,0.1l0,0C483.9,471.7,483.1,471.7,482.3,471.7z
			 M485.3,473.4c0.2,0.1,0.3,0.1,0.5,0.2C485.6,473.5,485.5,473.4,485.3,473.4z M488.6,471.7c-0.5,0-1,0-1.6,0
			c-0.2,1.4-0.4,1.9-1.1,1.8c0.7,0.1,0.8-0.4,1.1-1.8C487.6,471.7,488.1,471.7,488.6,471.7c1,0,2.1,0,3.1-0.1l0,0
			C490.7,471.7,489.7,471.7,488.6,471.7c0.4,1.7,0.7,2.2,1.8,1.9C489.3,473.9,489.1,473.4,488.6,471.7z M541.6,498
			c-0.9-0.2-1.8-0.5-2.6-0.7c-5-1.2-9.7-2.5-13.9-5.5c-3.3-2.5-7.2-4.3-10.7-6.6c-3.4-2.2-6.6-4.6-10-6.8c-3.4-2.2-6.6-4.7-11-5.3
			c-0.5,0-1.1,0-1.6,0c0-0.1,0-0.2,0-0.4c0.5,0,1,0,1.5,0c4.3,0.6,7.6,3.1,11,5.3c3.4,2.2,6.6,4.7,10,6.8c3.5,2.3,7.4,4.1,10.7,6.6
			c4.1,3,8.9,4.4,13.9,5.5c0.9,0.2,1.8,0.4,2.6,0.7c1.8,0.5,2.8,1.4,3,3C544.3,499.3,543.3,498.5,541.6,498z"/>
		<path class="st14" d="M849.3,540.2C849.3,540.2,849.3,540.2,849.3,540.2C849.3,540.2,849.3,540.2,849.3,540.2
			C849.3,540.2,849.3,540.2,849.3,540.2z"/>
		<path class="st14" d="M848.7,540.1c0.2,0,0.4,0,0.6,0.1C849.1,540.1,848.9,540.1,848.7,540.1z"/>
		<path class="st14" d="M565,501.7c-2,0.1-4,0.3-6.1,0.5c1.3,0.2,2.5,0.5,3.8,0.5c5.3,0.1,10.7,0.1,16,0.1c1.3,0,2.5-0.2,3.8-0.4
			c-2.9-0.2-5.8-0.5-8.7-0.7C570.9,501.7,567.9,501.6,565,501.7z"/>
		<path class="st14" d="M594.2,501.8c-0.7,0-1.5,0.4-2.2,0.6c5.8,0,11.5-0.1,17.3-0.1c-0.6-0.2-1.2-0.5-1.8-0.5
			C603.1,501.7,598.6,501.7,594.2,501.8z"/>
		<path class="st14" d="M826.6,529.5c0,0,0.1,0,0.2,0c0.5-0.1,0.7-0.3,0.8-0.7c0-0.5-0.3-1-0.7-1.1c-0.2,0-0.3,0-0.5,0
			c-0.2,0.1-0.5,0.1-0.8,0.3c0.2,0.8,0.4,1.5,0.7,2.3C826.9,530.2,826.4,529.8,826.6,529.5z"/>
		<path class="st14" d="M827.9,528.4c0,0.2,0,0.4,0.1,0.6c0.1,0.1,0.4,0.2,0.6,0.2c0.3,0,0.6-0.2,0.9-0.3c-0.1-0.4-0.2-0.7-0.3-1
			c-0.1-0.4-0.4-0.6-0.8-0.5c-0.4,0-0.7,0.2-0.7,0.7c0.1,0,0.2,0.1,0.4,0.1C828,528.2,827.9,528.3,827.9,528.4z"/>
		<path class="st14" d="M829.8,527.9c0,0.2,0.1,0.3,0.2,0.5c0.1,0.2,0.4,0.3,0.6,0.2c0.1,0,0.2-0.1,0.2-0.1c0-0.1-0.1-0.2-0.1-0.2
			c-0.3,0-0.3-0.2-0.3-0.3c-0.1-0.3-0.3-0.7,0.1-0.9c-0.2-0.1-0.3-0.3-0.5-0.4c-0.2-0.1-0.3-0.1-0.4,0.1c-0.1,0.2-0.1,0.3-0.2,0.5
			C829.7,527.3,829.8,527.6,829.8,527.9z"/>
		<path class="st14" d="M628.3,501.7c1.3,0,2.6-0.1,3.9-0.1C630.9,500.8,629.6,500.8,628.3,501.7z"/>
		<path class="st14" d="M643.3,501c1-0.1,2.1-0.1,3.1-0.2C645.3,500.1,644.3,500.1,643.3,501z"/>
		<path class="st14" d="M351.4,492.2c1,0.1,2.1,0.1,3.1,0.2C353.5,491.5,352.5,491.5,351.4,492.2z"/>
		<path class="st14" d="M370.3,493.7c0.8,0,1.6,0.1,2.3,0.1c-0.5-0.2-1-0.5-1.6-0.7C370.8,493.3,370.6,493.5,370.3,493.7z"/>
		<path class="st14" d="M184.1,475.2c0.5,0.1,1.1,0.1,1.6,0.2C185.3,474.7,184.8,474.5,184.1,475.2z"/>
		<path class="st14" d="M849.9,540.3c0.6,0.1,1.2,0.2,1.9,0.3C851.4,540.3,850.7,540.2,849.9,540.3c-0.2-0.1-0.4-0.1-0.6-0.1
			c0,0,0,0,0,0C849.5,540.2,849.7,540.2,849.9,540.3z"/>
		<path class="st14" d="M217.2,478.2c1.3,0.1,2.6,0.1,3.9,0.2C219.8,476.1,218.9,476.1,217.2,478.2z"/>
		<path class="st14" d="M790.8,570.9c-0.2,0-0.4,0-0.6,0C790.5,571.2,790.6,571.2,790.8,570.9z"/>
	</g>
</g>
<g id="Ebene_3_1_">
</g>
<g id="Ebene_1">
	<g id="sad">
		<path class="st15" d="M585.7,413.1c0,0-2.6-5.8-9-12.1c-0.2-0.2-1.1-1.1-2.4-1.8c-0.2-0.1-0.5-0.2-0.9-0.4
			c-1.9-0.8-2.6-1.2-2.9-1.3c-2.5-0.9-7.5,5.8-8,6.4c-2.6,3.5-2.7,5.3-4.6,8.3c-0.2,0.4-0.9,1.4-1.2,2.9c-0.1,0.5-0.2,0.9-0.2,1.2
			c1,0.6,2.1,1.3,3.2,2.3c0.6,0.6,1.2,1.1,1.7,1.6c0,0,0.9,1.1,1.3,2.6c0.9,4.4-1.2,9-6,10.5c-5.4,1.7-11.2,3.3-16.8,3.6
			c-12.3,0.6-24.7,0.2-37.1,0.3c-5.2,0-9.8,1.4-13,5.4c-4.4,10,2.6,18.6,14.6,17.8c8.5-0.6,17-0.2,25.5-0.7c9.5-0.6,19-1.3,28.4-2.8
			c15-2.3,24.6-10.4,29.2-23.2c1.3-3.5,1.3-6.7,1.2-9.1C588.5,419.4,586.8,415.4,585.7,413.1z"/>
		<path class="st15" d="M566.9,408.2c3.7-5,4.9-10,5.9-13.7c0.3-1.1,0.9-3.8,1.2-7.4c1.1-12.1-2.4-22.7-3.6-26.3
			c-3.4-10.1-8.5-17.6-12.5-22.6c-2.3-2.4-5.4-5.5-9.5-8.7c-3.8-3-7.8-6.2-13.7-9.1c-7-3.4-14.6-5.5-22.7-6.3
			c-1.5-0.1-3.1-0.4-5.9-0.7c-9.2-1-21.2-2.2-35.7-1.5c-12.7,0.6-19.1,0.8-26.2,3.4c-5.9,2.1-15,5.5-21.1,14.6
			c-4.1,6.1-5.3,12.4-5.6,14.6c-0.4,2.2-1.1,6.6-0.2,12c0.6,3.3,1.6,6.2,2.1,7.7c0.8,2.3,1.6,4.1,2.1,5.1
			c3.9,7.8,9.5,12.3,12.1,14.3c3.9,3,7.3,4.7,12.5,7.3c3.7,1.8,6.5,3,8.6,3.8c9.1,3.7,18.6,7.1,26.1,9.7c2.5,0.3,6.4,0.4,11.1-0.3
			c-0.7,3.7-1.8,6.6-1.8,9.6c-0.1,7.2,3.9,12.5,11,13.2c8,0.8,16.1,0.5,24.2,0.2c8.9-0.4,17.4-3,25.5-6.6c3.6-1.6,6-3.3,7.3-4.2
			C560.7,414.5,563.9,412.2,566.9,408.2z"/>
		<path class="st15" d="M431.8,323c15.9,2.6,28.2,0.4,31.8-0.3c1-0.2,5.1-1,10.2-2.7c4.8-1.6,10.1-3.4,15.9-7.5
			c1.3-0.9,2.2-1.7,2.9-2.3l2.8-2.5c2.8-2.4-2.8,2.5-2.8,2.5c-0.1-0.1,1-1.6,2.8-2.5c0.6-0.3,1.2-0.6,2-0.5c1.5,0.2,1.8,1.5,3.7,2.3
			c0.9,0.4,2.9,1,3.8,0.1c0.8-0.8,0.3-2.6-0.2-3.6c-0.2-0.4-0.4-1.1-1.5-1.8c-2-1.3-2.5-2.7-1.1-4.8c1.4-2.1,2.9-3,5.4-1.7
			c1.2,0.6,2.7,1,4,0.9c0.9,0,2.3-0.8,2.5-1.6c0.3-0.8-0.3-2.3-1-2.8c-0.7-0.6-1.1-0.5-3.7-1.7c-1.7-0.7-2.1-1-2.3-1.4
			c-0.3-0.6-0.3-1.3-0.3-2.2c0-0.8,0-1.2,0.2-1.6c0.5-1,1.6-1.4,3-1.5c3.3-0.2,3.9,0.1,5.8-0.6c1.3-0.5,3-1.7,2.9-2.8
			c-0.1-1.2-2.4-1.9-3.7-2.3c-3.5-1.1-5.2,0-6.4-1.2c-0.9-0.9-1-2.8-1.1-6.5c-0.6-17.5-2.7-34.8-7.3-51.8c-0.5-1.7-1.3-3.4-2.1-5.1
			c-2.2-5-6.3-6.5-10.9-3.5c-5.5,3.5-10.7,7.5-15.9,11.4c-1.8,1.4-3.3,3.2-5.3,4.4c-1.4,0.9-3.4,1.6-5,1.3
			c-10.3-2-20.4-2.1-30.7,0.1c-1.7,0.4-4.1-0.4-5.6-1.5c-7-5.1-13.8-10.4-20.7-15.4c-4.9-3.5-9.6-2.1-11.8,3.5c-1.1,3-2.2,6-2.9,9.1
			c-3.2,16.1-6.2,32.1-6,48.6c0,0.5,0,0.9-0.1,1.4c-0.5,5.5-0.5,5.4-6,5.1c-2.3-0.1-5.8-1.5-6.3,2.2c-0.5,3.7,3.3,2.6,5.3,3.2
			c1.5,0.4,3.2,0.3,4.8,0.6c2.7,0.5,3.4,2.7,1.6,4.8l0,0c-0.6,0.3-1.1,0.6-1.7,0.9c-0.2,0-0.4,0-0.6,0c-1.1,0.2-3,0.7-4.4,2.3
			c-0.3,0.4-1.9,2.1-1.3,3.2c0.4,0.7,1.4,0.9,2.1,1c1.5,0.2,2.5-0.2,6.2-1c1.6-0.4,2-0.4,2.5-0.3c1.2,0.3,2,1.4,2.8,2.7
			c1.3,2.2-0.1,3.4-1.7,4.5c-1,0.7-0.9,0.6-1.3,1c-0.9,0.9-2,2.8-1.2,4c0.6,1,2.1,1,2.2,1c1.3,0,2.2-1,2.3-1.1
			c0.5-0.5,1.3-1.2,2.5-1.8c0.7-0.3,1.4-0.7,2.3-0.6c1.1,0,1.8,0.6,4,2.4c1.4,1.2,2.5,2.1,3.2,2.7c2.2,1.4,5.2,3.1,8.9,4.8
			C411.9,317.5,420.1,321.1,431.8,323z"/>
		<path class="st16" d="M435.4,271.6c-1.4,1.4-2.7,2.7-4.1,4.1c-0.2,0-0.4,0-0.5,0c-1.4-1.5-2.8-3-4.2-4.5c0.4-0.6,0.8-1.2,1.2-1.8
			c2.3,0.1,4.5,0.1,6.8,0.2C434.8,270.3,435.1,271,435.4,271.6z"/>
		<path class="st17" d="M431.4,279.9c1.1-1.3,2.3-3,3.2-5.1c0.2-0.4,0.3-0.8,0.5-1.2c-0.3,0-0.7,0.1-1,0.1c-1.1,1.7-2.2,3.3-3.3,5
			C430.9,279.1,431.2,279.5,431.4,279.9z"/>
		<path class="st17" d="M439.4,278.4c-0.9-0.5-2-1.2-3.1-2.2c-0.9-0.8-1.6-1.6-2.1-2.3c0.3-0.2,0.6-0.4,0.9-0.6
			c0.8,0.7,1.6,1.4,2.6,2.2c1,0.7,1.9,1.4,2.8,1.9C440.1,277.7,439.7,278.1,439.4,278.4z"/>
		<path class="st18" d="M395.9,238.1c2.3-1.3,5.3-2.7,9.1-3.9c3.6-1.1,6.8-1.8,9.4-2.2c-1.2-2.1-2.5-3.7-3.5-4.9
			c-1.3-1.5-3.2-3.1-7.1-6.2c-1.2-0.9-2.3-1.8-3.5-1.6c-0.7,0.1-1.2,0.6-1.8,1.5c-1.7,2.4-2.2,4.6-2.3,5.3c-0.3,1.4-0.6,3.3-0.7,5.9
			C395.6,233.6,395.6,235.6,395.9,238.1z"/>
		<path class="st18" d="M491.6,241.3c-2.1-1.7-4.9-3.7-8.5-5.5c-3.4-1.7-6.5-2.8-9-3.6c1.5-2.2,3-3.8,4.1-5c1.5-1.5,3.6-3,7.9-6
			c1.3-0.9,2.5-1.7,3.7-1.4c0.7,0.2,1.1,0.9,1.6,1.9c1.3,2.8,1.5,5.4,1.6,6.1c0.1,1.6,0.1,3.8-0.2,6.7
			C492.6,236.3,492.2,238.6,491.6,241.3z"/>
		<path class="st15" d="M371.8,330c0.1-7,0.2-10.6,2.9-12.6c3.1-2.3,8.4-1.6,11.7,1.2c2.3,2,3,4.7,3.3,5.8
			c13.6,6.8,27.2,13.6,40.8,20.4c3.6,0.3,6.7,2.4,8.2,5.7c2.2,4.8-0.6,9.1-0.8,9.4l-0.8,1.6c-3.1,6.1-10.5,8.5-16.6,5.4l-39-19.9
			c-0.4-0.2-1.9-0.7-3.6-2c-2.9-2.2-4.2-4.9-4.7-5.9C371.7,335.9,371.7,333.2,371.8,330z"/>
		<path class="st15" d="M459.8,430.7c-7.7,2.1-14.6,0.2-16.9-4c-0.8-1.4-1.9-4.8-0.3-7.8c1.2-2.3,3.4-3.2,4.2-3.4
			c0-14.3,0-28.7,0-43c-1.4-3.3-0.9-7.1,1.3-9.9c3.3-4.1,8.4-3.6,8.7-3.6h2c6.8,0,12.3,5.5,12.3,12.3v43.8c0.1,0.9,0.7,6.4-3.3,11
			C464.8,429.6,461,430.4,459.8,430.7z"/>
		<path class="st19" d="M384.8,324.9c0.3-0.3,0.7-0.7,1-1.2s1-1.4,1.1-2.6c0.1-1.7-0.8-3-1.1-3.4c-0.4-0.1-0.7-0.2-1.1-0.4
			c0.1,0.1,0.2,0.3,0.4,0.6c0.1,0.2,0.9,1.8,0.4,3.6c-0.4,1.6-1.5,2.4-1.2,3C384.4,324.8,384.7,324.9,384.8,324.9z"/>
		<path class="st19" d="M379.7,324.3c0.2-0.3,0.5-0.8,0.8-1.4c0.3-0.6,0.7-1.6,0.6-2.8c-0.1-1.7-1.3-2.8-1.7-3.1
			c-0.4-0.1-0.7-0.1-1.1-0.2c0.1,0.1,0.3,0.3,0.5,0.5c0.1,0.2,1.1,1.6,1,3.5c-0.2,1.7-1.1,2.6-0.7,3.1
			C379.3,324.3,379.5,324.3,379.7,324.3z"/>
		<path class="st19" d="M447.8,419.9c-0.4,0-0.9,0-1.6,0c-0.6,0.1-1.7,0.2-2.7,1c-1.4,1-1.7,2.6-1.7,3.1c0.1,0.3,0.3,0.7,0.4,1
			c0-0.2,0.1-0.4,0.2-0.7c0.1-0.2,0.8-1.8,2.4-2.7c1.5-0.8,2.8-0.4,3-1.1C448,420.3,447.9,420,447.8,419.9z"/>
		<path class="st19" d="M450.9,424.1c-0.4,0-0.9,0.1-1.6,0.3c-0.6,0.2-1.6,0.5-2.5,1.4c-1.2,1.2-1.2,2.8-1.2,3.3
			c0.2,0.3,0.4,0.6,0.6,1c0-0.2,0-0.4,0.1-0.7c0-0.2,0.4-1.9,2-3.1c1.3-1,2.7-0.9,2.8-1.6C451.1,424.5,451,424.2,450.9,424.1z"/>
		<path class="st20" d="M453.8,264.8c-0.1-1.3,0.7-2.4,1.2-3c2.4-3.1,6.5-3.2,7.3-3.2c2.3,1.7,4.7,3.4,7,5.2c-1.5,3.6-4.8,6-8.2,6
			C457.8,269.8,454,267.5,453.8,264.8z"/>
		<path class="st20" d="M409.2,269.7c-3.4,0.1-6.6-2.2-8.3-5.8c2.4-1.7,4.8-3.4,7.2-5.1c0.7,0,5,0,7.3,3.1c0.4,0.6,1.1,1.5,1,2.7
			C416.2,267.3,412.4,269.6,409.2,269.7z"/>
		<path class="st21" d="M434.2,276.6c-1.2-0.9-2.4-1.1-3-1.1c-0.1,0.1-0.3,0.2-0.4,0.4c-0.2,0-0.3,0.1-0.5,0.1
			c-0.4,0.4-1.6,1.8-1.8,3.9c-0.1,1.2,0.2,2.1,0.4,2.7c1.3,1.6,3.5,2,5.3,1c1.7-1,2.5-3.1,1.9-5
			C435.8,278.2,435.2,277.3,434.2,276.6z"/>
		<path class="st22" d="M462.2,270.5c-3.3,5.2-4.5,10.2-2.5,12.6c0.2,0.2,1.5,1.8,3.2,1.7c1.7-0.1,2.7-1.8,2.9-2.1
			C468.3,278.6,462.4,270.9,462.2,270.5z"/>
		<circle class="st23" cx="463.9" cy="262.6" r="1.7"/>
		<circle class="st23" cx="410.3" cy="262.7" r="1.7"/>
		<circle class="st23" cx="409.3" cy="265.8" r="0.9"/>
		<circle class="st23" cx="462.9" cy="266" r="0.9"/>
		<path class="st15" d="M463.3,258.7"/>
		<path class="st19" d="M398.6,258.7c6.6-0.2,11.6-2.6,12.6-6.1c0.2-0.6,0.3-1.4,0.1-2.4c-1.9,1.8-4.3,3.7-7.3,5.6
			C402.1,257,400.3,257.9,398.6,258.7z"/>
		<path class="st19" d="M453.5,251.4c0.9,3,4.9,4.2,5.7,4.4c4,1.2,8-0.1,8-0.6c0-0.2-0.9-0.2-4.4-1c-5.6-1.1-6.6-1.8-7.3-2.5
			c-1.1-1.1-1.7-2.4-2-2.2C453.2,249.6,453.3,250.7,453.5,251.4z"/>
	</g>
	<path class="st24" d="M427.4,237.4c19.4,0.8,29.1,1.3,36.3,6.6c17.6,13.2,20.9,46,8.7,62.3c-5.3,7.1-12.9,10.2-11.7,14.8
		c1.5,6.1,16.8,7.8,19.9,8.2c9.9,1.1,11.2-1.5,17.9,0.5c4.6,1.4,8.7,4.8,16.9,11.7c9,7.6,8.2,8.3,12.8,11.2c9.3,5.9,12,4.3,18.4,8.7
		c12.4,8.6,14.3,25.5,14.8,29.6c0.8,7,2,17.8-4.6,25.2c-4.8,5.3-11.8,7-21.1,9.1c-4.9,1.1-8.9,1.5-13.9,1.9
		c-7.5,0.6-12.5,0.4-16.9-0.1c-8-1-10.1-2.8-11-3.7c-2.8-2.8-3.3-6.4-3.6-8.2c-0.8-5.1,1-9.2,1.8-10.9c-2.4,0.5-5.8,0.8-9.8,0.4
		c-4.7-0.5-8.4-2-10.7-3.2c0,6,0,12,0,18c-1.2,2.3-2.4,4.6-3.6,6.9c-1.1,0.9-8.5,7-16.9,4.9c-1.4-0.3-7.1-1.8-8.6-6.4
		c-0.2-0.5-1.1-3.3,0.4-6.1c1.3-2.4,3.6-3.2,4.2-3.4c-0.1-8-0.2-16.1-0.3-24.1c-3.6-1.4-9-3.9-14.4-8.7c-6.4-5.6-9.9-11.7-11.6-15.4
		c-7.4-3.9-14.8-7.7-22.2-11.6c-3-1.7-6.2-3.3-9.4-5c-3.4-1.7-6.7-3.3-10-4.7c-4.1-3.2-5.6-6.5-6.3-8.3c-1.1-3.3-0.9-6.4-0.6-12
		c0.1-2.3,0.3-4.2,0.5-5.5c0.4-0.9,1.3-2.3,2.9-3.3c4.1-2.5,8.8,0.2,9.3,0.5c3.9,2.3,4.8,6.3,5,7.1c9.7,4.8,19.4,9.7,29.1,14.5
		c0.5-2.1,1.5-5.3,3.7-8.7c2.5-3.8,5.4-6.2,7.3-7.5c-5-0.6-11.9-2.1-19.5-5.6c-5.6-2.6-10.1-5.7-13.4-8.3c-0.4-0.5-1.4-1.6-2.9-2
		c-0.6-0.2-1.2-0.3-1.7-0.3c-0.7,0.4-1.4,0.8-2.2,1.1c-0.9,0.7-1.8,1.4-2.7,2.2c-0.9,0.1-1.7,0.3-2.6,0.4c-1.4-1.4-1.3-2.5-1.3-2.8
		c0.2-1.5,2-2.7,2.8-3.3c1.1-0.7,1.6-0.7,2-1.5c0.5-0.9,0.1-2,0-2.4c-0.7-2-2.6-2.8-2.8-2.9c-2.4-1-4.6,0.2-4.9,0.4
		c-1.7,1.2-3.7,1.4-5.1,0.5c-0.7-0.5-1.1-1.2-1.3-1.7c0.3-0.8,0.6-1.5,0.9-2.3c1-0.7,2.4-1.5,4.2-2.4c2.4-1.2,3.8-1.5,4-2.6
		c0.2-1.2-1.1-2.3-1.3-2.4c-1.3-1-2.4-0.7-5.9-1c-3-0.3-4.6-0.5-5.2-1.5c-0.6-0.9-0.5-2.5,0.3-3.4c2.2-2.8,9,0.8,11.1-1.9
		c0.8-1,0.6-2.3,0.4-3.4c0.2-2,0.3-4.1,0.4-6.3c0.1-2.6,0.2-5.1,0.2-7.6c1.5-1.1,3.8-2.8,6.2-5.3c6-6.2,6.3-11,9.7-13.8
		C402.1,240.3,408,236.6,427.4,237.4z"/>
	<path class="st25" d="M435.1,235.1c19.4,0.8,29.1,1.3,36.3,6.6c17.6,13.2,20.9,46,8.7,62.3c-5.3,7.1-12.9,10.2-11.7,14.8
		c1.5,6.1,16.8,7.8,19.9,8.2c9.9,1.1,11.2-1.5,17.9,0.5c4.6,1.4,8.7,4.8,16.9,11.7c9,7.6,8.2,8.3,12.8,11.2c9.3,5.9,12,4.3,18.4,8.7
		c12.4,8.6,14.3,25.5,14.8,29.6c0.8,7,2,17.8-4.6,25.2c-4.8,5.3-11.8,7-21.1,9.1c-4.9,1.1-8.9,1.5-13.9,1.9
		c-7.5,0.6-12.5,0.4-16.9-0.1c-8-1-10.1-2.8-11-3.7c-2.8-2.8-3.3-6.4-3.6-8.2c-0.8-5.1,1-9.2,1.8-10.9c-2.4,0.5-5.8,0.8-9.8,0.4
		c-4.7-0.5-8.4-2-10.7-3.2c0,6,0,12,0,18c-1.2,2.3-2.4,4.6-3.6,6.9c-1.1,0.9-8.5,7-16.9,4.9c-1.4-0.3-7.1-1.8-8.6-6.4
		c-0.2-0.5-1.1-3.3,0.4-6.1c1.3-2.4,3.6-3.2,4.2-3.4c-0.1-8-0.2-16.1-0.3-24.1c-3.6-1.4-9-3.9-14.4-8.7c-6.4-5.6-9.9-11.7-11.6-15.4
		c-7.4-3.9-14.8-7.7-22.2-11.6c-3-1.7-6.2-3.3-9.4-5c-3.4-1.7-6.7-3.3-10-4.7c-4.1-3.2-5.6-6.5-6.3-8.3c-1.1-3.3-0.9-6.4-0.6-12
		c0.1-2.3,0.3-4.2,0.5-5.5c0.4-0.9,1.3-2.3,2.9-3.3c4.1-2.5,8.8,0.2,9.3,0.5c3.9,2.3,4.8,6.3,5,7.1c9.7,4.8,19.4,9.7,29.1,14.5
		c0.5-2.1,1.5-5.3,3.7-8.7c2.5-3.8,5.4-6.2,7.3-7.5c-5-0.6-11.9-2.1-19.5-5.6c-5.6-2.6-10.1-5.7-13.4-8.3c-0.4-0.5-1.4-1.6-2.9-2
		c-0.6-0.2-1.2-0.3-1.7-0.3c-0.7,0.4-1.4,0.8-2.2,1.1c-0.9,0.7-1.8,1.4-2.7,2.2c-0.9,0.1-1.7,0.3-2.6,0.4c-1.4-1.4-1.3-2.5-1.3-2.8
		c0.2-1.5,2-2.7,2.8-3.3c1.1-0.7,1.6-0.7,2-1.5c0.5-0.9,0.1-2,0-2.4c-0.7-2-2.6-2.8-2.8-2.9c-2.4-1-4.6,0.2-4.9,0.4
		c-1.7,1.2-3.7,1.4-5.1,0.5c-0.7-0.5-1.1-1.2-1.3-1.7c0.3-0.8,0.6-1.5,0.9-2.3c1-0.7,2.4-1.5,4.2-2.4c2.4-1.2,3.8-1.5,4-2.6
		c0.2-1.2-1.1-2.3-1.3-2.4c-1.3-1-2.4-0.7-5.9-1c-3-0.3-4.6-0.5-5.2-1.5c-0.6-0.9-0.5-2.5,0.3-3.4c2.2-2.8,9,0.8,11.1-1.9
		c0.8-1,0.6-2.3,0.4-3.4c0.2-2,0.3-4.1,0.4-6.3c0.1-2.6,0.2-5.1,0.2-7.6c1.5-1.1,3.8-2.8,6.2-5.3c6-6.2,6.3-11,9.7-13.8
		C409.8,238,415.7,234.3,435.1,235.1z"/>
</g>
</svg>
