<?xml version="1.0" encoding="utf-8"?>
<!-- Generator: Adobe Illustrator 23.0.3, SVG Export Plug-In . SVG Version: 6.00 Build 0)  -->
<svg version="1.1" id="Ebene_1" xmlns="http://www.w3.org/2000/svg" xmlns:xlink="http://www.w3.org/1999/xlink" x="0px" y="0px"
	 viewBox="0 0 411.9 691.5" style="enable-background:new 0 0 411.9 691.5;" xml:space="preserve">
<style type="text/css">
	.st0{fill:#575665;}
	.st1{fill:#2E2B3E;}
	.st2{fill:#B44845;}
	.st3{fill:#3F3845;}
	.st4{fill:#A56364;}
	.st5{fill:#F5A064;}
	.st6{fill:#F7B381;}
	.st7{fill:#606774;}
	.st8{fill:#F6AB74;}
	.st9{fill:#F7F4F5;}
	.st10{fill:#F9C49E;}
	.st11{fill:#FBE0E0;}
	.st12{fill:#FAC59F;}
	.st13{fill:#FBF8F9;}
	.st14{fill:#ECD8D8;}
	.st15{fill:#F4B7B9;}
	.st16{fill:#B9A1AF;}
	.st17{fill:#EEE9EC;}
	.st18{fill:#B39AA9;}
	.st19{fill:#BA95A1;}
	.st20{fill:#A88EA0;}
	.st21{fill:#BDA6B3;}
	.st22{fill:#C9B8C3;}
	.st23{fill:#E8E1E6;}
	.st24{fill:#BFAAB7;}
	.st25{fill:#FFFFFF;}
	.st26{fill:#E88640;}
	.st27{fill:#8C6F67;}
	.st28{fill:#8A677E;}
	.st29{fill:#B79BA8;}
	.st30{fill:#C6967F;}
	.st31{fill:#89726F;}
	.st32{fill:#3C3A4C;}
	.st33{fill:#E88138;}
</style>
<g>
	<path class="st0" d="M124.5,0c-0.2,1.7-0.4,3.4-0.6,5.1c-2.2,0.3-4.3,0.6-6.5,1c-1.5-2.3-0.8-3.5,1.8-4.1c1.2-0.3,2.2-1.3,3.3-1.9
		C123.2,0,123.8,0,124.5,0z"/>
	<path class="st1" d="M181.4,23c2.5,1.9,5.1,3.6,7.5,5.6c4.3,3.6,7.9,7.2,14.4,8.1c7.4,1,12.7,7.1,17.2,13.2
		c0.3,0.4,0.6,0.7,0.9,1.1l0,0c0.2,8.9,5.7,15.3,10.4,22.1c0.3,0.5,0.6,1,0.8,1.5c0.8,3,0.7,7.3,2.7,8.9c3.7,3,6.9,4.6,0.2,7.3
		c-0.4,0.2-0.8,0.8-0.8,1.2c0.7,5,1.5,10.1,2.3,15.1c0,0.6-0.1,1.3-0.1,1.9c0.1,0.3,0.2,0.7,0.3,1c3.1,5.1,6.1,10.1,9.2,15.2
		c0.1,0.5,0.1,1.1,0.2,1.6c-1.4,1.4-2.8,2.8-4.1,4.3c-2.7-0.7-5.4-1.4-8.1-2.1c-0.9,3-1.9,6.1-2.8,9.1c-0.7,1.6-1.4,3.3-2.1,4.9
		c-0.2,6.5-1.4,7.8-5.3,5.7c-0.6-2.2-1.1-4.4-1.7-6.6c-1.1-9.1-2.2-18.3-7.5-27.2c-1,2.3-1.2,3.8-2.1,4.6c-1.9,1.8-4.2,3.1-6.3,4.6
		c-0.7-2.1-1.8-4.1-2.1-6.3c-0.8-5.1-1.3-10.3-1.8-15.5c0.9-1.3,1.8-2.5,3.5-4.8c1.8,4.8,3,8.2,4.3,11.5c0.6,0,1.2-0.1,1.7-0.1
		c0.4-5-0.9-10.4,2.1-15c0.2-0.3-0.4-1.2-0.7-1.8c-1.1-2-1.9-4.4-3.5-6c-4-4-8.2-7.8-12.5-11.5c-3.6-3.1-7.7-5.7-11.3-8.9
		c-4.5-3.9-11.8-5.1-12.6-12.8c-0.1-0.7-2.1-1.8-3.1-1.7c-1,0.1-2.2,1.3-2.9,2.2c-0.6,0.8-0.6,2.1-0.6,2.2
		c-4.5,4.2-9.2-3.8-12.3,0.3c-1,7,8.2,3.8,7.5,10.9c-3.2-3.3-6-4.8-9.4-1.1c-1.3,1.4-3.9,1.6-6,2c-2.9,0.6-5.9,0.8-9.7,1.2
		c-0.4-0.1-1.9-0.7-3.4-1.1c-2.6-0.7-5.7-0.6-7.6-2.1c-4.9-4-5.3-4.2-8.7,1.3c-2.1,3.4-4,7.7-8.6,5.6c-1-2.6-1.7-4.4-2.4-6.2
		c-1.7,1.1-3.8,1.8-5,3.2c-5.6,6.3-11,12.8-16.5,19.3c-2.7,3.2-5.3,6.4-8.4,9.2c-1.2,1.1-3.5,0.9-5.3,1.3c0.3-1.9,0.4-4,1.1-5.7
		c0.5-1.3,2.1-2.1,3.1-3.2c3.1-3.8,6.2-7.6,9.3-11.4c-0.4-0.3-0.8-0.7-1.1-1c-0.8,0.5-1.7,0.9-2.3,1.6c-2.2,2.4-4.1,3.2-6.2-0.4
		c-1.8-3.2-4.4-3-6.3-0.2c-2.9,4.6-5.2,9.6-8.2,14.1c-1,1.5-3.2,3.2-4.8,3.2c-1.1,0-3.2-2.9-3.1-4.4c0.3-3.9,1-8.1,2.6-11.7
		c3.7-8.5,8.3-16.6,12-25.1c1.3-3.1,2.9-3,4.8-1.7c3.3,2.4,4.6,0.1,6.4-2c-2.2-1.5-4.1-2.9-6.2-4.4c0.9-1.1,1.3-1.8,1.8-2.4
		c5.6-6.1,12-10.7,20.1-13.1c7.6-2.3,15-5.5,22.4-8.3c0.4-0.2,1,0,1.4-0.1c2-0.4,4-0.8,5.9-1.4c3.6-1,5.9-4.4,10.8-3.2
		c8.8,2.1,17.9,3,26.9,4.1c1.5,0.2,3.2-1.2,4.8-1.9c0.7,0,1.3,0,2,0c1.6,1.8,3.2,3.6,4.8,5.4c0.9,1,1.9,1.8,2.7,2.7
		c3,3.2,6,6.3,8.8,9.6c0.9,1,1.3,2.5,2,3.7c0.4,0.8,0.8,2,1.5,2.2c0.7,0.2,2-0.2,2.6-0.8c2.6-2.8,0.8-8.7-2.9-9.7
		c-7-2-8.5-3.7-9.4-11.4c0.2-0.3,0.2-0.6,0-0.9c0.6,0.3,1.3,0.6,1.9,0.9C180.8,22.8,181.1,22.9,181.4,23z M203.6,60.1
		c0.5-0.3,0.9-0.5,1.4-0.8c0-0.5-0.1-0.9-0.1-1.4c-0.1-1.5-0.2-3-0.3-4.4c1.5,0.4,3,0.7,4.4,1.2c2.2,0.8,4.4,1.7,7.8,3
		c-7.2-14.9-16.4-19.4-23.3-12.5C196.9,50.2,200.3,55.2,203.6,60.1z M70.8,57.6c0.1-0.3,0.4-0.6,0.3-0.8s-0.5-0.3-0.8-0.4
		c-0.1,0.3-0.4,0.6-0.3,0.8S70.5,57.5,70.8,57.6z"/>
	<path class="st2" d="M188.5,376.6c-1.9,3.3-3.8,6.6-5.9,9.7c-1.5,2.3-3.3,3.3-6.2,1.1c-3.5-2.6-7.6-4.6-11.8-7.1
		c-0.7,3.6-1.6,7.2-2,10.9c-2.1,19.1-4,38.2-6,57.3c-0.2,1.8,0,3.6-0.1,5.5c0,0.9-0.1,1.8-0.1,2.8c-2.7,11.6-2.7,23.2,1.1,34.5
		c0.4,1.2,3.2,2.4,4.8,2.3c3.4-0.3,6.7-1.4,10.1-2.1c17.5-2,34.9-3.1,52.1,2.4c4.6,1.7,9.1,3.3,13.6,5c8.4,3.9,13.3,10.7,16.2,19.2
		c2.2,6.6,4.2,13.2,6.3,19.8c0,1.3,0.1,2.7,0.1,4c0.2,1.3,0.4,2.6,0.5,4c-0.5,3.9-1.1,7.8-1.7,12.1c3.8-3,6.3-6.3,6.5-11
		c3.8-6.8,2.3-13.9,1.3-20.9c-1.9-13.4-6.4-25.7-17.1-34.8c-1.2-1-3.1-1.2-4.6-1.8c0-0.9-0.1-1.8-0.1-2.7c2.3,0.6,5.2,0.5,6.9,1.8
		c10.3,8.1,15.3,19.5,17.8,31.9c1.2,6,1.8,12.2,1.9,18.3c0.1,8.2-2.7,15.4-8.7,21.5c-6.1,6.3-11.5,13.3-17.3,19.9
		c-12.9,14.7-28.6,25.8-45.3,35.6c-19.3,11.4-38.5,23-55.2,38.2c-1.4,1.3-2.1,3.2-3.1,4.8c-2,3.4-4.3,2.1-6.6,0.4
		c-8.2-6-16.2-12.1-24.6-17.7c-5.7-3.9-11.9-7.1-17.9-10.6c-1.4-0.7-2.8-1.5-4.3-2.1c-3.2-1.2-4.7-4.8-2.9-7.8c0.9-1.5,2-2.9,3-4.3
		c-7.6-0.8-15.1-0.9-22.2-2.6c-27.7-6.7-47.8-29.7-51.5-57.7c-0.2-1.7-2-3.2-2.7-5c-1.3-3.3-2.5-6.6-3.4-10
		c-6.6-25.8-6.3-51.9-4.7-78.3c1.8-30.2,8.9-59.3,14.8-88.8c3.3-16.2,6.2-32.4,13.9-47c10.5-20,22.2-39.5,37.1-56.6
		c5.5-6.3,12.6-11.2,19-16.8c1-0.6,1.9-1.4,3-1.7c16.5-3.8,33-5.9,49.2,1.4c1.6,0.7,3.5,1.1,5.2,1.6c30.5,13.6,54.4,35.9,78.1,59
		c-2.1,3.2-4.3,6.4-6.5,9.7c-0.5,0.9-0.9,1.8-1.4,2.7c-5.3,8.8-10.8,17.5-15.9,26.5c-3.6,6.4-6.7,13.2-10.1,19.8
		C190.4,374,189.4,375.3,188.5,376.6z M164.4,373c0.3,0.3,0.7,0.7,1,1l0,0c0,0.4,0.1,0.7,0.1,1.1c2.2,1.7,4.5,3.4,6.7,5.1
		c2.5,1.4,4.9,2.8,7.9,4.5c2.1-4.7,3.9-8.7,5.6-12.7c0.9-1.3,1.8-2.6,2.7-4c6.4-11.2,12.9-22.4,19.1-33.6c1.1-1.9,1.3-4.3,1.9-6.5
		c3.4-4.2,6.8-8.3,10.1-12.5c-1-0.5-2-1.1-3-1.6c-0.4-1-0.5-2.4-1.2-3.1c-8.6-7.9-17.2-15.6-25.9-23.4c-0.9-0.9-1.9-1.7-2.8-2.6
		c-1.7-1.3-3.4-2.6-5.1-3.9c-1.3-1-2.6-2-3.9-3c-5.4-3.5-10.5-7.4-16.1-10.5c-6.6-3.6-13.6-6.4-20.4-9.6c-1.9-0.6-3.7-1.3-5.6-1.9
		c-3.4-0.9-6.8-1.8-10.2-2.6c-0.2-0.1-0.5-0.1-0.7,0c-0.8-0.1-1.5-0.2-2.3-0.4c-4.9,0.4-9.8,0.6-14.8,1.1c-4.4,0.4-8.9,1.2-13.3,1.8
		c-10.3,6.2-18.8,14.4-25.9,24.2c-0.4,0.7-0.8,1.4-1.2,2c-3.7,5.3-7.3,10.6-11,15.9l0.1,0c-0.3,0.3-0.5,0.7-0.8,1
		c-0.4,0.7-0.8,1.4-1.2,2.1c-0.7,1-1.5,2-2.2,3c-0.6,1-1.1,2.1-1.7,3.1c-1.1,1.6-2.2,3.2-3.3,4.8c-0.7,1.3-1.4,2.7-2.1,4
		c-12.5,18-18.8,38.2-20.8,59.8c-1.2,5.1-2.5,10.2-3.7,15.3c-3.2,16.4-6.4,32.7-9.6,49.1c-0.5,6.3-0.9,12.5-1.4,18.8
		c-0.1,4.6-0.1,9.3-0.2,13.9c-0.4,6.7-0.7,13.5-1.1,20.2c0.3,6,0.6,12,0.9,18.1c0.1,0.3,0.2,0.5,0.3,0.8c0.1,0.8,0.1,1.5,0.2,2.3
		c0,0.5,0,1.1,0.1,1.6c0.1,2.1,0.1,4.2,0.2,6.2c1.9,8.6,3.7,17.2,5.7,26.4c2.7-1.7,5.5-3.5,8.2-5.2c0.6-0.5,1.2-1,1.7-1.5
		c4.3-2.3,8.6-4.7,13-7c1.3-0.8,2.6-1.6,4-2.4c11.2-6.5,22.3-13.1,35.5-14.9c5.8-0.8,10.5-3.5,14.7-7.6c6.7-6.5,14.4-9.3,23.5-4.3
		c1.5,0.8,4.1,0.6,5.9,0c8.5-2.6,16.8-6.1,25.5-8.2c5.1-1.2,4.9-4.3,4.8-7.8c-0.1-2-0.7-3.9-1.1-5.9c-2.4-15.4,1.4-30.4,2.6-45.6
		c1-12.4,2.2-24.7,3.4-37.1c0.4-3.7,0.7-7.4,1.1-11.1c1.5-7,5.9-14.5-5-19.1c0.6-0.4,1.1-0.8,1.7-1.3c2.8,0.8,5.5,1.7,8.3,2.5V372
		C163.8,372.3,164.1,372.7,164.4,373C164.4,373,164.4,373,164.4,373z M68.6,609.1c0.3,0,0.5,0,0.8-0.1c1.1,0.6,2.1,1.2,3.2,1.8
		c0.3,0,0.7,0.1,1,0.1c0.6,0.1,1.2,0.2,1.8,0.2l0.1,0.3c0.4,0,0.7,0.1,1.1,0.1c0.7,0,1.3,0,2,0c1.8,0,3.5-0.1,5.3-0.1
		c4-0.6,8.8,0,11.7-2.1c5.9-4.1,10.8-9.6,16.1-14.5c1-0.9,2-1.8,3-2.7c1.3-1.8,2.5-3.5,3.8-5.3c2.3-1.2,4.7-2.5,7.1-3.7
		c0.7-0.4,1.3-0.9,2-1.3c1-0.9,2-1.8,3-2.7c0.6-0.3,1.2-0.5,1.7-0.9c3-2.4,5.8-5,8.8-7.3c2-1.5,4.3-2.7,6.4-4.1l0,0
		c1-0.6,2-1.2,3-1.8c4.8-3.2,9.6-6.3,14.4-9.5c0.4,0.5,0.8,0.9,1.2,1.3c-1.9,2.2-3.6,4.7-5.8,6.4c-4.9,3.7-10.1,7-15.1,10.5
		c-3.2,2.3-6.4,4.7-9.6,7c-1,0.9-2,1.9-3,2.8c-4.7,3.6-9.4,7.3-14.2,10.9c-11.2,9.1-22.3,18.3-30.7,31c2.3,0.2,4.1,0.3,5.8,0.4
		c3.1,1.6,6.2,3.1,9.2,4.7c0.9,0.5,1.7,0.9,2.6,1.4c0.8,0.5,1.6,1.1,2.3,1.6c0.9,0.5,1.8,0.9,2.6,1.4c0.4,0.3,0.7,0.6,1.1,0.9
		c9.2,6.8,18.3,13.5,27.8,20.5c2.6-3.5,4.4-7.1,7.2-9.8c3.4-3.3,7.5-5.8,11.3-8.7c1.6-1,3.2-2.1,4.8-3.1c4.7-3,9.4-6.1,14.1-9.1
		c2.7-2,5.4-3.9,8-5.8c2.6-1.7,5.3-3.3,7.9-5l0,0c1.3-0.7,2.7-1.3,4-2c0.7-0.4,1.4-0.8,2-1.2c16.2-8.3,30.5-19.3,42.8-32.8
		c0.6-0.7,0.6-2,0.8-3c0.5-1,1.1-1.9,1.6-2.8c14.2-13.2,17.4-31,8.5-48c-0.4-1.4-0.9-2.8-1.3-4.2c-2.6-4.7-4.2-10.8-8.1-13.8
		c-10.6-8-22.9-12.1-36.4-12.2c-0.6-0.3-1.3-0.6-1.9-0.9c-26.7-1.5-52,4.7-76.8,13.6c-7.2,2.6-14.2,5.6-21.4,8.1
		c-1.8,0.6-3.9,0.3-5.8,0.3c-0.1-0.6-0.1-1.2-0.2-1.7c4.1-1.8,8.2-3.5,13.3-5.7c-1.5-0.7-2-1-2.6-1.2c-6.8-2.7-11.1,2-16,5.3
		c-4.3,2.9-8.8,6.8-13.6,7.6c-13.6,2.3-25.5,8.2-37,15.4c-1,0.6-1.9,1.3-2.9,1.9c-4.1,2.3-8.2,4.7-12.3,7c-0.6,0.4-1.2,0.8-1.8,1.3
		c-3.1,1.7-6.2,3.4-9.1,5c0.5,2,0.8,3.7,1.3,5.3c2.9,8,5.7,16,8.8,24c0.4,1.1,2,1.8,3,2.7c2.4,3,4.8,6,7.2,9c3,2.9,5.9,5.8,8.9,8.8
		c2,1.1,4,2.2,5.9,3.3c1.2,0.7,2.5,1.3,3.7,2c0.8,0.3,1.5,0.6,2.3,0.9c1.4,0.6,2.7,1.2,4.1,1.8C65.2,608.9,66.9,609,68.6,609.1z"/>
	<path class="st3" d="M166.5,21c-1.6,0.7-3.3,2-4.8,1.9c-9-1.1-18.1-2-26.9-4.1c-4.9-1.2-7.2,2.2-10.8,3.2c-1.9,0.6-3.9,1-5.9,1.4
		c-0.5,0.1-1,0-1.4,0.1c-7.5,2.8-14.8,6.1-22.4,8.3c-8.1,2.4-14.5,7-20.1,13.1c-0.5,0.6-1,1.3-1.8,2.4c2.1,1.5,4.1,2.8,6.2,4.4
		c-1.8,2.2-3.1,4.4-6.4,2c-1.9-1.3-3.5-1.4-4.8,1.7c-3.7,8.5-8.3,16.6-12,25.1c-1.6,3.6-2.3,7.7-2.6,11.7c-0.1,1.5,2,4.3,3.1,4.4
		c1.6,0,3.8-1.6,4.8-3.2c3-4.6,5.3-9.5,8.2-14.1c1.8-2.9,4.4-3.1,6.3,0.2c2,3.6,3.9,2.8,6.2,0.4c0.6-0.7,1.5-1.1,2.3-1.6
		c0.4,0.3,0.8,0.7,1.1,1c-3.1,3.8-6.2,7.7-9.3,11.4c-0.9,1.2-2.5,2-3.1,3.2c-0.7,1.8-0.8,3.8-1.1,5.7c1.8-0.4,4.1-0.2,5.3-1.3
		c3.1-2.8,5.7-6,8.4-9.2c5.5-6.4,10.9-12.9,16.5-19.3c1.3-1.4,3.3-2.2,5-3.2c0.7,1.8,1.4,3.6,2.4,6.2c4.6,2.1,6.4-2.2,8.6-5.6
		c3.4-5.4,3.8-5.3,8.7-1.3c1.9,1.5,5,1.4,7.6,2.1c1.5,0.4,3.1,0.9,3.4,1.1c3.8-0.4,6.7-0.7,9.7-1.2c2.1-0.4,4.7-0.6,6-2
		c3.5-3.7,6.2-2.2,9.4,1.1c0.8-7.1-8.5-4-7.5-10.9c3.1-4.2,7.8,3.9,12.3-0.3c0-0.1,0-1.3,0.6-2.2c0.7-1,1.9-2.2,2.9-2.2
		s3.1,1,3.1,1.7c0.8,7.7,8.1,8.9,12.6,12.8c3.6,3.1,7.7,5.8,11.3,8.9c4.3,3.7,8.5,7.4,12.5,11.5c1.6,1.6,2.4,4,3.5,6
		c0.3,0.6,0.9,1.5,0.7,1.8c-2.9,4.5-1.6,9.9-2.1,15c-0.6,0-1.2,0.1-1.7,0.1c-1.2-3.3-2.5-6.7-4.3-11.5c-1.7,2.3-2.6,3.5-3.5,4.8
		c-3.6-3.6-7.3-7.1-11.7-11.4c-0.6,6.7-3.6,5.4-6.8,3.5c-11.1-6.6-22.1-13.3-32.9-19.7c-2,2.8-4,6.1-6.4,9c-3.3,4-6.8,7.7-10.3,11.5
		c-1.1,1.2-2.7,1.9-4,2.8c-0.6-1.9-1.7-3.8-1.6-5.6c0.2-2.5,1.3-5,2.3-8.4c-4.8,3.1-8.4,6.3-12.7,7.8c-9,3.1-14.6,9.2-18.7,17.3
		c-0.2,0.3-0.3,0.7-0.5,0.8c-1.5,1-3.1,2-4.6,3c-0.7-1.7-1.5-3.3-2.2-4.9l-0.1,0.1c0.3-0.7,0.7-1.4,1-2c3.8-4.4,7.7-8.7,11.3-13.3
		c1.3-1.6,1.6-3.9,2.4-5.9c-1.8,0.5-4,0.4-5.4,1.5c-5.1,4.1-10,8.5-15.3,13.1c-0.8-2.4-1.4-3.9-2.3-6.7c-1.5,2.6-2.5,4.1-3.3,5.6
		c-1.9,3.5-3.4,7.3-5.8,10.4c-1,1.3-4.8,2.4-5.7,1.7c-5.2-4.7-6.7-1.4-8,3.1c-0.2,0.6-0.6,1.2-1.1,1.5c-3.8,2.3-4.2,6.1-4.8,9.9
		c-0.5,3-1.2,6.1-1.8,9.1c-0.1-0.6-0.3-1.2-0.7-3.3c-1.1,3-1.5,4.7-2.5,6.1c-0.9,1.4-2.4,2.3-3.6,3.5c-0.8-1.4-2.4-2.8-2.4-4.2
		c0.1-7.1,0.6-14.2,1-22.4c-2,2-3.5,3.7-5.2,5.1c-1.2,0.9-2.8,1.3-4.2,2c-0.3-1.4-1-3-0.7-4.3c1.3-5.9,2.9-11.8,4.6-18.5
		c-1.7,1-2.5,1.8-3.5,2c-1.2,0.2-2.5-0.1-3.7-0.2c0.3-1.3,0.1-3.3,0.9-4c8-7,12.2-16.3,16.2-25.8c2.1-5,4.9-9.7,7.2-14.4
		c-4.7-1.5-9.4-2.9-13.9-4.6c-1.3-0.5-2.1-2.2-3.1-3.4c1.2-0.8,2.3-1.9,3.7-2.3c5-1.7,10.3-2.6,14.9-5c4.9-2.5,9.5-5.8,13.6-9.5
		c8.5-7.8,19.1-11.2,29.6-14.5c5.4-1.7,11.1-2.7,17-4.1c-0.6-1.2-1.2-2.4-1.8-3.7c0-0.6,0-1.1,0-1.7c0-0.9,0.1-1.8,0.1-2.6
		c2.2-0.3,4.3-0.6,6.5-1c0.3,0.5,0.5,1,0.8,1.6c0.9,0.8,1.8,1.6,2.6,2.4c0.3,0.1,0.4,0.3,0.4,0.6c0.6,1.7,1.2,3.5,2.1,6.3
		c1.4-2.1,2.1-3.2,2.8-4.2c1.9,0.3,3.8,0.6,5.7,1c-0.1,0.2-0.1,0.3,0,0.5c0.7,0.9,1.3,2.4,2.2,2.6c2.9,0.6,5.9,0.6,8.8,1.2
		C155.1,18.2,160.8,19.6,166.5,21z M183.5,80.6c3.8,2.7,7.6,5.6,11.5,8.1c1,0.6,2.6,0.2,3.9,0.2c-0.2-1.5,0.1-3.4-0.7-4.5
		C194.7,79.6,189.8,78.4,183.5,80.6z M46.2,115.6c-0.1-0.2-0.2-0.4-0.3-0.6c-0.1,0.1-0.3,0.2-0.3,0.3c0,0.2,0.2,0.4,0.3,0.6
		C46,115.8,46.1,115.7,46.2,115.6z"/>
	<path class="st4" d="M93.5,630.9c6,3.5,12.2,6.7,17.9,10.6c8.4,5.7,16.4,11.8,24.6,17.7c2.4,1.7,4.6,3,6.6-0.4
		c2.9,0.4,5.9,0.9,8.9,1c7.9,0.4,13.6,4.2,17.1,11c3.1,6.1,0.7,12.3-6,13.6c-12.1,2.2-24.3,3.7-36.4,5.4c-8.8,1.2-15.7-2.3-21.7-8.6
		c-7-7.3-14.4-14.3-21.6-21.4c-7-6.9-7-10.3,0-17.4C86.5,638.7,90,634.8,93.5,630.9z"/>
	<path class="st5" d="M188.5,376.6c1-1.3,1.9-2.5,2.9-3.8c3.1,2.4,6.1,4.7,9.2,7.1c9.3,5.7,18.6,11.4,27.9,17
		c10,6.5,20.1,13.1,30.1,19.6c7.2,4.6,14.5,9,21.8,13.5c0.4,0.3,0.7,0.7,1.1,1c18,10.9,35.9,22,54.2,32.3c4.5,2.5,10.6,3.7,15.8,3.3
		c17.8-1.2,33.6-9.6,50.2-15.4c4.6-1.6,6.3-5.7,5.9-10.5c-0.3-3.1-1.3-5-5-4.5c-5.5,0.9-11,1.6-16.5,2.3c-1.7,0.2-3.5,0-5.3,0
		c-0.1-0.6-0.1-1.2-0.2-1.9c5.1-1.4,10.2-2.9,15.3-4.3c0-0.5,0.1-1,0.1-1.5c-2.6-0.2-5.2-0.8-7.7-0.5c-10.1,1.2-20.2,2.8-30.3,3.9
		c-1.7,0.2-3.7-1.5-5.4-2.7c-1.3-0.9-2.2-2.5-3.5-3.5c-13.2-9.2-26.5-18.3-39.7-27.5c-2-1.4-4-3-5.9-4.6
		c-9.5-7.7-18.9-15.6-28.6-23.1c-16.6-12.9-33.5-25.5-50.2-38.2c-2.4-2.8-4.8-5.6-7.2-8.4c0.5-0.9,0.9-1.8,1.4-2.7
		c20.1,17.7,41.6,33.6,62.8,49.9c25,19,50.9,36.8,76,55.7c1,0.8,3,0.7,4.5,0.5c9.3-1.2,18.6-3.2,28-3.5c8.1-0.2,15.1,4.1,20.3,10.1
		c3.5,4,1,13.3-4.1,16.3c-4.1,2.5-8.6,4.2-13.1,6.1c-12.5,5.2-25.1,9.8-38.8,11.3c-8.7,0.9-16.7-1.5-23.8-5.3
		c-14.8-7.8-29-16.8-43.4-25.5c-9.9-6-19.6-12.4-29.5-18.7c-7.4-4.7-14.8-9.3-22.2-14C219.9,396.8,204.2,386.7,188.5,376.6z"/>
	<path class="st5" d="M219,166.8c-4.4,20.8-15.1,38.4-30.4,52.6c-8.4,7.7-19.3,12.6-29.1,18.8c-2.9,1.8-5.6,3.8-8.4,5.8
		c-6.4,1.4-12.7,3.1-19.1,3.9c-4,0.5-8.2-0.7-12.3-0.8c-8.3-0.2-14.3-4.3-17.5-12.1c-0.5-1.3-2.4-2-3.6-2.9
		c-5.7-5.7-11.8-11.2-17.2-17.2c-8.1-9-15.9-18.3-19.3-30.4c1.1-0.5,2.1-0.9,3.2-1.4c8,16.6,19.5,30.2,33.5,42.1
		c16.2,13.9,33.9,19.2,54.2,11.6c6.8-2.6,13.3-6.7,19.3-10.9c7-4.9,13.9-10.2,19.8-16.3c10.5-11,18.2-23.9,21.6-39
		c0.4-1.6,1.1-3.1,1.7-4.6C216.7,166.3,217.8,166.5,219,166.8z"/>
	<path class="st1" d="M53.7,136c0.6-3,1.4-6,1.8-9.1c0.6-3.8,1-7.6,4.8-9.9c0.5-0.3,1-0.9,1.1-1.5c1.3-4.6,2.8-7.9,8-3.1
		c0.8,0.7,4.7-0.3,5.7-1.7c2.4-3.1,3.9-6.9,5.8-10.4c0.8-1.5,1.7-3,3.3-5.6c1,2.8,1.5,4.4,2.3,6.7c5.3-4.6,10.2-9,15.3-13.1
		c1.3-1.1,3.6-1,5.4-1.5c-0.8,2-1.1,4.3-2.4,5.9c-3.6,4.6-7.5,8.9-11.3,13.3c-0.3,0.7-0.7,1.4-1,2l0.1-0.1c-0.7,0.3-1.6,0.3-1.9,0.8
		c-5.8,9-11.5,18.1-17.2,27.1c-0.8,0-1.7,0.1-2.5,0c-7.7-0.9-12.4,2.7-13.5,10.6c-0.5,3.7-0.7,7.5-1.1,11.2c-0.7,0.1-1.3,0.3-2,0.4
		C52.6,150.8,51.8,143.4,53.7,136z"/>
	<path class="st5" d="M238.2,498.9c-4.6-1.7-9.1-3.3-13.7-5c1.8-4.3,5.3-1.1,7.9-1.9c0.7,0.3,1.4,0.6,2.1,0.9
		c0.4,0.2,0.7,0.5,1.1,0.7c0.1-0.1,0.2-0.3,0.3-0.4c-0.4-0.1-0.9-0.3-1.3-0.4c-0.6-0.4-1.3-0.7-1.9-1.1c-2.7-1.6-5.5-3.1-8.2-4.8
		c-1-0.6-1.6-1.6-2.5-2.5c1.1-0.2,2.5-1,3.4-0.6c5.5,2.4,10.8,5,16.1,7.4c1.1-7.3-7.7-7-11.2-11.1c0.2-0.4,0.5-0.7,0.7-1.1
		c3.2,0.6,6.4,1.2,9.5,1.8c-3.7-2.9-7.6-5.8-11.8-6.5c-9.8-1.7-19.7-2.2-29.5-3.5c-5.4-0.7-10.7-1.8-16-3.2c-5-1.3-9.8-3.1-14.7-4.7
		c-1.6-0.7-3.2-1.3-4.7-2.1c-2.5-1.3-4.9-2.7-7.4-4.1c0-0.9,0.1-1.8,0.1-2.8c7.9,2.9,15.8,5.5,23.5,8.7c10.3,4.4,21.4,3.6,32.1,5.3
		c9.4,1.4,19.3,1.4,27.6,6.9c3.7,2.4,8.3,4.5,4.8,10.3c-0.1,0.2,0.6,1,1,1.6c0,0.9,0.1,1.8,0.1,2.7c1.3,4.5,1.1,8.1-4.6,9
		C240.1,498.6,239.2,498.8,238.2,498.9z"/>
	<path class="st6" d="M98.7,232c1.2,1,3.1,1.7,3.6,2.9c3.2,7.8,9.2,11.9,17.5,12.1c4.1,0.1,8.3,1.3,12.3,0.8
		c6.4-0.8,12.8-2.6,19.1-3.9c-1.4,3.8-2.7,7.5-4,11.3c-1.7-0.5-3.6-0.8-5.2-1.6c-16.2-7.3-32.7-5.2-49.2-1.4c-1.1,0.3-2,1.1-3,1.7
		c-0.2-1.6-1-3.6-0.4-4.8C92.2,243.3,95.5,237.7,98.7,232z"/>
	<path class="st0" d="M237.1,107.1c-0.8-5-1.6-10.1-2.3-15.1c-0.1-0.4,0.4-1.1,0.8-1.2c6.8-2.7,3.5-4.3-0.2-7.3
		c-2-1.6-1.9-5.8-2.7-8.9c2.9,2.8,5.9,5.5,8.6,8.6c1.9,2.2,4.4,5.1,4.3,7.5c-0.1,1.8-4.2,3.2-7.4,5.4
		C237.9,98.9,237.5,103,237.1,107.1z"/>
	<path class="st7" d="M246.6,126.8c-0.1-0.5-0.1-1.1-0.2-1.6c3.7,0,5.2,2.6,5.3,5.6c0.1,2.5-5,5.2-7.9,4.4c-2.2-0.6-4.2-1.5-7.1-2.6
		c2,5.7,0.8,8.7-5.2,8.3c-0.6,0-1.4,1.3-2,2c0.7-1.6,1.4-3.3,2.1-4.9c6.5-1.3,1.9-6.1,2.8-9.1c2.7,0.7,5.4,1.4,8.1,2.1
		c1.5,0.3,3.5,1.3,4.4,0.8C249.2,130.4,248.9,128.4,246.6,126.8z"/>
	<path class="st8" d="M54.4,158.1c0.7-0.1,1.3-0.3,2-0.4c2,5.4,4.1,10.9,6.1,16.3c0.3,0.4,0.7,0.7,1,1l0,0c0.6,2.7,1.3,5.4,1.9,8
		c-1.1,0.5-2.1,0.9-3.2,1.4C57.3,176.3,55.3,167.4,54.4,158.1z"/>
	<path class="st6" d="M219,166.8c-1.2-0.3-2.3-0.6-3.5-0.8c1.4-7.2,2.8-14.4,4.4-21.5c0.2-1,1.7-1.7,2.6-2.5
		c0.6,2.2,1.1,4.4,1.7,6.6c-0.9,2.3-2,4.5-2.6,6.9C220.6,159.2,219.9,163,219,166.8z"/>
	<path class="st0" d="M166.5,21c-5.7-1.3-11.4-2.8-17.1-4c-2.9-0.6-5.9-0.5-8.8-1.2c-0.9-0.2-1.5-1.7-2.2-2.6c2,0,4.1,0,6.1,0
		c1.7,0.2,3.4,0.4,5,0.6c1.3,0.1,2.6,0.2,4,0.4c3,0.5,6,0.9,9,1.4c2,0.8,3.9,1.6,5.9,2.4l0.1,0.1c0,0.6,0.1,1.2,0.1,1.8
		c0,0.3,0,0.7,0,1C167.8,20.9,167.2,21,166.5,21z"/>
	<path class="st0" d="M231.9,73.1c-4.7-6.8-10.2-13.2-10.4-22.1C228.5,56.7,231.1,64.5,231.9,73.1z"/>
	<path class="st9" d="M235.6,406.8c7.4,4.7,14.8,9.3,22.2,14C250.2,421.1,237.4,413,235.6,406.8z"/>
	<path class="st7" d="M168.5,19.9c0-0.6-0.1-1.2-0.1-1.8c3.4,1.2,6.7,2.4,10.1,3.7c0.2,0.3,0.2,0.5,0,0.8
		C175.2,21.7,171.9,20.8,168.5,19.9z"/>
	<path class="st0" d="M132.6,11.7c-0.7,1-1.4,2.1-2.8,4.2c-1-2.8-1.6-4.6-2.1-6.3C129.3,10.3,130.9,11,132.6,11.7z"/>
	<path class="st7" d="M168.4,18.1c-2-0.8-3.9-1.6-5.9-2.4C164.4,16.4,166.4,17.3,168.4,18.1z"/>
	<path class="st7" d="M144.4,13.2c-2,0-4.1,0-6.1,0c-0.1-0.1-0.1-0.3,0-0.5C140.4,12.9,142.4,13.1,144.4,13.2z"/>
	<path class="st7" d="M153.4,14.2c-1.3-0.1-2.6-0.2-4-0.4C150.8,14,152.1,14.1,153.4,14.2z"/>
	<path class="st0" d="M127.3,9.1c-0.9-0.8-1.8-1.6-2.6-2.4C125.6,7.4,126.4,8.2,127.3,9.1z"/>
	<path class="st0" d="M237.2,110c-0.1-0.3-0.2-0.7-0.3-1C237.1,109.3,237.1,109.7,237.2,110z"/>
	<path class="st0" d="M221.5,51c-0.3-0.4-0.6-0.7-0.9-1.1C220.8,50.3,221.2,50.6,221.5,51z"/>
	<path class="st7" d="M181.4,23c-0.3-0.1-0.6-0.2-0.9-0.3C180.8,22.8,181.1,22.9,181.4,23z"/>
	<path class="st0" d="M117.3,8.7c0,0.6,0,1.1,0,1.7C117.3,9.8,117.3,9.2,117.3,8.7z"/>
	<path class="st10" d="M222.5,142c-0.9,0.8-2.4,1.5-2.6,2.5c-1.6,7.1-3,14.3-4.4,21.5c-0.6,1.5-1.3,3-1.7,4.6
		c-3.4,15.1-11.1,28-21.6,39c-5.9,6.1-12.8,11.4-19.8,16.3c-6,4.2-12.4,8.3-19.3,10.9c-20.3,7.6-38.1,2.2-54.2-11.6
		c-13.9-11.9-25.5-25.5-33.5-42.1c-0.6-2.7-1.3-5.4-1.9-8c1.3,1.1,2.4,2.7,3.8,3.1c2.7,0.6,5.6,0.7,8.3,0.6c0.6,0,1.1-2,1.6-3.1
		c-1.1-0.3-2.6-1.1-3.2-0.7c-3.4,2-5.5,0.3-7-2.3c-4.8-8-8.4-16.3-5.4-25.9c1-3.2,1.8-6.6,5.9-7.2c3.7-0.5,6.2,1.4,8.1,4.5
		c0.5,0.8,1.9,1,2.8,1.4c0.1-1.2,0.6-2.7,0.1-3.5c-1.4-2.2-3.3-4.1-5-6.1c5.7-9.1,11.4-18.1,17.2-27.1c0.3-0.5,1.3-0.5,1.9-0.8
		c0.7,1.7,1.5,3.3,2.2,4.9c1.6-1,3.1-2,4.6-3c0.3-0.2,0.4-0.5,0.5-0.8c4.1-8.1,9.7-14.3,18.7-17.3c4.2-1.4,7.8-4.8,12.7-7.8
		c-1,3.4-2.1,5.9-2.3,8.4c-0.1,1.8,1,3.8,1.6,5.6c1.4-0.9,2.9-1.7,4-2.8c3.5-3.7,7.1-7.5,10.3-11.5c2.4-2.9,4.4-6.1,6.4-9
		c10.8,6.5,21.9,13.1,32.9,19.7c3.3,2,6.3,3.2,6.8-3.5c4.4,4.3,8.1,7.9,11.7,11.4c0.6,5.2,1.1,10.4,1.8,15.5
		c0.3,2.2,1.4,4.2,2.1,6.3c2.1-1.5,4.4-2.9,6.3-4.6c0.9-0.8,1.1-2.4,2.1-4.6C220.4,123.7,221.5,132.8,222.5,142z M110.4,188.8
		c1.8,0,3.4,0.1,5.1,0c1.1-0.1,2.2-0.6,3.3-1c4.6-1.8,6.2-5.2,4.8-9.9c-2.5-8.6-11.9-13.7-20.5-11.2c-1.7,0.5-3.6,0.6-5.2,1.4
		c-1.9,0.9-5,2.3-5.1,3.6c-0.2,3.8-0.6,9.1,1.6,11.1C98.7,186.4,103.9,190.3,110.4,188.8z M184.4,177c-1.2,0-2.4-0.2-3.5,0
		c-4.7,0.8-8.6,3-10.1,7.8c-1.4,4.5,1.1,7.7,4.4,10.3c4,3.2,17.4,3.3,21.4,0.1c3.1-2.4,4.7-5.3,3.1-9.5
		C197.5,180.2,192.3,177,184.4,177z M173.5,168.3c2-0.3,4.1-0.1,5.9-0.8c8.1-3.1,10-2.6,15.8,4c0.5,0.6,0.9,1.5,1.6,1.9
		c1,0.6,2.2,0.7,3.4,1.1c0-1.2,0.5-2.6,0-3.6C195.1,160.3,181.7,158.5,173.5,168.3z M103.5,158.9c0.4,0.2,0.9,0.4,1.3,0.6
		c0.4-0.2,0.9-0.3,1.3-0.5c7-3.4,13.9-7.3,20.1,1.5c0.4,0.6,2.3,0.2,3.5,0.3c-0.2-1.1-0.1-2.5-0.7-3.3c-6.6-8.5-15.7-9.4-23.8-2.3
		C104.2,156,104,157.6,103.5,158.9z M130.4,197.8c5.2,10.5,19.9,13.1,28.1,5.9c0.5-0.4,0.9-1.7,0.7-2.1c-0.5-0.7-1.6-1.5-2.3-1.4
		c-1.4,0.2-2.8,0.9-4.2,1.6c-5.9,2.8-11.4,2.8-16.7-1.5C134.4,199.1,132.3,198.6,130.4,197.8z M69.3,162.6c3,0.8,6,0,5.9-3.2
		c0-3.3-1.6-6.6-2.9-9.8c-0.3-0.7-2.9-1.3-3.8-0.8c-0.9,0.5-1.7,2.5-1.5,3.7C67.4,155.8,68.4,158.9,69.3,162.6z M183.7,139.8
		c8.1-0.4,10,7.2,15,11.2c0.9-4.7-2.1-10.4-6.3-12.7C189.6,136.7,186.7,135.8,183.7,139.8z M108.6,135.2c0,0.5,0,1.1,0,1.6
		c5.8-0.6,11.6-1.1,17.5-1.7C123.5,129.5,116.1,129.6,108.6,135.2z"/>
	<path class="st3" d="M203.6,60.1c-3.4-5-6.7-9.9-10-14.8c6.9-7,16-2.4,23.3,12.5c-3.4-1.3-5.6-2.2-7.8-3c-1.4-0.5-2.9-0.8-4.4-1.2
		c0.1,1.5,0.2,3,0.3,4.4c0,0.5,0.1,0.9,0.1,1.4C204.6,59.6,204.1,59.9,203.6,60.1z"/>
	<path class="st3" d="M168.5,19.9c3.4,0.9,6.7,1.8,10.1,2.7c0.9,7.7,2.4,9.5,9.4,11.4c3.7,1,5.5,6.9,2.9,9.7c-0.6,0.6-1.8,1-2.6,0.8
		c-0.6-0.2-1-1.4-1.5-2.2c-0.7-1.2-1.1-2.7-2-3.7c-2.9-3.3-5.9-6.4-8.8-9.6c-0.9-0.9-1.9-1.8-2.7-2.7c-1.6-1.8-3.2-3.6-4.8-5.4
		C168.5,20.6,168.5,20.3,168.5,19.9z"/>
	<path class="st3" d="M234.4,129c-0.9,3,3.7,7.8-2.8,9.1C232.5,135,233.4,132,234.4,129z"/>
	<path class="st3" d="M246.6,126.8c2.3,1.6,2.6,3.6,0.3,5c-1,0.6-2.9-0.4-4.4-0.8C243.8,129.7,245.2,128.3,246.6,126.8z"/>
	<path class="st3" d="M70.8,57.6c-0.3-0.1-0.7-0.2-0.8-0.4s0.2-0.5,0.3-0.8c0.3,0.1,0.7,0.2,0.8,0.4C71.2,57,70.9,57.3,70.8,57.6z"
		/>
	<path class="st11" d="M163.4,372.1c-2.8-0.8-5.5-1.7-8.3-2.5c-0.6,0.4-1.1,0.8-1.7,1.3c10.9,4.7,6.5,12.1,5,19.1
		c-2.6-1.4-5.3-2.8-7.9-4.1c-2.3-2-4.6-4-6.9-6.1c-8.7-6.4-17.4-12.8-26.2-19c-1.1-0.8-3.1-0.4-4.7-0.6c-0.5-0.5-1-0.9-1.4-1.4
		c-2.5-1.8-4.9-3.8-7.6-5.2c-1.3-0.7-3.1-0.2-4.7-0.3c0.6,1.7,0.6,3.9,1.8,5.1c3.3,3.4,7.1,6.5,10.6,9.6c2.7,2.1,5.3,4.4,8.2,6.2
		c6.9,4.4,13.9,8.6,20.8,12.9c1,1,2,1.9,3.1,2.9c4.6,3.7,9.3,7.4,13.9,11c-1.1,12.4-2.4,24.7-3.4,37.1c-1.2,15.2-5,30.2-2.6,45.6
		c0.3,2,1,3.9,1.1,5.9c0.1,3.5,0.2,6.6-4.8,7.8c-8.6,2.1-16.9,5.6-25.5,8.2c-1.8,0.6-4.3,0.8-5.9,0c-9.1-5-16.8-2.1-23.5,4.3
		c-4.3,4.1-8.9,6.8-14.7,7.6c-13.2,1.8-24.3,8.4-35.5,14.9c-0.7-0.7-1.6-1.3-2.1-2.1c-5.4-8.4-10.6-16.8-16.1-25.1
		c-1-1.6-2.7-3.6-4.2-3.8c-5-0.6-7.9-3.4-10.1-7.5c-0.2-0.4-1.1-0.5-1.7-0.8c0.4-6.7,0.7-13.5,1.1-20.2c3.5,2.6,7.3,2.5,11.4,2.1
		c4-0.4,8.4-0.5,12.2,0.6c4.9,1.5,5.9-1.3,7.2-4.5c0.4-7.7,0.2-15.4,1.5-22.9c0.8-4.7-0.2-6.8-4.3-8.1c-8.8-1.3-17.6-3.9-26.4,0.1
		c3.2-16.4,6.4-32.7,9.6-49.1c0.3,2.4,0.7,4.8,1,7.3c-1.8,7.6-3.6,15.3-5.6,23.8c5.1-0.6,7.3-2.1,7.3-6c2.4-4,4.7-8,7.1-12
		c2.1-5.6,4.3-11.3,6.4-16.9c2.7-7,5.3-14,8-21c1.5-5.1,3.2-10.1,4.5-15.2c0.3-1-0.8-3.4-1.6-3.5c-1.5-0.3-4.1,0.1-4.7,1.1
		c-2.6,4.6-4.7,9.5-7,14.4c-2.8,6.7-5.6,13.4-8.4,20.1c-1.1-2.4-2.1-4.8-3.2-7.2c2-21.6,8.3-41.8,20.8-59.8
		c10-3.1,19.9-6.2,29.8-9.6c0.8-0.3,1.6-3,1.2-4.2c-2.4-7.4-5.1-14.8-7.7-22.1c7-9.8,15.5-18,25.9-24.2c-0.7,3.9,1.3,8.6-4.1,11
		c-0.9,0.4-0.6,6.3,0,6.5c4.8,1.3,3.4,4.9,3.2,7.7c-0.4,4.7,1.1,7,6,6.1c3.3,0,6.7,0,10,0c3,0.6,6,1.3,9.1,1.7
		c2.9,0.4,6.5,1.9,6.9-3.3c0.1-0.6,2-1,3.1-1.5c3.8,1,7.6,2,11.4,2.8c0.9,0.2,2.6-0.5,2.9-1.2c0.4-1,0.4-2.7-0.2-3.6
		c-1.6-2.6-13.1-4.6-15.9-3c-1.9-3.2-1.3-4.9,2.8-4.9c3.5,0.1,6.9,0.1,10.4-0.1c0.9-0.1,2.6-1.4,2.5-2.1c0-1.4-0.7-3.4-1.7-4
		c-1.5-0.8-3.5-0.6-5.3-0.7c-3.1-0.1-6.2,0-9.4,0c0-0.4,0.1-0.7,0.1-1.1c2.2-1.4,4.3-2.7,6.5-4.1c2.4-0.1,4.8-0.1,7.1-0.6
		c0.7-0.1,1.1-1.7,1.6-2.6c0-0.3,0-0.7-0.1-1c6.8,3.2,13.8,6,20.4,9.6c5.6,3.1,10.8,7,16.1,10.5c-1.2,0.1-2.5,0.4-3.7,0.2
		c-13.9-1.3-15.6,0.2-15.6,13.9c0,0.5,0,1,0,1.5c-0.3,5.4-1,10.9-0.6,16.3c0.2,2.1,3.1,3.9,4.8,5.8c0.6-0.6,1.2-1.2,1.8-1.8
		c6.4,0.8,12.9,1.6,20.1,2.5c1.1-1.5,2.4-3.5,3.8-5.4c0.4-7.9,0.8-15.7,1.2-23.6c8.6,7.8,17.3,15.5,25.9,23.4c0.7,0.7,0.8,2,1.2,3.1
		c-0.4,0.7-0.7,1.4-1.1,2.1c-2.6,1.3-5.4,2.4-7.7,4.1c-0.9,0.7-0.9,2.7-1.3,4.2c1,1.3,2,2.5,3,3.8c-0.6,2.2-0.9,4.5-1.9,6.5
		c-6.3,11.3-12.7,22.4-19.1,33.6c-1.1-1-2.6-1.9-3.4-3.1c-4.9-7.3-9.6-14.7-14.4-22.1c-3.3-1.1-6.5-2.3-9.8-3.4
		c-1-2.2-2.1-4.5-3.3-7c-5.9,6.5-5.9,6.7-2.2,10.6c-0.3,3-0.7,5.9-1,8.9c0.8,1.9,1.5,3.9,2.4,5.8C159,362.5,161.2,367.3,163.4,372.1
		z M88.4,318.8c-1.8,0.6-3.5,1.3-5.3,1.9c-3.2,0.1-3.9,2.2-3.5,4.7c0.4,2.5-0.3,6,4,5.9c3.3-0.2,6.5-0.5,9.8-0.7
		c8.4-1.6,16.8-3.2,25.1-4.8c4-2,8.1-4,12.1-6c-0.1-0.8-0.3-1.7-0.4-2.5c-5.2-0.8-10.5-1.6-15.7-2.4c-6.3,1-12.7,2.1-19,3.1
		c-1,0.2-2,0.4-3,0.6c-0.6,0-1.1,0-1.7-0.1C90,318.7,89.2,318.7,88.4,318.8z M57.3,482.8c0.1,0.9-0.1,2.2,0.4,2.7
		c8.2,8,16.5,15.9,25,23.7c0.7,0.6,2.5-0.1,3.8-0.3c4-4.3,8.1-8.7,12.1-13c1.2-0.8,2.6-1.4,3.6-2.4c6.3-6,6.3-6.8,0.2-12.3
		c-1.9-1.8-3.7-3.8-5.7-5.5c-5.3-4.7-10.6-9.3-15.9-13.9c-2.1-1.5-2.1-1.5-4,3.8c-1.7,0.6-3.7,0.6-4.6,1.7
		c-4.1,5.3-7.3,11.2-14,13.9C57.8,481.3,57.6,482.2,57.3,482.8z M63.7,414.9c8.6,5,17.2,10.1,25.8,15.1c2.8,1.7,4.6,1.4,6.2-1.8
		c3-6.2,6.7-12,9.8-18.2c2.1-4.2,3.5-8.7,5.2-13c-1.1-4.9-2-9.9-3.3-14.7c-0.2-0.9-1.8-1.4-2.8-2.1c-5.8-3.4-11.8-6.4-17.4-10.1
		c-4.3-2.8-6.5-1.4-8.5,2.5c-6.7,12.6-13.3,25.2-20.1,37.8c-2,3.7-0.2,4,2.8,3.7C62.1,414.2,62.9,414.5,63.7,414.9z M131.5,486.9
		c-0.7,8.1-0.4,8.5,6.9,7.9c0.6-1.5,1.9-2.9,1.9-4.4c0.2-12.8,0.4-25.7,0.1-38.5c-0.1-4.3-1.8-8.5-2.7-12.7
		c-0.7-0.1-1.4-0.2-2.1-0.3c-1.4,3.9-3.7,7.8-4,11.8c-0.8,10.6-0.8,21.3-1,31.9C130.6,484.1,131.2,485.5,131.5,486.9z M132,400.4
		c-2.1,1.3-6.1,2.4-7.1,4.8c-1.7,3.8-1.5,8.5-1.9,12.8c0,0.5,1.6,1.4,2.6,1.8c1.8,0.7,3.8,1.3,5.7,1.8c9.1,2.4,16.4-4,15.1-13.5
		c-0.2-1.6-1.8-3.8-3.2-4.5C140,402.2,136.5,401.7,132,400.4z"/>
	<path class="st11" d="M206.5,495.1c13.5,0.1,25.9,4.2,36.4,12.2c3.9,3,5.5,9.1,8.1,13.8c-1.8-0.6-3.9-0.9-5.5-2
		c-4.4-3-7-1.8-9.3,2.7c-6.5,12.5-13.1,25-19.8,37.3c-2,3.7-0.2,4,2.8,3.7c0.8,0.4,1.6,0.7,2.4,1.1c6.8,4.1,13.7,8.1,20.5,12.2
		c-0.3,1-0.2,2.3-0.8,3c-12.3,13.5-26.5,24.4-42.8,32.8c0.3-5.3,0.6-10.6,0.9-15.9c2.4-4.3-0.3-6.4-3.8-6.9
		c-6.8-1-13.8-1.7-20.7-1.8c-3.9-0.1-6.3,2.8-6.5,6.8c-0.2,3.6-0.1,7.3-0.1,11c0.3,0.5,0.6,1,0.9,1.5c0,0.3,0.1,0.7,0.1,1
		c0,0.3,0,0.7,0,1c-0.6,3.5-1.5,7.1-1.9,10.7c-0.5,4.5,2.2,5.7,6.2,5.5c0.9,0,1.9,0.8,2.8,1.2c-4.7,3-9.4,6.1-14.1,9.1
		c0.3-6.8,0.8-13.5,0.8-20.3c0-1.2-1.7-2.4-2.6-3.6c-1,0.8-2.7,1.6-2.8,2.6c-0.6,4.8-1.5,9.9-0.8,14.6c0.5,3.4-3.9,7,0.6,9.9
		c-3.8,2.8-7.9,5.4-11.3,8.7c-2.8,2.7-4.7,6.3-7.2,9.8c-9.5-7-18.7-13.8-27.8-20.5c2.4-0.4,4.9-0.9,7.3-1c7.4-0.4,13.3-3.9,19.7-10
		c-5.9-1.3-10.7-3.2-15.4-3.1c-6.7,0.2-13.4,1.8-20.2,2.8c-3.1,0.5-6.3,0.9-9.4,1.3c-1.8-0.1-3.5-0.2-5.8-0.4
		c8.4-12.7,19.5-21.8,30.7-31c1.8,0.1,3.7,0,5.4,0.5c7.1,2.1,7,2.2,9.9-4.3c3.9,0.9,7.9,1.9,12,2.5c1.4,0.2,3-0.8,4.6-1.3
		c-0.9-1.5-1.5-3.9-2.8-4.4c-4.8-1.6-9.9-2.6-14.8-3.8c1-0.9,2-1.9,3-2.8c3.6,0,7.3,0.2,10.9-0.1c1.1-0.1,2.8-1.5,2.9-2.3
		c0-1.3-1-2.7-1.9-3.8c-0.4-0.5-1.5-0.6-2.3-0.9c5.1-3.5,10.3-6.8,15.1-10.5c2.3-1.7,3.9-4.3,5.8-6.4c-0.4-0.5-0.8-0.9-1.2-1.3
		c-4.8,3.2-9.6,6.3-14.4,9.5c-0.2-2.6-1.5-3.3-4.1-2.7c-4.3,1-8.8,1.6-13.2,2.4c-1.2-2.5,0.2-6.5-4.8-6c-7.7,0.7-15.5,1-23.3,1.1
		c-3.6,0-4.1,2.1-4.3,4.7c-0.2,2.8-0.3,5.6-0.4,8.3c-1,0.3-2.1,0.5-3.1,0.8c-0.3,1.1-0.6,2.2-0.8,3.2c0.3,1.2,0.4,3.5,0.8,3.5
		c4.2,0.7,3.3,3.8,3.3,6.5c0,7,0.1,7.1,7,7.7c1.3,0.1,2.6,0.1,4,0.2c-5.3,4.9-10.2,10.4-16.1,14.5c-3,2-7.8,1.5-11.7,2.1
		c-4.4-13.4-8.8-26.7-13.4-40c-0.3-0.8-2.4-1.9-3.2-1.6c-5.3,1.8-10.5,3.9-15.8,5.8c-0.7,0.4-1.3,0.9-2,1.3l0,0
		c-4.7,1.7-9.5,3.3-14.2,5c-1.3,0.3-2.6,0.7-3.9,1c-1-0.9-2.6-1.6-3-2.7c-3.1-7.9-5.9-15.9-8.8-24c-0.6-1.6-0.9-3.3-1.3-5.3
		c2.9-1.6,6-3.3,9.1-5c1.3,2.3,2.7,4.6,4,6.9c0.7,1.6,1.5,3.2,2.5,5.3c5.3-3.3,10.3-6.2,15-9.4c2.7-1.9,1.6-3.9-1-5.3
		c-1.2-2.5-2.4-5.1-3.6-7.7c11.5-7.2,23.3-13.1,36.9-15.4c4.8-0.8,9.3-4.7,13.6-7.6c4.9-3.4,9.2-8,16-5.3c0.5,0.2,1.1,0.5,2.6,1.2
		c-5,2.2-9.2,3.9-13.3,5.7c0.1,0.6,0.1,1.2,0.2,1.7c2-0.1,4.1,0.3,5.8-0.3c7.2-2.5,14.2-5.5,21.4-8.1c24.8-9,50.1-15.2,76.8-13.6
		c-1,0.8-2.4,1.4-3,2.5c-2.7,5-5.1,10.1-7.7,15.2c-2.8,6.7-5.6,13.5-8.3,20.2c-0.5-1-0.7-2.2-1.4-3c-0.6-0.6-1.7-1-2.5-0.9
		c-0.8,0.1-2,1.1-2,1.6c0.2,5.1,0.7,10.2,1,15.4c-3.5,6.7-5.4,13.7-5.1,21.3c0.1,1.5,0.7,2.9,1,4.3c1.3-1.6,2.6-3.2,3.9-4.8
		c2.6-4.3,5.2-8.5,7.8-12.8c2-6.4,4-12.8,6.1-19.1c0.7-1.3,1.3-2.6,2-3.9c2.1-4.9,4.2-9.9,6.4-14.8c1.5-3.1,3.6-6.1,4.2-9.4
		C207.6,502.4,206.7,498.6,206.5,495.1z M152.5,504c-3.7,0.4-7.5,0.3-11.1,1.2c-2.5,0.6-4.7,2.4-7.1,3.6c-5.4,2.9-8.3,7.3-7.9,13.7
		c0.3,4.8,3.1,7.8,7.4,8.8c3.6,0.8,7.6,0.7,11.3,0.2c2.6-0.3,4.5-0.7,5.4,2.4c0.3,0.8,1.4,1.6,2.3,1.9c0.4,0.1,1.4-1.1,1.7-1.9
		c1.8-4.2,3.4-8.5,5-12.8c0.4-0.4,0.7-0.8,1.1-1.1c1-0.7,2.6-1.3,3-2.3C167.2,509.5,162.6,504,152.5,504z M89.7,542.9
		c-1.1-7.4-4.2-10.3-12.3-12.2c-5.6-1.3-6.1,3.1-7.6,6.5c-0.3,0.6-0.3,1.3-0.6,1.9c-3.2,7.8-1.2,12.1,6.7,15.1
		c2.9,1.1,6.3,3,8.6-0.3C87,550.2,88.4,545.9,89.7,542.9z"/>
	<path class="st12" d="M168.5,463c4.9,1.6,9.7,3.4,14.7,4.7c5.3,1.4,10.6,2.5,16,3.2c9.8,1.3,19.8,1.8,29.5,3.5
		c4.2,0.7,8,3.6,11.8,6.5c-3.2-0.6-6.4-1.2-9.5-1.8c-0.2,0.4-0.5,0.7-0.7,1.1c3.5,4.1,12.3,3.8,11.2,11.1
		c-5.3-2.5-10.6-5.1-16.1-7.4c-0.9-0.4-2.2,0.4-3.4,0.6c0.8,0.8,1.5,1.9,2.5,2.5c2.7,1.7,5.4,3.2,8.2,4.8l-0.2,0.2
		c-2.6,0.8-6.1-2.4-7.9,1.9c-17.1-5.6-34.6-4.5-52.1-2.4c-0.4-3.6-0.7-7.1-1.2-10.7C170.5,474.9,169.5,468.9,168.5,463z"/>
	<path class="st13" d="M252.3,525.3c8.8,17,5.7,34.8-8.5,48c-5.4-2.5-10.9-5-16.2-7.5c1.5-4.4,2.6-7.6,3.8-10.9
		c2.4-4.7,4.8-9.3,7.3-14c2.8-0.4,5.6-0.8,8.3-1.4c1-0.2,2.2-0.8,2.8-1.6c0.4-0.5,0.1-2.2-0.3-2.5c-0.9-0.5-2.2-0.4-3.3-0.6
		c-0.9-0.2-1.7-0.7-2.6-1c1.2-2.1,2.8-4.1,3.5-6.3C248,524.3,249.9,524.5,252.3,525.3z"/>
	<path class="st6" d="M217.3,326.5c2.4,2.8,4.8,5.6,7.2,8.4c-4.8,11.2-9.5,22.4-14.4,33.6c-2.1,4.7-4.5,9.2-9.6,11.4
		c-3.1-2.4-6.1-4.7-9.2-7.1c3.3-6.6,6.4-13.4,10.1-19.8C206.5,344,212,335.3,217.3,326.5z"/>
	<path class="st13" d="M181.6,280.9c1.7,1.3,3.4,2.6,5.1,3.9c-0.1,7.1-0.1,14.3-0.4,21.4c-0.1,1.3-1.2,2.6-1.9,3.9
		c-1.6,0.1-3.1,0.2-4.7,0.2c-5.1,0.1-10.1,0.3-15.2,0.4c-1.3-1-2.5-1.9-3.9-2.9c0-6.9-0.1-14,0-21.1c0.1-4.2,1.9-6.3,6.5-5.9
		C172,281.2,176.9,280.9,181.6,280.9z M173.5,299c0-0.1,0-0.1,0-0.2c-1.8,0-3.8-0.4-5.5,0.1c-1.5,0.5-2.7,2-4,3.1
		c1.2,1.2,2.2,3.4,3.5,3.6c3.9,0.5,8,0.5,12,0.2c1.1-0.1,2.8-2.2,2.8-3.4c0-1.1-1.6-2.9-2.9-3.3C177.6,298.6,175.5,299,173.5,299z"
		/>
	<path class="st13" d="M169.5,608.4c0-0.3,0-0.7,0-1c0.4-1.7,0.9-3.4,1.1-5.2c0.4-3.1,0.3-6.3,1-9.3c0.3-1.2,2.1-2.9,3.2-2.9
		c6-0.2,11.9-0.1,17.9,0.3c2.5,0.2,5.1,1.1,4,4.7c0,6,0,12.1-0.1,18.1c-1.3,0.7-2.7,1.3-4,2c0.1-7,0.1-7-6.8-7.1c-2.5,0-5,0-7.4-0.2
		c-2.6-0.2-4.7,0.7-4.2,3.3c0.3,1.4,2.6,3.3,4.1,3.5c4.8,0.5,9.6,0.3,14.4,0.4c-2.6,1.7-5.3,3.3-7.9,5c-1.8-0.5-3.7-1.4-5.5-1.4
		c-2.6,0-5.2,0.8-7.8,1.2c-0.4,0.1-0.8,0.3-1.2,0.4C170,616.2,169.8,612.3,169.5,608.4z"/>
	<path class="st14" d="M238.2,498.9c1-0.2,1.9-0.4,2.9-0.5c5.7-0.9,5.9-4.5,4.6-9c1.6,0.6,3.4,0.8,4.6,1.8
		c10.8,9.1,15.2,21.4,17.1,34.8c1,7,2.5,14.2-1.3,20.9c-1.6-0.4-3.2-0.7-4.8-1.1c-0.2-1.3-0.4-2.6-0.5-4c1.5,0.3,3.1,0.7,4.7,1
		c0.1,0.1,0.3,0.2,0.4,0.2c-0.1-0.1-0.2-0.2-0.4-0.2c-0.5-2.2-1-4.4-1.6-7.1c-1.3,0.9-2.3,1.5-3.2,2.1c-2.1-6.6-4.1-13.2-6.3-19.8
		C251.5,509.6,246.6,502.8,238.2,498.9z"/>
	<path class="st15" d="M185.8,372c-1.8,4-3.5,8-5.6,12.7c-3-1.7-5.4-3.1-7.9-4.5c-3.5-6.5-7-13-10.6-19.4c-1.6-2.8-4.1-5.4-1.9-9
		c0.2-0.1,0.4-0.3,0.5-0.5c3.1-1.4,6.1-2.7,10.2-4.5C175.3,354.7,180.5,363.4,185.8,372z"/>
	<path class="st6" d="M168.5,463c0.9,5.9,1.9,11.9,2.8,17.8c0.5,3.5,0.8,7.1,1.2,10.7c-3.4,0.8-6.7,1.9-10.1,2.1
		c-1.6,0.1-4.4-1.1-4.8-2.3c-3.8-11.3-3.8-22.9-1.1-34.5c2.5,1.4,4.9,2.8,7.4,4.1C165.3,461.6,166.9,462.3,168.5,463z"/>
	<path class="st15" d="M9.8,515.7c0-0.5,0-1.1-0.1-1.6c0.6-0.7,1.2-1.5,1.8-2.2l-0.1,0.1c0.4-0.4,0.7-0.7,1.1-1.1l-0.1,0
		c1.8-0.6,3.8-0.9,5.4-1.9c3.2-2,5.3-1.7,7.2,1.7c2.6,4.6,5.7,8.9,8.3,13.4c2,3.4,3.5,6.9,5.3,10.4c-4.3,2.3-8.6,4.7-13,7
		c-3.6-6.5-7-13.1-10.8-19.5C13.6,519.8,11.5,517.9,9.8,515.7z"/>
	<path class="st9" d="M78.5,611.5c-0.7,0-1.3,0-2,0c-0.4,0-0.7-0.1-1.1-0.1l-0.1-0.3c0.8-2.5,2-5-1.8-6.2c1.9-1,2.1-2,0-3
		c0-0.7,0-1.4,0-2.1c-1.3-0.4-2.7-1.3-3.8-1c-4.8,1.3-9.5,2.9-14.2,4.4c0-0.5,0-0.9,0-1.4c5.3-2.1,10.7-4.2,16-6.2
		c-0.1-0.4-0.2-0.9-0.4-1.3c-1.2,0-2.4,0-3.6,0c0-0.5-0.1-0.9-0.1-1.3c0.7-1.1,1.3-2.1,2-3.2c-0.3-0.6-0.7-1.3-1-1.9
		c-0.2-0.7-0.5-1.3-0.7-2c-6.2,2.3-12.5,4.7-18.7,7c-0.5,0-1,0-1.5,0c-1.3-0.4-2.7-0.7-4-1.1c-0.1-1.6-0.2-3.1-0.3-4.7
		c1-0.7,2.1-1.3,3.1-2c1,0,2,0,3.1-0.1c0,0.6,0,1.2,0,1.8c-0.6,0.7-1.1,1.4-1.7,2.2c0.2,0.3,0.5,0.6,0.7,0.9c6-2,12-4,17.7-6
		c-0.1-2.6-0.2-4.5-0.4-7.2c-6.5,2.4-12.9,4.7-19.3,7.1c-0.9,0-1.8,0-2.7,0c-1-0.8-2-1.5-3-2.2c3.1-1.7,5.9-3.2,8.8-4.7l0,0
		c0.7,0,1.4,0.1,2.1,0.1c4.3-1.2,8.6-2.3,12.8-3.7c2.6-0.9,4.1-0.3,4.9,2.3c3.5,10.7,7.2,21.3,10.6,32.1
		C80.2,608.8,79,610.3,78.5,611.5z"/>
	<path class="st16" d="M100.5,572.9c0.1-2.8,0.1-5.6,0.4-8.3c0.2-2.6,0.8-4.7,4.3-4.7c7.8-0.1,15.5-0.4,23.3-1.1
		c5-0.5,3.6,3.6,4.8,6c4.5-0.8,8.9-1.4,13.2-2.4c2.6-0.6,3.9,0.1,4.1,2.7c-1,0.6-2,1.2-3,1.8c-2.4-3-11-1.8-15.4,2.8
		c5.6-1,10.5-1.9,15.4-2.8c-2.1,1.3-4.4,2.5-6.4,4.1c-3,2.3-5.9,4.8-8.8,7.3c-0.5,0.4-1.1,0.6-1.7,0.9c0-5.9,0-11.9,0-17.8
		c-0.9,0-1.8,0-2.7,0c-0.1,6.8-0.2,13.7-0.3,20.5c-0.7,0.4-1.3,0.9-2,1.3c0-5.6-0.1-11.2,0-16.8c0-2.5-0.8-3.5-3.4-3.5
		c-5.1,0-10.2-0.5-15.3-0.4c-1,0-2,1.7-3,2.6c-0.6,2.6-1.1,5.1-1.7,7.7C101.6,572.8,101,572.8,100.5,572.9z"/>
	<path class="st17" d="M52.3,304c0.7-1,1.5-2,2.2-3c4.3-1.3,9.4-1,12.3-5.5c-3.5,0.8-7,1.6-10.5,2.4c3.7-5.3,7.3-10.6,11-15.9
		c1.9,6,3.7,12,5.6,17.9c0.9,2.8,0.8,4.8-2.4,5.8c-6.1,1.9-12.2,4.1-18.3,6c-1.5,0.5-3.3,0.1-5,0.2c1.1-1.6,2.2-3.2,3.3-4.8
		c5.9-1.9,11.8-3.7,17.8-5.5c-0.2-0.6-0.4-1.1-0.6-1.7C62.7,301.2,57.5,302.6,52.3,304z"/>
	<path class="st18" d="M93.5,626c3.1-0.4,6.3-0.8,9.4-1.3c6.7-1,13.4-2.7,20.2-2.8c4.7-0.1,9.5,1.8,15.4,3.1
		c-6.4,6.1-12.2,9.6-19.7,10c-2.5,0.1-4.9,0.7-7.3,1c-0.4-0.3-0.7-0.6-1.1-0.9c1.1-0.6,2.2-1.1,3.3-1.7c-0.1-0.3-0.2-0.5-0.3-0.8
		c-1.8,0.4-3.7,0.7-5.5,1.1c-0.8-0.5-1.6-1.1-2.3-1.6c6.1-1.8,12.9-0.8,18.8-3.6c-0.2-0.8-0.3-1.5-0.5-2.2c-7,1.5-14,3-21,4.5
		C99.6,629.1,96.6,627.6,93.5,626z M102.6,626.8c0.1,0.5,0.1,0.9,0.2,1.4c6.6-1.1,13.2-2.1,19.8-3.2c-0.1-0.5-0.2-1-0.2-1.4
		C115.7,624.7,109.2,625.7,102.6,626.8z M115.8,632.2c0.1,0.4,0.2,0.8,0.3,1.2c2.6-0.5,5.1-1,7.7-1.5c-0.1-0.4-0.2-0.8-0.2-1.2
		C120.9,631.2,118.4,631.7,115.8,632.2z"/>
	<path class="st13" d="M103.8,565c1-0.9,2-2.6,3-2.6c5.1-0.1,10.2,0.4,15.3,0.4c2.6,0,3.4,1,3.4,3.5c-0.1,5.6,0,11.2,0,16.8
		c-2.3,1.2-4.7,2.5-7.1,3.7c-1.3-0.6-2.5-1.3-3.7-1.9c0.4-1.7,0.2-3.9,1.2-5c3.3-3.4,2.8-5.9-0.7-8.6c-1.8-1.4-3.4-3.1-4.6-5
		c-2.3-3.7-3.8-2.9-5.3,0.5C104.9,566.3,104.3,565.6,103.8,565z"/>
	<path class="st9" d="M114.7,585c1.3,0.6,2.5,1.3,3.7,1.9c-1.3,1.8-2.5,3.5-3.8,5.3c-1.8-0.1-3.6-0.3-5.4-0.1c-4.7,0.6-6.3-1.2-6-6
		c0.2-4.4-0.7-8.9-1.2-13.4c0.6-2.6,1.1-5.1,1.7-7.7c0.5,0.6,1.1,1.3,1.6,1.9c1,1,1.8,2.4,3,2.9c6.4,2.5,7.6,5.7,3.7,11
		c-0.7,1-1.1,2.1-1.9,3.7C112.2,584.7,113.5,584.8,114.7,585z"/>
	<path class="st16" d="M99.5,287.1c-4.9,0.9-6.4-1.4-6-6.1c0.2-2.8,1.6-6.4-3.2-7.7c-0.6-0.2-0.9-6.1,0-6.5c5.4-2.4,3.4-7.1,4.1-11
		c4.4-0.6,8.9-1.3,13.3-1.8c4.9-0.5,9.8-0.8,14.8-1.1c0,0.3,0,0.6,0,1c-0.7,1.7-1.8,3.4-1.9,5.2c-0.4,7.6-0.4,15.3-0.6,22.9
		c-0.5,0-1.1,0-1.6,0c0-7.5-0.1-14.9,0.1-22.4c0.1-2.8-0.9-3.9-3.8-3.8c-4.7,0.1-9.3,0.1-14-0.1c-2.9-0.1-4.3,1-4.3,4
		c0,7.3-0.2,14.6,0,21.9c0,1.2,1.9,2.3,2.9,3.4C99.5,285.7,99.5,286.4,99.5,287.1z"/>
	<path class="st16" d="M132.5,583.8c5,1.2,10,2.2,14.8,3.8c1.3,0.4,1.9,2.9,2.8,4.4c-1.5,0.5-3.1,1.5-4.6,1.3
		c-4.1-0.6-8.1-1.6-12-2.5c-2.8,6.5-2.8,6.5-9.8,4.3c-1.7-0.5-3.6-0.3-5.4-0.5C123.1,591,127.8,587.4,132.5,583.8z"/>
	<path class="st19" d="M38.6,534.7c-1.7-3.5-3.3-7.1-5.3-10.4c-2.6-4.5-5.7-8.8-8.3-13.4c-1.9-3.4-4-3.7-7.2-1.7
		c-1.6,1-3.6,1.3-5.4,1.9c2.4-2.1,4.9-4.3,7.9-7c-4.3-1.2-7.2-2-10.4-3c-0.3,3.6-0.5,6.8-0.7,10C9,505,8.7,499,8.4,493
		c0.6,0.3,1.5,0.4,1.7,0.8c2.1,4.2,5.1,6.9,10.1,7.5c1.6,0.2,3.2,2.3,4.2,3.8c5.5,8.3,10.7,16.7,16.1,25.1c0.5,0.8,1.4,1.4,2.1,2.1
		C41.3,533.1,40,533.9,38.6,534.7z"/>
	<path class="st16" d="M252.3,525.3c-2.4-0.8-4.3-1-5.3,2.2c-0.7,2.3-2.3,4.2-3.5,6.3c-0.3-0.1-0.5,0-0.8,0c0-1.3-0.1-2.5-0.1-3.8
		c1.2-2.4,3-4.7,3.4-7.3c0.1-0.8-3.4-2.2-5.5-3.4c-1.5,2.6-2.6,4.6-3.7,6.6c-0.2,0.3-0.3,0.6-0.3,0.9c-1.4,2.9-2.8,5.8-4.1,8.6
		c-3.3,6.1-6.6,12.2-9.9,18.4c-2.1,2.6-5.1,4.9-3.2,8.9c-3,0.3-4.8,0-2.8-3.7c6.7-12.4,13.3-24.8,19.8-37.3c2.3-4.4,4.9-5.7,9.3-2.7
		c1.5,1.1,3.6,1.3,5.5,2C251.4,522.5,251.8,523.9,252.3,525.3z"/>
	<path class="st20" d="M40.3,471c-1.3,3.2-2.3,6-7.2,4.5c-3.8-1.2-8.2-1-12.2-0.6c-4.1,0.4-7.9,0.5-11.4-2.1
		c0.1-4.6,0.1-9.3,0.2-13.9c0.9,0,1.7,0,2.6,0.1c0,3.3,0,6.5,0,10.5c6.4,0,12.2-0.1,18,0.1c2.7,0.1,5.4,0.9,8.2,1.4
		C39.1,471,39.7,471,40.3,471z M13.2,470.9c-0.2-0.2-0.3-0.6-0.5-0.6c-0.2,0-0.5,0.2-0.8,0.3c0.2,0.3,0.5,0.6,0.7,0.9
		C12.8,471.3,13,471.1,13.2,470.9z"/>
	<path class="st21" d="M78.5,611.5c0.5-1.3,1.8-2.8,1.4-3.8c-3.4-10.7-7-21.4-10.6-32.1c-0.9-2.7-2.3-3.2-4.9-2.3
		c-4.2,1.4-8.6,2.5-12.8,3.7c0-0.5-0.1-1-0.1-1.4c5.2-2,10.4-4.1,15.7-5.8c0.8-0.3,2.9,0.8,3.2,1.6c4.6,13.3,8.9,26.7,13.4,40
		C82,611.5,80.3,611.5,78.5,611.5z"/>
	<path class="st16" d="M181.6,280.9c-4.8,0-9.6,0.3-14.4-0.1c-4.6-0.4-6.5,1.8-6.5,5.9c-0.1,7.1,0,14.2,0,21.1
		c1.3,1,2.6,1.9,3.9,2.9c0,1.1-0.1,2.1-0.1,3.2c-0.6,0.6-1.2,1.2-1.8,1.8c-1.7-1.9-4.6-3.8-4.8-5.8c-0.5-5.4,0.3-10.9,0.6-16.3
		c0-0.5,0-1,0-1.5c0.1-13.7,1.8-15.1,15.6-13.9c1.2,0.1,2.4-0.1,3.7-0.2C179.1,278.9,180.4,279.9,181.6,280.9z"/>
	<path class="st21" d="M47.3,311.9c1.7,0,3.4,0.3,5-0.2c6.1-1.9,12.2-4,18.3-6c3.2-1,3.3-3,2.4-5.8c-2-5.9-3.8-12-5.6-17.9
		c0.4-0.7,0.8-1.4,1.2-2c2.6,7.4,5.3,14.7,7.7,22.1c0.4,1.2-0.4,3.9-1.2,4.2c-9.9,3.4-19.8,6.4-29.8,9.6
		C46,314.6,46.7,313.3,47.3,311.9z"/>
	<path class="st11" d="M23.9,543.2c-2.8,1.8-5.5,3.5-8.2,5.2c-2-9.2-3.8-17.8-5.7-26.4c0.7,0.3,1.8,0.5,2.1,1.1
		C16.1,529.7,20,536.5,23.9,543.2z"/>
	<path class="st14" d="M157.8,638c-4.5-2.9-0.1-6.5-0.6-9.9c-0.7-4.7,0.2-9.7,0.8-14.6c0.1-1,1.8-1.7,2.8-2.6
		c0.9,1.2,2.6,2.4,2.6,3.6c-0.1,6.8-0.5,13.5-0.8,20.3C160.9,636,159.3,637,157.8,638z"/>
	<path class="st20" d="M193.9,511.8c2.5-5.1,5-10.2,7.7-15.2c0.6-1,2-1.6,3-2.5c0.6,0.3,1.3,0.6,1.9,0.9c0.3,3.6,1.2,7.3,0.6,10.7
		c-0.6,3.3-2.7,6.3-4.2,9.4C200.6,512.2,197.7,510.9,193.9,511.8z M197,506.8c3.4,0.3,5.3,0.9,6.9,0.4c0.7-0.2,1.4-2.8,1-3.8
		c-0.4-1-2.9-2.5-3.3-2.2C200.2,502.3,199.2,504,197,506.8z"/>
	<path class="st17" d="M68.5,587.9c0.3,0.6,0.7,1.3,1,1.9c-6.3,2.1-12.6,4.2-18.9,6.2c0.2,0.6,0.4,1.2,0.7,1.9
		c5.4-1.6,10.8-3.3,16.2-4.9c0,0.5,0.1,0.9,0.1,1.3c-5,2-10,4.1-15,6.2c0.1,0.3,0.1,0.6,0.2,0.9c0.9,0.2,1.8,0.3,2.7,0.5
		c0,0.5,0,0.9,0,1.4c-0.7,0.3-1.4,0.6-2.1,0.8c-2-1.1-4-2.2-5.9-3.3c2.3-2.7-0.5-4-1.5-5.9c0.5-0.7,1-1.3,1.5-2c0.5,0,1,0,1.5,0
		c1.5-0.1,3.1,0.2,4.5-0.2C58.6,591.2,63.5,589.5,68.5,587.9z"/>
	<path class="st19" d="M185.8,372c-5.2-8.6-10.5-17.3-15.3-25.2c-4.1,1.8-7.1,3.2-10.2,4.5c1-1,2.1-1.8,2.9-2.9
		c1.4-1.7,2.7-3.6,4.1-5.4c1.1,0,2.2-0.1,3.3-0.1c4.8,7.4,9.5,14.8,14.4,22.1c0.8,1.2,2.3,2.1,3.4,3.1
		C187.5,369.4,186.6,370.7,185.8,372z"/>
	<path class="st18" d="M171.4,619.7c2.6-0.4,5.2-1.2,7.8-1.2c1.8,0,3.6,0.9,5.5,1.4c-2.7,2-5.4,3.9-8,5.8c-0.9-0.4-1.9-1.2-2.8-1.2
		c-4,0.2-6.7-1-6.2-5.5c0.4-3.6,1.2-7.1,1.9-10.7c0.2,3.9,0.4,7.8,0.7,11.7c0.1,0.5,0.1,1,0.2,1.4
		C170.7,620.9,171.1,620.3,171.4,619.7z"/>
	<path class="st16" d="M12.3,459c-0.9,0-1.7,0-2.6-0.1c0.5-6.3,0.9-12.5,1.4-18.8c8.8-4.1,17.6-1.5,26.4-0.1c0,0.6,0,1.2,0,1.9
		c-6.1-0.3-12.2-0.4-18.2-1c-5-0.5-6.5,2.1-6.6,6.3C12.6,451.1,12.4,455,12.3,459z"/>
	<path class="st20" d="M46.1,594.9c1,1.8,3.8,3.2,1.5,5.9c-3-2.9-5.9-5.8-8.9-8.8c0.5-1.7,0.9-3.4,1.4-5.2c-1.5-1.6-3.1-3.2-4.7-4.8
		c4.7-1.7,9.5-3.3,14.2-5c-2.8,1.5-5.7,3-8.8,4.7c1,0.7,2,1.5,3,2.2c-0.2,1.1-0.3,2.2-0.5,3.3c0.1,1.6,0.2,3.1,0.3,4.7
		C44.4,592.9,45.3,593.9,46.1,594.9z"/>
	<path class="st18" d="M102.1,572.7c0.4,4.5,1.4,9,1.2,13.4c-0.3,4.8,1.3,6.6,6,6c1.8-0.2,3.6,0.1,5.4,0.1c-1,0.9-2,1.8-3,2.7
		c-1.3-0.1-2.7-0.1-4-0.2c-6.9-0.6-7.1-0.8-7-7.7c0-2.7,0.9-5.8-3.3-6.5c-0.4-0.1-0.6-2.3-0.8-3.5c1.2,0.7,2.4,1.4,3.6,2.1
		c0.3-0.3,0.6-0.5,0.9-0.8c-1.2-1.5-2.4-3-3.6-4.5c1-0.3,2.1-0.5,3.1-0.8C101,572.8,101.6,572.8,102.1,572.7z"/>
	<path class="st19" d="M159.8,351.8c-2.2,3.6,0.3,6.1,1.9,9c3.6,6.4,7.1,13,10.6,19.4c-2.2-1.7-4.5-3.4-6.7-5.1
		c0-0.4-0.1-0.7-0.1-1.1l0,0c-0.3-0.3-0.7-0.7-1-1l0,0c-0.3-0.3-0.7-0.7-1-1v0.1c-2.2-4.8-4.5-9.6-6.7-14.4
		c-0.9-1.9-1.6-3.9-2.4-5.8c0.8,0,1.6-0.1,2.3-0.1C157.8,351.8,158.8,351.8,159.8,351.8z"/>
	<path class="st17" d="M120.1,282c0.2-7.6,0.2-15.3,0.6-22.9c0.1-1.8,1.2-3.5,1.9-5.2c0.8-0.2,1.5-0.4,2.3-0.6
		c0.2-0.1,0.5-0.1,0.7,0c0,0.8,0,1.6,0.1,2.4c0,0.6,0,1.2,0,1.8l-0.1,0.1c-0.7,1.3-1.9,2.5-2,3.9c-0.3,4.6,0,9.2-0.3,13.8
		c-0.2,3.9-0.7,7.7-1.1,11.6c-0.4,0-0.9-0.1-1.3-0.1C120.6,285.1,120.3,283.5,120.1,282z"/>
	<path class="st22" d="M231.3,554.9c-1.1,3.2-2.2,6.4-3.8,10.9c5.3,2.5,10.8,5,16.2,7.5c-0.5,1-1.1,1.9-1.6,2.9
		c-6.8-4.1-13.7-8.1-20.5-12.2c1.8-1.4,3.6-2.8,5.2-4.4c0.1-0.1-1.3-1.7-1.8-2.4c0.5-0.2,1.5-0.6,2.6-1c1.1-0.4,2.1-0.8,3.2-1.1
		C230.9,554.9,231.1,554.9,231.3,554.9z"/>
	<path class="st15" d="M29.3,544.8c4.1-2.3,8.2-4.7,12.3-7c1,1.1,2.1,2.2,3.5,3.7c-2.2,2-4,3.6-5.8,5.1
		C35.7,547,31.3,552.2,29.3,544.8z"/>
	<path class="st19" d="M23.9,543.2c-3.9-6.7-7.8-13.5-11.8-20.1c-0.3-0.6-1.4-0.7-2.1-1.1c-0.1-2.1-0.1-4.2-0.2-6.2
		c1.7,2.1,3.8,4.1,5.1,6.5c3.7,6.4,7.2,13,10.8,19.5C25.1,542.2,24.5,542.7,23.9,543.2z"/>
	<path class="st14" d="M24.4,375.8c1.1,2.4,2.1,4.8,3.2,7.2c0.1,0.4,0.3,0.8,0.4,1.2c-1,3.5-2,7-3,10.5c-1.1,1.2-2.2,2.4-3.3,3.6
		c-0.3-2.4-0.7-4.8-1-7.3C22,385.9,23.2,380.8,24.4,375.8z"/>
	<path class="st16" d="M157.4,401c-4.6-3.7-9.3-7.4-13.9-11c0.8,0,1.7-0.1,2.5-0.2c2.4,1,4.7,1.9,7.1,2.9c0.3-0.4,0.5-0.8,0.8-1.3
		c-1.5-1.5-2.9-3-4.4-4.4c0.4-0.4,0.8-0.8,1.2-1.2c2.6,1.4,5.3,2.8,7.9,4.1C158.1,393.6,157.8,397.3,157.4,401z"/>
	<path class="st21" d="M184.4,310.1c0.6-1.3,1.8-2.5,1.9-3.9c0.3-7.1,0.3-14.3,0.4-21.4c0.9,0.9,1.9,1.7,2.8,2.6
		c-0.4,7.9-0.8,15.7-1.2,23.6C187.1,310.7,185.8,310.4,184.4,310.1z"/>
	<path class="st18" d="M145.1,573.9c0.8,0.3,1.8,0.3,2.3,0.9c0.9,1.1,2,2.5,1.9,3.8c0,0.8-1.8,2.2-2.9,2.3
		c-3.6,0.3-7.3,0.1-10.9,0.1C138.7,578.6,141.9,576.3,145.1,573.9z"/>
	<path class="st9" d="M9.3,511.1c0.2-3.2,0.4-6.4,0.7-10c3.2,0.9,6.2,1.8,10.4,3c-3,2.6-5.5,4.8-7.9,7l0.1,0
		c-0.4,0.4-0.7,0.7-1.1,1.1l0.1-0.1c-0.7,0-1.3,0-2,0C9.5,511.6,9.4,511.3,9.3,511.1z"/>
	<path class="st17" d="M209.5,328c-1-1.3-2-2.5-3-3.8c1.9-1.1,4-2,5.6-3.4c1.4-1.3,2.3-3.2,3.4-4.9c0.4-0.7,0.8-1.4,1.1-2.1
		c1,0.5,2,1.1,3,1.6C216.3,319.7,212.9,323.8,209.5,328z"/>
	<path class="st17" d="M127.5,581.8c0.1-6.8,0.2-13.7,0.3-20.5c0.9,0,1.8,0,2.7,0c0,5.9,0,11.9,0,17.8
		C129.5,580,128.5,580.9,127.5,581.8z"/>
	<path class="st23" d="M35.4,582c1.6,1.6,3.2,3.3,4.7,4.8c-0.5,1.8-1,3.5-1.4,5.2c-2.4-3-4.8-6-7.2-9
		C32.8,582.7,34.1,582.3,35.4,582z"/>
	<path class="st23" d="M102.7,630.7c7-1.5,14-3,21-4.5c0.2,0.8,0.3,1.5,0.5,2.2c-5.9,2.8-12.7,1.8-18.8,3.6
		C104.4,631.6,103.6,631.2,102.7,630.7z"/>
	<path class="st18" d="M196.6,613c0-6,0-12.1,0.1-18.1c1,0.3,1.9,0.7,2.9,1c-0.3,5.3-0.6,10.6-0.9,15.9
		C197.9,612.2,197.2,612.6,196.6,613z"/>
	<path class="st21" d="M53.5,604.1c0.7-0.3,1.4-0.6,2.1-0.8c4.7-1.5,9.4-3.1,14.2-4.4c1.1-0.3,2.5,0.6,3.8,1
		c-5.4,2.1-10.9,4.2-16.3,6.2C56,605.4,54.7,604.8,53.5,604.1z"/>
	<path class="st9" d="M261.4,545.9c1.6,0.4,3.2,0.7,4.8,1.1c-0.2,4.7-2.6,8-6.5,11C260.3,553.7,260.8,549.8,261.4,545.9z"/>
	<path class="st24" d="M52.3,304c5.2-1.4,10.4-2.8,15.5-4.1c0.2,0.6,0.4,1.1,0.6,1.7c-5.9,1.9-11.8,3.7-17.8,5.5
		C51.2,306.1,51.8,305,52.3,304z"/>
	<path class="st21" d="M73.5,602c2.1,1,2,2,0,3c-0.7,0.2-1.4,0.4-2.1,0.6c-0.3,0.4-0.7,0.8-1,1.3c0,0,0-0.1,0-0.1
		c-0.7,0-1.3,0-1.9-0.1c-1.6,0.7-3.3,1.3-4.9,2c-1.4-0.6-2.7-1.2-4.1-1.8C64.1,605.3,68.8,603.7,73.5,602z"/>
	<path class="st19" d="M29.3,544.8c2.1,7.4,6.4,2.3,9.9,1.8c0.2,0.2,0.4,0.4,0.6,0.6c-2.1,1.9-4.2,3.8-6.3,5.7c-0.7,0-1.4,0-2.1,0
		c-1.3-2.3-2.7-4.6-4-6.9C28,545.6,28.6,545.2,29.3,544.8z"/>
	<path class="st17" d="M73.5,602c-4.7,1.7-9.4,3.4-14.1,5c-0.8-0.3-1.5-0.6-2.3-0.9c5.4-2.1,10.9-4.2,16.3-6.2
		C73.5,600.6,73.5,601.3,73.5,602z"/>
	<path class="st19" d="M39.2,546.6c1.8-1.6,3.6-3.2,5.8-5.1c-1.4-1.5-2.5-2.6-3.5-3.7c1-0.6,1.9-1.3,2.9-1.9
		c1.2,2.5,2.4,5.1,3.6,7.7c-0.3,0.4-0.6,0.7-0.9,1.1c-2.4,0.9-4.8,1.7-7.3,2.6C39.6,547,39.4,546.8,39.2,546.6z"/>
	<path class="st14" d="M125.5,255.6c0-0.8,0-1.6-0.1-2.4c3.4,0.9,6.8,1.8,10.2,2.6c-2.6,0.7-5.1,1.4-7.7,2.1c-0.4,0-0.8,0-1.1,0
		c-0.5-0.2-0.9-0.3-1.4-0.5c0,0,0.1-0.1,0.1-0.1C125.5,256.8,125.5,256.2,125.5,255.6z"/>
	<path class="st24" d="M56.4,297.9c3.5-0.8,7-1.6,10.5-2.4c-3,4.4-8,4.2-12.3,5.5c0.4-0.7,0.8-1.4,1.2-2.1c0.3-0.3,0.5-0.7,0.8-1
		C56.5,297.9,56.4,297.9,56.4,297.9z"/>
	<path class="st17" d="M71.4,605.6c0.7-0.2,1.4-0.4,2.1-0.6c3.8,1.1,2.6,3.7,1.8,6.2c-0.6-0.1-1.2-0.2-1.8-0.2
		c-0.1-0.5-0.3-0.9-0.4-1.3c-0.2,0.4-0.4,0.8-0.6,1.2c-1.1-0.6-2.1-1.2-3.2-1.8c0.4-0.7,0.7-1.5,1.1-2.2l0,0.1
		C70.8,606.5,71.1,606,71.4,605.6z"/>
	<path class="st16" d="M128,258c2.6-0.7,5.1-1.4,7.7-2.1c1.9,0.6,3.7,1.3,5.6,1.9c0.1,0.3,0.1,0.6,0.1,1c-3.2,0.2-6.3,0.5-9.5,0.5
		C130.6,259.2,129.3,258.4,128,258z"/>
	<path class="st9" d="M260.7,537.9c0.9-0.6,1.8-1.2,3.2-2.1c0.6,2.7,1.1,4.9,1.6,7.1l0,0c-1.5-0.3-3.1-0.7-4.7-1
		C260.8,540.6,260.8,539.3,260.7,537.9z"/>
	<path class="st17" d="M63.5,608.8c1.6-0.7,3.3-1.3,4.9-2c0,0.8,0.1,1.6,0.1,2.4C66.9,609,65.2,608.9,63.5,608.8z"/>
	<path class="st22" d="M107.7,633.7c1.8-0.4,3.7-0.7,5.5-1.1c0.1,0.3,0.2,0.5,0.3,0.8c-1.1,0.6-2.2,1.1-3.3,1.7
		C109.4,634.6,108.5,634.2,107.7,633.7z"/>
	<path class="st9" d="M68.6,609.1c0-0.8-0.1-1.6-0.1-2.4c0.7,0,1.3,0,1.9,0.1c-0.4,0.7-0.7,1.5-1.1,2.2
		C69.1,609.1,68.8,609.1,68.6,609.1z"/>
	<path class="st19" d="M9.6,511.8c0.7,0,1.3,0,2,0c-0.6,0.7-1.2,1.5-1.8,2.2C9.7,513.3,9.6,512.6,9.6,511.8z"/>
	<path class="st18" d="M124.8,253.3c-0.8,0.2-1.5,0.4-2.3,0.6c0-0.3,0-0.6,0-1C123.3,253.1,124,253.2,124.8,253.3z"/>
	<path class="st9" d="M72.5,610.8c0.2-0.4,0.4-0.8,0.6-1.2c0.1,0.5,0.3,0.9,0.4,1.3C73.2,610.9,72.9,610.9,72.5,610.8z"/>
	<path class="st11" d="M165.4,374c0,0.4,0.1,0.7,0.1,1.1C165.5,374.7,165.5,374.4,165.4,374z"/>
	<path class="st11" d="M163.4,372c0.3,0.3,0.7,0.7,1,1C164.1,372.7,163.8,372.3,163.4,372z"/>
	<path class="st11" d="M164.4,373c0.3,0.3,0.7,0.7,1,1C165.1,373.7,164.8,373.3,164.4,373z"/>
	<path class="st17" d="M56.5,297.9c-0.3,0.3-0.5,0.7-0.8,1C56,298.6,56.3,298.2,56.5,297.9z"/>
	<path class="st21" d="M75.4,611.4c0.4,0,0.7,0.1,1.1,0.1C76.2,611.5,75.8,611.5,75.4,611.4z"/>
	<path class="st1" d="M183.5,80.6c6.3-2.2,11.2-1,14.7,3.8c0.8,1.1,0.5,3,0.7,4.5c-1.3,0-3,0.4-3.9-0.2
		C191,86.1,187.3,83.3,183.5,80.6z"/>
	<path class="st10" d="M92.5,108c0.3-0.7,0.7-1.4,1-2C93.2,106.7,92.8,107.3,92.5,108z"/>
	<path class="st25" d="M46.2,115.6c-0.1,0.1-0.2,0.2-0.3,0.3c-0.1-0.2-0.2-0.4-0.3-0.6c0-0.1,0.2-0.2,0.3-0.3
		C46,115.2,46.1,115.4,46.2,115.6z"/>
	<path class="st12" d="M200.6,379.9c5.1-2.2,7.5-6.7,9.6-11.4c4.9-11.2,9.6-22.4,14.4-33.6c16.8,12.7,33.6,25.4,50.2,38.2
		c9.7,7.5,19.1,15.4,28.6,23.1c1.9,1.6,3.9,3.1,5.9,4.6c13.2,9.2,26.5,18.3,39.7,27.5c1.3,0.9,2.2,2.5,3.5,3.5
		c1.7,1.1,3.7,2.9,5.4,2.7c10.1-1,20.2-2.7,30.3-3.9c2.5-0.3,5.1,0.3,7.7,0.5c0,0.5-0.1,1-0.1,1.5c-5.1,1.4-10.2,2.9-15.3,4.3
		c0.1,0.6,0.1,1.2,0.2,1.9c1.8,0,3.5,0.2,5.3,0c5.5-0.7,11-1.4,16.5-2.3c3.7-0.6,4.8,1.4,5,4.5c0.4,4.8-1.2,8.9-5.9,10.5
		c-16.5,5.8-32.4,14.2-50.2,15.4c-5.2,0.4-11.3-0.8-15.8-3.3c-18.3-10.3-36.2-21.5-54.2-32.3c-0.4-0.3-0.7-0.6-1.1-1
		c1-3.4,2.8-6.8,2.9-10.2c0.1-4.7-0.6-9.6-1.9-14.2c-0.9-3.2-2.7-6.4-4.8-9c-6.4-7.7-14.9-10.9-24.8-12
		c-12.9-1.5-19.2,1.3-23.3,12.3C219.2,391.3,209.9,385.6,200.6,379.9z M386,444.5c6.7,1.7,12.8-1.5,19.6-2.1
		C403.5,438.6,397.4,439.2,386,444.5z"/>
	<path class="st6" d="M228.5,396.9c4.1-11,10.4-13.8,23.3-12.3c9.9,1.1,18.4,4.3,24.8,12c2.1,2.6,4,5.8,4.8,9
		c1.2,4.6,2,9.5,1.9,14.2c-0.1,3.4-1.9,6.8-2.9,10.2c-7.3-4.5-14.6-8.9-21.8-13.5C248.6,410.1,238.5,403.5,228.5,396.9z"/>
	<path class="st6" d="M73.4,135.9c1.7,2,3.6,3.9,5,6.1c0.5,0.8,0,2.3-0.1,3.5c-1-0.5-2.4-0.7-2.8-1.4c-1.9-3.1-4.3-5-8.1-4.5
		c-4.1,0.6-4.9,4-5.9,7.2c-3,9.6,0.6,17.9,5.4,25.9c1.6,2.6,3.6,4.3,7,2.3c0.7-0.4,2.1,0.4,3.2,0.7c-0.5,1.1-1,3-1.6,3.1
		c-2.8,0.1-5.7,0.1-8.3-0.6c-1.4-0.4-2.6-2-3.8-3.1l0,0c-0.3-0.4-0.7-0.7-1-1c-2-5.4-4.1-10.9-6.1-16.3c0.4-3.8,0.6-7.5,1.1-11.2
		c1.1-7.9,5.8-11.5,13.5-10.6C71.8,136,72.6,135.9,73.4,135.9z"/>
	<path class="st12" d="M234.5,492.9c0.4,0.1,0.9,0.3,1.3,0.4c-0.1,0.1-0.2,0.3-0.3,0.4C235.2,493.5,234.9,493.2,234.5,492.9
		C234.5,493,234.5,492.9,234.5,492.9z"/>
	<path class="st12" d="M234.5,493c-0.7-0.3-1.4-0.6-2.1-0.9l0.2-0.2C233.3,492.2,233.9,492.6,234.5,493
		C234.5,492.9,234.5,493,234.5,493z"/>
	<path class="st10" d="M62.5,174c0.3,0.4,0.7,0.7,1,1C63.2,174.6,62.8,174.3,62.5,174z"/>
	<path class="st6" d="M110.4,188.8c-6.5,1.4-11.7-2.4-16-6.1c-2.2-1.9-1.8-7.3-1.6-11.1c0.1-1.3,3.2-2.7,5.1-3.6
		c1.6-0.8,3.5-0.9,5.2-1.4c8.6-2.5,18,2.7,20.5,11.2c1.4,4.7-0.3,8.1-4.8,9.9c-1.1,0.4-2.2,0.9-3.3,1
		C113.8,189,112.2,188.8,110.4,188.8z"/>
	<path class="st6" d="M184.4,177c7.9,0,13.1,3.2,15.3,8.7c1.7,4.3,0,7.1-3.1,9.5c-4,3.1-17.4,3-21.4-0.1c-3.3-2.6-5.8-5.8-4.4-10.3
		c1.5-4.8,5.4-6.9,10.1-7.8C182,176.8,183.2,177,184.4,177z"/>
	<path class="st3" d="M173.5,168.3c8.2-9.8,21.6-8,26.6,2.5c0.5,1,0,2.4,0,3.6c-1.1-0.3-2.4-0.5-3.4-1.1c-0.7-0.4-1-1.3-1.6-1.9
		c-5.8-6.7-7.7-7.1-15.8-4C177.5,168.2,175.4,168.1,173.5,168.3z"/>
	<path class="st3" d="M103.5,158.9c0.6-1.3,0.8-2.9,1.7-3.7c8.1-7.1,17.3-6.1,23.8,2.3c0.6,0.8,0.5,2.2,0.7,3.3
		c-1.2-0.1-3.1,0.3-3.5-0.3c-6.2-8.8-13.1-4.9-20.1-1.5c-0.4,0.2-0.9,0.3-1.3,0.5C104.3,159.3,103.9,159.1,103.5,158.9z"/>
	<path class="st26" d="M130.4,197.8c1.9,0.8,4,1.3,5.6,2.5c5.3,4.3,10.8,4.3,16.7,1.5c1.3-0.6,2.7-1.4,4.2-1.6
		c0.7-0.1,1.8,0.7,2.3,1.4c0.3,0.3-0.2,1.6-0.7,2.1C150.2,210.9,135.6,208.3,130.4,197.8z"/>
	<path class="st6" d="M69.3,162.6c-0.9-3.7-1.9-6.9-2.3-10.1c-0.2-1.2,0.6-3.2,1.5-3.7s3.5,0,3.8,0.8c1.4,3.1,2.9,6.5,2.9,9.8
		C75.3,162.7,72.3,163.5,69.3,162.6z"/>
	<path class="st27" d="M183.7,139.8c3-4,5.9-3.1,8.7-1.5c4.3,2.4,7.2,8.1,6.3,12.7C193.7,147,191.8,139.4,183.7,139.8z"/>
	<path class="st27" d="M108.6,135.2c7.5-5.6,14.9-5.7,17.5-0.1c-5.9,0.6-11.7,1.1-17.5,1.7C108.6,136.3,108.6,135.7,108.6,135.2z"/>
	<path class="st21" d="M131.5,486.9c-0.3-1.4-0.9-2.8-0.9-4.2c0.2-10.6,0.2-21.3,1-31.9c0.3-4,2.6-7.9,4-11.8
		c0.7,0.1,1.4,0.2,2.1,0.3c0.9,4.2,2.6,8.5,2.7,12.7c0.3,12.8,0.1,25.6-0.1,38.5c0,1.5-1.2,2.9-1.9,4.4c0-2.5,0-5,0-7.9
		C135.7,486.9,133.6,486.9,131.5,486.9z M133.6,466.9c0,0-0.1,0-0.1,0c0,4.1-0.2,8.3,0.1,12.4c0.1,1.3,1.3,2.4,2.1,3.6
		c0.7-1.1,1.9-2.1,2-3.3c0.4-8.6,0.6-17.2,0.7-25.8c0-1.2-1.5-2.4-2.2-3.5c-0.8,1.2-2.3,2.4-2.4,3.6
		C133.4,458.3,133.6,462.6,133.6,466.9z"/>
	<path class="st16" d="M61.3,413.8c-3,0.3-4.8,0-2.8-3.7c6.8-12.5,13.4-25.1,20.1-37.8c2-3.9,4.2-5.3,8.5-2.5
		c5.6,3.7,11.6,6.8,17.4,10.1c-0.3,0.3-0.7,0.6-1,0.9c-0.9-0.2-2-0.3-2.8-0.7c-3.2-1.4-6.9-4.7-9.5-4c-2.5,0.7-3.8,5.5-5.6,8.5
		c-0.3-0.1-0.6,0-0.8,0c0-1.3-0.1-2.6-0.1-3.8c1.2-2.4,3-4.7,3.4-7.3c0.1-0.8-3.4-2.1-5.5-3.4c-1.5,2.6-2.6,4.6-3.7,6.6
		c-0.2,0.3-0.3,0.6-0.3,0.9c-1.7,3.3-3.4,6.6-5.1,10c-1,2-2,4-3.1,6c-2,3.7-3.9,7.3-5.9,11C62.3,407.5,59.4,409.8,61.3,413.8z"/>
	<path class="st19" d="M132,400.4c4.6,1.2,8.1,1.8,11.2,3.2c1.5,0.7,3,2.8,3.2,4.5c1.3,9.5-6,15.9-15.1,13.5
		c-1.9-0.5-3.8-1.1-5.7-1.8c-1-0.4-2.7-1.2-2.6-1.8c0.3-4.3,0.2-9,1.9-12.8C125.9,402.8,129.9,401.7,132,400.4z M135.7,420
		c3.1,0,5.8-3.9,5.8-8.5c0-3.5-4.6-6.1-11.4-6.4c-2.9-0.1-5.4,3.9-5.4,8.7C124.6,416.9,129.8,419.9,135.7,420z"/>
	<path class="st18" d="M125.5,257.5c0.5,0.2,0.9,0.3,1.4,0.5c-0.4,1.4-0.7,2.9-1.1,4.4c2.5-0.1,4.7-0.3,6.9-0.4
		c-2.2,1.4-4.3,2.7-6.5,4.1c0,0.4-0.1,0.7-0.1,1.1c3.1,0,6.2-0.1,9.4,0c1.8,0,3.8-0.1,5.3,0.7c1,0.6,1.7,2.6,1.7,4
		c0,0.7-1.6,2-2.5,2.1c-3.4,0.3-6.9,0.2-10.4,0.1c-4-0.1-4.7,1.6-2.8,4.9c-0.6,0.4-1.2,0.8-1.8,1.2c0.4,0.4,1,1.2,1.2,1.2
		c3.6-1.6,2,1.5,2.5,2.7c-1.1,0.5-3,0.9-3.1,1.5c-0.4,5.2-4,3.7-6.9,3.3c-3-0.4-6-1.1-9.1-1.7c0-0.6,0.1-1.3,0.1-1.9
		c2.9-1.1,7.6,2.5,8.9-3.2c0.6,0,1.1,0,1.6,0c0.3,1.6,0.5,3.1,0.8,4.7c0.4,0,0.9,0.1,1.3,0.1c0.4-3.9,0.9-7.7,1.1-11.6
		c0.2-4.6,0-9.2,0.3-13.8C123.6,260,124.8,258.8,125.5,257.5z M140,271.5c-8.8-3.1-12.6-3-14.8,0C130.3,271.5,135.1,271.5,140,271.5
		z"/>
	<path class="st9" d="M111.3,358.8c0.5,0.5,1,0.9,1.4,1.4c5.9,4.4,11.8,8.8,17.8,13.1c3.9,2.7,7.9,5.2,11.9,7.8
		c1.5,2.5,2.7,4.8-1.9,4.8c-5-3.7-9.9-7.6-15-11.1c-4.1-2.9-8.5-5.4-12.8-8c-3.6-3.1-7.1-6.2-10.7-9.3c0.4-0.5,0.8-0.9,1.2-1.4
		C105.9,356.9,108.6,357.9,111.3,358.8z"/>
	<path class="st19" d="M28,384.2c-0.1-0.4-0.3-0.8-0.4-1.2c2.8-6.7,5.6-13.4,8.4-20.1c1.5,0.7,3,1.4,4.5,2.1c-0.8,1-1.7,2.1-2.5,3.1
		c1.6-0.6,5.4,0.5,2.5-3.1c1.4,0.4,2.9,0.8,4.3,1.2c-2.7,7-5.3,14-8,21c-0.5-0.6-0.9-1.3-1.4-1.9c1.8-4.2,5.6-8.5-1.3-12.1
		c-1.1,3.3-2.3,7-3.5,10.7C29.8,383.9,28.9,384,28,384.2z"/>
	<path class="st28" d="M28,384.2c0.9-0.1,1.7-0.3,2.6-0.4c1.6,0.5,3.2,1,4.8,1.5c0.5,0.6,0.9,1.3,1.4,1.9
		c-2.1,5.6-4.3,11.3-6.4,16.9c-1.6-0.5-3.1-0.9-4.7-1.4c-0.2-2.7-0.5-5.3-0.7-8C26,391.2,27,387.7,28,384.2z"/>
	<path class="st20" d="M40.5,365c-1.5-0.7-3-1.4-4.5-2.1c2.3-4.8,4.4-9.8,7-14.4c0.6-1,3.2-1.3,4.7-1.1c0.8,0.1,1.8,2.5,1.6,3.5
		c-1.3,5.1-3,10.2-4.5,15.2C43.4,365.8,42,365.4,40.5,365C40.5,365,40.5,365,40.5,365z M44.3,360.2c0.5-0.2,1-0.4,1.5-0.6
		c0-1.9,0.2-3.8-0.1-5.6c-0.1-0.5-2.4-1.1-2.9-0.7c-1,0.8-2.4,2.7-2.1,3.4C41.3,358,43,359,44.3,360.2z"/>
	<path class="st24" d="M118.5,325.9c-8.4,1.6-16.8,3.2-25.1,4.8c0-2.1,0-4.2,0-6.5c0.9-0.1,2-0.1,3.1-0.2c2,0.2,4,0.7,5.9,0.5
		c5-0.6,9.9-1.6,14.9-2.5C117.7,323.2,118.1,324.5,118.5,325.9z"/>
	<path class="st20" d="M184.4,310.1c1.3,0.3,2.6,0.6,3.9,0.9c-1.4,1.9-2.7,3.9-3.8,5.4c-7.2-0.9-13.7-1.7-20.1-2.5
		c0-1.1,0.1-2.1,0.1-3.2c5.1-0.1,10.1-0.2,15.2-0.4C181.3,310.3,182.9,310.2,184.4,310.1z"/>
	<path class="st22" d="M80.8,461.7c5.3,4.6,10.7,9.3,15.9,13.9c2,1.8,3.7,3.8,5.7,5.5c6.1,5.6,6.2,6.4-0.2,12.3
		c-1,1-2.4,1.6-3.6,2.4c-0.8,0-1.5-0.1-2.3-0.1c2.6-3.2,5.2-6.3,8.2-10c-8.1-7.4-16.1-14.7-24.1-22.1
		C80.6,463.1,80.7,462.4,80.8,461.7z"/>
	<path class="st16" d="M110.6,396.9c-1.7,4.4-3.2,8.9-5.2,13c-3.1,6.2-6.7,12-9.8,18.2c-1.6,3.2-3.4,3.6-6.2,1.8
		c0-0.7,0.1-1.4,0.1-2c4.3,0.8,4.7-2.8,5.9-5.3c4.2-8.2,8.4-16.5,12.6-24.7C108.9,397.6,109.8,397.3,110.6,396.9z"/>
	<path class="st22" d="M89.5,428c0,0.7-0.1,1.4-0.1,2c-8.6-5-17.2-10.1-25.8-15.1c1.8-1.4,3.6-2.8,5.2-4.4c0.1-0.1-1.3-1.7-1.8-2.4
		c0.5-0.2,1.5-0.6,2.5-1c0.7-0.4,1.3-0.7,1.9-1.1c0.4,1,0.9,2,1.3,3c-1.1,2.2-2.1,4.4-3.2,6.6c0.9,0.6,1.4,1.1,1.9,1.4
		C77.5,420.7,83.5,424.4,89.5,428z"/>
	<path class="st21" d="M128.5,284c-0.5-1.2,1.1-4.4-2.5-2.7c-0.2,0.1-0.8-0.8-1.2-1.2c0.6-0.4,1.2-0.8,1.8-1.2
		c2.8-1.5,14.3,0.5,15.9,3c0.6,0.9,0.7,2.6,0.2,3.6c-0.3,0.7-2,1.4-2.9,1.2C136.1,286,132.3,284.9,128.5,284z"/>
	<path class="st20" d="M86.6,509c-1.3,0.1-3.2,0.9-3.8,0.3c-8.4-7.8-16.7-15.7-25-23.7c-0.5-0.5-0.3-1.8-0.4-2.7
		c0.8,0,1.6,0.1,2.4,0.1c5.9,6,11.7,12.1,17.7,17.9c2.4,2.4,5.4,4.3,8.1,6.4C85.8,507.8,86.2,508.4,86.6,509z"/>
	<path class="st20" d="M96.5,323.9c-1.1,0.1-2.2,0.1-3.1,0.2c0,2.4,0,4.5,0,6.5c-3.3,0.2-6.5,0.5-9.8,0.7c0.6-1.8,1.3-3.5,1.9-5.3
		c-0.4-3.4,0.6-5.4,4.5-5.2c0.8,0,1.6-1.4,2.5-2.2c1-0.2,2-0.4,3-0.6c0,0.6,0,1.2,0,1.8c0.7,0.4,1.3,0.7,2,1.1
		c0.1,0.4,0.1,0.8,0.2,1.2C97.3,322.8,96.9,323.4,96.5,323.9z"/>
	<path class="st24" d="M110.6,396.9c-0.8,0.3-1.7,0.7-2.6,1c-3.1-1.5-6.1-3-9.3-4.5c1.6-4.3,3.2-8.4,4.7-12.5c0.3-0.3,0.7-0.6,1-0.9
		c1,0.7,2.6,1.3,2.8,2.1C108.6,387.1,109.5,392,110.6,396.9z M107.5,393.9c0.1,0.2,0.2,0.3,0.3,0.5c0-0.1,0-0.2,0-0.3
		C107.8,394.1,107.6,394,107.5,393.9c-0.6-2.3-1.1-4.5-1.7-6.8c-0.5,0-1.1-0.1-1.6-0.1c-0.6,1.6-2,3.8-1.4,4.8
		C103.5,393,105.9,393.3,107.5,393.9z"/>
	<path class="st18" d="M118.5,325.9c-0.4-1.3-0.8-2.6-1.3-4c-0.6-0.7-1.2-1.4-1.8-2.1c0-0.6,0-1.2,0-1.8c0.3,0,0.6-0.1,0.9-0.1
		c0.5-0.4,1.1-0.8,1.6-1.2c-0.5-0.3-1-0.5-1.5-0.8c-0.7,0-1.4,0.1-2,0.1c0-0.4,0-0.7,0-1.1c5.2,0.8,10.5,1.6,15.7,2.4
		c0.1,0.8,0.3,1.7,0.4,2.5C126.6,321.9,122.6,323.9,118.5,325.9z"/>
	<path class="st24" d="M142.4,381c-3.9-2.6-8-5-11.9-7.8c-6-4.3-11.9-8.7-17.8-13.1c1.6,0.2,3.6-0.2,4.7,0.6
		c8.8,6.2,17.5,12.6,26.2,19C143.3,380.2,142.8,380.6,142.4,381z"/>
	<path class="st16" d="M59.7,483c-0.8,0-1.6-0.1-2.4-0.1c0.3-0.6,0.5-1.5,0.9-1.7c6.7-2.6,9.9-8.6,14-13.9c0.8-1,2.9-1.1,4.6-1.7
		c1.9-5.3,1.9-5.3,4-3.8c-0.1,0.7-0.2,1.4-0.3,2.1c-0.5,1.5-1,3-1.4,4.3c-1.9,0.8-3.9,1.2-5.2,2.4C69.2,474.7,66.6,481.3,59.7,483z"
		/>
	<path class="st29" d="M25,394.7c0.2,2.7,0.5,5.3,0.7,8c-4.3,1.4-7.4,10.6-4.6,13.7c0.3,0.3,1.5-0.2,2.2-0.3c0,3.8-2.2,5.3-7.3,6
		c2-8.5,3.8-16.1,5.6-23.8C22.8,397.1,23.9,395.9,25,394.7z"/>
	<path class="st24" d="M112.7,366.7c4.3,2.7,8.7,5.2,12.8,8c5.1,3.5,10,7.4,15,11.1c0,0.4-0.1,0.8-0.1,1.2
		c-6.9-4.3-13.9-8.5-20.8-12.9c-2.9-1.8-5.5-4.1-8.2-6.2C111.8,367.6,112.3,367.1,112.7,366.7z"/>
	<path class="st15" d="M23.4,416.1c-0.8,0.1-1.9,0.6-2.2,0.3c-2.9-3.1,0.3-12.3,4.6-13.7c1.6,0.5,3.1,0.9,4.7,1.4
		C28.1,408.1,25.7,412.1,23.4,416.1z"/>
	<path class="st18" d="M37.5,441.8c0-0.6,0-1.2,0-1.9c4.1,1.3,5.2,3.4,4.3,8.1c-1.4,7.5-1.1,15.3-1.5,22.9c-0.6,0-1.2,0-1.8,0
		c0-7.7,0.1-15.5,0-23.2C38.4,445.8,37.8,443.8,37.5,441.8z"/>
	<path class="st16" d="M112.7,366.7c-0.4,0.4-0.8,0.9-1.3,1.3c-3.6-3.2-7.3-6.2-10.6-9.6c-1.1-1.2-1.2-3.4-1.8-5.1
		c1.6,0.1,3.4-0.4,4.7,0.3c2.7,1.4,5.1,3.4,7.6,5.2c-2.7-0.9-5.4-1.9-8.1-2.8c-0.4,0.5-0.8,0.9-1.2,1.4
		C105.6,360.5,109.1,363.6,112.7,366.7z"/>
	<path class="st16" d="M114.5,315c0,0.4,0,0.7,0,1.1c-2.1,0.7-4.2,1.4-6.3,2.1c0.1,0.3,0.1,0.6,0.2,0.9c2.4-0.4,4.7-0.7,7.1-1
		c0,0.6,0,1.2,0,1.8c-6,0.8-11.9,1.6-17.9,2.5c-0.1-0.4-0.1-0.8-0.2-1.2c2.5-0.5,5.1-1,7.6-1.6c-2-0.5-4-0.6-5.8-0.4
		c-1.3,0.1-2.5,0.6-3.8,0.9c0-0.6,0-1.2,0-1.8C101.8,317.1,108.2,316,114.5,315z"/>
	<path class="st17" d="M69.6,407.1c-1,0.4-2,0.8-2.5,1c0.5,0.7,1.9,2.3,1.8,2.4c-1.6,1.6-3.4,3-5.2,4.4c-0.8-0.4-1.6-0.7-2.4-1.1
		c-1.9-4,1.1-6.3,3.2-8.9C66.2,405.7,67.9,406.4,69.6,407.1z"/>
	<path class="st28" d="M131.5,486.9c2.1,0,4.2,0,6.9,0c0,2.9,0,5.4,0,7.9C131.1,495.4,130.9,495.1,131.5,486.9z"/>
	<path class="st19" d="M155.4,343c-3.8-3.8-3.7-4.1,2.2-10.6c1.2,2.6,2.2,4.8,3.3,7c-0.1,0.5-0.2,1-0.4,1.6
		c-1.1,0.6-2.1,1.2-3.2,1.9C156.7,342.9,156,343,155.4,343z"/>
	<path class="st24" d="M86.6,509c-0.4-0.6-0.7-1.1-1.1-1.7c3.6-3.8,7.3-7.6,10.9-11.4c0.8,0,1.5,0.1,2.3,0.1
		C94.6,500.3,90.6,504.6,86.6,509z"/>
	<path class="st19" d="M85.5,326.1c-0.6,1.8-1.3,3.6-1.9,5.3c-4.3,0-3.6-3.5-4-5.9c-0.4-2.5,0.3-4.7,3.5-4.7
		C83.9,322.5,84.7,324.3,85.5,326.1z"/>
	<path class="st20" d="M140.4,387.1c0-0.4,0.1-0.8,0.1-1.2c4.6,0,3.4-2.4,1.9-4.8c0.4-0.4,0.8-0.9,1.2-1.3c2.3,2,4.6,4,6.9,6
		c-0.4,0.4-0.8,0.8-1.2,1.2c-3.3-1.6-4-0.3-3.5,2.8c-0.8,0-1.6,0.1-2.5,0.2C142.4,389,141.4,388,140.4,387.1z"/>
	<path class="st17" d="M132.6,262c-2.2,0.1-4.4,0.3-6.9,0.4c0.4-1.5,0.7-3,1.1-4.4c0.4,0,0.8,0,1.1,0c1.3,0.4,2.6,1.2,3.9,1.3
		c3.2,0,6.3-0.3,9.5-0.5c-0.5,0.9-0.9,2.5-1.6,2.6C137.4,261.9,135,261.8,132.6,262z"/>
	<path class="st21" d="M215.5,315.9c-1.1,1.6-2,3.6-3.4,4.9c-1.6,1.4-3.7,2.3-5.6,3.4c0.4-1.4,0.3-3.5,1.3-4.2
		C210.1,318.4,212.9,317.3,215.5,315.9z"/>
	<path class="st22" d="M109.6,285.1c0,0.6-0.1,1.3-0.1,1.9c-3.3,0-6.7,0-10,0c0-0.7,0-1.4,0-2C102.8,285.1,106.2,285.1,109.6,285.1z
		"/>
	<path class="st28" d="M85.5,326.1c-0.8-1.8-1.6-3.6-2.4-5.3c1.8-0.6,3.5-1.3,5.3-1.9c0.8-0.1,1.6-0.2,2.4-0.2c0.6,0,1.1,0,1.7,0.1
		c-0.8,0.8-1.7,2.2-2.5,2.2C86.1,320.7,85.1,322.6,85.5,326.1z"/>
	<path class="st21" d="M160.5,341.1c0.1-0.5,0.2-1,0.4-1.6c3.3,1.1,6.5,2.3,9.8,3.4c-1.1,0-2.2,0.1-3.3,0.1
		C165,342.4,162.8,341.7,160.5,341.1z"/>
	<path class="st21" d="M155.4,343c0.6,0,1.3-0.1,1.9-0.1c-0.2,3-0.4,5.9-0.6,8.9c-0.8,0-1.6,0.1-2.3,0.1
		C154.7,349,155.1,346,155.4,343z"/>
	<path class="st16" d="M90.8,318.6c-0.8,0.1-1.6,0.2-2.4,0.2C89.2,318.7,90,318.7,90.8,318.6z"/>
	<path class="st13" d="M160.6,519.8c-0.4,0.4-0.7,0.8-1.1,1.1c-2.5,2.7-4.9,5.4-7,7.7c-2,0-4.3,0-6.5,0c-3.5,0.1-7,0.7-10.4,0.3
		c-5.1-0.6-8.2-6-6.1-10.7c1.5-3.3,4-6.2,6-9.3c6-1,12-2,18-3.1c9.3,2.9,9.7,3.6,7.2,12.5C160.6,518.8,160.6,519.3,160.6,519.8z"/>
	<path class="st19" d="M89.7,542.9c-1.4,3-2.8,7.3-5.2,10.9c-2.2,3.3-5.6,1.4-8.6,0.3c-8-3-9.9-7.2-6.7-15.1
		c0.3-0.6,0.3-1.3,0.6-1.9c1.5-3.4,2-7.8,7.6-6.5C85.6,532.7,88.6,535.5,89.7,542.9z M69.3,542.9c1,4.2,4.3,6.8,9.1,7.1
		c2.8,0.2,6.7-5.8,7.1-10.5c0.2-2.9-5.2-7.7-8.6-6.1C73.6,534.9,71.8,539.6,69.3,542.9z"/>
	<path class="st16" d="M135.5,508.9c-2.1,3.1-4.6,6-6,9.3c-2.1,4.7,1,10.1,6.1,10.7c3.4,0.4,6.9-0.2,10.4-0.3c2.2-0.1,4.4,0,6.5,0
		c2.1-2.3,4.6-5,7-7.7c-1.7,4.3-3.3,8.5-5,12.8c-0.3,0.8-1.4,2-1.7,1.9c-0.9-0.3-2.1-1-2.3-1.9c-0.9-3.1-2.8-2.7-5.4-2.4
		c-3.7,0.5-7.6,0.6-11.3-0.2c-4.3-0.9-7.1-4-7.4-8.8c-0.4-6.3,2.5-10.7,7.9-13.6C134.7,508.8,135.1,508.9,135.5,508.9z"/>
	<path class="st19" d="M193.9,511.8c3.7-0.9,6.6,0.4,8.9,3.4c-2.1,4.9-4.2,9.9-6.4,14.8c-1-2.8-2.1-5.5-3.1-8.3c-0.4,0-0.7,0-1.1,0
		c-1.2,3.7-2.4,7.4-3.7,11.1c-0.9,0.1-1.8,0.2-2.7,0.3c-0.1-0.3-0.3-0.7-0.4-1C188.4,525.3,191.1,518.5,193.9,511.8z"/>
	<path class="st28" d="M186,533c0.9-0.1,1.8-0.2,2.6-0.3c1.9,0.4,3.9,0.8,5.9,1.2c-2,6.4-4,12.8-6.1,19.1c-1.6-0.5-3.1-0.9-4.7-1.4
		c-0.3-2.7-0.5-5.3-0.8-8C184,540.1,185,536.6,186,533z"/>
	<path class="st16" d="M199.5,595.9c-1-0.3-1.9-0.7-2.9-1c1.1-3.6-1.5-4.5-4-4.7c-5.9-0.4-11.9-0.5-17.9-0.3c-1.1,0-2.9,1.7-3.2,2.9
		c-0.7,3-0.6,6.2-1,9.3c-0.2,1.7-0.7,3.4-1.1,5.2c0-0.3-0.1-0.7-0.1-1c-0.3-0.5-0.6-1-0.9-1.5c0-3.7-0.1-7.3,0.1-11
		c0.2-4,2.6-6.9,6.5-6.8c6.9,0.1,13.9,0.8,20.7,1.8C199.3,589.5,201.9,591.7,199.5,595.9z"/>
	<path class="st29" d="M183,543.6c0.3,2.7,0.5,5.3,0.8,8c-4,0.2-4.9,3.5-4.9,6.2c0,2.6-2.6,6.3,1.8,8c-1.3,1.6-2.6,3.2-3.9,4.8
		c-0.4-1.4-1-2.9-1-4.3c-0.3-7.5,1.5-14.6,5.1-21.3C181.5,544.6,182.2,544.1,183,543.6z"/>
	<path class="st15" d="M180.6,565.8c-4.4-1.8-1.8-5.4-1.8-8c0-2.8,0.9-6,4.9-6.2c1.6,0.5,3.1,0.9,4.7,1.4
		C185.8,557.3,183.2,561.6,180.6,565.8z"/>
	<path class="st14" d="M183,543.6c-0.7,0.5-1.5,0.9-2.2,1.4c-0.4-5.1-0.8-10.2-1-15.4c0-0.5,1.2-1.5,2-1.6c0.8-0.1,1.9,0.3,2.5,0.9
		c0.7,0.8,1,2,1.4,3c0.1,0.3,0.3,0.7,0.4,1C185,536.6,184,540.1,183,543.6z"/>
	<path class="st21" d="M31.4,553c0.7,0,1.4,0,2.1,0c1.1,0.3,2.5,1.1,3.2,0.7c3.5-2,6.8-4.3,10.2-6.7c0.4-0.3,0.2-1.5,0.2-2.3
		c0.3-0.4,0.6-0.7,0.9-1.1c2.6,1.4,3.7,3.3,1,5.3c-4.7,3.3-9.6,6.1-15,9.4C33,556.1,32.2,554.5,31.4,553z"/>
	<path class="st15" d="M194.5,533.9c-1.9-0.4-3.9-0.8-5.9-1.2c1.2-3.7,2.4-7.4,3.7-11.1c0.4,0,0.7,0,1.1,0c1,2.8,2.1,5.5,3.1,8.3
		C195.8,531.3,195.1,532.6,194.5,533.9z"/>
	<path class="st21" d="M160.6,519.8c0-0.5-0.1-1,0.1-1.5c2.5-8.8,2.1-9.6-7.2-12.5c-0.3-0.6-0.7-1.3-1-1.9
		c10.1,0,14.7,5.6,11.1,13.6C163.2,518.6,161.6,519.1,160.6,519.8z"/>
	<path class="st17" d="M227.6,556.1c-1,0.4-2.1,0.8-2.6,1c0.5,0.7,1.9,2.3,1.8,2.4c-1.6,1.6-3.4,3-5.2,4.4c-0.8-0.4-1.6-0.7-2.4-1.1
		c-1.9-4,1.1-6.3,3.2-8.9C224.1,554.6,225.9,555.4,227.6,556.1z"/>
	<path class="st22" d="M152.5,504c0.3,0.6,0.7,1.3,1,1.9c-6,1-12,2-18,3.1c-0.4-0.1-0.8-0.1-1.2-0.2c2.4-1.3,4.6-3,7.1-3.6
		C145,504.3,148.8,504.3,152.5,504z"/>
	<path class="st16" d="M97.4,573.7c1.2,1.5,2.4,3,3.6,4.5c-0.3,0.3-0.6,0.5-0.9,0.8c-1.2-0.7-2.4-1.4-3.6-2.1
		C96.8,575.9,97.1,574.8,97.4,573.7z"/>
	<path class="st20" d="M51.5,575.6c0,0.5,0.1,1,0.1,1.4c-0.7,0-1.4-0.1-2.1-0.1C50.2,576.5,50.8,576.1,51.5,575.6z"/>
	<path class="st18" d="M168.5,604.9c0.3,0.5,0.6,1,0.9,1.5C169.1,605.9,168.8,605.4,168.5,604.9z"/>
	<path class="st9" d="M242.7,533.9c0.3-0.1,0.5-0.1,0.8,0c0.9,0.4,1.7,0.8,2.6,1c1.1,0.3,2.4,0.1,3.3,0.6c0.5,0.3,0.7,2,0.3,2.5
		c-0.6,0.8-1.8,1.3-2.8,1.6c-2.7,0.6-5.5,0.9-8.3,1.4c-0.4,0-0.7-0.1-1.1-0.1C239.2,538.5,240.9,536.2,242.7,533.9z"/>
	<path class="st21" d="M237.5,540.8c0.4,0,0.7,0.1,1.1,0.1c-2.4,4.7-4.8,9.3-7.3,14c-0.2,0-0.4,0-0.6,0.1c1.2-3.1,2.7-6.2,3.6-9.5
		c0.4-1.3-0.5-3-0.8-4.4l0,0c1,0,2-0.1,2.9-0.1C236.8,540.9,237.2,540.8,237.5,540.8z"/>
	<path class="st21" d="M173.5,299c2,0,4.1-0.4,5.9,0.1c1.3,0.4,2.9,2.1,2.9,3.3c0,1.2-1.7,3.3-2.8,3.4c-4,0.4-8,0.4-12-0.2
		c-1.3-0.2-2.4-2.3-3.5-3.6c1.3-1.1,2.5-2.6,4-3.1c1.7-0.5,3.6-0.1,5.5-0.1C173.5,298.9,173.5,298.9,173.5,299z M179.1,302.8
		c0-0.4,0-0.7-0.1-1.1c-4,0-8,0-12,0c0,0.4,0,0.7,0,1.1C171.1,302.8,175.1,302.8,179.1,302.8z"/>
	<path class="st21" d="M192.6,615c-4.8-0.1-9.6,0.1-14.4-0.4c-1.6-0.2-3.8-2.1-4.1-3.5c-0.5-2.6,1.6-3.5,4.2-3.3
		c2.5,0.2,5,0.1,7.4,0.2C192.6,608.1,192.6,608.1,192.6,615C192.6,615,192.6,615,192.6,615z M189.2,612.8c0.1-0.7,0.2-1.5,0.2-2.2
		c-4.1,0-8.3,0-12.4,0c0,0.4,0,0.8,0,1.3C181.1,612.2,185.1,612.5,189.2,612.8z"/>
	<path class="st16" d="M171.4,619.7c-0.3,0.6-0.7,1.2-1,1.8c-0.1-0.5-0.1-1-0.2-1.4C170.6,620,171,619.8,171.4,619.7z"/>
	<path class="st9" d="M265.5,542.9c0.1,0.1,0.2,0.2,0.4,0.2C265.7,543.1,265.6,543,265.5,542.9L265.5,542.9z"/>
	<path class="st17" d="M156.7,351.8c0.2-3,0.4-5.9,0.6-8.9c1.1-0.6,2.1-1.2,3.2-1.9c2.3,0.6,4.6,1.3,6.8,2c-1.4,1.8-2.7,3.7-4.1,5.4
		c-0.9,1-2,1.9-2.9,2.9c-0.1,0.2-0.3,0.4-0.5,0.5C158.8,351.8,157.8,351.8,156.7,351.8z"/>
	<path class="st19" d="M11.5,512c0.4-0.4,0.7-0.7,1.1-1.1C12.2,511.3,11.8,511.6,11.5,512z"/>
	<path class="st21" d="M49.5,585.1c-1,0-2,0-3.1,0.1c0-0.4,0-0.8,0.1-1.2c6.4-2.3,12.8-4.7,19.3-7.1c0.1,2.7,0.3,4.6,0.4,7.2
		c-5.7,1.9-11.7,3.9-17.7,6c-0.2-0.3-0.5-0.6-0.7-0.9c0.6-0.7,1.1-1.4,1.7-2.2c1.1-0.4,2.2-0.9,3.3-1.3c-0.2-0.4-0.3-0.9-0.5-1.3
		C51.4,584.6,50.5,584.8,49.5,585.1z M64.2,582c-0.2-0.5-0.3-1.1-0.5-1.6c-3.4,1.1-6.7,2.2-10.1,3.2c0.2,0.6,0.4,1.2,0.6,1.8
		C57.5,584.3,60.9,583.2,64.2,582z"/>
	<path class="st24" d="M68.5,587.9c-5,1.6-9.9,3.3-14.9,4.8c-1.4,0.4-3,0.2-4.5,0.2c6.2-2.3,12.5-4.7,18.7-7
		C68,586.6,68.3,587.2,68.5,587.9z"/>
	<path class="st24" d="M55.5,601.9c-0.9-0.2-1.8-0.3-2.7-0.5c-0.1-0.3-0.1-0.6-0.2-0.9c5-2,10-4.1,15-6.2c1.2,0,2.4,0,3.6,0
		c0.1,0.4,0.2,0.9,0.4,1.3C66.2,597.7,60.8,599.8,55.5,601.9z"/>
	<path class="st24" d="M67.5,593c-5.4,1.6-10.8,3.3-16.2,4.9c-0.2-0.6-0.4-1.2-0.7-1.9c6.3-2.1,12.6-4.2,18.9-6.2
		C68.9,590.9,68.2,592,67.5,593z"/>
	<path class="st22" d="M46.1,594.9c-0.8-1-1.7-2-2.5-3.1c1.3,0.4,2.7,0.7,4,1.1C47.1,593.6,46.6,594.2,46.1,594.9z"/>
	<path class="st23" d="M49.5,585.1c1-0.3,1.9-0.5,2.9-0.8c0.2,0.4,0.3,0.9,0.5,1.3c-1.1,0.4-2.2,0.9-3.3,1.3
		C49.5,586.3,49.5,585.7,49.5,585.1z"/>
	<path class="st23" d="M46.5,583.9c0,0.4,0,0.8-0.1,1.2c-1,0.7-2.1,1.3-3.1,2c0.2-1.1,0.3-2.2,0.5-3.3
		C44.7,583.9,45.6,583.9,46.5,583.9z"/>
	<path class="st23" d="M147.5,566.9c-4.9,0.9-9.7,1.8-15.4,2.8C136.5,565.2,145.1,564,147.5,566.9
		C147.5,566.9,147.5,566.9,147.5,566.9z"/>
	<path class="st22" d="M102.6,626.8c6.6-1.1,13.2-2.2,19.8-3.2c0.1,0.5,0.2,1,0.2,1.4c-6.6,1.1-13.2,2.1-19.8,3.2
		C102.7,627.7,102.6,627.3,102.6,626.8z"/>
	<path class="st22" d="M115.8,632.2c2.6-0.5,5.1-1,7.7-1.5c0.1,0.4,0.2,0.8,0.2,1.2c-2.6,0.5-5.1,1-7.7,1.5
		C116,633,115.9,632.6,115.8,632.2z"/>
	<path class="st24" d="M114.7,585c-1.3-0.1-2.6-0.3-4.6-0.4c0.8-1.5,1.3-2.7,1.9-3.7c3.9-5.4,2.8-8.6-3.7-11c-1.2-0.5-2-1.9-3-2.9
		c1.4-3.4,2.9-4.3,5.3-0.5c1.2,1.9,2.9,3.6,4.6,5c3.4,2.7,3.9,5.3,0.7,8.6C114.9,581,115.1,583.3,114.7,585z"/>
	<path class="st13" d="M109.6,285.1c-3.4,0-6.7-0.1-10.1-0.1c-1-1.1-2.9-2.2-2.9-3.4c-0.2-7.3,0-14.6,0-21.9c0-3,1.3-4.1,4.3-4
		c4.7,0.2,9.3,0.3,14,0.1c2.8-0.1,3.8,1,3.8,3.8c-0.1,7.5-0.1,14.9-0.1,22.4C117.2,287.7,112.5,284,109.6,285.1z M113.8,283
		c0.3-0.6,0.7-1.1,1-1.7c-1.7-1.1-3.3-2.2-4.9-3.2c-2-1.1-3.6-2.7-1.4-4.6c4.8-4,2.6-6.9-1-10c-1.4-1.2-2.3-2.8-3.7-4
		c-1-0.8-2.4-1.3-3.7-1.4c-0.4,0-1.7,1.6-1.5,2c0.6,1.1,1.5,2.3,2.5,2.8c5.8,2.6,6.8,5.8,3.6,11.3c-0.6,1.1-0.9,3.5-0.4,3.8
		C107.4,279.9,110.7,281.4,113.8,283z"/>
	<path class="st9" d="M233.6,541.1c0.3,1.5,1.1,3.1,0.8,4.4c-0.9,3.2-2.3,6.3-3.6,9.5c-1.1,0.4-2.1,0.8-3.2,1.1
		c-1.7-0.7-3.4-1.5-5.1-2.2c3.3-6.1,6.6-12.2,9.9-18.3C232.7,537.4,233.2,539.2,233.6,541.1z"/>
	<path class="st13" d="M233.6,541.1c-0.4-1.8-0.9-3.7-1.3-5.5c1.4-2.9,2.8-5.8,4.1-8.6c1,0.3,2,0.7,3.1,1c0.7,0.3,1.3,0.7,2,1
		c0.4,0.4,0.8,0.8,1.1,1.1c0,1.3,0.1,2.5,0.1,3.8c-1.7,2.3-3.5,4.6-5.2,6.9c-0.3,0-0.7,0.1-1,0.1c-0.6-0.9-1.2-1.7-1.8-2.6
		C234.3,539.2,234,540.1,233.6,541.1L233.6,541.1z"/>
	<path class="st23" d="M242.6,530c-0.4-0.4-0.8-0.8-1.1-1.1c-0.4-1-0.8-2-1.1-3c-1.2,0-2.4,0.1-3.5,0.1c1.1-2,2.2-4,3.7-6.6
		c2,1.2,5.6,2.6,5.5,3.4C245.6,525.3,243.8,527.6,242.6,530z"/>
	<path class="st9" d="M236.8,526c1.2,0,2.4-0.1,3.5-0.1c-0.3,0.7-0.6,1.3-0.8,2c-1-0.3-2-0.7-3.1-1
		C236.4,526.6,236.6,526.3,236.8,526z"/>
	<path class="st13" d="M37.5,441.8c0.3,2,0.9,3.9,0.9,5.9c0.1,7.7,0,15.5,0,23.2c-2.7-0.5-5.4-1.3-8.2-1.4c-5.8-0.2-11.6-0.1-18-0.1
		c0-4,0-7.2,0-10.5c0.1-4,0.3-7.9,0.4-11.8c0.1-4.3,1.7-6.8,6.6-6.3C25.4,441.4,31.5,441.5,37.5,441.8z M25.1,459c0-0.1,0-0.1,0-0.2
		c-1.5,0-3,0.2-4.5,0c-2.8-0.4-4.9,0.7-4.4,3.5c0.3,1.4,2.6,3.1,4.1,3.3c3.4,0.5,6.9,0.1,10.4,0.3c2.7,0.1,4.5-0.9,3.7-3.6
		c-0.3-1.3-2.1-2.8-3.5-3.2C29.2,458.6,27.1,459,25.1,459z"/>
	<path class="st16" d="M13.2,470.9c-0.2,0.2-0.4,0.4-0.6,0.6c-0.2-0.3-0.5-0.6-0.7-0.9c0.3-0.1,0.5-0.4,0.8-0.3
		C12.9,470.3,13,470.7,13.2,470.9z"/>
	<path class="st15" d="M197,506.8c2.2-2.7,3.1-4.5,4.6-5.5c0.4-0.3,2.9,1.1,3.3,2.2c0.4,1-0.3,3.6-1,3.8
		C202.3,507.7,200.4,507.1,197,506.8z"/>
	<path class="st18" d="M125.5,255.6c0,0.6,0,1.2,0,1.8C125.5,256.8,125.5,256.2,125.5,255.6z"/>
	<path class="st23" d="M145.9,389.8c-0.6-3.1,0.2-4.5,3.5-2.8c1.5,1.5,2.9,3,4.4,4.4c-0.3,0.4-0.5,0.8-0.8,1.3
		C150.7,391.7,148.3,390.8,145.9,389.8z"/>
	<path class="st9" d="M71.4,605.6c-0.3,0.4-0.7,0.8-1,1.3C70.8,606.5,71.1,606,71.4,605.6z"/>
	<path class="st17" d="M47,544.7c0,0.8,0.2,2-0.2,2.3c-3.3,2.4-6.7,4.7-10.1,6.7c-0.7,0.4-2.1-0.4-3.2-0.7c2.1-1.9,4.2-3.8,6.3-5.7
		C42.2,546.4,44.6,545.5,47,544.7z"/>
	<path class="st5" d="M386,444.5c11.3-5.3,17.5-5.9,19.6-2.1C398.9,443.1,392.7,446.3,386,444.5z"/>
	<path class="st9" d="M133.6,466.9c0-4.3-0.2-8.6,0.1-12.9c0.1-1.3,1.5-2.4,2.4-3.6c0.8,1.2,2.3,2.4,2.2,3.5
		c0,8.6-0.3,17.2-0.7,25.8c-0.1,1.1-1.3,2.2-2,3.3c-0.7-1.2-2-2.4-2.1-3.6c-0.3-4.1-0.1-8.3-0.1-12.4
		C133.5,466.9,133.5,466.9,133.6,466.9z"/>
	<path class="st13" d="M103.4,381c-1.5,4.1-3.1,8.1-4.7,12.5c3.2,1.5,6.2,3,9.3,4.5c-4.2,8.3-8.4,16.5-12.6,24.7
		c-1.3,2.5-1.7,6.1-5.9,5.3c-6-3.7-12-7.3-18-11c-0.6-0.3-1-0.8-1.9-1.4c1.1-2.3,2.2-4.5,3.2-6.6c2.7-4.7,6.1-9.3,8-14.3
		c1.6-4.2,3.6-5.2,7.6-4.3c1,0.2,2.4-0.6,3.3-1.3c0.4-0.3,0.2-2.2-0.3-2.4c-0.9-0.5-2.2-0.4-3.3-0.7c-0.9-0.2-1.7-0.7-2.6-1
		c1.8-3,3.1-7.8,5.6-8.5c2.6-0.7,6.3,2.5,9.5,4C101.5,380.7,102.5,380.8,103.4,381z"/>
	<path class="st9" d="M85.5,384.9c0.9,0.4,1.7,0.8,2.6,1c1.1,0.3,2.4,0.1,3.3,0.7c0.5,0.3,0.7,2.1,0.3,2.4c-0.9,0.7-2.3,1.5-3.3,1.3
		c-4-0.9-6,0.1-7.6,4.3c-1.9,5-5.3,9.6-8,14.3c-0.4-1-0.9-2-1.3-3c1.3-3.1,2.6-6.2,4.1-9.6c-2.1-1-3.7-1.7-5.3-2.5c1-2,2-4,3.1-6
		c1.9,0.8,3.8,1.6,5,2.1c2.4-1.9,4.3-3.5,6.3-5.1C84.9,384.8,85.2,384.8,85.5,384.9z"/>
	<path class="st13" d="M84.7,384.9c-1.9,1.6-3.9,3.2-6.3,5.1c-1.2-0.5-3.1-1.3-5-2.1c1.7-3.3,3.4-6.6,5.1-10c1,0.3,2,0.7,3,1
		c0.7,0.3,1.3,0.7,2,1c0.4,0.4,0.8,0.7,1.1,1.1C84.6,382.3,84.7,383.6,84.7,384.9z"/>
	<path class="st13" d="M70.3,393.9c1.6,0.8,3.2,1.5,5.3,2.5c-1.4,3.4-2.8,6.5-4.1,9.6c-0.7,0.4-1.3,0.7-1.9,1.1
		c-1.7-0.7-3.4-1.4-5.1-2.2C66.4,401.3,68.4,397.6,70.3,393.9z"/>
	<path class="st23" d="M84.6,381c-0.4-0.4-0.8-0.7-1.1-1.1c-0.4-1-0.8-2-1.2-3c-1.2,0-2.3,0.1-3.5,0.1c1.1-2,2.2-4,3.7-6.6
		c2.1,1.2,5.6,2.6,5.5,3.4C87.6,376.3,85.8,378.6,84.6,381z"/>
	<path class="st9" d="M78.8,377c1.2,0,2.3-0.1,3.5-0.1c-0.3,0.7-0.6,1.4-0.8,2c-1-0.3-2-0.7-3-1C78.5,377.6,78.6,377.3,78.8,377z"/>
	<path class="st15" d="M135.7,420c-5.9-0.1-11.1-3-11.1-6.2c0-4.8,2.6-8.9,5.4-8.7c6.8,0.3,11.4,2.9,11.4,6.4
		C141.5,416,138.8,420,135.7,420z"/>
	<path class="st17" d="M140,271.5c-4.9,0-9.7,0-14.8,0C127.4,268.6,131.2,268.4,140,271.5z"/>
	<path class="st15" d="M35.5,385.3c-1.6-0.5-3.2-1-4.8-1.5c1.2-3.7,2.4-7.4,3.5-10.7C41.1,376.7,37.3,381,35.5,385.3z"/>
	<path class="st20" d="M40.5,365c2.9,3.6-1,2.6-2.5,3.1C38.8,367,39.7,366,40.5,365C40.5,365,40.5,365,40.5,365z"/>
	<path class="st15" d="M44.3,360.2c-1.3-1.2-3-2.1-3.6-3.5c-0.3-0.8,1-2.6,2.1-3.4c0.5-0.4,2.8,0.3,2.9,0.7c0.3,1.8,0.1,3.7,0.1,5.6
		C45.3,359.8,44.8,360,44.3,360.2z"/>
	<path class="st17" d="M97.6,322.2c6-0.8,11.9-1.6,17.9-2.5c0.6,0.7,1.2,1.4,1.8,2.1c-5,0.9-9.9,1.9-14.9,2.5
		c-1.9,0.3-4-0.3-5.9-0.5C96.9,323.4,97.3,322.8,97.6,322.2z"/>
	<path class="st13" d="M96.4,495.9c-3.6,3.8-7.3,7.6-10.9,11.4c-2.7-2.1-5.6-4-8.1-6.4c-6-5.9-11.8-11.9-17.7-17.9
		c6.9-1.7,9.5-8.2,14.1-12.4c1.3-1.2,3.4-1.6,5.2-2.4c0.4-1.3,0.9-2.8,1.4-4.3c8,7.4,16,14.7,24.1,22.1
		C101.6,489.5,99,492.7,96.4,495.9z M76.5,479.9L76.5,479.9c-0.3,0.3-0.7,0.7-1,1l0,0c-0.3,0.3-0.7,0.7-1,1l0,0
		c-0.3,0.3-0.7,0.7-1,1l0,0c-0.3,0.3-0.7,0.7-1,1l0,0c-0.9,0.8-1.9,1.6-2.8,2.5c0.8,0.2,1.6,0.5,2.4,0.7c-0.2,0.6-0.4,1.3-0.6,1.9
		c1.2,0.7,2.3,1.3,3.5,2c0.5,0.4,1,0.8,1.6,1.1c0.3,1,0.7,1.9,1.1,2.8c0.3,0,0.6,0,0.9-0.1c0.6,0.4,1.1,0.8,1.7,1.2
		c0.7,0.2,1.8,0.8,2.1,0.5c4-3.9,8-8,11.8-12.1c0.3-0.4-0.3-1.7-0.5-2.5c-0.6-0.3-1.2-0.6-1.8-1c-0.7-0.3-1.4-0.6-2.1-1
		c-0.1-0.4-0.2-0.8-0.3-1.3c-0.6-0.5-1.1-1.1-1.7-1.6l0-0.2c-1.3-1-2.7-2-4-3c-0.6-0.4-1.6-1.3-1.7-1.1c-1,0.9-1.9,2.1-2.8,3.1
		c-0.2,0.1-0.4,0.2-0.5,0.5c-0.3,0.8-0.7,1.7-1,2.5l0,0C77.2,479.2,76.8,479.6,76.5,479.9z"/>
	<path class="st22" d="M95.5,319.9c1.3-0.3,2.5-0.8,3.8-0.9c1.9-0.1,3.8,0,5.8,0.4c-2.5,0.5-5.1,1-7.6,1.6
		C96.8,320.7,96.2,320.3,95.5,319.9z"/>
	<path class="st9" d="M107.5,393.9c-1.7-0.7-4.1-0.9-4.7-2.1c-0.6-1,0.9-3.1,1.4-4.8c0.5,0,1.1,0.1,1.6,0.1
		C106.4,389.4,107,391.7,107.5,393.9L107.5,393.9z"/>
	<path class="st9" d="M107.5,394c0.1,0.1,0.3,0.1,0.3,0.2c0.1,0,0,0.2,0,0.3C107.7,394.3,107.6,394.1,107.5,394
		C107.5,393.9,107.5,394,107.5,394z"/>
	<path class="st22" d="M115.5,318c-2.4,0.4-4.7,0.7-7.1,1c-0.1-0.3-0.1-0.6-0.2-0.9c2.1-0.7,4.2-1.4,6.3-2.1c0.7,0,1.4-0.1,2-0.1
		c0,0.7-0.1,1.3-0.1,2C116.2,317.9,115.8,318,115.5,318z"/>
	<path class="st16" d="M116.5,317.9c0-0.7,0.1-1.3,0.1-2c0.5,0.3,1,0.5,1.5,0.8C117.5,317.1,117,317.5,116.5,317.9z"/>
	<path class="st15" d="M69.3,542.9c2.5-3.3,4.3-7.9,7.6-9.5c3.4-1.7,8.8,3.1,8.6,6.1c-0.3,4.8-4.3,10.7-7.1,10.5
		C73.6,549.6,70.3,547.1,69.3,542.9z"/>
	<path class="st9" d="M233.6,541c0.4-0.9,0.8-1.8,1.2-2.7c0.6,0.9,1.2,1.7,1.8,2.6C235.5,540.9,234.5,541,233.6,541z"/>
	<path class="st17" d="M179.1,302.8c-4,0-8,0-12,0c0-0.4,0-0.7,0-1.1c4,0,8,0,12,0C179,302,179,302.4,179.1,302.8z"/>
	<path class="st17" d="M189.2,612.8c-4.1-0.3-8.1-0.6-12.2-0.9c0-0.4,0-0.8,0-1.3c4.1,0,8.3,0,12.4,0
		C189.4,611.4,189.3,612.1,189.2,612.8z"/>
	<path class="st9" d="M64.2,582c-3.3,1.2-6.7,2.3-10,3.4c-0.2-0.6-0.4-1.2-0.6-1.8c3.4-1.1,6.7-2.2,10.1-3.2
		C63.9,580.9,64.1,581.5,64.2,582z"/>
	<path class="st22" d="M113.8,283c-3.2-1.6-6.5-3.1-9.5-5.1c-0.5-0.3-0.2-2.7,0.4-3.8c3.2-5.5,2.1-8.7-3.6-11.3
		c-1.1-0.5-2-1.7-2.5-2.8c-0.2-0.3,1-2,1.5-2c1.3,0.1,2.7,0.6,3.7,1.4c1.4,1.1,2.4,2.8,3.7,4c3.6,3.1,5.8,6,1,10
		c-2.3,1.9-0.6,3.4,1.4,4.6c1.7,1,3.3,2.1,4.9,3.2C114.5,281.9,114.2,282.5,113.8,283z"/>
	<path class="st22" d="M239.5,527.9c0.3-0.7,0.6-1.3,0.8-2c0.4,1,0.8,2,1.1,3C240.8,528.6,240.1,528.3,239.5,527.9z"/>
	<path class="st21" d="M25.1,459c2,0,4.1-0.4,5.9,0.1c1.4,0.4,3.1,1.9,3.5,3.2c0.7,2.7-1,3.7-3.7,3.6c-3.5-0.2-7,0.2-10.4-0.3
		c-1.6-0.3-3.9-2-4.1-3.3c-0.5-2.9,1.6-3.9,4.4-3.5c1.5,0.2,3,0,4.4,0C25.1,458.9,25.1,458.9,25.1,459z M31.1,462.8
		c0-0.4,0-0.7-0.1-1.1c-4,0-7.9,0-11.9,0c0,0.4,0,0.7,0,1.1C23.1,462.8,27.1,462.8,31.1,462.8z"/>
	<path class="st22" d="M81.5,379c0.3-0.7,0.6-1.4,0.8-2c0.4,1,0.8,2,1.2,3C82.8,379.6,82.2,379.3,81.5,379z"/>
	<path class="st23" d="M75,490.9c-1.2-0.7-2.3-1.3-3.5-2c1-1,2-2,3-3l0,0c0.3-0.3,0.7-0.7,1-1l0,0c0.3-0.3,0.7-0.7,1-1l0,0
		c0.3-0.3,0.7-0.7,1-1l0,0c0.3-0.3,0.7-0.7,1-1l0,0c0.3-0.3,0.7-0.7,1-1l0,0c0.3-0.3,0.7-0.7,1-1l0,0c0.3-0.3,0.7-0.7,1-1l0,0
		c0.3-0.3,0.7-0.7,1-1l0,0c1-0.4,2-0.7,3-1c0.7,0,1.4,0,2,0l0,0.2c-1.8,2.5-3.5,5.1-5.2,7.6c-0.3,0.3-0.7,0.6-1,1
		c-0.3,0.4-0.5,0.9-0.8,1.3l0,0c-0.3,0.3-0.7,0.7-1,1l0,0c-0.3,0.3-0.7,0.7-1,1l0,0c-0.3,0.3-0.7,0.7-1,1l0,0c-0.3,0.3-0.7,0.7-1,1
		l0,0C76,490.9,75.5,490.9,75,490.9z"/>
	<path class="st23" d="M91.7,480.9c0.6,0.3,1.2,0.6,1.8,1c-4.4,4.7-8.9,9.4-13.3,14.1c-0.6-0.4-1.1-0.8-1.7-1.2c0-0.6,0-1.3,0-1.9
		l0,0c0.3-0.3,0.7-0.7,1-1l0,0c0.3-0.3,0.7-0.7,1-1l0,0c0.3-0.3,0.7-0.7,1-1l0,0c2.1-1.9,4.2-3.8,6.3-5.8
		C89.1,483.1,90.4,482,91.7,480.9z"/>
	<path class="st22" d="M80.2,496c4.4-4.7,8.9-9.4,13.3-14.1c0.2,0.9,0.9,2.2,0.5,2.5c-3.8,4.1-7.8,8.1-11.8,12.1
		C82,496.8,80.9,496.2,80.2,496z"/>
	<path class="st14" d="M78.5,476.4c0.1-0.2,0.2-0.4,0.5-0.5c1.4-0.5,2.8-0.9,4.2-1.4c0.2,0.2,0.4,0.4,0.6,0.6
		c-0.4,0.9-0.8,1.9-1.2,2.8l0,0c-0.3,0.3-0.7,0.7-1,1l0,0c-0.3,0.3-0.7,0.7-1,1l0,0c-0.3,0.3-0.7,0.7-1,1l0,0c-0.3,0.3-0.7,0.7-1,1
		l0,0c-0.3,0.3-0.7,0.7-1,1l0,0c-0.3,0.3-0.7,0.7-1,1l0,0c-0.3,0.3-0.7,0.7-1,1l0,0c-0.3,0.3-0.7,0.7-1,1l0,0
		c-0.9,0.2-1.9,0.3-2.8,0.5c0.2-0.8,0.5-1.7,0.7-2.5l0,0c0.3-0.3,0.7-0.7,1-1l0,0c0.3-0.3,0.7-0.7,1-1l0,0c0.3-0.3,0.7-0.7,1-1l0,0
		c0.3-0.3,0.7-0.7,1-1l0,0c0.3-0.3,0.7-0.7,1-1l0,0C77.8,478.1,78.2,477.2,78.5,476.4z"/>
	<path class="st18" d="M82.3,484.7c1.8-2.5,3.5-5.1,5.2-7.6c0.6,0.5,1.1,1.1,1.7,1.6c-0.3,0.4-0.7,0.7-1,1.1
		c-1.8,1.7-3.5,3.4-5.2,5.2h-0.5L82.3,484.7z"/>
	<path class="st23" d="M77.6,494.9c-0.3-1-0.7-1.9-1.1-2.8c0-0.4,0-0.8,0-1.1l0,0c0.3-0.3,0.7-0.7,1-1l0,0c0.3-0.3,0.7-0.7,1-1l0,0
		c0.3-0.3,0.7-0.7,1-1l0,0c0.3-0.3,0.7-0.7,1-1l0,0c0.3-0.2,0.7-0.3,1-0.5c0,1.2,0,2.3,0,3.5l0,0c-0.3,0.3-0.7,0.7-1,1l0,0
		c-0.3,0.3-0.7,0.7-1,1l0,0c-0.3,0.3-0.7,0.7-1,1l0,0C78.2,493.6,77.9,494.2,77.6,494.9z"/>
	<path class="st20" d="M83.1,474.6c-1.4,0.5-2.8,0.9-4.2,1.4c0.9-1.1,1.8-2.2,2.8-3.1c0.1-0.1,1.1,0.7,1.7,1.1
		C83.3,474.1,83.2,474.3,83.1,474.6z"/>
	<path class="st20" d="M72.5,483.9c-0.2,0.8-0.5,1.7-0.7,2.5c0,0.3,0.1,0.5,0.3,0.7c-0.8-0.2-1.6-0.5-2.4-0.7
		C70.6,485.5,71.5,484.7,72.5,483.9z"/>
	<path class="st18" d="M72.1,487.1c-0.3-0.2-0.4-0.4-0.3-0.7c0.9-0.1,1.9-0.3,2.8-0.5c-1,1-2,2-3,3
		C71.7,488.3,71.9,487.7,72.1,487.1z"/>
	<path class="st14" d="M83.1,474.6c0.1-0.2,0.2-0.5,0.4-0.6c1.3,1,2.7,2,4,3c-0.7,0-1.4,0-2,0c-0.6-0.6-1.2-1.2-1.8-1.8
		C83.5,475,83.3,474.8,83.1,474.6z"/>
	<path class="st16" d="M91.7,480.9c-1.3,1.1-2.6,2.2-3.9,3.2c-0.2-0.2-0.4-0.4-0.6-0.6c0.8-1.2,1.6-2.4,2.4-3.6h0
		C90.3,480.3,91,480.6,91.7,480.9z"/>
	<path class="st16" d="M77.6,494.9c0.3-0.7,0.6-1.3,0.9-2c0,0.6,0,1.3,0,1.9C78.2,494.9,77.9,494.9,77.6,494.9z"/>
	<path class="st20" d="M78.5,476.4c-0.3,0.8-0.7,1.7-1,2.5C77.8,478.1,78.2,477.2,78.5,476.4z"/>
	<path class="st20" d="M73.5,482.9c-0.3,0.3-0.7,0.7-1,1C72.8,483.6,73.1,483.2,73.5,482.9z"/>
	<path class="st20" d="M74.5,481.9c-0.3,0.3-0.7,0.7-1,1C73.8,482.6,74.1,482.2,74.5,481.9z"/>
	<path class="st20" d="M75.5,480.9c-0.3,0.3-0.7,0.7-1,1C74.8,481.6,75.2,481.2,75.5,480.9z"/>
	<path class="st18" d="M76.5,490.9c0,0.4,0,0.8,0,1.1c-0.5-0.4-1-0.8-1.6-1.1C75.5,490.9,76,490.9,76.5,490.9z"/>
	<path class="st14" d="M88.3,479.8c0.3-0.4,0.7-0.7,1-1.1c0.1,0.4,0.2,0.8,0.3,1.3h0C89.1,479.9,88.7,479.9,88.3,479.8z"/>
	<path class="st20" d="M76.5,479.9c-0.3,0.3-0.7,0.7-1,1C75.8,480.6,76.2,480.2,76.5,479.9z"/>
	<path class="st20" d="M77.5,478.9c-0.3,0.3-0.7,0.7-1,1C76.8,479.6,77.2,479.2,77.5,478.9z"/>
	<path class="st17" d="M31.1,462.8c-4,0-8,0-12,0c0-0.4,0-0.7,0-1.1c4,0,8,0,11.9,0C31,462,31,462.4,31.1,462.8z"/>
	<path class="st18" d="M83.7,475.2c0.6,0.6,1.2,1.2,1.8,1.8c-1,0.4-2,0.7-3,1C82.9,477,83.3,476.1,83.7,475.2z"/>
	<path class="st18" d="M76.5,484c0.3-0.3,0.7-0.7,1-1C77.2,483.3,76.9,483.6,76.5,484z"/>
	<path class="st18" d="M78.5,482c0.3-0.3,0.7-0.7,1-1C79.2,481.3,78.9,481.6,78.5,482z"/>
	<path class="st18" d="M80.5,486.9c-0.3,0.3-0.7,0.7-1,1C79.8,487.6,80.2,487.3,80.5,486.9z"/>
	<path class="st18" d="M79.5,481c0.3-0.3,0.7-0.7,1-1C80.2,480.3,79.9,480.6,79.5,481z"/>
	<path class="st18" d="M80.5,480c0.3-0.3,0.7-0.7,1-1C81.2,479.3,80.9,479.6,80.5,480z"/>
	<path class="st18" d="M77.5,483c0.3-0.3,0.7-0.7,1-1C78.2,482.3,77.9,482.6,77.5,483z"/>
	<path class="st18" d="M81.3,485.7c0.3-0.3,0.7-0.6,1-1l0.2,0.2c-0.3,0.3-0.7,0.7-1,1L81.3,485.7z"/>
	<path class="st18" d="M77.5,489.9c-0.3,0.3-0.7,0.7-1,1C76.8,490.6,77.2,490.3,77.5,489.9z"/>
	<path class="st18" d="M74.5,486c0.3-0.3,0.7-0.7,1-1C75.2,485.3,74.8,485.6,74.5,486z"/>
	<path class="st18" d="M81.5,479c0.3-0.3,0.7-0.7,1-1C82.2,478.3,81.9,478.6,81.5,479z"/>
	<path class="st18" d="M78.5,488.9c-0.3,0.3-0.7,0.7-1,1C77.8,489.6,78.2,489.3,78.5,488.9z"/>
	<path class="st18" d="M75.5,485c0.3-0.3,0.7-0.7,1-1C76.2,484.3,75.9,484.6,75.5,485z"/>
	<path class="st18" d="M79.5,487.9c-0.3,0.3-0.7,0.7-1,1C78.8,488.6,79.2,488.3,79.5,487.9z"/>
	<path class="st18" d="M81.5,486.5c-0.3,0.2-0.7,0.3-1,0.5c0.3-0.4,0.5-0.8,0.8-1.3l0.3,0.3C81.5,486.1,81.5,486.3,81.5,486.5z"/>
	<path class="st16" d="M81.5,486.5c0-0.2,0-0.4,0-0.5c0.3-0.3,0.7-0.7,1-1H83c1.4-0.5,2.8-0.9,4.2-1.4c0.2,0.2,0.4,0.4,0.6,0.6
		c-2.1,1.9-4.2,3.8-6.3,5.8C81.5,488.8,81.5,487.6,81.5,486.5z"/>
	<path class="st16" d="M80.5,491c0.3-0.3,0.7-0.7,1-1C81.2,490.3,80.8,490.6,80.5,491z"/>
	<path class="st16" d="M79.5,492c0.3-0.3,0.7-0.7,1-1C80.2,491.3,79.8,491.6,79.5,492z"/>
	<path class="st16" d="M78.5,493c0.3-0.3,0.7-0.7,1-1C79.2,492.3,78.8,492.6,78.5,493z"/>
	<path class="st23" d="M87.2,483.6c-1.4,0.5-2.8,0.9-4.2,1.4c1.8-1.7,3.5-3.4,5.2-5.2c0.4,0.1,0.9,0.1,1.3,0.2
		C88.8,481.2,88,482.4,87.2,483.6z"/>
</g>
<path class="st30" d="M108.1,161c2.6,0.2,3.9-0.2,5.5-0.4c5.4-0.4,7.4,3.1,11.6,1.7c0.5-0.2,2-0.6,2.1-1.6c0.2-1-1.3-2-3-3.3
	c-0.7-0.5-1.6-1.1-2.8-1.7c-1.6-0.7-3.1-1-4.1-1.1c-3.5,0.5-6.2,1.4-8.1,2.2c-1.2,0.5-4.9,2.1-4.7,3.1
	C104.6,160.8,106.7,160.9,108.1,161z"/>
<path class="st30" d="M195.1,174.6c-2.6-0.5-3.7-1.3-5.2-1.8c-5.2-1.9-7.6,0.9-11.6-1.4c-1.7-1-3.1-2.5-2.8-3c0.2-0.3,0.8,0,2.1-0.3
	c1.1-0.2,1.1-0.6,2.8-1.2c0.7-0.3,1.3-0.4,2.1-0.7c1-0.3,1.7-0.5,2.4-0.6c0.8-0.1,2.1-0.2,3.8,0.2c0.9,0.5,2.3,1.4,3.8,2.5
	c0.6,0.5,6.9,5.1,6.2,6.3C198.5,175.3,196.7,174.9,195.1,174.6z"/>
<path class="st10" d="M140.3,121.3c-16.7,0.7-38.8,1.9-45.6,15c-3,5.7-0.6,9.2-5.1,29.5c-2.4,11.1-3.5,11.9-2.9,15.3
	c2.3,12.8,20.9,19.4,32.8,23.6c9.6,3.4,30.4,10.4,55.5,4.4c9.7-2.3,20.7-5.1,27.9-14.8c5.2-7,6.1-14.5,7.1-23
	c1.4-10.9,2.7-22.4-2-31.7C197.5,119,159.1,120.6,140.3,121.3z"/>
<path class="st31" d="M113,129.8c7.4-1.1,14.3-2.1,22.5-3.3C129.3,133.5,115.9,135,113,129.8z"/>
<path class="st31" d="M186.3,139.9c-0.3-0.7-0.2-1.6,0.1-2.2c0.2-0.3,1.3-0.2,1.8,0.1c4.8,3.1,9.5,6.3,14.9,10
	C198.6,148.8,187.9,143.5,186.3,139.9z"/>
<path class="st32" d="M105.2,145.8c1.9-1.2,3.6-2.9,5.6-3.5c1.7-0.5,3.7,0.3,5.6,0.6c-0.1,0.5-0.1,1-0.2,1.5c-2,0.9-4.4,1.3-6,2.7
	c-4,3.3-5,9-2.7,13c3.1,5.5,7.5,7.6,12.7,6.1c5.9-1.7,10.2-6.6,9.7-11.6c-0.2-2.8-0.8-5.9-4.6-5.8c-3.7,0-6.5,3.3-6.2,7.2
	c1.5-0.9,2.9-1.7,4.6-2.7c1.8,3.6-0.1,5.8-2.6,6.4c-1.6,0.4-4.8-0.8-5.5-2.1c-0.9-1.9-1.1-5.9,0.1-6.8c3.1-2.6,7.2-4,11-5.8
	c0.6-0.3,1.5,0.1,2.3,0.2c0.9,0.5,1.7,1,2.6,1.6c5.6,12.4-2,24.2-14.9,24.1c-7.8,0-18-11.7-13.3-20.1c0.3-0.6,0.2-1.5,0.3-2.2
	C104.2,147.5,104.7,146.6,105.2,145.8z"/>
<path class="st32" d="M185.9,181.9c-1-0.4-2-0.9-3-1.3c-9.1-3-13.1-10.7-10-19.6c2.9-8.4,12.3-12.8,20.7-9.2
	c1.7,0.7,2.8,2.7,4.9,4.8c-5.4-0.7-9.2-1.7-12.9-1.7c-5.1,0.1-9.1,4.7-9.7,10.3c-0.5,5.4,2.4,9.7,7.7,11.3c5.5,1.7,10,0.3,12.3-3.6
	c2.5-4.4,1.9-7.4-1.7-9.3c-3.8-2-6.6-0.9-9.2,4c1.1-0.1,2-0.3,2.9-0.3c1.3,0.1,2.5,0.3,3.7,0.5c-0.9,1.1-1.7,3-2.6,3.1
	c-2.4,0.1-5.3,0-7.1-1.3c-0.9-0.6-0.5-4.4,0.5-6.2c2.6-4.7,8.6-6,13.5-3.6c5.1,2.6,6.5,6.8,4.6,12.6c-1.8,5.2-5.7,7.7-10.6,9.3
	C188.5,181.9,187.2,181.9,185.9,181.9z"/>
<path class="st30" d="M171.7,176.3c1.2,1.5,2.6,2.1,4,2.8c2,0.9,3.9,1.3,7.8,1.9c2.2,0.4,3.1,0.5,5.7,0.8c0.7,0.1,1.5,0.2,2.7,0.3
	c0.3,0,1.5,0.1,3-0.1c0.8-0.1,1.8-0.2,2.9-0.4c0.2,0.8,0.6,2.8-0.5,4.5c-1,1.6-2.7,2.1-3.5,2.3c-9.6,2.4-21.2-1.3-25.1-11.5
	c-0.5-1.3,0.6-3.3,1-5C170,173,170.4,174.7,171.7,176.3z"/>
<path class="st30" d="M106,168.9c3,0.9,5.8,1.6,8.3,2c2.7,0,5.3,0.1,8,0.1c0.8,0.1,1.9,0.1,3.1-0.1c1.2-0.2,2.1-0.5,2.9-0.8
	c0.8-0.5,1.6-0.9,2.5-1.4c0.5-0.2,0.9-0.4,1.3-0.6c-0.2,5.8-3.7,9-8.9,9.4c-5.7,0.4-11.6,0.3-17.1-1.1c-5.7-1.4-6.4-3.8-5-9.2
	C102.7,167.7,104.3,168.3,106,168.9z"/>
<path class="st33" d="M155.4,207.1c-0.6,1.4-3.6,2.4-5.6,2.5c-1.8,0.1-3.7-1.1-5.5-1.8c-2.6-1-5-2.4-7.6-3.2c-4.6-1.2-8.1-4.6-7.8-8
	c0.4-4.1,3.8-6.9,8.9-7.2c7.7-0.4,13.4,2.9,18,9.7C155.7,201.8,156.3,204.8,155.4,207.1z M136.9,192.5c-2.7,0.6-5.8,1.8-4.9,4.8
	c0.6,2,4,4.5,6,4.3c2.9-0.3,4.4,0.8,6.1,2.3c0.6,0.5,1.2,1.2,1.9,1.3c2,0.4,4.1,0.6,6.2,0.9c0.1-2,0.2-4,0.3-6
	C148.6,194.5,142.5,191.4,136.9,192.5z"/>
</svg>
