<?xml version="1.0" encoding="utf-8"?>
<!-- Generator: Adobe Illustrator 23.0.3, SVG Export Plug-In . SVG Version: 6.00 Build 0)  -->
<svg version="1.1" id="Ebene_1" xmlns="http://www.w3.org/2000/svg" xmlns:xlink="http://www.w3.org/1999/xlink" x="0px" y="0px"
	 viewBox="0 0 491.7 663.2" style="enable-background:new 0 0 491.7 663.2;" xml:space="preserve">
<style type="text/css">
	.st0{fill:#FBE0E0;}
	.st1{fill:#2D2A3D;}
	.st2{fill:#B34644;}
	.st3{fill:#F9DEDE;}
	.st4{fill:#A66365;}
	.st5{fill:#483E4A;}
	.st6{fill:#534751;}
	.st7{fill:#F5A267;}
	.st8{fill:#F7B381;}
	.st9{fill:#333244;}
	.st10{fill:#413F50;}
	.st11{fill:#535160;}
	.st12{fill:#F9C29D;}
	.st13{fill:#EAE3E7;}
	.st14{fill:#F5F0F3;}
	.st15{fill:#BDA5B2;}
	.st16{fill:#B8A0AF;}
	.st17{fill:#AE94A4;}
	.st18{fill:#B994A1;}
	.st19{fill:#C3AEBA;}
	.st20{fill:#8F6C82;}
	.st21{fill:#C8B8C3;}
	.st22{fill:#EED4D3;}
	.st23{fill:#F4B7B9;}
	.st24{fill:#FAC59F;}
	.st25{fill:#FAF7F8;}
	.st26{fill:#E2D8DD;}
	.st27{fill:#E98944;}
	.st28{fill:#8D726A;}
	.st29{fill:#C6967F;}
	.st30{fill:#F9C49E;}
	.st31{fill:#89726F;}
	.st32{fill:#3C3A4C;}
	.st33{fill:#E88138;}
</style>
<g>
	<path class="st0" d="M48.5,554.3c-0.5-0.4-0.9-0.7-1.4-1.1c3.3-0.7,6.6-1.4,10-2.2c1,1.4,1.9,2.8,2.8,4.2c0.4,3.4,1.9,4.4,5,2.3
		c1.7-1.1,3.6-1.9,5.1-3.2c2.3-2,4.2-4.2,6.3-6.4c2.6-3.4-2.1-1.5-2.2-3c0.1-0.5,0.1-1.3,0.3-1.4c8.2-3.2,16.4-6.3,24.6-9.5
		c-0.8,2.2-1.4,4.4-2.3,6.6c-2.7,6.4-1.7,10.4,4.3,13.5c2.8,1.4,7.8,3.1,9.1,1.8c3.2-3.2,5.6-7.7,6.7-12.1c0.6-2.4-2-5.9-3.9-8.3
		c-1.2-1.5-3.8-1.8-5.7-2.7c3.5-2.9,6.6-6.7,10.5-8.5c9-4,18.4-7,27.6-10.4c-0.1,0.5-0.1,0.9-0.2,1.3c3,1,6.1,1.9,9.1,2.9
		c0.1,2.3-0.2,4.7,0.2,7c0.9,5.5,6.6,9.1,15.1,7.7c5.5-0.9,8.8-0.3,10,5.4c0,0.2,0.6,0.2,1.4,0.4c1.5-4.5,2.9-9,4.4-13.5
		c7.3,1.4,14.5,2.7,21.8,4.1c0,1.8-0.1,3.6,0.1,5.4c0.3,3.8,0.8,7.6,1.2,11.3c-1.1,3.3-2.1,6.7-3.2,10c-0.4,4.3-0.9,8.7-1.3,13
		c-0.3,0.7-0.5,1.5-0.8,2.2c1.4-0.7,2.7-1.4,4-2.1c0.4-0.4,0.8-0.8,1.1-1.2c0.6-1,1.2-2,1.8-3c4.8-2.1,5-6.8,6.1-11
		c2.4-6.6,4.8-13.2,7.2-19.8c1.6,0.1,3.4-0.2,4.9,0.4c8.1,3,16,6.2,24.1,9.3c-3.1,6.3-6.3,12.6-9.4,18.8c7.2,4,13.7,7.9,20.4,11.3
		c3.4,1.7,7.2,2.7,10.8,4c2.1,4,4.9,4.4,7,0.8c2.8-5,5.4-10.1,8-15.2c4.7,4,9.6,7.7,14,11.9c21,20,10.6,49.2-14,57.6
		c-4.5-4.9-9-10-13.7-14.7c-3.1-3.1-6.7-5.8-10.5-9.1c-0.9,3.2-1.6,5.3-2.4,8c-3.7-2.2-5.4-0.9-7.9,2c-2.9,3.4-4.2,8.9-9.7,9.8
		c-4.9,2.8-5.2,4-1.5,7.6c1.4,1.3,3.2,2.3,4.8,3.5c1.3,2,2.5,4,3.8,5.9c-4.8,0.8-9.5,1.7-14.3,2.5c-10.2,1.6-20.4,3.2-30.6,4.7
		c-2.8-0.8-5.7-1.6-8.5-2.4c-1.1-2.3-2.3-4.6-3.6-7.3c-6,7.2-6,8.1-1,10.7c-1.3,0.5-2.6,1.4-4,1.5c-11.7,1.2-23.5,3.2-35.3,3.1
		c-20.4-0.2-40.9-1.6-61.3-2.9c-9.4-0.6-18.7-2.3-28.7-3.7c0.5-7.9,1-15.5,1.5-23.1c13.5-4.5,26.9-9.1,40.5-13.4
		c3.9-1.2,5.1-3.2,4.2-6.8c1.5,0.1,3,0,4.5,0.3c23.4,4.4,47,3.7,70.6,2.5c-0.2,1-0.5,1.9-0.6,2.9c-0.5,6.5-0.9,12.9-1.4,19.4
		c-0.1,1.1-0.4,2.9-0.1,3c1.3,0.6,2.9,1,4.2,0.7c0.8-0.2,1.7-1.8,1.8-2.8c0.5-7.9,0.8-15.9,1.1-23.8c1.4-0.3,2.7-0.6,4.1-0.9
		c0,3.5,0.1,6.9,0,10.4c-0.1,4,2.3,5.1,5.6,5.2c4.7,0.1,9.4,0.3,14.1,0c4-0.3,9.8,2.7,10.6-4.8c0.5-7.9,1-15.8,1.5-23.8
		c2.5-4.3-0.2-6.4-3.7-7c-6.8-1-13.7-1.7-20.6-1.9c-4-0.1-6.3,2.8-6.6,6.7c-0.3,3.6-0.2,7.3-0.2,10.9c-11.9,1-23.8,2.5-35.7,2.8
		c-17.5,0.4-34.8-1.1-52-4.8c-3.3-10.3-6.6-20.7-9.9-31.1c-1-3.2-3.1-2.2-5.2-1.5c-10,3.3-20.1,6.6-30.1,10
		c-5.7-6.4-8.4-14.3-11.1-22.3C51.4,557.2,49.7,555.8,48.5,554.3z M136.1,625.1c-0.3,0-0.7,0-1,0.1c-1.3,0.3-2.7,0.6-4,0.9
		c-1.3,0.2-2.6,0.4-3.9,0.7c-0.6,0-1.2,0-1.8,0c-0.8,0.1-1.6,0.2-2.4,0.2c-2.7,1.4-5.3,2.8-8,4.2c-1.7,5.2-0.6,7.7,3.5,8.3
		c3.1-0.3,6.3-0.6,9.4-0.9c4.4-0.8,8.8-1.7,13.2-2.5c4-0.7,8.1-1.4,12.1-2.1c4-2,8-4,12.1-6c-0.1-0.8-0.3-1.6-0.4-2.4
		c-5.2-0.8-10.4-1.6-15.6-2.4c-3.7,0.6-7.4,1.2-11,1.8C137.4,625,136.8,625.1,136.1,625.1z M162.6,566.1c-0.4,0-0.8,0-1.2-0.1
		c-1.1-0.5-2.2-1-3.4-1.5c0-0.7,0-1.3,0.1-1.9c0.4-0.5,0.8-1.1,1.2-1.6c-1.2-0.3-2.5-1-3.7-0.9c-7.3,0.3-14.5,1-21.8,0.9
		c-4.4,0-5.4,1.8-5.3,5.7c0.1,3.1,1,6.5-3.4,8.1c-0.9,0.3-1,6.5-0.1,6.9c4.6,2.1,2.7,5.8,3.3,8.9c0.4,1.8,1.6,4.8,2.7,4.8
		c4.3,0.3,8.7-0.3,13.1-0.5c4.8,0.8,9.6,1.6,14.4,2.4c-0.2-0.6-0.4-1.3-0.5-1.9c1.7-1.1,3.5-2.3,5.2-3.4c3.3,0.8,6.6,1.9,10,2.4
		c1.4,0.2,3.1-0.8,4.6-1.2c-1-1.6-1.7-4.1-3.2-4.6c-4.1-1.6-8.6-2.5-12.9-3.6c-0.3,0-0.6,0-1,0c0.5-1,0.9-2,1.4-3c0.3,0,0.7,0,1,0
		c0.7,0,1.4,0.1,2,0.1c2,0,4-0.1,6-0.1c2.2-0.4,5.6,1.8,6-2.8c0.3-4.5-2.9-3.9-5.7-3.9c-3.6,0-7.3,0-10.9,0c0-0.5-0.1-0.9-0.1-1.4
		c1.2-0.6,2.4-1.2,3.7-1.8c3.9-0.7,7.9-1.2,11.7-2.4c1.1-0.3,1.9-2.7,2-4.2c0.1-0.5-2.1-2.1-3.1-1.9
		C170.6,564.2,166.6,565.2,162.6,566.1z"/>
	<path class="st1" d="M100,65.9c3.4-2.5,6.9-4.9,10.6-7.5c-1.6,0-3,0-4.4,0c0-1.1-0.1-2.2-0.1-3.2c4.3-1.8,9.5-2.9,11.1-8.1
		c1.2-3.7,3.3-5.5,6.9-5.9c0.1,0.9,0.2,1.8,0.3,2.8c2.7-0.8,5.2-1.2,7.4-2.3c1-0.5,1.4-2.1,2.1-3.3c1-4.8,5.6-4.2,8.7-5
		c2.7-0.7,4.2-1.6,4.4-4.3c1.2-0.7,2.5-1.5,3-1.8c-0.2-2.7-1.2-5.6-0.4-6.4c1.5-1.3,4.2-1.3,6.4-1.8c0.8-0.2,1.6,0,2.5,0
		c1.2,2.3,2.5,4.5,3.7,6.8c0.3,0.4,0.6,0.8,0.8,1.2c-0.2,0.2-0.3,0.3-0.5,0.5c0.2,0.1,0.4,0.1,0.7,0.2l-0.3,0.2l0.3-0.2
		c0.5,0.8,1,1.5,1.5,2.3c0.8,1.3,1.5,2.5,2.3,3.8c0.6,1.1,1.2,2.1,1.9,3.2c0.4,0.6,0.8,1.3,1.2,1.9c-2.5,0.7-5,1.4-7.2,2
		c-2.2-1.6-4.6-3.3-8.1-5.9c1.1,5.1-1.1,9.3,4.1,11.4c4.5,1.8,6.1-1.4,7.9-4.3c1.1,0.8,1.9,1.4,2.7,1.9c-0.3,0.3-0.6,0.5-0.9,0.8
		c-0.4,0.5-0.8,1.1-1.2,1.6c0.6,0.2,1.1,0.3,1.7,0.5c0.9-0.1,1.7-0.1,2.6-0.2c0.5-0.1,0.9-0.2,1.4-0.3c3.7,0,7.5,0.1,11.2,0.2
		c0.6,0.1,1.2,0.2,1.8,0.3c6.4,2,13.2,3.3,19.2,6.2c20.8,9.9,33.7,27.7,41.9,48c6.4,15.9,8.6,33.3,5.1,50.8
		c-2.8,14.1-5.3,28.3-8.2,42.4c-0.8,4-2.9,7.7-4.4,11.5c-1.2,0.7-2.4,1.4-3.6,2.1c-0.1-1.2-0.6-2.7-0.1-3.7
		c2.6-5.5,2.5-10.4-2.6-14.4c-1-9.2-2-18.4-3-27.5c-0.5,0.3-1,0.6-1.5,0.9c-1.5-1.7-3.6-3.2-4.4-5.1c-2.1-4.9-3.6-10.1-5.5-15.1
		c-0.5-1.3-1.8-2.2-2.8-3.3c-1.2-2.5-2.5-5-3.2-6.5c-2.7,0.6-4.5,1.2-6.3,1.4c-1.4,0.2-3-0.3-4.2,0.2c-3.9,1.6-5.9,0.2-6.9-3.6
		c0.6-2.6,0.2-4.4-3.1-4.4c-0.7,1.4-1.3,2.8-2,4.2c-1.6-1.6-3.1-3.1-4.7-4.7c0.3-0.3,0.5-0.7,0.8-1c-1.4,0.3-2.7,0.7-4.1,1
		c-0.4-0.4-0.9-0.7-1.3-1.1c5.7-1.7,6.4-5.7,5.9-10.2c-0.1-1-0.8-2-1.2-2.9c-1.1,0.5-2.1,1.1-3.2,1.6c-1.8,1-3.6,2.2-5.5,3.1
		c-0.8,0.4-2.2,0.2-2.7,0.8c-7,9-16.6,8.7-26.2,8.1c-2.2,1.3-4.5,2.2-6.8,3.1c-1.2,0.4-2.5,0.8-3.8,1.2c-3.3,2.2-4.1-0.2-4.6-2.6
		c-0.7-3.8-1.2-7.7-1.8-11.6c-0.3,0-0.6,0-0.9,0c-1.4,4.7-2.9,9.3-4.3,14c-5.8,2.1-7.1,7.1-8.2,12.3c-1.6,7.8-3.6,15.5-5.6,24.3
		c-3-4.8,1.2-10.6-4.6-14.2c-0.7,2.5-1.2,4.4-1.7,6.2c-1.3,2.3-2.6,4.7-4,7c-1.4-0.9-2.6-2.1-4.1-2.7c-8.5-3.4-15.2-1.2-15.9,8.3
		c-0.2,1.9-0.7,3.9-1.1,5.8c-3.5-1.9-8.7-14.7-6.4-17.8c4.2-5.8,3.4-12.1,3.6-18.5c0.1-2.3-0.3-4.8,0.3-6.9
		c3.8-13.7,7.8-27.3,11.9-41c0.5-1.7,1.4-3.4,2.5-4.8c5.6-7.1,11.2-14,17-21.2c-2.7-1.8-4.8-3.8-7.5-0.7
		C102.1,66.6,100.8,66.1,100,65.9z"/>
	<path class="st2" d="M99,534.2c-8.2,3.1-16.4,6.3-24.6,9.5c-0.3,0.1-0.2,0.9-0.3,1.4c-0.6,0.1-1.2,0.1-1.8,0.2
		c-5.1,1.9-10.1,3.9-15.2,5.8c-3.3,0.7-6.6,1.4-10,2.2c-1.2,0-2.4,0-2.5,0c-1.2-3.5-2.1-6.6-3.3-9.4
		c-15.9-37.4-19.2-76.5-17.8-116.7c1.5-41,12.6-78.7,32.5-114.2c10.5-18.8,24.4-34.6,43.1-45.9c3.4-1.9,6.8-3.8,10.2-5.7
		c3.3-1,6.7-2,10.1-3c0.8-0.3,1.6-0.7,2.5-1c0.4,0.1,0.9,0.1,1.3,0.2c0.2,0.5,0.3,1,0.4,1.4c-0.9,1-1.8,1.9-2.8,2.9
		c-9.7,2.4-18.3,7.1-26.1,13.1c-0.9,0.7-1.8,1.5-2.7,2.2c-2.9,2.7-5.9,5.4-8.8,8.1c-1.4,1.4-2.8,2.7-4.1,4.1
		c-1.4,1.3-2.8,2.6-4.2,3.9c-0.9,1-1.8,2-2.7,3c-0.8,1.6-1.5,3.3-2.3,4.9c-1.3,1.7-2.6,3.4-3.9,5.1c-3.2,4.7-6.3,9.3-9.5,14
		c-0.5,1.1-0.9,2.1-1.3,3.2c-0.6,0.8-1.2,1.6-1.7,2.5c-22.2,42.5-28.3,88.1-26,135.3c0.9,9,1.8,18,2.7,27c0.6,3.7,1.2,7.4,1.9,11
		c0.3,1.4,0.5,2.8,0.8,4.2c1,3.6,2.1,7.2,3.1,10.8c2,5.6,4,11.3,6,16.9c2,6.4,4.1,12.7,6.2,19.3c2-0.9,3.5-1.5,5-2.2
		c1.3-0.6,2.6-1.2,3.9-1.7c4.3-1.8,8.7-3.6,13-5.4c1-0.3,2-0.7,3-1.1c13.3-6.6,29-7.7,40.6-17.9c0.7-0.6,1.7-1,2.6-1.4
		c11.2-3.9,22.5-7.8,33.7-11.7c2.3,1.4,4.6,2.8,6.8,4.2c5.7,1.6,11.3,3.3,17,4.9c3.6,0.8,7.1,1.6,10.7,2.4
		c19.5,4.9,38.9,9.8,58.4,14.7c1.8,0.7,3.7,1.4,5.5,2.1c2.1,1,4.2,2,6.4,2.9c2.7,1.3,5.4,2.5,8.2,3.8c0.2,0.2,0.5,0.3,0.8,0.2
		c0.6,0.3,1.3,0.7,1.9,1c7.7,4.3,15.4,8.6,23.1,12.9c0.6,0.4,1.2,0.8,1.8,1.2c1.4,1.2,2.7,2.5,4.1,3.6c10.5,8.4,20,17.5,23.1,31.3
		c0,4.9,0,9.9,0,14.8c0.6,0,1.3,0,1.9,0c0.3-6.3,0.6-12.7,1-19c-0.6-6-1.2-12-1.8-17.9c-0.4-1-0.7-2-1-3c-2.4-2.9-4.7-5.9-7.1-8.8
		c-0.6-0.7-1.3-1.5-2-2.2c-4-3.3-8-6.7-12.1-10c-4-2.3-8-4.7-11.9-7c-4.3-2.5-8.7-4.9-13-7.4c-0.6-0.3-1.3-0.5-1.9-0.8
		c-2.4-1.2-4.7-2.4-7.1-3.6c-0.7-0.4-1.3-0.8-2-1.2c-2.3-1.3-4.7-2.7-7-4c0.3-0.9,0.6-1.9,0.9-2.8c21.4,10.6,43.7,19.9,60.2,38.2
		c3.5,3.9,6.9,8.9,7.9,14c3,14.8,3.6,29.8-4.1,43.7c-0.9,1.7-2.3,3.2-3.8,4.4c-21.5,17.9-46.3,27.8-74.2,30.8
		c-14,1.5-27.9,4.2-41.8,6.2c-29.7,4.3-59.5,6.4-89.5,2.8c-9.2-1.1-18.5-0.7-27.6-1.7c-7.1-0.8-14.1-2.9-21.1-4.5c0-1.2,0-2.6,0-4
		c-0.9-18.4,3.1-36.2,6-54.2c0.6-1.5,1.2-3,1.9-4.7c-3.8-4.2-8.5-7.8-11.2-12.6c-3.9-6.8-6.4-14.3-9.3-21.6c-0.4-1.1,0-2.6,0.1-3.9
		c1.2,1.5,3,2.9,3.5,4.7c2.7,8,5.3,15.9,11.1,22.3c2.3,2,4.6,4,6.9,6c2.1,2,4.2,4,6.2,5.9c0.9,0.3,1.8,0.7,2.7,1
		c1.4,0.6,2.8,1.2,4.2,1.8c2.6,0.7,5.3,1.5,7.9,2.2c4.7,1.7,9.4,3.4,14.1,5.1c1.1,0.2,2.1,0.3,3.2,0.5c17.1,3.7,34.5,5.2,52,4.8
		c11.9-0.3,23.8-1.8,35.7-2.8c0.8,0,1.5,0,2.3-0.1c4.7-0.3,9.4-0.5,14.1-0.8c2.2-0.1,3.7,0.4,2.6,3.1c-4.3,0.6-8.6,1.2-12.9,1.8
		c-1.3,0.1-2.6,0.2-3.9,0.2c-1,0-2,0.1-3,0.1c-1.4,0.3-2.7,0.6-4.1,0.9c-1.7,0.2-3.4,0.4-5,0.6c-23.6,1.2-47.2,1.9-70.6-2.5
		c-1.5-0.3-3-0.2-4.5-0.3c-1-0.2-2-0.4-3.1-0.6c-1.5,0-3,0.1-4.5,0.1l-0.1,0.1c-1.7-0.8-3.4-1.5-5.2-2.3c-1.3-0.4-2.6-0.8-3.9-1.2
		c-6-2.4-12.1-4.8-18.1-7.2c-1.4-0.9-2.8-1.8-5.1-3.2c-0.3,3.1-0.6,5.3-0.8,7.5c-1.3,8-2.6,15.9-3.9,23.9c0,1,0,2.1,0,3.1
		c-0.5,7.6-1,15.2-1.5,23.1c10,1.3,19.3,3,28.7,3.7c20.4,1.3,40.8,2.7,61.3,2.9c11.7,0.1,23.5-1.9,35.3-3.1c1.4-0.1,2.7-1,4-1.5
		c0.7-0.4,1.4-0.7,2.1-1.1c3.6,3.4,7.3,0.4,11,0.1c10.2-1.6,20.4-3.1,30.6-4.7c4.8-0.8,9.5-1.6,14.3-2.5c3.1-0.6,6.2-1.3,9.2-1.9
		c0.9-0.1,1.9-0.1,2.8-0.2c2.1-0.7,4.1-1.4,6.2-2.1c5.6-2.3,11.2-4.7,16.9-7c0.7-0.6,1.4-1.2,2.1-1.7c24.6-8.4,34.9-37.6,14-57.6
		c-4.4-4.2-9.4-8-14-11.9c-1-0.8-2-1.6-3-2.4c-7.6-4-15.2-8.1-22.9-12.1c-0.7-0.3-1.5-0.6-2.2-0.9c-2.3-0.9-4.6-1.8-6.9-2.8
		c-0.6-0.5-1.3-1-1.9-1.5c-8-3.1-16-6.3-24.1-9.3c-1.5-0.5-3.3-0.3-4.9-0.4c-3-0.7-6-1.5-9-2.2c-2.4-0.9-4.9-1.8-7.3-2.7
		c-7.3-1.4-14.5-2.7-21.8-4.1c-0.6-0.1-1.2-0.2-1.9-0.4c-9.1-1.9-18.1-3.8-27.2-5.8c-0.7-0.3-1.4-0.6-2.1-0.9c-3-1-6.1-1.9-9.1-2.9
		c0.1-0.5,0.1-0.9,0.2-1.3c-9.2,3.4-18.6,6.4-27.6,10.4c-4,1.8-7.1,5.6-10.5,8.5c-2,0.4-3.9,0.8-5.9,1.2h0
		C100.4,534.2,99.7,534.2,99,534.2z"/>
	<path class="st3" d="M232.8,260.3c1.8-0.3,3.5-0.7,5.8-1.1c0.2,1.4,0.4,2.6,0.5,3.8c-0.1,0.3-0.2,0.6-0.2,0.9l0,0.1
		c-0.3,0.8-0.6,1.5-0.9,2.3c0.2,6.1,0.4,12.2,0.7,18.3c0.7,12.5,1.4,25,2.1,37.6c-2.3,1.6-4.5,3.2-6.8,4.8c2,2.3,3.9,4.6,5.9,7
		c0.2,0.2,0.6,0.2,0.9,0.3c0,2.1,0,4.2,0,6.6c-10.8,1.5-21.1,3-31.4,4.5c-4.5,0.6-9.1,1.3-13.6,1.9l-0.3,0.1l-0.3-0.1
		c-0.2-5.6-0.3-11.2-0.7-16.8c-0.3-3.3-1.2-6.6-1.8-9.9c7.2-2.4,14.3-0.6,22.5-0.1c0.9-1.2,2.2-3.2,3.5-5.1
		c0.4-8.1,0.7-16.3,1.1-24.4c0.2-3.6-1.2-7.1-4.6-7.2c-9-0.3-18.4-4.2-27.1,1.7c-0.6-4.1-1.3-8.2-1.9-12.3
		c-3.2,3.2-2.5,6.8-1.9,10.1c1.5,8.1,3.3,16.2,4.9,24.4c0.6,2.8-0.3,4.6-3.5,5.5c-2.8,0.7-5.4,2.3-8.2,3.6c2,2.3,4.2,4.4,5.9,6.9
		c1.1,1.6,2.5,4.6,1.9,5.3c-3.3,3.5-7.1,6.5-11.5,10.3c0.1-16.8,0.3-32.5-4.8-45.6c1.7-3.2,3.4-5.1,3.8-7.3
		c0.8-4.9,1.5-9.9,1.4-14.9c-0.1-4.3,1.9-4.9,5.4-5.1c16.4-0.6,32.8-1.4,49.3-1.9C232.1,264.2,233.4,263.4,232.8,260.3z"/>
	<path class="st4" d="M67.1,597c-2.9,18-6.9,35.8-6,54.2c-6.2-3.2-13.1-1.2-19.5-2.2c-7.8-1.3-15.3-3.7-23-5.6
		c-2.1-0.5-4.1-1.7-6.1-1.9c-7.3-0.6-10.2-5.9-12-11.6c-1.8-5.6,1.7-10.1,5.7-13.4c3-2.5,6.6-4.6,10.2-5.9
		c11.9-4,24.1-7.3,35.9-11.5C57.3,597.3,61.9,595.8,67.1,597z"/>
	<path class="st2" d="M232.8,260.3c0.6,3.1-0.7,3.9-3.8,4c-16.4,0.5-32.9,1.3-49.3,1.9c-3.4,0.1-5.5,0.8-5.4,5.1
		c0.1,5-0.5,10-1.4,14.9c-0.4,2.1-2.1,4.1-3.8,7.3c5.1,13.1,4.9,28.8,4.8,45.6c4.4-3.8,8.2-6.8,11.5-10.3c0.6-0.6-0.8-3.7-1.9-5.3
		c-1.7-2.5-3.9-4.6-5.9-6.9c2.7-1.2,5.3-2.8,8.2-3.6c3.2-0.8,4-2.6,3.5-5.5c-1.6-8.1-3.4-16.2-4.9-24.4c-0.6-3.4-1.3-6.9,1.9-10.1
		c0.6,4.1,1.3,8.2,1.9,12.3c0.9,3,1.8,6.1,2.6,9.1c0.8,4.3,1.5,8.5,2.3,12.8c0.1,0.3,0.3,0.6,0.4,1c0.2,1.7,0.3,3.3,0.5,5
		c-1.7,1-3.5,2.1-5.2,3.1c-2.1,0.3-4.1,0.5-6.8,0.9c2.2,2,3.9,3.3,5.4,4.9c3.7,3.9,3.6,6.9-0.4,10.6c-1.1,1-2.2,2-3.4,2.9
		c-6.8,5.3-12.8,11-11.9,20.8c0.1,1.4-0.3,3-0.8,4.4c-0.4,0.9-1.3,1.8-2.2,2.2c-4.8,2.1-9.8,1.5-14.7,0.5c-1.4,0-2.7,0-4.1,0
		c-11.4,0.8-22.7,1.4-34,2.3c-7,0.5-14,1.5-21.1,2.3c-1.3,0.1-2.6,0.3-3.9,0.4c-9.9-0.7-10.2-0.7-9.7-10c0.7-13.4,1.9-26.8,2.9-40.2
		c0-0.5,0.7-1,1.9-2.9c0.8,3,1.9,4.8,1.8,6.7c-0.3,6.3-0.9,12.6-1.4,18.9c-0.6,8-1.2,16-1.7,24c10.2-1.1,19.4-2.1,28.7-3.1
		c4.9-0.5,9.9-1,14.8-1.5c3.7-0.4,7.3-0.9,11-1.3c8.7,0.4,17.5,0.8,26.6,1.3c0.6-1.6,1.9-3.5,2-5.5c0.9-10.6,2-21.2,1.9-31.8
		c-0.1-12.6-1.8-25.1-7.9-36.6c-3-4.3-6-8.7-9.1-13c-0.5-0.7-1.7-0.9-2.5-1.3c-0.7-0.8-1.4-1.6-2.2-2.4c-0.7-0.5-1.5-0.9-2.2-1.4
		c-4.3-2-8.6-4.1-12.9-6.1c-2.7-1-5.4-2-8.1-3c2.4-0.3,5-1.4,7.2-0.8c13.9,3.8,25.7,10.7,32.7,24.1c0.7,1.4,1.9,2.6,2.9,3.9
		c0.6-0.2,1.3-0.3,2-0.5c0.2-6.5,0.3-12.9,0.5-19.4c4-5,10-3.8,15.1-4.2c10.4-0.9,20.8-0.8,31.2-1.1
		C221.9,261,227.4,260.6,232.8,260.3z"/>
	<path class="st5" d="M100,65.9c0.8,0.1,2.1,0.6,2.4,0.3c2.7-3.1,4.9-1.2,7.5,0.7c-5.8,7.2-11.5,14.1-17,21.2
		c-1.1,1.4-2,3.1-2.5,4.8c-4.1,13.6-8.1,27.3-11.9,41c-0.6,2.2-0.3,4.6-0.3,6.9c-0.2,6.3,0.6,12.7-3.6,18.5
		c-2.3,3.1,3,15.9,6.4,17.8c0.7,6.3,1.4,12.7,2.1,19c-0.5,1.7-0.9,3.3-1.4,5c-3.2-7.4-6.7-14.6-9.6-22.1c-10.7-27.4-8.7-55,1.2-81.9
		c3.2-8.7,9.8-16.4,15.6-23.9C91.6,69.9,96.3,68.3,100,65.9z"/>
	<path class="st6" d="M437.2,63.5c1,4.6,2.1,9.3,2.9,13.9c5.2,29.8,10.3,59.6,15.5,89.5c2.5,14.4,5.1,28.8,7.6,43.2
		c0.5,2.9,1.3,5.8,1.8,7.9c5.6,0,10.8-0.4,15.9,0.1c5.4,0.6,9.7,3.8,10.2,9.4c1.1,11.9,1,23.8-9,32.7c-3.6,3.2-7.5,5.4-12.7,3.4
		c-1.1-0.4-2.5,0.2-3.8,0.4c-5.7,0.8-10.6-0.3-14-5.4c-3.2-4.9-2.3-9.8,0.4-14.6c0.5-0.9,1-1.7,1.6-2.5c-4.1-8.7-3.7-9.7,7.7-19.3
		c-8.8-50.7-17.5-101.2-26.2-152c-0.5,0-1.5,0-2.6,0C433.7,67.8,433.3,64.2,437.2,63.5z M487.9,236.1c0.4-13.3-5.4-15.3-15.9-14.4
		c-6.4,0.5-10.3,6.1-15,9.7c-1.2,0.9-1.4,4.8-0.5,6.5c1.4,2.8,1.8,4.6-0.4,7.1c-2.9,3.4-3.5,7.6-1.3,11.6c2.5,4.3,6.9,4,11.1,3.5
		c1.4-0.2,2.9-0.4,4.3-0.6c2.6-0.4,5.5,0,7.6-1.2C487.6,252.9,486.5,242.9,487.9,236.1z"/>
	<path class="st7" d="M391.9,133.3c0.3,3.5-0.8,7.1,3.1,9.8c1.1,0.7,0.6,4.7-0.2,6.8c-1,2.9-1.6,5.3-0.5,8.5
		c0.9,2.4,0.7,5.7-0.1,8.2c-3.2,9.3-7.1,18.3-14.3,25.4c-1.1,1.1-1.8,2.7-2.5,4.2c-10.6,23.5-23.1,46.1-41.3,64.4
		c-24.2,24.4-50.5,46.3-83.6,58.3c-1.6,0.6-3.5,0.6-5.2,1c0.3-1.2,0.6-2.4,1-3.6c4-1.7,7.9-3.4,11.9-5.1c19.2-7.1,35.1-19.3,50-33
		c5.8-4.6,12-8.8,17.2-14c5.4-5.4,9.9-11.8,14.8-17.8c0.8-0.6,1.7-1.2,2.2-2c8.2-12.8,16.6-25.6,24.3-38.7c3.4-5.8,5.4-12.5,8.1-19
		c1.3-0.6,4-1.1,4.9-2.7c3.4-5.7,6.5-11.6,9-17.6c0.9-2.2,0.1-5.2,0.1-7.8c0-2.5-0.9-5.4,0.1-7.4c2.3-5.1,0.3-8-3.9-10.3
		C388.5,138.3,390.2,135.8,391.9,133.3z"/>
	<path class="st2" d="M391.9,133.3c-1.7,2.5-3.4,4.9-5,7.4c-0.9,1.1-1.8,2.3-2.8,3.4c-2.9,2.3-3.8,8.8-9.7,4.7
		c0-0.5-0.1-1.1-0.1-1.6c0.6-1.3,1.2-2.7,1.9-4c3.4-6,6.7-12,10.1-17.9c7.3-12.1,14.3-24.3,21.9-36.1c5.5-8.5,11.6-16.5,17.7-24.6
		c2.2-3,7.9-3.2,11.4-1.1c-3.9,0.7-3.5,4.2-4.6,6.8C419,91.3,405.5,112.3,391.9,133.3z"/>
	<path class="st3" d="M182.9,464.8c0.4,3.7,0.9,7.4,1.3,11.1c-5.4-6.5-10.7-13.1-16-19.6c0.3-1.9,0.7-3.8,1-5.7
		c5.4-0.8,6.1-5.3,5.1-8.9c-0.8-2.6-4.2-5.8-6.9-6.3c-4.1-0.8-4.9,3.4-5.4,6.7c-0.3,1.1-0.7,2.2-1,3.3c-0.6-0.5-1.1-1-1.7-1.5
		c0.4-6.8,0.8-13.7,1.3-20.5c8.1,0.9,11.5-2,13-10.7c0.5,0,1.1,0,1.6,0c0.3-0.1,0.7-0.1,1-0.2c3.8-1.2,3.8-4.4,3.4-7.3
		c-0.3-1.8-1.9-4.4-3.3-4.7c-3.2-0.8-7-1.1-9.1,2.8c-1.3-0.3-2.6-0.7-4-1c1-4.7,2-9.4,3-14.1c1.7,1,3.3,2.1,5,3.1
		c4.8,4.3,9.5,8.6,14.3,13c-1.9,13.3-3.9,26.5-5.6,39.8c-0.8,6-1.4,12.1-1.8,18.2c-0.1,1.6,1.1,3.2,1.7,4.9
		C180.7,466.3,181.8,465.5,182.9,464.8z"/>
	<path class="st7" d="M376.1,143.3c-0.6,1.3-1.2,2.7-1.9,4c-4-3.3-8.4-3.2-11.6,0.3c-3.6,3.9-6.5,8.7-9.3,13.3
		c-1.9,3.1-2.7,6.8-4.6,9.8c-8.1,11.9-16,24-24.8,35.4c-9.6,12.5-20.2,24.1-32.8,33.8c-13.1,10.1-27.2,18.2-42.1,25.3
		c-2.3,0.4-4.6,0.7-6.9,1c-1.1-0.8-2.1-1.5-3.2-2.3c-0.1-0.3,0-0.6,0.2-0.9c9.8-4.3,20.1-7.8,29.4-13c29.1-16.3,50-41,67.9-68.4
		c5.5-8.3,9.6-17.5,15.1-25.8c6.9-10.3,14.6-20,22.1-29.9c0.8-1.1,2.9-1.2,4.4-1.8c-3.6,5-7.3,10-11,15.2
		C370.4,140.9,373.2,142.1,376.1,143.3z"/>
	<path class="st7" d="M168.1,456.3c5.4,6.5,10.7,13.1,16,19.6c5.4,4.4,10.6,9.1,16.4,13c3.3,2.2,7.4,3.5,11.3,4.4
		c12.5,2.7,24.4,7,34.6,14.6c3.9,2.9,8.8,6.9,8.6,13.3c-0.3,0.9-0.6,1.9-0.9,2.8c-0.7,1.3-1.5,2.6-2,4c-1.2,3-2.3,6.2-3.4,9.2
		c-1.8-0.7-3.7-1.4-5.5-2.1c-1.1-1.4-2-2.9-3.3-4.1c-1.9-1.8-4.3-3.2-6.2-5c-0.6-0.6-0.4-2.2-0.6-3.3c1,0.2,2.2,0,2.9,0.6
		c3.6,2.8,7.1,5.8,10.7,8.8c0.4-0.1,0.8-0.2,1.3-0.4c-0.9-2.7-1.4-5.8-3-8.1c-1.8-2.5-4.6-4.1-7.9-6.8c6.6-1.7,9.2,4.1,14.5,5.2
		c-1-2.5-1.2-4.9-2.4-6c-5.9-5-11.1-11.1-19.2-12.8c-7.3-1.6-14.9-2.3-21.6-5.2c-13.5-5.8-24.8-15.2-34.3-26.4
		c-6.4-7.5-11.4-16.2-17.1-24.3c0.8-1.1,1.5-2.3,2.2-3.4c0.6,0.5,1.1,1,1.7,1.5C163.3,449,165.7,452.6,168.1,456.3z"/>
	<path class="st8" d="M170.2,266.5c-0.2,6.5-0.3,12.9-0.5,19.4c-0.6,0.2-1.3,0.3-2,0.5c-1-1.3-2.2-2.4-2.9-3.9
		c-7-13.3-18.7-20.3-32.7-24.1c-2.2-0.6-4.8,0.5-7.2,0.8c-0.4-0.1-0.9-0.2-1.4-0.4c-0.2-0.5-0.3-1-0.4-1.4c0.1-0.3,0.2-0.6,0.3-0.9
		c-0.5,0.2-1.1,0.5-1.6,0.7c-0.8,0.3-1.6,0.7-2.5,1c-0.1-0.7-0.2-1.4-0.3-2.1c0.1-0.3,0.1-0.7,0.1-1c0.4-1.4,0.9-2.7,1.4-4.1
		c7.8,2.2,15.6,4.5,23.5,6.5c4.4,1.1,5.1,0.3,4-4.4c10.5,0.9,20.4-1.6,30.1-5.1c4.1-1.5,7.9-4,11.9-6c1.1,0.7,2.1,1.4,3.2,2.1
		c-4.7,2.6-9.2,5.8-14.2,7.8C170.3,255.6,169.4,256.5,170.2,266.5z"/>
	<path class="st2" d="M182.9,464.8c-1.1,0.7-2.2,1.4-3.3,2.1c-0.6-1.6-1.8-3.3-1.7-4.9c0.4-6.1,0.9-12.1,1.8-18.2
		c1.8-13.3,3.8-26.5,5.6-39.8c-0.1-2.7-0.3-5.4-0.4-7.2c1-2.4,1.7-4,2.3-5.6c0.6-6.4,1.6-12.8,1.9-19.2c0.2-3.6-0.7-7.3-1.1-10.9
		c0.9-2.4,1.8-4.8,2.7-7.2c0.1-2.9,0.1-5.8,0.2-8.6c0-1.7,0-3.4,0.1-5.1c0-3.1-0.1-6.3,0.1-9.4c0.3-3.5,1-7,1.5-10.5l0.3,0.2
		c0.6,3.3,1.5,6.6,1.8,9.9c0.4,5.6,0.5,11.2,0.7,16.8c-1.1,12.4-1.8,24.8-3.3,37.2c-1.5,12.8-3.9,25.5-5.4,38.4
		C185.2,436.7,184.2,450.8,182.9,464.8z"/>
	<path class="st9" d="M124,41.2c-3.6,0.4-5.7,2.2-6.9,5.9c-1.6,5.2-6.7,6.3-11.1,8.1c0-1,0-2.1-0.1-3.2c0.7-2.9,1.3-5.9,1.9-8.8
		c1.4-1.3,2.6-3.4,4.1-3.7c3.8-0.7,4-3.2,4.1-6.1c1.8-2.7,3.6-5.4,5.4-8.2c4.8-2.4,2.3-6.3,2-9.7c6.5-1.1,12.9-2.3,19.4-3.4
		c5,5.9,10.4,2.4,15.7,0.7c0.3,1.5,0.6,3,0.9,4.5c-0.3,0.6-0.7,1.3-1,1.9c-0.8,0-1.7-0.2-2.5,0c-2.2,0.5-4.9,0.5-6.4,1.8
		c-0.9,0.8,0.1,3.7,0.4,6.4c-0.5,0.3-1.8,1.1-3,1.8c-2.6,0.4-5.3,0.9-7.9,1.3c-0.1-0.5-0.2-0.9-0.3-1.4c2.9-1.3,5.8-2.6,8.7-3.9
		c-3.6-5.4-8.5-4.9-12.9-3.1c-2.1,0.9-3.3,3.9-5.7,6.9c3.8,0,5.7,0,7.5,0c-1.7,2-3.5,3.7-5.4,3.7c-5.6,0-7.1,3-6.8,7.8
		C124.3,40.8,124.2,41,124,41.2z"/>
	<path class="st10" d="M158.8,12.8c-5.3,1.7-10.8,5.1-15.7-0.7c-0.4-0.6-0.6-1.5-1.1-1.8c-11.5-5.6-19.7-3.3-27.2,5.9
		c-5.4,3.1-6.4,8.2-2.2,12.2c-0.9,2-1.8,4-2.7,6c-3.7,0.1-8.4,2.2-8.8-4.3c0.6-0.9,1.2-1.9,1.8-2.8c0.3-0.9,0.6-1.8,0.8-2.8l0.1-0.4
		c5.8,0,1.3-3.7,2-5.5c0.2-1.1,0.4-2.2,0.5-3.4c0.6-0.9,1.2-1.9,1.8-2.8c2.9-2.8,5.8-5.6,8.7-8.4c4.3-0.9,8.7-1.7,13-2.7
		c0.2,0,0.3-0.9,0.4-1.4c1,0,1.9,0.1,2.9,0.1c1.3,0.7,2.6,3.6,4,0.1c1,0.1,2.1,0.1,3.1,0.2c0.8,0.2,1.5,0.4,2.3,0.6
		c1.2,0.6,2.4,1.1,3.6,1.7c1.1,0.5,2.2,0.9,3.2,1.4C152.5,7,155.6,9.9,158.8,12.8z"/>
	<path class="st2" d="M238.9,263.9c1.1,0.8,2.1,1.5,3.2,2.3c0.6,10.6,1.2,21.3,1.8,31.9c0.4,7.4,0.9,14.8,1.4,22.1
		c0,6.1,0.3,12.3-0.1,18.4c-0.1,2-1.9,5.3-3.3,5.5c-14,2-28.1,3.6-42.2,5.1c-1.2,0.1-2.5-1.3-3.8-2c4.5-0.6,9.1-1.3,13.6-1.9
		c10.3-1.5,20.6-2.9,31.4-4.5c0-2.4,0-4.5,0-6.6c0.1-4-2.8-8-0.1-12.1c-0.7-12.5-1.5-25-2.1-37.6c-0.3-6.1-0.5-12.2-0.7-18.3
		C238.3,265.5,238.6,264.7,238.9,263.9L238.9,263.9z"/>
	<path class="st11" d="M101,30c0.5,6.5,5.2,4.4,8.8,4.3c0.6,0.9,1.1,1.8,1.7,2.8c1.7-1.4,3.1-2.6,4.6-3.8c-0.1,2.8-0.3,5.3-4.1,6.1
		c-1.6,0.3-2.8,2.4-4.1,3.7c-1.5-1.9-2.9-3.8-4.7-6.1c-2.9,3.5-5.9,7.2-4.5,11.7c0.5,1.7,4.7,2.2,7.3,3.2c0,1,0,2.1,0.1,3.2
		c0,1.1,0.1,2.2,0.1,3.2c-9.3,2.4-17.2-5.5-13.9-14.9C93.9,38.6,98,34.5,101,30z"/>
	<path class="st7" d="M81.8,201.1c0.5-1.7,0.9-3.3,1.4-5c0.3,0,0.6,0,0.9,0c4.9,15.1,13.9,27.3,25.3,38c0.7,0.6,2.7,3.5,5.1,7.3
		c0.4,0.7,0.7,1.2,1.6,2.6c1.6,2.6,2.9,4.7,3.7,6c-1.9-1.5-4.7-3.6-7.9-6.3c-0.9-0.7-5.1-4.3-7.8-6.9
		C93.4,227,87.6,215.3,81.8,201.1z"/>
	<path class="st7" d="M193.3,244.3c-1.1-0.7-2.1-1.4-3.2-2.1c7.4-7,14.8-14,22.1-21c1.3-1.3,2.6-2.8,4-4.6c1.7-2.3,3-4.5,3.9-6.4
		c2.8-4.5,5.6-9.1,8.7-14.3c0.6,2,1,3.4,1.5,4.8c-0.4,1.1-0.8,2.3-1.2,3.4c-6.2,8.5-11.9,17.4-18.7,25.3
		C205.4,235,199,239.3,193.3,244.3z"/>
	<path class="st12" d="M376.1,143.3c-2.9-1.2-5.8-2.4-9.1-3.8c3.8-5.2,7.4-10.2,11-15.2c2.7,0.4,5.5,0.7,8.2,1.1
		C382.9,131.3,379.5,137.3,376.1,143.3z"/>
	<path class="st7" d="M148,253.2c1,4.6,0.4,5.5-4,4.3c-7.9-2-15.7-4.3-23.5-6.5c-1.5-2.3-3-4.5-4.6-6.8l0.1-0.1
		c1.7,0.5,3.4,1,5.1,1.4C130.1,248.2,139.1,250.7,148,253.2z"/>
	<path class="st10" d="M229.1,204.1c0.4-1.1,0.8-2.3,1.2-3.4c1-3.5,2.1-7,3.1-10.5c5.1,4.1,5.3,8.9,2.6,14.4c-0.5,1,0.1,2.4,0.1,3.7
		c-0.3,2.6-1.5,4.3-4.5,3.8c-0.3-0.7-0.6-1.5-0.9-2.2c-0.5-0.9-0.9-1.8-1.4-2.8C229.2,206.1,229.1,205.1,229.1,204.1z"/>
	<path class="st10" d="M169.5,44.3c-0.8-0.6-1.6-1.1-2.7-1.9c-1.8,2.9-3.4,6.1-7.9,4.3c-5.1-2.1-3-6.3-4.1-11.4
		c3.6,2.6,5.9,4.3,8.1,5.9c2.2-0.6,4.7-1.3,7.2-2C172.3,41.2,172.7,43,169.5,44.3z"/>
	<path class="st12" d="M245.3,320.2c-0.4-7.4-0.9-14.8-1.4-22.1c1.4,6,2.8,12.1,4.2,18.1c-0.3,1.2-0.6,2.4-1,3.6
		C246.6,320,246,320.1,245.3,320.2z"/>
	<path class="st11" d="M231.6,212.1c3,0.5,4.2-1.2,4.5-3.8c1.2-0.7,2.4-1.4,3.6-2.1c-0.9,2.4-1.5,5-2.9,7
		C234.9,215.7,232.7,215.6,231.6,212.1z"/>
	<path class="st11" d="M130.2,0c-0.1,0.5-0.2,1.3-0.4,1.4c-4.3,1-8.6,1.8-13,2.7C121.3,2.7,125.7,1.3,130.2,0z"/>
	<path class="st11" d="M158.7,19.2c0.3-0.6,0.7-1.3,1-1.9c0.9,2.9,1.8,5.8,2.7,8.7C161.2,23.7,159.9,21.5,158.7,19.2z"/>
	<path class="st11" d="M105.8,18.6c-0.8,1.8,3.8,5.6-2,5.5C104.5,22.3,105.2,20.4,105.8,18.6z"/>
	<path class="st11" d="M137.1,0.3c-1.5,3.5-2.7,0.6-4-0.1C134.4,0.2,135.8,0.2,137.1,0.3z"/>
	<path class="st11" d="M149.3,4.1c-1.1-0.5-2.2-0.9-3.2-1.4C147.1,3.2,148.2,3.6,149.3,4.1z"/>
	<path class="st11" d="M108.1,12.4c-0.6,0.9-1.2,1.9-1.8,2.8C107,14.3,107.6,13.3,108.1,12.4z"/>
	<path class="st10" d="M169,37.2c-0.6-1.1-1.2-2.1-1.9-3.2C167.8,35.1,168.4,36.1,169,37.2z"/>
	<path class="st10" d="M164.9,30.2c-0.5-0.8-1-1.5-1.5-2.3C163.9,28.7,164.4,29.4,164.9,30.2z"/>
	<path class="st10" d="M169.1,47.2c-0.6-0.2-1.1-0.3-1.7-0.5c0.4-0.5,0.8-1.1,1.2-1.6C168.8,45.8,168.9,46.5,169.1,47.2z"/>
	<path class="st11" d="M229.3,207.1c0.5,0.9,0.9,1.8,1.4,2.8C230.2,209,229.7,208.1,229.3,207.1z"/>
	<path class="st11" d="M142.5,1c-0.8-0.2-1.5-0.4-2.3-0.6C140.9,0.6,141.7,0.8,142.5,1z"/>
	<path class="st11" d="M103.7,24.5c-0.3,0.9-0.6,1.8-0.8,2.8C103.2,26.3,103.4,25.4,103.7,24.5z"/>
	<path class="st13" d="M99.1,255.1c-0.1,0.4-0.2,0.9-0.3,1.3C98.9,256,99,255.6,99.1,255.1L99.1,255.1z"/>
	<path class="st10" d="M186.1,47.2c-0.6-0.1-1.2-0.2-1.8-0.3C184.9,47,185.5,47.1,186.1,47.2z"/>
	<path class="st10" d="M173,46.7c-0.5,0.1-0.9,0.2-1.4,0.3C172.1,46.9,172.6,46.8,173,46.7z"/>
	<path class="st10" d="M163.4,27.9c-0.2-0.1-0.4-0.1-0.7-0.2c0.2-0.2,0.3-0.3,0.5-0.5C163.5,27.4,163.6,27.6,163.4,27.9z"/>
	<path class="st14" d="M287.1,634.9c-5.6,2.3-11.2,4.7-16.9,7c3.1-2.7,6.3-5.3,10-8.5c-2-0.8-3.6-1.4-5.2-2.1
		c-0.9-4.9-7.1-9.3-10.7-7.1c-4,2.5-8,5.4-8.7,10.8c-2,0.2-3.7,0.9-1.5,2.9c1.2,1.1,3.2,1.5,4.8,2.2c0.7,0.4,1.4,0.7,2.1,1.1
		c0.4,0.3,0.8,0.6,1.3,0.9c-0.3,0.7-0.7,1.4-1,2c-3.1,0.6-6.1,1.3-9.2,1.9c-1.3-2-2.5-4-3.8-5.9c-0.8-1.5-1.6-3-2.2-4.6
		c-0.5-1.4-0.7-3-1-4.5c3.6-0.7,6.5-1.7,8.2-5.8c1.1-2.6,4.7-4.4,7.4-6.1c2-1.3,4.5-1.8,7.8-3c4.1,3.8,9.3,8.5,14.4,13.4
		C284.6,631.1,285.7,633.1,287.1,634.9z"/>
	<path class="st15" d="M144.1,595c-4.4,0.3-8.8,0.8-13.1,0.5c-1-0.1-2.3-3-2.7-4.8c-0.6-3.1,1.3-6.8-3.3-8.9
		c-0.9-0.4-0.8-6.6,0.1-6.9c4.4-1.7,3.6-5,3.4-8.1c-0.2-3.9,0.9-5.7,5.3-5.7c7.3,0,14.5-0.7,21.8-0.9c1.2,0,2.5,0.6,3.7,0.9
		c-0.7,0.3-1.4,0.7-2.1,1c-0.7,1.5-1.8,3-1.9,4.6c-0.3,4.3-0.1,8.6-0.1,12.9c-0.3,0-0.5-0.1-0.7-0.2c-0.4-0.4-0.8-0.8-1.3-1.2
		c0-4.6,0-9.1,0-13.8c-1.9-0.2-2.9-0.3-3.9-0.3c-4.8-0.1-9.6,0-14.4-0.2c-2.9-0.1-3.7,1.5-3.7,4c0,4.7,0,9.3-0.1,13.9
		c-0.1,11-0.1,10.9,10.6,11.3c0.8,0,1.6,0.2,2.5,0.3C144.1,593.9,144.1,594.5,144.1,595z"/>
	<path class="st16" d="M66.3,629.2c0-1,0-2.1,0-3.1c4.1-1.1,8.2-2.2,12.2-3.2c-1.6-4.1-2.9-6.9-3.9-9.8c-0.6-2-0.8-4.1-1.1-6.2
		c-0.8-0.6-1.5-1.2-2.3-1.8c0.3-1,0.6-2,0.9-3c0.7,0,1.3,0,1.9,0c1.1,0.5,2.2,1,2,0.9c0.4,2.3,0.7,3.8,0.9,5.2c0,0.6,0,1.3,0,1.9
		c1.3,0.7,2.6,1.4,3.9,2.1c-1.1,6.8,1.5,9.1,8,6.9c5.3-1.8,10.6-3.7,16-5.3c3.2-0.9,3.9-2.6,3-5.5c1,0.2,2,0.4,3.1,0.6
		c0.8,3.7-0.3,5.6-4.2,6.8C93.2,620,79.8,624.7,66.3,629.2z"/>
	<path class="st17" d="M144.1,595c0-0.5,0-1.1,0.1-1.6c7.5-0.3,7.5-0.3,8.9-8.4c0.1-0.8,1.3-1.3,2-2c0,3.9,0,7.9,0,11.8
		c0.7,0,1.5,0,2.2,0c0.2-10.1,0.5-20.1,0.7-30.2c1.1,0.5,2.2,1,3.4,1.5c1.4,1.3-4.4,4.9,1.5,4.9c0.4,0.4,0.8,0.8,1.2,1.2
		c-1.2,0.6-2.4,1.2-3.7,1.8c0,0.5,0.1,0.9,0.1,1.4c3.6,0,7.3,0,10.9,0c2.7,0,6-0.6,5.7,3.9c-0.3,4.6-3.8,2.3-6,2.8
		c0.3-0.6,0.7-1.2,1-1.7c0.9-0.3,1.8-0.7,2.7-1c-0.1-0.5-0.2-1-0.3-1.5c-4.9,1.5-10.1-2.8-16.2,1.9c2.8,0.3,4.3,0.5,5.7,0.6
		c0.4,0.6,0.7,1.2,1.1,1.8c-0.7,0-1.4-0.1-2-0.1c-0.3,0-0.7,0-1,0c-0.5,1-0.9,2-1.4,3c-0.9,2.5-1.3,4.7,2.4,5.1c0,0.6,0,1.3,0,1.9
		c-1.7,1.1-3.5,2.3-5.2,3.4c0.2,0.6,0.4,1.3,0.5,1.9C153.7,596.6,148.9,595.8,144.1,595z"/>
	<path class="st18" d="M99,534.2c0.7,0,1.5,0,2.2,0c-1,3.1-2.5,6.2-2.8,9.4c-0.2,2,0.9,5.6,2.3,6.1c2.6,1,7.5,1.5,8.5,0.1
		c2.2-3.1,4.1-7.9,3.3-11.3c-0.5-2.1-6.3-2.9-9.7-4.3c-0.4-0.2-1,0-1.5,0c2-0.4,3.9-0.8,5.9-1.2c1.9,0.9,4.5,1.2,5.7,2.7
		c1.9,2.4,4.5,5.9,3.9,8.3c-1,4.4-3.5,9-6.7,12.1c-1.2,1.2-6.3-0.4-9.1-1.8c-6-3.1-6.9-7.1-4.3-13.5C97.6,538.6,98.2,536.4,99,534.2
		z"/>
	<path class="st17" d="M195.2,610.3c1,0,2-0.1,3-0.1c0,3.3,0,6.6,0,10c8,0,15.9,0,23.9,0c1.2,0.3,2.4,0.5,3.6,0.8
		c-0.8,7.5-6.6,4.5-10.6,4.8c-4.7,0.3-9.4,0.1-14.1,0c-3.3-0.1-5.8-1.1-5.6-5.2C195.3,617.2,195.2,613.8,195.2,610.3z"/>
	<path class="st15" d="M70,587.3c-2.3-2-4.6-4-6.8-6c10-3.3,20.1-6.6,30.1-10c2.1-0.7,4.2-1.6,5.2,1.5c3.3,10.4,6.6,20.7,9.9,31.1
		c-1.1-0.2-2.1-0.3-3.2-0.5c-2.8-9.1-5.5-18.2-8.5-27.3c-0.3-0.9-2.4-2.2-3.3-1.9c-8.1,2.5-16.1,5.3-25.4,8.4
		c1.8,1.3,2.5,1.8,3.3,2.4C70.8,585.8,70.4,586.6,70,587.3z"/>
	<path class="st19" d="M252.3,544c0.6,0.5,1.3,1,1.9,1.5c-1.3,3.7-2.7,7.5-4,11.2c1,1.1,2,2.3,3,3.4c1,0.7,2,1.3,3,2
		c-0.5,2.5-0.9,4.7,2.2,6.1c2.4,1.1,4.6,2.7,6.9,4.1c3,1.9,6,3.9,8.9,5.8l0,0c-3.6-1.3-7.4-2.3-10.8-4c-6.7-3.4-13.2-7.3-20.4-11.3
		C246,556.6,249.1,550.3,252.3,544z"/>
	<path class="st20" d="M214.4,532.1c3,0.7,6,1.5,9,2.2c-2.4,6.6-4.8,13.2-7.2,19.8c-1,0-1.9-0.1-2.9-0.1c-0.6-0.4-1.3-0.8-1.9-1.2
		c-0.3-2.7-0.5-5.4-0.8-8C211.8,540.6,213.1,536.3,214.4,532.1z"/>
	<path class="st21" d="M287.1,634.9c-1.4-1.8-2.5-3.8-4.1-5.4c-5.1-4.9-10.4-9.6-14.4-13.4c-3.3,1.3-5.8,1.8-7.8,3
		c-2.8,1.7-6.3,3.5-7.4,6.1c-1.7,4.1-4.5,5.2-8.2,5.8c0-0.7,0-1.3,0-2c5.5-0.9,6.8-6.3,9.7-9.8c2.5-2.9,4.1-4.2,7.9-2
		c0.8-2.7,1.4-4.8,2.4-8c3.8,3.3,7.3,6,10.5,9.1c4.7,4.8,9.1,9.8,13.7,14.7C288.5,633.8,287.8,634.3,287.1,634.9z"/>
	<path class="st3" d="M186.1,611.8c1.7-0.2,3.4-0.4,5-0.6c-0.3,7.9-0.6,15.9-1.1,23.8c-0.1,1-1,2.7-1.8,2.8
		c-1.3,0.3-2.9-0.1-4.2-0.7c-0.4-0.2,0-2,0.1-3c0.4-6.5,0.9-12.9,1.4-19.4C185.6,613.7,185.9,612.8,186.1,611.8z"/>
	<path class="st16" d="M154.1,518.3c0.7,0.3,1.4,0.6,2.1,0.9c-0.1,6.7,2.3,10.4,7.9,11c3,0.4,6.2-0.3,9.3-0.3c2.3,0,4.6,0.2,7.6,0.4
		c0.4-0.9,1.4-3.2,2.4-5.4c0.6,0.1,1.2,0.2,1.9,0.4c-1.5,4.5-2.9,9-4.4,13.5c-0.9-0.3-1.4-0.3-1.4-0.4c-1.3-5.8-4.6-6.3-10-5.4
		c-8.5,1.4-14.2-2.3-15.1-7.7C153.9,523,154.2,520.6,154.1,518.3z"/>
	<path class="st16" d="M198.3,605.9c-0.8,0-1.5,0-2.3,0.1c0.1-3.6-0.1-7.3,0.2-10.9c0.3-3.9,2.6-6.8,6.6-6.7
		c6.9,0.2,13.8,0.8,20.6,1.9c3.5,0.5,6.2,2.7,3.7,7c-0.6-1-1.3-2.1-1.9-3.1c-3.3-4.5-8.1-2.8-12.4-2.9
		C198,590.8,198,590.9,198.3,605.9z"/>
	<path class="st17" d="M149.1,623.2c5.2,0.8,10.4,1.6,15.6,2.4c0.1,0.8,0.3,1.6,0.4,2.4c-4,2-8,4-12.1,6c0-0.6-0.1-1.3-0.1-1.9
		c-0.4-0.7-0.7-1.4-1.1-2c-0.6-0.7-1.2-1.5-1.9-2.2c0-0.6,0-1.1,0-1.7c0.3,0,0.6-0.1,0.9-0.1c0.5-0.4,1.1-0.8,1.6-1.2
		c-0.5-0.3-1-0.6-1.5-0.8c-0.7,0.1-1.4,0.1-2.1,0.2C149.1,623.9,149.1,623.5,149.1,623.2z"/>
	<path class="st13" d="M158.1,564.6c-0.2,10.1-0.5,20.1-0.7,30.2c-0.7,0-1.5,0-2.2,0c0-3.9,0-7.9,0-11.8c0-1.2,0-2.3,0-3.5
		c0-4.3-0.2-8.6,0.1-12.9c0.1-1.6,1.2-3.1,1.9-4.6c0.3,0.2,0.6,0.4,1,0.6C158.1,563.3,158.1,563.9,158.1,564.6z"/>
	<path class="st22" d="M214.4,532.1c-1.3,4.2-2.5,8.5-3.8,12.7c-0.8,0.5-1.5,0.9-2.3,1.3c-0.4-3.8-0.9-7.6-1.2-11.3
		c-0.1-1.8-0.1-3.6-0.1-5.4C209.5,530.3,211.9,531.2,214.4,532.1z"/>
	<path class="st15" d="M163.1,592.1c0-0.6,0-1.3,0-1.9c3.7,0.7,7.4,1.3,11.1,2c0.1-0.4,0.2-0.8,0.3-1.3c-2.9-0.8-5.9-1.4-8.6-2.5
		c-1.6-0.7-2.8-2.2-4.2-3.3c4.3,1.1,8.7,2,12.9,3.6c1.4,0.6,2.1,3,3.2,4.6c-1.6,0.4-3.2,1.4-4.6,1.2
		C169.7,594,166.4,592.9,163.1,592.1z"/>
	<path class="st19" d="M225.2,594.1c0.6,1,1.3,2.1,1.9,3.1c-0.5,7.9-1,15.9-1.5,23.8c-1.2-0.3-2.4-0.5-3.6-0.8
		c0.6-1.5,1.7-2.9,1.8-4.4C224.5,608.6,224.8,601.3,225.2,594.1z"/>
	<path class="st15" d="M164.1,572.1c-0.4-0.4-0.8-0.8-1.2-1.2c3.9-1.3,7.8-2.5,11.7-3.8c-2.9-0.7-5.4,0-8,0.2
		c-1.3,0.1-2.6-0.8-4-1.2c4-0.9,8-2,12.1-2.5c1-0.1,3.1,1.4,3.1,1.9c-0.2,1.5-1,3.9-2,4.2C172,570.9,168,571.4,164.1,572.1z"/>
	<path class="st23" d="M211.3,552.9c0.6,0.4,1.3,0.8,1.9,1.2c-1.1,3.7-2.1,7.4-3.2,11.1c-0.6,1-1.2,2-1.8,3c-3.9-3.7-2.1-7.9-1.1-12
		C208.5,555,209.9,554,211.3,552.9z"/>
	<path class="st19" d="M286.1,561.3c1,0.8,2,1.6,3,2.4c-2.7,5.1-5.3,10.2-8,15.2c-2,3.6-4.8,3.3-7-0.8l0,0c1.6-0.5,4.2-0.5,4.8-1.5
		C281.6,571.6,283.7,566.4,286.1,561.3z"/>
	<path class="st16" d="M152,630.1c0.4,0.7,0.7,1.4,1.1,2c-5.4,0.7-10.8,1.3-16.3,2c0,0.5,0.1,1,0.1,1.5c1.4,0.2,2.8,0.3,4.2,0.5
		c-4.4,0.8-8.8,1.7-13.2,2.5c0.1-0.5,0.3-1,0.4-1.5c2-0.5,4-0.9,6-1.3c0-0.2,0-0.4,0-0.7c-1.7,0-3.4,0-5.1,0c-0.7-0.5-1.4-1-2.2-1.6
		c0.1-0.2,0.2-0.3,0.3-0.5c0.6,0,1.3,0,1.9,0.1c0.7,0,1.4,0,2.1-0.1C138.1,632,145.1,631.1,152,630.1z"/>
	<path class="st14" d="M72.2,545.2c0.6-0.1,1.2-0.1,1.8-0.2c0.1,1.5,4.8-0.4,2.2,3c-1.6,0.8-3.2,1.5-4.8,2.3
		c-3.1,1.6-6.2,3.2-9.4,4.8c0.6-1.2,0.9-2.6,1.8-3.4C66.5,549.4,69.4,547.4,72.2,545.2z"/>
	<path class="st16" d="M149.1,623.2c0,0.4,0,0.7,0,1.1c-2.1,0.7-4.2,1.4-6.3,2c0.1,0.3,0.1,0.7,0.2,1c2.4-0.4,4.7-0.7,7.1-1.1
		c0,0.6,0,1.1,0,1.7c-6.3,1.1-12.7,2.2-19,3.2c0-0.3,0-0.7,0-1c0.3-0.3,0.6-0.7,1-1c2.6-0.5,5.1-1,9.2-1.8c-2.1-0.7-2.6-0.9-3.2-1.1
		c0-0.4,0-0.8,0-1.2C141.8,624.4,145.4,623.8,149.1,623.2z"/>
	<path class="st18" d="M196.1,653.2c-0.7,0.4-1.4,0.7-2.1,1.1c-5-2.6-5-3.5,1-10.7c1.3,2.7,2.5,5,3.6,7.3
		C197.8,651.6,197,652.4,196.1,653.2z"/>
	<path class="st15" d="M62.1,555.1c3.1-1.6,6.2-3.2,9.4-4.8c1.6-0.8,3.2-1.5,4.8-2.3c-2.1,2.1-4.1,4.4-6.3,6.4
		c-1.5,1.3-3.4,2-5.1,3.2c-3.1,2.1-4.5,1-5-2.3C60.6,555.2,61.3,555.2,62.1,555.1z"/>
	<path class="st18" d="M62.1,555.1c-0.7,0-1.5,0.1-2.2,0.1c-1-1.4-1.9-2.8-2.8-4.2c5.1-1.9,10.1-3.9,15.2-5.8
		c-2.8,2.1-5.7,4.2-8.4,6.5C63,552.5,62.7,554,62.1,555.1z"/>
	<path class="st20" d="M128.3,637c-0.1,0.5-0.3,1-0.4,1.5c-3.1,0.3-6.3,0.6-9.4,0.9c0.3-0.7,0.5-1.5,0.8-2.2c0.6,0,1.2-0.1,1.9-0.1
		c0.1,0.1,0.1,0.3,0.2,0.3c0.1,0.1,0.2,0,0.3,0.1c-0.1-0.1-0.3-0.3-0.4-0.4c1.6-1.3,3.3-2.6,4.9-3.9c0.3,0.1,0.6,0.2,0.8,0.3
		c0.7,0.5,1.5,1,2.2,1.6C128.8,635.7,128.5,636.4,128.3,637z"/>
	<path class="st21" d="M141.1,636.1c-1.4-0.2-2.8-0.3-4.2-0.5c0-0.5-0.1-1-0.1-1.5c5.4-0.7,10.8-1.3,16.3-2c0,0.6,0.1,1.3,0.1,1.9
		C149.1,634.7,145.1,635.4,141.1,636.1z"/>
	<path class="st15" d="M119.2,637.2c-0.3,0.7-0.5,1.5-0.8,2.2c-4.1-0.6-5.2-3.2-3.5-8.3c1.4,0.7,2.7,1.4,4.1,2.1
		C119.1,634.5,119.2,635.9,119.2,637.2z"/>
	<path class="st16" d="M211.3,552.9c-1.4,1.1-2.8,2.2-4.3,3.3c-0.6,0-1.3,0-1.9,0c1.1-3.3,2.1-6.7,3.2-10c0.8-0.5,1.5-0.9,2.3-1.3
		C210.8,547.5,211.1,550.2,211.3,552.9z"/>
	<path class="st17" d="M245.1,629.1c0,0.7,0,1.3,0,2c0.3,1.5,0.5,3,1,4.5c0.6,1.6,1.5,3,2.2,4.6c-1.6-1.1-3.4-2.1-4.8-3.5
		C239.9,633.2,240.2,631.9,245.1,629.1z"/>
	<path class="st13" d="M162.6,566.1c1.3,0.4,2.7,1.3,4,1.2c2.6-0.2,5.1-0.8,8-0.2c-3.9,1.3-7.8,2.5-11.7,3.8c-5.9,0-0.1-3.5-1.5-4.9
		C161.8,566.1,162.2,566.1,162.6,566.1z"/>
	<path class="st13" d="M161.7,585.1c1.4,1.1,2.6,2.7,4.2,3.3c2.8,1.1,5.8,1.7,8.6,2.5c-0.1,0.4-0.2,0.8-0.3,1.3
		c-3.7-0.7-7.4-1.3-11.1-2c-3.6-0.4-3.2-2.7-2.4-5.1C161.1,585.1,161.4,585.1,161.7,585.1z"/>
	<path class="st16" d="M196.1,653.2c0.8-0.8,1.7-1.5,2.5-2.3c2.8,0.8,5.7,1.6,8.5,2.4C203.5,653.5,199.8,656.6,196.1,653.2z"/>
	<path class="st20" d="M119.1,633.2c-1.4-0.7-2.7-1.4-4.1-2.1c2.7-1.4,5.3-2.8,8-4.2c0.8-0.1,1.6-0.2,2.4-0.2c0.6,0,1.2,0,1.8,0
		c0,0.8,0,1.7-0.1,2.5C123.6,628.8,120.3,628.9,119.1,633.2z"/>
	<path class="st18" d="M205.1,556.1c0.6,0,1.3,0,1.9,0c-0.9,4.1-2.8,8.3,1.1,12c-0.4,0.4-0.8,0.8-1.1,1.2c-1.1,0-2.2-0.1-3.3-0.1
		C204.3,564.8,204.7,560.5,205.1,556.1z"/>
	<path class="st18" d="M210,565.1c1.1-3.7,2.1-7.4,3.2-11.1c1,0,1.9,0.1,2.9,0.1C215,558.3,214.8,563,210,565.1z"/>
	<path class="st15" d="M127.1,629.2c0-0.8,0-1.7,0.1-2.5c1.3-0.2,2.6-0.4,3.9-0.7c0.4,0.4,0.7,0.7,1.1,1.1c0,0.7,0,1.3-0.1,2
		c-0.3,0.3-0.6,0.7-1,1c-1,0.6-2,1.3-3,1.9c-0.3,0.3-0.6,0.7-0.9,1c-0.1,0.2-0.3,0.3-0.3,0.5c-0.3-0.1-0.6-0.2-0.8-0.3
		C126.4,631.9,126.8,630.5,127.1,629.2z"/>
	<path class="st16" d="M165.1,582.2c-0.4-0.6-0.7-1.2-1.1-1.8c2.7,0,5.4,0,8.1,0c-0.3,0.6-0.7,1.2-1,1.7
		C169.1,582.1,167.1,582.1,165.1,582.2z"/>
	<path class="st23" d="M203.8,569.2c1.1,0,2.2,0.1,3.3,0.1c-1.4,0.7-2.7,1.4-4,2.1C203.3,570.7,203.6,569.9,203.8,569.2z"/>
	<path class="st16" d="M132.1,627.1c-0.4-0.4-0.7-0.7-1.1-1.1c1.3-0.3,2.7-0.6,4-0.9c0,0.3,0,0.6,0.1,0.9c0,0.3,0,0.7,0,1
		C134.1,627.1,133.1,627.1,132.1,627.1z"/>
	<path class="st15" d="M125.4,626.7c-0.8,0.1-1.6,0.2-2.4,0.2C123.8,626.8,124.6,626.8,125.4,626.7z"/>
	<path class="st15" d="M135.1,627.1c0-0.3,0-0.7,0-1c0.3-0.3,0.6-0.6,1-1c0.7,0,1.3-0.1,2-0.1c0,0.4,0,0.8,0,1.2
		C137.1,626.5,136.1,626.8,135.1,627.1z"/>
	<path class="st17" d="M158.1,562.6c-0.3-0.2-0.6-0.4-1-0.6c0.7-0.3,1.4-0.7,2.1-1C158.9,561.6,158.5,562.1,158.1,562.6z"/>
	<path class="st21" d="M136.1,625.1c-0.3,0.3-0.6,0.6-1,1c0-0.3,0-0.6-0.1-0.9C135.4,625.2,135.8,625.1,136.1,625.1z"/>
	<path class="st16" d="M162.1,582.1c0.3,0,0.7,0,1,0C162.8,582.1,162.4,582.1,162.1,582.1z"/>
	<path class="st12" d="M233.4,190.2c-1,3.5-2.1,7-3.1,10.5c-0.4-1.4-0.9-2.8-1.5-4.8c-3.1,5.1-5.9,9.7-8.7,14.3
		c-0.5-0.4-1.3-0.6-1.6-1.1c-4.3-7-11.1-8.2-18.6-7.8c-6,0.3-11,5.1-10.8,10.2c0.1,5.2,5.2,9.7,11.1,9.7c4,0.1,8,0,11.9,0
		c-7.4,7-14.8,14-22.1,21c-3.9,2-7.7,4.5-11.9,6c-9.7,3.5-19.6,6-30.1,5.1c-9-2.5-17.9-5.1-26.9-7.6c-1.7-0.5-3.4-1-5.1-1.4
		c-1-1.5-2.6-3.7-4.7-6.2c-1.3-1.5-2.4-2.6-2.8-3c-5.9-5.9-12.5-15.5-12.8-16c-2.9-4.3-5.4-7.9-8-13.3c-1.8-3.8-2.9-7.1-3.6-9.5
		c0.1-0.2,0.2-0.4,0.3-0.6c0.1-0.2,0.2-0.4,0.3-0.6c0.1,0.1,0.3,0.1,0.3,0.2c2.8,3.4,5.2,7.3,8.7,9.9c1.5,1.1,5.1-0.4,7.7-1.1
		c0.3-0.1,0-2.3,0-2.1c-3.6-0.6-6.8-0.2-8.4-1.6c-7.3-6.3-10-21.9-5.8-30.5c2.4-5,8.1-5.7,11.6-1.3c1,1.2,1.6,2.8,2.4,4.2
		c4.8-2,1.2-4.7,0.9-7c1.3-2.3,2.6-4.7,4-7c0.3,0.6,0.7,1.1,0.7,1.8c0.8,8.7,1.5,17.5,2.3,26.2c0.2,2.5,0.7,4.9,1,7.6
		c4.7-1.4,5.3-4.4,5.9-7.9c1.8-12.3,3.8-24.5,6-36.7c1.2-6.6,2.8-13,4.3-19.6c1.4-4.7,2.9-9.4,4.3-14c0.3,0,0.6,0,0.9,0
		c0.6,3.9,1,7.8,1.8,11.6c0.5,2.4,1.3,4.8,4.6,2.6c0.4,3.5,3.1,2.8,5.3,2.8c6.3,0.1,12.5-0.1,18.8,0.3c7,0.4,14.1,1.5,21.1,1.6
		c2.5,0,4.9-2.4,7.4-3.6c0.7-1.4,1.3-2.8,2-4.2c3.4-0.1,3.7,1.8,3.2,4.4c-2.5,4.7,1.4,6.2,4.3,6.8c5.3,1.1,10.9,1.1,16.3,1.6
		c0.9,1.1,2.3,2.1,2.8,3.3c1.9,5,3.4,10.2,5.5,15.1c0.9,2,2.9,3.4,4.4,5.1c0.5-0.3,1-0.6,1.5-0.9C231.3,171.8,232.3,181,233.4,190.2
		z M145.2,209.1c1.1,8.3,4.9,13.9,12.1,16.2c6.8,2.1,13.8,2.3,19.5-3.2c3.9-3.7,3.4-6.8-1.9-8.2c-7-1.9-14.1-3.3-21.2-4.6
		C151.1,208.7,148.3,209.1,145.2,209.1z M187.6,192c0.1,0.5,0.3,1,0.4,1.5c2.2-0.6,4.6-0.7,6.6-1.7c4.4-2.2,7.9-1.4,11.1,2.1
		c1.1,1.2,2.1,2.6,3.4,3.6c0.9,0.7,2.2,1,3.3,1.4c0-1.2,0.4-2.6,0-3.5C207.2,185.6,195.4,184.1,187.6,192z M122,185.4
		c1.6-0.7,2.2-0.9,2.8-1.1c6.5-3.2,13-6.6,18.5,1.6c0.2,0.3,0.6,0.5,0.8,0.5c0.9-0.1,1.9-0.1,2.6-0.5c0.3-0.2,0.2-1.6-0.2-2.2
		c-4.1-7.6-17.7-9-23.5-2.4C122.4,182.1,122.4,183.4,122,185.4z M93.5,188.8c3.4,0.8,6.4,0.1,6.3-3.1c0-3.3-1.6-6.6-2.8-9.8
		c-0.3-0.8-2.3-1.3-3.4-1.1c-0.6,0.1-1.4,1.9-1.3,2.8C92.4,181.2,93,184.8,93.5,188.8z M127,162.6c0.1,0.6,0.3,1.1,0.4,1.7
		c2.5-0.6,4.9-1.5,7.5-1.8c2.6-0.3,5.4-0.1,8-0.1C141.1,156.8,132.4,156.9,127,162.6z M197.9,164.7c0,0.4,0.1,0.8,0.1,1.2
		c2.5,1.4,5.2,2.6,7.3,4.4c2.1,1.8,3.5,4.3,5.2,6.4c1-5.2-2.1-10.4-6.4-11.9C202.4,164.2,200.1,164.7,197.9,164.7z"/>
	<path class="st5" d="M190.4,131.3c-2.5,1.3-4.9,3.6-7.4,3.6c-7,0-14.1-1.2-21.1-1.6c-6.3-0.3-12.5-0.2-18.8-0.3
		c-2.3,0-4.9,0.7-5.3-2.8c1.3-0.4,2.5-0.7,3.8-1.2c2.3-0.8,4.6-1.7,6.8-3.1c9.6,0.6,19.2,0.9,26.2-8.1c0.5-0.6,1.8-0.4,2.7-0.8
		c1.9-1,3.6-2.1,5.5-3.1c1-0.6,2.1-1.1,3.2-1.6c0.4,1,1.1,1.9,1.2,2.9c0.5,4.4-0.2,8.5-5.9,10.2c0.4,0.4,0.9,0.7,1.3,1.1
		c1.4-0.3,2.7-0.7,4.1-1c-0.3,0.3-0.5,0.7-0.8,1C187.3,128.2,188.9,129.8,190.4,131.3z"/>
	<path class="st9" d="M126.2,130.1c-1.4,6.5-3.1,13-4.3,19.6c-2.2,12.2-4.2,24.4-6,36.7c-0.5,3.5-1.1,6.5-5.9,7.9
		c-0.3-2.6-0.8-5.1-1-7.6c-0.8-8.7-1.5-17.5-2.3-26.2c-0.1-0.6-0.5-1.2-0.7-1.8c0.5-1.8,1-3.6,1.7-6.2c5.8,3.6,1.6,9.4,4.6,14.2
		c2.1-8.8,4-16.5,5.6-24.3C119.2,137.2,120.5,132.2,126.2,130.1z"/>
	<path class="st8" d="M102.1,165.7c0.3,2.3,3.9,5-0.9,7c-0.8-1.5-1.4-3-2.4-4.2c-3.5-4.4-9.1-3.7-11.6,1.3
		c-4.2,8.7-1.6,24.2,5.8,30.5c1.6,1.4,4.7,1,8.4,1.6c0-0.2,0.3,2,0,2.1c-2.6,0.7-6.2,2.2-7.7,1.1c-3.4-2.6-5.8-6.5-8.7-9.9
		c-0.1-0.1-0.2-0.1-0.3-0.2c-0.2,0.4-0.4,0.8-0.6,1.2c-0.3,0-0.6,0-0.9-0.1c-0.7-6.3-1.4-12.7-2.1-19c0.4-1.9,0.9-3.9,1.1-5.8
		c0.7-9.6,7.5-11.8,15.9-8.3C99.5,163.6,100.8,164.8,102.1,165.7z"/>
	<path class="st10" d="M124.3,40.5c-0.3-4.8,1.2-7.8,6.8-7.8c1.8,0,3.7-1.8,5.4-3.7c-1.9,0-3.7,0-7.5,0c2.4-3.1,3.6-6.1,5.7-6.9
		c4.5-1.8,9.4-2.4,12.9,3.1c-2.9,1.3-5.8,2.6-8.7,3.9c0.1,0.5,0.2,0.9,0.3,1.4c2.6-0.4,5.3-0.9,7.9-1.3c-0.3,2.7-1.7,3.6-4.4,4.3
		c-3.2,0.8-7.7,0.2-8.7,5c-1.6,0.1-3.3-0.1-4.9,0.2C127.4,39.1,125.9,39.9,124.3,40.5z"/>
	<path class="st6" d="M216.1,139.9c-5.4-0.5-11-0.5-16.3-1.6c-2.9-0.6-6.7-2.1-4.3-6.8c1,3.7,3,5.2,6.9,3.6c1.2-0.5,2.8,0,4.2-0.2
		c1.8-0.3,3.6-0.8,6.3-1.4C213.7,134.9,214.9,137.4,216.1,139.9z"/>
	<path class="st21" d="M124.3,40.5c1.6-0.6,3.1-1.5,4.8-1.8c1.6-0.3,3.2-0.2,4.9-0.2c-0.7,1.1-1.1,2.8-2.1,3.3
		c-2.2,1-4.7,1.5-7.4,2.3c-0.1-1-0.2-1.9-0.3-2.8C124.2,41,124.3,40.8,124.3,40.5z"/>
	<path class="st0" d="M161.9,286.3c6.1,11.4,7.9,23.9,7.9,36.6c0,10.6-1.1,21.2-1.9,31.8c-0.2,2-1.4,4-2,5.5
		c-9.2-0.4-17.9-0.9-26.6-1.3c-3.2-1.7-6.3-3.7-9.6-5.1c-2.6-1.1-3.8,0.5-3.4,3c0.2,1.2,1.3,2.3,1.9,3.4c-4.9,0.5-9.9,1-14.8,1.5
		c-9.2,1-18.4,2-28.7,3.1c0.6-8,1.1-16,1.7-24c0.5-6.3,1.1-12.6,1.4-18.9c0.1-1.8-1-3.7-1.8-6.7c-1.3,1.9-1.9,2.4-1.9,2.9
		c-1,13.4-2.2,26.8-2.9,40.2c-0.5,9.3-0.2,9.3,9.7,10c-0.6,12.6-1.3,25.2-1.9,37.8c-1.4,2.5-2.8,5.1-4.4,7.8
		c2.4,1.2,4.3,2.2,6.2,3.1c3.2,15.3,8.4,30,15.4,44c-0.6,2-1.3,4-1.8,5.6c-1.8,0.6-3.9,0.7-4.8,1.7c-4.1,5-6.9,11.3-13.7,13.6
		c-0.5,0.2-0.7,1.4-1.1,2.1c0.5,1.3,0.7,2.9,1.6,3.8c7.6,7.4,15.2,14.7,23,21.8c0.9,0.8,3,0.3,4.6,0.5c4.3-4.7,8.6-9.3,12.9-14
		c0.4-1.1,0.7-2.1,1.1-3.2c7.3,5.3,14.7,10.7,22,16c-11.2,3.9-22.5,7.8-33.7,11.7c-0.9,0.3-1.9,0.7-2.6,1.4
		c-11.7,10.2-27.4,11.3-40.6,17.9c-7.7-12-15.3-23.9-23-35.9c-3.3-1.1-6.5-2.3-9.8-3.4c-1-2.2-2-4.5-3.3-7.2c-2.1,2.4-3.6,4.1-5,5.7
		c-0.6-3.7-1.2-7.4-1.9-11c0.6-1.5,1.7-2.9,1.8-4.4c0.3-5.1-0.4-10.3,0.7-15.2c1-5-0.2-7.2-5.1-7.4c-2.3-47.2,3.8-92.8,26-135.3
		c0.5-0.9,1.1-1.6,1.7-2.5c2.1-0.5,4.2-0.9,6.3-1.5c12.9-4.3,25.7-8.9,38.6-13c4.1-1.3,4.7-3.2,3.4-7c-3.1-8.9-5.8-17.9-8.8-26.9
		c7.9-6,16.4-10.7,26.1-13.1c0.4,0.1,0.8,0.3,1.2,0.5c-1.2,4.3-2.4,8.6-3.6,12.9c1.6,1.6,2.5,3.4,2.6,5.2c0.2,8.6,0.1,8.6,9,8.7
		c4.7,0,9.8-1.1,13.8,0.5c5.7,2.3,8.7,1.9,10-4.5C156.7,285.5,159.3,285.9,161.9,286.3z M49.1,420.3c0.4-0.4,0.8-0.8,1.1-1.2
		c0.6-1,1.2-2,1.8-3c4.8-2.1,5-6.8,6.1-11c2.1-5.6,4.2-11.2,6.3-16.8c2.6-7,5.2-14,7.8-21c0.7-1.4,1.3-2.7,1.9-4.1
		c1-3.7,2.1-7.4,2.8-11.2c0.2-1.1-0.8-3.4-1.5-3.5c-1.6-0.2-4.1,0-4.8,1c-2.2,3.3-3.7,7-5.5,10.6c-0.5,1.3-1,2.6-1.5,4
		c-1.6,4.7-3.2,9.4-4.7,14.1c-0.6,1.6-1.3,3.3-1.9,4.9c-1.2-0.6-2.3-1.6-3.6-1.9c-1.3-0.3-3.9,0.2-3.9,0.2
		c0.2,5.3,0.5,10.5,0.9,15.7c-1.1,3.3-2.1,6.6-3.2,10c-0.4,4.4-0.9,8.8-1.3,13.1c0.3,0.9,0.6,1.7,0.9,2.5
		C47.6,422,48.3,421.2,49.1,420.3z M69.2,448.2c2.5-4.3-0.2-6.5-3.7-7c-7-1.1-14.1-1.8-21.1-1.8c-2,0-5.6,2.8-5.8,4.6
		c-0.9,7-0.7,14.1-0.9,21.2c-1.1,9.4,0.9,11.7,10.3,11.6c4.1-0.1,8.6-1.5,12.2-0.3c5.3,1.8,6.4-0.8,7.5-4.6
		C68.1,464.1,68.6,456.2,69.2,448.2z M114,322.1c-1.6-0.1-4.4-0.7-4.7-0.1c-1.1,1.9-1.9,4.5-1.5,6.6c0.4,1.7,2.5,4,4.1,4.2
		c3,0.4,6.1-0.6,9.2-1c7.8-1.2,15.8-1.8,23.4-3.8c4.9-1.3,9.2-4.6,13.8-7.1c-0.2-0.7-0.3-1.3-0.5-2c-3.6-0.9-7.2-1.8-10.8-2.8
		c-0.7-0.1-1.3-0.1-2-0.2c-3,0.4-6,0.7-9,1.1c-0.3,0-0.6,0-0.9,0c-5,0.7-10,1.4-15,2.1C116.8,317.5,114.7,318.3,114,322.1z"/>
	<path class="st24" d="M157,447.3c5.6,8.1,10.7,16.8,17.1,24.3c9.4,11.2,20.8,20.5,34.3,26.4c6.7,2.9,14.4,3.6,21.6,5.2
		c8.1,1.8,13.4,7.8,19.2,12.8c1.3,1.1,1.4,3.4,2.4,6c-5.4-1.1-7.9-6.9-14.5-5.2c3.2,2.7,6.1,4.4,7.9,6.8c1.6,2.2,2,5.3,3,8.1
		c-0.4,0.1-0.8,0.2-1.3,0.4c-3.5-2.9-7-6-10.7-8.8c-0.7-0.5-1.9-0.4-2.9-0.6c0.2,1.1-0.1,2.7,0.6,3.3c1.9,1.8,4.2,3.2,6.2,5
		c1.3,1.2,2.2,2.7,3.3,4.1c-19.5-4.9-38.9-9.8-58.4-14.7c-1-1.2-1.8-2.9-3.1-3.5c-7.4-3.1-15.3-5.3-22.4-8.9
		c-15.1-7.7-27.9-18.4-38.2-31.9c15.7-2.4,17.6-4.1,21.4-19.7c0.1-0.3,0.3-0.6,0.3-0.9c3.4-15.9-8.3-29.4-24.3-27.2
		c-6.3,0.9-12.3,3.9-18.5,5.9c-6.4-16.8-7.6-34.3-6.9-52c5.8,0,11.5,0,17.1,0c1-0.9,2.1-2.6,3.4-2.9c11.5-2.2,23-4.2,34.5-6.2
		c-0.7,13.7-2.1,27.3-1.8,41c0.2,11,3.1,21.8,9.8,31.1C156.4,445.9,156.7,446.6,157,447.3z"/>
	<path class="st7" d="M121.1,476.1c10.3,13.6,23.1,24.2,38.2,31.9c7.1,3.6,15,5.8,22.4,8.9c1.3,0.5,2.1,2.3,3.1,3.5
		c-3.6-0.8-7.1-1.6-10.7-2.4c-5.7-1.6-11.3-3.3-17-4.9c-2.3-1.4-4.6-2.8-6.8-4.2c-7.3-5.3-14.7-10.7-22-16c-2-2.6-4-5.3-6-8
		c-0.3-0.3-0.6-0.7-0.9-1c-0.7-1-1.4-1.9-2.1-2.9c-0.9-0.8-1.8-1.6-2.7-2.5c-0.7-1.2-1.3-2.4-1.9-3.6c-2.1-3.4-4.1-6.8-6.2-10.2
		c-0.6-1.3-1.3-2.6-1.9-3.9c-7-14-12.2-28.6-15.4-44c-0.6-3.6-1.2-7.3-1.8-11c0.6-12.6,1.3-25.2,1.9-37.8c1.3-0.1,2.6-0.3,3.9-0.4
		c-0.6,4.8-1.2,9.6-1.8,14.3c-0.7,17.7,0.5,35.2,6.9,52c5.4,11.9,10.8,23.8,16.3,35.6C117.5,472.2,119.5,474,121.1,476.1z"/>
	<path class="st23" d="M70.2,541c-4.3,1.8-8.7,3.6-13,5.4c-5.7-8.8-11.6-17.6-17.1-26.6c-1.1-1.8-0.6-4.5-0.8-6.8
		c0.3-0.1,0.5-0.3,0.6-0.6c1.8-0.7,3.8-1,5.4-2.1c3.1-2,5.3-2,7.3,1.5c2.6,4.6,5.6,9,8.3,13.5C64.1,530.5,67.1,535.8,70.2,541z"/>
	<path class="st25" d="M225.2,594.1c-0.4,7.2-0.7,14.5-1.3,21.7c-0.1,1.5-1.2,2.9-1.8,4.4c-8,0-15.9,0-23.9,0c0-3.4,0-6.7,0-10
		c1.3-0.1,2.6-0.2,3.9-0.2c-1,4.8,1.5,6.2,5.8,6c2.3-0.1,4.6,0,6.9,0.1c5.7,0,6.1-0.4,4.7-6.2c-1.5-0.6-3-1.1-4.5-1.7
		c1.1-2.7-0.4-3.2-2.6-3.1c-4.7,0.3-9.4,0.5-14.1,0.8c-0.3-14.9-0.3-15,14.5-14.7C217,591.3,221.9,589.7,225.2,594.1z"/>
	<path class="st25" d="M286.1,561.3c-2.4,5.1-4.5,10.4-7.3,15.3c-0.6,1.1-3.1,1.1-4.8,1.5c-3-1.9-5.9-3.9-8.9-5.8
		c-2.3-1.4-4.5-3-6.9-4.1c-3-1.4-2.7-3.6-2.2-6.1c2.4-4.3,4.8-8.6,7.2-12.9C270.9,553.2,278.5,557.2,286.1,561.3z"/>
	<path class="st3" d="M318.1,594.2c-3.1-13.8-12.6-23-23.1-31.3c-1.4-1.1-2.7-2.4-4.1-3.6c2.1-3.7,4.1-7.4,6.2-11.1
		c4,3.3,8,6.7,12.1,10c-2,10.7-2,10.7,8.7,13.5c0.5,0.1,0.9,0.3,1.4,0.5c0.6,6,1.2,12,1.8,17.9C320,591.4,319,592.8,318.1,594.2z"/>
	<path class="st25" d="M289,558.1c-7.7-4.3-15.4-8.6-23.1-12.9c2-3.8,4.1-7.7,6.1-11.6c4.3,2.5,8.7,4.9,13,7.4
		c0.4,1.1,0.5,2.6,1.2,3.2c2.4,1.8,5.1,3.2,7.7,4.8C292.2,552.4,290.6,555.3,289,558.1z"/>
	<path class="st15" d="M94.7,274.9c2.9,9,5.7,18,8.8,26.9c1.3,3.8,0.7,5.7-3.4,7c-12.9,4.1-25.7,8.7-38.6,13c-2,0.7-4.2,1-6.3,1.5
		c0.5-1.1,0.9-2.1,1.3-3.2c4.9-1.4,9.9-2.8,14.6-4.1c-0.9-3.1-1.6-5.1-2.2-7.2c-0.3,0.1-0.5,0.2-0.8,0.3c-0.7-1-1.4-2-2.1-3
		c1.3-1.7,2.6-3.4,3.9-5.1c0.2,1.3,0.5,2.5,0.7,4c0.7,0,2,0.1,3.3,0.1c0.6,2.5,0.8,5.2,2,7.5c0.2,0.5,3.7-0.7,5.7-1.1
		c0.8-0.2,1.7-0.1,2.4-0.4c5.8-1.9,11.5-3.7,17.8-5.8c-3.5-9.9-6.7-19.1-9.8-28.3C92.9,276.3,93.8,275.6,94.7,274.9z"/>
	<path class="st14" d="M71.3,585.1c-0.8-0.6-1.5-1.1-3.3-2.4c9.2-3.1,17.2-5.9,25.4-8.4c0.8-0.3,2.9,1,3.3,1.9
		c3,9,5.7,18.2,8.5,27.3c-4.7-1.7-9.4-3.4-14.1-5.1c2.1-1.8,4.2-3.6,6.1-5.4c0,0-0.9-1.1-1.4-1.7c-0.4-1.4,3.1-4.3-1.6-4
		c0-0.7,0-1.3,0-2c-0.3-0.7-0.6-1.4-0.9-2c0.2-1.5,0.3-3,0.5-5.2c-6.9,2.5-13.3,4.9-19.7,7.2C73.1,585.1,72.2,585.1,71.3,585.1z"/>
	<path class="st25" d="M92,277.1c3.2,9.2,6.4,18.4,9.8,28.3c-6.3,2.1-12,4-17.8,5.8c-0.8,0.3-1.6,0.2-2.4,0.4
		c-2,0.4-5.4,1.6-5.7,1.1c-1.2-2.2-1.4-4.9-2-7.5c0.4-0.1,0.9-0.1,1.3-0.2c0.6,1.3,1.3,2.6,2,4.2c5.5-1.8,11-3.5,16.4-5.5
		c0.7-0.3,0.9-1.8,1.4-2.8c-0.3-0.5-0.6-1.1-0.9-1.6c0.3-0.8,0.7-1.6,1-2.3c-0.4-0.9-0.8-1.9-1.2-2.8c-1.3-0.5-2.6-1-3.8-1.5
		c0-0.5,0-1-0.1-1.5c0.6-0.7,1.3-1.5,2.4-2.9c-2.2,0.1-3.3,0.2-4.4,0.2c0-0.4,0-0.8,0-1.2c0.9-0.7,1.8-1.5,2.7-2.2
		c-0.1-0.3-0.3-0.5-0.4-0.8c-2.4,0.3-4.8,0.5-7.3,0.8C86.2,282.4,89.1,279.7,92,277.1z"/>
	<path class="st25" d="M183.4,525c-1,2.2-2,4.5-2.4,5.4c-3-0.2-5.3-0.4-7.6-0.4c-3.1,0-6.3,0.7-9.3,0.3c-5.6-0.7-7.9-4.3-7.9-11
		C165.3,521.1,174.4,523,183.4,525z"/>
	<path class="st13" d="M73.5,606.9c0.4,2.1,0.5,4.2,1.1,6.2c0.9,2.9,2.2,5.7,3.9,9.8c-4,1.1-8.1,2.2-12.2,3.2
		c1.3-8,2.6-15.9,3.9-23.9c0.6,0,1.3,0,1.9-0.1c-0.3,1-0.6,2-0.9,3C71.9,605.7,72.7,606.3,73.5,606.9z"/>
	<path class="st18" d="M70.2,541c-3.1-5.2-6.1-10.5-9.3-15.7c-2.7-4.5-5.7-8.9-8.3-13.5c-2-3.5-4.2-3.5-7.3-1.5
		c-1.6,1-3.6,1.4-5.4,2.1c2.6-2.7,5.1-5.4,7.7-8.1c0.9-0.1,1.8-0.2,2.6-0.3c7.7,12,15.3,23.9,23,35.9
		C72.2,540.3,71.2,540.6,70.2,541z"/>
	<path class="st25" d="M107.9,608.4c0.8,2.8,0.1,4.5-3,5.5c-5.4,1.5-10.6,3.5-16,5.3c-6.5,2.2-9.1-0.1-8-6.9c0.5-0.1,1-0.2,1.5-0.4
		c1.9-0.4,3.8-0.8,5.7-1.2c0,0.4,0,0.9,0,1.3c-1.7,0.9-3.3,1.9-5,2.8c0.3,0.7,0.6,1.4,1,2c6.4-2.8,12.9-5.5,19.3-8.3
		C104.9,608.5,106.4,608.4,107.9,608.4z"/>
	<path class="st26" d="M82.4,611.8c-0.5,0.1-1,0.2-1.5,0.4c-1.3-0.7-2.6-1.4-3.9-2.1c0.6-0.4,1.1-0.8,1.7-1.3
		c-0.6-0.2-1.1-0.4-1.7-0.6c-0.3-1.4-0.5-2.8-0.9-5.2c0.2,0.1-0.9-0.4-2-0.9c0.7-1.4,1.3-2.8,2-4.2c6,2.4,12.1,4.8,18.1,7.2
		c-2.9,1.3-5.9,2.4-8.7,3.9C84.3,609.5,83.4,610.8,82.4,611.8z"/>
	<path class="st13" d="M90.1,291.1c0,0.5,0,1,0.1,1.5c-5.2,2.1-10.4,4.3-15.6,6.4c0.2,0.4,0.3,0.8,0.5,1.2c6.3-2,12.7-4.1,19-6.2
		c0.4,0.9,0.8,1.9,1.2,2.8c-6.1,1.8-12.2,3.5-18.2,5.5c-0.8,0.2-1.1,1.7-1.7,2.6c-0.4,0.1-0.9,0.1-1.3,0.2c-1.3-0.1-2.6-0.1-3.3-0.1
		c-0.3-1.5-0.5-2.7-0.7-4c0.8-1.6,1.5-3.3,2.3-4.9C78.2,294.5,84.2,292.8,90.1,291.1z"/>
	<path class="st19" d="M122,262.2c-0.4-0.1-0.8-0.3-1.2-0.5c0.9-1,1.8-1.9,2.8-2.9c0.5,0.1,0.9,0.2,1.4,0.4c2.7,1,5.4,2,8.1,3
		c0.3,0.6,0.6,1.2,1.1,1.6c3.7,3.4,7.7,6.6,1.7,11.5c-0.3,0.3,0.8,3,1.8,4c1.3,1.4,3.2,2.2,4.8,3.3c-0.3,0.5-0.6,1-0.9,1.5
		c-2.4-1.1-4.7-2.4-7.1-3.4c-3.3-1.3-3.9-2.9-1.7-5.9c3.3-4.5,1.5-8.9-3.9-10.6c-1.2-0.4-2.5-0.8-3.7-1.2
		C124,262.7,123,262.4,122,262.2z"/>
	<path class="st18" d="M39.3,513c0.2,2.3-0.3,5,0.8,6.8c5.5,9,11.3,17.8,17.1,26.6c-1.3,0.6-2.6,1.2-3.9,1.7
		c-3.7-5.7-7.5-11.5-11.2-17.2c-2-5.6-4-11.3-6-16.9c0-0.4,0.1-0.9,0.2-1.3C37.3,512.9,38.3,512.9,39.3,513z"/>
	<path class="st3" d="M248.7,537.3c1.1-3.1,2.2-6.2,3.4-9.2c0.5-1.4,1.3-2.7,2-4c2.3,1.3,4.7,2.7,7,4c-2,4-4,8.1-6.1,12.1
		C252.9,539.3,250.8,538.3,248.7,537.3z"/>
	<path class="st13" d="M71.3,585.1c0.9,0,1.9,0,2.8,0c1.5,0.1,3.1,0.6,4.5,0.3c2.6-0.5,5.1-1.5,7.6-2.2c0,0.5,0,1,0.1,1.5
		c-3.2,1.6-6.4,3.1-9.7,4.7c0.1,0.4,0.3,0.7,0.4,1.1c5.7-1.8,11.4-3.5,17.2-5.3c0,0.7,0,1.3,0,2c-6,2-11.9,4.1-17.9,6.1
		c-2.1-2-4.2-4-6.2-5.9C70.4,586.6,70.8,585.8,71.3,585.1z"/>
	<path class="st22" d="M27.5,461.1c4.9,0.3,6.1,2.5,5.1,7.4c-1,4.9-0.3,10.1-0.7,15.2c-0.1,1.5-1.2,3-1.8,4.4
		C29.4,479.1,28.5,470.1,27.5,461.1z"/>
	<path class="st13" d="M66.1,306.1c0.7,1,1.4,2,2.1,3c0.3-0.1,0.5-0.2,0.8-0.3c0.6,2.1,1.3,4.2,2.2,7.2c-4.8,1.3-9.7,2.7-14.6,4.1
		C59.7,315.5,62.9,310.8,66.1,306.1z"/>
	<path class="st15" d="M215,608.2c1.5,0.5,3,1.1,4.5,1.7c1.3,5.8,1,6.3-4.7,6.2c-2.3,0-4.6-0.2-6.9-0.1c-4.3,0.2-6.8-1.2-5.8-6
		C206.4,609.4,210.7,608.8,215,608.2z M204.7,611.8c0,0.5,0,0.9-0.1,1.4c4.1,0.3,8.2,0.5,12.3,0.8c0-0.7,0.1-1.4,0.1-2.1
		C212.9,611.8,208.8,611.8,204.7,611.8z"/>
	<path class="st14" d="M264,544.2c-0.3,0-0.6-0.1-0.8-0.2c-1.3-1.6-2.6-3.2-4.6-5.7c1-2.1,2.8-5.6,4.6-9.1c2.4,1.2,4.7,2.4,7.1,3.7
		C268.2,536.7,266.1,540.5,264,544.2z"/>
	<path class="st3" d="M42,531c3.7,5.7,7.5,11.5,11.2,17.2c-1.5,0.6-3,1.3-5,2.2C46.1,543.7,44.1,537.3,42,531z"/>
	<path class="st25" d="M250.2,556.7c1.3-3.7,2.7-7.5,4-11.2c2.3,0.9,4.6,1.8,6.8,2.8c-2.2,3.3-2,8.8-7.9,8.8
		C252.1,557,251.1,556.8,250.2,556.7z"/>
	<path class="st16" d="M289,558.1c1.6-2.9,3.2-5.7,5-9c-2.6-1.6-5.3-3-7.7-4.8c-0.8-0.6-0.8-2.1-1.2-3.2c4,2.3,8,4.7,11.9,7
		c-2.1,3.7-4.1,7.4-6.2,11.1C290.3,558.9,289.6,558.5,289,558.1z"/>
	<path class="st19" d="M275,631.4c1.6,0.6,3.2,1.3,5.2,2.1c-3.8,3.2-6.9,5.8-10,8.5c-2.1,0.7-4.1,1.4-6.2,2.1c0.7-1.3,1.3-2.6,2-3.9
		l0,0c0.4,0,0.8,0,1.2,0c3.5-1,5.7-3.1,5.8-7l0,0c0.4-0.3,0.9-0.7,1.3-1C274.7,632,274.9,631.7,275,631.4z"/>
	<path class="st15" d="M95.7,591.2c0.5,0.6,1.4,1.7,1.4,1.7c-2,1.9-4.1,3.7-6.1,5.4c-2.6-0.7-5.3-1.5-7.9-2.2
		c2.4-1.2,4.8-2.3,7.1-3.5c1.5-0.5,2.9-1,4.4-1.5C95,591.1,95.4,591.2,95.7,591.2z"/>
	<path class="st19" d="M90.1,291.1c-6,1.7-11.9,3.3-17.9,5c0.9-1,1.8-2,2.7-3c4.4-1.5,8.8-3.1,13.2-4.6c1.1-0.1,2.3-0.1,4.4-0.2
		C91.4,289.7,90.7,290.4,90.1,291.1z"/>
	<path class="st16" d="M263.2,529.3c-1.8,3.5-3.5,7-4.6,9.1c2,2.5,3.3,4.1,4.6,5.7c-2.7-1.3-5.4-2.5-8.2-3.8c2-4,4-8.1,6.1-12.1
		C261.8,528.5,262.5,528.9,263.2,529.3z"/>
	<path class="st19" d="M103.4,608.5c-6.4,2.8-12.9,5.5-19.3,8.3c-0.3-0.7-0.6-1.4-1-2c1.7-0.9,3.3-1.9,5-2.8
		c1.9-0.4,3.8-0.8,5.8-1.3C97,610,100.2,609.3,103.4,608.5C103.3,608.5,103.4,608.5,103.4,608.5z"/>
	<path class="st18" d="M32.1,499.2c1.4-1.6,2.9-3.3,5-5.7c1.3,2.8,2.3,5,3.3,7.2c-0.1,0.5-0.2,1.1-0.4,1.6c-0.7-0.1-1.3-0.1-2-0.2
		c-0.6-0.4-1.4-1.2-1.7-1c-1.2,0.6-2.3,1.5-3.5,2.3C32.7,501.9,32.4,500.6,32.1,499.2z"/>
	<path class="st19" d="M318.1,594.2c1-1.4,1.9-2.8,2.9-4.2c-0.3,6.3-0.6,12.7-1,19c-0.6,0-1.3,0-1.9,0
		C318.1,604.1,318.1,599.2,318.1,594.2z"/>
	<path class="st18" d="M319.2,572.1c-0.5-0.2-0.9-0.4-1.4-0.5c-10.7-2.8-10.7-2.8-8.7-13.5c0.6,0.7,1.3,1.5,2,2.2
		c-1.8,6.4-0.8,7.5,7.1,8.8C318.5,570.1,318.8,571.1,319.2,572.1z"/>
	<path class="st15" d="M253.1,557.1c5.9,0,5.7-5.5,7.9-8.8c0.7,0.3,1.5,0.6,2.2,0.9c-2.4,4.3-4.8,8.6-7.2,12.9c-1-0.7-2-1.3-3-2
		C253.1,559.1,253.1,558.1,253.1,557.1z"/>
	<path class="st16" d="M95.7,591.2c-0.4,0-0.7,0-1.1-0.1c-1.5,0-3,0-4.5,0.1c-3.8,1-7.5,2-11.3,3c-0.9-0.3-1.8-0.7-2.7-1
		c6-2,11.9-4.1,17.9-6.1C98.8,586.8,95.3,589.8,95.7,591.2z"/>
	<path class="st23" d="M318.1,569.1c-7.9-1.3-8.8-2.4-7.1-8.8C313.4,563.3,315.8,566.2,318.1,569.1z"/>
	<path class="st15" d="M82.4,611.8c1-1,1.9-2.2,3.2-2.9c2.8-1.5,5.8-2.6,8.7-3.9c1.3,0.4,2.6,0.8,3.9,1.2c-3.4,1.5-6.7,2.9-10.1,4.3
		C86.2,611,84.3,611.4,82.4,611.8z"/>
	<path class="st13" d="M88.1,610.6c3.4-1.5,6.7-2.9,10.1-4.3c1.7,0.8,3.4,1.5,5.2,2.3c-3.2,0.7-6.3,1.4-9.5,2.1
		c-1.9,0.4-3.8,0.8-5.8,1.3C88.1,611.5,88.1,611.1,88.1,610.6z"/>
	<path class="st15" d="M76.1,597.9c-0.7,1.4-1.3,2.8-2,4.2c-0.7,0-1.3,0-1.9,0c-0.6,0-1.3,0-1.9,0.1c0.2-2.2,0.5-4.3,0.8-7.5
		C73.3,596.1,74.7,597,76.1,597.9z"/>
	<path class="st16" d="M264,544.2c2.1-3.8,4.1-7.6,6.2-11.3c0.6,0.3,1.3,0.5,1.9,0.8c-2,3.8-4.1,7.7-6.1,11.6
		C265.3,544.9,264.7,544.6,264,544.2z"/>
	<path class="st15" d="M32.9,503.3c1.2-0.8,2.2-1.7,3.5-2.3c0.3-0.2,1.1,0.6,1.7,1c-0.6,3.6-1.3,7.1-1.9,10.7c0,0.4-0.1,0.9-0.2,1.3
		C35,510.5,34,506.9,32.9,503.3z"/>
	<path class="st13" d="M88.1,288.5c-4.4,1.5-8.8,3.1-13.2,4.6c1.4-1.3,2.8-2.6,4.2-3.9c3-0.6,6-1.3,9.1-1.9
		C88.1,287.7,88.1,288.1,88.1,288.5z"/>
	<path class="st25" d="M112.1,256.2c2.3,0,4.6,0,7,0c0.1,0.7,0.2,1.4,0.3,2.1c-3.3,1-6.7,2-10,3
		C110.2,259.6,111.2,257.9,112.1,256.2z"/>
	<path class="st13" d="M157,513.1c5.7,1.6,11.3,3.3,17,4.9C168.4,516.4,162.7,514.8,157,513.1z"/>
	<path class="st19" d="M88.2,287.3c-3,0.6-6,1.3-9.1,1.9c1.4-1.4,2.8-2.7,4.1-4.1c2.4-0.3,4.8-0.5,7.3-0.8c0.1,0.3,0.3,0.5,0.4,0.8
		C90,285.8,89.1,286.5,88.2,287.3z"/>
	<path class="st13" d="M78.9,594.2c3.8-1,7.5-2,11.3-3c0,0.5,0.1,1,0.1,1.4c-2.4,1.2-4.8,2.3-7.1,3.5
		C81.7,595.5,80.3,594.8,78.9,594.2z"/>
	<path class="st16" d="M266.1,640.1c-0.7,1.3-1.3,2.6-2,3.9c-0.9,0.1-1.9,0.1-2.8,0.2c0.3-0.7,0.7-1.4,1-2c0.3-0.3,0.5-0.7,0.8-1
		l0,0c0.5-0.3,0.9-0.7,1.4-1C265,640.1,265.5,640.1,266.1,640.1z"/>
	<path class="st19" d="M121.8,257.3c0.5-0.2,1.1-0.5,1.6-0.7c-0.1,0.3-0.2,0.6-0.3,0.9C122.7,257.4,122.2,257.3,121.8,257.3z"/>
	<path class="st15" d="M191,294.4c-0.9-3-1.8-6.1-2.6-9.1c8.7-5.9,18.1-2,27.1-1.7c3.4,0.1,4.8,3.6,4.6,7.2
		c-0.4,8.1-0.7,16.3-1.1,24.4c-1.3-0.3-2.6-0.6-3.9-0.9c0.6-1,1.8-1.9,1.8-2.8c0.3-7.1,0.3-14.3,0.4-21.4c0.1-3.3-1.7-4.8-4.9-4.8
		c-5.3,0-10.6-0.4-15.9,0c-1.7,0.1-3.6,2.1-4.7,3.8C190.9,290.4,191.2,292.6,191,294.4z"/>
	<path class="st17" d="M215.1,314.3c1.3,0.3,2.6,0.6,3.9,0.9c-1.4,2-2.7,3.9-3.5,5.1c-8.2-0.5-15.3-2.3-22.5,0.1
		c0,0-0.3-0.2-0.3-0.2c-1.2-1.3-2.5-2.7-3.7-4c1.7-1,3.5-2.1,5.2-3.1c0.9,0.4,1.8,1.1,2.6,1.1C202.9,314.3,209,314.3,215.1,314.3z"
		/>
	<path class="st15" d="M240.9,322.1c-2.7,4,0.1,8.1,0.1,12.1c-0.3-0.1-0.8-0.1-0.9-0.3c-2-2.3-3.9-4.6-5.9-7
		C236.4,325.3,238.6,323.7,240.9,322.1z"/>
	<path class="st7" d="M238.9,264c-0.3,0.8-0.6,1.5-0.9,2.3C238.3,265.5,238.6,264.7,238.9,264z"/>
	<path class="st3" d="M188.9,316.2c1.2,1.3,2.5,2.7,3.7,4c-0.5,3.5-1.2,7-1.5,10.5c-0.3,3.1-0.1,6.3-0.1,9.4c-1.2-1-2.4-2-3.9-3.1
		c-2.1,3.6-6,6.5-1.5,10.8c0.6,0.5,0.1,2.5-0.3,3.6c-1.5,4-0.7,7.1,2.6,9.7c0.4,3.6,1.2,7.3,1.1,10.9c-0.3,6.4-1.2,12.8-1.9,19.2
		c-2.8-1.3-5.6-2.5-8.4-3.8c-0.3-0.4-0.6-0.7-1-1.1c-2.2-1.8-4.4-3.6-6.6-5.5c-6-4.3-11.9-8.7-17.9-13c0.3-1.5,0.6-3.1,0.8-4.6
		c4.9,0.9,9.9,1.6,14.7-0.6c0.9-0.4,1.8-1.3,2.2-2.2c0.6-1.4,1-2.9,0.8-4.4c-0.9-9.8,5.1-15.5,11.9-20.8c1.2-0.9,2.3-1.9,3.4-2.9
		c4-3.7,4.1-6.7,0.4-10.6c-1.5-1.5-3.2-2.9-5.4-4.9C184.8,316.8,186.9,316.5,188.9,316.2z"/>
	<path class="st8" d="M93.2,382.2c0.6-4.8,1.2-9.6,1.8-14.3c7-0.8,14-1.7,21.1-2.3c11.3-0.9,22.7-1.5,34-2.3
		c-0.6,3.3-1.3,6.5-1.9,9.8c-11.5,2-23,4-34.5,6.2c-1.3,0.3-2.3,2-3.4,2.9C104.7,382.2,98.9,382.2,93.2,382.2z"/>
	<path class="st25" d="M215.1,314.3c-6.1,0-12.2,0-18.3,0c-0.9,0-1.8-0.7-2.6-1.1c-0.2-1.7-0.3-3.3-0.5-5c5.8,0.7,11.6,1.4,17.4,1.8
		c0.6,0,1.9-1.7,2-2.7c0.1-1.3-0.7-3.6-1.3-3.7c-4.9-0.4-9.9-0.7-14.8-0.3c-1.3,0.1-2.5,2.5-3.7,3.9c-0.8-4.3-1.5-8.5-2.3-12.8
		c0.2-1.8-0.1-3.9,0.8-5.3c1-1.7,3-3.7,4.7-3.8c5.3-0.4,10.6,0,15.9,0c3.2,0,5,1.5,4.9,4.8c-0.1,7.1-0.1,14.3-0.4,21.4
		C216.9,312.4,215.7,313.3,215.1,314.3z"/>
	<path class="st25" d="M125,263c1.3,0.4,2.5,0.8,3.7,1.2c5.5,1.8,7.2,6.2,3.9,10.6c-2.2,3-1.7,4.6,1.7,5.9c2.4,1,4.8,2.3,7.1,3.4
		c0.3-0.5,0.6-1,0.9-1.5c-1.6-1.1-3.5-1.9-4.8-3.3c-1-1-2.1-3.7-1.8-4c6-4.9,2-8.1-1.7-11.5c-0.5-0.4-0.7-1.1-1.1-1.6
		c4.3,2,8.6,4.1,12.9,6.1c0,4.6-0.1,9.3,0,14c0,3-1.2,4.2-4.2,4.1c-4.6-0.2-9.3-0.2-13.9-0.1c-2.7,0.1-4-0.8-3.8-3.7
		c0.2-2,0-4,0.1-6C124.3,272,124.7,267.5,125,263z"/>
	<path class="st7" d="M148.1,373.1c0.6-3.3,1.3-6.5,1.9-9.8c1.4,0,2.7,0,4.1,0c-0.3,1.5-0.6,3.1-0.8,4.6c-0.1,1-0.2,1.9-0.3,2.8
		c-0.3,1.7-0.5,3.4-0.8,5.1c-0.1,1.3-0.1,2.6-0.1,3.9c-0.6,10.7-1.3,21.4-1.9,32.1c0.3,2.8,0.7,5.5,1,8.3c1.4,5.2,2.7,10.5,4.1,15.7
		c0.3,3.1,0.5,6.2,0.8,9.3c-6.7-9.3-9.5-20.1-9.8-31.1C146,400.5,147.4,386.8,148.1,373.1z"/>
	<path class="st16" d="M125,263c-0.3,4.5-0.7,9-0.9,13.6c-0.1,2,0.1,4-0.1,6c-0.2,2.9,1.1,3.8,3.8,3.7c4.7-0.1,9.3-0.1,14,0.1
		c3,0.1,4.3-1.1,4.2-4.1c-0.1-4.6,0-9.3,0-14c0.7,0.5,1.5,0.9,2.2,1.4c0,6,0,12.1,0,18.1c0.7,0,1.4,0,2.2,0c0-5.2,0-10.4,0-15.6
		c0.9,0.4,2,0.6,2.5,1.3c3.1,4.3,6.1,8.6,9.1,13c-2.6-0.4-5.2-0.9-8.1-1.3c-1.3,6.4-4.3,6.8-10,4.5c-4-1.6-9.2-0.4-13.8-0.5
		c-8.9-0.1-8.8-0.1-9-8.7c0-1.8-1-3.6-2.6-5.2c1.2-4.3,2.4-8.6,3.6-12.9C123,262.4,124,262.7,125,263z"/>
	<path class="st15" d="M193.3,307.1c1.2-1.4,2.4-3.8,3.7-3.9c4.9-0.4,9.9-0.1,14.8,0.3c0.6,0,1.3,2.4,1.3,3.7c-0.1,1-1.3,2.7-2,2.7
		c-5.8-0.4-11.6-1.2-17.4-1.8C193.5,307.8,193.4,307.5,193.3,307.1z M209.6,306.9c0-0.4,0-0.7,0-1.1c-3.9,0-7.8,0-11.8,0
		c0,0.4,0,0.7,0,1.1C201.8,306.9,205.7,306.9,209.6,306.9z"/>
	<path class="st16" d="M128.3,360.2c-0.7-1.1-1.7-2.2-1.9-3.4c-0.4-2.5,0.8-4.2,3.4-3c3.3,1.4,6.4,3.4,9.6,5.1
		C135.6,359.3,132,359.8,128.3,360.2z"/>
	<path class="st14" d="M150.3,272.1c0,5.2,0,10.4,0,15.6c-0.7,0-1.4,0-2.2,0c0-6,0-12.1,0-18.1C148.9,270.4,149.6,271.3,150.3,272.1
		z"/>
	<path class="st8" d="M487.9,236.1c-1.5,6.8-0.3,16.8-9.9,22.1c-2.1,1.2-5.1,0.9-7.6,1.2c-1.4,0.2-2.9,0.4-4.3,0.6
		c-4.3,0.6-8.6,0.9-11.1-3.5c-2.3-4-1.7-8.2,1.3-11.6c2.1-2.5,1.8-4.4,0.4-7.1c-0.9-1.7-0.7-5.6,0.5-6.5c4.7-3.6,8.5-9.2,15-9.7
		C482.5,220.8,488.4,222.8,487.9,236.1z"/>
	<path class="st24" d="M249.1,265.1c14.9-7,29-15.2,42.1-25.3c12.6-9.7,23.2-21.3,32.8-33.8c8.8-11.4,16.7-23.5,24.8-35.4
		c2-2.9,2.8-6.7,4.6-9.8c2.8-4.6,5.7-9.4,9.3-13.3c3.3-3.5,7.6-3.6,11.6-0.3c0,0.5,0.1,1.1,0.1,1.6c-1.6,2.2-3.3,4.3-4.9,6.5
		c2.9,2.3,3.6,2,9.6-4c-0.3,6.2-1,11.9-0.5,17.4c0.2,2.2,2.5,5.6,4.4,6c3.2,0.7,4-2.3,3.7-5.7c-1.6,0.6-2.8,1.1-5.4,2.2
		c2-4.4,3.3-7.5,4.9-11c-5.3-1.2-4-4.4-3.1-7.8c0.7-2.7,0.8-5.5,1.1-8.3c0.9-1.1,1.8-2.3,2.8-3.4c4.3,2.3,6.2,5.2,3.9,10.3
		c-0.9,2.1-0.1,4.9-0.1,7.4c0,2.6,0.9,5.6-0.1,7.8c-2.6,6.1-5.6,12-9,17.6c-0.9,1.6-3.7,2.1-4.9,2.7c-2.7,6.5-4.7,13.2-8.1,19
		c-7.7,13.1-16.1,25.8-24.3,38.7c-0.5,0.8-1.5,1.3-2.2,2c-3-4.7-7.1-8.6-12.9-7.9c-9.5,1.1-17.6,5.5-23.9,13
		c-7.5,9-5.2,21.7,4.8,26.7c-14.9,13.7-30.8,25.8-50,33c-0.4-2.3-0.5-4.6-1.1-6.8C255.8,291.3,255.5,277.4,249.1,265.1z"/>
	<path class="st8" d="M310.1,278.1c-10-5-12.3-17.7-4.8-26.7c6.3-7.5,14.4-11.8,23.9-13c5.8-0.7,9.9,3.1,12.9,7.9
		c-4.9,6-9.3,12.4-14.8,17.8C322.1,269.3,315.9,273.5,310.1,278.1z"/>
	<path class="st8" d="M249.1,265.1c6.5,12.3,6.7,26.1,10,39.2c0.5,2.2,0.7,4.5,1.1,6.8c-4,1.7-7.9,3.4-11.9,5.1
		c-1.4-6-2.8-12.1-4.2-18.1c-0.6-10.6-1.2-21.3-1.8-31.9C244.4,265.9,246.8,265.5,249.1,265.1z"/>
	<path class="st7" d="M384.1,144.2c-0.4,2.8-0.4,5.6-1.1,8.3c-0.9,3.4-2.2,6.6,3.1,7.8c-1.5,3.5-3,6.6-4.9,11
		c2.6-1.1,3.8-1.5,5.4-2.2c0.3,3.4-0.5,6.4-3.7,5.7c-1.9-0.4-4.2-3.8-4.4-6c-0.4-5.6,0.3-11.3,0.5-17.4c-5.9,6-6.6,6.3-9.6,4
		c1.6-2.2,3.3-4.3,4.9-6.5C380.4,152.9,381.3,146.5,384.1,144.2z"/>
	<path class="st2" d="M156.1,445.2c-0.3-3.1-0.5-6.2-0.8-9.3c0.6-4.6,1.1-9.2,1.7-13.8c0-1,0-2,0-2.9c0.5-4.3,1-8.6,1.5-13
		c0.2-1.4,0.4-2.8,0.6-4.1c1.3-5.6,2.7-11.3,4-16.9c0.9,0.4,1.9,0.8,2.8,1.2c0.1,0.6,0.1,1.1,0.1,1.7c-1,4.7-2,9.4-3,14.1
		c-0.6,6.3-1.3,12.6-1.9,18.9c-0.2,0.8-0.4,1.5-0.7,2.3c-0.4,6.8-0.8,13.7-1.3,20.5c-0.8,1.1-1.5,2.3-2.2,3.4
		C156.7,446.6,156.4,445.9,156.1,445.2z"/>
	<path class="st2" d="M175.1,412.6c-0.5,0-1.1,0-1.6,0c-1.3-0.4-2.6-0.7-3.8-1.1l-0.1,0c-0.2-0.5-0.3-1-0.5-1.4
		c-0.7-2.3-1.4-4.6-2-6.9c2.1-3.9,5.9-3.5,9.1-2.8c1.4,0.3,3,3,3.3,4.7c0.4,2.8,0.4,6.1-3.4,7.3
		C175.7,412.5,175.4,412.5,175.1,412.6z"/>
	<path class="st23" d="M169.6,411.5C169.6,411.5,169.7,411.5,169.6,411.5c-1.8,4.1-0.4,11-8.4,9.5c0.6-6.3,1.3-12.6,1.9-18.9
		c1.3,0.3,2.6,0.7,4,1c0.7,2.3,1.4,4.6,2,6.9C169.2,410.6,169.4,411,169.6,411.5z"/>
	<path class="st2" d="M162,442.1c0.5-3.3,1.3-7.5,5.4-6.7c2.7,0.5,6.1,3.6,6.9,6.3c1,3.6,0.3,8.1-5.1,8.9
		C164.5,449.7,163.1,446,162,442.1z M164.9,438.3c1.4,3.8,2.4,6.4,3.4,9C172.1,441.6,172.1,441.6,164.9,438.3z"/>
	<path class="st15" d="M178.8,387.5c2.8,1.3,5.6,2.5,8.5,3.8c-0.7,1.6-1.3,3.2-2.3,5.6c0.1,1.8,0.2,4.5,0.4,7.2
		c-4.8-4.3-9.5-8.6-14.3-13c0.8-0.1,1.7-0.1,2.5-0.2c2.3,0.8,4.6,1.6,6.9,2.4c0.2-0.3,0.4-0.6,0.6-0.9c-0.7-1-1.3-2-2-3
		c0-0.5,0-0.9,0-1.4C178.9,387.9,178.8,387.7,178.8,387.5z"/>
	<path class="st18" d="M161.1,421.1c8,1.4,6.6-5.5,8.5-9.5c1.3,0.4,2.6,0.7,3.8,1.1c-1.5,8.7-5,11.6-13,10.7
		C160.7,422.6,160.9,421.8,161.1,421.1z"/>
	<path class="st17" d="M173.6,391c-0.8,0.1-1.7,0.1-2.5,0.2c-1.7-1-3.3-2.1-5-3.1c-0.1-0.6-0.1-1.1-0.1-1.7c1.5,0.1,3.1,0.3,5.5,0.5
		c-0.6-1.9-1-3.3-1.4-4.6c0.4-0.4,0.8-0.9,1.2-1.3c2.2,1.8,4.4,3.6,6.6,5.5C176.4,387.9,172.1,386.8,173.6,391z"/>
	<path class="st19" d="M162,442.1c1.1,3.9,2.5,7.5,7.2,8.4c-0.3,1.9-0.7,3.8-1,5.7c-2.4-3.6-4.8-7.3-7.2-10.9
		C161.3,444.3,161.6,443.2,162,442.1z"/>
	<path class="st18" d="M175.1,412.6c0.3-0.1,0.7-0.1,1-0.2C175.7,412.5,175.4,412.5,175.1,412.6z"/>
	<path class="st18" d="M188.1,361.1c-3.3-2.6-4.1-5.8-2.6-9.7c0.4-1.1,0.9-3.1,0.3-3.6c-4.6-4.3-0.7-7.1,1.5-10.8
		c1.5,1.2,2.6,2.2,3.9,3.1c0,1.7,0,3.4-0.1,5.1c-0.9,0.4-2.5,0.6-2.7,1.2c-0.6,2.6-0.8,5.4-1.1,8.3c1.4-0.3,2.5-0.6,3.6-0.8
		C189.9,356.3,189,358.7,188.1,361.1z"/>
	<path class="st14" d="M190.8,353.9c-1.1,0.3-2.2,0.5-3.6,0.8c0.3-2.9,0.5-5.6,1.1-8.3c0.1-0.6,1.7-0.8,2.7-1.2
		C190.9,348.1,190.9,351,190.8,353.9z"/>
	<path class="st11" d="M114.8,16.1c3-0.2,5.9-0.4,8.9-0.6c0.3,3.4,2.7,7.3-2,9.7c-0.6-0.3-1.4-1-1.8-0.8c-2.5,1.2-4.8,2.6-7.3,3.9
		C108.4,24.4,109.3,19.3,114.8,16.1z"/>
	<path class="st21" d="M266.1,640.1c-0.5,0-1.1,0-1.6,0c-0.5,0.3-0.9,0.7-1.4,1l0,0c-0.7,0-1.4,0.1-2.1,0.1
		c-0.7-0.4-1.4-0.7-2.1-1.1c3-3.3,6-6.5,9-9.7c-0.9-1.4-1.7-2.6-2.4-3.7c-3.4,2.8-6.6,5.5-9.8,8.3c0.7-5.4,4.7-8.3,8.7-10.8
		c3.6-2.2,9.7,2.2,10.7,7.1c-0.1,0.3-0.3,0.6-0.6,0.7c-0.4,0.3-0.9,0.7-1.3,1l0,0c-0.4,0-0.8,0-1.2,0c-0.2,0-0.5,0-0.7,0.1
		c-3.5-0.4-5.6,1.7-5,5.2C266.1,639,266.1,639.5,266.1,640.1L266.1,640.1z"/>
	<path class="st26" d="M255.6,635.1c3.2-2.7,6.5-5.4,9.8-8.3c0.7,1.1,1.5,2.2,2.4,3.7c-3,3.2-6,6.5-9,9.7c-1.6-0.7-3.5-1.1-4.8-2.2
		C252,635.9,253.6,635.3,255.6,635.1z"/>
	<path class="st26" d="M261,641.2c0.7,0,1.4-0.1,2.1-0.1c-0.3,0.3-0.5,0.7-0.8,1C261.9,641.8,261.5,641.5,261,641.2z"/>
	<path class="st25" d="M155.1,579.5c0,1.2,0,2.3,0,3.5c-0.7,0.7-1.9,1.2-2,2c-1.4,8.1-1.4,8.1-8.9,8.4c-0.8-0.1-1.6-0.2-2.5-0.3
		c-10.7-0.3-10.7-0.3-10.6-11.3c0-4.7,0.1-9.3,0.1-13.9c0-2.6,0.8-4.1,3.7-4c4.8,0.1,9.6,0.1,14.4,0.2c1,0,1.9,0.2,3.9,0.3
		c0,4.6,0,9.2,0,13.8c0.4,0.4,0.8,0.8,1.3,1.2C154.6,579.4,154.9,579.5,155.1,579.5z M148.4,591.2c0.3-0.7,0.7-1.3,1-1.9
		c-1.7-1-3.4-2.1-5.2-3.1c-2.2-1.2-3.1-2.9-1-4.7c4.2-3.5,2.9-6.3-0.6-9.3c-1.5-1.3-2.6-3-4.1-4.3c-1-0.8-2.3-1.5-3.6-1.6
		c-0.5,0-1.9,1.9-1.7,2.2c0.6,1,1.7,2,2.8,2.5c5.4,2.5,6.5,5.9,3.5,11c-0.7,1.1-1,3.8-0.4,4.1C142,588.2,145.3,589.6,148.4,591.2z"
		/>
	<path class="st17" d="M154.4,579.3c-0.4-0.4-0.8-0.8-1.3-1.2C153.6,578.5,154,578.9,154.4,579.3z"/>
	<path class="st15" d="M77,608.2c0.6,0.2,1.1,0.4,1.7,0.6c-0.6,0.4-1.1,0.8-1.7,1.3C77,609.4,77,608.8,77,608.2z"/>
	<path class="st15" d="M73.5,606.9c-0.8-0.6-1.5-1.2-2.3-1.8C71.9,605.7,72.7,606.3,73.5,606.9z"/>
	<path class="st13" d="M172.1,580.3c-2.7,0-5.4,0-8.1,0c-1.4-0.2-2.9-0.3-5.7-0.6c6.2-4.7,11.4-0.4,16.2-1.9c0.1,0.5,0.2,1,0.3,1.5
		C174,579.7,173.1,580,172.1,580.3z"/>
	<path class="st23" d="M101.2,534.2c0.5,0,1.1-0.2,1.5,0c3.4,1.3,9.2,2.2,9.7,4.3c0.8,3.4-1,8.2-3.3,11.3c-1,1.4-5.9,0.9-8.5-0.1
		c-1.4-0.5-2.5-4.1-2.3-6.1C98.7,540.4,100.2,537.3,101.2,534.2L101.2,534.2z"/>
	<path class="st17" d="M253.1,557.1c0,1,0,2,0,3.1c-1-1.1-2-2.3-3-3.4C251.1,556.8,252.1,557,253.1,557.1z"/>
	<path class="st13" d="M131.1,631.1c6.3-1.1,12.7-2.2,19-3.2c0.6,0.7,1.2,1.5,1.9,2.2c-6.9,1-13.9,2-20.8,2.9
		C131.2,632.4,131.1,631.7,131.1,631.1z"/>
	<path class="st21" d="M150.1,626.2c-2.4,0.4-4.7,0.7-7.1,1.1c-0.1-0.3-0.1-0.7-0.2-1c2.1-0.7,4.2-1.4,6.3-2
		c0.7-0.1,1.4-0.1,2.1-0.2c0,0.7-0.1,1.3-0.1,2C150.8,626.1,150.4,626.1,150.1,626.2z"/>
	<path class="st16" d="M151.1,626.1c0-0.7,0.1-1.3,0.1-2c0.5,0.3,1,0.6,1.5,0.8C152.1,625.3,151.6,625.7,151.1,626.1z"/>
	<path class="st21" d="M128.3,637c0.3-0.7,0.5-1.3,0.8-2c1.7,0,3.4,0,5.1,0c0,0.2,0,0.4,0,0.7C132.2,636.2,130.2,636.6,128.3,637z"
		/>
	<path class="st21" d="M131.1,631.1c0,0.6,0.1,1.3,0.1,1.9c-0.7,0-1.4,0-2.1,0.1c-0.4-0.4-0.7-0.7-1-1.1c1-0.6,2-1.3,3-1.9
		C131.1,630.4,131.1,630.8,131.1,631.1z"/>
	<path class="st13" d="M128.1,632c0.4,0.4,0.7,0.7,1,1.1c-0.6,0-1.3,0-1.9-0.1C127.5,632.7,127.8,632.4,128.1,632z"/>
	<path class="st21" d="M135.1,627.1c1-0.3,2-0.6,3-0.9c0.6,0.2,1.1,0.4,3.2,1.1c-4,0.8-6.6,1.3-9.2,1.8c0-0.7,0-1.3,0.1-2
		C133.1,627.1,134.1,627.1,135.1,627.1z"/>
	<path class="st17" d="M127.1,629.2c-0.4,1.3-0.8,2.7-1.1,4c-1.6,1.3-3.3,2.6-4.9,3.9l0,0c-0.6,0-1.2,0.1-1.9,0.1
		c-0.1-1.3-0.1-2.7-0.2-4C120.3,628.9,123.6,628.8,127.1,629.2z"/>
	<path class="st17" d="M121.1,637.1c0.1,0.1,0.3,0.3,0.4,0.4c-0.1,0-0.2,0-0.3-0.1C121.2,637.4,121.2,637.2,121.1,637.1
		C121.1,637.1,121.1,637.1,121.1,637.1z"/>
	<path class="st27" d="M145.2,209.1c3.1,0,5.9-0.4,8.5,0.1c7.1,1.3,14.2,2.7,21.2,4.6c5.3,1.4,5.8,4.5,1.9,8.2
		c-5.7,5.5-12.7,5.3-19.5,3.2C150.1,223,146.3,217.4,145.2,209.1z M175,218.1c-8.4-2.1-16.4-4-25.2-6.1c2.6,6.9,6.9,10.2,12.9,10.7
		C167.2,223,171.9,222.8,175,218.1z"/>
	<path class="st9" d="M187.6,192c7.9-8,19.6-6.4,24.7,3.4c0.5,0.9,0,2.3,0,3.5c-1.1-0.5-2.4-0.7-3.3-1.4c-1.3-1-2.2-2.4-3.4-3.6
		c-3.2-3.4-6.8-4.2-11.1-2.1c-2,1-4.4,1.2-6.6,1.7C187.8,193,187.7,192.5,187.6,192z"/>
	<path class="st9" d="M122,185.4c0.5-1.9,0.4-3.3,1-4c5.8-6.6,19.4-5.3,23.5,2.4c0.3,0.6,0.5,2,0.2,2.2c-0.7,0.4-1.7,0.4-2.6,0.5
		c-0.3,0-0.6-0.3-0.8-0.5c-5.5-8.2-12-4.8-18.5-1.6C124.2,184.5,123.6,184.7,122,185.4z"/>
	<path class="st8" d="M93.5,188.8c-0.5-4-1-7.6-1.3-11.2c-0.1-1,0.7-2.7,1.3-2.8c1.1-0.2,3.1,0.3,3.4,1.1c1.3,3.1,2.8,6.5,2.8,9.8
		C99.8,188.9,96.8,189.6,93.5,188.8z"/>
	<path class="st28" d="M127,162.6c5.4-5.7,14.1-5.8,15.9-0.2c-2.7,0-5.4-0.2-8,0.1c-2.5,0.3-5,1.2-7.5,1.8
		C127.2,163.7,127.1,163.1,127,162.6z"/>
	<path class="st28" d="M197.9,164.7c2.1,0,4.4-0.5,6.3,0.1c4.3,1.5,7.4,6.7,6.4,11.9c-1.7-2.2-3.2-4.7-5.2-6.4
		c-2.1-1.8-4.9-3-7.3-4.4C198,165.5,198,165.1,197.9,164.7z"/>
	<path class="st25" d="M122.2,485c2,2.6,4,5.3,6,8c-0.4,1.1-0.7,2.1-1.1,3.2c-1.3,0.5-3,0.6-3.9,1.5c-3.5,3.4-6.8,7.1-10.1,10.7
		c-2.3-1.8-4.9-3.3-7-5.3c-6.3-6.2-12.5-12.6-18.8-18.9c4.6-1.9,8.5-4.2,10.7-9.1c0.9-2,3.4-4.4,5.3-4.6c4.1-0.3,4.4-2.7,5-5.5
		c2.1,3.4,4.1,6.8,6.2,10.2c-0.5,0.1-1,0.1-1.5,0.2c-0.2,0-0.4,0-0.7,0c-0.4-0.1-0.7-0.1-1.1-0.2c-0.2-0.5-0.4-1.1-0.6-1.6
		c-0.5,0.5-1,1.1-1.5,1.6l0,0c-0.3,0.3-0.7,0.7-1,1l0,0c-0.3,0.5-0.7,1-1,1.5c-0.3,0.4-0.7,0.7-1,1c-0.3,0.5-0.7,1-1,1.5l0,0
		c-0.3,0.3-0.7,0.7-1,1l0,0c-0.3,0.3-0.7,0.7-1,1l0,0c-0.3,0.3-0.7,0.7-1,1l0,0c-0.3,0.3-0.7,0.7-1,1l0,0c-0.3,0.3-0.7,0.7-1,1l0,0
		c-0.7,0.7-1.3,1.3-2,2l0,0c-0.3,0.1-0.5,0.3-0.7,0.4c0.3,0.3,0.5,0.6,0.8,1c0.4,0.2,0.7,0.4,1.1,0.7c0,0.3-0.1,0.7-0.1,1
		c2,1.3,3.9,2.7,5.9,4c0.7,0.4,1.4,0.7,2.1,1.1c0.3,0.3,0.6,0.6,0.9,0.9c1,0.3,2.4,1,2.8,0.7C114.7,493,118.4,489,122.2,485z"/>
	<path class="st16" d="M120.1,319.2c5-0.7,10-1.4,15-2.1c-2.1,1-4.2,2.2-6.4,2.9c-1.8,0.6-3.7,0.8-5.6,1.2c0.1,0.4,0.2,0.8,0.2,1.1
		c6.5-1.1,13.1-2.1,20.9-3.4c-3.7-0.9-6-1.4-8.3-1.9c3-0.4,6-0.7,9-1.1c0.7,0.1,1.3,0.1,2,0.2c3.6,0.9,7.2,1.8,10.8,2.8
		c0.2,0.7,0.3,1.3,0.5,2c-4.6,2.4-8.9,5.8-13.8,7.1c-7.6,2-15.6,2.6-23.4,3.8c0.1-0.6,0.2-1.3,0.3-1.9c2.2-0.4,4.3-0.9,6.5-1.3
		c0-0.2-0.1-0.4-0.1-0.6c-1.2,0-2.4,0-3.6,0c0-0.6,0-1.3,0-1.9c6.9-1.1,13.8-2.1,20.6-3.2c-0.1-0.6-0.2-1.3-0.3-1.9
		c-7.6,0.9-15.1,1.8-22.7,2.7c0.1,0.8,0.3,1.7,0.4,2.5c-1.2,0.2-2.3,0.4-4,0.7c0.8-2.6,1.4-4.3,1.9-5.9
		C120.1,320.5,120.1,319.9,120.1,319.2z M136.5,326.4c0.1,0.4,0.1,0.8,0.2,1.2c2.5-0.5,5-1,7.6-1.5c-0.1-0.4-0.1-0.8-0.2-1.1
		C141.5,325.4,139,325.9,136.5,326.4z M134.2,328c0-0.3-0.1-0.6-0.1-0.9c-1.4,0.1-2.8,0.1-4.1,0.2c0,0.4,0.1,0.7,0.1,1.1
		C131.5,328.3,132.9,328.2,134.2,328z"/>
	<path class="st17" d="M67.6,472c-1.1,3.7-2.2,6.4-7.5,4.6c-3.6-1.2-8.1,0.2-12.2,0.3c-9.4,0.1-11.4-2.1-10.3-11.6
		c0.7,0,1.4,0,2.1-0.1c0.2,1.6,0.4,3.2,0.7,6c8,0,15.8,0,23.6,0C65.3,471.5,66.4,471.7,67.6,472z M39.5,472c0.2,0.3,0.2,0.6,0.4,0.7
		c0.2,0.1,0.5-0.2,0.8-0.3c-0.2-0.3-0.4-0.6-0.6-0.9C39.9,471.7,39.7,471.9,39.5,472z"/>
	<path class="st18" d="M58.9,378.2c1.6-4.7,3.2-9.4,4.7-14.1c3.8-1.4,6.5,0,8.6,3.2c-2.6,7-5.2,14-7.8,21c-0.5-0.6-0.9-1.3-1.3-2
		c1-2.2,2.7-4.5,2.7-6.7c-0.1-2-2.1-3.9-3.2-5.7C61.2,375.5,60.1,376.9,58.9,378.2z"/>
	<path class="st20" d="M63.1,386.4c0.5,0.6,0.9,1.3,1.3,2c-2.1,5.6-4.2,11.2-6.3,16.8c-1,0-1.9-0.1-2.9-0.1
		c-0.6-0.4-1.3-0.8-1.9-1.1c-0.3-2.7-0.5-5.4-0.8-8c1.5-3.7,3-7.4,4.5-11.1C59.1,385.3,61.1,385.8,63.1,386.4z"/>
	<path class="st17" d="M124.1,326.2c0,0.6,0,1.3,0,1.9c-0.9,0.6-1.8,1.3-2.8,1.9c-0.1,0.6-0.2,1.3-0.3,1.9c-3.1,0.4-6.2,1.4-9.2,1
		c-1.6-0.2-3.8-2.5-4.1-4.2c-0.4-2,0.4-4.6,1.5-6.6c0.4-0.7,3.1,0,4.7,0.1c2-0.3,4.1-0.6,6.1-0.9c-0.5,1.6-1.1,3.3-1.9,5.9
		c1.6-0.3,2.8-0.5,4-0.7C122.8,326.3,123.4,326.2,124.1,326.2z"/>
	<path class="st15" d="M39.8,465.2c-0.7,0-1.4,0-2.1,0.1c0.2-7.1,0-14.2,0.9-21.2c0.2-1.8,3.8-4.6,5.8-4.6c7,0,14.1,0.7,21.1,1.8
		c3.5,0.5,6.2,2.7,3.7,7c-0.7-1-1.3-2.1-2-3.1c-2.3-1-4.6-2.5-7.1-2.8c-4.1-0.5-8.3-0.2-12.5-0.3c-6,0-6.8,0.6-7.3,6.7
		C40,454.2,39.9,459.7,39.8,465.2z"/>
	<path class="st17" d="M87.3,484.2c6.2,6.3,12.4,12.7,18.8,18.9c2.1,2,4.7,3.5,7,5.3c0.4,0.6,0.7,1.2,1.1,1.8
		c-1.6-0.1-3.7,0.4-4.6-0.5c-7.8-7.1-15.4-14.4-23-21.8c-0.9-0.9-1.1-2.5-1.6-3.8C85.8,484.1,86.6,484.1,87.3,484.2z"/>
	<path class="st16" d="M87.3,484.2c-0.8,0-1.5,0-2.3,0c0.3-0.7,0.6-1.9,1.1-2.1c6.8-2.3,9.6-8.6,13.7-13.6c0.9-1,2.9-1.1,4.8-1.7
		c0.5-1.6,1.2-3.6,1.8-5.6c0.6,1.3,1.3,2.6,1.9,3.9c-0.5,2.8-0.9,5.3-5,5.5c-1.9,0.1-4.4,2.6-5.3,4.6
		C95.8,480,91.9,482.3,87.3,484.2z"/>
	<path class="st18" d="M65.1,360.1c1.8-3.6,3.3-7.3,5.5-10.6c0.7-1,3.2-1.3,4.8-1c0.7,0.1,1.7,2.4,1.5,3.5
		c-0.7,3.8-1.8,7.5-2.8,11.2c-0.4-0.5-0.9-0.9-1.3-1.4c0.4-1.3,1.1-2.6,1-3.8c-0.1-1.3-1.1-2.4-1.7-3.7c-1.2,0.8-2.8,1.3-3.6,2.4
		c-0.6,0.7-0.3,2.2-0.4,3.4C67.2,360.1,66.2,360.1,65.1,360.1z"/>
	<path class="st22" d="M57.1,384.7c-1.5,3.7-3,7.4-4.5,11.1c-0.8,0.5-1.5,0.9-2.3,1.4c-0.3-5.3-0.7-10.5-0.9-15.7
		c0-0.1,2.6-0.5,3.9-0.2c1.3,0.3,2.4,1.2,3.6,1.9C57,383.6,57.1,384.2,57.1,384.7z"/>
	<path class="st19" d="M67.2,445.1c0.7,1,1.3,2.1,2,3.1c-0.5,7.9-1,15.9-1.5,23.8c-1.2-0.3-2.4-0.5-3.6-0.8c0.6-1.5,1.7-2.9,1.8-4.4
		C66.5,459.6,66.8,452.4,67.2,445.1z"/>
	<path class="st23" d="M53.3,403.9c0.6,0.4,1.3,0.8,1.9,1.1c-1.1,3.7-2.1,7.4-3.2,11.1c-0.6,1-1.2,2-1.8,3c-3.9-3.6-2.1-7.9-1.2-12
		C50.5,406,51.9,405,53.3,403.9z"/>
	<path class="st23" d="M57.1,384.7c0-0.5-0.1-1.1-0.1-1.6c0.6-1.6,1.3-3.3,1.9-4.9c1.2-1.3,2.3-2.7,3.6-4.2c1.1,1.8,3.2,3.7,3.2,5.7
		c0.1,2.2-1.7,4.5-2.7,6.7C61.1,385.8,59.1,385.3,57.1,384.7z"/>
	<path class="st19" d="M114.2,510.2c-0.4-0.6-0.7-1.2-1.1-1.8c3.3-3.6,6.6-7.3,10.1-10.7c0.9-0.9,2.6-1,3.9-1.5
		C122.8,500.8,118.5,505.5,114.2,510.2z"/>
	<path class="st20" d="M65.1,360.1c1,0,2-0.1,3.1-0.1c1.6,0.6,3.1,1.2,4.7,1.8c0.4,0.5,0.9,0.9,1.3,1.4c-0.7,1.4-1.3,2.7-1.9,4.1
		c-2.1-3.1-4.8-4.5-8.6-3.2C64.2,362.8,64.6,361.5,65.1,360.1z"/>
	<path class="st15" d="M89.1,406.1c0.6,3.6,1.2,7.3,1.8,11c-1.9-1-3.8-1.9-6.2-3.1C86.3,411.2,87.7,408.6,89.1,406.1z"/>
	<path class="st16" d="M53.3,403.9c-1.4,1.1-2.8,2.2-4.3,3.3c-0.7,0-1.3,0-2,0c1.1-3.3,2.1-6.6,3.2-10c0.8-0.5,1.5-0.9,2.3-1.4
		C52.8,398.5,53.1,401.2,53.3,403.9z"/>
	<path class="st21" d="M136.1,317.1c2.3,0.5,4.5,1.1,8.3,1.9c-7.8,1.3-14.3,2.3-20.9,3.4c-0.1-0.4-0.2-0.8-0.2-1.1
		c1.9-0.4,3.8-0.6,5.5-1.2c2.2-0.8,4.3-2,6.4-2.9C135.4,317.1,135.8,317.1,136.1,317.1z"/>
	<path class="st18" d="M47.2,407.2c0.7,0,1.3,0,2,0c-0.9,4.1-2.8,8.3,1.2,12c-0.4,0.4-0.8,0.8-1.1,1.2c-1.1,0-2.2,0-3.3-0.1
		C46.3,415.9,46.7,411.5,47.2,407.2z"/>
	<path class="st18" d="M52,416.1c1.1-3.7,2.1-7.4,3.2-11.1c1,0,1.9,0.1,2.9,0.1C57,409.3,56.8,414,52,416.1z"/>
	<path class="st15" d="M40.1,502.3c0.1-0.5,0.2-1.1,0.4-1.6c3.3,1.1,6.5,2.3,9.8,3.4c-0.9,0.1-1.8,0.2-2.6,0.3
		C45.1,503.6,42.6,503,40.1,502.3z"/>
	<path class="st15" d="M120.1,321.1c-2,0.3-4.1,0.6-6.1,0.9c0.7-3.8,2.8-4.6,6.1-2.9C120.1,319.9,120.1,320.5,120.1,321.1z"/>
	<path class="st23" d="M45.9,420.3c1.1,0,2.2,0,3.3,0.1c-0.8,0.8-1.6,1.7-2.3,2.5C46.5,422,46.2,421.1,45.9,420.3z"/>
	<path class="st15" d="M147.1,316.3c-0.7-0.1-1.3-0.1-2-0.2C145.7,316.1,146.4,316.2,147.1,316.3z"/>
	<path class="st8" d="M121.1,476.1c-1.6-2.1-3.6-4-4.7-6.3c-5.6-11.8-10.9-23.7-16.3-35.6c6.2-2,12.2-5,18.5-5.9
		c16-2.2,27.7,11.3,24.3,27.2c-0.1,0.3-0.3,0.6-0.3,0.9C138.7,472,136.8,473.7,121.1,476.1z"/>
	<path class="st26" d="M112.9,475.3c0.5-0.1,1-0.1,1.5-0.2c0.7,1.2,1.3,2.4,1.9,3.6c-0.1,0.1-0.2,0.3-0.3,0.4c-1.7,2-3.3,4-5,6
		c-0.3,0.3-0.7,0.7-1,1c-0.4,0.3-0.8,0.5-1.2,0.8c-0.3,0.3-0.7,0.7-1,1c-0.3,0.3-0.7,0.6-1,1c-0.3,0.3-0.7,0.7-1,1
		c-0.3,0.3-0.7,0.7-1,1c-0.3,0.4-0.7,0.7-1,1c-0.1,0.2-0.2,0.5-0.3,0.7c0.2-0.1,0.5-0.2,0.7-0.4c0.3-0.3,0.7-0.7,1-1
		c0.3-0.3,0.7-0.7,1-1c0.3-0.4,0.7-0.7,1-1c0.3-0.3,0.7-0.7,1-1c0.3-0.3,0.7-0.7,1-1c0.3-0.1,0.6-0.1,0.9-0.1c0,1,0,2,0,3l0,0
		c-0.3,0.3-0.7,0.7-1,1l0,0c-0.3,0.3-0.7,0.7-1,1l0,0c-0.3,0.3-0.7,0.7-1,1l0,0c-0.7,0.3-1.4,0.7-2.1,1c-2-1.3-3.9-2.7-5.9-4
		c3.3,0,5-1.6,5-5l0,0c0.3-0.3,0.7-0.7,1-1l0,0c0.3-0.3,0.7-0.7,1-1l0,0c0.3-0.3,0.7-0.7,1-1l0,0c0.3-0.3,0.7-0.7,1-1l0,0
		C109.7,479.2,111.3,477.2,112.9,475.3z"/>
	<path class="st26" d="M108,496.1c-0.3-0.3-0.6-0.6-0.9-0.9c0-0.7,0-1.4,0-2.1l0,0c0.3-0.3,0.7-0.7,1-1l0,0c0.3-0.3,0.7-0.7,1-1l0,0
		c0.3-0.3,0.7-0.7,1-1l0,0c2-2,4-4,6-6l0,0c1-1,2-2,3-3l0,0c0.7,1,1.4,1.9,2.1,2.9C116.8,488.1,112.4,492.1,108,496.1z"/>
	<path class="st21" d="M108,496.1c4.4-4,8.8-8.1,13.2-12.1c0.3,0.3,0.6,0.7,0.9,1c-3.8,4-7.5,8-11.4,11.8
		C110.4,497.2,109,496.4,108,496.1z"/>
	<path class="st26" d="M116.4,478.7c0.9,0.8,1.8,1.6,2.7,2.5l0,0c-1,1-2,2-3,3l0,0c-1.3,0.3-2.7,0.7-4,1c1.3-2,2.7-4,4-6
		C116.2,479,116.3,478.8,116.4,478.7z"/>
	<path class="st14" d="M40.1,502.3c2.5,0.7,5,1.4,7.5,2c-2.6,2.7-5.1,5.4-7.7,8.1c-0.2,0.3-0.4,0.5-0.6,0.6c-1-0.1-2-0.1-3-0.2
		c0.6-3.6,1.3-7.1,1.9-10.7C38.8,502.2,39.4,502.2,40.1,502.3z"/>
	<path class="st19" d="M86.1,583.2c-2.5,0.8-5,1.7-7.6,2.2c-1.4,0.3-3-0.2-4.5-0.3c6.4-2.3,12.7-4.7,19.7-7.2
		c-0.2,2.2-0.4,3.7-0.5,5.2c-0.3,0-0.6,0.1-0.8,0.1C90.3,583.2,88.2,583.2,86.1,583.2z"/>
	<path class="st15" d="M92.4,583.2c0.3,0,0.6,0,0.8-0.1c0.3,0.7,0.6,1.3,0.9,2c-5.7,1.8-11.4,3.5-17.2,5.3c-0.1-0.4-0.3-0.7-0.4-1.1
		c3.2-1.6,6.4-3.1,9.7-4.7C88.3,584.2,90.3,583.7,92.4,583.2z"/>
	<path class="st19" d="M75.3,305c0.5-0.9,0.9-2.4,1.7-2.6c6-2,12.1-3.7,18.2-5.5c-0.3,0.8-0.7,1.5-1,2.3c-4.4,1.4-8.8,2.7-13.1,4.1
		c-0.8,0.6-1.6,1.3-2.4,1.9c0.8-0.1,1.6-0.1,2.4-0.2c4.7-1.4,9.4-2.8,14-4.2c-0.4,1-0.7,2.5-1.4,2.8c-5.4,2-11,3.7-16.4,5.5
		C76.6,307.6,75.9,306.3,75.3,305z"/>
	<path class="st15" d="M94,294.1c-6.3,2-12.7,4.1-19,6.2c-0.2-0.4-0.3-0.8-0.5-1.2c5.2-2.1,10.4-4.3,15.6-6.4
		C91.4,293.2,92.7,293.6,94,294.1z"/>
	<path class="st13" d="M95.1,300.9c-4.7,1.4-9.4,2.8-14,4.2c0-0.6,0-1.1,0-1.7c4.4-1.4,8.8-2.7,13.1-4.1
		C94.5,299.8,94.8,300.3,95.1,300.9z"/>
	<path class="st14" d="M92.4,583.2c-2.1,0.5-4.1,1-6.2,1.5c0-0.5,0-1-0.1-1.5C88.2,583.2,90.3,583.2,92.4,583.2z"/>
	<path class="st13" d="M204.7,611.8c4.1,0,8.2,0,12.4,0c0,0.7-0.1,1.4-0.1,2.1c-4.1-0.3-8.2-0.5-12.3-0.8
		C204.7,612.7,204.7,612.3,204.7,611.8z"/>
	<path class="st13" d="M271.9,633.1c0.4,0,0.8,0,1.2,0c-0.1,3.8-2.4,5.9-5.8,7c0.3-0.7,0.5-1.3,0.8-2l0,0c0.3-0.3,0.7-0.7,1-1l0,0
		c0.3-0.3,0.7-0.7,1-1l0,0c0.3-0.3,0.7-0.7,1-1l0,0C271.4,634.5,271.6,633.8,271.9,633.1z"/>
	<path class="st16" d="M268.1,638.1c-0.3,0.7-0.5,1.3-0.8,2c-0.4,0-0.8,0-1.2,0c0-0.6,0.1-1.2,0.1-1.7
		C266.8,638.3,267.5,638.2,268.1,638.1z"/>
	<path class="st13" d="M273.1,633.1c0.4-0.3,0.9-0.7,1.3-1C273.9,632.4,273.5,632.8,273.1,633.1z"/>
	<path class="st14" d="M90.2,592.6c0-0.5-0.1-1-0.1-1.4c1.5,0,3,0,4.5-0.1C93.2,591.6,91.7,592.1,90.2,592.6z"/>
	<path class="st26" d="M263.1,641.1c0.5-0.3,0.9-0.7,1.4-1C264,640.5,263.6,640.8,263.1,641.1z"/>
	<path class="st19" d="M171.2,381c-0.4,0.4-0.8,0.9-1.2,1.3c-5.7-3.8-11.3-7.6-17-11.5c0.1-1,0.2-1.9,0.3-2.8
		C159.3,372.3,165.3,376.6,171.2,381z"/>
	<path class="st13" d="M173.6,391c-1.4-4.2,2.8-3.1,4.3-4.6c0.3,0.4,0.6,0.7,1,1.1c0,0.2,0.1,0.4,0.3,0.6c-0.4,0.1-0.9,0.2-1.3,0.3
		c0.4,0.4,0.9,0.7,1.3,1.1c0.7,1,1.3,2,2,3c-0.2,0.3-0.4,0.6-0.6,0.9C178.1,392.6,175.9,391.8,173.6,391z"/>
	<path class="st3" d="M163.1,385.2c-1.3,5.6-2.7,11.3-4,16.9c-5.7,0.8-7.7,4.9-8.9,9.9c0.6-10.7,1.3-21.4,1.9-32.1
		c3.3,1.5,6.7,3,10,4.5C162.5,384.6,162.8,384.9,163.1,385.2z"/>
	<path class="st14" d="M163.1,385.2c-0.3-0.3-0.6-0.6-0.9-0.9c-3.3-2.8-6.6-5.6-9.9-8.4c0.3-1.7,0.5-3.4,0.8-5.1
		c5.7,3.8,11.3,7.6,17,11.5c0.4,1.4,0.8,2.7,1.4,4.6c-2.4-0.2-4-0.4-5.5-0.5C165,386,164.1,385.6,163.1,385.2z"/>
	<path class="st18" d="M150.2,412c1.1-4.9,3.2-9,8.9-9.9c-0.2,1.4-0.4,2.8-0.6,4.1c-6.3-0.5-5.2,4.9-6.1,8.2
		c-0.9,3.2,1.5,4.7,4.6,4.8c0,1,0,2,0,2.9c-1.9-0.6-3.8-1.3-5.8-1.9C150.9,417.5,150.6,414.7,150.2,412z"/>
	<path class="st22" d="M151.2,420.2c1.9,0.6,3.8,1.3,5.8,1.9c-0.6,4.6-1.1,9.2-1.7,13.8C153.9,430.7,152.6,425.4,151.2,420.2z"/>
	<path class="st19" d="M152.3,375.9c3.3,2.8,6.6,5.6,9.9,8.4c-3.3-1.5-6.7-3-10-4.5C152.2,378.5,152.3,377.2,152.3,375.9z"/>
	<path class="st13" d="M209.6,306.9c-3.9,0-7.9,0-11.8,0c0-0.4,0-0.7,0-1.1c3.9,0,7.8,0,11.8,0C209.6,306.1,209.6,306.5,209.6,306.9
		z"/>
	<path class="st23" d="M157,419.2c-3.1-0.1-5.6-1.5-4.6-4.8c0.9-3.3-0.2-8.7,6.1-8.2C158,410.5,157.5,414.9,157,419.2z"/>
	<path class="st18" d="M169.6,411.5c-0.2-0.5-0.3-1-0.5-1.4C169.2,410.6,169.4,411,169.6,411.5z"/>
	<path class="st22" d="M164.9,438.3c7.3,3.3,7.3,3.3,3.4,9C167.3,444.7,166.3,442.1,164.9,438.3z"/>
	<path class="st17" d="M179,389.5c-0.4-0.4-0.9-0.7-1.3-1.1c0.4-0.1,0.9-0.2,1.3-0.3C179.1,388.5,179.1,389,179,389.5z"/>
	<path class="st26" d="M268.1,638.1c-0.6,0.1-1.3,0.2-1.9,0.3c-0.5-3.5,1.5-5.6,5-5.2c0,0.7-0.1,1.3-0.1,1.9l0,0
		c-0.3,0.3-0.7,0.7-1,1l0,0c-0.3,0.3-0.7,0.7-1,1l0,0C268.8,637.5,268.4,637.8,268.1,638.1C268.1,638.1,268.1,638.1,268.1,638.1z"/>
	<path class="st16" d="M271.1,635.1c0-0.7,0.1-1.3,0.1-1.9c0.2,0,0.5,0,0.7-0.1C271.6,633.8,271.4,634.5,271.1,635.1z"/>
	<path class="st21" d="M148.4,591.2c-3.1-1.6-6.4-3-9.2-4.9c-0.6-0.4-0.3-3,0.4-4.1c3-5.1,1.9-8.5-3.5-11c-1.1-0.5-2.2-1.5-2.8-2.5
		c-0.2-0.3,1.2-2.3,1.7-2.2c1.2,0.1,2.6,0.8,3.6,1.6c1.5,1.3,2.6,3,4.1,4.3c3.6,2.9,4.8,5.7,0.6,9.3c-2.1,1.8-1.2,3.5,1,4.7
		c1.8,1,3.4,2.1,5.2,3.1C149.1,589.9,148.7,590.5,148.4,591.2z"/>
	<path class="st12" d="M175,218.1c-3.1,4.6-7.8,4.9-12.2,4.5c-6-0.4-10.3-3.8-12.9-10.7C158.6,214.2,166.6,216.1,175,218.1z"/>
	<path class="st26" d="M99.2,489.1c-0.4-0.2-0.7-0.4-1.1-0.7c0-0.5,0-0.9-0.1-1.4l0,0c0.7-0.7,1.3-1.3,2-2l0,0c0.3-0.3,0.7-0.7,1-1
		l0,0c0.3-0.3,0.7-0.7,1-1l0,0c0.3-0.3,0.7-0.7,1-1l0,0c0.3-0.3,0.7-0.7,1-1l0,0c0.3-0.3,0.7-0.7,1-1l0,0c0.3-0.5,0.7-1,1-1.5
		c0.3-0.4,0.7-0.7,1-1c0.3-0.5,0.7-1,1-1.5l0,0c0.3-0.3,0.7-0.7,1-1l0,0c0.7,0,1.4,0,2.1,0c0.4,0.1,0.7,0.1,1.1,0.2
		c-1.4,1.9-2.8,3.9-4.2,5.8l0,0c-0.3,0.3-0.7,0.7-1,1l0,0c-0.3,0.3-0.7,0.7-1,1l0,0c-0.3,0.3-0.7,0.7-1,1l0,0c-0.3,0.3-0.7,0.7-1,1
		l0,0C102.5,486.5,100.9,487.8,99.2,489.1z"/>
	<path class="st16" d="M108.1,481.1c1.4-1.9,2.8-3.9,4.2-5.8c0.2,0,0.4-0.1,0.7,0C111.3,477.2,109.7,479.2,108.1,481.1z"/>
	<path class="st16" d="M99.2,489.1c1.6-1.3,3.3-2.7,4.9-4c0,3.4-1.7,5-5,5C99.2,489.8,99.2,489.5,99.2,489.1z"/>
	<path class="st17" d="M100.1,485.1c-0.7,0.7-1.3,1.3-2,2C98.7,486.4,99.4,485.8,100.1,485.1z"/>
	<path class="st15" d="M107.1,493.1c0,0.7,0,1.4,0,2.1c-0.7-0.4-1.4-0.7-2.1-1.1C105.7,493.8,106.4,493.5,107.1,493.1z"/>
	<path class="st17" d="M111.2,475.1c-0.7,0-1.4,0-2.1,0c0.5-0.5,1-1.1,1.5-1.6C110.8,474,111,474.6,111.2,475.1z"/>
	<path class="st17" d="M102.1,483.1c-0.3,0.3-0.7,0.7-1,1C101.4,483.8,101.7,483.4,102.1,483.1z"/>
	<path class="st17" d="M103.1,482.1c-0.3,0.3-0.7,0.7-1,1C102.4,482.8,102.7,482.4,103.1,482.1z"/>
	<path class="st17" d="M106.1,478.6c-0.3,0.5-0.7,1-1,1.5C105.4,479.6,105.7,479.1,106.1,478.6z"/>
	<path class="st17" d="M108.1,476.1c-0.3,0.5-0.7,1-1,1.5C107.4,477.1,107.8,476.6,108.1,476.1z"/>
	<path class="st17" d="M105.1,480.1c-0.3,0.3-0.7,0.7-1,1C104.4,480.8,104.7,480.4,105.1,480.1z"/>
	<path class="st17" d="M109.1,475.1c-0.3,0.3-0.7,0.7-1,1C108.4,475.8,108.7,475.4,109.1,475.1z"/>
	<path class="st17" d="M104.1,481.1c-0.3,0.3-0.7,0.7-1,1C103.4,481.8,103.7,481.4,104.1,481.1z"/>
	<path class="st17" d="M101.1,484.1c-0.3,0.3-0.7,0.7-1,1C100.4,484.8,100.7,484.4,101.1,484.1z"/>
	<path class="st17" d="M98.1,487.1c0,0.5,0,0.9,0.1,1.4c-0.3-0.3-0.5-0.6-0.8-1C97.6,487.4,97.8,487.2,98.1,487.1z"/>
	<path class="st13" d="M124.1,326.2c-0.7,0-1.3,0.1-2,0.1c-0.1-0.8-0.3-1.7-0.4-2.5c7.6-0.9,15.1-1.8,22.7-2.7
		c0.1,0.6,0.2,1.3,0.3,1.9C137.9,324.1,131,325.1,124.1,326.2z"/>
	<path class="st21" d="M136.5,326.4c2.5-0.5,5-1,7.6-1.4c0.1,0.4,0.1,0.8,0.2,1.1c-2.5,0.5-5,1-7.6,1.5
		C136.6,327.2,136.5,326.8,136.5,326.4z"/>
	<path class="st21" d="M121.3,330c0.9-0.6,1.8-1.3,2.8-1.9c1.2,0,2.4,0,3.6,0c0,0.2,0.1,0.4,0.1,0.6
		C125.6,329.1,123.5,329.5,121.3,330z"/>
	<path class="st21" d="M134.2,328c-1.4,0.1-2.7,0.3-4.1,0.4c0-0.4-0.1-0.7-0.1-1.1c1.4-0.1,2.8-0.1,4.1-0.2
		C134.2,327.5,134.2,327.8,134.2,328z"/>
	<path class="st25" d="M67.2,445.1c-0.4,7.2-0.7,14.5-1.2,21.7c-0.1,1.5-1.2,2.9-1.8,4.4c-7.8,0-15.7,0-23.6,0
		c-0.3-2.8-0.5-4.4-0.7-6c0.2-5.5,0.2-11,0.6-16.4c0.4-6.1,1.3-6.7,7.3-6.7c4.2,0,8.4-0.2,12.5,0.3
		C62.5,442.6,64.8,444.2,67.2,445.1z M53.4,460.2c0-0.1,0-0.1,0-0.2c-1.8,0-3.7,0.2-5.5,0c-2.7-0.3-4.5,0.9-4.1,3.5
		c0.2,1.3,2.3,3.2,3.7,3.4c3.8,0.5,7.7,0.5,11.4,0.2c1.2-0.1,2.8-1.9,3.1-3.1c0.7-2.3-0.5-3.8-3.2-3.6
		C57,460.3,55.2,460.2,53.4,460.2z"/>
	<path class="st15" d="M39.5,472c0.2-0.2,0.4-0.4,0.6-0.5c0.2,0.3,0.4,0.6,0.6,0.9c-0.3,0.1-0.6,0.3-0.8,0.3
		C39.7,472.6,39.6,472.3,39.5,472z"/>
	<path class="st23" d="M72.9,361.8c-1.6-0.6-3.1-1.2-4.7-1.8c0.1-1.1-0.2-2.6,0.4-3.4c0.9-1.1,2.4-1.6,3.6-2.4
		c0.6,1.2,1.6,2.4,1.7,3.7C74,359.3,73.3,360.5,72.9,361.8z"/>
	<path class="st15" d="M112.1,485.1c1.3-0.3,2.7-0.7,4-1c-2,2-4,4-6,6c0-1,0-2,0-3l0,0c0.3-0.3,0.7-0.7,1-1l0,0
		C111.4,485.8,111.8,485.5,112.1,485.1C112.1,485.1,112.1,485.1,112.1,485.1z"/>
	<path class="st16" d="M116.1,479.1c-1.3,2-2.7,4-4,6l0,0c-0.3,0-0.7,0-1,0l0,0C112.8,483.1,114.4,481.1,116.1,479.1z"/>
	<path class="st16" d="M105.3,491.3c-0.3,0.3-0.7,0.7-1,1l-0.3-0.4c0.3-0.4,0.7-0.7,1-1C105,491,105.1,491.1,105.3,491.3z"/>
	<path class="st16" d="M106.1,483.1c0.3-0.3,0.7-0.7,1-1C106.8,482.5,106.4,482.8,106.1,483.1z"/>
	<path class="st16" d="M104.2,492.3c-0.2,0.1-0.5,0.2-0.7,0.4c0.1-0.2,0.2-0.5,0.3-0.7C103.9,491.9,104.2,492.3,104.2,492.3z"/>
	<path class="st16" d="M108.9,486.9c0.4-0.3,0.8-0.5,1.2-0.8l0,0c0,0.3,0,0.6,0,1l0,0c-0.3,0-0.6,0-0.9,0.1L108.9,486.9z"/>
	<path class="st16" d="M110.1,486.1c0.3-0.3,0.7-0.7,1-1l0,0c0,0.3,0,0.7,0,1l0,0C110.8,486.1,110.5,486.1,110.1,486.1L110.1,486.1z
		"/>
	<path class="st15" d="M109.1,491.1c-0.3,0.3-0.7,0.7-1,1C108.4,491.8,108.8,491.5,109.1,491.1z"/>
	<path class="st15" d="M108.1,492.1c-0.3,0.3-0.7,0.7-1,1C107.4,492.8,107.8,492.5,108.1,492.1z"/>
	<path class="st16" d="M107.1,482.1c0.3-0.3,0.7-0.7,1-1C107.8,481.5,107.4,481.8,107.1,482.1z"/>
	<path class="st16" d="M105.9,489.9c0.3-0.3,0.7-0.7,1-1l0.3,0.3c-0.3,0.4-0.7,0.7-1,1C106.1,490.1,106,490,105.9,489.9z"/>
	<path class="st16" d="M104.1,485.1c0.3-0.3,0.7-0.7,1-1C104.8,484.5,104.4,484.8,104.1,485.1z"/>
	<path class="st16" d="M106.3,490.3c-0.3,0.3-0.7,0.7-1,1c-0.1-0.1-0.3-0.3-0.4-0.4c0.3-0.3,0.7-0.7,1-1
		C106,490,106.1,490.1,106.3,490.3z"/>
	<path class="st15" d="M110.1,490.1c-0.3,0.3-0.7,0.7-1,1C109.4,490.8,109.8,490.5,110.1,490.1z"/>
	<path class="st16" d="M105.1,484.1c0.3-0.3,0.7-0.7,1-1C105.8,483.5,105.4,483.8,105.1,484.1z"/>
	<path class="st16" d="M107.9,487.9c0.3-0.3,0.7-0.7,1-1l0.3,0.3c-0.3,0.3-0.7,0.7-1,1C108.2,488.2,107.9,487.9,107.9,487.9z"/>
	<path class="st16" d="M106.9,488.9c0.3-0.3,0.7-0.6,1-1l0.3,0.3c-0.3,0.3-0.7,0.7-1,1C107.2,489.2,106.9,488.9,106.9,488.9z"/>
	<path class="st15" d="M116.1,484.1c1-1,2-2,3-3C118.1,482.1,117.1,483.1,116.1,484.1z"/>
	<path class="st25" d="M81.1,303.4c0,0.6,0,1.1,0,1.7c-0.8,0.1-1.6,0.1-2.4,0.2C79.5,304.7,80.3,304,81.1,303.4z"/>
	<path class="st16" d="M270.1,636.1c0.3-0.3,0.7-0.7,1-1C270.8,635.5,270.4,635.8,270.1,636.1z"/>
	<path class="st16" d="M269.1,637.1c0.3-0.3,0.7-0.7,1-1C269.8,636.5,269.4,636.8,269.1,637.1z"/>
	<path class="st16" d="M268.1,638.1c0.3-0.3,0.7-0.7,1-1C268.8,637.5,268.4,637.8,268.1,638.1z"/>
	<path class="st15" d="M53.4,460.2c1.8,0,3.7,0.1,5.5,0c2.7-0.2,3.8,1.4,3.2,3.6c-0.4,1.3-2,3-3.1,3.1c-3.8,0.4-7.7,0.4-11.4-0.2
		c-1.4-0.2-3.4-2-3.7-3.4c-0.4-2.5,1.3-3.8,4.1-3.5c1.8,0.2,3.7,0,5.5,0C53.4,460.1,53.4,460.1,53.4,460.2z M59,465
		c0-0.7,0-1.4,0.1-2.1c-4.1,0-8.3,0-12.4,0c0,0.5,0,0.9,0,1.3C50.8,464.5,54.9,464.7,59,465z"/>
	<path class="st26" d="M110.1,486.1c0.3,0,0.7,0,1,0c-0.3,0.3-0.7,0.7-1,1C110.1,486.8,110.1,486.5,110.1,486.1z"/>
	<path class="st26" d="M111.1,486.1c0-0.3,0-0.7,0-1c0.3,0,0.7,0,1,0C111.8,485.5,111.4,485.8,111.1,486.1z"/>
	<path class="st13" d="M59,465c-4.1-0.3-8.2-0.5-12.4-0.8c0-0.5,0-0.9,0-1.3c4.1,0,8.3,0,12.4,0C59,463.6,59,464.3,59,465z"/>
</g>
<path class="st29" d="M125.7,186.6c2.6,0.2,3.9-0.2,5.5-0.4c5.4-0.4,7.4,3.1,11.6,1.7c0.5-0.2,2-0.6,2.1-1.6c0.2-1-1.3-2-3-3.3
	c-0.7-0.5-1.6-1.1-2.8-1.7c-1.6-0.7-3.1-1-4.1-1.1c-3.5,0.5-6.2,1.4-8.1,2.2c-1.2,0.5-4.9,2.1-4.7,3.1
	C122.3,186.4,124.3,186.6,125.7,186.6z"/>
<path class="st29" d="M208.1,199.4c-2.6-0.5-3.7-1.3-5.2-1.8c-5.2-1.9-7.6,0.9-11.6-1.4c-1.7-1-3.1-2.5-2.8-3c0.2-0.3,0.8,0,2.1-0.3
	c1.1-0.2,1.1-0.6,2.8-1.2c0.7-0.3,1.3-0.4,2.1-0.7c1-0.3,1.7-0.5,2.4-0.6c0.8-0.1,2.1-0.2,3.8,0.2c0.9,0.5,2.3,1.4,3.8,2.5
	c0.6,0.5,6.9,5.1,6.2,6.3C211.4,200.1,209.6,199.8,208.1,199.4z"/>
<path class="st30" d="M157.9,144.5c-12.3,0.7-28.9,1.9-35.6,12.9c-1.5,2.5-2.1,7.3-3.3,16.9c-2.2,17.4-3.2,26.1-1.3,32.2
	c3.8,11.8,14,18.1,19.4,21.5c24.2,15.1,51.5,5.9,55.5,4.4c5.3-1.9,15-5.5,23.4-15c1.8-2,8.7-10.1,11.7-22.8c1.1-4.5,4.6-19.5-2-31.7
	C213.9,141.4,178.4,143.4,157.9,144.5z"/>
<path class="st31" d="M130.6,153.1c7.4-1.1,14.3-2.1,22.5-3.3C147,156.8,133.6,158.3,130.6,153.1z"/>
<path class="st31" d="M203.9,163.1c-0.3-0.7-0.2-1.6,0.1-2.2c0.2-0.3,1.3-0.2,1.8,0.1c4.8,3.1,9.5,6.3,14.9,10
	C216.3,172,205.5,166.7,203.9,163.1z"/>
<path class="st32" d="M122.9,169c1.9-1.2,3.6-2.9,5.6-3.5c1.7-0.5,3.7,0.3,5.6,0.6c-0.1,0.5-0.1,1-0.2,1.5c-2,0.9-4.4,1.3-6,2.7
	c-4,3.3-5,9-2.7,13c3.1,5.5,7.5,7.6,12.7,6.1c5.9-1.7,10.2-6.6,9.7-11.6c-0.2-2.8-0.8-5.9-4.6-5.8c-3.7,0-6.5,3.3-6.2,7.2
	c1.5-0.9,2.9-1.7,4.6-2.7c1.8,3.6-0.1,5.8-2.6,6.4c-1.6,0.4-4.8-0.8-5.5-2.1c-0.9-1.9-1.1-5.9,0.1-6.8c3.1-2.6,7.2-4,11-5.8
	c0.6-0.3,1.5,0.1,2.3,0.2c0.9,0.5,1.7,1,2.6,1.6c5.6,12.4-2,24.2-14.9,24.1c-7.8,0-18-11.7-13.3-20.1c0.3-0.6,0.2-1.5,0.3-2.2
	C121.9,170.7,122.4,169.9,122.9,169z"/>
<path class="st32" d="M203.5,205.1c-1-0.4-2-0.9-3-1.3c-9.1-3-13.1-10.7-10-19.6c2.9-8.4,12.3-12.8,20.7-9.2
	c1.7,0.7,2.8,2.7,4.9,4.8c-5.4-0.7-9.2-1.7-12.9-1.7c-5.1,0.1-9.1,4.7-9.7,10.3c-0.5,5.4,2.4,9.7,7.7,11.3c5.5,1.7,10,0.3,12.3-3.6
	c2.5-4.4,1.9-7.4-1.7-9.3c-3.8-2-6.6-0.9-9.2,4c1.1-0.1,2-0.3,2.9-0.3c1.3,0.1,2.5,0.3,3.7,0.5c-0.9,1.1-1.7,3-2.6,3.1
	c-2.4,0.1-5.3,0-7.1-1.3c-0.9-0.6-0.5-4.4,0.5-6.2c2.6-4.7,8.6-6,13.5-3.6c5.1,2.6,6.5,6.8,4.6,12.6c-1.8,5.2-5.7,7.7-10.6,9.3
	C206.2,205.1,204.8,205.1,203.5,205.1z"/>
<path class="st29" d="M189.3,199.6c1.2,1.5,2.6,2.1,4,2.8c2,0.9,3.9,1.3,7.8,1.9c2.2,0.4,3.1,0.5,5.7,0.8c0.7,0.1,1.5,0.2,2.7,0.3
	c0.3,0,1.5,0.1,3-0.1c0.8-0.1,1.8-0.2,2.9-0.4c0.2,0.8,0.6,2.8-0.5,4.5c-1,1.6-2.7,2.1-3.5,2.3c-9.6,2.4-21.2-1.3-25.1-11.5
	c-0.5-1.3,0.6-3.3,1-5C187.7,196.2,188.1,198,189.3,199.6z"/>
<path class="st29" d="M123.7,192.1c3,0.9,5.8,1.6,8.3,2c2.7,0,5.3,0.1,8,0.1c0.8,0.1,1.9,0.1,3.1-0.1c1.2-0.2,2.1-0.5,2.9-0.8
	c0.8-0.5,1.6-0.9,2.5-1.4c0.5-0.2,0.9-0.4,1.3-0.6c-0.2,5.8-3.7,9-8.9,9.4c-5.7,0.4-11.6,0.3-17.1-1.1c-5.7-1.4-6.4-3.8-5-9.2
	C120.3,191,121.9,191.6,123.7,192.1z"/>
<path class="st33" d="M173,230.3c-0.6,1.4-3.6,2.4-5.6,2.5c-1.8,0.1-3.7-1.1-5.5-1.8c-2.6-1-5-2.4-7.6-3.2c-4.6-1.2-8.1-4.6-7.8-8
	c0.4-4.1,3.8-6.9,8.9-7.2c7.7-0.4,13.4,2.9,18,9.7C173.3,225.1,174,228,173,230.3z M154.6,215.7c-2.7,0.6-5.8,1.8-4.9,4.8
	c0.6,2,4,4.5,6,4.3c2.9-0.3,4.4,0.8,6.1,2.3c0.6,0.5,1.2,1.2,1.9,1.3c2,0.4,4.1,0.6,6.2,0.9c0.1-2,0.2-4,0.3-6
	C166.2,217.8,160.1,214.6,154.6,215.7z"/>
</svg>
