<?xml version="1.0" encoding="utf-8"?>
<!-- Generator: Adobe Illustrator 23.0.3, SVG Export Plug-In . SVG Version: 6.00 Build 0)  -->
<svg version="1.1" id="Ebene_1" xmlns="http://www.w3.org/2000/svg" xmlns:xlink="http://www.w3.org/1999/xlink" x="0px" y="0px"
	 viewBox="0 0 414.5 349.6" style="enable-background:new 0 0 414.5 349.6;" xml:space="preserve">
<style type="text/css">
	.st0{fill:#545866;}
	.st1{fill:#FBE0E0;}
	.st2{fill:#B44644;}
	.st3{fill:#2F2C3F;}
	.st4{fill:#F5A46A;}
	.st5{fill:#F8B381;}
	.st6{fill:#424152;}
	.st7{fill:#8A677F;}
	.st8{fill:#BB98A4;}
	.st9{fill:#C1AAB6;}
	.st10{fill:#F8F4F6;}
	.st11{fill:#BDA5B3;}
	.st12{fill:#F3EEF1;}
	.st13{fill:#F5B8BA;}
	.st14{fill:#EFDEDE;}
	.st15{fill:#C1AEBB;}
	.st16{fill:#AD92A3;}
	.st17{fill:#F9C59F;}
	.st18{fill:#574951;}
	.st19{fill:#8F736B;}
	.st20{fill:#FCF9FA;}
	.st21{fill:#C8B6C2;}
	.st22{fill:#EDE7EB;}
	.st23{fill:#EAE3E7;}
	.st24{fill:#B99FAD;}
	.st25{fill:#DFD4DB;}
	.st26{fill:#E88138;}
</style>
<g>
	<path class="st0" d="M-0.9,112.4c1-0.3,2-0.6,2.9-0.9c2.3,1.3,4.6,2.6,7,3.9c-3.2,2.9-3.1,2.7-5.9,0.5c-0.9-0.7-1.4-4.9-4-1.5
		C-0.9,113.8-0.9,113.1-0.9,112.4z"/>
	<path class="st1" d="M384.1,208.3c-1.2,2.4-2,5-3.6,7c-1.4,1.7-4.2,4-5.6,3.6c-3.2-1-8.2,0-8.8-5.4c-5.2-0.8-4.4-4.7-3.6-7.9
		c0.8-3.3,2.7-6.3,4.1-9.4c-14.3-11.3-29.3-21.4-46.6-27.6c3.5,6.1,7.1,12.2,10.6,18.3c3.8,6.6,7.7,13.1,11.5,19.6
		c4,3.4,3.9,4.6-0.3,7.1c-3.2,2-6.4,4-9.5,6.1c-3,2-4.9,1.8-5.3-2.1c-4.5-6.5-9.3-12.8-13.6-19.4c-3.7-5.6-6.9-11.6-10.3-17.4
		c-0.6-1.1-1.8-2.4-1.7-3.4c0.7-5.7-0.2-11.1-2.3-16.5c-12.1-1.8-24.2-4.1-36.4-5.3c-13.3-1.4-23.9,4.6-32.5,14.3
		c-11.3,12.7-20.9,26.6-28.8,41.7c-5.3,10.1-10.4,20.3-16,31.4c22.7,13.1,38.9,33.7,61.8,47.8c8.8-13.5,17.1-26.4,25.5-39.2
		c0.9-1.4,2.1-2.7,4-3.4c-4.7,13.9-14,25.2-20.9,38.1c6.6,3.2,13,6.4,19.3,9.5c0-6.8,0.2-13.7,0-20.5c-0.1-5.5,2-10.1,5.7-15.4
		c1.5,4.6,3.7,8.4,3.8,12.3c0.3,9.8-0.2,19.6-0.4,29.4c9.2,6.4,18.4,12.8,27.6,19.3c2.2-2.3,4.5-4.6,7-6.7c3-2.6,6.1-5.1,9.3-7.5
		c0.2-0.7,0.6-1.5,1.2-2.1c3.2-3.5,6.7-6.3,10.4-8.8c0.2-0.3,0.5-0.6,0.8-0.9c3.9-3.1,8-6,11.9-9.2c0.1-0.1,0.2-0.3,0.4-0.4
		c-10.5,3.5-21,7.1-31.5,10.7c-3,1-4.9,0.2-5.9-2.7c-4.3-12.9-8.6-25.8-13.2-39.7c6.9-2.3,13.5-4.5,20.1-6.7c1.3-0.1,2.7-0.2,4-0.3
		h0c1-0.3,2-0.7,3-1c0.5-0.3,1-0.7,1.5-1l0,0c6.8-2.4,13.7-4.8,20.5-7.2c2.4-1,4.8-2.1,7.2-2.9c6.5-2.3,7-1.9,7.9,5
		c2.3,6.7,4.6,13.4,7,20.1c0.8,2.1,1.5,4.1,2.3,6.2c3.7-3.9,7.4-7.9,11-11.9c2.5-2.8,5.2-5.3,8-7.8c-0.4-0.6-1-1.1-2-1.5
		c-1-0.5-0.7-7.1,0.1-7.4c3.9-1.1,3-4.3,3.2-6.5c0.6-7,0.3-7.1,7-7.1C396.4,218.4,390.3,213.3,384.1,208.3z M250.1,229.5
		c-3.2,6.5-7.1,12.6-10.3,19.1c-1.9,3.9-4,4.6-7.8,2.3c-7.6-4.6-15.4-8.8-23.2-13.1c-7.8-2.7-8.3-4.4-4.2-11.6
		c2.2-3.9,4.2-7.9,6.5-11.7c0.7-1.2,1.9-2,2.9-3c0.3-1.3,0.6-2.5,1-3.8c2.8-5.5,5.4-11,8.4-16.3c0.6-1.1,3.2-2.4,4.1-1.9
		c7,3.4,13.8,7.2,20.6,10.9c0.5,0.3,0.6,1.4,0.9,2.2c1.7,4.2,3.4,8.4,5,12.7C256.1,220.8,252.3,225,250.1,229.5z M287.2,240.2
		c0,0.1-1.5,0.1-2.3,0.2l-0.3,0.1h-0.3c-0.7,3.3-2.9,4-5.9,3.1c-4-1.2-8.1-2.4-12.1-3.6c-0.1,3.4,0.1,6.9-0.5,10.2
		c-0.2,1.2-2.2,2.1-3.4,3.2c-0.8-1.1-2.3-2.4-2.2-3.4c0.5-7,1.2-14.1,2.4-21c0.2-1.1,3.4-1.7,5.2-2.6c1.7-1.6,3.5-4.6,5-4.5
		c4.8,0.3,9.6,1.8,14.4,2.9c0.5,0.1,1.2,1,1.1,1.5C288.1,231,287.7,235.6,287.2,240.2z M307.6,286.9c-0.2,3.7-3.4,6.3-7.6,6.2
		c-4.4-0.1-8-3.3-8-7.1c0-4.4,4.4-8.6,9.2-8.6C304,277.3,307.8,283,307.6,286.9z M295,217.7c-2.3-3-6-4.9-9.1-7.2c-1-1-2-2-3.1-3
		c-1.3-0.3-2.8-0.1-3.8-0.8c-7.4-5.3-14.8-10.8-22.1-16.2c-4.7-4.2-9.4-8.4-14-12.7c-0.6-0.6-0.6-2.2-0.3-3.1
		c0.3-0.6,1.9-1.4,2.5-1.1c3.4,1.8,6.6,3.9,9.8,5.9c0.4,0.3,0.7,0.6,1.1,1c1.6,0.3,3.5,0.2,4.7,1.1c8.5,6.1,16.9,12.4,25.3,18.7
		c2.5,2.4,4.9,4.7,7.4,7.1c1.8,2,3.8,3.2,6.9,3.2c4.8,0,8.1,4.5,9.2,11.5C304,222.8,299.1,222.9,295,217.7z"/>
	<path class="st2" d="M285,307.3c8.2,5.2,16.3,10.5,24.1,16.1c0.8-0.9,1.6-1.7,2.4-2.6c-9.2-6.5-18.4-12.9-27.6-19.3
		c-1-0.5-2.1-1.1-3.1-1.6c-1.3-0.8-2.6-1.6-3.9-2.4c-0.7-0.6-1.4-1.2-2-1.8c-6.4-3.1-12.7-6.2-19.3-9.5
		c6.8-12.9,16.1-24.2,20.9-38.1c-2,0.8-3.1,2-4,3.4c-8.4,12.8-16.7,25.6-25.5,39.2c-22.9-14.1-39.1-34.7-61.8-47.8
		c5.6-11.1,10.7-21.3,16-31.4c7.9-15.1,17.5-29,28.8-41.7c8.6-9.6,19.2-15.6,32.5-14.3c12.2,1.3,24.3,3.5,36.4,5.3
		c5,1.9,10,3.8,15,5.7c2,0.6,3.9,1.3,5.9,1.9c17.3,6.3,32.3,16.4,46.6,27.6c0.5,0.5,1.1,0.9,1.6,1.4c3.8,2.5,7.5,5.1,11.2,7.6
		c1.6,1,3.2,2.1,4.8,3.1c6.2,5.1,12.4,10.1,18.6,15.2c0.8,1,1.6,1.9,2.5,2.9c1.9,1.8,3.8,3.6,5.7,5.3c1.3-1.2,2.5-2.4,3.8-3.6
		c-15.1-14.8-33-26.4-50.2-38.9c-25.9-18.9-54.2-31.5-86-36.3c-16.7-2.5-32.6-2.4-45.9,9.9c-2.9,2.7-5.6,5.7-8.4,8.6
		c-8,12-16,24-24.1,36c-1.6,2.6-3.2,5.2-4.8,7.9c-4,8-8.1,15.9-12.1,23.9c-1.8,3.6-2.4,6.8,2.5,8.6c1.6,0.6,2.6,2.4,3.9,3.6
		c1.5,1,3,1.9,4.5,2.9c8,6.2,16.1,12.3,23.9,18.7c5,4.1,9.4,8.9,14.1,13.4c1,0.9,2.1,1.8,3.1,2.7c3,1.8,6,3.5,8.9,5.3
		c3.5,2,6.5,2.4,8.1-2.4c0.2-0.7,1-1.3,2.1-2.6c6.6,3.7,13.3,7.4,19.9,11.1C277.7,302.7,281.3,305,285,307.3z"/>
	<path class="st3" d="M132.1,3.6c0.6,0.3,1.3,0.7,1.9,1c0.7,0.3,1.4,0.6,2.1,0.9c1,0.2,2,0.3,3,0.4c2.7,3.9,6.3,4.5,10.3,2.6
		c3.3-1.5,3.7-0.2,3.4,2.7c-0.1,1,0.9,2.1,1.4,3.2c2.6,1.7,5.2,3.4,7.8,5.1c3.5,9.5,10.3,13.8,19.1,11.7c1.9-0.4,3.5-2,5.3-2.4
		c1.3-0.3,2.9,0.6,4.4,1c-0.6,1.2-0.8,2.9-1.7,3.5c-2.4,1.5-5.1,2.5-8.3,4.1c3.3,5.5,7.2,12,11.3,18.8c-1.7,0-3.1,0-4.6,0
		c-0.4-0.3-0.8-0.6-1.1-0.9c-2-1.6-4.1-3.3-6.1-4.9c-2-0.8-4-1.6-6-2.3c-2-0.6-4-1.2-6-1.8c-2.7-0.6-5.4-1.1-8.1-1.7
		c-6.5-3-13.1-4.9-20.3-3c-4.5-1-9-1.9-13.6-2.8c-1.7,0.5-3.4,1-5.2,1.5l0,0.1c-0.8,0.2-1.6,0.5-2.4,0.5
		c-10.8,0.2-21.6,0.3-32.5,0.7c-1.6,0-3.1,0.9-4.6,1.4c0.1,0.4,0.2,0.7,0.3,1.1c2.4,0.3,4.9,0.6,7.8,1c-1.1,2.2-1.8,3.7-2.5,5.1
		c-0.7,0.1-1.3,0.1-2,0.2c-2.7-0.2-5.8-1.2-5.9,3.3c-1.2,1.4-2.3,2.8-3.5,4.2c-9.7,10.7-11.1,24.1-11.9,37.6
		c-1.3,2.6-3.9,5.1-0.8,8.1c-0.2,1.3-0.4,2.7-0.6,4c-0.4,0.6-1,1.2-1.3,1.9c-1.6,4.6-3.8,5.5-7.8,2.8c0,0.9-0.1,1.7-0.1,2.5
		c-2.4,3.6-3.2,7.2-0.7,11.1c0.3,2.8,0.8,5.6,0.8,8.4c0,4.7-0.3,9.4-0.5,14.1c-1.6,0-3.2,0-4.9,0c0.1,1.7,0.2,3,0.2,4.3
		c0.3,0.3,0.5,0.7,0.8,1l0.2,0.1c-1.2,6.7-4,8.1-9.6,5c-1-0.6-2.8,0.1-4.1,0.5c-1,0.3-1.9,0.9-2.9,1.4c-1.8-11.9-6.2-22.7-13.3-32.4
		c0.8-3.2,1.5-6.3,2.3-9.5c0.5,0.1,1.1,0.1,1.7,0.2c0.2,1.4,0.5,2.8,0.6,3.8c2.1,0.4,4,0.8,5.9,1.2c2.3-5.3,1.5-12.8-1.3-15.6
		c-2.4,2.1-4.7,4.4-7.3,6.3c-0.7,0.5-3,0.3-3.3-0.2c-1.3-2.6-5.9-4.3-2.3-8.4c0.4-0.4-0.9-2.3-1.4-3.5c0.1-2.5-0.8-5.8,0.5-7.3
		c3.9-4.5,3.9-10,5.5-15.1c2.1-7.1,4.7-13.9,7.4-21.6c-2.1-0.4-4.7-0.8-7.3-1.3c-1,0-2,0-3-0.1c-0.4-0.2-0.8-0.3-1.2-0.5
		c-0.6-0.6-1.3-1.2-1.9-1.9c1.4-2,2.7-4,4.1-6c1.3-0.1,2.7-0.2,4-0.3c0.9,0.7,1.8,1.8,2.8,2c4.9,1.1,8.4-1.3,11.8-4.6
		c7.4-7.3,16.2-13.3,20.7-23.2c0.4-0.9,2.5-1.1,3.9-1.5c1.9-0.5,4.2-0.4,5.8-1.4c2.2-1.3,4-3.3,5.9-5c2.4,0.1,4.7,0.2,7.1,0.3
		c0.6,1.4,1.2,2.9,2.2,5.3c1.3-1.6,2-2.5,2.8-3.5c6.8,1.8,12.9,1.5,16.9-5.3c2.4-0.7,5.4-0.8,7.2-2.3c3.1-2.5,6.1-4.3,10.2-3.8
		c2,0.2,4.2,0.3,6.2,0C127.8,5,129.9,4.2,132.1,3.6z M50.2,92.8c-0.5,0.1-0.9,0.2-1.4,0.3c-1.4,6,1.3,16.1,5,16.9
		C52.5,104.1,51.3,98.5,50.2,92.8z"/>
	<path class="st4" d="M224.1,171.3c-8,12-16,24-24.1,36c-3.4,0-6.3,0.9-7.2,4.8c-2-1.3-4-2.7-5.5-3.7c-13.4,2-26.6,4-40.5,6.1
		c-0.2,2.1-0.8,4.7-0.5,7.3c1.2,10.7,5.9,19.7,13.8,26.9c8.7,8,21.8,8.9,29.5,2.6c1.5,1,3,1.9,4.5,2.9c-0.7,1-1.4,2.1-2.1,3.1
		c-1.3,0.3-2.6,0.5-3.8,1c-9.8,4.1-19.3,2.5-27.4-3.3c-11.2-8-17.2-19.5-17.9-33.5c0.1-2.6,0.3-5.1,0.4-7.6c-4.2-0.4-8.2-0.4-12-1.3
		c-12.8-2.9-25.9-5.4-37-13.2c-9.3-7.2-18.5-14.4-27.8-21.5c-2.6-2-5.5-3.6-7.8-5.8c-1.1-1.1-1.2-3.2-1.8-4.8l-0.1,0.1
		c0.8-0.3,1.5-0.5,2.3-0.8c1.8,1.4,3.7,2.7,5.5,4.1c10.8,8.2,19.5,19.1,32,24.9c8.3,3.9,16.4,8.6,25.2,10.5
		c10.6,2.2,21.7,2.4,32.6,2.3c11.9-0.2,23.7-1.9,34.7-7c9.8-4.6,17.5-11.3,20.6-22.2c0.5-1.9,1.7-3.6,2.5-5.4
		c1.9-4.2,4.8-8.3,5.4-12.6c1.4-9.6,3-19.6,1.9-29.1c-1.3-11-4.6-22-8.4-32.5c-2.6-7.4-7.5-14-11.4-20.9c0.8-0.8,1.6-1.5,2.4-2.2
		c8.6,10.5,14.1,22.6,18,35.6c5.3,17.7,4.4,35.3,1.3,53.2C221.3,167,223.2,169.3,224.1,171.3z"/>
	<path class="st4" d="M202.1,334.7c-7.1,2.2-14,5.5-21.3,6.5c-18.4,2.5-37.1,4.6-55.1-2.5c-31.4-12.3-50.3-35.2-56.5-68.1
		c-1.9-10.3-1.8-21.2-1-31.7c0.9-11.1,7.7-20,14-28.8c1.4-1.9,4.4-2.6,6.7-3.9c-0.4,1.5-0.6,3-1.3,4.3c-2.1,4-4.5,7.9-6.7,11.8
		c-2.7,4.7-6.8,9.1-7.7,14.1c-2.9,17.4-2.2,34.8,5.5,51c3.8,8.1,9.5,15.4,14.3,23c10.6,11.5,22.2,21.3,38,24.9c19.1,6,38.1,4.7,57-1
		c3.7-1.3,7.3-2.7,11-4C200.1,331.9,201.1,333.3,202.1,334.7z"/>
	<path class="st2" d="M202.1,334.7c1.6,1.5,2.5,5.5,5.6,2.8c6.2-5.4,11.9-11.4,18.1-16.9c1.2-1.1,4-1.9,5.3-1.2
		c12.2,6.5,24.4,12.9,36.1,20.1c5.1,3.1,10,6.5,14.6,10.1c1.2-0.8,2.4-1.6,3.6-2.4c-3.5-2.6-7-5.2-10.5-7.8c-0.7-0.7-1.5-1.4-2.2-2
		c-10.9-6-21.8-12-32.8-18c-1-0.6-2-1.3-3-2c-3-1-5.9-2.1-8.9-3.1c-2.2,1.8-4.4,3.6-6.6,5.4c-1.4,1-2.8,2-4.2,3
		c-0.3,0.3-0.6,0.6-0.9,1c-3.3,3.1-6.6,6.2-10.2,9.5c-4.1-5.7-8.1-11.2-12.1-16.7c-1.6,0.3-3.3,0.6-4.9,0.9c3.3,4.3,6.6,8.7,9.9,13
		C200.1,331.9,201.1,333.3,202.1,334.7z"/>
	<path class="st5" d="M81,222.3c2.3-3.9,4.6-7.8,6.7-11.8c0.7-1.3,0.9-2.9,1.3-4.3c1.8-2.3,3.6-4.6,5.3-6.8
		c11.1,7.8,24.2,10.3,37,13.2c3.8,0.9,7.8,0.8,12,1.3c-0.1,2.5-0.3,5.1-0.4,7.6c-3.9,0.9-8,3.1-11.7,2.5
		c-10.5-1.6-20.8-4.3-31.2-6.6c-0.3-2.3-0.7-4.5-1-6.8c-0.5,0.1-0.9,0.2-1.4,0.3c-0.5,1.8-1,3.7-1.5,5.5
		C91.1,218.4,86,220.4,81,222.3z"/>
	<path class="st6" d="M73,14.7c-1.9,1.7-3.7,3.7-5.9,5c-1.7,1-3.9,0.9-5.8,1.4c-1.4,0.4-3.5,0.6-3.9,1.5c-4.5,10-13.3,16-20.7,23.2
		c-3.4,3.3-6.9,5.7-11.8,4.6c-1-0.2-1.9-1.3-2.8-2c8.4-7.5,16.5-15.5,25.3-22.5c5.5-4.4,12-7.7,18.4-11C67.7,13.9,70.6,14.7,73,14.7
		z"/>
	<path class="st6" d="M32.4,160.4c1-0.5,1.9-1.1,2.9-1.4c1.3-0.4,3.1-1,4.1-0.5c5.6,3.1,8.4,1.8,9.6-5c2.6,4.6,5.3,9.2,7.9,13.8
		l0.1-0.1c-4.5,1-4.4,4.1-3.6,7.6c0.5,2.4,1.1,4.9,0.7,7.2c-0.2,1.3-2.4,3-3.8,3.1c-1.1,0.1-3.1-1.6-3.5-2.9
		c-1.5-4.6-2.6-9.5-3.9-14.2c-0.4-1.5-1-3-1.6-4.9C37.1,165.3,34,165,32.4,160.4z"/>
	<path class="st6" d="M14.1,102.4c0.5,1.2,1.8,3.1,1.4,3.5c-3.6,4.1,1,5.8,2.3,8.4c0.3,0.5,2.6,0.7,3.3,0.2c2.6-1.9,4.9-4.2,7.3-6.3
		c2.8,2.8,3.6,10.3,1.3,15.6c-1.9-0.4-3.8-0.8-5.9-1.2c-0.2-1-0.4-2.4-0.6-3.8c-0.5-0.1-1.1-0.1-1.7-0.2c-0.8,3.2-1.5,6.3-2.3,9.5
		c-6.1-0.8-6.4-1.6-4.9-7.5c0.5-1.8-0.7-4.2-1.1-6.2c-1.4,0.4-2.8,0.8-4.2,1.1c-2.3-1.3-4.6-2.6-7-3.9l0,0c0-0.4,0-0.8,0-1.2
		c0.7-0.6,1.3-1.3,2-1.9c1-0.7,2-1.3,3.1-2c0.1-0.3,0.2-0.6,0.4-0.9C9.6,104.5,11.9,103.5,14.1,102.4z"/>
	<path class="st0" d="M187.3,56.3c1.4,0,2.9,0,4.6,0c-4.1-6.8-8-13.3-11.3-18.8c3.2-1.5,5.9-2.6,8.3-4.1c0.9-0.6,1.2-2.3,1.7-3.5
		c-1.5-0.4-3-1.2-4.4-1c-1.9,0.4-3.5,1.9-5.3,2.4c-8.8,2.1-15.6-2.2-19.1-11.7c0.3,0,0.7-0.1,1-0.1c2.1,1.9,4.5,3.5,6.1,5.8
		c2.9,4.1,6.6,4.7,10.9,3.2c2.7-0.9,5.2-2.6,7.9-3c2.3-0.3,4.7,1,7.1,1.5c-1,2.8-1.6,5.7-3.1,8.2c-0.9,1.4-3.2,2-5.6,3.3
		c5.3,2.3,8,5.1,3.1,9.4c2.2,2.9,4.1,5.5,6.9,9.1c-2.8,0.6-4.7,1-6.6,1.5C188.8,57.8,188,57,187.3,56.3z"/>
	<path class="st0" d="M14.1,102.4c-2.2,1-4.4,2-6.7,3.1c4.9-5.1,4.6-11.5,5.5-18c1.3-9.2,5.1-18,8.5-26.8c1-2.5,0-2.7-1.3-3.6
		c2.6,0.4,5.1,0.9,7.3,1.3C24.7,66.1,22.1,73,20,80c-1.5,5.2-1.6,10.6-5.5,15.1C13.3,96.6,14.2,100,14.1,102.4z"/>
	<path class="st6" d="M132.1,3.6c-2.1,0.6-4.2,1.4-6.4,1.7c-2,0.3-4.2,0.3-6.2,0c-4.1-0.5-7.1,1.3-10.2,3.8
		c-1.8,1.5-4.8,1.6-7.2,2.3c0.4-2.4,0.7-4.8,1.1-7.2c1.1-0.3,2.3-0.7,3.4-1c1.1-0.7,2.1-1.4,3.2-2.1c1.5-0.3,2.9-0.6,4.4-0.9
		c0.6-0.1,1.2-0.2,1.8-0.2c1.2,4.5,2.7,1.6,4.1,0.1c1,0.1,1.9,0.2,2.9,0.3c1.2,0.3,2.4,0.6,3.6,0.8c0.8,0.3,1.6,0.7,2.5,1
		c0.9,0.3,1.8,0.6,2.6,0.9l0.4,0.1L132.1,3.6z"/>
	<path class="st0" d="M103.1,4.3c-0.4,2.4-0.7,4.8-1.1,7.2c-4.1,6.8-10.2,7.1-16.9,5.3C85,16.5,85,16.2,85,16c5-3.6,10-7.2,15-10.7
		C100.9,4.7,102.1,4.6,103.1,4.3z"/>
	<path class="st5" d="M187.3,56.3c0.7,0.7,1.5,1.5,2.2,2.2c1.8,2.5,3.6,5,5.4,7.4c2.5,3.4,4.9,6.9,7.4,10.3
		c-0.8,0.8-1.6,1.5-2.4,2.2c-5.1-6.3-10.3-12.6-15.3-19.1c-0.7-0.9-0.4-2.5-0.6-3.8c0.7-0.1,1.4-0.1,2.2-0.2
		C186.6,55.7,186.9,56,187.3,56.3z"/>
	<path class="st6" d="M154.1,14.5c-0.5-1.1-1.5-2.2-1.4-3.2c0.3-2.9-0.1-4.2-3.4-2.7c-4.1,1.9-7.6,1.3-10.3-2.6
		c3.7-0.4,7.5-0.7,11.2-1.1c3.1,0.9,6.2,1.8,9.4,2.7c-0.3,1.3-0.5,2.6-0.8,3.9C157.2,12.4,155.6,13.5,154.1,14.5z"/>
	<path class="st0" d="M18,48.7c-1.4,2-2.7,4-4.1,6c-6.7-1.9-2.1-4.8-0.6-7.7C15,47.6,16.5,48.1,18,48.7z"/>
	<path class="st7" d="M154.1,14.5c1.5-1,3.1-2,4.6-3.1c0.3,1.5,0.3,3.1,1,4.4c0.7,1.4,2.1,2.4,3.1,3.6c-0.3,0-0.7,0.1-1,0.1
		C159.3,17.9,156.7,16.2,154.1,14.5z"/>
	<path class="st7" d="M159.5,7.5c-3.1-0.9-6.2-1.8-9.4-2.7C156.4,2.2,158.6,2.9,159.5,7.5z"/>
	<path class="st6" d="M85,16c0,0.3,0,0.5,0.1,0.8c-0.8,1-1.6,2-2.8,3.5c-1-2.4-1.6-3.9-2.2-5.3C81.7,15.3,83.4,15.6,85,16z"/>
	<path class="st0" d="M120.1,0.1c-1.4,1.5-2.9,4.4-4.1-0.1C117.3,0,118.7,0.1,120.1,0.1z"/>
	<path class="st0" d="M114.1,0.2c-1.5,0.3-2.9,0.6-4.4,0.9C111.2,0.8,112.7,0.5,114.1,0.2z"/>
	<path class="st0" d="M109.7,1.1c-1.1,0.7-2.1,1.4-3.2,2.1C107.6,2.5,108.7,1.8,109.7,1.1z"/>
	<path class="st0" d="M126.5,1.2c-1.2-0.3-2.4-0.6-3.6-0.8C124.2,0.7,125.3,1,126.5,1.2z"/>
	<path class="st0" d="M7,106.4c-1,0.7-2,1.3-3.1,2C5,107.8,6,107.1,7,106.4z"/>
	<path class="st6" d="M136,5.5c-0.7-0.3-1.4-0.6-2.1-0.9C134.7,4.9,135.3,5.2,136,5.5z"/>
	<path class="st0" d="M131.6,3.2c-0.9-0.3-1.8-0.6-2.6-0.9C129.9,2.6,130.7,2.9,131.6,3.2z"/>
	<path class="st0" d="M2,110.3c0,0.4,0,0.8,0,1.2c-0.2-0.1-0.5-0.3-0.7-0.4C1.5,110.8,1.7,110.6,2,110.3z"/>
	<path class="st0" d="M15.9,56.6c0.4,0.2,0.8,0.3,1.2,0.5C16.7,56.9,16.3,56.7,15.9,56.6z"/>
	<path class="st8" d="M298.9,160.8c5,1.9,10,3.8,15,5.7c-2.8-0.3-5.7-0.7-9.2-1.1c-0.5,2.7-1.1,6.1-1.7,9.4c0.4,0.2,0.7,0.4,1.1,0.7
		c3.1-3.2,8.8-3.3,9.8-8.9c2,0.6,3.9,1.3,5.9,1.9c3.5,6.1,7.1,12.2,10.6,18.3c3.8,6.6,7.7,13.1,11.5,19.6c-1,0-2,0-3,0
		c-6.8-11.2-13.5-22.5-20.5-33.5c-0.7-1-3.8-1-5.6-0.6c-1.6,0.4-3,2-4.6,2.9c-3.3,1.7-3.6,3.7-1.7,6.7c6,9.3,11.8,18.8,17.6,28.1
		c1.5,2.4,3.3,2.8,5.9,1.4c2.3-1.3,4.8-2,7.2-3c-0.8,0.7-1.7,1.3-2.4,2.1c-2,2.3-4,4.6-6,6.9c-0.7,0.1-1.5,0.1-2.2,0.1
		c-4.5-6.5-9.2-12.8-13.6-19.4c-3.7-5.6-6.9-11.6-10.3-17.4c-0.7-1.1-1.8-2.4-1.7-3.4C301.9,171.6,301,166.1,298.9,160.8z"/>
	<path class="st9" d="M356.6,281.7c1.2-0.8,2.4-0.9,3.5-0.7c0.7-0.7,1.4-1.4,2.1-2c-3.7,1.2-7.4,2.4-11.1,3.6
		c-1.1-0.4-2.2-0.8-3.3-1.2c-1.4-0.4-2.8-0.8-4.2-1.2c-0.5,0.8-1,1.5-1.6,2.2c0.9,0.6,1.8,1.2,3.5,2.2c-8.6,2.9-16.5,5.7-24.5,8.2
		c-1,0.3-3.4-1-3.8-2.1c-3.9-10.8-7.4-21.7-11.3-32.5c-1.2-3.3,0.8-3.8,2.8-4.5c4.5-1.7,9-3.3,13.4-5c0-0.6,0-1.3-0.1-1.9
		c-6.6,2.2-13.3,4.4-20.1,6.7c4.6,13.9,8.9,26.8,13.2,39.7c1,2.9,2.9,3.7,5.9,2.7c10.5-3.6,21-7.2,31.5-10.7
		C353.7,283.9,355,282.7,356.6,281.7z"/>
	<path class="st9" d="M375.3,265.6c-0.8-2.1-1.5-4.1-2.3-6.2c-0.7,0-1.4,0-2.1,0c0.8,2.8,1.6,5.5,2.4,8.3
		C374,267,374.7,266.3,375.3,265.6z"/>
	<path class="st10" d="M342.1,282.4c0.9,0.6,1.8,1.2,3.5,2.2c-8.6,2.9-16.5,5.7-24.5,8.2c-1,0.3-3.4-1-3.8-2.1
		c-3.9-10.8-7.4-21.7-11.3-32.5c-1.2-3.3,0.8-3.8,2.8-4.5c4.5-1.7,8.9-3.3,13.4-5c1.3-0.8,2.6-1.5,3.9-2.3h0c1-0.3,2-0.7,3-1v0
		c0.5-0.3,1-0.7,1.5-1l0,0c0.9,0.8,1.9,1.7,2.5,2.3c-0.6,1.2-1.2,2.4-1.8,3.6c-0.4,0.3-0.8,0.6-1.1,1c-6.2,1.8-12.5,3.6-18.7,5.6
		c-0.4,0.1-0.3,1.7-0.4,2.6c0,0.6,0.1,1.3,0.1,2c0.6,0.7,1.3,1.4,1.9,2.1c0,0.6,0.1,1.3,0.1,1.9c1,0.6,2,1.3,2.9,1.9
		c0,0.4,0.1,0.8,0.1,1.3c-0.1,1-0.1,2.1-0.2,3.1c0,0.6,0.1,1.2,0.1,1.8c0.6,0.7,1.3,1.5,1.9,2.2c0,0.6,0,1.2,0.1,1.8c0,1,0,2,0,2.9
		c0,0.7,0,1.4,0.1,2.1c1.9,0.7,3.7,1.3,5.6,2c-1.2,0.9-2.5,1.8-3.7,2.8c0.3,0.6,0.6,1.2,0.9,1.8c6.4-2.5,12.8-5.1,19.1-7.6
		C340.7,281.8,341.4,282.1,342.1,282.4z"/>
	<path class="st11" d="M392.3,244.4c0.9,0.5,1.5,1,2,1.6c1.4-1.3,2.8-2.5,4.3-3.7c0.1-3.3,0.3-6.6,0.4-10c0-0.6,0-1.1,0-1.7
		c-1.9-2.8-1.2-4.2,2.2-4.1c1.3,0,2.6-0.1,3.9-0.1c-0.8-1-1.6-1.9-2.5-2.9c-6.7,0-6.5,0.1-7,7.1c-0.2,2.2,0.7,5.4-3.2,6.5
		C391.6,237.2,391.3,243.9,392.3,244.4z"/>
	<path class="st9" d="M215,207.7c2.8-5.5,5.4-11,8.4-16.3c0.6-1.1,3.2-2.4,4.1-1.9c7,3.4,13.8,7.2,20.6,10.9
		c0.5,0.3,0.6,1.4,0.9,2.2c-0.3,1.4-0.5,2.9-0.8,4.3c-3,7.5-3,7.5,3.8,9.4c0,0.8,0,1.6,0,2.4c-3.3-1.3-6.6-2.6-10.2-4.1
		c2-4.3,3.7-7.7,5.4-11.3c-2.6-1.4-5.1-2.4-7.1-4c-4.1-3.2-6.3-1.7-8.3,2.4c-3.6,7.1-7.3,14.1-11.2,21c-1.4,2.5-3.6,4.5-5.5,6.8
		c-0.1-0.4-0.2-0.7-0.3-1.1c1.6-3,3.1-6.1,4.7-9.1c3.2-6.1,6.4-12.1,9.3-17.7c-1.9-1.3-3.3-2.2-4.6-3.1c1.6-0.2,3.1-0.3,4.7-0.7
		c1-0.3,2.3-0.8,2.6-1.6c0.3-0.5-0.6-2.1-1.4-2.5c-3.6-2.2-5.2-1.1-7.1,4.8c-1.2,2.1-2.2,4.3-3.7,6.1
		C218.2,205.9,216.5,206.6,215,207.7z"/>
	<path class="st11" d="M252,218.7c0-0.8,0-1.6,0-2.4c-1.3-3.1-2.5-6.3-3.8-9.4c0.3-1.4,0.5-2.9,0.8-4.3c1.7,4.2,3.4,8.4,5,12.7
		c2.1,5.6-1.7,9.8-3.9,14.3c-3.2,6.5-7.1,12.6-10.3,19.1c-1.9,3.9-4,4.6-7.8,2.3c-7.6-4.6-15.4-8.8-23.2-13.1
		c0.1-0.8,0.1-1.5,0.2-2.3c0.8-0.1,1.7-0.2,2.5-0.3c0.5,0.1,1,0.2,1.5,0.3c0.5,0.8,0.8,1.9,1.5,2.3c4.1,2.5,8.3,4.8,12.5,7.1
		c8.7,4.8,8.9,4.9,13.6-3.7C244.6,233.8,248.2,226.2,252,218.7z"/>
	<path class="st12" d="M215,207.7c1.5-1,3.2-1.8,4.3-3.1c1.5-1.8,2.5-4,3.7-6.1c0.4,0,0.8,0,1.2,0.1c1.4,0.9,2.7,1.8,4.6,3.1
		c-3,5.6-6.2,11.6-9.3,17.7c-1.6,3-3.1,6.1-4.7,9.1c-2.3-0.7-4.5-1.3-6.8-2c0.8-1.8,1.6-3.5,2.3-5.3c1.3-3.2,2.5-6.5,3.7-9.7
		C214.4,210.2,214.7,208.9,215,207.7z"/>
	<path class="st13" d="M284.9,240.3l-0.3,0.1h-0.3c-10.7,2.8-16.2-1.3-16.2-12l0,0.1c2.8-3.2,12.9-2.6,15.3,0.9
		c0.4,0.6,0.6,1.5,0.7,2.3C284.3,234.5,284.6,237.4,284.9,240.3z"/>
	<path class="st11" d="M331.2,250.4c0.6-1.2,1.2-2.4,1.8-3.6c-0.7-0.6-1.6-1.4-2.5-2.3c6.8-2.4,13.7-4.8,20.5-7.2c0,0.7,0,1.4,0,2.1
		c-5,1.8-9.9,3.6-15.6,5.7c1.7,1.2,2.6,1.8,3.5,2.4c-0.3,1.1-1.3,2.3-0.9,3.2c1.3,3.3,2.7,6.5,4.5,9.6c1,1.8-1.5,4.5,2,5.8
		c0.8,0.3-0.1,4.8-0.2,7.3c-0.7,0.4-1.4,0.7-2.1,1.1c-0.9-0.9-2.1-1.7-2.6-2.8c-1.1-2.5-2-5-2.8-7.6c-1.3-4.5-2.5-9-3.7-13.6
		c0.1-0.1,0.2-0.2,0.3-0.4c-0.1,0.1-0.2,0.3-0.2,0.4C332.4,250.4,331.8,250.4,331.2,250.4z"/>
	<path class="st10" d="M255,179.5c0.4,0.3,0.7,0.6,1.1,1c2.1,1.9,4.1,3.9,6.4,5.6c7.4,5.3,14.9,10.3,22.4,15.5
		c1.4,1.9,1.9,3.6-0.8,4.8c-1.7-1-3.4-2-5-3.1c-6.3-4.3-12.5-8.6-18.8-12.9c-4.5-3.8-9.1-7.7-13.6-11.5c0.3-0.3,0.5-0.6,0.8-0.9
		C250,178.4,252.5,179,255,179.5z"/>
	<path class="st11" d="M284,301.5c-1-0.5-2.1-1.1-3.1-1.6c0.3-0.6,0.9-1.1,0.9-1.7c0.1-8,0.3-15.9,0.1-23.9c0-0.9-1.6-1.8-2.5-2.7
		c-0.8,1-2.1,2-2.1,3.1c-0.2,7.6-0.2,15.3-0.3,22.9c-0.7-0.6-1.4-1.2-2-1.8c0-6.8,0.2-13.7,0-20.5c-0.1-5.5,2-10.1,5.7-15.4
		c1.5,4.6,3.7,8.4,3.8,12.3C284.7,281.9,284.2,291.7,284,301.5z"/>
	<path class="st2" d="M300.1,293.1c-4.4-0.1-8-3.3-8-7.1c0-4.4,4.4-8.6,9.2-8.6c2.8,0,6.6,5.6,6.4,9.5
		C307.5,290.5,304.2,293.2,300.1,293.1z M302.8,281.7c-2.2,1.2-3.2,1.9-4.2,2.4c-0.8,0.4-1.7,0.6-2.5,0.9c0.4,1,0.5,2.7,1.2,2.9
		c1.6,0.5,4.6,0.9,4.9,0.4C302.9,286.5,302.6,284.4,302.8,281.7z"/>
	<path class="st8" d="M284.9,240.3c-0.3-2.9-0.6-5.8-0.9-8.7c-0.1-0.8-0.3-1.7-0.7-2.3c-2.4-3.5-12.5-4.1-15.3-0.9
		c-0.1-0.7-0.1-1.4-0.2-2c1.7-1.6,3.5-4.6,5-4.5c4.8,0.3,9.6,1.8,14.4,2.9c0.5,0.1,1.2,1,1.1,1.5c-0.3,4.6-0.6,9.2-1.1,13.8
		C287.2,240.3,285.7,240.3,284.9,240.3z"/>
	<path class="st9" d="M293.5,207.4c1.8,2,3.8,3.2,6.9,3.2c4.8,0,8.1,4.5,9.2,11.5c-5.5,0.7-10.5,0.9-14.5-4.4c-2.3-3-6-4.9-9.1-7.2
		C288.5,209.4,291,208.4,293.5,207.4z M305.3,219.3c0.4-0.6,0.7-1.1,1.1-1.7c-2.2-1.6-4.4-3.2-6.6-4.7c-0.6,1.2-2,2.6-1.7,3.6
		C299.2,220.4,302.5,219.3,305.3,219.3z"/>
	<path class="st14" d="M267.8,226.4c0.1,0.7,0.1,1.4,0.2,2l0-0.1c-0.6,3.9-1.2,7.7-1.8,11.6c-0.1,3.4,0.1,6.9-0.5,10.2
		c-0.2,1.2-2.2,2.1-3.4,3.2c-0.8-1.1-2.3-2.4-2.2-3.4c0.5-7,1.2-14.1,2.4-21C262.8,227.9,266,227.3,267.8,226.4z"/>
	<path class="st8" d="M379.3,205.2c1.6,1,3.2,2.1,4.8,3.1c-1.2,2.4-2,5-3.6,7c-1.4,1.7-4.2,4.1-5.6,3.6c-3.2-0.9-8.2,0-8.8-5.4l0,0
		c1.9-0.1,3.8-0.5,5.6-0.2c2.8,0.5,4.9,0.2,5.7-3C377.7,208.5,378.6,206.8,379.3,205.2z"/>
	<path class="st15" d="M284.9,201.5c-7.5-5.1-15-10.3-22.4-15.5c-2.3-1.6-4.3-3.7-6.4-5.6c1.6,0.3,3.5,0.2,4.7,1.1
		c8.5,6.1,16.9,12.5,25.3,18.7C285.8,200.7,285.3,201.1,284.9,201.5z"/>
	<path class="st11" d="M255,179.5c-2.5-0.6-5-1.1-7.5-1.6c-0.3,0.3-0.5,0.6-0.8,0.9c4.5,3.8,9.1,7.7,13.6,11.5
		c-1.1,0-2.2,0.1-3.3,0.1c-4.7-4.2-9.4-8.4-14-12.7c-0.6-0.6-0.6-2.2-0.3-3.1c0.3-0.6,1.9-1.4,2.5-1.1
		C248.6,175.4,251.8,177.5,255,179.5z"/>
	<path class="st15" d="M214,211.4c-1.2,3.2-2.5,6.5-3.7,9.7c-0.7,1.8-1.5,3.5-2.3,5.3c-4.2,6.1-4.2,6.1,1,9
		c-0.1,0.8-0.1,1.5-0.2,2.3c-7.8-2.7-8.3-4.4-4.2-11.6c2.2-3.9,4.2-7.9,6.5-11.7C211.8,213.2,213.1,212.4,214,211.4z"/>
	<path class="st15" d="M257,190.5c1.1,0,2.2-0.1,3.3-0.1c6.3,4.3,12.5,8.6,18.8,12.9c1.6,1.1,3.3,2.1,5,3.1
		c-0.4,0.4-0.8,0.8-1.3,1.2c-1.3-0.3-2.8-0.1-3.8-0.8C271.7,201.3,264.4,195.9,257,190.5z"/>
	<path class="st9" d="M339,206.4c1,0,2,0,3,0c4,3.4,3.9,4.6-0.3,7.1c-3.2,2-6.4,4-9.5,6.1c-3,2-4.9,1.8-5.3-2.1
		c0.7-0.1,1.5-0.1,2.2-0.1c3.7-1.9,7.6-3.6,11.1-5.9c1.9-1.2,1.4-2.9-1.1-3.2C339,207.7,339,207.1,339,206.4z"/>
	<path class="st8" d="M266.3,240c0.6-3.9,1.2-7.7,1.8-11.6c0,10.7,5.5,14.8,16.2,12c-0.7,3.3-2.9,4-5.9,3.1
		C274.3,242.4,270.3,241.2,266.3,240z"/>
	<path class="st9" d="M351,239.3c0-0.7,0-1.4,0-2.1c2.4-1,4.8-2.1,7.2-2.9c6.5-2.3,7-1.9,7.9,5c-0.4,0.7-0.8,1.4-1.1,2.1
		c-1.4-4.8-4.2-6-8.7-3.7C354.6,238.6,352.7,238.8,351,239.3z"/>
	<path class="st15" d="M364.9,241.5c0.4-0.7,0.8-1.4,1.1-2.1c2.3,6.7,4.6,13.4,7,20.1c-0.7,0-1.4,0-2.1,0
		C369,253.4,366.9,247.5,364.9,241.5z"/>
	<path class="st16" d="M282.9,207.5c0.4-0.4,0.8-0.8,1.3-1.2c2.7-1.2,2.2-2.9,0.8-4.8c0.4-0.4,0.8-0.9,1.2-1.3
		c2.5,2.4,4.9,4.7,7.4,7.1c-2.5,1-5,2.1-7.6,3.1C284.9,209.5,283.9,208.5,282.9,207.5z"/>
	<path class="st8" d="M366.5,196.1c0.5,0.5,1.1,0.9,1.6,1.4c-1.7,5.2-4.3,10.2-2,15.9l0,0c-5.2-0.8-4.4-4.7-3.6-7.9
		C363.2,202.2,365.1,199.2,366.5,196.1z"/>
	<path class="st11" d="M326,246.5c-1.3,0.8-2.6,1.5-3.9,2.3c0-0.6-0.1-1.3-0.1-1.9C323.4,246.7,324.7,246.6,326,246.5z"/>
	<path class="st11" d="M329,245.5c-1,0.3-2,0.7-3,1C327,246.1,328,245.8,329,245.5z"/>
	<path class="st11" d="M330.5,244.4c-0.5,0.3-1,0.7-1.5,1C329.5,245.1,330,244.8,330.5,244.4z"/>
	<path class="st1" d="M240,319.4c10.9,6,21.8,12,32.8,18c4.4-9.7,17.2-15.5,27.4-12.4c2,0.6,3.6,1.6,4.9,2.8c1.4-1.5,2.7-3,4.1-4.5
		c-7.8-5.6-16-10.9-24.1-16.1c-0.6,0-1.1,0.1-1.7,0.1c-1,2.9,2.1,6.7-2.2,8.8h-2c-0.7,0-1.4,0-2,0c-3.2,1.9-2.7-1-2.8-2.4
		c-0.2-4.4-0.1-8.9-0.1-13.3c-6.6-3.7-13.3-7.4-19.9-11.1c-1.1,1.4-1.8,1.9-2.1,2.6c-1.5,4.8-4.5,4.5-8.1,2.4c-3-1.7-6-3.5-8.9-5.3
		c-0.7,1.4-1.4,2.8-2.1,4.3c4.5,4.1,9.2,8.1,13.5,12.4c0.8,0.8,0.6,3.3,0,4.5C244.6,313.5,242.2,316.4,240,319.4z"/>
	<path class="st4" d="M235.1,289.1c-0.7,1.4-1.4,2.8-2.1,4.3c-0.6,0.6-1.3,1.2-1.9,1.8c-0.9,1.1-1.8,2.1-2.7,3.2
		c-2.5,2.3-4.9,4.5-7.4,6.8c-3.1,1.8-6.1,3.5-9.2,5.2c-1.5,0.6-3,1.3-4.5,1.9c-0.8,0.4-1.6,0.7-2.4,1.1c-3.7,1-7.4,2-11.1,3
		c-1.6,0.3-3.3,0.6-4.9,0.9c-2.7,0.3-5.4,0.6-8.1,1c-9-1-18.1-1.8-27.1-2.9c-12.6-1.6-23.4-7.3-32.4-16.1
		c-9-8.8-14.1-20.1-19.3-31.2c-2.4-5-3.9-10.6-5.1-16.1c-2.6-11.8-2.7-23.7-1-35.6c0.5-1.8,1-3.7,1.5-5.5c0.5-0.1,0.9-0.2,1.4-0.3
		c0.3,2.3,0.7,4.5,1,6.8c-0.1,1.5,0.1,3-0.2,4.5c-2.1,12.8-0.8,25.6,3.5,37.6c3.3,9.1,8.2,17.8,13.3,26c3.2,5.2,8.2,9.3,12.3,13.9
		c0.8,0.7,1.6,1.6,2.5,2.2c9.2,6.4,19.8,8.7,30.5,10.7c1.5,0.1,3-0.1,4.5,0.2c12.1,2.1,23.8,0.6,35.2-3.3c5.9-2,11.5-5.2,17.2-7.9
		c4.4-5,8.7-10,13.1-15C233.1,287.3,234.1,288.2,235.1,289.1z"/>
	<path class="st5" d="M232.1,286.4c-4.4,5-8.7,10-13.1,15c-2-3-4-5.9-5.9-8.9c-4.7-7.5-9.5-15-14.1-22.6c-2.5-4-4.6-8.3-6.9-12.4
		c0.7-1,1.4-2.1,2.1-3.1c8,6.2,16.1,12.3,23.9,18.7C223,277.1,227.4,281.9,232.1,286.4z"/>
	<path class="st10" d="M405.6,231.1c0.5,1.1,1.8,1.8,2.9,2.6c0.8-0.7,1.5-1.4,2.3-2.1c-1.9-1.8-3.8-3.5-5.7-5.3
		c-1.3,0-2.6,0.1-3.9,0.1c-3.4-0.1-4.1,1.3-2.2,4.1C401.4,228.4,403.6,226.4,405.6,231.1z"/>
	<path class="st10" d="M400.7,233.1c-0.6-0.2-1.2-0.6-1.8-0.9c-0.1,3.3-0.3,6.6-0.4,9.9c2.6-2.2,5.2-4.4,7.7-6.6
		C405.1,234.7,403.3,233.9,400.7,233.1z"/>
	<path class="st13" d="M366,213.5c-2.3-5.7,0.4-10.8,2-15.9c3.8,2.6,7.5,5.1,11.2,7.6c-0.7,1.7-1.6,3.3-2,5.1
		c-0.8,3.2-2.8,3.5-5.7,3C369.8,212.9,367.9,213.4,366,213.5z"/>
	<path class="st12" d="M277,297.5c0-7.6,0-15.3,0.3-22.9c0-1,1.4-2,2.1-3.1c0.9,0.9,2.5,1.8,2.5,2.7c0.1,8,0,15.9-0.1,23.9
		c0,0.6-0.6,1.1-0.9,1.7C279.6,299,278.3,298.3,277,297.5z"/>
	<path class="st11" d="M285,307.3c-0.6,0-1.1,0.1-1.7,0.1c-2.3,0.3-4.7,0.7-7.9,1.1c0.5,2.5,1.1,5.1,1.6,7.6c-3.2,1.9-2.7-1-2.8-2.4
		c-0.2-4.4-0.1-8.9-0.1-13.3C277.7,302.7,281.4,305,285,307.3z"/>
	<path class="st5" d="M195.2,215.2c-0.8-1-1.6-2.1-2.4-3.1c0.9-3.9,3.8-4.7,7.2-4.8C198.4,210,196.8,212.6,195.2,215.2z"/>
	<path class="st17" d="M184,55.6c0.2,1.3-0.1,2.9,0.6,3.8c5,6.4,10.2,12.7,15.3,19.1c3.9,6.9,8.7,13.5,11.4,20.9
		c3.8,10.5,7.1,21.5,8.4,32.5c1.1,9.5-0.6,19.5-1.9,29.1c-0.6,4.4-3.6,8.4-5.4,12.6c-0.8,1.8-2,3.5-2.5,5.4
		c-3.1,10.9-10.8,17.6-20.6,22.2c-11,5.1-22.8,6.8-34.7,7c-10.9,0.2-22,0-32.6-2.3c-8.7-1.8-16.9-6.6-25.2-10.5
		c-12.6-5.9-21.3-16.7-32.1-24.9c-1.8-1.4-3.7-2.7-5.5-4.1c-2-4.5-4.1-8.9-5.9-13.4c-0.6-1.5-0.4-3.3-0.5-5
		c0.2-4.7,0.5-9.4,0.5-14.1c0-2.8-0.5-5.6-0.8-8.4c0.2-1.3,0.4-2.5,0.5-2.7c2.8-0.5,5.1-0.9,7.4-1.4c0.7-4.8,1.4-9.5,2.1-14.3
		c0.2-1.3,0.4-2.7,0.6-4c0.3-2.7,0.5-5.4,0.8-8.1c0.9-13.5,2.2-26.9,11.9-37.6c1.2-1.3,2.3-2.8,3.5-4.2c2-1.1,3.9-2.2,5.9-3.3
		c0.7-0.1,1.3-0.1,2-0.2c6.4-0.2,12.9,0,19.3-0.7c2.5-0.3,5.5-1.8,7-3.7c1.6-2,2.5-3.6,5.4-3.3c0.7,0.1,1.5-1.3,2.3-2l0-0.1
		c1.7-0.5,3.4-1,5.2-1.5c4.5,1,9,1.9,13.6,2.8c6,5.5,12.1,11,18,16.4c5.5-3.4,5.9-5,3.3-10.1c-0.5-1-0.7-2.1-1.1-3.2
		c2.7,0.6,5.4,1.1,8.1,1.7c2,0.6,4,1.2,6,1.8c2,0.8,4,1.6,6,2.3C181.4,52.2,182.7,53.9,184,55.6z M182.2,149.2
		c-1.6-3-2.7-6.7-5.1-8.7c-1.5-1.2-5.4-0.5-7.7,0.6c-2.1,0.9-3.5,3.4-5.1,5.3c-2.3,2.7-4.1,5.8-6.7,8.1c-4.4,4.1-6.4,10.1-4,13.6
		c2.9,4.4,8.4,5.5,14.3,2.7C176.7,166.7,181.1,159.7,182.2,149.2z M155.8,116.8c0.2,0.8,0.4,1.6,0.7,2.5c2.8-0.5,5.6-0.7,8.3-1.6
		c3-1,6.8-2,8.3-4.2c2.4-3.8,3.3-8.6,4.6-13c0.2-0.8-0.8-1.9-1.2-2.8c-0.8,0.7-2,1.2-2.3,2c-1,2.8-1.8,5.7-2.5,8.6
		c-0.9,3.3-2.5,5.3-6.3,5.8C162,114.4,158.9,115.8,155.8,116.8z M109.3,168.3c0,0.4,0.1,0.8,0.1,1.2c1,0.3,2,0.7,3,0.7
		c10.1-0.2,13.9-3.7,15.3-14.9c0.3-2.4-0.2-5-0.3-7.5c-1.2,2.4-2.9,4.8-3.4,7.4c-1.1,6.3-3.4,11-10.6,11.6
		C112.1,167,110.7,167.8,109.3,168.3z M88,163.4c5.2-7.9,9.6-14.8,14.5-22.3C95.7,142.5,87,155.6,88,163.4z M157.7,87.8
		c-4.8-2.8-9.9-0.3-15.6,6.2c-3.5,4.1-4.1,6.5-1.6,9.6C143.4,95.5,149.5,91.1,157.7,87.8z"/>
	<path class="st18" d="M120.9,40.4c-0.8,0.7-1.6,2.1-2.3,2c-2.8-0.3-3.8,1.3-5.4,3.3c-1.5,1.9-4.5,3.5-7,3.7
		c-6.4,0.7-12.9,0.5-19.3,0.7c0.7-1.4,1.4-2.9,2.5-5.1c-2.9-0.4-5.3-0.7-7.8-1c-0.1-0.4-0.2-0.7-0.3-1.1c1.5-0.5,3.1-1.4,4.6-1.4
		c10.8-0.3,21.6-0.4,32.5-0.7C119.3,40.9,120.1,40.6,120.9,40.4z"/>
	<path class="st18" d="M159.9,44.7c0.3,1.1,0.6,2.2,1.1,3.2c2.6,5.1,2.1,6.7-3.3,10.1c-5.9-5.4-12-10.9-18-16.4
		C146.9,39.7,153.5,41.7,159.9,44.7z"/>
	<path class="st6" d="M62.3,107.4c-0.7,4.8-1.4,9.5-2.1,14.3c-4.7,0.1-6.4-3-7.1-7c0-0.8,0.1-1.6,0.1-2.5c4,2.7,6.3,1.9,7.8-2.8
		C61.3,108.6,61.9,108,62.3,107.4z"/>
	<path class="st17" d="M52.8,148.1c0.2,1.7-0.1,3.5,0.5,5c1.8,4.5,3.9,9,5.9,13.4c-0.8,0.3-1.5,0.5-2.3,0.8
		c-2.6-4.6-5.3-9.2-7.9-13.8l-0.2-0.1c-0.3-0.3-0.5-0.7-0.8-1c-0.1-1.3-0.1-2.6-0.2-4.3C49.5,148.1,51.1,148.1,52.8,148.1z"/>
	<path class="st6" d="M50.2,92.8c1.2,5.7,2.4,11.3,3.6,17.2c-3.7-0.8-6.4-10.9-5-16.9C49.2,93,49.7,92.9,50.2,92.8z"/>
	<path class="st19" d="M53.1,114.6c0.7,4,2.4,7.1,7.1,7c-2.3,0.4-4.5,0.8-7.3,1.4c0,0.2-0.3,1.4-0.5,2.7
		C50,121.8,50.8,118.2,53.1,114.6z"/>
	<path class="st0" d="M184,55.6c-1.3-1.7-2.6-3.4-3.9-5.1c2,1.6,4.1,3.3,6.1,4.9C185.4,55.5,184.7,55.6,184,55.6z"/>
	<path class="st6" d="M63.7,95.4c-0.3,2.7-0.5,5.4-0.8,8.1C59.8,100.4,62.4,97.9,63.7,95.4z"/>
	<path class="st18" d="M85,50.3c-2,1.1-3.9,2.2-5.9,3.3C79.2,49.2,82.3,50.1,85,50.3z"/>
	<path class="st18" d="M174.1,48.2c-2-0.6-4-1.2-6-1.8C170.1,47,172.1,47.6,174.1,48.2z"/>
	<path class="st18" d="M126.1,38.8c-1.7,0.5-3.4,1-5.2,1.5C122.7,39.8,124.4,39.3,126.1,38.8z"/>
	<path class="st6" d="M48,152.5c0.3,0.3,0.5,0.7,0.8,1C48.6,153.2,48.3,152.8,48,152.5z"/>
	<path class="st17" d="M192,257.4c2.3,4.1,4.5,8.4,6.9,12.4c4.6,7.6,9.4,15.1,14.1,22.6c1.9,3,3.9,6,5.9,8.9
		c-5.7,2.7-11.3,5.8-17.2,7.9c-11.4,3.9-23.2,5.5-35.2,3.3c-1.5-0.3-3-0.1-4.5-0.2c0.9-1.4,1.6-2.8,2.6-4c4.4-5.3,4.9-12.6,0.8-17.9
		c-4.7-6.1-10.8-10.3-18.4-11.9c-8.8-1.9-17.7,4.2-18.8,13c-0.3,2.5,0.5,5.2,0.8,7.8c-4.2-4.6-9.1-8.7-12.3-13.9
		c-5.1-8.3-10-16.9-13.3-26c-4.4-12-5.7-24.7-3.5-37.6c0.2-1.5,0.1-3,0.2-4.5c10.4,2.3,20.7,5,31.2,6.6c3.7,0.6,7.8-1.6,11.7-2.5
		c0.7,14,6.7,25.5,17.9,33.5c8.1,5.8,17.6,7.4,27.4,3.3C189.4,257.9,190.8,257.7,192,257.4z"/>
	<path class="st17" d="M96.2,216.4c-1.7,11.9-1.6,23.9,1,35.6c1.2,5.5,2.7,11,5.1,16.1c5.2,11.1,10.2,22.4,19.3,31.2
		c9.1,8.8,19.8,14.5,32.4,16.1c9,1.2,18.1,2,27.1,2.9c2.3,5.4,4.7,10.7,7,16c-18.9,5.7-37.9,7-57,1c1-4.1,3.2-8.3,2.8-12.2
		c-1.4-11.9-8.4-20-19.8-23.9c-11-3.8-17.9,0-20.9,11.2c-4.8-7.6-10.4-14.9-14.3-23c-7.7-16.2-8.4-33.7-5.5-51c0.8-5,5-9.4,7.7-14.1
		C86,220.4,91.1,218.4,96.2,216.4z"/>
	<path class="st5" d="M93,310.5c3.1-11.2,10-15,20.9-11.2c11.4,3.9,18.4,12,19.8,23.9c0.4,3.9-1.8,8.1-2.8,12.2
		C115.3,331.8,103.6,322,93,310.5z"/>
	<path class="st5" d="M188,334.4c-2.3-5.4-4.7-10.7-7-16c2.7-0.3,5.4-0.6,8.1-1c3.3,4.3,6.6,8.7,9.9,13
		C195.4,331.8,191.7,333.1,188,334.4z"/>
	<path class="st20" d="M291.9,342.9c3.8-4.2,7.5-8.6,11.2-12.8c-1.5-1.6-3.9-2.7-7-2.8c-10.2-0.5-17.7,3.8-21.2,12.2
		c3.5,2.6,7,5.2,10.5,7.8C287.6,345.8,289.8,344.3,291.9,342.9z"/>
	<path class="st9" d="M296.1,327.2c3.1,0.1,5.5,1.2,7,2.8c0.6-0.7,1.3-1.4,1.9-2.2c-1.3-1.3-2.9-2.2-4.9-2.8
		c-10.2-3.1-23,2.6-27.4,12.4c0.7,0.7,1.5,1.4,2.2,2C278.4,331.1,285.9,326.8,296.1,327.2z"/>
	<path class="st1" d="M194,316.5c3.7-1,7.4-2,11.1-3c3.8,3.4,7.5,6.8,11.3,10.2c-3.3,3.1-6.6,6.2-10.2,9.5
		C202,327.5,198,322,194,316.5z"/>
	<path class="st20" d="M228.5,298.4c0.9-1.1,1.8-2.1,2.7-3.2c4.6,4.1,9.3,8.1,13.9,12.2c-3,3.7-5.5,6.9-8.1,10c-3-1-6-2.1-8.9-3.1
		c2.3-3.3,4.7-6.6,7-9.9c-1-0.7-2-1.3-2.9-2c-0.7-0.3-1.4-0.6-2.1-0.9c-0.1-0.4-0.2-0.8-0.3-1.3C229.4,299.6,228.9,299,228.5,298.4z
		"/>
	<path class="st21" d="M236.9,317.4c2.6-3.2,5.1-6.3,8.1-10c-4.6-4-9.2-8.1-13.9-12.2c0.6-0.6,1.3-1.2,1.9-1.8
		c4.5,4.1,9.2,8.1,13.5,12.4c0.8,0.8,0.6,3.3,0,4.5c-1.9,3.2-4.3,6.1-6.5,9.1C239,318.7,238,318.1,236.9,317.4z"/>
	<path class="st12" d="M207.5,312.4c1.5-0.6,3-1.3,4.5-1.9c1.3,0.3,2.7,0.7,4,1c0.4,0.7,0.7,1.4,1.1,2c0.3,0.3,0.6,0.6,1,1
		c0.7,0.3,1.4,0.7,2,1c0.4,0.3,0.7,0.7,1.1,1c0.1,1.1,0.3,2.2,0.4,3.3c-1.4,1-2.8,2-4.2,3C214,319.2,210.7,315.8,207.5,312.4z"/>
	<path class="st15" d="M221.5,319.7c-0.1-1.1-0.3-2.2-0.4-3.3c1.6-1.4,3.1-2.9,4.7-4.3c3.1-2.6,6.1-5.2,9.2-7.8
		c-2.3,3.3-4.7,6.6-7,9.9C225.8,316.1,223.6,317.9,221.5,319.7z"/>
	<path class="st16" d="M207.5,312.4c3.3,3.4,6.5,6.9,9.8,10.3c-0.3,0.3-0.6,0.6-0.9,1c-3.8-3.4-7.5-6.8-11.3-10.2
		C205.9,313.1,206.7,312.7,207.5,312.4z"/>
	<path class="st13" d="M339,206.4c0,0.6-0.1,1.3-0.1,1.9l0,0.1c-0.4,0-0.8,0-1.2,0.1l-0.4,0c-2.4,1-4.9,1.8-7.2,3
		c-2.6,1.4-4.4,1-5.9-1.4c-5.9-9.4-11.7-18.8-17.6-28.1c-2-3.1-1.6-5.1,1.7-6.7c1.6-0.8,2.9-2.5,4.6-2.9c1.8-0.4,4.9-0.4,5.6,0.6
		C325.6,184,332.2,195.3,339,206.4z"/>
	<path class="st12" d="M313.9,166.5c-1,5.7-6.7,5.8-9.8,8.9c-0.4-0.2-0.7-0.4-1.1-0.7c0.6-3.3,1.2-6.6,1.7-9.4
		C308.3,165.8,311.1,166.2,313.9,166.5L313.9,166.5z"/>
	<path class="st22" d="M337.4,208.5l0.4,0c0.4,0,0.8,0,1.2-0.1l0-0.1c2.5,0.3,3,1.9,1.1,3.2c-3.5,2.3-7.4,4-11.1,5.9
		c2-2.3,4-4.6,6-6.9C335.7,209.8,336.6,209.2,337.4,208.5z"/>
	<path class="st22" d="M333,250.4c1.2,4.5,2.4,9.1,3.7,13.6c0.8,2.6,1.7,5.2,2.8,7.6c0.5,1.1,1.7,1.9,2.6,2.8c0.3,1,0.6,2,0.9,3
		c0.3,0.3,0.7,0.7,1,1c-0.1,0.6-0.2,1.1-0.3,1.7c-0.5,0.8-1,1.5-1.6,2.2c-0.7-0.3-1.4-0.7-2.1-1c-1.8,0-3.7-0.1-5.5,0.1
		c-2,0.3-4,1.1-5.9,1.6c-0.1-0.4-0.2-0.7-0.3-1.1c3.2-1.5,6.4-2.9,9.5-4.4c-0.2-0.5-0.4-1-0.6-1.5c-6.4,2.1-12.7,4.2-19.1,6.3
		c0-0.7,0-1.4-0.1-2.1c6.2-2.2,12.5-4.4,18.7-6.6c-0.2-0.5-0.3-1-0.5-1.6c-6.1,1.8-12.1,3.5-18.2,5.3c0-0.6,0-1.2-0.1-1.8
		c5.6-2,11.3-4,16.9-5.9c-0.2-0.5-0.4-1.1-0.5-1.6c-6.1,1.8-12.2,3.6-18.3,5.4c0-0.6-0.1-1.2-0.1-1.8c6.2-2.2,12.3-4.3,18.5-6.5
		c-0.2-0.5-0.4-1.1-0.5-1.6c-5.9,1.7-11.8,3.4-17.8,5c0-0.4-0.1-0.8-0.1-1.3c5.6-2.1,11.2-4.3,16.8-6.4c-0.2-0.5-0.4-1-0.6-1.5
		c-6.4,2-12.7,4-19.1,6c0-0.6-0.1-1.3-0.1-1.9c6-2.1,12-4.3,18-6.4c-0.2-0.6-0.4-1.2-0.6-1.7c-6.4,2-12.9,4-19.3,6.1
		c0-0.6-0.1-1.3-0.1-2c5.1-1.7,10.2-3.3,15.2-5.2c1.4-0.6,2.5-2,3.8-3c0.4-0.3,0.8-0.6,1.1-1C331.8,250.4,332.4,250.4,333,250.4
		L333,250.4z"/>
	<path class="st10" d="M341,247.4c5.9-2.1,11.8-4.3,17.8-6.3c0.5-0.2,1.4,0.9,2,1.4c0.1,1.6,0.2,3.3,0.3,4.9c0,0.5,0,1,0,1.4
		c2.1-0.3,3.7-0.2,1.9,2.5c0,0.6,0,1.3,0,1.9c0.5,0.5,1.1,0.9,1.6,1.4c-0.9,0.6-1.7,1.2-2.6,1.8v1.2c1.1-0.1,2.3-0.1,4.4-0.2
		c-1.2,1.4-1.8,2.1-2.5,2.9c0,0.5,0,1,0.1,1.5c1.3,0.5,2.6,0.9,3.9,1.4c0.4,1,0.8,1.9,1.1,2.9c-0.4,0.7-0.7,1.5-1.1,2.2
		c0.3,0.6,0.7,1.2,1,1.8c-0.2,0.8-0.1,2.2-0.5,2.4c-5.5,2.1-11.1,4-16.4,5.8c-0.9-1.9-1.6-3.4-2.4-4.9c-0.6,0.3-1.2,0.6-1.8,1
		c-0.3,1.3-0.5,2.6-0.8,3.9c0.6,1,1.2,2,1.8,3c0.7,0.4,1.4,0.8,2.2,1.1c3.7-1.2,7.4-2.4,11-3.5c3.8-3.7,7.6-7.5,11.2-11.3
		c-0.8-2.7-1.6-5.5-2.4-8.2c-2-6-4-12-6.1-18c-1.4-4.8-4.2-6-8.7-3.7c-1.6,0.8-3.5,1-5.2,1.5c-5,1.8-9.9,3.6-15.6,5.7
		c1.7,1.2,2.6,1.8,3.5,2.4C339.5,247.5,340.3,247.4,341,247.4z"/>
	<path class="st16" d="M347.1,278.4c0.6,1,1.2,2,1.8,3c-0.4,0-0.8,0-1.1-0.1c-1.4-0.4-2.8-0.8-4.2-1.2c0.1-0.6,0.2-1.1,0.3-1.7
		c-0.3-0.3-0.7-0.7-1-1c-0.3-1-0.6-2-0.9-3c0.7-0.4,1.4-0.7,2.1-1.1c0.3,0.3,0.7,0.6,1,0.9C345.8,275.6,346.5,277,347.1,278.4z"/>
	<path class="st23" d="M347.8,281.4c0.4,0,0.8,0,1.1,0.1c0.7,0.4,1.4,0.8,2.2,1.1C350,282.2,348.9,281.8,347.8,281.4z"/>
	<path class="st15" d="M318.1,282.6c6.4-2.1,12.7-4.2,19.1-6.3c0.2,0.5,0.4,1,0.6,1.5c-3.2,1.5-6.4,2.9-9.5,4.4
		c0.1,0.4,0.2,0.7,0.3,1.1c2-0.5,3.9-1.3,5.9-1.6c1.8-0.3,3.7-0.1,5.5-0.1c-6.4,2.5-12.8,5.1-19.1,7.6c-0.3-0.6-0.6-1.2-0.9-1.8
		c1.2-0.9,2.5-1.9,3.7-2.8C321.8,283.9,320,283.2,318.1,282.6z"/>
	<path class="st15" d="M330,251.4c-1.3,1-2.4,2.5-3.8,3c-5,1.9-10.1,3.5-15.2,5.2c0.1-0.9,0-2.5,0.4-2.6
		C317.5,255,323.8,253.2,330,251.4z"/>
	<path class="st15" d="M316.2,268.7c5.9-1.7,11.8-3.4,17.8-5c0.2,0.5,0.4,1.1,0.5,1.6c-6.2,2.2-12.3,4.3-18.5,6.5
		C316,270.8,316.1,269.7,316.2,268.7z"/>
	<path class="st15" d="M311.1,261.5c6.4-2,12.9-4,19.3-6.1c0.2,0.6,0.4,1.2,0.6,1.7c-6,2.1-12,4.3-18,6.4
		C312.4,262.9,311.7,262.2,311.1,261.5z"/>
	<path class="st15" d="M318,277.5c6.1-1.8,12.1-3.5,18.2-5.3c0.2,0.5,0.3,1,0.5,1.6c-6.2,2.2-12.5,4.4-18.7,6.6
		C318,279.5,318,278.5,318,277.5z"/>
	<path class="st15" d="M313.1,265.5c6.4-2,12.7-4,19.1-6c0.2,0.5,0.4,1,0.6,1.5c-5.6,2.1-11.2,4.3-16.8,6.4
		C315,266.8,314,266.2,313.1,265.5z"/>
	<path class="st15" d="M316.1,273.5c6.1-1.8,12.2-3.6,18.3-5.4c0.2,0.5,0.4,1.1,0.5,1.6c-5.6,2-11.3,4-16.9,5.9
		C317.3,275,316.7,274.3,316.1,273.5z"/>
	<path class="st21" d="M406.3,235.6c0.7-0.6,1.5-1.3,2.2-1.9c-1.1-0.8-2.4-1.5-2.9-2.6c-2-4.7-4.3-2.7-6.6-0.5c0,0.6,0,1.1,0,1.7
		c0.6,0.3,1.1,0.7,1.8,0.9C403.3,233.9,405.1,234.7,406.3,235.6z"/>
	<path class="st20" d="M252,218.7c-3.8,7.5-7.4,15.2-11.4,22.5c-4.7,8.6-4.9,8.5-13.6,3.7c-4.2-2.3-8.4-4.7-12.5-7.1
		c-0.7-0.4-1-1.5-1.5-2.3c0.4-1.7,0.7-3.3,1-5l0,0c0.3-0.3,0.7-0.7,1-1l0,0c1.8-2.2,4.1-4.3,5.5-6.7c3.9-6.9,7.7-13.9,11.2-21
		c2-4.1,4.2-5.6,8.3-2.4c2,1.6,4.5,2.6,7.1,4c-1.7,3.6-3.4,7-5.4,11.3C245.4,216,248.7,217.3,252,218.7z"/>
	<path class="st22" d="M209,235.4c-5.2-2.8-5.2-2.9-1-9c2.3,0.7,4.5,1.3,6.8,2c0.1,0.4,0.2,0.7,0.3,1.1l0,0c-0.3,0.3-0.7,0.7-1,1
		l0,0c-0.8,1.6-1.7,3.1-2.5,4.7C210.7,235.2,209.9,235.3,209,235.4z"/>
	<path class="st22" d="M224.2,198.5c-0.4,0-0.8,0-1.2-0.1c2-5.9,3.5-7,7.1-4.8c0.7,0.4,1.6,2,1.4,2.5c-0.4,0.8-1.6,1.3-2.6,1.6
		C227.4,198.2,225.8,198.3,224.2,198.5z"/>
	<path class="st12" d="M248.2,206.8c1.3,3.1,2.5,6.3,3.8,9.4C245.1,214.4,245.1,214.4,248.2,206.8z"/>
	<path class="st9" d="M211.5,235.2c0.8-1.6,1.7-3.1,2.5-4.7c-0.4,1.7-0.7,3.3-1,5C212.5,235.3,212,235.3,211.5,235.2z"/>
	<path class="st23" d="M345.2,274.2c-0.3-0.3-0.7-0.6-1-0.9c0.1-2.5,1-7,0.2-7.3c-3.5-1.3-1-4-2-5.8c-1.7-3.1-3.2-6.3-4.5-9.6
		c-0.3-0.8,0.6-2.1,0.9-3.2c0.7,0,1.4-0.1,2.1-0.1c1.5,0.1,3.1,0.7,4.4,0.3c4.7-1.3,9.3-2.9,13.9-4.4c-1.2,1.2-2.3,3-3.8,3.6
		c-3.9,1.7-8.1,2.9-12.1,4.2c0.2,0.5,0.4,1,0.5,1.5c5.7-1.8,11.4-3.5,17.1-5.3c0,0.5,0,1,0,1.4c-5.6,2.3-11.3,4.6-16.9,6.9
		c0.1,0.4,0.3,0.8,0.4,1.1c6.1-1.9,12.3-3.7,18.4-5.6c0,0.6,0,1.3,0,1.9c-5.9,2.2-11.8,4.4-17.7,6.5c0.2,0.5,0.4,1,0.5,1.4
		c5.4-1.6,10.8-3.2,16.2-4.8c0,0.4,0,0.8,0,1.2c-5,2.1-9.9,4.3-14.8,6.4c0.2,0.4,0.3,0.9,0.5,1.3c5.4-1.7,10.9-3.4,16.3-5
		c0,0.5,0,1,0.1,1.5c-5.2,2.1-10.4,4.3-15.6,6.5c0.2,0.4,0.3,0.8,0.5,1.2c6.3-2.1,12.6-4.2,19-6.3c0.4,1,0.8,1.9,1.1,2.9
		c-6.5,2.4-12.9,4.8-19.4,7.3c-0.6,0.3-1.2,0.6-1.8,1C347,274.4,346.1,274.3,345.2,274.2z"/>
	<path class="st22" d="M333,250.5c0.1-0.1,0.2-0.3,0.2-0.4C333.2,250.2,333.1,250.3,333,250.5C333,250.4,333,250.5,333,250.5z"/>
	<path class="st1" d="M302.8,281.7c-0.2,2.6,0.1,4.8-0.7,6.6c-0.2,0.5-3.3,0.1-4.9-0.4c-0.6-0.2-0.8-1.9-1.2-2.9
		c0.8-0.3,1.7-0.5,2.5-0.9C299.6,283.6,300.7,282.9,302.8,281.7z"/>
	<path class="st12" d="M305.3,219.3c-2.8,0.1-6.1,1.1-7.3-2.9c-0.3-1,1.1-2.4,1.7-3.6c2.2,1.6,4.4,3.2,6.6,4.7
		C306,218.1,305.7,218.7,305.3,219.3z"/>
	<path class="st7" d="M277,316.2c-0.5-2.5-1.1-5-1.6-7.6c3.2-0.5,5.5-0.8,7.9-1.1c-1,2.9,2.1,6.7-2.2,8.8c-0.7,0-1.3,0-2,0
		C278.4,316.2,277.7,316.2,277,316.2z"/>
	<path class="st11" d="M279,316.2c0.7,0,1.3,0,2,0C280.4,316.2,279.7,316.2,279,316.2z"/>
	<path class="st5" d="M129,299.5c-0.3-2.6-1.1-5.3-0.8-7.8c1.1-8.8,10-14.9,18.8-13c7.6,1.6,13.7,5.8,18.4,11.9
		c4.1,5.3,3.6,12.6-0.8,17.9c-1,1.2-1.7,2.7-2.6,4c-10.7-2.1-21.3-4.4-30.5-10.7C130.7,301,129.9,300.2,129,299.5z"/>
	<path class="st24" d="M228.5,298.4c0.4,0.6,0.9,1.2,1.3,1.9c-2.9,2.7-5.8,5.5-8.8,8.2c0-1.1,0.1-2.2,0.1-3.3
		C223.6,302.9,226,300.7,228.5,298.4z"/>
	<path class="st25" d="M221.1,305.2c0,1.1-0.1,2.2-0.1,3.3l0,0c-0.3,0.3-0.7,0.7-1,1l0,0c-0.3,0.3-0.7,0.7-1,1l0,0
		c-0.3,0.3-0.7,0.7-1,1l0,0c-0.7,0-1.4,0-2.1,0c-1.3-0.3-2.7-0.7-4-1C215,308.7,218.1,306.9,221.1,305.2z"/>
	<path class="st26" d="M182.2,149.2c-1.1,10.4-5.5,17.5-14.3,21.7c-5.8,2.8-11.4,1.6-14.3-2.7c-2.4-3.6-0.4-9.5,4-13.6
		c2.5-2.4,4.4-5.4,6.7-8.1c1.6-1.9,3-4.4,5.1-5.3c2.3-1,6.2-1.8,7.7-0.6C179.6,142.5,180.6,146.3,182.2,149.2z M178.2,150.1
		c-1.3-2.2-2.6-4.4-4-6.6c-2.2,1.6-4.4,3-6.4,4.7c-0.7,0.6-1.1,1.7-1.4,2.6c-1,2.8-2.1,4.9-5.4,6.3c-2.3,0.9-4.6,5.8-4.1,8.4
		c0.7,3.9,5,3.5,8.4,2.5C172.1,165.9,177,158.7,178.2,150.1z"/>
	<path class="st3" d="M155.8,116.8c3.1-1,6.2-2.4,9.4-2.8c3.8-0.5,5.4-2.5,6.3-5.8c0.8-2.9,1.5-5.8,2.5-8.6c0.3-0.8,1.5-1.4,2.3-2
		c0.4,0.9,1.4,2.1,1.2,2.8c-1.3,4.4-2.2,9.2-4.6,13c-1.4,2.3-5.3,3.2-8.3,4.2c-2.6,0.9-5.5,1.1-8.3,1.6
		C156.2,118.4,156,117.6,155.8,116.8z"/>
	<path class="st3" d="M109.3,168.3c1.4-0.5,2.8-1.3,4.3-1.4c7.2-0.6,9.5-5.3,10.6-11.6c0.4-2.6,2.2-4.9,3.4-7.4
		c0.1,2.5,0.6,5.1,0.3,7.5c-1.5,11.2-5.2,14.7-15.3,14.9c-1,0-2-0.5-3-0.7C109.4,169.1,109.3,168.7,109.3,168.3z"/>
	<path class="st19" d="M88,163.4c-1-7.8,7.6-20.8,14.5-22.3C97.7,148.6,93.2,155.4,88,163.4z"/>
	<path class="st19" d="M157.7,87.8c-8.1,3.3-14.2,7.8-17.2,15.8c-2.5-3.1-1.9-5.5,1.6-9.6C147.7,87.4,152.9,85,157.7,87.8z"/>
	<path class="st25" d="M235.1,304.4c-3.1,2.6-6.2,5.2-9.2,7.8c-1.6,1.4-3.2,2.8-4.7,4.3c-0.4-0.3-0.7-0.7-1.1-1c0-0.7,0-1.3,0-2l0,0
		c0.3-0.3,0.7-0.7,1-1l0,0c0.3-0.3,0.7-0.7,1-1l0,0c0.3-0.3,0.7-0.7,1-1l0,0c0.3-0.3,0.7-0.7,1-1l0,0c1.3-1.3,2.7-2.7,4-4l0,0
		c0.7-0.7,1.3-1.3,2-2l0,0c0.7-0.3,1.4-0.7,2.1-1C233.1,303.1,234.1,303.7,235.1,304.4z"/>
	<path class="st25" d="M221,308.4c2.9-2.7,5.9-5.5,8.8-8.2c0.1,0.4,0.2,0.8,0.3,1.3c0,0.6,0,1.3,0,1.9l0,0c-0.7,0.7-1.3,1.3-2,2l0,0
		c-1.3,1.3-2.7,2.7-4,4l0,0c-0.3,0.3-0.7,0.7-1,1l0,0c-0.3,0.3-0.7,0.7-1,1l0,0c-0.3,0.3-0.7,0.7-1,1l0,0c-0.3,0.3-0.7,0.7-1,1l0,0
		c-0.7,0.3-1.4,0.7-2,1c-0.3-0.3-0.6-0.6-1-1c0.3-0.7,0.7-1.4,1-2l0,0c0.3-0.3,0.7-0.7,1-1l0,0c0.3-0.3,0.7-0.7,1-1l0,0
		C220.4,309.1,220.7,308.8,221,308.4C221,308.4,221,308.4,221,308.4z"/>
	<path class="st11" d="M230,303.4c0-0.6,0-1.3,0-1.9c0.7,0.3,1.4,0.6,2.1,0.9C231.4,302.8,230.7,303.1,230,303.4z"/>
	<path class="st11" d="M218,314.4c0.7-0.3,1.4-0.7,2-1c0,0.7,0,1.3,0,2C219.4,315.1,218.7,314.8,218,314.4z"/>
	<path class="st24" d="M218,311.4c-0.3,0.7-0.7,1.4-1,2c-0.4-0.7-0.7-1.4-1.1-2C216.7,311.4,217.4,311.4,218,311.4z"/>
	<path class="st9" d="M339,208.4c-0.4,0-0.8,0-1.2,0.1C338.1,208.4,338.5,208.4,339,208.4z"/>
	<path class="st9" d="M343,277.5c0.3,0.3,0.7,0.7,1,1C343.6,278.1,343.3,277.8,343,277.5z"/>
	<path class="st15" d="M349.7,273.5c6.5-2.4,12.9-4.8,19.4-7.3c-0.4,0.7-0.7,1.5-1.1,2.2c-4.4,1.3-8.8,2.6-13.2,4
		c0.2,0.6,0.4,1.2,0.6,1.9c4.5-1.4,9-2.7,13.5-4c-0.2,0.8-0.1,2.2-0.5,2.4c-5.5,2.1-11.1,4-16.4,5.8
		C351.1,276.5,350.4,275,349.7,273.5z M353.3,273.6c-0.3,0.1-0.5,0.3-0.8,0.4c0.1,0.1,0.3,0.4,0.3,0.4c0.3-0.1,0.5-0.3,0.8-0.4
		C353.5,273.9,353.4,273.7,353.3,273.6z"/>
	<path class="st15" d="M359.3,243.3c-4.6,1.5-9.2,3.1-13.9,4.4c-1.3,0.4-2.9-0.2-4.4-0.3c5.9-2.1,11.8-4.3,17.8-6.3
		c0.5-0.2,1.4,0.9,2,1.4C360.3,242.8,359.8,243.1,359.3,243.3z"/>
	<path class="st15" d="M364,260.4c-5.4,1.7-10.9,3.4-16.3,5c-0.2-0.4-0.3-0.9-0.5-1.3c5-2.1,9.9-4.3,14.8-6.4c1.1,0,2.3-0.1,4.4-0.2
		C365.3,259,364.6,259.7,364,260.4z"/>
	<path class="st15" d="M362,256.5c-5.4,1.6-10.8,3.2-16.2,4.8c-0.2-0.5-0.4-1-0.5-1.4c5.9-2.2,11.8-4.4,17.7-6.5
		c0.5,0.5,1.1,0.9,1.6,1.4C363.8,255.3,362.9,255.9,362,256.5z"/>
	<path class="st9" d="M363,251.4c-6.1,1.9-12.3,3.7-18.4,5.6c-0.1-0.4-0.3-0.8-0.4-1.1c5.6-2.3,11.3-4.6,16.9-6.9
		C363.2,248.6,364.7,248.7,363,251.4z"/>
	<path class="st11" d="M367.9,263.3c-6.3,2.1-12.6,4.2-19,6.3c-0.2-0.4-0.3-0.8-0.5-1.2c5.2-2.2,10.4-4.3,15.6-6.5
		C365.4,262.4,366.6,262.9,367.9,263.3z"/>
	<path class="st9" d="M359.3,243.3c0.5-0.3,1-0.6,1.5-0.8c0.1,1.6,0.2,3.3,0.2,4.9c-5.7,1.8-11.4,3.5-17.1,5.3
		c-0.2-0.5-0.4-1-0.5-1.5c4.1-1.4,8.2-2.6,12.1-4.2C357,246.3,358,244.6,359.3,243.3z"/>
	<path class="st23" d="M369,270.2c-4.5,1.4-9,2.7-13.5,4c-0.2-0.6-0.4-1.2-0.6-1.9c4.4-1.3,8.8-2.6,13.2-4
		C368.3,269,368.7,269.6,369,270.2z"/>
	<path class="st9" d="M345.2,274.2c0.9,0.1,1.8,0.1,2.8,0.2c-0.3,1.3-0.5,2.6-0.8,3.9C346.5,277,345.8,275.6,345.2,274.2z"/>
	<path class="st9" d="M214,230.5c0.3-0.3,0.7-0.7,1-1C214.7,229.8,214.4,230.1,214,230.5z"/>
	<path class="st24" d="M221,308.4c-0.3,0.3-0.7,0.7-1,1C220.4,309.1,220.7,308.8,221,308.4z"/>
	<path class="st24" d="M220,309.4c-0.3,0.3-0.7,0.7-1,1C219.4,310.1,219.7,309.8,220,309.4z"/>
	<path class="st24" d="M219,310.4c-0.3,0.3-0.7,0.7-1,1C218.4,311.1,218.7,310.8,219,310.4z"/>
	<path class="st17" d="M178.2,150.1c-1.2,8.6-6.1,15.8-13,17.9c-3.4,1-7.6,1.5-8.4-2.5c-0.5-2.6,1.8-7.4,4.1-8.4
		c3.4-1.4,4.4-3.5,5.4-6.3c0.3-0.9,0.7-2,1.4-2.6c2-1.7,4.3-3.2,6.4-4.7C175.5,145.7,176.9,147.9,178.2,150.1z"/>
	<path class="st11" d="M224,309.4c1.3-1.3,2.7-2.7,4-4C226.7,306.8,225.4,308.1,224,309.4z"/>
	<path class="st11" d="M228,305.4c0.7-0.7,1.3-1.3,2-2C229.4,304.1,228.7,304.8,228,305.4z"/>
	<path class="st11" d="M223,310.4c0.3-0.3,0.7-0.7,1-1C223.7,309.8,223.4,310.1,223,310.4z"/>
	<path class="st11" d="M222,311.4c0.3-0.3,0.7-0.7,1-1C222.7,310.8,222.4,311.1,222,311.4z"/>
	<path class="st11" d="M221,312.4c0.3-0.3,0.7-0.7,1-1C221.7,311.8,221.4,312.1,221,312.4z"/>
	<path class="st11" d="M220,313.4c0.3-0.3,0.7-0.7,1-1C220.7,312.8,220.4,313.1,220,313.4z"/>
	<path class="st10" d="M353.3,273.6c0.1,0.1,0.2,0.2,0.3,0.4c-0.3,0.1-0.5,0.3-0.8,0.4c-0.1,0-0.2-0.2-0.3-0.4
		C352.8,273.9,353.1,273.7,353.3,273.6z"/>
</g>
</svg>
