<?xml version="1.0" encoding="utf-8"?>
<!-- Generator: Adobe Illustrator 23.0.3, SVG Export Plug-In . SVG Version: 6.00 Build 0)  -->
<svg version="1.1" id="Ebene_1" xmlns="http://www.w3.org/2000/svg" xmlns:xlink="http://www.w3.org/1999/xlink" x="0px" y="0px"
	 viewBox="0 0 395.23 351.87" style="enable-background:new 0 0 395.23 351.87;" xml:space="preserve">
<style type="text/css">
	.st0{fill:#FAE0E0;}
	.st1{fill:#2D2B3E;}
	.st2{fill:#B44644;}
	.st3{fill:#F5A46A;}
	.st4{fill:#F8B381;}
	.st5{fill:#333244;}
	.st6{fill:#424152;}
	.st7{fill:#525060;}
	.st8{fill:#C1AAB6;}
	.st9{fill:#BB98A4;}
	.st10{fill:#BDA5B3;}
	.st11{fill:#F3EEF1;}
	.st12{fill:#F8F4F6;}
	.st13{fill:#EFDEDE;}
	.st14{fill:#C8B6C2;}
	.st15{fill:#C1AEBB;}
	.st16{fill:#AD92A3;}
	.st17{fill:#F9C39E;}
	.st18{fill:#4F434D;}
	.st19{fill:#F5B8BA;}
	.st20{fill:#FAC6A0;}
	.st21{fill:#FCF9FA;}
	.st22{fill:#EBE4E8;}
	.st23{fill:#E77F35;}
	.st24{fill:#A66364;}
	.st25{fill:#8A677F;}
	.st26{fill:#B99FAD;}
	.st27{fill:#DFD4DB;}
</style>
<g>
	<path class="st0" d="M254.73,255.35c0.92-1.4,2.07-2.65,4.02-3.41c-4.71,13.88-14.04,25.24-20.87,38.11
		c6.6,3.23,12.97,6.36,19.34,9.48c0.02-6.83,0.17-13.66,0.01-20.49c-0.14-5.54,1.98-10.1,5.66-15.41c1.51,4.65,3.67,8.41,3.8,12.25
		c0.34,9.79-0.22,19.62-0.42,29.43c9.44,6.62,18.94,13.19,28.36,19.86c9.97-9.81,20.37-19.17,31.7-27.54
		c2.63-2.91,5.36-5.77,8.19-8.55c-10.43,3.53-20.86,7.07-31.27,10.63c-3,1.03-4.88,0.17-5.85-2.72
		c-4.32-12.9-8.61-25.81-13.28-39.84c9.89-3.26,19.53-6.44,29.18-9.62c6.29-1.88,12.59-3.76,18.88-5.64
		c4.02-1.67,7.91-4.03,12.09-4.83c4.38-0.85,3.55,3.42,4.07,6.06c2.33,6.7,4.66,13.4,6.99,20.09c0.76,2.09,1.52,4.18,2.28,6.27
		c6.24-6.2,12.79-12.04,19.91-17.12c-0.16-1.74-0.94-3.35-3.38-4.49c-0.83-0.38-0.37-6.79,0.53-7.06c3.87-1.19,3.01-4.33,3.18-6.49
		c0.56-7,0.32-7.02,7.05-7.06c-6.19-5.05-12.38-10.11-18.57-15.16c-1.16,2.36-1.97,5-3.6,6.97c-1.41,1.7-4.17,4.04-5.6,3.62
		c-3.21-0.96-8.21-0.03-8.81-5.45c-5.22-0.76-4.43-4.71-3.63-7.9c0.81-3.27,2.66-6.29,4.05-9.41
		c-14.33-11.25-29.32-21.39-46.61-27.65c3.45,5.98,6.87,11.98,10.35,17.94c3.9,6.69,7.85,13.36,11.78,20.04
		c3.97,3.45,3.88,4.57-0.33,7.14c-3.23,1.96-6.41,4.01-9.53,6.14c-2.95,2.01-4.85,1.83-5.33-2.14c-4.48-6.3-9.17-12.47-13.39-18.94
		c-3.76-5.77-7.01-11.88-10.44-17.86c-0.73-1.27-2-2.8-1.78-3.98c1.07-5.64-0.65-10.76-2.26-15.95c-12.14-1.81-24.24-4.05-36.44-5.3
		c-13.28-1.36-23.87,4.62-32.49,14.27c-11.33,12.69-20.93,26.62-28.84,41.69c-5.3,10.11-10.4,20.34-16.03,31.39
		c22.72,13.12,38.93,33.66,61.81,47.77C238.03,280.96,246.36,268.14,254.73,255.35z M267.67,244.51c-0.32,0.18-0.93-0.17-1.41-0.28
		c-0.46,3.82-2.92,3.89-5.81,3.06c-3.99-1.14-7.96-2.32-11.94-3.49c-0.1,3.4,0.1,6.86-0.45,10.2c-0.2,1.23-2.16,2.16-3.32,3.23
		c-0.79-1.14-2.34-2.34-2.26-3.41c0.52-7.03,1.17-14.07,2.38-21c0.2-1.13,3.4-1.73,5.21-2.58c1.06-1.31,1.87-3.01,3.22-3.83
		c2.99-1.82,13.85-0.02,16.37,2.39c0.12,0.11,0.24,0.23,0.35,0.35C272.6,232.13,271.04,242.58,267.67,244.51z M291.03,289.55
		c-1.23,4.67-4.36,7.35-8.56,7.33c-4.62-0.01-8.33-3.41-8.17-7.48c0.18-4.4,5.41-9.54,9.42-7.92
		C286.75,282.7,288.63,286.76,291.03,289.55z M225.03,178.53c0.28-0.63,1.95-1.35,2.47-1.07c3.35,1.82,6.55,3.9,9.8,5.89
		c0.34,0.31,0.68,0.63,1.02,0.94c3.22,1.44,6.75,2.42,9.59,4.4c7,4.88,13.69,10.2,20.51,15.35c2.45,2.38,4.91,4.77,7.36,7.15
		c1.84,2.04,3.79,3.22,6.87,3.21c4.77-0.02,8.11,4.47,9.18,11.48c-5.55,0.73-10.48,0.85-14.55-4.35c-2.32-2.96-6-4.85-9.07-7.22
		c-1.02-1.01-2.05-2.01-3.08-3.01c-1.27-0.26-2.79-0.15-3.75-0.81c-7.43-5.31-14.75-10.78-22.11-16.2
		c-4.68-4.21-9.42-8.36-13.98-12.69C224.7,181.04,224.66,179.39,225.03,178.53z M214.3,254.66c-8.91-5.3-18.02-10.26-27.05-15.36
		c-0.95-1-2.92-2.54-2.71-2.93c3.76-7.12,7.78-14.11,11.75-21.13c0.67-1.21,1.35-2.42,2.02-3.64c1.68-4.1,3.06-8.35,5.11-12.26
		c3.89-7.42,4.02-7.3,11.66-3.19c4.63,2.49,9.39,4.74,13.99,7.29c0.96,0.54,1.46,1.92,2.18,2.91c1.68,4.22,3.44,8.42,5.03,12.68
		c2.1,5.63-1.74,9.82-3.91,14.26c-3.17,6.48-7.06,12.61-10.3,19.06C220.13,256.22,218.09,256.91,214.3,254.66z"/>
	<path class="st1" d="M68.66,197.65c-2.68-1-6-1.32-7.93-3.13c-9.29-8.71-19.53-16.84-26.94-27
		c-12.74-17.46-22.01-37.12-24.15-58.99C8.39,95.78,12.7,83.79,20.01,73.1c0.41-2.27,0.82-4.54,1.24-6.81
		c2.36-4.15,6.45-7.66,3.55-13.45c-1.43-2.84-0.72-5.66,3.53-5.57c1.33-0.35,3.49-0.31,3.85-1.11c1.36-2.93,1.92-6.22,3.17-9.21
		c1.22-2.9,2.86-5.62,4.43-8.35c0.69-1.19,1.67-2.21,2.52-3.31c0.13-2.43,0.25-4.85,0.33-6.34c-1.92-2.02-3.44-3.62-4.96-5.21
		c1.57-1.48,3.01-3.14,4.75-4.38c1-0.71,2.48-0.74,3.74-1.07c0.38,0,0.76,0,1.15,0c2,1.1,4,2.2,6,3.31
		c0.31,0.24,0.63,0.48,0.94,0.71c2.34,1.11,4.67,2.23,7.01,3.34c0.86,0.49,1.73,0.98,2.59,1.46l0.25-0.19l0.27,0.17
		c-1.34,7.39-8.09,5.2-12.92,6.79c1.58,2.13,2.55,4.42,4.28,5.51c1.61,1.01,4.22,1.37,6.01,0.8c1.28-0.41,2.61-2.78,2.72-4.35
		c0.22-3.37,1.39-4.32,4.24-2.59c2.55,1.54,3.22,0.21,3.6-1.95c0.33-0.34,0.66-0.67,0.99-1.01c1.02-0.84,2.04-1.68,3.06-2.52
		c19.3-8.07,38.03-6.94,57.21,1.49c26,11.42,42.14,32.66,57.66,54.75c5.33,7.58,9.99,15.63,14.95,23.47
		c-1.16-0.47-2.4-0.79-3.45-1.44c-1.6-0.98-3.04-2.22-4.6-3.28c-2.06-1.4-4.12-2.81-6.26-4.08c-1.51-0.89-3.15-1.56-4.73-2.33
		c-7.55-4.57-15.11-9.13-22.69-13.72c-2.32,4.09-5.12,2.49-8.43,1.38c-5.76-1.93-11.78-3.1-17.69-4.59
		c-2.44-0.47-4.89-0.94-6.12-1.18c-2.54,3.48-5.01,5.58-5.74,8.16c-1.38,4.9-3.92,5.66-8.09,3.84c-1.03-0.67-2.07-1.33-3.1-2
		c-0.63,0.42-1.25,0.85-1.88,1.27c0.77,2.24,1.53,4.48,2.3,6.73c-2.31-0.36-4.62-0.71-7.18-1.11c-0.73,1.92-1.7,4-2.34,6.18
		c-2.07,7.16-2.79,7.66-10.11,6.46c-1.26,2.31-2.3,4.77-3.8,6.9c-5.19,7.38-9.62,15.96-20.92,14.64c-2.19-1.75-4.92-3.12-6.45-5.32
		c-4.06-5.81-3.86-5.96-8.22-0.65c-2.13-1.73-4.25-3.46-6.37-5.18c-0.37,0.37-0.73,0.74-1.1,1.11c0.51,1.15,0.83,2.45,1.58,3.41
		c2.72,3.5,5.76,6.75,8.33,10.35c1.86,2.59,3.67,4.73,7.2,4.23c0.9,0.58,1.81,1.16,2.66,1.71c-1.39,1.73-2.57,3.2-3.75,4.68
		c-0.77,0.65-1.54,1.29-2.31,1.94c-2.62-0.3-4.69-0.59-6.17-3.73c-1.53-3.24-4.8-5.67-7.31-8.45c-0.62,0.15-1.23,0.3-1.85,0.45
		c0.31,3.49,0.63,6.98,0.94,10.47c0.07,1.09,0.15,2.19,0.22,3.28c0.24,1.24,0.49,2.47,0.73,3.71c0.77,3.43,1.53,6.86,2.3,10.28
		c0.27,1.25,0.54,2.5,0.81,3.75c0.14,1,0.28,2.01,0.41,3.01c0.18,2.66,0.35,5.32,0.53,7.98c3.51,7.49,7.02,14.98,10.53,22.46
		C65.59,191.75,67.12,194.7,68.66,197.65z"/>
	<path class="st2" d="M214.32,290.22c1.03,0.9,2.06,1.81,3.09,2.71c2.98,1.75,5.96,3.51,8.95,5.25c3.52,2.04,6.53,2.4,8.07-2.41
		c0.23-0.73,0.97-1.29,2.05-2.64c6.63,3.71,13.26,7.42,19.89,11.13c3.62,2.28,7.24,4.55,10.86,6.83
		c8.41,5.37,16.79,10.77,24.84,16.62c0.85-0.84,1.69-1.68,2.54-2.52c-9.41-6.66-18.89-13.22-28.33-19.83
		c-1.04-0.55-2.07-1.1-3.1-1.65c-1.3-0.8-2.6-1.59-3.9-2.38c-0.68-0.59-1.37-1.18-2.05-1.76c-6.37-3.12-12.74-6.24-19.34-9.48
		c6.83-12.88,16.15-24.23,20.87-38.11c-1.95,0.76-3.1,2.01-4.02,3.41c-8.37,12.79-16.71,25.61-25.52,39.15
		c-22.88-14.1-39.09-34.65-61.81-47.77c5.63-11.05,10.72-21.28,16.03-31.39c7.9-15.06,17.5-29,28.84-41.69
		c8.63-9.65,19.22-15.63,32.49-14.27c12.2,1.25,24.3,3.5,36.44,5.3c5,1.89,10.01,3.79,15.01,5.68c1.97,0.64,3.94,1.29,5.91,1.93
		c17.29,6.25,32.28,16.39,46.61,27.65c0.53,0.47,1.06,0.95,1.59,1.42c3.75,2.54,7.49,5.09,11.24,7.63c1.59,1.03,3.18,2.07,4.76,3.11
		c6.19,5.05,12.38,10.11,18.57,15.16c0.82,0.97,1.64,1.95,2.46,2.92c2.62,2.44,5.23,4.88,7.85,7.33c1.41-1.1,2.85-2.17,4.3-3.21
		c-3.02-3-6.18-5.87-9.53-8.56c-26.25-21.04-52.44-42.09-83.55-56c-18.04-8.07-36.89-12.21-56.32-14.3
		c-16.04-1.72-29.39,3.79-40.15,15.75c-0.77,0.86-1.66,1.61-2.5,2.42c-2.62,3.6-5.4,7.1-7.82,10.83
		c-6.58,10.16-13,20.44-19.53,30.64c-0.58,0.89-1.52,1.55-2.3,2.32c-3.47,6.96-6.95,13.92-10.4,20.89
		c-0.59,1.18-0.86,2.55-1.55,3.66c-2.76,4.44-2.29,7.85,2.74,10.25c1.27,0.61,2.23,1.9,3.33,2.88c1.48,0.99,2.97,1.97,4.45,2.96
		c7.98,6.22,16.11,12.26,23.88,18.73C205.23,280.94,209.66,285.72,214.32,290.22z"/>
	<path class="st3" d="M184.41,338.53c-7.09,2.23-14.03,5.49-21.29,6.5c-18.96,2.66-38.14,4.68-56.56-2.98
		c-30.79-12.81-49.55-35.73-55.15-68.6c-1.7-10.01-1.72-20.54-0.89-30.7c0.9-11.05,7.72-20,14.02-28.77
		c1.38-1.92,4.41-2.65,6.68-3.93c-0.41,1.46-0.57,3.04-1.27,4.34c-2.13,3.98-4.45,7.86-6.7,11.78c-2.65,4.69-6.85,9.13-7.68,14.12
		c-2.88,17.37-2.32,34.83,5.45,51.03c3.88,8.1,9.47,15.38,14.28,23.03c10.73,11.24,22,21.64,37.96,24.91
		c19.12,6,38.12,4.71,57.03-1.02c3.66-1.33,7.33-2.67,10.99-4C182.33,335.67,183.37,337.1,184.41,338.53z"/>
	<path class="st2" d="M268.85,351.87c-3.89-2.86-7.79-5.73-11.68-8.59c-0.73-0.69-1.45-1.37-2.18-2.05
		c-10.92-6.01-21.84-12.03-32.76-18.04c-1.01-0.65-2.01-1.31-3.02-1.96c-2.98-1.04-5.96-2.09-8.94-3.13
		c-2.18,1.8-4.37,3.61-6.55,5.41c-1.4,1-2.81,1.99-4.21,2.99c-0.29,0.31-0.58,0.63-0.87,0.95c-3.3,3.08-6.61,6.16-10.24,9.54
		c-4.15-5.71-8.15-11.21-12.15-16.71c-1.63,0.31-3.25,0.62-4.87,0.93c3.3,4.34,6.6,8.69,9.9,13.03c1.05,1.43,2.09,2.86,3.13,4.29
		c1.62,1.49,2.47,5.52,5.58,2.83c6.24-5.4,11.96-11.38,18.13-16.85c1.22-1.09,4.03-1.89,5.26-1.23
		c12.01,6.39,24.08,12.74,35.69,19.82c5.92,3.61,11.53,7.57,16.92,11.79C266.94,353.88,267.9,352.88,268.85,351.87z"/>
	<path class="st4" d="M63.25,226.16c2.25-3.92,4.58-7.79,6.7-11.78c0.69-1.3,0.86-2.89,1.27-4.34c2.32-2.6,4.64-5.2,6.97-7.82
		c-2.83-1.01-4.43-6.27-9.54-4.57c-1.53-2.96-3.07-5.91-4.6-8.87c2.96-3.53,4.13,0.31,5.74,1.53c3.38,2.56,6.48,5.48,9.87,8.02
		c2.42,1.81,5.13,3.24,7.7,4.84c-1.53-0.13-3.07-0.26-4.6-0.39c12.27,10.22,27.27,12.88,42.45,16c0,2.3,0,4.42,0,6.54
		c-3.9,0.93-7.99,3.1-11.66,2.54c-10.49-1.6-20.82-4.3-31.21-6.57c-0.34-2.27-0.69-4.53-1.03-6.8c-0.46,0.08-0.91,0.17-1.37,0.25
		c-0.51,1.83-1.03,3.66-1.54,5.49C73.35,222.22,68.3,224.19,63.25,226.16z"/>
	<path class="st5" d="M46.16,8.28c-1.26,0.33-2.74,0.36-3.74,1.07c-1.74,1.24-3.18,2.9-4.75,4.38c1.52,1.59,3.03,3.19,4.96,5.21
		c-0.08,1.49-0.2,3.92-0.33,6.34c-6.56,0.89-11.12,5.41-14.4,10.21c-1.71,2.5,0.16,7.44,0.4,11.27c0.01,0.17,0.01,0.33,0.02,0.5
		c-4.25-0.09-4.96,2.72-3.53,5.57c2.9,5.79-1.19,9.3-3.55,13.45c-0.82-0.4-1.63-0.8-2.45-1.19c-0.49-2.97-0.97-5.93-1.46-8.9
		c0.38-3.02,0.86-6.04,1.07-9.08c0.06-0.93-0.63-1.91-0.97-2.86c0.22-4.29,0.44-8.59,0.66-12.88c0.56-0.43,1.68-1.09,1.61-1.27
		c-1.06-2.65-2.27-5.24-3.45-7.84c3.65-3.78,7.3-7.56,10.95-11.34c0.52,0.27,1.06,0.81,1.55,0.77c6.03-0.54,9.88-5.23,14.78-7.91
		c0.58,0.52,1.16,1.04,1.75,1.56C45.58,6.32,45.87,7.3,46.16,8.28z M40.38,19.76c-6.97-4.84-9.73,0.44-12.94,2.7
		c-3.25,2.29-2.36,5.64,0.36,9.35C32.01,27.76,35.92,24.03,40.38,19.76z"/>
	<path class="st6" d="M43.54,3.78c-4.91,2.69-8.75,7.37-14.78,7.91c-0.49,0.04-1.03-0.5-1.55-0.77c0.04-0.51,0.08-1.02,0.12-1.52
		c-2.38,0.26-4.99-0.02-7.1,0.88C11.47,13.97,7.5,21.04,7,30.3c-2.61,3.84-2.34,4.75,2.14,6.45c0-1.71,0-3.29,0-4.88
		c2.37-3.21,4.74-6.41,7.1-9.62c1.18,2.6,2.4,5.19,3.45,7.84c0.07,0.18-1.05,0.83-1.61,1.27c-2.33,3.96-4.66,7.93-6.98,11.89
		c-0.27-0.01-0.53,0-0.8,0.02c-1.87-2.23-3.07-6.75-6.96-2.03c-0.45-0.29-0.9-0.58-1.35-0.87c-0.19-0.71-0.38-1.42-0.57-2.13
		c-0.21-0.67-0.41-1.34-0.62-2.01c-0.27-3.09-0.53-6.19-0.8-9.28c0.06-1,0.12-2,0.17-2.99c0.26-0.54,0.51-1.09,0.77-1.63
		c0.15-0.68,0.3-1.35,0.45-2.03c0.35-1,0.71-2,1.06-3c0.63-0.98,1.26-1.95,1.88-2.93c1.36-1.68,2.73-3.36,4.09-5.04
		c0.94-0.73,1.88-1.46,2.81-2.19c0.4-0.26,0.8-0.53,1.21-0.79c2.17-0.64,5.99,1.72,5.8-3.2c0.56-0.34,1.13-0.68,1.69-1.02
		c0.8-0.27,1.6-0.54,2.4-0.81C25.62,0.88,28.91,0.44,32.2,0c0.99,0.22,1.99,0.45,2.98,0.67C37.97,1.7,40.76,2.74,43.54,3.78z"/>
	<path class="st4" d="M207.47,173.62c-2.62,3.6-5.4,7.1-7.82,10.83c-6.59,10.17-13,20.44-19.53,30.64c-0.57,0.9-1.52,1.56-2.3,2.32
		c-2.87-1.64-5.75-3.27-8.62-4.9c2.17-1.66,4.4-3.25,6.49-4.99c4.46-3.73,8.85-7.54,13.27-11.31c-0.32-0.51-0.64-1.01-0.96-1.52
		c-1.23-0.14-2.46-0.28-3.69-0.43c0.74-1.25,1.31-2.64,2.24-3.71c7.56-8.72,12-18.86,13.79-30.2c0.68-4.35,1.28-8.72,1.92-13.08
		c1.1,0.03,2.2,0.06,3.3,0.08c-0.39,5.4-0.27,10.9-1.32,16.17C203.37,167.85,202.75,171.4,207.47,173.62z"/>
	<path class="st7" d="M1.99,40.37c0.45,0.29,0.91,0.58,1.36,0.88c0.63,3.77,0.48,7.94,5.73,10.08c0.45-2.94,0.85-5.5,1.24-8.06
		c0.27-0.02,0.53-0.03,0.8-0.02c1.34,1.91,2.67,3.82,4.52,6.47c0.91-2.76,1.36-4.12,1.8-5.47c0.35,0.96,1.04,1.94,0.97,2.86
		c-0.21,3.04-0.69,6.05-1.07,9.08c-2.71-0.98-5.41-1.97-8.16-2.97c-1.41,12.56,2.48,15.3,9.62,11.86c0.82,0.4,1.63,0.8,2.45,1.19
		c-0.41,2.27-0.82,4.54-1.24,6.81c-0.76-0.06-1.56-0.3-2.29-0.16c-7.43,1.5-14.11-2.97-15.12-10.43c-0.46-3.43-0.37-6.94-0.46-10.41
		C2.04,48.17,2.03,44.27,1.99,40.37z"/>
	<path class="st3" d="M205.55,147.35c-1.1-0.03-2.2-0.06-3.3-0.08c0.52-18.42-4.79-35.57-13.04-53.43c2.5,1.1,3.35,1.47,4.2,1.84
		c1.01,1.51,2.03,3.01,3.04,4.52C202.97,115.24,207,130.77,205.55,147.35z"/>
	<path class="st6" d="M72.31,21.28c-0.38,2.16-1.05,3.5-3.6,1.95c-2.85-1.73-4.02-0.79-4.24,2.59c-0.1,1.57-1.43,3.94-2.72,4.35
		c-1.78,0.57-4.4,0.21-6.01-0.8c-1.73-1.08-2.71-3.37-4.28-5.51c4.83-1.59,11.58,0.6,12.92-6.79
		C67.02,18.48,69.66,19.88,72.31,21.28z"/>
	<path class="st6" d="M196.45,100.2c-1.01-1.51-2.03-3.01-3.04-4.52c-2.08-3.12-4.17-6.23-6.26-9.34c1.58,0.77,3.22,1.43,4.73,2.33
		c2.14,1.27,4.2,2.68,6.26,4.08c1.56,1.06,3,2.3,4.6,3.28c1.05,0.64,2.29,0.97,3.45,1.44c0.7,1.4,1.39,2.81,2.09,4.21
		c-0.28,0.43-0.57,0.87-0.85,1.3C203.77,102.04,200.11,101.12,196.45,100.2z"/>
	<path class="st7" d="M18.25,3.13c0.19,4.92-3.63,2.56-5.8,3.2C14.38,5.27,16.32,4.2,18.25,3.13z"/>
	<path class="st7" d="M11.25,7.13c-0.94,0.73-1.88,1.46-2.81,2.19C9.37,8.59,10.31,7.86,11.25,7.13z"/>
	<path class="st7" d="M35.19,0.67C34.2,0.45,33.2,0.22,32.21,0C33.21,0.22,34.2,0.44,35.19,0.67z"/>
	<path class="st7" d="M4.34,14.36c-0.63,0.98-1.26,1.95-1.88,2.93C3.09,16.32,3.72,15.34,4.34,14.36z"/>
	<path class="st6" d="M76.36,17.75c-1.02,0.84-2.04,1.68-3.06,2.52C74.31,19.43,75.34,18.59,76.36,17.75z"/>
	<path class="st6" d="M46.16,8.28c-0.29-0.98-0.59-1.96-0.88-2.94c0.68,0.98,1.35,1.96,2.03,2.94C46.93,8.28,46.55,8.28,46.16,8.28z
		"/>
	<path class="st6" d="M63.85,17.1c-0.86-0.49-1.73-0.98-2.59-1.46C62.13,16.12,62.99,16.61,63.85,17.1z"/>
	<path class="st7" d="M0.8,36.23c0.21,0.67,0.41,1.34,0.62,2.01C1.21,37.57,1,36.9,0.8,36.23z"/>
	<path class="st7" d="M1.4,20.3c-0.15,0.68-0.3,1.35-0.45,2.03C1.1,21.65,1.25,20.98,1.4,20.3z"/>
	<path class="st7" d="M22.34,1.31c-0.8,0.27-1.6,0.54-2.4,0.81C20.74,1.85,21.54,1.58,22.34,1.31z"/>
	<path class="st7" d="M0.17,23.96c-0.06,1-0.11,2-0.17,2.99C0.06,25.95,0.12,24.96,0.17,23.96z"/>
	<polygon class="st4" points="70.25,199.82 70.25,199.65 70.57,199.74 	"/>
	<path class="st6" d="M54.25,12.3c-0.31-0.24-0.63-0.48-0.94-0.71C53.62,11.82,53.94,12.06,54.25,12.3z"/>
	<path class="st8" d="M357.61,269.49c-0.76-2.09-1.53-4.17-2.29-6.27c-0.7,0.01-1.39,0.02-2.08,0.03c0.81,2.73,1.59,5.47,2.43,8.19
		C356.31,270.79,356.96,270.13,357.61,269.49z"/>
	<path class="st8" d="M303.24,299.72c10.42-3.57,20.85-7.12,31.28-10.64c1.63-1.6,3.29-3.17,4.99-4.68
		c-2.04,0.66-4.07,1.31-6.11,1.96c-0.85,0.16-1.71,0.31-2.56,0.47c0-0.56,0.01-1.12,0.01-1.68l-0.39-0.03l-0.36,0.15
		c-1.4-0.42-2.79-0.84-4.19-1.26c-0.53,0.74-1.05,1.48-1.57,2.22c0.9,0.59,1.81,1.17,3.44,2.23c-8.74,2.98-16.79,5.82-24.93,8.33
		c-0.87,0.27-3.03-1.1-3.4-2.13c-4.08-11.53-7.93-23.14-12.14-35.62c8.66-3.03,17.32-6.07,25.97-9.1c0.01-0.8,0.01-1.6,0.01-2.4
		c-9.65,3.18-19.29,6.36-29.18,9.62c4.67,14.02,8.96,26.94,13.28,39.84C298.36,299.89,300.25,300.75,303.24,299.72z"/>
	<path class="st9" d="M296.2,170.34c1.97,0.64,3.94,1.29,5.91,1.93c3.45,5.98,6.87,11.97,10.35,17.94
		c3.9,6.69,7.85,13.36,11.78,20.04c-0.99,0.01-1.97,0.01-2.96,0.02c-6.78-11.2-13.46-22.46-20.5-33.48
		c-0.66-1.03-3.78-1.03-5.56-0.64c-1.65,0.36-2.97,2.04-4.58,2.86c-3.25,1.65-3.64,3.66-1.67,6.73
		c5.98,9.32,11.77,18.75,17.64,28.13c1.49,2.38,3.29,2.85,5.87,1.41c2.24-1.26,4.76-2.03,7.15-3.02c-0.82,0.71-1.85,1.27-2.41,2.14
		c-1.67,2.59-6.68,2.25-6,6.85c-0.72,0.05-1.44,0.09-2.17,0.14c-4.48-6.3-9.17-12.46-13.39-18.94c-3.76-5.77-7.01-11.88-10.44-17.86
		c-0.73-1.28-2-2.81-1.78-3.98c1.07-5.64-0.65-10.76-2.26-15.95C286.19,166.55,291.19,168.44,296.2,170.34
		c-2.83-0.34-5.66-0.67-9.21-1.1c-0.49,2.73-1.1,6.05-1.7,9.37c0.37,0.22,0.73,0.45,1.1,0.67
		C289.51,176.11,295.15,176.03,296.2,170.34z"/>
	<path class="st10" d="M374.13,247.86c2.45,1.14,3.22,2.76,3.37,4.52c1.03-0.74,2.06-1.48,3.12-2.18c0.02-0.02,0.04-0.04,0.06-0.05
		c0.15-4.69,0.36-9.37,0.56-14.06c0-0.57,0.01-1.14,0.01-1.71c-1.89-2.79-1.2-4.16,2.23-4.09c1.29,0.02,2.58-0.08,3.87-0.12
		c-0.82-0.97-1.64-1.95-2.46-2.92c-6.73,0.04-6.5,0.05-7.05,7.06c-0.17,2.16,0.69,5.3-3.18,6.49
		C373.77,241.07,373.3,247.47,374.13,247.86z"/>
	<path class="st8" d="M198.31,211.61c1.68-4.1,3.07-8.35,5.11-12.26c3.89-7.43,4.02-7.3,11.66-3.19c4.63,2.49,9.39,4.74,13.99,7.29
		c0.97,0.54,1.47,1.92,2.18,2.91c-0.27,1.44-0.54,2.87-0.81,4.31c-3.04,7.54-3.04,7.54,3.8,9.38c0,0.81,0,1.62,0,2.43
		c-3.28-1.31-6.55-2.61-10.23-4.08c2.04-4.27,3.67-7.67,5.39-11.28c-2.55-1.42-5.05-2.42-7.07-4.01c-4.09-3.22-6.29-1.67-8.32,2.39
		c-3.56,7.1-7.28,14.14-11.21,21.04c-1.41,2.48-3.62,4.51-5.46,6.75c-0.1-0.35-0.19-0.71-0.29-1.06c1.47-2.9,2.9-5.82,4.41-8.69
		c3.27-6.19,6.59-12.35,9.65-18.08c-1.94-1.31-3.29-2.22-4.64-3.13c1.56-0.22,3.15-0.3,4.66-0.71c0.99-0.27,2.25-0.84,2.63-1.64
		c0.25-0.52-0.61-2.06-1.36-2.52c-3.59-2.17-5.16-1.05-7.12,4.81C202.96,205.37,200.63,208.49,198.31,211.61z"/>
	<path class="st10" d="M230.44,210.66c0.27-1.44,0.54-2.88,0.81-4.31c1.68,4.23,3.44,8.43,5.03,12.69c2.1,5.63-1.74,9.82-3.91,14.26
		c-3.17,6.48-7.06,12.61-10.3,19.06c-1.94,3.87-3.99,4.56-7.77,2.31c-8.91-5.29-18.02-10.26-27.05-15.36
		c0.38-0.38,0.76-0.75,1.15-1.12c1.81,0.27,3.61,0.53,5.42,0.8c0.48,0.09,0.97,0.18,1.45,0.27c0.47,0.78,0.75,1.89,1.44,2.3
		c4.08,2.45,8.21,4.83,12.42,7.04c2.74,1.44,5.89,3.88,8.39,3.42c2.09-0.39,3.51-4.35,5.23-6.74c0.1-0.13,0.22-0.25,0.3-0.4
		c3.73-7.47,7.46-14.94,11.18-22.41c0-0.81,0-1.62,0-2.43C232.98,216.92,231.71,213.79,230.44,210.66z"/>
	<path class="st11" d="M198.31,211.61c2.32-3.12,4.65-6.24,6.97-9.35c0.4,0.02,0.79,0.04,1.19,0.06c1.35,0.91,2.7,1.82,4.64,3.13
		c-3.06,5.73-6.38,11.89-9.65,18.08c-1.52,2.87-2.94,5.79-4.41,8.69c-2.26-0.66-4.53-1.31-6.8-1.97c0.8-1.81,1.66-3.6,2.39-5.44
		c1.26-3.17,2.44-6.37,3.65-9.55C196.96,214.03,197.64,212.82,198.31,211.61z"/>
	<path class="st10" d="M313.29,249.93c0-0.8,0-1.6,0.01-2.4c6.29-1.88,12.59-3.76,18.88-5.64c0.04,0.48,0.07,0.96,0.11,1.43
		c-4.64,1.73-9.27,3.46-14.68,5.49c1.74,1.24,2.64,1.87,3.53,2.5c-0.35,1.06-1.25,2.34-0.94,3.16c1.26,3.28,2.73,6.51,4.46,9.57
		c1,1.76-1.43,4.44,2,5.79c0.77,0.31-0.09,4.78-0.21,7.33c-0.7,0.36-1.41,0.71-2.11,1.07c-0.88-0.92-2.08-1.7-2.58-2.79
		c-1.13-2.47-2.04-5.05-2.81-7.66c-1.33-4.49-2.48-9.03-3.7-13.55c0.1-0.12,0.19-0.25,0.29-0.37c-0.08,0.14-0.16,0.28-0.24,0.42
		c-0.62-0.03-1.24-0.06-1.85-0.08c0.59-1.22,1.18-2.43,1.8-3.7C314.79,250.36,314.04,250.15,313.29,249.93z"/>
	<path class="st12" d="M237.29,183.33c0.34,0.31,0.68,0.63,1.02,0.94c2.14,1.88,4.14,3.95,6.45,5.59
		c7.4,5.26,14.91,10.35,22.38,15.51c1.52,1.87,1.9,3.56-0.75,4.76c-1.66-1.04-3.36-2.03-4.99-3.13
		c-6.29-4.27-12.55-8.57-18.82-12.86c-4.53-3.84-9.07-7.69-13.6-11.53c0.27-0.31,0.53-0.63,0.8-0.94
		C232.28,182.23,234.79,182.78,237.29,183.33z"/>
	<path class="st10" d="M266.23,305.3c-1.03-0.55-2.06-1.1-3.1-1.65c0.31-0.57,0.89-1.14,0.9-1.71c0.12-7.96,0.25-15.92,0.11-23.87
		c-0.02-0.93-1.63-1.83-2.5-2.74c-0.75,1.02-2.12,2.03-2.15,3.07c-0.23,7.62-0.2,15.25-0.25,22.88c-0.68-0.59-1.37-1.17-2.05-1.76
		c0.02-6.83,0.17-13.66,0.01-20.49c-0.13-5.54,1.98-10.1,5.66-15.41c1.51,4.65,3.66,8.41,3.8,12.25
		C266.99,285.66,266.43,295.49,266.23,305.3z"/>
	<path class="st2" d="M291.03,289.55c-1.23,4.67-4.36,7.35-8.55,7.34c-4.62-0.01-8.34-3.42-8.17-7.48c0.18-4.4,5.41-9.54,9.42-7.92
		C286.75,282.7,288.63,286.76,291.03,289.55z M284.98,285.53c-2.02,1.18-3,1.85-4.05,2.35c-0.81,0.38-1.71,0.56-2.57,0.83
		c0.48,1.14,0.75,3.03,1.5,3.25c1.57,0.46,4.53,0.59,4.89-0.14C285.5,290.25,284.98,288.06,284.98,285.53z"/>
	<path class="st8" d="M275.78,211.18c1.83,2.04,3.78,3.23,6.87,3.21c4.77-0.02,8.11,4.47,9.18,11.48
		c-5.54,0.74-10.48,0.86-14.55-4.35c-2.32-2.96-6-4.85-9.07-7.22C270.74,213.26,273.26,212.22,275.78,211.18z M287.72,222.92
		c0.31-0.62,0.62-1.24,0.92-1.86c-2.31-1.44-4.61-2.89-6.92-4.33c-0.5,1.29-1.75,2.87-1.38,3.81
		C281.8,224.17,284.9,223.33,287.72,222.92z"/>
	<path class="st9" d="M250.06,230.23c1.06-1.3,1.87-3.01,3.22-3.83c2.99-1.82,13.85-0.02,16.37,2.39c0.12,0.11,0.24,0.23,0.35,0.35
		c2.59,2.98,1.03,13.42-2.34,15.36c-0.31,0.18-0.93-0.17-1.41-0.28l0.03,0.04c-0.14-2.05-0.67-4.16-0.35-6.14
		c0.5-3.06,0.63-6.14-2.96-6.61c-4.18-0.55-8.86-5.25-12.71,0.73l0.01,0.01C250.21,231.58,250.14,230.91,250.06,230.23z"/>
	<path class="st13" d="M250.06,230.23c0.07,0.67,0.15,1.35,0.22,2.02c-0.59,3.85-1.18,7.7-1.78,11.54
		c-0.1,3.41,0.09,6.86-0.46,10.19c-0.2,1.23-2.16,2.16-3.32,3.23c-0.79-1.14-2.34-2.33-2.26-3.41c0.52-7.03,1.17-14.07,2.38-21
		C245.06,231.68,248.25,231.08,250.06,230.23z"/>
	<path class="st9" d="M361.55,208.97c1.59,1.04,3.17,2.08,4.75,3.12c-1.17,2.35-1.97,5-3.6,6.97c-1.41,1.7-4.17,4.05-5.6,3.62
		c-3.21-0.95-8.2-0.03-8.81-5.45l-0.04,0.04c1.88-0.09,3.81-0.5,5.62-0.2c2.84,0.47,4.86,0.19,5.67-3.04
		C359.99,212.28,360.87,210.65,361.55,208.97z"/>
	<path class="st14" d="M267.14,205.37c-7.47-5.16-14.98-10.25-22.38-15.51c-2.31-1.64-4.31-3.71-6.45-5.59
		c3.22,1.44,6.75,2.43,9.59,4.4c7.01,4.87,13.7,10.2,20.51,15.35C267.99,204.48,267.56,204.93,267.14,205.37z"/>
	<path class="st10" d="M237.29,183.33c-2.5-0.55-5.01-1.1-7.51-1.65c-0.27,0.31-0.53,0.63-0.8,0.94c4.53,3.84,9.07,7.69,13.6,11.53
		c-1.11,0.04-2.21,0.08-3.32,0.12c-4.68-4.21-9.42-8.36-13.98-12.69c-0.59-0.56-0.63-2.21-0.26-3.07c0.28-0.63,1.94-1.35,2.47-1.07
		C230.84,179.26,234.04,181.34,237.29,183.33z"/>
	<path class="st15" d="M239.26,194.27c1.11-0.04,2.21-0.08,3.32-0.12c6.27,4.29,12.53,8.59,18.82,12.86
		c1.62,1.1,3.32,2.09,4.99,3.12c-0.42,0.38-0.84,0.77-1.26,1.16c-1.26-0.26-2.79-0.14-3.75-0.83
		C253.94,205.15,246.62,199.69,239.26,194.27z"/>
	<path class="st8" d="M309.05,221.39c0.72-0.05,1.44-0.09,2.17-0.14c3.74-1.95,7.64-3.65,11.14-5.95c1.86-1.22,1.37-2.88-1.16-3.17
		c0.03-0.62,0.06-1.25,0.09-1.87c0.99-0.01,1.97-0.01,2.96-0.02c3.97,3.45,3.88,4.57-0.33,7.14c-3.22,1.97-6.41,4.01-9.53,6.14
		C311.43,225.54,309.52,225.36,309.05,221.39z"/>
	<path class="st15" d="M196.29,215.24c-1.21,3.19-2.39,6.38-3.65,9.55c-0.73,1.84-1.59,3.63-2.39,5.44
		c-1.52,2.44-4.48,4.54-1.85,7.94c-0.38,0.37-0.76,0.75-1.15,1.12c-0.95-1-2.92-2.54-2.71-2.93
		C188.31,229.25,192.33,222.26,196.29,215.24z"/>
	<path class="st9" d="M248.51,243.8c0.59-3.85,1.18-7.7,1.78-11.54l-0.01-0.01c0.01,1.83-0.25,3.71,0.11,5.47
		c0.33,1.61,1.08,4.17,2.1,4.42c4.51,1.08,9.18,1.48,13.8,2.13l-0.03-0.04c-0.45,3.83-2.92,3.89-5.81,3.06
		C256.46,246.15,252.49,244.96,248.51,243.8z"/>
	<path class="st8" d="M332.28,243.33c-0.04-0.48-0.07-0.95-0.11-1.43c4.02-1.68,7.9-4.03,12.09-4.83c4.39-0.84,3.55,3.42,4.07,6.07
		c-0.38,0.72-0.77,1.43-1.15,2.15c-1.4-4.83-4.2-5.98-8.74-3.68C336.57,242.53,334.35,242.77,332.28,243.33z"/>
	<path class="st15" d="M347.18,245.27c0.38-0.72,0.77-1.43,1.15-2.15c2.33,6.7,4.65,13.4,6.98,20.1c-0.69,0.01-1.39,0.02-2.08,0.03
		C351.22,257.26,349.2,251.27,347.18,245.27z"/>
	<path class="st16" d="M265.13,211.3c0.42-0.39,0.84-0.78,1.26-1.16c2.65-1.21,2.27-2.89,0.75-4.76c0.42-0.45,0.85-0.9,1.27-1.35
		c2.45,2.38,4.91,4.76,7.36,7.15c-2.52,1.04-5.04,2.08-7.56,3.13C267.18,213.3,266.16,212.3,265.13,211.3z"/>
	<path class="st9" d="M348.72,199.92c0.53,0.47,1.06,0.95,1.59,1.42c-1.66,5.19-4.34,10.24-2.05,15.93l0.04-0.04
		c-5.22-0.77-4.43-4.71-3.63-7.9C345.49,206.05,347.33,203.04,348.72,199.92z"/>
	<path class="st17" d="M187.15,86.33c2.09,3.11,4.17,6.23,6.26,9.34c-0.85-0.37-1.69-0.74-4.2-1.83
		c8.25,17.86,13.55,35.01,13.04,53.43c-0.64,4.36-1.24,8.73-1.92,13.08c-1.78,11.35-6.22,21.48-13.79,30.2
		c-0.93,1.08-1.51,2.47-2.24,3.71c-9.15,6.73-17.13,15.55-29.68,16.13c-3.28,0.15-6.53,0.97-9.78,1.57
		c-11.23,2.1-22.52,2.09-33.54-0.69c-8.14-2.05-15.96-5.35-23.93-8.1c-2.58-1.6-5.29-3.03-7.7-4.84c-3.39-2.54-6.49-5.46-9.87-8.02
		c-1.61-1.22-2.77-5.06-5.74-1.53c-3.51-7.49-7.02-14.98-10.53-22.46c-0.18-2.66-0.35-5.32-0.53-7.98c-0.14-1-0.28-2.01-0.41-3.01
		c-0.27-1.25-0.54-2.5-0.81-3.75c-0.77-3.43-1.53-6.86-2.3-10.28c-0.24-1.24-0.49-2.47-0.73-3.71c-0.07-1.09-0.15-2.19-0.22-3.28
		c0.31-1.54,0.61-3.09,1.02-5.17c3.13,4.12,5.94,7.83,9.09,11.97c1.54-1.99,2.91-3.76,4.28-5.53c0.77-0.65,1.54-1.29,2.31-1.94
		c5.49-3.44,11.25-6.52,16.39-10.42c4.74-3.6,8.84-8.04,13.17-12.17c6.44-6.14,12.98-12.19,19.14-18.6c1.33-1.38,1.24-4.12,1.8-6.23
		c-0.77-2.24-1.53-4.48-2.3-6.73c0.63-0.42,1.25-0.85,1.88-1.27c1.03,0.67,2.07,1.33,3.1,2c2.18,5.09,5.95,3.26,8.47,1.12
		c4.2-3.55,7.69-7.92,11.48-11.95c5.91,1.49,11.93,2.66,17.69,4.59c3.31,1.11,6.11,2.71,8.43-1.38
		C172.05,77.2,179.6,81.76,187.15,86.33z M168.34,159.66c-0.1-9.01-4.4-13.33-9.92-10.68c-2.67,1.28-4.74,3.99-6.82,6.29
		c-2.37,2.6-4.18,5.74-6.71,8.14c-4.41,4.16-6.35,10.11-3.92,13.68c2.97,4.35,8.45,5.38,14.34,2.57
		C164.23,175.41,168.28,168.13,168.34,159.66z M147.53,132.22c0,0.6,0,1.2,0,1.8c1.66,0.26,3.32,0.68,4.99,0.74
		c10.59,0.4,14.51-7.74,18.98-15.06c0.46-0.75,0.06-2.04,0.06-3.07c-1.12,0.33-2.6,0.33-3.27,1.06c-1.54,1.71-2.89,3.67-3.95,5.72
		c-2.24,4.33-5.35,6.92-10.5,7C151.73,130.45,149.63,131.59,147.53,132.22z M119.54,163.7c-0.11-0.2-0.58-1.48-0.77-1.43
		c-0.98,0.21-2.5,0.55-2.72,1.22c-2.76,8.36-8.44,12.93-17.14,14.02c-0.62,0.08-1.09,1.35-1.62,2.06c0.76,0.53,1.47,1.42,2.29,1.54
		C106.76,182.11,118.97,171.74,119.54,163.7z M153.48,102.9c-0.33-0.37-0.65-0.75-0.98-1.12c-7.56,0.82-16.64,8.2-16.21,13.8
		C142.2,111.22,147.84,107.06,153.48,102.9z M80.81,166.54c3.92-4.07,7.87-8.12,11.73-12.25c0.3-0.32,0.25-1.5-0.06-1.74
		c-0.56-0.43-1.47-0.71-2.17-0.6C87.02,152.5,79.82,161.88,80.81,166.54z"/>
	<path class="st18" d="M115.71,86.23c-0.56,2.11-0.47,4.85-1.8,6.23c-6.16,6.41-12.7,12.46-19.14,18.6
		c-4.33,4.13-8.43,8.57-13.17,12.17c-5.14,3.9-10.9,6.98-16.39,10.42c1.18-1.47,2.37-2.95,3.75-4.68c-0.85-0.55-1.76-1.13-2.66-1.71
		c0.58-0.91,1.1-2.54,1.76-2.6c3.69-0.34,3.33-2.89,3.28-5.35c11.31,1.32,15.73-7.26,20.92-14.64c1.5-2.14,2.55-4.59,3.8-6.9
		c7.32,1.2,8.04,0.69,10.11-6.46c0.63-2.18,1.6-4.27,2.34-6.18C111.08,85.51,113.39,85.87,115.71,86.23z"/>
	<path class="st5" d="M71.35,119.31c0.05,2.46,0.41,5-3.28,5.35c-0.66,0.06-1.17,1.7-1.76,2.6c-3.53,0.5-5.34-1.64-7.2-4.23
		c-2.57-3.59-5.61-6.85-8.33-10.35c-0.75-0.96-1.06-2.27-1.58-3.41c0.37-0.37,0.73-0.74,1.1-1.11c2.12,1.72,4.24,3.45,6.37,5.18
		c4.37-5.31,4.16-5.17,8.22,0.65C66.43,116.19,69.16,117.56,71.35,119.31z"/>
	<path class="st6" d="M28.32,47.27c0-0.17,0-0.33-0.02-0.5c-0.25-3.84-2.11-8.77-0.4-11.27c3.28-4.8,7.84-9.32,14.4-10.21
		c-0.85,1.1-1.84,2.12-2.52,3.31c-1.57,2.73-3.21,5.46-4.43,8.35c-1.25,2.99-1.82,6.28-3.17,9.21
		C31.81,46.95,29.66,46.92,28.32,47.27z"/>
	<path class="st18" d="M138.35,69.4c-3.79,4.03-7.28,8.4-11.48,11.95c-2.53,2.14-6.29,3.97-8.47-1.12c4.17,1.82,6.71,1.05,8.09-3.84
		c0.73-2.59,3.21-4.68,5.74-8.16C133.46,68.46,135.9,68.93,138.35,69.4z"/>
	<path class="st18" d="M62.9,135.59c-1.37,1.77-2.74,3.55-4.28,5.53c-3.15-4.15-5.96-7.85-9.09-11.97
		c-0.41,2.08-0.72,3.63-1.02,5.17c-0.31-3.49-0.63-6.98-0.94-10.47c0.62-0.15,1.23-0.3,1.85-0.45c2.51,2.78,5.78,5.2,7.31,8.45
		C58.22,134.99,60.29,135.29,62.9,135.59z"/>
	<path class="st18" d="M52.99,158.35c0.18,2.66,0.35,5.32,0.53,7.98C53.35,163.67,53.17,161.01,52.99,158.35z"/>
	<path class="st18" d="M51.77,151.59c0.27,1.25,0.54,2.5,0.81,3.75C52.31,154.09,52.04,152.84,51.77,151.59z"/>
	<path class="st18" d="M48.73,137.6c0.24,1.24,0.49,2.47,0.73,3.71C49.22,140.07,48.98,138.83,48.73,137.6z"/>
	<path class="st18" d="M115.29,78.23c-0.63,0.42-1.25,0.85-1.88,1.27C114.04,79.08,114.66,78.65,115.29,78.23z"/>
	<path class="st0" d="M282.38,328.86c2.23,0.67,4,1.81,5.3,3.28c1.45-1.48,2.91-2.96,4.38-4.43c-8.05-5.85-16.44-11.25-24.85-16.63
		c-0.58,0.05-1.15,0.1-1.73,0.15c-1.01,2.85,2.08,6.74-2.23,8.75h-1.99c-0.68-0.01-1.35-0.01-2.03-0.02
		c-3.24,1.94-2.74-0.95-2.8-2.38c-0.17-4.44-0.08-8.89-0.09-13.33c-6.63-3.71-13.26-7.42-19.89-11.13
		c-1.07,1.36-1.82,1.92-2.05,2.64c-1.54,4.81-4.54,4.45-8.07,2.41c-2.99-1.73-5.97-3.5-8.95-5.25c-0.7,1.42-1.39,2.84-2.09,4.26
		c4.54,4.1,9.19,8.09,13.49,12.42c0.77,0.78,0.65,3.34-0.04,4.5c-1.9,3.2-4.32,6.08-6.54,9.09c10.92,6.01,21.84,12.03,32.76,18.04
		C259.39,331.51,272.14,325.76,282.38,328.86z"/>
	<path class="st3" d="M217.41,292.92c-0.7,1.42-1.39,2.84-2.09,4.26c-0.63,0.61-1.25,1.22-1.88,1.83c-0.9,1.07-1.8,2.13-2.69,3.2
		c-2.46,2.27-4.92,4.53-7.38,6.8c-3.05,1.75-6.11,3.49-9.16,5.24c-1.49,0.64-2.98,1.29-4.47,1.93c-0.78,0.36-1.56,0.71-2.34,1.07
		c-3.71,1.01-7.42,2.02-11.14,3.03c-1.62,0.31-3.24,0.62-4.87,0.93c-2.69,0.33-5.38,0.65-8.08,0.98c-9.2-0.98-18.43-1.74-27.6-2.99
		c-9.36-1.28-17.93-4.85-25.48-10.58c-16.17-12.27-23.94-29.92-29.75-48.43c-4.07-12.95-3.96-26.49-2.07-39.94
		c0.51-1.83,1.03-3.66,1.54-5.49c0.46-0.08,0.91-0.17,1.37-0.25c0.34,2.27,0.69,4.53,1.03,6.8c0.11,10.53-0.58,21.15,0.54,31.57
		c1.49,13.82,9.04,25.5,16.34,36.92c3.2,5.01,8,9.01,12.07,13.47c0.84,0.74,1.62,1.58,2.54,2.21c9.18,6.36,19.8,8.67,30.5,10.73
		c1.5,0.06,3.02-0.06,4.48,0.2c12.07,2.14,23.85,0.59,35.25-3.35c5.92-2.04,11.44-5.22,17.14-7.89c4.37-4.99,8.74-9.97,13.1-14.96
		C215.35,291.11,216.38,292.01,217.41,292.92z"/>
	<path class="st3" d="M169.2,212.51c-4.03,0.69-8.06,1.4-12.09,2.06c-8.13,1.32-16.25,2.78-24.41,3.83
		c-2.54,0.33-3.91,0.88-4.27,3.61c-2.14,15.87,13.98,35.96,29.87,37.22c5.14,0.41,9.89-0.14,13.65-4.14
		c1.48,0.99,2.97,1.97,4.45,2.96c-0.7,1.05-1.4,2.09-2.1,3.13c-0.97,0.16-2.06,0.09-2.9,0.52c-8.68,4.47-17.41,3.13-25.27-1.27
		c-13.47-7.54-19.75-19.95-20.91-35.12c0-2.12,0-4.23,0-6.54c-15.18-3.12-30.18-5.78-42.45-16c1.53,0.13,3.07,0.26,4.6,0.39
		c7.97,2.74,15.79,6.05,23.93,8.1c11.02,2.78,22.31,2.79,33.54,0.69c3.25-0.61,6.5-1.42,9.78-1.57c12.55-0.58,20.53-9.4,29.68-16.13
		c1.23,0.14,2.46,0.28,3.69,0.43c0.32,0.51,0.64,1.01,0.96,1.52c-4.42,3.78-8.81,7.59-13.27,11.31
		C173.59,209.27,171.37,210.85,169.2,212.51z"/>
	<path class="st4" d="M174.29,261.19c0.7-1.04,1.4-2.09,2.1-3.13c7.98,6.22,16.11,12.26,23.88,18.73
		c4.96,4.14,9.38,8.92,14.05,13.42c-4.37,4.99-8.74,9.97-13.1,14.96c-1.97-2.97-3.99-5.91-5.89-8.93
		c-4.74-7.52-9.49-15.03-14.1-22.62C178.77,269.56,176.59,265.34,174.29,261.19z"/>
	<path class="st12" d="M387.92,234.86c0.9,1.88,3.12,3.19,4.9,4.59c0.8-0.65,1.6-1.29,2.41-1.92c-2.63-2.45-5.26-4.91-7.89-7.36
		c-1.29,0.04-2.58,0.15-3.87,0.12c-3.43-0.07-4.12,1.29-2.23,4.09C383.62,232.2,385.72,230.2,387.92,234.86z"/>
	<path class="st12" d="M382.45,248.49c2.48-2.28,5.03-4.55,7.64-6.77c-0.63-2.1-2.78-3.58-6.6-4.64c-0.79-0.21-1.51-0.66-2.26-1
		c-0.19,4.69-0.4,9.38-0.55,14.07C381.26,249.61,381.85,249.04,382.45,248.49z"/>
	<path class="st19" d="M348.26,217.27c-2.28-5.69,0.4-10.75,2.05-15.93c3.75,2.55,7.49,5.09,11.24,7.63c-0.68,1.68-1.56,3.31-2,5.06
		c-0.81,3.23-2.83,3.51-5.67,3.04C352.07,216.76,350.14,217.18,348.26,217.27z"/>
	<path class="st11" d="M259.23,301.28c0.05-7.63,0.02-15.25,0.25-22.88c0.03-1.05,1.4-2.05,2.15-3.07c0.87,0.91,2.49,1.81,2.5,2.74
		c0.14,7.95,0.01,15.91-0.11,23.87c-0.01,0.57-0.58,1.14-0.9,1.71C261.84,302.86,260.53,302.07,259.23,301.28z"/>
	<path class="st10" d="M267.23,311.09c-0.58,0.05-1.15,0.1-1.73,0.15c-2.34,0.34-4.68,0.68-7.87,1.14c0.54,2.54,1.08,5.06,1.63,7.59
		c-3.23,1.94-2.74-0.95-2.8-2.38c-0.17-4.44-0.08-8.88-0.09-13.33C259.99,306.54,263.61,308.81,267.23,311.09z"/>
	<path class="st20" d="M78.41,220.24c-1.89,13.45-1.99,26.99,2.07,39.94c5.82,18.51,13.58,36.17,29.75,48.43
		c7.55,5.72,16.11,9.3,25.48,10.58c9.16,1.25,18.4,2.01,27.6,2.99c2.33,5.35,4.66,10.7,6.99,16.05
		c-18.92,5.73-37.91,7.02-57.03,1.02c0.99-4.08,3.21-8.31,2.75-12.22c-1.38-11.94-8.43-19.97-19.8-23.91
		c-10.96-3.8-17.88,0.03-20.92,11.23c-4.81-7.65-10.4-14.93-14.28-23.03c-7.77-16.21-8.32-33.67-5.45-51.03
		c0.83-4.99,5.03-9.43,7.68-14.12C68.3,224.19,73.35,222.22,78.41,220.24z"/>
	<path class="st4" d="M75.3,314.35c3.04-11.19,9.96-15.02,20.92-11.23c11.36,3.93,18.41,11.96,19.8,23.91
		c0.45,3.92-1.76,8.14-2.75,12.22C97.31,335.99,86.03,325.58,75.3,314.35z"/>
	<path class="st4" d="M170.3,338.24c-2.33-5.35-4.66-10.7-6.99-16.05c2.69-0.33,5.38-0.65,8.08-0.98c3.3,4.34,6.6,8.69,9.9,13.03
		C177.62,335.57,173.96,336.9,170.3,338.24z"/>
	<path class="st21" d="M277.54,342.66c2.08-2.95,4.44-5.7,7.21-8.14c0.25-0.22,0.5-0.41,0.76-0.57c-1.54-1.68-3.97-2.75-7.15-2.91
		c-10.25-0.48-17.71,3.82-21.2,12.23c3.89,2.86,7.79,5.73,11.68,8.59C271.74,348.8,274.64,345.72,277.54,342.66z"/>
	<path class="st8" d="M278.37,331.05c3.18,0.15,5.61,1.23,7.14,2.91c0.26-0.16,0.52-0.3,0.79-0.42c0.46-0.47,0.93-0.94,1.39-1.41
		c-1.3-1.46-3.07-2.59-5.29-3.26c-10.24-3.11-22.99,2.65-27.41,12.36c0.73,0.68,1.45,1.37,2.18,2.05
		C260.66,334.86,268.11,330.56,278.37,331.05z"/>
	<path class="st0" d="M176.25,320.27c3.71-1.01,7.42-2.02,11.14-3.03c3.75,3.4,7.5,6.81,11.26,10.21
		c-3.31,3.08-6.62,6.16-10.24,9.53C184.25,331.28,180.25,325.77,176.25,320.27z"/>
	<path class="st21" d="M210.75,302.2c0.9-1.07,1.8-2.13,2.69-3.19c4.64,4.08,9.29,8.15,13.87,12.17c-2.98,3.7-5.54,6.87-8.09,10.04
		c-2.98-1.04-5.96-2.09-8.93-3.13c2.34-3.3,4.69-6.59,7.03-9.89c-0.98-0.66-1.96-1.31-2.94-1.97c-0.69-0.31-1.38-0.61-2.08-0.92
		c-0.08-0.42-0.17-0.84-0.25-1.25C211.61,303.44,211.18,302.82,210.75,302.2z"/>
	<path class="st14" d="M219.21,321.22c2.55-3.17,5.11-6.34,8.09-10.04c-4.58-4.02-9.22-8.09-13.87-12.17
		c0.63-0.61,1.25-1.22,1.88-1.83c4.53,4.1,9.19,8.09,13.49,12.42c0.77,0.78,0.65,3.34-0.04,4.5c-1.9,3.19-4.32,6.08-6.54,9.09
		C221.22,322.53,220.22,321.88,219.21,321.22z"/>
	<path class="st11" d="M189.73,316.17c1.49-0.64,2.98-1.29,4.47-1.93c1.34,0.33,2.69,0.66,4.03,1c0.35,0.68,0.7,1.36,1.05,2.04
		c0.32,0.32,0.64,0.64,0.97,0.97c0.68,0.33,1.36,0.66,2.03,0.99c0.35,0.34,0.7,0.67,1.05,1.01c0.13,1.09,0.26,2.17,0.39,3.26
		c-1.4,1-2.81,1.99-4.21,2.99C196.25,323.05,192.99,319.61,189.73,316.17z"/>
	<path class="st15" d="M203.72,323.51c-0.13-1.09-0.26-2.17-0.39-3.26c1.58-1.42,3.13-2.87,4.74-4.25c3.06-2.62,6.15-5.2,9.23-7.79
		c-2.34,3.3-4.69,6.59-7.03,9.89C208.09,319.9,205.91,321.7,203.72,323.51z"/>
	<path class="st16" d="M189.73,316.17c3.26,3.44,6.52,6.88,9.78,10.32c-0.29,0.32-0.58,0.64-0.87,0.95
		c-3.75-3.4-7.5-6.8-11.26-10.21C188.17,316.88,188.95,316.53,189.73,316.17z"/>
	<path class="st20" d="M174.29,261.19c2.3,4.15,4.48,8.37,6.94,12.42c4.61,7.6,9.36,15.11,14.1,22.62c1.9,3.02,3.92,5.96,5.89,8.93
		c-5.7,2.66-11.23,5.84-17.14,7.89c-11.4,3.94-23.18,5.49-35.25,3.35c-1.46-0.26-2.99-0.14-4.48-0.2c0.85-1.35,1.56-2.82,2.56-4.04
		c4.37-5.29,4.86-12.57,0.75-17.87c-4.7-6.06-10.77-10.26-18.37-11.87c-8.77-1.86-17.67,4.23-18.77,13.04
		c-0.31,2.53,0.5,5.2,0.79,7.8c-4.07-4.46-8.87-8.45-12.07-13.47c-7.3-11.43-14.86-23.1-16.34-36.92
		c-1.12-10.42-0.43-21.04-0.54-31.57c10.39,2.27,20.71,4.98,31.21,6.57c3.67,0.56,7.76-1.62,11.66-2.54
		c1.15,15.17,7.43,27.58,20.9,35.12c7.86,4.4,16.59,5.74,25.27,1.27C172.23,261.28,173.32,261.35,174.29,261.19z"/>
	<path class="st6" d="M40.38,19.76c-4.46,4.27-8.37,8-12.59,12.04c-2.72-3.7-3.61-7.06-0.36-9.35
		C30.65,20.19,33.41,14.92,40.38,19.76z"/>
	<path class="st5" d="M10.31,43.27c-0.39,2.56-0.79,5.11-1.24,8.06c-5.24-2.14-5.1-6.32-5.73-10.08
		C7.24,36.52,8.44,41.04,10.31,43.27z"/>
	<path class="st7" d="M7,30.3c0.71,0.52,1.43,1.05,2.14,1.57c0,1.58,0,3.17,0,4.88C4.66,35.05,4.4,34.14,7,30.3z"/>
	<path class="st22" d="M313.44,254.19c0.62,0.03,1.24,0.06,1.85,0.08l-0.05-0.05c1.22,4.52,2.38,9.06,3.7,13.55
		c0.77,2.61,1.68,5.19,2.81,7.66c0.5,1.09,1.7,1.87,2.58,2.79c0.31,1.01,0.61,2.02,0.92,3.03c0.34,0.34,0.67,0.68,1.01,1.02
		c-0.11,0.58-0.23,1.16-0.34,1.74c-0.52,0.74-1.04,1.48-1.57,2.22c-0.71-0.33-1.41-0.67-2.12-1c-1.84,0.03-3.7-0.13-5.5,0.16
		c-2,0.32-3.94,1.05-5.91,1.6c-0.1-0.36-0.2-0.73-0.29-1.09c3.17-1.45,6.35-2.9,9.52-4.35c-0.21-0.5-0.43-1-0.64-1.49
		c-6.35,2.11-12.69,4.22-19.04,6.32c-0.03-0.71-0.06-1.43-0.09-2.14c6.24-2.2,12.47-4.41,18.71-6.61c-0.17-0.52-0.33-1.04-0.5-1.56
		c-6.06,1.75-12.12,3.5-18.17,5.25c-0.03-0.6-0.06-1.19-0.09-1.79c5.63-1.97,11.25-3.94,16.88-5.91c-0.18-0.53-0.35-1.07-0.53-1.6
		c-6.08,1.78-12.16,3.56-18.23,5.35c-0.04-0.59-0.08-1.18-0.12-1.77c6.17-2.16,12.33-4.32,18.5-6.49c-0.18-0.55-0.36-1.09-0.54-1.64
		c-5.91,1.68-11.82,3.36-17.74,5.04c-0.05-0.42-0.11-0.85-0.16-1.27c5.58-2.12,11.17-4.24,16.75-6.36c-0.2-0.51-0.4-1.01-0.59-1.52
		c-6.36,2-12.73,4-19.09,6c-0.03-0.64-0.07-1.28-0.1-1.92c6.01-2.13,12.01-4.26,18.02-6.39c-0.2-0.58-0.4-1.16-0.6-1.74
		c-6.43,2.02-12.87,4.04-19.3,6.06c-0.04-0.66-0.08-1.32-0.12-1.97c5.4-1.79,10.83-3.49,16.16-5.45c1.15-0.42,1.94-1.81,2.89-2.76
		C312.67,254.85,313.05,254.52,313.44,254.19z"/>
	<path class="st12" d="M323.22,251.24c5.91-2.12,11.81-4.27,17.77-6.26c0.48-0.16,1.36,0.87,2.05,1.35c0.08,1.65,0.17,3.3,0.25,4.95
		c0.01,0.48,0.03,0.95,0.04,1.43c2.12-0.3,3.66-0.15,1.93,2.51c0.02,0.64,0.03,1.27,0.04,1.91c0.54,0.46,1.07,0.93,1.61,1.39
		c-0.87,0.61-1.73,1.22-2.6,1.83c0.01,0.41,0.01,0.82,0.01,1.23c1.13-0.05,2.26-0.1,4.42-0.2c-1.2,1.4-1.83,2.14-2.46,2.87
		c0.02,0.49,0.05,0.99,0.07,1.49c1.29,0.47,2.58,0.94,3.87,1.41c0.38,0.96,0.75,1.93,1.13,2.89c-0.36,0.73-0.71,1.47-1.07,2.2
		c0.33,0.58,0.67,1.17,1,1.75c-0.26,0.52-0.44,1.21-0.68,1.78c0.63-0.42,1.27-0.83,1.92-1.23c0.91-0.94,1.84-1.85,2.8-2.74
		c0.12-0.12,0.23-0.24,0.35-0.36c-0.83-2.73-1.61-5.47-2.43-8.2c-2.02-5.99-4.04-11.99-6.06-17.98c-1.4-4.82-4.2-5.97-8.74-3.68
		c-1.87,0.95-4.1,1.18-6.16,1.74c-4.63,1.74-9.27,3.47-14.68,5.49c1.75,1.24,2.64,1.87,3.53,2.5
		C321.82,251.29,322.52,251.27,323.22,251.24z"/>
	<path class="st12" d="M334.33,282.14c-0.82-1.65-1.61-3.24-2.41-4.84c-0.58,0.32-1.15,0.64-1.73,0.96
		c-0.47,0.66-0.93,1.31-1.4,1.96c0.43,1.68,0.87,3.37,1.31,5.05l0.36-0.15l0.39,0.03c0.85,0.4,1.7,0.81,2.55,1.21
		c2.04-0.65,4.07-1.3,6.11-1.96c2.85-2.53,5.81-4.91,8.9-7.1C343.79,279,339.09,280.53,334.33,282.14z"/>
	<path class="st12" d="M293.24,263.39c0.04,0.66,0.08,1.32,0.11,1.97c0.63,0.69,1.26,1.38,1.89,2.07c0.03,0.64,0.07,1.28,0.1,1.92
		c0.98,0.63,1.96,1.26,2.94,1.88c0.05,0.42,0.11,0.85,0.16,1.27c-0.07,1.03-0.15,2.05-0.22,3.08c0.04,0.59,0.08,1.18,0.12,1.77
		c0.63,0.72,1.26,1.45,1.88,2.17c0.03,0.6,0.06,1.19,0.09,1.79c-0.01,0.97-0.02,1.94-0.04,2.92c0.03,0.71,0.06,1.43,0.09,2.14
		c1.86,0.66,3.72,1.31,5.57,1.97c-1.22,0.91-2.46,1.83-3.7,2.75c0.29,0.58,0.59,1.17,0.88,1.75c6.37-2.54,12.74-5.08,19.11-7.61
		c0.7,0.33,1.41,0.67,2.12,1c0.91,0.59,1.81,1.17,3.44,2.23c-8.74,2.97-16.78,5.81-24.93,8.33c-0.87,0.27-3.04-1.1-3.4-2.13
		c-4.08-11.53-7.93-23.14-12.14-35.62c8.67-3.04,17.32-6.07,25.97-9.1c0.75,0.21,1.51,0.43,1.95,0.56c-0.62,1.27-1.21,2.49-1.8,3.7
		c-0.38,0.33-0.77,0.66-1.15,0.99c-6.23,1.83-12.48,3.62-18.67,5.59C293.25,260.9,293.35,262.49,293.24,263.39z"/>
	<path class="st16" d="M328.79,280.22c0.44,1.68,0.88,3.37,1.32,5.05c-1.4-0.42-2.79-0.84-4.19-1.26c0.11-0.58,0.22-1.16,0.34-1.74
		c-0.34-0.34-0.67-0.68-1.01-1.02c-0.31-1.01-0.61-2.02-0.92-3.03c0.7-0.36,1.41-0.71,2.11-1.07c0.33,0.29,0.66,0.58,0.98,0.87
		C327.88,278.76,328.33,279.49,328.79,280.22z"/>
	<path class="st22" d="M330.85,285.15c0.85,0.4,1.7,0.81,2.55,1.21c-0.85,0.16-1.7,0.31-2.56,0.47
		C330.84,286.27,330.85,285.71,330.85,285.15z"/>
	<path class="st19" d="M321.28,210.26c-0.03,0.62-0.06,1.25-0.09,1.87l0.01,0.06c-0.39,0.02-0.78,0.03-1.17,0.05l-0.41,0.02
		c-2.39,0.99-4.91,1.76-7.15,3.02c-2.58,1.44-4.38,0.97-5.87-1.41c-5.87-9.38-11.67-18.82-17.64-28.13
		c-1.97-3.07-1.57-5.08,1.67-6.73c1.61-0.82,2.93-2.5,4.58-2.86c1.79-0.39,4.9-0.39,5.56,0.64
		C307.83,187.8,314.5,199.06,321.28,210.26z"/>
	<path class="st11" d="M296.2,170.34c-1.05,5.69-6.69,5.77-9.81,8.94c-0.37-0.22-0.73-0.45-1.1-0.67c0.6-3.32,1.2-6.63,1.7-9.37
		C290.54,169.66,293.37,170,296.2,170.34L296.2,170.34z"/>
	<path class="st22" d="M319.62,212.26l0.41-0.02c0.39-0.02,0.78-0.03,1.16-0.05l-0.01-0.06c2.53,0.29,3.02,1.95,1.16,3.17
		c-3.5,2.3-7.4,4-11.14,5.95c-0.68-4.6,4.33-4.26,6-6.85C317.77,213.53,318.81,212.97,319.62,212.26z"/>
	<path class="st14" d="M390.09,241.72c0.9-0.77,1.81-1.52,2.73-2.27c-1.78-1.4-4.01-2.7-4.9-4.59c-2.2-4.65-4.3-2.66-6.68-0.48
		c-0.01,0.57-0.01,1.14-0.02,1.71c0.75,0.34,1.48,0.78,2.26,1C387.3,238.14,389.45,239.62,390.09,241.72z"/>
	<path class="st21" d="M234.24,222.47c-3.73,7.47-7.45,14.94-11.18,22.41c-0.07,0.15-0.2,0.26-0.3,0.4
		c-1.72,2.38-3.14,6.35-5.23,6.74c-2.51,0.47-5.66-1.98-8.39-3.42c-4.21-2.22-8.34-4.6-12.42-7.04c-0.69-0.41-0.97-1.52-1.44-2.3
		c0.35-1.66,0.7-3.32,1.05-4.98l-0.02,0.01c0.34-0.33,0.67-0.67,1.01-1h0.02c1.84-2.24,4.05-4.27,5.46-6.75
		c3.93-6.91,7.66-13.94,11.21-21.04c2.03-4.06,4.23-5.61,8.32-2.39c2.03,1.6,4.52,2.59,7.07,4.01c-1.73,3.62-3.35,7.01-5.39,11.28
		C227.69,219.85,230.97,221.16,234.24,222.47z"/>
	<path class="st22" d="M188.4,238.18c-2.63-3.4,0.33-5.51,1.85-7.94c2.27,0.66,4.53,1.31,6.8,1.97c0.09,0.35,0.19,0.71,0.29,1.06
		h-0.02c-0.34,0.33-0.67,0.67-1.01,1l0.02-0.01c-0.83,1.57-1.67,3.14-2.5,4.71C192.01,238.71,190.21,238.45,188.4,238.18z"/>
	<path class="st22" d="M206.47,202.31c-0.4-0.02-0.79-0.04-1.19-0.06c1.96-5.86,3.53-6.98,7.12-4.81c0.75,0.45,1.62,1.99,1.36,2.52
		c-0.39,0.8-1.64,1.37-2.63,1.64C209.63,202.01,208.03,202.09,206.47,202.31z"/>
	<path class="st11" d="M230.44,210.66c1.27,3.13,2.53,6.26,3.8,9.38C227.41,218.2,227.41,218.2,230.44,210.66z"/>
	<path class="st8" d="M193.82,238.98c0.83-1.57,1.67-3.14,2.5-4.71c-0.35,1.66-0.7,3.32-1.05,4.98
		C194.79,239.16,194.3,239.07,193.82,238.98z"/>
	<path class="st22" d="M327.43,278.03c-0.33-0.29-0.66-0.58-0.98-0.87c0.11-2.55,0.98-7.03,0.21-7.33c-3.43-1.35-1-4.03-2-5.79
		c-1.73-3.06-3.2-6.29-4.46-9.57c-0.31-0.81,0.59-2.09,0.94-3.16c0.7-0.03,1.4-0.05,2.09-0.08c1.47,0.13,3.06,0.69,4.39,0.32
		c4.69-1.3,9.28-2.91,13.92-4.41c-1.24,1.24-2.27,2.99-3.76,3.62c-3.94,1.67-8.09,2.85-12.15,4.22c0.17,0.52,0.35,1.04,0.52,1.55
		c5.72-1.76,11.43-3.51,17.15-5.27c0.01,0.48,0.03,0.95,0.04,1.42c-5.64,2.32-11.28,4.64-16.92,6.96c0.14,0.38,0.28,0.77,0.42,1.15
		c6.14-1.86,12.29-3.73,18.43-5.59c0.01,0.64,0.02,1.27,0.04,1.91c-5.91,2.18-11.83,4.36-17.74,6.54c0.18,0.48,0.36,0.97,0.54,1.45
		c5.4-1.59,10.8-3.18,16.2-4.78c0,0.41,0,0.82,0.01,1.23c-4.95,2.12-9.9,4.25-14.85,6.38c0.17,0.44,0.33,0.88,0.5,1.31
		c5.44-1.67,10.88-3.35,16.32-5.02c0.02,0.5,0.05,1,0.07,1.49c-5.2,2.16-10.4,4.32-15.6,6.49c0.16,0.39,0.31,0.79,0.47,1.18
		c6.33-2.08,12.66-4.17,19-6.25c0.38,0.96,0.75,1.93,1.13,2.9c-6.48,2.42-12.95,4.84-19.43,7.27c-0.58,0.32-1.15,0.64-1.72,0.96
		C329.27,278.19,328.35,278.11,327.43,278.03z"/>
	<path class="st22" d="M315.29,254.27c0.08-0.14,0.16-0.28,0.24-0.42c-0.1,0.12-0.19,0.25-0.29,0.37
		C315.25,254.23,315.29,254.27,315.29,254.27z"/>
	<path class="st0" d="M284.98,285.53c0,2.52,0.53,4.72-0.23,6.28c-0.35,0.73-3.32,0.6-4.89,0.14c-0.75-0.22-1.02-2.12-1.5-3.25
		c0.86-0.27,1.76-0.44,2.57-0.83C281.98,287.38,282.96,286.71,284.98,285.53z"/>
	<path class="st11" d="M287.72,222.92c-2.82,0.41-5.92,1.25-7.37-2.38c-0.37-0.94,0.88-2.52,1.38-3.81
		c2.31,1.44,4.61,2.89,6.92,4.33C288.34,221.68,288.03,222.3,287.72,222.92z"/>
	<path class="st19" d="M266.29,244.26c-4.61-0.65-9.29-1.04-13.8-2.13c-1.02-0.25-1.77-2.81-2.1-4.42c-0.36-1.76-0.1-3.64-0.11-5.47
		c3.85-5.98,8.53-1.28,12.71-0.73c3.59,0.47,3.46,3.55,2.96,6.61C265.62,240.1,266.14,242.21,266.29,244.26z"/>
	<path class="st23" d="M168.34,159.66c-0.06,8.48-4.1,15.75-13.03,19.99c-5.89,2.8-11.38,1.78-14.34-2.57
		c-2.43-3.57-0.49-9.52,3.92-13.68c2.54-2.39,4.35-5.54,6.71-8.14c2.09-2.29,4.15-5,6.82-6.29
		C163.94,146.33,168.24,150.64,168.34,159.66z M165.27,158.93c-1.1-2.21-2.19-4.41-3.29-6.62c-2.33,1.54-4.81,2.89-6.91,4.7
		c-1.03,0.89-1.08,2.82-1.99,3.94c-1.31,1.63-3.3,2.76-4.46,4.46c-1.92,2.82-5.08,6.17-4.7,8.86c0.55,3.83,5.04,3.63,8.34,2.56
		C158.72,174.74,164.74,168.18,165.27,158.93z"/>
	<path class="st1" d="M147.53,132.22c2.1-0.64,4.2-1.77,6.31-1.81c5.15-0.09,8.26-2.68,10.5-7c1.06-2.05,2.41-4.01,3.95-5.72
		c0.67-0.74,2.15-0.73,3.27-1.06c0,1.04,0.4,2.32-0.06,3.07c-4.47,7.32-8.39,15.46-18.98,15.06c-1.67-0.06-3.33-0.48-4.99-0.74
		C147.53,133.42,147.53,132.82,147.53,132.22z"/>
	<path class="st1" d="M119.54,163.7c-0.57,8.04-12.77,18.4-19.96,17.4c-0.82-0.11-1.53-1.01-2.29-1.54
		c0.54-0.71,1.01-1.98,1.62-2.06c8.69-1.09,14.38-5.66,17.14-14.02c0.22-0.66,1.75-1.01,2.72-1.22
		C118.96,162.23,119.43,163.5,119.54,163.7z"/>
	<path class="st24" d="M153.48,102.9c-5.64,4.16-11.28,8.32-17.19,12.68c-0.43-5.6,8.65-12.98,16.21-13.8
		C152.83,102.15,153.16,102.52,153.48,102.9z"/>
	<path class="st24" d="M80.81,166.54c-0.99-4.67,6.21-14.04,9.51-14.58c0.69-0.11,1.61,0.17,2.17,0.6c0.31,0.24,0.36,1.42,0.06,1.74
		C88.68,158.42,84.73,162.47,80.81,166.54z"/>
	<path class="st25" d="M259.26,319.97c-0.54-2.52-1.08-5.05-1.63-7.59c3.19-0.46,5.53-0.8,7.87-1.14c-1.01,2.85,2.08,6.74-2.23,8.75
		c-0.66,0-1.33,0-1.99,0C260.61,319.98,259.93,319.98,259.26,319.97z"/>
	<path class="st10" d="M261.28,319.99c0.66,0,1.33,0,1.99,0C262.61,319.99,261.95,319.99,261.28,319.99z"/>
	<path class="st4" d="M111.3,303.26c-0.3-2.6-1.11-5.27-0.79-7.8c1.09-8.81,10-14.91,18.77-13.04c7.6,1.62,13.67,5.81,18.37,11.87
		c4.11,5.3,3.62,12.58-0.75,17.87c-1.01,1.22-1.72,2.69-2.56,4.04c-10.7-2.06-21.32-4.37-30.5-10.73
		C112.92,304.84,112.15,304,111.3,303.26z"/>
	<path class="st26" d="M210.75,302.2c0.43,0.62,0.86,1.24,1.3,1.86c-1.63,1.68-3.26,3.37-4.88,5.05c-0.33,0.34-0.65,0.68-0.98,1.02
		c-0.97,0.71-1.94,1.41-2.9,2.12c0.03-1.08,0.06-2.17,0.08-3.25C205.82,306.73,208.28,304.47,210.75,302.2z"/>
	<path class="st27" d="M203.36,309c-0.03,1.08-0.06,2.17-0.08,3.25l0.02-0.03c-0.34,0.34-0.68,0.68-1.03,1.02l0.02-0.02
		c-0.34,0.34-0.68,0.68-1.02,1.02l0.02-0.02c-0.34,0.34-0.68,0.68-1.02,1.02l0.02-0.02c-0.69,0-1.38,0-2.06,0
		c-1.34-0.33-2.69-0.66-4.03-1C197.26,312.49,200.31,310.75,203.36,309z"/>
	<path class="st27" d="M217.31,308.2c-3.08,2.6-6.17,5.17-9.23,7.79c-1.61,1.38-3.16,2.83-4.74,4.25c-0.35-0.34-0.7-0.67-1.05-1.01
		c0-0.67,0.01-1.33,0.01-2l-0.02,0.02c0.34-0.34,0.68-0.68,1.02-1.02l-0.02,0.02c0.34-0.34,0.68-0.68,1.02-1.01l-0.01,0.01
		c0.34-0.34,0.67-0.67,1.01-1.01l-0.01,0.01c0.34-0.34,0.67-0.67,1.01-1.01l-0.01,0.01c2-2,4-4,6.01-6.01l-0.01,0.01
		c0.69-0.34,1.39-0.67,2.08-1.01C215.35,306.89,216.33,307.55,217.31,308.2z"/>
	<path class="st27" d="M207.16,309.11c1.63-1.68,3.26-3.37,4.88-5.05c0.08,0.42,0.16,0.83,0.25,1.25c0,0.64-0.01,1.29-0.01,1.93
		l0.01-0.01c-1.59,0.76-3.18,1.53-4.77,2.29C207.41,309.39,207.29,309.25,207.16,309.11z"/>
	<path class="st10" d="M212.28,307.25c0-0.64,0.01-1.29,0.01-1.93c0.69,0.31,1.38,0.61,2.08,0.92
		C213.67,306.57,212.98,306.91,212.28,307.25z"/>
	<path class="st27" d="M203.28,312.25c0.97-0.71,1.94-1.41,2.9-2.12l0.38,0.32c-0.09,0.93-0.18,1.86-0.27,2.79l0.01-0.01
		c-0.34,0.34-0.67,0.67-1.01,1.01l0.01-0.01c-0.34,0.34-0.67,0.67-1.01,1.01l0.01-0.01c-0.34,0.34-0.68,0.68-1.01,1.01l0.02-0.02
		c-0.34,0.34-0.68,0.68-1.02,1.02l0.02-0.02c-0.68,0.34-1.36,0.67-2.04,1.01c-0.32-0.32-0.64-0.64-0.97-0.97
		c0.34-0.68,0.67-1.36,1.01-2.04l-0.02,0.02c0.34-0.34,0.68-0.68,1.02-1.02l-0.02,0.02c0.34-0.34,0.68-0.68,1.02-1.02l-0.02,0.02
		c0.34-0.34,0.68-0.68,1.03-1.02L203.28,312.25z"/>
	<path class="st10" d="M200.25,318.24c0.68-0.34,1.36-0.67,2.04-1.01c0,0.67-0.01,1.33-0.01,2
		C201.61,318.9,200.93,318.57,200.25,318.24z"/>
	<path class="st26" d="M200.3,315.23c-0.34,0.68-0.67,1.36-1.01,2.04c-0.35-0.68-0.7-1.36-1.05-2.04
		C198.92,315.23,199.61,315.23,200.3,315.23z"/>
	<path class="st15" d="M322.23,285.23c-6.37,2.54-12.74,5.08-19.11,7.61c-0.29-0.58-0.59-1.17-0.88-1.75
		c1.24-0.92,2.48-1.85,3.7-2.75c-1.85-0.65-3.71-1.31-5.57-1.97c6.35-2.11,12.69-4.22,19.04-6.32c0.21,0.5,0.43,1,0.64,1.49
		c-3.17,1.45-6.35,2.9-9.52,4.35c0.1,0.36,0.2,0.73,0.29,1.09c1.97-0.55,3.91-1.28,5.91-1.6
		C318.53,285.1,320.39,285.27,322.23,285.23z"/>
	<path class="st15" d="M293.24,263.39c0.12-0.9,0.01-2.49,0.38-2.61c6.19-1.97,12.43-3.76,18.67-5.59
		c-0.95,0.94-1.74,2.33-2.89,2.76C304.06,259.9,298.63,261.6,293.24,263.39z"/>
	<path class="st15" d="M298.22,275.58c0.07-1.03,0.15-2.06,0.22-3.08c5.91-1.68,11.83-3.36,17.74-5.04
		c0.18,0.55,0.36,1.09,0.54,1.64C310.55,271.26,304.39,273.42,298.22,275.58z"/>
	<path class="st15" d="M295.24,267.43c-0.63-0.69-1.26-1.38-1.89-2.07c6.43-2.02,12.87-4.04,19.3-6.06c0.2,0.58,0.4,1.16,0.6,1.74
		C307.25,263.17,301.24,265.3,295.24,267.43z"/>
	<path class="st15" d="M300.28,284.23c0.01-0.97,0.02-1.95,0.03-2.92c6.06-1.75,12.12-3.5,18.18-5.25c0.17,0.52,0.33,1.04,0.5,1.56
		C312.75,279.83,306.51,282.03,300.28,284.23z"/>
	<path class="st15" d="M298.28,271.23c-0.98-0.63-1.96-1.26-2.94-1.88c6.36-2,12.73-4,19.09-5.99c0.2,0.51,0.4,1.01,0.59,1.52
		C309.45,266.99,303.86,269.11,298.28,271.23z"/>
	<path class="st15" d="M300.22,279.53c-0.63-0.72-1.26-1.45-1.88-2.17c6.08-1.78,12.16-3.56,18.23-5.35
		c0.18,0.53,0.35,1.07,0.53,1.6C311.48,275.59,305.85,277.56,300.22,279.53z"/>
	<path class="st8" d="M325.25,281.26c0.34,0.34,0.67,0.68,1.01,1.02C325.92,281.94,325.58,281.6,325.25,281.26z"/>
	<path class="st15" d="M348.42,277.29c0.72-0.51,1.44-1.02,2.18-1.51c0.23-0.57,0.42-1.26,0.67-1.79
		c-4.51,1.35-9.02,2.71-13.53,4.06c-0.21-0.62-0.43-1.24-0.64-1.86c4.39-1.32,8.78-2.63,13.17-3.95c0.36-0.73,0.71-1.47,1.07-2.2
		c-6.48,2.43-12.95,4.85-19.43,7.27c0.8,1.59,1.6,3.19,2.41,4.83C339.09,280.52,343.8,278.99,348.42,277.29z M335.59,277.45
		c0.06-0.01,0.19,0.24,0.29,0.37c-0.27,0.12-0.54,0.24-0.81,0.36c-0.1-0.14-0.19-0.26-0.3-0.39
		C335.04,277.67,335.31,277.52,335.59,277.45z"/>
	<path class="st15" d="M341.53,247.15c-4.63,1.49-9.23,3.11-13.92,4.41c-1.33,0.37-2.92-0.19-4.39-0.32
		c5.91-2.11,11.82-4.27,17.77-6.26c0.48-0.16,1.35,0.87,2.05,1.35C342.54,246.6,342.03,246.87,341.53,247.15z"/>
	<path class="st15" d="M346.27,264.24c-5.44,1.67-10.88,3.35-16.32,5.02c-0.17-0.44-0.33-0.88-0.5-1.31
		c4.95-2.13,9.9-4.26,14.85-6.38c1.13-0.05,2.26-0.1,4.42-0.2C347.53,262.78,346.9,263.51,346.27,264.24z"/>
	<path class="st15" d="M344.3,260.35c-5.4,1.59-10.8,3.18-16.2,4.78c-0.18-0.48-0.36-0.97-0.54-1.45
		c5.91-2.18,11.83-4.36,17.74-6.54c0.54,0.46,1.07,0.93,1.61,1.39C346.04,259.13,345.17,259.74,344.3,260.35z"/>
	<path class="st8" d="M345.26,255.22c-6.14,1.86-12.29,3.73-18.43,5.59c-0.14-0.38-0.28-0.77-0.42-1.15
		c5.64-2.32,11.28-4.64,16.92-6.96C345.45,252.41,346.99,252.56,345.26,255.22z"/>
	<path class="st10" d="M350.21,267.15c-6.33,2.08-12.66,4.17-19,6.25c-0.16-0.39-0.31-0.79-0.47-1.18c5.2-2.16,10.4-4.33,15.6-6.49
		C347.63,266.21,348.92,266.68,350.21,267.15z"/>
	<path class="st8" d="M341.53,247.15c0.51-0.27,1.01-0.55,1.51-0.82c0.08,1.65,0.16,3.3,0.25,4.96c-5.72,1.76-11.43,3.51-17.15,5.27
		c-0.17-0.52-0.35-1.04-0.52-1.55c4.06-1.38,8.21-2.56,12.15-4.22C339.26,250.14,340.29,248.39,341.53,247.15z"/>
	<path class="st22" d="M351.27,274c-4.51,1.35-9.02,2.71-13.53,4.06c-0.21-0.62-0.43-1.24-0.64-1.86c4.39-1.32,8.78-2.63,13.17-3.95
		C350.6,272.83,350.94,273.41,351.27,274z"/>
	<path class="st8" d="M327.43,278.03c0.92,0.08,1.84,0.15,2.76,0.23c-0.46,0.65-0.93,1.31-1.4,1.96
		C328.33,279.49,327.88,278.76,327.43,278.03z"/>
	<path class="st8" d="M321.2,212.19c-0.39,0.02-0.77,0.03-1.16,0.05C320.42,212.22,320.81,212.21,321.2,212.19z"/>
	<path class="st8" d="M196.3,234.28c0.34-0.33,0.67-0.67,1.01-1C196.97,233.61,196.64,233.95,196.3,234.28z"/>
	<path class="st17" d="M165.27,158.93c-0.53,9.24-6.55,15.81-13.01,17.92c-3.29,1.08-7.79,1.28-8.34-2.56
		c-0.38-2.7,2.78-6.04,4.7-8.86c1.16-1.71,3.15-2.83,4.46-4.46c0.91-1.13,0.96-3.06,1.99-3.94c2.09-1.81,4.58-3.16,6.91-4.7
		C163.07,154.52,164.17,156.73,165.27,158.93z"/>
	<path class="st27" d="M206.18,310.14c0.33-0.34,0.65-0.68,0.98-1.02c0.12,0.13,0.24,0.27,0.36,0.41c-0.32,0.31-0.64,0.62-0.96,0.92
		C206.56,310.45,206.18,310.14,206.18,310.14z"/>
	<path class="st26" d="M201.3,314.23c-0.34,0.34-0.68,0.68-1.02,1.02C200.62,314.91,200.96,314.57,201.3,314.23z"/>
	<path class="st26" d="M203.3,312.23c-0.34,0.34-0.68,0.68-1.03,1.02C202.62,312.91,202.96,312.57,203.3,312.23z"/>
	<path class="st26" d="M202.3,313.23c-0.34,0.34-0.68,0.68-1.02,1.02C201.62,313.91,201.96,313.57,202.3,313.23z"/>
	<path class="st10" d="M206.56,310.45c0.32-0.31,0.64-0.62,0.96-0.92c1.59-0.76,3.18-1.53,4.77-2.29c-2,2-4,4-6.01,6.01
		C206.38,312.31,206.47,311.38,206.56,310.45z"/>
	<path class="st10" d="M202.28,317.25c0.34-0.34,0.68-0.68,1.02-1.02C202.96,316.57,202.62,316.91,202.28,317.25z"/>
	<path class="st10" d="M203.28,316.25c0.34-0.34,0.68-0.68,1.01-1.01C203.96,315.57,203.62,315.91,203.28,316.25z"/>
	<path class="st10" d="M204.28,315.25c0.34-0.34,0.67-0.67,1.01-1.01C204.96,314.57,204.62,314.91,204.28,315.25z"/>
	<path class="st10" d="M205.28,314.25c0.34-0.34,0.67-0.67,1.01-1.01C205.96,313.57,205.62,313.91,205.28,314.25z"/>
	<path class="st12" d="M335.07,278.18c-0.1-0.13-0.2-0.26-0.29-0.39c0.27-0.12,0.54-0.27,0.82-0.34c0.06-0.02,0.19,0.24,0.29,0.37
		C335.62,277.93,335.34,278.05,335.07,278.18z"/>
</g>
</svg>
