<?xml version="1.0" encoding="utf-8"?>
<!-- Generator: Adobe Illustrator 23.0.3, SVG Export Plug-In . SVG Version: 6.00 Build 0)  -->
<svg version="1.1" id="Ebene_1" xmlns="http://www.w3.org/2000/svg" xmlns:xlink="http://www.w3.org/1999/xlink" x="0px" y="0px"
	 viewBox="0 0 706.4 250.2" style="enable-background:new 0 0 706.4 250.2;" xml:space="preserve">
<style type="text/css">
	.st0{display:none;}
	.st1{display:inline;}
	.st2{fill:#E6E6E6;}
	.st3{fill:#CCCCCC;}
	.st4{fill:#20201E;}
	.st5{fill:#CC3E63;}
	.st6{display:none;fill:#846F75;}
	.st7{fill:#E5385D;}
	.st8{fill:#FF99A3;}
	.st9{fill:#8E5960;}
	.st10{fill:#846F75;}
	.st11{display:inline;fill:#E5385D;}
	.st12{fill:#D6D6D6;}
</style>
<g class="st0">
	<g id="cat_eat_1_" class="st1">
		<path class="st2" d="M254.1,202.6c0,0-2.6-5.8-9-12.1c-0.2-0.2-1.1-1.1-2.4-1.8c-0.2-0.1-0.5-0.2-0.9-0.4
			c-1.9-0.8-2.6-1.2-2.9-1.3c-2.5-0.9-7.5,5.8-8,6.4c-2.6,3.5-2.7,5.3-4.6,8.3c-0.2,0.4-0.9,1.4-1.2,2.9c-0.1,0.5-0.2,0.9-0.2,1.2
			c1,0.6,2.1,1.3,3.2,2.3c0.6,0.6,1.2,1.1,1.7,1.6c0,0,0.9,1.1,1.3,2.6c0.9,4.4-1.2,9-6,10.5c-5.4,1.7-11.2,3.3-16.8,3.6
			c-12.3,0.6-24.7,0.2-37.1,0.3c-5.2,0-9.8,1.4-13,5.4c-4.4,10,2.6,18.6,14.6,17.8c8.5-0.6,17-0.2,25.5-0.7c9.5-0.6,19-1.3,28.4-2.8
			c15-2.3,24.6-10.4,29.2-23.2c1.3-3.5,1.3-6.7,1.2-9.1C256.9,208.8,255.2,204.9,254.1,202.6z"/>
		<path class="st2" d="M136.7,220.2c-7.7,2.1-14.6,0.2-16.9-4c-0.8-1.4-1.9-4.8-0.3-7.8c1.2-2.3,3.4-3.2,4.2-3.4c0-14.3,0-28.7,0-43
			c-1.4-3.3-0.9-7.1,1.3-9.9c3.3-4.1,8.4-3.6,8.7-3.6h1.9c6.8,0,12.3,5.5,12.3,12.3v43.8c0.1,0.9,0.7,6.4-3.3,11
			C141.7,219,137.9,219.9,136.7,220.2z"/>
		<path class="st2" d="M104,218.6c-7.7,2.1-14.6,0.2-16.9-4c-0.8-1.4-1.9-4.8-0.3-7.8c1.2-2.3,3.4-3.2,4.2-3.4c0-14.3,0-28.7,0-43
			c-1.4-3.3-0.9-7.1,1.3-9.9c3.3-4.1,8.4-3.6,8.7-3.6h1.9c6.8,0,12.3,5.5,12.3,12.3V203c0.1,0.9,0.7,6.4-3.3,11
			C109.1,217.5,105.2,218.4,104,218.6z"/>
		<path class="st2" d="M235.3,197.7c3.7-5,4.9-10,5.9-13.7c0.3-1.1,0.9-3.8,1.2-7.4c1.1-12.1-2.4-22.7-3.6-26.3
			c-3.4-10.1-8.5-17.6-12.5-22.6c-2.3-2.4-5.4-5.5-9.5-8.7c-3.8-3-7.8-6.2-13.7-9.1c-7-3.4-14.6-5.5-22.7-6.3
			c-1.5-0.1-3.1-0.4-5.9-0.7c-9.2-1-21.2-2.2-35.6-1.5c-12.7,0.6-19.1,0.8-26.2,3.4c-5.9,2.1-15,5.5-21.1,14.6
			c-4.1,6.1-5.3,12.4-5.6,14.6c-0.4,2.2-1.1,6.6-0.2,12c0.6,3.3,1.6,6.2,2.1,7.7c0.8,2.3,1.6,4.1,2.1,5.1
			c3.9,7.8,9.5,12.3,12.1,14.3c3.9,3,7.3,4.7,12.5,7.3c3.7,1.8,6.5,3,8.6,3.8c9.1,3.7,18.6,7.1,26.1,9.7c2.5,0.3,6.4,0.4,11.1-0.3
			c-0.7,3.7-1.8,6.6-1.8,9.6c-0.1,7.2,3.9,12.5,11,13.2c8,0.8,16.1,0.5,24.2,0.2c8.9-0.4,17.4-3,25.5-6.6c3.6-1.6,6-3.3,7.3-4.2
			C229.1,204,232.3,201.7,235.3,197.7z"/>
		<path class="st3" d="M80.6,168.9c16,2.6,28.5,0.4,32.1-0.3c1-0.2,5.1-1,10.3-2.7c4.8-1.6,10.2-3.4,16-7.5c1.3-0.9,2.3-1.7,3-2.3
			l2.8-2.5c2.8-2.4-2.8,2.5-2.8,2.5c-0.1-0.1,1-1.6,2.8-2.5c0.7-0.3,1.3-0.6,2-0.5c1.5,0.2,1.8,1.5,3.7,2.3c0.9,0.4,2.9,1,3.8,0.1
			c0.8-0.9,0.3-2.7-0.2-3.7c-0.2-0.4-0.4-1.1-1.6-1.8c-2-1.3-2.5-2.7-1.1-4.8c1.4-2.2,2.9-3.1,5.4-1.7c1.2,0.6,2.7,1,4,0.9
			c0.9,0,2.3-0.8,2.6-1.6s-0.3-2.3-1-2.9c-0.7-0.6-1.1-0.5-3.7-1.7c-1.7-0.7-2.1-1-2.3-1.5c-0.3-0.6-0.3-1.3-0.3-2.2
			c0-0.8,0-1.2,0.2-1.6c0.5-1,1.7-1.5,3.1-1.5c3.3-0.2,3.9,0.1,5.8-0.6c1.3-0.5,3.1-1.7,2.9-2.9c-0.1-1.2-2.4-1.9-3.8-2.3
			c-3.6-1.1-5.3,0-6.5-1.2c-0.9-1-1-2.8-1.1-6.6c-0.6-17.7-2.8-35.1-7.4-52.2c-0.5-1.8-1.3-3.5-2.1-5.1c-2.3-5-6.3-6.6-11-3.6
			c-5.5,3.6-10.8,7.6-16.1,11.5c-1.9,1.4-3.4,3.2-5.3,4.4c-1.4,0.9-3.5,1.6-5,1.3c-10.3-2.1-20.5-2.1-30.9,0
			c-1.7,0.4-4.1-0.4-5.6-1.5c-7-5-13.8-10.3-20.8-15.4c-4.9-3.6-9.7-2.1-11.9,3.6c-1.1,3-2.3,6.1-2.9,9.2c-3.2,16.2-6.3,32.4-6.1,49
			c0,0.5,0,0.9-0.1,1.4c-0.5,5.6-0.5,5.4-6,5.1c-2.3-0.1-5.8-1.5-6.3,2.2s3.3,2.6,5.4,3.2c1.5,0.4,3.2,0.3,4.8,0.6
			c2.7,0.5,3.4,2.7,1.6,4.8l0,0c-0.6,0.3-1.1,0.6-1.7,0.9c-0.2,0-0.4,0-0.6,0c-1.1,0.2-3,0.7-4.4,2.3c-0.3,0.4-1.9,2.1-1.3,3.2
			c0.4,0.7,1.4,0.9,2.2,1c1.6,0.2,2.6-0.2,6.3-1c1.6-0.4,2-0.4,2.5-0.3c1.2,0.3,2,1.4,2.8,2.7c1.3,2.2-0.1,3.4-1.7,4.5
			c-1,0.7-1,0.6-1.3,1c-0.9,0.9-2,2.8-1.2,4.1c0.6,1,2.1,1,2.3,1c1.4,0,2.2-1,2.3-1.1c0.5-0.5,1.3-1.2,2.5-1.8
			c0.7-0.3,1.4-0.7,2.3-0.6c1.1,0,1.8,0.6,4,2.5c1.4,1.2,2.6,2.1,3.3,2.7c2.2,1.4,5.2,3.1,9,4.8C60.6,163.3,68.8,167,80.6,168.9z"/>
		<path class="st2" d="M80.1,168c15.9,2.6,28.2,0.4,31.8-0.3c1-0.2,5.1-1,10.2-2.7c4.8-1.6,10.1-3.4,15.9-7.5
			c1.3-0.9,2.2-1.7,2.9-2.3l2.8-2.5c2.8-2.4-2.8,2.5-2.8,2.5c-0.1-0.1,1-1.6,2.8-2.5c0.6-0.3,1.2-0.6,2-0.5c1.5,0.2,1.8,1.5,3.7,2.3
			c0.9,0.4,2.9,1,3.8,0.1c0.8-0.8,0.3-2.6-0.2-3.6c-0.2-0.4-0.4-1.1-1.5-1.8c-2-1.3-2.5-2.7-1.1-4.8s2.9-3,5.4-1.7
			c1.2,0.6,2.7,1,4,0.9c0.9,0,2.3-0.8,2.5-1.6c0.3-0.8-0.3-2.3-1-2.8c-0.7-0.6-1.1-0.5-3.7-1.7c-1.7-0.7-2.1-1-2.3-1.4
			c-0.3-0.6-0.3-1.3-0.3-2.2c0-0.8,0-1.2,0.2-1.6c0.5-1,1.6-1.4,3-1.5c3.3-0.2,3.9,0.1,5.8-0.6c1.3-0.5,3-1.7,2.9-2.8
			c-0.1-1.2-2.4-1.9-3.7-2.3c-3.5-1.1-5.2,0-6.4-1.2c-0.9-0.9-1-2.8-1.1-6.5c-0.6-17.5-2.7-34.8-7.3-51.8c-0.5-1.7-1.3-3.4-2.1-5.1
			c-2.2-5-6.3-6.5-10.9-3.5c-5.5,3.5-10.7,7.5-15.9,11.4c-1.8,1.4-3.3,3.2-5.3,4.4c-1.4,0.9-3.4,1.6-5,1.3
			c-10.3-2-20.4-2.1-30.7,0.1c-1.7,0.4-4.1-0.4-5.6-1.5c-7-5.1-13.7-10.4-20.7-15.4c-4.9-3.5-9.6-2.1-11.8,3.5c-1.1,3-2.2,6-2.9,9.1
			c-3.2,16.1-6.2,32.1-6,48.6c0,0.5,0,0.9-0.1,1.4c-0.5,5.5-0.5,5.4-6,5.1c-2.2-0.1-5.7-1.5-6.2,2.2s3.3,2.6,5.3,3.2
			c1.5,0.4,3.2,0.3,4.8,0.6c2.7,0.5,3.4,2.7,1.6,4.8l0,0c-0.6,0.3-1.1,0.6-1.7,0.9c-0.2,0-0.4,0-0.6,0c-1.1,0.2-3,0.7-4.4,2.3
			c-0.3,0.4-1.9,2.1-1.3,3.2c0.4,0.7,1.4,0.9,2.1,1c1.5,0.2,2.5-0.2,6.2-1c1.6-0.4,2-0.4,2.5-0.3c1.2,0.3,2,1.4,2.8,2.7
			c1.3,2.2-0.1,3.4-1.7,4.5c-1,0.7-0.9,0.6-1.3,1c-0.9,0.9-2,2.8-1.2,4c0.6,1,2.1,1,2.2,1c1.3,0,2.2-1,2.3-1.1
			c0.5-0.5,1.3-1.2,2.5-1.8c0.7-0.3,1.4-0.7,2.3-0.6c1.1,0,1.8,0.6,4,2.4c1.4,1.2,2.5,2.1,3.2,2.7c2.2,1.4,5.2,3.1,8.9,4.8
			C60.2,162.4,68.4,166.1,80.1,168z"/>
		<path class="st4" d="M108.3,139.6c0-3.1,3.8-5.9,8.2-6c4-0.1,7.3,2.2,7.3,5c0,3.1-3.8,5.9-8.2,6
			C111.5,144.6,108.3,142.4,108.3,139.6z"/>
		<path class="st5" d="M91.2,145.8c-1.4,1.4-2.7,2.7-4.1,4.1c-0.2,0-0.4,0-0.5,0c-1.4-1.5-2.8-3-4.2-4.5c0.4-0.6,0.8-1.2,1.2-1.8
			c2.3,0.1,4.5,0.1,6.8,0.2C90.6,144.5,90.9,145.2,91.2,145.8z"/>
		<path class="st4" d="M60.9,144.5c-4.3,0-8.3-2.7-8.3-5.8c0-2.8,3.2-5.1,7.2-5.1c4.4,0,8.3,2.7,8.3,5.8
			C68.1,142.2,64.9,144.5,60.9,144.5z"/>
		<path class="st6" d="M82.2,156.6c0,0.1,0.2,1.9,1.3,3.2c2,2.2,6.3,2.1,8.7,0.2c0.3-0.3,1.5-1.3,2-2.9c0.2-0.8,0.5-1.8,0-2.4
			c-0.9-1.1-2.9,0.5-4.5-0.7c-0.6-0.5-0.9-1.2-2.3-2.3c-0.3-0.2-0.5-0.4-0.8-0.3c-0.6,0.1-0.6,1.1-1.4,1.9c-1,1-2.1,0.5-2.8,1.4
			C82.1,155.2,82.2,155.9,82.2,156.6z"/>
		<path class="st7" d="M76.9,150.3c0.1,0.6,0.6,2.8,2.2,4.2c0.7,0.6,1.5,1,2.3,1.1c1.8,0.2,3.1-0.9,3.7-1.4c1.8-1.5,2.2-3.5,2.3-4.2
			c-0.3,0-0.7,0-1,0c-0.1,0.3-0.3,0.7-0.5,1.1c-0.5,0.8-0.9,1.4-1.3,1.7c0,0-0.3,0.2-0.5,0.4c-0.2,0.1-1.9,1-3.4,0.3
			c-0.6-0.3-0.9-0.7-1.2-1c-1-1.2-1.1-2.6-1.1-3.3C77.9,149.5,77.4,149.9,76.9,150.3z"/>
		<path class="st7" d="M97.3,149.7c0,0.6-0.3,2.7-2,4.3c-0.4,0.4-2,1.9-4,1.6c-1.2-0.2-2-0.9-2.5-1.4c-1.6-1.5-2.1-3.3-2.2-4.2
			c0.3,0,0.6,0,0.8,0c0.1,0.2,0.1,0.4,0.2,0.6c0,0.1,0.1,0.3,0.3,0.5c0.1,0.2,0.4,0.6,0.7,1.1c0.2,0.2,0.7,0.8,1.4,1.1
			c1,0.5,2.3,0.5,3.3,0.1c1.5-0.7,2.5-2.3,2.5-4.2C96.4,149.3,96.8,149.5,97.3,149.7z"/>
		<path class="st8" d="M44.3,83c2.3-1.3,5.3-2.7,9.1-3.9c3.6-1.1,6.8-1.8,9.4-2.2c-1.2-2.1-2.5-3.7-3.5-4.9
			c-1.3-1.5-3.2-3.1-7.1-6.2c-1.2-0.9-2.3-1.8-3.5-1.6c-0.7,0.1-1.2,0.6-1.8,1.5c-1.7,2.4-2.2,4.6-2.3,5.3c-0.3,1.4-0.6,3.3-0.7,5.9
			C43.9,78.5,43.9,80.6,44.3,83z"/>
		<path class="st8" d="M139.9,86.2c-2.1-1.7-4.9-3.7-8.5-5.5c-3.4-1.7-6.5-2.8-9-3.6c1.5-2.2,3-3.8,4.1-5c1.5-1.5,3.6-3,7.9-6
			c1.3-0.9,2.5-1.7,3.7-1.4c0.7,0.2,1.1,0.9,1.6,1.9c1.3,2.8,1.5,5.4,1.6,6.1c0.1,1.6,0.1,3.8-0.2,6.7
			C140.9,81.2,140.6,83.5,139.9,86.2z"/>
		<path class="st9" d="M93,207.3c-0.4-0.1-0.9-0.3-1.5-0.4c-0.6-0.1-1.7-0.2-2.8,0.2c-1.6,0.6-2.3,2.1-2.5,2.5
			c0.1,0.4,0.1,0.7,0.2,1.1c0.1-0.2,0.2-0.4,0.4-0.6c0.1-0.2,1.2-1.6,3.1-2c1.6-0.4,2.8,0.3,3.2-0.3C93.1,207.8,93.1,207.5,93,207.3
			z"/>
		<path class="st9" d="M94.9,212.2c-0.4-0.1-0.9-0.1-1.6-0.1c-0.6,0-1.7,0.1-2.7,0.7c-1.4,0.9-1.9,2.4-2,2.9
			c0.1,0.4,0.2,0.7,0.3,1.1c0.1-0.2,0.1-0.4,0.3-0.7c0.1-0.2,0.9-1.8,2.7-2.5c1.6-0.6,2.8-0.2,3.1-0.8
			C95,212.6,94.9,212.4,94.9,212.2z"/>
		<path class="st9" d="M124.8,209.4c-0.4,0-0.9,0-1.6,0c-0.6,0.1-1.7,0.2-2.7,1c-1.4,1-1.7,2.6-1.7,3.1c0.1,0.3,0.3,0.7,0.4,1
			c0-0.2,0.1-0.4,0.2-0.7c0.1-0.2,0.8-1.8,2.4-2.7c1.5-0.8,2.8-0.4,3-1.1C124.9,209.7,124.8,209.5,124.8,209.4z"/>
		<path class="st9" d="M127.8,213.6c-0.4,0-0.9,0.1-1.6,0.3c-0.6,0.2-1.6,0.5-2.5,1.4c-1.2,1.2-1.2,2.8-1.2,3.3
			c0.2,0.3,0.4,0.6,0.6,1c0-0.2,0-0.4,0.1-0.7c0-0.2,0.4-1.9,2-3.1c1.3-1,2.7-0.9,2.8-1.6C128,213.9,127.9,213.7,127.8,213.6z"/>
	</g>
	<g id="cat_eat" class="st1">
		<path class="st2" d="M509.1,202.2c0,0-2.6-5.8-9-12.1c-0.2-0.2-1.1-1.1-2.4-1.8c-0.2-0.1-0.5-0.2-0.9-0.4
			c-1.9-0.8-2.6-1.2-2.9-1.3c-2.5-0.9-7.5,5.8-8,6.4c-2.6,3.5-2.7,5.3-4.6,8.3c-0.2,0.4-0.9,1.4-1.2,2.9c-0.1,0.5-0.2,0.9-0.2,1.2
			c1,0.6,2.1,1.3,3.2,2.3c0.6,0.6,1.2,1.1,1.7,1.6c0,0,0.9,1.1,1.3,2.6c0.9,4.4-1.2,9-6,10.5c-5.4,1.7-11.2,3.3-16.8,3.6
			c-12.3,0.6-24.7,0.2-37.1,0.3c-5.2,0-9.8,1.4-13,5.4c-4.4,10,2.6,18.6,14.6,17.8c8.5-0.6,17-0.2,25.5-0.7c9.5-0.6,19-1.3,28.4-2.8
			c15-2.3,24.6-10.4,29.2-23.2c1.3-3.5,1.3-6.7,1.2-9.1C511.9,208.4,510.2,204.5,509.1,202.2z"/>
		<path class="st2" d="M391.7,219.8c-7.7,2.1-14.6,0.2-16.9-4c-0.8-1.4-1.9-4.8-0.3-7.8c1.2-2.3,3.4-3.2,4.2-3.4c0-14.3,0-28.7,0-43
			c-1.4-3.3-0.9-7.1,1.3-9.9c3.3-4.1,8.4-3.6,8.7-3.6h1.9c6.8,0,12.3,5.5,12.3,12.3v43.8c0.1,0.9,0.7,6.4-3.3,11
			C396.7,218.6,392.9,219.5,391.7,219.8z"/>
		<path class="st2" d="M359,218.2c-7.7,2.1-14.6,0.2-16.9-4c-0.8-1.4-1.9-4.8-0.3-7.8c1.2-2.3,3.4-3.2,4.2-3.4c0-14.3,0-28.7,0-43
			c-1.4-3.3-0.9-7.1,1.3-9.9c3.3-4.1,8.4-3.6,8.7-3.6h1.9c6.8,0,12.3,5.5,12.3,12.3v43.8c0.1,0.9,0.7,6.4-3.3,11
			C364.1,217.1,360.2,218,359,218.2z"/>
		<path class="st2" d="M490.3,197.3c3.7-5,4.9-10,5.9-13.7c0.3-1.1,0.9-3.8,1.2-7.4c1.1-12.1-2.4-22.7-3.6-26.3
			c-3.4-10.1-8.5-17.6-12.5-22.6c-2.3-2.4-5.4-5.5-9.5-8.7c-3.8-3-7.8-6.2-13.7-9.1c-7-3.4-14.6-5.5-22.7-6.3
			c-1.5-0.1-3.1-0.4-5.9-0.7c-9.2-1-21.2-2.2-35.6-1.5c-12.7,0.6-19.1,0.8-26.2,3.4c-5.9,2.1-15,5.5-21.1,14.6
			c-4.1,6.1-5.3,12.4-5.6,14.6c-0.4,2.2-1.1,6.6-0.2,12c0.6,3.3,1.6,6.2,2.1,7.7c0.8,2.3,1.6,4.1,2.1,5.1
			c3.9,7.8,9.5,12.3,12.1,14.3c3.9,3,7.3,4.7,12.5,7.3c3.7,1.8,6.5,3,8.6,3.8c9.1,3.7,18.6,7.1,26.1,9.7c2.5,0.3,6.4,0.4,11.1-0.3
			c-0.7,3.7-1.8,6.6-1.8,9.6c-0.1,7.2,3.9,12.5,11,13.2c8,0.8,16.1,0.5,24.2,0.2c8.9-0.4,17.4-3,25.5-6.6c3.6-1.6,6-3.3,7.3-4.2
			C484.1,203.6,487.3,201.3,490.3,197.3z"/>
		<path class="st3" d="M335.6,168.5c16,2.6,28.5,0.4,32.1-0.3c1-0.2,5.1-1,10.3-2.7c4.8-1.6,10.2-3.4,16-7.5c1.3-0.9,2.3-1.7,3-2.3
			l2.8-2.5c2.8-2.4-2.8,2.5-2.8,2.5c-0.1-0.1,1-1.6,2.8-2.5c0.7-0.3,1.3-0.6,2-0.5c1.5,0.2,1.8,1.5,3.7,2.3c0.9,0.4,2.9,1,3.8,0.1
			c0.8-0.9,0.3-2.7-0.2-3.7c-0.2-0.4-0.4-1.1-1.6-1.8c-2-1.3-2.5-2.7-1.1-4.8c1.4-2.2,2.9-3.1,5.4-1.7c1.2,0.6,2.7,1,4,0.9
			c0.9,0,2.3-0.8,2.6-1.6c0.3-0.8-0.3-2.3-1-2.9c-0.7-0.6-1.1-0.5-3.7-1.7c-1.7-0.7-2.1-1-2.3-1.5c-0.3-0.6-0.3-1.3-0.3-2.2
			c0-0.8,0-1.2,0.2-1.6c0.5-1,1.7-1.5,3.1-1.5c3.3-0.2,3.9,0.1,5.8-0.6c1.3-0.5,3.1-1.7,2.9-2.9c-0.1-1.2-2.4-1.9-3.8-2.3
			c-3.6-1.1-5.3,0-6.5-1.2c-0.9-1-1-2.8-1.1-6.6c-0.6-17.7-2.8-35.1-7.4-52.2c-0.5-1.8-1.3-3.5-2.1-5.1c-2.3-5-6.3-6.6-11-3.6
			c-5.5,3.6-10.8,7.6-16.1,11.5c-1.9,1.4-3.4,3.2-5.3,4.4c-1.4,0.9-3.5,1.6-5,1.3c-10.3-2.1-20.5-2.1-30.9,0
			c-1.7,0.4-4.1-0.4-5.6-1.5c-7-5-13.8-10.3-20.8-15.4c-4.9-3.6-9.7-2.1-11.9,3.6c-1.1,3-2.3,6.1-2.9,9.2c-3.2,16.2-6.3,32.4-6.1,49
			c0,0.5,0,0.9-0.1,1.4c-0.5,5.6-0.5,5.4-6,5.1c-2.3-0.1-5.8-1.5-6.3,2.2c-0.5,3.7,3.3,2.6,5.4,3.2c1.5,0.4,3.2,0.3,4.8,0.6
			c2.7,0.5,3.4,2.7,1.6,4.8l0,0c-0.6,0.3-1.1,0.6-1.7,0.9c-0.2,0-0.4,0-0.6,0c-1.1,0.2-3,0.7-4.4,2.3c-0.3,0.4-1.9,2.1-1.3,3.2
			c0.4,0.7,1.4,0.9,2.2,1c1.6,0.2,2.6-0.2,6.3-1c1.6-0.4,2-0.4,2.5-0.3c1.2,0.3,2,1.4,2.8,2.7c1.3,2.2-0.1,3.4-1.7,4.5
			c-1,0.7-1,0.6-1.3,1c-0.9,0.9-2,2.8-1.2,4.1c0.6,1,2.1,1,2.3,1c1.4,0,2.2-1,2.3-1.1c0.5-0.5,1.3-1.2,2.5-1.8
			c0.7-0.3,1.4-0.7,2.3-0.6c1.1,0,1.8,0.6,4,2.5c1.4,1.2,2.6,2.1,3.3,2.7c2.2,1.4,5.2,3.1,9,4.8
			C315.6,162.9,323.8,166.6,335.6,168.5z"/>
		<path class="st2" d="M335.1,167.6c15.9,2.6,28.2,0.4,31.8-0.3c1-0.2,5.1-1,10.2-2.7c4.8-1.6,10.1-3.4,15.9-7.5
			c1.3-0.9,2.2-1.7,2.9-2.3l2.8-2.5c2.8-2.4-2.8,2.5-2.8,2.5c-0.1-0.1,1-1.6,2.8-2.5c0.6-0.3,1.2-0.6,2-0.5c1.5,0.2,1.8,1.5,3.7,2.3
			c0.9,0.4,2.9,1,3.8,0.1c0.8-0.8,0.3-2.6-0.2-3.6c-0.2-0.4-0.4-1.1-1.5-1.8c-2-1.3-2.5-2.7-1.1-4.8s2.9-3,5.4-1.7
			c1.2,0.6,2.7,1,4,0.9c0.9,0,2.3-0.8,2.5-1.6c0.3-0.8-0.3-2.3-1-2.8c-0.7-0.6-1.1-0.5-3.7-1.7c-1.7-0.7-2.1-1-2.3-1.4
			c-0.3-0.6-0.3-1.3-0.3-2.2c0-0.8,0-1.2,0.2-1.6c0.5-1,1.6-1.4,3-1.5c3.3-0.2,3.9,0.1,5.8-0.6c1.3-0.5,3-1.7,2.9-2.8
			c-0.1-1.2-2.4-1.9-3.7-2.3c-3.5-1.1-5.2,0-6.4-1.2c-0.9-0.9-1-2.8-1.1-6.5c-0.6-17.5-2.7-34.8-7.3-51.8c-0.5-1.7-1.3-3.4-2.1-5.1
			c-2.2-5-6.3-6.5-10.9-3.5c-5.5,3.5-10.7,7.5-15.9,11.4c-1.8,1.4-3.3,3.2-5.3,4.4c-1.4,0.9-3.4,1.6-5,1.3
			c-10.3-2-20.4-2.1-30.7,0.1c-1.7,0.4-4.1-0.4-5.6-1.5c-7-5.1-13.7-10.4-20.7-15.4c-4.9-3.5-9.6-2.1-11.8,3.5c-1.1,3-2.2,6-2.9,9.1
			c-3.2,16.1-6.2,32.1-6,48.6c0,0.5,0,0.9-0.1,1.4c-0.5,5.5-0.5,5.4-6,5.1c-2.2-0.1-5.7-1.5-6.2,2.2c-0.5,3.7,3.3,2.6,5.3,3.2
			c1.5,0.4,3.2,0.3,4.8,0.6c2.7,0.5,3.4,2.7,1.6,4.8l0,0c-0.6,0.3-1.1,0.6-1.7,0.9c-0.2,0-0.4,0-0.6,0c-1.1,0.2-3,0.7-4.4,2.3
			c-0.3,0.4-1.9,2.1-1.3,3.2c0.4,0.7,1.4,0.9,2.1,1c1.5,0.2,2.5-0.2,6.2-1c1.6-0.4,2-0.4,2.5-0.3c1.2,0.3,2,1.4,2.8,2.7
			c1.3,2.2-0.1,3.4-1.7,4.5c-1,0.7-0.9,0.6-1.3,1c-0.9,0.9-2,2.8-1.2,4c0.6,1,2.1,1,2.2,1c1.3,0,2.2-1,2.3-1.1
			c0.5-0.5,1.3-1.2,2.5-1.8c0.7-0.3,1.4-0.7,2.3-0.6c1.1,0,1.8,0.6,4,2.4c1.4,1.2,2.5,2.1,3.2,2.7c2.2,1.4,5.2,3.1,8.9,4.8
			C315.2,162,323.4,165.7,335.1,167.6z"/>
		<path class="st4" d="M363.3,139.2c0-3.1,3.8-5.9,8.2-6c4-0.1,7.3,2.2,7.3,5c0,3.1-3.8,5.9-8.2,6
			C366.5,144.2,363.3,142,363.3,139.2z"/>
		<path class="st5" d="M346.2,145.4c-1.4,1.4-2.7,2.7-4.1,4.1c-0.2,0-0.4,0-0.5,0c-1.4-1.5-2.8-3-4.2-4.5c0.4-0.6,0.8-1.2,1.2-1.8
			c2.3,0.1,4.5,0.1,6.8,0.2C345.6,144.1,345.9,144.8,346.2,145.4z"/>
		<path class="st4" d="M315.9,144.1c-4.3,0-8.3-2.7-8.3-5.8c0-2.8,3.2-5.1,7.2-5.1c4.4,0,8.3,2.7,8.3,5.8
			C323.1,141.8,319.9,144.1,315.9,144.1z"/>
		<path class="st10" d="M337.2,156.2c0,0.1,0.2,1.9,1.3,3.2c2,2.2,6.3,2.1,8.7,0.2c0.3-0.3,1.5-1.3,2-2.9c0.2-0.8,0.5-1.8,0-2.4
			c-0.9-1.1-2.9,0.5-4.5-0.7c-0.6-0.5-0.9-1.2-2.3-2.3c-0.3-0.2-0.5-0.4-0.8-0.3c-0.6,0.1-0.6,1.1-1.4,1.9c-1,1-2.1,0.5-2.8,1.4
			C337.1,154.8,337.2,155.5,337.2,156.2z"/>
		<path class="st7" d="M331.9,149.9c0.1,0.6,0.6,2.8,2.2,4.2c0.7,0.6,1.5,1,2.3,1.1c1.8,0.2,3.1-0.9,3.7-1.4
			c1.8-1.5,2.2-3.5,2.3-4.2c-0.3,0-0.7,0-1,0c-0.1,0.3-0.3,0.7-0.5,1.1c-0.5,0.8-0.9,1.4-1.3,1.7c0,0-0.3,0.2-0.5,0.4
			c-0.2,0.1-1.9,1-3.4,0.3c-0.6-0.3-0.9-0.7-1.2-1c-1-1.2-1.1-2.6-1.1-3.3C332.9,149.1,332.4,149.5,331.9,149.9z"/>
		<path class="st7" d="M352.3,149.3c0,0.6-0.3,2.7-2,4.3c-0.4,0.4-2,1.9-4,1.6c-1.2-0.2-2-0.9-2.5-1.4c-1.6-1.5-2.1-3.3-2.2-4.2
			c0.3,0,0.6,0,0.8,0c0.1,0.2,0.1,0.4,0.2,0.6c0,0.1,0.1,0.3,0.3,0.5c0.1,0.2,0.4,0.6,0.7,1.1c0.2,0.2,0.7,0.8,1.4,1.1
			c1,0.5,2.3,0.5,3.3,0.1c1.5-0.7,2.5-2.3,2.5-4.2C351.4,148.9,351.8,149.1,352.3,149.3z"/>
		<path class="st8" d="M299.3,82.6c2.3-1.3,5.3-2.7,9.1-3.9c3.6-1.1,6.8-1.8,9.4-2.2c-1.2-2.1-2.5-3.7-3.5-4.9
			c-1.3-1.5-3.2-3.1-7.1-6.2c-1.2-0.9-2.3-1.8-3.5-1.6c-0.7,0.1-1.2,0.6-1.8,1.5c-1.7,2.4-2.2,4.6-2.3,5.3c-0.3,1.4-0.6,3.3-0.7,5.9
			C298.9,78.1,298.9,80.2,299.3,82.6z"/>
		<path class="st8" d="M394.9,85.8c-2.1-1.7-4.9-3.7-8.5-5.5c-3.4-1.7-6.5-2.8-9-3.6c1.5-2.2,3-3.8,4.1-5c1.5-1.5,3.6-3,7.9-6
			c1.3-0.9,2.5-1.7,3.7-1.4c0.7,0.2,1.1,0.9,1.6,1.9c1.3,2.8,1.5,5.4,1.6,6.1c0.1,1.6,0.1,3.8-0.2,6.7
			C395.9,80.8,395.6,83.1,394.9,85.8z"/>
		<path class="st9" d="M348,206.9c-0.4-0.1-0.9-0.3-1.5-0.4c-0.6-0.1-1.7-0.2-2.8,0.2c-1.6,0.6-2.3,2.1-2.5,2.5
			c0.1,0.4,0.1,0.7,0.2,1.1c0.1-0.2,0.2-0.4,0.4-0.6c0.1-0.2,1.2-1.6,3.1-2c1.6-0.4,2.8,0.3,3.2-0.3
			C348.1,207.4,348.1,207.1,348,206.9z"/>
		<path class="st9" d="M349.9,211.8c-0.4-0.1-0.9-0.1-1.6-0.1c-0.6,0-1.7,0.1-2.7,0.7c-1.4,0.9-1.9,2.4-2,2.9
			c0.1,0.4,0.2,0.7,0.3,1.1c0.1-0.2,0.1-0.4,0.3-0.7c0.1-0.2,0.9-1.8,2.7-2.5c1.6-0.6,2.8-0.2,3.1-0.8
			C350,212.2,349.9,212,349.9,211.8z"/>
		<path class="st9" d="M379.8,209c-0.4,0-0.9,0-1.6,0c-0.6,0.1-1.7,0.2-2.7,1c-1.4,1-1.7,2.6-1.7,3.1c0.1,0.3,0.3,0.7,0.4,1
			c0-0.2,0.1-0.4,0.2-0.7c0.1-0.2,0.8-1.8,2.4-2.7c1.5-0.8,2.8-0.4,3-1.1C379.9,209.3,379.8,209.1,379.8,209z"/>
		<path class="st9" d="M382.8,213.2c-0.4,0-0.9,0.1-1.6,0.3c-0.6,0.2-1.6,0.5-2.5,1.4c-1.2,1.2-1.2,2.8-1.2,3.3
			c0.2,0.3,0.4,0.6,0.6,1c0-0.2,0-0.4,0.1-0.7c0-0.2,0.4-1.9,2-3.1c1.3-1,2.7-0.9,2.8-1.6C383,213.5,382.9,213.3,382.8,213.2z"/>
	</g>
	<path class="st11" d="M454.2,57.6c-2.5-1.8-6-0.8-7.9,0.4c-2.4,1.4-3.4,3.7-3.7,4.8c-0.4-1.1-1.4-3.3-3.7-4.8
		c-1.9-1.2-5.5-2.2-7.9-0.4c-2.3,1.7-2.3,5-2.3,5.9c0,0.8,0.1,3.6,4.1,8.5c1.8,2.2,4.9,5.4,9.7,8.2c0,0,0,0,0,0.1l0,0l0,0
		c0,0,0,0,0-0.1c4.8-2.8,7.9-6,9.7-8.2c4-4.8,4.1-7.7,4.1-8.5C456.5,62.6,456.5,59.4,454.2,57.6z"/>
</g>
<g>
	<g id="cat_play">
		<path class="st2" d="M251.4,222.9"/>
		<path class="st2" d="M233.6,163.3"/>
		<path class="st2" d="M235.8,155.8c-6.4,14.7-7.4,27.2-7.6,30.9c-0.1,1-0.3,5.1,0.1,10.5c0.4,5,0.8,10.6,3.3,17.2
			c0.6,1.4,1.1,2.6,1.5,3.4l1.7,3.3c1.7,3.3-1.7-3.3-1.7-3.3c0.1,0,1.3,1.3,1.7,3.3c0.1,0.7,0.3,1.4,0,2.1c-0.5,1.4-1.9,1.4-3.1,3
			c-0.6,0.8-1.7,2.6-1,3.6c0.6,1,2.5,0.9,3.6,0.7c0.4-0.1,1.2-0.2,2.1-1.1c1.7-1.6,3.2-1.8,4.9,0.1c1.7,1.9,2.2,3.5,0.3,5.6
			c-0.9,1-1.6,2.3-1.9,3.6c-0.2,0.9,0.2,2.4,0.9,2.8c0.7,0.5,2.3,0.3,3-0.2c0.7-0.6,0.8-0.9,2.5-3.2c1.1-1.5,1.5-1.8,2-1.9
			c0.7-0.2,1.3,0,2.2,0.2c0.8,0.2,1.2,0.3,1.5,0.6c0.8,0.7,1,2,0.7,3.3c-0.6,3.2-1.1,3.8-0.9,5.7c0.2,1.4,0.9,3.4,2,3.5
			c1.2,0.2,2.4-1.8,3.2-3c1.9-3.2,1.2-5.1,2.7-5.9c1.1-0.7,2.9-0.2,6.6,0.6c17.1,3.8,34.4,6,52,5.7c1.8,0,3.6-0.4,5.4-0.7
			c5.4-0.9,7.9-4.5,6.1-9.7c-2.1-6.2-4.6-12.2-7.1-18.2c-0.9-2.1-2.3-4-2.9-6.2c-0.5-1.6-0.7-3.7,0-5.2c4.5-9.4,7.1-19.3,7.5-29.7
			c0.1-1.7,1.4-3.8,2.8-5c6.5-5.5,13.3-10.8,19.9-16.3c4.6-3.9,4.4-8.8-0.5-12.3c-2.6-1.8-5.3-3.7-8.2-5c-14.8-7-29.6-14-45.6-17.9
			c-0.4-0.1-0.9-0.3-1.3-0.4c-5.2-1.8-5.1-1.8-3.5-7c0.7-2.2,2.8-5.3-0.5-6.6c-3.4-1.4-3.3,2.5-4.4,4.4c-0.8,1.4-1.1,3-1.7,4.5
			c-1.1,2.5-3.5,2.6-5,0.4l0,0c-0.2-0.6-0.3-1.2-0.5-1.8c0-0.2,0.1-0.4,0.1-0.6c0.1-1.1,0-3-1.1-4.8c-0.3-0.4-1.5-2.3-2.8-2.1
			c-0.8,0.2-1.2,1.1-1.5,1.8c-0.6,1.4-0.5,2.5-0.5,6.3c0,1.7-0.1,2-0.3,2.5c-0.6,1.1-1.8,1.6-3.3,2c-2.5,0.7-3.2-0.9-3.9-2.7
			c-0.4-1.2-0.4-1.1-0.7-1.5c-0.7-1.1-2.2-2.6-3.6-2.2c-1.1,0.4-1.4,1.8-1.5,1.9c-0.3,1.3,0.4,2.3,0.5,2.5c0.4,0.6,0.9,1.6,1.1,2.9
			c0.1,0.8,0.3,1.5,0,2.4c-0.3,1-1,1.6-3.3,3.3c-1.5,1.1-2.7,1.9-3.4,2.5c-1.9,1.8-4.3,4.3-6.8,7.5
			C246.1,137.8,240.5,144.9,235.8,155.8z"/>
		<path class="st4" d="M267.6,197.1c3,0.7,4.8,5.1,3.8,9.4c-0.9,3.9-3.9,6.5-6.6,5.9c-3-0.7-4.8-5.2-3.8-9.4
			C261.9,199.1,264.8,196.5,267.6,197.1z"/>
		<path class="st5" d="M265.7,179c-1-1.7-2-3.3-3-5c0-0.2,0.1-0.4,0.1-0.5c1.8-1,3.6-2,5.4-3c0.5,0.5,1,1,1.5,1.6
			c-0.6,2.2-1.2,4.4-1.9,6.6C267.2,178.8,266.4,178.9,265.7,179z"/>
		<path class="st4" d="M274.5,150c1-4.2,4.7-7.4,7.7-6.6c2.7,0.7,4.1,4.4,3.2,8.3c-1.1,4.3-4.6,7.4-7.7,6.6
			C274.9,157.6,273.5,153.9,274.5,150z"/>
		<path class="st7" d="M264.9,164.1c-0.6,0-2.9-0.1-4.6,1.1c-0.8,0.5-1.3,1.2-1.6,2c-0.7,1.7,0.1,3.3,0.5,3.9c1,2.1,2.9,3,3.5,3.3
			c0.1-0.3,0.1-0.6,0.2-1c-0.3-0.2-0.6-0.4-1-0.8c-0.7-0.7-1.1-1.2-1.3-1.7c0,0-0.1-0.3-0.2-0.6c-0.1-0.2-0.5-2.1,0.6-3.4
			c0.4-0.5,0.9-0.7,1.3-0.9c1.4-0.6,2.8-0.5,3.5-0.3C265.4,165.2,265.2,164.7,264.9,164.1z"/>
		<path class="st7" d="M260.5,184c-0.6-0.2-2.5-0.9-3.7-3c-0.3-0.5-1.3-2.4-0.5-4.3c0.5-1.1,1.4-1.7,2-2.1c1.8-1.2,3.7-1.2,4.6-1.1
			c-0.1,0.3-0.2,0.5-0.3,0.8c-0.2,0-0.4,0-0.6,0.1c-0.1,0-0.3,0-0.6,0.1c-0.2,0-0.7,0.2-1.2,0.4c-0.2,0.1-0.9,0.5-1.4,1.1
			c-0.7,0.8-1.1,2.1-0.9,3.2c0.3,1.7,1.6,3,3.4,3.5C261,183.2,260.8,183.6,260.5,184z"/>
		<path class="st8" d="M326.9,142c0.7,2.5,1.3,5.8,1.5,9.8c0.2,3.7,0.1,7-0.2,9.7c2.3-0.7,4.2-1.5,5.6-2.2c1.7-0.9,3.8-2.4,7.8-5.4
			c1.2-0.9,2.3-1.8,2.4-3c0.1-0.7-0.3-1.3-1-2.1c-1.9-2.2-3.9-3.2-4.5-3.5c-1.3-0.6-3.1-1.4-5.6-2.1
			C331.4,142.8,329.4,142.3,326.9,142z"/>
		<path class="st8" d="M300.2,233.9c2.2-1.6,4.8-3.9,7.4-6.9c2.5-2.8,4.4-5.6,5.7-7.9c1.7,2,3,3.9,3.8,5.2c1.1,1.8,2,4.2,3.9,9.2
			c0.6,1.5,1.1,2.9,0.4,3.9c-0.4,0.6-1.1,0.9-2.2,1.1c-3.1,0.6-5.6,0.1-6.3,0c-1.6-0.3-3.7-0.8-6.4-1.8
			C304.8,236.1,302.6,235.2,300.2,233.9z"/>
		<path class="st12" d="M231.9,108.5c8,0,14.1,3.7,15.1,8.4c0.4,1.6,0.6,5.1-1.9,7.6c-1.8,1.8-4.2,2.1-5,2.2
			c-3.9,13.8-7.8,27.6-11.8,41.4c0.4,3.6-1.1,7.1-4,9.2c-4.3,3.1-9.1,1.2-9.4,1.1l-1.8-0.5c-6.6-1.9-10.4-8.7-8.5-15.2l12-42.1
			c0.1-0.9,1.1-6.3,6.2-9.6C226.8,108.2,230.7,108.4,231.9,108.5z"/>
		<path class="st2" d="M175.8,108.4c6.6-4.5,13.7-4.9,17.2-1.7c1.2,1.1,3.4,3.9,2.8,7.3c-0.5,2.5-2.2,4.1-2.9,4.6
			c4.6,13.6,9.2,27.2,13.9,40.7c2.4,2.7,3.1,6.4,1.9,9.8c-1.8,4.9-6.8,6.2-7.1,6.2l-1.8,0.6c-6.5,2.2-13.5-1.3-15.7-7.7L170,126.7
			c-0.4-0.8-2.7-5.8-0.4-11.4C171.4,111.1,174.8,109,175.8,108.4z"/>
		<path class="st9" d="M239.4,122.3c0.3,0.2,0.8,0.5,1.4,0.8c0.6,0.2,1.6,0.7,2.8,0.5c1.7-0.2,2.8-1.4,3.1-1.8
			c0.1-0.4,0.1-0.7,0.2-1.1c-0.1,0.1-0.3,0.3-0.5,0.5c-0.2,0.1-1.6,1.2-3.5,1.1c-1.7-0.1-2.6-1-3.1-0.6
			C239.4,121.9,239.4,122.2,239.4,122.3z"/>
		<path class="st9" d="M239,117.1c0.3,0.2,0.9,0.4,1.5,0.5s1.7,0.4,2.8,0.1c1.6-0.5,2.5-1.8,2.7-2.2c0-0.4,0-0.8,0-1.1
			c-0.1,0.1-0.2,0.3-0.4,0.6c-0.2,0.2-1.4,1.4-3.3,1.6c-1.7,0.2-2.8-0.6-3.2-0.1C238.9,116.7,239,117,239,117.1z"/>
		<path class="st9" d="M190.6,114.8c0.4-0.1,0.9-0.3,1.5-0.6c0.6-0.3,1.5-0.8,2.2-1.8c1-1.4,0.7-3,0.6-3.5c-0.3-0.3-0.5-0.6-0.8-0.8
			c0,0.2,0,0.4,0,0.7c0,0.2-0.1,2-1.4,3.4c-1.2,1.2-2.5,1.3-2.5,2C190.3,114.5,190.5,114.7,190.6,114.8z"/>
		<path class="st9" d="M186.4,111.8c0.4-0.2,0.8-0.4,1.4-0.8c0.5-0.4,1.4-1,1.9-2.1c0.7-1.5,0.2-3.1,0.1-3.5
			c-0.3-0.2-0.6-0.5-0.9-0.7c0,0.2,0.1,0.4,0.1,0.7c0,0.2,0.2,2-0.9,3.5c-0.9,1.4-2.3,1.7-2.1,2.4
			C186,111.5,186.3,111.7,186.4,111.8z"/>
		<path class="st2" d="M73.6,185.1c-3-3.9-2.2-8.9-1.2-14.9c1.4-8.8,3.8-9,4.5-15.9c0.8-8.3-1.9-14.9-3.2-18
			c-1.5-3.5-3.4-8-7.9-11.8c-3.4-2.9-6.7-4.1-8.8-4.9c-10.4-3.7-19.7-1.1-21.3-0.6c-3.3,1-15,4.6-16.8,12.8c-0.1,0.5-1,5,1.4,7.2
			c2.3,2.2,6.5,1.1,10,0.1c6.4-1.7,7-4,12-4.8c1.7-0.3,6.5-1.1,10.4,1.5c5.6,3.7,5.7,12.2,5.7,15.2c0.1,9.4-4.2,11.8-6.1,21
			c-1.6,7.8-0.8,17.8,3.2,24.5c6.8,11.2,24.3,16,43.1,12.2c0.2-6.8,0.4-13.7,0.6-20.5c-2.7,1-7.8,2.6-14.1,1.8
			C81.4,189.5,76.5,188.9,73.6,185.1z"/>
		<path class="st12" d="M140.7,111.4c7.8-1.4,14.5,1.1,16.4,5.5c0.6,1.5,1.5,4.9-0.4,7.8c-1.4,2.1-3.7,2.8-4.5,3.1
			c-1.3,14.3-2.6,28.6-3.9,42.8c1.1,3.4,0.2,7.2-2.2,9.7c-3.6,3.8-8.7,2.9-9,2.8l-1.8-0.2c-6.8-0.6-11.8-6.6-11.2-13.4l3.9-43.6
			c0-0.9-0.1-6.4,4.3-10.6C135.6,112,139.5,111.5,140.7,111.4z"/>
		<path class="st2" d="M84.2,122.5c4.8-6.3,11.5-9,15.8-7c1.5,0.7,4.4,2.6,4.9,6.1c0.4,2.6-0.8,4.6-1.3,5.3
			c8.6,11.4,17.3,22.9,25.9,34.3c3.1,1.8,5,5.1,4.9,8.7c-0.1,5.2-4.5,8-4.8,8.1l-1.5,1.1c-5.4,4.1-13.2,3-17.3-2.4l-26.3-34.9
			c-0.6-0.7-4.4-4.7-4-10.7C80.8,126.5,83.4,123.5,84.2,122.5z"/>
		<path class="st2" d="M103.6,177c-4.7,8-5.1,15.7-5.3,20.7c-0.5,10.2,2,18.4,3.9,23c2.1,2.7,5.4,6.5,10.4,9.8
			c5.4,3.6,10,4.8,18.8,7c4.6,1.2,13.2,3.1,24.3,3.6c2,0.1,3.5,0.1,6.9,0.1c18.2,0,27.2,0.1,35.8-0.5c13-0.9,19.5-1.4,26.1-3.9
			c5.8-2.2,14.9-5.8,20.8-15.1c4-6.2,5-12.5,5.3-14.7s1-6.6-0.1-12c-0.6-3.3-1.7-6.2-2.3-7.6c-0.9-2.3-1.7-4.1-2.2-5
			c-4-7.7-9.8-12.1-12.3-14c-3.9-2.9-7.4-4.5-12.6-7c-1-0.5-2-0.9-2.9-1.3c0,0-3-1.3-5.7-2.3c-3.2-1.2-13.9-2.8-28.6-3.3
			c-5.2,0.1-10.4,0.2-15.7,0.3c-4.9-0.3-11.7-0.4-19.7,0.4c-7.5,0.7-14.3,1.1-22,4.2C121.3,161.4,110.3,165.8,103.6,177z"/>
		<path class="st9" d="M150.6,123.6c0.4,0.2,0.9,0.4,1.5,0.5s1.7,0.4,2.8,0c1.6-0.5,2.4-1.9,2.7-2.3c0-0.4,0-0.8-0.1-1.1
			c-0.1,0.1-0.2,0.3-0.4,0.6c-0.2,0.2-1.3,1.5-3.2,1.7c-1.7,0.2-2.8-0.5-3.2,0C150.6,123.1,150.6,123.4,150.6,123.6z"/>
		<path class="st9" d="M149.2,118.6c0.4,0.1,0.9,0.2,1.6,0.2c0.6,0,1.7,0.1,2.8-0.5c1.5-0.8,2.1-2.2,2.3-2.7
			c-0.1-0.4-0.2-0.7-0.2-1.1c-0.1,0.2-0.2,0.4-0.3,0.6s-1.1,1.7-2.9,2.2c-1.6,0.5-2.8-0.1-3.2,0.5
			C149.1,118.1,149.2,118.4,149.2,118.6z"/>
		<path class="st9" d="M100.2,124c0.3-0.2,0.8-0.5,1.2-1c0.4-0.4,1.2-1.2,1.5-2.4c0.5-1.6-0.2-3.1-0.5-3.5c-0.3-0.2-0.7-0.4-1-0.6
			c0.1,0.2,0.2,0.4,0.2,0.7c0.1,0.2,0.5,1.9-0.3,3.6c-0.7,1.5-2,2-1.7,2.7C99.8,123.8,100.1,123.9,100.2,124z"/>
		<path class="st9" d="M95.3,122.4c0.3-0.3,0.7-0.6,1.1-1.2c0.4-0.5,1-1.4,1.1-2.6c0.2-1.7-0.7-3-1-3.4c-0.4-0.1-0.7-0.3-1.1-0.4
			c0.1,0.1,0.2,0.4,0.3,0.6c0.1,0.2,0.8,1.8,0.3,3.6c-0.5,1.6-1.6,2.3-1.3,2.9C94.8,122.3,95.1,122.4,95.3,122.4z"/>
	</g>
	<g id="Ebene_13">
		<path class="st2" d="M603.5,223.2"/>
		<path class="st2" d="M585.8,163.6"/>
		<path class="st2" d="M587.9,156c-6.4,14.7-7.4,27.2-7.6,30.9c-0.1,1-0.3,5.1,0.1,10.5c0.4,5,0.8,10.6,3.3,17.2
			c0.6,1.4,1.1,2.6,1.5,3.4l1.7,3.3c1.7,3.3-1.7-3.3-1.7-3.3c0.1,0,1.3,1.3,1.7,3.3c0.1,0.7,0.3,1.4,0,2.1c-0.5,1.4-1.9,1.4-3.1,3
			c-0.6,0.8-1.7,2.6-1,3.6c0.6,1,2.5,0.9,3.6,0.7c0.4-0.1,1.2-0.2,2.1-1.1c1.7-1.6,3.2-1.8,4.9,0.1c1.7,1.9,2.2,3.5,0.3,5.6
			c-0.9,1-1.6,2.3-1.9,3.6c-0.2,0.9,0.2,2.4,0.9,2.8c0.7,0.5,2.3,0.3,3-0.2c0.7-0.6,0.8-0.9,2.5-3.2c1.1-1.5,1.5-1.8,2-1.9
			c0.7-0.2,1.3,0,2.2,0.2c0.8,0.2,1.2,0.3,1.5,0.6c0.8,0.7,1,2,0.7,3.3c-0.6,3.2-1.1,3.8-0.9,5.7c0.2,1.4,0.9,3.4,2,3.5
			c1.2,0.2,2.4-1.8,3.2-3c1.9-3.2,1.2-5.1,2.7-5.9c1.1-0.7,2.9-0.2,6.6,0.6c17.1,3.8,34.4,6,52,5.7c1.8,0,3.6-0.4,5.4-0.7
			c5.4-0.9,7.9-4.5,6.1-9.7c-2.1-6.2-4.6-12.2-7.1-18.2c-0.9-2.1-2.3-4-2.9-6.2c-0.5-1.6-0.7-3.7,0-5.2c4.5-9.4,7.1-19.3,7.5-29.7
			c0.1-1.7,1.4-3.8,2.8-5c6.5-5.5,13.3-10.8,19.9-16.3c4.6-3.9,4.4-8.8-0.5-12.3c-2.6-1.8-5.3-3.7-8.2-5c-14.8-7-29.6-14-45.6-17.9
			c-0.4-0.1-0.9-0.3-1.3-0.4c-5.2-1.8-5.1-1.8-3.5-7c0.7-2.2,2.8-5.3-0.5-6.6c-3.4-1.4-3.3,2.5-4.4,4.4c-0.8,1.4-1.1,3-1.7,4.5
			c-1.1,2.5-3.5,2.6-5,0.4l0,0c-0.2-0.6-0.3-1.2-0.5-1.8c0-0.2,0.1-0.4,0.1-0.6c0.1-1.1,0-3-1.1-4.8c-0.3-0.4-1.5-2.3-2.8-2.1
			c-0.8,0.2-1.2,1.1-1.5,1.8c-0.6,1.4-0.5,2.5-0.5,6.3c0,1.7-0.1,2-0.3,2.5c-0.6,1.1-1.8,1.6-3.3,2c-2.5,0.7-3.2-0.9-3.9-2.7
			c-0.4-1.2-0.4-1.1-0.7-1.5c-0.7-1.1-2.2-2.6-3.6-2.2c-1.1,0.4-1.4,1.8-1.5,1.9c-0.3,1.3,0.4,2.3,0.5,2.5c0.4,0.6,0.9,1.6,1.1,2.9
			c0.1,0.8,0.3,1.5,0,2.4c-0.3,1-1,1.6-3.3,3.3c-1.5,1.1-2.7,1.9-3.4,2.5c-1.9,1.8-4.3,4.3-6.8,7.5
			C598.2,138.1,592.7,145.2,587.9,156z"/>
		<path class="st4" d="M619.7,197.4c0.9-0.3,5,4.6,3.8,9.4c-1.1,4.2-5.9,6.5-6.6,5.9c-0.6-0.5,1.9-2.8,2.8-7.4
			C620.6,200.6,619.1,197.6,619.7,197.4z"/>
		<path class="st5" d="M617.9,179.3c-1-1.7-2-3.3-3-5c0-0.2,0.1-0.4,0.1-0.5c1.8-1,3.6-2,5.4-3c0.5,0.5,1,1,1.5,1.6
			c-0.6,2.2-1.2,4.4-1.9,6.6C619.3,179.1,618.6,179.2,617.9,179.3z"/>
		<path class="st4" d="M633.2,151.3c1.3-4.5,0.3-7.4,1.1-7.6c1-0.2,4.1,4.1,3.2,8.3c-1.1,4.8-7,7.3-7.7,6.6
			C629.3,158,631.9,156,633.2,151.3z"/>
		<path class="st7" d="M617.1,164.4c-0.6,0-2.9-0.1-4.6,1.1c-0.8,0.5-1.3,1.2-1.6,2c-0.7,1.7,0.1,3.3,0.5,3.9c1,2.1,2.9,3,3.5,3.3
			c0.1-0.3,0.1-0.6,0.2-1c-0.3-0.2-0.6-0.4-1-0.8c-0.7-0.7-1.1-1.2-1.3-1.7c0,0-0.1-0.3-0.2-0.6c-0.1-0.2-0.5-2.1,0.6-3.4
			c0.4-0.5,0.9-0.7,1.3-0.9c1.4-0.6,2.8-0.5,3.5-0.3C617.6,165.5,617.3,164.9,617.1,164.4z"/>
		<path class="st7" d="M612.7,184.3c-0.6-0.2-2.5-0.9-3.7-3c-0.3-0.5-1.3-2.4-0.5-4.3c0.5-1.1,1.4-1.7,2-2.1
			c1.8-1.2,3.7-1.2,4.6-1.1c-0.1,0.3-0.2,0.5-0.3,0.8c-0.2,0-0.4,0-0.6,0.1c-0.1,0-0.3,0-0.6,0.1c-0.2,0-0.7,0.2-1.2,0.4
			c-0.2,0.1-0.9,0.5-1.4,1.1c-0.7,0.8-1.1,2.1-0.9,3.2c0.3,1.7,1.6,3,3.4,3.5C613.2,183.5,612.9,183.9,612.7,184.3z"/>
		<path class="st8" d="M679.1,142.3c0.7,2.5,1.3,5.8,1.5,9.8c0.2,3.7,0.1,7-0.2,9.7c2.3-0.7,4.2-1.5,5.6-2.2
			c1.7-0.9,3.8-2.4,7.8-5.4c1.2-0.9,2.3-1.8,2.4-3c0.1-0.7-0.3-1.3-1-2.1c-1.9-2.2-3.9-3.2-4.5-3.5c-1.3-0.6-3.1-1.4-5.6-2.1
			C683.6,143,681.5,142.6,679.1,142.3z"/>
		<path class="st8" d="M652.4,234.2c2.2-1.6,4.8-3.9,7.4-6.9c2.5-2.8,4.4-5.6,5.7-7.9c1.7,2,3,3.9,3.8,5.2c1.1,1.8,2,4.2,3.9,9.2
			c0.6,1.5,1.1,2.9,0.4,3.9c-0.4,0.6-1.1,0.9-2.2,1.1c-3.1,0.6-5.6,0.1-6.3,0c-1.6-0.3-3.7-0.8-6.4-1.8
			C657,236.4,654.8,235.5,652.4,234.2z"/>
		<path class="st12" d="M536.9,106.8c7.2-3.5,14.3-2.9,17.3,0.9c1,1.2,2.8,4.3,1.7,7.6c-0.8,2.4-2.8,3.7-3.5,4.1
			c2.6,14.1,5.2,28.2,7.7,42.3c2,3,2.2,6.8,0.5,10c-2.5,4.6-7.6,5.1-7.9,5.1l-1.8,0.3c-6.7,1.2-13.1-3.2-14.4-9.9l-7.9-43.1
			c-0.3-0.9-1.8-6.2,1.3-11.4C532.1,108.8,535.7,107.2,536.9,106.8z"/>
		<path class="st2" d="M586.3,107.5c7.9,1.2,13.4,5.8,13.7,10.6c0.1,1.6-0.2,5.1-3,7.2c-2.1,1.5-4.4,1.5-5.3,1.4
			c-5.9,13-11.8,26.1-17.8,39.1c-0.1,3.6-2.1,6.8-5.3,8.5c-4.7,2.4-9.2-0.2-9.4-0.3l-1.7-0.8c-6.2-2.8-8.9-10.1-6.1-16.3l18.1-39.9
			c0.3-0.9,2.1-6.1,7.5-8.6C581.2,106.4,585.1,107.2,586.3,107.5z"/>
		<path class="st9" d="M549.7,115.9c0.4,0.1,0.9,0.1,1.6,0.1c0.6,0,1.7-0.1,2.7-0.8c1.4-0.9,1.9-2.5,2-2.9c-0.1-0.4-0.2-0.7-0.4-1.1
			c-0.1,0.2-0.1,0.4-0.3,0.7c-0.1,0.2-0.9,1.8-2.6,2.5c-1.5,0.7-2.8,0.2-3.1,0.9C549.5,115.5,549.6,115.7,549.7,115.9z"/>
		<path class="st9" d="M547,111.4c0.4,0,0.9,0,1.6-0.2c0.6-0.1,1.7-0.4,2.6-1.2c1.3-1.1,1.4-2.7,1.5-3.2c-0.2-0.3-0.4-0.7-0.5-1
			c0,0.2-0.1,0.4-0.2,0.7c-0.1,0.2-0.6,1.9-2.2,2.9c-1.4,0.9-2.8,0.7-2.9,1.4C546.8,111.1,546.9,111.3,547,111.4z"/>
		<path class="st9" d="M592.7,122.3c0.3,0.2,0.8,0.4,1.5,0.6c0.6,0.2,1.7,0.5,2.8,0.2c1.6-0.4,2.6-1.7,2.9-2.1c0-0.4,0-0.8,0-1.1
			c-0.1,0.1-0.3,0.3-0.5,0.5s-1.5,1.4-3.3,1.5c-1.7,0.1-2.7-0.8-3.2-0.2C592.6,121.8,592.6,122.1,592.7,122.3z"/>
		<path class="st9" d="M591.7,117.2c0.4,0.1,0.9,0.3,1.5,0.4s1.7,0.2,2.8-0.2c1.6-0.6,2.3-2.1,2.5-2.5c-0.1-0.4-0.1-0.7-0.2-1.1
			c-0.1,0.2-0.2,0.4-0.4,0.6c-0.1,0.2-1.2,1.6-3.1,2c-1.6,0.4-2.8-0.3-3.2,0.3C591.6,116.7,591.6,117,591.7,117.2z"/>
		<path class="st2" d="M429.7,182c-3.7-3.1-4.1-8.2-4.6-14.2c-0.6-8.9,1.7-9.6,0.8-16.5c-1.1-8.2-5.2-14.1-7.2-16.9
			c-2.2-3.1-5.1-7-10.4-9.7c-4-2.1-7.5-2.5-9.7-2.7c-11-1.3-19.4,3.4-20.9,4.2c-2.9,1.6-13.5,7.7-13.4,16.2c0,0.5,0.1,5.1,3,6.7
			c2.8,1.6,6.6-0.4,9.8-2.1c5.8-3.1,5.9-5.4,10.6-7.4c1.6-0.6,6.1-2.5,10.5-0.9c6.3,2.3,8.3,10.6,9,13.5c2.2,9.1-1.4,12.5-1.2,21.8
			c0.2,8,3.2,17.5,8.7,23.1c9.1,9.4,27.2,10.1,44.8,2.1c-1.4-6.7-2.7-13.4-4.1-20.1c-2.3,1.6-7,4.3-13.3,4.9
			C438.3,184.5,433.3,185,429.7,182z"/>
		<path class="st12" d="M455.3,119.3c6.7-4.3,13.9-4.5,17.3-1.1c1.1,1.1,3.2,4,2.5,7.4c-0.5,2.5-2.4,4-3,4.5
			c4.2,13.7,8.3,27.4,12.5,41.2c2.3,2.8,2.9,6.5,1.6,9.8c-1.9,4.9-7,5.9-7.3,6l-1.8,0.5c-6.5,2-13.4-1.7-15.4-8.2L449,137.5
			c-0.4-0.9-2.5-5.9,0-11.4C450.8,121.8,454.2,119.9,455.3,119.3z"/>
		<path class="st2" d="M491.4,110.4c7.7-1.9,14.6,0.2,16.7,4.4c0.7,1.4,1.8,4.8,0,7.8c-1.3,2.2-3.5,3.1-4.3,3.3
			c-0.4,14.3-0.8,28.7-1.2,43c1.3,3.3,0.7,7.1-1.6,9.9c-3.4,4-8.5,3.4-8.8,3.4l-1.8-0.1c-6.8-0.2-12.2-5.9-12-12.7l1.2-43.8
			c-0.1-0.9-0.5-6.4,3.6-10.9C486.3,111.4,490.2,110.6,491.4,110.4z"/>
		<path class="st2" d="M455.8,177.3c-4.7,8-5.1,15.7-5.3,20.7c-0.5,10.2,2,18.4,3.9,23c2.1,2.7,5.4,6.5,10.4,9.8
			c5.4,3.6,10,4.8,18.8,7c4.6,1.2,13.2,3.1,24.3,3.6c2,0.1,3.5,0.1,6.9,0.1c18.2,0,27.2,0.1,35.8-0.5c13-0.9,19.5-1.4,26.1-3.9
			c5.8-2.2,14.9-5.8,20.8-15.1c4-6.2,5-12.5,5.3-14.7s1-6.6-0.1-12c-0.6-3.3-1.7-6.2-2.3-7.6c-0.9-2.3-1.7-4.1-2.2-5
			c-4-7.7-9.8-12.1-12.3-14c-3.9-2.9-7.4-4.5-12.6-7c-1-0.5-2-0.9-2.9-1.3c0,0-3-1.3-5.7-2.3c-3.2-1.2-13.9-2.8-28.6-3.3
			c-5.2,0.1-10.4,0.2-15.7,0.3c-4.9-0.3-11.7-0.4-19.7,0.4c-7.5,0.7-14.3,1.1-22,4.2C473.5,161.7,462.5,166,455.8,177.3z"/>
		<path class="st9" d="M469.1,126.9c0.4,0,0.9,0,1.6-0.1c0.6-0.1,1.7-0.3,2.6-1.1c1.3-1.1,1.6-2.7,1.6-3.2c-0.2-0.3-0.3-0.7-0.5-1
			c0,0.2-0.1,0.4-0.2,0.7c-0.1,0.2-0.7,1.9-2.3,2.8c-1.5,0.8-2.8,0.5-3,1.2C468.9,126.5,469,126.7,469.1,126.9z"/>
		<path class="st9" d="M465.9,122.8c0.4,0,0.9-0.1,1.5-0.4c0.6-0.2,1.6-0.6,2.4-1.5c1.1-1.3,1.1-2.9,1.1-3.4
			c-0.2-0.3-0.4-0.6-0.6-0.9c0,0.2,0,0.4-0.1,0.7c0,0.2-0.4,2-1.8,3.1c-1.3,1-2.7,1-2.7,1.7C465.7,122.4,465.8,122.6,465.9,122.8z"
			/>
		<path class="st9" d="M503,121.6c0.4,0,0.9,0.1,1.6,0c0.6-0.1,1.7-0.2,2.7-0.9c1.4-1,1.7-2.5,1.8-3c-0.1-0.4-0.3-0.7-0.4-1.1
			c0,0.2-0.1,0.4-0.2,0.7c-0.1,0.2-0.8,1.8-2.5,2.6c-1.5,0.7-2.8,0.4-3,1C502.8,121.2,502.9,121.4,503,121.6z"/>
		<path class="st9" d="M500.1,117.2c0.4,0,0.9-0.1,1.6-0.3c0.6-0.2,1.7-0.5,2.5-1.3c1.2-1.2,1.3-2.8,1.3-3.3c-0.2-0.3-0.4-0.6-0.6-1
			c0,0.2,0,0.4-0.1,0.7c-0.1,0.2-0.5,1.9-2.1,3c-1.4,1-2.7,0.8-2.8,1.5C499.9,116.9,500,117.1,500.1,117.2z"/>
		<path class="st7" d="M699.3,81.8c-2.5-1.8-6-0.8-7.9,0.4c-2.4,1.4-3.4,3.7-3.7,4.8c-0.4-1.1-1.4-3.3-3.7-4.8
			c-1.9-1.2-5.5-2.2-7.9-0.4c-2.3,1.7-2.3,5-2.3,5.9c0,0.8,0.1,3.6,4.1,8.5c1.8,2.2,4.9,5.4,9.7,8.2c0,0,0,0,0,0.1l0,0l0,0
			c0,0,0,0,0-0.1c4.8-2.8,7.9-6,9.7-8.2c4-4.8,4.1-7.7,4.1-8.5C701.6,86.8,701.6,83.6,699.3,81.8z"/>
	</g>
</g>
</svg>
