<?xml version="1.0" encoding="UTF-8" standalone="no"?>
<!-- Generator: Adobe Illustrator 23.0.3, SVG Export Plug-In . SVG Version: 6.00 Build 0)  -->

<svg
   xmlns:dc="http://purl.org/dc/elements/1.1/"
   xmlns:cc="http://creativecommons.org/ns#"
   xmlns:rdf="http://www.w3.org/1999/02/22-rdf-syntax-ns#"
   xmlns:svg="http://www.w3.org/2000/svg"
   xmlns="http://www.w3.org/2000/svg"
   xmlns:sodipodi="http://sodipodi.sourceforge.net/DTD/sodipodi-0.dtd"
   xmlns:inkscape="http://www.inkscape.org/namespaces/inkscape"
   version="1.1"
   x="0px"
   y="0px"
   viewBox="0 0 253.3 222.1"
   style="enable-background:new 0 0 253.3 222.1;"
   xml:space="preserve"
   id="svg189"
   sodipodi:docname="catWalkSprite.svg"
   inkscape:version="0.92.3 (2405546, 2018-03-11)"><metadata
   id="metadata195"><rdf:RDF><cc:Work
       rdf:about=""><dc:format>image/svg+xml</dc:format><dc:type
         rdf:resource="http://purl.org/dc/dcmitype/StillImage" /><dc:title></dc:title></cc:Work></rdf:RDF></metadata><defs
   id="defs193" /><sodipodi:namedview
   pagecolor="#ffffff"
   bordercolor="#666666"
   borderopacity="1"
   objecttolerance="10"
   gridtolerance="10"
   guidetolerance="10"
   inkscape:pageopacity="0"
   inkscape:pageshadow="2"
   inkscape:window-width="1326"
   inkscape:window-height="787"
   id="namedview191"
   showgrid="false"
   inkscape:zoom="1.0625844"
   inkscape:cx="314.87035"
   inkscape:cy="111.05"
   inkscape:window-x="283"
   inkscape:window-y="204"
   inkscape:window-maximized="0"
   inkscape:current-layer="cat_walk_1" />
<style
   type="text/css"
   id="style2">
	.st0{display:none;}
	.st1{display:inline;fill:#E6E6E6;}
	.st2{display:inline;}
	.st3{fill:#E6E6E6;}
	.st4{fill:#20201E;}
	.st5{fill:#CC3E63;}
	.st6{fill:#E5385D;}
	.st7{fill:#FF99A3;}
	.st8{fill:#8E5960;}
	.st9{display:inline;fill:#20201E;}
	.st10{display:inline;fill:#CC3E63;}
	.st11{display:inline;fill:#E5385D;}
	.st12{display:inline;fill:#FF99A3;}
	.st13{display:inline;fill:#D6D6D6;}
	.st14{display:inline;fill:#8E5960;}
	.st15{fill:#D6D6D6;}
</style>
<g
   id="cat_sit"
   class="st0">
	<path
   class="st1"
   d="M-310.8,199.8c0,0-2.6-5.8-9-12.1c-0.2-0.2-1.1-1.1-2.4-1.8c-0.2-0.1-0.5-0.2-0.9-0.4   c-1.9-0.8-2.6-1.2-2.9-1.3c-2.5-0.9-7.5,5.8-8,6.4c-2.6,3.5-2.7,5.3-4.6,8.3c-0.2,0.4-0.9,1.4-1.2,2.9c-0.1,0.5-0.2,0.9-0.2,1.2   c1,0.6,2.1,1.3,3.2,2.3c0.6,0.6,1.2,1.1,1.7,1.6c0,0,0.9,1.1,1.3,2.6c0.9,4.4-1.2,9-6,10.5c-5.4,1.7-11.2,3.3-16.8,3.6   c-12.3,0.6-24.7,0.2-37.1,0.3c-5.2,0-9.8,1.4-13,5.4c-4.4,10,2.6,18.6,14.6,17.8c8.5-0.6,17-0.2,25.5-0.7c9.5-0.6,19-1.3,28.4-2.8   c15-2.3,24.6-10.4,29.2-23.2c1.3-3.5,1.3-6.7,1.2-9.1C-308.1,206.1-309.8,202.1-310.8,199.8z"
   id="path4" />
	<g
   id="Ebene_2"
   class="st2">
		<path
   class="st3"
   d="M-329.7,195c3.7-5,4.9-10,5.9-13.7c0.3-1.1,0.9-3.8,1.2-7.4c1.1-12.1-2.4-22.7-3.6-26.3    c-3.4-10.1-8.5-17.6-12.5-22.6c-2.3-2.4-5.4-5.5-9.5-8.7c-3.8-3-7.8-6.2-13.7-9.1c-7-3.4-14.6-5.5-22.7-6.3    c-1.5-0.1-3.1-0.4-5.9-0.7c-9.2-1-21.2-2.2-35.6-1.5c-12.7,0.6-19.1,0.8-26.2,3.4c-5.9,2.1-15,5.5-21.1,14.6    c-4.1,6.1-5.3,12.4-5.6,14.6c-0.4,2.2-1.1,6.6-0.2,12c0.6,3.3,1.6,6.2,2.1,7.7c0.8,2.3,1.6,4.1,2.1,5.1    c3.9,7.8,9.5,12.3,12.1,14.3c3.9,3,7.3,4.7,12.5,7.3c3.6,1.8,6.5,3,8.6,3.8c9.1,3.7,18.6,7.1,26.1,9.7c2.5,0.3,6.4,0.4,11.1-0.3    c-0.7,3.7-1.8,6.6-1.8,9.6c-0.1,7.2,3.9,12.5,11,13.2c8,0.8,16.1,0.5,24.2,0.2c8.9-0.4,17.4-3,25.5-6.6c3.6-1.6,6-3.3,7.3-4.2    C-335.9,201.3-332.6,198.9-329.7,195z"
   id="path6" />
		<path
   class="st3"
   d="M-246.3,115.5"
   id="path8" />
	</g>
	<g
   id="Ebene_5"
   class="st2">
	</g>
	<g
   id="Ebene_1"
   class="st2">
		<path
   class="st3"
   d="M-464.8,109.7c15.9,2.6,28.2,0.4,31.8-0.3c1-0.2,5.1-1,10.2-2.7c4.8-1.6,10.1-3.4,15.9-7.5    c1.3-0.9,2.2-1.7,2.9-2.3c0,0,2.8-2.5,2.8-2.5c2.8-2.4-2.8,2.5-2.8,2.5c-0.1-0.1,1-1.6,2.8-2.5c0.6-0.3,1.2-0.6,2-0.5    c1.5,0.2,1.8,1.5,3.7,2.3c0.9,0.4,2.9,1,3.8,0.1c0.8-0.8,0.3-2.6-0.2-3.6c-0.2-0.4-0.4-1.1-1.5-1.8c-2-1.3-2.5-2.7-1.1-4.8    c1.4-2.1,2.9-3,5.4-1.7c1.2,0.6,2.7,1,4,0.9c0.9,0,2.3-0.8,2.5-1.6c0.3-0.8-0.3-2.3-1-2.8c-0.7-0.6-1.1-0.5-3.7-1.7    c-1.7-0.7-2.1-1-2.3-1.4c-0.3-0.6-0.3-1.3-0.3-2.2c0-0.8,0-1.2,0.2-1.6c0.5-1,1.6-1.4,3-1.5c3.3-0.2,3.9,0.1,5.8-0.6    c1.3-0.5,3-1.7,2.9-2.8c-0.1-1.2-2.4-1.9-3.7-2.3c-3.5-1.1-5.2,0-6.4-1.2c-0.9-0.9-1-2.8-1.1-6.5c-0.6-17.5-2.7-34.8-7.3-51.8    c-0.5-1.7-1.3-3.4-2.1-5.1c-2.2-5-6.3-6.5-10.9-3.5c-5.5,3.5-10.7,7.5-15.9,11.4c-1.8,1.4-3.3,3.2-5.3,4.4c-1.4,0.9-3.4,1.6-5,1.3    c-10.3-2-20.4-2.1-30.7,0.1c-1.7,0.4-4.1-0.4-5.6-1.5C-479,9.3-485.7,4-492.7-1c-4.9-3.5-9.6-2.1-11.8,3.5c-1.1,3-2.2,6-2.9,9.1    c-3.2,16.1-6.2,32.1-6,48.6c0,0.5,0,0.9-0.1,1.4c-0.5,5.5-0.5,5.4-6,5.1c-2.3-0.1-5.8-1.5-6.3,2.2c-0.5,3.7,3.3,2.6,5.3,3.2    c1.5,0.4,3.2,0.3,4.8,0.6c2.7,0.5,3.4,2.7,1.6,4.8l0,0c-0.6,0.3-1.1,0.6-1.7,0.9c-0.2,0-0.4,0-0.6,0c-1.1,0.2-3,0.7-4.4,2.3    c-0.3,0.4-1.9,2.1-1.3,3.2c0.4,0.7,1.4,0.9,2.1,1c1.5,0.2,2.5-0.2,6.2-1c1.6-0.4,2-0.4,2.5-0.3c1.2,0.3,2,1.4,2.8,2.7    c1.3,2.2-0.1,3.4-1.7,4.5c-1,0.7-0.9,0.6-1.3,1c-0.9,0.9-2,2.8-1.2,4c0.6,1,2.1,1,2.2,1c1.3,0,2.2-1,2.3-1.1    c0.5-0.5,1.3-1.2,2.5-1.8c0.7-0.3,1.4-0.7,2.3-0.6c1.1,0,1.8,0.6,4,2.4c1.4,1.2,2.5,2.1,3.2,2.7c2.2,1.4,5.2,3.1,8.9,4.8    C-484.7,104.2-476.5,107.8-464.8,109.7z"
   id="path12" />
		<path
   class="st4"
   d="M-432.5,68.7c0-3.1,3.8-5.9,8.2-6c4-0.1,7.3,2.2,7.3,5c0,3.1-3.8,5.9-8.2,6    C-429.2,73.7-432.5,71.5-432.5,68.7z"
   id="path14" />
		<path
   class="st5"
   d="M-449.6,74.9c-1.4,1.4-2.7,2.7-4.1,4.1c-0.2,0-0.4,0-0.5,0c-1.4-1.5-2.8-3-4.2-4.5c0.4-0.6,0.8-1.2,1.2-1.8    c2.3,0.1,4.5,0.1,6.8,0.2C-450.2,73.6-449.9,74.3-449.6,74.9z"
   id="path16" />
		<path
   class="st4"
   d="M-479.9,73.6c-4.3,0-8.3-2.7-8.3-5.8c0-2.8,3.2-5.1,7.2-5.1c4.4,0,8.3,2.7,8.3,5.8    C-472.7,71.3-475.9,73.6-479.9,73.6z"
   id="path18" />
		<path
   class="st6"
   d="M-463.9,79.4c0.1,0.6,0.6,2.8,2.2,4.2c0.7,0.6,1.5,1,2.3,1.1c1.8,0.2,3.1-0.9,3.7-1.4    c1.8-1.5,2.2-3.5,2.3-4.2c-0.3,0-0.7,0-1,0c-0.1,0.3-0.3,0.7-0.5,1.1c-0.5,0.8-0.9,1.4-1.3,1.7c0,0-0.3,0.2-0.5,0.4    c-0.2,0.1-1.9,1-3.4,0.3c-0.6-0.3-0.9-0.7-1.2-1c-1-1.2-1.1-2.6-1.1-3.3C-462.9,78.6-463.4,79-463.9,79.4z"
   id="path20" />
		<path
   class="st6"
   d="M-443.5,78.8c0,0.6-0.3,2.7-2,4.3c-0.4,0.4-2,1.9-4,1.6c-1.2-0.2-2-0.9-2.5-1.4c-1.6-1.5-2.1-3.3-2.2-4.2    c0.3,0,0.6,0,0.8,0c0.1,0.2,0.1,0.4,0.2,0.6c0,0.1,0.1,0.3,0.3,0.5c0.1,0.2,0.4,0.6,0.7,1.1c0.2,0.2,0.7,0.8,1.4,1.1    c1,0.5,2.3,0.5,3.3,0.1c1.5-0.7,2.5-2.3,2.5-4.2C-444.4,78.5-444,78.6-443.5,78.8z"
   id="path22" />
		<path
   class="st7"
   d="M-500.6,24.8c2.3-1.3,5.3-2.7,9.1-3.9c3.6-1.1,6.8-1.8,9.4-2.2c-1.2-2.1-2.5-3.7-3.5-4.9    c-1.3-1.5-3.2-3.1-7.1-6.2c-1.2-0.9-2.3-1.8-3.5-1.6c-0.7,0.1-1.2,0.6-1.8,1.5c-1.7,2.4-2.2,4.6-2.3,5.3c-0.3,1.4-0.6,3.3-0.7,5.9    C-501,20.3-500.9,22.3-500.6,24.8z"
   id="path24" />
		<path
   class="st7"
   d="M-405,28c-2.1-1.7-4.9-3.7-8.5-5.5c-3.4-1.7-6.5-2.8-9-3.6c1.5-2.2,3-3.8,4.1-5c1.5-1.5,3.6-3,7.9-6    c1.3-0.9,2.5-1.7,3.7-1.4c0.7,0.2,1.1,0.9,1.6,1.9c1.3,2.8,1.5,5.4,1.6,6.1c0.1,1.6,0.1,3.8-0.2,6.7C-404,23-404.3,25.3-405,28z"
   id="path26" />
	</g>
	<g
   id="Ebene_3"
   class="st2">
		<path
   class="st3"
   d="M-460.9,215.8c-7.7,2.1-14.6,0.2-16.9-4c-0.8-1.4-1.9-4.8-0.3-7.8c1.2-2.3,3.4-3.2,4.2-3.4    c0-14.3,0-28.7,0-43c-1.4-3.3-0.9-7.1,1.3-9.9c3.3-4.1,8.4-3.6,8.7-3.6h1.9c6.8,0,12.3,5.5,12.3,12.3v43.8c0.1,0.9,0.7,6.4-3.3,11    C-455.9,214.7-459.7,215.6-460.9,215.8z"
   id="path29" />
		<path
   class="st3"
   d="M-229.7,175.5"
   id="path31" />
		<path
   class="st3"
   d="M-428.3,217.4c-7.7,2.1-14.6,0.2-16.9-4c-0.8-1.4-1.9-4.8-0.3-7.8c1.2-2.3,3.4-3.2,4.2-3.4    c0-14.3,0-28.7,0-43c-1.4-3.3-0.9-7.1,1.3-9.9c3.3-4.1,8.4-3.6,8.7-3.6h1.9c6.8,0,12.3,5.5,12.3,12.3v43.8c0.1,0.9,0.7,6.4-3.3,11    C-423.2,216.3-427,217.2-428.3,217.4z"
   id="path33" />
		<path
   class="st8"
   d="M-471.9,204.6c-0.4-0.1-0.9-0.3-1.5-0.4c-0.6-0.1-1.7-0.2-2.8,0.2c-1.6,0.6-2.3,2.1-2.5,2.5    c0.1,0.4,0.1,0.7,0.2,1.1c0.1-0.2,0.2-0.4,0.4-0.6c0.1-0.2,1.2-1.6,3.1-2c1.6-0.4,2.8,0.3,3.2-0.3    C-471.8,205-471.9,204.7-471.9,204.6z"
   id="path35" />
		<path
   class="st8"
   d="M-470.1,209.4c-0.4-0.1-0.9-0.1-1.6-0.1c-0.6,0-1.7,0.1-2.7,0.7c-1.4,0.9-1.9,2.4-2,2.9    c0.1,0.4,0.2,0.7,0.3,1.1c0.1-0.2,0.1-0.4,0.3-0.7c0.1-0.2,0.9-1.8,2.7-2.5c1.6-0.6,2.8-0.2,3.1-0.8    C-469.9,209.8-470,209.6-470.1,209.4z"
   id="path37" />
		<path
   class="st8"
   d="M-440.2,206.6c-0.4,0-0.9,0-1.6,0c-0.6,0.1-1.7,0.2-2.7,1c-1.4,1-1.7,2.6-1.7,3.1c0.1,0.3,0.3,0.7,0.4,1    c0-0.2,0.1-0.4,0.2-0.7c0.1-0.2,0.8-1.8,2.4-2.7c1.5-0.8,2.8-0.4,3-1.1C-440,207-440.1,206.7-440.2,206.6z"
   id="path39" />
		<path
   class="st8"
   d="M-437.2,210.8c-0.4,0-0.9,0.1-1.6,0.3c-0.6,0.2-1.6,0.5-2.5,1.4c-1.2,1.2-1.2,2.8-1.2,3.3    c0.2,0.3,0.4,0.6,0.6,1c0-0.2,0-0.4,0.1-0.7c0-0.2,0.4-1.9,2-3.1c1.3-1,2.7-0.9,2.8-1.6C-436.9,211.2-437.1,211-437.2,210.8z"
   id="path41" />
	</g>
</g>
<g
   id="cat_stand"
   class="st0">
	<g
   id="Ebene_4"
   class="st2">
		<path
   class="st3"
   d="M-99.5,164.3c4.9-7.9,5.4-15.6,5.7-20.6c0.7-10.2-1.7-18.4-3.4-23.1c-2-2.7-5.3-6.6-10.2-10    c-5.4-3.7-9.9-5-18.6-7.4c-4.6-1.3-13.1-3.4-24.3-4.1c-2-0.1-3.5-0.2-6.9-0.3c-18.1-0.4-27.2-0.6-35.8-0.2    c-13,0.7-19.6,1-26.2,3.4c-5.9,2.1-15,5.5-21.1,14.6c-4.1,6.1-5.3,12.4-5.6,14.6c-0.4,2.2-1.1,6.6-0.2,12c0.6,3.3,1.6,6.2,2.1,7.7    c0.8,2.3,1.6,4.1,2.1,5.1c3.9,7.8,9.5,12.3,12.1,14.3c3.9,3,7.3,4.7,12.5,7.3c1,0.5,2,1,2.9,1.4c0,0,3,1.4,5.7,2.4    c3.2,1.2,13.9,3.1,28.5,3.8c5.2,0,10.4,0,15.7,0c4.9,0.4,11.7,0.6,19.7,0c7.6-0.6,14.3-0.8,22.1-3.7    C-117.5,179.6-106.4,175.4-99.5,164.3z"
   id="path45" />
		<path
   class="st3"
   d="M-231.8,109.7c15.9,2.6,28.2,0.4,31.8-0.3c1-0.2,5.1-1,10.2-2.7c4.8-1.6,10.1-3.4,15.9-7.5    c1.3-0.9,2.2-1.7,2.9-2.3c0,0,2.8-2.5,2.8-2.5c2.8-2.4-2.8,2.5-2.8,2.5c-0.1-0.1,1-1.6,2.8-2.5c0.6-0.3,1.2-0.6,2-0.5    c1.5,0.2,1.8,1.5,3.7,2.3c0.9,0.4,2.9,1,3.8,0.1c0.8-0.8,0.3-2.6-0.2-3.6c-0.2-0.4-0.4-1.1-1.5-1.8c-2-1.3-2.5-2.7-1.1-4.8    c1.4-2.1,2.9-3,5.4-1.7c1.2,0.6,2.7,1,4,0.9c0.9,0,2.3-0.8,2.5-1.6c0.3-0.8-0.3-2.3-1-2.8c-0.7-0.6-1.1-0.5-3.7-1.7    c-1.7-0.7-2.1-1-2.3-1.4c-0.3-0.6-0.3-1.3-0.3-2.2c0-0.8,0-1.2,0.2-1.6c0.5-1,1.6-1.4,3-1.5c3.3-0.2,3.9,0.1,5.8-0.6    c1.3-0.5,3-1.7,2.9-2.8c-0.1-1.2-2.4-1.9-3.7-2.3c-3.5-1.1-5.2,0-6.4-1.2c-0.9-0.9-1-2.8-1.1-6.5c-0.6-17.5-2.7-34.8-7.3-51.8    c-0.5-1.7-1.3-3.4-2.1-5.1c-2.2-5-6.3-6.5-10.9-3.5c-5.5,3.5-10.7,7.5-15.9,11.4c-1.8,1.4-3.3,3.2-5.3,4.4c-1.4,0.9-3.4,1.6-5,1.3    c-10.3-2-20.4-2.1-30.7,0.1c-1.7,0.4-4.1-0.4-5.6-1.5C-246,9.3-252.7,4-259.7-1c-4.9-3.5-9.6-2.1-11.8,3.5c-1.1,3-2.2,6-2.9,9.1    c-3.2,16.1-6.2,32.1-6,48.6c0,0.5,0,0.9-0.1,1.4c-0.5,5.5-0.5,5.4-6,5.1c-2.3-0.1-5.8-1.5-6.3,2.2c-0.5,3.7,3.3,2.6,5.3,3.2    c1.5,0.4,3.2,0.3,4.8,0.6c2.7,0.5,3.4,2.7,1.6,4.8l0,0c-0.6,0.3-1.1,0.6-1.7,0.9c-0.2,0-0.4,0-0.6,0c-1.1,0.2-3,0.7-4.4,2.3    c-0.3,0.4-1.9,2.1-1.3,3.2c0.4,0.7,1.4,0.9,2.1,1c1.5,0.2,2.5-0.2,6.2-1c1.6-0.4,2-0.4,2.5-0.3c1.2,0.3,2,1.4,2.8,2.7    c1.3,2.2-0.1,3.4-1.7,4.5c-1,0.7-0.9,0.6-1.3,1c-0.9,0.9-2,2.8-1.2,4c0.6,1,2.1,1,2.2,1c1.3,0,2.2-1,2.3-1.1    c0.5-0.5,1.3-1.2,2.5-1.8c0.7-0.3,1.4-0.7,2.3-0.6c1.1,0,1.8,0.6,4,2.4c1.4,1.2,2.5,2.1,3.2,2.7c2.2,1.4,5.2,3.1,8.9,4.8    C-251.7,104.2-243.5,107.8-231.8,109.7z"
   id="path47" />
		<path
   class="st4"
   d="M-199.5,68.7c0-3.1,3.8-5.9,8.2-6c4-0.1,7.3,2.2,7.3,5c0,3.1-3.8,5.9-8.2,6    C-196.2,73.7-199.5,71.5-199.5,68.7z"
   id="path49" />
		<path
   class="st5"
   d="M-216.6,74.9c-1.4,1.4-2.7,2.7-4.1,4.1c-0.2,0-0.4,0-0.5,0c-1.4-1.5-2.8-3-4.2-4.5c0.4-0.6,0.8-1.2,1.2-1.8    c2.3,0.1,4.5,0.1,6.8,0.2C-217.2,73.6-216.9,74.3-216.6,74.9z"
   id="path51" />
		<path
   class="st4"
   d="M-246.9,73.6c-4.3,0-8.3-2.7-8.3-5.8c0-2.8,3.2-5.1,7.2-5.1c4.4,0,8.3,2.7,8.3,5.8    C-239.7,71.3-242.9,73.6-246.9,73.6z"
   id="path53" />
		<path
   class="st6"
   d="M-230.9,79.4c0.1,0.6,0.6,2.8,2.2,4.2c0.7,0.6,1.5,1,2.3,1.1c1.8,0.2,3.1-0.9,3.7-1.4    c1.8-1.5,2.2-3.5,2.3-4.2c-0.3,0-0.7,0-1,0c-0.1,0.3-0.3,0.7-0.5,1.1c-0.5,0.8-0.9,1.4-1.3,1.7c0,0-0.3,0.2-0.5,0.4    c-0.2,0.1-1.9,1-3.4,0.3c-0.6-0.3-0.9-0.7-1.2-1c-1-1.2-1.1-2.6-1.1-3.3C-229.9,78.6-230.4,79-230.9,79.4z"
   id="path55" />
		<path
   class="st6"
   d="M-210.5,78.8c0,0.6-0.3,2.7-2,4.3c-0.4,0.4-2,1.9-4,1.6c-1.2-0.2-2-0.9-2.5-1.4c-1.6-1.5-2.1-3.3-2.2-4.2    c0.3,0,0.6,0,0.8,0c0.1,0.2,0.1,0.4,0.2,0.6c0,0.1,0.1,0.3,0.3,0.5c0.1,0.2,0.4,0.6,0.7,1.1c0.2,0.2,0.7,0.8,1.4,1.1    c1,0.5,2.3,0.5,3.3,0.1c1.5-0.7,2.5-2.3,2.5-4.2C-211.4,78.5-211,78.6-210.5,78.8z"
   id="path57" />
		<path
   class="st7"
   d="M-267.6,24.8c2.3-1.3,5.3-2.7,9.1-3.9c3.6-1.1,6.8-1.8,9.4-2.2c-1.2-2.1-2.5-3.7-3.5-4.9    c-1.3-1.5-3.2-3.1-7.1-6.2c-1.2-0.9-2.3-1.8-3.5-1.6c-0.7,0.1-1.2,0.6-1.8,1.5c-1.7,2.4-2.2,4.6-2.3,5.3c-0.3,1.4-0.6,3.3-0.7,5.9    C-268,20.3-267.9,22.3-267.6,24.8z"
   id="path59" />
		<path
   class="st7"
   d="M-172,28c-2.1-1.7-4.9-3.7-8.5-5.5c-3.4-1.7-6.5-2.8-9-3.6c1.5-2.2,3-3.8,4.1-5c1.5-1.5,3.6-3,7.9-6    c1.3-0.9,2.5-1.7,3.7-1.4c0.7,0.2,1.1,0.9,1.6,1.9c1.3,2.8,1.5,5.4,1.6,6.1c0.1,1.6,0.1,3.8-0.2,6.7C-171,23-171.3,25.3-172,28z"
   id="path61" />
		<path
   class="st3"
   d="M-227.9,215.8c-7.7,2.1-14.6,0.2-16.9-4c-0.8-1.4-1.9-4.8-0.3-7.8c1.2-2.3,3.4-3.2,4.2-3.4    c0-14.3,0-28.7,0-43c-1.4-3.3-0.9-7.1,1.3-9.9c3.3-4.1,8.4-3.6,8.7-3.6h1.9c6.8,0,12.3,5.5,12.3,12.3v43.8c0.1,0.9,0.7,6.4-3.3,11    C-222.9,214.7-226.7,215.6-227.9,215.8z"
   id="path63" />
		<path
   class="st3"
   d="M-195.3,217.4c-7.7,2.1-14.6,0.2-16.9-4c-0.8-1.4-1.9-4.8-0.3-7.8c1.2-2.3,3.4-3.2,4.2-3.4    c0-14.3,0-28.7,0-43c-1.4-3.3-0.9-7.1,1.3-9.9c3.3-4.1,8.4-3.6,8.7-3.6h1.9c6.8,0,12.3,5.5,12.3,12.3v43.8c0.1,0.9,0.7,6.4-3.3,11    C-190.2,216.3-194,217.2-195.3,217.4z"
   id="path65" />
		<path
   class="st8"
   d="M-238.9,204.6c-0.4-0.1-0.9-0.3-1.5-0.4c-0.6-0.1-1.7-0.2-2.8,0.2c-1.6,0.6-2.3,2.1-2.5,2.5    c0.1,0.4,0.1,0.7,0.2,1.1c0.1-0.2,0.2-0.4,0.4-0.6c0.1-0.2,1.2-1.6,3.1-2c1.6-0.4,2.8,0.3,3.2-0.3    C-238.8,205-238.9,204.7-238.9,204.6z"
   id="path67" />
		<path
   class="st8"
   d="M-237.1,209.4c-0.4-0.1-0.9-0.1-1.6-0.1c-0.6,0-1.7,0.1-2.7,0.7c-1.4,0.9-1.9,2.4-2,2.9    c0.1,0.4,0.2,0.7,0.3,1.1c0.1-0.2,0.1-0.4,0.3-0.7c0.1-0.2,0.9-1.8,2.7-2.5c1.6-0.6,2.8-0.2,3.1-0.8    C-236.9,209.8-237,209.6-237.1,209.4z"
   id="path69" />
		<path
   class="st8"
   d="M-207.2,206.6c-0.4,0-0.9,0-1.6,0c-0.6,0.1-1.7,0.2-2.7,1c-1.4,1-1.7,2.6-1.7,3.1c0.1,0.3,0.3,0.7,0.4,1    c0-0.2,0.1-0.4,0.2-0.7c0.1-0.2,0.8-1.8,2.4-2.7c1.5-0.8,2.8-0.4,3-1.1C-207,207-207.1,206.7-207.2,206.6z"
   id="path71" />
		<path
   class="st8"
   d="M-204.2,210.8c-0.4,0-0.9,0.1-1.6,0.3c-0.6,0.2-1.6,0.5-2.5,1.4c-1.2,1.2-1.2,2.8-1.2,3.3    c0.2,0.3,0.4,0.6,0.6,1c0-0.2,0-0.4,0.1-0.7c0-0.2,0.4-1.9,2-3.1c1.3-1,2.7-0.9,2.8-1.6C-203.9,211.2-204.1,211-204.2,210.8z"
   id="path73" />
		<path
   class="st3"
   d="M-87.8,113c-5.8,2.6-11.2,2.5-14,2.3c2.1,6.5,4.2,13,6.4,19.5c19.2-1.7,34.6-11.2,37.9-23.9    c2-7.6-0.1-17.4-3.9-24.4c-4.4-8.2-9.1-9.3-11.8-18.4C-74,65.2-76.4,57-72,51.9c3-3.5,7.9-4.2,9.6-4.4c5-0.6,6.3,1.4,12.9,1.2    c3.6-0.1,7.9-0.2,9.5-3c1.7-2.9-0.5-6.9-0.7-7.3c-4.1-7.4-16.3-7.5-19.7-7.5c-1.7,0-11.3,0.1-20.3,6.6c-1.8,1.3-4.6,3.4-7.1,7.1    c-3.3,5-3.8,9.8-4.3,13.6c-0.4,3.4-1.1,10.5,2,18.2c2.6,6.4,5,5.9,8.9,14c2.6,5.5,4.8,10.1,3.1,14.6    C-79.8,109.5-84.3,111.5-87.8,113z"
   id="path75" />
		<path
   class="st3"
   d="M-145.3,216.6c-7.7,2.1-14.6,0.2-16.9-4c-0.8-1.4-1.9-4.8-0.3-7.8c1.2-2.3,3.4-3.2,4.2-3.4    c0-14.3,0-28.7,0-43c-1.4-3.3-0.9-7.1,1.3-9.9c3.3-4.1,8.4-3.6,8.7-3.6h1.9c6.8,0,12.3,5.5,12.3,12.3v43.8c0.1,0.9,0.7,6.4-3.3,11    C-140.3,215.5-144.1,216.4-145.3,216.6z"
   id="path77" />
		<path
   class="st3"
   d="M-112.7,218.2c-7.7,2.1-14.6,0.2-16.9-4c-0.8-1.4-1.9-4.8-0.3-7.8c1.2-2.3,3.4-3.2,4.2-3.4    c0-14.3,0-28.7,0-43c-1.4-3.3-0.9-7.1,1.3-9.9c3.3-4.1,8.4-3.6,8.7-3.6h1.9c6.8,0,12.3,5.5,12.3,12.3v43.8c0.1,0.9,0.7,6.4-3.3,11    C-107.6,217-111.5,217.9-112.7,218.2z"
   id="path79" />
		<path
   class="st8"
   d="M-156.3,205.3c-0.4-0.1-0.9-0.3-1.5-0.4c-0.6-0.1-1.7-0.2-2.8,0.2c-1.6,0.6-2.3,2.1-2.5,2.5    c0.1,0.4,0.1,0.7,0.2,1.1c0.1-0.2,0.2-0.4,0.4-0.6c0.1-0.2,1.2-1.6,3.1-2c1.6-0.4,2.8,0.3,3.2-0.3    C-156.2,205.8-156.3,205.5-156.3,205.3z"
   id="path81" />
		<path
   class="st8"
   d="M-154.5,210.2c-0.4-0.1-0.9-0.1-1.6-0.1c-0.6,0-1.7,0.1-2.7,0.7c-1.4,0.9-1.9,2.4-2,2.9    c0.1,0.4,0.2,0.7,0.3,1.1c0.1-0.2,0.1-0.4,0.3-0.7c0.1-0.2,0.9-1.8,2.7-2.5c1.6-0.6,2.8-0.2,3.1-0.8    C-154.3,210.6-154.4,210.4-154.5,210.2z"
   id="path83" />
		<path
   class="st8"
   d="M-124.6,207.4c-0.4,0-0.9,0-1.6,0c-0.6,0.1-1.7,0.2-2.7,1c-1.4,1-1.7,2.6-1.7,3.1c0.1,0.3,0.3,0.7,0.4,1    c0-0.2,0.1-0.4,0.2-0.7c0.1-0.2,0.8-1.8,2.4-2.7c1.5-0.8,2.8-0.4,3-1.1C-124.4,207.7-124.5,207.5-124.6,207.4z"
   id="path85" />
		<path
   class="st8"
   d="M-121.6,211.6c-0.4,0-0.9,0.1-1.6,0.3c-0.6,0.2-1.6,0.5-2.5,1.4c-1.2,1.2-1.2,2.8-1.2,3.3    c0.2,0.3,0.4,0.6,0.6,1c0-0.2,0-0.4,0.1-0.7c0-0.2,0.4-1.9,2-3.1c1.3-1,2.7-0.9,2.8-1.6C-121.3,211.9-121.5,211.7-121.6,211.6z"
   id="path87" />
	</g>
</g>
<g
   id="cat_walk_2"
   class="st0">
	<path
   class="st1"
   d="M370,115.3"
   id="path91" />
	<path
   class="st1"
   d="M386.6,175.3"
   id="path93" />
	<path
   class="st1"
   d="M384.6,109.5c15.9,2.6,28.2,0.4,31.8-0.3c1-0.2,5.1-1,10.2-2.7c4.8-1.6,10.1-3.4,15.9-7.5   c1.3-0.9,2.2-1.7,2.9-2.3c0,0,2.8-2.5,2.8-2.5c2.8-2.4-2.8,2.5-2.8,2.5c-0.1-0.1,1-1.6,2.8-2.5c0.6-0.3,1.2-0.6,2-0.5   c1.5,0.2,1.8,1.5,3.7,2.3c0.9,0.4,2.9,1,3.8,0.1c0.8-0.8,0.3-2.6-0.2-3.6c-0.2-0.4-0.4-1.1-1.5-1.8c-2-1.3-2.5-2.7-1.1-4.8   c1.4-2.1,2.9-3,5.4-1.7c1.2,0.6,2.7,1,4,0.9c0.9,0,2.3-0.8,2.5-1.6c0.3-0.8-0.3-2.3-1-2.8c-0.7-0.6-1.1-0.5-3.7-1.7   c-1.7-0.7-2.1-1-2.3-1.4c-0.3-0.6-0.3-1.3-0.3-2.2c0-0.8,0-1.2,0.2-1.6c0.5-1,1.6-1.4,3-1.5c3.3-0.2,3.9,0.1,5.8-0.6   c1.3-0.5,3-1.7,2.9-2.8c-0.1-1.2-2.4-1.9-3.7-2.3c-3.5-1.1-5.2,0-6.4-1.2c-0.9-0.9-1-2.8-1.1-6.5c-0.6-17.5-2.7-34.8-7.3-51.8   c-0.5-1.7-1.3-3.4-2.1-5.1c-2.2-5-6.3-6.5-10.9-3.5c-5.5,3.5-10.7,7.5-15.9,11.4c-1.8,1.4-3.3,3.2-5.3,4.4c-1.4,0.9-3.4,1.6-5,1.3   c-10.3-2-20.4-2.1-30.7,0.1c-1.7,0.4-4.1-0.4-5.6-1.5c-7-4.9-13.7-10.2-20.7-15.2c-4.9-3.5-9.6-2.1-11.8,3.5c-1.1,3-2.2,6-2.9,9.1   c-3.2,16.1-6.2,32.1-6,48.6c0,0.5,0,0.9-0.1,1.4c-0.5,5.5-0.5,5.4-6,5.1c-2.3-0.1-5.8-1.5-6.3,2.2c-0.5,3.7,3.3,2.6,5.3,3.2   c1.5,0.4,3.2,0.3,4.8,0.6c2.7,0.5,3.4,2.7,1.6,4.8l0,0c-0.6,0.3-1.1,0.6-1.7,0.9c-0.2,0-0.4,0-0.6,0c-1.1,0.2-3,0.7-4.4,2.3   c-0.3,0.4-1.9,2.1-1.3,3.2c0.4,0.7,1.4,0.9,2.1,1c1.5,0.2,2.5-0.2,6.2-1c1.6-0.4,2-0.4,2.5-0.3c1.2,0.3,2,1.4,2.8,2.7   c1.3,2.2-0.1,3.4-1.7,4.5c-1,0.7-0.9,0.6-1.3,1c-0.9,0.9-2,2.8-1.2,4c0.6,1,2.1,1,2.2,1c1.3,0,2.2-1,2.3-1.1   c0.5-0.5,1.3-1.2,2.5-1.8c0.7-0.3,1.4-0.7,2.3-0.6c1.1,0,1.8,0.6,4,2.4c1.4,1.2,2.5,2.1,3.2,2.7c2.2,1.4,5.2,3.1,8.9,4.8   C364.7,103.9,372.9,107.6,384.6,109.5z"
   id="path95" />
	<path
   class="st9"
   d="M416.8,68.5c0-3.1,3.8-5.9,8.2-6c4-0.1,7.3,2.2,7.3,5c0,3.1-3.8,5.9-8.2,6C420.1,73.5,416.8,71.3,416.8,68.5z"
   id="path97" />
	<path
   class="st10"
   d="M399.7,74.7c-1.4,1.4-2.7,2.7-4.1,4.1c-0.2,0-0.4,0-0.5,0c-1.4-1.5-2.8-3-4.2-4.5c0.4-0.6,0.8-1.2,1.2-1.8   c2.3,0.1,4.5,0.1,6.8,0.2C399.2,73.4,399.4,74.1,399.7,74.7z"
   id="path99" />
	<path
   class="st9"
   d="M369.4,73.4c-4.3,0-8.3-2.7-8.3-5.8c0-2.8,3.2-5.1,7.2-5.1c4.4,0,8.3,2.7,8.3,5.8   C376.6,71.1,373.5,73.4,369.4,73.4z"
   id="path101" />
	<path
   class="st11"
   d="M385.5,79.2c0.1,0.6,0.6,2.8,2.2,4.2c0.7,0.6,1.5,1,2.3,1.1c1.8,0.2,3.1-0.9,3.7-1.4c1.8-1.5,2.2-3.5,2.3-4.2   c-0.3,0-0.7,0-1,0c-0.1,0.3-0.3,0.7-0.5,1.1c-0.5,0.8-0.9,1.4-1.3,1.7c0,0-0.3,0.2-0.5,0.4c-0.2,0.1-1.9,1-3.4,0.3   c-0.6-0.3-0.9-0.7-1.2-1c-1-1.2-1.1-2.6-1.1-3.3C386.4,78.4,385.9,78.8,385.5,79.2z"
   id="path103" />
	<path
   class="st11"
   d="M405.9,78.6c0,0.6-0.3,2.7-2,4.3c-0.4,0.4-2,1.9-4,1.6c-1.2-0.2-2-0.9-2.5-1.4c-1.6-1.5-2.1-3.3-2.2-4.2   c0.3,0,0.6,0,0.8,0c0,0.2,0.1,0.4,0.2,0.6c0,0.1,0.1,0.3,0.3,0.5c0.1,0.2,0.4,0.6,0.7,1.1c0.2,0.2,0.7,0.8,1.4,1.1   c1,0.5,2.3,0.5,3.3,0.1c1.5-0.7,2.5-2.3,2.5-4.2C404.9,78.2,405.4,78.4,405.9,78.6z"
   id="path105" />
	<path
   class="st12"
   d="M348.7,24.6c2.3-1.3,5.3-2.7,9.1-3.9c3.6-1.1,6.8-1.8,9.4-2.2c-1.2-2.1-2.5-3.7-3.5-4.9   c-1.3-1.5-3.2-3.1-7.1-6.2c-1.2-0.9-2.3-1.8-3.5-1.6c-0.7,0.1-1.2,0.6-1.8,1.5c-1.7,2.4-2.2,4.6-2.3,5.3c-0.3,1.4-0.6,3.3-0.7,5.9   C348.4,20.1,348.4,22.1,348.7,24.6z"
   id="path107" />
	<path
   class="st12"
   d="M444.4,27.7c-2.1-1.7-4.9-3.7-8.5-5.5c-3.4-1.7-6.5-2.8-9-3.6c1.5-2.2,3-3.8,4.1-5c1.5-1.5,3.6-3,7.9-6   c1.3-0.9,2.5-1.7,3.7-1.4c0.7,0.2,1.1,0.9,1.6,1.9c1.3,2.8,1.5,5.4,1.6,6.1c0.1,1.6,0.1,3.8-0.2,6.7   C445.4,22.8,445,25.1,444.4,27.7z"
   id="path109" />
	<path
   class="st13"
   d="M422,218.3c-7.1,3.7-14.2,3.3-17.3-0.3c-1-1.2-2.9-4.2-1.9-7.6c0.7-2.5,2.7-3.8,3.4-4.3c-3-14-6.1-28-9.1-42   c-2.1-2.9-2.4-6.8-0.8-9.9c2.3-4.7,7.4-5.3,7.8-5.4l1.8-0.4c6.7-1.4,13.2,2.8,14.7,9.4l9.3,42.8c0.3,0.9,2,6.1-0.9,11.4   C426.7,216.1,423.1,217.8,422,218.3z"
   id="path111" />
	<path
   class="st1"
   d="M358.4,202.8c-7-3.8-10.6-9.9-9.4-14.6c0.4-1.5,1.9-4.8,5.2-5.8c2.5-0.8,4.7,0.1,5.4,0.5   c10-10.3,19.9-20.6,29.9-30.9c1.3-3.3,4.3-5.7,7.8-6.2c5.2-0.7,8.6,3.2,8.8,3.5l1.3,1.3c4.9,4.7,5,12.6,0.3,17.4l-30.5,31.5   c-0.6,0.7-4,5-10,5.6C362.8,205.5,359.4,203.5,358.4,202.8z"
   id="path113" />
	<path
   class="st14"
   d="M408.9,209.6c-0.4,0-0.9-0.1-1.6,0c-0.6,0.1-1.7,0.2-2.7,0.8c-1.4,1-1.8,2.5-1.9,3c0.1,0.4,0.3,0.7,0.4,1.1   c0-0.2,0.1-0.4,0.2-0.7c0.1-0.2,0.8-1.8,2.6-2.6c1.5-0.7,2.8-0.3,3-1C409.1,210,409,209.8,408.9,209.6z"
   id="path115" />
	<path
   class="st14"
   d="M411.7,214c-0.4,0-0.9,0.1-1.6,0.2c-0.6,0.2-1.7,0.4-2.5,1.3c-1.2,1.2-1.3,2.8-1.4,3.3c0.2,0.3,0.4,0.7,0.6,1   c0-0.2,0.1-0.4,0.1-0.7c0.1-0.2,0.5-1.9,2.1-3c1.4-0.9,2.7-0.8,2.9-1.5C411.9,214.4,411.8,214.1,411.7,214z"
   id="path117" />
	<path
   class="st14"
   d="M357.3,186.8c-0.3-0.3-0.6-0.7-1.2-1.1c-0.5-0.4-1.4-1-2.6-1.2c-1.7-0.2-3,0.7-3.4,1   c-0.1,0.4-0.3,0.7-0.4,1.1c0.1-0.1,0.4-0.2,0.6-0.3c0.2-0.1,1.8-0.8,3.6-0.3c1.6,0.5,2.3,1.6,2.9,1.3   C357.2,187.2,357.3,187,357.3,186.8z"
   id="path119" />
	<path
   class="st14"
   d="M356.5,191.9c-0.3-0.2-0.7-0.6-1.3-0.9c-0.6-0.3-1.5-0.8-2.7-0.7c-1.7,0.1-2.8,1.2-3.2,1.6   c-0.1,0.4-0.2,0.7-0.2,1.1c0.1-0.1,0.3-0.3,0.6-0.4c0.2-0.1,1.7-1.1,3.6-0.8c1.7,0.2,2.6,1.2,3.1,0.8   C356.5,192.4,356.5,192.1,356.5,191.9z"
   id="path121" />
	<path
   class="st1"
   d="M528.5,112.8c-5.8,2.6-11.2,2.5-14,2.3c2.1,6.5,4.2,13,6.4,19.5c19.2-1.7,34.6-11.2,37.9-23.9   c2-7.6-0.1-17.4-3.9-24.4c-4.4-8.2-9.1-9.3-11.8-18.4c-0.8-2.9-3.2-11.1,1.2-16.2c3-3.5,7.9-4.2,9.6-4.4c5-0.6,6.3,1.4,12.9,1.2   c3.6-0.1,7.9-0.2,9.5-3c1.7-2.9-0.5-6.9-0.7-7.3c-4.1-7.4-16.3-7.5-19.7-7.5c-1.7,0-11.3,0.1-20.3,6.6c-1.8,1.3-4.6,3.4-7.1,7.1   c-3.3,5-3.8,9.8-4.3,13.6c-0.4,3.4-1.1,10.5,2,18.2c2.6,6.4,5,5.9,8.9,14c2.6,5.5,4.8,10.1,3.1,14.6   C536.5,109.3,532,111.3,528.5,112.8z"
   id="path123" />
	<path
   class="st13"
   d="M529.5,206.8c-4.4,6.7-10.8,9.8-15.3,8.1c-1.5-0.6-4.6-2.3-5.3-5.7c-0.5-2.5,0.5-4.6,0.9-5.4   c-9.5-10.8-18.9-21.6-28.4-32.3c-3.2-1.6-5.4-4.8-5.5-8.3c-0.3-5.2,3.9-8.3,4.2-8.5l1.4-1.2c5.1-4.5,12.9-4,17.4,1.1l28.9,32.9   c0.7,0.6,4.7,4.4,4.8,10.4C532.5,202.7,530.2,205.9,529.5,206.8z"
   id="path125" />
	<path
   class="st1"
   d="M481,221.6c-7.8,1.5-14.5-0.9-16.5-5.3c-0.7-1.5-1.6-4.9,0.4-7.8c1.4-2.2,3.7-2.9,4.5-3.1   c1.1-14.3,2.2-28.6,3.4-42.9c-1.1-3.4-0.3-7.2,2.1-9.8c3.6-3.8,8.7-3,9-2.9l1.8,0.1c6.8,0.5,11.9,6.5,11.3,13.3l-3.4,43.7   c0,0.9,0.1,6.4-4.1,10.7C486.1,220.9,482.2,221.5,481,221.6z"
   id="path127" />
	<path
   class="st1"
   d="M516.8,164.1c4.9-7.9,5.4-15.6,5.7-20.6c0.7-10.2-1.7-18.4-3.4-23.1c-2-2.7-5.3-6.6-10.2-10   c-5.4-3.7-9.9-5-18.6-7.4c-4.6-1.3-13.1-3.4-24.3-4.1c-2-0.1-3.5-0.2-6.9-0.3c-18.1-0.4-27.2-0.6-35.8-0.2c-13,0.7-19.6,1-26.2,3.4   c-5.9,2.1-15,5.5-21.1,14.6c-4.1,6.1-5.3,12.4-5.6,14.6c-0.4,2.2-1.1,6.6-0.2,12c0.6,3.3,1.6,6.2,2.1,7.7c0.8,2.3,1.6,4.1,2.1,5.1   c3.9,7.8,9.5,12.3,12.1,14.3c3.9,3,7.3,4.7,12.5,7.3c1,0.5,2,1,2.9,1.4c0,0,3,1.4,5.7,2.4c3.2,1.2,13.9,3.1,28.5,3.8   c5.2,0,10.4,0,15.7,0c4.9,0.4,11.7,0.6,19.7,0c7.6-0.6,14.3-0.8,22.1-3.7C498.8,179.3,509.9,175.2,516.8,164.1z"
   id="path129" />
	<path
   class="st14"
   d="M513.8,205.6c-0.4,0.1-0.9,0.4-1.4,0.7c-0.5,0.3-1.4,1-2,2c-0.8,1.5-0.3,3.1-0.2,3.5c0.3,0.2,0.6,0.5,0.9,0.7   c0-0.2-0.1-0.4-0.1-0.7c0-0.2-0.1-2,1-3.5c1-1.4,2.3-1.6,2.2-2.3C514.1,205.9,513.9,205.7,513.8,205.6z"
   id="path131" />
	<path
   class="st14"
   d="M518.4,208.1c-0.3,0.2-0.8,0.5-1.3,1c-0.4,0.4-1.2,1.2-1.6,2.3c-0.5,1.6,0.2,3.1,0.4,3.5   c0.3,0.2,0.6,0.4,1,0.6c-0.1-0.2-0.2-0.4-0.2-0.7c-0.1-0.2-0.5-1.9,0.4-3.6c0.8-1.5,2-2,1.8-2.7   C518.8,208.3,518.5,208.1,518.4,208.1z"
   id="path133" />
	<path
   class="st14"
   d="M470,209.9c-0.4-0.1-0.9-0.1-1.6-0.1c-0.6,0-1.7,0.1-2.7,0.7c-1.4,0.9-1.9,2.5-2,2.9c0.1,0.4,0.2,0.7,0.4,1.1   c0.1-0.2,0.1-0.4,0.3-0.7c0.1-0.2,0.9-1.8,2.6-2.5c1.5-0.7,2.8-0.2,3.1-0.9C470.1,210.3,470,210,470,209.9z"
   id="path135" />
	<path
   class="st14"
   d="M472.6,214.4c-0.4,0-0.9,0-1.6,0.2c-0.6,0.1-1.7,0.4-2.6,1.2c-1.3,1.1-1.4,2.7-1.5,3.2c0.2,0.3,0.4,0.7,0.5,1   c0-0.2,0.1-0.4,0.2-0.7c0.1-0.2,0.6-1.9,2.2-2.9c1.4-0.9,2.8-0.7,2.9-1.4C472.8,214.7,472.7,214.5,472.6,214.4z"
   id="path137" />
</g>
<g
   id="cat_walk_1">
	<path
   class="st3"
   d="M46.3,118.4"
   id="path140" />
	<path
   class="st3"
   d="M62.9,178.4"
   id="path142" />
	<path
   class="st3"
   d="M60.9,112.6c15.9,2.6,28.2,0.4,31.8-0.3c1-0.2,5.1-1,10.2-2.7c4.8-1.6,10.1-3.4,15.9-7.5   c1.3-0.9,2.2-1.7,2.9-2.3c0,0,2.8-2.5,2.8-2.5c2.8-2.4-2.8,2.5-2.8,2.5c-0.1-0.1,1-1.6,2.8-2.5c0.6-0.3,1.2-0.6,2-0.5   c1.5,0.2,1.8,1.5,3.7,2.3c0.9,0.4,2.9,1,3.8,0.1c0.8-0.8,0.3-2.6-0.2-3.6c-0.2-0.4-0.4-1.1-1.5-1.8c-2-1.3-2.5-2.7-1.1-4.8   c1.4-2.1,2.9-3,5.4-1.7c1.2,0.6,2.7,1,4,0.9c0.9,0,2.3-0.8,2.5-1.6c0.3-0.8-0.3-2.3-1-2.8c-0.7-0.6-1.1-0.5-3.7-1.7   c-1.7-0.7-2.1-1-2.3-1.4c-0.3-0.6-0.3-1.3-0.3-2.2c0-0.8,0-1.2,0.2-1.6c0.5-1,1.6-1.4,3-1.5c3.3-0.2,3.9,0.1,5.8-0.6   c1.3-0.5,3-1.7,2.9-2.8c-0.1-1.2-2.4-1.9-3.7-2.3c-3.5-1.1-5.2,0-6.4-1.2c-0.9-0.9-1-2.8-1.1-6.5c-0.6-17.5-2.7-34.8-7.3-51.8   c-0.5-1.7-1.3-3.4-2.1-5.1c-2.2-5-6.3-6.5-10.9-3.5c-5.5,3.5-10.7,7.5-15.9,11.4c-1.8,1.4-3.3,3.2-5.3,4.4c-1.4,0.9-3.4,1.6-5,1.3   c-10.3-2-20.4-2.1-30.7,0.1c-1.7,0.4-4.1-0.4-5.6-1.5C46.7,12.2,40,6.9,33,1.9c-4.9-3.5-9.6-2.1-11.8,3.5c-1.1,3-2.2,6-2.9,9.1   c-3.2,16.1-6.2,32.1-6,48.6c0,0.5,0,0.9-0.1,1.4c-0.5,5.5-0.5,5.4-6,5.1C4,69.5,0.5,68.2,0,71.8c-0.5,3.7,3.3,2.6,5.3,3.2   c1.5,0.4,3.2,0.3,4.8,0.6c2.7,0.5,3.4,2.7,1.6,4.8l0,0c-0.6,0.3-1.1,0.6-1.7,0.9c-0.2,0-0.4,0-0.6,0c-1.1,0.2-3,0.7-4.4,2.3   c-0.3,0.4-1.9,2.1-1.3,3.2c0.4,0.7,1.4,0.9,2.1,1c1.5,0.2,2.5-0.2,6.2-1c1.6-0.4,2-0.4,2.5-0.3c1.2,0.3,2,1.4,2.8,2.7   c1.3,2.2-0.1,3.4-1.7,4.5c-1,0.7-0.9,0.6-1.3,1c-0.9,0.9-2,2.8-1.2,4c0.6,1,2.1,1,2.2,1c1.3,0,2.2-1,2.3-1.1   c0.5-0.5,1.3-1.2,2.5-1.8c0.7-0.3,1.4-0.7,2.3-0.6c1.1,0,1.8,0.6,4,2.4c1.4,1.2,2.5,2.1,3.2,2.7c2.2,1.4,5.2,3.1,8.9,4.8   C41,107.1,49.2,110.7,60.9,112.6z"
   id="path144" />
	<path
   class="st4"
   d="M93.2,71.6c0-3.1,3.8-5.9,8.2-6c4-0.1,7.3,2.2,7.3,5c0,3.1-3.8,5.9-8.2,6C96.4,76.6,93.2,74.4,93.2,71.6z"
   id="path146" />
	<path
   class="st5"
   d="M76.1,77.8c-1.4,1.4-2.7,2.7-4.1,4.1c-0.2,0-0.4,0-0.5,0c-1.4-1.5-2.8-3-4.2-4.5c0.4-0.6,0.8-1.2,1.2-1.8   c2.3,0.1,4.5,0.1,6.8,0.2C75.5,76.5,75.8,77.2,76.1,77.8z"
   id="path148" />
	<path
   class="st4"
   d="M45.8,76.5c-4.3,0-8.3-2.7-8.3-5.8c0-2.8,3.2-5.1,7.2-5.1c4.4,0,8.3,2.7,8.3,5.8C53,74.2,49.8,76.5,45.8,76.5z   "
   id="path150" />
	<path
   class="st6"
   d="M61.8,82.3c0.1,0.6,0.6,2.8,2.2,4.2c0.7,0.6,1.5,1,2.3,1.1c1.8,0.2,3.1-0.9,3.7-1.4c1.8-1.5,2.2-3.5,2.3-4.2   c-0.3,0-0.7,0-1,0c-0.1,0.3-0.3,0.7-0.5,1.1c-0.5,0.8-0.9,1.4-1.3,1.7c0,0-0.3,0.2-0.5,0.4c-0.2,0.1-1.9,1-3.4,0.3   c-0.6-0.3-0.9-0.7-1.2-1c-1-1.2-1.1-2.6-1.1-3.3C62.8,81.5,62.3,81.9,61.8,82.3z"
   id="path152" />
	<path
   class="st6"
   d="M82.2,81.7c0,0.6-0.3,2.7-2,4.3c-0.4,0.4-2,1.9-4,1.6c-1.2-0.2-2-0.9-2.5-1.4c-1.6-1.5-2.1-3.3-2.2-4.2   c0.3,0,0.6,0,0.8,0c0.1,0.2,0.1,0.4,0.2,0.6c0,0.1,0.1,0.3,0.3,0.5c0.1,0.2,0.4,0.6,0.7,1.1c0.2,0.2,0.7,0.8,1.4,1.1   c1,0.5,2.3,0.5,3.3,0.1c1.5-0.7,2.5-2.3,2.5-4.2C81.2,81.3,81.7,81.5,82.2,81.7z"
   id="path154" />
	<path
   class="st7"
   d="M25.1,27.7c2.3-1.3,5.3-2.7,9.1-3.9c3.6-1.1,6.8-1.8,9.4-2.2c-1.2-2.1-2.5-3.7-3.5-4.9   c-1.3-1.5-3.2-3.1-7.1-6.2c-1.2-0.9-2.3-1.8-3.5-1.6c-0.7,0.1-1.2,0.6-1.8,1.5c-1.7,2.4-2.2,4.6-2.3,5.3c-0.3,1.4-0.6,3.3-0.7,5.9   C24.7,23.2,24.7,25.2,25.1,27.7z"
   id="path156" />
	<path
   class="st7"
   d="M120.7,30.9c-2.1-1.7-4.9-3.7-8.5-5.5c-3.4-1.7-6.5-2.8-9-3.6c1.5-2.2,3-3.8,4.1-5c1.5-1.5,3.6-3,7.9-6   c1.3-0.9,2.5-1.7,3.7-1.4c0.7,0.2,1.1,0.9,1.6,1.9c1.3,2.8,1.5,5.4,1.6,6.1c0.1,1.6,0.1,3.8-0.2,6.7   C121.7,25.9,121.4,28.2,120.7,30.9z"
   id="path158" />
	<path
   class="st15"
   d="M49.4,212.7c-7.9-0.9-13.6-5.2-14.2-10c-0.2-1.6,0-5.1,2.7-7.3c2-1.6,4.4-1.7,5.2-1.6   c5.4-13.3,10.7-26.6,16.1-39.9c-0.1-3.6,1.8-6.9,4.9-8.7c4.6-2.6,9.1-0.3,9.4-0.1l1.7,0.7c6.3,2.5,9.4,9.7,6.8,16.1l-16.4,40.7   c-0.2,0.9-1.8,6.2-7.1,8.9C54.5,213.6,50.6,213,49.4,212.7z"
   id="path160" />
	<path
   class="st3"
   d="M105.1,218.7c-7,3.8-14.1,3.5-17.3-0.1c-1.1-1.2-2.9-4.2-2-7.5c0.7-2.5,2.6-3.8,3.3-4.3c-3.2-14-6.3-28-9.5-42   c-2.1-2.9-2.4-6.7-0.9-9.9c2.3-4.7,7.4-5.4,7.7-5.4l1.8-0.4c6.7-1.5,13.3,2.7,14.8,9.3l9.7,42.7c0.3,0.9,2,6.1-0.8,11.4   C109.8,216.5,106.3,218.2,105.1,218.7z"
   id="path162" />
	<path
   class="st8"
   d="M43.4,198.2c-0.3-0.3-0.7-0.6-1.3-0.9c-0.5-0.3-1.5-0.8-2.7-0.8c-1.7,0-2.9,1.1-3.2,1.4   c-0.1,0.4-0.2,0.7-0.3,1.1c0.1-0.1,0.3-0.3,0.6-0.4c0.2-0.1,1.7-1,3.6-0.7c1.7,0.3,2.5,1.3,3.1,0.9   C43.3,198.6,43.4,198.3,43.4,198.2z"
   id="path164" />
	<path
   class="st8"
   d="M43.3,203.4c-0.3-0.2-0.8-0.5-1.4-0.7c-0.6-0.2-1.6-0.6-2.8-0.4c-1.7,0.3-2.7,1.5-3,1.9c0,0.4-0.1,0.7-0.1,1.1   c0.1-0.1,0.3-0.3,0.5-0.5c0.2-0.1,1.5-1.3,3.4-1.3c1.7,0,2.7,0.9,3.2,0.4C43.3,203.8,43.3,203.5,43.3,203.4z"
   id="path166" />
	<path
   class="st8"
   d="M91.1,210.8c-0.4,0.1-0.9,0.2-1.5,0.4c-0.6,0.2-1.6,0.6-2.4,1.5c-1.1,1.3-1,2.9-1,3.4c0.2,0.3,0.4,0.6,0.7,0.9   c0-0.2,0-0.4,0.1-0.7c0-0.2,0.3-2,1.8-3.2c1.3-1.1,2.6-1,2.7-1.7C91.4,211.1,91.2,210.9,91.1,210.8z"
   id="path168" />
	<path
   class="st8"
   d="M95,214.2c-0.4,0.1-0.9,0.3-1.4,0.6c-0.5,0.3-1.5,0.9-2.1,1.9c-0.9,1.5-0.6,3-0.4,3.5c0.3,0.3,0.5,0.5,0.8,0.8   c0-0.2-0.1-0.4-0.1-0.7c0-0.2,0-2,1.2-3.4c1.1-1.3,2.4-1.5,2.4-2.2C95.3,214.5,95.1,214.3,95,214.2z"
   id="path170" />
	<path
   class="st3"
   d="M204.9,115.9c-5.8,2.6-11.2,2.5-14,2.3c2.1,6.5,4.2,13,6.4,19.5c19.2-1.7,34.6-11.2,37.9-23.9   c2-7.6-0.1-17.4-3.9-24.4c-4.4-8.2-9.1-9.3-11.8-18.4c-0.8-2.9-3.2-11.1,1.2-16.2c3-3.5,7.9-4.2,9.6-4.4c5-0.6,6.3,1.4,12.9,1.2   c3.6-0.1,7.9-0.2,9.5-3c1.7-2.9-0.5-6.9-0.7-7.3c-4.1-7.4-16.3-7.5-19.7-7.5c-1.7,0-11.3,0.1-20.3,6.6c-1.8,1.3-4.6,3.4-7.1,7.1   c-3.3,5-3.8,9.8-4.3,13.6c-0.4,3.4-1.1,10.5,2,18.2c2.6,6.4,5,5.9,8.9,14c2.6,5.5,4.8,10.1,3.1,14.6   C212.9,112.4,208.3,114.4,204.9,115.9z"
   id="path172" />
	<path
   class="st15"
   d="M140.4,219.5c-7.9,0.6-14.3-2.6-15.8-7.2c-0.5-1.5-1-5,1.3-7.7c1.7-2,4-2.4,4.8-2.6   c2.8-14.1,5.6-28.1,8.4-42.2c-0.7-3.5,0.5-7.1,3.2-9.4c4-3.4,8.9-1.9,9.3-1.8l1.8,0.4c6.7,1.3,11,7.8,9.7,14.5l-8.5,43   c-0.1,0.9-0.6,6.4-5.4,10.1C145.6,219.3,141.6,219.5,140.4,219.5z"
   id="path174" />
	<path
   class="st3"
   d="M197.8,214.3c-5.5,5.8-12.4,7.7-16.5,5.3c-1.4-0.8-4.1-3.1-4.2-6.5c-0.1-2.6,1.3-4.5,1.8-5.1   c-7.4-12.3-14.8-24.6-22.1-36.9c-2.9-2.1-4.4-5.6-4-9.2c0.7-5.2,5.3-7.4,5.6-7.6l1.6-1c5.8-3.5,13.4-1.6,16.9,4.2l22.6,37.6   c0.6,0.7,3.8,5.1,2.8,11.1C201.5,210.8,198.7,213.5,197.8,214.3z"
   id="path176" />
	<path
   class="st3"
   d="M193.1,167.2c4.9-7.9,5.4-15.6,5.7-20.6c0.7-10.2-1.7-18.4-3.4-23.1c-2-2.7-5.3-6.6-10.2-10   c-5.4-3.7-9.9-5-18.6-7.4c-4.6-1.3-13.1-3.4-24.3-4.1c-2-0.1-3.5-0.2-6.9-0.3c-18.1-0.4-27.2-0.6-35.8-0.2c-13,0.7-19.6,1-26.2,3.4   c-5.9,2.1-15,5.5-21.1,14.6c-4.1,6.1-5.3,12.4-5.6,14.6c-0.4,2.2-1.1,6.6-0.2,12c0.6,3.3,1.6,6.2,2.1,7.7c0.8,2.3,1.6,4.1,2.1,5.1   c3.9,7.8,9.5,12.3,12.1,14.3c3.9,3,7.3,4.7,12.5,7.3c1,0.5,2,1,2.9,1.4c0,0,3,1.4,5.7,2.4c3.2,1.2,13.9,3.1,28.5,3.8   c5.2,0,10.4,0,15.7,0c4.9,0.4,11.7,0.6,19.7,0c7.6-0.6,14.3-0.8,22.1-3.7C175.2,182.4,186.2,178.3,193.1,167.2z"
   id="path178" />
	<path
   class="st8"
   d="M131.8,206.3c-0.3-0.2-0.8-0.5-1.4-0.7c-0.6-0.2-1.6-0.5-2.8-0.3c-1.7,0.3-2.6,1.6-2.9,2c0,0.4,0,0.8-0.1,1.1   c0.1-0.1,0.3-0.3,0.5-0.5c0.2-0.2,1.5-1.3,3.4-1.4c1.7,0,2.7,0.8,3.2,0.3C131.8,206.7,131.8,206.4,131.8,206.3z"
   id="path180" />
	<path
   class="st8"
   d="M132.7,211.4c-0.4-0.1-0.9-0.3-1.5-0.4c-0.6-0.1-1.7-0.3-2.8,0.2c-1.6,0.6-2.3,2-2.5,2.5   c0,0.4,0.1,0.7,0.1,1.1c0.1-0.1,0.2-0.4,0.4-0.6c0.1-0.2,1.3-1.6,3.1-1.9c1.6-0.3,2.8,0.4,3.2-0.2   C132.7,211.8,132.7,211.6,132.7,211.4z"
   id="path182" />
	<path
   class="st8"
   d="M182,211.2c-0.3,0.2-0.8,0.4-1.3,0.9c-0.5,0.4-1.3,1.1-1.8,2.2c-0.6,1.6-0.1,3.1,0.1,3.5   c0.3,0.2,0.6,0.4,0.9,0.7c-0.1-0.2-0.1-0.4-0.2-0.7c0-0.2-0.3-2,0.7-3.6c0.9-1.4,2.2-1.8,2-2.5C182.4,211.4,182.1,211.3,182,211.2z   "
   id="path184" />
	<path
   class="st8"
   d="M186.8,213.3c-0.3,0.2-0.7,0.6-1.2,1.1c-0.4,0.5-1.1,1.3-1.4,2.5c-0.4,1.6,0.4,3.1,0.7,3.5   c0.3,0.2,0.7,0.3,1,0.5c-0.1-0.2-0.2-0.4-0.3-0.7c-0.1-0.2-0.6-1.9,0.1-3.6c0.6-1.5,1.8-2.1,1.6-2.8   C187.2,213.4,186.9,213.3,186.8,213.3z"
   id="path186" />
</g>
<style
   id="style4705"
   type="text/css">
	.st0{display:none;}
	.st1{display:inline;fill:#E6E6E6;}
	.st2{display:inline;}
	.st3{fill:#E6E6E6;}
	.st4{fill:#20201E;}
	.st5{fill:#CC3E63;}
	.st6{fill:#E5385D;}
	.st7{fill:#FF99A3;}
	.st8{fill:#8E5960;}
	.st9{fill:#D6D6D6;}
	.st10{display:inline;fill:#20201E;}
	.st11{display:inline;fill:#CC3E63;}
	.st12{display:inline;fill:#E5385D;}
	.st13{display:inline;fill:#FF99A3;}
	.st14{display:inline;fill:#D6D6D6;}
	.st15{display:inline;fill:#8E5960;}
</style><g
   id="g4998"
   transform="translate(254.1,-0.8)"><g
     class="st0"
     id="cat_sit-3"
     style="display:none">
	<path
   id="path4707"
   d="m -310.8,199.8 c 0,0 -2.6,-5.8 -9,-12.1 -0.2,-0.2 -1.1,-1.1 -2.4,-1.8 -0.2,-0.1 -0.5,-0.2 -0.9,-0.4 -1.9,-0.8 -2.6,-1.2 -2.9,-1.3 -2.5,-0.9 -7.5,5.8 -8,6.4 -2.6,3.5 -2.7,5.3 -4.6,8.3 -0.2,0.4 -0.9,1.4 -1.2,2.9 -0.1,0.5 -0.2,0.9 -0.2,1.2 1,0.6 2.1,1.3 3.2,2.3 0.6,0.6 1.2,1.1 1.7,1.6 0,0 0.9,1.1 1.3,2.6 0.9,4.4 -1.2,9 -6,10.5 -5.4,1.7 -11.2,3.3 -16.8,3.6 -12.3,0.6 -24.7,0.2 -37.1,0.3 -5.2,0 -9.8,1.4 -13,5.4 -4.4,10 2.6,18.6 14.6,17.8 8.5,-0.6 17,-0.2 25.5,-0.7 9.5,-0.6 19,-1.3 28.4,-2.8 15,-2.3 24.6,-10.4 29.2,-23.2 1.3,-3.5 1.3,-6.7 1.2,-9.1 -0.3,-5.2 -2,-9.2 -3,-11.5 z"
   class="st1"
   inkscape:connector-curvature="0"
   style="display:inline;fill:#e6e6e6" />
	<g
   class="st2"
   id="Ebene_2-0"
   style="display:inline">
		<path
   id="path4709"
   d="m -329.7,195 c 3.7,-5 4.9,-10 5.9,-13.7 0.3,-1.1 0.9,-3.8 1.2,-7.4 1.1,-12.1 -2.4,-22.7 -3.6,-26.3 -3.4,-10.1 -8.5,-17.6 -12.5,-22.6 -2.3,-2.4 -5.4,-5.5 -9.5,-8.7 -3.8,-3 -7.8,-6.2 -13.7,-9.1 -7,-3.4 -14.6,-5.5 -22.7,-6.3 -1.5,-0.1 -3.1,-0.4 -5.9,-0.7 -9.2,-1 -21.2,-2.2 -35.6,-1.5 -12.7,0.6 -19.1,0.8 -26.2,3.4 -5.9,2.1 -15,5.5 -21.1,14.6 -4.1,6.1 -5.3,12.4 -5.6,14.6 -0.4,2.2 -1.1,6.6 -0.2,12 0.6,3.3 1.6,6.2 2.1,7.7 0.8,2.3 1.6,4.1 2.1,5.1 3.9,7.8 9.5,12.3 12.1,14.3 3.9,3 7.3,4.7 12.5,7.3 3.6,1.8 6.5,3 8.6,3.8 9.1,3.7 18.6,7.1 26.1,9.7 2.5,0.3 6.4,0.4 11.1,-0.3 -0.7,3.7 -1.8,6.6 -1.8,9.6 -0.1,7.2 3.9,12.5 11,13.2 8,0.8 16.1,0.5 24.2,0.2 8.9,-0.4 17.4,-3 25.5,-6.6 3.6,-1.6 6,-3.3 7.3,-4.2 2.5,-1.8 5.8,-4.2 8.7,-8.1 z"
   class="st3"
   inkscape:connector-curvature="0"
   style="fill:#e6e6e6" />
		<path
   id="path4711"
   d="M -246.3,115.5"
   class="st3"
   inkscape:connector-curvature="0"
   style="fill:#e6e6e6" />
	</g>
	<g
   class="st2"
   id="Ebene_5-6"
   style="display:inline">
	</g>
	<g
   class="st2"
   id="Ebene_1-3"
   style="display:inline">
		<path
   id="path4715"
   d="m -464.8,109.7 c 15.9,2.6 28.2,0.4 31.8,-0.3 1,-0.2 5.1,-1 10.2,-2.7 4.8,-1.6 10.1,-3.4 15.9,-7.5 1.3,-0.9 2.2,-1.7 2.9,-2.3 0,0 2.8,-2.5 2.8,-2.5 2.8,-2.4 -2.8,2.5 -2.8,2.5 -0.1,-0.1 1,-1.6 2.8,-2.5 0.6,-0.3 1.2,-0.6 2,-0.5 1.5,0.2 1.8,1.5 3.7,2.3 0.9,0.4 2.9,1 3.8,0.1 0.8,-0.8 0.3,-2.6 -0.2,-3.6 -0.2,-0.4 -0.4,-1.1 -1.5,-1.8 -2,-1.3 -2.5,-2.7 -1.1,-4.8 1.4,-2.1 2.9,-3 5.4,-1.7 1.2,0.6 2.7,1 4,0.9 0.9,0 2.3,-0.8 2.5,-1.6 0.3,-0.8 -0.3,-2.3 -1,-2.8 -0.7,-0.6 -1.1,-0.5 -3.7,-1.7 -1.7,-0.7 -2.1,-1 -2.3,-1.4 -0.3,-0.6 -0.3,-1.3 -0.3,-2.2 0,-0.8 0,-1.2 0.2,-1.6 0.5,-1 1.6,-1.4 3,-1.5 3.3,-0.2 3.9,0.1 5.8,-0.6 1.3,-0.5 3,-1.7 2.9,-2.8 -0.1,-1.2 -2.4,-1.9 -3.7,-2.3 -3.5,-1.1 -5.2,0 -6.4,-1.2 -0.9,-0.9 -1,-2.8 -1.1,-6.5 -0.6,-17.5 -2.7,-34.8 -7.3,-51.8 -0.5,-1.7 -1.3,-3.4 -2.1,-5.1 -2.2,-5 -6.3,-6.5 -10.9,-3.5 -5.5,3.5 -10.7,7.5 -15.9,11.4 -1.8,1.4 -3.3,3.2 -5.3,4.4 -1.4,0.9 -3.4,1.6 -5,1.3 -10.3,-2 -20.4,-2.1 -30.7,0.1 -1.7,0.4 -4.1,-0.4 -5.6,-1.5 -7,-5.1 -13.7,-10.4 -20.7,-15.4 -4.9,-3.5 -9.6,-2.1 -11.8,3.5 -1.1,3 -2.2,6 -2.9,9.1 -3.2,16.1 -6.2,32.1 -6,48.6 0,0.5 0,0.9 -0.1,1.4 -0.5,5.5 -0.5,5.4 -6,5.1 -2.3,-0.1 -5.8,-1.5 -6.3,2.2 -0.5,3.7 3.3,2.6 5.3,3.2 1.5,0.4 3.2,0.3 4.8,0.6 2.7,0.5 3.4,2.7 1.6,4.8 v 0 c -0.6,0.3 -1.1,0.6 -1.7,0.9 -0.2,0 -0.4,0 -0.6,0 -1.1,0.2 -3,0.7 -4.4,2.3 -0.3,0.4 -1.9,2.1 -1.3,3.2 0.4,0.7 1.4,0.9 2.1,1 1.5,0.2 2.5,-0.2 6.2,-1 1.6,-0.4 2,-0.4 2.5,-0.3 1.2,0.3 2,1.4 2.8,2.7 1.3,2.2 -0.1,3.4 -1.7,4.5 -1,0.7 -0.9,0.6 -1.3,1 -0.9,0.9 -2,2.8 -1.2,4 0.6,1 2.1,1 2.2,1 1.3,0 2.2,-1 2.3,-1.1 0.5,-0.5 1.3,-1.2 2.5,-1.8 0.7,-0.3 1.4,-0.7 2.3,-0.6 1.1,0 1.8,0.6 4,2.4 1.4,1.2 2.5,2.1 3.2,2.7 2.2,1.4 5.2,3.1 8.9,4.8 2.6,1 10.8,4.6 22.5,6.5 z"
   class="st3"
   inkscape:connector-curvature="0"
   style="fill:#e6e6e6" />
		<path
   id="path4717"
   d="m -432.5,68.7 c 0,-3.1 3.8,-5.9 8.2,-6 4,-0.1 7.3,2.2 7.3,5 0,3.1 -3.8,5.9 -8.2,6 -4,0 -7.3,-2.2 -7.3,-5 z"
   class="st4"
   inkscape:connector-curvature="0"
   style="fill:#20201e" />
		<path
   id="path4719"
   d="m -449.6,74.9 c -1.4,1.4 -2.7,2.7 -4.1,4.1 -0.2,0 -0.4,0 -0.5,0 -1.4,-1.5 -2.8,-3 -4.2,-4.5 0.4,-0.6 0.8,-1.2 1.2,-1.8 2.3,0.1 4.5,0.1 6.8,0.2 0.2,0.7 0.5,1.4 0.8,2 z"
   class="st5"
   inkscape:connector-curvature="0"
   style="fill:#cc3e63" />
		<path
   id="path4721"
   d="m -479.9,73.6 c -4.3,0 -8.3,-2.7 -8.3,-5.8 0,-2.8 3.2,-5.1 7.2,-5.1 4.4,0 8.3,2.7 8.3,5.8 0,2.8 -3.2,5.1 -7.2,5.1 z"
   class="st4"
   inkscape:connector-curvature="0"
   style="fill:#20201e" />
		<path
   id="path4723"
   d="m -463.9,79.4 c 0.1,0.6 0.6,2.8 2.2,4.2 0.7,0.6 1.5,1 2.3,1.1 1.8,0.2 3.1,-0.9 3.7,-1.4 1.8,-1.5 2.2,-3.5 2.3,-4.2 -0.3,0 -0.7,0 -1,0 -0.1,0.3 -0.3,0.7 -0.5,1.1 -0.5,0.8 -0.9,1.4 -1.3,1.7 0,0 -0.3,0.2 -0.5,0.4 -0.2,0.1 -1.9,1 -3.4,0.3 -0.6,-0.3 -0.9,-0.7 -1.2,-1 -1,-1.2 -1.1,-2.6 -1.1,-3.3 -0.5,0.3 -1,0.7 -1.5,1.1 z"
   class="st6"
   inkscape:connector-curvature="0"
   style="fill:#e5385d" />
		<path
   id="path4725"
   d="m -443.5,78.8 c 0,0.6 -0.3,2.7 -2,4.3 -0.4,0.4 -2,1.9 -4,1.6 -1.2,-0.2 -2,-0.9 -2.5,-1.4 -1.6,-1.5 -2.1,-3.3 -2.2,-4.2 0.3,0 0.6,0 0.8,0 0.1,0.2 0.1,0.4 0.2,0.6 0,0.1 0.1,0.3 0.3,0.5 0.1,0.2 0.4,0.6 0.7,1.1 0.2,0.2 0.7,0.8 1.4,1.1 1,0.5 2.3,0.5 3.3,0.1 1.5,-0.7 2.5,-2.3 2.5,-4.2 0.6,0.2 1,0.3 1.5,0.5 z"
   class="st6"
   inkscape:connector-curvature="0"
   style="fill:#e5385d" />
		<path
   id="path4727"
   d="m -500.6,24.8 c 2.3,-1.3 5.3,-2.7 9.1,-3.9 3.6,-1.1 6.8,-1.8 9.4,-2.2 -1.2,-2.1 -2.5,-3.7 -3.5,-4.9 -1.3,-1.5 -3.2,-3.1 -7.1,-6.2 -1.2,-0.9 -2.3,-1.8 -3.5,-1.6 -0.7,0.1 -1.2,0.6 -1.8,1.5 -1.7,2.4 -2.2,4.6 -2.3,5.3 -0.3,1.4 -0.6,3.3 -0.7,5.9 0,1.6 0.1,3.6 0.4,6.1 z"
   class="st7"
   inkscape:connector-curvature="0"
   style="fill:#ff99a3" />
		<path
   id="path4729"
   d="m -405,28 c -2.1,-1.7 -4.9,-3.7 -8.5,-5.5 -3.4,-1.7 -6.5,-2.8 -9,-3.6 1.5,-2.2 3,-3.8 4.1,-5 1.5,-1.5 3.6,-3 7.9,-6 1.3,-0.9 2.5,-1.7 3.7,-1.4 0.7,0.2 1.1,0.9 1.6,1.9 1.3,2.8 1.5,5.4 1.6,6.1 0.1,1.6 0.1,3.8 -0.2,6.7 -0.2,1.8 -0.5,4.1 -1.2,6.8 z"
   class="st7"
   inkscape:connector-curvature="0"
   style="fill:#ff99a3" />
	</g>
	<g
   class="st2"
   id="Ebene_3-0"
   style="display:inline">
		<path
   id="path4732"
   d="m -460.9,215.8 c -7.7,2.1 -14.6,0.2 -16.9,-4 -0.8,-1.4 -1.9,-4.8 -0.3,-7.8 1.2,-2.3 3.4,-3.2 4.2,-3.4 0,-14.3 0,-28.7 0,-43 -1.4,-3.3 -0.9,-7.1 1.3,-9.9 3.3,-4.1 8.4,-3.6 8.7,-3.6 h 1.9 c 6.8,0 12.3,5.5 12.3,12.3 v 43.8 c 0.1,0.9 0.7,6.4 -3.3,11 -2.9,3.5 -6.7,4.4 -7.9,4.6 z"
   class="st3"
   inkscape:connector-curvature="0"
   style="fill:#e6e6e6" />
		<path
   id="path4734"
   d="M -229.7,175.5"
   class="st3"
   inkscape:connector-curvature="0"
   style="fill:#e6e6e6" />
		<path
   id="path4736"
   d="m -428.3,217.4 c -7.7,2.1 -14.6,0.2 -16.9,-4 -0.8,-1.4 -1.9,-4.8 -0.3,-7.8 1.2,-2.3 3.4,-3.2 4.2,-3.4 0,-14.3 0,-28.7 0,-43 -1.4,-3.3 -0.9,-7.1 1.3,-9.9 3.3,-4.1 8.4,-3.6 8.7,-3.6 h 1.9 c 6.8,0 12.3,5.5 12.3,12.3 v 43.8 c 0.1,0.9 0.7,6.4 -3.3,11 -2.8,3.5 -6.6,4.4 -7.9,4.6 z"
   class="st3"
   inkscape:connector-curvature="0"
   style="fill:#e6e6e6" />
		<path
   id="path4738"
   d="m -471.9,204.6 c -0.4,-0.1 -0.9,-0.3 -1.5,-0.4 -0.6,-0.1 -1.7,-0.2 -2.8,0.2 -1.6,0.6 -2.3,2.1 -2.5,2.5 0.1,0.4 0.1,0.7 0.2,1.1 0.1,-0.2 0.2,-0.4 0.4,-0.6 0.1,-0.2 1.2,-1.6 3.1,-2 1.6,-0.4 2.8,0.3 3.2,-0.3 0,-0.1 -0.1,-0.4 -0.1,-0.5 z"
   class="st8"
   inkscape:connector-curvature="0"
   style="fill:#8e5960" />
		<path
   id="path4740"
   d="m -470.1,209.4 c -0.4,-0.1 -0.9,-0.1 -1.6,-0.1 -0.6,0 -1.7,0.1 -2.7,0.7 -1.4,0.9 -1.9,2.4 -2,2.9 0.1,0.4 0.2,0.7 0.3,1.1 0.1,-0.2 0.1,-0.4 0.3,-0.7 0.1,-0.2 0.9,-1.8 2.7,-2.5 1.6,-0.6 2.8,-0.2 3.1,-0.8 0.1,-0.2 0,-0.4 -0.1,-0.6 z"
   class="st8"
   inkscape:connector-curvature="0"
   style="fill:#8e5960" />
		<path
   id="path4742"
   d="m -440.2,206.6 c -0.4,0 -0.9,0 -1.6,0 -0.6,0.1 -1.7,0.2 -2.7,1 -1.4,1 -1.7,2.6 -1.7,3.1 0.1,0.3 0.3,0.7 0.4,1 0,-0.2 0.1,-0.4 0.2,-0.7 0.1,-0.2 0.8,-1.8 2.4,-2.7 1.5,-0.8 2.8,-0.4 3,-1.1 0.2,-0.2 0.1,-0.5 0,-0.6 z"
   class="st8"
   inkscape:connector-curvature="0"
   style="fill:#8e5960" />
		<path
   id="path4744"
   d="m -437.2,210.8 c -0.4,0 -0.9,0.1 -1.6,0.3 -0.6,0.2 -1.6,0.5 -2.5,1.4 -1.2,1.2 -1.2,2.8 -1.2,3.3 0.2,0.3 0.4,0.6 0.6,1 0,-0.2 0,-0.4 0.1,-0.7 0,-0.2 0.4,-1.9 2,-3.1 1.3,-1 2.7,-0.9 2.8,-1.6 0.1,-0.2 -0.1,-0.4 -0.2,-0.6 z"
   class="st8"
   inkscape:connector-curvature="0"
   style="fill:#8e5960" />
	</g>
</g><g
     class="st0"
     id="cat_stand-3"
     style="display:none">
	<g
   class="st2"
   id="Ebene_4-4"
   style="display:inline">
		<path
   id="path4748"
   d="m -99.5,164.3 c 4.9,-7.9 5.4,-15.6 5.7,-20.6 0.7,-10.2 -1.7,-18.4 -3.4,-23.1 -2,-2.7 -5.3,-6.6 -10.2,-10 -5.4,-3.7 -9.9,-5 -18.6,-7.4 -4.6,-1.3 -13.1,-3.4 -24.3,-4.1 -2,-0.1 -3.5,-0.2 -6.9,-0.3 -18.1,-0.4 -27.2,-0.6 -35.8,-0.2 -13,0.7 -19.6,1 -26.2,3.4 -5.9,2.1 -15,5.5 -21.1,14.6 -4.1,6.1 -5.3,12.4 -5.6,14.6 -0.4,2.2 -1.1,6.6 -0.2,12 0.6,3.3 1.6,6.2 2.1,7.7 0.8,2.3 1.6,4.1 2.1,5.1 3.9,7.8 9.5,12.3 12.1,14.3 3.9,3 7.3,4.7 12.5,7.3 1,0.5 2,1 2.9,1.4 0,0 3,1.4 5.7,2.4 3.2,1.2 13.9,3.1 28.5,3.8 5.2,0 10.4,0 15.7,0 4.9,0.4 11.7,0.6 19.7,0 7.6,-0.6 14.3,-0.8 22.1,-3.7 5.2,-1.9 16.3,-6.1 23.2,-17.2 z"
   class="st3"
   inkscape:connector-curvature="0"
   style="fill:#e6e6e6" />
		<path
   id="path4750"
   d="m -231.8,109.7 c 15.9,2.6 28.2,0.4 31.8,-0.3 1,-0.2 5.1,-1 10.2,-2.7 4.8,-1.6 10.1,-3.4 15.9,-7.5 1.3,-0.9 2.2,-1.7 2.9,-2.3 0,0 2.8,-2.5 2.8,-2.5 2.8,-2.4 -2.8,2.5 -2.8,2.5 -0.1,-0.1 1,-1.6 2.8,-2.5 0.6,-0.3 1.2,-0.6 2,-0.5 1.5,0.2 1.8,1.5 3.7,2.3 0.9,0.4 2.9,1 3.8,0.1 0.8,-0.8 0.3,-2.6 -0.2,-3.6 -0.2,-0.4 -0.4,-1.1 -1.5,-1.8 -2,-1.3 -2.5,-2.7 -1.1,-4.8 1.4,-2.1 2.9,-3 5.4,-1.7 1.2,0.6 2.7,1 4,0.9 0.9,0 2.3,-0.8 2.5,-1.6 0.3,-0.8 -0.3,-2.3 -1,-2.8 -0.7,-0.6 -1.1,-0.5 -3.7,-1.7 -1.7,-0.7 -2.1,-1 -2.3,-1.4 -0.3,-0.6 -0.3,-1.3 -0.3,-2.2 0,-0.8 0,-1.2 0.2,-1.6 0.5,-1 1.6,-1.4 3,-1.5 3.3,-0.2 3.9,0.1 5.8,-0.6 1.3,-0.5 3,-1.7 2.9,-2.8 -0.1,-1.2 -2.4,-1.9 -3.7,-2.3 -3.5,-1.1 -5.2,0 -6.4,-1.2 -0.9,-0.9 -1,-2.8 -1.1,-6.5 -0.6,-17.5 -2.7,-34.8 -7.3,-51.8 -0.5,-1.7 -1.3,-3.4 -2.1,-5.1 -2.2,-5 -6.3,-6.5 -10.9,-3.5 -5.5,3.5 -10.7,7.5 -15.9,11.4 -1.8,1.4 -3.3,3.2 -5.3,4.4 -1.4,0.9 -3.4,1.6 -5,1.3 -10.3,-2 -20.4,-2.1 -30.7,0.1 -1.7,0.4 -4.1,-0.4 -5.6,-1.5 -7,-5.1 -13.7,-10.4 -20.7,-15.4 -4.9,-3.5 -9.6,-2.1 -11.8,3.5 -1.1,3 -2.2,6 -2.9,9.1 -3.2,16.1 -6.2,32.1 -6,48.6 0,0.5 0,0.9 -0.1,1.4 -0.5,5.5 -0.5,5.4 -6,5.1 -2.3,-0.1 -5.8,-1.5 -6.3,2.2 -0.5,3.7 3.3,2.6 5.3,3.2 1.5,0.4 3.2,0.3 4.8,0.6 2.7,0.5 3.4,2.7 1.6,4.8 v 0 c -0.6,0.3 -1.1,0.6 -1.7,0.9 -0.2,0 -0.4,0 -0.6,0 -1.1,0.2 -3,0.7 -4.4,2.3 -0.3,0.4 -1.9,2.1 -1.3,3.2 0.4,0.7 1.4,0.9 2.1,1 1.5,0.2 2.5,-0.2 6.2,-1 1.6,-0.4 2,-0.4 2.5,-0.3 1.2,0.3 2,1.4 2.8,2.7 1.3,2.2 -0.1,3.4 -1.7,4.5 -1,0.7 -0.9,0.6 -1.3,1 -0.9,0.9 -2,2.8 -1.2,4 0.6,1 2.1,1 2.2,1 1.3,0 2.2,-1 2.3,-1.1 0.5,-0.5 1.3,-1.2 2.5,-1.8 0.7,-0.3 1.4,-0.7 2.3,-0.6 1.1,0 1.8,0.6 4,2.4 1.4,1.2 2.5,2.1 3.2,2.7 2.2,1.4 5.2,3.1 8.9,4.8 2.6,1 10.8,4.6 22.5,6.5 z"
   class="st3"
   inkscape:connector-curvature="0"
   style="fill:#e6e6e6" />
		<path
   id="path4752"
   d="m -199.5,68.7 c 0,-3.1 3.8,-5.9 8.2,-6 4,-0.1 7.3,2.2 7.3,5 0,3.1 -3.8,5.9 -8.2,6 -4,0 -7.3,-2.2 -7.3,-5 z"
   class="st4"
   inkscape:connector-curvature="0"
   style="fill:#20201e" />
		<path
   id="path4754"
   d="m -216.6,74.9 c -1.4,1.4 -2.7,2.7 -4.1,4.1 -0.2,0 -0.4,0 -0.5,0 -1.4,-1.5 -2.8,-3 -4.2,-4.5 0.4,-0.6 0.8,-1.2 1.2,-1.8 2.3,0.1 4.5,0.1 6.8,0.2 0.2,0.7 0.5,1.4 0.8,2 z"
   class="st5"
   inkscape:connector-curvature="0"
   style="fill:#cc3e63" />
		<path
   id="path4756"
   d="m -246.9,73.6 c -4.3,0 -8.3,-2.7 -8.3,-5.8 0,-2.8 3.2,-5.1 7.2,-5.1 4.4,0 8.3,2.7 8.3,5.8 0,2.8 -3.2,5.1 -7.2,5.1 z"
   class="st4"
   inkscape:connector-curvature="0"
   style="fill:#20201e" />
		<path
   id="path4758"
   d="m -230.9,79.4 c 0.1,0.6 0.6,2.8 2.2,4.2 0.7,0.6 1.5,1 2.3,1.1 1.8,0.2 3.1,-0.9 3.7,-1.4 1.8,-1.5 2.2,-3.5 2.3,-4.2 -0.3,0 -0.7,0 -1,0 -0.1,0.3 -0.3,0.7 -0.5,1.1 -0.5,0.8 -0.9,1.4 -1.3,1.7 0,0 -0.3,0.2 -0.5,0.4 -0.2,0.1 -1.9,1 -3.4,0.3 -0.6,-0.3 -0.9,-0.7 -1.2,-1 -1,-1.2 -1.1,-2.6 -1.1,-3.3 -0.5,0.3 -1,0.7 -1.5,1.1 z"
   class="st6"
   inkscape:connector-curvature="0"
   style="fill:#e5385d" />
		<path
   id="path4760"
   d="m -210.5,78.8 c 0,0.6 -0.3,2.7 -2,4.3 -0.4,0.4 -2,1.9 -4,1.6 -1.2,-0.2 -2,-0.9 -2.5,-1.4 -1.6,-1.5 -2.1,-3.3 -2.2,-4.2 0.3,0 0.6,0 0.8,0 0.1,0.2 0.1,0.4 0.2,0.6 0,0.1 0.1,0.3 0.3,0.5 0.1,0.2 0.4,0.6 0.7,1.1 0.2,0.2 0.7,0.8 1.4,1.1 1,0.5 2.3,0.5 3.3,0.1 1.5,-0.7 2.5,-2.3 2.5,-4.2 0.6,0.2 1,0.3 1.5,0.5 z"
   class="st6"
   inkscape:connector-curvature="0"
   style="fill:#e5385d" />
		<path
   id="path4762"
   d="m -267.6,24.8 c 2.3,-1.3 5.3,-2.7 9.1,-3.9 3.6,-1.1 6.8,-1.8 9.4,-2.2 -1.2,-2.1 -2.5,-3.7 -3.5,-4.9 -1.3,-1.5 -3.2,-3.1 -7.1,-6.2 -1.2,-0.9 -2.3,-1.8 -3.5,-1.6 -0.7,0.1 -1.2,0.6 -1.8,1.5 -1.7,2.4 -2.2,4.6 -2.3,5.3 -0.3,1.4 -0.6,3.3 -0.7,5.9 0,1.6 0.1,3.6 0.4,6.1 z"
   class="st7"
   inkscape:connector-curvature="0"
   style="fill:#ff99a3" />
		<path
   id="path4764"
   d="m -172,28 c -2.1,-1.7 -4.9,-3.7 -8.5,-5.5 -3.4,-1.7 -6.5,-2.8 -9,-3.6 1.5,-2.2 3,-3.8 4.1,-5 1.5,-1.5 3.6,-3 7.9,-6 1.3,-0.9 2.5,-1.7 3.7,-1.4 0.7,0.2 1.1,0.9 1.6,1.9 1.3,2.8 1.5,5.4 1.6,6.1 0.1,1.6 0.1,3.8 -0.2,6.7 -0.2,1.8 -0.5,4.1 -1.2,6.8 z"
   class="st7"
   inkscape:connector-curvature="0"
   style="fill:#ff99a3" />
		<path
   id="path4766"
   d="m -227.9,215.8 c -7.7,2.1 -14.6,0.2 -16.9,-4 -0.8,-1.4 -1.9,-4.8 -0.3,-7.8 1.2,-2.3 3.4,-3.2 4.2,-3.4 0,-14.3 0,-28.7 0,-43 -1.4,-3.3 -0.9,-7.1 1.3,-9.9 3.3,-4.1 8.4,-3.6 8.7,-3.6 h 1.9 c 6.8,0 12.3,5.5 12.3,12.3 v 43.8 c 0.1,0.9 0.7,6.4 -3.3,11 -2.9,3.5 -6.7,4.4 -7.9,4.6 z"
   class="st3"
   inkscape:connector-curvature="0"
   style="fill:#e6e6e6" />
		<path
   id="path4768"
   d="m -195.3,217.4 c -7.7,2.1 -14.6,0.2 -16.9,-4 -0.8,-1.4 -1.9,-4.8 -0.3,-7.8 1.2,-2.3 3.4,-3.2 4.2,-3.4 0,-14.3 0,-28.7 0,-43 -1.4,-3.3 -0.9,-7.1 1.3,-9.9 3.3,-4.1 8.4,-3.6 8.7,-3.6 h 1.9 c 6.8,0 12.3,5.5 12.3,12.3 v 43.8 c 0.1,0.9 0.7,6.4 -3.3,11 -2.8,3.5 -6.6,4.4 -7.9,4.6 z"
   class="st3"
   inkscape:connector-curvature="0"
   style="fill:#e6e6e6" />
		<path
   id="path4770"
   d="m -238.9,204.6 c -0.4,-0.1 -0.9,-0.3 -1.5,-0.4 -0.6,-0.1 -1.7,-0.2 -2.8,0.2 -1.6,0.6 -2.3,2.1 -2.5,2.5 0.1,0.4 0.1,0.7 0.2,1.1 0.1,-0.2 0.2,-0.4 0.4,-0.6 0.1,-0.2 1.2,-1.6 3.1,-2 1.6,-0.4 2.8,0.3 3.2,-0.3 0,-0.1 -0.1,-0.4 -0.1,-0.5 z"
   class="st8"
   inkscape:connector-curvature="0"
   style="fill:#8e5960" />
		<path
   id="path4772"
   d="m -237.1,209.4 c -0.4,-0.1 -0.9,-0.1 -1.6,-0.1 -0.6,0 -1.7,0.1 -2.7,0.7 -1.4,0.9 -1.9,2.4 -2,2.9 0.1,0.4 0.2,0.7 0.3,1.1 0.1,-0.2 0.1,-0.4 0.3,-0.7 0.1,-0.2 0.9,-1.8 2.7,-2.5 1.6,-0.6 2.8,-0.2 3.1,-0.8 0.1,-0.2 0,-0.4 -0.1,-0.6 z"
   class="st8"
   inkscape:connector-curvature="0"
   style="fill:#8e5960" />
		<path
   id="path4774"
   d="m -207.2,206.6 c -0.4,0 -0.9,0 -1.6,0 -0.6,0.1 -1.7,0.2 -2.7,1 -1.4,1 -1.7,2.6 -1.7,3.1 0.1,0.3 0.3,0.7 0.4,1 0,-0.2 0.1,-0.4 0.2,-0.7 0.1,-0.2 0.8,-1.8 2.4,-2.7 1.5,-0.8 2.8,-0.4 3,-1.1 0.2,-0.2 0.1,-0.5 0,-0.6 z"
   class="st8"
   inkscape:connector-curvature="0"
   style="fill:#8e5960" />
		<path
   id="path4776"
   d="m -204.2,210.8 c -0.4,0 -0.9,0.1 -1.6,0.3 -0.6,0.2 -1.6,0.5 -2.5,1.4 -1.2,1.2 -1.2,2.8 -1.2,3.3 0.2,0.3 0.4,0.6 0.6,1 0,-0.2 0,-0.4 0.1,-0.7 0,-0.2 0.4,-1.9 2,-3.1 1.3,-1 2.7,-0.9 2.8,-1.6 0.1,-0.2 -0.1,-0.4 -0.2,-0.6 z"
   class="st8"
   inkscape:connector-curvature="0"
   style="fill:#8e5960" />
		<path
   id="path4778"
   d="m -87.8,113 c -5.8,2.6 -11.2,2.5 -14,2.3 2.1,6.5 4.2,13 6.4,19.5 19.2,-1.7 34.6,-11.2 37.9,-23.9 2,-7.6 -0.1,-17.4 -3.9,-24.4 -4.4,-8.2 -9.1,-9.3 -11.8,-18.4 -0.8,-2.9 -3.2,-11.1 1.2,-16.2 3,-3.5 7.9,-4.2 9.6,-4.4 5,-0.6 6.3,1.4 12.9,1.2 3.6,-0.1 7.9,-0.2 9.5,-3 1.7,-2.9 -0.5,-6.9 -0.7,-7.3 -4.1,-7.4 -16.3,-7.5 -19.7,-7.5 -1.7,0 -11.3,0.1 -20.3,6.6 -1.8,1.3 -4.6,3.4 -7.1,7.1 -3.3,5 -3.8,9.8 -4.3,13.6 -0.4,3.4 -1.1,10.5 2,18.2 2.6,6.4 5,5.9 8.9,14 2.6,5.5 4.8,10.1 3.1,14.6 -1.7,4.5 -6.2,6.5 -9.7,8 z"
   class="st3"
   inkscape:connector-curvature="0"
   style="fill:#e6e6e6" />
		<path
   id="path4780"
   d="m -145.3,216.6 c -7.7,2.1 -14.6,0.2 -16.9,-4 -0.8,-1.4 -1.9,-4.8 -0.3,-7.8 1.2,-2.3 3.4,-3.2 4.2,-3.4 0,-14.3 0,-28.7 0,-43 -1.4,-3.3 -0.9,-7.1 1.3,-9.9 3.3,-4.1 8.4,-3.6 8.7,-3.6 h 1.9 c 6.8,0 12.3,5.5 12.3,12.3 V 201 c 0.1,0.9 0.7,6.4 -3.3,11 -2.9,3.5 -6.7,4.4 -7.9,4.6 z"
   class="st3"
   inkscape:connector-curvature="0"
   style="fill:#e6e6e6" />
		<path
   id="path4782"
   d="m -112.7,218.2 c -7.7,2.1 -14.6,0.2 -16.9,-4 -0.8,-1.4 -1.9,-4.8 -0.3,-7.8 1.2,-2.3 3.4,-3.2 4.2,-3.4 0,-14.3 0,-28.7 0,-43 -1.4,-3.3 -0.9,-7.1 1.3,-9.9 3.3,-4.1 8.4,-3.6 8.7,-3.6 h 1.9 c 6.8,0 12.3,5.5 12.3,12.3 v 43.8 c 0.1,0.9 0.7,6.4 -3.3,11 -2.8,3.4 -6.7,4.3 -7.9,4.6 z"
   class="st3"
   inkscape:connector-curvature="0"
   style="fill:#e6e6e6" />
		<path
   id="path4784"
   d="m -156.3,205.3 c -0.4,-0.1 -0.9,-0.3 -1.5,-0.4 -0.6,-0.1 -1.7,-0.2 -2.8,0.2 -1.6,0.6 -2.3,2.1 -2.5,2.5 0.1,0.4 0.1,0.7 0.2,1.1 0.1,-0.2 0.2,-0.4 0.4,-0.6 0.1,-0.2 1.2,-1.6 3.1,-2 1.6,-0.4 2.8,0.3 3.2,-0.3 0,0 -0.1,-0.3 -0.1,-0.5 z"
   class="st8"
   inkscape:connector-curvature="0"
   style="fill:#8e5960" />
		<path
   id="path4786"
   d="m -154.5,210.2 c -0.4,-0.1 -0.9,-0.1 -1.6,-0.1 -0.6,0 -1.7,0.1 -2.7,0.7 -1.4,0.9 -1.9,2.4 -2,2.9 0.1,0.4 0.2,0.7 0.3,1.1 0.1,-0.2 0.1,-0.4 0.3,-0.7 0.1,-0.2 0.9,-1.8 2.7,-2.5 1.6,-0.6 2.8,-0.2 3.1,-0.8 0.1,-0.2 0,-0.4 -0.1,-0.6 z"
   class="st8"
   inkscape:connector-curvature="0"
   style="fill:#8e5960" />
		<path
   id="path4788"
   d="m -124.6,207.4 c -0.4,0 -0.9,0 -1.6,0 -0.6,0.1 -1.7,0.2 -2.7,1 -1.4,1 -1.7,2.6 -1.7,3.1 0.1,0.3 0.3,0.7 0.4,1 0,-0.2 0.1,-0.4 0.2,-0.7 0.1,-0.2 0.8,-1.8 2.4,-2.7 1.5,-0.8 2.8,-0.4 3,-1.1 0.2,-0.3 0.1,-0.5 0,-0.6 z"
   class="st8"
   inkscape:connector-curvature="0"
   style="fill:#8e5960" />
		<path
   id="path4790"
   d="m -121.6,211.6 c -0.4,0 -0.9,0.1 -1.6,0.3 -0.6,0.2 -1.6,0.5 -2.5,1.4 -1.2,1.2 -1.2,2.8 -1.2,3.3 0.2,0.3 0.4,0.6 0.6,1 0,-0.2 0,-0.4 0.1,-0.7 0,-0.2 0.4,-1.9 2,-3.1 1.3,-1 2.7,-0.9 2.8,-1.6 0.1,-0.3 -0.1,-0.5 -0.2,-0.6 z"
   class="st8"
   inkscape:connector-curvature="0"
   style="fill:#8e5960" />
	</g>
</g><g
     id="cat_walk_2-9">
	<path
   id="path4794"
   d="M 47.3,119.4"
   class="st3"
   inkscape:connector-curvature="0"
   style="fill:#e6e6e6" />
	<path
   id="path4796"
   d="M 63.9,179.4"
   class="st3"
   inkscape:connector-curvature="0"
   style="fill:#e6e6e6" />
	<path
   id="path4798"
   d="m 61.9,113.6 c 15.9,2.6 28.2,0.4 31.8,-0.3 1,-0.2 5.1,-1 10.2,-2.7 4.8,-1.6 10.1,-3.4 15.9,-7.5 1.3,-0.9 2.2,-1.7 2.9,-2.3 0,0 2.8,-2.5 2.8,-2.5 2.8,-2.4 -2.8,2.5 -2.8,2.5 -0.1,-0.1 1,-1.6 2.8,-2.5 0.6,-0.3 1.2,-0.6 2,-0.5 1.5,0.2 1.8,1.5 3.7,2.3 0.9,0.4 2.9,1 3.8,0.1 0.8,-0.8 0.3,-2.6 -0.2,-3.6 -0.2,-0.4 -0.4,-1.1 -1.5,-1.8 -2,-1.3 -2.5,-2.7 -1.1,-4.8 1.4,-2.1 2.9,-3 5.4,-1.7 1.2,0.6 2.7,1 4,0.9 0.9,0 2.3,-0.8 2.5,-1.6 0.3,-0.8 -0.3,-2.3 -1,-2.8 -0.7,-0.6 -1.1,-0.5 -3.7,-1.7 -1.7,-0.7 -2.1,-1 -2.3,-1.4 -0.3,-0.6 -0.3,-1.3 -0.3,-2.2 0,-0.8 0,-1.2 0.2,-1.6 0.5,-1 1.6,-1.4 3,-1.5 3.3,-0.2 3.9,0.1 5.8,-0.6 1.3,-0.5 3,-1.7 2.9,-2.8 -0.1,-1.2 -2.4,-1.9 -3.7,-2.3 -3.5,-1.1 -5.2,0 -6.4,-1.2 -0.9,-0.9 -1,-2.8 -1.1,-6.5 -0.6,-17.5 -2.7,-34.8 -7.3,-51.8 -0.5,-1.7 -1.3,-3.4 -2.1,-5.1 -2.2,-5 -6.3,-6.5 -10.9,-3.5 -5.5,3.5 -10.7,7.5 -15.9,11.4 -1.8,1.4 -3.3,3.2 -5.3,4.4 -1.4,0.9 -3.4,1.6 -5,1.3 -10.3,-2 -20.4,-2.1 -30.7,0.1 -1.7,0.4 -4.1,-0.4 -5.6,-1.5 C 47.7,13.2 41,7.9 34,2.9 29.1,-0.6 24.4,0.8 22.2,6.4 c -1.1,3 -2.2,6 -2.9,9.1 -3.2,16.1 -6.2,32.1 -6,48.6 0,0.5 0,0.9 -0.1,1.4 -0.5,5.5 -0.5,5.4 -6,5.1 C 5,70.5 1.5,69.2 1,72.8 c -0.5,3.7 3.3,2.6 5.3,3.2 1.5,0.4 3.2,0.3 4.8,0.6 2.7,0.5 3.4,2.7 1.6,4.8 v 0 c -0.6,0.3 -1.1,0.6 -1.7,0.9 -0.2,0 -0.4,0 -0.6,0 -1.1,0.2 -3,0.7 -4.4,2.3 -0.3,0.4 -1.9,2.1 -1.3,3.2 0.4,0.7 1.4,0.9 2.1,1 1.5,0.2 2.5,-0.2 6.2,-1 1.6,-0.4 2,-0.4 2.5,-0.3 1.2,0.3 2,1.4 2.8,2.7 1.3,2.2 -0.1,3.4 -1.7,4.5 -1,0.7 -0.9,0.6 -1.3,1 -0.9,0.9 -2,2.8 -1.2,4 0.6,1 2.1,1 2.2,1 1.3,0 2.2,-1 2.3,-1.1 0.5,-0.5 1.3,-1.2 2.5,-1.8 0.7,-0.3 1.4,-0.7 2.3,-0.6 1.1,0 1.8,0.6 4,2.4 1.4,1.2 2.5,2.1 3.2,2.7 2.2,1.4 5.2,3.1 8.9,4.8 2.5,1 10.7,4.6 22.4,6.5 z"
   class="st3"
   inkscape:connector-curvature="0"
   style="fill:#e6e6e6" />
	<path
   id="path4800"
   d="m 94.2,72.6 c 0,-3.1 3.8,-5.9 8.2,-6 4,-0.1 7.3,2.2 7.3,5 0,3.1 -3.8,5.9 -8.2,6 -4.1,0 -7.3,-2.2 -7.3,-5 z"
   class="st4"
   inkscape:connector-curvature="0"
   style="fill:#20201e" />
	<path
   id="path4802"
   d="m 77.1,78.8 c -1.4,1.4 -2.7,2.7 -4.1,4.1 -0.2,0 -0.4,0 -0.5,0 -1.4,-1.5 -2.8,-3 -4.2,-4.5 0.4,-0.6 0.8,-1.2 1.2,-1.8 2.3,0.1 4.5,0.1 6.8,0.2 0.2,0.7 0.5,1.4 0.8,2 z"
   class="st5"
   inkscape:connector-curvature="0"
   style="fill:#cc3e63" />
	<path
   id="path4804"
   d="m 46.8,77.5 c -4.3,0 -8.3,-2.7 -8.3,-5.8 0,-2.8 3.2,-5.1 7.2,-5.1 4.4,0 8.3,2.7 8.3,5.8 0,2.8 -3.2,5.1 -7.2,5.1 z"
   class="st4"
   inkscape:connector-curvature="0"
   style="fill:#20201e" />
	<path
   id="path4806"
   d="m 62.8,83.3 c 0.1,0.6 0.6,2.8 2.2,4.2 0.7,0.6 1.5,1 2.3,1.1 1.8,0.2 3.1,-0.9 3.7,-1.4 1.8,-1.5 2.2,-3.5 2.3,-4.2 -0.3,0 -0.7,0 -1,0 -0.1,0.3 -0.3,0.7 -0.5,1.1 -0.5,0.8 -0.9,1.4 -1.3,1.7 0,0 -0.3,0.2 -0.5,0.4 -0.2,0.1 -1.9,1 -3.4,0.3 -0.6,-0.3 -0.9,-0.7 -1.2,-1 -1,-1.2 -1.1,-2.6 -1.1,-3.3 -0.5,0.3 -1,0.7 -1.5,1.1 z"
   class="st6"
   inkscape:connector-curvature="0"
   style="fill:#e5385d" />
	<path
   id="path4808"
   d="m 83.2,82.7 c 0,0.6 -0.3,2.7 -2,4.3 -0.4,0.4 -2,1.9 -4,1.6 -1.2,-0.2 -2,-0.9 -2.5,-1.4 -1.6,-1.5 -2.1,-3.3 -2.2,-4.2 0.3,0 0.6,0 0.8,0 0.1,0.2 0.1,0.4 0.2,0.6 0,0.1 0.1,0.3 0.3,0.5 0.1,0.2 0.4,0.6 0.7,1.1 0.2,0.2 0.7,0.8 1.4,1.1 1,0.5 2.3,0.5 3.3,0.1 1.5,-0.7 2.5,-2.3 2.5,-4.2 0.5,0.1 1,0.3 1.5,0.5 z"
   class="st6"
   inkscape:connector-curvature="0"
   style="fill:#e5385d" />
	<path
   id="path4810"
   d="M 26.1,28.7 C 28.4,27.4 31.4,26 35.2,24.8 38.8,23.7 42,23 44.6,22.6 43.4,20.5 42.1,18.9 41.1,17.7 39.8,16.2 37.9,14.6 34,11.5 32.8,10.6 31.7,9.7 30.5,9.9 c -0.7,0.1 -1.2,0.6 -1.8,1.5 -1.7,2.4 -2.2,4.6 -2.3,5.3 -0.3,1.4 -0.6,3.3 -0.7,5.9 0,1.6 0,3.6 0.4,6.1 z"
   class="st7"
   inkscape:connector-curvature="0"
   style="fill:#ff99a3" />
	<path
   id="path4812"
   d="m 121.7,31.8 c -2.1,-1.7 -4.9,-3.7 -8.5,-5.5 -3.4,-1.7 -6.5,-2.8 -9,-3.6 1.5,-2.2 3,-3.8 4.1,-5 1.5,-1.5 3.6,-3 7.9,-6 1.3,-0.9 2.5,-1.7 3.7,-1.4 0.7,0.2 1.1,0.9 1.6,1.9 1.3,2.8 1.5,5.4 1.6,6.1 0.1,1.6 0.1,3.8 -0.2,6.7 -0.2,1.9 -0.5,4.2 -1.2,6.8 z"
   class="st7"
   inkscape:connector-curvature="0"
   style="fill:#ff99a3" />
	<path
   id="path4814"
   d="m 99.3,222.4 c -7.1,3.7 -14.2,3.3 -17.3,-0.3 -1,-1.2 -2.9,-4.2 -1.9,-7.6 0.7,-2.5 2.7,-3.8 3.4,-4.3 -3,-14 -6.1,-28 -9.1,-42 -2.1,-2.9 -2.4,-6.8 -0.8,-9.9 2.3,-4.7 7.4,-5.3 7.8,-5.4 l 1.8,-0.4 c 6.7,-1.4 13.2,2.8 14.7,9.4 l 9.3,42.8 c 0.3,0.9 2,6.1 -0.9,11.4 -2.3,4.1 -5.8,5.8 -7,6.3 z"
   class="st9"
   inkscape:connector-curvature="0"
   style="fill:#d6d6d6" />
	<path
   id="path4816"
   d="m 35.7,207 c -7,-3.8 -10.6,-9.9 -9.4,-14.6 0.4,-1.5 1.9,-4.8 5.2,-5.8 2.5,-0.8 4.7,0.1 5.4,0.5 10,-10.3 19.9,-20.6 29.9,-30.9 1.3,-3.3 4.3,-5.7 7.8,-6.2 5.2,-0.7 8.6,3.2 8.8,3.5 l 1.3,1.3 c 4.9,4.7 5,12.6 0.3,17.4 l -30.5,31.5 c -0.6,0.7 -4,5 -10,5.6 -4.4,0.4 -7.7,-1.7 -8.8,-2.3 z"
   class="st3"
   inkscape:connector-curvature="0"
   style="fill:#e6e6e6" />
	<path
   id="path4818"
   d="m 86.2,213.7 c -0.4,0 -0.9,-0.1 -1.6,0 -0.6,0.1 -1.7,0.2 -2.7,0.8 -1.4,1 -1.8,2.5 -1.9,3 0.1,0.4 0.3,0.7 0.4,1.1 0,-0.2 0.1,-0.4 0.2,-0.7 0.1,-0.2 0.8,-1.8 2.6,-2.6 1.5,-0.7 2.8,-0.3 3,-1 0.2,-0.2 0.1,-0.4 0,-0.6 z"
   class="st8"
   inkscape:connector-curvature="0"
   style="fill:#8e5960" />
	<path
   id="path4820"
   d="m 89,218.1 c -0.4,0 -0.9,0.1 -1.6,0.2 -0.6,0.2 -1.7,0.4 -2.5,1.3 -1.2,1.2 -1.3,2.8 -1.4,3.3 0.2,0.3 0.4,0.7 0.6,1 0,-0.2 0.1,-0.4 0.1,-0.7 0.1,-0.2 0.5,-1.9 2.1,-3 1.4,-0.9 2.7,-0.8 2.9,-1.5 0.1,-0.2 -0.1,-0.5 -0.2,-0.6 z"
   class="st8"
   inkscape:connector-curvature="0"
   style="fill:#8e5960" />
	<path
   id="path4822"
   d="m 34.7,190.9 c -0.3,-0.3 -0.6,-0.7 -1.2,-1.1 -0.5,-0.4 -1.4,-1 -2.6,-1.2 -1.7,-0.2 -3,0.7 -3.4,1 -0.1,0.4 -0.3,0.7 -0.4,1.1 0.1,-0.1 0.4,-0.2 0.6,-0.3 0.2,-0.1 1.8,-0.8 3.6,-0.3 1.6,0.5 2.3,1.6 2.9,1.3 0.3,-0.1 0.4,-0.3 0.5,-0.5 z"
   class="st8"
   inkscape:connector-curvature="0"
   style="fill:#8e5960" />
	<path
   id="path4824"
   d="m 33.9,196 c -0.3,-0.2 -0.7,-0.6 -1.3,-0.9 -0.6,-0.3 -1.5,-0.8 -2.7,-0.7 -1.7,0.1 -2.8,1.2 -3.2,1.6 -0.1,0.4 -0.2,0.7 -0.2,1.1 0.1,-0.1 0.3,-0.3 0.6,-0.4 0.2,-0.1 1.7,-1.1 3.6,-0.8 1.7,0.2 2.6,1.2 3.1,0.8 0,-0.2 0.1,-0.5 0.1,-0.7 z"
   class="st8"
   inkscape:connector-curvature="0"
   style="fill:#8e5960" />
	<path
   id="path4826"
   d="m 205.9,116.9 c -5.8,2.6 -11.2,2.5 -14,2.3 2.1,6.5 4.2,13 6.4,19.5 19.2,-1.7 34.6,-11.2 37.9,-23.9 2,-7.6 -0.1,-17.4 -3.9,-24.4 -4.4,-8.2 -9.1,-9.3 -11.8,-18.4 -0.8,-2.9 -3.2,-11.1 1.2,-16.2 3,-3.5 7.9,-4.2 9.6,-4.4 5,-0.6 6.3,1.4 12.9,1.2 3.6,-0.1 7.9,-0.2 9.5,-3 1.7,-2.9 -0.5,-6.9 -0.7,-7.3 -4.1,-7.4 -16.3,-7.5 -19.7,-7.5 -1.7,0 -11.3,0.1 -20.3,6.6 -1.8,1.3 -4.6,3.4 -7.1,7.1 -3.3,5 -3.8,9.8 -4.3,13.6 -0.4,3.4 -1.1,10.5 2,18.2 2.6,6.4 5,5.9 8.9,14 2.6,5.5 4.8,10.1 3.1,14.6 -1.7,4.5 -6.3,6.5 -9.7,8 z"
   class="st3"
   inkscape:connector-curvature="0"
   style="fill:#e6e6e6" />
	<path
   id="path4828"
   d="m 206.8,210.9 c -4.4,6.7 -10.8,9.8 -15.3,8.1 -1.5,-0.6 -4.6,-2.3 -5.3,-5.7 -0.5,-2.5 0.5,-4.6 0.9,-5.4 -9.5,-10.8 -18.9,-21.6 -28.4,-32.3 -3.2,-1.6 -5.4,-4.8 -5.5,-8.3 -0.3,-5.2 3.9,-8.3 4.2,-8.5 l 1.4,-1.2 c 5.1,-4.5 12.9,-4 17.4,1.1 l 28.9,32.9 c 0.7,0.6 4.7,4.4 4.8,10.4 0,4.8 -2.3,8 -3.1,8.9 z"
   class="st9"
   inkscape:connector-curvature="0"
   style="fill:#d6d6d6" />
	<path
   id="path4830"
   d="m 158.3,225.7 c -7.8,1.5 -14.5,-0.9 -16.5,-5.3 -0.7,-1.5 -1.6,-4.9 0.4,-7.8 1.4,-2.2 3.7,-2.9 4.5,-3.1 1.1,-14.3 2.2,-28.6 3.4,-42.9 -1.1,-3.4 -0.3,-7.2 2.1,-9.8 3.6,-3.8 8.7,-3 9,-2.9 l 1.8,0.1 c 6.8,0.5 11.9,6.5 11.3,13.3 l -3.4,43.7 c 0,0.9 0.1,6.4 -4.1,10.7 -3.3,3.3 -7.2,3.9 -8.5,4 z"
   class="st3"
   inkscape:connector-curvature="0"
   style="fill:#e6e6e6" />
	<path
   id="path4832"
   d="m 194.1,168.2 c 4.9,-7.9 5.4,-15.6 5.7,-20.6 0.7,-10.2 -1.7,-18.4 -3.4,-23.1 -2,-2.7 -5.3,-6.6 -10.2,-10 -5.4,-3.7 -9.9,-5 -18.6,-7.4 -4.6,-1.3 -13.1,-3.4 -24.3,-4.1 -2,-0.1 -3.5,-0.2 -6.9,-0.3 -18.1,-0.4 -27.2,-0.6 -35.8,-0.2 -13,0.7 -19.6,1 -26.2,3.4 -5.9,2.1 -15,5.5 -21.1,14.6 -4.1,6.1 -5.3,12.4 -5.6,14.6 -0.4,2.2 -1.1,6.6 -0.2,12 0.6,3.3 1.6,6.2 2.1,7.7 0.8,2.3 1.6,4.1 2.1,5.1 3.9,7.8 9.5,12.3 12.1,14.3 3.9,3 7.3,4.7 12.5,7.3 1,0.5 2,1 2.9,1.4 0,0 3,1.4 5.7,2.4 3.2,1.2 13.9,3.1 28.5,3.8 5.2,0 10.4,0 15.7,0 4.9,0.4 11.7,0.6 19.7,0 7.6,-0.6 14.3,-0.8 22.1,-3.7 5.3,-2 16.3,-6.1 23.2,-17.2 z"
   class="st3"
   inkscape:connector-curvature="0"
   style="fill:#e6e6e6" />
	<path
   id="path4834"
   d="m 191.1,209.7 c -0.4,0.1 -0.9,0.4 -1.4,0.7 -0.5,0.3 -1.4,1 -2,2 -0.8,1.5 -0.3,3.1 -0.2,3.5 0.3,0.2 0.6,0.5 0.9,0.7 0,-0.2 -0.1,-0.4 -0.1,-0.7 0,-0.2 -0.1,-2 1,-3.5 1,-1.4 2.3,-1.6 2.2,-2.3 0,-0.1 -0.2,-0.3 -0.4,-0.4 z"
   class="st8"
   inkscape:connector-curvature="0"
   style="fill:#8e5960" />
	<path
   id="path4836"
   d="m 195.7,212.2 c -0.3,0.2 -0.8,0.5 -1.3,1 -0.4,0.4 -1.2,1.2 -1.6,2.3 -0.5,1.6 0.2,3.1 0.4,3.5 0.3,0.2 0.6,0.4 1,0.6 -0.1,-0.2 -0.2,-0.4 -0.2,-0.7 -0.1,-0.2 -0.5,-1.9 0.4,-3.6 0.8,-1.5 2,-2 1.8,-2.7 -0.1,-0.2 -0.3,-0.4 -0.5,-0.4 z"
   class="st8"
   inkscape:connector-curvature="0"
   style="fill:#8e5960" />
	<path
   id="path4838"
   d="m 147.3,214 c -0.4,-0.1 -0.9,-0.1 -1.6,-0.1 -0.6,0 -1.7,0.1 -2.7,0.7 -1.4,0.9 -1.9,2.5 -2,2.9 0.1,0.4 0.2,0.7 0.4,1.1 0.1,-0.2 0.1,-0.4 0.3,-0.7 0.1,-0.2 0.9,-1.8 2.6,-2.5 1.5,-0.7 2.8,-0.2 3.1,-0.9 0.1,-0.1 0,-0.3 -0.1,-0.5 z"
   class="st8"
   inkscape:connector-curvature="0"
   style="fill:#8e5960" />
	<path
   id="path4840"
   d="m 150,218.5 c -0.4,0 -0.9,0 -1.6,0.2 -0.6,0.1 -1.7,0.4 -2.6,1.2 -1.3,1.1 -1.4,2.7 -1.5,3.2 0.2,0.3 0.4,0.7 0.5,1 0,-0.2 0.1,-0.4 0.2,-0.7 0.1,-0.2 0.6,-1.9 2.2,-2.9 1.4,-0.9 2.8,-0.7 2.9,-1.4 0.1,-0.3 0,-0.5 -0.1,-0.6 z"
   class="st8"
   inkscape:connector-curvature="0"
   style="fill:#8e5960" />
</g><g
     class="st0"
     id="cat_walk_1-9"
     style="display:none">
	<path
   id="path4843"
   d="M 46.3,118.4"
   class="st1"
   inkscape:connector-curvature="0"
   style="display:inline;fill:#e6e6e6" />
	<path
   id="path4845"
   d="M 62.9,178.4"
   class="st1"
   inkscape:connector-curvature="0"
   style="display:inline;fill:#e6e6e6" />
	<path
   id="path4847"
   d="m 60.9,112.6 c 15.9,2.6 28.2,0.4 31.8,-0.3 1,-0.2 5.1,-1 10.2,-2.7 4.8,-1.6 10.1,-3.4 15.9,-7.5 1.3,-0.9 2.2,-1.7 2.9,-2.3 0,0 2.8,-2.5 2.8,-2.5 2.8,-2.4 -2.8,2.5 -2.8,2.5 -0.1,-0.1 1,-1.6 2.8,-2.5 0.6,-0.3 1.2,-0.6 2,-0.5 1.5,0.2 1.8,1.5 3.7,2.3 0.9,0.4 2.9,1 3.8,0.1 0.8,-0.8 0.3,-2.6 -0.2,-3.6 -0.2,-0.4 -0.4,-1.1 -1.5,-1.8 -2,-1.3 -2.5,-2.7 -1.1,-4.8 1.4,-2.1 2.9,-3 5.4,-1.7 1.2,0.6 2.7,1 4,0.9 0.9,0 2.3,-0.8 2.5,-1.6 0.3,-0.8 -0.3,-2.3 -1,-2.8 -0.7,-0.6 -1.1,-0.5 -3.7,-1.7 -1.7,-0.7 -2.1,-1 -2.3,-1.4 -0.3,-0.6 -0.3,-1.3 -0.3,-2.2 0,-0.8 0,-1.2 0.2,-1.6 0.5,-1 1.6,-1.4 3,-1.5 3.3,-0.2 3.9,0.1 5.8,-0.6 1.3,-0.5 3,-1.7 2.9,-2.8 -0.1,-1.2 -2.4,-1.9 -3.7,-2.3 -3.5,-1.1 -5.2,0 -6.4,-1.2 -0.9,-0.9 -1,-2.8 -1.1,-6.5 -0.6,-17.5 -2.7,-34.8 -7.3,-51.8 -0.5,-1.7 -1.3,-3.4 -2.1,-5.1 -2.2,-5 -6.3,-6.5 -10.9,-3.5 C 110.7,5.1 105.5,9.1 100.3,13 98.5,14.4 97,16.2 95,17.4 93.6,18.3 91.6,19 90,18.7 79.7,16.7 69.6,16.6 59.3,18.8 57.6,19.2 55.2,18.4 53.7,17.3 46.7,12.2 40,6.9 33,1.9 28.1,-1.6 23.4,-0.2 21.2,5.4 c -1.1,3 -2.2,6 -2.9,9.1 -3.2,16.1 -6.2,32.1 -6,48.6 0,0.5 0,0.9 -0.1,1.4 -0.5,5.5 -0.5,5.4 -6,5.1 C 4,69.5 0.5,68.2 0,71.8 c -0.5,3.7 3.3,2.6 5.3,3.2 1.5,0.4 3.2,0.3 4.8,0.6 2.7,0.5 3.4,2.7 1.6,4.8 v 0 c -0.6,0.3 -1.1,0.6 -1.7,0.9 -0.2,0 -0.4,0 -0.6,0 -1.1,0.2 -3,0.7 -4.4,2.3 -0.3,0.4 -1.9,2.1 -1.3,3.2 0.4,0.7 1.4,0.9 2.1,1 1.5,0.2 2.5,-0.2 6.2,-1 1.6,-0.4 2,-0.4 2.5,-0.3 1.2,0.3 2,1.4 2.8,2.7 1.3,2.2 -0.1,3.4 -1.7,4.5 -1,0.7 -0.9,0.6 -1.3,1 -0.9,0.9 -2,2.8 -1.2,4 0.6,1 2.1,1 2.2,1 1.3,0 2.2,-1 2.3,-1.1 0.5,-0.5 1.3,-1.2 2.5,-1.8 0.7,-0.3 1.4,-0.7 2.3,-0.6 1.1,0 1.8,0.6 4,2.4 1.4,1.2 2.5,2.1 3.2,2.7 2.2,1.4 5.2,3.1 8.9,4.8 2.5,1 10.7,4.6 22.4,6.5 z"
   class="st1"
   inkscape:connector-curvature="0"
   style="display:inline;fill:#e6e6e6" />
	<path
   id="path4849"
   d="m 93.2,71.6 c 0,-3.1 3.8,-5.9 8.2,-6 4,-0.1 7.3,2.2 7.3,5 0,3.1 -3.8,5.9 -8.2,6 -4.1,0 -7.3,-2.2 -7.3,-5 z"
   class="st10"
   inkscape:connector-curvature="0"
   style="display:inline;fill:#20201e" />
	<path
   id="path4851"
   d="m 76.1,77.8 c -1.4,1.4 -2.7,2.7 -4.1,4.1 -0.2,0 -0.4,0 -0.5,0 -1.4,-1.5 -2.8,-3 -4.2,-4.5 0.4,-0.6 0.8,-1.2 1.2,-1.8 2.3,0.1 4.5,0.1 6.8,0.2 0.2,0.7 0.5,1.4 0.8,2 z"
   class="st11"
   inkscape:connector-curvature="0"
   style="display:inline;fill:#cc3e63" />
	<path
   id="path4853"
   d="m 45.8,76.5 c -4.3,0 -8.3,-2.7 -8.3,-5.8 0,-2.8 3.2,-5.1 7.2,-5.1 4.4,0 8.3,2.7 8.3,5.8 0,2.8 -3.2,5.1 -7.2,5.1 z"
   class="st10"
   inkscape:connector-curvature="0"
   style="display:inline;fill:#20201e" />
	<path
   id="path4855"
   d="m 61.8,82.3 c 0.1,0.6 0.6,2.8 2.2,4.2 0.7,0.6 1.5,1 2.3,1.1 1.8,0.2 3.1,-0.9 3.7,-1.4 1.8,-1.5 2.2,-3.5 2.3,-4.2 -0.3,0 -0.7,0 -1,0 -0.1,0.3 -0.3,0.7 -0.5,1.1 -0.5,0.8 -0.9,1.4 -1.3,1.7 0,0 -0.3,0.2 -0.5,0.4 -0.2,0.1 -1.9,1 -3.4,0.3 -0.6,-0.3 -0.9,-0.7 -1.2,-1 -1,-1.2 -1.1,-2.6 -1.1,-3.3 -0.5,0.3 -1,0.7 -1.5,1.1 z"
   class="st12"
   inkscape:connector-curvature="0"
   style="display:inline;fill:#e5385d" />
	<path
   id="path4857"
   d="m 82.2,81.7 c 0,0.6 -0.3,2.7 -2,4.3 -0.4,0.4 -2,1.9 -4,1.6 -1.2,-0.2 -2,-0.9 -2.5,-1.4 -1.6,-1.5 -2.1,-3.3 -2.2,-4.2 0.3,0 0.6,0 0.8,0 0.1,0.2 0.1,0.4 0.2,0.6 0,0.1 0.1,0.3 0.3,0.5 0.1,0.2 0.4,0.6 0.7,1.1 0.2,0.2 0.7,0.8 1.4,1.1 1,0.5 2.3,0.5 3.3,0.1 1.5,-0.7 2.5,-2.3 2.5,-4.2 0.5,0.1 1,0.3 1.5,0.5 z"
   class="st12"
   inkscape:connector-curvature="0"
   style="display:inline;fill:#e5385d" />
	<path
   id="path4859"
   d="M 25.1,27.7 C 27.4,26.4 30.4,25 34.2,23.8 37.8,22.7 41,22 43.6,21.6 42.4,19.5 41.1,17.9 40.1,16.7 38.8,15.2 36.9,13.6 33,10.5 31.8,9.6 30.7,8.7 29.5,8.9 28.8,9 28.3,9.5 27.7,10.4 26,12.8 25.5,15 25.4,15.7 c -0.3,1.4 -0.6,3.3 -0.7,5.9 0,1.6 0,3.6 0.4,6.1 z"
   class="st13"
   inkscape:connector-curvature="0"
   style="display:inline;fill:#ff99a3" />
	<path
   id="path4861"
   d="m 120.7,30.9 c -2.1,-1.7 -4.9,-3.7 -8.5,-5.5 -3.4,-1.7 -6.5,-2.8 -9,-3.6 1.5,-2.2 3,-3.8 4.1,-5 1.5,-1.5 3.6,-3 7.9,-6 1.3,-0.9 2.5,-1.7 3.7,-1.4 0.7,0.2 1.1,0.9 1.6,1.9 1.3,2.8 1.5,5.4 1.6,6.1 0.1,1.6 0.1,3.8 -0.2,6.7 -0.2,1.8 -0.5,4.1 -1.2,6.8 z"
   class="st13"
   inkscape:connector-curvature="0"
   style="display:inline;fill:#ff99a3" />
	<path
   id="path4863"
   d="m 49.4,212.7 c -7.9,-0.9 -13.6,-5.2 -14.2,-10 -0.2,-1.6 0,-5.1 2.7,-7.3 2,-1.6 4.4,-1.7 5.2,-1.6 5.4,-13.3 10.7,-26.6 16.1,-39.9 -0.1,-3.6 1.8,-6.9 4.9,-8.7 4.6,-2.6 9.1,-0.3 9.4,-0.1 l 1.7,0.7 c 6.3,2.5 9.4,9.7 6.8,16.1 l -16.4,40.7 c -0.2,0.9 -1.8,6.2 -7.1,8.9 -4,2.1 -7.9,1.5 -9.1,1.2 z"
   class="st14"
   inkscape:connector-curvature="0"
   style="display:inline;fill:#d6d6d6" />
	<path
   id="path4865"
   d="m 105.1,218.7 c -7,3.8 -14.1,3.5 -17.3,-0.1 -1.1,-1.2 -2.9,-4.2 -2,-7.5 0.7,-2.5 2.6,-3.8 3.3,-4.3 -3.2,-14 -6.3,-28 -9.5,-42 -2.1,-2.9 -2.4,-6.7 -0.9,-9.9 2.3,-4.7 7.4,-5.4 7.7,-5.4 l 1.8,-0.4 c 6.7,-1.5 13.3,2.7 14.8,9.3 l 9.7,42.7 c 0.3,0.9 2,6.1 -0.8,11.4 -2.1,4 -5.6,5.7 -6.8,6.2 z"
   class="st1"
   inkscape:connector-curvature="0"
   style="display:inline;fill:#e6e6e6" />
	<path
   id="path4867"
   d="m 43.4,198.2 c -0.3,-0.3 -0.7,-0.6 -1.3,-0.9 -0.5,-0.3 -1.5,-0.8 -2.7,-0.8 -1.7,0 -2.9,1.1 -3.2,1.4 -0.1,0.4 -0.2,0.7 -0.3,1.1 0.1,-0.1 0.3,-0.3 0.6,-0.4 0.2,-0.1 1.7,-1 3.6,-0.7 1.7,0.3 2.5,1.3 3.1,0.9 0.1,-0.2 0.2,-0.5 0.2,-0.6 z"
   class="st15"
   inkscape:connector-curvature="0"
   style="display:inline;fill:#8e5960" />
	<path
   id="path4869"
   d="m 43.3,203.4 c -0.3,-0.2 -0.8,-0.5 -1.4,-0.7 -0.6,-0.2 -1.6,-0.6 -2.8,-0.4 -1.7,0.3 -2.7,1.5 -3,1.9 0,0.4 -0.1,0.7 -0.1,1.1 0.1,-0.1 0.3,-0.3 0.5,-0.5 0.2,-0.1 1.5,-1.3 3.4,-1.3 1.7,0 2.7,0.9 3.2,0.4 0.2,-0.1 0.2,-0.4 0.2,-0.5 z"
   class="st15"
   inkscape:connector-curvature="0"
   style="display:inline;fill:#8e5960" />
	<path
   id="path4871"
   d="m 91.1,210.8 c -0.4,0.1 -0.9,0.2 -1.5,0.4 -0.6,0.2 -1.6,0.6 -2.4,1.5 -1.1,1.3 -1,2.9 -1,3.4 0.2,0.3 0.4,0.6 0.7,0.9 0,-0.2 0,-0.4 0.1,-0.7 0,-0.2 0.3,-2 1.8,-3.2 1.3,-1.1 2.6,-1 2.7,-1.7 -0.1,-0.3 -0.3,-0.5 -0.4,-0.6 z"
   class="st15"
   inkscape:connector-curvature="0"
   style="display:inline;fill:#8e5960" />
	<path
   id="path4873"
   d="m 95,214.2 c -0.4,0.1 -0.9,0.3 -1.4,0.6 -0.5,0.3 -1.5,0.9 -2.1,1.9 -0.9,1.5 -0.6,3 -0.4,3.5 0.3,0.3 0.5,0.5 0.8,0.8 0,-0.2 -0.1,-0.4 -0.1,-0.7 0,-0.2 0,-2 1.2,-3.4 1.1,-1.3 2.4,-1.5 2.4,-2.2 -0.1,-0.2 -0.3,-0.4 -0.4,-0.5 z"
   class="st15"
   inkscape:connector-curvature="0"
   style="display:inline;fill:#8e5960" />
	<path
   id="path4875"
   d="m 204.9,115.9 c -5.8,2.6 -11.2,2.5 -14,2.3 2.1,6.5 4.2,13 6.4,19.5 19.2,-1.7 34.6,-11.2 37.9,-23.9 2,-7.6 -0.1,-17.4 -3.9,-24.4 -4.4,-8.2 -9.1,-9.3 -11.8,-18.4 -0.8,-2.9 -3.2,-11.1 1.2,-16.2 3,-3.5 7.9,-4.2 9.6,-4.4 5,-0.6 6.3,1.4 12.9,1.2 3.6,-0.1 7.9,-0.2 9.5,-3 1.7,-2.9 -0.5,-6.9 -0.7,-7.3 -4.1,-7.4 -16.3,-7.5 -19.7,-7.5 -1.7,0 -11.3,0.1 -20.3,6.6 -1.8,1.3 -4.6,3.4 -7.1,7.1 -3.3,5 -3.8,9.8 -4.3,13.6 -0.4,3.4 -1.1,10.5 2,18.2 2.6,6.4 5,5.9 8.9,14 2.6,5.5 4.8,10.1 3.1,14.6 -1.7,4.5 -6.3,6.5 -9.7,8 z"
   class="st1"
   inkscape:connector-curvature="0"
   style="display:inline;fill:#e6e6e6" />
	<path
   id="path4877"
   d="m 140.4,219.5 c -7.9,0.6 -14.3,-2.6 -15.8,-7.2 -0.5,-1.5 -1,-5 1.3,-7.7 1.7,-2 4,-2.4 4.8,-2.6 2.8,-14.1 5.6,-28.1 8.4,-42.2 -0.7,-3.5 0.5,-7.1 3.2,-9.4 4,-3.4 8.9,-1.9 9.3,-1.8 l 1.8,0.4 c 6.7,1.3 11,7.8 9.7,14.5 l -8.5,43 c -0.1,0.9 -0.6,6.4 -5.4,10.1 -3.6,2.7 -7.6,2.9 -8.8,2.9 z"
   class="st14"
   inkscape:connector-curvature="0"
   style="display:inline;fill:#d6d6d6" />
	<path
   id="path4879"
   d="m 197.8,214.3 c -5.5,5.8 -12.4,7.7 -16.5,5.3 -1.4,-0.8 -4.1,-3.1 -4.2,-6.5 -0.1,-2.6 1.3,-4.5 1.8,-5.1 -7.4,-12.3 -14.8,-24.6 -22.1,-36.9 -2.9,-2.1 -4.4,-5.6 -4,-9.2 0.7,-5.2 5.3,-7.4 5.6,-7.6 l 1.6,-1 c 5.8,-3.5 13.4,-1.6 16.9,4.2 l 22.6,37.6 c 0.6,0.7 3.8,5.1 2.8,11.1 -0.8,4.6 -3.6,7.3 -4.5,8.1 z"
   class="st1"
   inkscape:connector-curvature="0"
   style="display:inline;fill:#e6e6e6" />
	<path
   id="path4881"
   d="m 193.1,167.2 c 4.9,-7.9 5.4,-15.6 5.7,-20.6 0.7,-10.2 -1.7,-18.4 -3.4,-23.1 -2,-2.7 -5.3,-6.6 -10.2,-10 -5.4,-3.7 -9.9,-5 -18.6,-7.4 -4.6,-1.3 -13.1,-3.4 -24.3,-4.1 -2,-0.1 -3.5,-0.2 -6.9,-0.3 -18.1,-0.4 -27.2,-0.6 -35.8,-0.2 -13,0.7 -19.6,1 -26.2,3.4 -5.9,2.1 -15,5.5 -21.1,14.6 -4.1,6.1 -5.3,12.4 -5.6,14.6 -0.4,2.2 -1.1,6.6 -0.2,12 0.6,3.3 1.6,6.2 2.1,7.7 0.8,2.3 1.6,4.1 2.1,5.1 3.9,7.8 9.5,12.3 12.1,14.3 3.9,3 7.3,4.7 12.5,7.3 1,0.5 2,1 2.9,1.4 0,0 3,1.4 5.7,2.4 3.2,1.2 13.9,3.1 28.5,3.8 5.2,0 10.4,0 15.7,0 4.9,0.4 11.7,0.6 19.7,0 7.6,-0.6 14.3,-0.8 22.1,-3.7 5.3,-2 16.3,-6.1 23.2,-17.2 z"
   class="st1"
   inkscape:connector-curvature="0"
   style="display:inline;fill:#e6e6e6" />
	<path
   id="path4883"
   d="m 131.8,206.3 c -0.3,-0.2 -0.8,-0.5 -1.4,-0.7 -0.6,-0.2 -1.6,-0.5 -2.8,-0.3 -1.7,0.3 -2.6,1.6 -2.9,2 0,0.4 0,0.8 -0.1,1.1 0.1,-0.1 0.3,-0.3 0.5,-0.5 0.2,-0.2 1.5,-1.3 3.4,-1.4 1.7,0 2.7,0.8 3.2,0.3 0.1,-0.1 0.1,-0.4 0.1,-0.5 z"
   class="st15"
   inkscape:connector-curvature="0"
   style="display:inline;fill:#8e5960" />
	<path
   id="path4885"
   d="m 132.7,211.4 c -0.4,-0.1 -0.9,-0.3 -1.5,-0.4 -0.6,-0.1 -1.7,-0.3 -2.8,0.2 -1.6,0.6 -2.3,2 -2.5,2.5 0,0.4 0.1,0.7 0.1,1.1 0.1,-0.1 0.2,-0.4 0.4,-0.6 0.1,-0.2 1.3,-1.6 3.1,-1.9 1.6,-0.3 2.8,0.4 3.2,-0.2 0,-0.3 0,-0.5 0,-0.7 z"
   class="st15"
   inkscape:connector-curvature="0"
   style="display:inline;fill:#8e5960" />
	<path
   id="path4887"
   d="m 182,211.2 c -0.3,0.2 -0.8,0.4 -1.3,0.9 -0.5,0.4 -1.3,1.1 -1.8,2.2 -0.6,1.6 -0.1,3.1 0.1,3.5 0.3,0.2 0.6,0.4 0.9,0.7 -0.1,-0.2 -0.1,-0.4 -0.2,-0.7 0,-0.2 -0.3,-2 0.7,-3.6 0.9,-1.4 2.2,-1.8 2,-2.5 0,-0.3 -0.3,-0.4 -0.4,-0.5 z"
   class="st15"
   inkscape:connector-curvature="0"
   style="display:inline;fill:#8e5960" />
	<path
   id="path4889"
   d="m 186.8,213.3 c -0.3,0.2 -0.7,0.6 -1.2,1.1 -0.4,0.5 -1.1,1.3 -1.4,2.5 -0.4,1.6 0.4,3.1 0.7,3.5 0.3,0.2 0.7,0.3 1,0.5 -0.1,-0.2 -0.2,-0.4 -0.3,-0.7 -0.1,-0.2 -0.6,-1.9 0.1,-3.6 0.6,-1.5 1.8,-2.1 1.6,-2.8 -0.1,-0.4 -0.4,-0.5 -0.5,-0.5 z"
   class="st15"
   inkscape:connector-curvature="0"
   style="display:inline;fill:#8e5960" />
</g></g></svg>